%TF.GenerationSoftware,KiCad,Pcbnew,9.0.1*%
%TF.CreationDate,2025-04-15T19:42:40+08:00*%
%TF.ProjectId,HallConnector,48616c6c-436f-46e6-9e65-63746f722e6b,rev?*%
%TF.SameCoordinates,Original*%
%TF.FileFunction,Copper,L2,Bot*%
%TF.FilePolarity,Positive*%
%FSLAX46Y46*%
G04 Gerber Fmt 4.6, Leading zero omitted, Abs format (unit mm)*
G04 Created by KiCad (PCBNEW 9.0.1) date 2025-04-15 19:42:40*
%MOMM*%
%LPD*%
G01*
G04 APERTURE LIST*
%TA.AperFunction,ComponentPad*%
%ADD10R,1.700000X1.700000*%
%TD*%
%TA.AperFunction,ComponentPad*%
%ADD11C,1.700000*%
%TD*%
%TA.AperFunction,ViaPad*%
%ADD12C,0.600000*%
%TD*%
%TA.AperFunction,Conductor*%
%ADD13C,0.304800*%
%TD*%
G04 APERTURE END LIST*
D10*
%TO.P,J1,1,Pin_1*%
%TO.N,+5V*%
X138961500Y-55729000D03*
D11*
%TO.P,J1,2,Pin_2*%
%TO.N,GND*%
X138961500Y-58269000D03*
%TO.P,J1,3,Pin_3*%
%TO.N,Net-(J1-Pin_3)*%
X138961500Y-60809000D03*
%TO.P,J1,4,Pin_4*%
%TO.N,Net-(J1-Pin_4)*%
X138961500Y-63349000D03*
%TO.P,J1,5,Pin_5*%
%TO.N,Net-(J1-Pin_5)*%
X138961500Y-65889000D03*
%TD*%
D12*
%TO.N,/SPI1_MOSI*%
X128524000Y-60596400D03*
X126619000Y-65786000D03*
%TO.N,GND*%
X131572000Y-57150000D03*
X129794000Y-57150000D03*
X128270000Y-66421000D03*
X128270000Y-65659000D03*
%TO.N,+3.3V*%
X131572000Y-66040000D03*
X132969000Y-53594000D03*
X132842000Y-58547000D03*
X126619000Y-59944000D03*
%TO.N,GND*%
X124460000Y-56769000D03*
X124333000Y-52070000D03*
X124460000Y-57785000D03*
X123063000Y-53721000D03*
%TD*%
D13*
%TO.N,/SPI1_MOSI*%
X126619000Y-62992000D02*
X126619000Y-65786000D01*
X128524000Y-61087000D02*
X126619000Y-62992000D01*
X128524000Y-60596400D02*
X128524000Y-61087000D01*
%TO.N,+3.3V*%
X130302000Y-59944000D02*
X126619000Y-59944000D01*
X131572000Y-61214000D02*
X130302000Y-59944000D01*
X131572000Y-66040000D02*
X131572000Y-61214000D01*
X132588000Y-58293000D02*
X132842000Y-58547000D01*
X128270000Y-58293000D02*
X132588000Y-58293000D01*
X126619000Y-59944000D02*
X128270000Y-58293000D01*
X131826000Y-53594000D02*
X132969000Y-53594000D01*
X126619000Y-59944000D02*
X126619000Y-58801000D01*
X126619000Y-58801000D02*
X131826000Y-53594000D01*
%TD*%
%TA.AperFunction,Conductor*%
%TO.N,GND*%
G36*
X140442539Y-51520185D02*
G01*
X140488294Y-51572989D01*
X140499500Y-51624500D01*
X140499500Y-54604118D01*
X140479815Y-54671157D01*
X140427011Y-54716912D01*
X140357853Y-54726856D01*
X140294297Y-54697831D01*
X140259318Y-54647452D01*
X140255296Y-54636669D01*
X140255293Y-54636664D01*
X140169047Y-54521455D01*
X140169044Y-54521452D01*
X140053835Y-54435206D01*
X140053828Y-54435202D01*
X139918982Y-54384908D01*
X139918983Y-54384908D01*
X139859383Y-54378501D01*
X139859381Y-54378500D01*
X139859373Y-54378500D01*
X139859364Y-54378500D01*
X138063629Y-54378500D01*
X138063623Y-54378501D01*
X138004016Y-54384908D01*
X137869171Y-54435202D01*
X137869164Y-54435206D01*
X137753955Y-54521452D01*
X137753952Y-54521455D01*
X137667706Y-54636664D01*
X137667702Y-54636671D01*
X137617408Y-54771517D01*
X137611001Y-54831116D01*
X137611000Y-54831135D01*
X137611000Y-56626870D01*
X137611001Y-56626876D01*
X137617408Y-56686483D01*
X137667702Y-56821328D01*
X137667706Y-56821335D01*
X137753952Y-56936544D01*
X137753955Y-56936547D01*
X137869164Y-57022793D01*
X137869171Y-57022797D01*
X137914118Y-57039561D01*
X138004017Y-57073091D01*
X138063627Y-57079500D01*
X138427745Y-57079499D01*
X138494782Y-57099183D01*
X138515424Y-57115818D01*
X138961500Y-57561894D01*
X138961501Y-57561894D01*
X139407575Y-57115818D01*
X139468898Y-57082333D01*
X139495254Y-57079499D01*
X139859372Y-57079499D01*
X139918983Y-57073091D01*
X140053831Y-57022796D01*
X140169046Y-56936546D01*
X140255296Y-56821331D01*
X140255298Y-56821326D01*
X140259318Y-56810549D01*
X140301188Y-56754615D01*
X140366652Y-56730197D01*
X140434925Y-56745048D01*
X140484331Y-56794453D01*
X140499500Y-56853881D01*
X140499500Y-57850879D01*
X140479815Y-57917918D01*
X140427011Y-57963673D01*
X140357853Y-57973617D01*
X140294297Y-57944592D01*
X140257569Y-57889197D01*
X140212594Y-57750781D01*
X140212594Y-57750780D01*
X140203896Y-57733708D01*
X139668606Y-58268999D01*
X139668606Y-58269001D01*
X140203895Y-58804290D01*
X140203895Y-58804289D01*
X140212593Y-58787220D01*
X140212594Y-58787218D01*
X140257569Y-58648801D01*
X140297007Y-58591125D01*
X140361365Y-58563927D01*
X140430212Y-58575842D01*
X140481687Y-58623086D01*
X140499500Y-58687119D01*
X140499500Y-60389264D01*
X140479815Y-60456303D01*
X140427011Y-60502058D01*
X140357853Y-60512002D01*
X140294297Y-60482977D01*
X140257569Y-60427582D01*
X140213057Y-60290588D01*
X140116551Y-60101184D01*
X140116549Y-60101181D01*
X140116548Y-60101179D01*
X139991609Y-59929213D01*
X139841286Y-59778890D01*
X139669320Y-59653951D01*
X139569052Y-59602862D01*
X139518256Y-59554887D01*
X139511006Y-59525611D01*
X138961501Y-58976106D01*
X138961500Y-58976106D01*
X138413519Y-59524085D01*
X138411169Y-59542273D01*
X138366173Y-59595725D01*
X138353947Y-59602861D01*
X138253682Y-59653949D01*
X138081713Y-59778890D01*
X137931390Y-59929213D01*
X137806451Y-60101179D01*
X137709944Y-60290585D01*
X137709943Y-60290587D01*
X137709943Y-60290588D01*
X137699352Y-60323185D01*
X137644253Y-60492760D01*
X137611000Y-60702713D01*
X137611000Y-60915286D01*
X137643795Y-61122350D01*
X137644254Y-61125243D01*
X137693707Y-61277444D01*
X137709944Y-61327414D01*
X137806451Y-61516820D01*
X137931390Y-61688786D01*
X138081713Y-61839109D01*
X138253682Y-61964050D01*
X138262446Y-61968516D01*
X138313242Y-62016491D01*
X138330036Y-62084312D01*
X138307498Y-62150447D01*
X138262446Y-62189484D01*
X138253682Y-62193949D01*
X138081713Y-62318890D01*
X137931390Y-62469213D01*
X137806451Y-62641179D01*
X137709944Y-62830585D01*
X137644253Y-63032760D01*
X137611000Y-63242713D01*
X137611000Y-63455286D01*
X137641133Y-63645543D01*
X137644254Y-63665243D01*
X137665430Y-63730417D01*
X137709944Y-63867414D01*
X137806451Y-64056820D01*
X137931390Y-64228786D01*
X138081713Y-64379109D01*
X138253682Y-64504050D01*
X138262446Y-64508516D01*
X138313242Y-64556491D01*
X138330036Y-64624312D01*
X138307498Y-64690447D01*
X138262446Y-64729484D01*
X138253682Y-64733949D01*
X138081713Y-64858890D01*
X137931390Y-65009213D01*
X137806451Y-65181179D01*
X137709944Y-65370585D01*
X137644253Y-65572760D01*
X137611000Y-65782713D01*
X137611000Y-65995286D01*
X137641133Y-66185543D01*
X137644254Y-66205243D01*
X137673836Y-66296288D01*
X137709944Y-66407414D01*
X137806451Y-66596820D01*
X137931390Y-66768786D01*
X138081713Y-66919109D01*
X138253679Y-67044048D01*
X138253681Y-67044049D01*
X138253684Y-67044051D01*
X138443088Y-67140557D01*
X138645257Y-67206246D01*
X138855213Y-67239500D01*
X138855214Y-67239500D01*
X139067786Y-67239500D01*
X139067787Y-67239500D01*
X139277743Y-67206246D01*
X139479912Y-67140557D01*
X139669316Y-67044051D01*
X139691289Y-67028086D01*
X139841286Y-66919109D01*
X139841288Y-66919106D01*
X139841292Y-66919104D01*
X139991604Y-66768792D01*
X139991606Y-66768788D01*
X139991609Y-66768786D01*
X140116548Y-66596820D01*
X140116547Y-66596820D01*
X140116551Y-66596816D01*
X140213057Y-66407412D01*
X140257570Y-66270415D01*
X140297006Y-66212741D01*
X140361365Y-66185543D01*
X140430211Y-66197458D01*
X140481687Y-66244702D01*
X140499500Y-66308735D01*
X140499500Y-69375500D01*
X140479815Y-69442539D01*
X140427011Y-69488294D01*
X140375500Y-69499500D01*
X120124500Y-69499500D01*
X120057461Y-69479815D01*
X120011706Y-69427011D01*
X120000500Y-69375500D01*
X120000500Y-59865158D01*
X125818500Y-59865158D01*
X125818500Y-59869252D01*
X125818500Y-60022846D01*
X125849261Y-60177489D01*
X125849264Y-60177501D01*
X125909602Y-60323172D01*
X125909609Y-60323185D01*
X125997210Y-60454288D01*
X125997213Y-60454292D01*
X126108707Y-60565786D01*
X126108711Y-60565789D01*
X126239814Y-60653390D01*
X126239827Y-60653397D01*
X126385498Y-60713735D01*
X126385503Y-60713737D01*
X126540153Y-60744499D01*
X126540156Y-60744500D01*
X126540158Y-60744500D01*
X126697843Y-60744500D01*
X126727484Y-60738603D01*
X126773929Y-60729364D01*
X126783743Y-60727818D01*
X126818908Y-60723721D01*
X127282306Y-60601029D01*
X127314043Y-60596900D01*
X127606153Y-60596900D01*
X127636614Y-60605844D01*
X127667513Y-60613146D01*
X127669898Y-60615617D01*
X127673192Y-60616585D01*
X127693973Y-60640567D01*
X127716029Y-60663425D01*
X127717573Y-60667804D01*
X127718947Y-60669389D01*
X127727770Y-60696708D01*
X127727770Y-60696709D01*
X127741265Y-60764554D01*
X127742527Y-60772109D01*
X127747050Y-60805519D01*
X127757030Y-60840574D01*
X127756454Y-60910441D01*
X127725450Y-60962208D01*
X126111856Y-62575802D01*
X126080630Y-62622537D01*
X126068172Y-62641184D01*
X126057050Y-62657827D01*
X126040407Y-62682736D01*
X125991191Y-62801555D01*
X125991189Y-62801561D01*
X125966100Y-62927692D01*
X125966100Y-65090954D01*
X125961970Y-65122691D01*
X125839270Y-65586122D01*
X125835595Y-65600895D01*
X125835446Y-65601538D01*
X125824440Y-65669494D01*
X125824327Y-65671540D01*
X125822135Y-65688877D01*
X125818500Y-65707155D01*
X125818500Y-65864846D01*
X125849261Y-66019489D01*
X125849264Y-66019501D01*
X125909602Y-66165172D01*
X125909609Y-66165185D01*
X125997210Y-66296288D01*
X125997213Y-66296292D01*
X126108707Y-66407786D01*
X126108711Y-66407789D01*
X126239814Y-66495390D01*
X126239827Y-66495397D01*
X126385498Y-66555735D01*
X126385503Y-66555737D01*
X126540153Y-66586499D01*
X126540156Y-66586500D01*
X126540158Y-66586500D01*
X126697844Y-66586500D01*
X126697845Y-66586499D01*
X126852497Y-66555737D01*
X126998179Y-66495394D01*
X127129289Y-66407789D01*
X127240789Y-66296289D01*
X127328394Y-66165179D01*
X127388737Y-66019497D01*
X127419500Y-65864842D01*
X127419500Y-65707158D01*
X127404360Y-65631045D01*
X127402820Y-65621263D01*
X127398721Y-65586092D01*
X127291517Y-65181184D01*
X127276030Y-65122690D01*
X127271900Y-65090953D01*
X127271900Y-63313802D01*
X127291585Y-63246763D01*
X127308219Y-63226121D01*
X129031139Y-61503201D01*
X129031141Y-61503199D01*
X129102592Y-61396264D01*
X129151809Y-61277444D01*
X129176900Y-61151305D01*
X129176900Y-61131187D01*
X129178702Y-61122350D01*
X129177745Y-61116732D01*
X129186804Y-61082626D01*
X129226240Y-60989984D01*
X129230970Y-60980111D01*
X129233388Y-60975587D01*
X129233394Y-60975579D01*
X129293737Y-60829897D01*
X129310724Y-60744499D01*
X129320231Y-60696708D01*
X129352616Y-60634797D01*
X129413332Y-60600223D01*
X129441848Y-60596900D01*
X129980197Y-60596900D01*
X130047236Y-60616585D01*
X130067878Y-60633219D01*
X130882781Y-61448121D01*
X130916266Y-61509444D01*
X130919100Y-61535802D01*
X130919100Y-65344954D01*
X130914970Y-65376691D01*
X130792270Y-65840122D01*
X130788595Y-65854895D01*
X130788446Y-65855538D01*
X130777440Y-65923494D01*
X130777327Y-65925540D01*
X130775135Y-65942877D01*
X130771500Y-65961155D01*
X130771500Y-66118846D01*
X130802261Y-66273489D01*
X130802264Y-66273501D01*
X130862602Y-66419172D01*
X130862609Y-66419185D01*
X130950210Y-66550288D01*
X130950213Y-66550292D01*
X131061707Y-66661786D01*
X131061711Y-66661789D01*
X131192814Y-66749390D01*
X131192827Y-66749397D01*
X131338498Y-66809735D01*
X131338503Y-66809737D01*
X131493153Y-66840499D01*
X131493156Y-66840500D01*
X131493158Y-66840500D01*
X131650844Y-66840500D01*
X131650845Y-66840499D01*
X131805497Y-66809737D01*
X131951179Y-66749394D01*
X132082289Y-66661789D01*
X132193789Y-66550289D01*
X132281394Y-66419179D01*
X132341737Y-66273497D01*
X132372500Y-66118842D01*
X132372500Y-65961158D01*
X132357360Y-65885045D01*
X132355820Y-65875263D01*
X132351721Y-65840092D01*
X132229030Y-65376690D01*
X132224900Y-65344953D01*
X132224900Y-61149692D01*
X132199810Y-61023561D01*
X132199809Y-61023560D01*
X132199809Y-61023556D01*
X132150592Y-60904736D01*
X132150591Y-60904735D01*
X132150588Y-60904729D01*
X132097200Y-60824829D01*
X132079138Y-60797797D01*
X132079135Y-60797794D01*
X130718205Y-59436863D01*
X130718204Y-59436862D01*
X130718200Y-59436859D01*
X130611264Y-59365408D01*
X130568030Y-59347500D01*
X130492444Y-59316191D01*
X130492438Y-59316189D01*
X130366307Y-59291100D01*
X130366305Y-59291100D01*
X128494602Y-59291100D01*
X128473356Y-59284861D01*
X128451268Y-59283282D01*
X128440484Y-59275209D01*
X128427563Y-59271415D01*
X128413063Y-59254681D01*
X128395335Y-59241410D01*
X128390627Y-59228789D01*
X128381808Y-59218611D01*
X128378656Y-59196693D01*
X128370918Y-59175946D01*
X128373780Y-59162785D01*
X128371864Y-59149453D01*
X128381063Y-59129309D01*
X128385770Y-59107673D01*
X128399038Y-59089947D01*
X128400889Y-59085897D01*
X128406921Y-59079419D01*
X128504121Y-58982219D01*
X128565444Y-58948734D01*
X128591802Y-58945900D01*
X132066703Y-58945900D01*
X132133742Y-58965585D01*
X132159190Y-58987304D01*
X132209510Y-59043650D01*
X132209431Y-59043719D01*
X132218411Y-59055095D01*
X132220208Y-59057285D01*
X132220211Y-59057289D01*
X132292231Y-59129309D01*
X132331712Y-59168790D01*
X132462814Y-59256390D01*
X132462827Y-59256397D01*
X132546609Y-59291100D01*
X132608503Y-59316737D01*
X132763153Y-59347499D01*
X132763156Y-59347500D01*
X132763158Y-59347500D01*
X132920844Y-59347500D01*
X132920845Y-59347499D01*
X133075497Y-59316737D01*
X133221179Y-59256394D01*
X133352289Y-59168789D01*
X133463789Y-59057289D01*
X133551394Y-58926179D01*
X133611737Y-58780497D01*
X133642500Y-58625842D01*
X133642500Y-58468158D01*
X133642500Y-58468155D01*
X133642499Y-58468153D01*
X133625918Y-58384795D01*
X133611737Y-58313503D01*
X133551394Y-58167821D01*
X133551390Y-58167814D01*
X133548008Y-58162753D01*
X137611500Y-58162753D01*
X137611500Y-58375246D01*
X137644742Y-58585127D01*
X137644742Y-58585130D01*
X137710403Y-58787213D01*
X137710408Y-58787225D01*
X137719102Y-58804289D01*
X137719103Y-58804290D01*
X138254394Y-58269000D01*
X138254394Y-58268999D01*
X138188569Y-58203174D01*
X138461500Y-58203174D01*
X138461500Y-58334826D01*
X138495575Y-58461993D01*
X138561401Y-58576007D01*
X138654493Y-58669099D01*
X138768507Y-58734925D01*
X138895674Y-58769000D01*
X139027326Y-58769000D01*
X139154493Y-58734925D01*
X139268507Y-58669099D01*
X139361599Y-58576007D01*
X139427425Y-58461993D01*
X139461500Y-58334826D01*
X139461500Y-58203174D01*
X139427425Y-58076007D01*
X139361599Y-57961993D01*
X139268507Y-57868901D01*
X139154493Y-57803075D01*
X139027326Y-57769000D01*
X138895674Y-57769000D01*
X138768507Y-57803075D01*
X138654493Y-57868901D01*
X138561401Y-57961993D01*
X138495575Y-58076007D01*
X138461500Y-58203174D01*
X138188569Y-58203174D01*
X137719103Y-57733709D01*
X137710404Y-57750783D01*
X137644742Y-57952869D01*
X137644742Y-57952872D01*
X137611500Y-58162753D01*
X133548008Y-58162753D01*
X133463789Y-58036711D01*
X133463786Y-58036707D01*
X133352292Y-57925213D01*
X133352288Y-57925210D01*
X133221185Y-57837609D01*
X133221172Y-57837602D01*
X133075501Y-57777264D01*
X133075492Y-57777262D01*
X133031838Y-57768578D01*
X133022316Y-57766290D01*
X133018167Y-57765117D01*
X132990612Y-57755220D01*
X132963416Y-57749648D01*
X132959050Y-57748415D01*
X132951751Y-57743829D01*
X132923880Y-57732191D01*
X132897264Y-57714408D01*
X132897261Y-57714406D01*
X132897260Y-57714406D01*
X132778444Y-57665191D01*
X132778438Y-57665189D01*
X132652307Y-57640100D01*
X132652305Y-57640100D01*
X129002603Y-57640100D01*
X128935564Y-57620415D01*
X128889809Y-57567611D01*
X128879865Y-57498453D01*
X128908890Y-57434897D01*
X128914922Y-57428419D01*
X132060122Y-54283219D01*
X132087049Y-54268515D01*
X132112868Y-54251923D01*
X132119068Y-54251031D01*
X132121445Y-54249734D01*
X132147803Y-54246900D01*
X132273960Y-54246900D01*
X132305696Y-54251029D01*
X132769091Y-54373720D01*
X132783261Y-54377254D01*
X132783936Y-54377412D01*
X132790628Y-54378500D01*
X132852481Y-54388557D01*
X132852483Y-54388557D01*
X132852489Y-54388558D01*
X132852494Y-54388557D01*
X132854542Y-54388671D01*
X132871889Y-54390866D01*
X132890155Y-54394500D01*
X132890158Y-54394500D01*
X133047844Y-54394500D01*
X133047845Y-54394499D01*
X133202497Y-54363737D01*
X133348179Y-54303394D01*
X133479289Y-54215789D01*
X133590789Y-54104289D01*
X133678394Y-53973179D01*
X133738737Y-53827497D01*
X133769500Y-53672842D01*
X133769500Y-53515158D01*
X133769500Y-53515155D01*
X133769499Y-53515153D01*
X133738738Y-53360510D01*
X133738737Y-53360503D01*
X133738735Y-53360498D01*
X133678397Y-53214827D01*
X133678390Y-53214814D01*
X133590789Y-53083711D01*
X133590786Y-53083707D01*
X133479292Y-52972213D01*
X133479288Y-52972210D01*
X133348185Y-52884609D01*
X133348172Y-52884602D01*
X133202501Y-52824264D01*
X133202489Y-52824261D01*
X133047845Y-52793500D01*
X133047842Y-52793500D01*
X132890158Y-52793500D01*
X132814088Y-52808631D01*
X132804257Y-52810179D01*
X132769092Y-52814278D01*
X132769090Y-52814278D01*
X132305689Y-52936970D01*
X132273952Y-52941100D01*
X131761693Y-52941100D01*
X131635561Y-52966189D01*
X131635555Y-52966191D01*
X131516737Y-53015407D01*
X131409795Y-53086862D01*
X126111862Y-58384795D01*
X126040407Y-58491737D01*
X125991191Y-58610555D01*
X125991189Y-58610561D01*
X125966100Y-58736692D01*
X125966100Y-59248954D01*
X125961970Y-59280691D01*
X125839270Y-59744122D01*
X125835595Y-59758895D01*
X125835446Y-59759538D01*
X125824440Y-59827494D01*
X125824327Y-59829540D01*
X125822898Y-59840841D01*
X125822854Y-59842928D01*
X125822521Y-59844936D01*
X125818500Y-59865158D01*
X120000500Y-59865158D01*
X120000500Y-51624500D01*
X120020185Y-51557461D01*
X120072989Y-51511706D01*
X120124500Y-51500500D01*
X140375500Y-51500500D01*
X140442539Y-51520185D01*
G37*
%TD.AperFunction*%
%TD*%
%TA.AperFunction,Conductor*%
%TO.N,/SPI1_MOSI*%
G36*
X126770668Y-65195191D02*
G01*
X126773705Y-65200469D01*
X126910058Y-65715471D01*
X126908863Y-65724346D01*
X126901743Y-65729776D01*
X126901068Y-65729934D01*
X126621320Y-65786530D01*
X126616680Y-65786530D01*
X126336931Y-65729934D01*
X126329502Y-65724934D01*
X126327783Y-65716146D01*
X126327935Y-65715493D01*
X126464295Y-65200468D01*
X126469725Y-65193349D01*
X126475605Y-65191764D01*
X126762395Y-65191764D01*
X126770668Y-65195191D01*
G37*
%TD.AperFunction*%
%TD*%
%TA.AperFunction,Conductor*%
%TO.N,/SPI1_MOSI*%
G36*
X128528706Y-60598385D02*
G01*
X128528756Y-60598418D01*
X128597131Y-60644428D01*
X128765423Y-60757675D01*
X128770373Y-60765136D01*
X128769655Y-60771964D01*
X128565267Y-61252102D01*
X128558874Y-61258372D01*
X128549919Y-61258284D01*
X128546229Y-61255792D01*
X128345104Y-61054667D01*
X128342124Y-61049598D01*
X128233231Y-60667105D01*
X128234262Y-60658212D01*
X128241280Y-60652651D01*
X128242168Y-60652435D01*
X128519920Y-60596654D01*
X128528706Y-60598385D01*
G37*
%TD.AperFunction*%
%TD*%
%TA.AperFunction,Conductor*%
%TO.N,+3.3V*%
G36*
X126689514Y-59652937D02*
G01*
X127204531Y-59789295D01*
X127211651Y-59794725D01*
X127213236Y-59800605D01*
X127213236Y-60087394D01*
X127209809Y-60095667D01*
X127204531Y-60098704D01*
X126689528Y-60235058D01*
X126680653Y-60233863D01*
X126675223Y-60226743D01*
X126675065Y-60226068D01*
X126648832Y-60096400D01*
X126618469Y-59946318D01*
X126618469Y-59941680D01*
X126647010Y-59800605D01*
X126675065Y-59661929D01*
X126680065Y-59654502D01*
X126688853Y-59652783D01*
X126689514Y-59652937D01*
G37*
%TD.AperFunction*%
%TD*%
%TA.AperFunction,Conductor*%
%TO.N,+3.3V*%
G36*
X131723668Y-65449191D02*
G01*
X131726705Y-65454469D01*
X131863058Y-65969471D01*
X131861863Y-65978346D01*
X131854743Y-65983776D01*
X131854068Y-65983934D01*
X131574320Y-66040530D01*
X131569680Y-66040530D01*
X131289931Y-65983934D01*
X131282502Y-65978934D01*
X131280783Y-65970146D01*
X131280935Y-65969493D01*
X131417295Y-65454468D01*
X131422725Y-65447349D01*
X131428605Y-65445764D01*
X131715395Y-65445764D01*
X131723668Y-65449191D01*
G37*
%TD.AperFunction*%
%TD*%
%TA.AperFunction,Conductor*%
%TO.N,+3.3V*%
G36*
X132367016Y-58143476D02*
G01*
X132889169Y-58250437D01*
X132896584Y-58255453D01*
X132898302Y-58264143D01*
X132843936Y-58542209D01*
X132838985Y-58549671D01*
X132838935Y-58549704D01*
X132601007Y-58708048D01*
X132592221Y-58709779D01*
X132585798Y-58706101D01*
X132355948Y-58448728D01*
X132352975Y-58440935D01*
X132352975Y-58154939D01*
X132356402Y-58146666D01*
X132364675Y-58143239D01*
X132367016Y-58143476D01*
G37*
%TD.AperFunction*%
%TD*%
%TA.AperFunction,Conductor*%
%TO.N,+3.3V*%
G36*
X126937791Y-59422416D02*
G01*
X127140583Y-59625208D01*
X127144010Y-59633481D01*
X127142425Y-59639361D01*
X126874679Y-60099938D01*
X126867559Y-60105368D01*
X126858684Y-60104173D01*
X126858096Y-60103807D01*
X126620265Y-59946015D01*
X126616984Y-59942734D01*
X126459192Y-59704903D01*
X126457473Y-59696115D01*
X126462473Y-59688686D01*
X126463061Y-59688320D01*
X126923640Y-59420573D01*
X126932513Y-59419379D01*
X126937791Y-59422416D01*
G37*
%TD.AperFunction*%
%TD*%
%TA.AperFunction,Conductor*%
%TO.N,+3.3V*%
G36*
X132907346Y-53304136D02*
G01*
X132912776Y-53311256D01*
X132912934Y-53311931D01*
X132969530Y-53591680D01*
X132969530Y-53596320D01*
X132912934Y-53876068D01*
X132907934Y-53883497D01*
X132899146Y-53885216D01*
X132898471Y-53885058D01*
X132383469Y-53748704D01*
X132376349Y-53743274D01*
X132374764Y-53737394D01*
X132374764Y-53450605D01*
X132378191Y-53442332D01*
X132383468Y-53439295D01*
X132898472Y-53302941D01*
X132907346Y-53304136D01*
G37*
%TD.AperFunction*%
%TD*%
%TA.AperFunction,Conductor*%
%TO.N,+3.3V*%
G36*
X126770668Y-59353191D02*
G01*
X126773705Y-59358469D01*
X126910058Y-59873471D01*
X126908863Y-59882346D01*
X126901743Y-59887776D01*
X126901068Y-59887934D01*
X126621320Y-59944530D01*
X126616680Y-59944530D01*
X126336931Y-59887934D01*
X126329502Y-59882934D01*
X126327783Y-59874146D01*
X126327935Y-59873493D01*
X126464295Y-59358468D01*
X126469725Y-59351349D01*
X126475605Y-59349764D01*
X126762395Y-59349764D01*
X126770668Y-59353191D01*
G37*
%TD.AperFunction*%
%TD*%
M02*
