%TF.GenerationSoftware,KiCad,Pcbnew,9.0.1*%
%TF.CreationDate,2025-04-08T23:45:02+08:00*%
%TF.ProjectId,HallConnector,48616c6c-436f-46e6-9e65-63746f722e6b,rev?*%
%TF.SameCoordinates,Original*%
%TF.FileFunction,Copper,L2,Bot*%
%TF.FilePolarity,Positive*%
%FSLAX46Y46*%
G04 Gerber Fmt 4.6, Leading zero omitted, Abs format (unit mm)*
G04 Created by KiCad (PCBNEW 9.0.1) date 2025-04-08 23:45:02*
%MOMM*%
%LPD*%
G01*
G04 APERTURE LIST*
%TA.AperFunction,ComponentPad*%
%ADD10C,1.700000*%
%TD*%
%TA.AperFunction,ComponentPad*%
%ADD11R,1.700000X1.700000*%
%TD*%
%TA.AperFunction,ViaPad*%
%ADD12C,0.600000*%
%TD*%
%TA.AperFunction,Conductor*%
%ADD13C,0.304800*%
%TD*%
G04 APERTURE END LIST*
D10*
%TO.P,J1,5,Pin_5*%
%TO.N,Net-(J1-Pin_5)*%
X138961500Y-65889000D03*
%TO.P,J1,4,Pin_4*%
%TO.N,Net-(J1-Pin_4)*%
X138961500Y-63349000D03*
%TO.P,J1,3,Pin_3*%
%TO.N,Net-(J1-Pin_3)*%
X138961500Y-60809000D03*
%TO.P,J1,2,Pin_2*%
%TO.N,GND*%
X138961500Y-58269000D03*
D11*
%TO.P,J1,1,Pin_1*%
%TO.N,+5V*%
X138961500Y-55729000D03*
%TD*%
D12*
%TO.N,GND*%
X128651000Y-53594000D03*
X129794000Y-68453000D03*
X129794000Y-57785000D03*
X130429000Y-57785000D03*
X125730000Y-61214000D03*
X125730000Y-55372000D03*
X124968000Y-61214000D03*
X124968000Y-55372000D03*
%TO.N,+3.3V*%
X132842000Y-67310000D03*
X132842000Y-53594000D03*
X132969000Y-59944000D03*
X126728600Y-59055000D03*
%TD*%
D13*
%TO.N,+3.3V*%
X132969000Y-67183000D02*
X132842000Y-67310000D01*
X132969000Y-59944000D02*
X132969000Y-67183000D01*
X132969000Y-53721000D02*
X132842000Y-53594000D01*
X132969000Y-59944000D02*
X132969000Y-53721000D01*
X132080000Y-59055000D02*
X132969000Y-59944000D01*
X126728600Y-59055000D02*
X132080000Y-59055000D01*
%TD*%
%TA.AperFunction,Conductor*%
%TO.N,GND*%
G36*
X140442539Y-51520185D02*
G01*
X140488294Y-51572989D01*
X140499500Y-51624500D01*
X140499500Y-54604118D01*
X140479815Y-54671157D01*
X140427011Y-54716912D01*
X140357853Y-54726856D01*
X140294297Y-54697831D01*
X140259318Y-54647452D01*
X140255296Y-54636669D01*
X140255293Y-54636664D01*
X140169047Y-54521455D01*
X140169044Y-54521452D01*
X140053835Y-54435206D01*
X140053828Y-54435202D01*
X139918982Y-54384908D01*
X139918983Y-54384908D01*
X139859383Y-54378501D01*
X139859381Y-54378500D01*
X139859373Y-54378500D01*
X139859364Y-54378500D01*
X138063629Y-54378500D01*
X138063623Y-54378501D01*
X138004016Y-54384908D01*
X137869171Y-54435202D01*
X137869164Y-54435206D01*
X137753955Y-54521452D01*
X137753952Y-54521455D01*
X137667706Y-54636664D01*
X137667702Y-54636671D01*
X137617408Y-54771517D01*
X137611001Y-54831116D01*
X137611000Y-54831135D01*
X137611000Y-56626870D01*
X137611001Y-56626876D01*
X137617408Y-56686483D01*
X137667702Y-56821328D01*
X137667706Y-56821335D01*
X137753952Y-56936544D01*
X137753955Y-56936547D01*
X137869164Y-57022793D01*
X137869171Y-57022797D01*
X137914118Y-57039561D01*
X138004017Y-57073091D01*
X138063627Y-57079500D01*
X138427745Y-57079499D01*
X138494782Y-57099183D01*
X138515424Y-57115818D01*
X138961500Y-57561894D01*
X138961501Y-57561894D01*
X139407575Y-57115818D01*
X139468898Y-57082333D01*
X139495254Y-57079499D01*
X139859372Y-57079499D01*
X139918983Y-57073091D01*
X140053831Y-57022796D01*
X140169046Y-56936546D01*
X140255296Y-56821331D01*
X140255298Y-56821326D01*
X140259318Y-56810549D01*
X140301188Y-56754615D01*
X140366652Y-56730197D01*
X140434925Y-56745048D01*
X140484331Y-56794453D01*
X140499500Y-56853881D01*
X140499500Y-57850879D01*
X140479815Y-57917918D01*
X140427011Y-57963673D01*
X140357853Y-57973617D01*
X140294297Y-57944592D01*
X140257569Y-57889197D01*
X140212594Y-57750781D01*
X140212594Y-57750780D01*
X140203896Y-57733708D01*
X139668606Y-58268999D01*
X139668606Y-58269001D01*
X140203895Y-58804290D01*
X140203895Y-58804289D01*
X140212593Y-58787220D01*
X140212594Y-58787218D01*
X140257569Y-58648801D01*
X140297007Y-58591125D01*
X140361365Y-58563927D01*
X140430212Y-58575842D01*
X140481687Y-58623086D01*
X140499500Y-58687119D01*
X140499500Y-60389264D01*
X140479815Y-60456303D01*
X140427011Y-60502058D01*
X140357853Y-60512002D01*
X140294297Y-60482977D01*
X140257569Y-60427582D01*
X140213057Y-60290588D01*
X140116551Y-60101184D01*
X140116549Y-60101181D01*
X140116548Y-60101179D01*
X139991609Y-59929213D01*
X139841286Y-59778890D01*
X139669320Y-59653951D01*
X139569052Y-59602862D01*
X139518256Y-59554887D01*
X139511006Y-59525611D01*
X138961501Y-58976106D01*
X138961500Y-58976106D01*
X138413519Y-59524085D01*
X138411169Y-59542273D01*
X138366173Y-59595725D01*
X138353947Y-59602861D01*
X138253682Y-59653949D01*
X138081713Y-59778890D01*
X137931390Y-59929213D01*
X137806451Y-60101179D01*
X137709944Y-60290585D01*
X137644253Y-60492760D01*
X137611000Y-60702713D01*
X137611000Y-60915286D01*
X137641133Y-61105543D01*
X137644254Y-61125243D01*
X137665430Y-61190417D01*
X137709944Y-61327414D01*
X137806451Y-61516820D01*
X137931390Y-61688786D01*
X138081713Y-61839109D01*
X138253682Y-61964050D01*
X138262446Y-61968516D01*
X138313242Y-62016491D01*
X138330036Y-62084312D01*
X138307498Y-62150447D01*
X138262446Y-62189484D01*
X138253682Y-62193949D01*
X138081713Y-62318890D01*
X137931390Y-62469213D01*
X137806451Y-62641179D01*
X137709944Y-62830585D01*
X137644253Y-63032760D01*
X137611000Y-63242713D01*
X137611000Y-63455286D01*
X137641133Y-63645543D01*
X137644254Y-63665243D01*
X137665430Y-63730417D01*
X137709944Y-63867414D01*
X137806451Y-64056820D01*
X137931390Y-64228786D01*
X138081713Y-64379109D01*
X138253682Y-64504050D01*
X138262446Y-64508516D01*
X138313242Y-64556491D01*
X138330036Y-64624312D01*
X138307498Y-64690447D01*
X138262446Y-64729484D01*
X138253682Y-64733949D01*
X138081713Y-64858890D01*
X137931390Y-65009213D01*
X137806451Y-65181179D01*
X137709944Y-65370585D01*
X137644253Y-65572760D01*
X137611000Y-65782713D01*
X137611000Y-65995286D01*
X137641133Y-66185543D01*
X137644254Y-66205243D01*
X137665430Y-66270417D01*
X137709944Y-66407414D01*
X137806451Y-66596820D01*
X137931390Y-66768786D01*
X138081713Y-66919109D01*
X138253679Y-67044048D01*
X138253681Y-67044049D01*
X138253684Y-67044051D01*
X138443088Y-67140557D01*
X138645257Y-67206246D01*
X138855213Y-67239500D01*
X138855214Y-67239500D01*
X139067786Y-67239500D01*
X139067787Y-67239500D01*
X139277743Y-67206246D01*
X139479912Y-67140557D01*
X139669316Y-67044051D01*
X139691289Y-67028086D01*
X139841286Y-66919109D01*
X139841288Y-66919106D01*
X139841292Y-66919104D01*
X139991604Y-66768792D01*
X139991606Y-66768788D01*
X139991609Y-66768786D01*
X140116548Y-66596820D01*
X140116547Y-66596820D01*
X140116551Y-66596816D01*
X140213057Y-66407412D01*
X140257570Y-66270415D01*
X140297006Y-66212741D01*
X140361365Y-66185543D01*
X140430211Y-66197458D01*
X140481687Y-66244702D01*
X140499500Y-66308735D01*
X140499500Y-69375500D01*
X140479815Y-69442539D01*
X140427011Y-69488294D01*
X140375500Y-69499500D01*
X120124500Y-69499500D01*
X120057461Y-69479815D01*
X120011706Y-69427011D01*
X120000500Y-69375500D01*
X120000500Y-58976153D01*
X125928100Y-58976153D01*
X125928100Y-59133846D01*
X125958861Y-59288489D01*
X125958864Y-59288501D01*
X126019202Y-59434172D01*
X126019209Y-59434185D01*
X126106810Y-59565288D01*
X126106813Y-59565292D01*
X126218307Y-59676786D01*
X126218311Y-59676789D01*
X126349414Y-59764390D01*
X126349427Y-59764397D01*
X126409011Y-59789077D01*
X126495103Y-59824737D01*
X126649753Y-59855499D01*
X126649756Y-59855500D01*
X126649758Y-59855500D01*
X126807443Y-59855500D01*
X126837084Y-59849603D01*
X126883529Y-59840364D01*
X126893343Y-59838818D01*
X126928508Y-59834721D01*
X127391906Y-59712029D01*
X127423643Y-59707900D01*
X131758197Y-59707900D01*
X131787637Y-59716544D01*
X131817624Y-59723068D01*
X131822639Y-59726822D01*
X131825236Y-59727585D01*
X131845878Y-59744219D01*
X132015860Y-59914200D01*
X132035381Y-59939562D01*
X132210243Y-60240363D01*
X132222911Y-60270944D01*
X132264384Y-60427582D01*
X132311969Y-60607308D01*
X132311970Y-60607309D01*
X132316100Y-60639047D01*
X132316100Y-66570645D01*
X132300234Y-66631332D01*
X132157025Y-66886503D01*
X132142297Y-66914939D01*
X132135297Y-66926792D01*
X132132610Y-66930812D01*
X132132604Y-66930825D01*
X132072264Y-67076498D01*
X132072261Y-67076510D01*
X132041500Y-67231153D01*
X132041500Y-67388846D01*
X132072261Y-67543489D01*
X132072264Y-67543501D01*
X132132602Y-67689172D01*
X132132609Y-67689185D01*
X132220210Y-67820288D01*
X132220213Y-67820292D01*
X132331707Y-67931786D01*
X132331711Y-67931789D01*
X132462814Y-68019390D01*
X132462827Y-68019397D01*
X132608498Y-68079735D01*
X132608503Y-68079737D01*
X132763153Y-68110499D01*
X132763156Y-68110500D01*
X132763158Y-68110500D01*
X132920844Y-68110500D01*
X132920845Y-68110499D01*
X133075497Y-68079737D01*
X133221179Y-68019394D01*
X133352289Y-67931789D01*
X133463789Y-67820289D01*
X133551394Y-67689179D01*
X133611737Y-67543497D01*
X133642500Y-67388842D01*
X133642500Y-67231158D01*
X133642500Y-67231154D01*
X133641903Y-67225091D01*
X133642106Y-67225070D01*
X133640856Y-67214037D01*
X133627016Y-66740710D01*
X133623491Y-66694097D01*
X133623049Y-66688249D01*
X133623091Y-66688245D01*
X133621900Y-66674261D01*
X133621900Y-60639045D01*
X133626030Y-60607308D01*
X133666010Y-60456303D01*
X133748721Y-60143907D01*
X133752254Y-60129738D01*
X133752412Y-60129063D01*
X133763558Y-60060510D01*
X133763557Y-60060504D01*
X133763671Y-60058457D01*
X133765866Y-60041109D01*
X133769500Y-60022844D01*
X133769500Y-59865158D01*
X133764260Y-59838816D01*
X133754360Y-59789045D01*
X133752820Y-59779263D01*
X133748721Y-59744092D01*
X133626030Y-59280690D01*
X133621900Y-59248953D01*
X133621900Y-58162753D01*
X137611500Y-58162753D01*
X137611500Y-58375246D01*
X137644742Y-58585127D01*
X137644742Y-58585130D01*
X137710403Y-58787213D01*
X137710408Y-58787225D01*
X137719102Y-58804289D01*
X137719103Y-58804290D01*
X138254394Y-58269000D01*
X138254394Y-58268999D01*
X138188569Y-58203174D01*
X138461500Y-58203174D01*
X138461500Y-58334826D01*
X138495575Y-58461993D01*
X138561401Y-58576007D01*
X138654493Y-58669099D01*
X138768507Y-58734925D01*
X138895674Y-58769000D01*
X139027326Y-58769000D01*
X139154493Y-58734925D01*
X139268507Y-58669099D01*
X139361599Y-58576007D01*
X139427425Y-58461993D01*
X139461500Y-58334826D01*
X139461500Y-58203174D01*
X139427425Y-58076007D01*
X139361599Y-57961993D01*
X139268507Y-57868901D01*
X139154493Y-57803075D01*
X139027326Y-57769000D01*
X138895674Y-57769000D01*
X138768507Y-57803075D01*
X138654493Y-57868901D01*
X138561401Y-57961993D01*
X138495575Y-58076007D01*
X138461500Y-58203174D01*
X138188569Y-58203174D01*
X137719103Y-57733709D01*
X137710404Y-57750783D01*
X137644742Y-57952869D01*
X137644742Y-57952872D01*
X137611500Y-58162753D01*
X133621900Y-58162753D01*
X133621900Y-54203428D01*
X133623731Y-54182200D01*
X133627016Y-54163291D01*
X133631279Y-54017483D01*
X133640856Y-53689955D01*
X133642107Y-53678924D01*
X133641903Y-53678904D01*
X133642500Y-53672845D01*
X133642500Y-53515155D01*
X133642499Y-53515153D01*
X133611738Y-53360510D01*
X133611737Y-53360503D01*
X133611735Y-53360498D01*
X133551397Y-53214827D01*
X133551390Y-53214814D01*
X133463789Y-53083711D01*
X133463786Y-53083707D01*
X133352292Y-52972213D01*
X133352288Y-52972210D01*
X133221185Y-52884609D01*
X133221172Y-52884602D01*
X133075501Y-52824264D01*
X133075489Y-52824261D01*
X132920845Y-52793500D01*
X132920842Y-52793500D01*
X132763158Y-52793500D01*
X132763155Y-52793500D01*
X132608510Y-52824261D01*
X132608498Y-52824264D01*
X132462827Y-52884602D01*
X132462814Y-52884609D01*
X132331711Y-52972210D01*
X132331707Y-52972213D01*
X132220213Y-53083707D01*
X132220210Y-53083711D01*
X132132609Y-53214814D01*
X132132602Y-53214827D01*
X132072264Y-53360498D01*
X132072261Y-53360510D01*
X132041500Y-53515153D01*
X132041500Y-53672846D01*
X132072261Y-53827489D01*
X132072264Y-53827501D01*
X132132604Y-53973174D01*
X132132607Y-53973181D01*
X132142287Y-53987668D01*
X132154850Y-54011866D01*
X132157020Y-54017483D01*
X132300234Y-54272666D01*
X132316100Y-54333352D01*
X132316100Y-58285177D01*
X132296415Y-58352216D01*
X132243611Y-58397971D01*
X132174453Y-58407915D01*
X132167911Y-58406795D01*
X132144306Y-58402100D01*
X132144305Y-58402100D01*
X127423643Y-58402100D01*
X127391906Y-58397970D01*
X126928499Y-58275276D01*
X126913784Y-58271614D01*
X126913161Y-58271469D01*
X126913138Y-58271465D01*
X126845102Y-58260439D01*
X126843052Y-58260326D01*
X126825722Y-58258135D01*
X126807442Y-58254500D01*
X126649758Y-58254500D01*
X126649755Y-58254500D01*
X126495110Y-58285261D01*
X126495098Y-58285264D01*
X126349427Y-58345602D01*
X126349414Y-58345609D01*
X126218311Y-58433210D01*
X126218307Y-58433213D01*
X126106813Y-58544707D01*
X126106810Y-58544711D01*
X126019209Y-58675814D01*
X126019202Y-58675827D01*
X125958864Y-58821498D01*
X125958861Y-58821510D01*
X125928100Y-58976153D01*
X120000500Y-58976153D01*
X120000500Y-51624500D01*
X120020185Y-51557461D01*
X120072989Y-51511706D01*
X120124500Y-51500500D01*
X140375500Y-51500500D01*
X140442539Y-51520185D01*
G37*
%TD.AperFunction*%
%TD*%
%TA.AperFunction,Conductor*%
%TO.N,+3.3V*%
G36*
X133118310Y-66747554D02*
G01*
X133121732Y-66755485D01*
X133135947Y-67241617D01*
X133132763Y-67249987D01*
X133126572Y-67253427D01*
X132846789Y-67310030D01*
X132838001Y-67308311D01*
X132837942Y-67308272D01*
X132601518Y-67149351D01*
X132596564Y-67141892D01*
X132597842Y-67133915D01*
X132810226Y-66755485D01*
X132813247Y-66750100D01*
X132820284Y-66744563D01*
X132823450Y-66744127D01*
X133110037Y-66744127D01*
X133118310Y-66747554D01*
G37*
%TD.AperFunction*%
%TD*%
%TA.AperFunction,Conductor*%
%TO.N,+3.3V*%
G36*
X133251068Y-60000065D02*
G01*
X133258497Y-60005065D01*
X133260216Y-60013853D01*
X133260058Y-60014528D01*
X133123705Y-60529531D01*
X133118275Y-60536651D01*
X133112395Y-60538236D01*
X132825605Y-60538236D01*
X132817332Y-60534809D01*
X132814295Y-60529531D01*
X132677941Y-60014528D01*
X132679136Y-60005653D01*
X132686256Y-60000223D01*
X132686915Y-60000068D01*
X132966682Y-59943469D01*
X132971318Y-59943469D01*
X133251068Y-60000065D01*
G37*
%TD.AperFunction*%
%TD*%
%TA.AperFunction,Conductor*%
%TO.N,+3.3V*%
G36*
X132846789Y-53593969D02*
G01*
X133126572Y-53650572D01*
X133134001Y-53655572D01*
X133135947Y-53662382D01*
X133121732Y-54148515D01*
X133118065Y-54156684D01*
X133110037Y-54159873D01*
X132823450Y-54159873D01*
X132815177Y-54156446D01*
X132813247Y-54153899D01*
X132810225Y-54148515D01*
X132597842Y-53770084D01*
X132596781Y-53761192D01*
X132601516Y-53754649D01*
X132837943Y-53595726D01*
X132846720Y-53593956D01*
X132846789Y-53593969D01*
G37*
%TD.AperFunction*%
%TD*%
%TA.AperFunction,Conductor*%
%TO.N,+3.3V*%
G36*
X133120668Y-59353191D02*
G01*
X133123705Y-59358469D01*
X133260058Y-59873471D01*
X133258863Y-59882346D01*
X133251743Y-59887776D01*
X133251068Y-59887934D01*
X132971320Y-59944530D01*
X132966680Y-59944530D01*
X132686931Y-59887934D01*
X132679502Y-59882934D01*
X132677783Y-59874146D01*
X132677935Y-59873493D01*
X132814295Y-59358468D01*
X132819725Y-59351349D01*
X132825605Y-59349764D01*
X133112395Y-59349764D01*
X133120668Y-59353191D01*
G37*
%TD.AperFunction*%
%TD*%
%TA.AperFunction,Conductor*%
%TO.N,+3.3V*%
G36*
X132664359Y-59420573D02*
G01*
X132954158Y-59589041D01*
X133124938Y-59688320D01*
X133130368Y-59695440D01*
X133129173Y-59704315D01*
X133128807Y-59704903D01*
X132971015Y-59942734D01*
X132967734Y-59946015D01*
X132729903Y-60103807D01*
X132721115Y-60105526D01*
X132713686Y-60100526D01*
X132713320Y-60099938D01*
X132614041Y-59929158D01*
X132445573Y-59639359D01*
X132444379Y-59630486D01*
X132447414Y-59625210D01*
X132650209Y-59422415D01*
X132658481Y-59418989D01*
X132664359Y-59420573D01*
G37*
%TD.AperFunction*%
%TD*%
%TA.AperFunction,Conductor*%
%TO.N,+3.3V*%
G36*
X126799114Y-58763937D02*
G01*
X127314131Y-58900295D01*
X127321251Y-58905725D01*
X127322836Y-58911605D01*
X127322836Y-59198394D01*
X127319409Y-59206667D01*
X127314131Y-59209704D01*
X126799128Y-59346058D01*
X126790253Y-59344863D01*
X126784823Y-59337743D01*
X126784665Y-59337068D01*
X126758432Y-59207400D01*
X126728069Y-59057318D01*
X126728069Y-59052680D01*
X126756610Y-58911605D01*
X126784665Y-58772929D01*
X126789665Y-58765502D01*
X126798453Y-58763783D01*
X126799114Y-58763937D01*
G37*
%TD.AperFunction*%
%TD*%
M02*
