%TF.GenerationSoftware,KiCad,Pcbnew,9.0.1*%
%TF.CreationDate,2025-04-08T23:45:02+08:00*%
%TF.ProjectId,HallConnector,48616c6c-436f-46e6-9e65-63746f722e6b,rev?*%
%TF.SameCoordinates,Original*%
%TF.FileFunction,Copper,L1,Top*%
%TF.FilePolarity,Positive*%
%FSLAX46Y46*%
G04 Gerber Fmt 4.6, Leading zero omitted, Abs format (unit mm)*
G04 Created by KiCad (PCBNEW 9.0.1) date 2025-04-08 23:45:02*
%MOMM*%
%LPD*%
G01*
G04 APERTURE LIST*
G04 Aperture macros list*
%AMRoundRect*
0 Rectangle with rounded corners*
0 $1 Rounding radius*
0 $2 $3 $4 $5 $6 $7 $8 $9 X,Y pos of 4 corners*
0 Add a 4 corners polygon primitive as box body*
4,1,4,$2,$3,$4,$5,$6,$7,$8,$9,$2,$3,0*
0 Add four circle primitives for the rounded corners*
1,1,$1+$1,$2,$3*
1,1,$1+$1,$4,$5*
1,1,$1+$1,$6,$7*
1,1,$1+$1,$8,$9*
0 Add four rect primitives between the rounded corners*
20,1,$1+$1,$2,$3,$4,$5,0*
20,1,$1+$1,$4,$5,$6,$7,0*
20,1,$1+$1,$6,$7,$8,$9,0*
20,1,$1+$1,$8,$9,$2,$3,0*%
G04 Aperture macros list end*
%TA.AperFunction,ComponentPad*%
%ADD10C,1.700000*%
%TD*%
%TA.AperFunction,ComponentPad*%
%ADD11R,1.700000X1.700000*%
%TD*%
%TA.AperFunction,SMDPad,CuDef*%
%ADD12R,2.500000X1.200000*%
%TD*%
%TA.AperFunction,SMDPad,CuDef*%
%ADD13R,1.700000X0.500000*%
%TD*%
%TA.AperFunction,SMDPad,CuDef*%
%ADD14RoundRect,0.237500X0.237500X-0.300000X0.237500X0.300000X-0.237500X0.300000X-0.237500X-0.300000X0*%
%TD*%
%TA.AperFunction,SMDPad,CuDef*%
%ADD15RoundRect,0.237500X-0.250000X-0.237500X0.250000X-0.237500X0.250000X0.237500X-0.250000X0.237500X0*%
%TD*%
%TA.AperFunction,SMDPad,CuDef*%
%ADD16RoundRect,0.237500X-0.237500X0.250000X-0.237500X-0.250000X0.237500X-0.250000X0.237500X0.250000X0*%
%TD*%
%TA.AperFunction,SMDPad,CuDef*%
%ADD17RoundRect,0.237500X0.237500X-0.250000X0.237500X0.250000X-0.237500X0.250000X-0.237500X-0.250000X0*%
%TD*%
%TA.AperFunction,SMDPad,CuDef*%
%ADD18RoundRect,0.237500X-0.237500X0.300000X-0.237500X-0.300000X0.237500X-0.300000X0.237500X0.300000X0*%
%TD*%
%TA.AperFunction,ViaPad*%
%ADD19C,0.600000*%
%TD*%
%TA.AperFunction,Conductor*%
%ADD20C,0.304800*%
%TD*%
G04 APERTURE END LIST*
D10*
%TO.P,J1,5,Pin_5*%
%TO.N,Net-(J1-Pin_5)*%
X138961500Y-65889000D03*
%TO.P,J1,4,Pin_4*%
%TO.N,Net-(J1-Pin_4)*%
X138961500Y-63349000D03*
%TO.P,J1,3,Pin_3*%
%TO.N,Net-(J1-Pin_3)*%
X138961500Y-60809000D03*
%TO.P,J1,2,Pin_2*%
%TO.N,GND*%
X138961500Y-58269000D03*
D11*
%TO.P,J1,1,Pin_1*%
%TO.N,+5V*%
X138961500Y-55729000D03*
%TD*%
D12*
%TO.P,U2,4,4*%
%TO.N,unconnected-(U2-Pad4)*%
X121626500Y-52121000D03*
%TO.P,U2,3,3*%
%TO.N,unconnected-(U2-Pad3)*%
X121626500Y-55321000D03*
D13*
%TO.P,U2,2,2*%
%TO.N,GND*%
X125026500Y-54221000D03*
%TO.P,U2,1,1*%
%TO.N,+5V*%
X125026500Y-53221000D03*
%TD*%
D14*
%TO.P,C2,2*%
%TO.N,GND*%
X129794000Y-59970500D03*
%TO.P,C2,1*%
%TO.N,/SPI1_MOSI*%
X129794000Y-61695500D03*
%TD*%
D12*
%TO.P,CN3,6,6*%
%TO.N,unconnected-(CN3-Pad6)*%
X121753500Y-68894000D03*
%TO.P,CN3,5,5*%
%TO.N,unconnected-(CN3-Pad5)*%
X121753500Y-63694000D03*
D13*
%TO.P,CN3,4,4*%
%TO.N,/SPI1_NSS*%
X125153500Y-67794000D03*
%TO.P,CN3,3,3*%
%TO.N,/SPI1_MOSI*%
X125153500Y-66794000D03*
%TO.P,CN3,2,2*%
%TO.N,/SPI1_MISO*%
X125153500Y-65794000D03*
%TO.P,CN3,1,1*%
%TO.N,unconnected-(CN3-Pad1)*%
X125153500Y-64794000D03*
%TD*%
D15*
%TO.P,R6,1*%
%TO.N,/SPI1_MISO*%
X133326500Y-55372000D03*
%TO.P,R6,2*%
%TO.N,Net-(J1-Pin_3)*%
X135151500Y-55372000D03*
%TD*%
D16*
%TO.P,R2,2*%
%TO.N,/SPI1_MOSI*%
X131572000Y-61745500D03*
%TO.P,R2,1*%
%TO.N,+3.3V*%
X131572000Y-59920500D03*
%TD*%
D12*
%TO.P,U1,4,4*%
%TO.N,unconnected-(U1-Pad4)*%
X121626500Y-57920000D03*
%TO.P,U1,3,3*%
%TO.N,unconnected-(U1-Pad3)*%
X121626500Y-61120000D03*
D13*
%TO.P,U1,2,2*%
%TO.N,GND*%
X125026500Y-60020000D03*
%TO.P,U1,1,1*%
%TO.N,+3.3V*%
X125026500Y-59020000D03*
%TD*%
D15*
%TO.P,R5,2*%
%TO.N,Net-(J1-Pin_4)*%
X135151500Y-61722000D03*
%TO.P,R5,1*%
%TO.N,/SPI1_MOSI*%
X133326500Y-61722000D03*
%TD*%
D14*
%TO.P,C1,2*%
%TO.N,GND*%
X129794000Y-53620500D03*
%TO.P,C1,1*%
%TO.N,/SPI1_MISO*%
X129794000Y-55345500D03*
%TD*%
D16*
%TO.P,R1,2*%
%TO.N,/SPI1_MISO*%
X131572000Y-55395500D03*
%TO.P,R1,1*%
%TO.N,+3.3V*%
X131572000Y-53570500D03*
%TD*%
D17*
%TO.P,R3,2*%
%TO.N,/SPI1_NSS*%
X131572000Y-65508500D03*
%TO.P,R3,1*%
%TO.N,+3.3V*%
X131572000Y-67333500D03*
%TD*%
D18*
%TO.P,C3,2*%
%TO.N,GND*%
X129794000Y-67283500D03*
%TO.P,C3,1*%
%TO.N,/SPI1_NSS*%
X129794000Y-65558500D03*
%TD*%
D15*
%TO.P,R4,2*%
%TO.N,Net-(J1-Pin_5)*%
X135151500Y-65532000D03*
%TO.P,R4,1*%
%TO.N,/SPI1_NSS*%
X133326500Y-65532000D03*
%TD*%
D19*
%TO.N,GND*%
X128651000Y-53594000D03*
X129794000Y-68453000D03*
X129794000Y-57785000D03*
X130429000Y-57785000D03*
X125730000Y-61214000D03*
X125730000Y-55372000D03*
X124968000Y-61214000D03*
X124968000Y-55372000D03*
%TO.N,+3.3V*%
X132842000Y-67310000D03*
X132842000Y-53594000D03*
X132969000Y-59944000D03*
X126728600Y-59055000D03*
%TD*%
D20*
%TO.N,/SPI1_MOSI*%
X126627000Y-66794000D02*
X125153500Y-66794000D01*
X129794000Y-63627000D02*
X126627000Y-66794000D01*
X129794000Y-61695500D02*
X129794000Y-63627000D01*
%TO.N,/SPI1_NSS*%
X127024000Y-67794000D02*
X125153500Y-67794000D01*
X129259500Y-65558500D02*
X127024000Y-67794000D01*
X129794000Y-65558500D02*
X129259500Y-65558500D01*
%TO.N,+5V*%
X134885900Y-51653400D02*
X138961500Y-55729000D01*
X126594100Y-51653400D02*
X134885900Y-51653400D01*
X125026500Y-53221000D02*
X126594100Y-51653400D01*
%TO.N,/SPI1_MISO*%
X126357000Y-65794000D02*
X125153500Y-65794000D01*
X127635000Y-64516000D02*
X126357000Y-65794000D01*
X127635000Y-57504500D02*
X127635000Y-64516000D01*
X129794000Y-55345500D02*
X127635000Y-57504500D01*
%TO.N,/SPI1_NSS*%
X129794000Y-65558500D02*
X131522000Y-65558500D01*
X131522000Y-65558500D02*
X131572000Y-65508500D01*
%TO.N,/SPI1_MOSI*%
X131522000Y-61695500D02*
X131572000Y-61745500D01*
X129794000Y-61695500D02*
X131522000Y-61695500D01*
%TO.N,/SPI1_MISO*%
X131522000Y-55345500D02*
X131572000Y-55395500D01*
X129794000Y-55345500D02*
X131522000Y-55345500D01*
%TO.N,+3.3V*%
X132842000Y-67310000D02*
X131595500Y-67310000D01*
X131595500Y-67310000D02*
X131572000Y-67333500D01*
X132842000Y-53594000D02*
X131595500Y-53594000D01*
X131595500Y-53594000D02*
X131572000Y-53570500D01*
X131595500Y-59944000D02*
X131572000Y-59920500D01*
X132969000Y-59944000D02*
X131595500Y-59944000D01*
X126693600Y-59020000D02*
X126728600Y-59055000D01*
X125026500Y-59020000D02*
X126693600Y-59020000D01*
%TO.N,Net-(J1-Pin_5)*%
X138604500Y-65532000D02*
X135151500Y-65532000D01*
X138961500Y-65889000D02*
X138604500Y-65532000D01*
%TO.N,/SPI1_NSS*%
X131595500Y-65532000D02*
X131572000Y-65508500D01*
X133326500Y-65532000D02*
X131595500Y-65532000D01*
%TO.N,/SPI1_MOSI*%
X131595500Y-61722000D02*
X131572000Y-61745500D01*
X133326500Y-61722000D02*
X131595500Y-61722000D01*
%TO.N,/SPI1_MISO*%
X131595500Y-55372000D02*
X131572000Y-55395500D01*
X133326500Y-55372000D02*
X131595500Y-55372000D01*
%TO.N,Net-(J1-Pin_4)*%
X138961500Y-63349000D02*
X137334500Y-61722000D01*
X137334500Y-61722000D02*
X135151500Y-61722000D01*
%TO.N,Net-(J1-Pin_3)*%
X135151500Y-56999000D02*
X135151500Y-55372000D01*
X138961500Y-60809000D02*
X135151500Y-56999000D01*
%TD*%
%TA.AperFunction,Conductor*%
%TO.N,GND*%
G36*
X125591337Y-51520185D02*
G01*
X125637092Y-51572989D01*
X125647036Y-51642147D01*
X125618011Y-51705703D01*
X125611979Y-51712181D01*
X124889977Y-52434181D01*
X124828654Y-52467666D01*
X124802296Y-52470500D01*
X124128629Y-52470500D01*
X124128623Y-52470501D01*
X124069016Y-52476908D01*
X123934171Y-52527202D01*
X123934164Y-52527206D01*
X123818955Y-52613452D01*
X123818952Y-52613455D01*
X123732706Y-52728664D01*
X123732702Y-52728671D01*
X123682410Y-52863513D01*
X123682409Y-52863517D01*
X123676000Y-52923127D01*
X123676000Y-52923134D01*
X123676000Y-52923135D01*
X123676000Y-53518870D01*
X123676001Y-53518876D01*
X123682408Y-53578483D01*
X123719668Y-53678381D01*
X123724652Y-53748073D01*
X123719668Y-53765046D01*
X123682903Y-53863617D01*
X123682901Y-53863627D01*
X123676500Y-53923155D01*
X123676500Y-53971000D01*
X124117333Y-53971000D01*
X124125311Y-53971427D01*
X124125317Y-53971322D01*
X124128602Y-53971497D01*
X124128627Y-53971500D01*
X125924372Y-53971499D01*
X125924372Y-53971498D01*
X125927696Y-53971321D01*
X125927701Y-53971426D01*
X125935663Y-53971000D01*
X126376500Y-53971000D01*
X126376500Y-53923172D01*
X126376499Y-53923155D01*
X126370098Y-53863627D01*
X126370096Y-53863620D01*
X126333331Y-53765047D01*
X126328347Y-53695356D01*
X126333331Y-53678381D01*
X126370591Y-53578483D01*
X126377000Y-53518873D01*
X126376999Y-53145500D01*
X128837553Y-53145500D01*
X129319000Y-53145500D01*
X129319000Y-52622263D01*
X129242699Y-52647546D01*
X129242688Y-52647551D01*
X129095965Y-52738052D01*
X129095961Y-52738055D01*
X128974055Y-52859961D01*
X128974052Y-52859965D01*
X128883551Y-53006688D01*
X128883546Y-53006699D01*
X128837553Y-53145500D01*
X126376999Y-53145500D01*
X126376999Y-52923128D01*
X126370790Y-52865373D01*
X126383196Y-52796616D01*
X126406396Y-52764443D01*
X126828221Y-52342619D01*
X126889544Y-52309134D01*
X126915902Y-52306300D01*
X134564097Y-52306300D01*
X134631136Y-52325985D01*
X134651778Y-52342619D01*
X137574681Y-55265521D01*
X137608166Y-55326844D01*
X137611000Y-55353202D01*
X137611000Y-56626870D01*
X137611001Y-56626876D01*
X137617408Y-56686483D01*
X137667702Y-56821328D01*
X137667706Y-56821335D01*
X137753952Y-56936544D01*
X137753955Y-56936547D01*
X137869164Y-57022793D01*
X137869171Y-57022797D01*
X137914118Y-57039561D01*
X138004017Y-57073091D01*
X138063627Y-57079500D01*
X138427745Y-57079499D01*
X138494782Y-57099183D01*
X138515424Y-57115818D01*
X138961500Y-57561894D01*
X138961501Y-57561894D01*
X139407575Y-57115818D01*
X139468898Y-57082333D01*
X139495254Y-57079499D01*
X139859372Y-57079499D01*
X139918983Y-57073091D01*
X140053831Y-57022796D01*
X140169046Y-56936546D01*
X140255296Y-56821331D01*
X140255979Y-56819500D01*
X140259318Y-56810549D01*
X140301188Y-56754615D01*
X140366652Y-56730197D01*
X140434925Y-56745048D01*
X140484331Y-56794453D01*
X140499500Y-56853881D01*
X140499500Y-57850879D01*
X140479815Y-57917918D01*
X140427011Y-57963673D01*
X140357853Y-57973617D01*
X140294297Y-57944592D01*
X140257569Y-57889197D01*
X140212594Y-57750781D01*
X140212594Y-57750780D01*
X140203896Y-57733708D01*
X139668606Y-58268999D01*
X139668606Y-58269001D01*
X140203895Y-58804290D01*
X140203895Y-58804289D01*
X140212593Y-58787220D01*
X140212594Y-58787218D01*
X140257569Y-58648801D01*
X140297007Y-58591125D01*
X140361365Y-58563927D01*
X140430212Y-58575842D01*
X140481687Y-58623086D01*
X140499500Y-58687119D01*
X140499500Y-60389264D01*
X140479815Y-60456303D01*
X140427011Y-60502058D01*
X140357853Y-60512002D01*
X140294297Y-60482977D01*
X140257569Y-60427582D01*
X140252674Y-60412516D01*
X140213057Y-60290588D01*
X140116551Y-60101184D01*
X140116549Y-60101181D01*
X140116548Y-60101179D01*
X139991609Y-59929213D01*
X139841286Y-59778890D01*
X139669320Y-59653951D01*
X139569052Y-59602862D01*
X139518256Y-59554887D01*
X139511006Y-59525611D01*
X138654493Y-58669099D01*
X138768507Y-58734925D01*
X138895674Y-58769000D01*
X139027326Y-58769000D01*
X139154493Y-58734925D01*
X139268507Y-58669099D01*
X139361599Y-58576007D01*
X139427425Y-58461993D01*
X139461500Y-58334826D01*
X139461500Y-58203174D01*
X139427425Y-58076007D01*
X139361599Y-57961993D01*
X139268507Y-57868901D01*
X139154493Y-57803075D01*
X139027326Y-57769000D01*
X138895674Y-57769000D01*
X138768507Y-57803075D01*
X138654493Y-57868901D01*
X138561401Y-57961993D01*
X138495575Y-58076007D01*
X138461500Y-58203174D01*
X138461500Y-58334826D01*
X138495575Y-58461993D01*
X138561401Y-58576007D01*
X137719103Y-57733709D01*
X137710404Y-57750783D01*
X137644742Y-57952869D01*
X137644742Y-57952872D01*
X137611500Y-58162753D01*
X137611500Y-58236297D01*
X137591815Y-58303336D01*
X137539011Y-58349091D01*
X137469853Y-58359035D01*
X137406297Y-58330010D01*
X137399819Y-58323978D01*
X135840719Y-56764878D01*
X135807234Y-56703555D01*
X135804400Y-56677197D01*
X135804400Y-56297290D01*
X135824085Y-56230251D01*
X135857319Y-56197630D01*
X135856681Y-56196823D01*
X135862348Y-56192341D01*
X135862347Y-56192341D01*
X135862350Y-56192340D01*
X135984340Y-56070350D01*
X136074908Y-55923516D01*
X136129174Y-55759753D01*
X136139500Y-55658677D01*
X136139499Y-55085324D01*
X136129174Y-54984247D01*
X136074908Y-54820484D01*
X135984340Y-54673650D01*
X135862350Y-54551660D01*
X135771129Y-54495395D01*
X135715518Y-54461093D01*
X135715513Y-54461091D01*
X135714069Y-54460612D01*
X135551753Y-54406826D01*
X135551751Y-54406825D01*
X135450678Y-54396500D01*
X134852330Y-54396500D01*
X134852312Y-54396501D01*
X134751247Y-54406825D01*
X134587484Y-54461092D01*
X134587481Y-54461093D01*
X134440648Y-54551661D01*
X134326681Y-54665629D01*
X134265358Y-54699114D01*
X134195666Y-54694130D01*
X134151319Y-54665629D01*
X134037351Y-54551661D01*
X134037350Y-54551660D01*
X133946129Y-54495395D01*
X133890518Y-54461093D01*
X133890513Y-54461091D01*
X133889069Y-54460612D01*
X133726753Y-54406826D01*
X133726751Y-54406825D01*
X133625684Y-54396500D01*
X133470940Y-54396500D01*
X133403901Y-54376815D01*
X133358146Y-54324011D01*
X133348202Y-54254853D01*
X133377227Y-54191297D01*
X133383245Y-54184832D01*
X133463789Y-54104289D01*
X133551394Y-53973179D01*
X133552090Y-53971500D01*
X133594266Y-53869676D01*
X133611737Y-53827497D01*
X133642500Y-53672842D01*
X133642500Y-53515158D01*
X133642500Y-53515155D01*
X133642499Y-53515153D01*
X133611738Y-53360510D01*
X133611737Y-53360503D01*
X133574798Y-53271323D01*
X133551397Y-53214827D01*
X133551390Y-53214814D01*
X133463789Y-53083711D01*
X133463786Y-53083707D01*
X133352292Y-52972213D01*
X133352288Y-52972210D01*
X133221185Y-52884609D01*
X133221172Y-52884602D01*
X133075501Y-52824264D01*
X133075489Y-52824261D01*
X132920845Y-52793500D01*
X132920842Y-52793500D01*
X132763158Y-52793500D01*
X132763153Y-52793500D01*
X132689169Y-52808216D01*
X132689140Y-52808222D01*
X132682201Y-52809603D01*
X132642092Y-52814278D01*
X132476078Y-52858231D01*
X132474313Y-52858646D01*
X132441124Y-52856816D01*
X132407870Y-52855926D01*
X132406177Y-52854890D01*
X132404550Y-52854801D01*
X132396450Y-52848941D01*
X132358298Y-52825608D01*
X132270351Y-52737661D01*
X132270350Y-52737660D01*
X132179129Y-52681395D01*
X132123518Y-52647093D01*
X132123513Y-52647091D01*
X132048587Y-52622263D01*
X131959753Y-52592826D01*
X131959751Y-52592825D01*
X131858678Y-52582500D01*
X131285330Y-52582500D01*
X131285312Y-52582501D01*
X131184247Y-52592825D01*
X131020484Y-52647092D01*
X131020481Y-52647093D01*
X130873651Y-52737659D01*
X130770327Y-52840983D01*
X130709004Y-52874467D01*
X130639312Y-52869483D01*
X130594965Y-52840982D01*
X130492038Y-52738055D01*
X130492034Y-52738052D01*
X130345311Y-52647551D01*
X130345300Y-52647546D01*
X130269000Y-52622263D01*
X130269000Y-53496500D01*
X130249315Y-53563539D01*
X130196511Y-53609294D01*
X130145000Y-53620500D01*
X129794000Y-53620500D01*
X129794000Y-53971500D01*
X129774315Y-54038539D01*
X129721511Y-54084294D01*
X129670000Y-54095500D01*
X128837553Y-54095500D01*
X128883546Y-54234300D01*
X128883551Y-54234311D01*
X128974052Y-54381034D01*
X128974055Y-54381038D01*
X128987982Y-54394965D01*
X129021467Y-54456288D01*
X129016483Y-54525980D01*
X128987984Y-54570325D01*
X128973661Y-54584648D01*
X128883093Y-54731481D01*
X128883092Y-54731484D01*
X128828826Y-54895247D01*
X128828826Y-54895248D01*
X128828825Y-54895248D01*
X128818500Y-54996315D01*
X128818500Y-55346296D01*
X128798815Y-55413335D01*
X128782181Y-55433977D01*
X127127863Y-57088294D01*
X127127857Y-57088301D01*
X127060278Y-57189441D01*
X127060279Y-57189442D01*
X127056407Y-57195235D01*
X127007191Y-57314055D01*
X127007189Y-57314061D01*
X126982100Y-57440192D01*
X126982100Y-58138147D01*
X126962415Y-58205186D01*
X126909611Y-58250941D01*
X126840453Y-58260885D01*
X126833908Y-58259764D01*
X126807444Y-58254500D01*
X126807442Y-58254500D01*
X126649758Y-58254500D01*
X126603602Y-58263680D01*
X126586114Y-58265881D01*
X126559767Y-58267306D01*
X126201941Y-58338667D01*
X126132347Y-58332474D01*
X126119304Y-58326380D01*
X125983982Y-58275908D01*
X125983983Y-58275908D01*
X125924383Y-58269501D01*
X125924381Y-58269500D01*
X125924373Y-58269500D01*
X125924364Y-58269500D01*
X124128629Y-58269500D01*
X124128623Y-58269501D01*
X124069016Y-58275908D01*
X123934171Y-58326202D01*
X123934164Y-58326206D01*
X123818955Y-58412452D01*
X123818952Y-58412455D01*
X123732706Y-58527664D01*
X123732702Y-58527671D01*
X123682410Y-58662513D01*
X123682409Y-58662517D01*
X123676000Y-58722127D01*
X123676000Y-58722134D01*
X123676000Y-58722135D01*
X123676000Y-59317870D01*
X123676001Y-59317876D01*
X123682408Y-59377483D01*
X123719668Y-59477381D01*
X123724652Y-59547073D01*
X123719668Y-59564046D01*
X123682903Y-59662617D01*
X123682901Y-59662627D01*
X123676500Y-59722155D01*
X123676500Y-59770000D01*
X124117333Y-59770000D01*
X124125311Y-59770427D01*
X124125317Y-59770322D01*
X124128602Y-59770497D01*
X124128627Y-59770500D01*
X125924372Y-59770499D01*
X125924372Y-59770498D01*
X125927696Y-59770321D01*
X125927701Y-59770426D01*
X125935663Y-59770000D01*
X126312161Y-59770000D01*
X126314861Y-59770434D01*
X126316281Y-59770068D01*
X126351029Y-59776248D01*
X126479712Y-59818726D01*
X126488291Y-59821915D01*
X126495105Y-59824738D01*
X126497515Y-59825217D01*
X126508739Y-59827998D01*
X126527505Y-59833588D01*
X126528397Y-59833825D01*
X126528855Y-59833947D01*
X126612242Y-59848803D01*
X126612244Y-59848802D01*
X126615967Y-59849466D01*
X126625991Y-59850772D01*
X126649758Y-59855500D01*
X126649759Y-59855500D01*
X126807444Y-59855500D01*
X126833908Y-59850236D01*
X126903500Y-59856463D01*
X126958677Y-59899326D01*
X126981922Y-59965216D01*
X126982100Y-59971853D01*
X126982100Y-64194197D01*
X126962415Y-64261236D01*
X126945781Y-64281878D01*
X126709353Y-64518305D01*
X126648030Y-64551790D01*
X126578338Y-64546806D01*
X126522405Y-64504934D01*
X126498382Y-64443875D01*
X126497591Y-64436516D01*
X126447297Y-64301671D01*
X126447293Y-64301664D01*
X126361047Y-64186455D01*
X126361044Y-64186452D01*
X126245835Y-64100206D01*
X126245828Y-64100202D01*
X126110982Y-64049908D01*
X126110983Y-64049908D01*
X126051383Y-64043501D01*
X126051381Y-64043500D01*
X126051373Y-64043500D01*
X126051364Y-64043500D01*
X124255629Y-64043500D01*
X124255623Y-64043501D01*
X124196016Y-64049908D01*
X124061171Y-64100202D01*
X124061164Y-64100206D01*
X123945955Y-64186452D01*
X123945952Y-64186455D01*
X123859706Y-64301664D01*
X123859702Y-64301671D01*
X123809410Y-64436513D01*
X123809409Y-64436517D01*
X123803000Y-64496127D01*
X123803000Y-64496134D01*
X123803000Y-64496135D01*
X123803000Y-65091870D01*
X123803001Y-65091876D01*
X123809409Y-65151484D01*
X123846401Y-65250668D01*
X123851385Y-65320360D01*
X123846401Y-65337332D01*
X123809410Y-65436511D01*
X123809409Y-65436515D01*
X123809409Y-65436517D01*
X123803000Y-65496127D01*
X123803000Y-65496134D01*
X123803000Y-65496135D01*
X123803000Y-66091870D01*
X123803001Y-66091876D01*
X123809409Y-66151484D01*
X123846401Y-66250668D01*
X123851385Y-66320360D01*
X123846401Y-66337332D01*
X123809410Y-66436511D01*
X123809409Y-66436515D01*
X123809409Y-66436517D01*
X123803000Y-66496127D01*
X123803000Y-66496134D01*
X123803000Y-66496135D01*
X123803000Y-67091870D01*
X123803001Y-67091876D01*
X123809409Y-67151484D01*
X123846401Y-67250668D01*
X123851385Y-67320360D01*
X123846401Y-67337332D01*
X123809410Y-67436511D01*
X123809409Y-67436515D01*
X123809409Y-67436517D01*
X123803000Y-67496127D01*
X123803000Y-67496134D01*
X123803000Y-67496135D01*
X123803000Y-68091870D01*
X123803001Y-68091876D01*
X123809408Y-68151483D01*
X123859702Y-68286328D01*
X123859706Y-68286335D01*
X123945952Y-68401544D01*
X123945955Y-68401547D01*
X124061164Y-68487793D01*
X124061171Y-68487797D01*
X124196017Y-68538091D01*
X124196016Y-68538091D01*
X124202944Y-68538835D01*
X124255627Y-68544500D01*
X126051372Y-68544499D01*
X126110983Y-68538091D01*
X126245831Y-68487796D01*
X126267422Y-68471633D01*
X126332886Y-68447216D01*
X126341733Y-68446900D01*
X127088307Y-68446900D01*
X127173165Y-68430019D01*
X127214444Y-68421809D01*
X127333264Y-68372592D01*
X127440200Y-68301141D01*
X127884296Y-67857045D01*
X127982841Y-67758500D01*
X128837553Y-67758500D01*
X128883546Y-67897300D01*
X128883551Y-67897311D01*
X128974052Y-68044034D01*
X128974055Y-68044038D01*
X129095961Y-68165944D01*
X129095965Y-68165947D01*
X129242694Y-68256451D01*
X129319000Y-68281735D01*
X129319000Y-67758500D01*
X128837553Y-67758500D01*
X127982841Y-67758500D01*
X128091709Y-67649632D01*
X128664842Y-67076498D01*
X128896520Y-66844818D01*
X128957843Y-66811334D01*
X128984201Y-66808500D01*
X129670000Y-66808500D01*
X129737039Y-66828185D01*
X129782794Y-66880989D01*
X129794000Y-66932500D01*
X129794000Y-67283500D01*
X130145000Y-67283500D01*
X130212039Y-67303185D01*
X130257794Y-67355989D01*
X130269000Y-67407500D01*
X130269000Y-68281735D01*
X130345305Y-68256451D01*
X130492033Y-68165948D01*
X130594964Y-68063017D01*
X130656287Y-68029532D01*
X130725979Y-68034516D01*
X130770327Y-68063017D01*
X130873650Y-68166340D01*
X131020484Y-68256908D01*
X131184247Y-68311174D01*
X131285323Y-68321500D01*
X131858676Y-68321499D01*
X131858684Y-68321498D01*
X131858687Y-68321498D01*
X131914030Y-68315844D01*
X131959753Y-68311174D01*
X132123516Y-68256908D01*
X132270350Y-68166340D01*
X132358304Y-68078385D01*
X132419623Y-68044903D01*
X132477715Y-68046198D01*
X132642091Y-68089720D01*
X132656261Y-68093254D01*
X132656936Y-68093412D01*
X132678515Y-68096920D01*
X132725481Y-68104557D01*
X132725483Y-68104557D01*
X132725489Y-68104558D01*
X132725494Y-68104557D01*
X132727542Y-68104671D01*
X132744889Y-68106866D01*
X132763155Y-68110500D01*
X132763158Y-68110500D01*
X132920844Y-68110500D01*
X132920845Y-68110499D01*
X133075497Y-68079737D01*
X133221179Y-68019394D01*
X133352289Y-67931789D01*
X133463789Y-67820289D01*
X133551394Y-67689179D01*
X133611737Y-67543497D01*
X133642500Y-67388842D01*
X133642500Y-67231158D01*
X133642500Y-67231155D01*
X133642499Y-67231153D01*
X133626652Y-67151484D01*
X133611737Y-67076503D01*
X133552399Y-66933247D01*
X133551397Y-66930827D01*
X133551390Y-66930814D01*
X133463789Y-66799711D01*
X133463786Y-66799707D01*
X133383259Y-66719180D01*
X133349774Y-66657857D01*
X133354758Y-66588165D01*
X133396630Y-66532232D01*
X133462094Y-66507815D01*
X133470932Y-66507499D01*
X133625676Y-66507499D01*
X133625684Y-66507498D01*
X133625687Y-66507498D01*
X133681030Y-66501844D01*
X133726753Y-66497174D01*
X133890516Y-66442908D01*
X134037350Y-66352340D01*
X134151319Y-66238371D01*
X134212642Y-66204886D01*
X134282334Y-66209870D01*
X134326681Y-66238371D01*
X134440650Y-66352340D01*
X134587484Y-66442908D01*
X134751247Y-66497174D01*
X134852323Y-66507500D01*
X135450676Y-66507499D01*
X135450684Y-66507498D01*
X135450687Y-66507498D01*
X135506030Y-66501844D01*
X135551753Y-66497174D01*
X135715516Y-66442908D01*
X135862350Y-66352340D01*
X135984340Y-66230350D01*
X135984340Y-66230349D01*
X135989447Y-66225243D01*
X135990741Y-66226537D01*
X136040068Y-66191612D01*
X136080310Y-66184900D01*
X137547553Y-66184900D01*
X137614592Y-66204585D01*
X137660347Y-66257389D01*
X137665484Y-66270581D01*
X137709944Y-66407416D01*
X137806451Y-66596820D01*
X137931390Y-66768786D01*
X138081713Y-66919109D01*
X138253679Y-67044048D01*
X138253681Y-67044049D01*
X138253684Y-67044051D01*
X138443088Y-67140557D01*
X138645257Y-67206246D01*
X138855213Y-67239500D01*
X138855214Y-67239500D01*
X139067786Y-67239500D01*
X139067787Y-67239500D01*
X139277743Y-67206246D01*
X139479912Y-67140557D01*
X139669316Y-67044051D01*
X139821826Y-66933247D01*
X139841286Y-66919109D01*
X139841288Y-66919106D01*
X139841292Y-66919104D01*
X139991604Y-66768792D01*
X139991606Y-66768788D01*
X139991609Y-66768786D01*
X140116548Y-66596820D01*
X140116547Y-66596820D01*
X140116551Y-66596816D01*
X140213057Y-66407412D01*
X140257570Y-66270415D01*
X140297006Y-66212741D01*
X140361365Y-66185543D01*
X140430211Y-66197458D01*
X140481687Y-66244702D01*
X140499500Y-66308735D01*
X140499500Y-69375500D01*
X140479815Y-69442539D01*
X140427011Y-69488294D01*
X140375500Y-69499500D01*
X123628000Y-69499500D01*
X123560961Y-69479815D01*
X123515206Y-69427011D01*
X123504000Y-69375500D01*
X123503999Y-68246129D01*
X123503998Y-68246123D01*
X123497591Y-68186516D01*
X123447297Y-68051671D01*
X123447293Y-68051664D01*
X123361047Y-67936455D01*
X123361044Y-67936452D01*
X123245835Y-67850206D01*
X123245828Y-67850202D01*
X123110982Y-67799908D01*
X123110983Y-67799908D01*
X123051383Y-67793501D01*
X123051381Y-67793500D01*
X123051373Y-67793500D01*
X123051364Y-67793500D01*
X120455629Y-67793500D01*
X120455623Y-67793501D01*
X120396016Y-67799908D01*
X120261171Y-67850202D01*
X120261168Y-67850204D01*
X120198811Y-67896885D01*
X120133347Y-67921302D01*
X120065074Y-67906450D01*
X120015668Y-67857045D01*
X120000500Y-67797618D01*
X120000500Y-64790381D01*
X120020185Y-64723342D01*
X120072989Y-64677587D01*
X120142147Y-64667643D01*
X120198810Y-64691114D01*
X120256030Y-64733949D01*
X120261168Y-64737795D01*
X120261171Y-64737797D01*
X120396017Y-64788091D01*
X120396016Y-64788091D01*
X120402944Y-64788835D01*
X120455627Y-64794500D01*
X123051372Y-64794499D01*
X123110983Y-64788091D01*
X123245831Y-64737796D01*
X123361046Y-64651546D01*
X123447296Y-64536331D01*
X123497591Y-64401483D01*
X123504000Y-64341873D01*
X123503999Y-63046128D01*
X123497591Y-62986517D01*
X123447296Y-62851669D01*
X123447295Y-62851668D01*
X123447293Y-62851664D01*
X123361047Y-62736455D01*
X123361044Y-62736452D01*
X123245835Y-62650206D01*
X123245828Y-62650202D01*
X123110982Y-62599908D01*
X123110983Y-62599908D01*
X123051383Y-62593501D01*
X123051381Y-62593500D01*
X123051373Y-62593500D01*
X123051364Y-62593500D01*
X120455629Y-62593500D01*
X120455623Y-62593501D01*
X120396016Y-62599908D01*
X120261171Y-62650202D01*
X120261168Y-62650204D01*
X120198811Y-62696885D01*
X120133347Y-62721302D01*
X120065074Y-62706450D01*
X120015668Y-62657045D01*
X120000500Y-62597618D01*
X120000500Y-62292534D01*
X120020185Y-62225495D01*
X120072989Y-62179740D01*
X120142147Y-62169796D01*
X120167833Y-62176352D01*
X120269017Y-62214091D01*
X120269016Y-62214091D01*
X120275944Y-62214835D01*
X120328627Y-62220500D01*
X122924372Y-62220499D01*
X122983983Y-62214091D01*
X123118831Y-62163796D01*
X123234046Y-62077546D01*
X123320296Y-61962331D01*
X123370591Y-61827483D01*
X123377000Y-61767873D01*
X123376999Y-60472128D01*
X123370591Y-60412517D01*
X123361919Y-60389264D01*
X123335281Y-60317844D01*
X123676500Y-60317844D01*
X123682901Y-60377372D01*
X123682903Y-60377379D01*
X123733145Y-60512086D01*
X123733149Y-60512093D01*
X123819309Y-60627187D01*
X123819312Y-60627190D01*
X123934406Y-60713350D01*
X123934413Y-60713354D01*
X124069120Y-60763596D01*
X124069127Y-60763598D01*
X124128655Y-60769999D01*
X124128672Y-60770000D01*
X124776500Y-60770000D01*
X125276500Y-60770000D01*
X125924328Y-60770000D01*
X125924344Y-60769999D01*
X125983872Y-60763598D01*
X125983879Y-60763596D01*
X126118586Y-60713354D01*
X126118593Y-60713350D01*
X126233687Y-60627190D01*
X126233690Y-60627187D01*
X126319850Y-60512093D01*
X126319854Y-60512086D01*
X126370096Y-60377379D01*
X126370098Y-60377372D01*
X126376499Y-60317844D01*
X126376500Y-60317827D01*
X126376500Y-60270000D01*
X125276500Y-60270000D01*
X125276500Y-60770000D01*
X124776500Y-60770000D01*
X124776500Y-60270000D01*
X123676500Y-60270000D01*
X123676500Y-60317844D01*
X123335281Y-60317844D01*
X123320296Y-60277668D01*
X123320295Y-60277667D01*
X123234047Y-60162455D01*
X123234044Y-60162452D01*
X123118835Y-60076206D01*
X123118828Y-60076202D01*
X122983982Y-60025908D01*
X122983983Y-60025908D01*
X122924383Y-60019501D01*
X122924381Y-60019500D01*
X122924373Y-60019500D01*
X122924364Y-60019500D01*
X120328629Y-60019500D01*
X120328623Y-60019501D01*
X120269015Y-60025909D01*
X120167832Y-60063647D01*
X120098140Y-60068631D01*
X120036818Y-60035145D01*
X120003333Y-59973822D01*
X120000500Y-59947465D01*
X120000500Y-59092534D01*
X120020185Y-59025495D01*
X120072989Y-58979740D01*
X120142147Y-58969796D01*
X120167833Y-58976352D01*
X120269017Y-59014091D01*
X120269016Y-59014091D01*
X120275944Y-59014835D01*
X120328627Y-59020500D01*
X122924372Y-59020499D01*
X122983983Y-59014091D01*
X123118831Y-58963796D01*
X123234046Y-58877546D01*
X123320296Y-58762331D01*
X123370591Y-58627483D01*
X123377000Y-58567873D01*
X123376999Y-57272128D01*
X123370591Y-57212517D01*
X123364145Y-57195235D01*
X123320297Y-57077671D01*
X123320293Y-57077664D01*
X123234047Y-56962455D01*
X123234044Y-56962452D01*
X123118835Y-56876206D01*
X123118828Y-56876202D01*
X122983982Y-56825908D01*
X122983983Y-56825908D01*
X122924383Y-56819501D01*
X122924381Y-56819500D01*
X122924373Y-56819500D01*
X122924364Y-56819500D01*
X120328629Y-56819500D01*
X120328623Y-56819501D01*
X120269015Y-56825909D01*
X120167832Y-56863647D01*
X120098140Y-56868631D01*
X120036818Y-56835145D01*
X120003333Y-56773822D01*
X120000500Y-56747465D01*
X120000500Y-56493534D01*
X120020185Y-56426495D01*
X120072989Y-56380740D01*
X120142147Y-56370796D01*
X120167833Y-56377352D01*
X120269017Y-56415091D01*
X120269016Y-56415091D01*
X120275944Y-56415835D01*
X120328627Y-56421500D01*
X122924372Y-56421499D01*
X122983983Y-56415091D01*
X123118831Y-56364796D01*
X123234046Y-56278546D01*
X123320296Y-56163331D01*
X123370591Y-56028483D01*
X123377000Y-55968873D01*
X123376999Y-54673128D01*
X123370591Y-54613517D01*
X123367086Y-54604118D01*
X123335281Y-54518844D01*
X123676500Y-54518844D01*
X123682901Y-54578372D01*
X123682903Y-54578379D01*
X123733145Y-54713086D01*
X123733149Y-54713093D01*
X123819309Y-54828187D01*
X123819312Y-54828190D01*
X123934406Y-54914350D01*
X123934413Y-54914354D01*
X124069120Y-54964596D01*
X124069127Y-54964598D01*
X124128655Y-54970999D01*
X124128672Y-54971000D01*
X124776500Y-54971000D01*
X125276500Y-54971000D01*
X125924328Y-54971000D01*
X125924344Y-54970999D01*
X125983872Y-54964598D01*
X125983879Y-54964596D01*
X126118586Y-54914354D01*
X126118593Y-54914350D01*
X126233687Y-54828190D01*
X126233690Y-54828187D01*
X126319850Y-54713093D01*
X126319854Y-54713086D01*
X126370096Y-54578379D01*
X126370098Y-54578372D01*
X126376499Y-54518844D01*
X126376500Y-54518827D01*
X126376500Y-54471000D01*
X125276500Y-54471000D01*
X125276500Y-54971000D01*
X124776500Y-54971000D01*
X124776500Y-54471000D01*
X123676500Y-54471000D01*
X123676500Y-54518844D01*
X123335281Y-54518844D01*
X123320296Y-54478668D01*
X123320295Y-54478667D01*
X123234047Y-54363455D01*
X123234044Y-54363452D01*
X123118835Y-54277206D01*
X123118828Y-54277202D01*
X122983982Y-54226908D01*
X122983983Y-54226908D01*
X122924383Y-54220501D01*
X122924381Y-54220500D01*
X122924373Y-54220500D01*
X122924364Y-54220500D01*
X120328629Y-54220500D01*
X120328623Y-54220501D01*
X120269015Y-54226909D01*
X120167832Y-54264647D01*
X120098140Y-54269631D01*
X120036818Y-54236145D01*
X120003333Y-54174822D01*
X120000500Y-54148465D01*
X120000500Y-53293534D01*
X120020185Y-53226495D01*
X120072989Y-53180740D01*
X120142147Y-53170796D01*
X120167833Y-53177352D01*
X120269017Y-53215091D01*
X120269016Y-53215091D01*
X120275944Y-53215835D01*
X120328627Y-53221500D01*
X122924372Y-53221499D01*
X122983983Y-53215091D01*
X123118831Y-53164796D01*
X123234046Y-53078546D01*
X123320296Y-52963331D01*
X123370591Y-52828483D01*
X123377000Y-52768873D01*
X123376999Y-51624499D01*
X123396684Y-51557461D01*
X123449487Y-51511706D01*
X123500999Y-51500500D01*
X125524298Y-51500500D01*
X125591337Y-51520185D01*
G37*
%TD.AperFunction*%
%TA.AperFunction,Conductor*%
G36*
X134282334Y-56049870D02*
G01*
X134326681Y-56078371D01*
X134440650Y-56192340D01*
X134444018Y-56194417D01*
X134448103Y-56197424D01*
X134466312Y-56221342D01*
X134486413Y-56243683D01*
X134487729Y-56249472D01*
X134490427Y-56253016D01*
X134491447Y-56265830D01*
X134498600Y-56297290D01*
X134498600Y-57063305D01*
X134498600Y-57063307D01*
X134498599Y-57063307D01*
X134523689Y-57189438D01*
X134523691Y-57189444D01*
X134572908Y-57308264D01*
X134644359Y-57415200D01*
X134644362Y-57415204D01*
X134644363Y-57415205D01*
X137610196Y-60381037D01*
X137643681Y-60442360D01*
X137644988Y-60488115D01*
X137615546Y-60674011D01*
X137611000Y-60702713D01*
X137611000Y-60915287D01*
X137614067Y-60934648D01*
X137615225Y-60941961D01*
X137606269Y-61011255D01*
X137561271Y-61064706D01*
X137494519Y-61085344D01*
X137468560Y-61082975D01*
X137424107Y-61074132D01*
X137398805Y-61069100D01*
X137398804Y-61069100D01*
X136080310Y-61069100D01*
X136013271Y-61049415D01*
X135989940Y-61028263D01*
X135989447Y-61028757D01*
X135862351Y-60901661D01*
X135862350Y-60901660D01*
X135771129Y-60845395D01*
X135715518Y-60811093D01*
X135715513Y-60811091D01*
X135714069Y-60810612D01*
X135551753Y-60756826D01*
X135551751Y-60756825D01*
X135450678Y-60746500D01*
X134852330Y-60746500D01*
X134852312Y-60746501D01*
X134751247Y-60756825D01*
X134587484Y-60811092D01*
X134587481Y-60811093D01*
X134440648Y-60901661D01*
X134326681Y-61015629D01*
X134265358Y-61049114D01*
X134195666Y-61044130D01*
X134151319Y-61015629D01*
X134037351Y-60901661D01*
X134037350Y-60901660D01*
X133946129Y-60845395D01*
X133890518Y-60811093D01*
X133890513Y-60811091D01*
X133889069Y-60810612D01*
X133726753Y-60756826D01*
X133726751Y-60756825D01*
X133625684Y-60746500D01*
X133597940Y-60746500D01*
X133530901Y-60726815D01*
X133485146Y-60674011D01*
X133475202Y-60604853D01*
X133504227Y-60541297D01*
X133510245Y-60534832D01*
X133590789Y-60454289D01*
X133678394Y-60323179D01*
X133679090Y-60321500D01*
X133738735Y-60177501D01*
X133738737Y-60177497D01*
X133769500Y-60022842D01*
X133769500Y-59865158D01*
X133769500Y-59865155D01*
X133769499Y-59865153D01*
X133763292Y-59833947D01*
X133738737Y-59710503D01*
X133715312Y-59653949D01*
X133678397Y-59564827D01*
X133678390Y-59564814D01*
X133590789Y-59433711D01*
X133590786Y-59433707D01*
X133479292Y-59322213D01*
X133479288Y-59322210D01*
X133348185Y-59234609D01*
X133348172Y-59234602D01*
X133202501Y-59174264D01*
X133202489Y-59174261D01*
X133047845Y-59143500D01*
X133047842Y-59143500D01*
X132890158Y-59143500D01*
X132814088Y-59158631D01*
X132804257Y-59160179D01*
X132769092Y-59164278D01*
X132769090Y-59164278D01*
X132504303Y-59234384D01*
X132434458Y-59232513D01*
X132384885Y-59202195D01*
X132270351Y-59087661D01*
X132270350Y-59087660D01*
X132169565Y-59025495D01*
X132123518Y-58997093D01*
X132123513Y-58997091D01*
X132071151Y-58979740D01*
X131959753Y-58942826D01*
X131959751Y-58942825D01*
X131858678Y-58932500D01*
X131285330Y-58932500D01*
X131285312Y-58932501D01*
X131184247Y-58942825D01*
X131020484Y-58997092D01*
X131020481Y-58997093D01*
X130873651Y-59087659D01*
X130770327Y-59190983D01*
X130709004Y-59224467D01*
X130639312Y-59219483D01*
X130594965Y-59190982D01*
X130492038Y-59088055D01*
X130492034Y-59088052D01*
X130345311Y-58997551D01*
X130345300Y-58997546D01*
X130269000Y-58972263D01*
X130269000Y-59846500D01*
X130249315Y-59913539D01*
X130196511Y-59959294D01*
X130145000Y-59970500D01*
X129794000Y-59970500D01*
X129794000Y-60321500D01*
X129774315Y-60388539D01*
X129721511Y-60434294D01*
X129670000Y-60445500D01*
X128837553Y-60445500D01*
X128883546Y-60584300D01*
X128883551Y-60584311D01*
X128974052Y-60731034D01*
X128974055Y-60731038D01*
X128987982Y-60744965D01*
X129021467Y-60806288D01*
X129016483Y-60875980D01*
X128987984Y-60920325D01*
X128973661Y-60934648D01*
X128883093Y-61081481D01*
X128883091Y-61081486D01*
X128866107Y-61132741D01*
X128828826Y-61245247D01*
X128828826Y-61245248D01*
X128828825Y-61245248D01*
X128818500Y-61346315D01*
X128818500Y-62044669D01*
X128818501Y-62044687D01*
X128828825Y-62145752D01*
X128883092Y-62309515D01*
X128883093Y-62309518D01*
X128907076Y-62348400D01*
X128968399Y-62447821D01*
X128973661Y-62456351D01*
X129100757Y-62583447D01*
X129099460Y-62584743D01*
X129134382Y-62634049D01*
X129141100Y-62674309D01*
X129141100Y-63305197D01*
X129121415Y-63372236D01*
X129104781Y-63392878D01*
X128499581Y-63998078D01*
X128438258Y-64031563D01*
X128368566Y-64026579D01*
X128312633Y-63984707D01*
X128288216Y-63919243D01*
X128287900Y-63910397D01*
X128287900Y-59495500D01*
X128837553Y-59495500D01*
X129319000Y-59495500D01*
X129319000Y-58972263D01*
X129242699Y-58997546D01*
X129242688Y-58997551D01*
X129095965Y-59088052D01*
X129095961Y-59088055D01*
X128974055Y-59209961D01*
X128974052Y-59209965D01*
X128883551Y-59356688D01*
X128883546Y-59356699D01*
X128837553Y-59495500D01*
X128287900Y-59495500D01*
X128287900Y-57826301D01*
X128307585Y-57759262D01*
X128324214Y-57738625D01*
X129643021Y-56419817D01*
X129704344Y-56386333D01*
X129730702Y-56383499D01*
X130080670Y-56383499D01*
X130080676Y-56383499D01*
X130181753Y-56373174D01*
X130345516Y-56318908D01*
X130492350Y-56228340D01*
X130595319Y-56125371D01*
X130656642Y-56091886D01*
X130726334Y-56096870D01*
X130770681Y-56125371D01*
X130873650Y-56228340D01*
X131020484Y-56318908D01*
X131184247Y-56373174D01*
X131285323Y-56383500D01*
X131858676Y-56383499D01*
X131858684Y-56383498D01*
X131858687Y-56383498D01*
X131918852Y-56377352D01*
X131959753Y-56373174D01*
X132123516Y-56318908D01*
X132270350Y-56228340D01*
X132373319Y-56125371D01*
X132434642Y-56091886D01*
X132504334Y-56096870D01*
X132548681Y-56125371D01*
X132615650Y-56192340D01*
X132762484Y-56282908D01*
X132926247Y-56337174D01*
X133027323Y-56347500D01*
X133625676Y-56347499D01*
X133625684Y-56347498D01*
X133625687Y-56347498D01*
X133681030Y-56341844D01*
X133726753Y-56337174D01*
X133890516Y-56282908D01*
X134037350Y-56192340D01*
X134151319Y-56078371D01*
X134212642Y-56044886D01*
X134282334Y-56049870D01*
G37*
%TD.AperFunction*%
%TD*%
%TA.AperFunction,Conductor*%
%TO.N,+3.3V*%
G36*
X132780346Y-67020136D02*
G01*
X132785776Y-67027256D01*
X132785934Y-67027931D01*
X132842530Y-67307680D01*
X132842530Y-67312320D01*
X132785934Y-67592068D01*
X132780934Y-67599497D01*
X132772146Y-67601216D01*
X132771471Y-67601058D01*
X132256469Y-67464704D01*
X132249349Y-67459274D01*
X132247764Y-67453394D01*
X132247764Y-67166605D01*
X132251191Y-67158332D01*
X132256468Y-67155295D01*
X132771472Y-67018941D01*
X132780346Y-67020136D01*
G37*
%TD.AperFunction*%
%TD*%
%TA.AperFunction,Conductor*%
%TO.N,+3.3V*%
G36*
X132780346Y-53304136D02*
G01*
X132785776Y-53311256D01*
X132785934Y-53311931D01*
X132842530Y-53591680D01*
X132842530Y-53596320D01*
X132785934Y-53876068D01*
X132780934Y-53883497D01*
X132772146Y-53885216D01*
X132771471Y-53885058D01*
X132256469Y-53748704D01*
X132249349Y-53743274D01*
X132247764Y-53737394D01*
X132247764Y-53450605D01*
X132251191Y-53442332D01*
X132256468Y-53439295D01*
X132771472Y-53302941D01*
X132780346Y-53304136D01*
G37*
%TD.AperFunction*%
%TD*%
%TA.AperFunction,Conductor*%
%TO.N,+3.3V*%
G36*
X132907346Y-59654136D02*
G01*
X132912776Y-59661256D01*
X132912934Y-59661931D01*
X132969530Y-59941680D01*
X132969530Y-59946320D01*
X132912934Y-60226068D01*
X132907934Y-60233497D01*
X132899146Y-60235216D01*
X132898471Y-60235058D01*
X132383469Y-60098704D01*
X132376349Y-60093274D01*
X132374764Y-60087394D01*
X132374764Y-59800605D01*
X132378191Y-59792332D01*
X132383468Y-59789295D01*
X132898472Y-59652941D01*
X132907346Y-59654136D01*
G37*
%TD.AperFunction*%
%TD*%
%TA.AperFunction,Conductor*%
%TO.N,+3.3V*%
G36*
X126667413Y-58764788D02*
G01*
X126672386Y-58772199D01*
X126729130Y-59052680D01*
X126729130Y-59057320D01*
X126672687Y-59336313D01*
X126667687Y-59343742D01*
X126658899Y-59345461D01*
X126657558Y-59345104D01*
X126357031Y-59245901D01*
X126142396Y-59175051D01*
X126135614Y-59169204D01*
X126134364Y-59163941D01*
X126134364Y-58877196D01*
X126137791Y-58868923D01*
X126143773Y-58865723D01*
X126658632Y-58763045D01*
X126667413Y-58764788D01*
G37*
%TD.AperFunction*%
%TD*%
M02*
