%TF.GenerationSoftware,KiCad,Pcbnew,9.0.1*%
%TF.CreationDate,2025-04-15T19:42:40+08:00*%
%TF.ProjectId,HallConnector,48616c6c-436f-46e6-9e65-63746f722e6b,rev?*%
%TF.SameCoordinates,Original*%
%TF.FileFunction,Copper,L1,Top*%
%TF.FilePolarity,Positive*%
%FSLAX46Y46*%
G04 Gerber Fmt 4.6, Leading zero omitted, Abs format (unit mm)*
G04 Created by KiCad (PCBNEW 9.0.1) date 2025-04-15 19:42:40*
%MOMM*%
%LPD*%
G01*
G04 APERTURE LIST*
G04 Aperture macros list*
%AMRoundRect*
0 Rectangle with rounded corners*
0 $1 Rounding radius*
0 $2 $3 $4 $5 $6 $7 $8 $9 X,Y pos of 4 corners*
0 Add a 4 corners polygon primitive as box body*
4,1,4,$2,$3,$4,$5,$6,$7,$8,$9,$2,$3,0*
0 Add four circle primitives for the rounded corners*
1,1,$1+$1,$2,$3*
1,1,$1+$1,$4,$5*
1,1,$1+$1,$6,$7*
1,1,$1+$1,$8,$9*
0 Add four rect primitives between the rounded corners*
20,1,$1+$1,$2,$3,$4,$5,0*
20,1,$1+$1,$4,$5,$6,$7,0*
20,1,$1+$1,$6,$7,$8,$9,0*
20,1,$1+$1,$8,$9,$2,$3,0*%
G04 Aperture macros list end*
%TA.AperFunction,SMDPad,CuDef*%
%ADD10RoundRect,0.237500X0.250000X0.237500X-0.250000X0.237500X-0.250000X-0.237500X0.250000X-0.237500X0*%
%TD*%
%TA.AperFunction,SMDPad,CuDef*%
%ADD11RoundRect,0.237500X-0.287500X-0.237500X0.287500X-0.237500X0.287500X0.237500X-0.287500X0.237500X0*%
%TD*%
%TA.AperFunction,ComponentPad*%
%ADD12R,1.700000X1.700000*%
%TD*%
%TA.AperFunction,ComponentPad*%
%ADD13C,1.700000*%
%TD*%
%TA.AperFunction,SMDPad,CuDef*%
%ADD14R,1.700000X0.500000*%
%TD*%
%TA.AperFunction,SMDPad,CuDef*%
%ADD15R,2.500000X1.200000*%
%TD*%
%TA.AperFunction,SMDPad,CuDef*%
%ADD16RoundRect,0.237500X0.237500X-0.300000X0.237500X0.300000X-0.237500X0.300000X-0.237500X-0.300000X0*%
%TD*%
%TA.AperFunction,SMDPad,CuDef*%
%ADD17RoundRect,0.237500X-0.250000X-0.237500X0.250000X-0.237500X0.250000X0.237500X-0.250000X0.237500X0*%
%TD*%
%TA.AperFunction,SMDPad,CuDef*%
%ADD18RoundRect,0.237500X-0.237500X0.250000X-0.237500X-0.250000X0.237500X-0.250000X0.237500X0.250000X0*%
%TD*%
%TA.AperFunction,SMDPad,CuDef*%
%ADD19RoundRect,0.237500X0.237500X-0.250000X0.237500X0.250000X-0.237500X0.250000X-0.237500X-0.250000X0*%
%TD*%
%TA.AperFunction,SMDPad,CuDef*%
%ADD20RoundRect,0.237500X-0.237500X0.300000X-0.237500X-0.300000X0.237500X-0.300000X0.237500X0.300000X0*%
%TD*%
%TA.AperFunction,ViaPad*%
%ADD21C,0.600000*%
%TD*%
%TA.AperFunction,Conductor*%
%ADD22C,0.304800*%
%TD*%
G04 APERTURE END LIST*
D10*
%TO.P,R7,1*%
%TO.N,Net-(D4-K)*%
X131595500Y-67691000D03*
%TO.P,R7,2*%
%TO.N,/SPI1_SCK*%
X129770500Y-67691000D03*
%TD*%
D11*
%TO.P,D4,1,K*%
%TO.N,Net-(D4-K)*%
X133364000Y-67691000D03*
%TO.P,D4,2,A*%
%TO.N,+3.3V*%
X135114000Y-67691000D03*
%TD*%
D12*
%TO.P,J1,1,Pin_1*%
%TO.N,+5V*%
X138961500Y-55729000D03*
D13*
%TO.P,J1,2,Pin_2*%
%TO.N,GND*%
X138961500Y-58269000D03*
%TO.P,J1,3,Pin_3*%
%TO.N,Net-(J1-Pin_3)*%
X138961500Y-60809000D03*
%TO.P,J1,4,Pin_4*%
%TO.N,Net-(J1-Pin_4)*%
X138961500Y-63349000D03*
%TO.P,J1,5,Pin_5*%
%TO.N,Net-(J1-Pin_5)*%
X138961500Y-65889000D03*
%TD*%
D14*
%TO.P,U2,1,1*%
%TO.N,GND*%
X125026500Y-53221000D03*
%TO.P,U2,2,2*%
%TO.N,+5V*%
X125026500Y-54221000D03*
D15*
%TO.P,U2,3,3*%
%TO.N,unconnected-(U2-Pad3)*%
X121626500Y-55321000D03*
%TO.P,U2,4,4*%
%TO.N,unconnected-(U2-Pad4)*%
X121626500Y-52121000D03*
%TD*%
D16*
%TO.P,C2,1*%
%TO.N,/SPI1_MOSI*%
X129794000Y-60425500D03*
%TO.P,C2,2*%
%TO.N,GND*%
X129794000Y-58700500D03*
%TD*%
D14*
%TO.P,CN3,1,1*%
%TO.N,/SPI1_NSS*%
X125153500Y-64794000D03*
%TO.P,CN3,2,2*%
%TO.N,/SPI1_MOSI*%
X125153500Y-65794000D03*
%TO.P,CN3,3,3*%
%TO.N,/SPI1_MISO*%
X125153500Y-66794000D03*
%TO.P,CN3,4,4*%
%TO.N,/SPI1_SCK*%
X125153500Y-67794000D03*
D15*
%TO.P,CN3,5,5*%
%TO.N,unconnected-(CN3-Pad5)*%
X121753500Y-63694000D03*
%TO.P,CN3,6,6*%
%TO.N,unconnected-(CN3-Pad6)*%
X121753500Y-68894000D03*
%TD*%
D17*
%TO.P,R6,1*%
%TO.N,/SPI1_MISO*%
X133326500Y-55372000D03*
%TO.P,R6,2*%
%TO.N,Net-(J1-Pin_3)*%
X135151500Y-55372000D03*
%TD*%
D18*
%TO.P,R2,1*%
%TO.N,+3.3V*%
X131572000Y-58650500D03*
%TO.P,R2,2*%
%TO.N,/SPI1_MOSI*%
X131572000Y-60475500D03*
%TD*%
D14*
%TO.P,U1,1,1*%
%TO.N,GND*%
X125026500Y-59020000D03*
%TO.P,U1,2,2*%
%TO.N,+3.3V*%
X125026500Y-60020000D03*
D15*
%TO.P,U1,3,3*%
%TO.N,unconnected-(U1-Pad3)*%
X121626500Y-61120000D03*
%TO.P,U1,4,4*%
%TO.N,unconnected-(U1-Pad4)*%
X121626500Y-57920000D03*
%TD*%
D17*
%TO.P,R5,1*%
%TO.N,/SPI1_MOSI*%
X133326500Y-60452000D03*
%TO.P,R5,2*%
%TO.N,Net-(J1-Pin_4)*%
X135151500Y-60452000D03*
%TD*%
D16*
%TO.P,C1,1*%
%TO.N,/SPI1_MISO*%
X129794000Y-55345500D03*
%TO.P,C1,2*%
%TO.N,GND*%
X129794000Y-53620500D03*
%TD*%
D18*
%TO.P,R1,1*%
%TO.N,+3.3V*%
X131572000Y-53570500D03*
%TO.P,R1,2*%
%TO.N,/SPI1_MISO*%
X131572000Y-55395500D03*
%TD*%
D19*
%TO.P,R3,1*%
%TO.N,+3.3V*%
X131572000Y-64793500D03*
%TO.P,R3,2*%
%TO.N,/SPI1_NSS*%
X131572000Y-62968500D03*
%TD*%
D20*
%TO.P,C3,1*%
%TO.N,/SPI1_NSS*%
X129794000Y-63018500D03*
%TO.P,C3,2*%
%TO.N,GND*%
X129794000Y-64743500D03*
%TD*%
D17*
%TO.P,R4,1*%
%TO.N,/SPI1_NSS*%
X133326500Y-62992000D03*
%TO.P,R4,2*%
%TO.N,Net-(J1-Pin_5)*%
X135151500Y-62992000D03*
%TD*%
D21*
%TO.N,/SPI1_MOSI*%
X128524000Y-60596400D03*
X126619000Y-65786000D03*
%TO.N,GND*%
X131572000Y-57150000D03*
X129794000Y-57150000D03*
X128270000Y-66421000D03*
X128270000Y-65659000D03*
%TO.N,+3.3V*%
X131572000Y-66040000D03*
X132969000Y-53594000D03*
X132842000Y-58547000D03*
X126619000Y-59944000D03*
%TO.N,GND*%
X124460000Y-56769000D03*
X124333000Y-52070000D03*
X124460000Y-57785000D03*
X123063000Y-53721000D03*
%TD*%
D22*
%TO.N,Net-(J1-Pin_5)*%
X136064500Y-62992000D02*
X138961500Y-65889000D01*
X135151500Y-62992000D02*
X136064500Y-62992000D01*
%TO.N,Net-(J1-Pin_4)*%
X136064500Y-60452000D02*
X135151500Y-60452000D01*
X138961500Y-63349000D02*
X136064500Y-60452000D01*
%TO.N,/SPI1_MOSI*%
X128541400Y-60579000D02*
X129640500Y-60579000D01*
X128524000Y-60596400D02*
X128541400Y-60579000D01*
X126611000Y-65794000D02*
X126619000Y-65786000D01*
X125153500Y-65794000D02*
X126611000Y-65794000D01*
%TO.N,/SPI1_SCK*%
X129667500Y-67794000D02*
X125153500Y-67794000D01*
%TO.N,/SPI1_NSS*%
X128370500Y-63018500D02*
X129794000Y-63018500D01*
X125153500Y-64794000D02*
X126595000Y-64794000D01*
X126595000Y-64794000D02*
X128370500Y-63018500D01*
%TO.N,Net-(D4-K)*%
X133364000Y-67691000D02*
X131595500Y-67691000D01*
%TO.N,+3.3V*%
X131572000Y-66040000D02*
X133463000Y-66040000D01*
X133463000Y-66040000D02*
X135114000Y-67691000D01*
%TO.N,/SPI1_NSS*%
X131572000Y-62968500D02*
X129844000Y-62968500D01*
X133326500Y-62992000D02*
X131595500Y-62992000D01*
%TO.N,+3.3V*%
X131572000Y-66040000D02*
X131572000Y-64793500D01*
%TO.N,/SPI1_MOSI*%
X133326500Y-60452000D02*
X131595500Y-60452000D01*
X131572000Y-60475500D02*
X129844000Y-60475500D01*
%TO.N,+3.3V*%
X132738500Y-58650500D02*
X131572000Y-58650500D01*
X132842000Y-58547000D02*
X132738500Y-58650500D01*
%TO.N,+5V*%
X127272400Y-52559600D02*
X128178600Y-51653400D01*
X128178600Y-51653400D02*
X134885900Y-51653400D01*
X127272400Y-53483648D02*
X127272400Y-52559600D01*
X125034500Y-54229000D02*
X126527048Y-54229000D01*
X126527048Y-54229000D02*
X127272400Y-53483648D01*
X134885900Y-51653400D02*
X138961500Y-55729000D01*
%TO.N,/SPI1_MISO*%
X127635000Y-57504500D02*
X129794000Y-55345500D01*
X123444000Y-64262000D02*
X123444300Y-64261700D01*
X123444300Y-64261700D02*
X123444300Y-64181390D01*
X127635000Y-59990691D02*
X127635000Y-57504500D01*
X123444000Y-66421000D02*
X123444000Y-64262000D01*
X123444300Y-64181390D02*
X127635000Y-59990691D01*
X123817000Y-66794000D02*
X123444000Y-66421000D01*
X125153500Y-66794000D02*
X123817000Y-66794000D01*
%TO.N,+3.3V*%
X132969000Y-53594000D02*
X131595500Y-53594000D01*
X126543000Y-60020000D02*
X126619000Y-59944000D01*
X125026500Y-60020000D02*
X126543000Y-60020000D01*
%TO.N,/SPI1_MISO*%
X129794000Y-55345500D02*
X131522000Y-55345500D01*
X133326500Y-55372000D02*
X131595500Y-55372000D01*
%TO.N,Net-(J1-Pin_3)*%
X135151500Y-56999000D02*
X135151500Y-55372000D01*
X138961500Y-60809000D02*
X135151500Y-56999000D01*
%TD*%
%TA.AperFunction,Conductor*%
%TO.N,GND*%
G36*
X128843125Y-63672943D02*
G01*
X128848496Y-63671856D01*
X128876293Y-63682682D01*
X128904908Y-63691085D01*
X128909267Y-63695525D01*
X128913602Y-63697214D01*
X128938196Y-63722527D01*
X128940949Y-63726318D01*
X128973660Y-63779350D01*
X128994889Y-63800579D01*
X129000628Y-63808480D01*
X129024100Y-63874290D01*
X129008266Y-63942341D01*
X128987985Y-63969032D01*
X128974052Y-63982965D01*
X128883551Y-64129688D01*
X128883546Y-64129699D01*
X128837553Y-64268500D01*
X129670000Y-64268500D01*
X129737039Y-64288185D01*
X129782794Y-64340989D01*
X129794000Y-64392500D01*
X129794000Y-64743500D01*
X130145000Y-64743500D01*
X130212039Y-64763185D01*
X130257794Y-64815989D01*
X130269000Y-64867500D01*
X130269000Y-65741735D01*
X130345305Y-65716451D01*
X130492033Y-65625948D01*
X130594964Y-65523017D01*
X130602911Y-65518677D01*
X130608336Y-65511431D01*
X130633092Y-65502197D01*
X130656287Y-65489532D01*
X130665317Y-65490177D01*
X130673800Y-65487014D01*
X130699620Y-65492630D01*
X130725979Y-65494516D01*
X130735032Y-65500334D01*
X130742073Y-65501866D01*
X130770327Y-65523017D01*
X130803609Y-65556299D01*
X130837094Y-65617622D01*
X130835798Y-65675716D01*
X130792274Y-65840105D01*
X130788595Y-65854895D01*
X130788446Y-65855538D01*
X130777440Y-65923494D01*
X130777327Y-65925540D01*
X130775135Y-65942877D01*
X130771500Y-65961155D01*
X130771500Y-66118846D01*
X130802261Y-66273489D01*
X130802264Y-66273501D01*
X130862602Y-66419172D01*
X130862609Y-66419185D01*
X130950210Y-66550288D01*
X130950213Y-66550292D01*
X131012458Y-66612537D01*
X131045943Y-66673860D01*
X131040959Y-66743552D01*
X130999087Y-66799485D01*
X130989874Y-66805756D01*
X130884653Y-66870657D01*
X130884649Y-66870660D01*
X130770681Y-66984629D01*
X130709358Y-67018114D01*
X130639666Y-67013130D01*
X130595319Y-66984629D01*
X130481351Y-66870661D01*
X130481350Y-66870660D01*
X130334516Y-66780092D01*
X130170753Y-66725826D01*
X130170751Y-66725825D01*
X130069678Y-66715500D01*
X129471330Y-66715500D01*
X129471312Y-66715501D01*
X129370247Y-66725825D01*
X129206484Y-66780092D01*
X129206481Y-66780093D01*
X129059648Y-66870661D01*
X128937659Y-66992650D01*
X128882428Y-67082196D01*
X128830480Y-67128921D01*
X128776889Y-67141100D01*
X126628000Y-67141100D01*
X126560961Y-67121415D01*
X126515206Y-67068611D01*
X126504000Y-67017100D01*
X126504000Y-66870657D01*
X126503999Y-66710499D01*
X126523683Y-66643461D01*
X126576487Y-66597706D01*
X126627999Y-66586500D01*
X126697844Y-66586500D01*
X126697845Y-66586499D01*
X126852497Y-66555737D01*
X126998179Y-66495394D01*
X127129289Y-66407789D01*
X127240789Y-66296289D01*
X127328394Y-66165179D01*
X127388737Y-66019497D01*
X127419500Y-65864842D01*
X127419500Y-65707158D01*
X127419500Y-65707155D01*
X127419499Y-65707153D01*
X127394616Y-65582058D01*
X127388737Y-65552503D01*
X127380602Y-65532863D01*
X127328397Y-65406827D01*
X127328390Y-65406814D01*
X127240788Y-65275709D01*
X127226390Y-65261311D01*
X127203013Y-65218500D01*
X128837553Y-65218500D01*
X128883546Y-65357300D01*
X128883551Y-65357311D01*
X128974052Y-65504034D01*
X128974055Y-65504038D01*
X129095961Y-65625944D01*
X129095965Y-65625947D01*
X129242694Y-65716451D01*
X129319000Y-65741735D01*
X129319000Y-65218500D01*
X128837553Y-65218500D01*
X127203013Y-65218500D01*
X127192905Y-65199988D01*
X127197889Y-65130296D01*
X127226388Y-65085951D01*
X128604621Y-63707719D01*
X128665944Y-63674234D01*
X128692302Y-63671400D01*
X128837869Y-63671400D01*
X128843125Y-63672943D01*
G37*
%TD.AperFunction*%
%TA.AperFunction,Conductor*%
G36*
X127175836Y-51520185D02*
G01*
X127221591Y-51572989D01*
X127231535Y-51642147D01*
X127202510Y-51705703D01*
X127196478Y-51712181D01*
X126765263Y-52143394D01*
X126765262Y-52143395D01*
X126706065Y-52231992D01*
X126693807Y-52250337D01*
X126644591Y-52369155D01*
X126644589Y-52369161D01*
X126619500Y-52495292D01*
X126619500Y-52870018D01*
X126599815Y-52937057D01*
X126547011Y-52982812D01*
X126477853Y-52992756D01*
X126414297Y-52963731D01*
X126376523Y-52904953D01*
X126372211Y-52883275D01*
X126370098Y-52863626D01*
X126370096Y-52863620D01*
X126319854Y-52728913D01*
X126319850Y-52728906D01*
X126233690Y-52613812D01*
X126233687Y-52613809D01*
X126118593Y-52527649D01*
X126118586Y-52527645D01*
X125983879Y-52477403D01*
X125983872Y-52477401D01*
X125924344Y-52471000D01*
X125276500Y-52471000D01*
X125276500Y-53097000D01*
X125256815Y-53164039D01*
X125204011Y-53209794D01*
X125152500Y-53221000D01*
X125026500Y-53221000D01*
X125026500Y-53346500D01*
X125006815Y-53413539D01*
X124954011Y-53459294D01*
X124902500Y-53470500D01*
X124128629Y-53470500D01*
X124125305Y-53470679D01*
X124125299Y-53470573D01*
X124117337Y-53471000D01*
X123676500Y-53471000D01*
X123676500Y-53518844D01*
X123682901Y-53578372D01*
X123682903Y-53578380D01*
X123719668Y-53676952D01*
X123724652Y-53746644D01*
X123719668Y-53763617D01*
X123682410Y-53863511D01*
X123682409Y-53863515D01*
X123682409Y-53863517D01*
X123676000Y-53923127D01*
X123676000Y-53923134D01*
X123676000Y-53923135D01*
X123676000Y-54518870D01*
X123676001Y-54518876D01*
X123682408Y-54578483D01*
X123732702Y-54713328D01*
X123732706Y-54713335D01*
X123818952Y-54828544D01*
X123818955Y-54828547D01*
X123934164Y-54914793D01*
X123934171Y-54914797D01*
X124069017Y-54965091D01*
X124069016Y-54965091D01*
X124075944Y-54965835D01*
X124128627Y-54971500D01*
X125924372Y-54971499D01*
X125983983Y-54965091D01*
X126118831Y-54914796D01*
X126129734Y-54906634D01*
X126195198Y-54882216D01*
X126204046Y-54881900D01*
X126591355Y-54881900D01*
X126676213Y-54865019D01*
X126717492Y-54856809D01*
X126836312Y-54807592D01*
X126857540Y-54793408D01*
X126943248Y-54736141D01*
X127779541Y-53899847D01*
X127850992Y-53792912D01*
X127900209Y-53674092D01*
X127904920Y-53650408D01*
X127925300Y-53547953D01*
X127925300Y-53145500D01*
X128837553Y-53145500D01*
X129319000Y-53145500D01*
X129319000Y-52622263D01*
X129242699Y-52647546D01*
X129242688Y-52647551D01*
X129095965Y-52738052D01*
X129095961Y-52738055D01*
X128974055Y-52859961D01*
X128974052Y-52859965D01*
X128883551Y-53006688D01*
X128883546Y-53006699D01*
X128837553Y-53145500D01*
X127925300Y-53145500D01*
X127925300Y-52881402D01*
X127944985Y-52814363D01*
X127961619Y-52793721D01*
X128412721Y-52342619D01*
X128474044Y-52309134D01*
X128500402Y-52306300D01*
X134564097Y-52306300D01*
X134631136Y-52325985D01*
X134651778Y-52342619D01*
X137574681Y-55265521D01*
X137608166Y-55326844D01*
X137611000Y-55353202D01*
X137611000Y-56626870D01*
X137611001Y-56626876D01*
X137617408Y-56686483D01*
X137667702Y-56821328D01*
X137667706Y-56821335D01*
X137753952Y-56936544D01*
X137753955Y-56936547D01*
X137869164Y-57022793D01*
X137869171Y-57022797D01*
X137914118Y-57039561D01*
X138004017Y-57073091D01*
X138063627Y-57079500D01*
X138427745Y-57079499D01*
X138494782Y-57099183D01*
X138515424Y-57115818D01*
X138961500Y-57561894D01*
X138961501Y-57561894D01*
X139407575Y-57115818D01*
X139468898Y-57082333D01*
X139495254Y-57079499D01*
X139859372Y-57079499D01*
X139918983Y-57073091D01*
X140053831Y-57022796D01*
X140169046Y-56936546D01*
X140255296Y-56821331D01*
X140255979Y-56819500D01*
X140259318Y-56810549D01*
X140301188Y-56754615D01*
X140366652Y-56730197D01*
X140434925Y-56745048D01*
X140484331Y-56794453D01*
X140499500Y-56853881D01*
X140499500Y-57850879D01*
X140479815Y-57917918D01*
X140427011Y-57963673D01*
X140357853Y-57973617D01*
X140294297Y-57944592D01*
X140257569Y-57889197D01*
X140212594Y-57750781D01*
X140212594Y-57750780D01*
X140203896Y-57733708D01*
X139668606Y-58268999D01*
X139668606Y-58269001D01*
X140203895Y-58804290D01*
X140203895Y-58804289D01*
X140212593Y-58787220D01*
X140212594Y-58787218D01*
X140257569Y-58648801D01*
X140297007Y-58591125D01*
X140361365Y-58563927D01*
X140430212Y-58575842D01*
X140481687Y-58623086D01*
X140499500Y-58687119D01*
X140499500Y-60389264D01*
X140479815Y-60456303D01*
X140427011Y-60502058D01*
X140357853Y-60512002D01*
X140294297Y-60482977D01*
X140257569Y-60427582D01*
X140252674Y-60412516D01*
X140213057Y-60290588D01*
X140116551Y-60101184D01*
X140116549Y-60101181D01*
X140116548Y-60101179D01*
X139991609Y-59929213D01*
X139841286Y-59778890D01*
X139669320Y-59653951D01*
X139569052Y-59602862D01*
X139518256Y-59554887D01*
X139511006Y-59525611D01*
X138654493Y-58669099D01*
X138768507Y-58734925D01*
X138895674Y-58769000D01*
X139027326Y-58769000D01*
X139154493Y-58734925D01*
X139268507Y-58669099D01*
X139361599Y-58576007D01*
X139427425Y-58461993D01*
X139461500Y-58334826D01*
X139461500Y-58203174D01*
X139427425Y-58076007D01*
X139361599Y-57961993D01*
X139268507Y-57868901D01*
X139154493Y-57803075D01*
X139027326Y-57769000D01*
X138895674Y-57769000D01*
X138768507Y-57803075D01*
X138654493Y-57868901D01*
X138561401Y-57961993D01*
X138495575Y-58076007D01*
X138461500Y-58203174D01*
X138461500Y-58334826D01*
X138495575Y-58461993D01*
X138561401Y-58576007D01*
X137719103Y-57733709D01*
X137710404Y-57750783D01*
X137644742Y-57952869D01*
X137644742Y-57952872D01*
X137611500Y-58162753D01*
X137611500Y-58236297D01*
X137591815Y-58303336D01*
X137539011Y-58349091D01*
X137469853Y-58359035D01*
X137406297Y-58330010D01*
X137399819Y-58323978D01*
X135840719Y-56764878D01*
X135807234Y-56703555D01*
X135804400Y-56677197D01*
X135804400Y-56297290D01*
X135824085Y-56230251D01*
X135857319Y-56197630D01*
X135856681Y-56196823D01*
X135862348Y-56192341D01*
X135862347Y-56192341D01*
X135862350Y-56192340D01*
X135984340Y-56070350D01*
X136074908Y-55923516D01*
X136129174Y-55759753D01*
X136139500Y-55658677D01*
X136139499Y-55085324D01*
X136129174Y-54984247D01*
X136074908Y-54820484D01*
X135984340Y-54673650D01*
X135862350Y-54551660D01*
X135771129Y-54495395D01*
X135715518Y-54461093D01*
X135715513Y-54461091D01*
X135714069Y-54460612D01*
X135551753Y-54406826D01*
X135551751Y-54406825D01*
X135450678Y-54396500D01*
X134852330Y-54396500D01*
X134852312Y-54396501D01*
X134751247Y-54406825D01*
X134587484Y-54461092D01*
X134587481Y-54461093D01*
X134440648Y-54551661D01*
X134326681Y-54665629D01*
X134265358Y-54699114D01*
X134195666Y-54694130D01*
X134151319Y-54665629D01*
X134037351Y-54551661D01*
X134037350Y-54551660D01*
X133946129Y-54495395D01*
X133890518Y-54461093D01*
X133890513Y-54461091D01*
X133889069Y-54460612D01*
X133726753Y-54406826D01*
X133726751Y-54406825D01*
X133625684Y-54396500D01*
X133597940Y-54396500D01*
X133530901Y-54376815D01*
X133485146Y-54324011D01*
X133475202Y-54254853D01*
X133504227Y-54191297D01*
X133510245Y-54184832D01*
X133590789Y-54104289D01*
X133678394Y-53973179D01*
X133679090Y-53971500D01*
X133723817Y-53863517D01*
X133738737Y-53827497D01*
X133769500Y-53672842D01*
X133769500Y-53515158D01*
X133769500Y-53515155D01*
X133769499Y-53515153D01*
X133760716Y-53471000D01*
X133738737Y-53360503D01*
X133701798Y-53271323D01*
X133678397Y-53214827D01*
X133678390Y-53214814D01*
X133590789Y-53083711D01*
X133590786Y-53083707D01*
X133479292Y-52972213D01*
X133479288Y-52972210D01*
X133348185Y-52884609D01*
X133348172Y-52884602D01*
X133202501Y-52824264D01*
X133202489Y-52824261D01*
X133047845Y-52793500D01*
X133047842Y-52793500D01*
X132890158Y-52793500D01*
X132814088Y-52808631D01*
X132804257Y-52810179D01*
X132769092Y-52814278D01*
X132769090Y-52814278D01*
X132504303Y-52884384D01*
X132434458Y-52882513D01*
X132384885Y-52852195D01*
X132270351Y-52737661D01*
X132270350Y-52737660D01*
X132179129Y-52681395D01*
X132123518Y-52647093D01*
X132123513Y-52647091D01*
X132048587Y-52622263D01*
X131959753Y-52592826D01*
X131959751Y-52592825D01*
X131858678Y-52582500D01*
X131285330Y-52582500D01*
X131285312Y-52582501D01*
X131184247Y-52592825D01*
X131020484Y-52647092D01*
X131020481Y-52647093D01*
X130873651Y-52737659D01*
X130770327Y-52840983D01*
X130709004Y-52874467D01*
X130639312Y-52869483D01*
X130594965Y-52840982D01*
X130492038Y-52738055D01*
X130492034Y-52738052D01*
X130345311Y-52647551D01*
X130345300Y-52647546D01*
X130269000Y-52622263D01*
X130269000Y-53496500D01*
X130249315Y-53563539D01*
X130196511Y-53609294D01*
X130145000Y-53620500D01*
X129794000Y-53620500D01*
X129794000Y-53971500D01*
X129774315Y-54038539D01*
X129721511Y-54084294D01*
X129670000Y-54095500D01*
X128837553Y-54095500D01*
X128883546Y-54234300D01*
X128883551Y-54234311D01*
X128974052Y-54381034D01*
X128974055Y-54381038D01*
X128987982Y-54394965D01*
X129021467Y-54456288D01*
X129016483Y-54525980D01*
X128987984Y-54570325D01*
X128973661Y-54584648D01*
X128883093Y-54731481D01*
X128883091Y-54731486D01*
X128869826Y-54771517D01*
X128828826Y-54895247D01*
X128828826Y-54895248D01*
X128828825Y-54895248D01*
X128818500Y-54996315D01*
X128818500Y-55346296D01*
X128798815Y-55413335D01*
X128782181Y-55433977D01*
X127127863Y-57088294D01*
X127127857Y-57088301D01*
X127060278Y-57189441D01*
X127060279Y-57189442D01*
X127056407Y-57195235D01*
X127007191Y-57314055D01*
X127007189Y-57314061D01*
X126982100Y-57440192D01*
X126982100Y-59048948D01*
X126962415Y-59115987D01*
X126909611Y-59161742D01*
X126840453Y-59171686D01*
X126833909Y-59170565D01*
X126697845Y-59143500D01*
X126697842Y-59143500D01*
X126540158Y-59143500D01*
X126540152Y-59143500D01*
X126500551Y-59151376D01*
X126495339Y-59152412D01*
X126494190Y-59152473D01*
X126491090Y-59153257D01*
X126487927Y-59153887D01*
X126487912Y-59153891D01*
X126385507Y-59174261D01*
X126385498Y-59174264D01*
X126238974Y-59234956D01*
X126229438Y-59239455D01*
X126178039Y-59260642D01*
X126130783Y-59270000D01*
X125935667Y-59270000D01*
X125927688Y-59269572D01*
X125927683Y-59269678D01*
X125924379Y-59269500D01*
X125924373Y-59269500D01*
X125924366Y-59269500D01*
X124128629Y-59269500D01*
X124125305Y-59269679D01*
X124125299Y-59269573D01*
X124117337Y-59270000D01*
X123676500Y-59270000D01*
X123676500Y-59317844D01*
X123682901Y-59377372D01*
X123682903Y-59377380D01*
X123719668Y-59475952D01*
X123724652Y-59545644D01*
X123719668Y-59562617D01*
X123682410Y-59662511D01*
X123682409Y-59662515D01*
X123682409Y-59662517D01*
X123676000Y-59722127D01*
X123676000Y-59722135D01*
X123676000Y-59722136D01*
X123676000Y-60317870D01*
X123676001Y-60317876D01*
X123682408Y-60377483D01*
X123732702Y-60512328D01*
X123732706Y-60512335D01*
X123818952Y-60627544D01*
X123818955Y-60627547D01*
X123934164Y-60713793D01*
X123934171Y-60713797D01*
X124069017Y-60764091D01*
X124069016Y-60764091D01*
X124075944Y-60764835D01*
X124128627Y-60770500D01*
X125632487Y-60770499D01*
X125699526Y-60790184D01*
X125745281Y-60842987D01*
X125755225Y-60912146D01*
X125726200Y-60975702D01*
X125720168Y-60982180D01*
X123693312Y-63009036D01*
X123631989Y-63042521D01*
X123562297Y-63037537D01*
X123506364Y-62995665D01*
X123489449Y-62964687D01*
X123447298Y-62851673D01*
X123447293Y-62851664D01*
X123361047Y-62736455D01*
X123361044Y-62736452D01*
X123245835Y-62650206D01*
X123245828Y-62650202D01*
X123110982Y-62599908D01*
X123110983Y-62599908D01*
X123051383Y-62593501D01*
X123051381Y-62593500D01*
X123051373Y-62593500D01*
X123051364Y-62593500D01*
X120455629Y-62593500D01*
X120455623Y-62593501D01*
X120396016Y-62599908D01*
X120261171Y-62650202D01*
X120261168Y-62650204D01*
X120198811Y-62696885D01*
X120133347Y-62721302D01*
X120065074Y-62706450D01*
X120015668Y-62657045D01*
X120000500Y-62597618D01*
X120000500Y-62292534D01*
X120020185Y-62225495D01*
X120072989Y-62179740D01*
X120142147Y-62169796D01*
X120167833Y-62176352D01*
X120269017Y-62214091D01*
X120269016Y-62214091D01*
X120275944Y-62214835D01*
X120328627Y-62220500D01*
X122924372Y-62220499D01*
X122983983Y-62214091D01*
X123118831Y-62163796D01*
X123234046Y-62077546D01*
X123320296Y-61962331D01*
X123370591Y-61827483D01*
X123377000Y-61767873D01*
X123376999Y-60472128D01*
X123370591Y-60412517D01*
X123361918Y-60389264D01*
X123320297Y-60277671D01*
X123320293Y-60277664D01*
X123234047Y-60162455D01*
X123234044Y-60162452D01*
X123118835Y-60076206D01*
X123118828Y-60076202D01*
X122983982Y-60025908D01*
X122983983Y-60025908D01*
X122924383Y-60019501D01*
X122924381Y-60019500D01*
X122924373Y-60019500D01*
X122924364Y-60019500D01*
X120328629Y-60019500D01*
X120328623Y-60019501D01*
X120269015Y-60025909D01*
X120167832Y-60063647D01*
X120098140Y-60068631D01*
X120036818Y-60035145D01*
X120003333Y-59973822D01*
X120000500Y-59947465D01*
X120000500Y-59092534D01*
X120020185Y-59025495D01*
X120072989Y-58979740D01*
X120142147Y-58969796D01*
X120167833Y-58976352D01*
X120269017Y-59014091D01*
X120269016Y-59014091D01*
X120275944Y-59014835D01*
X120328627Y-59020500D01*
X122924372Y-59020499D01*
X122983983Y-59014091D01*
X123118831Y-58963796D01*
X123234046Y-58877546D01*
X123320296Y-58762331D01*
X123335281Y-58722155D01*
X123676500Y-58722155D01*
X123676500Y-58770000D01*
X124776500Y-58770000D01*
X125276500Y-58770000D01*
X126376500Y-58770000D01*
X126376500Y-58722172D01*
X126376499Y-58722155D01*
X126370098Y-58662627D01*
X126370096Y-58662620D01*
X126319854Y-58527913D01*
X126319850Y-58527906D01*
X126233690Y-58412812D01*
X126233687Y-58412809D01*
X126118593Y-58326649D01*
X126118586Y-58326645D01*
X125983879Y-58276403D01*
X125983872Y-58276401D01*
X125924344Y-58270000D01*
X125276500Y-58270000D01*
X125276500Y-58770000D01*
X124776500Y-58770000D01*
X124776500Y-58270000D01*
X124128655Y-58270000D01*
X124069127Y-58276401D01*
X124069120Y-58276403D01*
X123934413Y-58326645D01*
X123934406Y-58326649D01*
X123819312Y-58412809D01*
X123819309Y-58412812D01*
X123733149Y-58527906D01*
X123733145Y-58527913D01*
X123682903Y-58662620D01*
X123682901Y-58662627D01*
X123676500Y-58722155D01*
X123335281Y-58722155D01*
X123370591Y-58627483D01*
X123377000Y-58567873D01*
X123376999Y-57272128D01*
X123370591Y-57212517D01*
X123364145Y-57195235D01*
X123320297Y-57077671D01*
X123320293Y-57077664D01*
X123234047Y-56962455D01*
X123234044Y-56962452D01*
X123118835Y-56876206D01*
X123118828Y-56876202D01*
X122983982Y-56825908D01*
X122983983Y-56825908D01*
X122924383Y-56819501D01*
X122924381Y-56819500D01*
X122924373Y-56819500D01*
X122924364Y-56819500D01*
X120328629Y-56819500D01*
X120328623Y-56819501D01*
X120269015Y-56825909D01*
X120167832Y-56863647D01*
X120098140Y-56868631D01*
X120036818Y-56835145D01*
X120003333Y-56773822D01*
X120000500Y-56747465D01*
X120000500Y-56493534D01*
X120020185Y-56426495D01*
X120072989Y-56380740D01*
X120142147Y-56370796D01*
X120167833Y-56377352D01*
X120269017Y-56415091D01*
X120269016Y-56415091D01*
X120275944Y-56415835D01*
X120328627Y-56421500D01*
X122924372Y-56421499D01*
X122983983Y-56415091D01*
X123118831Y-56364796D01*
X123234046Y-56278546D01*
X123320296Y-56163331D01*
X123370591Y-56028483D01*
X123377000Y-55968873D01*
X123376999Y-54673128D01*
X123370591Y-54613517D01*
X123367085Y-54604118D01*
X123320297Y-54478671D01*
X123320293Y-54478664D01*
X123234047Y-54363455D01*
X123234044Y-54363452D01*
X123118835Y-54277206D01*
X123118828Y-54277202D01*
X122983982Y-54226908D01*
X122983983Y-54226908D01*
X122924383Y-54220501D01*
X122924381Y-54220500D01*
X122924373Y-54220500D01*
X122924364Y-54220500D01*
X120328629Y-54220500D01*
X120328623Y-54220501D01*
X120269015Y-54226909D01*
X120167832Y-54264647D01*
X120098140Y-54269631D01*
X120036818Y-54236145D01*
X120003333Y-54174822D01*
X120000500Y-54148465D01*
X120000500Y-53293534D01*
X120020185Y-53226495D01*
X120072989Y-53180740D01*
X120142147Y-53170796D01*
X120167833Y-53177352D01*
X120269017Y-53215091D01*
X120269016Y-53215091D01*
X120275944Y-53215835D01*
X120328627Y-53221500D01*
X122924372Y-53221499D01*
X122983983Y-53215091D01*
X123118831Y-53164796D01*
X123234046Y-53078546D01*
X123320296Y-52963331D01*
X123335281Y-52923155D01*
X123676500Y-52923155D01*
X123676500Y-52971000D01*
X124776500Y-52971000D01*
X124776500Y-52471000D01*
X124128655Y-52471000D01*
X124069127Y-52477401D01*
X124069120Y-52477403D01*
X123934413Y-52527645D01*
X123934406Y-52527649D01*
X123819312Y-52613809D01*
X123819309Y-52613812D01*
X123733149Y-52728906D01*
X123733145Y-52728913D01*
X123682903Y-52863620D01*
X123682901Y-52863627D01*
X123676500Y-52923155D01*
X123335281Y-52923155D01*
X123370591Y-52828483D01*
X123377000Y-52768873D01*
X123376999Y-51624499D01*
X123396684Y-51557461D01*
X123449487Y-51511706D01*
X123500999Y-51500500D01*
X127108797Y-51500500D01*
X127175836Y-51520185D01*
G37*
%TD.AperFunction*%
%TA.AperFunction,Conductor*%
G36*
X134282334Y-56049870D02*
G01*
X134326681Y-56078371D01*
X134440650Y-56192340D01*
X134444018Y-56194417D01*
X134448103Y-56197424D01*
X134466312Y-56221342D01*
X134486413Y-56243683D01*
X134487729Y-56249472D01*
X134490427Y-56253016D01*
X134491447Y-56265830D01*
X134498600Y-56297290D01*
X134498600Y-57063305D01*
X134498600Y-57063307D01*
X134498599Y-57063307D01*
X134523689Y-57189438D01*
X134523691Y-57189444D01*
X134572908Y-57308264D01*
X134644359Y-57415200D01*
X134644362Y-57415204D01*
X134644363Y-57415205D01*
X137610196Y-60381037D01*
X137643681Y-60442360D01*
X137644988Y-60488115D01*
X137611000Y-60702712D01*
X137611000Y-60775797D01*
X137591315Y-60842836D01*
X137538511Y-60888591D01*
X137469353Y-60898535D01*
X137405797Y-60869510D01*
X137399319Y-60863478D01*
X136480705Y-59944863D01*
X136480704Y-59944862D01*
X136480700Y-59944859D01*
X136373764Y-59873408D01*
X136254944Y-59824191D01*
X136254938Y-59824189D01*
X136128807Y-59799100D01*
X136128805Y-59799100D01*
X136080310Y-59799100D01*
X136013271Y-59779415D01*
X135989940Y-59758263D01*
X135989447Y-59758757D01*
X135862351Y-59631661D01*
X135862350Y-59631660D01*
X135759695Y-59568342D01*
X135715518Y-59541093D01*
X135715513Y-59541091D01*
X135714069Y-59540612D01*
X135551753Y-59486826D01*
X135551751Y-59486825D01*
X135450678Y-59476500D01*
X134852330Y-59476500D01*
X134852312Y-59476501D01*
X134751247Y-59486825D01*
X134587484Y-59541092D01*
X134587481Y-59541093D01*
X134440648Y-59631661D01*
X134326681Y-59745629D01*
X134265358Y-59779114D01*
X134195666Y-59774130D01*
X134151319Y-59745629D01*
X134037351Y-59631661D01*
X134037350Y-59631660D01*
X133934695Y-59568342D01*
X133890518Y-59541093D01*
X133890513Y-59541091D01*
X133889069Y-59540612D01*
X133726753Y-59486826D01*
X133726751Y-59486825D01*
X133625684Y-59476500D01*
X133300540Y-59476500D01*
X133233501Y-59456815D01*
X133187746Y-59404011D01*
X133177802Y-59334853D01*
X133206827Y-59271297D01*
X133231650Y-59249398D01*
X133344095Y-59174264D01*
X133352289Y-59168789D01*
X133463789Y-59057289D01*
X133551394Y-58926179D01*
X133611737Y-58780497D01*
X133642500Y-58625842D01*
X133642500Y-58468158D01*
X133642500Y-58468155D01*
X133642499Y-58468153D01*
X133614351Y-58326645D01*
X133611737Y-58313503D01*
X133585536Y-58250247D01*
X133551397Y-58167827D01*
X133551390Y-58167814D01*
X133463789Y-58036711D01*
X133463786Y-58036707D01*
X133352292Y-57925213D01*
X133352288Y-57925210D01*
X133221185Y-57837609D01*
X133221172Y-57837602D01*
X133075501Y-57777264D01*
X133075489Y-57777261D01*
X132920845Y-57746500D01*
X132920842Y-57746500D01*
X132763158Y-57746500D01*
X132763155Y-57746500D01*
X132608510Y-57777261D01*
X132608498Y-57777264D01*
X132462826Y-57837603D01*
X132462817Y-57837608D01*
X132462758Y-57837648D01*
X132448140Y-57846036D01*
X132443960Y-57848069D01*
X132443590Y-57848190D01*
X132427390Y-57856134D01*
X132427095Y-57856278D01*
X132392824Y-57862066D01*
X132358571Y-57867958D01*
X132358393Y-57867882D01*
X132358202Y-57867915D01*
X132326296Y-57854279D01*
X132294241Y-57840694D01*
X132294002Y-57840478D01*
X132293953Y-57840457D01*
X132293911Y-57840395D01*
X132285152Y-57832462D01*
X132270351Y-57817661D01*
X132270350Y-57817660D01*
X132161920Y-57750780D01*
X132123518Y-57727093D01*
X132123513Y-57727091D01*
X132048587Y-57702263D01*
X131959753Y-57672826D01*
X131959751Y-57672825D01*
X131858678Y-57662500D01*
X131285330Y-57662500D01*
X131285312Y-57662501D01*
X131184247Y-57672825D01*
X131020484Y-57727092D01*
X131020481Y-57727093D01*
X130873651Y-57817659D01*
X130770327Y-57920983D01*
X130709004Y-57954467D01*
X130639312Y-57949483D01*
X130594965Y-57920982D01*
X130492038Y-57818055D01*
X130492034Y-57818052D01*
X130345311Y-57727551D01*
X130345300Y-57727546D01*
X130269000Y-57702263D01*
X130269000Y-58576500D01*
X130249315Y-58643539D01*
X130196511Y-58689294D01*
X130145000Y-58700500D01*
X129794000Y-58700500D01*
X129794000Y-59051500D01*
X129774315Y-59118539D01*
X129721511Y-59164294D01*
X129670000Y-59175500D01*
X128837553Y-59175500D01*
X128883546Y-59314300D01*
X128883551Y-59314311D01*
X128974052Y-59461034D01*
X128974055Y-59461038D01*
X128987982Y-59474965D01*
X129021467Y-59536288D01*
X129016483Y-59605980D01*
X129002740Y-59632519D01*
X128996193Y-59642116D01*
X128973660Y-59664650D01*
X128905979Y-59774376D01*
X128904368Y-59776740D01*
X128879457Y-59797157D01*
X128855519Y-59818689D01*
X128852609Y-59819162D01*
X128850330Y-59821031D01*
X128818337Y-59824738D01*
X128786557Y-59829910D01*
X128781496Y-59829008D01*
X128780925Y-59829075D01*
X128780386Y-59828811D01*
X128773873Y-59827651D01*
X128708730Y-59812519D01*
X128701188Y-59810827D01*
X128700954Y-59810776D01*
X128700872Y-59810759D01*
X128700484Y-59810699D01*
X128640586Y-59801475D01*
X128636490Y-59801265D01*
X128618660Y-59799046D01*
X128602842Y-59795900D01*
X128445158Y-59795900D01*
X128445157Y-59795900D01*
X128436085Y-59797704D01*
X128366493Y-59791472D01*
X128311318Y-59748606D01*
X128288077Y-59682715D01*
X128287900Y-59676085D01*
X128287900Y-58225500D01*
X128837553Y-58225500D01*
X129319000Y-58225500D01*
X129319000Y-57702263D01*
X129242699Y-57727546D01*
X129242688Y-57727551D01*
X129095965Y-57818052D01*
X129095961Y-57818055D01*
X128974055Y-57939961D01*
X128974052Y-57939965D01*
X128883551Y-58086688D01*
X128883546Y-58086699D01*
X128837553Y-58225500D01*
X128287900Y-58225500D01*
X128287900Y-57826301D01*
X128307585Y-57759262D01*
X128324214Y-57738625D01*
X129643021Y-56419817D01*
X129704344Y-56386333D01*
X129730702Y-56383499D01*
X130080670Y-56383499D01*
X130080676Y-56383499D01*
X130181753Y-56373174D01*
X130345516Y-56318908D01*
X130492350Y-56228340D01*
X130595319Y-56125371D01*
X130656642Y-56091886D01*
X130726334Y-56096870D01*
X130770681Y-56125371D01*
X130873650Y-56228340D01*
X131020484Y-56318908D01*
X131184247Y-56373174D01*
X131285323Y-56383500D01*
X131858676Y-56383499D01*
X131858684Y-56383498D01*
X131858687Y-56383498D01*
X131918852Y-56377352D01*
X131959753Y-56373174D01*
X132123516Y-56318908D01*
X132270350Y-56228340D01*
X132373319Y-56125371D01*
X132434642Y-56091886D01*
X132504334Y-56096870D01*
X132548681Y-56125371D01*
X132615650Y-56192340D01*
X132762484Y-56282908D01*
X132926247Y-56337174D01*
X133027323Y-56347500D01*
X133625676Y-56347499D01*
X133625684Y-56347498D01*
X133625687Y-56347498D01*
X133681030Y-56341844D01*
X133726753Y-56337174D01*
X133890516Y-56282908D01*
X134037350Y-56192340D01*
X134151319Y-56078371D01*
X134212642Y-56044886D01*
X134282334Y-56049870D01*
G37*
%TD.AperFunction*%
%TD*%
%TA.AperFunction,Conductor*%
%TO.N,/SPI1_MOSI*%
G36*
X128594255Y-60304888D02*
G01*
X129109183Y-60424497D01*
X129116466Y-60429707D01*
X129118236Y-60435894D01*
X129118236Y-60722671D01*
X129114809Y-60730944D01*
X129109870Y-60733886D01*
X128594791Y-60886990D01*
X128585884Y-60886062D01*
X128580242Y-60879109D01*
X128579993Y-60878112D01*
X128523469Y-60598718D01*
X128523469Y-60594080D01*
X128555472Y-60435894D01*
X128580139Y-60313963D01*
X128585139Y-60306536D01*
X128593927Y-60304817D01*
X128594255Y-60304888D01*
G37*
%TD.AperFunction*%
%TD*%
%TA.AperFunction,Conductor*%
%TO.N,/SPI1_MOSI*%
G36*
X126557240Y-65496226D02*
G01*
X126562769Y-65503270D01*
X126562969Y-65504102D01*
X126619530Y-65783680D01*
X126619530Y-65788320D01*
X126562900Y-66068237D01*
X126557900Y-66075666D01*
X126549112Y-66077385D01*
X126548596Y-66077268D01*
X126033628Y-65948614D01*
X126026432Y-65943284D01*
X126024764Y-65937263D01*
X126024764Y-65650477D01*
X126028191Y-65642204D01*
X126033311Y-65639209D01*
X126548351Y-65495154D01*
X126557240Y-65496226D01*
G37*
%TD.AperFunction*%
%TD*%
%TA.AperFunction,Conductor*%
%TO.N,+3.3V*%
G36*
X131642514Y-65748937D02*
G01*
X132157531Y-65885295D01*
X132164651Y-65890725D01*
X132166236Y-65896605D01*
X132166236Y-66183394D01*
X132162809Y-66191667D01*
X132157531Y-66194704D01*
X131642528Y-66331058D01*
X131633653Y-66329863D01*
X131628223Y-66322743D01*
X131628065Y-66322068D01*
X131601832Y-66192400D01*
X131571469Y-66042318D01*
X131571469Y-66037680D01*
X131600010Y-65896605D01*
X131628065Y-65757929D01*
X131633065Y-65750502D01*
X131641853Y-65748783D01*
X131642514Y-65748937D01*
G37*
%TD.AperFunction*%
%TD*%
%TA.AperFunction,Conductor*%
%TO.N,+3.3V*%
G36*
X131723668Y-65449191D02*
G01*
X131726705Y-65454469D01*
X131863058Y-65969471D01*
X131861863Y-65978346D01*
X131854743Y-65983776D01*
X131854068Y-65983934D01*
X131574320Y-66040530D01*
X131569680Y-66040530D01*
X131289931Y-65983934D01*
X131282502Y-65978934D01*
X131280783Y-65970146D01*
X131280935Y-65969493D01*
X131417295Y-65454468D01*
X131422725Y-65447349D01*
X131428605Y-65445764D01*
X131715395Y-65445764D01*
X131723668Y-65449191D01*
G37*
%TD.AperFunction*%
%TD*%
%TA.AperFunction,Conductor*%
%TO.N,+3.3V*%
G36*
X132681024Y-58306032D02*
G01*
X132840272Y-58542942D01*
X132842043Y-58551720D01*
X132842030Y-58551789D01*
X132785518Y-58831125D01*
X132780518Y-58838554D01*
X132773185Y-58840473D01*
X132277228Y-58803703D01*
X132269231Y-58799674D01*
X132266393Y-58792035D01*
X132266393Y-58505393D01*
X132269820Y-58497120D01*
X132272937Y-58494890D01*
X132666163Y-58302053D01*
X132675099Y-58301488D01*
X132681024Y-58306032D01*
G37*
%TD.AperFunction*%
%TD*%
%TA.AperFunction,Conductor*%
%TO.N,+3.3V*%
G36*
X132907346Y-53304136D02*
G01*
X132912776Y-53311256D01*
X132912934Y-53311931D01*
X132969530Y-53591680D01*
X132969530Y-53596320D01*
X132912934Y-53876068D01*
X132907934Y-53883497D01*
X132899146Y-53885216D01*
X132898471Y-53885058D01*
X132383469Y-53748704D01*
X132376349Y-53743274D01*
X132374764Y-53737394D01*
X132374764Y-53450605D01*
X132378191Y-53442332D01*
X132383468Y-53439295D01*
X132898472Y-53302941D01*
X132907346Y-53304136D01*
G37*
%TD.AperFunction*%
%TD*%
%TA.AperFunction,Conductor*%
%TO.N,+3.3V*%
G36*
X126556313Y-59655184D02*
G01*
X126562634Y-59661527D01*
X126563285Y-59663666D01*
X126619530Y-59941680D01*
X126619530Y-59946320D01*
X126562623Y-60227605D01*
X126557623Y-60235034D01*
X126549709Y-60236895D01*
X126042256Y-60173677D01*
X126034470Y-60169254D01*
X126032002Y-60162067D01*
X126032002Y-59875432D01*
X126035429Y-59867159D01*
X126039241Y-59864615D01*
X126547360Y-59655169D01*
X126556313Y-59655184D01*
G37*
%TD.AperFunction*%
%TD*%
M02*
