%TF.GenerationSoftware,KiCad,Pcbnew,8.0.4-8.0.4-0~ubuntu24.04.1*%
%TF.CreationDate,2024-08-03T15:04:24+08:00*%
%TF.ProjectId,CawDrive,43617744-7269-4766-952e-6b696361645f,rev?*%
%TF.SameCoordinates,Original*%
%TF.FileFunction,Copper,L1,Top*%
%TF.FilePolarity,Positive*%
%FSLAX46Y46*%
G04 Gerber Fmt 4.6, Leading zero omitted, Abs format (unit mm)*
G04 Created by KiCad (PCBNEW 8.0.4-8.0.4-0~ubuntu24.04.1) date 2024-08-03 15:04:24*
%MOMM*%
%LPD*%
G01*
G04 APERTURE LIST*
G04 Aperture macros list*
%AMRoundRect*
0 Rectangle with rounded corners*
0 $1 Rounding radius*
0 $2 $3 $4 $5 $6 $7 $8 $9 X,Y pos of 4 corners*
0 Add a 4 corners polygon primitive as box body*
4,1,4,$2,$3,$4,$5,$6,$7,$8,$9,$2,$3,0*
0 Add four circle primitives for the rounded corners*
1,1,$1+$1,$2,$3*
1,1,$1+$1,$4,$5*
1,1,$1+$1,$6,$7*
1,1,$1+$1,$8,$9*
0 Add four rect primitives between the rounded corners*
20,1,$1+$1,$2,$3,$4,$5,0*
20,1,$1+$1,$4,$5,$6,$7,0*
20,1,$1+$1,$6,$7,$8,$9,0*
20,1,$1+$1,$8,$9,$2,$3,0*%
%AMRotRect*
0 Rectangle, with rotation*
0 The origin of the aperture is its center*
0 $1 length*
0 $2 width*
0 $3 Rotation angle, in degrees counterclockwise*
0 Add horizontal line*
21,1,$1,$2,0,0,$3*%
G04 Aperture macros list end*
%TA.AperFunction,SMDPad,CuDef*%
%ADD10RoundRect,0.155000X-0.155000X0.212500X-0.155000X-0.212500X0.155000X-0.212500X0.155000X0.212500X0*%
%TD*%
%TA.AperFunction,SMDPad,CuDef*%
%ADD11RoundRect,0.160000X0.160000X-0.197500X0.160000X0.197500X-0.160000X0.197500X-0.160000X-0.197500X0*%
%TD*%
%TA.AperFunction,SMDPad,CuDef*%
%ADD12RoundRect,0.237500X-0.237500X0.300000X-0.237500X-0.300000X0.237500X-0.300000X0.237500X0.300000X0*%
%TD*%
%TA.AperFunction,SMDPad,CuDef*%
%ADD13RoundRect,0.160000X-0.160000X0.222500X-0.160000X-0.222500X0.160000X-0.222500X0.160000X0.222500X0*%
%TD*%
%TA.AperFunction,SMDPad,CuDef*%
%ADD14R,0.500000X1.700000*%
%TD*%
%TA.AperFunction,SMDPad,CuDef*%
%ADD15R,1.200000X2.500000*%
%TD*%
%TA.AperFunction,SMDPad,CuDef*%
%ADD16R,0.850000X1.450000*%
%TD*%
%TA.AperFunction,SMDPad,CuDef*%
%ADD17R,0.850000X1.050000*%
%TD*%
%TA.AperFunction,SMDPad,CuDef*%
%ADD18R,4.700000X3.750000*%
%TD*%
%TA.AperFunction,SMDPad,CuDef*%
%ADD19RoundRect,0.160000X0.197500X0.160000X-0.197500X0.160000X-0.197500X-0.160000X0.197500X-0.160000X0*%
%TD*%
%TA.AperFunction,SMDPad,CuDef*%
%ADD20RoundRect,0.160000X-0.197500X-0.160000X0.197500X-0.160000X0.197500X0.160000X-0.197500X0.160000X0*%
%TD*%
%TA.AperFunction,SMDPad,CuDef*%
%ADD21RoundRect,0.250000X1.075000X-0.400000X1.075000X0.400000X-1.075000X0.400000X-1.075000X-0.400000X0*%
%TD*%
%TA.AperFunction,ComponentPad*%
%ADD22RoundRect,0.750000X-0.750000X-0.750000X0.750000X-0.750000X0.750000X0.750000X-0.750000X0.750000X0*%
%TD*%
%TA.AperFunction,SMDPad,CuDef*%
%ADD23R,0.660000X0.320000*%
%TD*%
%TA.AperFunction,SMDPad,CuDef*%
%ADD24R,1.000000X1.600000*%
%TD*%
%TA.AperFunction,SMDPad,CuDef*%
%ADD25R,1.700000X0.500000*%
%TD*%
%TA.AperFunction,SMDPad,CuDef*%
%ADD26R,2.500000X1.200000*%
%TD*%
%TA.AperFunction,SMDPad,CuDef*%
%ADD27RoundRect,0.155000X-0.212500X-0.155000X0.212500X-0.155000X0.212500X0.155000X-0.212500X0.155000X0*%
%TD*%
%TA.AperFunction,SMDPad,CuDef*%
%ADD28RoundRect,0.160000X-0.222500X-0.160000X0.222500X-0.160000X0.222500X0.160000X-0.222500X0.160000X0*%
%TD*%
%TA.AperFunction,SMDPad,CuDef*%
%ADD29O,0.840000X0.350000*%
%TD*%
%TA.AperFunction,SMDPad,CuDef*%
%ADD30R,1.650000X2.400000*%
%TD*%
%TA.AperFunction,SMDPad,CuDef*%
%ADD31RoundRect,0.250000X0.650000X-0.412500X0.650000X0.412500X-0.650000X0.412500X-0.650000X-0.412500X0*%
%TD*%
%TA.AperFunction,SMDPad,CuDef*%
%ADD32RoundRect,0.155000X0.155000X-0.212500X0.155000X0.212500X-0.155000X0.212500X-0.155000X-0.212500X0*%
%TD*%
%TA.AperFunction,ComponentPad*%
%ADD33C,0.800000*%
%TD*%
%TA.AperFunction,ComponentPad*%
%ADD34C,5.000000*%
%TD*%
%TA.AperFunction,SMDPad,CuDef*%
%ADD35RoundRect,0.225000X0.225000X0.375000X-0.225000X0.375000X-0.225000X-0.375000X0.225000X-0.375000X0*%
%TD*%
%TA.AperFunction,SMDPad,CuDef*%
%ADD36RoundRect,0.155000X0.212500X0.155000X-0.212500X0.155000X-0.212500X-0.155000X0.212500X-0.155000X0*%
%TD*%
%TA.AperFunction,SMDPad,CuDef*%
%ADD37RoundRect,0.250000X0.412500X0.650000X-0.412500X0.650000X-0.412500X-0.650000X0.412500X-0.650000X0*%
%TD*%
%TA.AperFunction,SMDPad,CuDef*%
%ADD38R,2.000000X1.800000*%
%TD*%
%TA.AperFunction,SMDPad,CuDef*%
%ADD39R,1.700000X0.650000*%
%TD*%
%TA.AperFunction,SMDPad,CuDef*%
%ADD40RoundRect,0.237500X0.300000X0.237500X-0.300000X0.237500X-0.300000X-0.237500X0.300000X-0.237500X0*%
%TD*%
%TA.AperFunction,SMDPad,CuDef*%
%ADD41RoundRect,0.155000X-0.259862X0.040659X0.040659X-0.259862X0.259862X-0.040659X-0.040659X0.259862X0*%
%TD*%
%TA.AperFunction,SMDPad,CuDef*%
%ADD42RoundRect,0.237500X0.237500X-0.300000X0.237500X0.300000X-0.237500X0.300000X-0.237500X-0.300000X0*%
%TD*%
%TA.AperFunction,SMDPad,CuDef*%
%ADD43RoundRect,0.160000X0.222500X0.160000X-0.222500X0.160000X-0.222500X-0.160000X0.222500X-0.160000X0*%
%TD*%
%TA.AperFunction,SMDPad,CuDef*%
%ADD44RotRect,0.665000X0.280000X45.000000*%
%TD*%
%TA.AperFunction,SMDPad,CuDef*%
%ADD45RotRect,0.280000X0.665000X45.000000*%
%TD*%
%TA.AperFunction,SMDPad,CuDef*%
%ADD46RotRect,5.150000X5.150000X45.000000*%
%TD*%
%TA.AperFunction,SMDPad,CuDef*%
%ADD47RoundRect,0.075000X0.700000X0.075000X-0.700000X0.075000X-0.700000X-0.075000X0.700000X-0.075000X0*%
%TD*%
%TA.AperFunction,SMDPad,CuDef*%
%ADD48RoundRect,0.075000X0.075000X0.700000X-0.075000X0.700000X-0.075000X-0.700000X0.075000X-0.700000X0*%
%TD*%
%TA.AperFunction,SMDPad,CuDef*%
%ADD49R,4.220000X2.124000*%
%TD*%
%TA.AperFunction,ViaPad*%
%ADD50C,0.600000*%
%TD*%
%TA.AperFunction,ViaPad*%
%ADD51C,0.800000*%
%TD*%
%TA.AperFunction,Conductor*%
%ADD52C,0.304800*%
%TD*%
%TA.AperFunction,Conductor*%
%ADD53C,0.160020*%
%TD*%
%TA.AperFunction,Conductor*%
%ADD54C,0.279400*%
%TD*%
%TA.AperFunction,Conductor*%
%ADD55C,0.129286*%
%TD*%
G04 APERTURE END LIST*
D10*
%TO.P,C12,1*%
%TO.N,GND*%
X147701000Y-89221500D03*
%TO.P,C12,2*%
%TO.N,+5V*%
X147701000Y-90356500D03*
%TD*%
D11*
%TO.P,R17,1*%
%TO.N,+3.3V*%
X137795000Y-84671500D03*
%TO.P,R17,2*%
%TO.N,/DRV_FAULT*%
X137795000Y-83476500D03*
%TD*%
D12*
%TO.P,C16,1*%
%TO.N,+5V*%
X127381000Y-77496500D03*
%TO.P,C16,2*%
%TO.N,GND*%
X127381000Y-79221500D03*
%TD*%
D13*
%TO.P,D4,1,K*%
%TO.N,Net-(D4-K)*%
X137922000Y-77278500D03*
%TO.P,D4,2,A*%
%TO.N,+3.3V*%
X137922000Y-78423500D03*
%TD*%
D11*
%TO.P,R1,1*%
%TO.N,/ADC1_IN3*%
X125349000Y-75146500D03*
%TO.P,R1,2*%
%TO.N,+3.3V*%
X125349000Y-73951500D03*
%TD*%
D14*
%TO.P,U6,1,1*%
%TO.N,/ADC1_IN3*%
X129500000Y-72947000D03*
%TO.P,U6,2,2*%
%TO.N,GND*%
X128500000Y-72947000D03*
D15*
%TO.P,U6,3,3*%
%TO.N,unconnected-(U6-Pad3)*%
X127400000Y-69547000D03*
%TO.P,U6,4,4*%
%TO.N,unconnected-(U6-Pad4)*%
X130600000Y-69547000D03*
%TD*%
D16*
%TO.P,Q7,1,S*%
%TO.N,/DRV8323RSRGZR/PHASA*%
X122555000Y-103124000D03*
%TO.P,Q7,2,S*%
X123825000Y-103124000D03*
%TO.P,Q7,3,S*%
X125095000Y-103124000D03*
%TO.P,Q7,4,G*%
%TO.N,/DRV8323RSRGZR/GHA*%
X126365000Y-103124000D03*
D17*
%TO.P,Q7,5,D*%
%TO.N,+36V*%
X126365000Y-97424000D03*
%TO.P,Q7,6,D*%
X125095000Y-97424000D03*
%TO.P,Q7,7,D*%
X123825000Y-97424000D03*
%TO.P,Q7,8,D*%
X122555000Y-97424000D03*
D18*
%TO.P,Q7,9,D*%
X124460000Y-99824000D03*
%TD*%
D19*
%TO.P,R20,1*%
%TO.N,/SWDIO*%
X156299500Y-77724000D03*
%TO.P,R20,2*%
%TO.N,+3.3V*%
X155104500Y-77724000D03*
%TD*%
D20*
%TO.P,R9,1*%
%TO.N,Net-(D1-K)*%
X147230500Y-70866000D03*
%TO.P,R9,2*%
%TO.N,/MCU_STA*%
X148425500Y-70866000D03*
%TD*%
D21*
%TO.P,R18,1*%
%TO.N,/DRV8323RSRGZR/SPA*%
X131064000Y-97562000D03*
%TO.P,R18,2*%
%TO.N,GND1*%
X131064000Y-94462000D03*
%TD*%
D22*
%TO.P,H8,1,1*%
%TO.N,GND1*%
X160000000Y-96000000D03*
%TD*%
D23*
%TO.P,U2,1,OUT*%
%TO.N,+3.3V*%
X132207000Y-78120000D03*
%TO.P,U2,2,SNS*%
X132207000Y-77470000D03*
%TO.P,U2,3,GND*%
%TO.N,GND*%
X132207000Y-76820000D03*
%TO.P,U2,4,EN*%
%TO.N,+5V*%
X130157000Y-76820000D03*
%TO.P,U2,5,GND*%
%TO.N,GND*%
X130157000Y-77470000D03*
%TO.P,U2,6,IN*%
%TO.N,+5V*%
X130157000Y-78120000D03*
D24*
%TO.P,U2,7,NC*%
%TO.N,GND*%
X131182000Y-77470000D03*
%TD*%
D25*
%TO.P,U5,1,1*%
%TO.N,/CAN_N*%
X157050000Y-88765000D03*
%TO.P,U5,2,2*%
%TO.N,/CAN_P*%
X157050000Y-87765000D03*
D26*
%TO.P,U5,3,3*%
%TO.N,unconnected-(U5-Pad3)*%
X160450000Y-86665000D03*
%TO.P,U5,4,4*%
%TO.N,unconnected-(U5-Pad4)*%
X160450000Y-89865000D03*
%TD*%
D14*
%TO.P,CN1,1,1*%
%TO.N,/SPI1_NSS*%
X138500000Y-72947000D03*
%TO.P,CN1,2,2*%
%TO.N,/SPI1_MOSI*%
X137500000Y-72947000D03*
%TO.P,CN1,3,3*%
%TO.N,/SPI1_MISO*%
X136500000Y-72947000D03*
%TO.P,CN1,4,4*%
%TO.N,/SPI1_SCK*%
X135500000Y-72947000D03*
%TO.P,CN1,5,5*%
%TO.N,GND*%
X134500000Y-72947000D03*
%TO.P,CN1,6,6*%
%TO.N,+3.3V*%
X133500000Y-72947000D03*
D15*
%TO.P,CN1,7,7*%
%TO.N,unconnected-(CN1-Pad7)*%
X132400000Y-69547000D03*
%TO.P,CN1,8,8*%
%TO.N,unconnected-(CN1-Pad8)*%
X139600000Y-69547000D03*
%TD*%
D27*
%TO.P,C2,1*%
%TO.N,+3.3V*%
X153630500Y-84836000D03*
%TO.P,C2,2*%
%TO.N,GND*%
X154765500Y-84836000D03*
%TD*%
D28*
%TO.P,L1,1*%
%TO.N,+3.3V*%
X141794500Y-72517000D03*
%TO.P,L1,2*%
%TO.N,+3.3VA*%
X142939500Y-72517000D03*
%TD*%
D29*
%TO.P,U3,1,TXD*%
%TO.N,/FDCAN_TX*%
X148844000Y-88646000D03*
%TO.P,U3,2,GND*%
%TO.N,GND*%
X148844000Y-89296000D03*
%TO.P,U3,3,VCC*%
%TO.N,+5V*%
X148844000Y-89946000D03*
%TO.P,U3,4,RXD*%
%TO.N,/FDCAN_RX*%
X148844000Y-90596000D03*
%TO.P,U3,5,NC/VIO*%
%TO.N,+3.3V*%
X151834000Y-90596000D03*
%TO.P,U3,6,CANL*%
%TO.N,/CAN_N*%
X151834000Y-89946000D03*
%TO.P,U3,7,CANH*%
%TO.N,/CAN_P*%
X151834000Y-89296000D03*
%TO.P,U3,8,STB*%
%TO.N,/FDCAN_STB*%
X151834000Y-88646000D03*
D30*
%TO.P,U3,9,EP*%
%TO.N,GND*%
X150339000Y-89621000D03*
%TD*%
D31*
%TO.P,C22,1*%
%TO.N,+36V*%
X121259600Y-95669500D03*
%TO.P,C22,2*%
%TO.N,GND1*%
X121259600Y-92544500D03*
%TD*%
D32*
%TO.P,C7,1*%
%TO.N,+5V*%
X128905000Y-77745000D03*
%TO.P,C7,2*%
%TO.N,GND*%
X128905000Y-76610000D03*
%TD*%
D16*
%TO.P,Q12,1,S*%
%TO.N,GND1*%
X155067000Y-97834000D03*
%TO.P,Q12,2,S*%
X153797000Y-97834000D03*
%TO.P,Q12,3,S*%
X152527000Y-97834000D03*
%TO.P,Q12,4,G*%
%TO.N,/DRV8323RSRGZR/GLC*%
X151257000Y-97834000D03*
D17*
%TO.P,Q12,5,D*%
%TO.N,/DRV8323RSRGZR/PHASC*%
X151257000Y-103534000D03*
%TO.P,Q12,6,D*%
X152527000Y-103534000D03*
%TO.P,Q12,7,D*%
X153797000Y-103534000D03*
%TO.P,Q12,8,D*%
X155067000Y-103534000D03*
D18*
%TO.P,Q12,9,D*%
X153162000Y-101134000D03*
%TD*%
D20*
%TO.P,R15,1*%
%TO.N,Net-(U4-VSSA)*%
X147230500Y-72527000D03*
%TO.P,R15,2*%
%TO.N,GND*%
X148425500Y-72527000D03*
%TD*%
D16*
%TO.P,Q9,1,S*%
%TO.N,/DRV8323RSRGZR/PHASB*%
X139845000Y-105112000D03*
%TO.P,Q9,2,S*%
X141115000Y-105112000D03*
%TO.P,Q9,3,S*%
X142385000Y-105112000D03*
%TO.P,Q9,4,G*%
%TO.N,/DRV8323RSRGZR/GHB*%
X143655000Y-105112000D03*
D17*
%TO.P,Q9,5,D*%
%TO.N,+36V*%
X143655000Y-99412000D03*
%TO.P,Q9,6,D*%
X142385000Y-99412000D03*
%TO.P,Q9,7,D*%
X141115000Y-99412000D03*
%TO.P,Q9,8,D*%
X139845000Y-99412000D03*
D18*
%TO.P,Q9,9,D*%
X141750000Y-101812000D03*
%TD*%
D31*
%TO.P,C23,1*%
%TO.N,+36V*%
X140462000Y-97592500D03*
%TO.P,C23,2*%
%TO.N,GND1*%
X140462000Y-94467500D03*
%TD*%
D27*
%TO.P,C10,2*%
%TO.N,GND1*%
X160079500Y-92837000D03*
%TO.P,C10,1*%
%TO.N,+36V*%
X158944500Y-92837000D03*
%TD*%
D33*
%TO.P,H2,1,1*%
%TO.N,unconnected-(H2-Pad1)_1*%
X157125000Y-71000000D03*
%TO.N,unconnected-(H2-Pad1)_5*%
X157674175Y-69674175D03*
%TO.N,unconnected-(H2-Pad1)_8*%
X157674175Y-72325825D03*
%TO.N,unconnected-(H2-Pad1)_2*%
X159000000Y-69125000D03*
D34*
%TO.N,unconnected-(H2-Pad1)*%
X159000000Y-71000000D03*
D33*
%TO.N,unconnected-(H2-Pad1)_4*%
X159000000Y-72875000D03*
%TO.N,unconnected-(H2-Pad1)_7*%
X160325825Y-69674175D03*
%TO.N,unconnected-(H2-Pad1)_6*%
X160325825Y-72325825D03*
%TO.N,unconnected-(H2-Pad1)_3*%
X160875000Y-71000000D03*
%TD*%
D22*
%TO.P,H6,1,1*%
%TO.N,/DRV8323RSRGZR/PHASB*%
X141000000Y-108000000D03*
%TD*%
D31*
%TO.P,C20,1*%
%TO.N,+36V*%
X126034800Y-95669500D03*
%TO.P,C20,2*%
%TO.N,GND1*%
X126034800Y-92544500D03*
%TD*%
D35*
%TO.P,D3,1,K*%
%TO.N,/DRV8323RSRGZR/SW*%
X127507000Y-83820000D03*
%TO.P,D3,2,A*%
%TO.N,GND*%
X124207000Y-83820000D03*
%TD*%
D19*
%TO.P,R21,1*%
%TO.N,/SWCLK*%
X156299500Y-85979000D03*
%TO.P,R21,2*%
%TO.N,GND*%
X155104500Y-85979000D03*
%TD*%
D31*
%TO.P,C25,1*%
%TO.N,+36V*%
X145796000Y-97592500D03*
%TO.P,C25,2*%
%TO.N,GND1*%
X145796000Y-94467500D03*
%TD*%
D11*
%TO.P,R8,1*%
%TO.N,/CAN_N*%
X154178000Y-89497500D03*
%TO.P,R8,2*%
%TO.N,/CAN_P*%
X154178000Y-88302500D03*
%TD*%
D27*
%TO.P,C11,1*%
%TO.N,+3.3VA*%
X144212500Y-72517000D03*
%TO.P,C11,2*%
%TO.N,GND*%
X145347500Y-72517000D03*
%TD*%
%TO.P,C8,1*%
%TO.N,+3.3VA*%
X144212500Y-73660000D03*
%TO.P,C8,2*%
%TO.N,GND*%
X145347500Y-73660000D03*
%TD*%
D36*
%TO.P,C9,1*%
%TO.N,GND*%
X154110500Y-90678000D03*
%TO.P,C9,2*%
%TO.N,+3.3V*%
X152975500Y-90678000D03*
%TD*%
D33*
%TO.P,H4,1,1*%
%TO.N,unconnected-(H4-Pad1)_7*%
X121125000Y-107000000D03*
%TO.N,unconnected-(H4-Pad1)_5*%
X121674175Y-105674175D03*
%TO.N,unconnected-(H4-Pad1)_3*%
X121674175Y-108325825D03*
%TO.N,unconnected-(H4-Pad1)*%
X123000000Y-105125000D03*
D34*
%TO.N,unconnected-(H4-Pad1)_4*%
X123000000Y-107000000D03*
D33*
%TO.N,unconnected-(H4-Pad1)_2*%
X123000000Y-108875000D03*
%TO.N,unconnected-(H4-Pad1)_8*%
X124325825Y-105674175D03*
%TO.N,unconnected-(H4-Pad1)_6*%
X124325825Y-108325825D03*
%TO.N,unconnected-(H4-Pad1)_1*%
X124875000Y-107000000D03*
%TD*%
D37*
%TO.P,C30,1*%
%TO.N,+36V*%
X125446500Y-87884000D03*
%TO.P,C30,2*%
%TO.N,GND*%
X122321500Y-87884000D03*
%TD*%
D38*
%TO.P,TV1,2,A*%
%TO.N,GND1*%
X152070000Y-92837000D03*
%TO.P,TV1,1,K*%
%TO.N,+36V*%
X156070000Y-92837000D03*
%TD*%
D19*
%TO.P,R7,1*%
%TO.N,Net-(D4-K)*%
X137884500Y-75946000D03*
%TO.P,R7,2*%
%TO.N,GND*%
X136689500Y-75946000D03*
%TD*%
D39*
%TO.P,X1,1,OSC1*%
%TO.N,/HSE_IN*%
X154453000Y-83496000D03*
D25*
%TO.P,X1,2,GND*%
%TO.N,GND*%
X154453000Y-82296000D03*
D39*
%TO.P,X1,3,OSC2*%
%TO.N,/HSE_OUT*%
X154453000Y-81096000D03*
%TD*%
D19*
%TO.P,R10,1*%
%TO.N,+3.3V*%
X152616500Y-73533000D03*
%TO.P,R10,2*%
%TO.N,/RESET*%
X151421500Y-73533000D03*
%TD*%
D40*
%TO.P,C33,1*%
%TO.N,+36V*%
X125576500Y-85852000D03*
%TO.P,C33,2*%
%TO.N,GND*%
X123851500Y-85852000D03*
%TD*%
D41*
%TO.P,C31,1*%
%TO.N,Net-(U7-DVDD)*%
X133329717Y-80624717D03*
%TO.P,C31,2*%
%TO.N,GND*%
X134132283Y-81427283D03*
%TD*%
D20*
%TO.P,R4,1*%
%TO.N,GND1*%
X121068500Y-90805000D03*
%TO.P,R4,2*%
%TO.N,GND*%
X122263500Y-90805000D03*
%TD*%
D42*
%TO.P,C35,1*%
%TO.N,+3.3V*%
X135382000Y-77951500D03*
%TO.P,C35,2*%
%TO.N,GND*%
X135382000Y-76226500D03*
%TD*%
D27*
%TO.P,C14,1*%
%TO.N,/RESET*%
X151451500Y-74676000D03*
%TO.P,C14,2*%
%TO.N,GND*%
X152586500Y-74676000D03*
%TD*%
D40*
%TO.P,C15,1*%
%TO.N,/DRV8323RSRGZR/CB*%
X129005500Y-81534000D03*
%TO.P,C15,2*%
%TO.N,/DRV8323RSRGZR/SW*%
X127280500Y-81534000D03*
%TD*%
D31*
%TO.P,C26,1*%
%TO.N,+36V*%
X148336000Y-97592500D03*
%TO.P,C26,2*%
%TO.N,GND1*%
X148336000Y-94467500D03*
%TD*%
D20*
%TO.P,R16,1*%
%TO.N,+3.3V*%
X139102500Y-89027000D03*
%TO.P,R16,2*%
%TO.N,/SPI3_MISO*%
X140297500Y-89027000D03*
%TD*%
D16*
%TO.P,Q8,1,S*%
%TO.N,/DRV8323RSRGZR/SPA*%
X132334000Y-99568000D03*
%TO.P,Q8,2,S*%
X131064000Y-99568000D03*
%TO.P,Q8,3,S*%
X129794000Y-99568000D03*
%TO.P,Q8,4,G*%
%TO.N,/DRV8323RSRGZR/GLA*%
X128524000Y-99568000D03*
D17*
%TO.P,Q8,5,D*%
%TO.N,/DRV8323RSRGZR/PHASA*%
X128524000Y-105268000D03*
%TO.P,Q8,6,D*%
X129794000Y-105268000D03*
%TO.P,Q8,7,D*%
X131064000Y-105268000D03*
%TO.P,Q8,8,D*%
X132334000Y-105268000D03*
D18*
%TO.P,Q8,9,D*%
X130429000Y-102868000D03*
%TD*%
D27*
%TO.P,C6,1*%
%TO.N,+3.3V*%
X151070500Y-87122000D03*
%TO.P,C6,2*%
%TO.N,GND*%
X152205500Y-87122000D03*
%TD*%
D22*
%TO.P,H7,1,1*%
%TO.N,/DRV8323RSRGZR/PHASC*%
X151000000Y-108000000D03*
%TD*%
D21*
%TO.P,R19,1*%
%TO.N,/DRV8323RSRGZR/SPB*%
X137000000Y-97550000D03*
%TO.P,R19,2*%
%TO.N,GND1*%
X137000000Y-94450000D03*
%TD*%
D42*
%TO.P,C34,1*%
%TO.N,+3.3V*%
X133731000Y-77951500D03*
%TO.P,C34,2*%
%TO.N,GND*%
X133731000Y-76226500D03*
%TD*%
D22*
%TO.P,H9,1,1*%
%TO.N,+36V*%
X160000000Y-102000000D03*
%TD*%
D16*
%TO.P,Q10,1,S*%
%TO.N,/DRV8323RSRGZR/SPB*%
X138049000Y-99568000D03*
%TO.P,Q10,2,S*%
X136779000Y-99568000D03*
%TO.P,Q10,3,S*%
X135509000Y-99568000D03*
%TO.P,Q10,4,G*%
%TO.N,/DRV8323RSRGZR/GLB*%
X134239000Y-99568000D03*
D17*
%TO.P,Q10,5,D*%
%TO.N,/DRV8323RSRGZR/PHASB*%
X134239000Y-105268000D03*
%TO.P,Q10,6,D*%
X135509000Y-105268000D03*
%TO.P,Q10,7,D*%
X136779000Y-105268000D03*
%TO.P,Q10,8,D*%
X138049000Y-105268000D03*
D18*
%TO.P,Q10,9,D*%
X136144000Y-102868000D03*
%TD*%
D37*
%TO.P,C29,2*%
%TO.N,GND1*%
X151980500Y-95504000D03*
%TO.P,C29,1*%
%TO.N,+36V*%
X155105500Y-95504000D03*
%TD*%
D43*
%TO.P,D1,1,K*%
%TO.N,Net-(D1-K)*%
X145860500Y-70866000D03*
%TO.P,D1,2,A*%
%TO.N,+3.3V*%
X144715500Y-70866000D03*
%TD*%
D20*
%TO.P,R12,1*%
%TO.N,Net-(U4-PB8)*%
X154088500Y-87122000D03*
%TO.P,R12,2*%
%TO.N,GND*%
X155283500Y-87122000D03*
%TD*%
D28*
%TO.P,D2,1,K*%
%TO.N,Net-(D2-K)*%
X152246000Y-70866000D03*
%TO.P,D2,2,A*%
%TO.N,+3.3V*%
X153391000Y-70866000D03*
%TD*%
D19*
%TO.P,R14,1*%
%TO.N,/DRV8323RSRGZR/FB*%
X125565500Y-90805000D03*
%TO.P,R14,2*%
%TO.N,GND*%
X124370500Y-90805000D03*
%TD*%
D31*
%TO.P,C24,1*%
%TO.N,+36V*%
X142875000Y-97592500D03*
%TO.P,C24,2*%
%TO.N,GND1*%
X142875000Y-94467500D03*
%TD*%
D44*
%TO.P,U7,1,FB*%
%TO.N,/DRV8323RSRGZR/FB*%
X128361344Y-86824569D03*
%TO.P,U7,2,PGND*%
%TO.N,GND*%
X128714897Y-87178123D03*
%TO.P,U7,3,CPL*%
%TO.N,Net-(U7-CPL)*%
X129068450Y-87531676D03*
%TO.P,U7,4,CPH*%
%TO.N,Net-(U7-CPH)*%
X129422004Y-87885229D03*
%TO.P,U7,5,VCP*%
%TO.N,Net-(U7-VCP)*%
X129775557Y-88238783D03*
%TO.P,U7,6,VM*%
%TO.N,+36V*%
X130129111Y-88592336D03*
%TO.P,U7,7,VDRAIN*%
X130482664Y-88945889D03*
%TO.P,U7,8,GHA*%
%TO.N,/DRV8323RSRGZR/GHA*%
X130836217Y-89299443D03*
%TO.P,U7,9,SHA*%
%TO.N,/DRV8323RSRGZR/PHASA*%
X131189771Y-89652996D03*
%TO.P,U7,10,GLA*%
%TO.N,/DRV8323RSRGZR/GLA*%
X131543324Y-90006550D03*
%TO.P,U7,11,SPA*%
%TO.N,/DRV8323RSRGZR/SPA*%
X131896877Y-90360103D03*
%TO.P,U7,12,SNA*%
%TO.N,GND1*%
X132250431Y-90713656D03*
D45*
%TO.P,U7,13,SNB*%
X133179569Y-90713656D03*
%TO.P,U7,14,SPB*%
%TO.N,/DRV8323RSRGZR/SPB*%
X133533123Y-90360103D03*
%TO.P,U7,15,GLB*%
%TO.N,/DRV8323RSRGZR/GLB*%
X133886676Y-90006550D03*
%TO.P,U7,16,SHB*%
%TO.N,/DRV8323RSRGZR/PHASB*%
X134240229Y-89652996D03*
%TO.P,U7,17,GHB*%
%TO.N,/DRV8323RSRGZR/GHB*%
X134593783Y-89299443D03*
%TO.P,U7,18,GHC*%
%TO.N,/DRV8323RSRGZR/GHC*%
X134947336Y-88945889D03*
%TO.P,U7,19,SHC*%
%TO.N,/DRV8323RSRGZR/PHASC*%
X135300889Y-88592336D03*
%TO.P,U7,20,GLC*%
%TO.N,/DRV8323RSRGZR/GLC*%
X135654443Y-88238783D03*
%TO.P,U7,21,SPC*%
%TO.N,GND1*%
X136007996Y-87885229D03*
%TO.P,U7,22,SNC*%
X136361550Y-87531676D03*
%TO.P,U7,23,SOC*%
%TO.N,unconnected-(U7-SOC-Pad23)*%
X136715103Y-87178123D03*
%TO.P,U7,24,SOB*%
%TO.N,/ADC1_IN2*%
X137068656Y-86824569D03*
D44*
%TO.P,U7,25,SOA*%
%TO.N,/ADC1_IN1*%
X137068656Y-85895431D03*
%TO.P,U7,26,VREF*%
%TO.N,+3.3V*%
X136715103Y-85541877D03*
%TO.P,U7,27,DGND*%
%TO.N,GND*%
X136361550Y-85188324D03*
%TO.P,U7,28,nFAULT*%
%TO.N,/DRV_FAULT*%
X136007996Y-84834771D03*
%TO.P,U7,29,SDO*%
%TO.N,/SPI3_MISO*%
X135654443Y-84481217D03*
%TO.P,U7,30,SDI*%
%TO.N,/SPI3_MOSI*%
X135300889Y-84127664D03*
%TO.P,U7,31,SCLK*%
%TO.N,/SPI3_SCK*%
X134947336Y-83774111D03*
%TO.P,U7,32,nSCS*%
%TO.N,/DRV_SPI_NSS*%
X134593783Y-83420557D03*
%TO.P,U7,33,ENABLE*%
%TO.N,/DRV_ENABLE*%
X134240229Y-83067004D03*
%TO.P,U7,34,CAL*%
%TO.N,/DRV_CAL*%
X133886676Y-82713450D03*
%TO.P,U7,35,AGND*%
%TO.N,GND*%
X133533123Y-82359897D03*
%TO.P,U7,36,DVDD*%
%TO.N,Net-(U7-DVDD)*%
X133179569Y-82006344D03*
D45*
%TO.P,U7,37,INHA*%
%TO.N,/TIM1_CH1*%
X132250431Y-82006344D03*
%TO.P,U7,38,INLA*%
%TO.N,/TIM1_CH1N*%
X131896877Y-82359897D03*
%TO.P,U7,39,INHB*%
%TO.N,/TIM1_CH2*%
X131543324Y-82713450D03*
%TO.P,U7,40,INLB*%
%TO.N,/TIM1_CH2N*%
X131189771Y-83067004D03*
%TO.P,U7,41,INHC*%
%TO.N,/TIM1_CH3*%
X130836217Y-83420557D03*
%TO.P,U7,42,INLC*%
%TO.N,/TIM1_CH3N*%
X130482664Y-83774111D03*
%TO.P,U7,43,BGND*%
%TO.N,GND*%
X130129111Y-84127664D03*
%TO.P,U7,44,CB*%
%TO.N,/DRV8323RSRGZR/CB*%
X129775557Y-84481217D03*
%TO.P,U7,45,SW*%
%TO.N,/DRV8323RSRGZR/SW*%
X129422004Y-84834771D03*
%TO.P,U7,46,NC*%
%TO.N,unconnected-(U7-NC-Pad46)*%
X129068450Y-85188324D03*
%TO.P,U7,47,VIN*%
%TO.N,+36V*%
X128714897Y-85541877D03*
%TO.P,U7,48,nSHDN*%
%TO.N,unconnected-(U7-nSHDN-Pad48)*%
X128361344Y-85895431D03*
D46*
%TO.P,U7,49,EP*%
%TO.N,GND*%
X132715000Y-86360000D03*
%TD*%
D33*
%TO.P,H1,1,1*%
%TO.N,unconnected-(H1-Pad1)_5*%
X121125000Y-71000000D03*
%TO.N,unconnected-(H1-Pad1)_4*%
X121674175Y-69674175D03*
%TO.N,unconnected-(H1-Pad1)_8*%
X121674175Y-72325825D03*
%TO.N,unconnected-(H1-Pad1)_6*%
X123000000Y-69125000D03*
D34*
%TO.N,unconnected-(H1-Pad1)*%
X123000000Y-71000000D03*
D33*
%TO.N,unconnected-(H1-Pad1)_1*%
X123000000Y-72875000D03*
%TO.N,unconnected-(H1-Pad1)_7*%
X124325825Y-69674175D03*
%TO.N,unconnected-(H1-Pad1)_2*%
X124325825Y-72325825D03*
%TO.N,unconnected-(H1-Pad1)_3*%
X124875000Y-71000000D03*
%TD*%
D10*
%TO.P,C1,1*%
%TO.N,GND*%
X126492000Y-73981500D03*
%TO.P,C1,2*%
%TO.N,/ADC1_IN3*%
X126492000Y-75116500D03*
%TD*%
D33*
%TO.P,H3,1,1*%
%TO.N,unconnected-(H3-Pad1)_4*%
X157125000Y-107000000D03*
%TO.N,unconnected-(H3-Pad1)_7*%
X157674175Y-105674175D03*
%TO.N,unconnected-(H3-Pad1)_8*%
X157674175Y-108325825D03*
%TO.N,unconnected-(H3-Pad1)_1*%
X159000000Y-105125000D03*
D34*
%TO.N,unconnected-(H3-Pad1)_2*%
X159000000Y-107000000D03*
D33*
%TO.N,unconnected-(H3-Pad1)_5*%
X159000000Y-108875000D03*
%TO.N,unconnected-(H3-Pad1)_6*%
X160325825Y-105674175D03*
%TO.N,unconnected-(H3-Pad1)*%
X160325825Y-108325825D03*
%TO.N,unconnected-(H3-Pad1)_3*%
X160875000Y-107000000D03*
%TD*%
D19*
%TO.P,R2,1*%
%TO.N,+3.3V*%
X142329500Y-71120000D03*
%TO.P,R2,2*%
%TO.N,/SPI1_MISO*%
X141134500Y-71120000D03*
%TD*%
D20*
%TO.P,R13,1*%
%TO.N,+5V*%
X124370500Y-89662000D03*
%TO.P,R13,2*%
%TO.N,/DRV8323RSRGZR/FB*%
X125565500Y-89662000D03*
%TD*%
D25*
%TO.P,CN2,1,1*%
%TO.N,/SWCLK*%
X157050000Y-83780000D03*
%TO.P,CN2,2,2*%
%TO.N,/SWDIO*%
X157050000Y-82780000D03*
%TO.P,CN2,3,3*%
%TO.N,GND*%
X157050000Y-81780000D03*
%TO.P,CN2,4,4*%
%TO.N,+3.3V*%
X157050000Y-80780000D03*
%TO.P,CN2,5,5*%
%TO.N,/USART1_TX*%
X157050000Y-79780000D03*
%TO.P,CN2,6,6*%
%TO.N,/USART1_RX*%
X157050000Y-78780000D03*
D26*
%TO.P,CN2,7,7*%
%TO.N,unconnected-(CN2-Pad7)*%
X160450000Y-77680000D03*
%TO.P,CN2,8,8*%
%TO.N,unconnected-(CN2-Pad8)*%
X160450000Y-84880000D03*
%TD*%
D10*
%TO.P,C32,1*%
%TO.N,+3.3V*%
X140335000Y-86046500D03*
%TO.P,C32,2*%
%TO.N,GND*%
X140335000Y-87181500D03*
%TD*%
D47*
%TO.P,U4,1,VBAT*%
%TO.N,+3.3V*%
X151925000Y-85010000D03*
%TO.P,U4,2,PC13*%
%TO.N,unconnected-(U4-PC13-Pad2)*%
X151925000Y-84510000D03*
%TO.P,U4,3,PC14*%
%TO.N,unconnected-(U4-PC14-Pad3)*%
X151925000Y-84010000D03*
%TO.P,U4,4,PC15*%
%TO.N,unconnected-(U4-PC15-Pad4)*%
X151925000Y-83510000D03*
%TO.P,U4,5,PF0*%
%TO.N,/HSE_IN*%
X151925000Y-83010000D03*
%TO.P,U4,6,PF1*%
%TO.N,/HSE_OUT*%
X151925000Y-82510000D03*
%TO.P,U4,7,PG10*%
%TO.N,/RESET*%
X151925000Y-82010000D03*
%TO.P,U4,8,PC0*%
%TO.N,unconnected-(U4-PC0-Pad8)*%
X151925000Y-81510000D03*
%TO.P,U4,9,PC1*%
%TO.N,unconnected-(U4-PC1-Pad9)*%
X151925000Y-81010000D03*
%TO.P,U4,10,PC2*%
%TO.N,unconnected-(U4-PC2-Pad10)*%
X151925000Y-80510000D03*
%TO.P,U4,11,PC3*%
%TO.N,unconnected-(U4-PC3-Pad11)*%
X151925000Y-80010000D03*
%TO.P,U4,12,PA0*%
%TO.N,/ADC1_IN1*%
X151925000Y-79510000D03*
%TO.P,U4,13,PA1*%
%TO.N,/ADC1_IN2*%
X151925000Y-79010000D03*
%TO.P,U4,14,PA2*%
%TO.N,/ADC1_IN3*%
X151925000Y-78510000D03*
%TO.P,U4,15,VSS*%
%TO.N,GND*%
X151925000Y-78010000D03*
%TO.P,U4,16,VDD*%
%TO.N,+3.3V*%
X151925000Y-77510000D03*
D48*
%TO.P,U4,17,PA3*%
%TO.N,unconnected-(U4-PA3-Pad17)*%
X150000000Y-75585000D03*
%TO.P,U4,18,PA4*%
%TO.N,/SPI1_NSS*%
X149500000Y-75585000D03*
%TO.P,U4,19,PA5*%
%TO.N,/SPI1_SCK*%
X149000000Y-75585000D03*
%TO.P,U4,20,PA6*%
%TO.N,/SPI1_MISO*%
X148500000Y-75585000D03*
%TO.P,U4,21,PA7*%
%TO.N,/SPI1_MOSI*%
X148000000Y-75585000D03*
%TO.P,U4,22,PC4*%
%TO.N,/USART1_TX*%
X147500000Y-75585000D03*
%TO.P,U4,23,PC5*%
%TO.N,/USART1_RX*%
X147000000Y-75585000D03*
%TO.P,U4,24,PB0*%
%TO.N,unconnected-(U4-PB0-Pad24)*%
X146500000Y-75585000D03*
%TO.P,U4,25,PB1*%
%TO.N,/DRV_STA*%
X146000000Y-75585000D03*
%TO.P,U4,26,PB2*%
%TO.N,/MCU_STA*%
X145500000Y-75585000D03*
%TO.P,U4,27,VSSA*%
%TO.N,Net-(U4-VSSA)*%
X145000000Y-75585000D03*
%TO.P,U4,28,VREF+*%
%TO.N,+3.3VA*%
X144500000Y-75585000D03*
%TO.P,U4,29,VDDA*%
X144000000Y-75585000D03*
%TO.P,U4,30,PB10*%
%TO.N,unconnected-(U4-PB10-Pad30)*%
X143500000Y-75585000D03*
%TO.P,U4,31,VSS*%
%TO.N,GND*%
X143000000Y-75585000D03*
%TO.P,U4,32,VDD*%
%TO.N,+3.3V*%
X142500000Y-75585000D03*
D47*
%TO.P,U4,33,PB11*%
%TO.N,unconnected-(U4-PB11-Pad33)*%
X140575000Y-77510000D03*
%TO.P,U4,34,PB12*%
%TO.N,/TIM1_BKIN*%
X140575000Y-78010000D03*
%TO.P,U4,35,PB13*%
%TO.N,/TIM1_CH1N*%
X140575000Y-78510000D03*
%TO.P,U4,36,PB14*%
%TO.N,/TIM1_CH2N*%
X140575000Y-79010000D03*
%TO.P,U4,37,PB15*%
%TO.N,/TIM1_CH3N*%
X140575000Y-79510000D03*
%TO.P,U4,38,PC6*%
%TO.N,/TIM1_BKIN*%
X140575000Y-80010000D03*
%TO.P,U4,39,PC7*%
%TO.N,/DRV_CAL*%
X140575000Y-80510000D03*
%TO.P,U4,40,PC8*%
%TO.N,/DRV_ENABLE*%
X140575000Y-81010000D03*
%TO.P,U4,41,PC9*%
%TO.N,/DRV_FAULT*%
X140575000Y-81510000D03*
%TO.P,U4,42,PA8*%
%TO.N,/TIM1_CH1*%
X140575000Y-82010000D03*
%TO.P,U4,43,PA9*%
%TO.N,/TIM1_CH2*%
X140575000Y-82510000D03*
%TO.P,U4,44,PA10*%
%TO.N,/TIM1_CH3*%
X140575000Y-83010000D03*
%TO.P,U4,45,PA11*%
%TO.N,unconnected-(U4-PA11-Pad45)*%
X140575000Y-83510000D03*
%TO.P,U4,46,PA12*%
%TO.N,/AS5047P_NSS*%
X140575000Y-84010000D03*
%TO.P,U4,47,VSS*%
%TO.N,GND*%
X140575000Y-84510000D03*
%TO.P,U4,48,VDD*%
%TO.N,+3.3V*%
X140575000Y-85010000D03*
D48*
%TO.P,U4,49,PA13*%
%TO.N,/SWDIO*%
X142500000Y-86935000D03*
%TO.P,U4,50,PA14*%
%TO.N,/SWCLK*%
X143000000Y-86935000D03*
%TO.P,U4,51,PA15*%
%TO.N,/DRV_SPI_NSS*%
X143500000Y-86935000D03*
%TO.P,U4,52,PC10*%
%TO.N,/SPI3_SCK*%
X144000000Y-86935000D03*
%TO.P,U4,53,PC11*%
%TO.N,/SPI3_MISO*%
X144500000Y-86935000D03*
%TO.P,U4,54,PC12*%
%TO.N,/SPI3_MOSI*%
X145000000Y-86935000D03*
%TO.P,U4,55,PD2*%
%TO.N,/FDCAN_STB*%
X145500000Y-86935000D03*
%TO.P,U4,56,PB3*%
%TO.N,/FDCAN_RX*%
X146000000Y-86935000D03*
%TO.P,U4,57,PB4*%
%TO.N,/FDCAN_TX*%
X146500000Y-86935000D03*
%TO.P,U4,58,PB5*%
%TO.N,/FDCAN_RX*%
X147000000Y-86935000D03*
%TO.P,U4,59,PB6*%
%TO.N,/FDCAN_TX*%
X147500000Y-86935000D03*
%TO.P,U4,60,PB7*%
%TO.N,unconnected-(U4-PB7-Pad60)*%
X148000000Y-86935000D03*
%TO.P,U4,61,PB8*%
%TO.N,Net-(U4-PB8)*%
X148500000Y-86935000D03*
%TO.P,U4,62,PB9*%
%TO.N,unconnected-(U4-PB9-Pad62)*%
X149000000Y-86935000D03*
%TO.P,U4,63,VSS*%
%TO.N,GND*%
X149500000Y-86935000D03*
%TO.P,U4,64,VDD*%
%TO.N,+3.3V*%
X150000000Y-86935000D03*
%TD*%
D10*
%TO.P,C3,1*%
%TO.N,+3.3V*%
X153543000Y-76521500D03*
%TO.P,C3,2*%
%TO.N,GND*%
X153543000Y-77656500D03*
%TD*%
D31*
%TO.P,C21,1*%
%TO.N,+36V*%
X123647200Y-95669500D03*
%TO.P,C21,2*%
%TO.N,GND1*%
X123647200Y-92544500D03*
%TD*%
D22*
%TO.P,H5,1,1*%
%TO.N,/DRV8323RSRGZR/PHASA*%
X131000000Y-108000000D03*
%TD*%
D42*
%TO.P,C28,1*%
%TO.N,+36V*%
X128250000Y-91286500D03*
%TO.P,C28,2*%
%TO.N,Net-(U7-VCP)*%
X128250000Y-89561500D03*
%TD*%
D19*
%TO.P,R11,1*%
%TO.N,Net-(D2-K)*%
X150876000Y-70866000D03*
%TO.P,R11,2*%
%TO.N,/DRV_STA*%
X149681000Y-70866000D03*
%TD*%
D49*
%TO.P,L2,2,2*%
%TO.N,+5V*%
X123825000Y-77248000D03*
%TO.P,L2,1,1*%
%TO.N,/DRV8323RSRGZR/SW*%
X123825000Y-81248000D03*
%TD*%
D27*
%TO.P,C4,1*%
%TO.N,+3.3V*%
X141799500Y-73660000D03*
%TO.P,C4,2*%
%TO.N,GND*%
X142934500Y-73660000D03*
%TD*%
D16*
%TO.P,Q11,1,S*%
%TO.N,/DRV8323RSRGZR/PHASC*%
X145415000Y-105112000D03*
%TO.P,Q11,2,S*%
X146685000Y-105112000D03*
%TO.P,Q11,3,S*%
X147955000Y-105112000D03*
%TO.P,Q11,4,G*%
%TO.N,/DRV8323RSRGZR/GHC*%
X149225000Y-105112000D03*
D17*
%TO.P,Q11,5,D*%
%TO.N,+36V*%
X149225000Y-99412000D03*
%TO.P,Q11,6,D*%
X147955000Y-99412000D03*
%TO.P,Q11,7,D*%
X146685000Y-99412000D03*
%TO.P,Q11,8,D*%
X145415000Y-99412000D03*
D18*
%TO.P,Q11,9,D*%
X147320000Y-101812000D03*
%TD*%
D32*
%TO.P,C5,1*%
%TO.N,+3.3V*%
X138811000Y-84641500D03*
%TO.P,C5,2*%
%TO.N,GND*%
X138811000Y-83506500D03*
%TD*%
D10*
%TO.P,C27,1*%
%TO.N,Net-(U7-CPL)*%
X126750000Y-89729500D03*
%TO.P,C27,2*%
%TO.N,Net-(U7-CPH)*%
X126750000Y-90864500D03*
%TD*%
D50*
%TO.N,/SPI3_MOSI*%
X141526764Y-89874180D03*
%TO.N,/SPI3_MISO*%
X141510037Y-89121963D03*
%TO.N,+3.3V*%
X139573000Y-90551000D03*
%TO.N,/SPI3_SCK*%
X141366988Y-88371180D03*
%TO.N,/AS5047P_NSS*%
X141349563Y-87618980D03*
%TO.N,GND*%
X133985000Y-88265000D03*
X155702000Y-84836000D03*
X131445000Y-84455000D03*
X132715000Y-88265000D03*
X132715000Y-89535000D03*
X133985000Y-84455000D03*
X133985000Y-85725000D03*
X134620000Y-86360000D03*
X133350000Y-86360000D03*
X134500000Y-71360000D03*
X128510000Y-78760000D03*
X132588000Y-75819000D03*
X123571000Y-90805000D03*
X133985000Y-86995000D03*
X138810000Y-82650000D03*
X132715000Y-84455000D03*
D51*
X131191000Y-76962000D03*
D50*
X156230000Y-86920000D03*
X132080000Y-85090000D03*
X150114000Y-89281000D03*
X128500000Y-71330000D03*
X135255000Y-86995000D03*
X153560000Y-74670000D03*
X143486582Y-76812400D03*
X132080000Y-86360000D03*
X131445000Y-88265000D03*
X130810000Y-85090000D03*
X133350000Y-83820000D03*
X129540000Y-86360000D03*
X131445000Y-86995000D03*
X153060000Y-87120000D03*
X145415000Y-90678000D03*
X130810000Y-87630000D03*
X131445000Y-85725000D03*
X149225000Y-72517000D03*
X140335000Y-88138000D03*
X130810000Y-86360000D03*
X134620000Y-85090000D03*
X155702000Y-90678000D03*
X153550000Y-78510000D03*
X132080000Y-88900000D03*
X122263500Y-90080500D03*
X133350000Y-88900000D03*
X135255000Y-85725000D03*
X127390511Y-73857590D03*
X146304000Y-72517000D03*
X123130000Y-84740000D03*
X153145499Y-82765735D03*
X132715000Y-86995000D03*
X149500000Y-85680000D03*
X158650000Y-81780000D03*
X130175000Y-85725000D03*
X132080000Y-87630000D03*
X123140000Y-83830000D03*
X133350000Y-85090000D03*
X133350000Y-87630000D03*
X132715000Y-85725000D03*
X135890000Y-86360000D03*
X132080000Y-83820000D03*
X130175000Y-86995000D03*
X134620000Y-87630000D03*
X132715000Y-83185000D03*
%TO.N,+3.3V*%
X140970000Y-72517000D03*
X133520000Y-71350000D03*
X140970000Y-73660000D03*
X153550000Y-75760000D03*
X124497500Y-73951500D03*
X151070000Y-86170000D03*
X143550000Y-70870000D03*
X153670000Y-85598000D03*
X154940000Y-90678000D03*
X138800000Y-85490000D03*
X136652000Y-77724000D03*
X158660000Y-80780000D03*
X141351000Y-86866579D03*
X136652000Y-78359000D03*
X136652000Y-76962000D03*
X154310000Y-70860000D03*
X153523000Y-73533000D03*
%TO.N,+5V*%
X127381000Y-76309000D03*
X146939000Y-90356500D03*
X123571000Y-89662000D03*
%TO.N,/RESET*%
X151800000Y-75710000D03*
X150470000Y-82040000D03*
%TO.N,+36V*%
X147955000Y-100203000D03*
X149225000Y-101219000D03*
X143637000Y-103251000D03*
X139827000Y-100203000D03*
X139827000Y-102235000D03*
X142367000Y-101219000D03*
X149225000Y-100203000D03*
X123825000Y-98425000D03*
X149225000Y-102235000D03*
X122555000Y-101473000D03*
X147955000Y-101219000D03*
X142367000Y-103251000D03*
X139827000Y-101219000D03*
X147955000Y-103251000D03*
X122555000Y-99441000D03*
X139827000Y-103251000D03*
X125095000Y-98425000D03*
X123825000Y-101473000D03*
X145415000Y-101219000D03*
X122555000Y-100457000D03*
X147955000Y-102235000D03*
X143637000Y-100203000D03*
X141097000Y-102235000D03*
X141097000Y-101219000D03*
X142367000Y-100203000D03*
X145415000Y-102235000D03*
X145415000Y-103251000D03*
X142367000Y-102235000D03*
X149225000Y-103251000D03*
X145415000Y-100203000D03*
X126365000Y-101473000D03*
X146685000Y-102235000D03*
X129282341Y-89497659D03*
X126365000Y-99441000D03*
X123825000Y-99441000D03*
X143637000Y-101219000D03*
X141097000Y-103251000D03*
X126365000Y-98425000D03*
X125095000Y-101473000D03*
X146685000Y-101219000D03*
X125576500Y-85852000D03*
X125095000Y-100457000D03*
X126365000Y-100457000D03*
X146685000Y-100203000D03*
X122555000Y-98425000D03*
X125095000Y-99441000D03*
X123825000Y-100457000D03*
X141097000Y-100203000D03*
X143637000Y-102235000D03*
X146685000Y-103251000D03*
%TO.N,/DRV8323RSRGZR/PHASA*%
X129794000Y-103378000D03*
X131064000Y-104394000D03*
X125095000Y-102743000D03*
X131064000Y-103378000D03*
X125095000Y-103759000D03*
X128524000Y-104394000D03*
X128524000Y-103378000D03*
X122500000Y-102750000D03*
X123825000Y-103759000D03*
X132334000Y-104394000D03*
X129794000Y-104394000D03*
X123825000Y-102743000D03*
X132334000Y-103378000D03*
X122555000Y-103759000D03*
%TO.N,/DRV8323RSRGZR/PHASB*%
X138049000Y-103378000D03*
X142367000Y-104521000D03*
X141097000Y-105664000D03*
X138049000Y-104394000D03*
X135509000Y-104394000D03*
X134239000Y-103378000D03*
X139827000Y-105664000D03*
X135509000Y-103378000D03*
X134239000Y-104394000D03*
X139827000Y-104521000D03*
X136779000Y-103378000D03*
X136779000Y-104394000D03*
X142367000Y-105664000D03*
X141097000Y-104521000D03*
%TO.N,/DRV8323RSRGZR/PHASC*%
X146685000Y-105664000D03*
X151257000Y-100750000D03*
X151257000Y-99822000D03*
X145415000Y-104521000D03*
X146685000Y-104521000D03*
X153797000Y-99822000D03*
X147955000Y-105664000D03*
X147955000Y-104521000D03*
X155067000Y-99822000D03*
X145415000Y-105664000D03*
X152527000Y-100750000D03*
X155067000Y-100750000D03*
X153797000Y-100750000D03*
X152527000Y-99822000D03*
%TO.N,/SPI1_NSS*%
X149532410Y-76837464D03*
X139450000Y-71920000D03*
%TO.N,/SWDIO*%
X142426905Y-85741209D03*
X158623000Y-82780000D03*
%TO.N,/SWCLK*%
X143178854Y-85767327D03*
X158623000Y-83693000D03*
%TO.N,/DRV8323RSRGZR/SPA*%
X131826000Y-97155000D03*
X132588000Y-97155000D03*
X132588000Y-98044000D03*
X131064000Y-98044000D03*
X130302000Y-98044000D03*
X130302000Y-97155000D03*
X131826000Y-98044000D03*
X129540000Y-97155000D03*
X129540000Y-98044000D03*
%TO.N,/DRV8323RSRGZR/SPB*%
X135382000Y-97917000D03*
X136906000Y-97917000D03*
X135042409Y-91100409D03*
X137795000Y-97155000D03*
X133977590Y-91040000D03*
X137795000Y-97917000D03*
X136906000Y-97155000D03*
X135382000Y-97155000D03*
X136144000Y-97155000D03*
X136144000Y-97917000D03*
%TO.N,/MCU_STA*%
X145070000Y-76812400D03*
X147920000Y-71800000D03*
%TO.N,/DRV_STA*%
X146000000Y-76812400D03*
X149680000Y-71810000D03*
%TO.N,/SPI3_MISO*%
X144571063Y-83894605D03*
X136990000Y-83774614D03*
%TO.N,/SPI3_SCK*%
X144010000Y-82450000D03*
X137079595Y-82694066D03*
%TO.N,/SPI3_MOSI*%
X145300854Y-84077667D03*
X136472636Y-83228314D03*
%TO.N,GND1*%
X121539000Y-93726000D03*
X141224000Y-93980000D03*
X125984000Y-93726000D03*
X143510000Y-94742000D03*
X131699000Y-93980000D03*
X147447000Y-93980000D03*
X139700000Y-93980000D03*
X148209000Y-94742000D03*
X143510000Y-93980000D03*
X141986000Y-93980000D03*
X139700000Y-94742000D03*
X142748000Y-94742000D03*
X141986000Y-94742000D03*
X145923000Y-94742000D03*
X145161000Y-93980000D03*
X136652000Y-93980000D03*
X153797000Y-98425000D03*
X155067000Y-97282000D03*
X130048000Y-93980000D03*
X120650000Y-93726000D03*
X141224000Y-94742000D03*
X148971000Y-93980000D03*
X137541000Y-94742000D03*
X140462000Y-93980000D03*
X148209000Y-93980000D03*
X140462000Y-94742000D03*
X125095000Y-93726000D03*
X138303000Y-94742000D03*
X148971000Y-94742000D03*
X132461000Y-93980000D03*
X130810000Y-94742000D03*
X136652000Y-94742000D03*
X124206000Y-93726000D03*
X131699000Y-94742000D03*
X133220000Y-91560000D03*
X145161000Y-94742000D03*
X155067000Y-98425000D03*
X137541000Y-93980000D03*
X142748000Y-93980000D03*
X135574437Y-91632439D03*
X132461000Y-94742000D03*
X130048000Y-94742000D03*
X153670000Y-97282000D03*
X147447000Y-94742000D03*
X130810000Y-93980000D03*
X135890000Y-94742000D03*
X146685000Y-93980000D03*
X152527000Y-98425000D03*
X123317000Y-93726000D03*
X145923000Y-93980000D03*
X135890000Y-93980000D03*
X146685000Y-94742000D03*
%TO.N,/USART1_TX*%
X147762440Y-74382035D03*
X155194000Y-79740000D03*
%TO.N,/USART1_RX*%
X155190000Y-78780000D03*
X147020000Y-74260000D03*
%TO.N,/FDCAN_STB*%
X152730000Y-88260000D03*
X145419991Y-89010410D03*
%TO.N,/ADC1_IN2*%
X137654658Y-86397600D03*
X149168845Y-79518845D03*
%TO.N,/TIM1_CH1N*%
X131134624Y-80963846D03*
X143342950Y-80125913D03*
%TO.N,/DRV_SPI_NSS*%
X136525199Y-82161656D03*
X143139280Y-82376782D03*
%TO.N,/TIM1_CH3N*%
X129650000Y-83210000D03*
X141970001Y-79510000D03*
%TO.N,/TIM1_CH3*%
X143591684Y-81775584D03*
X129812883Y-82433748D03*
%TO.N,/TIM1_CH2*%
X130790381Y-81632878D03*
X143066033Y-81237253D03*
%TO.N,/TIM1_CH2N*%
X142654472Y-79822420D03*
X130042734Y-81717314D03*
%TO.N,/TIM1_CH1*%
X131834610Y-80668332D03*
X142400000Y-80887240D03*
%TO.N,/ADC1_IN1*%
X139460000Y-86578910D03*
X149616500Y-80126500D03*
%TD*%
D52*
%TO.N,GND*%
X123140000Y-83830000D02*
X123140000Y-84730000D01*
X123140000Y-84730000D02*
X123130000Y-84740000D01*
D53*
%TO.N,GND1*%
X137160000Y-95504000D02*
X137160000Y-94610000D01*
X135574437Y-91632439D02*
X135139119Y-92067757D01*
X135139119Y-92067757D02*
X135139119Y-95247291D01*
X135139119Y-95247291D02*
X135776828Y-95885000D01*
X135776828Y-95885000D02*
X136779000Y-95885000D01*
X136779000Y-95885000D02*
X137160000Y-95504000D01*
%TO.N,/DRV8323RSRGZR/SPB*%
X135647420Y-96197420D02*
X136837420Y-96197420D01*
X135042409Y-91100409D02*
X134826699Y-91316119D01*
X134826699Y-91316119D02*
X134826699Y-95376699D01*
X136837420Y-96197420D02*
X137287000Y-96647000D01*
X134826699Y-95376699D02*
X135647420Y-96197420D01*
X137287000Y-96647000D02*
X137287000Y-97263000D01*
X133977590Y-91040000D02*
X133910000Y-90972410D01*
X133910000Y-90972410D02*
X133910000Y-90736980D01*
X133910000Y-90736980D02*
X133533123Y-90360103D01*
%TO.N,/USART1_RX*%
X155190000Y-78780000D02*
X157050000Y-78780000D01*
%TO.N,/SPI3_MOSI*%
X141526764Y-89874180D02*
X141526764Y-89873236D01*
X141526764Y-89873236D02*
X142407580Y-88992420D01*
X145000000Y-87912658D02*
X145000000Y-86935000D01*
X142407580Y-88992420D02*
X143920238Y-88992420D01*
X143920238Y-88992420D02*
X145000000Y-87912658D01*
%TO.N,/SPI3_MISO*%
X141510037Y-89121963D02*
X141518037Y-89121963D01*
X141518037Y-89121963D02*
X141960000Y-88680000D01*
X141960000Y-88680000D02*
X143790829Y-88680000D01*
X143790829Y-88680000D02*
X144500000Y-87970829D01*
X144500000Y-87970829D02*
X144500000Y-86935000D01*
%TO.N,/SPI3_SCK*%
X141366988Y-88371180D02*
X141370588Y-88367580D01*
X143661420Y-88367580D02*
X144000000Y-88029000D01*
X141370588Y-88367580D02*
X143661420Y-88367580D01*
X144000000Y-88029000D02*
X144000000Y-86935000D01*
%TO.N,/SPI3_MISO*%
X141415074Y-89027000D02*
X140297500Y-89027000D01*
X141510037Y-89121963D02*
X141415074Y-89027000D01*
%TO.N,/AS5047P_NSS*%
X141349563Y-87618980D02*
X141569554Y-87398989D01*
X141883410Y-84543411D02*
X141349999Y-84010000D01*
X141883410Y-87087111D02*
X141883410Y-84543411D01*
X141569554Y-87398989D02*
X141571532Y-87398989D01*
X141349999Y-84010000D02*
X140575000Y-84010000D01*
X141571532Y-87398989D02*
X141883410Y-87087111D01*
D52*
%TO.N,+3.3V*%
X141351000Y-86866579D02*
X141351000Y-86360000D01*
X141037500Y-86046500D02*
X140335000Y-86046500D01*
X141351000Y-86360000D02*
X141037500Y-86046500D01*
X139573000Y-90551000D02*
X139573000Y-89497500D01*
X139573000Y-89497500D02*
X139102500Y-89027000D01*
%TO.N,+36V*%
X156070000Y-92837000D02*
X154993000Y-92837000D01*
X154630000Y-95028500D02*
X155105500Y-95504000D01*
X154993000Y-92837000D02*
X154630000Y-93200000D01*
X154630000Y-93200000D02*
X154630000Y-95028500D01*
X155105500Y-95504000D02*
X156514000Y-95504000D01*
X156514000Y-95504000D02*
X156850000Y-95840000D01*
X156850000Y-95840000D02*
X156850000Y-101190000D01*
X156850000Y-101190000D02*
X157660000Y-102000000D01*
X157660000Y-102000000D02*
X160000000Y-102000000D01*
%TO.N,GND1*%
X160079500Y-92837000D02*
X160079500Y-95920500D01*
X160079500Y-95920500D02*
X160000000Y-96000000D01*
%TO.N,+36V*%
X158944500Y-92837000D02*
X156070000Y-92837000D01*
%TO.N,GND*%
X140335000Y-88138000D02*
X140335000Y-87181500D01*
D53*
%TO.N,/ADC1_IN1*%
X139460000Y-86578910D02*
X138588910Y-86578910D01*
X138588910Y-86578910D02*
X137608000Y-85598000D01*
X137608000Y-85598000D02*
X137366087Y-85598000D01*
X137366087Y-85598000D02*
X137068656Y-85895431D01*
%TO.N,/ADC1_IN2*%
X137654658Y-86397600D02*
X137654658Y-86975342D01*
X137654658Y-86975342D02*
X137510000Y-87120000D01*
X137510000Y-87120000D02*
X137364087Y-87120000D01*
X137364087Y-87120000D02*
X137068656Y-86824569D01*
D54*
%TO.N,+3.3V*%
X136652000Y-78359000D02*
X137857500Y-78359000D01*
%TO.N,Net-(D4-K)*%
X137922000Y-77278500D02*
X137884500Y-77241000D01*
%TO.N,+3.3V*%
X137857500Y-78359000D02*
X137922000Y-78423500D01*
%TO.N,Net-(D4-K)*%
X137884500Y-77241000D02*
X137884500Y-75946000D01*
D52*
%TO.N,+5V*%
X127381000Y-76309000D02*
X127381000Y-77496500D01*
%TO.N,+3.3V*%
X143550000Y-70870000D02*
X143427000Y-70993000D01*
X143427000Y-70993000D02*
X142456500Y-70993000D01*
X142456500Y-70993000D02*
X142329500Y-71120000D01*
%TO.N,/SPI1_MISO*%
X136925200Y-71120000D02*
X136500000Y-71545200D01*
X136500000Y-71545200D02*
X136500000Y-72947000D01*
X141134500Y-71120000D02*
X136925200Y-71120000D01*
D53*
X147539409Y-77885160D02*
X148500000Y-76924569D01*
X143058816Y-77885160D02*
X147539409Y-77885160D01*
%TO.N,/SPI1_MOSI*%
X147410000Y-77572740D02*
X148000000Y-76982740D01*
%TO.N,/SPI1_NSS*%
X138730000Y-71560000D02*
X138500000Y-71790000D01*
%TO.N,/SPI1_MISO*%
X136500000Y-73880000D02*
X137177580Y-74557580D01*
%TO.N,/SPI1_MOSI*%
X148000000Y-76982740D02*
X148000000Y-75585000D01*
X143262740Y-77572740D02*
X147410000Y-77572740D01*
%TO.N,/SPI1_SCK*%
X135500000Y-72947000D02*
X135500000Y-73990000D01*
%TO.N,/SPI1_MOSI*%
X139910000Y-74220000D02*
X143262740Y-77572740D01*
%TO.N,/SPI1_SCK*%
X136380000Y-74870000D02*
X139601828Y-74870000D01*
%TO.N,/SPI1_MOSI*%
X138030000Y-74220000D02*
X139910000Y-74220000D01*
X137500000Y-73690000D02*
X138030000Y-74220000D01*
%TO.N,/SPI1_MISO*%
X148500000Y-76924569D02*
X148500000Y-75585000D01*
X137177580Y-74557580D02*
X139731236Y-74557580D01*
D52*
%TO.N,+3.3V*%
X133520000Y-71350000D02*
X133520000Y-72927000D01*
D53*
%TO.N,/SPI1_NSS*%
X139090000Y-71560000D02*
X138730000Y-71560000D01*
%TO.N,/SPI1_MISO*%
X136500000Y-72947000D02*
X136500000Y-73880000D01*
%TO.N,/SPI1_NSS*%
X138500000Y-71790000D02*
X138500000Y-72947000D01*
X139450000Y-71920000D02*
X139090000Y-71560000D01*
%TO.N,/SPI1_MISO*%
X139731236Y-74557580D02*
X143058816Y-77885160D01*
%TO.N,/SPI1_MOSI*%
X137500000Y-72947000D02*
X137500000Y-73690000D01*
%TO.N,/SPI1_SCK*%
X135500000Y-73990000D02*
X136380000Y-74870000D01*
X139601828Y-74870000D02*
X142929408Y-78197580D01*
D52*
%TO.N,GND*%
X134500000Y-71360000D02*
X134500000Y-72947000D01*
D53*
%TO.N,/SPI1_SCK*%
X142929408Y-78197580D02*
X147672420Y-78197580D01*
X147672420Y-78197580D02*
X149000000Y-76870000D01*
X149000000Y-76870000D02*
X149000000Y-75585000D01*
D52*
%TO.N,+3.3V*%
X133520000Y-72927000D02*
X133500000Y-72947000D01*
D53*
%TO.N,/ADC1_IN3*%
X126492000Y-75116500D02*
X126559500Y-75184000D01*
X126559500Y-75184000D02*
X139474000Y-75184000D01*
X139474000Y-75184000D02*
X142800000Y-78510000D01*
X142800000Y-78510000D02*
X151925000Y-78510000D01*
D52*
%TO.N,GND*%
X128905000Y-76610000D02*
X128905000Y-76513322D01*
X129345322Y-76073000D02*
X130937000Y-76073000D01*
X128905000Y-76513322D02*
X129345322Y-76073000D01*
X130937000Y-76073000D02*
X131182000Y-76318000D01*
X131182000Y-76318000D02*
X131182000Y-77470000D01*
%TO.N,+5V*%
X128905000Y-77745000D02*
X129280000Y-78120000D01*
X129280000Y-78120000D02*
X130157000Y-78120000D01*
%TO.N,GND*%
X132588000Y-75819000D02*
X133323500Y-75819000D01*
X133323500Y-75819000D02*
X133731000Y-76226500D01*
X135382000Y-76226500D02*
X133731000Y-76226500D01*
D54*
X136689500Y-75946000D02*
X135662500Y-75946000D01*
X135662500Y-75946000D02*
X135382000Y-76226500D01*
D52*
X127381000Y-79221500D02*
X127735500Y-78867000D01*
X127735500Y-78867000D02*
X128403000Y-78867000D01*
X128403000Y-78867000D02*
X128510000Y-78760000D01*
%TO.N,+5V*%
X128905000Y-77745000D02*
X127629500Y-77745000D01*
X127629500Y-77745000D02*
X127381000Y-77496500D01*
X130157000Y-76820000D02*
X129707400Y-76820000D01*
X129522200Y-77934800D02*
X129707400Y-78120000D01*
X129522200Y-77005200D02*
X129522200Y-77934800D01*
X129707400Y-76820000D02*
X129522200Y-77005200D01*
X129707400Y-78120000D02*
X130157000Y-78120000D01*
%TO.N,GND*%
X130157000Y-77470000D02*
X131182000Y-77470000D01*
X131191000Y-76962000D02*
X131333000Y-76820000D01*
X131333000Y-76820000D02*
X132207000Y-76820000D01*
%TO.N,+3.3V*%
X124497500Y-73951500D02*
X125349000Y-73951500D01*
%TO.N,GND*%
X127390511Y-73857590D02*
X126615910Y-73857590D01*
X126615910Y-73857590D02*
X126492000Y-73981500D01*
D53*
%TO.N,/ADC1_IN3*%
X126492000Y-75116500D02*
X127218500Y-74390000D01*
X127218500Y-74390000D02*
X128937000Y-74390000D01*
X128937000Y-74390000D02*
X129500000Y-73827000D01*
X129500000Y-73827000D02*
X129500000Y-72947000D01*
D52*
%TO.N,GND*%
X128500000Y-71330000D02*
X128500000Y-72947000D01*
D53*
%TO.N,/ADC1_IN3*%
X126462000Y-75146500D02*
X126492000Y-75116500D01*
X125349000Y-75146500D02*
X126462000Y-75146500D01*
%TO.N,/SWCLK*%
X156299500Y-85979000D02*
X157607000Y-85979000D01*
X157607000Y-85979000D02*
X158623000Y-84963000D01*
X158623000Y-84963000D02*
X158623000Y-83693000D01*
X158623000Y-83693000D02*
X157137000Y-83693000D01*
X157137000Y-83693000D02*
X157050000Y-83780000D01*
%TO.N,/SWDIO*%
X158179180Y-77724000D02*
X156299500Y-77724000D01*
X159192410Y-82210590D02*
X159192410Y-78737230D01*
X158623000Y-82780000D02*
X159192410Y-82210590D01*
X158623000Y-82780000D02*
X157050000Y-82780000D01*
X159192410Y-78737230D02*
X158179180Y-77724000D01*
D52*
%TO.N,+3.3V*%
X158660000Y-80780000D02*
X157050000Y-80780000D01*
%TO.N,GND*%
X158650000Y-81780000D02*
X157050000Y-81780000D01*
D53*
%TO.N,/USART1_TX*%
X155194000Y-79740000D02*
X155234000Y-79780000D01*
X155234000Y-79780000D02*
X157050000Y-79780000D01*
D52*
%TO.N,+3.3V*%
X155104500Y-76745500D02*
X155104500Y-77724000D01*
X153550000Y-75760000D02*
X154119000Y-75760000D01*
X154119000Y-75760000D02*
X155104500Y-76745500D01*
%TO.N,GND*%
X153145499Y-82765735D02*
X153615234Y-82296000D01*
X153615234Y-82296000D02*
X154305000Y-82296000D01*
D55*
%TO.N,/CAN_N*%
X155634642Y-88431243D02*
X156116243Y-88431243D01*
X154646757Y-89066243D02*
X154999642Y-89066243D01*
X156116243Y-88431243D02*
X156450000Y-88765000D01*
X154215500Y-89497500D02*
X154646757Y-89066243D01*
X154999642Y-89066243D02*
X155634642Y-88431243D01*
X154178000Y-89497500D02*
X154215500Y-89497500D01*
%TO.N,/CAN_P*%
X156450000Y-87765000D02*
X157050000Y-87765000D01*
X156116243Y-88098757D02*
X156450000Y-87765000D01*
X155496920Y-88098757D02*
X156116243Y-88098757D01*
X154861920Y-88733757D02*
X155496920Y-88098757D01*
X154646757Y-88733757D02*
X154861920Y-88733757D01*
X154215500Y-88302500D02*
X154646757Y-88733757D01*
X154178000Y-88302500D02*
X154215500Y-88302500D01*
%TO.N,/CAN_N*%
X156450000Y-88765000D02*
X157050000Y-88765000D01*
D52*
%TO.N,GND*%
X155104500Y-85979000D02*
X155283500Y-86158000D01*
X155283500Y-86158000D02*
X155283500Y-87122000D01*
X150099000Y-89296000D02*
X150114000Y-89281000D01*
X146304000Y-72517000D02*
X145347500Y-72517000D01*
X130129111Y-84127664D02*
X130810000Y-84808553D01*
X143000000Y-76399198D02*
X143000000Y-75585000D01*
D54*
X154694744Y-90085900D02*
X155236900Y-90085900D01*
D52*
X147775500Y-89296000D02*
X147701000Y-89221500D01*
X149500000Y-86935000D02*
X149500000Y-85680000D01*
X124370500Y-90805000D02*
X123571000Y-90805000D01*
D53*
X122263500Y-90080500D02*
X122263500Y-90805000D01*
D54*
X154110500Y-90670144D02*
X154694744Y-90085900D01*
D52*
X138810000Y-82650000D02*
X138810000Y-83505500D01*
X145347500Y-73660000D02*
X145347500Y-72517000D01*
X155385500Y-87020000D02*
X156130000Y-87020000D01*
X143000000Y-73725500D02*
X143000000Y-75585000D01*
X136361550Y-85188324D02*
X135824874Y-85725000D01*
X122389500Y-87884000D02*
X122389500Y-86398500D01*
X122936000Y-85852000D02*
X123851500Y-85852000D01*
X128721877Y-87178123D02*
X129540000Y-86360000D01*
X154765500Y-84836000D02*
X155702000Y-84836000D01*
X135824874Y-85725000D02*
X135255000Y-85725000D01*
X122389500Y-86398500D02*
X122936000Y-85852000D01*
D54*
X155236900Y-90085900D02*
X155702000Y-90551000D01*
D52*
X140575000Y-84510000D02*
X139701550Y-84510000D01*
X143265602Y-76664800D02*
X143000000Y-76399198D01*
X143338982Y-76664800D02*
X143265602Y-76664800D01*
X148844000Y-89296000D02*
X147775500Y-89296000D01*
X153550000Y-78510000D02*
X153543000Y-78503000D01*
D54*
X154110500Y-90678000D02*
X154110500Y-90670144D01*
D52*
X155283500Y-87122000D02*
X155385500Y-87020000D01*
X138811000Y-83619450D02*
X138811000Y-83506500D01*
X148425500Y-72527000D02*
X149215000Y-72527000D01*
X134132283Y-81760737D02*
X134132283Y-81427283D01*
X149215000Y-72527000D02*
X149225000Y-72517000D01*
X148844000Y-89296000D02*
X150099000Y-89296000D01*
D54*
X155702000Y-90551000D02*
X155702000Y-90678000D01*
D52*
X156130000Y-87020000D02*
X156230000Y-86920000D01*
X152207500Y-87120000D02*
X152205500Y-87122000D01*
X138810000Y-83505500D02*
X138811000Y-83506500D01*
X153189500Y-78010000D02*
X153543000Y-77656500D01*
X139701550Y-84510000D02*
X138811000Y-83619450D01*
X123130000Y-84740000D02*
X123130000Y-85130500D01*
X128714897Y-87178123D02*
X128721877Y-87178123D01*
X151925000Y-78010000D02*
X153189500Y-78010000D01*
X153060000Y-87120000D02*
X152207500Y-87120000D01*
X123130000Y-85130500D02*
X123851500Y-85852000D01*
X143486582Y-76812400D02*
X143338982Y-76664800D01*
X153560000Y-74670000D02*
X152592500Y-74670000D01*
X133533123Y-82359897D02*
X133533123Y-82366877D01*
X133533123Y-82366877D02*
X132715000Y-83185000D01*
X130810000Y-84808553D02*
X130810000Y-85090000D01*
X133533123Y-82359897D02*
X134132283Y-81760737D01*
X152592500Y-74670000D02*
X152586500Y-74676000D01*
X142934500Y-73660000D02*
X143000000Y-73725500D01*
X153543000Y-78503000D02*
X153543000Y-77656500D01*
%TO.N,+3.3V*%
X153254000Y-84836000D02*
X153080000Y-85010000D01*
X150000000Y-86935000D02*
X150000000Y-87730000D01*
X153630500Y-84836000D02*
X153254000Y-84836000D01*
D54*
X154508195Y-91280100D02*
X154940000Y-90848295D01*
D52*
X150130000Y-87860000D02*
X150610000Y-87860000D01*
X153080000Y-85010000D02*
X151925000Y-85010000D01*
X153670000Y-85598000D02*
X153670000Y-84875500D01*
X153550000Y-75760000D02*
X153550000Y-76514500D01*
X142500000Y-74360500D02*
X141799500Y-73660000D01*
D54*
X153577600Y-91280100D02*
X154508195Y-91280100D01*
D52*
X153397000Y-70860000D02*
X153391000Y-70866000D01*
X143554000Y-70866000D02*
X143550000Y-70870000D01*
X140575000Y-85010000D02*
X139179500Y-85010000D01*
X138800000Y-85490000D02*
X138800000Y-84652500D01*
D53*
X138498328Y-86046500D02*
X140335000Y-86046500D01*
D52*
X151925000Y-77510000D02*
X152630000Y-77510000D01*
X153523000Y-73533000D02*
X152616500Y-73533000D01*
X138800000Y-84652500D02*
X138811000Y-84641500D01*
X137884500Y-84671500D02*
X137795000Y-84671500D01*
X140970000Y-72517000D02*
X141794500Y-72517000D01*
X151070500Y-87399500D02*
X151070500Y-87122000D01*
X153550000Y-76514500D02*
X153543000Y-76521500D01*
X142500000Y-75585000D02*
X142500000Y-74360500D01*
D54*
X152975500Y-90678000D02*
X153577600Y-91280100D01*
D52*
X150000000Y-87730000D02*
X150130000Y-87860000D01*
X151070000Y-86170000D02*
X151070000Y-87121500D01*
X152893500Y-90596000D02*
X152975500Y-90678000D01*
X138703000Y-85490000D02*
X137884500Y-84671500D01*
X152653500Y-73570000D02*
X152616500Y-73533000D01*
X139179500Y-85010000D02*
X138811000Y-84641500D01*
X144715500Y-70866000D02*
X143554000Y-70866000D01*
X138800000Y-85490000D02*
X138703000Y-85490000D01*
X152630000Y-77510000D02*
X153543000Y-76597000D01*
X151070000Y-87121500D02*
X151070500Y-87122000D01*
D53*
X136715103Y-85541877D02*
X136971400Y-85285580D01*
D52*
X150610000Y-87860000D02*
X151070500Y-87399500D01*
X154310000Y-70860000D02*
X153397000Y-70860000D01*
D53*
X137737408Y-85285580D02*
X138498328Y-86046500D01*
D52*
X151834000Y-90596000D02*
X152893500Y-90596000D01*
X153543000Y-76597000D02*
X153543000Y-76521500D01*
D54*
X154940000Y-90848295D02*
X154940000Y-90678000D01*
D52*
X140970000Y-73660000D02*
X141799500Y-73660000D01*
D53*
X136971400Y-85285580D02*
X137737408Y-85285580D01*
D52*
X153670000Y-84875500D02*
X153630500Y-84836000D01*
%TO.N,+3.3VA*%
X142939500Y-72517000D02*
X144082500Y-73660000D01*
D53*
X144500000Y-74481356D02*
X144747590Y-74233766D01*
D52*
X142939500Y-72517000D02*
X144212500Y-72517000D01*
X144082500Y-73660000D02*
X144212500Y-73660000D01*
D53*
X144500000Y-75585000D02*
X144500000Y-74481356D01*
X144000000Y-75585000D02*
X144000000Y-73872500D01*
X144747590Y-73052090D02*
X144212500Y-72517000D01*
X144000000Y-73872500D02*
X144212500Y-73660000D01*
X144747590Y-74233766D02*
X144747590Y-73052090D01*
D52*
%TO.N,+5V*%
X148111500Y-89946000D02*
X147701000Y-90356500D01*
X123571000Y-89662000D02*
X124370500Y-89662000D01*
X146939000Y-90356500D02*
X147701000Y-90356500D01*
X123825000Y-77248000D02*
X123825000Y-77216000D01*
X148844000Y-89946000D02*
X148111500Y-89946000D01*
%TO.N,/RESET*%
X151800000Y-75710000D02*
X151800000Y-75024500D01*
D53*
X151421500Y-74646000D02*
X151451500Y-74676000D01*
X151421500Y-73533000D02*
X151421500Y-74646000D01*
D52*
X151925000Y-82010000D02*
X150500000Y-82010000D01*
X151800000Y-75024500D02*
X151451500Y-74676000D01*
X150500000Y-82010000D02*
X150470000Y-82040000D01*
%TO.N,/DRV8323RSRGZR/CB*%
X129005500Y-83711160D02*
X129775557Y-84481217D01*
X129005500Y-81534000D02*
X129005500Y-83711160D01*
%TO.N,/DRV8323RSRGZR/SW*%
X129422004Y-84834771D02*
X128407233Y-83820000D01*
X128407233Y-83820000D02*
X127507000Y-83820000D01*
%TO.N,+36V*%
X129282341Y-89439106D02*
X130129111Y-88592336D01*
X129380000Y-90584000D02*
X128677500Y-91286500D01*
D53*
X127828172Y-92950000D02*
X129957580Y-90820592D01*
D54*
X129130000Y-89650000D02*
X129130000Y-90453000D01*
D53*
X126034800Y-96050500D02*
X126699500Y-96050500D01*
D52*
X126171977Y-85256523D02*
X125576500Y-85852000D01*
X128677500Y-91286500D02*
X128296500Y-91286500D01*
D53*
X127645160Y-95104840D02*
X127645160Y-93133011D01*
X126034800Y-95669500D02*
X127080500Y-95669500D01*
X129957580Y-89470973D02*
X130482664Y-88945889D01*
D54*
X126034800Y-95669500D02*
X127254000Y-94450300D01*
D53*
X127645160Y-93133011D02*
X127828171Y-92950000D01*
D54*
X129130000Y-90453000D02*
X128296500Y-91286500D01*
D53*
X127828171Y-92950000D02*
X127828172Y-92950000D01*
D52*
X125576500Y-85852000D02*
X125514500Y-85914000D01*
D53*
X127080500Y-95669500D02*
X127645160Y-95104840D01*
D54*
X127254000Y-94450300D02*
X127254000Y-92785356D01*
D52*
X129282341Y-89497659D02*
X129380000Y-89595318D01*
X129380000Y-89595318D02*
X129380000Y-90584000D01*
D54*
X128250000Y-91789356D02*
X128250000Y-91286500D01*
D52*
X129282341Y-89497659D02*
X129282341Y-89439106D01*
D53*
X129957580Y-90820592D02*
X129957580Y-89470973D01*
D52*
X128429543Y-85256523D02*
X126171977Y-85256523D01*
X125514500Y-85914000D02*
X125514500Y-87884000D01*
D54*
X127254000Y-92785356D02*
X128250000Y-91789356D01*
X128296500Y-91286500D02*
X128250000Y-91286500D01*
D52*
X128714897Y-85541877D02*
X128429543Y-85256523D01*
D54*
X129282341Y-89497659D02*
X129130000Y-89650000D01*
D53*
%TO.N,/DRV8323RSRGZR/PHASA*%
X127762000Y-95871656D02*
X127762000Y-100584000D01*
X128270000Y-93391828D02*
X128270000Y-95363656D01*
X128524000Y-101346000D02*
X128455000Y-101346000D01*
X128270000Y-95363656D02*
X127762000Y-95871656D01*
X130582420Y-91079408D02*
X128270000Y-93391828D01*
X127762000Y-100584000D02*
X128524000Y-101346000D01*
X131189771Y-89652996D02*
X130582420Y-90260347D01*
X128524000Y-101415000D02*
X128524000Y-101346000D01*
X130582420Y-90260347D02*
X130582420Y-91079408D01*
%TO.N,/DRV8323RSRGZR/PHASB*%
X138938000Y-94223842D02*
X138938000Y-100457000D01*
X138938000Y-100457000D02*
X138049000Y-101346000D01*
X134240229Y-89652996D02*
X134347938Y-89652996D01*
X137885820Y-101346000D02*
X137885820Y-101346000D01*
X134347938Y-89652996D02*
X138262532Y-93567590D01*
X138262532Y-93567590D02*
X138281748Y-93567590D01*
X138281748Y-93567590D02*
X138938000Y-94223842D01*
%TO.N,/DRV8323RSRGZR/PHASC*%
X150214830Y-98779830D02*
X150214830Y-93572830D01*
X149362160Y-92720160D02*
X139428713Y-92720160D01*
X151257000Y-99822000D02*
X150214830Y-98779830D01*
X150214830Y-93572830D02*
X149362160Y-92720160D01*
X139428713Y-92720160D02*
X135300889Y-88592336D01*
X151257000Y-99870000D02*
X151257000Y-99822000D01*
D52*
%TO.N,Net-(D1-K)*%
X145860500Y-70866000D02*
X147230500Y-70866000D01*
%TO.N,Net-(D2-K)*%
X152246000Y-70866000D02*
X150876000Y-70866000D01*
D53*
%TO.N,/SPI1_NSS*%
X149500000Y-75585000D02*
X149500000Y-76805054D01*
X149500000Y-76805054D02*
X149532410Y-76837464D01*
D55*
%TO.N,/CAN_N*%
X153709243Y-89066243D02*
X154140500Y-89497500D01*
X151834000Y-89946000D02*
X152254000Y-89946000D01*
X154140500Y-89497500D02*
X154178000Y-89497500D01*
X152254000Y-89946000D02*
X152412757Y-89787243D01*
X152781145Y-89787243D02*
X153502145Y-89066243D01*
X153502145Y-89066243D02*
X153709243Y-89066243D01*
X152412757Y-89787243D02*
X152781145Y-89787243D01*
%TO.N,/CAN_P*%
X154140500Y-88302500D02*
X154178000Y-88302500D01*
X152412757Y-89454757D02*
X152643423Y-89454757D01*
X151834000Y-89296000D02*
X152254000Y-89296000D01*
X152643423Y-89454757D02*
X153364423Y-88733757D01*
X152254000Y-89296000D02*
X152412757Y-89454757D01*
X153364423Y-88733757D02*
X153709243Y-88733757D01*
X153709243Y-88733757D02*
X154140500Y-88302500D01*
D53*
%TO.N,/SWDIO*%
X142500000Y-85814304D02*
X142500000Y-86935000D01*
X142426905Y-85741209D02*
X142500000Y-85814304D01*
%TO.N,/SWCLK*%
X143000000Y-85946181D02*
X143000000Y-86935000D01*
X143178854Y-85767327D02*
X143000000Y-85946181D01*
%TO.N,/DRV8323RSRGZR/GHA*%
X126467000Y-103124000D02*
X126365000Y-103124000D01*
X127957580Y-93262420D02*
X127957580Y-95234248D01*
X127449580Y-95742248D02*
X127449580Y-102141420D01*
X130270000Y-90950000D02*
X127957580Y-93262420D01*
X130270000Y-89865660D02*
X130270000Y-90950000D01*
X127449580Y-102141420D02*
X126467000Y-103124000D01*
X127957580Y-95234248D02*
X127449580Y-95742248D01*
X130836217Y-89299443D02*
X130270000Y-89865660D01*
%TO.N,/DRV8323RSRGZR/GLA*%
X131543324Y-90006550D02*
X130894840Y-90655034D01*
X130894840Y-90655034D02*
X130894840Y-91208816D01*
X128590000Y-99502000D02*
X128524000Y-99568000D01*
X130894840Y-91208816D02*
X128590000Y-93513656D01*
X128590000Y-93513656D02*
X128590000Y-99502000D01*
%TO.N,/DRV8323RSRGZR/SPA*%
X131318000Y-97308000D02*
X131318000Y-96520000D01*
X131207260Y-91049720D02*
X131896877Y-90360103D01*
X128905000Y-95564828D02*
X128905000Y-93640484D01*
X129537592Y-96197420D02*
X128905000Y-95564828D01*
X131064000Y-97562000D02*
X131318000Y-97790000D01*
X131318000Y-96520000D02*
X130995420Y-96197420D01*
X130995420Y-96197420D02*
X129537592Y-96197420D01*
X128905000Y-93640484D02*
X131207260Y-91338224D01*
X131207260Y-91338224D02*
X131207260Y-91049720D01*
X131318000Y-97790000D02*
X131064000Y-97409000D01*
%TO.N,/DRV8323RSRGZR/GHB*%
X134593783Y-89299443D02*
X138639340Y-93345000D01*
X138639340Y-93345000D02*
X144018000Y-93345000D01*
X144018000Y-93345000D02*
X144399000Y-93726000D01*
X144399000Y-104368000D02*
X143655000Y-105112000D01*
X144399000Y-93726000D02*
X144399000Y-104368000D01*
%TO.N,/DRV8323RSRGZR/GLB*%
X134239000Y-99568000D02*
X134510000Y-99297000D01*
X134510000Y-99297000D02*
X134510000Y-90629874D01*
X134510000Y-90629874D02*
X133886676Y-90006550D01*
%TO.N,/DRV8323RSRGZR/GHC*%
X134947336Y-88945889D02*
X139034027Y-93032580D01*
X139034027Y-93032580D02*
X149232752Y-93032580D01*
X149902410Y-93702238D02*
X149902410Y-104434590D01*
X149902410Y-104434590D02*
X149225000Y-105112000D01*
X149232752Y-93032580D02*
X149902410Y-93702238D01*
%TO.N,/DRV8323RSRGZR/GLC*%
X150527250Y-97104250D02*
X150527250Y-93443422D01*
X151257000Y-97834000D02*
X150527250Y-97104250D01*
X139827740Y-92407740D02*
X135658783Y-88238783D01*
X150527250Y-93443422D02*
X149491568Y-92407740D01*
X135658783Y-88238783D02*
X135654443Y-88238783D01*
X149491568Y-92407740D02*
X139827740Y-92407740D01*
%TO.N,/MCU_STA*%
X147920000Y-71800000D02*
X148425500Y-71294500D01*
X148425500Y-71294500D02*
X148425500Y-70866000D01*
X145500000Y-75585000D02*
X145500000Y-76382400D01*
X145500000Y-76382400D02*
X145070000Y-76812400D01*
%TO.N,/DRV_STA*%
X149680000Y-70867000D02*
X149681000Y-70866000D01*
X149680000Y-71810000D02*
X149680000Y-70867000D01*
X146000000Y-75585000D02*
X146000000Y-76812400D01*
%TO.N,/DRV8323RSRGZR/FB*%
X125565500Y-89662000D02*
X125730000Y-89662000D01*
X125565500Y-89662000D02*
X125565500Y-90805000D01*
X125565500Y-89662000D02*
X125565500Y-89620413D01*
X125565500Y-89620413D02*
X128361344Y-86824569D01*
%TO.N,/SPI3_MISO*%
X144571063Y-83894605D02*
X144500000Y-83965668D01*
X136990000Y-83774614D02*
X136361046Y-83774614D01*
X136361046Y-83774614D02*
X135654443Y-84481217D01*
X144500000Y-83965668D02*
X144500000Y-86935000D01*
%TO.N,/DRV_FAULT*%
X137795000Y-83754614D02*
X137795000Y-83476500D01*
X138185000Y-81510000D02*
X137795000Y-81900000D01*
X137795000Y-81900000D02*
X137795000Y-83476500D01*
X137242590Y-84307024D02*
X137795000Y-83754614D01*
X136535743Y-84307024D02*
X137242590Y-84307024D01*
X140575000Y-81510000D02*
X138185000Y-81510000D01*
X136007996Y-84834771D02*
X136535743Y-84307024D01*
%TO.N,/HSE_IN*%
X151925000Y-83010000D02*
X152636822Y-83010000D01*
X152636822Y-83010000D02*
X152996822Y-83370000D01*
X152996822Y-83370000D02*
X154327000Y-83370000D01*
X154327000Y-83370000D02*
X154453000Y-83496000D01*
%TO.N,/HSE_OUT*%
X153040000Y-81660000D02*
X153604000Y-81096000D01*
X153040000Y-82106822D02*
X153040000Y-81660000D01*
X153604000Y-81096000D02*
X154453000Y-81096000D01*
X152636822Y-82510000D02*
X153040000Y-82106822D01*
X151925000Y-82510000D02*
X152636822Y-82510000D01*
%TO.N,/DRV_ENABLE*%
X136297233Y-81010000D02*
X134240229Y-83067004D01*
X140575000Y-81010000D02*
X136297233Y-81010000D01*
%TO.N,/DRV_CAL*%
X140538590Y-80473590D02*
X136126536Y-80473590D01*
X136126536Y-80473590D02*
X133886676Y-82713450D01*
X140575000Y-80510000D02*
X140538590Y-80473590D01*
%TO.N,/SPI3_SCK*%
X137079595Y-82694066D02*
X136027381Y-82694066D01*
X144010000Y-82450000D02*
X144023684Y-82463684D01*
X144023684Y-86911316D02*
X144000000Y-86935000D01*
X144023684Y-82463684D02*
X144023684Y-86911316D01*
X136027381Y-82694066D02*
X134947336Y-83774111D01*
%TO.N,/SPI3_MOSI*%
X145000000Y-84378521D02*
X145000000Y-86935000D01*
X136200239Y-83228314D02*
X135300889Y-84127664D01*
X136472636Y-83228314D02*
X136200239Y-83228314D01*
X145300854Y-84077667D02*
X145000000Y-84378521D01*
%TO.N,/TIM1_BKIN*%
X139400000Y-78220000D02*
X139400000Y-79780000D01*
X139400000Y-79780000D02*
X139630000Y-80010000D01*
X139610000Y-78010000D02*
X139400000Y-78220000D01*
X140575000Y-78010000D02*
X139610000Y-78010000D01*
X139630000Y-80010000D02*
X140575000Y-80010000D01*
%TO.N,GND1*%
X129667000Y-95885000D02*
X130937000Y-95885000D01*
X150839670Y-96469670D02*
X150839670Y-93314013D01*
X121068500Y-92353400D02*
X121259600Y-92544500D01*
X152527000Y-97834000D02*
X152527000Y-97127000D01*
X133179569Y-90713656D02*
X133410000Y-90944087D01*
X133410000Y-91370000D02*
X133220000Y-91560000D01*
X150839670Y-93314013D02*
X149620976Y-92095320D01*
X152527000Y-97127000D02*
X152174000Y-96774000D01*
X136007996Y-87887996D02*
X136007996Y-87885229D01*
X132250431Y-90739569D02*
X129217420Y-93772580D01*
D52*
X136007996Y-87885229D02*
X136007997Y-87885229D01*
D53*
X151144000Y-96774000D02*
X150839670Y-96469670D01*
D52*
X136007997Y-87885229D02*
X136361550Y-87531676D01*
D53*
X140215320Y-92095320D02*
X136007996Y-87887996D01*
X149620976Y-92095320D02*
X140215320Y-92095320D01*
X152174000Y-96774000D02*
X151144000Y-96774000D01*
X131318000Y-95504000D02*
X131318000Y-94716000D01*
X129217420Y-95435420D02*
X129667000Y-95885000D01*
X129217420Y-93772580D02*
X129217420Y-95435420D01*
X130937000Y-95885000D02*
X131318000Y-95504000D01*
X133410000Y-90944087D02*
X133410000Y-91370000D01*
X132250431Y-90713656D02*
X132250431Y-90739569D01*
X121068500Y-90805000D02*
X121068500Y-92353400D01*
%TO.N,Net-(U7-CPL)*%
X126750000Y-89150000D02*
X126750000Y-89729500D01*
X129068450Y-87531676D02*
X128252546Y-88347580D01*
X127552420Y-88347580D02*
X126750000Y-89150000D01*
X128252546Y-88347580D02*
X127552420Y-88347580D01*
%TO.N,Net-(U7-CPH)*%
X128647233Y-88660000D02*
X127681828Y-88660000D01*
X127381000Y-90233500D02*
X126750000Y-90864500D01*
X127681828Y-88660000D02*
X127381000Y-88960828D01*
X129422004Y-87885229D02*
X128647233Y-88660000D01*
X127381000Y-88960828D02*
X127381000Y-90233500D01*
%TO.N,Net-(U7-VCP)*%
X128465558Y-89561500D02*
X128964638Y-89062420D01*
X128974413Y-89062420D02*
X129775557Y-88261276D01*
X128250000Y-89561500D02*
X128465558Y-89561500D01*
X129775557Y-88261276D02*
X129775557Y-88238783D01*
X128964638Y-89062420D02*
X128974413Y-89062420D01*
D52*
%TO.N,Net-(U7-DVDD)*%
X133329717Y-80624717D02*
X133329717Y-81856196D01*
X133329717Y-81856196D02*
X133179569Y-82006344D01*
D53*
%TO.N,/USART1_TX*%
X147500000Y-75585000D02*
X147500000Y-74644475D01*
X147500000Y-74644475D02*
X147762440Y-74382035D01*
%TO.N,/USART1_RX*%
X147000000Y-75585000D02*
X147000000Y-74280000D01*
X147000000Y-74280000D02*
X147020000Y-74260000D01*
D52*
%TO.N,Net-(U4-PB8)*%
X148500000Y-85824683D02*
X149249483Y-85075200D01*
X152531700Y-85565200D02*
X154088500Y-87122000D01*
X151130000Y-85565200D02*
X152531700Y-85565200D01*
X149249483Y-85075200D02*
X150640000Y-85075200D01*
X150640000Y-85075200D02*
X151130000Y-85565200D01*
X148500000Y-86935000D02*
X148500000Y-85824683D01*
%TO.N,Net-(U4-VSSA)*%
X147230500Y-73114500D02*
X147230500Y-72527000D01*
X145000000Y-75585000D02*
X145000000Y-74770802D01*
X145000000Y-74770802D02*
X145475802Y-74295000D01*
X145475802Y-74295000D02*
X146050000Y-74295000D01*
X146050000Y-74295000D02*
X147230500Y-73114500D01*
D53*
%TO.N,/FDCAN_STB*%
X152730000Y-88270000D02*
X152354000Y-88646000D01*
X152354000Y-88646000D02*
X151834000Y-88646000D01*
X145419991Y-89010410D02*
X145500000Y-88930401D01*
X145500000Y-88930401D02*
X145500000Y-86935000D01*
X152730000Y-88260000D02*
X152730000Y-88270000D01*
%TO.N,/FDCAN_RX*%
X148291010Y-90748990D02*
X148444000Y-90596000D01*
X148040482Y-91004010D02*
X148291010Y-90753482D01*
X146000000Y-86935000D02*
X146000000Y-90237759D01*
X146130010Y-87990010D02*
X146724128Y-87990010D01*
X148291010Y-90753482D02*
X148291010Y-90748990D01*
X146000000Y-86935000D02*
X146000000Y-87860000D01*
X146000000Y-90237759D02*
X146766251Y-91004010D01*
X146724128Y-87990010D02*
X147000000Y-87714138D01*
X146766251Y-91004010D02*
X148040482Y-91004010D01*
X147000000Y-87714138D02*
X147000000Y-86935000D01*
X146000000Y-87860000D02*
X146130010Y-87990010D01*
X148444000Y-90596000D02*
X148844000Y-90596000D01*
%TO.N,/FDCAN_TX*%
X147500000Y-87890000D02*
X148256000Y-88646000D01*
X146500000Y-86935000D02*
X146500000Y-86060000D01*
X146680010Y-85879990D02*
X147299990Y-85879990D01*
X147299990Y-85879990D02*
X147500000Y-86080000D01*
X147500000Y-86935000D02*
X147500000Y-87890000D01*
X148256000Y-88646000D02*
X148844000Y-88646000D01*
X147500000Y-86080000D02*
X147500000Y-86935000D01*
X146500000Y-86060000D02*
X146680010Y-85879990D01*
%TO.N,/ADC1_IN2*%
X150291172Y-79010000D02*
X151925000Y-79010000D01*
X149782327Y-79518845D02*
X150291172Y-79010000D01*
X149168845Y-79518845D02*
X149782327Y-79518845D01*
%TO.N,/TIM1_CH1N*%
X131351446Y-81814466D02*
X131896877Y-82359897D01*
X131134624Y-80963846D02*
X131351446Y-81180668D01*
X143342950Y-79688179D02*
X142164771Y-78510000D01*
X143342950Y-80125913D02*
X143342950Y-79688179D01*
X131351446Y-81180668D02*
X131351446Y-81814466D01*
X142164771Y-78510000D02*
X140575000Y-78510000D01*
%TO.N,/DRV_SPI_NSS*%
X143500000Y-86199123D02*
X143500000Y-86935000D01*
X143711264Y-83881264D02*
X143711264Y-85987859D01*
X143139280Y-82376782D02*
X143139280Y-83309280D01*
X143139280Y-83309280D02*
X143711264Y-83881264D01*
X135852684Y-82161656D02*
X134593783Y-83420557D01*
X136525199Y-82161656D02*
X135852684Y-82161656D01*
X143711264Y-85987859D02*
X143500000Y-86199123D01*
%TO.N,/TIM1_CH3N*%
X129918553Y-83210000D02*
X130482664Y-83774111D01*
X140575000Y-79510000D02*
X141970001Y-79510000D01*
X129650000Y-83210000D02*
X129918553Y-83210000D01*
%TO.N,/TIM1_CH3*%
X129849408Y-82433748D02*
X130836217Y-83420557D01*
X129812883Y-82433748D02*
X129849408Y-82433748D01*
X141735114Y-83010000D02*
X140575000Y-83010000D01*
X143591684Y-81775584D02*
X142969530Y-81775584D01*
X142969530Y-81775584D02*
X141735114Y-83010000D01*
%TO.N,/TIM1_CH2*%
X130790381Y-81632878D02*
X130884820Y-81727317D01*
X130884820Y-82054946D02*
X131543324Y-82713450D01*
X130884820Y-81727317D02*
X130884820Y-82054946D01*
X143066033Y-81237253D02*
X141795185Y-82508101D01*
X141795185Y-82508101D02*
X140576899Y-82508101D01*
X140576899Y-82508101D02*
X140575000Y-82510000D01*
%TO.N,/TIM1_CH2N*%
X142190532Y-78977590D02*
X140607410Y-78977590D01*
X131183387Y-83067004D02*
X131189771Y-83067004D01*
X142654472Y-79822420D02*
X142654472Y-79441530D01*
X142654472Y-79441530D02*
X142190532Y-78977590D01*
X130345293Y-82228910D02*
X131183387Y-83067004D01*
X130042734Y-81717314D02*
X130042734Y-81910657D01*
X130042734Y-81910657D02*
X130345293Y-82213216D01*
X130345293Y-82213216D02*
X130345293Y-82228910D01*
X140607410Y-78977590D02*
X140575000Y-79010000D01*
%TO.N,/TIM1_CH1*%
X131834610Y-81590523D02*
X132250431Y-82006344D01*
X141851458Y-82010000D02*
X140575000Y-82010000D01*
X142400000Y-81461458D02*
X141851458Y-82010000D01*
X131834610Y-80668332D02*
X131834610Y-81590523D01*
X142400000Y-80887240D02*
X142400000Y-81461458D01*
%TO.N,/ADC1_IN1*%
X149616500Y-80126500D02*
X150233000Y-79510000D01*
X150233000Y-79510000D02*
X151925000Y-79510000D01*
D52*
%TO.N,GND*%
X123150000Y-83820000D02*
X123140000Y-83830000D01*
X124207000Y-83820000D02*
X123150000Y-83820000D01*
%TD*%
%TA.AperFunction,Conductor*%
%TO.N,/DRV8323RSRGZR/PHASA*%
G36*
X129245004Y-100750748D02*
G01*
X129289000Y-100759500D01*
X129289005Y-100759500D01*
X132960999Y-100759500D01*
X132961002Y-100759500D01*
X133002161Y-100751312D01*
X133004995Y-100750749D01*
X133012603Y-100750000D01*
X133211000Y-100750000D01*
X133238577Y-100761423D01*
X133250000Y-100789000D01*
X133250000Y-109935100D01*
X133238577Y-109962677D01*
X133211000Y-109974100D01*
X123001030Y-109974100D01*
X122998989Y-109974047D01*
X122691160Y-109957914D01*
X122687100Y-109957487D01*
X122383666Y-109909428D01*
X122379673Y-109908579D01*
X122082930Y-109829066D01*
X122079048Y-109827805D01*
X122025024Y-109807067D01*
X122003372Y-109786520D01*
X122000000Y-109770657D01*
X122000000Y-109626526D01*
X122011423Y-109598949D01*
X122039000Y-109587526D01*
X122050597Y-109589291D01*
X122264336Y-109655894D01*
X122339599Y-109679348D01*
X122667369Y-109739414D01*
X122667373Y-109739415D01*
X122703270Y-109741586D01*
X123000000Y-109759535D01*
X123313653Y-109740562D01*
X123332626Y-109739415D01*
X123332630Y-109739414D01*
X123455071Y-109716976D01*
X123660400Y-109679348D01*
X123978545Y-109580210D01*
X124282420Y-109443447D01*
X124567595Y-109271053D01*
X124829910Y-109065542D01*
X125065542Y-108829910D01*
X125271053Y-108567595D01*
X125443447Y-108282420D01*
X125580210Y-107978545D01*
X125679348Y-107660400D01*
X125739415Y-107332625D01*
X125759535Y-107000000D01*
X125739415Y-106667375D01*
X125679348Y-106339600D01*
X125580210Y-106021455D01*
X125443447Y-105717580D01*
X125271053Y-105432405D01*
X125065542Y-105170090D01*
X124829910Y-104934458D01*
X124567595Y-104728947D01*
X124282420Y-104556553D01*
X124282418Y-104556552D01*
X123978545Y-104419789D01*
X123978538Y-104419787D01*
X123660400Y-104320651D01*
X123332630Y-104260585D01*
X123332626Y-104260584D01*
X123000000Y-104240465D01*
X122667373Y-104260584D01*
X122667369Y-104260585D01*
X122339599Y-104320651D01*
X122050603Y-104410706D01*
X122020876Y-104408005D01*
X122001766Y-104385075D01*
X122000000Y-104373472D01*
X122000000Y-102289000D01*
X122011423Y-102261423D01*
X122039000Y-102250000D01*
X125662630Y-102250000D01*
X125690207Y-102261423D01*
X125701630Y-102289000D01*
X125700881Y-102296608D01*
X125700266Y-102299698D01*
X125700266Y-102299699D01*
X125690895Y-102346814D01*
X125685500Y-102373935D01*
X125685500Y-103874061D01*
X125685500Y-103874062D01*
X125685501Y-103874066D01*
X125700266Y-103948301D01*
X125756516Y-104032484D01*
X125840699Y-104088734D01*
X125914933Y-104103500D01*
X126815066Y-104103499D01*
X126889301Y-104088734D01*
X126973484Y-104032484D01*
X126983608Y-104017331D01*
X127008427Y-104000749D01*
X127016035Y-104000000D01*
X128000000Y-104000000D01*
X128000000Y-100789000D01*
X128011423Y-100761423D01*
X128039000Y-100750000D01*
X129237398Y-100750000D01*
X129245004Y-100750748D01*
G37*
%TD.AperFunction*%
%TD*%
%TA.AperFunction,Conductor*%
%TO.N,GND1*%
G36*
X126988577Y-91515423D02*
G01*
X127000000Y-91543000D01*
X127000000Y-92465717D01*
X126988577Y-92493294D01*
X126938562Y-92543309D01*
X126938561Y-92543309D01*
X126886664Y-92633200D01*
X126886664Y-92633201D01*
X126859799Y-92733454D01*
X126859799Y-92840390D01*
X126859800Y-92840403D01*
X126859800Y-94215000D01*
X126848377Y-94242577D01*
X126820800Y-94254000D01*
X120064900Y-94254000D01*
X120037323Y-94242577D01*
X120025900Y-94215000D01*
X120025900Y-91543000D01*
X120037323Y-91515423D01*
X120064900Y-91504000D01*
X126961000Y-91504000D01*
X126988577Y-91515423D01*
G37*
%TD.AperFunction*%
%TD*%
%TA.AperFunction,Conductor*%
%TO.N,+36V*%
G36*
X143988577Y-96761423D02*
G01*
X144000000Y-96789000D01*
X144000000Y-103711000D01*
X143988577Y-103738577D01*
X143961000Y-103750000D01*
X139289000Y-103750000D01*
X139261423Y-103738577D01*
X139250000Y-103711000D01*
X139250000Y-100590178D01*
X139251328Y-100580087D01*
X139272510Y-100501039D01*
X139272510Y-96789000D01*
X139283933Y-96761423D01*
X139311510Y-96750000D01*
X143961000Y-96750000D01*
X143988577Y-96761423D01*
G37*
%TD.AperFunction*%
%TD*%
%TA.AperFunction,Conductor*%
%TO.N,+36V*%
G36*
X149556477Y-96761423D02*
G01*
X149567900Y-96789000D01*
X149567900Y-103711000D01*
X149556477Y-103738577D01*
X149528900Y-103750000D01*
X144789000Y-103750000D01*
X144761423Y-103738577D01*
X144750000Y-103711000D01*
X144750000Y-96789000D01*
X144761423Y-96761423D01*
X144789000Y-96750000D01*
X149528900Y-96750000D01*
X149556477Y-96761423D01*
G37*
%TD.AperFunction*%
%TD*%
%TA.AperFunction,Conductor*%
%TO.N,/DRV8323RSRGZR/SW*%
G36*
X127025131Y-80002458D02*
G01*
X127037843Y-80007200D01*
X127096443Y-80013500D01*
X127665556Y-80013499D01*
X127724157Y-80007200D01*
X127736868Y-80002458D01*
X127750497Y-80000000D01*
X127961000Y-80000000D01*
X127988577Y-80011423D01*
X128000000Y-80039000D01*
X128000000Y-84461000D01*
X127988577Y-84488577D01*
X127961000Y-84500000D01*
X125539000Y-84500000D01*
X125511423Y-84488577D01*
X125500000Y-84461000D01*
X125500000Y-82500000D01*
X121539000Y-82500000D01*
X121511423Y-82488577D01*
X121500000Y-82461000D01*
X121500000Y-80039000D01*
X121511423Y-80011423D01*
X121539000Y-80000000D01*
X127011503Y-80000000D01*
X127025131Y-80002458D01*
G37*
%TD.AperFunction*%
%TD*%
%TA.AperFunction,Conductor*%
%TO.N,GND1*%
G36*
X143890864Y-93690933D02*
G01*
X144053067Y-93853135D01*
X144064490Y-93880712D01*
X144064490Y-95461000D01*
X144053067Y-95488577D01*
X144025490Y-95500000D01*
X139358000Y-95500000D01*
X139330423Y-95488577D01*
X139319000Y-95461000D01*
X139319000Y-93718510D01*
X139330423Y-93690933D01*
X139358000Y-93679510D01*
X143863287Y-93679510D01*
X143890864Y-93690933D01*
G37*
%TD.AperFunction*%
%TD*%
%TA.AperFunction,Conductor*%
%TO.N,GND1*%
G36*
X132738577Y-93761423D02*
G01*
X132750000Y-93789000D01*
X132750000Y-95211000D01*
X132738577Y-95238577D01*
X132711000Y-95250000D01*
X129789000Y-95250000D01*
X129761423Y-95238577D01*
X129750000Y-95211000D01*
X129750000Y-93789000D01*
X129761423Y-93761423D01*
X129789000Y-93750000D01*
X132711000Y-93750000D01*
X132738577Y-93761423D01*
G37*
%TD.AperFunction*%
%TD*%
%TA.AperFunction,Conductor*%
%TO.N,/DRV8323RSRGZR/SPB*%
G36*
X138488577Y-96761423D02*
G01*
X138500000Y-96789000D01*
X138500000Y-100405777D01*
X138488577Y-100433354D01*
X138433354Y-100488577D01*
X138405777Y-100500000D01*
X135039000Y-100500000D01*
X135011423Y-100488577D01*
X135000000Y-100461000D01*
X135000000Y-96789000D01*
X135011423Y-96761423D01*
X135039000Y-96750000D01*
X138461000Y-96750000D01*
X138488577Y-96761423D01*
G37*
%TD.AperFunction*%
%TD*%
%TA.AperFunction,Conductor*%
%TO.N,/DRV8323RSRGZR/PHASB*%
G36*
X134995004Y-100750748D02*
G01*
X135039000Y-100759500D01*
X135039005Y-100759500D01*
X138405776Y-100759500D01*
X138405779Y-100759500D01*
X138446938Y-100751312D01*
X138449772Y-100750749D01*
X138457380Y-100750000D01*
X138951500Y-100750000D01*
X138979077Y-100761423D01*
X138990500Y-100789000D01*
X138990500Y-103711002D01*
X138990712Y-103712067D01*
X138999251Y-103754994D01*
X139000000Y-103762602D01*
X139000000Y-104250000D01*
X142950243Y-104250000D01*
X142977820Y-104261423D01*
X142989243Y-104289000D01*
X142988494Y-104296608D01*
X142975500Y-104361935D01*
X142975500Y-105862061D01*
X142975500Y-105862062D01*
X142975501Y-105862066D01*
X142990266Y-105936301D01*
X142993427Y-105941031D01*
X143000000Y-105962699D01*
X143000000Y-109935100D01*
X142988577Y-109962677D01*
X142961000Y-109974100D01*
X133789000Y-109974100D01*
X133761423Y-109962677D01*
X133750000Y-109935100D01*
X133750000Y-100789000D01*
X133761423Y-100761423D01*
X133789000Y-100750000D01*
X134987398Y-100750000D01*
X134995004Y-100750748D01*
G37*
%TD.AperFunction*%
%TD*%
%TA.AperFunction,Conductor*%
%TO.N,GND1*%
G36*
X149238526Y-93511423D02*
G01*
X149492577Y-93765473D01*
X149504000Y-93793050D01*
X149504000Y-95461000D01*
X149492577Y-95488577D01*
X149465000Y-95500000D01*
X144793000Y-95500000D01*
X144765423Y-95488577D01*
X144754000Y-95461000D01*
X144754000Y-93539000D01*
X144765423Y-93511423D01*
X144793000Y-93500000D01*
X149210949Y-93500000D01*
X149238526Y-93511423D01*
G37*
%TD.AperFunction*%
%TD*%
%TA.AperFunction,Conductor*%
%TO.N,/DRV8323RSRGZR/PHASC*%
G36*
X155738577Y-99261423D02*
G01*
X155750000Y-99289000D01*
X155750000Y-109935100D01*
X155738577Y-109962677D01*
X155711000Y-109974100D01*
X144789000Y-109974100D01*
X144761423Y-109962677D01*
X144750000Y-109935100D01*
X144750000Y-104289000D01*
X144761423Y-104261423D01*
X144789000Y-104250000D01*
X148461000Y-104250000D01*
X148488577Y-104261423D01*
X148500000Y-104289000D01*
X148500000Y-106250000D01*
X150250000Y-106250000D01*
X150250000Y-99289000D01*
X150261423Y-99261423D01*
X150289000Y-99250000D01*
X155711000Y-99250000D01*
X155738577Y-99261423D01*
G37*
%TD.AperFunction*%
%TD*%
%TA.AperFunction,Conductor*%
%TO.N,GND1*%
G36*
X153251440Y-91511423D02*
G01*
X153260794Y-91520777D01*
X153260799Y-91520783D01*
X153335553Y-91595538D01*
X153335555Y-91595539D01*
X153425444Y-91647436D01*
X153425446Y-91647436D01*
X153425447Y-91647437D01*
X153446630Y-91653113D01*
X153446631Y-91653113D01*
X153525698Y-91674300D01*
X153525701Y-91674300D01*
X153525703Y-91674301D01*
X153525704Y-91674301D01*
X153631881Y-91674301D01*
X153631897Y-91674300D01*
X153715000Y-91674300D01*
X153742577Y-91685723D01*
X153754000Y-91713300D01*
X153754000Y-97000000D01*
X155711000Y-97000000D01*
X155738577Y-97011423D01*
X155750000Y-97039000D01*
X155750000Y-98711000D01*
X155738577Y-98738577D01*
X155711000Y-98750000D01*
X152039000Y-98750000D01*
X152011423Y-98738577D01*
X152000000Y-98711000D01*
X152000000Y-96500000D01*
X151166000Y-96500000D01*
X151138423Y-96488577D01*
X151127000Y-96461000D01*
X151127000Y-91539000D01*
X151138423Y-91511423D01*
X151166000Y-91500000D01*
X153223863Y-91500000D01*
X153251440Y-91511423D01*
G37*
%TD.AperFunction*%
%TD*%
%TA.AperFunction,Conductor*%
%TO.N,+36V*%
G36*
X126865577Y-95000423D02*
G01*
X126877000Y-95028000D01*
X126877000Y-101942000D01*
X126865577Y-101969577D01*
X126838000Y-101981000D01*
X120289000Y-101981000D01*
X120261423Y-101969577D01*
X120250000Y-101942000D01*
X120250000Y-95028000D01*
X120261423Y-95000423D01*
X120289000Y-94989000D01*
X126838000Y-94989000D01*
X126865577Y-95000423D01*
G37*
%TD.AperFunction*%
%TD*%
%TA.AperFunction,Conductor*%
%TO.N,/DRV8323RSRGZR/SPA*%
G36*
X132988577Y-96761423D02*
G01*
X133000000Y-96789000D01*
X133000000Y-100461000D01*
X132988577Y-100488577D01*
X132961000Y-100500000D01*
X129289000Y-100500000D01*
X129261423Y-100488577D01*
X129250000Y-100461000D01*
X129250000Y-96789000D01*
X129261423Y-96761423D01*
X129289000Y-96750000D01*
X132961000Y-96750000D01*
X132988577Y-96761423D01*
G37*
%TD.AperFunction*%
%TD*%
%TA.AperFunction,Conductor*%
%TO.N,GND1*%
G36*
X137733296Y-93511423D02*
G01*
X138057131Y-93835259D01*
X138057135Y-93835262D01*
X138057138Y-93835265D01*
X138098156Y-93858946D01*
X138106233Y-93865144D01*
X138335815Y-94094726D01*
X138488577Y-94247487D01*
X138500000Y-94275064D01*
X138500000Y-95211000D01*
X138488577Y-95238577D01*
X138461000Y-95250000D01*
X135539000Y-95250000D01*
X135511423Y-95238577D01*
X135500000Y-95211000D01*
X135500000Y-93539000D01*
X135511423Y-93511423D01*
X135539000Y-93500000D01*
X137705719Y-93500000D01*
X137733296Y-93511423D01*
G37*
%TD.AperFunction*%
%TD*%
%TA.AperFunction,Conductor*%
%TO.N,+3.3V*%
G36*
X136976039Y-76600685D02*
G01*
X137021794Y-76653489D01*
X137033000Y-76705000D01*
X137033000Y-78616000D01*
X137013315Y-78683039D01*
X136960511Y-78728794D01*
X136909000Y-78740000D01*
X131950000Y-78740000D01*
X131882961Y-78720315D01*
X131837206Y-78667511D01*
X131826000Y-78616000D01*
X131826000Y-78544331D01*
X131845685Y-78477292D01*
X131862319Y-78456650D01*
X131865483Y-78453485D01*
X131865484Y-78453484D01*
X131921734Y-78369301D01*
X131936500Y-78295067D01*
X131936499Y-77359091D01*
X131956183Y-77292053D01*
X131998266Y-77251839D01*
X131999289Y-77251245D01*
X132061521Y-77234499D01*
X132562064Y-77234499D01*
X132562066Y-77234499D01*
X132636301Y-77219734D01*
X132720484Y-77163484D01*
X132776734Y-77079301D01*
X132776735Y-77079296D01*
X132780214Y-77061809D01*
X132812598Y-76999898D01*
X132873314Y-76965324D01*
X132901831Y-76962000D01*
X133230880Y-76962000D01*
X133274212Y-76969817D01*
X133315426Y-76985189D01*
X133387842Y-77012200D01*
X133432857Y-77017039D01*
X133446424Y-77018498D01*
X133446434Y-77018499D01*
X133446443Y-77018500D01*
X134015556Y-77018499D01*
X134074157Y-77012200D01*
X134187787Y-76969817D01*
X134231120Y-76962000D01*
X134881880Y-76962000D01*
X134925212Y-76969817D01*
X134966426Y-76985189D01*
X135038842Y-77012200D01*
X135083857Y-77017039D01*
X135097424Y-77018498D01*
X135097434Y-77018499D01*
X135097443Y-77018500D01*
X135666556Y-77018499D01*
X135725157Y-77012200D01*
X135838787Y-76969817D01*
X135882120Y-76962000D01*
X136271000Y-76962000D01*
X136271000Y-76705000D01*
X136290685Y-76637961D01*
X136343489Y-76592206D01*
X136395000Y-76581000D01*
X136909000Y-76581000D01*
X136976039Y-76600685D01*
G37*
%TD.AperFunction*%
%TD*%
%TA.AperFunction,Conductor*%
%TO.N,+5V*%
G36*
X125943039Y-76019685D02*
G01*
X125988794Y-76072489D01*
X126000000Y-76124000D01*
X126000000Y-77000000D01*
X127876000Y-77000000D01*
X127943039Y-77019685D01*
X127988794Y-77072489D01*
X128000000Y-77124000D01*
X128000000Y-77876000D01*
X127980315Y-77943039D01*
X127927511Y-77988794D01*
X127876000Y-78000000D01*
X126000000Y-78000000D01*
X126000000Y-78376000D01*
X125980315Y-78443039D01*
X125927511Y-78488794D01*
X125876000Y-78500000D01*
X121624000Y-78500000D01*
X121556961Y-78480315D01*
X121511206Y-78427511D01*
X121500000Y-78376000D01*
X121500000Y-76124000D01*
X121519685Y-76056961D01*
X121572489Y-76011206D01*
X121624000Y-76000000D01*
X125876000Y-76000000D01*
X125943039Y-76019685D01*
G37*
%TD.AperFunction*%
%TD*%
%TA.AperFunction,Conductor*%
%TO.N,GND*%
G36*
X123407823Y-83940902D02*
G01*
X123414134Y-83947253D01*
X123414642Y-83954611D01*
X123294659Y-84421214D01*
X123289280Y-84428373D01*
X123283328Y-84430000D01*
X122996672Y-84430000D01*
X122988399Y-84426573D01*
X122985341Y-84421214D01*
X122947154Y-84272712D01*
X122865357Y-83954609D01*
X122866615Y-83945745D01*
X122872174Y-83940903D01*
X123135490Y-83830883D01*
X123144444Y-83830857D01*
X123407823Y-83940902D01*
G37*
%TD.AperFunction*%
%TD*%
%TA.AperFunction,Conductor*%
%TO.N,GND*%
G36*
X123291427Y-84145416D02*
G01*
X123294537Y-84150985D01*
X123404867Y-84615525D01*
X123403445Y-84624367D01*
X123397995Y-84629025D01*
X123134511Y-84739115D01*
X123125556Y-84739142D01*
X123125489Y-84739115D01*
X122862371Y-84629179D01*
X122856059Y-84622827D01*
X122855612Y-84615240D01*
X122985213Y-84150546D01*
X122990736Y-84143497D01*
X122996483Y-84141989D01*
X123283154Y-84141989D01*
X123291427Y-84145416D01*
G37*
%TD.AperFunction*%
%TD*%
%TA.AperFunction,Conductor*%
%TO.N,GND1*%
G36*
X135307988Y-91522033D02*
G01*
X135498676Y-91600333D01*
X135570621Y-91629875D01*
X135576973Y-91636187D01*
X135577000Y-91636254D01*
X135684841Y-91898885D01*
X135684814Y-91907840D01*
X135678568Y-91914108D01*
X135214003Y-92110215D01*
X135205049Y-92110275D01*
X135201180Y-92107709D01*
X135099166Y-92005695D01*
X135095739Y-91997422D01*
X135096659Y-91992874D01*
X135292768Y-91528305D01*
X135299142Y-91522018D01*
X135307988Y-91522033D01*
G37*
%TD.AperFunction*%
%TD*%
%TA.AperFunction,Conductor*%
%TO.N,/DRV8323RSRGZR/SPB*%
G36*
X135045807Y-91102823D02*
G01*
X135055009Y-91112068D01*
X135245653Y-91303611D01*
X135249060Y-91311893D01*
X135245614Y-91320158D01*
X135244980Y-91320744D01*
X134909996Y-91608238D01*
X134902376Y-91611059D01*
X134758292Y-91611059D01*
X134750019Y-91607632D01*
X134746592Y-91599457D01*
X134742910Y-91160183D01*
X134742910Y-91112068D01*
X134746337Y-91103795D01*
X134754569Y-91100368D01*
X135037523Y-91099425D01*
X135045807Y-91102823D01*
G37*
%TD.AperFunction*%
%TD*%
%TA.AperFunction,Conductor*%
%TO.N,/DRV8323RSRGZR/SPB*%
G36*
X133774283Y-90486648D02*
G01*
X134179783Y-90819705D01*
X134184001Y-90827604D01*
X134181398Y-90836172D01*
X134180658Y-90836992D01*
X133981739Y-91037241D01*
X133973477Y-91040695D01*
X133973410Y-91040695D01*
X133688635Y-91040025D01*
X133680370Y-91036579D01*
X133676981Y-91028969D01*
X133667714Y-90860982D01*
X133667920Y-90858073D01*
X133669571Y-90849774D01*
X133666305Y-90833357D01*
X133666101Y-90831738D01*
X133653222Y-90598283D01*
X133656188Y-90589837D01*
X133656613Y-90589387D01*
X133758585Y-90487415D01*
X133766857Y-90483989D01*
X133774283Y-90486648D01*
G37*
%TD.AperFunction*%
%TD*%
%TA.AperFunction,Conductor*%
%TO.N,/USART1_RX*%
G36*
X155782704Y-78697025D02*
G01*
X155789079Y-78703314D01*
X155790000Y-78707864D01*
X155790000Y-78852135D01*
X155786573Y-78860408D01*
X155782704Y-78862974D01*
X155315538Y-79052802D01*
X155306584Y-79052742D01*
X155300338Y-79046474D01*
X155223668Y-78862974D01*
X155190883Y-78784509D01*
X155190857Y-78775556D01*
X155190862Y-78775542D01*
X155300339Y-78513523D01*
X155306690Y-78507213D01*
X155315537Y-78507197D01*
X155782704Y-78697025D01*
G37*
%TD.AperFunction*%
%TD*%
%TA.AperFunction,Conductor*%
%TO.N,/SPI3_MOSI*%
G36*
X141899460Y-89398537D02*
G01*
X142001476Y-89500553D01*
X142004903Y-89508826D01*
X142003988Y-89513362D01*
X141808425Y-89978291D01*
X141802058Y-89984589D01*
X141793196Y-89984578D01*
X141530579Y-89876743D01*
X141524227Y-89870431D01*
X141524200Y-89870364D01*
X141497195Y-89804598D01*
X141416354Y-89607719D01*
X141416381Y-89598766D01*
X141422613Y-89592504D01*
X141462092Y-89575788D01*
X141466654Y-89574863D01*
X141575154Y-89574863D01*
X141700113Y-89538171D01*
X141809673Y-89467762D01*
X141861465Y-89407989D01*
X141865745Y-89404878D01*
X141886628Y-89396035D01*
X141895579Y-89395966D01*
X141899460Y-89398537D01*
G37*
%TD.AperFunction*%
%TD*%
%TA.AperFunction,Conductor*%
%TO.N,/SPI3_MISO*%
G36*
X141882680Y-88648905D02*
G01*
X141886432Y-88651423D01*
X141988455Y-88753446D01*
X141991882Y-88761719D01*
X141990918Y-88766369D01*
X141791762Y-89226234D01*
X141785330Y-89232464D01*
X141776582Y-89232407D01*
X141513852Y-89124526D01*
X141507500Y-89118214D01*
X141507473Y-89118147D01*
X141399680Y-88855632D01*
X141399707Y-88846677D01*
X141406057Y-88840366D01*
X141480087Y-88810053D01*
X141481181Y-88809669D01*
X141557064Y-88787388D01*
X141594148Y-88763555D01*
X141596016Y-88762583D01*
X141873727Y-88648869D01*
X141882680Y-88648905D01*
G37*
%TD.AperFunction*%
%TD*%
%TA.AperFunction,Conductor*%
%TO.N,/SPI3_SCK*%
G36*
X141958913Y-88284630D02*
G01*
X141965324Y-88290882D01*
X141966272Y-88295495D01*
X141966272Y-88435390D01*
X141962845Y-88443663D01*
X141954572Y-88447090D01*
X141913668Y-88447090D01*
X141828068Y-88482547D01*
X141805357Y-88505257D01*
X141801518Y-88507810D01*
X141536204Y-88616448D01*
X141536176Y-88616461D01*
X141523156Y-88622499D01*
X141523139Y-88622507D01*
X141521260Y-88623484D01*
X141521225Y-88623504D01*
X141508788Y-88630716D01*
X141508777Y-88630722D01*
X141493441Y-88640578D01*
X141484628Y-88642167D01*
X141477273Y-88637060D01*
X141476320Y-88635246D01*
X141474430Y-88630722D01*
X141367871Y-88375689D01*
X141367845Y-88366736D01*
X141367850Y-88366722D01*
X141477353Y-88104641D01*
X141483704Y-88098331D01*
X141492489Y-88098289D01*
X141958913Y-88284630D01*
G37*
%TD.AperFunction*%
%TD*%
%TA.AperFunction,Conductor*%
%TO.N,/SPI3_MISO*%
G36*
X141394509Y-88848466D02*
G01*
X141398995Y-88853807D01*
X141509152Y-89117452D01*
X141509179Y-89126407D01*
X141509152Y-89126474D01*
X141400549Y-89386400D01*
X141394197Y-89392712D01*
X141385242Y-89392685D01*
X141383542Y-89391804D01*
X140934415Y-89110448D01*
X140929223Y-89103152D01*
X140928926Y-89100533D01*
X140928926Y-88956403D01*
X140932353Y-88948130D01*
X140938118Y-88944975D01*
X141385694Y-88846889D01*
X141394509Y-88848466D01*
G37*
%TD.AperFunction*%
%TD*%
%TA.AperFunction,Conductor*%
%TO.N,/AS5047P_NSS*%
G36*
X141725217Y-87144171D02*
G01*
X141725828Y-87144740D01*
X141826790Y-87245702D01*
X141830217Y-87253975D01*
X141829280Y-87258563D01*
X141631253Y-87723164D01*
X141624857Y-87729431D01*
X141616046Y-87729399D01*
X141353378Y-87621543D01*
X141347026Y-87615231D01*
X141346999Y-87615164D01*
X141239165Y-87352549D01*
X141239192Y-87343594D01*
X141245453Y-87337319D01*
X141285716Y-87320393D01*
X141290250Y-87319479D01*
X141416117Y-87319479D01*
X141541076Y-87282787D01*
X141650636Y-87212378D01*
X141708716Y-87145349D01*
X141716720Y-87141343D01*
X141725217Y-87144171D01*
G37*
%TD.AperFunction*%
%TD*%
%TA.AperFunction,Conductor*%
%TO.N,+3.3V*%
G36*
X141396892Y-86198536D02*
G01*
X141399420Y-86202312D01*
X141623672Y-86740985D01*
X141623688Y-86749940D01*
X141617382Y-86756278D01*
X141356206Y-86865406D01*
X141347251Y-86865433D01*
X141347204Y-86865414D01*
X141083542Y-86755808D01*
X141077218Y-86749468D01*
X141076812Y-86741692D01*
X141176336Y-86404556D01*
X141179282Y-86399600D01*
X141380347Y-86198535D01*
X141388619Y-86195109D01*
X141396892Y-86198536D01*
G37*
%TD.AperFunction*%
%TD*%
%TA.AperFunction,Conductor*%
%TO.N,+3.3V*%
G36*
X139724601Y-89954427D02*
G01*
X139727659Y-89959786D01*
X139847642Y-90426388D01*
X139846384Y-90435254D01*
X139840822Y-90440098D01*
X139577511Y-90550115D01*
X139568556Y-90550142D01*
X139568489Y-90550115D01*
X139305177Y-90440098D01*
X139298865Y-90433746D01*
X139298357Y-90426390D01*
X139418341Y-89959786D01*
X139423720Y-89952627D01*
X139429672Y-89951000D01*
X139716328Y-89951000D01*
X139724601Y-89954427D01*
G37*
%TD.AperFunction*%
%TD*%
%TA.AperFunction,Conductor*%
%TO.N,+36V*%
G36*
X158584515Y-100939389D02*
G01*
X159987175Y-101990566D01*
X159991740Y-101998270D01*
X159989521Y-102006946D01*
X159986446Y-102009795D01*
X158543879Y-102929196D01*
X158535061Y-102930753D01*
X158529984Y-102928219D01*
X157448706Y-102002847D01*
X157444648Y-101994864D01*
X157447424Y-101986351D01*
X157448027Y-101985698D01*
X157654464Y-101779261D01*
X157654783Y-101778955D01*
X158569592Y-100940127D01*
X158578004Y-100937063D01*
X158584515Y-100939389D01*
G37*
%TD.AperFunction*%
%TD*%
%TA.AperFunction,Conductor*%
%TO.N,GND1*%
G36*
X160234396Y-93503427D02*
G01*
X160235412Y-93504586D01*
X161034461Y-94547897D01*
X161040896Y-94556298D01*
X161043206Y-94564950D01*
X161041067Y-94570296D01*
X160009978Y-95987286D01*
X160002340Y-95991959D01*
X159993634Y-95989862D01*
X159990725Y-95986803D01*
X159050687Y-94547896D01*
X159049032Y-94539097D01*
X159051554Y-94533937D01*
X159923217Y-93504586D01*
X159923595Y-93504138D01*
X159931557Y-93500040D01*
X159932524Y-93500000D01*
X160226123Y-93500000D01*
X160234396Y-93503427D01*
G37*
%TD.AperFunction*%
%TD*%
%TA.AperFunction,Conductor*%
%TO.N,GND*%
G36*
X140486601Y-87541427D02*
G01*
X140489659Y-87546786D01*
X140609642Y-88013388D01*
X140608384Y-88022254D01*
X140602822Y-88027098D01*
X140339511Y-88137115D01*
X140330556Y-88137142D01*
X140330489Y-88137115D01*
X140067177Y-88027098D01*
X140060865Y-88020746D01*
X140060357Y-88013390D01*
X140180341Y-87546786D01*
X140185720Y-87539627D01*
X140191672Y-87538000D01*
X140478328Y-87538000D01*
X140486601Y-87541427D01*
G37*
%TD.AperFunction*%
%TD*%
%TA.AperFunction,Conductor*%
%TO.N,/ADC1_IN1*%
G36*
X139343415Y-86306167D02*
G01*
X139349661Y-86312435D01*
X139459115Y-86574399D01*
X139459142Y-86583354D01*
X139459115Y-86583421D01*
X139349661Y-86845384D01*
X139343309Y-86851696D01*
X139334461Y-86851712D01*
X138867296Y-86661884D01*
X138860921Y-86655595D01*
X138860000Y-86651045D01*
X138860000Y-86506774D01*
X138863427Y-86498501D01*
X138867294Y-86495935D01*
X139334462Y-86306107D01*
X139343415Y-86306167D01*
G37*
%TD.AperFunction*%
%TD*%
%TA.AperFunction,Conductor*%
%TO.N,/ADC1_IN2*%
G36*
X137920432Y-86507646D02*
G01*
X137920808Y-86507803D01*
X137927120Y-86514155D01*
X137927093Y-86523110D01*
X137927000Y-86523325D01*
X137702392Y-87032031D01*
X137695916Y-87038215D01*
X137686963Y-87038008D01*
X137683416Y-87035578D01*
X137583737Y-86935899D01*
X137581484Y-86932734D01*
X137382905Y-86523556D01*
X137382377Y-86514619D01*
X137388324Y-86507924D01*
X137388928Y-86507651D01*
X137650864Y-86398763D01*
X137659817Y-86398753D01*
X137920432Y-86507646D01*
G37*
%TD.AperFunction*%
%TD*%
%TA.AperFunction,Conductor*%
%TO.N,+3.3V*%
G36*
X137243490Y-78216889D02*
G01*
X137250515Y-78222440D01*
X137252000Y-78228145D01*
X137252000Y-78489854D01*
X137248573Y-78498127D01*
X137243489Y-78501111D01*
X137033000Y-78560745D01*
X137033000Y-78560746D01*
X136766805Y-78636164D01*
X136651000Y-78359000D01*
X136766805Y-78081836D01*
X137243490Y-78216889D01*
G37*
%TD.AperFunction*%
%TD*%
%TA.AperFunction,Conductor*%
%TO.N,+5V*%
G36*
X127648823Y-76419902D02*
G01*
X127655134Y-76426253D01*
X127655642Y-76433611D01*
X127535659Y-76900214D01*
X127530280Y-76907373D01*
X127524328Y-76909000D01*
X127237672Y-76909000D01*
X127229399Y-76905573D01*
X127226341Y-76900214D01*
X127188154Y-76751712D01*
X127106357Y-76433609D01*
X127107615Y-76424745D01*
X127113174Y-76419903D01*
X127376490Y-76309883D01*
X127385444Y-76309857D01*
X127648823Y-76419902D01*
G37*
%TD.AperFunction*%
%TD*%
%TA.AperFunction,Conductor*%
%TO.N,+3.3V*%
G36*
X143439675Y-70603716D02*
G01*
X143440186Y-70604782D01*
X143537328Y-70837279D01*
X143550088Y-70867817D01*
X143550992Y-70872367D01*
X143550040Y-71157826D01*
X143546586Y-71166088D01*
X143538301Y-71169487D01*
X143537837Y-71169476D01*
X142989509Y-71145881D01*
X142981391Y-71142102D01*
X142978312Y-71134192D01*
X142978312Y-70847564D01*
X142981739Y-70839291D01*
X142984432Y-70837280D01*
X143423813Y-70599007D01*
X143432719Y-70598077D01*
X143439675Y-70603716D01*
G37*
%TD.AperFunction*%
%TD*%
%TA.AperFunction,Conductor*%
%TO.N,+3.3V*%
G36*
X133787823Y-71460902D02*
G01*
X133794134Y-71467253D01*
X133794642Y-71474611D01*
X133674659Y-71941214D01*
X133669280Y-71948373D01*
X133663328Y-71950000D01*
X133376672Y-71950000D01*
X133368399Y-71946573D01*
X133365341Y-71941214D01*
X133327154Y-71792712D01*
X133245357Y-71474609D01*
X133246615Y-71465745D01*
X133252174Y-71460903D01*
X133515490Y-71350883D01*
X133524444Y-71350857D01*
X133787823Y-71460902D01*
G37*
%TD.AperFunction*%
%TD*%
%TA.AperFunction,Conductor*%
%TO.N,/SPI1_NSS*%
G36*
X139014046Y-71484288D02*
G01*
X139552261Y-71639225D01*
X139559262Y-71644805D01*
X139560266Y-71653704D01*
X139559846Y-71654911D01*
X139452852Y-71915489D01*
X139446540Y-71921840D01*
X139446510Y-71921852D01*
X139446493Y-71921860D01*
X139183404Y-72030443D01*
X139174449Y-72030432D01*
X139168231Y-72024340D01*
X139000107Y-71642262D01*
X138999116Y-71637550D01*
X138999116Y-71495532D01*
X139002543Y-71487259D01*
X139010816Y-71483832D01*
X139014046Y-71484288D01*
G37*
%TD.AperFunction*%
%TD*%
%TA.AperFunction,Conductor*%
%TO.N,GND*%
G36*
X134767823Y-71470902D02*
G01*
X134774134Y-71477253D01*
X134774642Y-71484611D01*
X134654659Y-71951214D01*
X134649280Y-71958373D01*
X134643328Y-71960000D01*
X134356672Y-71960000D01*
X134348399Y-71956573D01*
X134345341Y-71951214D01*
X134307154Y-71802712D01*
X134225357Y-71484609D01*
X134226615Y-71475745D01*
X134232174Y-71470903D01*
X134495490Y-71360883D01*
X134504444Y-71360857D01*
X134767823Y-71470902D01*
G37*
%TD.AperFunction*%
%TD*%
%TA.AperFunction,Conductor*%
%TO.N,GND*%
G36*
X131263436Y-76963637D02*
G01*
X131266863Y-76971910D01*
X131263436Y-76980183D01*
X131258545Y-76983111D01*
X130885463Y-77095746D01*
X130876552Y-77094856D01*
X130870880Y-77087927D01*
X130871770Y-77079016D01*
X130875095Y-77075159D01*
X131026491Y-76962522D01*
X131033475Y-76960210D01*
X131255163Y-76960210D01*
X131263436Y-76963637D01*
G37*
%TD.AperFunction*%
%TD*%
%TA.AperFunction,Conductor*%
%TO.N,GND*%
G36*
X133179215Y-75664341D02*
G01*
X133186373Y-75669719D01*
X133188000Y-75675671D01*
X133188000Y-75962328D01*
X133184573Y-75970601D01*
X133179214Y-75973659D01*
X132712611Y-76093642D01*
X132703745Y-76092384D01*
X132698902Y-76086823D01*
X132588883Y-75823509D01*
X132588857Y-75814556D01*
X132588862Y-75814542D01*
X132698902Y-75551175D01*
X132705253Y-75544865D01*
X132712609Y-75544357D01*
X133179215Y-75664341D01*
G37*
%TD.AperFunction*%
%TD*%
%TA.AperFunction,Conductor*%
%TO.N,GND*%
G36*
X128399692Y-78493668D02*
G01*
X128400019Y-78494381D01*
X128510088Y-78757817D01*
X128510992Y-78762367D01*
X128510041Y-79047492D01*
X128506587Y-79055754D01*
X128498302Y-79059153D01*
X128497522Y-79059124D01*
X127942164Y-79020163D01*
X127934151Y-79016166D01*
X127931283Y-79008492D01*
X127931283Y-78721834D01*
X127934710Y-78713561D01*
X127937754Y-78711367D01*
X128383998Y-78488429D01*
X128392929Y-78487799D01*
X128399692Y-78493668D01*
G37*
%TD.AperFunction*%
%TD*%
%TA.AperFunction,Conductor*%
%TO.N,GND*%
G36*
X131204247Y-76563812D02*
G01*
X131952641Y-76666216D01*
X131960373Y-76670733D01*
X131962755Y-76677808D01*
X131962755Y-76965663D01*
X131959328Y-76973936D01*
X131956929Y-76975782D01*
X131355611Y-77324853D01*
X131346736Y-77326042D01*
X131339618Y-77320608D01*
X131338938Y-77319236D01*
X131190905Y-76964171D01*
X131190005Y-76959648D01*
X131190966Y-76575374D01*
X131194414Y-76567111D01*
X131202695Y-76563705D01*
X131204247Y-76563812D01*
G37*
%TD.AperFunction*%
%TD*%
%TA.AperFunction,Conductor*%
%TO.N,+3.3V*%
G36*
X125088715Y-73796841D02*
G01*
X125095873Y-73802219D01*
X125097500Y-73808171D01*
X125097500Y-74094828D01*
X125094073Y-74103101D01*
X125088714Y-74106159D01*
X124622111Y-74226142D01*
X124613245Y-74224884D01*
X124608402Y-74219323D01*
X124498383Y-73956009D01*
X124498357Y-73947056D01*
X124498362Y-73947042D01*
X124608402Y-73683675D01*
X124614753Y-73677365D01*
X124622109Y-73676857D01*
X125088715Y-73796841D01*
G37*
%TD.AperFunction*%
%TD*%
%TA.AperFunction,Conductor*%
%TO.N,GND*%
G36*
X127274765Y-73584205D02*
G01*
X127279609Y-73589767D01*
X127389626Y-73853079D01*
X127389653Y-73862034D01*
X127389626Y-73862101D01*
X127279609Y-74125412D01*
X127273257Y-74131724D01*
X127265899Y-74132232D01*
X126799297Y-74012249D01*
X126792138Y-74006870D01*
X126790511Y-74000918D01*
X126790511Y-73714261D01*
X126793938Y-73705988D01*
X126799294Y-73702931D01*
X127265900Y-73582947D01*
X127274765Y-73584205D01*
G37*
%TD.AperFunction*%
%TD*%
%TA.AperFunction,Conductor*%
%TO.N,GND*%
G36*
X128767823Y-71440902D02*
G01*
X128774134Y-71447253D01*
X128774642Y-71454611D01*
X128654659Y-71921214D01*
X128649280Y-71928373D01*
X128643328Y-71930000D01*
X128356672Y-71930000D01*
X128348399Y-71926573D01*
X128345341Y-71921214D01*
X128307154Y-71772712D01*
X128225357Y-71454609D01*
X128226615Y-71445745D01*
X128232174Y-71440903D01*
X128495490Y-71330883D01*
X128504444Y-71330857D01*
X128767823Y-71440902D01*
G37*
%TD.AperFunction*%
%TD*%
%TA.AperFunction,Conductor*%
%TO.N,/SWCLK*%
G36*
X158889474Y-83803338D02*
G01*
X158895786Y-83809690D01*
X158895802Y-83818538D01*
X158705975Y-84285704D01*
X158699686Y-84292079D01*
X158695136Y-84293000D01*
X158550864Y-84293000D01*
X158542591Y-84289573D01*
X158540025Y-84285704D01*
X158350197Y-83818538D01*
X158350257Y-83809584D01*
X158356523Y-83803339D01*
X158618490Y-83693883D01*
X158627444Y-83693857D01*
X158889474Y-83803338D01*
G37*
%TD.AperFunction*%
%TD*%
%TA.AperFunction,Conductor*%
%TO.N,/SWCLK*%
G36*
X158506415Y-83420257D02*
G01*
X158512661Y-83426525D01*
X158622115Y-83688489D01*
X158622142Y-83697444D01*
X158622115Y-83697511D01*
X158512661Y-83959474D01*
X158506309Y-83965786D01*
X158497461Y-83965802D01*
X158030296Y-83775974D01*
X158023921Y-83769685D01*
X158023000Y-83765135D01*
X158023000Y-83620864D01*
X158026427Y-83612591D01*
X158030294Y-83610025D01*
X158497462Y-83420197D01*
X158506415Y-83420257D01*
G37*
%TD.AperFunction*%
%TD*%
%TA.AperFunction,Conductor*%
%TO.N,/SWDIO*%
G36*
X158996256Y-82304729D02*
G01*
X159098270Y-82406743D01*
X159101697Y-82415016D01*
X159100776Y-82419566D01*
X158904669Y-82884131D01*
X158898294Y-82890420D01*
X158889446Y-82890404D01*
X158626815Y-82782563D01*
X158620463Y-82776251D01*
X158620436Y-82776184D01*
X158590894Y-82704239D01*
X158512595Y-82513551D01*
X158512622Y-82504598D01*
X158518866Y-82498331D01*
X158983434Y-82302222D01*
X158992387Y-82302163D01*
X158996256Y-82304729D01*
G37*
%TD.AperFunction*%
%TD*%
%TA.AperFunction,Conductor*%
%TO.N,/SWDIO*%
G36*
X158506415Y-82507257D02*
G01*
X158512661Y-82513525D01*
X158622115Y-82775489D01*
X158622142Y-82784444D01*
X158622115Y-82784511D01*
X158512661Y-83046474D01*
X158506309Y-83052786D01*
X158497461Y-83052802D01*
X158030296Y-82862974D01*
X158023921Y-82856685D01*
X158023000Y-82852135D01*
X158023000Y-82707864D01*
X158026427Y-82699591D01*
X158030294Y-82697025D01*
X158497462Y-82507197D01*
X158506415Y-82507257D01*
G37*
%TD.AperFunction*%
%TD*%
%TA.AperFunction,Conductor*%
%TO.N,+3.3V*%
G36*
X158544254Y-80506615D02*
G01*
X158549098Y-80512177D01*
X158659115Y-80775489D01*
X158659142Y-80784444D01*
X158659115Y-80784511D01*
X158549098Y-81047822D01*
X158542746Y-81054134D01*
X158535388Y-81054642D01*
X158068786Y-80934659D01*
X158061627Y-80929280D01*
X158060000Y-80923328D01*
X158060000Y-80636671D01*
X158063427Y-80628398D01*
X158068783Y-80625341D01*
X158535389Y-80505357D01*
X158544254Y-80506615D01*
G37*
%TD.AperFunction*%
%TD*%
%TA.AperFunction,Conductor*%
%TO.N,GND*%
G36*
X158534254Y-81506615D02*
G01*
X158539098Y-81512177D01*
X158649115Y-81775489D01*
X158649142Y-81784444D01*
X158649115Y-81784511D01*
X158539098Y-82047822D01*
X158532746Y-82054134D01*
X158525388Y-82054642D01*
X158058786Y-81934659D01*
X158051627Y-81929280D01*
X158050000Y-81923328D01*
X158050000Y-81636671D01*
X158053427Y-81628398D01*
X158058783Y-81625341D01*
X158525389Y-81505357D01*
X158534254Y-81506615D01*
G37*
%TD.AperFunction*%
%TD*%
%TA.AperFunction,Conductor*%
%TO.N,/USART1_TX*%
G36*
X155319296Y-79468077D02*
G01*
X155319988Y-79468393D01*
X155779551Y-79696763D01*
X155785434Y-79703514D01*
X155786044Y-79707241D01*
X155786044Y-79851544D01*
X155782617Y-79859817D01*
X155778003Y-79862657D01*
X155319086Y-80013778D01*
X155310157Y-80013111D01*
X155304632Y-80007177D01*
X155194883Y-79744509D01*
X155194857Y-79735556D01*
X155194862Y-79735542D01*
X155303989Y-79474361D01*
X155310341Y-79468050D01*
X155319296Y-79468077D01*
G37*
%TD.AperFunction*%
%TD*%
%TA.AperFunction,Conductor*%
%TO.N,+3.3V*%
G36*
X154230590Y-75668229D02*
G01*
X154237385Y-75674061D01*
X154238065Y-75682990D01*
X154235220Y-75687620D01*
X154034855Y-75887985D01*
X154030931Y-75890574D01*
X153675525Y-76032871D01*
X153666571Y-76032765D01*
X153660372Y-76026500D01*
X153603867Y-75890574D01*
X153551163Y-75763793D01*
X153551153Y-75754841D01*
X153660638Y-75492807D01*
X153666990Y-75486496D01*
X153675074Y-75486201D01*
X154230590Y-75668229D01*
G37*
%TD.AperFunction*%
%TD*%
%TA.AperFunction,Conductor*%
%TO.N,GND*%
G36*
X153468414Y-82240123D02*
G01*
X153671110Y-82442819D01*
X153674537Y-82451092D01*
X153672910Y-82457044D01*
X153427813Y-82871823D01*
X153420654Y-82877202D01*
X153413296Y-82876694D01*
X153354271Y-82852457D01*
X153149314Y-82768298D01*
X153142962Y-82761986D01*
X153142935Y-82761919D01*
X153120699Y-82707768D01*
X153034539Y-82497935D01*
X153034566Y-82488982D01*
X153039408Y-82483421D01*
X153454189Y-82238322D01*
X153463055Y-82237065D01*
X153468414Y-82240123D01*
G37*
%TD.AperFunction*%
%TD*%
%TA.AperFunction,Conductor*%
%TO.N,GND*%
G36*
X146188254Y-72243615D02*
G01*
X146193098Y-72249177D01*
X146303115Y-72512489D01*
X146303142Y-72521444D01*
X146303115Y-72521511D01*
X146193098Y-72784822D01*
X146186746Y-72791134D01*
X146179388Y-72791642D01*
X145712786Y-72671659D01*
X145705627Y-72666280D01*
X145704000Y-72660328D01*
X145704000Y-72373671D01*
X145707427Y-72365398D01*
X145712783Y-72362341D01*
X146179389Y-72242357D01*
X146188254Y-72243615D01*
G37*
%TD.AperFunction*%
%TD*%
%TA.AperFunction,Conductor*%
%TO.N,GND*%
G36*
X130697572Y-84482313D02*
G01*
X130698345Y-84483165D01*
X131015429Y-84869697D01*
X131018026Y-84878267D01*
X131014684Y-84885364D01*
X130814149Y-85087241D01*
X130805887Y-85090695D01*
X130805821Y-85090695D01*
X130520689Y-85090025D01*
X130512423Y-85086579D01*
X130509061Y-85079352D01*
X130491337Y-84878267D01*
X130475109Y-84694147D01*
X130477796Y-84685606D01*
X130478479Y-84684860D01*
X130681027Y-84482312D01*
X130689299Y-84478886D01*
X130697572Y-84482313D01*
G37*
%TD.AperFunction*%
%TD*%
%TA.AperFunction,Conductor*%
%TO.N,GND*%
G36*
X149767823Y-85790902D02*
G01*
X149774134Y-85797253D01*
X149774642Y-85804611D01*
X149654659Y-86271214D01*
X149649280Y-86278373D01*
X149643328Y-86280000D01*
X149356672Y-86280000D01*
X149348399Y-86276573D01*
X149345341Y-86271214D01*
X149307154Y-86122712D01*
X149225357Y-85804609D01*
X149226615Y-85795745D01*
X149232174Y-85790903D01*
X149495490Y-85680883D01*
X149504444Y-85680857D01*
X149767823Y-85790902D01*
G37*
%TD.AperFunction*%
%TD*%
%TA.AperFunction,Conductor*%
%TO.N,GND*%
G36*
X124162215Y-90650341D02*
G01*
X124169373Y-90655719D01*
X124171000Y-90661671D01*
X124171000Y-90948328D01*
X124167573Y-90956601D01*
X124162214Y-90959659D01*
X123695611Y-91079642D01*
X123686745Y-91078384D01*
X123681902Y-91072823D01*
X123571883Y-90809509D01*
X123571857Y-90800556D01*
X123571862Y-90800542D01*
X123681902Y-90537175D01*
X123688253Y-90530865D01*
X123695609Y-90530357D01*
X124162215Y-90650341D01*
G37*
%TD.AperFunction*%
%TD*%
%TA.AperFunction,Conductor*%
%TO.N,GND*%
G36*
X122529974Y-90190838D02*
G01*
X122536286Y-90197190D01*
X122536302Y-90206038D01*
X122346475Y-90673204D01*
X122340186Y-90679579D01*
X122335636Y-90680500D01*
X122191364Y-90680500D01*
X122183091Y-90677073D01*
X122180525Y-90673204D01*
X121990697Y-90206038D01*
X121990757Y-90197084D01*
X121997023Y-90190839D01*
X122258990Y-90081383D01*
X122267944Y-90081357D01*
X122529974Y-90190838D01*
G37*
%TD.AperFunction*%
%TD*%
%TA.AperFunction,Conductor*%
%TO.N,GND*%
G36*
X139077823Y-82760902D02*
G01*
X139084134Y-82767253D01*
X139084642Y-82774611D01*
X138964659Y-83241214D01*
X138959280Y-83248373D01*
X138953328Y-83250000D01*
X138666672Y-83250000D01*
X138658399Y-83246573D01*
X138655341Y-83241214D01*
X138617154Y-83092712D01*
X138535357Y-82774609D01*
X138536615Y-82765745D01*
X138542174Y-82760903D01*
X138805490Y-82650883D01*
X138814444Y-82650857D01*
X139077823Y-82760902D01*
G37*
%TD.AperFunction*%
%TD*%
%TA.AperFunction,Conductor*%
%TO.N,GND*%
G36*
X156119695Y-86653654D02*
G01*
X156119956Y-86654232D01*
X156230088Y-86917817D01*
X156230992Y-86922367D01*
X156230042Y-87207342D01*
X156226588Y-87215604D01*
X156218303Y-87219003D01*
X156217385Y-87218964D01*
X155660634Y-87173281D01*
X155652669Y-87169189D01*
X155649891Y-87161620D01*
X155649891Y-86874941D01*
X155653318Y-86866668D01*
X155656499Y-86864407D01*
X156104074Y-86648207D01*
X156113011Y-86647695D01*
X156119695Y-86653654D01*
G37*
%TD.AperFunction*%
%TD*%
%TA.AperFunction,Conductor*%
%TO.N,GND*%
G36*
X129272199Y-86249039D02*
G01*
X129482033Y-86335200D01*
X129536184Y-86357436D01*
X129542536Y-86363748D01*
X129542563Y-86363815D01*
X129650959Y-86627797D01*
X129650932Y-86636752D01*
X129646088Y-86642314D01*
X129231309Y-86887411D01*
X129222443Y-86888669D01*
X129217084Y-86885611D01*
X129014388Y-86682915D01*
X129010961Y-86674642D01*
X129012588Y-86668690D01*
X129031217Y-86637164D01*
X129257686Y-86253910D01*
X129264844Y-86248532D01*
X129272199Y-86249039D01*
G37*
%TD.AperFunction*%
%TD*%
%TA.AperFunction,Conductor*%
%TO.N,GND*%
G36*
X155586254Y-84562615D02*
G01*
X155591098Y-84568177D01*
X155701115Y-84831489D01*
X155701142Y-84840444D01*
X155701115Y-84840511D01*
X155591098Y-85103822D01*
X155584746Y-85110134D01*
X155577388Y-85110642D01*
X155110786Y-84990659D01*
X155103627Y-84985280D01*
X155102000Y-84979328D01*
X155102000Y-84692671D01*
X155105427Y-84684398D01*
X155110783Y-84681341D01*
X155577389Y-84561357D01*
X155586254Y-84562615D01*
G37*
%TD.AperFunction*%
%TD*%
%TA.AperFunction,Conductor*%
%TO.N,GND*%
G36*
X135736196Y-85595044D02*
G01*
X135740106Y-85597627D01*
X135940460Y-85797981D01*
X135943887Y-85806254D01*
X135940460Y-85814527D01*
X135935818Y-85817376D01*
X135380069Y-85998812D01*
X135371141Y-85998122D01*
X135365642Y-85992201D01*
X135256171Y-85730204D01*
X135256145Y-85721251D01*
X135365367Y-85458510D01*
X135371706Y-85452188D01*
X135380532Y-85452146D01*
X135736196Y-85595044D01*
G37*
%TD.AperFunction*%
%TD*%
%TA.AperFunction,Conductor*%
%TO.N,GND*%
G36*
X155460809Y-90110482D02*
G01*
X155702081Y-90299629D01*
X155869179Y-90430627D01*
X155903776Y-90457749D01*
X155908172Y-90465550D01*
X155905765Y-90474176D01*
X155904858Y-90475203D01*
X155704373Y-90677029D01*
X155700516Y-90679606D01*
X155436292Y-90788100D01*
X155427337Y-90788073D01*
X155421025Y-90781721D01*
X155420790Y-90781099D01*
X155394840Y-90706016D01*
X155394317Y-90700532D01*
X155397557Y-90678000D01*
X155379023Y-90549091D01*
X155324921Y-90430626D01*
X155284377Y-90383835D01*
X155282164Y-90380001D01*
X155257476Y-90308568D01*
X155258012Y-90299629D01*
X155260258Y-90296476D01*
X155445318Y-90111416D01*
X155453590Y-90107990D01*
X155460809Y-90110482D01*
G37*
%TD.AperFunction*%
%TD*%
%TA.AperFunction,Conductor*%
%TO.N,GND*%
G36*
X143148083Y-76327745D02*
G01*
X143201014Y-76351973D01*
X143207110Y-76358532D01*
X143207619Y-76360328D01*
X143210323Y-76373922D01*
X143249999Y-76433303D01*
X143260693Y-76449307D01*
X143336078Y-76499677D01*
X143402553Y-76512900D01*
X143550039Y-76512899D01*
X143554908Y-76513961D01*
X143591162Y-76530556D01*
X143597258Y-76537115D01*
X143597115Y-76545638D01*
X143488188Y-76810916D01*
X143485611Y-76814773D01*
X143284174Y-77014872D01*
X143275889Y-77018271D01*
X143267627Y-77014817D01*
X143266436Y-77013412D01*
X143120495Y-76810916D01*
X142930981Y-76547961D01*
X142928925Y-76539247D01*
X142932199Y-76532851D01*
X143134941Y-76330109D01*
X143143213Y-76326683D01*
X143148083Y-76327745D01*
G37*
%TD.AperFunction*%
%TD*%
%TA.AperFunction,Conductor*%
%TO.N,GND*%
G36*
X149109130Y-72243690D02*
G01*
X149114179Y-72249371D01*
X149224115Y-72512489D01*
X149224142Y-72521444D01*
X149224115Y-72521511D01*
X149114025Y-72784995D01*
X149107673Y-72791307D01*
X149100525Y-72791867D01*
X148635985Y-72681536D01*
X148628728Y-72676290D01*
X148626989Y-72670153D01*
X148626989Y-72383483D01*
X148630416Y-72375210D01*
X148635544Y-72372213D01*
X149100241Y-72242612D01*
X149109130Y-72243690D01*
G37*
%TD.AperFunction*%
%TD*%
%TA.AperFunction,Conductor*%
%TO.N,GND*%
G36*
X149998067Y-89007731D02*
G01*
X150003220Y-89013469D01*
X150113115Y-89276489D01*
X150113142Y-89285444D01*
X150113115Y-89285511D01*
X150002989Y-89549082D01*
X149996637Y-89555394D01*
X149989596Y-89555979D01*
X149526087Y-89450472D01*
X149518781Y-89445295D01*
X149516984Y-89439064D01*
X149516984Y-89152390D01*
X149520411Y-89144117D01*
X149525424Y-89141153D01*
X149989168Y-89006742D01*
X149998067Y-89007731D01*
G37*
%TD.AperFunction*%
%TD*%
%TA.AperFunction,Conductor*%
%TO.N,GND*%
G36*
X123417073Y-84739969D02*
G01*
X123425337Y-84743415D01*
X123428744Y-84751697D01*
X123428683Y-84752860D01*
X123386324Y-85166735D01*
X123382958Y-85173817D01*
X123180992Y-85375783D01*
X123172719Y-85379210D01*
X123164446Y-85375783D01*
X123162675Y-85373510D01*
X123043392Y-85173817D01*
X122859758Y-84866394D01*
X122858458Y-84857536D01*
X122863803Y-84850352D01*
X122865286Y-84849602D01*
X123127118Y-84740201D01*
X123131652Y-84739298D01*
X123417073Y-84739969D01*
G37*
%TD.AperFunction*%
%TD*%
%TA.AperFunction,Conductor*%
%TO.N,GND*%
G36*
X152944254Y-86846615D02*
G01*
X152949098Y-86852177D01*
X153059115Y-87115489D01*
X153059142Y-87124444D01*
X153059115Y-87124511D01*
X152949098Y-87387822D01*
X152942746Y-87394134D01*
X152935388Y-87394642D01*
X152468786Y-87274659D01*
X152461627Y-87269280D01*
X152460000Y-87263328D01*
X152460000Y-86976671D01*
X152463427Y-86968398D01*
X152468783Y-86965341D01*
X152935389Y-86845357D01*
X152944254Y-86846615D01*
G37*
%TD.AperFunction*%
%TD*%
%TA.AperFunction,Conductor*%
%TO.N,GND*%
G36*
X153444254Y-74396615D02*
G01*
X153449098Y-74402177D01*
X153559115Y-74665489D01*
X153559142Y-74674444D01*
X153559115Y-74674511D01*
X153449098Y-74937822D01*
X153442746Y-74944134D01*
X153435388Y-74944642D01*
X152968786Y-74824659D01*
X152961627Y-74819280D01*
X152960000Y-74813328D01*
X152960000Y-74526671D01*
X152963427Y-74518398D01*
X152968783Y-74515341D01*
X153435389Y-74395357D01*
X153444254Y-74396615D01*
G37*
%TD.AperFunction*%
%TD*%
%TA.AperFunction,Conductor*%
%TO.N,GND*%
G36*
X133037915Y-82659388D02*
G01*
X133240611Y-82862084D01*
X133244038Y-82870357D01*
X133242411Y-82876309D01*
X132997314Y-83291088D01*
X132990155Y-83296467D01*
X132982797Y-83295959D01*
X132923772Y-83271722D01*
X132718815Y-83187563D01*
X132712463Y-83181251D01*
X132712436Y-83181184D01*
X132690200Y-83127033D01*
X132604040Y-82917200D01*
X132604067Y-82908247D01*
X132608909Y-82902686D01*
X133023690Y-82657587D01*
X133032556Y-82656330D01*
X133037915Y-82659388D01*
G37*
%TD.AperFunction*%
%TD*%
%TA.AperFunction,Conductor*%
%TO.N,GND*%
G36*
X153694733Y-77914819D02*
G01*
X153697749Y-77920017D01*
X153824464Y-78385283D01*
X153823331Y-78394166D01*
X153817686Y-78399154D01*
X153554511Y-78509115D01*
X153545556Y-78509142D01*
X153545489Y-78509115D01*
X153282056Y-78399047D01*
X153275744Y-78392695D01*
X153275199Y-78385486D01*
X153388426Y-77920325D01*
X153393712Y-77913097D01*
X153399794Y-77911392D01*
X153686460Y-77911392D01*
X153694733Y-77914819D01*
G37*
%TD.AperFunction*%
%TD*%
%TA.AperFunction,Conductor*%
%TO.N,+3.3V*%
G36*
X154674999Y-90568189D02*
G01*
X154938517Y-90676393D01*
X154942373Y-90678970D01*
X155143322Y-90881263D01*
X155146721Y-90889548D01*
X155143267Y-90897810D01*
X155142700Y-90898336D01*
X154726699Y-91260231D01*
X154718208Y-91263076D01*
X154710747Y-91259677D01*
X154529525Y-91078455D01*
X154526098Y-91070182D01*
X154529524Y-91061910D01*
X154581416Y-91010019D01*
X154627913Y-90904715D01*
X154630900Y-90878968D01*
X154630900Y-90678795D01*
X154631334Y-90675639D01*
X154659289Y-90575854D01*
X154664819Y-90568814D01*
X154673710Y-90567746D01*
X154674999Y-90568189D01*
G37*
%TD.AperFunction*%
%TD*%
%TA.AperFunction,Conductor*%
%TO.N,+3.3V*%
G36*
X153821601Y-85001427D02*
G01*
X153824659Y-85006786D01*
X153944642Y-85473388D01*
X153943384Y-85482254D01*
X153937822Y-85487098D01*
X153674511Y-85597115D01*
X153665556Y-85597142D01*
X153665489Y-85597115D01*
X153402177Y-85487098D01*
X153395865Y-85480746D01*
X153395357Y-85473390D01*
X153515341Y-85006786D01*
X153520720Y-84999627D01*
X153526672Y-84998000D01*
X153813328Y-84998000D01*
X153821601Y-85001427D01*
G37*
%TD.AperFunction*%
%TD*%
%TA.AperFunction,Conductor*%
%TO.N,+3.3V*%
G36*
X153817823Y-75870902D02*
G01*
X153824134Y-75877253D01*
X153824642Y-75884611D01*
X153704659Y-76351214D01*
X153699280Y-76358373D01*
X153693328Y-76360000D01*
X153406672Y-76360000D01*
X153398399Y-76356573D01*
X153395341Y-76351214D01*
X153357154Y-76202712D01*
X153275357Y-75884609D01*
X153276615Y-75875745D01*
X153282174Y-75870903D01*
X153545490Y-75760883D01*
X153554444Y-75760857D01*
X153817823Y-75870902D01*
G37*
%TD.AperFunction*%
%TD*%
%TA.AperFunction,Conductor*%
%TO.N,+3.3V*%
G36*
X138951601Y-84893427D02*
G01*
X138954659Y-84898786D01*
X139074642Y-85365388D01*
X139073384Y-85374254D01*
X139067822Y-85379098D01*
X138804511Y-85489115D01*
X138795556Y-85489142D01*
X138795489Y-85489115D01*
X138532177Y-85379098D01*
X138525865Y-85372746D01*
X138525357Y-85365390D01*
X138645341Y-84898786D01*
X138650720Y-84891627D01*
X138656672Y-84890000D01*
X138943328Y-84890000D01*
X138951601Y-84893427D01*
G37*
%TD.AperFunction*%
%TD*%
%TA.AperFunction,Conductor*%
%TO.N,+3.3V*%
G36*
X153407254Y-73259615D02*
G01*
X153412098Y-73265177D01*
X153522115Y-73528489D01*
X153522142Y-73537444D01*
X153522115Y-73537511D01*
X153412098Y-73800822D01*
X153405746Y-73807134D01*
X153398388Y-73807642D01*
X152931786Y-73687659D01*
X152924627Y-73682280D01*
X152923000Y-73676328D01*
X152923000Y-73389671D01*
X152926427Y-73381398D01*
X152931783Y-73378341D01*
X153398389Y-73258357D01*
X153407254Y-73259615D01*
G37*
%TD.AperFunction*%
%TD*%
%TA.AperFunction,Conductor*%
%TO.N,+3.3V*%
G36*
X141561215Y-72362341D02*
G01*
X141568373Y-72367719D01*
X141570000Y-72373671D01*
X141570000Y-72660328D01*
X141566573Y-72668601D01*
X141561214Y-72671659D01*
X141094611Y-72791642D01*
X141085745Y-72790384D01*
X141080902Y-72784823D01*
X140970883Y-72521509D01*
X140970857Y-72512556D01*
X140970862Y-72512542D01*
X141080902Y-72249175D01*
X141087253Y-72242865D01*
X141094609Y-72242357D01*
X141561215Y-72362341D01*
G37*
%TD.AperFunction*%
%TD*%
%TA.AperFunction,Conductor*%
%TO.N,+3.3V*%
G36*
X151337823Y-86280902D02*
G01*
X151344134Y-86287253D01*
X151344642Y-86294611D01*
X151224659Y-86761214D01*
X151219280Y-86768373D01*
X151213328Y-86770000D01*
X150926672Y-86770000D01*
X150918399Y-86766573D01*
X150915341Y-86761214D01*
X150877154Y-86612712D01*
X150795357Y-86294609D01*
X150796615Y-86285745D01*
X150802174Y-86280903D01*
X151065490Y-86170883D01*
X151074444Y-86170857D01*
X151337823Y-86280902D01*
G37*
%TD.AperFunction*%
%TD*%
%TA.AperFunction,Conductor*%
%TO.N,+3.3V*%
G36*
X138451886Y-85019149D02*
G01*
X138904083Y-85208350D01*
X138910392Y-85214704D01*
X138910390Y-85223587D01*
X138801606Y-85488516D01*
X138799029Y-85492373D01*
X138597330Y-85692732D01*
X138589045Y-85696131D01*
X138580783Y-85692677D01*
X138579780Y-85691525D01*
X138235322Y-85239780D01*
X138233031Y-85231124D01*
X138236352Y-85224414D01*
X138439098Y-85021668D01*
X138447370Y-85018242D01*
X138451886Y-85019149D01*
G37*
%TD.AperFunction*%
%TD*%
%TA.AperFunction,Conductor*%
%TO.N,+3.3V*%
G36*
X144140335Y-70711388D02*
G01*
X144147533Y-70716715D01*
X144149204Y-70722741D01*
X144149204Y-71009404D01*
X144145777Y-71017677D01*
X144140510Y-71020711D01*
X143674671Y-71144541D01*
X143665795Y-71143355D01*
X143660870Y-71137746D01*
X143550883Y-70874509D01*
X143550857Y-70865556D01*
X143550862Y-70865542D01*
X143660930Y-70602108D01*
X143667282Y-70595797D01*
X143674556Y-70595267D01*
X144140335Y-70711388D01*
G37*
%TD.AperFunction*%
%TD*%
%TA.AperFunction,Conductor*%
%TO.N,+3.3V*%
G36*
X154194254Y-70586615D02*
G01*
X154199098Y-70592177D01*
X154309115Y-70855489D01*
X154309142Y-70864444D01*
X154309115Y-70864511D01*
X154199098Y-71127822D01*
X154192746Y-71134134D01*
X154185388Y-71134642D01*
X153718786Y-71014659D01*
X153711627Y-71009280D01*
X153710000Y-71003328D01*
X153710000Y-70716671D01*
X153713427Y-70708398D01*
X153718783Y-70705341D01*
X154185389Y-70585357D01*
X154194254Y-70586615D01*
G37*
%TD.AperFunction*%
%TD*%
%TA.AperFunction,Conductor*%
%TO.N,+3.3V*%
G36*
X141561215Y-73505341D02*
G01*
X141568373Y-73510719D01*
X141570000Y-73516671D01*
X141570000Y-73803328D01*
X141566573Y-73811601D01*
X141561214Y-73814659D01*
X141094611Y-73934642D01*
X141085745Y-73933384D01*
X141080902Y-73927823D01*
X140970883Y-73664509D01*
X140970857Y-73655556D01*
X140970862Y-73655542D01*
X141080902Y-73392175D01*
X141087253Y-73385865D01*
X141094609Y-73385357D01*
X141561215Y-73505341D01*
G37*
%TD.AperFunction*%
%TD*%
%TA.AperFunction,Conductor*%
%TO.N,+5V*%
G36*
X124162215Y-89507341D02*
G01*
X124169373Y-89512719D01*
X124171000Y-89518671D01*
X124171000Y-89805328D01*
X124167573Y-89813601D01*
X124162214Y-89816659D01*
X123695611Y-89936642D01*
X123686745Y-89935384D01*
X123681902Y-89929823D01*
X123571883Y-89666509D01*
X123571857Y-89657556D01*
X123571862Y-89657542D01*
X123681902Y-89394175D01*
X123688253Y-89387865D01*
X123695609Y-89387357D01*
X124162215Y-89507341D01*
G37*
%TD.AperFunction*%
%TD*%
%TA.AperFunction,Conductor*%
%TO.N,+5V*%
G36*
X147530215Y-90201841D02*
G01*
X147537373Y-90207219D01*
X147539000Y-90213171D01*
X147539000Y-90499828D01*
X147535573Y-90508101D01*
X147530214Y-90511159D01*
X147063611Y-90631142D01*
X147054745Y-90629884D01*
X147049902Y-90624323D01*
X146939883Y-90361009D01*
X146939857Y-90352056D01*
X146939862Y-90352042D01*
X147049902Y-90088675D01*
X147056253Y-90082365D01*
X147063609Y-90081857D01*
X147530215Y-90201841D01*
G37*
%TD.AperFunction*%
%TD*%
%TA.AperFunction,Conductor*%
%TO.N,/RESET*%
G36*
X151951601Y-75113427D02*
G01*
X151954659Y-75118786D01*
X152074642Y-75585388D01*
X152073384Y-75594254D01*
X152067822Y-75599098D01*
X151804511Y-75709115D01*
X151795556Y-75709142D01*
X151795489Y-75709115D01*
X151532177Y-75599098D01*
X151525865Y-75592746D01*
X151525357Y-75585390D01*
X151645341Y-75118786D01*
X151650720Y-75111627D01*
X151656672Y-75110000D01*
X151943328Y-75110000D01*
X151951601Y-75113427D01*
G37*
%TD.AperFunction*%
%TD*%
%TA.AperFunction,Conductor*%
%TO.N,/RESET*%
G36*
X150483918Y-81742755D02*
G01*
X151054606Y-81855733D01*
X151062055Y-81860701D01*
X151064033Y-81867210D01*
X151064033Y-82153883D01*
X151060606Y-82162156D01*
X151055929Y-82165017D01*
X150595047Y-82313856D01*
X150586121Y-82313137D01*
X150580656Y-82307234D01*
X150469910Y-82042178D01*
X150469007Y-82037636D01*
X150469952Y-81754192D01*
X150473406Y-81745932D01*
X150481691Y-81742533D01*
X150483918Y-81742755D01*
G37*
%TD.AperFunction*%
%TD*%
%TA.AperFunction,Conductor*%
%TO.N,+36V*%
G36*
X129570661Y-88949099D02*
G01*
X129773389Y-89151827D01*
X129776816Y-89160100D01*
X129775650Y-89165191D01*
X129564296Y-89602549D01*
X129557611Y-89608507D01*
X129549318Y-89608281D01*
X129283824Y-89499265D01*
X129279967Y-89496688D01*
X129080032Y-89295415D01*
X129076633Y-89287130D01*
X129080087Y-89278868D01*
X129081637Y-89277576D01*
X129555707Y-88947767D01*
X129564455Y-88945856D01*
X129570661Y-88949099D01*
G37*
%TD.AperFunction*%
%TD*%
%TA.AperFunction,Conductor*%
%TO.N,+36V*%
G36*
X129284519Y-89497569D02*
G01*
X129546441Y-89607005D01*
X129552753Y-89613357D01*
X129552726Y-89622312D01*
X129551683Y-89624264D01*
X129273170Y-90044505D01*
X129265743Y-90049509D01*
X129263417Y-90049742D01*
X129001833Y-90049742D01*
X128993560Y-90046315D01*
X128990134Y-90038211D01*
X128983917Y-89607005D01*
X128982511Y-89509486D01*
X128985818Y-89501166D01*
X128994041Y-89497620D01*
X129279977Y-89496666D01*
X129284519Y-89497569D01*
G37*
%TD.AperFunction*%
%TD*%
%TA.AperFunction,Conductor*%
%TO.N,+36V*%
G36*
X125899415Y-85326388D02*
G01*
X126102111Y-85529084D01*
X126105538Y-85537357D01*
X126103911Y-85543309D01*
X125858814Y-85958088D01*
X125851655Y-85963467D01*
X125844297Y-85962959D01*
X125785272Y-85938722D01*
X125580315Y-85854563D01*
X125573963Y-85848251D01*
X125573936Y-85848184D01*
X125551700Y-85794033D01*
X125465540Y-85584200D01*
X125465567Y-85575247D01*
X125470409Y-85569686D01*
X125885190Y-85324587D01*
X125894056Y-85323330D01*
X125899415Y-85326388D01*
G37*
%TD.AperFunction*%
%TD*%
%TA.AperFunction,Conductor*%
%TO.N,+36V*%
G36*
X129569634Y-89497616D02*
G01*
X129577895Y-89501070D01*
X129581294Y-89509355D01*
X129581251Y-89510319D01*
X129533320Y-90067537D01*
X129529197Y-90075486D01*
X129521663Y-90078234D01*
X129234979Y-90078234D01*
X129226706Y-90074807D01*
X129224421Y-90071576D01*
X129010476Y-89623561D01*
X129010003Y-89614619D01*
X129015992Y-89607961D01*
X129016509Y-89607728D01*
X129280163Y-89497568D01*
X129284703Y-89496666D01*
X129569634Y-89497616D01*
G37*
%TD.AperFunction*%
%TD*%
%TA.AperFunction,Conductor*%
%TO.N,+36V*%
G36*
X125578678Y-85851910D02*
G01*
X125823314Y-85954124D01*
X125843078Y-85962382D01*
X125849390Y-85968734D01*
X125849449Y-85977476D01*
X125670856Y-86429654D01*
X125669824Y-86432266D01*
X125663598Y-86438702D01*
X125658942Y-86439668D01*
X125372219Y-86439668D01*
X125363946Y-86436241D01*
X125360641Y-86429654D01*
X125293503Y-85968734D01*
X125278443Y-85865340D01*
X125280642Y-85856661D01*
X125288335Y-85852077D01*
X125289981Y-85851955D01*
X125574136Y-85851007D01*
X125578678Y-85851910D01*
G37*
%TD.AperFunction*%
%TD*%
%TA.AperFunction,Conductor*%
%TO.N,/DRV8323RSRGZR/PHASC*%
G36*
X151371805Y-99544836D02*
G01*
X151257707Y-99822707D01*
X150979836Y-99936805D01*
X150776161Y-99454312D01*
X150889312Y-99341161D01*
X151371805Y-99544836D01*
G37*
%TD.AperFunction*%
%TD*%
%TA.AperFunction,Conductor*%
%TO.N,/SPI1_NSS*%
G36*
X149580917Y-76247338D02*
G01*
X149583194Y-76250552D01*
X149804248Y-76711552D01*
X149804735Y-76720494D01*
X149798757Y-76727161D01*
X149798209Y-76727407D01*
X149536921Y-76836579D01*
X149527966Y-76836606D01*
X149527899Y-76836579D01*
X149403486Y-76784596D01*
X149265366Y-76726887D01*
X149259055Y-76720536D01*
X149258815Y-76712287D01*
X149417274Y-76251804D01*
X149423206Y-76245096D01*
X149428337Y-76243911D01*
X149572644Y-76243911D01*
X149580917Y-76247338D01*
G37*
%TD.AperFunction*%
%TD*%
%TA.AperFunction,Conductor*%
%TO.N,/SWDIO*%
G36*
X142694669Y-85852086D02*
G01*
X142700981Y-85858438D01*
X142701472Y-85865864D01*
X142582308Y-86317952D01*
X142576885Y-86325079D01*
X142570994Y-86326670D01*
X142426763Y-86326670D01*
X142418490Y-86323243D01*
X142416617Y-86320796D01*
X142156348Y-85867520D01*
X142155200Y-85858639D01*
X142160668Y-85851548D01*
X142161969Y-85850904D01*
X142422395Y-85742092D01*
X142431349Y-85742066D01*
X142694669Y-85852086D01*
G37*
%TD.AperFunction*%
%TD*%
%TA.AperFunction,Conductor*%
%TO.N,/SWCLK*%
G36*
X143182252Y-85769741D02*
G01*
X143249454Y-85837260D01*
X143382398Y-85970831D01*
X143385805Y-85979113D01*
X143382378Y-85987358D01*
X143366421Y-86003316D01*
X143366420Y-86003317D01*
X143366420Y-86003318D01*
X143355235Y-86014502D01*
X143349245Y-86017703D01*
X143336078Y-86020323D01*
X143336077Y-86020323D01*
X143260693Y-86070692D01*
X143260692Y-86070693D01*
X143210323Y-86146077D01*
X143210323Y-86146078D01*
X143205835Y-86168637D01*
X143202779Y-86174479D01*
X143083460Y-86298120D01*
X143075249Y-86301693D01*
X143075041Y-86301695D01*
X142930823Y-86301695D01*
X142922550Y-86298268D01*
X142919158Y-86290893D01*
X142879820Y-85779880D01*
X142882601Y-85771370D01*
X142890587Y-85767319D01*
X142891418Y-85767285D01*
X143173968Y-85766343D01*
X143182252Y-85769741D01*
G37*
%TD.AperFunction*%
%TD*%
%TA.AperFunction,Conductor*%
%TO.N,/MCU_STA*%
G36*
X148293256Y-71324729D02*
G01*
X148395270Y-71426743D01*
X148398697Y-71435016D01*
X148397776Y-71439566D01*
X148201669Y-71904131D01*
X148195294Y-71910420D01*
X148186446Y-71910404D01*
X147923815Y-71802563D01*
X147917463Y-71796251D01*
X147917436Y-71796184D01*
X147887894Y-71724239D01*
X147809595Y-71533551D01*
X147809622Y-71524598D01*
X147815866Y-71518331D01*
X148280434Y-71322222D01*
X148289387Y-71322163D01*
X148293256Y-71324729D01*
G37*
%TD.AperFunction*%
%TD*%
%TA.AperFunction,Conductor*%
%TO.N,/MCU_STA*%
G36*
X145443256Y-76337129D02*
G01*
X145545270Y-76439143D01*
X145548697Y-76447416D01*
X145547776Y-76451966D01*
X145351669Y-76916531D01*
X145345294Y-76922820D01*
X145336446Y-76922804D01*
X145073815Y-76814963D01*
X145067463Y-76808651D01*
X145067436Y-76808584D01*
X145037894Y-76736639D01*
X144959595Y-76545951D01*
X144959622Y-76536998D01*
X144965866Y-76530731D01*
X145005930Y-76513819D01*
X145010473Y-76512899D01*
X145097446Y-76512899D01*
X145163922Y-76499677D01*
X145239307Y-76449307D01*
X145269008Y-76404855D01*
X145274177Y-76400583D01*
X145430434Y-76334622D01*
X145439388Y-76334563D01*
X145443256Y-76337129D01*
G37*
%TD.AperFunction*%
%TD*%
%TA.AperFunction,Conductor*%
%TO.N,/DRV_STA*%
G36*
X149760409Y-71213427D02*
G01*
X149762975Y-71217296D01*
X149952802Y-71684461D01*
X149952742Y-71693415D01*
X149946474Y-71699661D01*
X149684511Y-71809115D01*
X149675556Y-71809142D01*
X149675489Y-71809115D01*
X149413525Y-71699661D01*
X149407213Y-71693309D01*
X149407197Y-71684462D01*
X149597025Y-71217295D01*
X149603314Y-71210921D01*
X149607864Y-71210000D01*
X149752136Y-71210000D01*
X149760409Y-71213427D01*
G37*
%TD.AperFunction*%
%TD*%
%TA.AperFunction,Conductor*%
%TO.N,/DRV_STA*%
G36*
X146080409Y-76215827D02*
G01*
X146082975Y-76219696D01*
X146272802Y-76686861D01*
X146272742Y-76695815D01*
X146266474Y-76702061D01*
X146004511Y-76811515D01*
X145995556Y-76811542D01*
X145995489Y-76811515D01*
X145733525Y-76702061D01*
X145727213Y-76695709D01*
X145727197Y-76686862D01*
X145917025Y-76219695D01*
X145923314Y-76213321D01*
X145927864Y-76212400D01*
X146072136Y-76212400D01*
X146080409Y-76215827D01*
G37*
%TD.AperFunction*%
%TD*%
%TA.AperFunction,Conductor*%
%TO.N,/SPI3_MISO*%
G36*
X136873415Y-83501871D02*
G01*
X136879661Y-83508139D01*
X136989115Y-83770103D01*
X136989142Y-83779058D01*
X136989115Y-83779125D01*
X136879661Y-84041088D01*
X136873309Y-84047400D01*
X136864461Y-84047416D01*
X136397296Y-83857588D01*
X136390921Y-83851299D01*
X136390000Y-83846749D01*
X136390000Y-83702478D01*
X136393427Y-83694205D01*
X136397292Y-83691640D01*
X136411047Y-83686051D01*
X136415654Y-83685195D01*
X136457853Y-83685969D01*
X136459059Y-83685987D01*
X136459246Y-83685989D01*
X136483010Y-83681424D01*
X136485217Y-83681214D01*
X136537753Y-83681214D01*
X136662712Y-83644522D01*
X136772272Y-83574113D01*
X136817037Y-83522449D01*
X136821461Y-83519284D01*
X136864462Y-83501811D01*
X136873415Y-83501871D01*
G37*
%TD.AperFunction*%
%TD*%
%TA.AperFunction,Conductor*%
%TO.N,/SPI3_MISO*%
G36*
X144836029Y-84004313D02*
G01*
X144842341Y-84010665D01*
X144842314Y-84019620D01*
X144841685Y-84020898D01*
X144656587Y-84345979D01*
X144584950Y-84471795D01*
X144583376Y-84474559D01*
X144576305Y-84480053D01*
X144573209Y-84480470D01*
X144428970Y-84480470D01*
X144420697Y-84477043D01*
X144417668Y-84471795D01*
X144296543Y-84019288D01*
X144297714Y-84010410D01*
X144303332Y-84005468D01*
X144566553Y-83895488D01*
X144575507Y-83895462D01*
X144836029Y-84004313D01*
G37*
%TD.AperFunction*%
%TD*%
%TA.AperFunction,Conductor*%
%TO.N,/SPI3_SCK*%
G36*
X136963010Y-82421323D02*
G01*
X136969256Y-82427591D01*
X137078710Y-82689555D01*
X137078737Y-82698510D01*
X137078710Y-82698577D01*
X136969256Y-82960540D01*
X136962904Y-82966852D01*
X136954056Y-82966868D01*
X136788897Y-82899757D01*
X136784459Y-82896580D01*
X136772272Y-82882515D01*
X136662712Y-82812106D01*
X136662713Y-82812106D01*
X136537754Y-82775414D01*
X136537753Y-82775414D01*
X136491295Y-82775414D01*
X136483022Y-82771987D01*
X136479595Y-82763714D01*
X136479595Y-82626256D01*
X136483022Y-82617983D01*
X136491295Y-82614556D01*
X136590316Y-82614556D01*
X136715275Y-82577864D01*
X136824835Y-82507455D01*
X136868050Y-82457581D01*
X136872477Y-82454412D01*
X136954057Y-82421263D01*
X136963010Y-82421323D01*
G37*
%TD.AperFunction*%
%TD*%
%TA.AperFunction,Conductor*%
%TO.N,/SPI3_SCK*%
G36*
X144256145Y-82551844D02*
G01*
X144276712Y-82560438D01*
X144283024Y-82566790D01*
X144283137Y-82575393D01*
X144106562Y-83039737D01*
X144100418Y-83046251D01*
X144095626Y-83047278D01*
X143951329Y-83047278D01*
X143943056Y-83043851D01*
X143940608Y-83040263D01*
X143737596Y-82575699D01*
X143737424Y-82566748D01*
X143743633Y-82560295D01*
X143743725Y-82560255D01*
X144005490Y-82450883D01*
X144014444Y-82450857D01*
X144256145Y-82551844D01*
G37*
%TD.AperFunction*%
%TD*%
%TA.AperFunction,Conductor*%
%TO.N,/SPI3_MOSI*%
G36*
X136268804Y-83024447D02*
G01*
X136269219Y-83024839D01*
X136469877Y-83224164D01*
X136473331Y-83232426D01*
X136473331Y-83232493D01*
X136472663Y-83516426D01*
X136469217Y-83524691D01*
X136460935Y-83528098D01*
X136460748Y-83528096D01*
X136026379Y-83520130D01*
X136018321Y-83516705D01*
X135916362Y-83414746D01*
X135912935Y-83406473D01*
X135915942Y-83398642D01*
X136252282Y-83025307D01*
X136260364Y-83021456D01*
X136268804Y-83024447D01*
G37*
%TD.AperFunction*%
%TD*%
%TA.AperFunction,Conductor*%
%TO.N,/SPI3_MOSI*%
G36*
X145301282Y-84080092D02*
G01*
X145303851Y-84083929D01*
X145411788Y-84345452D01*
X145411777Y-84354407D01*
X145406922Y-84359990D01*
X145082763Y-84551424D01*
X145076814Y-84553050D01*
X144933848Y-84553050D01*
X144925575Y-84549623D01*
X144922148Y-84541350D01*
X144922314Y-84539388D01*
X144999203Y-84087372D01*
X145003968Y-84079791D01*
X145010697Y-84077634D01*
X145292997Y-84076693D01*
X145301282Y-84080092D01*
G37*
%TD.AperFunction*%
%TD*%
%TA.AperFunction,Conductor*%
%TO.N,GND1*%
G36*
X133487230Y-91036507D02*
G01*
X133490638Y-91044115D01*
X133519298Y-91547676D01*
X133516347Y-91556131D01*
X133508282Y-91560022D01*
X133507656Y-91560041D01*
X133224885Y-91560983D01*
X133216600Y-91557584D01*
X133216553Y-91557537D01*
X133206738Y-91547676D01*
X133016197Y-91356236D01*
X133012790Y-91347954D01*
X133016234Y-91339691D01*
X133326580Y-91036411D01*
X133334757Y-91033080D01*
X133478957Y-91033080D01*
X133487230Y-91036507D01*
G37*
%TD.AperFunction*%
%TD*%
%TA.AperFunction,Conductor*%
%TO.N,/USART1_TX*%
G36*
X147765838Y-74384449D02*
G01*
X147941375Y-74560814D01*
X147964807Y-74584356D01*
X147968214Y-74592638D01*
X147964768Y-74600903D01*
X147963272Y-74602161D01*
X147881033Y-74660346D01*
X147876558Y-74662270D01*
X147836078Y-74670323D01*
X147836077Y-74670323D01*
X147760693Y-74720692D01*
X147760692Y-74720693D01*
X147730469Y-74765924D01*
X147727499Y-74768975D01*
X147583047Y-74871180D01*
X147576289Y-74873329D01*
X147432745Y-74873329D01*
X147424472Y-74869902D01*
X147421045Y-74861629D01*
X147421088Y-74860622D01*
X147444243Y-74592638D01*
X147461519Y-74392691D01*
X147465646Y-74384744D01*
X147473136Y-74381999D01*
X147757554Y-74381051D01*
X147765838Y-74384449D01*
G37*
%TD.AperFunction*%
%TD*%
%TA.AperFunction,Conductor*%
%TO.N,/USART1_RX*%
G36*
X147286062Y-74370166D02*
G01*
X147292373Y-74376517D01*
X147292346Y-74385472D01*
X147292214Y-74385773D01*
X147083118Y-74849134D01*
X147076592Y-74855266D01*
X147072454Y-74856022D01*
X146928151Y-74856022D01*
X146919878Y-74852595D01*
X146917171Y-74848364D01*
X146879857Y-74747008D01*
X146746707Y-74385320D01*
X146747065Y-74376374D01*
X146753174Y-74370485D01*
X147015490Y-74260883D01*
X147024444Y-74260857D01*
X147286062Y-74370166D01*
G37*
%TD.AperFunction*%
%TD*%
%TA.AperFunction,Conductor*%
%TO.N,/FDCAN_STB*%
G36*
X152463991Y-88149799D02*
G01*
X152726494Y-88258140D01*
X152732833Y-88264463D01*
X152732852Y-88264510D01*
X152840089Y-88525680D01*
X152840062Y-88534635D01*
X152833710Y-88540947D01*
X152833062Y-88541191D01*
X152309718Y-88720694D01*
X152300781Y-88720137D01*
X152294855Y-88713423D01*
X152294222Y-88709627D01*
X152294222Y-88568121D01*
X152294974Y-88563994D01*
X152448580Y-88156485D01*
X152454704Y-88149955D01*
X152463654Y-88149666D01*
X152463991Y-88149799D01*
G37*
%TD.AperFunction*%
%TD*%
%TA.AperFunction,Conductor*%
%TO.N,/FDCAN_STB*%
G36*
X145579144Y-88429752D02*
G01*
X145582223Y-88435191D01*
X145694720Y-88885850D01*
X145693399Y-88894707D01*
X145687879Y-88899480D01*
X145424502Y-89009525D01*
X145415547Y-89009552D01*
X145415480Y-89009525D01*
X145155221Y-88900783D01*
X145148909Y-88894431D01*
X145148936Y-88885476D01*
X145149651Y-88884050D01*
X145416594Y-88432075D01*
X145423752Y-88426694D01*
X145426668Y-88426325D01*
X145570871Y-88426325D01*
X145579144Y-88429752D01*
G37*
%TD.AperFunction*%
%TD*%
%TA.AperFunction,Conductor*%
%TO.N,/ADC1_IN2*%
G36*
X149761549Y-79435870D02*
G01*
X149767924Y-79442159D01*
X149768845Y-79446709D01*
X149768845Y-79582155D01*
X149765418Y-79590428D01*
X149757145Y-79593855D01*
X149735218Y-79593855D01*
X149703933Y-79596986D01*
X149700213Y-79597738D01*
X149699382Y-79597907D01*
X149699380Y-79597907D01*
X149699373Y-79597909D01*
X149669272Y-79607203D01*
X149669258Y-79607208D01*
X149450956Y-79699361D01*
X149442672Y-79704948D01*
X149439428Y-79706473D01*
X149426422Y-79710292D01*
X149316863Y-79780700D01*
X149316861Y-79780702D01*
X149316273Y-79781381D01*
X149311841Y-79784552D01*
X149294384Y-79791646D01*
X149285429Y-79791586D01*
X149279183Y-79785318D01*
X149277254Y-79780702D01*
X149169728Y-79523354D01*
X149169702Y-79514401D01*
X149169707Y-79514387D01*
X149279184Y-79252368D01*
X149285535Y-79246058D01*
X149294382Y-79246042D01*
X149761549Y-79435870D01*
G37*
%TD.AperFunction*%
%TD*%
%TA.AperFunction,Conductor*%
%TO.N,/TIM1_CH1N*%
G36*
X131422892Y-80963806D02*
G01*
X131431152Y-80967260D01*
X131434551Y-80975545D01*
X131434551Y-80975579D01*
X131431528Y-81462409D01*
X131428050Y-81470660D01*
X131419828Y-81474036D01*
X131275752Y-81474036D01*
X131268153Y-81471232D01*
X131267483Y-81470660D01*
X131182076Y-81397707D01*
X131179032Y-81393672D01*
X131175302Y-81385504D01*
X131090017Y-81287079D01*
X130980457Y-81216670D01*
X130967121Y-81212753D01*
X130962819Y-81210423D01*
X130932093Y-81184178D01*
X130928028Y-81176199D01*
X130930796Y-81167683D01*
X130931386Y-81167041D01*
X131131179Y-80966307D01*
X131139441Y-80962862D01*
X131422892Y-80963806D01*
G37*
%TD.AperFunction*%
%TD*%
%TA.AperFunction,Conductor*%
%TO.N,/TIM1_CH1N*%
G36*
X143291341Y-79526855D02*
G01*
X143292739Y-79528542D01*
X143549646Y-79905799D01*
X143551470Y-79914566D01*
X143548276Y-79920631D01*
X143349193Y-80121046D01*
X143340931Y-80124500D01*
X143336402Y-80123604D01*
X143269054Y-80095607D01*
X143077311Y-80015898D01*
X143070987Y-80009558D01*
X143070998Y-80000603D01*
X143071119Y-80000323D01*
X143093495Y-79951329D01*
X143105309Y-79869157D01*
X143105608Y-79867734D01*
X143170811Y-79632979D01*
X143173809Y-79627841D01*
X143274796Y-79526854D01*
X143283068Y-79523428D01*
X143291341Y-79526855D01*
G37*
%TD.AperFunction*%
%TD*%
%TA.AperFunction,Conductor*%
%TO.N,/DRV_SPI_NSS*%
G36*
X143405754Y-82487120D02*
G01*
X143412066Y-82493472D01*
X143412082Y-82502320D01*
X143222255Y-82969486D01*
X143215966Y-82975861D01*
X143211416Y-82976782D01*
X143067144Y-82976782D01*
X143058871Y-82973355D01*
X143056305Y-82969486D01*
X142866477Y-82502320D01*
X142866537Y-82493366D01*
X142872803Y-82487121D01*
X143134770Y-82377665D01*
X143143724Y-82377639D01*
X143405754Y-82487120D01*
G37*
%TD.AperFunction*%
%TD*%
%TA.AperFunction,Conductor*%
%TO.N,/DRV_SPI_NSS*%
G36*
X136408614Y-81888913D02*
G01*
X136414860Y-81895181D01*
X136524314Y-82157145D01*
X136524341Y-82166100D01*
X136524314Y-82166167D01*
X136414860Y-82428130D01*
X136408508Y-82434442D01*
X136399660Y-82434458D01*
X135932495Y-82244630D01*
X135926120Y-82238341D01*
X135925199Y-82233791D01*
X135925199Y-82089520D01*
X135928626Y-82081247D01*
X135932493Y-82078681D01*
X136399661Y-81888853D01*
X136408614Y-81888913D01*
G37*
%TD.AperFunction*%
%TD*%
%TA.AperFunction,Conductor*%
%TO.N,/TIM1_CH3N*%
G36*
X129869920Y-83006623D02*
G01*
X129870342Y-83007072D01*
X130206134Y-83383539D01*
X130209084Y-83391993D01*
X130205676Y-83399599D01*
X130103711Y-83501564D01*
X130095570Y-83504990D01*
X129661804Y-83509867D01*
X129653492Y-83506534D01*
X129649973Y-83498300D01*
X129649972Y-83498196D01*
X129649740Y-83399599D01*
X129649304Y-83214177D01*
X129652710Y-83205898D01*
X129853374Y-83006567D01*
X129861658Y-83003169D01*
X129869920Y-83006623D01*
G37*
%TD.AperFunction*%
%TD*%
%TA.AperFunction,Conductor*%
%TO.N,/TIM1_CH3N*%
G36*
X141853416Y-79237257D02*
G01*
X141859662Y-79243525D01*
X141969116Y-79505489D01*
X141969143Y-79514444D01*
X141969116Y-79514511D01*
X141859662Y-79776474D01*
X141853310Y-79782786D01*
X141844462Y-79782802D01*
X141377297Y-79592974D01*
X141370922Y-79586685D01*
X141370001Y-79582135D01*
X141370001Y-79437864D01*
X141373428Y-79429591D01*
X141377295Y-79427025D01*
X141844463Y-79237197D01*
X141853416Y-79237257D01*
G37*
%TD.AperFunction*%
%TD*%
%TA.AperFunction,Conductor*%
%TO.N,/TIM1_CH3*%
G36*
X130088737Y-82323184D02*
G01*
X130094799Y-82328969D01*
X130304820Y-82772088D01*
X130305266Y-82781032D01*
X130302520Y-82785372D01*
X130200480Y-82887412D01*
X130192207Y-82890839D01*
X130188189Y-82890127D01*
X129709504Y-82715090D01*
X129702911Y-82709031D01*
X129702534Y-82700084D01*
X129702699Y-82699658D01*
X129810319Y-82437563D01*
X129816629Y-82431212D01*
X130079784Y-82323157D01*
X130088737Y-82323184D01*
G37*
%TD.AperFunction*%
%TD*%
%TA.AperFunction,Conductor*%
%TO.N,/TIM1_CH3*%
G36*
X143475099Y-81502841D02*
G01*
X143481345Y-81509109D01*
X143590799Y-81771073D01*
X143590826Y-81780028D01*
X143590799Y-81780095D01*
X143481345Y-82042057D01*
X143474993Y-82048369D01*
X143466145Y-82048385D01*
X143449993Y-82041822D01*
X143445555Y-82038645D01*
X143438916Y-82030983D01*
X143329356Y-81960574D01*
X143329357Y-81960574D01*
X143204398Y-81923882D01*
X143204397Y-81923882D01*
X143162025Y-81923882D01*
X143157621Y-81923021D01*
X143119642Y-81907588D01*
X142998980Y-81858558D01*
X142992605Y-81852269D01*
X142991684Y-81847719D01*
X142991684Y-81712274D01*
X142995111Y-81704001D01*
X143003384Y-81700574D01*
X143111525Y-81700574D01*
X143111531Y-81700574D01*
X143138440Y-81697877D01*
X143142848Y-81697436D01*
X143142849Y-81697435D01*
X143142857Y-81697435D01*
X143147407Y-81696514D01*
X143177490Y-81687222D01*
X143231573Y-81664391D01*
X143239860Y-81658802D01*
X143243094Y-81657282D01*
X143256109Y-81653461D01*
X143365669Y-81583052D01*
X143416585Y-81524290D01*
X143421015Y-81521119D01*
X143466146Y-81502781D01*
X143475099Y-81502841D01*
G37*
%TD.AperFunction*%
%TD*%
%TA.AperFunction,Conductor*%
%TO.N,/TIM1_CH2*%
G36*
X131077785Y-81632848D02*
G01*
X131086050Y-81636294D01*
X131089457Y-81644576D01*
X131089423Y-81645438D01*
X131054258Y-82106584D01*
X131050865Y-82113967D01*
X130949237Y-82215595D01*
X130940964Y-82219022D01*
X130932691Y-82215595D01*
X130932509Y-82215409D01*
X130586132Y-81853252D01*
X130582890Y-81844904D01*
X130586286Y-81836919D01*
X130786232Y-81635635D01*
X130794492Y-81632182D01*
X131077785Y-81632848D01*
G37*
%TD.AperFunction*%
%TD*%
%TA.AperFunction,Conductor*%
%TO.N,/TIM1_CH2*%
G36*
X142803730Y-81128550D02*
G01*
X143062217Y-81234689D01*
X143068569Y-81241001D01*
X143068596Y-81241068D01*
X143176437Y-81503699D01*
X143176410Y-81512654D01*
X143170164Y-81518922D01*
X143116081Y-81541753D01*
X143111531Y-81542674D01*
X142923198Y-81542674D01*
X142837598Y-81578131D01*
X142706264Y-81709465D01*
X142697991Y-81712892D01*
X142689718Y-81709465D01*
X142593821Y-81613568D01*
X142590394Y-81605295D01*
X142593821Y-81597022D01*
X142597452Y-81593391D01*
X142607837Y-81568317D01*
X142632911Y-81507787D01*
X142632911Y-81494270D01*
X142633832Y-81489720D01*
X142663012Y-81420591D01*
X142769244Y-81182962D01*
X142776766Y-81162427D01*
X142777666Y-81159318D01*
X142777705Y-81159134D01*
X142778501Y-81156722D01*
X142788645Y-81134510D01*
X142795197Y-81128411D01*
X142803730Y-81128550D01*
G37*
%TD.AperFunction*%
%TD*%
%TA.AperFunction,Conductor*%
%TO.N,/TIM1_CH2N*%
G36*
X142563508Y-79239171D02*
G01*
X142564296Y-79240042D01*
X142784718Y-79510000D01*
X142859936Y-79602121D01*
X142862514Y-79610697D01*
X142859174Y-79617767D01*
X142658621Y-79819661D01*
X142650359Y-79823115D01*
X142650292Y-79823115D01*
X142368496Y-79822452D01*
X142360231Y-79819006D01*
X142356824Y-79810724D01*
X142357017Y-79808634D01*
X142374068Y-79716290D01*
X142374925Y-79713573D01*
X142409024Y-79638909D01*
X142427558Y-79510000D01*
X142421089Y-79465006D01*
X142421163Y-79461231D01*
X142442303Y-79346744D01*
X142445532Y-79340602D01*
X142546965Y-79239169D01*
X142555235Y-79235744D01*
X142563508Y-79239171D01*
G37*
%TD.AperFunction*%
%TD*%
%TA.AperFunction,Conductor*%
%TO.N,/TIM1_CH2N*%
G36*
X130332499Y-81717289D02*
G01*
X130340763Y-81720735D01*
X130344070Y-81727461D01*
X130399649Y-82149454D01*
X130397332Y-82158104D01*
X130396322Y-82159255D01*
X130294390Y-82261187D01*
X130286117Y-82264614D01*
X130279145Y-82262310D01*
X130277632Y-82261187D01*
X130210979Y-82211723D01*
X130207311Y-82207191D01*
X130197804Y-82186374D01*
X130112519Y-82087949D01*
X130002959Y-82017540D01*
X130002960Y-82017540D01*
X129916187Y-81992060D01*
X129912511Y-81990230D01*
X129841455Y-81937500D01*
X129836853Y-81929817D01*
X129839031Y-81921132D01*
X129840126Y-81919858D01*
X130038585Y-81720071D01*
X130046845Y-81716618D01*
X130332499Y-81717289D01*
G37*
%TD.AperFunction*%
%TD*%
%TA.AperFunction,Conductor*%
%TO.N,/TIM1_CH1*%
G36*
X132101084Y-80778670D02*
G01*
X132107396Y-80785022D01*
X132107412Y-80793870D01*
X131917585Y-81261036D01*
X131911296Y-81267411D01*
X131906746Y-81268332D01*
X131762474Y-81268332D01*
X131754201Y-81264905D01*
X131751635Y-81261036D01*
X131561807Y-80793870D01*
X131561867Y-80784916D01*
X131568133Y-80778671D01*
X131830100Y-80669215D01*
X131839054Y-80669189D01*
X132101084Y-80778670D01*
G37*
%TD.AperFunction*%
%TD*%
%TA.AperFunction,Conductor*%
%TO.N,/TIM1_CH1*%
G36*
X142664660Y-80996820D02*
G01*
X142670971Y-81003171D01*
X142670944Y-81012126D01*
X142670791Y-81012475D01*
X142627009Y-81108345D01*
X142627009Y-81108347D01*
X142625993Y-81115411D01*
X142625093Y-81118520D01*
X142445279Y-81520747D01*
X142438774Y-81526901D01*
X142429823Y-81526653D01*
X142426325Y-81524245D01*
X142326602Y-81424522D01*
X142324330Y-81421317D01*
X142178811Y-81118520D01*
X142128184Y-81013175D01*
X142127690Y-81004235D01*
X142133662Y-80997563D01*
X142134216Y-80997313D01*
X142396206Y-80888403D01*
X142405159Y-80888393D01*
X142664660Y-80996820D01*
G37*
%TD.AperFunction*%
%TD*%
%TA.AperFunction,Conductor*%
%TO.N,/ADC1_IN1*%
G36*
X149992814Y-79654287D02*
G01*
X150091770Y-79753243D01*
X150095197Y-79761516D01*
X150094276Y-79766066D01*
X149898169Y-80230631D01*
X149891794Y-80236920D01*
X149882946Y-80236904D01*
X149620315Y-80129063D01*
X149613963Y-80122751D01*
X149613936Y-80122684D01*
X149584394Y-80050739D01*
X149506095Y-79860051D01*
X149506122Y-79851098D01*
X149512366Y-79844831D01*
X149730676Y-79752675D01*
X149735226Y-79751755D01*
X149828654Y-79751755D01*
X149828656Y-79751755D01*
X149914260Y-79716297D01*
X149976271Y-79654285D01*
X149984541Y-79650860D01*
X149992814Y-79654287D01*
G37*
%TD.AperFunction*%
%TD*%
%TA.AperFunction,Conductor*%
%TO.N,GND*%
G36*
X123729015Y-83665463D02*
G01*
X123736272Y-83670708D01*
X123738011Y-83676846D01*
X123738011Y-83963516D01*
X123734584Y-83971789D01*
X123729454Y-83974786D01*
X123264759Y-84104387D01*
X123255869Y-84103309D01*
X123250821Y-84097629D01*
X123140883Y-83834509D01*
X123140857Y-83825556D01*
X123140862Y-83825542D01*
X123250974Y-83562003D01*
X123257326Y-83555692D01*
X123264472Y-83555132D01*
X123729015Y-83665463D01*
G37*
%TD.AperFunction*%
%TD*%
M02*
