%TF.GenerationSoftware,KiCad,Pcbnew,7.0.6*%
%TF.CreationDate,2023-10-03T21:22:34+08:00*%
%TF.ProjectId,CawDrive,43617744-7269-4766-952e-6b696361645f,rev?*%
%TF.SameCoordinates,Original*%
%TF.FileFunction,Copper,L4,Bot*%
%TF.FilePolarity,Positive*%
%FSLAX46Y46*%
G04 Gerber Fmt 4.6, Leading zero omitted, Abs format (unit mm)*
G04 Created by KiCad (PCBNEW 7.0.6) date 2023-10-03 21:22:34*
%MOMM*%
%LPD*%
G01*
G04 APERTURE LIST*
G04 Aperture macros list*
%AMRoundRect*
0 Rectangle with rounded corners*
0 $1 Rounding radius*
0 $2 $3 $4 $5 $6 $7 $8 $9 X,Y pos of 4 corners*
0 Add a 4 corners polygon primitive as box body*
4,1,4,$2,$3,$4,$5,$6,$7,$8,$9,$2,$3,0*
0 Add four circle primitives for the rounded corners*
1,1,$1+$1,$2,$3*
1,1,$1+$1,$4,$5*
1,1,$1+$1,$6,$7*
1,1,$1+$1,$8,$9*
0 Add four rect primitives between the rounded corners*
20,1,$1+$1,$2,$3,$4,$5,0*
20,1,$1+$1,$4,$5,$6,$7,0*
20,1,$1+$1,$6,$7,$8,$9,0*
20,1,$1+$1,$8,$9,$2,$3,0*%
G04 Aperture macros list end*
%TA.AperFunction,ComponentPad*%
%ADD10RoundRect,0.750000X-0.750000X-0.750000X0.750000X-0.750000X0.750000X0.750000X-0.750000X0.750000X0*%
%TD*%
%TA.AperFunction,ComponentPad*%
%ADD11C,0.800000*%
%TD*%
%TA.AperFunction,ComponentPad*%
%ADD12C,5.000000*%
%TD*%
%TA.AperFunction,ViaPad*%
%ADD13C,0.600000*%
%TD*%
%TA.AperFunction,ViaPad*%
%ADD14C,0.800000*%
%TD*%
%TA.AperFunction,Conductor*%
%ADD15C,0.304800*%
%TD*%
%TA.AperFunction,Conductor*%
%ADD16C,0.160020*%
%TD*%
G04 APERTURE END LIST*
D10*
%TO.P,H8,1,1*%
%TO.N,GND1*%
X158000000Y-96000000D03*
%TD*%
D11*
%TO.P,H2,1,1*%
%TO.N,unconnected-(H2-Pad1)*%
X155125000Y-73125000D03*
X155674175Y-71799175D03*
X155674175Y-74450825D03*
X157000000Y-71250000D03*
D12*
X157000000Y-73125000D03*
D11*
X157000000Y-75000000D03*
X158325825Y-71799175D03*
X158325825Y-74450825D03*
X158875000Y-73125000D03*
%TD*%
D10*
%TO.P,H6,1,1*%
%TO.N,/DRV8323RSRGZR/PHASB*%
X140000000Y-108000000D03*
%TD*%
D11*
%TO.P,H4,1,1*%
%TO.N,unconnected-(H4-Pad1)*%
X121000000Y-107000000D03*
X121549175Y-105674175D03*
X121549175Y-108325825D03*
X122875000Y-105125000D03*
D12*
X122875000Y-107000000D03*
D11*
X122875000Y-108875000D03*
X124200825Y-105674175D03*
X124200825Y-108325825D03*
X124750000Y-107000000D03*
%TD*%
D10*
%TO.P,H7,1,1*%
%TO.N,/DRV8323RSRGZR/PHASC*%
X149000000Y-108000000D03*
%TD*%
%TO.P,H9,1,1*%
%TO.N,+36V*%
X158000000Y-102000000D03*
%TD*%
D11*
%TO.P,H1,1,1*%
%TO.N,unconnected-(H1-Pad1)*%
X121125000Y-73000000D03*
X121674175Y-71674175D03*
X121674175Y-74325825D03*
X123000000Y-71125000D03*
D12*
X123000000Y-73000000D03*
D11*
X123000000Y-74875000D03*
X124325825Y-71674175D03*
X124325825Y-74325825D03*
X124875000Y-73000000D03*
%TD*%
%TO.P,H3,1,1*%
%TO.N,unconnected-(H3-Pad1)*%
X155125000Y-107000000D03*
X155674175Y-105674175D03*
X155674175Y-108325825D03*
X157000000Y-105125000D03*
D12*
X157000000Y-107000000D03*
D11*
X157000000Y-108875000D03*
X158325825Y-105674175D03*
X158325825Y-108325825D03*
X158875000Y-107000000D03*
%TD*%
D10*
%TO.P,H5,1,1*%
%TO.N,/DRV8323RSRGZR/PHASA*%
X131000000Y-108000000D03*
%TD*%
D13*
%TO.N,GND1*%
X125984000Y-93726000D03*
X148971000Y-94742000D03*
X148971000Y-93980000D03*
X146685000Y-94742000D03*
X146685000Y-93980000D03*
X143510000Y-94742000D03*
X143510000Y-93980000D03*
X141224000Y-94742000D03*
X141224000Y-93980000D03*
%TO.N,/DRV8323RSRGZR/PHASA*%
X125095000Y-103759000D03*
X123825000Y-103759000D03*
X122555000Y-103759000D03*
%TO.N,GND1*%
X138303000Y-94742000D03*
%TO.N,/DRV8323RSRGZR/SPA*%
X132588000Y-98044000D03*
X131826000Y-98044000D03*
X131826000Y-97155000D03*
X130302000Y-97155000D03*
%TO.N,GND1*%
X132461000Y-94742000D03*
X131699000Y-94742000D03*
X130810000Y-94742000D03*
X130048000Y-94742000D03*
%TO.N,+36V*%
X146685000Y-103251000D03*
X145415000Y-103251000D03*
X149225000Y-103251000D03*
X147955000Y-103251000D03*
X146685000Y-102235000D03*
X145415000Y-102235000D03*
X149225000Y-102235000D03*
X147955000Y-102235000D03*
X146685000Y-101219000D03*
X145415000Y-101219000D03*
X149225000Y-101219000D03*
X147955000Y-101219000D03*
X141097000Y-103251000D03*
X143637000Y-103251000D03*
X142367000Y-103251000D03*
X139827000Y-103251000D03*
X141097000Y-102235000D03*
X143637000Y-102235000D03*
X142367000Y-102235000D03*
X139827000Y-102235000D03*
X141097000Y-101219000D03*
X143637000Y-101219000D03*
X142367000Y-101219000D03*
X139827000Y-101219000D03*
%TO.N,/DRV8323RSRGZR/PHASB*%
X136779000Y-102362000D03*
X138049000Y-102362000D03*
X135509000Y-102362000D03*
X134239000Y-102362000D03*
X136779000Y-103378000D03*
X138049000Y-103378000D03*
X135509000Y-103378000D03*
X134239000Y-103378000D03*
%TO.N,/DRV8323RSRGZR/SPA*%
X129540000Y-97155000D03*
%TO.N,/DRV8323RSRGZR/PHASA*%
X131064000Y-102362000D03*
X128524000Y-102362000D03*
X132334000Y-102362000D03*
X129794000Y-102362000D03*
X131064000Y-103378000D03*
X128524000Y-103378000D03*
X132334000Y-103378000D03*
X129794000Y-103378000D03*
X129794000Y-104394000D03*
%TO.N,+36V*%
X126365000Y-101473000D03*
X123825000Y-101473000D03*
X125095000Y-101473000D03*
X122555000Y-101473000D03*
%TO.N,/DRV8323RSRGZR/PHASA*%
X125095000Y-102743000D03*
X123825000Y-102743000D03*
X122500000Y-102750000D03*
%TO.N,GND*%
X122263500Y-90080500D03*
%TO.N,GND1*%
X152527000Y-98425000D03*
X125095000Y-93726000D03*
X124206000Y-93726000D03*
X123317000Y-93726000D03*
X122428000Y-93726000D03*
X121539000Y-93726000D03*
X120650000Y-93726000D03*
X131699000Y-93980000D03*
X147447000Y-93980000D03*
X139700000Y-93980000D03*
%TO.N,GND*%
X132842000Y-83312000D03*
%TO.N,GND1*%
X148209000Y-94742000D03*
%TO.N,GND*%
X135890000Y-86360000D03*
%TO.N,GND1*%
X141986000Y-93980000D03*
%TO.N,GND*%
X129794000Y-86360000D03*
%TO.N,GND1*%
X139700000Y-94742000D03*
X142748000Y-94742000D03*
%TO.N,GND*%
X156874000Y-79274000D03*
%TO.N,GND1*%
X141986000Y-94742000D03*
%TO.N,GND*%
X138773500Y-74384500D03*
%TO.N,GND1*%
X145923000Y-94742000D03*
%TO.N,GND*%
X128510000Y-78760000D03*
X132715000Y-75491000D03*
X123571000Y-90805000D03*
X141351000Y-87376000D03*
%TO.N,GND1*%
X145161000Y-93980000D03*
X136652000Y-93980000D03*
X153797000Y-98425000D03*
%TO.N,GND*%
X133858000Y-86360000D03*
X130810000Y-87376000D03*
%TO.N,GND1*%
X155067000Y-97282000D03*
%TO.N,GND*%
X143360000Y-76660000D03*
X156845000Y-86487000D03*
D14*
X131191000Y-76962000D03*
D13*
X150114000Y-89281000D03*
%TO.N,GND1*%
X130048000Y-93980000D03*
%TO.N,GND*%
X153560000Y-74670000D03*
X132842000Y-85344000D03*
%TO.N,GND1*%
X137541000Y-94742000D03*
%TO.N,GND*%
X134874000Y-87376000D03*
%TO.N,GND1*%
X140462000Y-93980000D03*
X148209000Y-93980000D03*
X140462000Y-94742000D03*
%TO.N,GND*%
X133858000Y-84328000D03*
%TO.N,GND1*%
X132461000Y-93980000D03*
%TO.N,GND*%
X155702000Y-90678000D03*
X131826000Y-84328000D03*
X131826000Y-88392000D03*
X153110000Y-86990000D03*
%TO.N,GND1*%
X136652000Y-94742000D03*
%TO.N,GND*%
X138938000Y-82550000D03*
X130400000Y-73279000D03*
%TO.N,GND1*%
X133096000Y-91821000D03*
%TO.N,GND*%
X131826000Y-86360000D03*
X155702000Y-82296000D03*
X154775500Y-86868000D03*
%TO.N,GND1*%
X145161000Y-94742000D03*
X155067000Y-98425000D03*
X137541000Y-93980000D03*
X142748000Y-93980000D03*
X135532652Y-91844652D03*
X153670000Y-97282000D03*
X147447000Y-94742000D03*
%TO.N,GND*%
X133858000Y-88392000D03*
X130810000Y-85344000D03*
X155610000Y-78486000D03*
X148831905Y-84708095D03*
X141351000Y-72009000D03*
X149910000Y-77180000D03*
X132842000Y-89408000D03*
%TO.N,GND1*%
X130810000Y-93980000D03*
X135890000Y-94742000D03*
X145923000Y-93980000D03*
X135890000Y-93980000D03*
%TO.N,GND*%
X132842000Y-87376000D03*
X134874000Y-85344000D03*
%TO.N,+3.3V*%
X149700000Y-84430000D03*
X149109697Y-77121745D03*
X134112000Y-74422000D03*
X128016000Y-73279000D03*
X138581568Y-87368377D03*
X138557000Y-88646000D03*
X138595882Y-81191882D03*
X156730000Y-76870000D03*
X140000000Y-73198000D03*
X142479937Y-76426750D03*
X150620000Y-84760000D03*
X154940000Y-90678000D03*
X136667162Y-77339220D03*
X140462000Y-85471000D03*
X136652000Y-77978000D03*
X154750000Y-75340000D03*
X136652000Y-76708000D03*
X139480000Y-85450000D03*
X153560000Y-73570000D03*
%TO.N,+5V*%
X123825000Y-77216000D03*
X146939000Y-90356500D03*
X123571000Y-89662000D03*
%TO.N,/RESET*%
X132715000Y-73660000D03*
X150622000Y-81788000D03*
%TO.N,+36V*%
X147955000Y-100203000D03*
X139827000Y-100203000D03*
X149225000Y-100203000D03*
X123825000Y-98425000D03*
X122555000Y-99441000D03*
X125095000Y-98425000D03*
X122555000Y-100457000D03*
X143637000Y-100203000D03*
X142367000Y-100203000D03*
X145415000Y-100203000D03*
X129667000Y-90043000D03*
X126365000Y-99441000D03*
X123825000Y-99441000D03*
X126365000Y-98425000D03*
X125576500Y-85852000D03*
X125095000Y-100457000D03*
X126365000Y-100457000D03*
X146685000Y-100203000D03*
X122555000Y-98425000D03*
X125095000Y-99441000D03*
X123825000Y-100457000D03*
X141097000Y-100203000D03*
%TO.N,/DRV8323RSRGZR/PHASA*%
X131064000Y-104394000D03*
X128524000Y-104394000D03*
X132334000Y-104394000D03*
%TO.N,/DRV8323RSRGZR/PHASB*%
X142367000Y-104521000D03*
X141097000Y-105664000D03*
X138049000Y-104394000D03*
X135509000Y-104394000D03*
X139827000Y-105664000D03*
X134239000Y-104394000D03*
X139827000Y-104521000D03*
X136779000Y-104394000D03*
X142367000Y-105664000D03*
X141097000Y-104521000D03*
%TO.N,/DRV8323RSRGZR/PHASC*%
X146685000Y-105664000D03*
X151257000Y-100750000D03*
X151257000Y-99822000D03*
X145415000Y-104521000D03*
X146685000Y-104521000D03*
X153797000Y-99822000D03*
X151257000Y-101727000D03*
X147955000Y-105664000D03*
X147955000Y-104521000D03*
X155067000Y-99822000D03*
X153797000Y-101727000D03*
X145415000Y-105664000D03*
X152527000Y-101727000D03*
X155067000Y-101727000D03*
X152527000Y-100750000D03*
X155067000Y-100750000D03*
X153797000Y-100750000D03*
X152527000Y-99822000D03*
%TO.N,/SPI1_NSS*%
X147540000Y-79110000D03*
X143764000Y-72009000D03*
%TO.N,/SPI1_MISO*%
X147531910Y-76580000D03*
X148590000Y-72009000D03*
%TO.N,/SPI1_MOSI*%
X147535640Y-77331893D03*
X151003000Y-72009000D03*
%TO.N,/SWDIO*%
X135250000Y-74422000D03*
X142114768Y-83659440D03*
%TO.N,/SWCLK*%
X137578500Y-74366590D03*
X143129000Y-83659440D03*
%TO.N,/DRV8323RSRGZR/SPA*%
X132588000Y-97155000D03*
X131064000Y-98044000D03*
X130302000Y-98044000D03*
X129540000Y-98044000D03*
%TO.N,/DRV8323RSRGZR/SPB*%
X135382000Y-97917000D03*
X136906000Y-97917000D03*
X135128000Y-91186000D03*
X137795000Y-97155000D03*
X133968090Y-91416090D03*
X137795000Y-97917000D03*
X136906000Y-97155000D03*
X135382000Y-97155000D03*
X136144000Y-97155000D03*
X136144000Y-97917000D03*
%TO.N,Net-(U1-BOOT0)*%
X152527000Y-85979000D03*
X147955000Y-85471000D03*
%TO.N,/SPI1_SCK*%
X147510000Y-78260000D03*
X146177000Y-72009000D03*
%TO.N,/SPI3_MISO*%
X144420000Y-85255670D03*
X136780000Y-81250000D03*
%TO.N,/TIM1_PWM_CH1N*%
X143050260Y-79707740D03*
X131440955Y-81056511D03*
%TO.N,/TIM1_PWM_CH2N*%
X142752706Y-78872391D03*
X130197292Y-82010000D03*
%TO.N,/TIM1_PWM_CH3N*%
X141859000Y-78781910D03*
X129788590Y-83581410D03*
%TO.N,/TIM1_PWM_CH1*%
X142494000Y-81280000D03*
X132224647Y-80714647D03*
%TO.N,/TIM1_PWM_CH2*%
X142723301Y-82148540D03*
X130915183Y-81621345D03*
%TO.N,/TIM1_PWM_CH3*%
X141986000Y-82296000D03*
X130211162Y-82959485D03*
%TO.N,/SPI3_NSS*%
X135812032Y-82192032D03*
X143031910Y-84723760D03*
%TO.N,/SPI3_SCK*%
X143570000Y-85255670D03*
X136518470Y-82641189D03*
%TO.N,/SPI3_MOSI*%
X145161000Y-83947000D03*
X136369895Y-83404937D03*
%TO.N,/USART2_TX*%
X152350000Y-76340000D03*
X156870000Y-84074000D03*
%TO.N,/USART2_RX*%
X156972000Y-81534000D03*
X150610000Y-73950000D03*
%TO.N,/ADC1_IN8*%
X138430000Y-86631910D03*
X147193000Y-83947000D03*
%TO.N,/ADC1_IN9*%
X146168292Y-83804782D03*
X137795000Y-88011000D03*
%TO.N,/CAN_RX*%
X147701000Y-88325540D03*
X148082000Y-91186000D03*
%TO.N,/CAN_STB*%
X153940000Y-87010000D03*
X146079510Y-88060000D03*
%TD*%
D15*
%TO.N,+5V*%
X131191000Y-90551000D02*
X123825000Y-83185000D01*
X146744500Y-90551000D02*
X131191000Y-90551000D01*
X123825000Y-83185000D02*
X123825000Y-77216000D01*
X146939000Y-90356500D02*
X146744500Y-90551000D01*
D16*
%TO.N,/SWCLK*%
X138794330Y-75582420D02*
X137578500Y-74366590D01*
X144457420Y-76161615D02*
X143878224Y-75582420D01*
X143878224Y-75582420D02*
X138794330Y-75582420D01*
X143129000Y-83087036D02*
X144457420Y-81758616D01*
X144457420Y-81758616D02*
X144457420Y-76161615D01*
X143129000Y-83659440D02*
X143129000Y-83087036D01*
%TO.N,/TIM1_PWM_CH1*%
X132577840Y-80020160D02*
X132224647Y-80373353D01*
X140904930Y-80020160D02*
X132577840Y-80020160D01*
X142164770Y-81280000D02*
X140904930Y-80020160D01*
X142494000Y-81280000D02*
X142164770Y-81280000D01*
X132224647Y-80373353D02*
X132224647Y-80714647D01*
%TO.N,/TIM1_PWM_CH1N*%
X131440955Y-80389701D02*
X131440955Y-81056511D01*
X132122916Y-79707740D02*
X131440955Y-80389701D01*
X143050260Y-79707740D02*
X132122916Y-79707740D01*
%TO.N,/SPI1_SCK*%
X146743420Y-72575420D02*
X146177000Y-72009000D01*
X146743420Y-77848592D02*
X146743420Y-72575420D01*
X147510000Y-78260000D02*
X147154828Y-78260000D01*
X147154828Y-78260000D02*
X146743420Y-77848592D01*
%TO.N,/SPI1_NSS*%
X143764000Y-72154000D02*
X143764000Y-72009000D01*
X146431000Y-78001000D02*
X146431000Y-74821000D01*
X146431000Y-74821000D02*
X143764000Y-72154000D01*
X147540000Y-79110000D02*
X146431000Y-78001000D01*
%TO.N,/ADC1_IN8*%
X145247580Y-86412420D02*
X138649490Y-86412420D01*
X138649490Y-86412420D02*
X138430000Y-86631910D01*
X147193000Y-83947000D02*
X147193000Y-84467000D01*
X147193000Y-84467000D02*
X145247580Y-86412420D01*
%TO.N,/SPI3_MOSI*%
X136589832Y-83185000D02*
X136369895Y-83404937D01*
X141531522Y-85787580D02*
X139793942Y-84050000D01*
X137979137Y-84050000D02*
X137114137Y-83185000D01*
X144952420Y-85787580D02*
X141531522Y-85787580D01*
X145542000Y-85198000D02*
X144952420Y-85787580D01*
X137114137Y-83185000D02*
X136589832Y-83185000D01*
X145542000Y-84328000D02*
X145542000Y-85198000D01*
X145161000Y-83947000D02*
X145542000Y-84328000D01*
X139793942Y-84050000D02*
X137979137Y-84050000D01*
%TO.N,/SPI1_MISO*%
X147751900Y-72847100D02*
X147751900Y-76360010D01*
X147751900Y-76360010D02*
X147531910Y-76580000D01*
X148590000Y-72009000D02*
X147751900Y-72847100D01*
%TO.N,/SPI1_MOSI*%
X151003000Y-72009000D02*
X151003000Y-72097000D01*
X151003000Y-72097000D02*
X148064320Y-75035680D01*
X148064320Y-76803213D02*
X147535640Y-77331893D01*
X148064320Y-75035680D02*
X148064320Y-76803213D01*
%TO.N,/RESET*%
X144007632Y-75270000D02*
X140834820Y-75270000D01*
X140834820Y-75270000D02*
X139224820Y-73660000D01*
X144769840Y-76032208D02*
X144007632Y-75270000D01*
X146812000Y-81788000D02*
X144769840Y-79745840D01*
X144769840Y-79745840D02*
X144769840Y-76032208D01*
X139224820Y-73660000D02*
X132715000Y-73660000D01*
X150622000Y-81788000D02*
X146812000Y-81788000D01*
%TO.N,/SWDIO*%
X136722840Y-75894840D02*
X135250000Y-74422000D01*
X144145000Y-76291024D02*
X143748816Y-75894840D01*
X144145000Y-81629208D02*
X144145000Y-76291024D01*
X142114768Y-83659440D02*
X144145000Y-81629208D01*
X143748816Y-75894840D02*
X136722840Y-75894840D01*
%TO.N,/USART2_TX*%
X152527000Y-76517000D02*
X152350000Y-76340000D01*
X152527000Y-77530828D02*
X152527000Y-76517000D01*
X156439590Y-81443418D02*
X152527000Y-77530828D01*
X156439590Y-83643590D02*
X156439590Y-81443418D01*
X156870000Y-84074000D02*
X156439590Y-83643590D01*
%TO.N,/USART2_RX*%
X152882410Y-76119468D02*
X150712942Y-73950000D01*
X152882410Y-77444410D02*
X152882410Y-76119468D01*
X156972000Y-81534000D02*
X152882410Y-77444410D01*
X150712942Y-73950000D02*
X150610000Y-73950000D01*
%TO.N,/ADC1_IN9*%
X146168292Y-85049880D02*
X146168292Y-83804782D01*
X145118172Y-86100000D02*
X146168292Y-85049880D01*
X138182000Y-86100000D02*
X145118172Y-86100000D01*
X137795000Y-88011000D02*
X137795000Y-86487000D01*
X137795000Y-86487000D02*
X138182000Y-86100000D01*
D15*
%TO.N,+5V*%
X122936000Y-89027000D02*
X122936000Y-78105000D01*
X123571000Y-89662000D02*
X122936000Y-89027000D01*
X122936000Y-78105000D02*
X123825000Y-77216000D01*
D16*
%TO.N,GND1*%
X133223000Y-91948000D02*
X135429304Y-91948000D01*
X135429304Y-91948000D02*
X135532652Y-91844652D01*
X133096000Y-91821000D02*
X133223000Y-91948000D01*
D15*
%TO.N,+36V*%
X125576500Y-85852000D02*
X125603000Y-85852000D01*
X129667000Y-89916000D02*
X129667000Y-90043000D01*
X125603000Y-85852000D02*
X129667000Y-89916000D01*
D16*
%TO.N,/DRV8323RSRGZR/SPB*%
X134198180Y-91186000D02*
X135128000Y-91186000D01*
X133968090Y-91416090D02*
X134198180Y-91186000D01*
%TO.N,Net-(U1-BOOT0)*%
X147955000Y-85471000D02*
X152019000Y-85471000D01*
X152019000Y-85471000D02*
X152527000Y-85979000D01*
%TO.N,/SPI3_MISO*%
X138362201Y-83107580D02*
X140177006Y-83107580D01*
X141260776Y-84191350D02*
X143355680Y-84191350D01*
X140177006Y-83107580D02*
X141260776Y-84191350D01*
X136780000Y-81525379D02*
X138362201Y-83107580D01*
X136780000Y-81250000D02*
X136780000Y-81525379D01*
X143355680Y-84191350D02*
X144420000Y-85255670D01*
%TO.N,/TIM1_PWM_CH2N*%
X142742609Y-78872391D02*
X142240000Y-79375000D01*
X142752706Y-78872391D02*
X142742609Y-78872391D01*
X142240000Y-79375000D02*
X132013828Y-79375000D01*
X130197292Y-81191536D02*
X130197292Y-82010000D01*
X132013828Y-79375000D02*
X130197292Y-81191536D01*
%TO.N,/TIM1_PWM_CH3N*%
X141859000Y-78781910D02*
X141578330Y-79062580D01*
X129664882Y-81282118D02*
X129664882Y-83457702D01*
X131884420Y-79062580D02*
X129664882Y-81282118D01*
X129664882Y-83457702D02*
X129788590Y-83581410D01*
X141578330Y-79062580D02*
X131884420Y-79062580D01*
%TO.N,/TIM1_PWM_CH2*%
X132124155Y-81621345D02*
X130915183Y-81621345D01*
X142591482Y-82148540D02*
X140775522Y-80332580D01*
X133412919Y-80332580D02*
X132124155Y-81621345D01*
X142723301Y-82148540D02*
X142591482Y-82148540D01*
X140775522Y-80332580D02*
X133412919Y-80332580D01*
%TO.N,/TIM1_PWM_CH3*%
X133542328Y-80645000D02*
X131227843Y-82959485D01*
X131227843Y-82959485D02*
X130211162Y-82959485D01*
X141986000Y-82296000D02*
X141986000Y-81984886D01*
X141986000Y-81984886D02*
X140646114Y-80645000D01*
X140646114Y-80645000D02*
X133542328Y-80645000D01*
%TO.N,/SPI3_NSS*%
X140047598Y-83420000D02*
X141131368Y-84503770D01*
X141131368Y-84503770D02*
X142811920Y-84503770D01*
X138232793Y-83420000D02*
X140047598Y-83420000D01*
X142811920Y-84503770D02*
X143031910Y-84723760D01*
X136922072Y-82109279D02*
X138232793Y-83420000D01*
X135812032Y-82192032D02*
X135894785Y-82109279D01*
X135894785Y-82109279D02*
X136922072Y-82109279D01*
%TO.N,/SPI3_SCK*%
X138103385Y-83732420D02*
X139918190Y-83732420D01*
X141660930Y-85475160D02*
X143350510Y-85475160D01*
X139918190Y-83732420D02*
X141660930Y-85475160D01*
X137012154Y-82641189D02*
X138103385Y-83732420D01*
X136518470Y-82641189D02*
X137012154Y-82641189D01*
X143350510Y-85475160D02*
X143570000Y-85255670D01*
%TO.N,/CAN_RX*%
X147701000Y-88325540D02*
X148082000Y-88706540D01*
X148082000Y-88706540D02*
X148082000Y-91186000D01*
%TO.N,/CAN_STB*%
X153940000Y-87010000D02*
X153310000Y-87640000D01*
X146499510Y-87640000D02*
X146079510Y-88060000D01*
X153310000Y-87640000D02*
X146499510Y-87640000D01*
%TD*%
%TA.AperFunction,Conductor*%
%TO.N,/DRV8323RSRGZR/SPA*%
G36*
X133488577Y-96511423D02*
G01*
X133500000Y-96539000D01*
X133500000Y-98711000D01*
X133488577Y-98738577D01*
X133461000Y-98750000D01*
X129039000Y-98750000D01*
X129011423Y-98738577D01*
X129000000Y-98711000D01*
X129000000Y-96539000D01*
X129011423Y-96511423D01*
X129039000Y-96500000D01*
X133461000Y-96500000D01*
X133488577Y-96511423D01*
G37*
%TD.AperFunction*%
%TD*%
%TA.AperFunction,Conductor*%
%TO.N,GND*%
G36*
X132884774Y-81830774D02*
G01*
X137386423Y-86332423D01*
X137397846Y-86360000D01*
X137386423Y-86387577D01*
X133641323Y-90132677D01*
X133613746Y-90144100D01*
X132070254Y-90144100D01*
X132042677Y-90132677D01*
X128297576Y-86387576D01*
X128286153Y-86359999D01*
X128297574Y-86332425D01*
X131352090Y-83277909D01*
X131369573Y-83267817D01*
X131371393Y-83267330D01*
X131407052Y-83242360D01*
X131408464Y-83241460D01*
X131446179Y-83219687D01*
X131474167Y-83186330D01*
X131475296Y-83185098D01*
X132829622Y-81830772D01*
X132857197Y-81819351D01*
X132884774Y-81830774D01*
G37*
%TD.AperFunction*%
%TD*%
%TA.AperFunction,Conductor*%
%TO.N,GND1*%
G36*
X159962677Y-92261423D02*
G01*
X159974100Y-92289000D01*
X159974100Y-98951500D01*
X159962677Y-98979077D01*
X159935100Y-98990500D01*
X155331111Y-98990500D01*
X155280495Y-98995486D01*
X155280483Y-98995487D01*
X155265551Y-98998457D01*
X155264628Y-98998689D01*
X155264588Y-98998529D01*
X155254684Y-99000000D01*
X154854488Y-99000000D01*
X154846881Y-98999251D01*
X154802886Y-98990500D01*
X154061115Y-98990500D01*
X154061111Y-98990500D01*
X154010495Y-98995486D01*
X154010483Y-98995487D01*
X153995551Y-98998457D01*
X153994628Y-98998689D01*
X153994588Y-98998529D01*
X153984684Y-99000000D01*
X153584488Y-99000000D01*
X153576881Y-98999251D01*
X153532886Y-98990500D01*
X152791115Y-98990500D01*
X152791111Y-98990500D01*
X152740495Y-98995486D01*
X152740483Y-98995487D01*
X152725551Y-98998457D01*
X152724628Y-98998689D01*
X152724588Y-98998529D01*
X152714684Y-99000000D01*
X152314488Y-99000000D01*
X152306881Y-98999251D01*
X152262886Y-98990500D01*
X151521115Y-98990500D01*
X151521111Y-98990500D01*
X151470495Y-98995486D01*
X151470483Y-98995487D01*
X151455551Y-98998457D01*
X151454628Y-98998689D01*
X151454588Y-98998529D01*
X151444684Y-99000000D01*
X151044488Y-99000000D01*
X151036881Y-98999251D01*
X150992886Y-98990500D01*
X150992882Y-98990500D01*
X139539000Y-98990500D01*
X139511423Y-98979077D01*
X139500000Y-98951500D01*
X139500000Y-96000000D01*
X120064900Y-96000000D01*
X120037323Y-95988577D01*
X120025900Y-95961000D01*
X120025900Y-92289000D01*
X120037323Y-92261423D01*
X120064900Y-92250000D01*
X159935100Y-92250000D01*
X159962677Y-92261423D01*
G37*
%TD.AperFunction*%
%TD*%
%TA.AperFunction,Conductor*%
%TO.N,/DRV8323RSRGZR/SPB*%
G36*
X138738577Y-96511423D02*
G01*
X138750000Y-96539000D01*
X138750000Y-98711000D01*
X138738577Y-98738577D01*
X138711000Y-98750000D01*
X134539000Y-98750000D01*
X134511423Y-98738577D01*
X134500000Y-98711000D01*
X134500000Y-96539000D01*
X134511423Y-96511423D01*
X134539000Y-96500000D01*
X138711000Y-96500000D01*
X138738577Y-96511423D01*
G37*
%TD.AperFunction*%
%TD*%
%TA.AperFunction,Conductor*%
%TO.N,+36V*%
G36*
X128488577Y-96511423D02*
G01*
X128500000Y-96539000D01*
X128500000Y-99250000D01*
X150992886Y-99250000D01*
X151020463Y-99261423D01*
X151031886Y-99289000D01*
X151020463Y-99316577D01*
X151007811Y-99325031D01*
X150977359Y-99337644D01*
X150977357Y-99337645D01*
X150861525Y-99426525D01*
X150772645Y-99542357D01*
X150772644Y-99542359D01*
X150716770Y-99677249D01*
X150697715Y-99821996D01*
X150697715Y-99822003D01*
X150716771Y-99966753D01*
X150772644Y-100101641D01*
X150772645Y-100101643D01*
X150861525Y-100217474D01*
X150910507Y-100255059D01*
X150925431Y-100280910D01*
X150917706Y-100309742D01*
X150910507Y-100316941D01*
X150861525Y-100354525D01*
X150772645Y-100470357D01*
X150772644Y-100470359D01*
X150716770Y-100605249D01*
X150697715Y-100749996D01*
X150697715Y-100750003D01*
X150716771Y-100894753D01*
X150772644Y-101029641D01*
X150772645Y-101029643D01*
X150861525Y-101145474D01*
X150942436Y-101207559D01*
X150957360Y-101233410D01*
X150949635Y-101262242D01*
X150942436Y-101269441D01*
X150861525Y-101331525D01*
X150772645Y-101447357D01*
X150772644Y-101447359D01*
X150716770Y-101582249D01*
X150697715Y-101726996D01*
X150697715Y-101727003D01*
X150716771Y-101871753D01*
X150772644Y-102006641D01*
X150772645Y-102006643D01*
X150861525Y-102122474D01*
X150941336Y-102183715D01*
X150977357Y-102211355D01*
X151091525Y-102258645D01*
X151112246Y-102267228D01*
X151256997Y-102286285D01*
X151257000Y-102286285D01*
X151257003Y-102286285D01*
X151365565Y-102271992D01*
X151401754Y-102267228D01*
X151536643Y-102211355D01*
X151652474Y-102122474D01*
X151741355Y-102006643D01*
X151797228Y-101871754D01*
X151816285Y-101727000D01*
X151816285Y-101726996D01*
X151797229Y-101582249D01*
X151741355Y-101447359D01*
X151741354Y-101447357D01*
X151652474Y-101331525D01*
X151605328Y-101295349D01*
X151571562Y-101269439D01*
X151556639Y-101243591D01*
X151564364Y-101214758D01*
X151571559Y-101207562D01*
X151652474Y-101145474D01*
X151741355Y-101029643D01*
X151797228Y-100894754D01*
X151816285Y-100750000D01*
X151816285Y-100749996D01*
X151797229Y-100605249D01*
X151741355Y-100470359D01*
X151741354Y-100470357D01*
X151652474Y-100354525D01*
X151618724Y-100328629D01*
X151603490Y-100316939D01*
X151588567Y-100291090D01*
X151596292Y-100262257D01*
X151603491Y-100255059D01*
X151652474Y-100217474D01*
X151741355Y-100101643D01*
X151797228Y-99966754D01*
X151816285Y-99822000D01*
X151816285Y-99821996D01*
X151797229Y-99677249D01*
X151741355Y-99542359D01*
X151741354Y-99542357D01*
X151652474Y-99426525D01*
X151536643Y-99337645D01*
X151536641Y-99337644D01*
X151506190Y-99325031D01*
X151485084Y-99303925D01*
X151485084Y-99274075D01*
X151506190Y-99252969D01*
X151521115Y-99250000D01*
X152262886Y-99250000D01*
X152290463Y-99261423D01*
X152301886Y-99289000D01*
X152290463Y-99316577D01*
X152277811Y-99325031D01*
X152247359Y-99337644D01*
X152247357Y-99337645D01*
X152131525Y-99426525D01*
X152042645Y-99542357D01*
X152042644Y-99542359D01*
X151986770Y-99677249D01*
X151967715Y-99821996D01*
X151967715Y-99822003D01*
X151986771Y-99966753D01*
X152042644Y-100101641D01*
X152042645Y-100101643D01*
X152131525Y-100217474D01*
X152180507Y-100255059D01*
X152195431Y-100280910D01*
X152187706Y-100309742D01*
X152180507Y-100316941D01*
X152131525Y-100354525D01*
X152042645Y-100470357D01*
X152042644Y-100470359D01*
X151986770Y-100605249D01*
X151967715Y-100749996D01*
X151967715Y-100750003D01*
X151986771Y-100894753D01*
X152042644Y-101029641D01*
X152042645Y-101029643D01*
X152131525Y-101145474D01*
X152212436Y-101207559D01*
X152227360Y-101233410D01*
X152219635Y-101262242D01*
X152212436Y-101269441D01*
X152131525Y-101331525D01*
X152042645Y-101447357D01*
X152042644Y-101447359D01*
X151986770Y-101582249D01*
X151967715Y-101726996D01*
X151967715Y-101727003D01*
X151986771Y-101871753D01*
X152042644Y-102006641D01*
X152042645Y-102006643D01*
X152131525Y-102122474D01*
X152211336Y-102183715D01*
X152247357Y-102211355D01*
X152361525Y-102258645D01*
X152382246Y-102267228D01*
X152526997Y-102286285D01*
X152527000Y-102286285D01*
X152527003Y-102286285D01*
X152635565Y-102271992D01*
X152671754Y-102267228D01*
X152806643Y-102211355D01*
X152922474Y-102122474D01*
X153011355Y-102006643D01*
X153067228Y-101871754D01*
X153086285Y-101727000D01*
X153086285Y-101726996D01*
X153067229Y-101582249D01*
X153011355Y-101447359D01*
X153011354Y-101447357D01*
X152922474Y-101331525D01*
X152875328Y-101295349D01*
X152841562Y-101269439D01*
X152826639Y-101243591D01*
X152834364Y-101214758D01*
X152841559Y-101207562D01*
X152922474Y-101145474D01*
X153011355Y-101029643D01*
X153067228Y-100894754D01*
X153086285Y-100750000D01*
X153086285Y-100749996D01*
X153067229Y-100605249D01*
X153011355Y-100470359D01*
X153011354Y-100470357D01*
X152922474Y-100354525D01*
X152888724Y-100328629D01*
X152873490Y-100316939D01*
X152858567Y-100291090D01*
X152866292Y-100262257D01*
X152873491Y-100255059D01*
X152922474Y-100217474D01*
X153011355Y-100101643D01*
X153067228Y-99966754D01*
X153086285Y-99822000D01*
X153086285Y-99821996D01*
X153067229Y-99677249D01*
X153011355Y-99542359D01*
X153011354Y-99542357D01*
X152922474Y-99426525D01*
X152806643Y-99337645D01*
X152806641Y-99337644D01*
X152776190Y-99325031D01*
X152755084Y-99303925D01*
X152755084Y-99274075D01*
X152776190Y-99252969D01*
X152791115Y-99250000D01*
X153532886Y-99250000D01*
X153560463Y-99261423D01*
X153571886Y-99289000D01*
X153560463Y-99316577D01*
X153547811Y-99325031D01*
X153517359Y-99337644D01*
X153517357Y-99337645D01*
X153401525Y-99426525D01*
X153312645Y-99542357D01*
X153312644Y-99542359D01*
X153256770Y-99677249D01*
X153237715Y-99821996D01*
X153237715Y-99822003D01*
X153256771Y-99966753D01*
X153312644Y-100101641D01*
X153312645Y-100101643D01*
X153401525Y-100217474D01*
X153450507Y-100255059D01*
X153465431Y-100280910D01*
X153457706Y-100309742D01*
X153450507Y-100316941D01*
X153401525Y-100354525D01*
X153312645Y-100470357D01*
X153312644Y-100470359D01*
X153256770Y-100605249D01*
X153237715Y-100749996D01*
X153237715Y-100750003D01*
X153256771Y-100894753D01*
X153312644Y-101029641D01*
X153312645Y-101029643D01*
X153401525Y-101145474D01*
X153482436Y-101207559D01*
X153497360Y-101233410D01*
X153489635Y-101262242D01*
X153482436Y-101269441D01*
X153401525Y-101331525D01*
X153312645Y-101447357D01*
X153312644Y-101447359D01*
X153256770Y-101582249D01*
X153237715Y-101726996D01*
X153237715Y-101727003D01*
X153256771Y-101871753D01*
X153312644Y-102006641D01*
X153312645Y-102006643D01*
X153401525Y-102122474D01*
X153481336Y-102183715D01*
X153517357Y-102211355D01*
X153631525Y-102258645D01*
X153652246Y-102267228D01*
X153796997Y-102286285D01*
X153797000Y-102286285D01*
X153797003Y-102286285D01*
X153905565Y-102271992D01*
X153941754Y-102267228D01*
X154076643Y-102211355D01*
X154192474Y-102122474D01*
X154281355Y-102006643D01*
X154337228Y-101871754D01*
X154356285Y-101727000D01*
X154356285Y-101726996D01*
X154337229Y-101582249D01*
X154281355Y-101447359D01*
X154281354Y-101447357D01*
X154192474Y-101331525D01*
X154145328Y-101295349D01*
X154111562Y-101269439D01*
X154096639Y-101243591D01*
X154104364Y-101214758D01*
X154111559Y-101207562D01*
X154192474Y-101145474D01*
X154281355Y-101029643D01*
X154337228Y-100894754D01*
X154356285Y-100750000D01*
X154356285Y-100749996D01*
X154337229Y-100605249D01*
X154281355Y-100470359D01*
X154281354Y-100470357D01*
X154192474Y-100354525D01*
X154158724Y-100328629D01*
X154143490Y-100316939D01*
X154128567Y-100291090D01*
X154136292Y-100262257D01*
X154143491Y-100255059D01*
X154192474Y-100217474D01*
X154281355Y-100101643D01*
X154337228Y-99966754D01*
X154356285Y-99822000D01*
X154356285Y-99821996D01*
X154337229Y-99677249D01*
X154281355Y-99542359D01*
X154281354Y-99542357D01*
X154192474Y-99426525D01*
X154076643Y-99337645D01*
X154076641Y-99337644D01*
X154046190Y-99325031D01*
X154025084Y-99303925D01*
X154025084Y-99274075D01*
X154046190Y-99252969D01*
X154061115Y-99250000D01*
X154802886Y-99250000D01*
X154830463Y-99261423D01*
X154841886Y-99289000D01*
X154830463Y-99316577D01*
X154817811Y-99325031D01*
X154787359Y-99337644D01*
X154787357Y-99337645D01*
X154671525Y-99426525D01*
X154582645Y-99542357D01*
X154582644Y-99542359D01*
X154526770Y-99677249D01*
X154507715Y-99821996D01*
X154507715Y-99822003D01*
X154526771Y-99966753D01*
X154582644Y-100101641D01*
X154582645Y-100101643D01*
X154671525Y-100217474D01*
X154720507Y-100255059D01*
X154735431Y-100280910D01*
X154727706Y-100309742D01*
X154720507Y-100316941D01*
X154671525Y-100354525D01*
X154582645Y-100470357D01*
X154582644Y-100470359D01*
X154526770Y-100605249D01*
X154507715Y-100749996D01*
X154507715Y-100750003D01*
X154526771Y-100894753D01*
X154582644Y-101029641D01*
X154582645Y-101029643D01*
X154671525Y-101145474D01*
X154752436Y-101207559D01*
X154767360Y-101233410D01*
X154759635Y-101262242D01*
X154752436Y-101269441D01*
X154671525Y-101331525D01*
X154582645Y-101447357D01*
X154582644Y-101447359D01*
X154526770Y-101582249D01*
X154507715Y-101726996D01*
X154507715Y-101727003D01*
X154526771Y-101871753D01*
X154582644Y-102006641D01*
X154582645Y-102006643D01*
X154671525Y-102122474D01*
X154751336Y-102183715D01*
X154787357Y-102211355D01*
X154901525Y-102258645D01*
X154922246Y-102267228D01*
X155066997Y-102286285D01*
X155067000Y-102286285D01*
X155067003Y-102286285D01*
X155175565Y-102271992D01*
X155211754Y-102267228D01*
X155346643Y-102211355D01*
X155462474Y-102122474D01*
X155551355Y-102006643D01*
X155607228Y-101871754D01*
X155626285Y-101727000D01*
X155626285Y-101726996D01*
X155607229Y-101582249D01*
X155551355Y-101447359D01*
X155551354Y-101447357D01*
X155462474Y-101331525D01*
X155415328Y-101295349D01*
X155381562Y-101269439D01*
X155366639Y-101243591D01*
X155374364Y-101214758D01*
X155381559Y-101207562D01*
X155462474Y-101145474D01*
X155551355Y-101029643D01*
X155607228Y-100894754D01*
X155626285Y-100750000D01*
X155626285Y-100749996D01*
X155607229Y-100605249D01*
X155551355Y-100470359D01*
X155551354Y-100470357D01*
X155462474Y-100354525D01*
X155428724Y-100328629D01*
X155413490Y-100316939D01*
X155398567Y-100291090D01*
X155406292Y-100262257D01*
X155413491Y-100255059D01*
X155462474Y-100217474D01*
X155551355Y-100101643D01*
X155607228Y-99966754D01*
X155626285Y-99822000D01*
X155626285Y-99821996D01*
X155607229Y-99677249D01*
X155551355Y-99542359D01*
X155551354Y-99542357D01*
X155462474Y-99426525D01*
X155346643Y-99337645D01*
X155346641Y-99337644D01*
X155316190Y-99325031D01*
X155295084Y-99303925D01*
X155295084Y-99274075D01*
X155316190Y-99252969D01*
X155331115Y-99250000D01*
X159935100Y-99250000D01*
X159962677Y-99261423D01*
X159974100Y-99289000D01*
X159974100Y-106999481D01*
X159974073Y-107000501D01*
X159957860Y-107309859D01*
X159957647Y-107311890D01*
X159909268Y-107617342D01*
X159908843Y-107619340D01*
X159828802Y-107918056D01*
X159828171Y-107919999D01*
X159717341Y-108208722D01*
X159716510Y-108210588D01*
X159576110Y-108486139D01*
X159575088Y-108487907D01*
X159406654Y-108747273D01*
X159405453Y-108748926D01*
X159210829Y-108989267D01*
X159209462Y-108990785D01*
X158990785Y-109209462D01*
X158989267Y-109210829D01*
X158748926Y-109405453D01*
X158747273Y-109406654D01*
X158487907Y-109575088D01*
X158486139Y-109576110D01*
X158210588Y-109716510D01*
X158208722Y-109717341D01*
X157919999Y-109828171D01*
X157918056Y-109828802D01*
X157619340Y-109908843D01*
X157617342Y-109909268D01*
X157311890Y-109957647D01*
X157309859Y-109957860D01*
X157000501Y-109974073D01*
X156999481Y-109974100D01*
X123000519Y-109974100D01*
X122999499Y-109974073D01*
X122690140Y-109957860D01*
X122688109Y-109957647D01*
X122382657Y-109909268D01*
X122380659Y-109908843D01*
X122081943Y-109828802D01*
X122080000Y-109828171D01*
X121791277Y-109717341D01*
X121789411Y-109716510D01*
X121521907Y-109580210D01*
X121513855Y-109576107D01*
X121512092Y-109575088D01*
X121252726Y-109406654D01*
X121251073Y-109405453D01*
X121010732Y-109210829D01*
X121009214Y-109209462D01*
X120790537Y-108990785D01*
X120789170Y-108989267D01*
X120594546Y-108748926D01*
X120593345Y-108747273D01*
X120424911Y-108487907D01*
X120423895Y-108486150D01*
X120283487Y-108210584D01*
X120282658Y-108208722D01*
X120171825Y-107919991D01*
X120171197Y-107918056D01*
X120091156Y-107619340D01*
X120090731Y-107617342D01*
X120045636Y-107332626D01*
X120042351Y-107311884D01*
X120042139Y-107309859D01*
X120025927Y-107000501D01*
X120025914Y-106999999D01*
X120115465Y-106999999D01*
X120135584Y-107332626D01*
X120135585Y-107332630D01*
X120195651Y-107660400D01*
X120294787Y-107978538D01*
X120294789Y-107978545D01*
X120398384Y-108208722D01*
X120431553Y-108282420D01*
X120603947Y-108567595D01*
X120809458Y-108829910D01*
X121045090Y-109065542D01*
X121307405Y-109271053D01*
X121592580Y-109443447D01*
X121744517Y-109511828D01*
X121896454Y-109580210D01*
X121896461Y-109580212D01*
X122214599Y-109679348D01*
X122542369Y-109739414D01*
X122542373Y-109739415D01*
X122578270Y-109741586D01*
X122875000Y-109759535D01*
X123188653Y-109740562D01*
X123207626Y-109739415D01*
X123207630Y-109739414D01*
X123330071Y-109716976D01*
X123535400Y-109679348D01*
X123853545Y-109580210D01*
X124157420Y-109443447D01*
X124442595Y-109271053D01*
X124704910Y-109065542D01*
X124940542Y-108829910D01*
X124957502Y-108808262D01*
X129245500Y-108808262D01*
X129247425Y-108829910D01*
X129256156Y-108928126D01*
X129312358Y-109124541D01*
X129356717Y-109209462D01*
X129406946Y-109305620D01*
X129536048Y-109463952D01*
X129694380Y-109593054D01*
X129875460Y-109687642D01*
X130071872Y-109743843D01*
X130191738Y-109754500D01*
X130191743Y-109754500D01*
X131808257Y-109754500D01*
X131808262Y-109754500D01*
X131928128Y-109743843D01*
X132124540Y-109687642D01*
X132305620Y-109593054D01*
X132463952Y-109463952D01*
X132593054Y-109305620D01*
X132687642Y-109124540D01*
X132743843Y-108928128D01*
X132754500Y-108808262D01*
X138245500Y-108808262D01*
X138247425Y-108829910D01*
X138256156Y-108928126D01*
X138312358Y-109124541D01*
X138356717Y-109209462D01*
X138406946Y-109305620D01*
X138536048Y-109463952D01*
X138694380Y-109593054D01*
X138875460Y-109687642D01*
X139071872Y-109743843D01*
X139191738Y-109754500D01*
X139191743Y-109754500D01*
X140808257Y-109754500D01*
X140808262Y-109754500D01*
X140928128Y-109743843D01*
X141124540Y-109687642D01*
X141305620Y-109593054D01*
X141463952Y-109463952D01*
X141593054Y-109305620D01*
X141687642Y-109124540D01*
X141743843Y-108928128D01*
X141754500Y-108808262D01*
X147245500Y-108808262D01*
X147247425Y-108829910D01*
X147256156Y-108928126D01*
X147312358Y-109124541D01*
X147356717Y-109209462D01*
X147406946Y-109305620D01*
X147536048Y-109463952D01*
X147694380Y-109593054D01*
X147875460Y-109687642D01*
X148071872Y-109743843D01*
X148191738Y-109754500D01*
X148191743Y-109754500D01*
X149808257Y-109754500D01*
X149808262Y-109754500D01*
X149928128Y-109743843D01*
X150124540Y-109687642D01*
X150305620Y-109593054D01*
X150463952Y-109463952D01*
X150593054Y-109305620D01*
X150687642Y-109124540D01*
X150743843Y-108928128D01*
X150754500Y-108808262D01*
X150754500Y-107191738D01*
X150743843Y-107071872D01*
X150723277Y-106999999D01*
X154240465Y-106999999D01*
X154260584Y-107332626D01*
X154260585Y-107332630D01*
X154320651Y-107660400D01*
X154419787Y-107978538D01*
X154419789Y-107978545D01*
X154523384Y-108208722D01*
X154556553Y-108282420D01*
X154728947Y-108567595D01*
X154934458Y-108829910D01*
X155170090Y-109065542D01*
X155432405Y-109271053D01*
X155717580Y-109443447D01*
X155869517Y-109511828D01*
X156021454Y-109580210D01*
X156021461Y-109580212D01*
X156339599Y-109679348D01*
X156667369Y-109739414D01*
X156667373Y-109739415D01*
X156703270Y-109741586D01*
X157000000Y-109759535D01*
X157313653Y-109740562D01*
X157332626Y-109739415D01*
X157332630Y-109739414D01*
X157455071Y-109716976D01*
X157660400Y-109679348D01*
X157978545Y-109580210D01*
X158282420Y-109443447D01*
X158567595Y-109271053D01*
X158829910Y-109065542D01*
X159065542Y-108829910D01*
X159271053Y-108567595D01*
X159443447Y-108282420D01*
X159580210Y-107978545D01*
X159679348Y-107660400D01*
X159739415Y-107332625D01*
X159759535Y-107000000D01*
X159741586Y-106703270D01*
X159739415Y-106667373D01*
X159739414Y-106667369D01*
X159679348Y-106339599D01*
X159580212Y-106021461D01*
X159580210Y-106021454D01*
X159484481Y-105808754D01*
X159443447Y-105717580D01*
X159271053Y-105432405D01*
X159065542Y-105170090D01*
X158829910Y-104934458D01*
X158567595Y-104728947D01*
X158282420Y-104556553D01*
X158282418Y-104556552D01*
X157978545Y-104419789D01*
X157978538Y-104419787D01*
X157660400Y-104320651D01*
X157332630Y-104260585D01*
X157332626Y-104260584D01*
X157000000Y-104240465D01*
X156667373Y-104260584D01*
X156667369Y-104260585D01*
X156339599Y-104320651D01*
X156021461Y-104419787D01*
X156021454Y-104419789D01*
X155717581Y-104556552D01*
X155432405Y-104728947D01*
X155170093Y-104934455D01*
X155170087Y-104934460D01*
X154934460Y-105170087D01*
X154934455Y-105170093D01*
X154728947Y-105432405D01*
X154556552Y-105717581D01*
X154419789Y-106021454D01*
X154419787Y-106021461D01*
X154320651Y-106339599D01*
X154260585Y-106667369D01*
X154260584Y-106667373D01*
X154240465Y-106999999D01*
X150723277Y-106999999D01*
X150687642Y-106875460D01*
X150593054Y-106694380D01*
X150463952Y-106536048D01*
X150305620Y-106406946D01*
X150215080Y-106359652D01*
X150124541Y-106312358D01*
X149928126Y-106256156D01*
X149850323Y-106249239D01*
X149808262Y-106245500D01*
X148196181Y-106245500D01*
X148168604Y-106234077D01*
X148157181Y-106206500D01*
X148168604Y-106178923D01*
X148181256Y-106170469D01*
X148196213Y-106164273D01*
X148234643Y-106148355D01*
X148350474Y-106059474D01*
X148439355Y-105943643D01*
X148495228Y-105808754D01*
X148514285Y-105664000D01*
X148514285Y-105663996D01*
X148495229Y-105519249D01*
X148439355Y-105384359D01*
X148439354Y-105384357D01*
X148350474Y-105268525D01*
X148234643Y-105179645D01*
X148234641Y-105179644D01*
X148111244Y-105128531D01*
X148090138Y-105107425D01*
X148090138Y-105077575D01*
X148111244Y-105056469D01*
X148146115Y-105042024D01*
X148234643Y-105005355D01*
X148350474Y-104916474D01*
X148439355Y-104800643D01*
X148495228Y-104665754D01*
X148499992Y-104629565D01*
X148514285Y-104521003D01*
X148514285Y-104520996D01*
X148495229Y-104376249D01*
X148491256Y-104366657D01*
X148439355Y-104241358D01*
X148410254Y-104203433D01*
X148350474Y-104125525D01*
X148234643Y-104036645D01*
X148234641Y-104036644D01*
X148099753Y-103980771D01*
X147955003Y-103961715D01*
X147954997Y-103961715D01*
X147810249Y-103980770D01*
X147675359Y-104036644D01*
X147675357Y-104036645D01*
X147559525Y-104125525D01*
X147470645Y-104241357D01*
X147470644Y-104241359D01*
X147414770Y-104376249D01*
X147395715Y-104520996D01*
X147395715Y-104521003D01*
X147414771Y-104665753D01*
X147470644Y-104800641D01*
X147470645Y-104800643D01*
X147559525Y-104916474D01*
X147648406Y-104984674D01*
X147675357Y-105005355D01*
X147744378Y-105033944D01*
X147798756Y-105056469D01*
X147819862Y-105077575D01*
X147819862Y-105107425D01*
X147798756Y-105128531D01*
X147675359Y-105179644D01*
X147675357Y-105179645D01*
X147559525Y-105268525D01*
X147470645Y-105384357D01*
X147470644Y-105384359D01*
X147414770Y-105519249D01*
X147395715Y-105663996D01*
X147395715Y-105664003D01*
X147414771Y-105808753D01*
X147470644Y-105943641D01*
X147470645Y-105943643D01*
X147559525Y-106059474D01*
X147648406Y-106127674D01*
X147675357Y-106148355D01*
X147810246Y-106204228D01*
X147927566Y-106219673D01*
X147953417Y-106234597D01*
X147961142Y-106263429D01*
X147946218Y-106289280D01*
X147933205Y-106295834D01*
X147875458Y-106312358D01*
X147694380Y-106406946D01*
X147694377Y-106406948D01*
X147536048Y-106536048D01*
X147406948Y-106694377D01*
X147406946Y-106694380D01*
X147312358Y-106875458D01*
X147256156Y-107071873D01*
X147248994Y-107152435D01*
X147245500Y-107191738D01*
X147245500Y-108808262D01*
X141754500Y-108808262D01*
X141754500Y-107191738D01*
X141743843Y-107071872D01*
X141687642Y-106875460D01*
X141593054Y-106694380D01*
X141463952Y-106536048D01*
X141305620Y-106406946D01*
X141215080Y-106359652D01*
X141124541Y-106312358D01*
X141077912Y-106299016D01*
X141054541Y-106280448D01*
X141051146Y-106250792D01*
X141069714Y-106227421D01*
X141093732Y-106222855D01*
X141096998Y-106223285D01*
X141097000Y-106223285D01*
X141097003Y-106223285D01*
X141224496Y-106206500D01*
X141241754Y-106204228D01*
X141376643Y-106148355D01*
X141492474Y-106059474D01*
X141581355Y-105943643D01*
X141637228Y-105808754D01*
X141656285Y-105664003D01*
X141807715Y-105664003D01*
X141826771Y-105808753D01*
X141882644Y-105943641D01*
X141882645Y-105943643D01*
X141971525Y-106059474D01*
X142060405Y-106127674D01*
X142087357Y-106148355D01*
X142204222Y-106196762D01*
X142222246Y-106204228D01*
X142366997Y-106223285D01*
X142367000Y-106223285D01*
X142367003Y-106223285D01*
X142494496Y-106206500D01*
X142511754Y-106204228D01*
X142646643Y-106148355D01*
X142762474Y-106059474D01*
X142851355Y-105943643D01*
X142907228Y-105808754D01*
X142926285Y-105664003D01*
X144855715Y-105664003D01*
X144874771Y-105808753D01*
X144930644Y-105943641D01*
X144930645Y-105943643D01*
X145019525Y-106059474D01*
X145108405Y-106127674D01*
X145135357Y-106148355D01*
X145252222Y-106196762D01*
X145270246Y-106204228D01*
X145414997Y-106223285D01*
X145415000Y-106223285D01*
X145415003Y-106223285D01*
X145542496Y-106206500D01*
X145559754Y-106204228D01*
X145694643Y-106148355D01*
X145810474Y-106059474D01*
X145899355Y-105943643D01*
X145955228Y-105808754D01*
X145974285Y-105664003D01*
X146125715Y-105664003D01*
X146144771Y-105808753D01*
X146200644Y-105943641D01*
X146200645Y-105943643D01*
X146289525Y-106059474D01*
X146378405Y-106127674D01*
X146405357Y-106148355D01*
X146522222Y-106196762D01*
X146540246Y-106204228D01*
X146684997Y-106223285D01*
X146685000Y-106223285D01*
X146685003Y-106223285D01*
X146812496Y-106206500D01*
X146829754Y-106204228D01*
X146964643Y-106148355D01*
X147080474Y-106059474D01*
X147169355Y-105943643D01*
X147225228Y-105808754D01*
X147244285Y-105664000D01*
X147244285Y-105663996D01*
X147225229Y-105519249D01*
X147169355Y-105384359D01*
X147169354Y-105384357D01*
X147080474Y-105268525D01*
X146964643Y-105179645D01*
X146964641Y-105179644D01*
X146841244Y-105128531D01*
X146820138Y-105107425D01*
X146820138Y-105077575D01*
X146841244Y-105056469D01*
X146876115Y-105042024D01*
X146964643Y-105005355D01*
X147080474Y-104916474D01*
X147169355Y-104800643D01*
X147225228Y-104665754D01*
X147229992Y-104629565D01*
X147244285Y-104521003D01*
X147244285Y-104520996D01*
X147225229Y-104376249D01*
X147221256Y-104366657D01*
X147169355Y-104241358D01*
X147140254Y-104203433D01*
X147080474Y-104125525D01*
X146964643Y-104036645D01*
X146964641Y-104036644D01*
X146829753Y-103980771D01*
X146685003Y-103961715D01*
X146684997Y-103961715D01*
X146540249Y-103980770D01*
X146405359Y-104036644D01*
X146405357Y-104036645D01*
X146289525Y-104125525D01*
X146200645Y-104241357D01*
X146200644Y-104241359D01*
X146144770Y-104376249D01*
X146125715Y-104520996D01*
X146125715Y-104521003D01*
X146144771Y-104665753D01*
X146200644Y-104800641D01*
X146200645Y-104800643D01*
X146289525Y-104916474D01*
X146378406Y-104984674D01*
X146405357Y-105005355D01*
X146474378Y-105033944D01*
X146528756Y-105056469D01*
X146549862Y-105077575D01*
X146549862Y-105107425D01*
X146528756Y-105128531D01*
X146405359Y-105179644D01*
X146405357Y-105179645D01*
X146289525Y-105268525D01*
X146200645Y-105384357D01*
X146200644Y-105384359D01*
X146144770Y-105519249D01*
X146125715Y-105663996D01*
X146125715Y-105664003D01*
X145974285Y-105664003D01*
X145974285Y-105664000D01*
X145974285Y-105663996D01*
X145955229Y-105519249D01*
X145899355Y-105384359D01*
X145899354Y-105384357D01*
X145810474Y-105268525D01*
X145694643Y-105179645D01*
X145694641Y-105179644D01*
X145571244Y-105128531D01*
X145550138Y-105107425D01*
X145550138Y-105077575D01*
X145571244Y-105056469D01*
X145606115Y-105042024D01*
X145694643Y-105005355D01*
X145810474Y-104916474D01*
X145899355Y-104800643D01*
X145955228Y-104665754D01*
X145959992Y-104629565D01*
X145974285Y-104521003D01*
X145974285Y-104520996D01*
X145955229Y-104376249D01*
X145951256Y-104366657D01*
X145899355Y-104241358D01*
X145870254Y-104203433D01*
X145810474Y-104125525D01*
X145694643Y-104036645D01*
X145694641Y-104036644D01*
X145559753Y-103980771D01*
X145415003Y-103961715D01*
X145414997Y-103961715D01*
X145270249Y-103980770D01*
X145135359Y-104036644D01*
X145135357Y-104036645D01*
X145019525Y-104125525D01*
X144930645Y-104241357D01*
X144930644Y-104241359D01*
X144874770Y-104376249D01*
X144855715Y-104520996D01*
X144855715Y-104521003D01*
X144874771Y-104665753D01*
X144930644Y-104800641D01*
X144930645Y-104800643D01*
X145019525Y-104916474D01*
X145108406Y-104984674D01*
X145135357Y-105005355D01*
X145204378Y-105033944D01*
X145258756Y-105056469D01*
X145279862Y-105077575D01*
X145279862Y-105107425D01*
X145258756Y-105128531D01*
X145135359Y-105179644D01*
X145135357Y-105179645D01*
X145019525Y-105268525D01*
X144930645Y-105384357D01*
X144930644Y-105384359D01*
X144874770Y-105519249D01*
X144855715Y-105663996D01*
X144855715Y-105664003D01*
X142926285Y-105664003D01*
X142926285Y-105664000D01*
X142926285Y-105663996D01*
X142907229Y-105519249D01*
X142851355Y-105384359D01*
X142851354Y-105384357D01*
X142762474Y-105268525D01*
X142646643Y-105179645D01*
X142646641Y-105179644D01*
X142523244Y-105128531D01*
X142502138Y-105107425D01*
X142502138Y-105077575D01*
X142523244Y-105056469D01*
X142558115Y-105042024D01*
X142646643Y-105005355D01*
X142762474Y-104916474D01*
X142851355Y-104800643D01*
X142907228Y-104665754D01*
X142911992Y-104629565D01*
X142926285Y-104521003D01*
X142926285Y-104520996D01*
X142907229Y-104376249D01*
X142903256Y-104366657D01*
X142851355Y-104241358D01*
X142822254Y-104203433D01*
X142762474Y-104125525D01*
X142646643Y-104036645D01*
X142646641Y-104036644D01*
X142511753Y-103980771D01*
X142367003Y-103961715D01*
X142366997Y-103961715D01*
X142222249Y-103980770D01*
X142087359Y-104036644D01*
X142087357Y-104036645D01*
X141971525Y-104125525D01*
X141882645Y-104241357D01*
X141882644Y-104241359D01*
X141826770Y-104376249D01*
X141807715Y-104520996D01*
X141807715Y-104521003D01*
X141826771Y-104665753D01*
X141882644Y-104800641D01*
X141882645Y-104800643D01*
X141971525Y-104916474D01*
X142060405Y-104984674D01*
X142087357Y-105005355D01*
X142156378Y-105033944D01*
X142210756Y-105056469D01*
X142231862Y-105077575D01*
X142231862Y-105107425D01*
X142210756Y-105128531D01*
X142087359Y-105179644D01*
X142087357Y-105179645D01*
X141971525Y-105268525D01*
X141882645Y-105384357D01*
X141882644Y-105384359D01*
X141826770Y-105519249D01*
X141807715Y-105663996D01*
X141807715Y-105664003D01*
X141656285Y-105664003D01*
X141656285Y-105664000D01*
X141656285Y-105663996D01*
X141637229Y-105519249D01*
X141581355Y-105384359D01*
X141581354Y-105384357D01*
X141492474Y-105268525D01*
X141376643Y-105179645D01*
X141376641Y-105179644D01*
X141253244Y-105128531D01*
X141232138Y-105107425D01*
X141232138Y-105077575D01*
X141253244Y-105056469D01*
X141288115Y-105042024D01*
X141376643Y-105005355D01*
X141492474Y-104916474D01*
X141581355Y-104800643D01*
X141637228Y-104665754D01*
X141641992Y-104629565D01*
X141656285Y-104521003D01*
X141656285Y-104520996D01*
X141637229Y-104376249D01*
X141633256Y-104366657D01*
X141581355Y-104241358D01*
X141552254Y-104203433D01*
X141492474Y-104125525D01*
X141376643Y-104036645D01*
X141376641Y-104036644D01*
X141241753Y-103980771D01*
X141097003Y-103961715D01*
X141096997Y-103961715D01*
X140952249Y-103980770D01*
X140817359Y-104036644D01*
X140817357Y-104036645D01*
X140701525Y-104125525D01*
X140612645Y-104241357D01*
X140612644Y-104241359D01*
X140556770Y-104376249D01*
X140537715Y-104520996D01*
X140537715Y-104521003D01*
X140556771Y-104665753D01*
X140612644Y-104800641D01*
X140612645Y-104800643D01*
X140701525Y-104916474D01*
X140790405Y-104984674D01*
X140817357Y-105005355D01*
X140886378Y-105033944D01*
X140940756Y-105056469D01*
X140961862Y-105077575D01*
X140961862Y-105107425D01*
X140940756Y-105128531D01*
X140817359Y-105179644D01*
X140817357Y-105179645D01*
X140701525Y-105268525D01*
X140612645Y-105384357D01*
X140612644Y-105384359D01*
X140556770Y-105519249D01*
X140537715Y-105663996D01*
X140537715Y-105664003D01*
X140556771Y-105808753D01*
X140612644Y-105943641D01*
X140612645Y-105943643D01*
X140701525Y-106059474D01*
X140790405Y-106127674D01*
X140817357Y-106148355D01*
X140883268Y-106175656D01*
X140904374Y-106196762D01*
X140904374Y-106226612D01*
X140883268Y-106247718D01*
X140864890Y-106250534D01*
X140828081Y-106247262D01*
X140808262Y-106245500D01*
X140068181Y-106245500D01*
X140040604Y-106234077D01*
X140029181Y-106206500D01*
X140040604Y-106178923D01*
X140053256Y-106170469D01*
X140068213Y-106164273D01*
X140106643Y-106148355D01*
X140222474Y-106059474D01*
X140311355Y-105943643D01*
X140367228Y-105808754D01*
X140386285Y-105664000D01*
X140386285Y-105663996D01*
X140367229Y-105519249D01*
X140311355Y-105384359D01*
X140311354Y-105384357D01*
X140222474Y-105268525D01*
X140106643Y-105179645D01*
X140106641Y-105179644D01*
X139983244Y-105128531D01*
X139962138Y-105107425D01*
X139962138Y-105077575D01*
X139983244Y-105056469D01*
X140018115Y-105042024D01*
X140106643Y-105005355D01*
X140222474Y-104916474D01*
X140311355Y-104800643D01*
X140367228Y-104665754D01*
X140371992Y-104629565D01*
X140386285Y-104521003D01*
X140386285Y-104520996D01*
X140367229Y-104376249D01*
X140363256Y-104366657D01*
X140311355Y-104241358D01*
X140282254Y-104203433D01*
X140222474Y-104125525D01*
X140106643Y-104036645D01*
X140106641Y-104036644D01*
X139971753Y-103980771D01*
X139827003Y-103961715D01*
X139826997Y-103961715D01*
X139682249Y-103980770D01*
X139547359Y-104036644D01*
X139547357Y-104036645D01*
X139431525Y-104125525D01*
X139342645Y-104241357D01*
X139342644Y-104241359D01*
X139286770Y-104376249D01*
X139267715Y-104520996D01*
X139267715Y-104521003D01*
X139286771Y-104665753D01*
X139342644Y-104800641D01*
X139342645Y-104800643D01*
X139431525Y-104916474D01*
X139520405Y-104984674D01*
X139547357Y-105005355D01*
X139616378Y-105033944D01*
X139670756Y-105056469D01*
X139691862Y-105077575D01*
X139691862Y-105107425D01*
X139670756Y-105128531D01*
X139547359Y-105179644D01*
X139547357Y-105179645D01*
X139431525Y-105268525D01*
X139342645Y-105384357D01*
X139342644Y-105384359D01*
X139286770Y-105519249D01*
X139267715Y-105663996D01*
X139267715Y-105664003D01*
X139286771Y-105808753D01*
X139342644Y-105943641D01*
X139342645Y-105943643D01*
X139431525Y-106059474D01*
X139520406Y-106127674D01*
X139547357Y-106148355D01*
X139577376Y-106160789D01*
X139600744Y-106170469D01*
X139621850Y-106191576D01*
X139621850Y-106221425D01*
X139600743Y-106242531D01*
X139585819Y-106245500D01*
X139191738Y-106245500D01*
X139152435Y-106248994D01*
X139071873Y-106256156D01*
X138875458Y-106312358D01*
X138694380Y-106406946D01*
X138694377Y-106406948D01*
X138536048Y-106536048D01*
X138406948Y-106694377D01*
X138406946Y-106694380D01*
X138312358Y-106875458D01*
X138256156Y-107071873D01*
X138248994Y-107152435D01*
X138245500Y-107191738D01*
X138245500Y-108808262D01*
X132754500Y-108808262D01*
X132754500Y-107191738D01*
X132743843Y-107071872D01*
X132687642Y-106875460D01*
X132593054Y-106694380D01*
X132463952Y-106536048D01*
X132305620Y-106406946D01*
X132215080Y-106359652D01*
X132124541Y-106312358D01*
X131928126Y-106256156D01*
X131850323Y-106249239D01*
X131808262Y-106245500D01*
X130191738Y-106245500D01*
X130152435Y-106248994D01*
X130071873Y-106256156D01*
X129875458Y-106312358D01*
X129694380Y-106406946D01*
X129694377Y-106406948D01*
X129536048Y-106536048D01*
X129406948Y-106694377D01*
X129406946Y-106694380D01*
X129312358Y-106875458D01*
X129256156Y-107071873D01*
X129248994Y-107152435D01*
X129245500Y-107191738D01*
X129245500Y-108808262D01*
X124957502Y-108808262D01*
X125146053Y-108567595D01*
X125318447Y-108282420D01*
X125455210Y-107978545D01*
X125554348Y-107660400D01*
X125614415Y-107332625D01*
X125634535Y-107000000D01*
X125616710Y-106705317D01*
X125614415Y-106667373D01*
X125614414Y-106667369D01*
X125554348Y-106339599D01*
X125455212Y-106021461D01*
X125455210Y-106021454D01*
X125359481Y-105808754D01*
X125318447Y-105717580D01*
X125146053Y-105432405D01*
X124940542Y-105170090D01*
X124704910Y-104934458D01*
X124442595Y-104728947D01*
X124157420Y-104556553D01*
X124157418Y-104556552D01*
X123853545Y-104419789D01*
X123853538Y-104419787D01*
X123770794Y-104394003D01*
X127964715Y-104394003D01*
X127983771Y-104538753D01*
X128039644Y-104673641D01*
X128039645Y-104673643D01*
X128128525Y-104789474D01*
X128217405Y-104857674D01*
X128244357Y-104878355D01*
X128336384Y-104916474D01*
X128379246Y-104934228D01*
X128523997Y-104953285D01*
X128524000Y-104953285D01*
X128524003Y-104953285D01*
X128632565Y-104938992D01*
X128668754Y-104934228D01*
X128803643Y-104878355D01*
X128919474Y-104789474D01*
X129008355Y-104673643D01*
X129064228Y-104538754D01*
X129083285Y-104394003D01*
X129234715Y-104394003D01*
X129253771Y-104538753D01*
X129309644Y-104673641D01*
X129309645Y-104673643D01*
X129398525Y-104789474D01*
X129487405Y-104857674D01*
X129514357Y-104878355D01*
X129606384Y-104916474D01*
X129649246Y-104934228D01*
X129793997Y-104953285D01*
X129794000Y-104953285D01*
X129794003Y-104953285D01*
X129902565Y-104938992D01*
X129938754Y-104934228D01*
X130073643Y-104878355D01*
X130189474Y-104789474D01*
X130278355Y-104673643D01*
X130334228Y-104538754D01*
X130353285Y-104394003D01*
X130504715Y-104394003D01*
X130523771Y-104538753D01*
X130579644Y-104673641D01*
X130579645Y-104673643D01*
X130668525Y-104789474D01*
X130757405Y-104857674D01*
X130784357Y-104878355D01*
X130876384Y-104916474D01*
X130919246Y-104934228D01*
X131063997Y-104953285D01*
X131064000Y-104953285D01*
X131064003Y-104953285D01*
X131172565Y-104938992D01*
X131208754Y-104934228D01*
X131343643Y-104878355D01*
X131459474Y-104789474D01*
X131548355Y-104673643D01*
X131604228Y-104538754D01*
X131623285Y-104394003D01*
X131774715Y-104394003D01*
X131793771Y-104538753D01*
X131849644Y-104673641D01*
X131849645Y-104673643D01*
X131938525Y-104789474D01*
X132027405Y-104857674D01*
X132054357Y-104878355D01*
X132146384Y-104916474D01*
X132189246Y-104934228D01*
X132333997Y-104953285D01*
X132334000Y-104953285D01*
X132334003Y-104953285D01*
X132442565Y-104938992D01*
X132478754Y-104934228D01*
X132613643Y-104878355D01*
X132729474Y-104789474D01*
X132818355Y-104673643D01*
X132874228Y-104538754D01*
X132893285Y-104394003D01*
X133679715Y-104394003D01*
X133698771Y-104538753D01*
X133754644Y-104673641D01*
X133754645Y-104673643D01*
X133843525Y-104789474D01*
X133932405Y-104857674D01*
X133959357Y-104878355D01*
X134051384Y-104916474D01*
X134094246Y-104934228D01*
X134238997Y-104953285D01*
X134239000Y-104953285D01*
X134239003Y-104953285D01*
X134347565Y-104938992D01*
X134383754Y-104934228D01*
X134518643Y-104878355D01*
X134634474Y-104789474D01*
X134723355Y-104673643D01*
X134779228Y-104538754D01*
X134798285Y-104394003D01*
X134949715Y-104394003D01*
X134968771Y-104538753D01*
X135024644Y-104673641D01*
X135024645Y-104673643D01*
X135113525Y-104789474D01*
X135202406Y-104857674D01*
X135229357Y-104878355D01*
X135321384Y-104916474D01*
X135364246Y-104934228D01*
X135508997Y-104953285D01*
X135509000Y-104953285D01*
X135509003Y-104953285D01*
X135617565Y-104938992D01*
X135653754Y-104934228D01*
X135788643Y-104878355D01*
X135904474Y-104789474D01*
X135993355Y-104673643D01*
X136049228Y-104538754D01*
X136068285Y-104394003D01*
X136219715Y-104394003D01*
X136238771Y-104538753D01*
X136294644Y-104673641D01*
X136294645Y-104673643D01*
X136383525Y-104789474D01*
X136472406Y-104857674D01*
X136499357Y-104878355D01*
X136591384Y-104916474D01*
X136634246Y-104934228D01*
X136778997Y-104953285D01*
X136779000Y-104953285D01*
X136779003Y-104953285D01*
X136887565Y-104938992D01*
X136923754Y-104934228D01*
X137058643Y-104878355D01*
X137174474Y-104789474D01*
X137263355Y-104673643D01*
X137319228Y-104538754D01*
X137338285Y-104394003D01*
X137489715Y-104394003D01*
X137508771Y-104538753D01*
X137564644Y-104673641D01*
X137564645Y-104673643D01*
X137653525Y-104789474D01*
X137742406Y-104857674D01*
X137769357Y-104878355D01*
X137861384Y-104916474D01*
X137904246Y-104934228D01*
X138048997Y-104953285D01*
X138049000Y-104953285D01*
X138049003Y-104953285D01*
X138157565Y-104938992D01*
X138193754Y-104934228D01*
X138328643Y-104878355D01*
X138444474Y-104789474D01*
X138533355Y-104673643D01*
X138589228Y-104538754D01*
X138608285Y-104394000D01*
X138608285Y-104393996D01*
X138589229Y-104249249D01*
X138586787Y-104243354D01*
X138533355Y-104114358D01*
X138475257Y-104038643D01*
X138444474Y-103998525D01*
X138338151Y-103916941D01*
X138323227Y-103891090D01*
X138330952Y-103862258D01*
X138338151Y-103855059D01*
X138444474Y-103773474D01*
X138455583Y-103758996D01*
X138533355Y-103657643D01*
X138589228Y-103522754D01*
X138608285Y-103378000D01*
X138608285Y-103377996D01*
X138589229Y-103233249D01*
X138586788Y-103227355D01*
X138533355Y-103098358D01*
X138475257Y-103022643D01*
X138444474Y-102982525D01*
X138338151Y-102900941D01*
X138323227Y-102875090D01*
X138330952Y-102846258D01*
X138338151Y-102839059D01*
X138444474Y-102757474D01*
X138455583Y-102742996D01*
X138533355Y-102641643D01*
X138589228Y-102506754D01*
X138608285Y-102362000D01*
X138608285Y-102361996D01*
X138589229Y-102217249D01*
X138586132Y-102209772D01*
X138533355Y-102082358D01*
X138475257Y-102006643D01*
X138444474Y-101966525D01*
X138328643Y-101877645D01*
X138328641Y-101877644D01*
X138193753Y-101821771D01*
X138049003Y-101802715D01*
X138048997Y-101802715D01*
X137904249Y-101821770D01*
X137769359Y-101877644D01*
X137769357Y-101877645D01*
X137653525Y-101966525D01*
X137564645Y-102082357D01*
X137564644Y-102082359D01*
X137508770Y-102217249D01*
X137489715Y-102361996D01*
X137489715Y-102362003D01*
X137508771Y-102506753D01*
X137564644Y-102641641D01*
X137564645Y-102641643D01*
X137653525Y-102757474D01*
X137759849Y-102839059D01*
X137774773Y-102864910D01*
X137767048Y-102893742D01*
X137759849Y-102900941D01*
X137653525Y-102982525D01*
X137564645Y-103098357D01*
X137564644Y-103098359D01*
X137508770Y-103233249D01*
X137489715Y-103377996D01*
X137489715Y-103378003D01*
X137508771Y-103522753D01*
X137564644Y-103657641D01*
X137564645Y-103657643D01*
X137653525Y-103773474D01*
X137759849Y-103855059D01*
X137774773Y-103880910D01*
X137767048Y-103909742D01*
X137759849Y-103916941D01*
X137653525Y-103998525D01*
X137564645Y-104114357D01*
X137564644Y-104114359D01*
X137508770Y-104249249D01*
X137489715Y-104393996D01*
X137489715Y-104394003D01*
X137338285Y-104394003D01*
X137338285Y-104394000D01*
X137338285Y-104393996D01*
X137319229Y-104249249D01*
X137316787Y-104243354D01*
X137263355Y-104114358D01*
X137205257Y-104038643D01*
X137174474Y-103998525D01*
X137068151Y-103916941D01*
X137053227Y-103891090D01*
X137060952Y-103862258D01*
X137068151Y-103855059D01*
X137174474Y-103773474D01*
X137185583Y-103758996D01*
X137263355Y-103657643D01*
X137319228Y-103522754D01*
X137338285Y-103378000D01*
X137338285Y-103377996D01*
X137319229Y-103233249D01*
X137316788Y-103227355D01*
X137263355Y-103098358D01*
X137205257Y-103022643D01*
X137174474Y-102982525D01*
X137068151Y-102900941D01*
X137053227Y-102875090D01*
X137060952Y-102846258D01*
X137068151Y-102839059D01*
X137174474Y-102757474D01*
X137185583Y-102742996D01*
X137263355Y-102641643D01*
X137319228Y-102506754D01*
X137338285Y-102362000D01*
X137338285Y-102361996D01*
X137319229Y-102217249D01*
X137316132Y-102209772D01*
X137263355Y-102082358D01*
X137205257Y-102006643D01*
X137174474Y-101966525D01*
X137058643Y-101877645D01*
X137058641Y-101877644D01*
X136923753Y-101821771D01*
X136779003Y-101802715D01*
X136778997Y-101802715D01*
X136634249Y-101821770D01*
X136499359Y-101877644D01*
X136499357Y-101877645D01*
X136383525Y-101966525D01*
X136294645Y-102082357D01*
X136294644Y-102082359D01*
X136238770Y-102217249D01*
X136219715Y-102361996D01*
X136219715Y-102362003D01*
X136238771Y-102506753D01*
X136294644Y-102641641D01*
X136294645Y-102641643D01*
X136383525Y-102757474D01*
X136489849Y-102839059D01*
X136504773Y-102864910D01*
X136497048Y-102893742D01*
X136489849Y-102900941D01*
X136383525Y-102982525D01*
X136294645Y-103098357D01*
X136294644Y-103098359D01*
X136238770Y-103233249D01*
X136219715Y-103377996D01*
X136219715Y-103378003D01*
X136238771Y-103522753D01*
X136294644Y-103657641D01*
X136294645Y-103657643D01*
X136383525Y-103773474D01*
X136489849Y-103855059D01*
X136504773Y-103880910D01*
X136497048Y-103909742D01*
X136489849Y-103916941D01*
X136383525Y-103998525D01*
X136294645Y-104114357D01*
X136294644Y-104114359D01*
X136238770Y-104249249D01*
X136219715Y-104393996D01*
X136219715Y-104394003D01*
X136068285Y-104394003D01*
X136068285Y-104394000D01*
X136068285Y-104393996D01*
X136049229Y-104249249D01*
X136046787Y-104243354D01*
X135993355Y-104114358D01*
X135935257Y-104038643D01*
X135904474Y-103998525D01*
X135798151Y-103916941D01*
X135783227Y-103891090D01*
X135790952Y-103862258D01*
X135798151Y-103855059D01*
X135904474Y-103773474D01*
X135915583Y-103758996D01*
X135993355Y-103657643D01*
X136049228Y-103522754D01*
X136068285Y-103378000D01*
X136068285Y-103377996D01*
X136049229Y-103233249D01*
X136046788Y-103227355D01*
X135993355Y-103098358D01*
X135935257Y-103022643D01*
X135904474Y-102982525D01*
X135798151Y-102900941D01*
X135783227Y-102875090D01*
X135790952Y-102846258D01*
X135798151Y-102839059D01*
X135904474Y-102757474D01*
X135915583Y-102742996D01*
X135993355Y-102641643D01*
X136049228Y-102506754D01*
X136068285Y-102362000D01*
X136068285Y-102361996D01*
X136049229Y-102217249D01*
X136046132Y-102209772D01*
X135993355Y-102082358D01*
X135935257Y-102006643D01*
X135904474Y-101966525D01*
X135788643Y-101877645D01*
X135788641Y-101877644D01*
X135653753Y-101821771D01*
X135509003Y-101802715D01*
X135508997Y-101802715D01*
X135364249Y-101821770D01*
X135229359Y-101877644D01*
X135229357Y-101877645D01*
X135113525Y-101966525D01*
X135024645Y-102082357D01*
X135024644Y-102082359D01*
X134968770Y-102217249D01*
X134949715Y-102361996D01*
X134949715Y-102362003D01*
X134968771Y-102506753D01*
X135024644Y-102641641D01*
X135024645Y-102641643D01*
X135113525Y-102757474D01*
X135219849Y-102839059D01*
X135234773Y-102864910D01*
X135227048Y-102893742D01*
X135219849Y-102900941D01*
X135113525Y-102982525D01*
X135024645Y-103098357D01*
X135024644Y-103098359D01*
X134968770Y-103233249D01*
X134949715Y-103377996D01*
X134949715Y-103378003D01*
X134968771Y-103522753D01*
X135024644Y-103657641D01*
X135024645Y-103657643D01*
X135113525Y-103773474D01*
X135219849Y-103855059D01*
X135234773Y-103880910D01*
X135227048Y-103909742D01*
X135219849Y-103916941D01*
X135113525Y-103998525D01*
X135024645Y-104114357D01*
X135024644Y-104114359D01*
X134968770Y-104249249D01*
X134949715Y-104393996D01*
X134949715Y-104394003D01*
X134798285Y-104394003D01*
X134798285Y-104394000D01*
X134798285Y-104393996D01*
X134779229Y-104249249D01*
X134776787Y-104243354D01*
X134723355Y-104114358D01*
X134665257Y-104038643D01*
X134634474Y-103998525D01*
X134528151Y-103916941D01*
X134513227Y-103891090D01*
X134520952Y-103862258D01*
X134528151Y-103855059D01*
X134634474Y-103773474D01*
X134645583Y-103758996D01*
X134723355Y-103657643D01*
X134779228Y-103522754D01*
X134798285Y-103378000D01*
X134798285Y-103377996D01*
X134779229Y-103233249D01*
X134776788Y-103227355D01*
X134723355Y-103098358D01*
X134665257Y-103022643D01*
X134634474Y-102982525D01*
X134528151Y-102900941D01*
X134513227Y-102875090D01*
X134520952Y-102846258D01*
X134528151Y-102839059D01*
X134634474Y-102757474D01*
X134645583Y-102742996D01*
X134723355Y-102641643D01*
X134779228Y-102506754D01*
X134798285Y-102362000D01*
X134798285Y-102361996D01*
X134779229Y-102217249D01*
X134776132Y-102209772D01*
X134723355Y-102082358D01*
X134665257Y-102006643D01*
X134634474Y-101966525D01*
X134518643Y-101877645D01*
X134518641Y-101877644D01*
X134383753Y-101821771D01*
X134239003Y-101802715D01*
X134238997Y-101802715D01*
X134094249Y-101821770D01*
X133959359Y-101877644D01*
X133959357Y-101877645D01*
X133843525Y-101966525D01*
X133754645Y-102082357D01*
X133754644Y-102082359D01*
X133698770Y-102217249D01*
X133679715Y-102361996D01*
X133679715Y-102362003D01*
X133698771Y-102506753D01*
X133754644Y-102641641D01*
X133754645Y-102641643D01*
X133843525Y-102757474D01*
X133949849Y-102839059D01*
X133964773Y-102864910D01*
X133957048Y-102893742D01*
X133949849Y-102900941D01*
X133843525Y-102982525D01*
X133754645Y-103098357D01*
X133754644Y-103098359D01*
X133698770Y-103233249D01*
X133679715Y-103377996D01*
X133679715Y-103378003D01*
X133698771Y-103522753D01*
X133754644Y-103657641D01*
X133754645Y-103657643D01*
X133843525Y-103773474D01*
X133949849Y-103855059D01*
X133964773Y-103880910D01*
X133957048Y-103909742D01*
X133949849Y-103916941D01*
X133843525Y-103998525D01*
X133754645Y-104114357D01*
X133754644Y-104114359D01*
X133698770Y-104249249D01*
X133679715Y-104393996D01*
X133679715Y-104394003D01*
X132893285Y-104394003D01*
X132893285Y-104394000D01*
X132893285Y-104393996D01*
X132874229Y-104249249D01*
X132871787Y-104243354D01*
X132818355Y-104114358D01*
X132760257Y-104038643D01*
X132729474Y-103998525D01*
X132623151Y-103916941D01*
X132608227Y-103891090D01*
X132615952Y-103862258D01*
X132623151Y-103855059D01*
X132729474Y-103773474D01*
X132740583Y-103758996D01*
X132818355Y-103657643D01*
X132874228Y-103522754D01*
X132893285Y-103378000D01*
X132893285Y-103377996D01*
X132874229Y-103233249D01*
X132871788Y-103227355D01*
X132818355Y-103098358D01*
X132760257Y-103022643D01*
X132729474Y-102982525D01*
X132623151Y-102900941D01*
X132608227Y-102875090D01*
X132615952Y-102846258D01*
X132623151Y-102839059D01*
X132729474Y-102757474D01*
X132740583Y-102742996D01*
X132818355Y-102641643D01*
X132874228Y-102506754D01*
X132893285Y-102362000D01*
X132893285Y-102361996D01*
X132874229Y-102217249D01*
X132871132Y-102209772D01*
X132818355Y-102082358D01*
X132760257Y-102006643D01*
X132729474Y-101966525D01*
X132613643Y-101877645D01*
X132613641Y-101877644D01*
X132478753Y-101821771D01*
X132334003Y-101802715D01*
X132333997Y-101802715D01*
X132189249Y-101821770D01*
X132054359Y-101877644D01*
X132054357Y-101877645D01*
X131938525Y-101966525D01*
X131849645Y-102082357D01*
X131849644Y-102082359D01*
X131793770Y-102217249D01*
X131774715Y-102361996D01*
X131774715Y-102362003D01*
X131793771Y-102506753D01*
X131849644Y-102641641D01*
X131849645Y-102641643D01*
X131938525Y-102757474D01*
X132044849Y-102839059D01*
X132059773Y-102864910D01*
X132052048Y-102893742D01*
X132044849Y-102900941D01*
X131938525Y-102982525D01*
X131849645Y-103098357D01*
X131849644Y-103098359D01*
X131793770Y-103233249D01*
X131774715Y-103377996D01*
X131774715Y-103378003D01*
X131793771Y-103522753D01*
X131849644Y-103657641D01*
X131849645Y-103657643D01*
X131938525Y-103773474D01*
X132044849Y-103855059D01*
X132059773Y-103880910D01*
X132052048Y-103909742D01*
X132044849Y-103916941D01*
X131938525Y-103998525D01*
X131849645Y-104114357D01*
X131849644Y-104114359D01*
X131793770Y-104249249D01*
X131774715Y-104393996D01*
X131774715Y-104394003D01*
X131623285Y-104394003D01*
X131623285Y-104394000D01*
X131623285Y-104393996D01*
X131604229Y-104249249D01*
X131601787Y-104243354D01*
X131548355Y-104114358D01*
X131490257Y-104038643D01*
X131459474Y-103998525D01*
X131353151Y-103916941D01*
X131338227Y-103891090D01*
X131345952Y-103862258D01*
X131353151Y-103855059D01*
X131459474Y-103773474D01*
X131470583Y-103758996D01*
X131548355Y-103657643D01*
X131604228Y-103522754D01*
X131623285Y-103378000D01*
X131623285Y-103377996D01*
X131604229Y-103233249D01*
X131601788Y-103227355D01*
X131548355Y-103098358D01*
X131490257Y-103022643D01*
X131459474Y-102982525D01*
X131353151Y-102900941D01*
X131338227Y-102875090D01*
X131345952Y-102846258D01*
X131353151Y-102839059D01*
X131459474Y-102757474D01*
X131470583Y-102742996D01*
X131548355Y-102641643D01*
X131604228Y-102506754D01*
X131623285Y-102362000D01*
X131623285Y-102361996D01*
X131604229Y-102217249D01*
X131601132Y-102209772D01*
X131548355Y-102082358D01*
X131490257Y-102006643D01*
X131459474Y-101966525D01*
X131343643Y-101877645D01*
X131343641Y-101877644D01*
X131208753Y-101821771D01*
X131064003Y-101802715D01*
X131063997Y-101802715D01*
X130919249Y-101821770D01*
X130784359Y-101877644D01*
X130784357Y-101877645D01*
X130668525Y-101966525D01*
X130579645Y-102082357D01*
X130579644Y-102082359D01*
X130523770Y-102217249D01*
X130504715Y-102361996D01*
X130504715Y-102362003D01*
X130523771Y-102506753D01*
X130579644Y-102641641D01*
X130579645Y-102641643D01*
X130668525Y-102757474D01*
X130774849Y-102839059D01*
X130789773Y-102864910D01*
X130782048Y-102893742D01*
X130774849Y-102900941D01*
X130668525Y-102982525D01*
X130579645Y-103098357D01*
X130579644Y-103098359D01*
X130523770Y-103233249D01*
X130504715Y-103377996D01*
X130504715Y-103378003D01*
X130523771Y-103522753D01*
X130579644Y-103657641D01*
X130579645Y-103657643D01*
X130668525Y-103773474D01*
X130774849Y-103855059D01*
X130789773Y-103880910D01*
X130782048Y-103909742D01*
X130774849Y-103916941D01*
X130668525Y-103998525D01*
X130579645Y-104114357D01*
X130579644Y-104114359D01*
X130523770Y-104249249D01*
X130504715Y-104393996D01*
X130504715Y-104394003D01*
X130353285Y-104394003D01*
X130353285Y-104394000D01*
X130353285Y-104393996D01*
X130334229Y-104249249D01*
X130331787Y-104243354D01*
X130278355Y-104114358D01*
X130220257Y-104038643D01*
X130189474Y-103998525D01*
X130083151Y-103916941D01*
X130068227Y-103891090D01*
X130075952Y-103862258D01*
X130083151Y-103855059D01*
X130189474Y-103773474D01*
X130200583Y-103758996D01*
X130278355Y-103657643D01*
X130334228Y-103522754D01*
X130353285Y-103378000D01*
X130353285Y-103377996D01*
X130334229Y-103233249D01*
X130331788Y-103227355D01*
X130278355Y-103098358D01*
X130220257Y-103022643D01*
X130189474Y-102982525D01*
X130083151Y-102900941D01*
X130068227Y-102875090D01*
X130075952Y-102846258D01*
X130083151Y-102839059D01*
X130189474Y-102757474D01*
X130200583Y-102742996D01*
X130278355Y-102641643D01*
X130334228Y-102506754D01*
X130353285Y-102362000D01*
X130353285Y-102361996D01*
X130334229Y-102217249D01*
X130331132Y-102209772D01*
X130278355Y-102082358D01*
X130220257Y-102006643D01*
X130189474Y-101966525D01*
X130073643Y-101877645D01*
X130073641Y-101877644D01*
X129938753Y-101821771D01*
X129794003Y-101802715D01*
X129793997Y-101802715D01*
X129649249Y-101821770D01*
X129514359Y-101877644D01*
X129514357Y-101877645D01*
X129398525Y-101966525D01*
X129309645Y-102082357D01*
X129309644Y-102082359D01*
X129253770Y-102217249D01*
X129234715Y-102361996D01*
X129234715Y-102362003D01*
X129253771Y-102506753D01*
X129309644Y-102641641D01*
X129309645Y-102641643D01*
X129398525Y-102757474D01*
X129504849Y-102839059D01*
X129519773Y-102864910D01*
X129512048Y-102893742D01*
X129504849Y-102900941D01*
X129398525Y-102982525D01*
X129309645Y-103098357D01*
X129309644Y-103098359D01*
X129253770Y-103233249D01*
X129234715Y-103377996D01*
X129234715Y-103378003D01*
X129253771Y-103522753D01*
X129309644Y-103657641D01*
X129309645Y-103657643D01*
X129398525Y-103773474D01*
X129504849Y-103855059D01*
X129519773Y-103880910D01*
X129512048Y-103909742D01*
X129504849Y-103916941D01*
X129398525Y-103998525D01*
X129309645Y-104114357D01*
X129309644Y-104114359D01*
X129253770Y-104249249D01*
X129234715Y-104393996D01*
X129234715Y-104394003D01*
X129083285Y-104394003D01*
X129083285Y-104394000D01*
X129083285Y-104393996D01*
X129064229Y-104249249D01*
X129061787Y-104243354D01*
X129008355Y-104114358D01*
X128950257Y-104038643D01*
X128919474Y-103998525D01*
X128813151Y-103916941D01*
X128798227Y-103891090D01*
X128805952Y-103862258D01*
X128813151Y-103855059D01*
X128919474Y-103773474D01*
X128930583Y-103758996D01*
X129008355Y-103657643D01*
X129064228Y-103522754D01*
X129083285Y-103378000D01*
X129083285Y-103377996D01*
X129064229Y-103233249D01*
X129061788Y-103227355D01*
X129008355Y-103098358D01*
X128950257Y-103022643D01*
X128919474Y-102982525D01*
X128813151Y-102900941D01*
X128798227Y-102875090D01*
X128805952Y-102846258D01*
X128813151Y-102839059D01*
X128919474Y-102757474D01*
X128930583Y-102742996D01*
X129008355Y-102641643D01*
X129064228Y-102506754D01*
X129083285Y-102362000D01*
X129083285Y-102361996D01*
X129064229Y-102217249D01*
X129061132Y-102209772D01*
X129008355Y-102082358D01*
X128950257Y-102006643D01*
X128919474Y-101966525D01*
X128803643Y-101877645D01*
X128803641Y-101877644D01*
X128668753Y-101821771D01*
X128524003Y-101802715D01*
X128523997Y-101802715D01*
X128379249Y-101821770D01*
X128244359Y-101877644D01*
X128244357Y-101877645D01*
X128128525Y-101966525D01*
X128039645Y-102082357D01*
X128039644Y-102082359D01*
X127983770Y-102217249D01*
X127964715Y-102361996D01*
X127964715Y-102362003D01*
X127983771Y-102506753D01*
X128039644Y-102641641D01*
X128039645Y-102641643D01*
X128128525Y-102757474D01*
X128234849Y-102839059D01*
X128249773Y-102864910D01*
X128242048Y-102893742D01*
X128234849Y-102900941D01*
X128128525Y-102982525D01*
X128039645Y-103098357D01*
X128039644Y-103098359D01*
X127983770Y-103233249D01*
X127964715Y-103377996D01*
X127964715Y-103378003D01*
X127983771Y-103522753D01*
X128039644Y-103657641D01*
X128039645Y-103657643D01*
X128128525Y-103773474D01*
X128234849Y-103855059D01*
X128249773Y-103880910D01*
X128242048Y-103909742D01*
X128234849Y-103916941D01*
X128128525Y-103998525D01*
X128039645Y-104114357D01*
X128039644Y-104114359D01*
X127983770Y-104249249D01*
X127964715Y-104393996D01*
X127964715Y-104394003D01*
X123770794Y-104394003D01*
X123744364Y-104385767D01*
X123721434Y-104366657D01*
X123718733Y-104336930D01*
X123737843Y-104314000D01*
X123761058Y-104309867D01*
X123824998Y-104318285D01*
X123825000Y-104318285D01*
X123825003Y-104318285D01*
X123933565Y-104303992D01*
X123969754Y-104299228D01*
X124104643Y-104243355D01*
X124220474Y-104154474D01*
X124309355Y-104038643D01*
X124365228Y-103903754D01*
X124371639Y-103855059D01*
X124384285Y-103759003D01*
X124535715Y-103759003D01*
X124554771Y-103903753D01*
X124610644Y-104038641D01*
X124610645Y-104038643D01*
X124699525Y-104154474D01*
X124763330Y-104203433D01*
X124815357Y-104243355D01*
X124926094Y-104289224D01*
X124950246Y-104299228D01*
X125094997Y-104318285D01*
X125095000Y-104318285D01*
X125095003Y-104318285D01*
X125203565Y-104303992D01*
X125239754Y-104299228D01*
X125374643Y-104243355D01*
X125490474Y-104154474D01*
X125579355Y-104038643D01*
X125635228Y-103903754D01*
X125641639Y-103855059D01*
X125654285Y-103759003D01*
X125654285Y-103758996D01*
X125635229Y-103614249D01*
X125579355Y-103479359D01*
X125579354Y-103479357D01*
X125490474Y-103363525D01*
X125384151Y-103281941D01*
X125369227Y-103256090D01*
X125376952Y-103227258D01*
X125384151Y-103220059D01*
X125490474Y-103138474D01*
X125490474Y-103138473D01*
X125579355Y-103022643D01*
X125635228Y-102887754D01*
X125641639Y-102839059D01*
X125654285Y-102743003D01*
X125654285Y-102742996D01*
X125635229Y-102598249D01*
X125582255Y-102470359D01*
X125579355Y-102463358D01*
X125501583Y-102362003D01*
X125490474Y-102347525D01*
X125374643Y-102258645D01*
X125374641Y-102258644D01*
X125239753Y-102202771D01*
X125095003Y-102183715D01*
X125094997Y-102183715D01*
X124950249Y-102202770D01*
X124815359Y-102258644D01*
X124815357Y-102258645D01*
X124699525Y-102347525D01*
X124610645Y-102463357D01*
X124610644Y-102463359D01*
X124554770Y-102598249D01*
X124535715Y-102742996D01*
X124535715Y-102743003D01*
X124554771Y-102887753D01*
X124610644Y-103022641D01*
X124610645Y-103022643D01*
X124699525Y-103138474D01*
X124805849Y-103220059D01*
X124820773Y-103245910D01*
X124813048Y-103274742D01*
X124805849Y-103281941D01*
X124699525Y-103363525D01*
X124610645Y-103479357D01*
X124610644Y-103479359D01*
X124554770Y-103614249D01*
X124535715Y-103758996D01*
X124535715Y-103759003D01*
X124384285Y-103759003D01*
X124384285Y-103758996D01*
X124365229Y-103614249D01*
X124309355Y-103479359D01*
X124309354Y-103479357D01*
X124220474Y-103363525D01*
X124114151Y-103281941D01*
X124099227Y-103256090D01*
X124106952Y-103227258D01*
X124114151Y-103220059D01*
X124220474Y-103138474D01*
X124220474Y-103138473D01*
X124309355Y-103022643D01*
X124365228Y-102887754D01*
X124371639Y-102839059D01*
X124384285Y-102743003D01*
X124384285Y-102742996D01*
X124365229Y-102598249D01*
X124312255Y-102470359D01*
X124309355Y-102463358D01*
X124231583Y-102362003D01*
X124220474Y-102347525D01*
X124104643Y-102258645D01*
X124104641Y-102258644D01*
X123969753Y-102202771D01*
X123825003Y-102183715D01*
X123824997Y-102183715D01*
X123680249Y-102202770D01*
X123545359Y-102258644D01*
X123545357Y-102258645D01*
X123429525Y-102347525D01*
X123340645Y-102463357D01*
X123340644Y-102463359D01*
X123284770Y-102598249D01*
X123265715Y-102742996D01*
X123265715Y-102743003D01*
X123284771Y-102887753D01*
X123340644Y-103022641D01*
X123340645Y-103022643D01*
X123429525Y-103138474D01*
X123535849Y-103220059D01*
X123550773Y-103245910D01*
X123543048Y-103274742D01*
X123535849Y-103281941D01*
X123429525Y-103363525D01*
X123340645Y-103479357D01*
X123340644Y-103479359D01*
X123284770Y-103614249D01*
X123265715Y-103758996D01*
X123265715Y-103759003D01*
X123284771Y-103903753D01*
X123340644Y-104038641D01*
X123340645Y-104038643D01*
X123429525Y-104154474D01*
X123493330Y-104203433D01*
X123545357Y-104243355D01*
X123548409Y-104244619D01*
X123569517Y-104265722D01*
X123569521Y-104295571D01*
X123548417Y-104316680D01*
X123526458Y-104319012D01*
X123207630Y-104260585D01*
X123207626Y-104260584D01*
X122945309Y-104244717D01*
X122918472Y-104231650D01*
X122908735Y-104203433D01*
X122921802Y-104176596D01*
X122923923Y-104174847D01*
X122950474Y-104154474D01*
X123039355Y-104038643D01*
X123095228Y-103903754D01*
X123101639Y-103855059D01*
X123114285Y-103759003D01*
X123114285Y-103758996D01*
X123095229Y-103614249D01*
X123039355Y-103479359D01*
X123039354Y-103479357D01*
X122950474Y-103363525D01*
X122834643Y-103274645D01*
X122827231Y-103271575D01*
X122806125Y-103250468D01*
X122806126Y-103220618D01*
X122818413Y-103204605D01*
X122895474Y-103145474D01*
X122984355Y-103029643D01*
X123040228Y-102894754D01*
X123059285Y-102750000D01*
X123059285Y-102749996D01*
X123040229Y-102605249D01*
X123040228Y-102605246D01*
X122984355Y-102470358D01*
X122963674Y-102443405D01*
X122895474Y-102354525D01*
X122779643Y-102265645D01*
X122779641Y-102265644D01*
X122644753Y-102209771D01*
X122500003Y-102190715D01*
X122499997Y-102190715D01*
X122355249Y-102209770D01*
X122220359Y-102265644D01*
X122220357Y-102265645D01*
X122104525Y-102354525D01*
X122015645Y-102470357D01*
X122015644Y-102470359D01*
X121959770Y-102605249D01*
X121940715Y-102749996D01*
X121940715Y-102750003D01*
X121959771Y-102894753D01*
X122015644Y-103029641D01*
X122015645Y-103029643D01*
X122104525Y-103145474D01*
X122176629Y-103200801D01*
X122220357Y-103234355D01*
X122227767Y-103237424D01*
X122248873Y-103258529D01*
X122248874Y-103288379D01*
X122236584Y-103304396D01*
X122159525Y-103363525D01*
X122070645Y-103479357D01*
X122070644Y-103479359D01*
X122014770Y-103614249D01*
X121995715Y-103758996D01*
X121995715Y-103759003D01*
X122014771Y-103903753D01*
X122070644Y-104038641D01*
X122070645Y-104038643D01*
X122159525Y-104154474D01*
X122214578Y-104196717D01*
X122275276Y-104243293D01*
X122290200Y-104269142D01*
X122282475Y-104297975D01*
X122258565Y-104312594D01*
X122214598Y-104320652D01*
X121896461Y-104419787D01*
X121896454Y-104419789D01*
X121592581Y-104556552D01*
X121307405Y-104728947D01*
X121045093Y-104934455D01*
X121045087Y-104934460D01*
X120809460Y-105170087D01*
X120809455Y-105170093D01*
X120603947Y-105432405D01*
X120431552Y-105717581D01*
X120294789Y-106021454D01*
X120294787Y-106021461D01*
X120195651Y-106339599D01*
X120135585Y-106667369D01*
X120135584Y-106667373D01*
X120115465Y-106999999D01*
X120025914Y-106999999D01*
X120025900Y-106999481D01*
X120025900Y-96539000D01*
X120037323Y-96511423D01*
X120064900Y-96500000D01*
X128461000Y-96500000D01*
X128488577Y-96511423D01*
G37*
%TD.AperFunction*%
%TD*%
%TA.AperFunction,Conductor*%
%TO.N,+5V*%
G36*
X146734342Y-90151807D02*
G01*
X146936537Y-90353053D01*
X146939983Y-90361318D01*
X146939983Y-90361385D01*
X146939035Y-90645836D01*
X146935581Y-90654098D01*
X146928378Y-90657450D01*
X146427830Y-90702259D01*
X146419284Y-90699584D01*
X146415134Y-90691649D01*
X146415087Y-90690606D01*
X146415087Y-90404156D01*
X146418514Y-90395883D01*
X146419383Y-90395096D01*
X146718696Y-90151031D01*
X146727271Y-90148460D01*
X146734342Y-90151807D01*
G37*
%TD.AperFunction*%
%TD*%
%TA.AperFunction,Conductor*%
%TO.N,+5V*%
G36*
X124092823Y-77326902D02*
G01*
X124099134Y-77333253D01*
X124099642Y-77340611D01*
X123979659Y-77807214D01*
X123974280Y-77814373D01*
X123968328Y-77816000D01*
X123681672Y-77816000D01*
X123673399Y-77812573D01*
X123670341Y-77807214D01*
X123632154Y-77658712D01*
X123550357Y-77340609D01*
X123551615Y-77331745D01*
X123557174Y-77326903D01*
X123820490Y-77216883D01*
X123829444Y-77216857D01*
X124092823Y-77326902D01*
G37*
%TD.AperFunction*%
%TD*%
%TA.AperFunction,Conductor*%
%TO.N,/SWCLK*%
G36*
X137853901Y-74256212D02*
G01*
X137860169Y-74262458D01*
X138056276Y-74727023D01*
X138056336Y-74735977D01*
X138053770Y-74739846D01*
X137951756Y-74841860D01*
X137943483Y-74845287D01*
X137938933Y-74844366D01*
X137474368Y-74648259D01*
X137468079Y-74641884D01*
X137468094Y-74633038D01*
X137575936Y-74370404D01*
X137582246Y-74364054D01*
X137844948Y-74256185D01*
X137853901Y-74256212D01*
G37*
%TD.AperFunction*%
%TD*%
%TA.AperFunction,Conductor*%
%TO.N,/SWCLK*%
G36*
X143100451Y-83020537D02*
G01*
X143103924Y-83022934D01*
X143203670Y-83122680D01*
X143205952Y-83125906D01*
X143400847Y-83533515D01*
X143401325Y-83542457D01*
X143395339Y-83549117D01*
X143394783Y-83549366D01*
X143132795Y-83658275D01*
X143123840Y-83658286D01*
X143123810Y-83658273D01*
X142862925Y-83549268D01*
X142856614Y-83542917D01*
X142856641Y-83533962D01*
X142856744Y-83533725D01*
X143084984Y-83026403D01*
X143091501Y-83020268D01*
X143100451Y-83020537D01*
G37*
%TD.AperFunction*%
%TD*%
%TA.AperFunction,Conductor*%
%TO.N,/TIM1_PWM_CH1*%
G36*
X142489631Y-80983937D02*
G01*
X142493957Y-80991777D01*
X142494030Y-80993051D01*
X142494695Y-81275820D01*
X142491288Y-81284102D01*
X142491241Y-81284149D01*
X142289933Y-81484120D01*
X142281648Y-81487519D01*
X142273627Y-81484300D01*
X141930990Y-81158663D01*
X141925359Y-81153032D01*
X141921931Y-81144759D01*
X141925355Y-81136489D01*
X142026987Y-81034857D01*
X142033952Y-81031506D01*
X142481028Y-80981452D01*
X142489631Y-80983937D01*
G37*
%TD.AperFunction*%
%TD*%
%TA.AperFunction,Conductor*%
%TO.N,/TIM1_PWM_CH1*%
G36*
X132359277Y-80142133D02*
G01*
X132359637Y-80142478D01*
X132461336Y-80244177D01*
X132464666Y-80250949D01*
X132522943Y-80701477D01*
X132520606Y-80710121D01*
X132512841Y-80714581D01*
X132511367Y-80714678D01*
X132228825Y-80715342D01*
X132220544Y-80711935D01*
X132220497Y-80711888D01*
X132020389Y-80510442D01*
X132016990Y-80502157D01*
X132020071Y-80494285D01*
X132342748Y-80142837D01*
X132350865Y-80139062D01*
X132359277Y-80142133D01*
G37*
%TD.AperFunction*%
%TD*%
%TA.AperFunction,Conductor*%
%TO.N,/TIM1_PWM_CH1N*%
G36*
X131521364Y-80459938D02*
G01*
X131523930Y-80463807D01*
X131713757Y-80930972D01*
X131713697Y-80939926D01*
X131707429Y-80946172D01*
X131445466Y-81055626D01*
X131436511Y-81055653D01*
X131436444Y-81055626D01*
X131174480Y-80946172D01*
X131168168Y-80939820D01*
X131168152Y-80930973D01*
X131357980Y-80463806D01*
X131364269Y-80457432D01*
X131368819Y-80456511D01*
X131513091Y-80456511D01*
X131521364Y-80459938D01*
G37*
%TD.AperFunction*%
%TD*%
%TA.AperFunction,Conductor*%
%TO.N,/TIM1_PWM_CH1N*%
G36*
X142933675Y-79434997D02*
G01*
X142939921Y-79441265D01*
X143049375Y-79703229D01*
X143049402Y-79712184D01*
X143049375Y-79712251D01*
X142939921Y-79974214D01*
X142933569Y-79980526D01*
X142924721Y-79980542D01*
X142457556Y-79790714D01*
X142451181Y-79784425D01*
X142450260Y-79779875D01*
X142450260Y-79635604D01*
X142453687Y-79627331D01*
X142457554Y-79624765D01*
X142924722Y-79434937D01*
X142933675Y-79434997D01*
G37*
%TD.AperFunction*%
%TD*%
%TA.AperFunction,Conductor*%
%TO.N,/SPI1_SCK*%
G36*
X146452401Y-71898622D02*
G01*
X146458669Y-71904868D01*
X146654776Y-72369433D01*
X146654836Y-72378387D01*
X146652270Y-72382256D01*
X146550256Y-72484270D01*
X146541983Y-72487697D01*
X146537433Y-72486776D01*
X146072868Y-72290669D01*
X146066579Y-72284294D01*
X146066594Y-72275448D01*
X146174436Y-72012814D01*
X146180746Y-72006464D01*
X146443448Y-71898595D01*
X146452401Y-71898622D01*
G37*
%TD.AperFunction*%
%TD*%
%TA.AperFunction,Conductor*%
%TO.N,/SPI1_SCK*%
G36*
X147505294Y-77964166D02*
G01*
X147509903Y-77971843D01*
X147510031Y-77973540D01*
X147510695Y-78255820D01*
X147507288Y-78264102D01*
X147507241Y-78264149D01*
X147305637Y-78464413D01*
X147297352Y-78467812D01*
X147289653Y-78464888D01*
X146934477Y-78151696D01*
X146930538Y-78143653D01*
X146933439Y-78135182D01*
X146933926Y-78134663D01*
X147035557Y-78033032D01*
X147042100Y-78029736D01*
X147496606Y-77961996D01*
X147505294Y-77964166D01*
G37*
%TD.AperFunction*%
%TD*%
%TA.AperFunction,Conductor*%
%TO.N,/SPI1_NSS*%
G36*
X144037189Y-71899530D02*
G01*
X144043501Y-71905882D01*
X144044114Y-71907856D01*
X144156571Y-72428533D01*
X144154968Y-72437343D01*
X144153408Y-72439276D01*
X144051525Y-72541159D01*
X144043252Y-72544586D01*
X144036796Y-72542643D01*
X143657214Y-72291470D01*
X143652205Y-72284047D01*
X143652847Y-72277269D01*
X143761436Y-72012815D01*
X143767746Y-72006464D01*
X144028237Y-71899503D01*
X144037189Y-71899530D01*
G37*
%TD.AperFunction*%
%TD*%
%TA.AperFunction,Conductor*%
%TO.N,/SPI1_NSS*%
G36*
X147179565Y-78632222D02*
G01*
X147440359Y-78742312D01*
X147644131Y-78828330D01*
X147650420Y-78834705D01*
X147650404Y-78843553D01*
X147542563Y-79106184D01*
X147536251Y-79112536D01*
X147536184Y-79112563D01*
X147273553Y-79220404D01*
X147264598Y-79220377D01*
X147258330Y-79214131D01*
X147062223Y-78749566D01*
X147062163Y-78740612D01*
X147064727Y-78736745D01*
X147166744Y-78634728D01*
X147175016Y-78631302D01*
X147179565Y-78632222D01*
G37*
%TD.AperFunction*%
%TD*%
%TA.AperFunction,Conductor*%
%TO.N,/ADC1_IN8*%
G36*
X138935658Y-86336337D02*
G01*
X138939085Y-86344610D01*
X138939085Y-86488150D01*
X138936324Y-86495699D01*
X138650325Y-86834340D01*
X138642369Y-86838450D01*
X138633837Y-86835730D01*
X138633132Y-86835084D01*
X138432462Y-86635356D01*
X138429016Y-86627091D01*
X138429016Y-86627024D01*
X138429958Y-86344571D01*
X138433412Y-86336309D01*
X138441658Y-86332910D01*
X138927385Y-86332910D01*
X138935658Y-86336337D01*
G37*
%TD.AperFunction*%
%TD*%
%TA.AperFunction,Conductor*%
%TO.N,/ADC1_IN8*%
G36*
X147458287Y-84056842D02*
G01*
X147464599Y-84063194D01*
X147464572Y-84072149D01*
X147464094Y-84073155D01*
X147200444Y-84566234D01*
X147193521Y-84571914D01*
X147184609Y-84571035D01*
X147181853Y-84568990D01*
X147081536Y-84468673D01*
X147078964Y-84464790D01*
X146920185Y-84072549D01*
X146920257Y-84063595D01*
X146926537Y-84057356D01*
X147189206Y-83948163D01*
X147198159Y-83948153D01*
X147458287Y-84056842D01*
G37*
%TD.AperFunction*%
%TD*%
%TA.AperFunction,Conductor*%
%TO.N,/SPI3_MOSI*%
G36*
X136867097Y-83104988D02*
G01*
X136875369Y-83108416D01*
X136878795Y-83116688D01*
X136878795Y-83260736D01*
X136876041Y-83268277D01*
X136590218Y-83607351D01*
X136582265Y-83611468D01*
X136573731Y-83608756D01*
X136573027Y-83608111D01*
X136372356Y-83408382D01*
X136368911Y-83400117D01*
X136368911Y-83400051D01*
X136369351Y-83268277D01*
X136369856Y-83116598D01*
X136373310Y-83108337D01*
X136381556Y-83104938D01*
X136867097Y-83104988D01*
G37*
%TD.AperFunction*%
%TD*%
%TA.AperFunction,Conductor*%
%TO.N,/SPI3_MOSI*%
G36*
X145435501Y-83836992D02*
G01*
X145441813Y-83843344D01*
X145442100Y-83844121D01*
X145477215Y-83950506D01*
X145568985Y-84228539D01*
X145616938Y-84373818D01*
X145616277Y-84382748D01*
X145609495Y-84388595D01*
X145605828Y-84389185D01*
X145464227Y-84389185D01*
X145459911Y-84388360D01*
X145423270Y-84373818D01*
X145318593Y-84332273D01*
X145057219Y-84228539D01*
X145050793Y-84222302D01*
X145050660Y-84213348D01*
X145050720Y-84213200D01*
X145159141Y-83950503D01*
X145165460Y-83944168D01*
X145426546Y-83836965D01*
X145435501Y-83836992D01*
G37*
%TD.AperFunction*%
%TD*%
%TA.AperFunction,Conductor*%
%TO.N,/SPI1_MISO*%
G36*
X147827983Y-76074549D02*
G01*
X147831410Y-76082822D01*
X147831410Y-76568339D01*
X147827983Y-76576612D01*
X147819749Y-76580039D01*
X147536795Y-76580983D01*
X147528510Y-76577584D01*
X147528463Y-76577537D01*
X147527542Y-76576612D01*
X147328745Y-76376877D01*
X147325338Y-76368595D01*
X147328784Y-76360330D01*
X147329498Y-76359676D01*
X147667824Y-76074549D01*
X147668623Y-76073874D01*
X147676163Y-76071122D01*
X147819710Y-76071122D01*
X147827983Y-76074549D01*
G37*
%TD.AperFunction*%
%TD*%
%TA.AperFunction,Conductor*%
%TO.N,/SPI1_MISO*%
G36*
X148323551Y-71898594D02*
G01*
X148514239Y-71976894D01*
X148586184Y-72006436D01*
X148592536Y-72012748D01*
X148592563Y-72012815D01*
X148700404Y-72275446D01*
X148700377Y-72284401D01*
X148694131Y-72290669D01*
X148229566Y-72486776D01*
X148220612Y-72486836D01*
X148216743Y-72484270D01*
X148114729Y-72382256D01*
X148111302Y-72373983D01*
X148112222Y-72369435D01*
X148308331Y-71904866D01*
X148314705Y-71898579D01*
X148323551Y-71898594D01*
G37*
%TD.AperFunction*%
%TD*%
%TA.AperFunction,Conductor*%
%TO.N,/SPI1_MOSI*%
G36*
X150737864Y-71899134D02*
G01*
X150899090Y-71965336D01*
X150999184Y-72006436D01*
X151005536Y-72012748D01*
X151005563Y-72012815D01*
X151113855Y-72276546D01*
X151113828Y-72285501D01*
X151108717Y-72291216D01*
X150695779Y-72520797D01*
X150686883Y-72521822D01*
X150681821Y-72518844D01*
X150579810Y-72416833D01*
X150576383Y-72408560D01*
X150576851Y-72405286D01*
X150610103Y-72291216D01*
X150722195Y-71906682D01*
X150727799Y-71899701D01*
X150736700Y-71898727D01*
X150737864Y-71899134D01*
G37*
%TD.AperFunction*%
%TD*%
%TA.AperFunction,Conductor*%
%TO.N,/SPI1_MOSI*%
G36*
X147908896Y-76856622D02*
G01*
X148010910Y-76958636D01*
X148014337Y-76966909D01*
X148013416Y-76971459D01*
X147817309Y-77436024D01*
X147810934Y-77442313D01*
X147802086Y-77442297D01*
X147539455Y-77334456D01*
X147533103Y-77328144D01*
X147533076Y-77328077D01*
X147503534Y-77256132D01*
X147425235Y-77065444D01*
X147425262Y-77056491D01*
X147431506Y-77050224D01*
X147470365Y-77033820D01*
X147474914Y-77032900D01*
X147597027Y-77032900D01*
X147721986Y-76996208D01*
X147831546Y-76925799D01*
X147890485Y-76857778D01*
X147894772Y-76854665D01*
X147896076Y-76854114D01*
X147905030Y-76854057D01*
X147908896Y-76856622D01*
G37*
%TD.AperFunction*%
%TD*%
%TA.AperFunction,Conductor*%
%TO.N,/RESET*%
G36*
X132840577Y-73387213D02*
G01*
X133307703Y-73577025D01*
X133314078Y-73583314D01*
X133314999Y-73587864D01*
X133314999Y-73732135D01*
X133311572Y-73740408D01*
X133307703Y-73742974D01*
X132840538Y-73932802D01*
X132831584Y-73932742D01*
X132825338Y-73926474D01*
X132748668Y-73742974D01*
X132715883Y-73664509D01*
X132715857Y-73655556D01*
X132715862Y-73655542D01*
X132825339Y-73393523D01*
X132831690Y-73387213D01*
X132840537Y-73387197D01*
X132840577Y-73387213D01*
G37*
%TD.AperFunction*%
%TD*%
%TA.AperFunction,Conductor*%
%TO.N,/RESET*%
G36*
X150505415Y-81515257D02*
G01*
X150511661Y-81521525D01*
X150621115Y-81783489D01*
X150621142Y-81792444D01*
X150621115Y-81792511D01*
X150511661Y-82054474D01*
X150505309Y-82060786D01*
X150496461Y-82060802D01*
X150029296Y-81870974D01*
X150022921Y-81864685D01*
X150022000Y-81860135D01*
X150022000Y-81715864D01*
X150025427Y-81707591D01*
X150029294Y-81705025D01*
X150496462Y-81515197D01*
X150505415Y-81515257D01*
G37*
%TD.AperFunction*%
%TD*%
%TA.AperFunction,Conductor*%
%TO.N,/SWDIO*%
G36*
X135525401Y-74311622D02*
G01*
X135531669Y-74317868D01*
X135727776Y-74782433D01*
X135727836Y-74791387D01*
X135725270Y-74795256D01*
X135623256Y-74897270D01*
X135614983Y-74900697D01*
X135610433Y-74899776D01*
X135145868Y-74703669D01*
X135139579Y-74697294D01*
X135139594Y-74688448D01*
X135247436Y-74425814D01*
X135253746Y-74419464D01*
X135516448Y-74311595D01*
X135525401Y-74311622D01*
G37*
%TD.AperFunction*%
%TD*%
%TA.AperFunction,Conductor*%
%TO.N,/SWDIO*%
G36*
X142488024Y-83184169D02*
G01*
X142590038Y-83286183D01*
X142593465Y-83294456D01*
X142592544Y-83299006D01*
X142396437Y-83763571D01*
X142390062Y-83769860D01*
X142381214Y-83769844D01*
X142118583Y-83662003D01*
X142112231Y-83655691D01*
X142112204Y-83655624D01*
X142082662Y-83583679D01*
X142004363Y-83392991D01*
X142004390Y-83384038D01*
X142010634Y-83377771D01*
X142475202Y-83181662D01*
X142484155Y-83181603D01*
X142488024Y-83184169D01*
G37*
%TD.AperFunction*%
%TD*%
%TA.AperFunction,Conductor*%
%TO.N,/USART2_TX*%
G36*
X152637368Y-76339957D02*
G01*
X152645628Y-76343411D01*
X152649027Y-76351696D01*
X152648989Y-76352593D01*
X152607874Y-76864843D01*
X152603797Y-76872816D01*
X152596212Y-76875607D01*
X152451992Y-76875607D01*
X152443719Y-76872180D01*
X152443533Y-76871990D01*
X152436703Y-76864843D01*
X152145751Y-76560381D01*
X152142513Y-76552033D01*
X152145916Y-76544045D01*
X152346555Y-76342461D01*
X152354817Y-76339016D01*
X152637368Y-76339957D01*
G37*
%TD.AperFunction*%
%TD*%
%TA.AperFunction,Conductor*%
%TO.N,/USART2_TX*%
G36*
X156509565Y-83596222D02*
G01*
X156770359Y-83706312D01*
X156974131Y-83792330D01*
X156980420Y-83798705D01*
X156980404Y-83807553D01*
X156872563Y-84070184D01*
X156866251Y-84076536D01*
X156866184Y-84076563D01*
X156603553Y-84184404D01*
X156594598Y-84184377D01*
X156588330Y-84178131D01*
X156392223Y-83713566D01*
X156392163Y-83704612D01*
X156394727Y-83700745D01*
X156496744Y-83598728D01*
X156505016Y-83595302D01*
X156509565Y-83596222D01*
G37*
%TD.AperFunction*%
%TD*%
%TA.AperFunction,Conductor*%
%TO.N,/USART2_RX*%
G36*
X150886690Y-73839093D02*
G01*
X150892291Y-73844004D01*
X151127539Y-74248192D01*
X151128739Y-74257066D01*
X151125700Y-74262350D01*
X151023713Y-74364337D01*
X151015440Y-74367764D01*
X151012379Y-74367356D01*
X150507993Y-74230633D01*
X150500905Y-74225162D01*
X150499762Y-74216280D01*
X150500226Y-74214911D01*
X150607436Y-73953814D01*
X150613746Y-73947464D01*
X150877736Y-73839066D01*
X150886690Y-73839093D01*
G37*
%TD.AperFunction*%
%TD*%
%TA.AperFunction,Conductor*%
%TO.N,/USART2_RX*%
G36*
X156611565Y-81056222D02*
G01*
X156872359Y-81166312D01*
X157076131Y-81252330D01*
X157082420Y-81258705D01*
X157082404Y-81267553D01*
X156974563Y-81530184D01*
X156968251Y-81536536D01*
X156968184Y-81536563D01*
X156705553Y-81644404D01*
X156696598Y-81644377D01*
X156690330Y-81638131D01*
X156673421Y-81598073D01*
X156672500Y-81593523D01*
X156672500Y-81449655D01*
X156672508Y-81449349D01*
X156674771Y-81406169D01*
X156663928Y-81377922D01*
X156663407Y-81376161D01*
X156657117Y-81346570D01*
X156657117Y-81346569D01*
X156646943Y-81332566D01*
X156645488Y-81329886D01*
X156639288Y-81313732D01*
X156639287Y-81313731D01*
X156639286Y-81313729D01*
X156617896Y-81292340D01*
X156616703Y-81290944D01*
X156598919Y-81266466D01*
X156583929Y-81257811D01*
X156581511Y-81255955D01*
X156499787Y-81174231D01*
X156496360Y-81165958D01*
X156499786Y-81157686D01*
X156598744Y-81058728D01*
X156607016Y-81055302D01*
X156611565Y-81056222D01*
G37*
%TD.AperFunction*%
%TD*%
%TA.AperFunction,Conductor*%
%TO.N,/ADC1_IN9*%
G36*
X146434766Y-83915120D02*
G01*
X146441078Y-83921472D01*
X146441094Y-83930320D01*
X146251267Y-84397486D01*
X146244978Y-84403861D01*
X146240428Y-84404782D01*
X146096156Y-84404782D01*
X146087883Y-84401355D01*
X146085317Y-84397486D01*
X145895489Y-83930320D01*
X145895549Y-83921366D01*
X145901815Y-83915121D01*
X146163782Y-83805665D01*
X146172736Y-83805639D01*
X146434766Y-83915120D01*
G37*
%TD.AperFunction*%
%TD*%
%TA.AperFunction,Conductor*%
%TO.N,/ADC1_IN9*%
G36*
X137875409Y-87414427D02*
G01*
X137877975Y-87418296D01*
X138067802Y-87885461D01*
X138067742Y-87894415D01*
X138061474Y-87900661D01*
X137799511Y-88010115D01*
X137790556Y-88010142D01*
X137790489Y-88010115D01*
X137528525Y-87900661D01*
X137522213Y-87894309D01*
X137522197Y-87885462D01*
X137712025Y-87418295D01*
X137718314Y-87411921D01*
X137722864Y-87411000D01*
X137867136Y-87411000D01*
X137875409Y-87414427D01*
G37*
%TD.AperFunction*%
%TD*%
%TA.AperFunction,Conductor*%
%TO.N,+5V*%
G36*
X123262309Y-89134588D02*
G01*
X123677088Y-89379685D01*
X123682467Y-89386844D01*
X123681959Y-89394202D01*
X123573563Y-89658184D01*
X123567251Y-89664536D01*
X123567184Y-89664563D01*
X123303202Y-89772959D01*
X123294247Y-89772932D01*
X123288685Y-89768088D01*
X123043588Y-89353309D01*
X123042330Y-89344443D01*
X123045386Y-89339086D01*
X123248085Y-89136387D01*
X123256357Y-89132961D01*
X123262309Y-89134588D01*
G37*
%TD.AperFunction*%
%TD*%
%TA.AperFunction,Conductor*%
%TO.N,+5V*%
G36*
X123557199Y-77105039D02*
G01*
X123767033Y-77191200D01*
X123821184Y-77213436D01*
X123827536Y-77219748D01*
X123827563Y-77219815D01*
X123935959Y-77483797D01*
X123935932Y-77492752D01*
X123931088Y-77498314D01*
X123516309Y-77743411D01*
X123507443Y-77744669D01*
X123502084Y-77741611D01*
X123299388Y-77538915D01*
X123295961Y-77530642D01*
X123297588Y-77524690D01*
X123316217Y-77493164D01*
X123542686Y-77109910D01*
X123549844Y-77104532D01*
X123557199Y-77105039D01*
G37*
%TD.AperFunction*%
%TD*%
%TA.AperFunction,Conductor*%
%TO.N,GND1*%
G36*
X133316195Y-91614722D02*
G01*
X133660191Y-91864486D01*
X133664871Y-91872119D01*
X133665016Y-91873953D01*
X133665016Y-92018066D01*
X133661589Y-92026339D01*
X133655203Y-92029613D01*
X133109541Y-92118787D01*
X133100823Y-92116739D01*
X133096107Y-92109127D01*
X133095954Y-92107279D01*
X133095657Y-92018066D01*
X133095016Y-91825884D01*
X133098414Y-91817601D01*
X133301069Y-91615897D01*
X133309350Y-91612491D01*
X133316195Y-91614722D01*
G37*
%TD.AperFunction*%
%TD*%
%TA.AperFunction,Conductor*%
%TO.N,GND1*%
G36*
X135422271Y-91578559D02*
G01*
X135423243Y-91580402D01*
X135531767Y-91840140D01*
X135531794Y-91849095D01*
X135531767Y-91849162D01*
X135421547Y-92112958D01*
X135415195Y-92119270D01*
X135408436Y-92119916D01*
X134962594Y-92029904D01*
X134955162Y-92024907D01*
X134953209Y-92018435D01*
X134953209Y-91874356D01*
X134956636Y-91866083D01*
X134958551Y-91864534D01*
X135406094Y-91575088D01*
X135414901Y-91573473D01*
X135422271Y-91578559D01*
G37*
%TD.AperFunction*%
%TD*%
%TA.AperFunction,Conductor*%
%TO.N,+36V*%
G36*
X129434826Y-89466819D02*
G01*
X129869171Y-89822706D01*
X129873399Y-89830600D01*
X129870806Y-89839171D01*
X129870057Y-89840002D01*
X129669373Y-90042029D01*
X129665516Y-90044606D01*
X129401041Y-90153203D01*
X129392086Y-90153176D01*
X129385774Y-90146824D01*
X129385626Y-90146447D01*
X129268548Y-89830600D01*
X129213711Y-89682664D01*
X129214049Y-89673716D01*
X129216406Y-89670328D01*
X129419139Y-89467595D01*
X129427411Y-89464169D01*
X129434826Y-89466819D01*
G37*
%TD.AperFunction*%
%TD*%
%TA.AperFunction,Conductor*%
%TO.N,+36V*%
G36*
X125853578Y-85740934D02*
G01*
X125858926Y-85745430D01*
X126114077Y-86144690D01*
X126115644Y-86153506D01*
X126112491Y-86159263D01*
X125909781Y-86361973D01*
X125901508Y-86365400D01*
X125895943Y-86363992D01*
X125517354Y-86159263D01*
X125470947Y-86134167D01*
X125465300Y-86127218D01*
X125465689Y-86119435D01*
X125573936Y-85855814D01*
X125580246Y-85849464D01*
X125844623Y-85740907D01*
X125853578Y-85740934D01*
G37*
%TD.AperFunction*%
%TD*%
%TA.AperFunction,Conductor*%
%TO.N,/DRV8323RSRGZR/SPB*%
G36*
X135011415Y-90913257D02*
G01*
X135017661Y-90919525D01*
X135127115Y-91181489D01*
X135127142Y-91190444D01*
X135127115Y-91190511D01*
X135017661Y-91452474D01*
X135011309Y-91458786D01*
X135002461Y-91458802D01*
X134535296Y-91268974D01*
X134528921Y-91262685D01*
X134528000Y-91258135D01*
X134528000Y-91113864D01*
X134531427Y-91105591D01*
X134535294Y-91103025D01*
X135002462Y-90913197D01*
X135011415Y-90913257D01*
G37*
%TD.AperFunction*%
%TD*%
%TA.AperFunction,Conductor*%
%TO.N,/DRV8323RSRGZR/SPB*%
G36*
X134469190Y-91109489D02*
G01*
X134472782Y-91117692D01*
X134472784Y-91117926D01*
X134472784Y-91261874D01*
X134470186Y-91269226D01*
X134188378Y-91618124D01*
X134180514Y-91622406D01*
X134171924Y-91619874D01*
X134171022Y-91619065D01*
X133970552Y-91419536D01*
X133967106Y-91411271D01*
X133967106Y-91411204D01*
X133968051Y-91127517D01*
X133971505Y-91119258D01*
X133979516Y-91115861D01*
X134460852Y-91106228D01*
X134469190Y-91109489D01*
G37*
%TD.AperFunction*%
%TD*%
%TA.AperFunction,Conductor*%
%TO.N,Net-(U1-BOOT0)*%
G36*
X148547704Y-85388025D02*
G01*
X148554079Y-85394314D01*
X148555000Y-85398864D01*
X148555000Y-85543135D01*
X148551573Y-85551408D01*
X148547704Y-85553974D01*
X148080538Y-85743802D01*
X148071584Y-85743742D01*
X148065338Y-85737474D01*
X147987429Y-85551010D01*
X147955883Y-85475509D01*
X147955857Y-85466555D01*
X148065339Y-85204523D01*
X148071690Y-85198213D01*
X148080537Y-85198197D01*
X148547704Y-85388025D01*
G37*
%TD.AperFunction*%
%TD*%
%TA.AperFunction,Conductor*%
%TO.N,Net-(U1-BOOT0)*%
G36*
X152166565Y-85501222D02*
G01*
X152427359Y-85611312D01*
X152631131Y-85697330D01*
X152637420Y-85703705D01*
X152637404Y-85712553D01*
X152529563Y-85975184D01*
X152523251Y-85981536D01*
X152523184Y-85981563D01*
X152260553Y-86089404D01*
X152251598Y-86089377D01*
X152245330Y-86083131D01*
X152049223Y-85618566D01*
X152049163Y-85609612D01*
X152051727Y-85605745D01*
X152153744Y-85503728D01*
X152162016Y-85500302D01*
X152166565Y-85501222D01*
G37*
%TD.AperFunction*%
%TD*%
%TA.AperFunction,Conductor*%
%TO.N,/SPI3_MISO*%
G36*
X137068047Y-81249971D02*
G01*
X137076311Y-81253417D01*
X137079718Y-81261698D01*
X137079715Y-81261950D01*
X137069354Y-81696789D01*
X137065930Y-81704783D01*
X136963975Y-81806738D01*
X136955702Y-81810165D01*
X136947837Y-81807127D01*
X136826313Y-81696789D01*
X136576928Y-81470358D01*
X136573107Y-81462260D01*
X136576131Y-81453831D01*
X136576492Y-81453450D01*
X136775851Y-81252757D01*
X136784111Y-81249304D01*
X137068047Y-81249971D01*
G37*
%TD.AperFunction*%
%TD*%
%TA.AperFunction,Conductor*%
%TO.N,/SPI3_MISO*%
G36*
X144059565Y-84777892D02*
G01*
X144320359Y-84887982D01*
X144524131Y-84974000D01*
X144530420Y-84980375D01*
X144530404Y-84989223D01*
X144422563Y-85251854D01*
X144416251Y-85258206D01*
X144416184Y-85258233D01*
X144153553Y-85366074D01*
X144144598Y-85366047D01*
X144138330Y-85359801D01*
X143942223Y-84895236D01*
X143942163Y-84886282D01*
X143944727Y-84882415D01*
X144046744Y-84780398D01*
X144055016Y-84776972D01*
X144059565Y-84777892D01*
G37*
%TD.AperFunction*%
%TD*%
%TA.AperFunction,Conductor*%
%TO.N,/TIM1_PWM_CH2N*%
G36*
X142486133Y-78761934D02*
G01*
X142501104Y-78768082D01*
X142748890Y-78869827D01*
X142755242Y-78876139D01*
X142755269Y-78876206D01*
X142863049Y-79138690D01*
X142863022Y-79147645D01*
X142856670Y-79153957D01*
X142856629Y-79153974D01*
X142388162Y-79344256D01*
X142379207Y-79344194D01*
X142375486Y-79341689D01*
X142273462Y-79239665D01*
X142270035Y-79231392D01*
X142271010Y-79226716D01*
X142302724Y-79153974D01*
X142470966Y-78768080D01*
X142477413Y-78761868D01*
X142486133Y-78761934D01*
G37*
%TD.AperFunction*%
%TD*%
%TA.AperFunction,Conductor*%
%TO.N,/TIM1_PWM_CH2N*%
G36*
X130277701Y-81413427D02*
G01*
X130280267Y-81417296D01*
X130470094Y-81884461D01*
X130470034Y-81893415D01*
X130463766Y-81899661D01*
X130201803Y-82009115D01*
X130192848Y-82009142D01*
X130192781Y-82009115D01*
X129930817Y-81899661D01*
X129924505Y-81893309D01*
X129924489Y-81884462D01*
X130114317Y-81417295D01*
X130120606Y-81410921D01*
X130125156Y-81410000D01*
X130269428Y-81410000D01*
X130277701Y-81413427D01*
G37*
%TD.AperFunction*%
%TD*%
%TA.AperFunction,Conductor*%
%TO.N,/TIM1_PWM_CH3N*%
G36*
X141590783Y-78670797D02*
G01*
X141852737Y-78778912D01*
X141859077Y-78785236D01*
X141859973Y-78789766D01*
X141859034Y-79071620D01*
X141855580Y-79079882D01*
X141848790Y-79083190D01*
X141388413Y-79140939D01*
X141379778Y-79138569D01*
X141375348Y-79130786D01*
X141375257Y-79129330D01*
X141375257Y-78986060D01*
X141377169Y-78979650D01*
X141576534Y-78675201D01*
X141583931Y-78670159D01*
X141590783Y-78670797D01*
G37*
%TD.AperFunction*%
%TD*%
%TA.AperFunction,Conductor*%
%TO.N,/TIM1_PWM_CH3N*%
G36*
X129747135Y-83013622D02*
G01*
X129748391Y-83015106D01*
X129763294Y-83036024D01*
X129765346Y-83041148D01*
X129772138Y-83088392D01*
X129796662Y-83142090D01*
X129826241Y-83206859D01*
X129911526Y-83305284D01*
X129990057Y-83355752D01*
X129993261Y-83358806D01*
X129994991Y-83361234D01*
X129997001Y-83369960D01*
X129993755Y-83376277D01*
X129792036Y-83578947D01*
X129783771Y-83582393D01*
X129783704Y-83582393D01*
X129502380Y-83581455D01*
X129494118Y-83578001D01*
X129490719Y-83569716D01*
X129490882Y-83567810D01*
X129523167Y-83376277D01*
X129551723Y-83206857D01*
X129583228Y-83019950D01*
X129587982Y-83012362D01*
X129594765Y-83010195D01*
X129738862Y-83010195D01*
X129747135Y-83013622D01*
G37*
%TD.AperFunction*%
%TD*%
%TA.AperFunction,Conductor*%
%TO.N,/TIM1_PWM_CH2*%
G36*
X131121481Y-81381358D02*
G01*
X131125914Y-81384531D01*
X131141319Y-81402310D01*
X131250879Y-81472719D01*
X131323891Y-81494157D01*
X131375837Y-81509411D01*
X131434333Y-81509411D01*
X131438737Y-81510272D01*
X131507887Y-81538370D01*
X131514262Y-81544659D01*
X131515183Y-81549209D01*
X131515183Y-81693480D01*
X131511756Y-81701753D01*
X131507887Y-81704319D01*
X131040721Y-81894147D01*
X131031767Y-81894087D01*
X131025521Y-81887819D01*
X130947612Y-81701355D01*
X130916066Y-81625854D01*
X130916040Y-81616900D01*
X131025522Y-81354868D01*
X131031873Y-81348558D01*
X131040720Y-81348542D01*
X131121481Y-81381358D01*
G37*
%TD.AperFunction*%
%TD*%
%TA.AperFunction,Conductor*%
%TO.N,/TIM1_PWM_CH2*%
G36*
X142309143Y-81748194D02*
G01*
X142824713Y-81868257D01*
X142831993Y-81873471D01*
X142833454Y-81882306D01*
X142832882Y-81884096D01*
X142725864Y-82144724D01*
X142719552Y-82151076D01*
X142719485Y-82151103D01*
X142455199Y-82259623D01*
X142446244Y-82259596D01*
X142440881Y-82255077D01*
X142438084Y-82250677D01*
X142436377Y-82246067D01*
X142425023Y-82167091D01*
X142370921Y-82048626D01*
X142312581Y-81981297D01*
X142312144Y-81980724D01*
X142301184Y-81964323D01*
X142201471Y-81864610D01*
X142198044Y-81856337D01*
X142201471Y-81848064D01*
X142298218Y-81751316D01*
X142306490Y-81747890D01*
X142309143Y-81748194D01*
G37*
%TD.AperFunction*%
%TD*%
%TA.AperFunction,Conductor*%
%TO.N,/TIM1_PWM_CH3*%
G36*
X130336739Y-82686698D02*
G01*
X130803865Y-82876510D01*
X130810240Y-82882799D01*
X130811161Y-82887349D01*
X130811161Y-83031620D01*
X130807734Y-83039893D01*
X130803865Y-83042459D01*
X130336700Y-83232287D01*
X130327746Y-83232227D01*
X130321500Y-83225959D01*
X130244830Y-83042459D01*
X130212045Y-82963994D01*
X130212019Y-82955041D01*
X130212024Y-82955027D01*
X130321501Y-82693008D01*
X130327852Y-82686698D01*
X130336699Y-82686682D01*
X130336739Y-82686698D01*
G37*
%TD.AperFunction*%
%TD*%
%TA.AperFunction,Conductor*%
%TO.N,/TIM1_PWM_CH3*%
G36*
X141846220Y-81732663D02*
G01*
X142189533Y-82075976D01*
X142192960Y-82084248D01*
X142189561Y-82092494D01*
X141990149Y-82293241D01*
X141981887Y-82296695D01*
X141981820Y-82296695D01*
X141698710Y-82296029D01*
X141690445Y-82292583D01*
X141687038Y-82284301D01*
X141687079Y-82283353D01*
X141724789Y-81841442D01*
X141728172Y-81834168D01*
X141829677Y-81732663D01*
X141837949Y-81729237D01*
X141846220Y-81732663D01*
G37*
%TD.AperFunction*%
%TD*%
%TA.AperFunction,Conductor*%
%TO.N,/SPI3_NSS*%
G36*
X143028524Y-84427687D02*
G01*
X143031951Y-84435921D01*
X143032893Y-84718874D01*
X143029494Y-84727159D01*
X143029447Y-84727206D01*
X142828787Y-84926924D01*
X142820505Y-84930331D01*
X142812240Y-84926885D01*
X142811586Y-84926171D01*
X142525785Y-84587046D01*
X142523032Y-84579506D01*
X142523032Y-84435960D01*
X142526459Y-84427687D01*
X142534732Y-84424260D01*
X143020251Y-84424260D01*
X143028524Y-84427687D01*
G37*
%TD.AperFunction*%
%TD*%
%TA.AperFunction,Conductor*%
%TO.N,/SPI3_NSS*%
G36*
X136386647Y-82027090D02*
G01*
X136393871Y-82032380D01*
X136395572Y-82038456D01*
X136395572Y-82182648D01*
X136392145Y-82190921D01*
X136389870Y-82192693D01*
X136344245Y-82219937D01*
X136341545Y-82221118D01*
X136328392Y-82224981D01*
X136231168Y-82287463D01*
X135938427Y-82462274D01*
X135929567Y-82463574D01*
X135922383Y-82458228D01*
X135921635Y-82456747D01*
X135812915Y-82196541D01*
X135812889Y-82187588D01*
X135812894Y-82187574D01*
X135922982Y-81924093D01*
X135929334Y-81917782D01*
X135936552Y-81917239D01*
X136386647Y-82027090D01*
G37*
%TD.AperFunction*%
%TD*%
%TA.AperFunction,Conductor*%
%TO.N,/SPI3_SCK*%
G36*
X136643447Y-82370028D02*
G01*
X136644794Y-82370697D01*
X137118344Y-82644984D01*
X137130730Y-82652158D01*
X137136172Y-82659270D01*
X137134990Y-82668146D01*
X137133139Y-82670555D01*
X137032582Y-82771113D01*
X137028329Y-82773828D01*
X136643797Y-82914503D01*
X136634850Y-82914127D01*
X136628974Y-82908007D01*
X136519633Y-82644982D01*
X136519623Y-82636030D01*
X136628141Y-82376311D01*
X136634492Y-82370001D01*
X136643447Y-82370028D01*
G37*
%TD.AperFunction*%
%TD*%
%TA.AperFunction,Conductor*%
%TO.N,/SPI3_SCK*%
G36*
X143366162Y-85051849D02*
G01*
X143366867Y-85052495D01*
X143567537Y-85252223D01*
X143570983Y-85260488D01*
X143570983Y-85260555D01*
X143570042Y-85543009D01*
X143566588Y-85551271D01*
X143558342Y-85554670D01*
X143072615Y-85554670D01*
X143064342Y-85551243D01*
X143060915Y-85542970D01*
X143060915Y-85399429D01*
X143063675Y-85391881D01*
X143349675Y-85053238D01*
X143357630Y-85049129D01*
X143366162Y-85051849D01*
G37*
%TD.AperFunction*%
%TD*%
%TA.AperFunction,Conductor*%
%TO.N,/CAN_RX*%
G36*
X147975501Y-88215532D02*
G01*
X147981813Y-88221884D01*
X147982100Y-88222661D01*
X148017215Y-88329046D01*
X148108985Y-88607079D01*
X148156938Y-88752358D01*
X148156277Y-88761288D01*
X148149495Y-88767135D01*
X148145828Y-88767725D01*
X148004227Y-88767725D01*
X147999911Y-88766900D01*
X147963270Y-88752358D01*
X147858593Y-88710813D01*
X147597219Y-88607079D01*
X147590793Y-88600842D01*
X147590660Y-88591888D01*
X147590720Y-88591740D01*
X147699141Y-88329043D01*
X147705460Y-88322708D01*
X147966546Y-88215505D01*
X147975501Y-88215532D01*
G37*
%TD.AperFunction*%
%TD*%
%TA.AperFunction,Conductor*%
%TO.N,/CAN_RX*%
G36*
X148162409Y-90589427D02*
G01*
X148164975Y-90593296D01*
X148354802Y-91060461D01*
X148354742Y-91069415D01*
X148348474Y-91075661D01*
X148086511Y-91185115D01*
X148077556Y-91185142D01*
X148077489Y-91185115D01*
X147815525Y-91075661D01*
X147809213Y-91069309D01*
X147809197Y-91060462D01*
X147999025Y-90593295D01*
X148005314Y-90586921D01*
X148009864Y-90586000D01*
X148154136Y-90586000D01*
X148162409Y-90589427D01*
G37*
%TD.AperFunction*%
%TD*%
%TA.AperFunction,Conductor*%
%TO.N,/CAN_STB*%
G36*
X153673551Y-86899594D02*
G01*
X153864239Y-86977894D01*
X153936184Y-87007436D01*
X153942536Y-87013748D01*
X153942563Y-87013815D01*
X154050404Y-87276446D01*
X154050377Y-87285401D01*
X154044131Y-87291669D01*
X153579566Y-87487776D01*
X153570612Y-87487836D01*
X153566743Y-87485270D01*
X153464729Y-87383256D01*
X153461302Y-87374983D01*
X153462222Y-87370435D01*
X153480137Y-87327995D01*
X153482065Y-87324898D01*
X153535377Y-87263373D01*
X153595165Y-87132457D01*
X153611730Y-87017243D01*
X153612529Y-87014368D01*
X153658331Y-86905866D01*
X153664705Y-86899579D01*
X153673551Y-86899594D01*
G37*
%TD.AperFunction*%
%TD*%
%TA.AperFunction,Conductor*%
%TO.N,/CAN_STB*%
G36*
X146498338Y-87566664D02*
G01*
X146504659Y-87573008D01*
X146505541Y-87577465D01*
X146505541Y-87718144D01*
X146504960Y-87721784D01*
X146360597Y-88162817D01*
X146354767Y-88169613D01*
X146345838Y-88170296D01*
X146345014Y-88169992D01*
X146160034Y-88093647D01*
X146083015Y-88061859D01*
X146076677Y-88055537D01*
X145969143Y-87793644D01*
X145969170Y-87784691D01*
X145975508Y-87778384D01*
X146489384Y-87566647D01*
X146498338Y-87566664D01*
G37*
%TD.AperFunction*%
%TD*%
M02*
