%TF.GenerationSoftware,KiCad,Pcbnew,7.0.6*%
%TF.CreationDate,2023-10-03T21:22:45+08:00*%
%TF.ProjectId,CawDrive,43617744-7269-4766-952e-6b696361645f,rev?*%
%TF.SameCoordinates,Original*%
%TF.FileFunction,Drillmap*%
%TF.FilePolarity,Positive*%
%FSLAX45Y45*%
G04 Gerber Fmt 4.5, Leading zero omitted, Abs format (unit mm)*
G04 Created by KiCad (PCBNEW 7.0.6) date 2023-10-03 21:22:45*
%MOMM*%
%LPD*%
G01*
G04 APERTURE LIST*
%ADD10C,0.100000*%
%ADD11C,0.200000*%
%ADD12C,0.030000*%
%ADD13C,0.040000*%
%ADD14C,0.050000*%
%ADD15C,0.150000*%
%ADD16C,0.250000*%
G04 APERTURE END LIST*
D10*
X16000000Y-7300000D02*
G75*
G03*
X15700000Y-7000000I-300000J0D01*
G01*
X12300000Y-7000000D02*
X15700000Y-7000000D01*
X12000000Y-10700000D02*
G75*
G03*
X12300000Y-11000000I300000J0D01*
G01*
X16000000Y-7300000D02*
X16000000Y-10700000D01*
X15700000Y-11000000D02*
G75*
G03*
X16000000Y-10700000I0J300000D01*
G01*
X15700000Y-11000000D02*
X12300000Y-11000000D01*
X12000000Y-10700000D02*
X12000000Y-7300000D01*
X12300000Y-7000000D02*
G75*
G03*
X12000000Y-7300000I0J-300000D01*
G01*
D11*
D12*
X12050000Y-9357600D02*
X12080000Y-9387600D01*
X12080000Y-9357600D02*
X12050000Y-9387600D01*
X12138900Y-9357600D02*
X12168900Y-9387600D01*
X12168900Y-9357600D02*
X12138900Y-9387600D01*
X12211350Y-8993050D02*
X12241350Y-9023050D01*
X12241350Y-8993050D02*
X12211350Y-9023050D01*
X12227800Y-9357600D02*
X12257800Y-9387600D01*
X12257800Y-9357600D02*
X12227800Y-9387600D01*
X12235000Y-10260000D02*
X12265000Y-10290000D01*
X12265000Y-10260000D02*
X12235000Y-10290000D01*
X12240500Y-9827500D02*
X12270500Y-9857500D01*
X12270500Y-9827500D02*
X12240500Y-9857500D01*
X12240500Y-9929100D02*
X12270500Y-9959100D01*
X12270500Y-9929100D02*
X12240500Y-9959100D01*
X12240500Y-10030700D02*
X12270500Y-10060700D01*
X12270500Y-10030700D02*
X12240500Y-10060700D01*
X12240500Y-10132300D02*
X12270500Y-10162300D01*
X12270500Y-10132300D02*
X12240500Y-10162300D01*
X12240500Y-10360900D02*
X12270500Y-10390900D01*
X12270500Y-10360900D02*
X12240500Y-10390900D01*
X12316700Y-9357600D02*
X12346700Y-9387600D01*
X12346700Y-9357600D02*
X12316700Y-9387600D01*
X12342100Y-8951200D02*
X12372100Y-8981200D01*
X12372100Y-8951200D02*
X12342100Y-8981200D01*
X12342100Y-9065500D02*
X12372100Y-9095500D01*
X12372100Y-9065500D02*
X12342100Y-9095500D01*
X12367500Y-7706600D02*
X12397500Y-7736600D01*
X12397500Y-7706600D02*
X12367500Y-7736600D01*
X12367500Y-9827500D02*
X12397500Y-9857500D01*
X12397500Y-9827500D02*
X12367500Y-9857500D01*
X12367500Y-9929100D02*
X12397500Y-9959100D01*
X12397500Y-9929100D02*
X12367500Y-9959100D01*
X12367500Y-10030700D02*
X12397500Y-10060700D01*
X12397500Y-10030700D02*
X12367500Y-10060700D01*
X12367500Y-10132300D02*
X12397500Y-10162300D01*
X12397500Y-10132300D02*
X12367500Y-10162300D01*
X12367500Y-10259300D02*
X12397500Y-10289300D01*
X12397500Y-10259300D02*
X12367500Y-10289300D01*
X12367500Y-10360900D02*
X12397500Y-10390900D01*
X12397500Y-10360900D02*
X12367500Y-10390900D01*
X12405600Y-9357600D02*
X12435600Y-9387600D01*
X12435600Y-9357600D02*
X12405600Y-9387600D01*
X12494500Y-9357600D02*
X12524500Y-9387600D01*
X12524500Y-9357600D02*
X12494500Y-9387600D01*
X12494500Y-9827500D02*
X12524500Y-9857500D01*
X12524500Y-9827500D02*
X12494500Y-9857500D01*
X12494500Y-9929100D02*
X12524500Y-9959100D01*
X12524500Y-9929100D02*
X12494500Y-9959100D01*
X12494500Y-10030700D02*
X12524500Y-10060700D01*
X12524500Y-10030700D02*
X12494500Y-10060700D01*
X12494500Y-10132300D02*
X12524500Y-10162300D01*
X12524500Y-10132300D02*
X12494500Y-10162300D01*
X12494500Y-10259300D02*
X12524500Y-10289300D01*
X12524500Y-10259300D02*
X12494500Y-10289300D01*
X12494500Y-10360900D02*
X12524500Y-10390900D01*
X12524500Y-10360900D02*
X12494500Y-10390900D01*
X12542650Y-8570200D02*
X12572650Y-8600200D01*
X12572650Y-8570200D02*
X12542650Y-8600200D01*
X12583400Y-9357600D02*
X12613400Y-9387600D01*
X12613400Y-9357600D02*
X12583400Y-9387600D01*
X12621500Y-9827500D02*
X12651500Y-9857500D01*
X12651500Y-9827500D02*
X12621500Y-9857500D01*
X12621500Y-9929100D02*
X12651500Y-9959100D01*
X12651500Y-9929100D02*
X12621500Y-9959100D01*
X12621500Y-10030700D02*
X12651500Y-10060700D01*
X12651500Y-10030700D02*
X12621500Y-10060700D01*
X12621500Y-10132300D02*
X12651500Y-10162300D01*
X12651500Y-10132300D02*
X12621500Y-10162300D01*
X12786600Y-7312900D02*
X12816600Y-7342900D01*
X12816600Y-7312900D02*
X12786600Y-7342900D01*
X12836000Y-7861000D02*
X12866000Y-7891000D01*
X12866000Y-7861000D02*
X12836000Y-7891000D01*
X12837400Y-10221200D02*
X12867400Y-10251200D01*
X12867400Y-10221200D02*
X12837400Y-10251200D01*
X12837400Y-10322800D02*
X12867400Y-10352800D01*
X12867400Y-10322800D02*
X12837400Y-10352800D01*
X12837400Y-10424400D02*
X12867400Y-10454400D01*
X12867400Y-10424400D02*
X12837400Y-10454400D01*
X12939000Y-9700500D02*
X12969000Y-9730500D01*
X12969000Y-9700500D02*
X12939000Y-9730500D01*
X12939000Y-9789400D02*
X12969000Y-9819400D01*
X12969000Y-9789400D02*
X12939000Y-9819400D01*
X12951700Y-8989300D02*
X12981700Y-9019300D01*
X12981700Y-8989300D02*
X12951700Y-9019300D01*
X12963859Y-8343141D02*
X12993859Y-8373141D01*
X12993859Y-8343141D02*
X12963859Y-8373141D01*
X12964400Y-8621000D02*
X12994400Y-8651000D01*
X12994400Y-8621000D02*
X12964400Y-8651000D01*
X12964400Y-10221200D02*
X12994400Y-10251200D01*
X12994400Y-10221200D02*
X12964400Y-10251200D01*
X12964400Y-10322800D02*
X12994400Y-10352800D01*
X12994400Y-10322800D02*
X12964400Y-10352800D01*
X12964400Y-10424400D02*
X12994400Y-10454400D01*
X12994400Y-10424400D02*
X12964400Y-10454400D01*
X12989800Y-9383000D02*
X13019800Y-9413000D01*
X13019800Y-9383000D02*
X12989800Y-9413000D01*
X12989800Y-9459200D02*
X13019800Y-9489200D01*
X13019800Y-9459200D02*
X12989800Y-9489200D01*
X13004729Y-8186000D02*
X13034729Y-8216000D01*
X13034729Y-8186000D02*
X13004729Y-8216000D01*
X13006116Y-8280948D02*
X13036116Y-8310948D01*
X13036116Y-8280948D02*
X13006116Y-8310948D01*
X13015200Y-9700500D02*
X13045200Y-9730500D01*
X13045200Y-9700500D02*
X13015200Y-9730500D01*
X13015200Y-9789400D02*
X13045200Y-9819400D01*
X13045200Y-9789400D02*
X13015200Y-9819400D01*
X13025000Y-7312900D02*
X13055000Y-7342900D01*
X13055000Y-7312900D02*
X13025000Y-7342900D01*
X13066000Y-8519400D02*
X13096000Y-8549400D01*
X13096000Y-8519400D02*
X13066000Y-8549400D01*
X13066000Y-8722600D02*
X13096000Y-8752600D01*
X13096000Y-8722600D02*
X13066000Y-8752600D01*
X13066000Y-9383000D02*
X13096000Y-9413000D01*
X13096000Y-9383000D02*
X13066000Y-9413000D01*
X13066000Y-9459200D02*
X13096000Y-9489200D01*
X13096000Y-9459200D02*
X13066000Y-9489200D01*
X13076518Y-8147134D02*
X13106518Y-8177134D01*
X13106518Y-8147134D02*
X13076518Y-8177134D01*
X13091400Y-9789400D02*
X13121400Y-9819400D01*
X13121400Y-9789400D02*
X13091400Y-9819400D01*
X13091400Y-10221200D02*
X13121400Y-10251200D01*
X13121400Y-10221200D02*
X13091400Y-10251200D01*
X13091400Y-10322800D02*
X13121400Y-10352800D01*
X13121400Y-10322800D02*
X13091400Y-10352800D01*
X13091400Y-10424400D02*
X13121400Y-10454400D01*
X13121400Y-10424400D02*
X13091400Y-10454400D01*
X13129095Y-8090651D02*
X13159095Y-8120651D01*
X13159095Y-8090651D02*
X13129095Y-8120651D01*
X13154900Y-9383000D02*
X13184900Y-9413000D01*
X13184900Y-9383000D02*
X13154900Y-9413000D01*
X13154900Y-9459200D02*
X13184900Y-9489200D01*
X13184900Y-9459200D02*
X13154900Y-9489200D01*
X13167600Y-8417800D02*
X13197600Y-8447800D01*
X13197600Y-8417800D02*
X13167600Y-8447800D01*
X13167600Y-8621000D02*
X13197600Y-8651000D01*
X13197600Y-8621000D02*
X13167600Y-8651000D01*
X13167600Y-8824200D02*
X13197600Y-8854200D01*
X13197600Y-8824200D02*
X13167600Y-8854200D01*
X13167600Y-9700500D02*
X13197600Y-9730500D01*
X13197600Y-9700500D02*
X13167600Y-9730500D01*
X13167600Y-9789400D02*
X13197600Y-9819400D01*
X13197600Y-9789400D02*
X13167600Y-9819400D01*
X13207465Y-8056465D02*
X13237465Y-8086465D01*
X13237465Y-8056465D02*
X13207465Y-8086465D01*
X13218400Y-10221200D02*
X13248400Y-10251200D01*
X13248400Y-10221200D02*
X13218400Y-10251200D01*
X13218400Y-10322800D02*
X13248400Y-10352800D01*
X13248400Y-10322800D02*
X13218400Y-10352800D01*
X13218400Y-10424400D02*
X13248400Y-10454400D01*
X13248400Y-10424400D02*
X13218400Y-10454400D01*
X13231100Y-9383000D02*
X13261100Y-9413000D01*
X13261100Y-9383000D02*
X13231100Y-9413000D01*
X13231100Y-9459200D02*
X13261100Y-9489200D01*
X13261100Y-9459200D02*
X13231100Y-9489200D01*
X13243800Y-9700500D02*
X13273800Y-9730500D01*
X13273800Y-9700500D02*
X13243800Y-9730500D01*
X13243800Y-9789400D02*
X13273800Y-9819400D01*
X13273800Y-9789400D02*
X13243800Y-9819400D01*
X13256500Y-7351000D02*
X13286500Y-7381000D01*
X13286500Y-7351000D02*
X13256500Y-7381000D01*
X13256500Y-7534100D02*
X13286500Y-7564100D01*
X13286500Y-7534100D02*
X13256500Y-7564100D01*
X13269200Y-8316200D02*
X13299200Y-8346200D01*
X13299200Y-8316200D02*
X13269200Y-8346200D01*
X13269200Y-8519400D02*
X13299200Y-8549400D01*
X13299200Y-8519400D02*
X13269200Y-8549400D01*
X13269200Y-8722600D02*
X13299200Y-8752600D01*
X13299200Y-8722600D02*
X13269200Y-8752600D01*
X13269200Y-8925800D02*
X13299200Y-8955800D01*
X13299200Y-8925800D02*
X13269200Y-8955800D01*
X13294600Y-9167100D02*
X13324600Y-9197100D01*
X13324600Y-9167100D02*
X13294600Y-9197100D01*
X13370800Y-8417800D02*
X13400800Y-8447800D01*
X13400800Y-8417800D02*
X13370800Y-8447800D01*
X13370800Y-8621000D02*
X13400800Y-8651000D01*
X13400800Y-8621000D02*
X13370800Y-8651000D01*
X13370800Y-8824200D02*
X13400800Y-8854200D01*
X13400800Y-8824200D02*
X13370800Y-8854200D01*
X13381809Y-9126609D02*
X13411809Y-9156609D01*
X13411809Y-9126609D02*
X13381809Y-9156609D01*
X13396200Y-7427200D02*
X13426200Y-7457200D01*
X13426200Y-7427200D02*
X13396200Y-7457200D01*
X13408900Y-10221200D02*
X13438900Y-10251200D01*
X13438900Y-10221200D02*
X13408900Y-10251200D01*
X13408900Y-10322800D02*
X13438900Y-10352800D01*
X13438900Y-10322800D02*
X13408900Y-10352800D01*
X13408900Y-10424400D02*
X13438900Y-10454400D01*
X13438900Y-10424400D02*
X13408900Y-10454400D01*
X13472400Y-8519400D02*
X13502400Y-8549400D01*
X13502400Y-8519400D02*
X13472400Y-8549400D01*
X13472400Y-8722600D02*
X13502400Y-8752600D01*
X13502400Y-8722600D02*
X13472400Y-8752600D01*
X13497800Y-9103600D02*
X13527800Y-9133600D01*
X13527800Y-9103600D02*
X13497800Y-9133600D01*
X13510000Y-7427200D02*
X13540000Y-7457200D01*
X13540000Y-7427200D02*
X13510000Y-7457200D01*
X13523200Y-9700500D02*
X13553200Y-9730500D01*
X13553200Y-9700500D02*
X13523200Y-9730500D01*
X13523200Y-9776700D02*
X13553200Y-9806700D01*
X13553200Y-9776700D02*
X13523200Y-9806700D01*
X13535900Y-10221200D02*
X13565900Y-10251200D01*
X13565900Y-10221200D02*
X13535900Y-10251200D01*
X13535900Y-10322800D02*
X13565900Y-10352800D01*
X13565900Y-10322800D02*
X13535900Y-10352800D01*
X13535900Y-10424400D02*
X13565900Y-10454400D01*
X13565900Y-10424400D02*
X13535900Y-10454400D01*
X13538265Y-9169465D02*
X13568265Y-9199465D01*
X13568265Y-9169465D02*
X13538265Y-9199465D01*
X13566203Y-8204203D02*
X13596203Y-8234203D01*
X13596203Y-8204203D02*
X13566203Y-8234203D01*
X13574000Y-8621000D02*
X13604000Y-8651000D01*
X13604000Y-8621000D02*
X13574000Y-8651000D01*
X13574000Y-9383000D02*
X13604000Y-9413000D01*
X13604000Y-9383000D02*
X13574000Y-9413000D01*
X13574000Y-9459200D02*
X13604000Y-9489200D01*
X13604000Y-9459200D02*
X13574000Y-9489200D01*
X13599400Y-9700500D02*
X13629400Y-9730500D01*
X13629400Y-9700500D02*
X13599400Y-9730500D01*
X13599400Y-9776700D02*
X13629400Y-9806700D01*
X13629400Y-9776700D02*
X13599400Y-9806700D01*
X13621989Y-8325494D02*
X13651989Y-8355494D01*
X13651989Y-8325494D02*
X13621989Y-8355494D01*
X13636847Y-8249119D02*
X13666847Y-8279119D01*
X13666847Y-8249119D02*
X13636847Y-8279119D01*
X13650200Y-7655800D02*
X13680200Y-7685800D01*
X13680200Y-7655800D02*
X13650200Y-7685800D01*
X13650200Y-7782800D02*
X13680200Y-7812800D01*
X13680200Y-7782800D02*
X13650200Y-7812800D01*
X13650200Y-9383000D02*
X13680200Y-9413000D01*
X13680200Y-9383000D02*
X13650200Y-9413000D01*
X13650200Y-9459200D02*
X13680200Y-9489200D01*
X13680200Y-9459200D02*
X13650200Y-9489200D01*
X13651716Y-7718922D02*
X13681716Y-7748922D01*
X13681716Y-7718922D02*
X13651716Y-7748922D01*
X13662900Y-10221200D02*
X13692900Y-10251200D01*
X13692900Y-10221200D02*
X13662900Y-10251200D01*
X13662900Y-10322800D02*
X13692900Y-10352800D01*
X13692900Y-10322800D02*
X13662900Y-10352800D01*
X13662900Y-10424400D02*
X13692900Y-10454400D01*
X13692900Y-10424400D02*
X13662900Y-10454400D01*
X13663000Y-8110000D02*
X13693000Y-8140000D01*
X13693000Y-8110000D02*
X13663000Y-8140000D01*
X13675600Y-9700500D02*
X13705600Y-9730500D01*
X13705600Y-9700500D02*
X13675600Y-9730500D01*
X13675600Y-9776700D02*
X13705600Y-9806700D01*
X13705600Y-9776700D02*
X13675600Y-9806700D01*
X13739100Y-9383000D02*
X13769100Y-9413000D01*
X13769100Y-9383000D02*
X13739100Y-9413000D01*
X13739100Y-9459200D02*
X13769100Y-9489200D01*
X13769100Y-9459200D02*
X13739100Y-9489200D01*
X13742850Y-7421659D02*
X13772850Y-7451659D01*
X13772850Y-7421659D02*
X13742850Y-7451659D01*
X13764500Y-8786100D02*
X13794500Y-8816100D01*
X13794500Y-8786100D02*
X13764500Y-8816100D01*
X13764500Y-9700500D02*
X13794500Y-9730500D01*
X13794500Y-9700500D02*
X13764500Y-9730500D01*
X13764500Y-9776700D02*
X13794500Y-9806700D01*
X13794500Y-9776700D02*
X13764500Y-9806700D01*
X13789900Y-10221200D02*
X13819900Y-10251200D01*
X13819900Y-10221200D02*
X13789900Y-10251200D01*
X13789900Y-10322800D02*
X13819900Y-10352800D01*
X13819900Y-10322800D02*
X13789900Y-10352800D01*
X13789900Y-10424400D02*
X13819900Y-10454400D01*
X13819900Y-10424400D02*
X13789900Y-10454400D01*
X13815300Y-9459200D02*
X13845300Y-9489200D01*
X13845300Y-9459200D02*
X13815300Y-9489200D01*
X13828000Y-8648191D02*
X13858000Y-8678191D01*
X13858000Y-8648191D02*
X13828000Y-8678191D01*
X13840700Y-8849600D02*
X13870700Y-8879600D01*
X13870700Y-8849600D02*
X13840700Y-8879600D01*
X13843157Y-8721838D02*
X13873157Y-8751838D01*
X13873157Y-8721838D02*
X13843157Y-8751838D01*
X13844588Y-8104188D02*
X13874588Y-8134188D01*
X13874588Y-8104188D02*
X13844588Y-8134188D01*
X13862350Y-7423450D02*
X13892350Y-7453450D01*
X13892350Y-7423450D02*
X13862350Y-7453450D01*
X13878800Y-8240000D02*
X13908800Y-8270000D01*
X13908800Y-8240000D02*
X13878800Y-8270000D01*
X13933000Y-8530000D02*
X13963000Y-8560000D01*
X13963000Y-8530000D02*
X13933000Y-8560000D01*
X13955000Y-9383000D02*
X13985000Y-9413000D01*
X13985000Y-9383000D02*
X13955000Y-9413000D01*
X13955000Y-9459200D02*
X13985000Y-9489200D01*
X13985000Y-9459200D02*
X13955000Y-9489200D01*
X13967700Y-10005300D02*
X13997700Y-10035300D01*
X13997700Y-10005300D02*
X13967700Y-10035300D01*
X13967700Y-10106900D02*
X13997700Y-10136900D01*
X13997700Y-10106900D02*
X13967700Y-10136900D01*
X13967700Y-10208500D02*
X13997700Y-10238500D01*
X13997700Y-10208500D02*
X13967700Y-10238500D01*
X13967700Y-10310100D02*
X13997700Y-10340100D01*
X13997700Y-10310100D02*
X13967700Y-10340100D01*
X13967700Y-10437100D02*
X13997700Y-10467100D01*
X13997700Y-10437100D02*
X13967700Y-10467100D01*
X13967700Y-10551400D02*
X13997700Y-10581400D01*
X13997700Y-10551400D02*
X13967700Y-10581400D01*
X13985000Y-7304800D02*
X14015000Y-7334800D01*
X14015000Y-7304800D02*
X13985000Y-7334800D01*
X14031200Y-8532100D02*
X14061200Y-8562100D01*
X14061200Y-8532100D02*
X14031200Y-8562100D01*
X14031200Y-9383000D02*
X14061200Y-9413000D01*
X14061200Y-9383000D02*
X14031200Y-9413000D01*
X14031200Y-9459200D02*
X14061200Y-9489200D01*
X14061200Y-9459200D02*
X14031200Y-9489200D01*
X14094700Y-10005300D02*
X14124700Y-10035300D01*
X14124700Y-10005300D02*
X14094700Y-10035300D01*
X14094700Y-10106900D02*
X14124700Y-10136900D01*
X14124700Y-10106900D02*
X14094700Y-10136900D01*
X14094700Y-10208500D02*
X14124700Y-10238500D01*
X14124700Y-10208500D02*
X14094700Y-10238500D01*
X14094700Y-10310100D02*
X14124700Y-10340100D01*
X14124700Y-10310100D02*
X14094700Y-10340100D01*
X14094700Y-10437100D02*
X14124700Y-10467100D01*
X14124700Y-10437100D02*
X14094700Y-10467100D01*
X14094700Y-10551400D02*
X14124700Y-10581400D01*
X14124700Y-10551400D02*
X14094700Y-10581400D01*
X14107400Y-9383000D02*
X14137400Y-9413000D01*
X14137400Y-9383000D02*
X14107400Y-9413000D01*
X14107400Y-9459200D02*
X14137400Y-9489200D01*
X14137400Y-9459200D02*
X14107400Y-9489200D01*
X14120100Y-7185900D02*
X14150100Y-7215900D01*
X14150100Y-7185900D02*
X14120100Y-7215900D01*
X14120100Y-8722600D02*
X14150100Y-8752600D01*
X14150100Y-8722600D02*
X14120100Y-8752600D01*
X14170900Y-7863191D02*
X14200900Y-7893191D01*
X14200900Y-7863191D02*
X14170900Y-7893191D01*
X14183600Y-8214600D02*
X14213600Y-8244600D01*
X14213600Y-8214600D02*
X14183600Y-8244600D01*
X14183600Y-9383000D02*
X14213600Y-9413000D01*
X14213600Y-9383000D02*
X14183600Y-9413000D01*
X14183600Y-9459200D02*
X14213600Y-9489200D01*
X14213600Y-9459200D02*
X14183600Y-9489200D01*
X14196477Y-8350944D02*
X14226477Y-8380944D01*
X14226477Y-8350944D02*
X14196477Y-8380944D01*
X14221700Y-10005300D02*
X14251700Y-10035300D01*
X14251700Y-10005300D02*
X14221700Y-10035300D01*
X14221700Y-10106900D02*
X14251700Y-10136900D01*
X14251700Y-10106900D02*
X14221700Y-10136900D01*
X14221700Y-10208500D02*
X14251700Y-10238500D01*
X14251700Y-10208500D02*
X14221700Y-10238500D01*
X14221700Y-10310100D02*
X14251700Y-10340100D01*
X14251700Y-10310100D02*
X14221700Y-10340100D01*
X14221700Y-10437100D02*
X14251700Y-10467100D01*
X14251700Y-10437100D02*
X14221700Y-10467100D01*
X14221700Y-10551400D02*
X14251700Y-10581400D01*
X14251700Y-10551400D02*
X14221700Y-10581400D01*
X14232994Y-7627675D02*
X14262994Y-7657675D01*
X14262994Y-7627675D02*
X14232994Y-7657675D01*
X14234400Y-8113000D02*
X14264400Y-8143000D01*
X14264400Y-8113000D02*
X14234400Y-8143000D01*
X14257330Y-8199854D02*
X14287330Y-8229854D01*
X14287330Y-8199854D02*
X14257330Y-8229854D01*
X14259800Y-9383000D02*
X14289800Y-9413000D01*
X14289800Y-9383000D02*
X14259800Y-9413000D01*
X14259800Y-9459200D02*
X14289800Y-9489200D01*
X14289800Y-9459200D02*
X14259800Y-9489200D01*
X14260271Y-7872239D02*
X14290271Y-7902239D01*
X14290271Y-7872239D02*
X14260271Y-7902239D01*
X14288191Y-8457376D02*
X14318191Y-8487376D01*
X14318191Y-8457376D02*
X14288191Y-8487376D01*
X14290026Y-7955774D02*
X14320026Y-7985774D01*
X14320026Y-7955774D02*
X14290026Y-7985774D01*
X14297900Y-8350944D02*
X14327900Y-8380944D01*
X14327900Y-8350944D02*
X14297900Y-8380944D01*
X14321000Y-7651000D02*
X14351000Y-7681000D01*
X14351000Y-7651000D02*
X14321000Y-7681000D01*
X14336000Y-9383000D02*
X14366000Y-9413000D01*
X14366000Y-9383000D02*
X14336000Y-9413000D01*
X14336000Y-9459200D02*
X14366000Y-9489200D01*
X14366000Y-9459200D02*
X14336000Y-9489200D01*
X14342000Y-8510567D02*
X14372000Y-8540567D01*
X14372000Y-8510567D02*
X14342000Y-8540567D01*
X14348700Y-10005300D02*
X14378700Y-10035300D01*
X14378700Y-10005300D02*
X14348700Y-10035300D01*
X14348700Y-10106900D02*
X14378700Y-10136900D01*
X14378700Y-10106900D02*
X14348700Y-10136900D01*
X14348700Y-10208500D02*
X14378700Y-10238500D01*
X14378700Y-10208500D02*
X14348700Y-10238500D01*
X14348700Y-10310100D02*
X14378700Y-10340100D01*
X14378700Y-10310100D02*
X14348700Y-10340100D01*
X14361400Y-7185900D02*
X14391400Y-7215900D01*
X14391400Y-7185900D02*
X14361400Y-7215900D01*
X14427000Y-8510567D02*
X14457000Y-8540567D01*
X14457000Y-8510567D02*
X14427000Y-8540567D01*
X14501100Y-8379700D02*
X14531100Y-8409700D01*
X14531100Y-8379700D02*
X14501100Y-8409700D01*
X14501100Y-9383000D02*
X14531100Y-9413000D01*
X14531100Y-9383000D02*
X14501100Y-9413000D01*
X14501100Y-9459200D02*
X14531100Y-9489200D01*
X14531100Y-9459200D02*
X14501100Y-9489200D01*
X14526500Y-10005300D02*
X14556500Y-10035300D01*
X14556500Y-10005300D02*
X14526500Y-10035300D01*
X14526500Y-10106900D02*
X14556500Y-10136900D01*
X14556500Y-10106900D02*
X14526500Y-10136900D01*
X14526500Y-10208500D02*
X14556500Y-10238500D01*
X14556500Y-10208500D02*
X14526500Y-10238500D01*
X14526500Y-10310100D02*
X14556500Y-10340100D01*
X14556500Y-10310100D02*
X14526500Y-10340100D01*
X14526500Y-10437100D02*
X14556500Y-10467100D01*
X14556500Y-10437100D02*
X14526500Y-10467100D01*
X14526500Y-10551400D02*
X14556500Y-10581400D01*
X14556500Y-10551400D02*
X14526500Y-10581400D01*
X14577300Y-9383000D02*
X14607300Y-9413000D01*
X14607300Y-9383000D02*
X14577300Y-9413000D01*
X14577300Y-9459200D02*
X14607300Y-9489200D01*
X14607300Y-9459200D02*
X14577300Y-9489200D01*
X14592951Y-8791000D02*
X14622951Y-8821000D01*
X14622951Y-8791000D02*
X14592951Y-8821000D01*
X14601829Y-8365478D02*
X14631829Y-8395478D01*
X14631829Y-8365478D02*
X14601829Y-8395478D01*
X14602700Y-7185900D02*
X14632700Y-7215900D01*
X14632700Y-7185900D02*
X14602700Y-7215900D01*
X14653500Y-9383000D02*
X14683500Y-9413000D01*
X14683500Y-9383000D02*
X14653500Y-9413000D01*
X14653500Y-9459200D02*
X14683500Y-9489200D01*
X14683500Y-9459200D02*
X14653500Y-9489200D01*
X14653500Y-10005300D02*
X14683500Y-10035300D01*
X14683500Y-10005300D02*
X14653500Y-10035300D01*
X14653500Y-10106900D02*
X14683500Y-10136900D01*
X14683500Y-10106900D02*
X14653500Y-10136900D01*
X14653500Y-10208500D02*
X14683500Y-10238500D01*
X14683500Y-10208500D02*
X14653500Y-10238500D01*
X14653500Y-10310100D02*
X14683500Y-10340100D01*
X14683500Y-10310100D02*
X14653500Y-10340100D01*
X14653500Y-10437100D02*
X14683500Y-10467100D01*
X14683500Y-10437100D02*
X14653500Y-10467100D01*
X14653500Y-10551400D02*
X14683500Y-10581400D01*
X14683500Y-10551400D02*
X14653500Y-10581400D01*
X14678900Y-9020650D02*
X14708900Y-9050650D01*
X14708900Y-9020650D02*
X14678900Y-9050650D01*
X14704300Y-8379700D02*
X14734300Y-8409700D01*
X14734300Y-8379700D02*
X14704300Y-8409700D01*
X14729700Y-9383000D02*
X14759700Y-9413000D01*
X14759700Y-9383000D02*
X14729700Y-9413000D01*
X14729700Y-9459200D02*
X14759700Y-9489200D01*
X14759700Y-9459200D02*
X14729700Y-9489200D01*
X14736000Y-7811000D02*
X14766000Y-7841000D01*
X14766000Y-7811000D02*
X14736000Y-7841000D01*
X14738191Y-7643000D02*
X14768191Y-7673000D01*
X14768191Y-7643000D02*
X14738191Y-7673000D01*
X14738564Y-7718189D02*
X14768564Y-7748189D01*
X14768564Y-7718189D02*
X14738564Y-7748189D01*
X14739000Y-7896000D02*
X14769000Y-7926000D01*
X14769000Y-7896000D02*
X14739000Y-7926000D01*
X14755100Y-8817554D02*
X14785100Y-8847554D01*
X14785100Y-8817554D02*
X14755100Y-8847554D01*
X14780500Y-8532100D02*
X14810500Y-8562100D01*
X14810500Y-8532100D02*
X14780500Y-8562100D01*
X14780500Y-10005300D02*
X14810500Y-10035300D01*
X14810500Y-10005300D02*
X14780500Y-10035300D01*
X14780500Y-10106900D02*
X14810500Y-10136900D01*
X14810500Y-10106900D02*
X14780500Y-10136900D01*
X14780500Y-10208500D02*
X14810500Y-10238500D01*
X14810500Y-10208500D02*
X14780500Y-10238500D01*
X14780500Y-10310100D02*
X14810500Y-10340100D01*
X14810500Y-10310100D02*
X14780500Y-10340100D01*
X14780500Y-10437100D02*
X14810500Y-10467100D01*
X14810500Y-10437100D02*
X14780500Y-10467100D01*
X14780500Y-10551400D02*
X14810500Y-10581400D01*
X14810500Y-10551400D02*
X14780500Y-10581400D01*
X14793200Y-9103600D02*
X14823200Y-9133600D01*
X14823200Y-9103600D02*
X14793200Y-9133600D01*
X14805900Y-9383000D02*
X14835900Y-9413000D01*
X14835900Y-9383000D02*
X14805900Y-9413000D01*
X14805900Y-9459200D02*
X14835900Y-9489200D01*
X14835900Y-9459200D02*
X14805900Y-9489200D01*
X14844000Y-7185900D02*
X14874000Y-7215900D01*
X14874000Y-7185900D02*
X14844000Y-7215900D01*
X14868190Y-8455810D02*
X14898190Y-8485810D01*
X14898190Y-8455810D02*
X14868190Y-8485810D01*
X14882100Y-9383000D02*
X14912100Y-9413000D01*
X14912100Y-9383000D02*
X14882100Y-9413000D01*
X14882100Y-9459200D02*
X14912100Y-9489200D01*
X14912100Y-9459200D02*
X14882100Y-9489200D01*
X14895970Y-7697174D02*
X14925970Y-7727174D01*
X14925970Y-7697174D02*
X14895970Y-7727174D01*
X14907500Y-10005300D02*
X14937500Y-10035300D01*
X14937500Y-10005300D02*
X14907500Y-10035300D01*
X14907500Y-10106900D02*
X14937500Y-10136900D01*
X14937500Y-10106900D02*
X14907500Y-10136900D01*
X14907500Y-10208500D02*
X14937500Y-10238500D01*
X14937500Y-10208500D02*
X14907500Y-10238500D01*
X14907500Y-10310100D02*
X14937500Y-10340100D01*
X14937500Y-10310100D02*
X14907500Y-10340100D01*
X14955000Y-8428000D02*
X14985000Y-8458000D01*
X14985000Y-8428000D02*
X14955000Y-8458000D01*
X14976000Y-7703000D02*
X15006000Y-7733000D01*
X15006000Y-7703000D02*
X14976000Y-7733000D01*
X14996400Y-8913100D02*
X15026400Y-8943100D01*
X15026400Y-8913100D02*
X14996400Y-8943100D01*
X15046000Y-7380000D02*
X15076000Y-7410000D01*
X15076000Y-7380000D02*
X15046000Y-7410000D01*
X15047000Y-8461000D02*
X15077000Y-8491000D01*
X15077000Y-8461000D02*
X15047000Y-8491000D01*
X15047200Y-8163800D02*
X15077200Y-8193800D01*
X15077200Y-8163800D02*
X15047200Y-8193800D01*
X15085300Y-7185900D02*
X15115300Y-7215900D01*
X15115300Y-7185900D02*
X15085300Y-7215900D01*
X15110700Y-9967200D02*
X15140700Y-9997200D01*
X15140700Y-9967200D02*
X15110700Y-9997200D01*
X15110700Y-10060000D02*
X15140700Y-10090000D01*
X15140700Y-10060000D02*
X15110700Y-10090000D01*
X15110700Y-10157700D02*
X15140700Y-10187700D01*
X15140700Y-10157700D02*
X15110700Y-10187700D01*
X15220000Y-7619000D02*
X15250000Y-7649000D01*
X15250000Y-7619000D02*
X15220000Y-7649000D01*
X15237700Y-8582900D02*
X15267700Y-8612900D01*
X15267700Y-8582900D02*
X15237700Y-8612900D01*
X15237700Y-9827500D02*
X15267700Y-9857500D01*
X15267700Y-9827500D02*
X15237700Y-9857500D01*
X15237700Y-9967200D02*
X15267700Y-9997200D01*
X15267700Y-9967200D02*
X15237700Y-9997200D01*
X15237700Y-10060000D02*
X15267700Y-10090000D01*
X15267700Y-10060000D02*
X15237700Y-10090000D01*
X15237700Y-10157700D02*
X15267700Y-10187700D01*
X15267700Y-10157700D02*
X15237700Y-10187700D01*
X15296000Y-8684000D02*
X15326000Y-8714000D01*
X15326000Y-8684000D02*
X15296000Y-8714000D01*
X15341000Y-7342000D02*
X15371000Y-7372000D01*
X15371000Y-7342000D02*
X15341000Y-7372000D01*
X15341000Y-7452000D02*
X15371000Y-7482000D01*
X15371000Y-7452000D02*
X15341000Y-7482000D01*
X15352000Y-9713200D02*
X15382000Y-9743200D01*
X15382000Y-9713200D02*
X15352000Y-9743200D01*
X15364700Y-9827500D02*
X15394700Y-9857500D01*
X15394700Y-9827500D02*
X15364700Y-9857500D01*
X15364700Y-9967200D02*
X15394700Y-9997200D01*
X15394700Y-9967200D02*
X15364700Y-9997200D01*
X15364700Y-10060000D02*
X15394700Y-10090000D01*
X15394700Y-10060000D02*
X15364700Y-10090000D01*
X15364700Y-10157700D02*
X15394700Y-10187700D01*
X15394700Y-10157700D02*
X15364700Y-10187700D01*
X15379000Y-8686000D02*
X15409000Y-8716000D01*
X15409000Y-8686000D02*
X15379000Y-8716000D01*
X15460000Y-7519000D02*
X15490000Y-7549000D01*
X15490000Y-7519000D02*
X15460000Y-7549000D01*
X15462550Y-8671800D02*
X15492550Y-8701800D01*
X15492550Y-8671800D02*
X15462550Y-8701800D01*
X15479000Y-9052800D02*
X15509000Y-9082800D01*
X15509000Y-9052800D02*
X15479000Y-9082800D01*
X15491700Y-9713200D02*
X15521700Y-9743200D01*
X15521700Y-9713200D02*
X15491700Y-9743200D01*
X15491700Y-9827500D02*
X15521700Y-9857500D01*
X15521700Y-9827500D02*
X15491700Y-9857500D01*
X15491700Y-9967200D02*
X15521700Y-9997200D01*
X15521700Y-9967200D02*
X15491700Y-9997200D01*
X15491700Y-10060000D02*
X15521700Y-10090000D01*
X15521700Y-10060000D02*
X15491700Y-10090000D01*
X15491700Y-10157700D02*
X15521700Y-10187700D01*
X15521700Y-10157700D02*
X15491700Y-10187700D01*
X15546000Y-7833600D02*
X15576000Y-7863600D01*
X15576000Y-7833600D02*
X15546000Y-7863600D01*
X15555200Y-8214600D02*
X15585200Y-8244600D01*
X15585200Y-8214600D02*
X15555200Y-8244600D01*
X15555200Y-9052800D02*
X15585200Y-9082800D01*
X15585200Y-9052800D02*
X15555200Y-9082800D01*
X15658000Y-7672000D02*
X15688000Y-7702000D01*
X15688000Y-7672000D02*
X15658000Y-7702000D01*
X15669500Y-8633700D02*
X15699500Y-8663700D01*
X15699500Y-8633700D02*
X15669500Y-8663700D01*
X15672000Y-8392400D02*
X15702000Y-8422400D01*
X15702000Y-8392400D02*
X15672000Y-8422400D01*
X15672400Y-7912400D02*
X15702400Y-7942400D01*
X15702400Y-7912400D02*
X15672400Y-7942400D01*
X15682200Y-8138400D02*
X15712200Y-8168400D01*
X15712200Y-8138400D02*
X15682200Y-8168400D01*
D13*
X13139100Y-7696200D02*
G75*
G03*
X13139100Y-7696200I-20000J0D01*
G01*
D14*
X12100000Y-10675000D02*
X12100000Y-10725000D01*
X12075000Y-10700000D02*
X12125000Y-10700000D01*
X12112500Y-7275000D02*
X12112500Y-7325000D01*
X12087500Y-7300000D02*
X12137500Y-7300000D01*
X12154917Y-10542418D02*
X12154917Y-10592418D01*
X12129917Y-10567418D02*
X12179917Y-10567418D01*
X12154917Y-10807583D02*
X12154917Y-10857583D01*
X12129917Y-10832583D02*
X12179917Y-10832583D01*
X12167417Y-7142417D02*
X12167417Y-7192417D01*
X12142417Y-7167417D02*
X12192417Y-7167417D01*
X12167417Y-7407582D02*
X12167417Y-7457582D01*
X12142417Y-7432582D02*
X12192417Y-7432582D01*
X12287500Y-10487500D02*
X12287500Y-10537500D01*
X12262500Y-10512500D02*
X12312500Y-10512500D01*
X12287500Y-10862500D02*
X12287500Y-10912500D01*
X12262500Y-10887500D02*
X12312500Y-10887500D01*
X12300000Y-7087500D02*
X12300000Y-7137500D01*
X12275000Y-7112500D02*
X12325000Y-7112500D01*
X12300000Y-7462500D02*
X12300000Y-7512500D01*
X12275000Y-7487500D02*
X12325000Y-7487500D01*
X12420082Y-10542418D02*
X12420082Y-10592418D01*
X12395082Y-10567418D02*
X12445082Y-10567418D01*
X12420082Y-10807583D02*
X12420082Y-10857583D01*
X12395082Y-10832583D02*
X12445082Y-10832583D01*
X12432582Y-7142417D02*
X12432582Y-7192417D01*
X12407582Y-7167417D02*
X12457582Y-7167417D01*
X12432582Y-7407582D02*
X12432582Y-7457582D01*
X12407582Y-7432582D02*
X12457582Y-7432582D01*
X12475000Y-10675000D02*
X12475000Y-10725000D01*
X12450000Y-10700000D02*
X12500000Y-10700000D01*
X12487500Y-7275000D02*
X12487500Y-7325000D01*
X12462500Y-7300000D02*
X12512500Y-7300000D01*
X15512500Y-7287500D02*
X15512500Y-7337500D01*
X15487500Y-7312500D02*
X15537500Y-7312500D01*
X15512500Y-10675000D02*
X15512500Y-10725000D01*
X15487500Y-10700000D02*
X15537500Y-10700000D01*
X15567417Y-7154917D02*
X15567417Y-7204917D01*
X15542417Y-7179917D02*
X15592417Y-7179917D01*
X15567417Y-7420082D02*
X15567417Y-7470082D01*
X15542417Y-7445082D02*
X15592417Y-7445082D01*
X15567417Y-10542418D02*
X15567417Y-10592418D01*
X15542417Y-10567418D02*
X15592417Y-10567418D01*
X15567417Y-10807583D02*
X15567417Y-10857583D01*
X15542417Y-10832583D02*
X15592417Y-10832583D01*
X15700000Y-7100000D02*
X15700000Y-7150000D01*
X15675000Y-7125000D02*
X15725000Y-7125000D01*
X15700000Y-7475000D02*
X15700000Y-7525000D01*
X15675000Y-7500000D02*
X15725000Y-7500000D01*
X15700000Y-10487500D02*
X15700000Y-10537500D01*
X15675000Y-10512500D02*
X15725000Y-10512500D01*
X15700000Y-10862500D02*
X15700000Y-10912500D01*
X15675000Y-10887500D02*
X15725000Y-10887500D01*
X15832582Y-7154917D02*
X15832582Y-7204917D01*
X15807582Y-7179917D02*
X15857582Y-7179917D01*
X15832582Y-7420082D02*
X15832582Y-7470082D01*
X15807582Y-7445082D02*
X15857582Y-7445082D01*
X15832582Y-10542418D02*
X15832582Y-10592418D01*
X15807582Y-10567418D02*
X15857582Y-10567418D01*
X15832582Y-10807583D02*
X15832582Y-10857583D01*
X15807582Y-10832583D02*
X15857582Y-10832583D01*
X15887500Y-7287500D02*
X15887500Y-7337500D01*
X15862500Y-7312500D02*
X15912500Y-7312500D01*
X15887500Y-10675000D02*
X15887500Y-10725000D01*
X15862500Y-10700000D02*
X15912500Y-10700000D01*
D15*
X13153033Y-10853034D02*
X13153033Y-10746967D01*
X13046966Y-10746967D01*
X13046966Y-10853034D01*
X13153033Y-10853034D01*
X14053033Y-10853034D02*
X14053033Y-10746967D01*
X13946966Y-10746967D01*
X13946966Y-10853034D01*
X14053033Y-10853034D01*
X14953033Y-10853034D02*
X14953033Y-10746967D01*
X14846966Y-10746967D01*
X14846966Y-10853034D01*
X14953033Y-10853034D01*
X15853033Y-9653034D02*
X15853033Y-9546967D01*
X15746966Y-9546967D01*
X15746966Y-9653034D01*
X15853033Y-9653034D01*
X15853033Y-10253034D02*
X15853033Y-10146967D01*
X15746966Y-10146967D01*
X15746966Y-10253034D01*
X15853033Y-10253034D01*
D16*
X12287500Y-10825000D02*
X12412500Y-10700000D01*
X12287500Y-10575000D01*
X12162500Y-10700000D01*
X12287500Y-10825000D01*
X12300000Y-7425000D02*
X12425000Y-7300000D01*
X12300000Y-7175000D01*
X12175000Y-7300000D01*
X12300000Y-7425000D01*
X15700000Y-7437500D02*
X15825000Y-7312500D01*
X15700000Y-7187500D01*
X15575000Y-7312500D01*
X15700000Y-7437500D01*
X15700000Y-10825000D02*
X15825000Y-10700000D01*
X15700000Y-10575000D01*
X15575000Y-10700000D01*
X15700000Y-10825000D01*
D11*
X12255777Y-11316484D02*
X12255777Y-11116484D01*
X12255777Y-11116484D02*
X12303396Y-11116484D01*
X12303396Y-11116484D02*
X12331967Y-11126008D01*
X12331967Y-11126008D02*
X12351015Y-11145055D01*
X12351015Y-11145055D02*
X12360539Y-11164103D01*
X12360539Y-11164103D02*
X12370062Y-11202198D01*
X12370062Y-11202198D02*
X12370062Y-11230769D01*
X12370062Y-11230769D02*
X12360539Y-11268865D01*
X12360539Y-11268865D02*
X12351015Y-11287912D01*
X12351015Y-11287912D02*
X12331967Y-11306960D01*
X12331967Y-11306960D02*
X12303396Y-11316484D01*
X12303396Y-11316484D02*
X12255777Y-11316484D01*
X12455777Y-11316484D02*
X12455777Y-11183150D01*
X12455777Y-11221246D02*
X12465301Y-11202198D01*
X12465301Y-11202198D02*
X12474824Y-11192674D01*
X12474824Y-11192674D02*
X12493872Y-11183150D01*
X12493872Y-11183150D02*
X12512920Y-11183150D01*
X12579586Y-11316484D02*
X12579586Y-11183150D01*
X12579586Y-11116484D02*
X12570062Y-11126008D01*
X12570062Y-11126008D02*
X12579586Y-11135531D01*
X12579586Y-11135531D02*
X12589110Y-11126008D01*
X12589110Y-11126008D02*
X12579586Y-11116484D01*
X12579586Y-11116484D02*
X12579586Y-11135531D01*
X12703396Y-11316484D02*
X12684348Y-11306960D01*
X12684348Y-11306960D02*
X12674824Y-11287912D01*
X12674824Y-11287912D02*
X12674824Y-11116484D01*
X12808158Y-11316484D02*
X12789110Y-11306960D01*
X12789110Y-11306960D02*
X12779586Y-11287912D01*
X12779586Y-11287912D02*
X12779586Y-11116484D01*
X13036729Y-11316484D02*
X13036729Y-11116484D01*
X13036729Y-11116484D02*
X13103396Y-11259341D01*
X13103396Y-11259341D02*
X13170062Y-11116484D01*
X13170062Y-11116484D02*
X13170062Y-11316484D01*
X13351015Y-11316484D02*
X13351015Y-11211722D01*
X13351015Y-11211722D02*
X13341491Y-11192674D01*
X13341491Y-11192674D02*
X13322443Y-11183150D01*
X13322443Y-11183150D02*
X13284348Y-11183150D01*
X13284348Y-11183150D02*
X13265301Y-11192674D01*
X13351015Y-11306960D02*
X13331967Y-11316484D01*
X13331967Y-11316484D02*
X13284348Y-11316484D01*
X13284348Y-11316484D02*
X13265301Y-11306960D01*
X13265301Y-11306960D02*
X13255777Y-11287912D01*
X13255777Y-11287912D02*
X13255777Y-11268865D01*
X13255777Y-11268865D02*
X13265301Y-11249817D01*
X13265301Y-11249817D02*
X13284348Y-11240293D01*
X13284348Y-11240293D02*
X13331967Y-11240293D01*
X13331967Y-11240293D02*
X13351015Y-11230769D01*
X13446253Y-11183150D02*
X13446253Y-11383150D01*
X13446253Y-11192674D02*
X13465301Y-11183150D01*
X13465301Y-11183150D02*
X13503396Y-11183150D01*
X13503396Y-11183150D02*
X13522443Y-11192674D01*
X13522443Y-11192674D02*
X13531967Y-11202198D01*
X13531967Y-11202198D02*
X13541491Y-11221246D01*
X13541491Y-11221246D02*
X13541491Y-11278388D01*
X13541491Y-11278388D02*
X13531967Y-11297436D01*
X13531967Y-11297436D02*
X13522443Y-11306960D01*
X13522443Y-11306960D02*
X13503396Y-11316484D01*
X13503396Y-11316484D02*
X13465301Y-11316484D01*
X13465301Y-11316484D02*
X13446253Y-11306960D01*
X13627205Y-11297436D02*
X13636729Y-11306960D01*
X13636729Y-11306960D02*
X13627205Y-11316484D01*
X13627205Y-11316484D02*
X13617682Y-11306960D01*
X13617682Y-11306960D02*
X13627205Y-11297436D01*
X13627205Y-11297436D02*
X13627205Y-11316484D01*
X13627205Y-11192674D02*
X13636729Y-11202198D01*
X13636729Y-11202198D02*
X13627205Y-11211722D01*
X13627205Y-11211722D02*
X13617682Y-11202198D01*
X13617682Y-11202198D02*
X13627205Y-11192674D01*
X13627205Y-11192674D02*
X13627205Y-11211722D01*
D12*
X11965000Y-11630000D02*
X11995000Y-11660000D01*
X11995000Y-11630000D02*
X11965000Y-11660000D01*
D11*
X12293872Y-11536484D02*
X12312920Y-11536484D01*
X12312920Y-11536484D02*
X12331967Y-11546008D01*
X12331967Y-11546008D02*
X12341491Y-11555531D01*
X12341491Y-11555531D02*
X12351015Y-11574579D01*
X12351015Y-11574579D02*
X12360539Y-11612674D01*
X12360539Y-11612674D02*
X12360539Y-11660293D01*
X12360539Y-11660293D02*
X12351015Y-11698388D01*
X12351015Y-11698388D02*
X12341491Y-11717436D01*
X12341491Y-11717436D02*
X12331967Y-11726960D01*
X12331967Y-11726960D02*
X12312920Y-11736484D01*
X12312920Y-11736484D02*
X12293872Y-11736484D01*
X12293872Y-11736484D02*
X12274824Y-11726960D01*
X12274824Y-11726960D02*
X12265301Y-11717436D01*
X12265301Y-11717436D02*
X12255777Y-11698388D01*
X12255777Y-11698388D02*
X12246253Y-11660293D01*
X12246253Y-11660293D02*
X12246253Y-11612674D01*
X12246253Y-11612674D02*
X12255777Y-11574579D01*
X12255777Y-11574579D02*
X12265301Y-11555531D01*
X12265301Y-11555531D02*
X12274824Y-11546008D01*
X12274824Y-11546008D02*
X12293872Y-11536484D01*
X12446253Y-11717436D02*
X12455777Y-11726960D01*
X12455777Y-11726960D02*
X12446253Y-11736484D01*
X12446253Y-11736484D02*
X12436729Y-11726960D01*
X12436729Y-11726960D02*
X12446253Y-11717436D01*
X12446253Y-11717436D02*
X12446253Y-11736484D01*
X12522443Y-11536484D02*
X12646253Y-11536484D01*
X12646253Y-11536484D02*
X12579586Y-11612674D01*
X12579586Y-11612674D02*
X12608158Y-11612674D01*
X12608158Y-11612674D02*
X12627205Y-11622198D01*
X12627205Y-11622198D02*
X12636729Y-11631722D01*
X12636729Y-11631722D02*
X12646253Y-11650769D01*
X12646253Y-11650769D02*
X12646253Y-11698388D01*
X12646253Y-11698388D02*
X12636729Y-11717436D01*
X12636729Y-11717436D02*
X12627205Y-11726960D01*
X12627205Y-11726960D02*
X12608158Y-11736484D01*
X12608158Y-11736484D02*
X12551015Y-11736484D01*
X12551015Y-11736484D02*
X12531967Y-11726960D01*
X12531967Y-11726960D02*
X12522443Y-11717436D01*
X12770062Y-11536484D02*
X12789110Y-11536484D01*
X12789110Y-11536484D02*
X12808158Y-11546008D01*
X12808158Y-11546008D02*
X12817682Y-11555531D01*
X12817682Y-11555531D02*
X12827205Y-11574579D01*
X12827205Y-11574579D02*
X12836729Y-11612674D01*
X12836729Y-11612674D02*
X12836729Y-11660293D01*
X12836729Y-11660293D02*
X12827205Y-11698388D01*
X12827205Y-11698388D02*
X12817682Y-11717436D01*
X12817682Y-11717436D02*
X12808158Y-11726960D01*
X12808158Y-11726960D02*
X12789110Y-11736484D01*
X12789110Y-11736484D02*
X12770062Y-11736484D01*
X12770062Y-11736484D02*
X12751015Y-11726960D01*
X12751015Y-11726960D02*
X12741491Y-11717436D01*
X12741491Y-11717436D02*
X12731967Y-11698388D01*
X12731967Y-11698388D02*
X12722443Y-11660293D01*
X12722443Y-11660293D02*
X12722443Y-11612674D01*
X12722443Y-11612674D02*
X12731967Y-11574579D01*
X12731967Y-11574579D02*
X12741491Y-11555531D01*
X12741491Y-11555531D02*
X12751015Y-11546008D01*
X12751015Y-11546008D02*
X12770062Y-11536484D01*
X12960539Y-11536484D02*
X12979586Y-11536484D01*
X12979586Y-11536484D02*
X12998634Y-11546008D01*
X12998634Y-11546008D02*
X13008158Y-11555531D01*
X13008158Y-11555531D02*
X13017682Y-11574579D01*
X13017682Y-11574579D02*
X13027205Y-11612674D01*
X13027205Y-11612674D02*
X13027205Y-11660293D01*
X13027205Y-11660293D02*
X13017682Y-11698388D01*
X13017682Y-11698388D02*
X13008158Y-11717436D01*
X13008158Y-11717436D02*
X12998634Y-11726960D01*
X12998634Y-11726960D02*
X12979586Y-11736484D01*
X12979586Y-11736484D02*
X12960539Y-11736484D01*
X12960539Y-11736484D02*
X12941491Y-11726960D01*
X12941491Y-11726960D02*
X12931967Y-11717436D01*
X12931967Y-11717436D02*
X12922443Y-11698388D01*
X12922443Y-11698388D02*
X12912920Y-11660293D01*
X12912920Y-11660293D02*
X12912920Y-11612674D01*
X12912920Y-11612674D02*
X12922443Y-11574579D01*
X12922443Y-11574579D02*
X12931967Y-11555531D01*
X12931967Y-11555531D02*
X12941491Y-11546008D01*
X12941491Y-11546008D02*
X12960539Y-11536484D01*
X13112920Y-11736484D02*
X13112920Y-11603150D01*
X13112920Y-11622198D02*
X13122443Y-11612674D01*
X13122443Y-11612674D02*
X13141491Y-11603150D01*
X13141491Y-11603150D02*
X13170063Y-11603150D01*
X13170063Y-11603150D02*
X13189110Y-11612674D01*
X13189110Y-11612674D02*
X13198634Y-11631722D01*
X13198634Y-11631722D02*
X13198634Y-11736484D01*
X13198634Y-11631722D02*
X13208158Y-11612674D01*
X13208158Y-11612674D02*
X13227205Y-11603150D01*
X13227205Y-11603150D02*
X13255777Y-11603150D01*
X13255777Y-11603150D02*
X13274824Y-11612674D01*
X13274824Y-11612674D02*
X13284348Y-11631722D01*
X13284348Y-11631722D02*
X13284348Y-11736484D01*
X13379586Y-11736484D02*
X13379586Y-11603150D01*
X13379586Y-11622198D02*
X13389110Y-11612674D01*
X13389110Y-11612674D02*
X13408158Y-11603150D01*
X13408158Y-11603150D02*
X13436729Y-11603150D01*
X13436729Y-11603150D02*
X13455777Y-11612674D01*
X13455777Y-11612674D02*
X13465301Y-11631722D01*
X13465301Y-11631722D02*
X13465301Y-11736484D01*
X13465301Y-11631722D02*
X13474824Y-11612674D01*
X13474824Y-11612674D02*
X13493872Y-11603150D01*
X13493872Y-11603150D02*
X13522443Y-11603150D01*
X13522443Y-11603150D02*
X13541491Y-11612674D01*
X13541491Y-11612674D02*
X13551015Y-11631722D01*
X13551015Y-11631722D02*
X13551015Y-11736484D01*
X13941491Y-11526960D02*
X13770063Y-11784103D01*
X14198634Y-11536484D02*
X14217682Y-11536484D01*
X14217682Y-11536484D02*
X14236729Y-11546008D01*
X14236729Y-11546008D02*
X14246253Y-11555531D01*
X14246253Y-11555531D02*
X14255777Y-11574579D01*
X14255777Y-11574579D02*
X14265301Y-11612674D01*
X14265301Y-11612674D02*
X14265301Y-11660293D01*
X14265301Y-11660293D02*
X14255777Y-11698388D01*
X14255777Y-11698388D02*
X14246253Y-11717436D01*
X14246253Y-11717436D02*
X14236729Y-11726960D01*
X14236729Y-11726960D02*
X14217682Y-11736484D01*
X14217682Y-11736484D02*
X14198634Y-11736484D01*
X14198634Y-11736484D02*
X14179586Y-11726960D01*
X14179586Y-11726960D02*
X14170063Y-11717436D01*
X14170063Y-11717436D02*
X14160539Y-11698388D01*
X14160539Y-11698388D02*
X14151015Y-11660293D01*
X14151015Y-11660293D02*
X14151015Y-11612674D01*
X14151015Y-11612674D02*
X14160539Y-11574579D01*
X14160539Y-11574579D02*
X14170063Y-11555531D01*
X14170063Y-11555531D02*
X14179586Y-11546008D01*
X14179586Y-11546008D02*
X14198634Y-11536484D01*
X14351015Y-11717436D02*
X14360539Y-11726960D01*
X14360539Y-11726960D02*
X14351015Y-11736484D01*
X14351015Y-11736484D02*
X14341491Y-11726960D01*
X14341491Y-11726960D02*
X14351015Y-11717436D01*
X14351015Y-11717436D02*
X14351015Y-11736484D01*
X14484348Y-11536484D02*
X14503396Y-11536484D01*
X14503396Y-11536484D02*
X14522444Y-11546008D01*
X14522444Y-11546008D02*
X14531967Y-11555531D01*
X14531967Y-11555531D02*
X14541491Y-11574579D01*
X14541491Y-11574579D02*
X14551015Y-11612674D01*
X14551015Y-11612674D02*
X14551015Y-11660293D01*
X14551015Y-11660293D02*
X14541491Y-11698388D01*
X14541491Y-11698388D02*
X14531967Y-11717436D01*
X14531967Y-11717436D02*
X14522444Y-11726960D01*
X14522444Y-11726960D02*
X14503396Y-11736484D01*
X14503396Y-11736484D02*
X14484348Y-11736484D01*
X14484348Y-11736484D02*
X14465301Y-11726960D01*
X14465301Y-11726960D02*
X14455777Y-11717436D01*
X14455777Y-11717436D02*
X14446253Y-11698388D01*
X14446253Y-11698388D02*
X14436729Y-11660293D01*
X14436729Y-11660293D02*
X14436729Y-11612674D01*
X14436729Y-11612674D02*
X14446253Y-11574579D01*
X14446253Y-11574579D02*
X14455777Y-11555531D01*
X14455777Y-11555531D02*
X14465301Y-11546008D01*
X14465301Y-11546008D02*
X14484348Y-11536484D01*
X14741491Y-11736484D02*
X14627206Y-11736484D01*
X14684348Y-11736484D02*
X14684348Y-11536484D01*
X14684348Y-11536484D02*
X14665301Y-11565055D01*
X14665301Y-11565055D02*
X14646253Y-11584103D01*
X14646253Y-11584103D02*
X14627206Y-11593627D01*
X14931967Y-11736484D02*
X14817682Y-11736484D01*
X14874825Y-11736484D02*
X14874825Y-11536484D01*
X14874825Y-11536484D02*
X14855777Y-11565055D01*
X14855777Y-11565055D02*
X14836729Y-11584103D01*
X14836729Y-11584103D02*
X14817682Y-11593627D01*
X15046253Y-11622198D02*
X15027206Y-11612674D01*
X15027206Y-11612674D02*
X15017682Y-11603150D01*
X15017682Y-11603150D02*
X15008158Y-11584103D01*
X15008158Y-11584103D02*
X15008158Y-11574579D01*
X15008158Y-11574579D02*
X15017682Y-11555531D01*
X15017682Y-11555531D02*
X15027206Y-11546008D01*
X15027206Y-11546008D02*
X15046253Y-11536484D01*
X15046253Y-11536484D02*
X15084348Y-11536484D01*
X15084348Y-11536484D02*
X15103396Y-11546008D01*
X15103396Y-11546008D02*
X15112920Y-11555531D01*
X15112920Y-11555531D02*
X15122444Y-11574579D01*
X15122444Y-11574579D02*
X15122444Y-11584103D01*
X15122444Y-11584103D02*
X15112920Y-11603150D01*
X15112920Y-11603150D02*
X15103396Y-11612674D01*
X15103396Y-11612674D02*
X15084348Y-11622198D01*
X15084348Y-11622198D02*
X15046253Y-11622198D01*
X15046253Y-11622198D02*
X15027206Y-11631722D01*
X15027206Y-11631722D02*
X15017682Y-11641246D01*
X15017682Y-11641246D02*
X15008158Y-11660293D01*
X15008158Y-11660293D02*
X15008158Y-11698388D01*
X15008158Y-11698388D02*
X15017682Y-11717436D01*
X15017682Y-11717436D02*
X15027206Y-11726960D01*
X15027206Y-11726960D02*
X15046253Y-11736484D01*
X15046253Y-11736484D02*
X15084348Y-11736484D01*
X15084348Y-11736484D02*
X15103396Y-11726960D01*
X15103396Y-11726960D02*
X15112920Y-11717436D01*
X15112920Y-11717436D02*
X15122444Y-11698388D01*
X15122444Y-11698388D02*
X15122444Y-11660293D01*
X15122444Y-11660293D02*
X15112920Y-11641246D01*
X15112920Y-11641246D02*
X15103396Y-11631722D01*
X15103396Y-11631722D02*
X15084348Y-11622198D01*
X15198634Y-11536484D02*
X15198634Y-11574579D01*
X15274825Y-11536484D02*
X15274825Y-11574579D01*
X15570063Y-11812674D02*
X15560539Y-11803150D01*
X15560539Y-11803150D02*
X15541491Y-11774579D01*
X15541491Y-11774579D02*
X15531968Y-11755531D01*
X15531968Y-11755531D02*
X15522444Y-11726960D01*
X15522444Y-11726960D02*
X15512920Y-11679341D01*
X15512920Y-11679341D02*
X15512920Y-11641246D01*
X15512920Y-11641246D02*
X15522444Y-11593627D01*
X15522444Y-11593627D02*
X15531968Y-11565055D01*
X15531968Y-11565055D02*
X15541491Y-11546008D01*
X15541491Y-11546008D02*
X15560539Y-11517436D01*
X15560539Y-11517436D02*
X15570063Y-11507912D01*
X15636729Y-11555531D02*
X15646253Y-11546008D01*
X15646253Y-11546008D02*
X15665301Y-11536484D01*
X15665301Y-11536484D02*
X15712920Y-11536484D01*
X15712920Y-11536484D02*
X15731968Y-11546008D01*
X15731968Y-11546008D02*
X15741491Y-11555531D01*
X15741491Y-11555531D02*
X15751015Y-11574579D01*
X15751015Y-11574579D02*
X15751015Y-11593627D01*
X15751015Y-11593627D02*
X15741491Y-11622198D01*
X15741491Y-11622198D02*
X15627206Y-11736484D01*
X15627206Y-11736484D02*
X15751015Y-11736484D01*
X15865301Y-11622198D02*
X15846253Y-11612674D01*
X15846253Y-11612674D02*
X15836729Y-11603150D01*
X15836729Y-11603150D02*
X15827206Y-11584103D01*
X15827206Y-11584103D02*
X15827206Y-11574579D01*
X15827206Y-11574579D02*
X15836729Y-11555531D01*
X15836729Y-11555531D02*
X15846253Y-11546008D01*
X15846253Y-11546008D02*
X15865301Y-11536484D01*
X15865301Y-11536484D02*
X15903396Y-11536484D01*
X15903396Y-11536484D02*
X15922444Y-11546008D01*
X15922444Y-11546008D02*
X15931968Y-11555531D01*
X15931968Y-11555531D02*
X15941491Y-11574579D01*
X15941491Y-11574579D02*
X15941491Y-11584103D01*
X15941491Y-11584103D02*
X15931968Y-11603150D01*
X15931968Y-11603150D02*
X15922444Y-11612674D01*
X15922444Y-11612674D02*
X15903396Y-11622198D01*
X15903396Y-11622198D02*
X15865301Y-11622198D01*
X15865301Y-11622198D02*
X15846253Y-11631722D01*
X15846253Y-11631722D02*
X15836729Y-11641246D01*
X15836729Y-11641246D02*
X15827206Y-11660293D01*
X15827206Y-11660293D02*
X15827206Y-11698388D01*
X15827206Y-11698388D02*
X15836729Y-11717436D01*
X15836729Y-11717436D02*
X15846253Y-11726960D01*
X15846253Y-11726960D02*
X15865301Y-11736484D01*
X15865301Y-11736484D02*
X15903396Y-11736484D01*
X15903396Y-11736484D02*
X15922444Y-11726960D01*
X15922444Y-11726960D02*
X15931968Y-11717436D01*
X15931968Y-11717436D02*
X15941491Y-11698388D01*
X15941491Y-11698388D02*
X15941491Y-11660293D01*
X15941491Y-11660293D02*
X15931968Y-11641246D01*
X15931968Y-11641246D02*
X15922444Y-11631722D01*
X15922444Y-11631722D02*
X15903396Y-11622198D01*
X16008158Y-11536484D02*
X16131968Y-11536484D01*
X16131968Y-11536484D02*
X16065301Y-11612674D01*
X16065301Y-11612674D02*
X16093872Y-11612674D01*
X16093872Y-11612674D02*
X16112920Y-11622198D01*
X16112920Y-11622198D02*
X16122444Y-11631722D01*
X16122444Y-11631722D02*
X16131968Y-11650769D01*
X16131968Y-11650769D02*
X16131968Y-11698388D01*
X16131968Y-11698388D02*
X16122444Y-11717436D01*
X16122444Y-11717436D02*
X16112920Y-11726960D01*
X16112920Y-11726960D02*
X16093872Y-11736484D01*
X16093872Y-11736484D02*
X16036729Y-11736484D01*
X16036729Y-11736484D02*
X16017682Y-11726960D01*
X16017682Y-11726960D02*
X16008158Y-11717436D01*
X16370063Y-11736484D02*
X16370063Y-11536484D01*
X16455777Y-11736484D02*
X16455777Y-11631722D01*
X16455777Y-11631722D02*
X16446253Y-11612674D01*
X16446253Y-11612674D02*
X16427206Y-11603150D01*
X16427206Y-11603150D02*
X16398634Y-11603150D01*
X16398634Y-11603150D02*
X16379587Y-11612674D01*
X16379587Y-11612674D02*
X16370063Y-11622198D01*
X16579587Y-11736484D02*
X16560539Y-11726960D01*
X16560539Y-11726960D02*
X16551015Y-11717436D01*
X16551015Y-11717436D02*
X16541491Y-11698388D01*
X16541491Y-11698388D02*
X16541491Y-11641246D01*
X16541491Y-11641246D02*
X16551015Y-11622198D01*
X16551015Y-11622198D02*
X16560539Y-11612674D01*
X16560539Y-11612674D02*
X16579587Y-11603150D01*
X16579587Y-11603150D02*
X16608158Y-11603150D01*
X16608158Y-11603150D02*
X16627206Y-11612674D01*
X16627206Y-11612674D02*
X16636730Y-11622198D01*
X16636730Y-11622198D02*
X16646253Y-11641246D01*
X16646253Y-11641246D02*
X16646253Y-11698388D01*
X16646253Y-11698388D02*
X16636730Y-11717436D01*
X16636730Y-11717436D02*
X16627206Y-11726960D01*
X16627206Y-11726960D02*
X16608158Y-11736484D01*
X16608158Y-11736484D02*
X16579587Y-11736484D01*
X16760539Y-11736484D02*
X16741491Y-11726960D01*
X16741491Y-11726960D02*
X16731968Y-11707912D01*
X16731968Y-11707912D02*
X16731968Y-11536484D01*
X16912920Y-11726960D02*
X16893873Y-11736484D01*
X16893873Y-11736484D02*
X16855777Y-11736484D01*
X16855777Y-11736484D02*
X16836730Y-11726960D01*
X16836730Y-11726960D02*
X16827206Y-11707912D01*
X16827206Y-11707912D02*
X16827206Y-11631722D01*
X16827206Y-11631722D02*
X16836730Y-11612674D01*
X16836730Y-11612674D02*
X16855777Y-11603150D01*
X16855777Y-11603150D02*
X16893873Y-11603150D01*
X16893873Y-11603150D02*
X16912920Y-11612674D01*
X16912920Y-11612674D02*
X16922444Y-11631722D01*
X16922444Y-11631722D02*
X16922444Y-11650769D01*
X16922444Y-11650769D02*
X16827206Y-11669817D01*
X16998634Y-11726960D02*
X17017682Y-11736484D01*
X17017682Y-11736484D02*
X17055777Y-11736484D01*
X17055777Y-11736484D02*
X17074825Y-11726960D01*
X17074825Y-11726960D02*
X17084349Y-11707912D01*
X17084349Y-11707912D02*
X17084349Y-11698388D01*
X17084349Y-11698388D02*
X17074825Y-11679341D01*
X17074825Y-11679341D02*
X17055777Y-11669817D01*
X17055777Y-11669817D02*
X17027206Y-11669817D01*
X17027206Y-11669817D02*
X17008158Y-11660293D01*
X17008158Y-11660293D02*
X16998634Y-11641246D01*
X16998634Y-11641246D02*
X16998634Y-11631722D01*
X16998634Y-11631722D02*
X17008158Y-11612674D01*
X17008158Y-11612674D02*
X17027206Y-11603150D01*
X17027206Y-11603150D02*
X17055777Y-11603150D01*
X17055777Y-11603150D02*
X17074825Y-11612674D01*
X17151015Y-11812674D02*
X17160539Y-11803150D01*
X17160539Y-11803150D02*
X17179587Y-11774579D01*
X17179587Y-11774579D02*
X17189111Y-11755531D01*
X17189111Y-11755531D02*
X17198634Y-11726960D01*
X17198634Y-11726960D02*
X17208158Y-11679341D01*
X17208158Y-11679341D02*
X17208158Y-11641246D01*
X17208158Y-11641246D02*
X17198634Y-11593627D01*
X17198634Y-11593627D02*
X17189111Y-11565055D01*
X17189111Y-11565055D02*
X17179587Y-11546008D01*
X17179587Y-11546008D02*
X17160539Y-11517436D01*
X17160539Y-11517436D02*
X17151015Y-11507912D01*
D13*
X11995000Y-11909000D02*
G75*
G03*
X11995000Y-11909000I-20000J0D01*
G01*
D11*
X12293872Y-11800484D02*
X12312920Y-11800484D01*
X12312920Y-11800484D02*
X12331967Y-11810008D01*
X12331967Y-11810008D02*
X12341491Y-11819531D01*
X12341491Y-11819531D02*
X12351015Y-11838579D01*
X12351015Y-11838579D02*
X12360539Y-11876674D01*
X12360539Y-11876674D02*
X12360539Y-11924293D01*
X12360539Y-11924293D02*
X12351015Y-11962388D01*
X12351015Y-11962388D02*
X12341491Y-11981436D01*
X12341491Y-11981436D02*
X12331967Y-11990960D01*
X12331967Y-11990960D02*
X12312920Y-12000484D01*
X12312920Y-12000484D02*
X12293872Y-12000484D01*
X12293872Y-12000484D02*
X12274824Y-11990960D01*
X12274824Y-11990960D02*
X12265301Y-11981436D01*
X12265301Y-11981436D02*
X12255777Y-11962388D01*
X12255777Y-11962388D02*
X12246253Y-11924293D01*
X12246253Y-11924293D02*
X12246253Y-11876674D01*
X12246253Y-11876674D02*
X12255777Y-11838579D01*
X12255777Y-11838579D02*
X12265301Y-11819531D01*
X12265301Y-11819531D02*
X12274824Y-11810008D01*
X12274824Y-11810008D02*
X12293872Y-11800484D01*
X12446253Y-11981436D02*
X12455777Y-11990960D01*
X12455777Y-11990960D02*
X12446253Y-12000484D01*
X12446253Y-12000484D02*
X12436729Y-11990960D01*
X12436729Y-11990960D02*
X12446253Y-11981436D01*
X12446253Y-11981436D02*
X12446253Y-12000484D01*
X12627205Y-11867150D02*
X12627205Y-12000484D01*
X12579586Y-11790960D02*
X12531967Y-11933817D01*
X12531967Y-11933817D02*
X12655777Y-11933817D01*
X12770062Y-11800484D02*
X12789110Y-11800484D01*
X12789110Y-11800484D02*
X12808158Y-11810008D01*
X12808158Y-11810008D02*
X12817682Y-11819531D01*
X12817682Y-11819531D02*
X12827205Y-11838579D01*
X12827205Y-11838579D02*
X12836729Y-11876674D01*
X12836729Y-11876674D02*
X12836729Y-11924293D01*
X12836729Y-11924293D02*
X12827205Y-11962388D01*
X12827205Y-11962388D02*
X12817682Y-11981436D01*
X12817682Y-11981436D02*
X12808158Y-11990960D01*
X12808158Y-11990960D02*
X12789110Y-12000484D01*
X12789110Y-12000484D02*
X12770062Y-12000484D01*
X12770062Y-12000484D02*
X12751015Y-11990960D01*
X12751015Y-11990960D02*
X12741491Y-11981436D01*
X12741491Y-11981436D02*
X12731967Y-11962388D01*
X12731967Y-11962388D02*
X12722443Y-11924293D01*
X12722443Y-11924293D02*
X12722443Y-11876674D01*
X12722443Y-11876674D02*
X12731967Y-11838579D01*
X12731967Y-11838579D02*
X12741491Y-11819531D01*
X12741491Y-11819531D02*
X12751015Y-11810008D01*
X12751015Y-11810008D02*
X12770062Y-11800484D01*
X12960539Y-11800484D02*
X12979586Y-11800484D01*
X12979586Y-11800484D02*
X12998634Y-11810008D01*
X12998634Y-11810008D02*
X13008158Y-11819531D01*
X13008158Y-11819531D02*
X13017682Y-11838579D01*
X13017682Y-11838579D02*
X13027205Y-11876674D01*
X13027205Y-11876674D02*
X13027205Y-11924293D01*
X13027205Y-11924293D02*
X13017682Y-11962388D01*
X13017682Y-11962388D02*
X13008158Y-11981436D01*
X13008158Y-11981436D02*
X12998634Y-11990960D01*
X12998634Y-11990960D02*
X12979586Y-12000484D01*
X12979586Y-12000484D02*
X12960539Y-12000484D01*
X12960539Y-12000484D02*
X12941491Y-11990960D01*
X12941491Y-11990960D02*
X12931967Y-11981436D01*
X12931967Y-11981436D02*
X12922443Y-11962388D01*
X12922443Y-11962388D02*
X12912920Y-11924293D01*
X12912920Y-11924293D02*
X12912920Y-11876674D01*
X12912920Y-11876674D02*
X12922443Y-11838579D01*
X12922443Y-11838579D02*
X12931967Y-11819531D01*
X12931967Y-11819531D02*
X12941491Y-11810008D01*
X12941491Y-11810008D02*
X12960539Y-11800484D01*
X13112920Y-12000484D02*
X13112920Y-11867150D01*
X13112920Y-11886198D02*
X13122443Y-11876674D01*
X13122443Y-11876674D02*
X13141491Y-11867150D01*
X13141491Y-11867150D02*
X13170063Y-11867150D01*
X13170063Y-11867150D02*
X13189110Y-11876674D01*
X13189110Y-11876674D02*
X13198634Y-11895722D01*
X13198634Y-11895722D02*
X13198634Y-12000484D01*
X13198634Y-11895722D02*
X13208158Y-11876674D01*
X13208158Y-11876674D02*
X13227205Y-11867150D01*
X13227205Y-11867150D02*
X13255777Y-11867150D01*
X13255777Y-11867150D02*
X13274824Y-11876674D01*
X13274824Y-11876674D02*
X13284348Y-11895722D01*
X13284348Y-11895722D02*
X13284348Y-12000484D01*
X13379586Y-12000484D02*
X13379586Y-11867150D01*
X13379586Y-11886198D02*
X13389110Y-11876674D01*
X13389110Y-11876674D02*
X13408158Y-11867150D01*
X13408158Y-11867150D02*
X13436729Y-11867150D01*
X13436729Y-11867150D02*
X13455777Y-11876674D01*
X13455777Y-11876674D02*
X13465301Y-11895722D01*
X13465301Y-11895722D02*
X13465301Y-12000484D01*
X13465301Y-11895722D02*
X13474824Y-11876674D01*
X13474824Y-11876674D02*
X13493872Y-11867150D01*
X13493872Y-11867150D02*
X13522443Y-11867150D01*
X13522443Y-11867150D02*
X13541491Y-11876674D01*
X13541491Y-11876674D02*
X13551015Y-11895722D01*
X13551015Y-11895722D02*
X13551015Y-12000484D01*
X13941491Y-11790960D02*
X13770063Y-12048103D01*
X14198634Y-11800484D02*
X14217682Y-11800484D01*
X14217682Y-11800484D02*
X14236729Y-11810008D01*
X14236729Y-11810008D02*
X14246253Y-11819531D01*
X14246253Y-11819531D02*
X14255777Y-11838579D01*
X14255777Y-11838579D02*
X14265301Y-11876674D01*
X14265301Y-11876674D02*
X14265301Y-11924293D01*
X14265301Y-11924293D02*
X14255777Y-11962388D01*
X14255777Y-11962388D02*
X14246253Y-11981436D01*
X14246253Y-11981436D02*
X14236729Y-11990960D01*
X14236729Y-11990960D02*
X14217682Y-12000484D01*
X14217682Y-12000484D02*
X14198634Y-12000484D01*
X14198634Y-12000484D02*
X14179586Y-11990960D01*
X14179586Y-11990960D02*
X14170063Y-11981436D01*
X14170063Y-11981436D02*
X14160539Y-11962388D01*
X14160539Y-11962388D02*
X14151015Y-11924293D01*
X14151015Y-11924293D02*
X14151015Y-11876674D01*
X14151015Y-11876674D02*
X14160539Y-11838579D01*
X14160539Y-11838579D02*
X14170063Y-11819531D01*
X14170063Y-11819531D02*
X14179586Y-11810008D01*
X14179586Y-11810008D02*
X14198634Y-11800484D01*
X14351015Y-11981436D02*
X14360539Y-11990960D01*
X14360539Y-11990960D02*
X14351015Y-12000484D01*
X14351015Y-12000484D02*
X14341491Y-11990960D01*
X14341491Y-11990960D02*
X14351015Y-11981436D01*
X14351015Y-11981436D02*
X14351015Y-12000484D01*
X14484348Y-11800484D02*
X14503396Y-11800484D01*
X14503396Y-11800484D02*
X14522444Y-11810008D01*
X14522444Y-11810008D02*
X14531967Y-11819531D01*
X14531967Y-11819531D02*
X14541491Y-11838579D01*
X14541491Y-11838579D02*
X14551015Y-11876674D01*
X14551015Y-11876674D02*
X14551015Y-11924293D01*
X14551015Y-11924293D02*
X14541491Y-11962388D01*
X14541491Y-11962388D02*
X14531967Y-11981436D01*
X14531967Y-11981436D02*
X14522444Y-11990960D01*
X14522444Y-11990960D02*
X14503396Y-12000484D01*
X14503396Y-12000484D02*
X14484348Y-12000484D01*
X14484348Y-12000484D02*
X14465301Y-11990960D01*
X14465301Y-11990960D02*
X14455777Y-11981436D01*
X14455777Y-11981436D02*
X14446253Y-11962388D01*
X14446253Y-11962388D02*
X14436729Y-11924293D01*
X14436729Y-11924293D02*
X14436729Y-11876674D01*
X14436729Y-11876674D02*
X14446253Y-11838579D01*
X14446253Y-11838579D02*
X14455777Y-11819531D01*
X14455777Y-11819531D02*
X14465301Y-11810008D01*
X14465301Y-11810008D02*
X14484348Y-11800484D01*
X14741491Y-12000484D02*
X14627206Y-12000484D01*
X14684348Y-12000484D02*
X14684348Y-11800484D01*
X14684348Y-11800484D02*
X14665301Y-11829055D01*
X14665301Y-11829055D02*
X14646253Y-11848103D01*
X14646253Y-11848103D02*
X14627206Y-11857627D01*
X14922444Y-11800484D02*
X14827206Y-11800484D01*
X14827206Y-11800484D02*
X14817682Y-11895722D01*
X14817682Y-11895722D02*
X14827206Y-11886198D01*
X14827206Y-11886198D02*
X14846253Y-11876674D01*
X14846253Y-11876674D02*
X14893872Y-11876674D01*
X14893872Y-11876674D02*
X14912920Y-11886198D01*
X14912920Y-11886198D02*
X14922444Y-11895722D01*
X14922444Y-11895722D02*
X14931967Y-11914769D01*
X14931967Y-11914769D02*
X14931967Y-11962388D01*
X14931967Y-11962388D02*
X14922444Y-11981436D01*
X14922444Y-11981436D02*
X14912920Y-11990960D01*
X14912920Y-11990960D02*
X14893872Y-12000484D01*
X14893872Y-12000484D02*
X14846253Y-12000484D01*
X14846253Y-12000484D02*
X14827206Y-11990960D01*
X14827206Y-11990960D02*
X14817682Y-11981436D01*
X14998634Y-11800484D02*
X15131967Y-11800484D01*
X15131967Y-11800484D02*
X15046253Y-12000484D01*
X15198634Y-11800484D02*
X15198634Y-11838579D01*
X15274825Y-11800484D02*
X15274825Y-11838579D01*
X15570063Y-12076674D02*
X15560539Y-12067150D01*
X15560539Y-12067150D02*
X15541491Y-12038579D01*
X15541491Y-12038579D02*
X15531968Y-12019531D01*
X15531968Y-12019531D02*
X15522444Y-11990960D01*
X15522444Y-11990960D02*
X15512920Y-11943341D01*
X15512920Y-11943341D02*
X15512920Y-11905246D01*
X15512920Y-11905246D02*
X15522444Y-11857627D01*
X15522444Y-11857627D02*
X15531968Y-11829055D01*
X15531968Y-11829055D02*
X15541491Y-11810008D01*
X15541491Y-11810008D02*
X15560539Y-11781436D01*
X15560539Y-11781436D02*
X15570063Y-11771912D01*
X15751015Y-12000484D02*
X15636729Y-12000484D01*
X15693872Y-12000484D02*
X15693872Y-11800484D01*
X15693872Y-11800484D02*
X15674825Y-11829055D01*
X15674825Y-11829055D02*
X15655777Y-11848103D01*
X15655777Y-11848103D02*
X15636729Y-11857627D01*
X15989110Y-12000484D02*
X15989110Y-11800484D01*
X16074825Y-12000484D02*
X16074825Y-11895722D01*
X16074825Y-11895722D02*
X16065301Y-11876674D01*
X16065301Y-11876674D02*
X16046253Y-11867150D01*
X16046253Y-11867150D02*
X16017682Y-11867150D01*
X16017682Y-11867150D02*
X15998634Y-11876674D01*
X15998634Y-11876674D02*
X15989110Y-11886198D01*
X16198634Y-12000484D02*
X16179587Y-11990960D01*
X16179587Y-11990960D02*
X16170063Y-11981436D01*
X16170063Y-11981436D02*
X16160539Y-11962388D01*
X16160539Y-11962388D02*
X16160539Y-11905246D01*
X16160539Y-11905246D02*
X16170063Y-11886198D01*
X16170063Y-11886198D02*
X16179587Y-11876674D01*
X16179587Y-11876674D02*
X16198634Y-11867150D01*
X16198634Y-11867150D02*
X16227206Y-11867150D01*
X16227206Y-11867150D02*
X16246253Y-11876674D01*
X16246253Y-11876674D02*
X16255777Y-11886198D01*
X16255777Y-11886198D02*
X16265301Y-11905246D01*
X16265301Y-11905246D02*
X16265301Y-11962388D01*
X16265301Y-11962388D02*
X16255777Y-11981436D01*
X16255777Y-11981436D02*
X16246253Y-11990960D01*
X16246253Y-11990960D02*
X16227206Y-12000484D01*
X16227206Y-12000484D02*
X16198634Y-12000484D01*
X16379587Y-12000484D02*
X16360539Y-11990960D01*
X16360539Y-11990960D02*
X16351015Y-11971912D01*
X16351015Y-11971912D02*
X16351015Y-11800484D01*
X16531968Y-11990960D02*
X16512920Y-12000484D01*
X16512920Y-12000484D02*
X16474825Y-12000484D01*
X16474825Y-12000484D02*
X16455777Y-11990960D01*
X16455777Y-11990960D02*
X16446253Y-11971912D01*
X16446253Y-11971912D02*
X16446253Y-11895722D01*
X16446253Y-11895722D02*
X16455777Y-11876674D01*
X16455777Y-11876674D02*
X16474825Y-11867150D01*
X16474825Y-11867150D02*
X16512920Y-11867150D01*
X16512920Y-11867150D02*
X16531968Y-11876674D01*
X16531968Y-11876674D02*
X16541491Y-11895722D01*
X16541491Y-11895722D02*
X16541491Y-11914769D01*
X16541491Y-11914769D02*
X16446253Y-11933817D01*
X16608158Y-12076674D02*
X16617682Y-12067150D01*
X16617682Y-12067150D02*
X16636730Y-12038579D01*
X16636730Y-12038579D02*
X16646253Y-12019531D01*
X16646253Y-12019531D02*
X16655777Y-11990960D01*
X16655777Y-11990960D02*
X16665301Y-11943341D01*
X16665301Y-11943341D02*
X16665301Y-11905246D01*
X16665301Y-11905246D02*
X16655777Y-11857627D01*
X16655777Y-11857627D02*
X16646253Y-11829055D01*
X16646253Y-11829055D02*
X16636730Y-11810008D01*
X16636730Y-11810008D02*
X16617682Y-11781436D01*
X16617682Y-11781436D02*
X16608158Y-11771912D01*
D14*
X11970000Y-12148000D02*
X11970000Y-12198000D01*
X11945000Y-12173000D02*
X11995000Y-12173000D01*
D11*
X12293872Y-12064484D02*
X12312920Y-12064484D01*
X12312920Y-12064484D02*
X12331967Y-12074008D01*
X12331967Y-12074008D02*
X12341491Y-12083531D01*
X12341491Y-12083531D02*
X12351015Y-12102579D01*
X12351015Y-12102579D02*
X12360539Y-12140674D01*
X12360539Y-12140674D02*
X12360539Y-12188293D01*
X12360539Y-12188293D02*
X12351015Y-12226388D01*
X12351015Y-12226388D02*
X12341491Y-12245436D01*
X12341491Y-12245436D02*
X12331967Y-12254960D01*
X12331967Y-12254960D02*
X12312920Y-12264484D01*
X12312920Y-12264484D02*
X12293872Y-12264484D01*
X12293872Y-12264484D02*
X12274824Y-12254960D01*
X12274824Y-12254960D02*
X12265301Y-12245436D01*
X12265301Y-12245436D02*
X12255777Y-12226388D01*
X12255777Y-12226388D02*
X12246253Y-12188293D01*
X12246253Y-12188293D02*
X12246253Y-12140674D01*
X12246253Y-12140674D02*
X12255777Y-12102579D01*
X12255777Y-12102579D02*
X12265301Y-12083531D01*
X12265301Y-12083531D02*
X12274824Y-12074008D01*
X12274824Y-12074008D02*
X12293872Y-12064484D01*
X12446253Y-12245436D02*
X12455777Y-12254960D01*
X12455777Y-12254960D02*
X12446253Y-12264484D01*
X12446253Y-12264484D02*
X12436729Y-12254960D01*
X12436729Y-12254960D02*
X12446253Y-12245436D01*
X12446253Y-12245436D02*
X12446253Y-12264484D01*
X12636729Y-12064484D02*
X12541491Y-12064484D01*
X12541491Y-12064484D02*
X12531967Y-12159722D01*
X12531967Y-12159722D02*
X12541491Y-12150198D01*
X12541491Y-12150198D02*
X12560539Y-12140674D01*
X12560539Y-12140674D02*
X12608158Y-12140674D01*
X12608158Y-12140674D02*
X12627205Y-12150198D01*
X12627205Y-12150198D02*
X12636729Y-12159722D01*
X12636729Y-12159722D02*
X12646253Y-12178769D01*
X12646253Y-12178769D02*
X12646253Y-12226388D01*
X12646253Y-12226388D02*
X12636729Y-12245436D01*
X12636729Y-12245436D02*
X12627205Y-12254960D01*
X12627205Y-12254960D02*
X12608158Y-12264484D01*
X12608158Y-12264484D02*
X12560539Y-12264484D01*
X12560539Y-12264484D02*
X12541491Y-12254960D01*
X12541491Y-12254960D02*
X12531967Y-12245436D01*
X12770062Y-12064484D02*
X12789110Y-12064484D01*
X12789110Y-12064484D02*
X12808158Y-12074008D01*
X12808158Y-12074008D02*
X12817682Y-12083531D01*
X12817682Y-12083531D02*
X12827205Y-12102579D01*
X12827205Y-12102579D02*
X12836729Y-12140674D01*
X12836729Y-12140674D02*
X12836729Y-12188293D01*
X12836729Y-12188293D02*
X12827205Y-12226388D01*
X12827205Y-12226388D02*
X12817682Y-12245436D01*
X12817682Y-12245436D02*
X12808158Y-12254960D01*
X12808158Y-12254960D02*
X12789110Y-12264484D01*
X12789110Y-12264484D02*
X12770062Y-12264484D01*
X12770062Y-12264484D02*
X12751015Y-12254960D01*
X12751015Y-12254960D02*
X12741491Y-12245436D01*
X12741491Y-12245436D02*
X12731967Y-12226388D01*
X12731967Y-12226388D02*
X12722443Y-12188293D01*
X12722443Y-12188293D02*
X12722443Y-12140674D01*
X12722443Y-12140674D02*
X12731967Y-12102579D01*
X12731967Y-12102579D02*
X12741491Y-12083531D01*
X12741491Y-12083531D02*
X12751015Y-12074008D01*
X12751015Y-12074008D02*
X12770062Y-12064484D01*
X12960539Y-12064484D02*
X12979586Y-12064484D01*
X12979586Y-12064484D02*
X12998634Y-12074008D01*
X12998634Y-12074008D02*
X13008158Y-12083531D01*
X13008158Y-12083531D02*
X13017682Y-12102579D01*
X13017682Y-12102579D02*
X13027205Y-12140674D01*
X13027205Y-12140674D02*
X13027205Y-12188293D01*
X13027205Y-12188293D02*
X13017682Y-12226388D01*
X13017682Y-12226388D02*
X13008158Y-12245436D01*
X13008158Y-12245436D02*
X12998634Y-12254960D01*
X12998634Y-12254960D02*
X12979586Y-12264484D01*
X12979586Y-12264484D02*
X12960539Y-12264484D01*
X12960539Y-12264484D02*
X12941491Y-12254960D01*
X12941491Y-12254960D02*
X12931967Y-12245436D01*
X12931967Y-12245436D02*
X12922443Y-12226388D01*
X12922443Y-12226388D02*
X12912920Y-12188293D01*
X12912920Y-12188293D02*
X12912920Y-12140674D01*
X12912920Y-12140674D02*
X12922443Y-12102579D01*
X12922443Y-12102579D02*
X12931967Y-12083531D01*
X12931967Y-12083531D02*
X12941491Y-12074008D01*
X12941491Y-12074008D02*
X12960539Y-12064484D01*
X13112920Y-12264484D02*
X13112920Y-12131150D01*
X13112920Y-12150198D02*
X13122443Y-12140674D01*
X13122443Y-12140674D02*
X13141491Y-12131150D01*
X13141491Y-12131150D02*
X13170063Y-12131150D01*
X13170063Y-12131150D02*
X13189110Y-12140674D01*
X13189110Y-12140674D02*
X13198634Y-12159722D01*
X13198634Y-12159722D02*
X13198634Y-12264484D01*
X13198634Y-12159722D02*
X13208158Y-12140674D01*
X13208158Y-12140674D02*
X13227205Y-12131150D01*
X13227205Y-12131150D02*
X13255777Y-12131150D01*
X13255777Y-12131150D02*
X13274824Y-12140674D01*
X13274824Y-12140674D02*
X13284348Y-12159722D01*
X13284348Y-12159722D02*
X13284348Y-12264484D01*
X13379586Y-12264484D02*
X13379586Y-12131150D01*
X13379586Y-12150198D02*
X13389110Y-12140674D01*
X13389110Y-12140674D02*
X13408158Y-12131150D01*
X13408158Y-12131150D02*
X13436729Y-12131150D01*
X13436729Y-12131150D02*
X13455777Y-12140674D01*
X13455777Y-12140674D02*
X13465301Y-12159722D01*
X13465301Y-12159722D02*
X13465301Y-12264484D01*
X13465301Y-12159722D02*
X13474824Y-12140674D01*
X13474824Y-12140674D02*
X13493872Y-12131150D01*
X13493872Y-12131150D02*
X13522443Y-12131150D01*
X13522443Y-12131150D02*
X13541491Y-12140674D01*
X13541491Y-12140674D02*
X13551015Y-12159722D01*
X13551015Y-12159722D02*
X13551015Y-12264484D01*
X13941491Y-12054960D02*
X13770063Y-12312103D01*
X14198634Y-12064484D02*
X14217682Y-12064484D01*
X14217682Y-12064484D02*
X14236729Y-12074008D01*
X14236729Y-12074008D02*
X14246253Y-12083531D01*
X14246253Y-12083531D02*
X14255777Y-12102579D01*
X14255777Y-12102579D02*
X14265301Y-12140674D01*
X14265301Y-12140674D02*
X14265301Y-12188293D01*
X14265301Y-12188293D02*
X14255777Y-12226388D01*
X14255777Y-12226388D02*
X14246253Y-12245436D01*
X14246253Y-12245436D02*
X14236729Y-12254960D01*
X14236729Y-12254960D02*
X14217682Y-12264484D01*
X14217682Y-12264484D02*
X14198634Y-12264484D01*
X14198634Y-12264484D02*
X14179586Y-12254960D01*
X14179586Y-12254960D02*
X14170063Y-12245436D01*
X14170063Y-12245436D02*
X14160539Y-12226388D01*
X14160539Y-12226388D02*
X14151015Y-12188293D01*
X14151015Y-12188293D02*
X14151015Y-12140674D01*
X14151015Y-12140674D02*
X14160539Y-12102579D01*
X14160539Y-12102579D02*
X14170063Y-12083531D01*
X14170063Y-12083531D02*
X14179586Y-12074008D01*
X14179586Y-12074008D02*
X14198634Y-12064484D01*
X14351015Y-12245436D02*
X14360539Y-12254960D01*
X14360539Y-12254960D02*
X14351015Y-12264484D01*
X14351015Y-12264484D02*
X14341491Y-12254960D01*
X14341491Y-12254960D02*
X14351015Y-12245436D01*
X14351015Y-12245436D02*
X14351015Y-12264484D01*
X14484348Y-12064484D02*
X14503396Y-12064484D01*
X14503396Y-12064484D02*
X14522444Y-12074008D01*
X14522444Y-12074008D02*
X14531967Y-12083531D01*
X14531967Y-12083531D02*
X14541491Y-12102579D01*
X14541491Y-12102579D02*
X14551015Y-12140674D01*
X14551015Y-12140674D02*
X14551015Y-12188293D01*
X14551015Y-12188293D02*
X14541491Y-12226388D01*
X14541491Y-12226388D02*
X14531967Y-12245436D01*
X14531967Y-12245436D02*
X14522444Y-12254960D01*
X14522444Y-12254960D02*
X14503396Y-12264484D01*
X14503396Y-12264484D02*
X14484348Y-12264484D01*
X14484348Y-12264484D02*
X14465301Y-12254960D01*
X14465301Y-12254960D02*
X14455777Y-12245436D01*
X14455777Y-12245436D02*
X14446253Y-12226388D01*
X14446253Y-12226388D02*
X14436729Y-12188293D01*
X14436729Y-12188293D02*
X14436729Y-12140674D01*
X14436729Y-12140674D02*
X14446253Y-12102579D01*
X14446253Y-12102579D02*
X14455777Y-12083531D01*
X14455777Y-12083531D02*
X14465301Y-12074008D01*
X14465301Y-12074008D02*
X14484348Y-12064484D01*
X14741491Y-12264484D02*
X14627206Y-12264484D01*
X14684348Y-12264484D02*
X14684348Y-12064484D01*
X14684348Y-12064484D02*
X14665301Y-12093055D01*
X14665301Y-12093055D02*
X14646253Y-12112103D01*
X14646253Y-12112103D02*
X14627206Y-12121627D01*
X14836729Y-12264484D02*
X14874825Y-12264484D01*
X14874825Y-12264484D02*
X14893872Y-12254960D01*
X14893872Y-12254960D02*
X14903396Y-12245436D01*
X14903396Y-12245436D02*
X14922444Y-12216865D01*
X14922444Y-12216865D02*
X14931967Y-12178769D01*
X14931967Y-12178769D02*
X14931967Y-12102579D01*
X14931967Y-12102579D02*
X14922444Y-12083531D01*
X14922444Y-12083531D02*
X14912920Y-12074008D01*
X14912920Y-12074008D02*
X14893872Y-12064484D01*
X14893872Y-12064484D02*
X14855777Y-12064484D01*
X14855777Y-12064484D02*
X14836729Y-12074008D01*
X14836729Y-12074008D02*
X14827206Y-12083531D01*
X14827206Y-12083531D02*
X14817682Y-12102579D01*
X14817682Y-12102579D02*
X14817682Y-12150198D01*
X14817682Y-12150198D02*
X14827206Y-12169246D01*
X14827206Y-12169246D02*
X14836729Y-12178769D01*
X14836729Y-12178769D02*
X14855777Y-12188293D01*
X14855777Y-12188293D02*
X14893872Y-12188293D01*
X14893872Y-12188293D02*
X14912920Y-12178769D01*
X14912920Y-12178769D02*
X14922444Y-12169246D01*
X14922444Y-12169246D02*
X14931967Y-12150198D01*
X14998634Y-12064484D02*
X15131967Y-12064484D01*
X15131967Y-12064484D02*
X15046253Y-12264484D01*
X15198634Y-12064484D02*
X15198634Y-12102579D01*
X15274825Y-12064484D02*
X15274825Y-12102579D01*
X15570063Y-12340674D02*
X15560539Y-12331150D01*
X15560539Y-12331150D02*
X15541491Y-12302579D01*
X15541491Y-12302579D02*
X15531968Y-12283531D01*
X15531968Y-12283531D02*
X15522444Y-12254960D01*
X15522444Y-12254960D02*
X15512920Y-12207341D01*
X15512920Y-12207341D02*
X15512920Y-12169246D01*
X15512920Y-12169246D02*
X15522444Y-12121627D01*
X15522444Y-12121627D02*
X15531968Y-12093055D01*
X15531968Y-12093055D02*
X15541491Y-12074008D01*
X15541491Y-12074008D02*
X15560539Y-12045436D01*
X15560539Y-12045436D02*
X15570063Y-12035912D01*
X15627206Y-12064484D02*
X15751015Y-12064484D01*
X15751015Y-12064484D02*
X15684348Y-12140674D01*
X15684348Y-12140674D02*
X15712920Y-12140674D01*
X15712920Y-12140674D02*
X15731968Y-12150198D01*
X15731968Y-12150198D02*
X15741491Y-12159722D01*
X15741491Y-12159722D02*
X15751015Y-12178769D01*
X15751015Y-12178769D02*
X15751015Y-12226388D01*
X15751015Y-12226388D02*
X15741491Y-12245436D01*
X15741491Y-12245436D02*
X15731968Y-12254960D01*
X15731968Y-12254960D02*
X15712920Y-12264484D01*
X15712920Y-12264484D02*
X15655777Y-12264484D01*
X15655777Y-12264484D02*
X15636729Y-12254960D01*
X15636729Y-12254960D02*
X15627206Y-12245436D01*
X15827206Y-12083531D02*
X15836729Y-12074008D01*
X15836729Y-12074008D02*
X15855777Y-12064484D01*
X15855777Y-12064484D02*
X15903396Y-12064484D01*
X15903396Y-12064484D02*
X15922444Y-12074008D01*
X15922444Y-12074008D02*
X15931968Y-12083531D01*
X15931968Y-12083531D02*
X15941491Y-12102579D01*
X15941491Y-12102579D02*
X15941491Y-12121627D01*
X15941491Y-12121627D02*
X15931968Y-12150198D01*
X15931968Y-12150198D02*
X15817682Y-12264484D01*
X15817682Y-12264484D02*
X15941491Y-12264484D01*
X16179587Y-12264484D02*
X16179587Y-12064484D01*
X16265301Y-12264484D02*
X16265301Y-12159722D01*
X16265301Y-12159722D02*
X16255777Y-12140674D01*
X16255777Y-12140674D02*
X16236730Y-12131150D01*
X16236730Y-12131150D02*
X16208158Y-12131150D01*
X16208158Y-12131150D02*
X16189110Y-12140674D01*
X16189110Y-12140674D02*
X16179587Y-12150198D01*
X16389110Y-12264484D02*
X16370063Y-12254960D01*
X16370063Y-12254960D02*
X16360539Y-12245436D01*
X16360539Y-12245436D02*
X16351015Y-12226388D01*
X16351015Y-12226388D02*
X16351015Y-12169246D01*
X16351015Y-12169246D02*
X16360539Y-12150198D01*
X16360539Y-12150198D02*
X16370063Y-12140674D01*
X16370063Y-12140674D02*
X16389110Y-12131150D01*
X16389110Y-12131150D02*
X16417682Y-12131150D01*
X16417682Y-12131150D02*
X16436730Y-12140674D01*
X16436730Y-12140674D02*
X16446253Y-12150198D01*
X16446253Y-12150198D02*
X16455777Y-12169246D01*
X16455777Y-12169246D02*
X16455777Y-12226388D01*
X16455777Y-12226388D02*
X16446253Y-12245436D01*
X16446253Y-12245436D02*
X16436730Y-12254960D01*
X16436730Y-12254960D02*
X16417682Y-12264484D01*
X16417682Y-12264484D02*
X16389110Y-12264484D01*
X16570063Y-12264484D02*
X16551015Y-12254960D01*
X16551015Y-12254960D02*
X16541491Y-12235912D01*
X16541491Y-12235912D02*
X16541491Y-12064484D01*
X16722444Y-12254960D02*
X16703396Y-12264484D01*
X16703396Y-12264484D02*
X16665301Y-12264484D01*
X16665301Y-12264484D02*
X16646253Y-12254960D01*
X16646253Y-12254960D02*
X16636730Y-12235912D01*
X16636730Y-12235912D02*
X16636730Y-12159722D01*
X16636730Y-12159722D02*
X16646253Y-12140674D01*
X16646253Y-12140674D02*
X16665301Y-12131150D01*
X16665301Y-12131150D02*
X16703396Y-12131150D01*
X16703396Y-12131150D02*
X16722444Y-12140674D01*
X16722444Y-12140674D02*
X16731968Y-12159722D01*
X16731968Y-12159722D02*
X16731968Y-12178769D01*
X16731968Y-12178769D02*
X16636730Y-12197817D01*
X16808158Y-12254960D02*
X16827206Y-12264484D01*
X16827206Y-12264484D02*
X16865301Y-12264484D01*
X16865301Y-12264484D02*
X16884349Y-12254960D01*
X16884349Y-12254960D02*
X16893873Y-12235912D01*
X16893873Y-12235912D02*
X16893873Y-12226388D01*
X16893873Y-12226388D02*
X16884349Y-12207341D01*
X16884349Y-12207341D02*
X16865301Y-12197817D01*
X16865301Y-12197817D02*
X16836730Y-12197817D01*
X16836730Y-12197817D02*
X16817682Y-12188293D01*
X16817682Y-12188293D02*
X16808158Y-12169246D01*
X16808158Y-12169246D02*
X16808158Y-12159722D01*
X16808158Y-12159722D02*
X16817682Y-12140674D01*
X16817682Y-12140674D02*
X16836730Y-12131150D01*
X16836730Y-12131150D02*
X16865301Y-12131150D01*
X16865301Y-12131150D02*
X16884349Y-12140674D01*
X16960539Y-12340674D02*
X16970063Y-12331150D01*
X16970063Y-12331150D02*
X16989111Y-12302579D01*
X16989111Y-12302579D02*
X16998634Y-12283531D01*
X16998634Y-12283531D02*
X17008158Y-12254960D01*
X17008158Y-12254960D02*
X17017682Y-12207341D01*
X17017682Y-12207341D02*
X17017682Y-12169246D01*
X17017682Y-12169246D02*
X17008158Y-12121627D01*
X17008158Y-12121627D02*
X16998634Y-12093055D01*
X16998634Y-12093055D02*
X16989111Y-12074008D01*
X16989111Y-12074008D02*
X16970063Y-12045436D01*
X16970063Y-12045436D02*
X16960539Y-12035912D01*
D15*
X11973033Y-12490033D02*
X11973033Y-12383966D01*
X11866966Y-12383966D01*
X11866966Y-12490033D01*
X11973033Y-12490033D01*
D11*
X12360539Y-12528484D02*
X12246253Y-12528484D01*
X12303396Y-12528484D02*
X12303396Y-12328484D01*
X12303396Y-12328484D02*
X12284348Y-12357055D01*
X12284348Y-12357055D02*
X12265301Y-12376103D01*
X12265301Y-12376103D02*
X12246253Y-12385627D01*
X12446253Y-12509436D02*
X12455777Y-12518960D01*
X12455777Y-12518960D02*
X12446253Y-12528484D01*
X12446253Y-12528484D02*
X12436729Y-12518960D01*
X12436729Y-12518960D02*
X12446253Y-12509436D01*
X12446253Y-12509436D02*
X12446253Y-12528484D01*
X12636729Y-12328484D02*
X12541491Y-12328484D01*
X12541491Y-12328484D02*
X12531967Y-12423722D01*
X12531967Y-12423722D02*
X12541491Y-12414198D01*
X12541491Y-12414198D02*
X12560539Y-12404674D01*
X12560539Y-12404674D02*
X12608158Y-12404674D01*
X12608158Y-12404674D02*
X12627205Y-12414198D01*
X12627205Y-12414198D02*
X12636729Y-12423722D01*
X12636729Y-12423722D02*
X12646253Y-12442769D01*
X12646253Y-12442769D02*
X12646253Y-12490388D01*
X12646253Y-12490388D02*
X12636729Y-12509436D01*
X12636729Y-12509436D02*
X12627205Y-12518960D01*
X12627205Y-12518960D02*
X12608158Y-12528484D01*
X12608158Y-12528484D02*
X12560539Y-12528484D01*
X12560539Y-12528484D02*
X12541491Y-12518960D01*
X12541491Y-12518960D02*
X12531967Y-12509436D01*
X12770062Y-12328484D02*
X12789110Y-12328484D01*
X12789110Y-12328484D02*
X12808158Y-12338008D01*
X12808158Y-12338008D02*
X12817682Y-12347531D01*
X12817682Y-12347531D02*
X12827205Y-12366579D01*
X12827205Y-12366579D02*
X12836729Y-12404674D01*
X12836729Y-12404674D02*
X12836729Y-12452293D01*
X12836729Y-12452293D02*
X12827205Y-12490388D01*
X12827205Y-12490388D02*
X12817682Y-12509436D01*
X12817682Y-12509436D02*
X12808158Y-12518960D01*
X12808158Y-12518960D02*
X12789110Y-12528484D01*
X12789110Y-12528484D02*
X12770062Y-12528484D01*
X12770062Y-12528484D02*
X12751015Y-12518960D01*
X12751015Y-12518960D02*
X12741491Y-12509436D01*
X12741491Y-12509436D02*
X12731967Y-12490388D01*
X12731967Y-12490388D02*
X12722443Y-12452293D01*
X12722443Y-12452293D02*
X12722443Y-12404674D01*
X12722443Y-12404674D02*
X12731967Y-12366579D01*
X12731967Y-12366579D02*
X12741491Y-12347531D01*
X12741491Y-12347531D02*
X12751015Y-12338008D01*
X12751015Y-12338008D02*
X12770062Y-12328484D01*
X12960539Y-12328484D02*
X12979586Y-12328484D01*
X12979586Y-12328484D02*
X12998634Y-12338008D01*
X12998634Y-12338008D02*
X13008158Y-12347531D01*
X13008158Y-12347531D02*
X13017682Y-12366579D01*
X13017682Y-12366579D02*
X13027205Y-12404674D01*
X13027205Y-12404674D02*
X13027205Y-12452293D01*
X13027205Y-12452293D02*
X13017682Y-12490388D01*
X13017682Y-12490388D02*
X13008158Y-12509436D01*
X13008158Y-12509436D02*
X12998634Y-12518960D01*
X12998634Y-12518960D02*
X12979586Y-12528484D01*
X12979586Y-12528484D02*
X12960539Y-12528484D01*
X12960539Y-12528484D02*
X12941491Y-12518960D01*
X12941491Y-12518960D02*
X12931967Y-12509436D01*
X12931967Y-12509436D02*
X12922443Y-12490388D01*
X12922443Y-12490388D02*
X12912920Y-12452293D01*
X12912920Y-12452293D02*
X12912920Y-12404674D01*
X12912920Y-12404674D02*
X12922443Y-12366579D01*
X12922443Y-12366579D02*
X12931967Y-12347531D01*
X12931967Y-12347531D02*
X12941491Y-12338008D01*
X12941491Y-12338008D02*
X12960539Y-12328484D01*
X13112920Y-12528484D02*
X13112920Y-12395150D01*
X13112920Y-12414198D02*
X13122443Y-12404674D01*
X13122443Y-12404674D02*
X13141491Y-12395150D01*
X13141491Y-12395150D02*
X13170063Y-12395150D01*
X13170063Y-12395150D02*
X13189110Y-12404674D01*
X13189110Y-12404674D02*
X13198634Y-12423722D01*
X13198634Y-12423722D02*
X13198634Y-12528484D01*
X13198634Y-12423722D02*
X13208158Y-12404674D01*
X13208158Y-12404674D02*
X13227205Y-12395150D01*
X13227205Y-12395150D02*
X13255777Y-12395150D01*
X13255777Y-12395150D02*
X13274824Y-12404674D01*
X13274824Y-12404674D02*
X13284348Y-12423722D01*
X13284348Y-12423722D02*
X13284348Y-12528484D01*
X13379586Y-12528484D02*
X13379586Y-12395150D01*
X13379586Y-12414198D02*
X13389110Y-12404674D01*
X13389110Y-12404674D02*
X13408158Y-12395150D01*
X13408158Y-12395150D02*
X13436729Y-12395150D01*
X13436729Y-12395150D02*
X13455777Y-12404674D01*
X13455777Y-12404674D02*
X13465301Y-12423722D01*
X13465301Y-12423722D02*
X13465301Y-12528484D01*
X13465301Y-12423722D02*
X13474824Y-12404674D01*
X13474824Y-12404674D02*
X13493872Y-12395150D01*
X13493872Y-12395150D02*
X13522443Y-12395150D01*
X13522443Y-12395150D02*
X13541491Y-12404674D01*
X13541491Y-12404674D02*
X13551015Y-12423722D01*
X13551015Y-12423722D02*
X13551015Y-12528484D01*
X13941491Y-12318960D02*
X13770063Y-12576103D01*
X14198634Y-12328484D02*
X14217682Y-12328484D01*
X14217682Y-12328484D02*
X14236729Y-12338008D01*
X14236729Y-12338008D02*
X14246253Y-12347531D01*
X14246253Y-12347531D02*
X14255777Y-12366579D01*
X14255777Y-12366579D02*
X14265301Y-12404674D01*
X14265301Y-12404674D02*
X14265301Y-12452293D01*
X14265301Y-12452293D02*
X14255777Y-12490388D01*
X14255777Y-12490388D02*
X14246253Y-12509436D01*
X14246253Y-12509436D02*
X14236729Y-12518960D01*
X14236729Y-12518960D02*
X14217682Y-12528484D01*
X14217682Y-12528484D02*
X14198634Y-12528484D01*
X14198634Y-12528484D02*
X14179586Y-12518960D01*
X14179586Y-12518960D02*
X14170063Y-12509436D01*
X14170063Y-12509436D02*
X14160539Y-12490388D01*
X14160539Y-12490388D02*
X14151015Y-12452293D01*
X14151015Y-12452293D02*
X14151015Y-12404674D01*
X14151015Y-12404674D02*
X14160539Y-12366579D01*
X14160539Y-12366579D02*
X14170063Y-12347531D01*
X14170063Y-12347531D02*
X14179586Y-12338008D01*
X14179586Y-12338008D02*
X14198634Y-12328484D01*
X14351015Y-12509436D02*
X14360539Y-12518960D01*
X14360539Y-12518960D02*
X14351015Y-12528484D01*
X14351015Y-12528484D02*
X14341491Y-12518960D01*
X14341491Y-12518960D02*
X14351015Y-12509436D01*
X14351015Y-12509436D02*
X14351015Y-12528484D01*
X14484348Y-12328484D02*
X14503396Y-12328484D01*
X14503396Y-12328484D02*
X14522444Y-12338008D01*
X14522444Y-12338008D02*
X14531967Y-12347531D01*
X14531967Y-12347531D02*
X14541491Y-12366579D01*
X14541491Y-12366579D02*
X14551015Y-12404674D01*
X14551015Y-12404674D02*
X14551015Y-12452293D01*
X14551015Y-12452293D02*
X14541491Y-12490388D01*
X14541491Y-12490388D02*
X14531967Y-12509436D01*
X14531967Y-12509436D02*
X14522444Y-12518960D01*
X14522444Y-12518960D02*
X14503396Y-12528484D01*
X14503396Y-12528484D02*
X14484348Y-12528484D01*
X14484348Y-12528484D02*
X14465301Y-12518960D01*
X14465301Y-12518960D02*
X14455777Y-12509436D01*
X14455777Y-12509436D02*
X14446253Y-12490388D01*
X14446253Y-12490388D02*
X14436729Y-12452293D01*
X14436729Y-12452293D02*
X14436729Y-12404674D01*
X14436729Y-12404674D02*
X14446253Y-12366579D01*
X14446253Y-12366579D02*
X14455777Y-12347531D01*
X14455777Y-12347531D02*
X14465301Y-12338008D01*
X14465301Y-12338008D02*
X14484348Y-12328484D01*
X14731967Y-12328484D02*
X14636729Y-12328484D01*
X14636729Y-12328484D02*
X14627206Y-12423722D01*
X14627206Y-12423722D02*
X14636729Y-12414198D01*
X14636729Y-12414198D02*
X14655777Y-12404674D01*
X14655777Y-12404674D02*
X14703396Y-12404674D01*
X14703396Y-12404674D02*
X14722444Y-12414198D01*
X14722444Y-12414198D02*
X14731967Y-12423722D01*
X14731967Y-12423722D02*
X14741491Y-12442769D01*
X14741491Y-12442769D02*
X14741491Y-12490388D01*
X14741491Y-12490388D02*
X14731967Y-12509436D01*
X14731967Y-12509436D02*
X14722444Y-12518960D01*
X14722444Y-12518960D02*
X14703396Y-12528484D01*
X14703396Y-12528484D02*
X14655777Y-12528484D01*
X14655777Y-12528484D02*
X14636729Y-12518960D01*
X14636729Y-12518960D02*
X14627206Y-12509436D01*
X14836729Y-12528484D02*
X14874825Y-12528484D01*
X14874825Y-12528484D02*
X14893872Y-12518960D01*
X14893872Y-12518960D02*
X14903396Y-12509436D01*
X14903396Y-12509436D02*
X14922444Y-12480865D01*
X14922444Y-12480865D02*
X14931967Y-12442769D01*
X14931967Y-12442769D02*
X14931967Y-12366579D01*
X14931967Y-12366579D02*
X14922444Y-12347531D01*
X14922444Y-12347531D02*
X14912920Y-12338008D01*
X14912920Y-12338008D02*
X14893872Y-12328484D01*
X14893872Y-12328484D02*
X14855777Y-12328484D01*
X14855777Y-12328484D02*
X14836729Y-12338008D01*
X14836729Y-12338008D02*
X14827206Y-12347531D01*
X14827206Y-12347531D02*
X14817682Y-12366579D01*
X14817682Y-12366579D02*
X14817682Y-12414198D01*
X14817682Y-12414198D02*
X14827206Y-12433246D01*
X14827206Y-12433246D02*
X14836729Y-12442769D01*
X14836729Y-12442769D02*
X14855777Y-12452293D01*
X14855777Y-12452293D02*
X14893872Y-12452293D01*
X14893872Y-12452293D02*
X14912920Y-12442769D01*
X14912920Y-12442769D02*
X14922444Y-12433246D01*
X14922444Y-12433246D02*
X14931967Y-12414198D01*
X15122444Y-12528484D02*
X15008158Y-12528484D01*
X15065301Y-12528484D02*
X15065301Y-12328484D01*
X15065301Y-12328484D02*
X15046253Y-12357055D01*
X15046253Y-12357055D02*
X15027206Y-12376103D01*
X15027206Y-12376103D02*
X15008158Y-12385627D01*
X15198634Y-12328484D02*
X15198634Y-12366579D01*
X15274825Y-12328484D02*
X15274825Y-12366579D01*
X15570063Y-12604674D02*
X15560539Y-12595150D01*
X15560539Y-12595150D02*
X15541491Y-12566579D01*
X15541491Y-12566579D02*
X15531968Y-12547531D01*
X15531968Y-12547531D02*
X15522444Y-12518960D01*
X15522444Y-12518960D02*
X15512920Y-12471341D01*
X15512920Y-12471341D02*
X15512920Y-12433246D01*
X15512920Y-12433246D02*
X15522444Y-12385627D01*
X15522444Y-12385627D02*
X15531968Y-12357055D01*
X15531968Y-12357055D02*
X15541491Y-12338008D01*
X15541491Y-12338008D02*
X15560539Y-12309436D01*
X15560539Y-12309436D02*
X15570063Y-12299912D01*
X15741491Y-12328484D02*
X15646253Y-12328484D01*
X15646253Y-12328484D02*
X15636729Y-12423722D01*
X15636729Y-12423722D02*
X15646253Y-12414198D01*
X15646253Y-12414198D02*
X15665301Y-12404674D01*
X15665301Y-12404674D02*
X15712920Y-12404674D01*
X15712920Y-12404674D02*
X15731968Y-12414198D01*
X15731968Y-12414198D02*
X15741491Y-12423722D01*
X15741491Y-12423722D02*
X15751015Y-12442769D01*
X15751015Y-12442769D02*
X15751015Y-12490388D01*
X15751015Y-12490388D02*
X15741491Y-12509436D01*
X15741491Y-12509436D02*
X15731968Y-12518960D01*
X15731968Y-12518960D02*
X15712920Y-12528484D01*
X15712920Y-12528484D02*
X15665301Y-12528484D01*
X15665301Y-12528484D02*
X15646253Y-12518960D01*
X15646253Y-12518960D02*
X15636729Y-12509436D01*
X15989110Y-12528484D02*
X15989110Y-12328484D01*
X16074825Y-12528484D02*
X16074825Y-12423722D01*
X16074825Y-12423722D02*
X16065301Y-12404674D01*
X16065301Y-12404674D02*
X16046253Y-12395150D01*
X16046253Y-12395150D02*
X16017682Y-12395150D01*
X16017682Y-12395150D02*
X15998634Y-12404674D01*
X15998634Y-12404674D02*
X15989110Y-12414198D01*
X16198634Y-12528484D02*
X16179587Y-12518960D01*
X16179587Y-12518960D02*
X16170063Y-12509436D01*
X16170063Y-12509436D02*
X16160539Y-12490388D01*
X16160539Y-12490388D02*
X16160539Y-12433246D01*
X16160539Y-12433246D02*
X16170063Y-12414198D01*
X16170063Y-12414198D02*
X16179587Y-12404674D01*
X16179587Y-12404674D02*
X16198634Y-12395150D01*
X16198634Y-12395150D02*
X16227206Y-12395150D01*
X16227206Y-12395150D02*
X16246253Y-12404674D01*
X16246253Y-12404674D02*
X16255777Y-12414198D01*
X16255777Y-12414198D02*
X16265301Y-12433246D01*
X16265301Y-12433246D02*
X16265301Y-12490388D01*
X16265301Y-12490388D02*
X16255777Y-12509436D01*
X16255777Y-12509436D02*
X16246253Y-12518960D01*
X16246253Y-12518960D02*
X16227206Y-12528484D01*
X16227206Y-12528484D02*
X16198634Y-12528484D01*
X16379587Y-12528484D02*
X16360539Y-12518960D01*
X16360539Y-12518960D02*
X16351015Y-12499912D01*
X16351015Y-12499912D02*
X16351015Y-12328484D01*
X16531968Y-12518960D02*
X16512920Y-12528484D01*
X16512920Y-12528484D02*
X16474825Y-12528484D01*
X16474825Y-12528484D02*
X16455777Y-12518960D01*
X16455777Y-12518960D02*
X16446253Y-12499912D01*
X16446253Y-12499912D02*
X16446253Y-12423722D01*
X16446253Y-12423722D02*
X16455777Y-12404674D01*
X16455777Y-12404674D02*
X16474825Y-12395150D01*
X16474825Y-12395150D02*
X16512920Y-12395150D01*
X16512920Y-12395150D02*
X16531968Y-12404674D01*
X16531968Y-12404674D02*
X16541491Y-12423722D01*
X16541491Y-12423722D02*
X16541491Y-12442769D01*
X16541491Y-12442769D02*
X16446253Y-12461817D01*
X16617682Y-12518960D02*
X16636730Y-12528484D01*
X16636730Y-12528484D02*
X16674825Y-12528484D01*
X16674825Y-12528484D02*
X16693872Y-12518960D01*
X16693872Y-12518960D02*
X16703396Y-12499912D01*
X16703396Y-12499912D02*
X16703396Y-12490388D01*
X16703396Y-12490388D02*
X16693872Y-12471341D01*
X16693872Y-12471341D02*
X16674825Y-12461817D01*
X16674825Y-12461817D02*
X16646253Y-12461817D01*
X16646253Y-12461817D02*
X16627206Y-12452293D01*
X16627206Y-12452293D02*
X16617682Y-12433246D01*
X16617682Y-12433246D02*
X16617682Y-12423722D01*
X16617682Y-12423722D02*
X16627206Y-12404674D01*
X16627206Y-12404674D02*
X16646253Y-12395150D01*
X16646253Y-12395150D02*
X16674825Y-12395150D01*
X16674825Y-12395150D02*
X16693872Y-12404674D01*
X16770063Y-12604674D02*
X16779587Y-12595150D01*
X16779587Y-12595150D02*
X16798634Y-12566579D01*
X16798634Y-12566579D02*
X16808158Y-12547531D01*
X16808158Y-12547531D02*
X16817682Y-12518960D01*
X16817682Y-12518960D02*
X16827206Y-12471341D01*
X16827206Y-12471341D02*
X16827206Y-12433246D01*
X16827206Y-12433246D02*
X16817682Y-12385627D01*
X16817682Y-12385627D02*
X16808158Y-12357055D01*
X16808158Y-12357055D02*
X16798634Y-12338008D01*
X16798634Y-12338008D02*
X16779587Y-12309436D01*
X16779587Y-12309436D02*
X16770063Y-12299912D01*
X11895000Y-12807000D02*
X11995000Y-12707000D01*
X11895000Y-12607000D01*
X11795000Y-12707000D01*
X11895000Y-12807000D01*
X12246253Y-12617531D02*
X12255777Y-12608008D01*
X12255777Y-12608008D02*
X12274824Y-12598484D01*
X12274824Y-12598484D02*
X12322443Y-12598484D01*
X12322443Y-12598484D02*
X12341491Y-12608008D01*
X12341491Y-12608008D02*
X12351015Y-12617531D01*
X12351015Y-12617531D02*
X12360539Y-12636579D01*
X12360539Y-12636579D02*
X12360539Y-12655627D01*
X12360539Y-12655627D02*
X12351015Y-12684198D01*
X12351015Y-12684198D02*
X12236729Y-12798484D01*
X12236729Y-12798484D02*
X12360539Y-12798484D01*
X12446253Y-12779436D02*
X12455777Y-12788960D01*
X12455777Y-12788960D02*
X12446253Y-12798484D01*
X12446253Y-12798484D02*
X12436729Y-12788960D01*
X12436729Y-12788960D02*
X12446253Y-12779436D01*
X12446253Y-12779436D02*
X12446253Y-12798484D01*
X12636729Y-12598484D02*
X12541491Y-12598484D01*
X12541491Y-12598484D02*
X12531967Y-12693722D01*
X12531967Y-12693722D02*
X12541491Y-12684198D01*
X12541491Y-12684198D02*
X12560539Y-12674674D01*
X12560539Y-12674674D02*
X12608158Y-12674674D01*
X12608158Y-12674674D02*
X12627205Y-12684198D01*
X12627205Y-12684198D02*
X12636729Y-12693722D01*
X12636729Y-12693722D02*
X12646253Y-12712769D01*
X12646253Y-12712769D02*
X12646253Y-12760388D01*
X12646253Y-12760388D02*
X12636729Y-12779436D01*
X12636729Y-12779436D02*
X12627205Y-12788960D01*
X12627205Y-12788960D02*
X12608158Y-12798484D01*
X12608158Y-12798484D02*
X12560539Y-12798484D01*
X12560539Y-12798484D02*
X12541491Y-12788960D01*
X12541491Y-12788960D02*
X12531967Y-12779436D01*
X12770062Y-12598484D02*
X12789110Y-12598484D01*
X12789110Y-12598484D02*
X12808158Y-12608008D01*
X12808158Y-12608008D02*
X12817682Y-12617531D01*
X12817682Y-12617531D02*
X12827205Y-12636579D01*
X12827205Y-12636579D02*
X12836729Y-12674674D01*
X12836729Y-12674674D02*
X12836729Y-12722293D01*
X12836729Y-12722293D02*
X12827205Y-12760388D01*
X12827205Y-12760388D02*
X12817682Y-12779436D01*
X12817682Y-12779436D02*
X12808158Y-12788960D01*
X12808158Y-12788960D02*
X12789110Y-12798484D01*
X12789110Y-12798484D02*
X12770062Y-12798484D01*
X12770062Y-12798484D02*
X12751015Y-12788960D01*
X12751015Y-12788960D02*
X12741491Y-12779436D01*
X12741491Y-12779436D02*
X12731967Y-12760388D01*
X12731967Y-12760388D02*
X12722443Y-12722293D01*
X12722443Y-12722293D02*
X12722443Y-12674674D01*
X12722443Y-12674674D02*
X12731967Y-12636579D01*
X12731967Y-12636579D02*
X12741491Y-12617531D01*
X12741491Y-12617531D02*
X12751015Y-12608008D01*
X12751015Y-12608008D02*
X12770062Y-12598484D01*
X12960539Y-12598484D02*
X12979586Y-12598484D01*
X12979586Y-12598484D02*
X12998634Y-12608008D01*
X12998634Y-12608008D02*
X13008158Y-12617531D01*
X13008158Y-12617531D02*
X13017682Y-12636579D01*
X13017682Y-12636579D02*
X13027205Y-12674674D01*
X13027205Y-12674674D02*
X13027205Y-12722293D01*
X13027205Y-12722293D02*
X13017682Y-12760388D01*
X13017682Y-12760388D02*
X13008158Y-12779436D01*
X13008158Y-12779436D02*
X12998634Y-12788960D01*
X12998634Y-12788960D02*
X12979586Y-12798484D01*
X12979586Y-12798484D02*
X12960539Y-12798484D01*
X12960539Y-12798484D02*
X12941491Y-12788960D01*
X12941491Y-12788960D02*
X12931967Y-12779436D01*
X12931967Y-12779436D02*
X12922443Y-12760388D01*
X12922443Y-12760388D02*
X12912920Y-12722293D01*
X12912920Y-12722293D02*
X12912920Y-12674674D01*
X12912920Y-12674674D02*
X12922443Y-12636579D01*
X12922443Y-12636579D02*
X12931967Y-12617531D01*
X12931967Y-12617531D02*
X12941491Y-12608008D01*
X12941491Y-12608008D02*
X12960539Y-12598484D01*
X13112920Y-12798484D02*
X13112920Y-12665150D01*
X13112920Y-12684198D02*
X13122443Y-12674674D01*
X13122443Y-12674674D02*
X13141491Y-12665150D01*
X13141491Y-12665150D02*
X13170063Y-12665150D01*
X13170063Y-12665150D02*
X13189110Y-12674674D01*
X13189110Y-12674674D02*
X13198634Y-12693722D01*
X13198634Y-12693722D02*
X13198634Y-12798484D01*
X13198634Y-12693722D02*
X13208158Y-12674674D01*
X13208158Y-12674674D02*
X13227205Y-12665150D01*
X13227205Y-12665150D02*
X13255777Y-12665150D01*
X13255777Y-12665150D02*
X13274824Y-12674674D01*
X13274824Y-12674674D02*
X13284348Y-12693722D01*
X13284348Y-12693722D02*
X13284348Y-12798484D01*
X13379586Y-12798484D02*
X13379586Y-12665150D01*
X13379586Y-12684198D02*
X13389110Y-12674674D01*
X13389110Y-12674674D02*
X13408158Y-12665150D01*
X13408158Y-12665150D02*
X13436729Y-12665150D01*
X13436729Y-12665150D02*
X13455777Y-12674674D01*
X13455777Y-12674674D02*
X13465301Y-12693722D01*
X13465301Y-12693722D02*
X13465301Y-12798484D01*
X13465301Y-12693722D02*
X13474824Y-12674674D01*
X13474824Y-12674674D02*
X13493872Y-12665150D01*
X13493872Y-12665150D02*
X13522443Y-12665150D01*
X13522443Y-12665150D02*
X13541491Y-12674674D01*
X13541491Y-12674674D02*
X13551015Y-12693722D01*
X13551015Y-12693722D02*
X13551015Y-12798484D01*
X13941491Y-12588960D02*
X13770063Y-12846103D01*
X14198634Y-12598484D02*
X14217682Y-12598484D01*
X14217682Y-12598484D02*
X14236729Y-12608008D01*
X14236729Y-12608008D02*
X14246253Y-12617531D01*
X14246253Y-12617531D02*
X14255777Y-12636579D01*
X14255777Y-12636579D02*
X14265301Y-12674674D01*
X14265301Y-12674674D02*
X14265301Y-12722293D01*
X14265301Y-12722293D02*
X14255777Y-12760388D01*
X14255777Y-12760388D02*
X14246253Y-12779436D01*
X14246253Y-12779436D02*
X14236729Y-12788960D01*
X14236729Y-12788960D02*
X14217682Y-12798484D01*
X14217682Y-12798484D02*
X14198634Y-12798484D01*
X14198634Y-12798484D02*
X14179586Y-12788960D01*
X14179586Y-12788960D02*
X14170063Y-12779436D01*
X14170063Y-12779436D02*
X14160539Y-12760388D01*
X14160539Y-12760388D02*
X14151015Y-12722293D01*
X14151015Y-12722293D02*
X14151015Y-12674674D01*
X14151015Y-12674674D02*
X14160539Y-12636579D01*
X14160539Y-12636579D02*
X14170063Y-12617531D01*
X14170063Y-12617531D02*
X14179586Y-12608008D01*
X14179586Y-12608008D02*
X14198634Y-12598484D01*
X14351015Y-12779436D02*
X14360539Y-12788960D01*
X14360539Y-12788960D02*
X14351015Y-12798484D01*
X14351015Y-12798484D02*
X14341491Y-12788960D01*
X14341491Y-12788960D02*
X14351015Y-12779436D01*
X14351015Y-12779436D02*
X14351015Y-12798484D01*
X14484348Y-12598484D02*
X14503396Y-12598484D01*
X14503396Y-12598484D02*
X14522444Y-12608008D01*
X14522444Y-12608008D02*
X14531967Y-12617531D01*
X14531967Y-12617531D02*
X14541491Y-12636579D01*
X14541491Y-12636579D02*
X14551015Y-12674674D01*
X14551015Y-12674674D02*
X14551015Y-12722293D01*
X14551015Y-12722293D02*
X14541491Y-12760388D01*
X14541491Y-12760388D02*
X14531967Y-12779436D01*
X14531967Y-12779436D02*
X14522444Y-12788960D01*
X14522444Y-12788960D02*
X14503396Y-12798484D01*
X14503396Y-12798484D02*
X14484348Y-12798484D01*
X14484348Y-12798484D02*
X14465301Y-12788960D01*
X14465301Y-12788960D02*
X14455777Y-12779436D01*
X14455777Y-12779436D02*
X14446253Y-12760388D01*
X14446253Y-12760388D02*
X14436729Y-12722293D01*
X14436729Y-12722293D02*
X14436729Y-12674674D01*
X14436729Y-12674674D02*
X14446253Y-12636579D01*
X14446253Y-12636579D02*
X14455777Y-12617531D01*
X14455777Y-12617531D02*
X14465301Y-12608008D01*
X14465301Y-12608008D02*
X14484348Y-12598484D01*
X14646253Y-12798484D02*
X14684348Y-12798484D01*
X14684348Y-12798484D02*
X14703396Y-12788960D01*
X14703396Y-12788960D02*
X14712920Y-12779436D01*
X14712920Y-12779436D02*
X14731967Y-12750865D01*
X14731967Y-12750865D02*
X14741491Y-12712769D01*
X14741491Y-12712769D02*
X14741491Y-12636579D01*
X14741491Y-12636579D02*
X14731967Y-12617531D01*
X14731967Y-12617531D02*
X14722444Y-12608008D01*
X14722444Y-12608008D02*
X14703396Y-12598484D01*
X14703396Y-12598484D02*
X14665301Y-12598484D01*
X14665301Y-12598484D02*
X14646253Y-12608008D01*
X14646253Y-12608008D02*
X14636729Y-12617531D01*
X14636729Y-12617531D02*
X14627206Y-12636579D01*
X14627206Y-12636579D02*
X14627206Y-12684198D01*
X14627206Y-12684198D02*
X14636729Y-12703246D01*
X14636729Y-12703246D02*
X14646253Y-12712769D01*
X14646253Y-12712769D02*
X14665301Y-12722293D01*
X14665301Y-12722293D02*
X14703396Y-12722293D01*
X14703396Y-12722293D02*
X14722444Y-12712769D01*
X14722444Y-12712769D02*
X14731967Y-12703246D01*
X14731967Y-12703246D02*
X14741491Y-12684198D01*
X14855777Y-12684198D02*
X14836729Y-12674674D01*
X14836729Y-12674674D02*
X14827206Y-12665150D01*
X14827206Y-12665150D02*
X14817682Y-12646103D01*
X14817682Y-12646103D02*
X14817682Y-12636579D01*
X14817682Y-12636579D02*
X14827206Y-12617531D01*
X14827206Y-12617531D02*
X14836729Y-12608008D01*
X14836729Y-12608008D02*
X14855777Y-12598484D01*
X14855777Y-12598484D02*
X14893872Y-12598484D01*
X14893872Y-12598484D02*
X14912920Y-12608008D01*
X14912920Y-12608008D02*
X14922444Y-12617531D01*
X14922444Y-12617531D02*
X14931967Y-12636579D01*
X14931967Y-12636579D02*
X14931967Y-12646103D01*
X14931967Y-12646103D02*
X14922444Y-12665150D01*
X14922444Y-12665150D02*
X14912920Y-12674674D01*
X14912920Y-12674674D02*
X14893872Y-12684198D01*
X14893872Y-12684198D02*
X14855777Y-12684198D01*
X14855777Y-12684198D02*
X14836729Y-12693722D01*
X14836729Y-12693722D02*
X14827206Y-12703246D01*
X14827206Y-12703246D02*
X14817682Y-12722293D01*
X14817682Y-12722293D02*
X14817682Y-12760388D01*
X14817682Y-12760388D02*
X14827206Y-12779436D01*
X14827206Y-12779436D02*
X14836729Y-12788960D01*
X14836729Y-12788960D02*
X14855777Y-12798484D01*
X14855777Y-12798484D02*
X14893872Y-12798484D01*
X14893872Y-12798484D02*
X14912920Y-12788960D01*
X14912920Y-12788960D02*
X14922444Y-12779436D01*
X14922444Y-12779436D02*
X14931967Y-12760388D01*
X14931967Y-12760388D02*
X14931967Y-12722293D01*
X14931967Y-12722293D02*
X14922444Y-12703246D01*
X14922444Y-12703246D02*
X14912920Y-12693722D01*
X14912920Y-12693722D02*
X14893872Y-12684198D01*
X15103396Y-12665150D02*
X15103396Y-12798484D01*
X15055777Y-12588960D02*
X15008158Y-12731817D01*
X15008158Y-12731817D02*
X15131967Y-12731817D01*
X15198634Y-12598484D02*
X15198634Y-12636579D01*
X15274825Y-12598484D02*
X15274825Y-12636579D01*
X15570063Y-12874674D02*
X15560539Y-12865150D01*
X15560539Y-12865150D02*
X15541491Y-12836579D01*
X15541491Y-12836579D02*
X15531968Y-12817531D01*
X15531968Y-12817531D02*
X15522444Y-12788960D01*
X15522444Y-12788960D02*
X15512920Y-12741341D01*
X15512920Y-12741341D02*
X15512920Y-12703246D01*
X15512920Y-12703246D02*
X15522444Y-12655627D01*
X15522444Y-12655627D02*
X15531968Y-12627055D01*
X15531968Y-12627055D02*
X15541491Y-12608008D01*
X15541491Y-12608008D02*
X15560539Y-12579436D01*
X15560539Y-12579436D02*
X15570063Y-12569912D01*
X15731968Y-12665150D02*
X15731968Y-12798484D01*
X15684348Y-12588960D02*
X15636729Y-12731817D01*
X15636729Y-12731817D02*
X15760539Y-12731817D01*
X15989110Y-12798484D02*
X15989110Y-12598484D01*
X16074825Y-12798484D02*
X16074825Y-12693722D01*
X16074825Y-12693722D02*
X16065301Y-12674674D01*
X16065301Y-12674674D02*
X16046253Y-12665150D01*
X16046253Y-12665150D02*
X16017682Y-12665150D01*
X16017682Y-12665150D02*
X15998634Y-12674674D01*
X15998634Y-12674674D02*
X15989110Y-12684198D01*
X16198634Y-12798484D02*
X16179587Y-12788960D01*
X16179587Y-12788960D02*
X16170063Y-12779436D01*
X16170063Y-12779436D02*
X16160539Y-12760388D01*
X16160539Y-12760388D02*
X16160539Y-12703246D01*
X16160539Y-12703246D02*
X16170063Y-12684198D01*
X16170063Y-12684198D02*
X16179587Y-12674674D01*
X16179587Y-12674674D02*
X16198634Y-12665150D01*
X16198634Y-12665150D02*
X16227206Y-12665150D01*
X16227206Y-12665150D02*
X16246253Y-12674674D01*
X16246253Y-12674674D02*
X16255777Y-12684198D01*
X16255777Y-12684198D02*
X16265301Y-12703246D01*
X16265301Y-12703246D02*
X16265301Y-12760388D01*
X16265301Y-12760388D02*
X16255777Y-12779436D01*
X16255777Y-12779436D02*
X16246253Y-12788960D01*
X16246253Y-12788960D02*
X16227206Y-12798484D01*
X16227206Y-12798484D02*
X16198634Y-12798484D01*
X16379587Y-12798484D02*
X16360539Y-12788960D01*
X16360539Y-12788960D02*
X16351015Y-12769912D01*
X16351015Y-12769912D02*
X16351015Y-12598484D01*
X16531968Y-12788960D02*
X16512920Y-12798484D01*
X16512920Y-12798484D02*
X16474825Y-12798484D01*
X16474825Y-12798484D02*
X16455777Y-12788960D01*
X16455777Y-12788960D02*
X16446253Y-12769912D01*
X16446253Y-12769912D02*
X16446253Y-12693722D01*
X16446253Y-12693722D02*
X16455777Y-12674674D01*
X16455777Y-12674674D02*
X16474825Y-12665150D01*
X16474825Y-12665150D02*
X16512920Y-12665150D01*
X16512920Y-12665150D02*
X16531968Y-12674674D01*
X16531968Y-12674674D02*
X16541491Y-12693722D01*
X16541491Y-12693722D02*
X16541491Y-12712769D01*
X16541491Y-12712769D02*
X16446253Y-12731817D01*
X16617682Y-12788960D02*
X16636730Y-12798484D01*
X16636730Y-12798484D02*
X16674825Y-12798484D01*
X16674825Y-12798484D02*
X16693872Y-12788960D01*
X16693872Y-12788960D02*
X16703396Y-12769912D01*
X16703396Y-12769912D02*
X16703396Y-12760388D01*
X16703396Y-12760388D02*
X16693872Y-12741341D01*
X16693872Y-12741341D02*
X16674825Y-12731817D01*
X16674825Y-12731817D02*
X16646253Y-12731817D01*
X16646253Y-12731817D02*
X16627206Y-12722293D01*
X16627206Y-12722293D02*
X16617682Y-12703246D01*
X16617682Y-12703246D02*
X16617682Y-12693722D01*
X16617682Y-12693722D02*
X16627206Y-12674674D01*
X16627206Y-12674674D02*
X16646253Y-12665150D01*
X16646253Y-12665150D02*
X16674825Y-12665150D01*
X16674825Y-12665150D02*
X16693872Y-12674674D01*
X16770063Y-12874674D02*
X16779587Y-12865150D01*
X16779587Y-12865150D02*
X16798634Y-12836579D01*
X16798634Y-12836579D02*
X16808158Y-12817531D01*
X16808158Y-12817531D02*
X16817682Y-12788960D01*
X16817682Y-12788960D02*
X16827206Y-12741341D01*
X16827206Y-12741341D02*
X16827206Y-12703246D01*
X16827206Y-12703246D02*
X16817682Y-12655627D01*
X16817682Y-12655627D02*
X16808158Y-12627055D01*
X16808158Y-12627055D02*
X16798634Y-12608008D01*
X16798634Y-12608008D02*
X16779587Y-12579436D01*
X16779587Y-12579436D02*
X16770063Y-12569912D01*
M02*
