%TF.GenerationSoftware,KiCad,Pcbnew,8.0.4-8.0.4-0~ubuntu24.04.1*%
%TF.CreationDate,2024-08-03T15:04:24+08:00*%
%TF.ProjectId,CawDrive,43617744-7269-4766-952e-6b696361645f,rev?*%
%TF.SameCoordinates,Original*%
%TF.FileFunction,Copper,L2,Inr*%
%TF.FilePolarity,Positive*%
%FSLAX46Y46*%
G04 Gerber Fmt 4.6, Leading zero omitted, Abs format (unit mm)*
G04 Created by KiCad (PCBNEW 8.0.4-8.0.4-0~ubuntu24.04.1) date 2024-08-03 15:04:24*
%MOMM*%
%LPD*%
G01*
G04 APERTURE LIST*
G04 Aperture macros list*
%AMRoundRect*
0 Rectangle with rounded corners*
0 $1 Rounding radius*
0 $2 $3 $4 $5 $6 $7 $8 $9 X,Y pos of 4 corners*
0 Add a 4 corners polygon primitive as box body*
4,1,4,$2,$3,$4,$5,$6,$7,$8,$9,$2,$3,0*
0 Add four circle primitives for the rounded corners*
1,1,$1+$1,$2,$3*
1,1,$1+$1,$4,$5*
1,1,$1+$1,$6,$7*
1,1,$1+$1,$8,$9*
0 Add four rect primitives between the rounded corners*
20,1,$1+$1,$2,$3,$4,$5,0*
20,1,$1+$1,$4,$5,$6,$7,0*
20,1,$1+$1,$6,$7,$8,$9,0*
20,1,$1+$1,$8,$9,$2,$3,0*%
G04 Aperture macros list end*
%TA.AperFunction,ComponentPad*%
%ADD10RoundRect,0.750000X-0.750000X-0.750000X0.750000X-0.750000X0.750000X0.750000X-0.750000X0.750000X0*%
%TD*%
%TA.AperFunction,ComponentPad*%
%ADD11C,0.800000*%
%TD*%
%TA.AperFunction,ComponentPad*%
%ADD12C,5.000000*%
%TD*%
%TA.AperFunction,ViaPad*%
%ADD13C,0.600000*%
%TD*%
%TA.AperFunction,ViaPad*%
%ADD14C,0.800000*%
%TD*%
G04 APERTURE END LIST*
D10*
%TO.N,GND1*%
%TO.C,H8*%
X160000000Y-96000000D03*
%TD*%
D11*
%TO.N,unconnected-(H2-Pad1)_1*%
%TO.C,H2*%
X157125000Y-71000000D03*
%TO.N,unconnected-(H2-Pad1)_5*%
X157674175Y-69674175D03*
%TO.N,unconnected-(H2-Pad1)_8*%
X157674175Y-72325825D03*
%TO.N,unconnected-(H2-Pad1)_2*%
X159000000Y-69125000D03*
D12*
%TO.N,unconnected-(H2-Pad1)*%
X159000000Y-71000000D03*
D11*
%TO.N,unconnected-(H2-Pad1)_4*%
X159000000Y-72875000D03*
%TO.N,unconnected-(H2-Pad1)_7*%
X160325825Y-69674175D03*
%TO.N,unconnected-(H2-Pad1)_6*%
X160325825Y-72325825D03*
%TO.N,unconnected-(H2-Pad1)_3*%
X160875000Y-71000000D03*
%TD*%
D10*
%TO.N,/DRV8323RSRGZR/PHASB*%
%TO.C,H6*%
X141000000Y-108000000D03*
%TD*%
D11*
%TO.N,unconnected-(H4-Pad1)_7*%
%TO.C,H4*%
X121125000Y-107000000D03*
%TO.N,unconnected-(H4-Pad1)_5*%
X121674175Y-105674175D03*
%TO.N,unconnected-(H4-Pad1)_3*%
X121674175Y-108325825D03*
%TO.N,unconnected-(H4-Pad1)*%
X123000000Y-105125000D03*
D12*
%TO.N,unconnected-(H4-Pad1)_4*%
X123000000Y-107000000D03*
D11*
%TO.N,unconnected-(H4-Pad1)_2*%
X123000000Y-108875000D03*
%TO.N,unconnected-(H4-Pad1)_8*%
X124325825Y-105674175D03*
%TO.N,unconnected-(H4-Pad1)_6*%
X124325825Y-108325825D03*
%TO.N,unconnected-(H4-Pad1)_1*%
X124875000Y-107000000D03*
%TD*%
D10*
%TO.N,/DRV8323RSRGZR/PHASC*%
%TO.C,H7*%
X151000000Y-108000000D03*
%TD*%
%TO.N,+36V*%
%TO.C,H9*%
X160000000Y-102000000D03*
%TD*%
D11*
%TO.N,unconnected-(H1-Pad1)_5*%
%TO.C,H1*%
X121125000Y-71000000D03*
%TO.N,unconnected-(H1-Pad1)_4*%
X121674175Y-69674175D03*
%TO.N,unconnected-(H1-Pad1)_8*%
X121674175Y-72325825D03*
%TO.N,unconnected-(H1-Pad1)_6*%
X123000000Y-69125000D03*
D12*
%TO.N,unconnected-(H1-Pad1)*%
X123000000Y-71000000D03*
D11*
%TO.N,unconnected-(H1-Pad1)_1*%
X123000000Y-72875000D03*
%TO.N,unconnected-(H1-Pad1)_7*%
X124325825Y-69674175D03*
%TO.N,unconnected-(H1-Pad1)_2*%
X124325825Y-72325825D03*
%TO.N,unconnected-(H1-Pad1)_3*%
X124875000Y-71000000D03*
%TD*%
%TO.N,unconnected-(H3-Pad1)_4*%
%TO.C,H3*%
X157125000Y-107000000D03*
%TO.N,unconnected-(H3-Pad1)_7*%
X157674175Y-105674175D03*
%TO.N,unconnected-(H3-Pad1)_8*%
X157674175Y-108325825D03*
%TO.N,unconnected-(H3-Pad1)_1*%
X159000000Y-105125000D03*
D12*
%TO.N,unconnected-(H3-Pad1)_2*%
X159000000Y-107000000D03*
D11*
%TO.N,unconnected-(H3-Pad1)_5*%
X159000000Y-108875000D03*
%TO.N,unconnected-(H3-Pad1)_6*%
X160325825Y-105674175D03*
%TO.N,unconnected-(H3-Pad1)*%
X160325825Y-108325825D03*
%TO.N,unconnected-(H3-Pad1)_3*%
X160875000Y-107000000D03*
%TD*%
D10*
%TO.N,/DRV8323RSRGZR/PHASA*%
%TO.C,H5*%
X131000000Y-108000000D03*
%TD*%
D13*
%TO.N,/SPI3_MOSI*%
X141526764Y-89874180D03*
%TO.N,/SPI3_MISO*%
X141510037Y-89121963D03*
%TO.N,+3.3V*%
X139573000Y-90551000D03*
%TO.N,/SPI3_SCK*%
X141366988Y-88371180D03*
%TO.N,/AS5047P_NSS*%
X141349563Y-87618980D03*
%TO.N,GND*%
X133985000Y-88265000D03*
X155702000Y-84836000D03*
X131445000Y-84455000D03*
X132715000Y-88265000D03*
X132715000Y-89535000D03*
X133985000Y-84455000D03*
X133985000Y-85725000D03*
X134620000Y-86360000D03*
X133350000Y-86360000D03*
X134500000Y-71360000D03*
X128510000Y-78760000D03*
X132588000Y-75819000D03*
X123571000Y-90805000D03*
X133985000Y-86995000D03*
X138810000Y-82650000D03*
X132715000Y-84455000D03*
D14*
X131191000Y-76962000D03*
D13*
X156230000Y-86920000D03*
X132080000Y-85090000D03*
X150114000Y-89281000D03*
X128500000Y-71330000D03*
X135255000Y-86995000D03*
X153560000Y-74670000D03*
X143486582Y-76812400D03*
X132080000Y-86360000D03*
X131445000Y-88265000D03*
X130810000Y-85090000D03*
X133350000Y-83820000D03*
X129540000Y-86360000D03*
X131445000Y-86995000D03*
X153060000Y-87120000D03*
X145415000Y-90678000D03*
X130810000Y-87630000D03*
X131445000Y-85725000D03*
X149225000Y-72517000D03*
X140335000Y-88138000D03*
X130810000Y-86360000D03*
X134620000Y-85090000D03*
X155702000Y-90678000D03*
X153550000Y-78510000D03*
X132080000Y-88900000D03*
X122263500Y-90080500D03*
X133350000Y-88900000D03*
X135255000Y-85725000D03*
X127390511Y-73857590D03*
X146304000Y-72517000D03*
X123130000Y-84740000D03*
X153145499Y-82765735D03*
X132715000Y-86995000D03*
X149500000Y-85680000D03*
X158650000Y-81780000D03*
X130175000Y-85725000D03*
X132080000Y-87630000D03*
X123140000Y-83830000D03*
X133350000Y-85090000D03*
X133350000Y-87630000D03*
X132715000Y-85725000D03*
X135890000Y-86360000D03*
X132080000Y-83820000D03*
X130175000Y-86995000D03*
X134620000Y-87630000D03*
X132715000Y-83185000D03*
%TO.N,+3.3V*%
X140970000Y-72517000D03*
X133520000Y-71350000D03*
X140970000Y-73660000D03*
X153550000Y-75760000D03*
X124497500Y-73951500D03*
X151070000Y-86170000D03*
X143550000Y-70870000D03*
X153670000Y-85598000D03*
X154940000Y-90678000D03*
X138800000Y-85490000D03*
X136652000Y-77724000D03*
X158660000Y-80780000D03*
X141351000Y-86866579D03*
X136652000Y-78359000D03*
X136652000Y-76962000D03*
X154310000Y-70860000D03*
X153523000Y-73533000D03*
%TO.N,+5V*%
X127381000Y-76309000D03*
X146939000Y-90356500D03*
X123571000Y-89662000D03*
%TO.N,/RESET*%
X151800000Y-75710000D03*
X150470000Y-82040000D03*
%TO.N,+36V*%
X147955000Y-100203000D03*
X149225000Y-101219000D03*
X143637000Y-103251000D03*
X139827000Y-100203000D03*
X139827000Y-102235000D03*
X142367000Y-101219000D03*
X149225000Y-100203000D03*
X123825000Y-98425000D03*
X149225000Y-102235000D03*
X122555000Y-101473000D03*
X147955000Y-101219000D03*
X142367000Y-103251000D03*
X139827000Y-101219000D03*
X147955000Y-103251000D03*
X122555000Y-99441000D03*
X139827000Y-103251000D03*
X125095000Y-98425000D03*
X123825000Y-101473000D03*
X145415000Y-101219000D03*
X122555000Y-100457000D03*
X147955000Y-102235000D03*
X143637000Y-100203000D03*
X141097000Y-102235000D03*
X141097000Y-101219000D03*
X142367000Y-100203000D03*
X145415000Y-102235000D03*
X145415000Y-103251000D03*
X142367000Y-102235000D03*
X149225000Y-103251000D03*
X145415000Y-100203000D03*
X126365000Y-101473000D03*
X146685000Y-102235000D03*
X129282341Y-89497659D03*
X126365000Y-99441000D03*
X123825000Y-99441000D03*
X143637000Y-101219000D03*
X141097000Y-103251000D03*
X126365000Y-98425000D03*
X125095000Y-101473000D03*
X146685000Y-101219000D03*
X125576500Y-85852000D03*
X125095000Y-100457000D03*
X126365000Y-100457000D03*
X146685000Y-100203000D03*
X122555000Y-98425000D03*
X125095000Y-99441000D03*
X123825000Y-100457000D03*
X141097000Y-100203000D03*
X143637000Y-102235000D03*
X146685000Y-103251000D03*
%TO.N,/DRV8323RSRGZR/PHASA*%
X129794000Y-103378000D03*
X131064000Y-104394000D03*
X125095000Y-102743000D03*
X131064000Y-103378000D03*
X125095000Y-103759000D03*
X128524000Y-104394000D03*
X128524000Y-103378000D03*
X122500000Y-102750000D03*
X123825000Y-103759000D03*
X132334000Y-104394000D03*
X129794000Y-104394000D03*
X123825000Y-102743000D03*
X132334000Y-103378000D03*
X122555000Y-103759000D03*
%TO.N,/DRV8323RSRGZR/PHASB*%
X138049000Y-103378000D03*
X142367000Y-104521000D03*
X141097000Y-105664000D03*
X138049000Y-104394000D03*
X135509000Y-104394000D03*
X134239000Y-103378000D03*
X139827000Y-105664000D03*
X135509000Y-103378000D03*
X134239000Y-104394000D03*
X139827000Y-104521000D03*
X136779000Y-103378000D03*
X136779000Y-104394000D03*
X142367000Y-105664000D03*
X141097000Y-104521000D03*
%TO.N,/DRV8323RSRGZR/PHASC*%
X146685000Y-105664000D03*
X151257000Y-100750000D03*
X151257000Y-99822000D03*
X145415000Y-104521000D03*
X146685000Y-104521000D03*
X153797000Y-99822000D03*
X147955000Y-105664000D03*
X147955000Y-104521000D03*
X155067000Y-99822000D03*
X145415000Y-105664000D03*
X152527000Y-100750000D03*
X155067000Y-100750000D03*
X153797000Y-100750000D03*
X152527000Y-99822000D03*
%TO.N,/SPI1_NSS*%
X149532410Y-76837464D03*
X139450000Y-71920000D03*
%TO.N,/SWDIO*%
X142426905Y-85741209D03*
X158623000Y-82780000D03*
%TO.N,/SWCLK*%
X143178854Y-85767327D03*
X158623000Y-83693000D03*
%TO.N,/DRV8323RSRGZR/SPA*%
X131826000Y-97155000D03*
X132588000Y-97155000D03*
X132588000Y-98044000D03*
X131064000Y-98044000D03*
X130302000Y-98044000D03*
X130302000Y-97155000D03*
X131826000Y-98044000D03*
X129540000Y-97155000D03*
X129540000Y-98044000D03*
%TO.N,/DRV8323RSRGZR/SPB*%
X135382000Y-97917000D03*
X136906000Y-97917000D03*
X135042409Y-91100409D03*
X137795000Y-97155000D03*
X133977590Y-91040000D03*
X137795000Y-97917000D03*
X136906000Y-97155000D03*
X135382000Y-97155000D03*
X136144000Y-97155000D03*
X136144000Y-97917000D03*
%TO.N,/MCU_STA*%
X145070000Y-76812400D03*
X147920000Y-71800000D03*
%TO.N,/DRV_STA*%
X146000000Y-76812400D03*
X149680000Y-71810000D03*
%TO.N,/SPI3_MISO*%
X144571063Y-83894605D03*
X136990000Y-83774614D03*
%TO.N,/SPI3_SCK*%
X144010000Y-82450000D03*
X137079595Y-82694066D03*
%TO.N,/SPI3_MOSI*%
X145300854Y-84077667D03*
X136472636Y-83228314D03*
%TO.N,GND1*%
X121539000Y-93726000D03*
X141224000Y-93980000D03*
X125984000Y-93726000D03*
X143510000Y-94742000D03*
X131699000Y-93980000D03*
X147447000Y-93980000D03*
X139700000Y-93980000D03*
X148209000Y-94742000D03*
X143510000Y-93980000D03*
X141986000Y-93980000D03*
X139700000Y-94742000D03*
X142748000Y-94742000D03*
X141986000Y-94742000D03*
X145923000Y-94742000D03*
X145161000Y-93980000D03*
X136652000Y-93980000D03*
X153797000Y-98425000D03*
X155067000Y-97282000D03*
X130048000Y-93980000D03*
X120650000Y-93726000D03*
X141224000Y-94742000D03*
X148971000Y-93980000D03*
X137541000Y-94742000D03*
X140462000Y-93980000D03*
X148209000Y-93980000D03*
X140462000Y-94742000D03*
X125095000Y-93726000D03*
X138303000Y-94742000D03*
X148971000Y-94742000D03*
X132461000Y-93980000D03*
X130810000Y-94742000D03*
X136652000Y-94742000D03*
X124206000Y-93726000D03*
X131699000Y-94742000D03*
X133220000Y-91560000D03*
X145161000Y-94742000D03*
X155067000Y-98425000D03*
X137541000Y-93980000D03*
X142748000Y-93980000D03*
X135574437Y-91632439D03*
X132461000Y-94742000D03*
X130048000Y-94742000D03*
X153670000Y-97282000D03*
X147447000Y-94742000D03*
X130810000Y-93980000D03*
X135890000Y-94742000D03*
X146685000Y-93980000D03*
X152527000Y-98425000D03*
X123317000Y-93726000D03*
X145923000Y-93980000D03*
X135890000Y-93980000D03*
X146685000Y-94742000D03*
%TO.N,/USART1_TX*%
X147762440Y-74382035D03*
X155194000Y-79740000D03*
%TO.N,/USART1_RX*%
X155190000Y-78780000D03*
X147020000Y-74260000D03*
%TO.N,/FDCAN_STB*%
X152730000Y-88260000D03*
X145419991Y-89010410D03*
%TO.N,/ADC1_IN2*%
X137654658Y-86397600D03*
X149168845Y-79518845D03*
%TO.N,/TIM1_CH1N*%
X131134624Y-80963846D03*
X143342950Y-80125913D03*
%TO.N,/DRV_SPI_NSS*%
X136525199Y-82161656D03*
X143139280Y-82376782D03*
%TO.N,/TIM1_CH3N*%
X129650000Y-83210000D03*
X141970001Y-79510000D03*
%TO.N,/TIM1_CH3*%
X143591684Y-81775584D03*
X129812883Y-82433748D03*
%TO.N,/TIM1_CH2*%
X130790381Y-81632878D03*
X143066033Y-81237253D03*
%TO.N,/TIM1_CH2N*%
X142654472Y-79822420D03*
X130042734Y-81717314D03*
%TO.N,/TIM1_CH1*%
X131834610Y-80668332D03*
X142400000Y-80887240D03*
%TO.N,/ADC1_IN1*%
X139460000Y-86578910D03*
X149616500Y-80126500D03*
%TD*%
%TA.AperFunction,Conductor*%
%TO.N,/DRV8323RSRGZR/PHASB*%
G36*
X138988577Y-100761423D02*
G01*
X139000000Y-100789000D01*
X139000000Y-104000000D01*
X143961000Y-104000000D01*
X143988577Y-104011423D01*
X144000000Y-104039000D01*
X144000000Y-109935100D01*
X143988577Y-109962677D01*
X143961000Y-109974100D01*
X133789000Y-109974100D01*
X133761423Y-109962677D01*
X133750000Y-109935100D01*
X133750000Y-100789000D01*
X133761423Y-100761423D01*
X133789000Y-100750000D01*
X138961000Y-100750000D01*
X138988577Y-100761423D01*
G37*
%TD.AperFunction*%
%TD*%
%TA.AperFunction,Conductor*%
%TO.N,GND1*%
G36*
X161962677Y-92261423D02*
G01*
X161974100Y-92289000D01*
X161974100Y-98961000D01*
X161962677Y-98988577D01*
X161935100Y-99000000D01*
X126714383Y-99000000D01*
X126690641Y-98991940D01*
X126654151Y-98963939D01*
X126639227Y-98938089D01*
X126646953Y-98909257D01*
X126654145Y-98902063D01*
X126760474Y-98820474D01*
X126849355Y-98704643D01*
X126905228Y-98569754D01*
X126920042Y-98457228D01*
X126924285Y-98425003D01*
X126924285Y-98424996D01*
X126905229Y-98280249D01*
X126849355Y-98145359D01*
X126849354Y-98145357D01*
X126760474Y-98029525D01*
X126644643Y-97940645D01*
X126644641Y-97940644D01*
X126509753Y-97884771D01*
X126365003Y-97865715D01*
X126364997Y-97865715D01*
X126220249Y-97884770D01*
X126085359Y-97940644D01*
X126085357Y-97940645D01*
X125969525Y-98029525D01*
X125880645Y-98145357D01*
X125880644Y-98145359D01*
X125824770Y-98280249D01*
X125805715Y-98424996D01*
X125805715Y-98425003D01*
X125824771Y-98569753D01*
X125880644Y-98704641D01*
X125880645Y-98704643D01*
X125969525Y-98820474D01*
X126054425Y-98885620D01*
X126075847Y-98902058D01*
X126075849Y-98902059D01*
X126090773Y-98927910D01*
X126083048Y-98956742D01*
X126075849Y-98963940D01*
X126039360Y-98991940D01*
X126015618Y-99000000D01*
X125444383Y-99000000D01*
X125420641Y-98991940D01*
X125384151Y-98963939D01*
X125369227Y-98938089D01*
X125376953Y-98909257D01*
X125384145Y-98902063D01*
X125490474Y-98820474D01*
X125579355Y-98704643D01*
X125635228Y-98569754D01*
X125650042Y-98457228D01*
X125654285Y-98425003D01*
X125654285Y-98424996D01*
X125635229Y-98280249D01*
X125579355Y-98145359D01*
X125579354Y-98145357D01*
X125490474Y-98029525D01*
X125374643Y-97940645D01*
X125374641Y-97940644D01*
X125239753Y-97884771D01*
X125095003Y-97865715D01*
X125094997Y-97865715D01*
X124950249Y-97884770D01*
X124815359Y-97940644D01*
X124815357Y-97940645D01*
X124699525Y-98029525D01*
X124610645Y-98145357D01*
X124610644Y-98145359D01*
X124554770Y-98280249D01*
X124535715Y-98424996D01*
X124535715Y-98425003D01*
X124554771Y-98569753D01*
X124610644Y-98704641D01*
X124610645Y-98704643D01*
X124699525Y-98820474D01*
X124784425Y-98885620D01*
X124805847Y-98902058D01*
X124805849Y-98902059D01*
X124820773Y-98927910D01*
X124813048Y-98956742D01*
X124805849Y-98963940D01*
X124769360Y-98991940D01*
X124745618Y-99000000D01*
X124174383Y-99000000D01*
X124150641Y-98991940D01*
X124114151Y-98963939D01*
X124099227Y-98938089D01*
X124106953Y-98909257D01*
X124114145Y-98902063D01*
X124220474Y-98820474D01*
X124309355Y-98704643D01*
X124365228Y-98569754D01*
X124380042Y-98457228D01*
X124384285Y-98425003D01*
X124384285Y-98424996D01*
X124365229Y-98280249D01*
X124309355Y-98145359D01*
X124309354Y-98145357D01*
X124220474Y-98029525D01*
X124104643Y-97940645D01*
X124104641Y-97940644D01*
X123969753Y-97884771D01*
X123825003Y-97865715D01*
X123824997Y-97865715D01*
X123680249Y-97884770D01*
X123545359Y-97940644D01*
X123545357Y-97940645D01*
X123429525Y-98029525D01*
X123340645Y-98145357D01*
X123340644Y-98145359D01*
X123284770Y-98280249D01*
X123265715Y-98424996D01*
X123265715Y-98425003D01*
X123284771Y-98569753D01*
X123340644Y-98704641D01*
X123340645Y-98704643D01*
X123429525Y-98820474D01*
X123514425Y-98885620D01*
X123535847Y-98902058D01*
X123535849Y-98902059D01*
X123550773Y-98927910D01*
X123543048Y-98956742D01*
X123535849Y-98963940D01*
X123499360Y-98991940D01*
X123475618Y-99000000D01*
X122904383Y-99000000D01*
X122880641Y-98991940D01*
X122844151Y-98963939D01*
X122829227Y-98938089D01*
X122836953Y-98909257D01*
X122844145Y-98902063D01*
X122950474Y-98820474D01*
X123039355Y-98704643D01*
X123095228Y-98569754D01*
X123110042Y-98457228D01*
X123114285Y-98425003D01*
X123114285Y-98424996D01*
X123095229Y-98280249D01*
X123039355Y-98145359D01*
X123039354Y-98145357D01*
X122950474Y-98029525D01*
X122834643Y-97940645D01*
X122834641Y-97940644D01*
X122699753Y-97884771D01*
X122555003Y-97865715D01*
X122554997Y-97865715D01*
X122410249Y-97884770D01*
X122275359Y-97940644D01*
X122275357Y-97940645D01*
X122159525Y-98029525D01*
X122070645Y-98145357D01*
X122070644Y-98145359D01*
X122014770Y-98280249D01*
X121995715Y-98424996D01*
X121995715Y-98425003D01*
X122014771Y-98569753D01*
X122070644Y-98704641D01*
X122070645Y-98704643D01*
X122159525Y-98820474D01*
X122244425Y-98885620D01*
X122265847Y-98902058D01*
X122265849Y-98902059D01*
X122280773Y-98927910D01*
X122273048Y-98956742D01*
X122265849Y-98963940D01*
X122229360Y-98991940D01*
X122205618Y-99000000D01*
X120064900Y-99000000D01*
X120037323Y-98988577D01*
X120025900Y-98961000D01*
X120025900Y-97154996D01*
X128980715Y-97154996D01*
X128980715Y-97155003D01*
X128999771Y-97299753D01*
X129055644Y-97434641D01*
X129055645Y-97434643D01*
X129144527Y-97550476D01*
X129168094Y-97568560D01*
X129183018Y-97594410D01*
X129175292Y-97623242D01*
X129168094Y-97630440D01*
X129144527Y-97648523D01*
X129055645Y-97764357D01*
X129055644Y-97764359D01*
X128999770Y-97899249D01*
X128980715Y-98043996D01*
X128980715Y-98044003D01*
X128999771Y-98188753D01*
X129055644Y-98323641D01*
X129055645Y-98323643D01*
X129144525Y-98439474D01*
X129233406Y-98507674D01*
X129260357Y-98528355D01*
X129360303Y-98569754D01*
X129395246Y-98584228D01*
X129539997Y-98603285D01*
X129540000Y-98603285D01*
X129540003Y-98603285D01*
X129648565Y-98588992D01*
X129684754Y-98584228D01*
X129819643Y-98528355D01*
X129897258Y-98468797D01*
X129926090Y-98461073D01*
X129944741Y-98468797D01*
X130022357Y-98528355D01*
X130122303Y-98569754D01*
X130157246Y-98584228D01*
X130301997Y-98603285D01*
X130302000Y-98603285D01*
X130302003Y-98603285D01*
X130410565Y-98588992D01*
X130446754Y-98584228D01*
X130581643Y-98528355D01*
X130659258Y-98468797D01*
X130688090Y-98461073D01*
X130706741Y-98468797D01*
X130784357Y-98528355D01*
X130884303Y-98569754D01*
X130919246Y-98584228D01*
X131063997Y-98603285D01*
X131064000Y-98603285D01*
X131064003Y-98603285D01*
X131172565Y-98588992D01*
X131208754Y-98584228D01*
X131343643Y-98528355D01*
X131421258Y-98468797D01*
X131450090Y-98461073D01*
X131468741Y-98468797D01*
X131546357Y-98528355D01*
X131646303Y-98569754D01*
X131681246Y-98584228D01*
X131825997Y-98603285D01*
X131826000Y-98603285D01*
X131826003Y-98603285D01*
X131934565Y-98588992D01*
X131970754Y-98584228D01*
X132105643Y-98528355D01*
X132183258Y-98468797D01*
X132212090Y-98461073D01*
X132230741Y-98468797D01*
X132308357Y-98528355D01*
X132408303Y-98569754D01*
X132443246Y-98584228D01*
X132587997Y-98603285D01*
X132588000Y-98603285D01*
X132588003Y-98603285D01*
X132696565Y-98588992D01*
X132732754Y-98584228D01*
X132867643Y-98528355D01*
X132983474Y-98439474D01*
X133072355Y-98323643D01*
X133128228Y-98188754D01*
X133147285Y-98044000D01*
X133147285Y-98043996D01*
X133128229Y-97899249D01*
X133128228Y-97899246D01*
X133072355Y-97764358D01*
X132983474Y-97648526D01*
X132983472Y-97648525D01*
X132983472Y-97648524D01*
X132959906Y-97630441D01*
X132944981Y-97604591D01*
X132952706Y-97575759D01*
X132959906Y-97568559D01*
X132972909Y-97558580D01*
X132983474Y-97550474D01*
X133072355Y-97434643D01*
X133128228Y-97299754D01*
X133147285Y-97155000D01*
X133147285Y-97154996D01*
X134822715Y-97154996D01*
X134822715Y-97155003D01*
X134841771Y-97299753D01*
X134897644Y-97434641D01*
X134897645Y-97434643D01*
X134957201Y-97512258D01*
X134964926Y-97541091D01*
X134957201Y-97559741D01*
X134897648Y-97637353D01*
X134897644Y-97637359D01*
X134841770Y-97772249D01*
X134822715Y-97916996D01*
X134822715Y-97917003D01*
X134841771Y-98061753D01*
X134897644Y-98196641D01*
X134897645Y-98196643D01*
X134986525Y-98312474D01*
X135024741Y-98341798D01*
X135102357Y-98401355D01*
X135194384Y-98439474D01*
X135237246Y-98457228D01*
X135381997Y-98476285D01*
X135382000Y-98476285D01*
X135382003Y-98476285D01*
X135497548Y-98461073D01*
X135526754Y-98457228D01*
X135661643Y-98401355D01*
X135739258Y-98341797D01*
X135768090Y-98334073D01*
X135786741Y-98341797D01*
X135864357Y-98401355D01*
X135956384Y-98439474D01*
X135999246Y-98457228D01*
X136143997Y-98476285D01*
X136144000Y-98476285D01*
X136144003Y-98476285D01*
X136259548Y-98461073D01*
X136288754Y-98457228D01*
X136423643Y-98401355D01*
X136501258Y-98341797D01*
X136530090Y-98334073D01*
X136548741Y-98341797D01*
X136626357Y-98401355D01*
X136718384Y-98439474D01*
X136761246Y-98457228D01*
X136905997Y-98476285D01*
X136906000Y-98476285D01*
X136906003Y-98476285D01*
X137021548Y-98461073D01*
X137050754Y-98457228D01*
X137185643Y-98401355D01*
X137301474Y-98312474D01*
X137309580Y-98301909D01*
X137319559Y-98288906D01*
X137345409Y-98273981D01*
X137374241Y-98281706D01*
X137381441Y-98288906D01*
X137399524Y-98312472D01*
X137399526Y-98312474D01*
X137515357Y-98401355D01*
X137607384Y-98439474D01*
X137650246Y-98457228D01*
X137794997Y-98476285D01*
X137795000Y-98476285D01*
X137795003Y-98476285D01*
X137910548Y-98461073D01*
X137939754Y-98457228D01*
X138074643Y-98401355D01*
X138190474Y-98312474D01*
X138279355Y-98196643D01*
X138335228Y-98061754D01*
X138351172Y-97940645D01*
X138354285Y-97917003D01*
X138354285Y-97916996D01*
X138335229Y-97772249D01*
X138331961Y-97764359D01*
X138279355Y-97637358D01*
X138219796Y-97559740D01*
X138212072Y-97530910D01*
X138219798Y-97512258D01*
X138226310Y-97503772D01*
X138279355Y-97434643D01*
X138335228Y-97299754D01*
X138354285Y-97155000D01*
X138354285Y-97154996D01*
X138335229Y-97010249D01*
X138279355Y-96875359D01*
X138279354Y-96875357D01*
X138190474Y-96759525D01*
X138074643Y-96670645D01*
X138074641Y-96670644D01*
X137939753Y-96614771D01*
X137795003Y-96595715D01*
X137794997Y-96595715D01*
X137650249Y-96614770D01*
X137515359Y-96670644D01*
X137515357Y-96670645D01*
X137399523Y-96759527D01*
X137381440Y-96783094D01*
X137355590Y-96798018D01*
X137326758Y-96790292D01*
X137319560Y-96783094D01*
X137301476Y-96759527D01*
X137185643Y-96670645D01*
X137185641Y-96670644D01*
X137050753Y-96614771D01*
X136906003Y-96595715D01*
X136905997Y-96595715D01*
X136761249Y-96614770D01*
X136626359Y-96670644D01*
X136626353Y-96670648D01*
X136548741Y-96730201D01*
X136519909Y-96737926D01*
X136501258Y-96730201D01*
X136423643Y-96670645D01*
X136423641Y-96670644D01*
X136288753Y-96614771D01*
X136144003Y-96595715D01*
X136143997Y-96595715D01*
X135999249Y-96614770D01*
X135864359Y-96670644D01*
X135864353Y-96670648D01*
X135786741Y-96730201D01*
X135757909Y-96737926D01*
X135739258Y-96730201D01*
X135661643Y-96670645D01*
X135661641Y-96670644D01*
X135526753Y-96614771D01*
X135382003Y-96595715D01*
X135381997Y-96595715D01*
X135237249Y-96614770D01*
X135102359Y-96670644D01*
X135102357Y-96670645D01*
X134986525Y-96759525D01*
X134897645Y-96875357D01*
X134897644Y-96875359D01*
X134841770Y-97010249D01*
X134822715Y-97154996D01*
X133147285Y-97154996D01*
X133128229Y-97010249D01*
X133072355Y-96875359D01*
X133072354Y-96875357D01*
X132983474Y-96759525D01*
X132867643Y-96670645D01*
X132867641Y-96670644D01*
X132732753Y-96614771D01*
X132588003Y-96595715D01*
X132587997Y-96595715D01*
X132443249Y-96614770D01*
X132308359Y-96670644D01*
X132308353Y-96670648D01*
X132230741Y-96730201D01*
X132201909Y-96737926D01*
X132183258Y-96730201D01*
X132105643Y-96670645D01*
X132105641Y-96670644D01*
X131970753Y-96614771D01*
X131826003Y-96595715D01*
X131825997Y-96595715D01*
X131681249Y-96614770D01*
X131546359Y-96670644D01*
X131546357Y-96670645D01*
X131430525Y-96759525D01*
X131341645Y-96875357D01*
X131341644Y-96875359D01*
X131285770Y-97010249D01*
X131266715Y-97154996D01*
X131266715Y-97155003D01*
X131285771Y-97299753D01*
X131341644Y-97434641D01*
X131341645Y-97434643D01*
X131392907Y-97501448D01*
X131400632Y-97530280D01*
X131385708Y-97556131D01*
X131356876Y-97563856D01*
X131346168Y-97560224D01*
X131346004Y-97560623D01*
X131208753Y-97503771D01*
X131064003Y-97484715D01*
X131063997Y-97484715D01*
X130919249Y-97503770D01*
X130781997Y-97560623D01*
X130781533Y-97559503D01*
X130755899Y-97562852D01*
X130732237Y-97544656D01*
X130728371Y-97515058D01*
X130735091Y-97501450D01*
X130786355Y-97434643D01*
X130842228Y-97299754D01*
X130861285Y-97155000D01*
X130861285Y-97154996D01*
X130842229Y-97010249D01*
X130786355Y-96875359D01*
X130786354Y-96875357D01*
X130697474Y-96759525D01*
X130581643Y-96670645D01*
X130581641Y-96670644D01*
X130446753Y-96614771D01*
X130302003Y-96595715D01*
X130301997Y-96595715D01*
X130157249Y-96614770D01*
X130022359Y-96670644D01*
X130022353Y-96670648D01*
X129944741Y-96730201D01*
X129915909Y-96737926D01*
X129897258Y-96730201D01*
X129819643Y-96670645D01*
X129819641Y-96670644D01*
X129684753Y-96614771D01*
X129540003Y-96595715D01*
X129539997Y-96595715D01*
X129395249Y-96614770D01*
X129260359Y-96670644D01*
X129260357Y-96670645D01*
X129144525Y-96759525D01*
X129055645Y-96875357D01*
X129055644Y-96875359D01*
X128999770Y-97010249D01*
X128980715Y-97154996D01*
X120025900Y-97154996D01*
X120025900Y-92289000D01*
X120037323Y-92261423D01*
X120064900Y-92250000D01*
X161935100Y-92250000D01*
X161962677Y-92261423D01*
G37*
%TD.AperFunction*%
%TD*%
%TA.AperFunction,Conductor*%
%TO.N,GND*%
G36*
X159001011Y-68025953D02*
G01*
X159308841Y-68042085D01*
X159312897Y-68042511D01*
X159616342Y-68090573D01*
X159620317Y-68091418D01*
X159917074Y-68170934D01*
X159920947Y-68172192D01*
X160151219Y-68260585D01*
X160207768Y-68282292D01*
X160211498Y-68283953D01*
X160485229Y-68423426D01*
X160488762Y-68425466D01*
X160690618Y-68556553D01*
X160746417Y-68592789D01*
X160749719Y-68595188D01*
X160988473Y-68788527D01*
X160991507Y-68791259D01*
X161208740Y-69008492D01*
X161211472Y-69011526D01*
X161404811Y-69250280D01*
X161407210Y-69253582D01*
X161574532Y-69511235D01*
X161576573Y-69514770D01*
X161716046Y-69788501D01*
X161717707Y-69792231D01*
X161827805Y-70079047D01*
X161829066Y-70082929D01*
X161908579Y-70379673D01*
X161909428Y-70383666D01*
X161957487Y-70687100D01*
X161957914Y-70691160D01*
X161974047Y-70998988D01*
X161974100Y-71001029D01*
X161974100Y-91461000D01*
X161962677Y-91488577D01*
X161935100Y-91500000D01*
X136539000Y-91500000D01*
X136511423Y-91488577D01*
X136500000Y-91461000D01*
X136500000Y-90550996D01*
X139013715Y-90550996D01*
X139013715Y-90551003D01*
X139032771Y-90695753D01*
X139088644Y-90830641D01*
X139088645Y-90830643D01*
X139177525Y-90946474D01*
X139266406Y-91014674D01*
X139293357Y-91035355D01*
X139392265Y-91076324D01*
X139428246Y-91091228D01*
X139572997Y-91110285D01*
X139573000Y-91110285D01*
X139573003Y-91110285D01*
X139681565Y-91095992D01*
X139717754Y-91091228D01*
X139852643Y-91035355D01*
X139968474Y-90946474D01*
X140057355Y-90830643D01*
X140113228Y-90695754D01*
X140123721Y-90616054D01*
X140132285Y-90551003D01*
X140132285Y-90550996D01*
X140113229Y-90406249D01*
X140109961Y-90398359D01*
X140057355Y-90271358D01*
X140018933Y-90221285D01*
X139968474Y-90155525D01*
X139852643Y-90066645D01*
X139852641Y-90066644D01*
X139717753Y-90010771D01*
X139573003Y-89991715D01*
X139572997Y-89991715D01*
X139428249Y-90010770D01*
X139293359Y-90066644D01*
X139293357Y-90066645D01*
X139177525Y-90155525D01*
X139088645Y-90271357D01*
X139088644Y-90271359D01*
X139032770Y-90406249D01*
X139013715Y-90550996D01*
X136500000Y-90550996D01*
X136500000Y-90500000D01*
X134126630Y-90500000D01*
X134121539Y-90499666D01*
X133977592Y-90480715D01*
X133977588Y-90480715D01*
X133833641Y-90499666D01*
X133828550Y-90500000D01*
X132000000Y-90500000D01*
X132000000Y-91461000D01*
X131988577Y-91488577D01*
X131961000Y-91500000D01*
X120064900Y-91500000D01*
X120037323Y-91488577D01*
X120025900Y-91461000D01*
X120025900Y-89661996D01*
X123011715Y-89661996D01*
X123011715Y-89662003D01*
X123030771Y-89806753D01*
X123086644Y-89941641D01*
X123086645Y-89941643D01*
X123175525Y-90057474D01*
X123255336Y-90118715D01*
X123291357Y-90146355D01*
X123405525Y-90193645D01*
X123426246Y-90202228D01*
X123570997Y-90221285D01*
X123571000Y-90221285D01*
X123571003Y-90221285D01*
X123679565Y-90206992D01*
X123715754Y-90202228D01*
X123850643Y-90146355D01*
X123966474Y-90057474D01*
X124055355Y-89941643D01*
X124111228Y-89806754D01*
X124130285Y-89662000D01*
X124130285Y-89661996D01*
X124111229Y-89517249D01*
X124103116Y-89497662D01*
X124103113Y-89497655D01*
X128723056Y-89497655D01*
X128723056Y-89497662D01*
X128742112Y-89642412D01*
X128797985Y-89777300D01*
X128797986Y-89777302D01*
X128886866Y-89893133D01*
X128950083Y-89941641D01*
X129002698Y-89982014D01*
X129072126Y-90010772D01*
X129137587Y-90037887D01*
X129282338Y-90056944D01*
X129282341Y-90056944D01*
X129282344Y-90056944D01*
X129390906Y-90042651D01*
X129427095Y-90037887D01*
X129561984Y-89982014D01*
X129677815Y-89893133D01*
X129766696Y-89777302D01*
X129822569Y-89642413D01*
X129828872Y-89594533D01*
X129841626Y-89497662D01*
X129841626Y-89497655D01*
X129822570Y-89352908D01*
X129822569Y-89352905D01*
X129766696Y-89218017D01*
X129746015Y-89191065D01*
X129677815Y-89102184D01*
X129561984Y-89013304D01*
X129561982Y-89013303D01*
X129427094Y-88957430D01*
X129282344Y-88938374D01*
X129282338Y-88938374D01*
X129137590Y-88957429D01*
X129002700Y-89013303D01*
X129002698Y-89013304D01*
X128886866Y-89102184D01*
X128797986Y-89218016D01*
X128797985Y-89218018D01*
X128742111Y-89352908D01*
X128723056Y-89497655D01*
X124103113Y-89497655D01*
X124055355Y-89382358D01*
X123984527Y-89290053D01*
X123966474Y-89266525D01*
X123850643Y-89177645D01*
X123850641Y-89177644D01*
X123715753Y-89121771D01*
X123571003Y-89102715D01*
X123570997Y-89102715D01*
X123426249Y-89121770D01*
X123291359Y-89177644D01*
X123291357Y-89177645D01*
X123175525Y-89266525D01*
X123086645Y-89382357D01*
X123086644Y-89382359D01*
X123030770Y-89517249D01*
X123011715Y-89661996D01*
X120025900Y-89661996D01*
X120025900Y-89010406D01*
X120025900Y-87618976D01*
X140790278Y-87618976D01*
X140790278Y-87618983D01*
X140809334Y-87763733D01*
X140865207Y-87898621D01*
X140865208Y-87898623D01*
X140929717Y-87982692D01*
X140937442Y-88011524D01*
X140929717Y-88030175D01*
X140882636Y-88091533D01*
X140882632Y-88091539D01*
X140826758Y-88226429D01*
X140807703Y-88371176D01*
X140807703Y-88371183D01*
X140826759Y-88515933D01*
X140882632Y-88650821D01*
X140882633Y-88650823D01*
X140971513Y-88766654D01*
X141012659Y-88798226D01*
X141027583Y-88824077D01*
X141024948Y-88844092D01*
X140969807Y-88977212D01*
X140950752Y-89121959D01*
X140950752Y-89121966D01*
X140969808Y-89266716D01*
X141025681Y-89401604D01*
X141025682Y-89401606D01*
X141089848Y-89485229D01*
X141097573Y-89514062D01*
X141089848Y-89532712D01*
X141042412Y-89594533D01*
X141042408Y-89594539D01*
X140986534Y-89729429D01*
X140967479Y-89874176D01*
X140967479Y-89874183D01*
X140986535Y-90018933D01*
X141042408Y-90153821D01*
X141042409Y-90153823D01*
X141131289Y-90269654D01*
X141220170Y-90337854D01*
X141247121Y-90358535D01*
X141382010Y-90414408D01*
X141526761Y-90433465D01*
X141526764Y-90433465D01*
X141526767Y-90433465D01*
X141635329Y-90419172D01*
X141671518Y-90414408D01*
X141806407Y-90358535D01*
X141809064Y-90356496D01*
X146379715Y-90356496D01*
X146379715Y-90356503D01*
X146398771Y-90501253D01*
X146454644Y-90636141D01*
X146454645Y-90636143D01*
X146543525Y-90751974D01*
X146632406Y-90820174D01*
X146659357Y-90840855D01*
X146790668Y-90895246D01*
X146794246Y-90896728D01*
X146938997Y-90915785D01*
X146939000Y-90915785D01*
X146939003Y-90915785D01*
X147047565Y-90901492D01*
X147083754Y-90896728D01*
X147218643Y-90840855D01*
X147334474Y-90751974D01*
X147391240Y-90677996D01*
X154380715Y-90677996D01*
X154380715Y-90678003D01*
X154399771Y-90822753D01*
X154455644Y-90957641D01*
X154455645Y-90957643D01*
X154544525Y-91073474D01*
X154633406Y-91141674D01*
X154660357Y-91162355D01*
X154795246Y-91218228D01*
X154939997Y-91237285D01*
X154940000Y-91237285D01*
X154940003Y-91237285D01*
X155048565Y-91222992D01*
X155084754Y-91218228D01*
X155219643Y-91162355D01*
X155335474Y-91073474D01*
X155424355Y-90957643D01*
X155480228Y-90822754D01*
X155484992Y-90786565D01*
X155499285Y-90678003D01*
X155499285Y-90677996D01*
X155480229Y-90533249D01*
X155466362Y-90499772D01*
X155424355Y-90398358D01*
X155392233Y-90356496D01*
X155335474Y-90282525D01*
X155219643Y-90193645D01*
X155219641Y-90193644D01*
X155084753Y-90137771D01*
X154940003Y-90118715D01*
X154939997Y-90118715D01*
X154795249Y-90137770D01*
X154660359Y-90193644D01*
X154660357Y-90193645D01*
X154544525Y-90282525D01*
X154455645Y-90398357D01*
X154455644Y-90398359D01*
X154399770Y-90533249D01*
X154380715Y-90677996D01*
X147391240Y-90677996D01*
X147423355Y-90636143D01*
X147479228Y-90501254D01*
X147483992Y-90465065D01*
X147498285Y-90356503D01*
X147498285Y-90356496D01*
X147479229Y-90211749D01*
X147471730Y-90193644D01*
X147423355Y-90076858D01*
X147393452Y-90037887D01*
X147334474Y-89961025D01*
X147218643Y-89872145D01*
X147218641Y-89872144D01*
X147083753Y-89816271D01*
X146939003Y-89797215D01*
X146938997Y-89797215D01*
X146794249Y-89816270D01*
X146659359Y-89872144D01*
X146659357Y-89872145D01*
X146543525Y-89961025D01*
X146454645Y-90076857D01*
X146454644Y-90076859D01*
X146398770Y-90211749D01*
X146379715Y-90356496D01*
X141809064Y-90356496D01*
X141922238Y-90269654D01*
X142011119Y-90153823D01*
X142066992Y-90018934D01*
X142074616Y-89961025D01*
X142086049Y-89874183D01*
X142086049Y-89874176D01*
X142066993Y-89729429D01*
X142039061Y-89661996D01*
X142011119Y-89594538D01*
X141946950Y-89510912D01*
X141939226Y-89482082D01*
X141946952Y-89463430D01*
X141994388Y-89401611D01*
X141994387Y-89401611D01*
X141994392Y-89401606D01*
X142050265Y-89266717D01*
X142056677Y-89218016D01*
X142069322Y-89121966D01*
X142069322Y-89121959D01*
X142054636Y-89010406D01*
X144860706Y-89010406D01*
X144860706Y-89010413D01*
X144879762Y-89155163D01*
X144935635Y-89290051D01*
X144935636Y-89290053D01*
X145024516Y-89405884D01*
X145099512Y-89463430D01*
X145140348Y-89494765D01*
X145231960Y-89532712D01*
X145275237Y-89550638D01*
X145419988Y-89569695D01*
X145419991Y-89569695D01*
X145419994Y-89569695D01*
X145528556Y-89555402D01*
X145564745Y-89550638D01*
X145699634Y-89494765D01*
X145815465Y-89405884D01*
X145904346Y-89290053D01*
X145960219Y-89155164D01*
X145978895Y-89013304D01*
X145979276Y-89010413D01*
X145979276Y-89010406D01*
X145960220Y-88865659D01*
X145951287Y-88844092D01*
X145904346Y-88730768D01*
X145859471Y-88672286D01*
X145815465Y-88614935D01*
X145699634Y-88526055D01*
X145699632Y-88526054D01*
X145564744Y-88470181D01*
X145419994Y-88451125D01*
X145419988Y-88451125D01*
X145275240Y-88470180D01*
X145140350Y-88526054D01*
X145140348Y-88526055D01*
X145024516Y-88614935D01*
X144935636Y-88730767D01*
X144935635Y-88730769D01*
X144879761Y-88865659D01*
X144860706Y-89010406D01*
X142054636Y-89010406D01*
X142050266Y-88977212D01*
X142050265Y-88977209D01*
X141994392Y-88842321D01*
X141936331Y-88766654D01*
X141905511Y-88726488D01*
X141864366Y-88694917D01*
X141849442Y-88669066D01*
X141852077Y-88649051D01*
X141897396Y-88539641D01*
X141907216Y-88515934D01*
X141926273Y-88371180D01*
X141926273Y-88371176D01*
X141911636Y-88259996D01*
X152170715Y-88259996D01*
X152170715Y-88260003D01*
X152189771Y-88404753D01*
X152245644Y-88539641D01*
X152245645Y-88539643D01*
X152334525Y-88655474D01*
X152423406Y-88723674D01*
X152450357Y-88744355D01*
X152580413Y-88798226D01*
X152585246Y-88800228D01*
X152729997Y-88819285D01*
X152730000Y-88819285D01*
X152730003Y-88819285D01*
X152838565Y-88804992D01*
X152874754Y-88800228D01*
X153009643Y-88744355D01*
X153125474Y-88655474D01*
X153214355Y-88539643D01*
X153270228Y-88404754D01*
X153289285Y-88260000D01*
X153289285Y-88259996D01*
X153270229Y-88115249D01*
X153260408Y-88091539D01*
X153214355Y-87980358D01*
X153193674Y-87953406D01*
X153125474Y-87864525D01*
X153009643Y-87775645D01*
X153009641Y-87775644D01*
X152874753Y-87719771D01*
X152730003Y-87700715D01*
X152729997Y-87700715D01*
X152585249Y-87719770D01*
X152450359Y-87775644D01*
X152450357Y-87775645D01*
X152334525Y-87864525D01*
X152245645Y-87980357D01*
X152245644Y-87980359D01*
X152189770Y-88115249D01*
X152170715Y-88259996D01*
X141911636Y-88259996D01*
X141907217Y-88226429D01*
X141907216Y-88226426D01*
X141851343Y-88091538D01*
X141786831Y-88007465D01*
X141779107Y-87978634D01*
X141786830Y-87959986D01*
X141833918Y-87898623D01*
X141889791Y-87763734D01*
X141908848Y-87618980D01*
X141908848Y-87618976D01*
X141889792Y-87474229D01*
X141833918Y-87339339D01*
X141833917Y-87339337D01*
X141778761Y-87267456D01*
X141771036Y-87238623D01*
X141778759Y-87219976D01*
X141835355Y-87146222D01*
X141891228Y-87011333D01*
X141910285Y-86866579D01*
X141910285Y-86866575D01*
X141891229Y-86721828D01*
X141872761Y-86677243D01*
X141835355Y-86586937D01*
X141801145Y-86542353D01*
X141746474Y-86471104D01*
X141630643Y-86382224D01*
X141630641Y-86382223D01*
X141495753Y-86326350D01*
X141351003Y-86307294D01*
X141350997Y-86307294D01*
X141206249Y-86326349D01*
X141071359Y-86382223D01*
X141071357Y-86382224D01*
X140955525Y-86471104D01*
X140866645Y-86586936D01*
X140866644Y-86586938D01*
X140810770Y-86721828D01*
X140791715Y-86866575D01*
X140791715Y-86866582D01*
X140810771Y-87011332D01*
X140866644Y-87146220D01*
X140866645Y-87146222D01*
X140921800Y-87218101D01*
X140929525Y-87246933D01*
X140921800Y-87265584D01*
X140865211Y-87339333D01*
X140865207Y-87339339D01*
X140809333Y-87474229D01*
X140790278Y-87618976D01*
X120025900Y-87618976D01*
X120025900Y-85851996D01*
X125017215Y-85851996D01*
X125017215Y-85852003D01*
X125036271Y-85996753D01*
X125092144Y-86131641D01*
X125092145Y-86131643D01*
X125181025Y-86247474D01*
X125248526Y-86299269D01*
X125296857Y-86336355D01*
X125407592Y-86382223D01*
X125431746Y-86392228D01*
X125576497Y-86411285D01*
X125576500Y-86411285D01*
X125576503Y-86411285D01*
X125680477Y-86397596D01*
X137095373Y-86397596D01*
X137095373Y-86397603D01*
X137114429Y-86542353D01*
X137170302Y-86677241D01*
X137170303Y-86677243D01*
X137259183Y-86793074D01*
X137344515Y-86858551D01*
X137375015Y-86881955D01*
X137509904Y-86937828D01*
X137654655Y-86956885D01*
X137654658Y-86956885D01*
X137654661Y-86956885D01*
X137763223Y-86942592D01*
X137799412Y-86937828D01*
X137934301Y-86881955D01*
X138050132Y-86793074D01*
X138139013Y-86677243D01*
X138179746Y-86578906D01*
X138900715Y-86578906D01*
X138900715Y-86578913D01*
X138919771Y-86723663D01*
X138975644Y-86858551D01*
X138975645Y-86858553D01*
X139064525Y-86974384D01*
X139112677Y-87011332D01*
X139180357Y-87063265D01*
X139315246Y-87119138D01*
X139459997Y-87138195D01*
X139460000Y-87138195D01*
X139460003Y-87138195D01*
X139568565Y-87123902D01*
X139604754Y-87119138D01*
X139739643Y-87063265D01*
X139855474Y-86974384D01*
X139944355Y-86858553D01*
X140000228Y-86723664D01*
X140018228Y-86586938D01*
X140019285Y-86578913D01*
X140019285Y-86578906D01*
X140000229Y-86434159D01*
X139985084Y-86397596D01*
X139944355Y-86299268D01*
X139923674Y-86272316D01*
X139855474Y-86183435D01*
X139739643Y-86094555D01*
X139739641Y-86094554D01*
X139604753Y-86038681D01*
X139460003Y-86019625D01*
X139459997Y-86019625D01*
X139315249Y-86038680D01*
X139180359Y-86094554D01*
X139180357Y-86094555D01*
X139064525Y-86183435D01*
X138975645Y-86299267D01*
X138975644Y-86299269D01*
X138919770Y-86434159D01*
X138900715Y-86578906D01*
X138179746Y-86578906D01*
X138194886Y-86542354D01*
X138204266Y-86471104D01*
X138213943Y-86397603D01*
X138213943Y-86397596D01*
X138194887Y-86252849D01*
X138166135Y-86183436D01*
X138139013Y-86117958D01*
X138111693Y-86082354D01*
X138050132Y-86002125D01*
X137934301Y-85913245D01*
X137934299Y-85913244D01*
X137799411Y-85857371D01*
X137654661Y-85838315D01*
X137654655Y-85838315D01*
X137509907Y-85857370D01*
X137375017Y-85913244D01*
X137375015Y-85913245D01*
X137259183Y-86002125D01*
X137170303Y-86117957D01*
X137170302Y-86117959D01*
X137114428Y-86252849D01*
X137095373Y-86397596D01*
X125680477Y-86397596D01*
X125685065Y-86396992D01*
X125721254Y-86392228D01*
X125856143Y-86336355D01*
X125971974Y-86247474D01*
X126060855Y-86131643D01*
X126116728Y-85996754D01*
X126127875Y-85912081D01*
X126135785Y-85852003D01*
X126135785Y-85851996D01*
X126116729Y-85707249D01*
X126107780Y-85685644D01*
X126060855Y-85572358D01*
X125997662Y-85490003D01*
X125997657Y-85489996D01*
X138240715Y-85489996D01*
X138240715Y-85490003D01*
X138259771Y-85634753D01*
X138315644Y-85769641D01*
X138315645Y-85769643D01*
X138404525Y-85885474D01*
X138493406Y-85953674D01*
X138520357Y-85974355D01*
X138643226Y-86025249D01*
X138655246Y-86030228D01*
X138799997Y-86049285D01*
X138800000Y-86049285D01*
X138800003Y-86049285D01*
X138908565Y-86034992D01*
X138944754Y-86030228D01*
X139079643Y-85974355D01*
X139195474Y-85885474D01*
X139284355Y-85769643D01*
X139296134Y-85741205D01*
X141867620Y-85741205D01*
X141867620Y-85741212D01*
X141886676Y-85885962D01*
X141942549Y-86020850D01*
X141942550Y-86020852D01*
X142031430Y-86136683D01*
X142074850Y-86170000D01*
X142147262Y-86225564D01*
X142213134Y-86252849D01*
X142282151Y-86281437D01*
X142426902Y-86300494D01*
X142426905Y-86300494D01*
X142426908Y-86300494D01*
X142535470Y-86286201D01*
X142571659Y-86281437D01*
X142706548Y-86225564D01*
X142762119Y-86182920D01*
X142790948Y-86175195D01*
X142809600Y-86182920D01*
X142899211Y-86251682D01*
X143014096Y-86299269D01*
X143034100Y-86307555D01*
X143178851Y-86326612D01*
X143178854Y-86326612D01*
X143178857Y-86326612D01*
X143287419Y-86312319D01*
X143323608Y-86307555D01*
X143458497Y-86251682D01*
X143564951Y-86169996D01*
X150510715Y-86169996D01*
X150510715Y-86170003D01*
X150529771Y-86314753D01*
X150585644Y-86449641D01*
X150585645Y-86449643D01*
X150674525Y-86565474D01*
X150702498Y-86586938D01*
X150790357Y-86654355D01*
X150925246Y-86710228D01*
X151069997Y-86729285D01*
X151070000Y-86729285D01*
X151070003Y-86729285D01*
X151178565Y-86714992D01*
X151214754Y-86710228D01*
X151349643Y-86654355D01*
X151465474Y-86565474D01*
X151554355Y-86449643D01*
X151610228Y-86314754D01*
X151618378Y-86252846D01*
X151629285Y-86170003D01*
X151629285Y-86169996D01*
X151610229Y-86025249D01*
X151608407Y-86020850D01*
X151554355Y-85890358D01*
X151514421Y-85838315D01*
X151465474Y-85774525D01*
X151349643Y-85685645D01*
X151349641Y-85685644D01*
X151214753Y-85629771D01*
X151070003Y-85610715D01*
X151069997Y-85610715D01*
X150925249Y-85629770D01*
X150790359Y-85685644D01*
X150790357Y-85685645D01*
X150674525Y-85774525D01*
X150585645Y-85890357D01*
X150585644Y-85890359D01*
X150529770Y-86025249D01*
X150510715Y-86169996D01*
X143564951Y-86169996D01*
X143574328Y-86162801D01*
X143663209Y-86046970D01*
X143719082Y-85912081D01*
X143723846Y-85875892D01*
X143738139Y-85767330D01*
X143738139Y-85767323D01*
X143719083Y-85622576D01*
X143714170Y-85610715D01*
X143708902Y-85597996D01*
X153110715Y-85597996D01*
X153110715Y-85598003D01*
X153129771Y-85742753D01*
X153185644Y-85877641D01*
X153185645Y-85877643D01*
X153274525Y-85993474D01*
X153344240Y-86046968D01*
X153390357Y-86082355D01*
X153521516Y-86136683D01*
X153525246Y-86138228D01*
X153669997Y-86157285D01*
X153670000Y-86157285D01*
X153670003Y-86157285D01*
X153778565Y-86142992D01*
X153814754Y-86138228D01*
X153949643Y-86082355D01*
X154065474Y-85993474D01*
X154154355Y-85877643D01*
X154210228Y-85742754D01*
X154214992Y-85706565D01*
X154229285Y-85598003D01*
X154229285Y-85597996D01*
X154210229Y-85453249D01*
X154210228Y-85453246D01*
X154154355Y-85318358D01*
X154127202Y-85282971D01*
X154065474Y-85202525D01*
X153949643Y-85113645D01*
X153949641Y-85113644D01*
X153814753Y-85057771D01*
X153670003Y-85038715D01*
X153669997Y-85038715D01*
X153525249Y-85057770D01*
X153390359Y-85113644D01*
X153390357Y-85113645D01*
X153274525Y-85202525D01*
X153185645Y-85318357D01*
X153185644Y-85318359D01*
X153129770Y-85453249D01*
X153110715Y-85597996D01*
X143708902Y-85597996D01*
X143663209Y-85487685D01*
X143636783Y-85453246D01*
X143574328Y-85371852D01*
X143458497Y-85282972D01*
X143458495Y-85282971D01*
X143323607Y-85227098D01*
X143178857Y-85208042D01*
X143178851Y-85208042D01*
X143034103Y-85227097D01*
X142899213Y-85282971D01*
X142899207Y-85282975D01*
X142843639Y-85325613D01*
X142814807Y-85333338D01*
X142796156Y-85325613D01*
X142706548Y-85256854D01*
X142706546Y-85256853D01*
X142571658Y-85200980D01*
X142426908Y-85181924D01*
X142426902Y-85181924D01*
X142282154Y-85200979D01*
X142147264Y-85256853D01*
X142147262Y-85256854D01*
X142031430Y-85345734D01*
X141942550Y-85461566D01*
X141942549Y-85461568D01*
X141886675Y-85596458D01*
X141867620Y-85741205D01*
X139296134Y-85741205D01*
X139340228Y-85634754D01*
X139348442Y-85572359D01*
X139359285Y-85490003D01*
X139359285Y-85489996D01*
X139340229Y-85345249D01*
X139335295Y-85333338D01*
X139284355Y-85210358D01*
X139210144Y-85113644D01*
X139195474Y-85094525D01*
X139079643Y-85005645D01*
X139079641Y-85005644D01*
X138944753Y-84949771D01*
X138800003Y-84930715D01*
X138799997Y-84930715D01*
X138655249Y-84949770D01*
X138520359Y-85005644D01*
X138520357Y-85005645D01*
X138404525Y-85094525D01*
X138315645Y-85210357D01*
X138315644Y-85210359D01*
X138259770Y-85345249D01*
X138240715Y-85489996D01*
X125997657Y-85489996D01*
X125971974Y-85456525D01*
X125856143Y-85367645D01*
X125856141Y-85367644D01*
X125721253Y-85311771D01*
X125576503Y-85292715D01*
X125576497Y-85292715D01*
X125431749Y-85311770D01*
X125296859Y-85367644D01*
X125296857Y-85367645D01*
X125181025Y-85456525D01*
X125092145Y-85572357D01*
X125092144Y-85572359D01*
X125036270Y-85707249D01*
X125017215Y-85851996D01*
X120025900Y-85851996D01*
X120025900Y-83209996D01*
X129090715Y-83209996D01*
X129090715Y-83210003D01*
X129109771Y-83354753D01*
X129165644Y-83489641D01*
X129165645Y-83489643D01*
X129254525Y-83605474D01*
X129343406Y-83673674D01*
X129370357Y-83694355D01*
X129414571Y-83712669D01*
X129505246Y-83750228D01*
X129649997Y-83769285D01*
X129650000Y-83769285D01*
X129650003Y-83769285D01*
X129758565Y-83754992D01*
X129794754Y-83750228D01*
X129929643Y-83694355D01*
X130045474Y-83605474D01*
X130134355Y-83489643D01*
X130190228Y-83354754D01*
X130202671Y-83260242D01*
X130206875Y-83228310D01*
X135913351Y-83228310D01*
X135913351Y-83228317D01*
X135932407Y-83373067D01*
X135988280Y-83507955D01*
X135988281Y-83507957D01*
X136077161Y-83623788D01*
X136153275Y-83682192D01*
X136192993Y-83712669D01*
X136327882Y-83768542D01*
X136402044Y-83778305D01*
X136427894Y-83793229D01*
X136435620Y-83811880D01*
X136449771Y-83919367D01*
X136505644Y-84054255D01*
X136505645Y-84054257D01*
X136594525Y-84170088D01*
X136603996Y-84177355D01*
X136710357Y-84258969D01*
X136785463Y-84290079D01*
X136845246Y-84314842D01*
X136989997Y-84333899D01*
X136990000Y-84333899D01*
X136990003Y-84333899D01*
X137098565Y-84319606D01*
X137134754Y-84314842D01*
X137269643Y-84258969D01*
X137385474Y-84170088D01*
X137474355Y-84054257D01*
X137530228Y-83919368D01*
X137533489Y-83894601D01*
X144011778Y-83894601D01*
X144011778Y-83894608D01*
X144030834Y-84039358D01*
X144086707Y-84174246D01*
X144086708Y-84174248D01*
X144175588Y-84290079D01*
X144263203Y-84357308D01*
X144291420Y-84378960D01*
X144426309Y-84434833D01*
X144571060Y-84453890D01*
X144571063Y-84453890D01*
X144571066Y-84453890D01*
X144679628Y-84439597D01*
X144715817Y-84434833D01*
X144809707Y-84395941D01*
X144839555Y-84395941D01*
X144855572Y-84408231D01*
X144905379Y-84473141D01*
X144994260Y-84541341D01*
X145021211Y-84562022D01*
X145156100Y-84617895D01*
X145300851Y-84636952D01*
X145300854Y-84636952D01*
X145300857Y-84636952D01*
X145409419Y-84622659D01*
X145445608Y-84617895D01*
X145580497Y-84562022D01*
X145696328Y-84473141D01*
X145785209Y-84357310D01*
X145841082Y-84222421D01*
X145847972Y-84170088D01*
X145860139Y-84077670D01*
X145860139Y-84077663D01*
X145841083Y-83932916D01*
X145785209Y-83798026D01*
X145785208Y-83798024D01*
X145696328Y-83682192D01*
X145580497Y-83593312D01*
X145580495Y-83593311D01*
X145445607Y-83537438D01*
X145300857Y-83518382D01*
X145300851Y-83518382D01*
X145156100Y-83537438D01*
X145062209Y-83576329D01*
X145032359Y-83576329D01*
X145016343Y-83564040D01*
X144966537Y-83499130D01*
X144850706Y-83410250D01*
X144850704Y-83410249D01*
X144715816Y-83354376D01*
X144571066Y-83335320D01*
X144571060Y-83335320D01*
X144426312Y-83354375D01*
X144291422Y-83410249D01*
X144291420Y-83410250D01*
X144175588Y-83499130D01*
X144086708Y-83614962D01*
X144086707Y-83614964D01*
X144030833Y-83749854D01*
X144011778Y-83894601D01*
X137533489Y-83894601D01*
X137546203Y-83798024D01*
X137549285Y-83774617D01*
X137549285Y-83774610D01*
X137530229Y-83629863D01*
X137515089Y-83593312D01*
X137474355Y-83494972D01*
X137453674Y-83468020D01*
X137385474Y-83379139D01*
X137269643Y-83290259D01*
X137269639Y-83290257D01*
X137266422Y-83288924D01*
X137245319Y-83267815D01*
X137245323Y-83237965D01*
X137266427Y-83216864D01*
X137359238Y-83178421D01*
X137475069Y-83089540D01*
X137563950Y-82973709D01*
X137619823Y-82838820D01*
X137626013Y-82791803D01*
X137638880Y-82694069D01*
X137638880Y-82694062D01*
X137619824Y-82549315D01*
X137609485Y-82524354D01*
X137563950Y-82414424D01*
X137535063Y-82376778D01*
X137475069Y-82298591D01*
X137359238Y-82209711D01*
X137359236Y-82209710D01*
X137224345Y-82153836D01*
X137110638Y-82138867D01*
X137084788Y-82123943D01*
X137077063Y-82105291D01*
X137065427Y-82016902D01*
X137043698Y-81964445D01*
X137009554Y-81882014D01*
X136974671Y-81836554D01*
X136920673Y-81766181D01*
X136804842Y-81677301D01*
X136804840Y-81677300D01*
X136669952Y-81621427D01*
X136525202Y-81602371D01*
X136525196Y-81602371D01*
X136380448Y-81621426D01*
X136245558Y-81677300D01*
X136245556Y-81677301D01*
X136129724Y-81766181D01*
X136040844Y-81882013D01*
X136040843Y-81882015D01*
X135984969Y-82016905D01*
X135965914Y-82161652D01*
X135965914Y-82161659D01*
X135984970Y-82306409D01*
X136040843Y-82441297D01*
X136040844Y-82441299D01*
X136129724Y-82557130D01*
X136178757Y-82594754D01*
X136245556Y-82646011D01*
X136250518Y-82648066D01*
X136271626Y-82669171D01*
X136271628Y-82699020D01*
X136250523Y-82720128D01*
X136250521Y-82720129D01*
X136192995Y-82743958D01*
X136192993Y-82743959D01*
X136077161Y-82832839D01*
X135988281Y-82948671D01*
X135988280Y-82948673D01*
X135932406Y-83083563D01*
X135913351Y-83228310D01*
X130206875Y-83228310D01*
X130209285Y-83210003D01*
X130209285Y-83209996D01*
X130190229Y-83065249D01*
X130159154Y-82990228D01*
X130134355Y-82930358D01*
X130134352Y-82930354D01*
X130133712Y-82929245D01*
X130133627Y-82928600D01*
X130133377Y-82927997D01*
X130133538Y-82927930D01*
X130129813Y-82899652D01*
X130143744Y-82878801D01*
X130166764Y-82861137D01*
X130208357Y-82829222D01*
X130297238Y-82713391D01*
X130353111Y-82578502D01*
X130370028Y-82450003D01*
X130372168Y-82433751D01*
X130372168Y-82433744D01*
X130353112Y-82288998D01*
X130353111Y-82288996D01*
X130353111Y-82288994D01*
X130329701Y-82232481D01*
X130329701Y-82202634D01*
X130341990Y-82186618D01*
X130438208Y-82112788D01*
X130439192Y-82111504D01*
X130439899Y-82111096D01*
X130440012Y-82110984D01*
X130440042Y-82111014D01*
X130465035Y-82096573D01*
X130493869Y-82104289D01*
X130510738Y-82117233D01*
X130617992Y-82161659D01*
X130645627Y-82173106D01*
X130790378Y-82192163D01*
X130790381Y-82192163D01*
X130790384Y-82192163D01*
X130898946Y-82177870D01*
X130935135Y-82173106D01*
X131070024Y-82117233D01*
X131185855Y-82028352D01*
X131274736Y-81912521D01*
X131330609Y-81777632D01*
X131338550Y-81717314D01*
X131349666Y-81632881D01*
X131349666Y-81632876D01*
X131333857Y-81512795D01*
X131341582Y-81483962D01*
X131357595Y-81471675D01*
X131414267Y-81448201D01*
X131530098Y-81359320D01*
X131618979Y-81243489D01*
X131626783Y-81224646D01*
X131647888Y-81203540D01*
X131677734Y-81203539D01*
X131689856Y-81208560D01*
X131689859Y-81208560D01*
X131689861Y-81208561D01*
X131834607Y-81227617D01*
X131834610Y-81227617D01*
X131834613Y-81227617D01*
X131943175Y-81213324D01*
X131979364Y-81208560D01*
X132114253Y-81152687D01*
X132230084Y-81063806D01*
X132318965Y-80947975D01*
X132374838Y-80813086D01*
X132390634Y-80693104D01*
X132393895Y-80668335D01*
X132393895Y-80668328D01*
X132374839Y-80523581D01*
X132374838Y-80523578D01*
X132318965Y-80388690D01*
X132276206Y-80332965D01*
X132230084Y-80272857D01*
X132114253Y-80183977D01*
X132114251Y-80183976D01*
X131979363Y-80128103D01*
X131834613Y-80109047D01*
X131834607Y-80109047D01*
X131689859Y-80128102D01*
X131554969Y-80183976D01*
X131554967Y-80183977D01*
X131439135Y-80272857D01*
X131350254Y-80388690D01*
X131342450Y-80407531D01*
X131321342Y-80428637D01*
X131291494Y-80428636D01*
X131279377Y-80423617D01*
X131134627Y-80404561D01*
X131134621Y-80404561D01*
X130989873Y-80423616D01*
X130854983Y-80479490D01*
X130854981Y-80479491D01*
X130739149Y-80568371D01*
X130650269Y-80684203D01*
X130650268Y-80684205D01*
X130594394Y-80819095D01*
X130575339Y-80963842D01*
X130575339Y-80963849D01*
X130591147Y-81083928D01*
X130583422Y-81112760D01*
X130567406Y-81125049D01*
X130510740Y-81148521D01*
X130394907Y-81237404D01*
X130393916Y-81238696D01*
X130393203Y-81239107D01*
X130393100Y-81239211D01*
X130393072Y-81239183D01*
X130368065Y-81253620D01*
X130339234Y-81245894D01*
X130325499Y-81235355D01*
X130322377Y-81232959D01*
X130322375Y-81232958D01*
X130187487Y-81177085D01*
X130042737Y-81158029D01*
X130042731Y-81158029D01*
X129897983Y-81177084D01*
X129763093Y-81232958D01*
X129763091Y-81232959D01*
X129647259Y-81321839D01*
X129558379Y-81437671D01*
X129558378Y-81437673D01*
X129502504Y-81572563D01*
X129483449Y-81717310D01*
X129483449Y-81717317D01*
X129502504Y-81862064D01*
X129525914Y-81918579D01*
X129525914Y-81948429D01*
X129513625Y-81964445D01*
X129417408Y-82038273D01*
X129328528Y-82154105D01*
X129328527Y-82154107D01*
X129272653Y-82288997D01*
X129253598Y-82433744D01*
X129253598Y-82433751D01*
X129272654Y-82578501D01*
X129328527Y-82713389D01*
X129329173Y-82714508D01*
X129329257Y-82715152D01*
X129329506Y-82715752D01*
X129329345Y-82715818D01*
X129333066Y-82744103D01*
X129319138Y-82764945D01*
X129254527Y-82814523D01*
X129165645Y-82930357D01*
X129165644Y-82930359D01*
X129109770Y-83065249D01*
X129090715Y-83209996D01*
X120025900Y-83209996D01*
X120025900Y-79509996D01*
X141410716Y-79509996D01*
X141410716Y-79510003D01*
X141429772Y-79654753D01*
X141485645Y-79789641D01*
X141485646Y-79789643D01*
X141574526Y-79905474D01*
X141663407Y-79973674D01*
X141690358Y-79994355D01*
X141796318Y-80038245D01*
X141825247Y-80050228D01*
X141969998Y-80069285D01*
X141970001Y-80069285D01*
X141970003Y-80069285D01*
X142081141Y-80054653D01*
X142114755Y-80050228D01*
X142114755Y-80050227D01*
X142117223Y-80049903D01*
X142146056Y-80057628D01*
X142158345Y-80073644D01*
X142170117Y-80102063D01*
X142190099Y-80128104D01*
X142258997Y-80217894D01*
X142300613Y-80249826D01*
X142327377Y-80270363D01*
X142342301Y-80296213D01*
X142334576Y-80325046D01*
X142308726Y-80339970D01*
X142255249Y-80347010D01*
X142120359Y-80402884D01*
X142120357Y-80402885D01*
X142004525Y-80491765D01*
X141915645Y-80607597D01*
X141915644Y-80607599D01*
X141859770Y-80742489D01*
X141840715Y-80887236D01*
X141840715Y-80887243D01*
X141859771Y-81031993D01*
X141915644Y-81166881D01*
X141915645Y-81166883D01*
X142004525Y-81282714D01*
X142078250Y-81339285D01*
X142120357Y-81371595D01*
X142255246Y-81427468D01*
X142399997Y-81446525D01*
X142400000Y-81446525D01*
X142400002Y-81446525D01*
X142467243Y-81437672D01*
X142514971Y-81431388D01*
X142543803Y-81439113D01*
X142556093Y-81455129D01*
X142581677Y-81516894D01*
X142581678Y-81516896D01*
X142670558Y-81632727D01*
X142728647Y-81677300D01*
X142786390Y-81721608D01*
X142894001Y-81766182D01*
X142921279Y-81777481D01*
X142940774Y-81780048D01*
X142966624Y-81794972D01*
X142974350Y-81823804D01*
X142959426Y-81849654D01*
X142950609Y-81854745D01*
X142859639Y-81892426D01*
X142859637Y-81892427D01*
X142743805Y-81981307D01*
X142654925Y-82097139D01*
X142654924Y-82097141D01*
X142599050Y-82232031D01*
X142579995Y-82376778D01*
X142579995Y-82376785D01*
X142599051Y-82521535D01*
X142654924Y-82656423D01*
X142654925Y-82656425D01*
X142743805Y-82772256D01*
X142818045Y-82829222D01*
X142859637Y-82861137D01*
X142959356Y-82902442D01*
X142994526Y-82917010D01*
X143139277Y-82936067D01*
X143139280Y-82936067D01*
X143139283Y-82936067D01*
X143247845Y-82921774D01*
X143284034Y-82917010D01*
X143418923Y-82861137D01*
X143518661Y-82784604D01*
X143547491Y-82776879D01*
X143573341Y-82791803D01*
X143573342Y-82791803D01*
X143614525Y-82845474D01*
X143703406Y-82913674D01*
X143730357Y-82934355D01*
X143764924Y-82948673D01*
X143865246Y-82990228D01*
X144009997Y-83009285D01*
X144010000Y-83009285D01*
X144010003Y-83009285D01*
X144118565Y-82994992D01*
X144154754Y-82990228D01*
X144289643Y-82934355D01*
X144405474Y-82845474D01*
X144455717Y-82779996D01*
X158063715Y-82779996D01*
X158063715Y-82780003D01*
X158082771Y-82924753D01*
X158138644Y-83059641D01*
X158138645Y-83059643D01*
X158227525Y-83175474D01*
X158266733Y-83205559D01*
X158281657Y-83231410D01*
X158273932Y-83260242D01*
X158266733Y-83267441D01*
X158227525Y-83297525D01*
X158138645Y-83413357D01*
X158138644Y-83413359D01*
X158082770Y-83548249D01*
X158063715Y-83692996D01*
X158063715Y-83693003D01*
X158082771Y-83837753D01*
X158138644Y-83972641D01*
X158138645Y-83972643D01*
X158227525Y-84088474D01*
X158316406Y-84156674D01*
X158343357Y-84177355D01*
X158452153Y-84222420D01*
X158478246Y-84233228D01*
X158622997Y-84252285D01*
X158623000Y-84252285D01*
X158623003Y-84252285D01*
X158731565Y-84237992D01*
X158767754Y-84233228D01*
X158902643Y-84177355D01*
X159018474Y-84088474D01*
X159107355Y-83972643D01*
X159163228Y-83837754D01*
X159168458Y-83798025D01*
X159182285Y-83693003D01*
X159182285Y-83692996D01*
X159163229Y-83548249D01*
X159163228Y-83548246D01*
X159107355Y-83413358D01*
X159018474Y-83297526D01*
X159018472Y-83297525D01*
X159018472Y-83297524D01*
X158979267Y-83267441D01*
X158964342Y-83241591D01*
X158972067Y-83212759D01*
X158979267Y-83205559D01*
X159014633Y-83178421D01*
X159018474Y-83175474D01*
X159107355Y-83059643D01*
X159163228Y-82924754D01*
X159174541Y-82838820D01*
X159182285Y-82780003D01*
X159182285Y-82779996D01*
X159163229Y-82635249D01*
X159146455Y-82594753D01*
X159107355Y-82500358D01*
X159068711Y-82449996D01*
X159018474Y-82384525D01*
X158902643Y-82295645D01*
X158902641Y-82295644D01*
X158767753Y-82239771D01*
X158623003Y-82220715D01*
X158622997Y-82220715D01*
X158478249Y-82239770D01*
X158343359Y-82295644D01*
X158343357Y-82295645D01*
X158227525Y-82384525D01*
X158138645Y-82500357D01*
X158138644Y-82500359D01*
X158082770Y-82635249D01*
X158063715Y-82779996D01*
X144455717Y-82779996D01*
X144494355Y-82729643D01*
X144550228Y-82594754D01*
X144556210Y-82549315D01*
X144569285Y-82450003D01*
X144569285Y-82449996D01*
X144550229Y-82305249D01*
X144546251Y-82295645D01*
X144494355Y-82170358D01*
X144448796Y-82110984D01*
X144405474Y-82054525D01*
X144386539Y-82039996D01*
X149910715Y-82039996D01*
X149910715Y-82040003D01*
X149929771Y-82184753D01*
X149985644Y-82319641D01*
X149985645Y-82319643D01*
X150074525Y-82435474D01*
X150093456Y-82450000D01*
X150190357Y-82524355D01*
X150250616Y-82549315D01*
X150325246Y-82580228D01*
X150469997Y-82599285D01*
X150470000Y-82599285D01*
X150470003Y-82599285D01*
X150578565Y-82584992D01*
X150614754Y-82580228D01*
X150749643Y-82524355D01*
X150865474Y-82435474D01*
X150954355Y-82319643D01*
X151010228Y-82184754D01*
X151019702Y-82112792D01*
X151029285Y-82040003D01*
X151029285Y-82039996D01*
X151010229Y-81895249D01*
X151004747Y-81882014D01*
X150954355Y-81760358D01*
X150924620Y-81721607D01*
X150865474Y-81644525D01*
X150749643Y-81555645D01*
X150749641Y-81555644D01*
X150614753Y-81499771D01*
X150470003Y-81480715D01*
X150469997Y-81480715D01*
X150325249Y-81499770D01*
X150190359Y-81555644D01*
X150190357Y-81555645D01*
X150074525Y-81644525D01*
X149985645Y-81760357D01*
X149985644Y-81760359D01*
X149929770Y-81895249D01*
X149910715Y-82039996D01*
X144386539Y-82039996D01*
X144289643Y-81965645D01*
X144289641Y-81965644D01*
X144162059Y-81912797D01*
X144140953Y-81891690D01*
X144138318Y-81871675D01*
X144139584Y-81862064D01*
X144145513Y-81817019D01*
X144150969Y-81775585D01*
X144150969Y-81775580D01*
X144131913Y-81630833D01*
X144131912Y-81630830D01*
X144076039Y-81495942D01*
X144023497Y-81427468D01*
X143987158Y-81380109D01*
X143871327Y-81291229D01*
X143871325Y-81291228D01*
X143736437Y-81235355D01*
X143652772Y-81224340D01*
X143626922Y-81209416D01*
X143619197Y-81190764D01*
X143606261Y-81092499D01*
X143581198Y-81031993D01*
X143550388Y-80957611D01*
X143496393Y-80887243D01*
X143461507Y-80841778D01*
X143380991Y-80779996D01*
X158100715Y-80779996D01*
X158100715Y-80780003D01*
X158119771Y-80924753D01*
X158175644Y-81059641D01*
X158175645Y-81059643D01*
X158264525Y-81175474D01*
X158339440Y-81232958D01*
X158380357Y-81264355D01*
X158515246Y-81320228D01*
X158659997Y-81339285D01*
X158660000Y-81339285D01*
X158660003Y-81339285D01*
X158792509Y-81321840D01*
X158804754Y-81320228D01*
X158939643Y-81264355D01*
X159055474Y-81175474D01*
X159144355Y-81059643D01*
X159200228Y-80924754D01*
X159214929Y-80813086D01*
X159219285Y-80780003D01*
X159219285Y-80779996D01*
X159200229Y-80635249D01*
X159190124Y-80610854D01*
X159144355Y-80500358D01*
X159100773Y-80443561D01*
X159055474Y-80384525D01*
X158939643Y-80295645D01*
X158939641Y-80295644D01*
X158804753Y-80239771D01*
X158660003Y-80220715D01*
X158659997Y-80220715D01*
X158515249Y-80239770D01*
X158380359Y-80295644D01*
X158380357Y-80295645D01*
X158264525Y-80384525D01*
X158175645Y-80500357D01*
X158175644Y-80500359D01*
X158119770Y-80635249D01*
X158100715Y-80779996D01*
X143380991Y-80779996D01*
X143344666Y-80752123D01*
X143329742Y-80726272D01*
X143337467Y-80697440D01*
X143363316Y-80682516D01*
X143487704Y-80666141D01*
X143622593Y-80610268D01*
X143738424Y-80521387D01*
X143827305Y-80405556D01*
X143883178Y-80270667D01*
X143894591Y-80183976D01*
X143902235Y-80125916D01*
X143902235Y-80125909D01*
X143883179Y-79981162D01*
X143883178Y-79981159D01*
X143827305Y-79846271D01*
X143783853Y-79789643D01*
X143738424Y-79730438D01*
X143622593Y-79641558D01*
X143622591Y-79641557D01*
X143487703Y-79585684D01*
X143342953Y-79566628D01*
X143342947Y-79566628D01*
X143198195Y-79585684D01*
X143195726Y-79586346D01*
X143195491Y-79585469D01*
X143168864Y-79585463D01*
X143147766Y-79564360D01*
X143138827Y-79542778D01*
X143120460Y-79518841D01*
X148609560Y-79518841D01*
X148609560Y-79518848D01*
X148628616Y-79663598D01*
X148684489Y-79798486D01*
X148684490Y-79798488D01*
X148773370Y-79914319D01*
X148860478Y-79981159D01*
X148889202Y-80003200D01*
X148928899Y-80019643D01*
X149024088Y-80059072D01*
X149024091Y-80059073D01*
X149026707Y-80059417D01*
X149052558Y-80074340D01*
X149060286Y-80103172D01*
X149060285Y-80103174D01*
X149057215Y-80126496D01*
X149057215Y-80126503D01*
X149076271Y-80271253D01*
X149132144Y-80406141D01*
X149132145Y-80406143D01*
X149221025Y-80521974D01*
X149309906Y-80590174D01*
X149336857Y-80610855D01*
X149469325Y-80665725D01*
X149471746Y-80666728D01*
X149616497Y-80685785D01*
X149616500Y-80685785D01*
X149616503Y-80685785D01*
X149749070Y-80668332D01*
X149761254Y-80666728D01*
X149896143Y-80610855D01*
X150011974Y-80521974D01*
X150100855Y-80406143D01*
X150156728Y-80271254D01*
X150175785Y-80126500D01*
X150175785Y-80126496D01*
X150156729Y-79981749D01*
X150156485Y-79981159D01*
X150100855Y-79846858D01*
X150080174Y-79819906D01*
X150011974Y-79731025D01*
X149896143Y-79642145D01*
X149896141Y-79642144D01*
X149782919Y-79595246D01*
X149761254Y-79586272D01*
X149761253Y-79586271D01*
X149761251Y-79586271D01*
X149758631Y-79585926D01*
X149732782Y-79570999D01*
X149725059Y-79542168D01*
X149728130Y-79518846D01*
X149728130Y-79518841D01*
X149709074Y-79374094D01*
X149705409Y-79365246D01*
X149653200Y-79239203D01*
X149604299Y-79175474D01*
X149564319Y-79123370D01*
X149448488Y-79034490D01*
X149448486Y-79034489D01*
X149313598Y-78978616D01*
X149168848Y-78959560D01*
X149168842Y-78959560D01*
X149024094Y-78978615D01*
X148889204Y-79034489D01*
X148889202Y-79034490D01*
X148773370Y-79123370D01*
X148684490Y-79239202D01*
X148684489Y-79239204D01*
X148628615Y-79374094D01*
X148609560Y-79518841D01*
X143120460Y-79518841D01*
X143075584Y-79460358D01*
X143049946Y-79426945D01*
X142934115Y-79338065D01*
X142934113Y-79338064D01*
X142799225Y-79282191D01*
X142654475Y-79263135D01*
X142654469Y-79263135D01*
X142507247Y-79282516D01*
X142478415Y-79274791D01*
X142466127Y-79258777D01*
X142454356Y-79230358D01*
X142412242Y-79175474D01*
X142365475Y-79114525D01*
X142249644Y-79025645D01*
X142249642Y-79025644D01*
X142114754Y-78969771D01*
X141970004Y-78950715D01*
X141969998Y-78950715D01*
X141825250Y-78969770D01*
X141690360Y-79025644D01*
X141690358Y-79025645D01*
X141574526Y-79114525D01*
X141485646Y-79230357D01*
X141485645Y-79230359D01*
X141429771Y-79365249D01*
X141410716Y-79509996D01*
X120025900Y-79509996D01*
X120025900Y-76961996D01*
X136092715Y-76961996D01*
X136092715Y-76962003D01*
X136111771Y-77106753D01*
X136167644Y-77241641D01*
X136167645Y-77241643D01*
X136227201Y-77319258D01*
X136234926Y-77348091D01*
X136227201Y-77366741D01*
X136167648Y-77444353D01*
X136167644Y-77444359D01*
X136111770Y-77579249D01*
X136092715Y-77723996D01*
X136092715Y-77724003D01*
X136111771Y-77868753D01*
X136167644Y-78003641D01*
X136167645Y-78003643D01*
X136178476Y-78017758D01*
X136186201Y-78046590D01*
X136178476Y-78065241D01*
X136167648Y-78079352D01*
X136167644Y-78079359D01*
X136111770Y-78214249D01*
X136092715Y-78358996D01*
X136092715Y-78359003D01*
X136111771Y-78503753D01*
X136167644Y-78638641D01*
X136167645Y-78638643D01*
X136256525Y-78754474D01*
X136345406Y-78822674D01*
X136372357Y-78843355D01*
X136507246Y-78899228D01*
X136651997Y-78918285D01*
X136652000Y-78918285D01*
X136652003Y-78918285D01*
X136760565Y-78903992D01*
X136796754Y-78899228D01*
X136931643Y-78843355D01*
X137014213Y-78779996D01*
X154630715Y-78779996D01*
X154630715Y-78780003D01*
X154649771Y-78924753D01*
X154705644Y-79059641D01*
X154705645Y-79059643D01*
X154794525Y-79175474D01*
X154836191Y-79207445D01*
X154866358Y-79230593D01*
X154881282Y-79256444D01*
X154873557Y-79285276D01*
X154866358Y-79292474D01*
X154798527Y-79344523D01*
X154709645Y-79460357D01*
X154709644Y-79460359D01*
X154653770Y-79595249D01*
X154634715Y-79739996D01*
X154634715Y-79740003D01*
X154653771Y-79884753D01*
X154709644Y-80019641D01*
X154709645Y-80019643D01*
X154798525Y-80135474D01*
X154861736Y-80183977D01*
X154914357Y-80224355D01*
X155027581Y-80271254D01*
X155049246Y-80280228D01*
X155193997Y-80299285D01*
X155194000Y-80299285D01*
X155194003Y-80299285D01*
X155302565Y-80284992D01*
X155338754Y-80280228D01*
X155473643Y-80224355D01*
X155589474Y-80135474D01*
X155678355Y-80019643D01*
X155734228Y-79884754D01*
X155745585Y-79798486D01*
X155753285Y-79740003D01*
X155753285Y-79739996D01*
X155734229Y-79595249D01*
X155730367Y-79585926D01*
X155678355Y-79460358D01*
X155652716Y-79426945D01*
X155589474Y-79344525D01*
X155517641Y-79289406D01*
X155502717Y-79263555D01*
X155510442Y-79234723D01*
X155517641Y-79227524D01*
X155585474Y-79175474D01*
X155632242Y-79114525D01*
X155674355Y-79059643D01*
X155730228Y-78924754D01*
X155740944Y-78843355D01*
X155749285Y-78780003D01*
X155749285Y-78779996D01*
X155730229Y-78635249D01*
X155730228Y-78635246D01*
X155674355Y-78500358D01*
X155653674Y-78473406D01*
X155585474Y-78384525D01*
X155469643Y-78295645D01*
X155469641Y-78295644D01*
X155334753Y-78239771D01*
X155190003Y-78220715D01*
X155189997Y-78220715D01*
X155045249Y-78239770D01*
X154910359Y-78295644D01*
X154910357Y-78295645D01*
X154794525Y-78384525D01*
X154705645Y-78500357D01*
X154705644Y-78500359D01*
X154649770Y-78635249D01*
X154630715Y-78779996D01*
X137014213Y-78779996D01*
X137047474Y-78754474D01*
X137136355Y-78638643D01*
X137192228Y-78503754D01*
X137196992Y-78467565D01*
X137211285Y-78359003D01*
X137211285Y-78358996D01*
X137192229Y-78214249D01*
X137136355Y-78079359D01*
X137136354Y-78079357D01*
X137125523Y-78065242D01*
X137117798Y-78036410D01*
X137125524Y-78017757D01*
X137136354Y-78003644D01*
X137136353Y-78003644D01*
X137136355Y-78003643D01*
X137192228Y-77868754D01*
X137211285Y-77724000D01*
X137211285Y-77723996D01*
X137192229Y-77579249D01*
X137136355Y-77444359D01*
X137136354Y-77444357D01*
X137099823Y-77396749D01*
X137076796Y-77366740D01*
X137069072Y-77337910D01*
X137076798Y-77319258D01*
X137136355Y-77241643D01*
X137192228Y-77106754D01*
X137196992Y-77070565D01*
X137211285Y-76962003D01*
X137211285Y-76961996D01*
X137192229Y-76817249D01*
X137190222Y-76812403D01*
X137190219Y-76812396D01*
X144510715Y-76812396D01*
X144510715Y-76812403D01*
X144529771Y-76957153D01*
X144585644Y-77092041D01*
X144585645Y-77092043D01*
X144674525Y-77207874D01*
X144763406Y-77276074D01*
X144790357Y-77296755D01*
X144850867Y-77321819D01*
X144925246Y-77352628D01*
X145069997Y-77371685D01*
X145070000Y-77371685D01*
X145070003Y-77371685D01*
X145178565Y-77357392D01*
X145214754Y-77352628D01*
X145349643Y-77296755D01*
X145465474Y-77207874D01*
X145504059Y-77157588D01*
X145529909Y-77142665D01*
X145558742Y-77150390D01*
X145565941Y-77157589D01*
X145604525Y-77207874D01*
X145693406Y-77276074D01*
X145720357Y-77296755D01*
X145780867Y-77321819D01*
X145855246Y-77352628D01*
X145999997Y-77371685D01*
X146000000Y-77371685D01*
X146000003Y-77371685D01*
X146108565Y-77357392D01*
X146144754Y-77352628D01*
X146279643Y-77296755D01*
X146395474Y-77207874D01*
X146484355Y-77092043D01*
X146540228Y-76957154D01*
X146555985Y-76837467D01*
X146555986Y-76837460D01*
X148973125Y-76837460D01*
X148973125Y-76837467D01*
X148992181Y-76982217D01*
X149048054Y-77117105D01*
X149048055Y-77117107D01*
X149136935Y-77232938D01*
X149220102Y-77296754D01*
X149252767Y-77321819D01*
X149373154Y-77371685D01*
X149387656Y-77377692D01*
X149532407Y-77396749D01*
X149532410Y-77396749D01*
X149532413Y-77396749D01*
X149640975Y-77382456D01*
X149677164Y-77377692D01*
X149812053Y-77321819D01*
X149927884Y-77232938D01*
X150016765Y-77117107D01*
X150072638Y-76982218D01*
X150077402Y-76946029D01*
X150091695Y-76837467D01*
X150091695Y-76837460D01*
X150072639Y-76692713D01*
X150068350Y-76682358D01*
X150016765Y-76557822D01*
X149955243Y-76477645D01*
X149927884Y-76441989D01*
X149812053Y-76353109D01*
X149812051Y-76353108D01*
X149677163Y-76297235D01*
X149532413Y-76278179D01*
X149532407Y-76278179D01*
X149387659Y-76297234D01*
X149252769Y-76353108D01*
X149252767Y-76353109D01*
X149136935Y-76441989D01*
X149048055Y-76557821D01*
X149048054Y-76557823D01*
X148992180Y-76692713D01*
X148973125Y-76837460D01*
X146555986Y-76837460D01*
X146559285Y-76812403D01*
X146559285Y-76812396D01*
X146540229Y-76667649D01*
X146540228Y-76667646D01*
X146484355Y-76532758D01*
X146445510Y-76482134D01*
X146395474Y-76416925D01*
X146279643Y-76328045D01*
X146279641Y-76328044D01*
X146144753Y-76272171D01*
X146000003Y-76253115D01*
X145999997Y-76253115D01*
X145855249Y-76272170D01*
X145720359Y-76328044D01*
X145720357Y-76328045D01*
X145604525Y-76416925D01*
X145565941Y-76467210D01*
X145540090Y-76482134D01*
X145511258Y-76474409D01*
X145504059Y-76467210D01*
X145465474Y-76416925D01*
X145349643Y-76328045D01*
X145349641Y-76328044D01*
X145214753Y-76272171D01*
X145070003Y-76253115D01*
X145069997Y-76253115D01*
X144925249Y-76272170D01*
X144790359Y-76328044D01*
X144790357Y-76328045D01*
X144674525Y-76416925D01*
X144585645Y-76532757D01*
X144585644Y-76532759D01*
X144529770Y-76667649D01*
X144510715Y-76812396D01*
X137190219Y-76812396D01*
X137136355Y-76682358D01*
X137115674Y-76655406D01*
X137047474Y-76566525D01*
X136931643Y-76477645D01*
X136931641Y-76477644D01*
X136796753Y-76421771D01*
X136652003Y-76402715D01*
X136651997Y-76402715D01*
X136507249Y-76421770D01*
X136372359Y-76477644D01*
X136372357Y-76477645D01*
X136256525Y-76566525D01*
X136167645Y-76682357D01*
X136167644Y-76682359D01*
X136111770Y-76817249D01*
X136092715Y-76961996D01*
X120025900Y-76961996D01*
X120025900Y-76308996D01*
X126821715Y-76308996D01*
X126821715Y-76309003D01*
X126840771Y-76453753D01*
X126896644Y-76588641D01*
X126896645Y-76588643D01*
X126985525Y-76704474D01*
X127074406Y-76772674D01*
X127101357Y-76793355D01*
X127207836Y-76837460D01*
X127236246Y-76849228D01*
X127380997Y-76868285D01*
X127381000Y-76868285D01*
X127381003Y-76868285D01*
X127489565Y-76853992D01*
X127525754Y-76849228D01*
X127660643Y-76793355D01*
X127776474Y-76704474D01*
X127865355Y-76588643D01*
X127921228Y-76453754D01*
X127940285Y-76309000D01*
X127940285Y-76308996D01*
X127921229Y-76164249D01*
X127917594Y-76155474D01*
X127865355Y-76029358D01*
X127834879Y-75989641D01*
X127776474Y-75913525D01*
X127660643Y-75824645D01*
X127660641Y-75824644D01*
X127525753Y-75768771D01*
X127381003Y-75749715D01*
X127380997Y-75749715D01*
X127236249Y-75768770D01*
X127101359Y-75824644D01*
X127101357Y-75824645D01*
X126985525Y-75913525D01*
X126896645Y-76029357D01*
X126896644Y-76029359D01*
X126840770Y-76164249D01*
X126821715Y-76308996D01*
X120025900Y-76308996D01*
X120025900Y-75709996D01*
X151240715Y-75709996D01*
X151240715Y-75710003D01*
X151259771Y-75854753D01*
X151315644Y-75989641D01*
X151315645Y-75989643D01*
X151404525Y-76105474D01*
X151481122Y-76164249D01*
X151520357Y-76194355D01*
X151641065Y-76244354D01*
X151655246Y-76250228D01*
X151799997Y-76269285D01*
X151800000Y-76269285D01*
X151800003Y-76269285D01*
X151908565Y-76254992D01*
X151944754Y-76250228D01*
X152079643Y-76194355D01*
X152195474Y-76105474D01*
X152284355Y-75989643D01*
X152340228Y-75854754D01*
X152352702Y-75760003D01*
X152352703Y-75759996D01*
X152990715Y-75759996D01*
X152990715Y-75760003D01*
X153009771Y-75904753D01*
X153065644Y-76039641D01*
X153065645Y-76039643D01*
X153154525Y-76155474D01*
X153205195Y-76194354D01*
X153270357Y-76244355D01*
X153398018Y-76297234D01*
X153405246Y-76300228D01*
X153549997Y-76319285D01*
X153550000Y-76319285D01*
X153550003Y-76319285D01*
X153658565Y-76304992D01*
X153694754Y-76300228D01*
X153829643Y-76244355D01*
X153945474Y-76155474D01*
X154034355Y-76039643D01*
X154090228Y-75904754D01*
X154096811Y-75854753D01*
X154109285Y-75760003D01*
X154109285Y-75759996D01*
X154090229Y-75615249D01*
X154034355Y-75480359D01*
X154034354Y-75480357D01*
X153945474Y-75364525D01*
X153829643Y-75275645D01*
X153829641Y-75275644D01*
X153694753Y-75219771D01*
X153550003Y-75200715D01*
X153549997Y-75200715D01*
X153405249Y-75219770D01*
X153270359Y-75275644D01*
X153270357Y-75275645D01*
X153154525Y-75364525D01*
X153065645Y-75480357D01*
X153065644Y-75480359D01*
X153009770Y-75615249D01*
X152990715Y-75759996D01*
X152352703Y-75759996D01*
X152359285Y-75710003D01*
X152359285Y-75709996D01*
X152340229Y-75565249D01*
X152284355Y-75430359D01*
X152284354Y-75430357D01*
X152195474Y-75314525D01*
X152079643Y-75225645D01*
X152079641Y-75225644D01*
X151944753Y-75169771D01*
X151800003Y-75150715D01*
X151799997Y-75150715D01*
X151655249Y-75169770D01*
X151520359Y-75225644D01*
X151520357Y-75225645D01*
X151404525Y-75314525D01*
X151315645Y-75430357D01*
X151315644Y-75430359D01*
X151259770Y-75565249D01*
X151240715Y-75709996D01*
X120025900Y-75709996D01*
X120025900Y-71000990D01*
X120025926Y-71000000D01*
X120240465Y-71000000D01*
X120260584Y-71332626D01*
X120260585Y-71332630D01*
X120320651Y-71660400D01*
X120419787Y-71978538D01*
X120419789Y-71978545D01*
X120556552Y-72282418D01*
X120556553Y-72282420D01*
X120728947Y-72567595D01*
X120934458Y-72829910D01*
X121170090Y-73065542D01*
X121432405Y-73271053D01*
X121717580Y-73443447D01*
X121770233Y-73467144D01*
X122021454Y-73580210D01*
X122021461Y-73580212D01*
X122339599Y-73679348D01*
X122667369Y-73739414D01*
X122667373Y-73739415D01*
X122703270Y-73741586D01*
X123000000Y-73759535D01*
X123313653Y-73740562D01*
X123332626Y-73739415D01*
X123332630Y-73739414D01*
X123660400Y-73679348D01*
X123978540Y-73580212D01*
X123978542Y-73580210D01*
X123978545Y-73580210D01*
X123997591Y-73571637D01*
X124027426Y-73570735D01*
X124049161Y-73591193D01*
X124050064Y-73621029D01*
X124044539Y-73630942D01*
X124013148Y-73671852D01*
X124013144Y-73671859D01*
X123957270Y-73806749D01*
X123938215Y-73951496D01*
X123938215Y-73951503D01*
X123957271Y-74096253D01*
X124013144Y-74231141D01*
X124013145Y-74231143D01*
X124102025Y-74346974D01*
X124177324Y-74404753D01*
X124217857Y-74435855D01*
X124352746Y-74491728D01*
X124497497Y-74510785D01*
X124497500Y-74510785D01*
X124497503Y-74510785D01*
X124606065Y-74496492D01*
X124642254Y-74491728D01*
X124777143Y-74435855D01*
X124892974Y-74346974D01*
X124959715Y-74259996D01*
X146460715Y-74259996D01*
X146460715Y-74260003D01*
X146479771Y-74404753D01*
X146535644Y-74539641D01*
X146535645Y-74539643D01*
X146624525Y-74655474D01*
X146713406Y-74723674D01*
X146740357Y-74744355D01*
X146820393Y-74777507D01*
X146875246Y-74800228D01*
X147019997Y-74819285D01*
X147020000Y-74819285D01*
X147020003Y-74819285D01*
X147128565Y-74804992D01*
X147164754Y-74800228D01*
X147299643Y-74744355D01*
X147299643Y-74744354D01*
X147302004Y-74743377D01*
X147302371Y-74744265D01*
X147328626Y-74740798D01*
X147349488Y-74754732D01*
X147366966Y-74777509D01*
X147482797Y-74866390D01*
X147617686Y-74922263D01*
X147762437Y-74941320D01*
X147762440Y-74941320D01*
X147762443Y-74941320D01*
X147871005Y-74927027D01*
X147907194Y-74922263D01*
X148042083Y-74866390D01*
X148157914Y-74777509D01*
X148246795Y-74661678D01*
X148302668Y-74526789D01*
X148321725Y-74382035D01*
X148321725Y-74382031D01*
X148302669Y-74237284D01*
X148302668Y-74237281D01*
X148246795Y-74102393D01*
X148210793Y-74055474D01*
X148157914Y-73986560D01*
X148042083Y-73897680D01*
X148042081Y-73897679D01*
X147907193Y-73841806D01*
X147762443Y-73822750D01*
X147762437Y-73822750D01*
X147617689Y-73841805D01*
X147480437Y-73898658D01*
X147480073Y-73897780D01*
X147453775Y-73901226D01*
X147432951Y-73887302D01*
X147415475Y-73864527D01*
X147415472Y-73864525D01*
X147299643Y-73775645D01*
X147299641Y-73775644D01*
X147164753Y-73719771D01*
X147020003Y-73700715D01*
X147019997Y-73700715D01*
X146875249Y-73719770D01*
X146740359Y-73775644D01*
X146740357Y-73775645D01*
X146624525Y-73864525D01*
X146535645Y-73980357D01*
X146535644Y-73980359D01*
X146479770Y-74115249D01*
X146460715Y-74259996D01*
X124959715Y-74259996D01*
X124981855Y-74231143D01*
X125037728Y-74096254D01*
X125052169Y-73986561D01*
X125056785Y-73951503D01*
X125056785Y-73951496D01*
X125037729Y-73806749D01*
X125009838Y-73739414D01*
X124981855Y-73671858D01*
X124911533Y-73580212D01*
X124892974Y-73556025D01*
X124777143Y-73467145D01*
X124777141Y-73467144D01*
X124642253Y-73411271D01*
X124500724Y-73392639D01*
X124474873Y-73377715D01*
X124467148Y-73348883D01*
X124482072Y-73323032D01*
X124485630Y-73320601D01*
X124567595Y-73271053D01*
X124829910Y-73065542D01*
X125065542Y-72829910D01*
X125271053Y-72567595D01*
X125301641Y-72516996D01*
X140410715Y-72516996D01*
X140410715Y-72517003D01*
X140429771Y-72661753D01*
X140485644Y-72796641D01*
X140485645Y-72796643D01*
X140574525Y-72912474D01*
X140654336Y-72973715D01*
X140690357Y-73001355D01*
X140759378Y-73029944D01*
X140813756Y-73052469D01*
X140834862Y-73073575D01*
X140834862Y-73103425D01*
X140813756Y-73124531D01*
X140690359Y-73175644D01*
X140690357Y-73175645D01*
X140574525Y-73264525D01*
X140485645Y-73380357D01*
X140485644Y-73380359D01*
X140429770Y-73515249D01*
X140410715Y-73659996D01*
X140410715Y-73660003D01*
X140429771Y-73804753D01*
X140485644Y-73939641D01*
X140485645Y-73939643D01*
X140574525Y-74055474D01*
X140635673Y-74102394D01*
X140690357Y-74144355D01*
X140825246Y-74200228D01*
X140969997Y-74219285D01*
X140970000Y-74219285D01*
X140970003Y-74219285D01*
X141078565Y-74204992D01*
X141114754Y-74200228D01*
X141249643Y-74144355D01*
X141365474Y-74055474D01*
X141454355Y-73939643D01*
X141510228Y-73804754D01*
X141529285Y-73660000D01*
X141529285Y-73659996D01*
X141512565Y-73532996D01*
X152963715Y-73532996D01*
X152963715Y-73533003D01*
X152982771Y-73677753D01*
X153038644Y-73812641D01*
X153038645Y-73812643D01*
X153127525Y-73928474D01*
X153203226Y-73986561D01*
X153243357Y-74017355D01*
X153335384Y-74055474D01*
X153378246Y-74073228D01*
X153522997Y-74092285D01*
X153523000Y-74092285D01*
X153523003Y-74092285D01*
X153631565Y-74077992D01*
X153667754Y-74073228D01*
X153802643Y-74017355D01*
X153918474Y-73928474D01*
X154007355Y-73812643D01*
X154063228Y-73677754D01*
X154074624Y-73591193D01*
X154082285Y-73533003D01*
X154082285Y-73532996D01*
X154063229Y-73388249D01*
X154059961Y-73380359D01*
X154007355Y-73253358D01*
X153947723Y-73175644D01*
X153918474Y-73137525D01*
X153802643Y-73048645D01*
X153802641Y-73048644D01*
X153667753Y-72992771D01*
X153523003Y-72973715D01*
X153522997Y-72973715D01*
X153378249Y-72992770D01*
X153243359Y-73048644D01*
X153243357Y-73048645D01*
X153127525Y-73137525D01*
X153038645Y-73253357D01*
X153038644Y-73253359D01*
X152982770Y-73388249D01*
X152963715Y-73532996D01*
X141512565Y-73532996D01*
X141510229Y-73515249D01*
X141495672Y-73480106D01*
X141454355Y-73380358D01*
X141408499Y-73320597D01*
X141365474Y-73264525D01*
X141249643Y-73175645D01*
X141249641Y-73175644D01*
X141126244Y-73124531D01*
X141105138Y-73103425D01*
X141105138Y-73073575D01*
X141126244Y-73052469D01*
X141161115Y-73038024D01*
X141249643Y-73001355D01*
X141365474Y-72912474D01*
X141454355Y-72796643D01*
X141510228Y-72661754D01*
X141529285Y-72517000D01*
X141529285Y-72516996D01*
X141510229Y-72372249D01*
X141510228Y-72372246D01*
X141454355Y-72237358D01*
X141422216Y-72195474D01*
X141365474Y-72121525D01*
X141249643Y-72032645D01*
X141249641Y-72032644D01*
X141114753Y-71976771D01*
X140970003Y-71957715D01*
X140969997Y-71957715D01*
X140825249Y-71976770D01*
X140690359Y-72032644D01*
X140690357Y-72032645D01*
X140574525Y-72121525D01*
X140485645Y-72237357D01*
X140485644Y-72237359D01*
X140429770Y-72372249D01*
X140410715Y-72516996D01*
X125301641Y-72516996D01*
X125443447Y-72282420D01*
X125580210Y-71978545D01*
X125598455Y-71919996D01*
X138890715Y-71919996D01*
X138890715Y-71920003D01*
X138909771Y-72064753D01*
X138965644Y-72199641D01*
X138965645Y-72199643D01*
X139054525Y-72315474D01*
X139111621Y-72359285D01*
X139170357Y-72404355D01*
X139305246Y-72460228D01*
X139449997Y-72479285D01*
X139450000Y-72479285D01*
X139450003Y-72479285D01*
X139558565Y-72464992D01*
X139594754Y-72460228D01*
X139729643Y-72404355D01*
X139845474Y-72315474D01*
X139934355Y-72199643D01*
X139990228Y-72064754D01*
X139994992Y-72028565D01*
X140009285Y-71920003D01*
X140009285Y-71919996D01*
X139993487Y-71799996D01*
X147360715Y-71799996D01*
X147360715Y-71800003D01*
X147379771Y-71944753D01*
X147435644Y-72079641D01*
X147435645Y-72079643D01*
X147524525Y-72195474D01*
X147579111Y-72237359D01*
X147640357Y-72284355D01*
X147715485Y-72315474D01*
X147775246Y-72340228D01*
X147919997Y-72359285D01*
X147920000Y-72359285D01*
X147920003Y-72359285D01*
X148028565Y-72344992D01*
X148064754Y-72340228D01*
X148199643Y-72284355D01*
X148315474Y-72195474D01*
X148404355Y-72079643D01*
X148460228Y-71944754D01*
X148474762Y-71834355D01*
X148477969Y-71809996D01*
X149120715Y-71809996D01*
X149120715Y-71810003D01*
X149139771Y-71954753D01*
X149195644Y-72089641D01*
X149195645Y-72089643D01*
X149284525Y-72205474D01*
X149373406Y-72273674D01*
X149400357Y-72294355D01*
X149451343Y-72315474D01*
X149535246Y-72350228D01*
X149679997Y-72369285D01*
X149680000Y-72369285D01*
X149680003Y-72369285D01*
X149788565Y-72354992D01*
X149824754Y-72350228D01*
X149959643Y-72294355D01*
X150075474Y-72205474D01*
X150164355Y-72089643D01*
X150220228Y-71954754D01*
X150239285Y-71810000D01*
X150239285Y-71809996D01*
X150220229Y-71665249D01*
X150220228Y-71665246D01*
X150164355Y-71530358D01*
X150137034Y-71494753D01*
X150075474Y-71414525D01*
X149959643Y-71325645D01*
X149959641Y-71325644D01*
X149824753Y-71269771D01*
X149680003Y-71250715D01*
X149679997Y-71250715D01*
X149535249Y-71269770D01*
X149400359Y-71325644D01*
X149400357Y-71325645D01*
X149284525Y-71414525D01*
X149195645Y-71530357D01*
X149195644Y-71530359D01*
X149139770Y-71665249D01*
X149120715Y-71809996D01*
X148477969Y-71809996D01*
X148479285Y-71800003D01*
X148479285Y-71799996D01*
X148460229Y-71655249D01*
X148460228Y-71655246D01*
X148404355Y-71520358D01*
X148383674Y-71493406D01*
X148315474Y-71404525D01*
X148199643Y-71315645D01*
X148199641Y-71315644D01*
X148064753Y-71259771D01*
X147920003Y-71240715D01*
X147919997Y-71240715D01*
X147775249Y-71259770D01*
X147640359Y-71315644D01*
X147640357Y-71315645D01*
X147524525Y-71404525D01*
X147435645Y-71520357D01*
X147435644Y-71520359D01*
X147379770Y-71655249D01*
X147360715Y-71799996D01*
X139993487Y-71799996D01*
X139990229Y-71775249D01*
X139944664Y-71665246D01*
X139934355Y-71640358D01*
X139913674Y-71613406D01*
X139845474Y-71524525D01*
X139729643Y-71435645D01*
X139729641Y-71435644D01*
X139594753Y-71379771D01*
X139450003Y-71360715D01*
X139449997Y-71360715D01*
X139305249Y-71379770D01*
X139170359Y-71435644D01*
X139170357Y-71435645D01*
X139054525Y-71524525D01*
X138965645Y-71640357D01*
X138965644Y-71640359D01*
X138909770Y-71775249D01*
X138890715Y-71919996D01*
X125598455Y-71919996D01*
X125679348Y-71660400D01*
X125736232Y-71349996D01*
X132960715Y-71349996D01*
X132960715Y-71350003D01*
X132979771Y-71494753D01*
X133035644Y-71629641D01*
X133035645Y-71629643D01*
X133124525Y-71745474D01*
X133163325Y-71775246D01*
X133240357Y-71834355D01*
X133375246Y-71890228D01*
X133519997Y-71909285D01*
X133520000Y-71909285D01*
X133520003Y-71909285D01*
X133628565Y-71894992D01*
X133664754Y-71890228D01*
X133799643Y-71834355D01*
X133915474Y-71745474D01*
X134004355Y-71629643D01*
X134060228Y-71494754D01*
X134072107Y-71404525D01*
X134079285Y-71350003D01*
X134079285Y-71349996D01*
X134060229Y-71205249D01*
X134004355Y-71070359D01*
X134004354Y-71070357D01*
X133915474Y-70954525D01*
X133805313Y-70869996D01*
X142990715Y-70869996D01*
X142990715Y-70870003D01*
X143009771Y-71014753D01*
X143065644Y-71149641D01*
X143065645Y-71149643D01*
X143154525Y-71265474D01*
X143232940Y-71325644D01*
X143270357Y-71354355D01*
X143331719Y-71379772D01*
X143405246Y-71410228D01*
X143549997Y-71429285D01*
X143550000Y-71429285D01*
X143550003Y-71429285D01*
X143662115Y-71414525D01*
X143694754Y-71410228D01*
X143829643Y-71354355D01*
X143945474Y-71265474D01*
X144034355Y-71149643D01*
X144090228Y-71014754D01*
X144109285Y-70870000D01*
X144109285Y-70869996D01*
X144107968Y-70859996D01*
X153750715Y-70859996D01*
X153750715Y-70860003D01*
X153769771Y-71004753D01*
X153825644Y-71139641D01*
X153825645Y-71139643D01*
X153914525Y-71255474D01*
X153933159Y-71269772D01*
X154030357Y-71344355D01*
X154115859Y-71379771D01*
X154165246Y-71400228D01*
X154309997Y-71419285D01*
X154310000Y-71419285D01*
X154310003Y-71419285D01*
X154422115Y-71404525D01*
X154454754Y-71400228D01*
X154589643Y-71344355D01*
X154705474Y-71255474D01*
X154794355Y-71139643D01*
X154850228Y-71004754D01*
X154850854Y-71000000D01*
X156240465Y-71000000D01*
X156260584Y-71332626D01*
X156260585Y-71332630D01*
X156320651Y-71660400D01*
X156419787Y-71978538D01*
X156419789Y-71978545D01*
X156556552Y-72282418D01*
X156556553Y-72282420D01*
X156728947Y-72567595D01*
X156934458Y-72829910D01*
X157170090Y-73065542D01*
X157432405Y-73271053D01*
X157717580Y-73443447D01*
X157770233Y-73467144D01*
X158021454Y-73580210D01*
X158021461Y-73580212D01*
X158339599Y-73679348D01*
X158667369Y-73739414D01*
X158667373Y-73739415D01*
X158703270Y-73741586D01*
X159000000Y-73759535D01*
X159313653Y-73740562D01*
X159332626Y-73739415D01*
X159332630Y-73739414D01*
X159660400Y-73679348D01*
X159684439Y-73671857D01*
X159978545Y-73580210D01*
X160282420Y-73443447D01*
X160567595Y-73271053D01*
X160829910Y-73065542D01*
X161065542Y-72829910D01*
X161271053Y-72567595D01*
X161443447Y-72282420D01*
X161580210Y-71978545D01*
X161679348Y-71660400D01*
X161739415Y-71332625D01*
X161759535Y-71000000D01*
X161739415Y-70667375D01*
X161702242Y-70464526D01*
X161679348Y-70339599D01*
X161580212Y-70021461D01*
X161580210Y-70021454D01*
X161511828Y-69869517D01*
X161443447Y-69717580D01*
X161271053Y-69432405D01*
X161065542Y-69170090D01*
X160829910Y-68934458D01*
X160567595Y-68728947D01*
X160282420Y-68556553D01*
X160282418Y-68556552D01*
X159978545Y-68419789D01*
X159978538Y-68419787D01*
X159660400Y-68320651D01*
X159332630Y-68260585D01*
X159332626Y-68260584D01*
X159000000Y-68240465D01*
X158667373Y-68260584D01*
X158667369Y-68260585D01*
X158339599Y-68320651D01*
X158021461Y-68419787D01*
X158021454Y-68419789D01*
X157717581Y-68556552D01*
X157432405Y-68728947D01*
X157170093Y-68934455D01*
X157170087Y-68934460D01*
X156934460Y-69170087D01*
X156934455Y-69170093D01*
X156728947Y-69432405D01*
X156556552Y-69717581D01*
X156419789Y-70021454D01*
X156419787Y-70021461D01*
X156320651Y-70339599D01*
X156260585Y-70667369D01*
X156260584Y-70667373D01*
X156240465Y-71000000D01*
X154850854Y-71000000D01*
X154867968Y-70870003D01*
X154869285Y-70860003D01*
X154869285Y-70859996D01*
X154850229Y-70715249D01*
X154830396Y-70667369D01*
X154794355Y-70580358D01*
X154752641Y-70525995D01*
X154705474Y-70464525D01*
X154589643Y-70375645D01*
X154589641Y-70375644D01*
X154454753Y-70319771D01*
X154310003Y-70300715D01*
X154309997Y-70300715D01*
X154165249Y-70319770D01*
X154030359Y-70375644D01*
X154030357Y-70375645D01*
X153914525Y-70464525D01*
X153825645Y-70580357D01*
X153825644Y-70580359D01*
X153769770Y-70715249D01*
X153750715Y-70859996D01*
X144107968Y-70859996D01*
X144090229Y-70725249D01*
X144074427Y-70687100D01*
X144034355Y-70590358D01*
X143984968Y-70525995D01*
X143945474Y-70474525D01*
X143829643Y-70385645D01*
X143829641Y-70385644D01*
X143694753Y-70329771D01*
X143550003Y-70310715D01*
X143549997Y-70310715D01*
X143405249Y-70329770D01*
X143270359Y-70385644D01*
X143270357Y-70385645D01*
X143154525Y-70474525D01*
X143065645Y-70590357D01*
X143065644Y-70590359D01*
X143009770Y-70725249D01*
X142990715Y-70869996D01*
X133805313Y-70869996D01*
X133799643Y-70865645D01*
X133799641Y-70865644D01*
X133664753Y-70809771D01*
X133520003Y-70790715D01*
X133519997Y-70790715D01*
X133375249Y-70809770D01*
X133240359Y-70865644D01*
X133240357Y-70865645D01*
X133124525Y-70954525D01*
X133035645Y-71070357D01*
X133035644Y-71070359D01*
X132979770Y-71205249D01*
X132960715Y-71349996D01*
X125736232Y-71349996D01*
X125739415Y-71332625D01*
X125759535Y-71000000D01*
X125739415Y-70667375D01*
X125702242Y-70464526D01*
X125679348Y-70339599D01*
X125580212Y-70021461D01*
X125580210Y-70021454D01*
X125511828Y-69869517D01*
X125443447Y-69717580D01*
X125271053Y-69432405D01*
X125065542Y-69170090D01*
X124829910Y-68934458D01*
X124567595Y-68728947D01*
X124282420Y-68556553D01*
X124282418Y-68556552D01*
X123978545Y-68419789D01*
X123978538Y-68419787D01*
X123660400Y-68320651D01*
X123332630Y-68260585D01*
X123332626Y-68260584D01*
X123000000Y-68240465D01*
X122667373Y-68260584D01*
X122667369Y-68260585D01*
X122339599Y-68320651D01*
X122021461Y-68419787D01*
X122021454Y-68419789D01*
X121717581Y-68556552D01*
X121432405Y-68728947D01*
X121170093Y-68934455D01*
X121170087Y-68934460D01*
X120934460Y-69170087D01*
X120934455Y-69170093D01*
X120728947Y-69432405D01*
X120556552Y-69717581D01*
X120419789Y-70021454D01*
X120419787Y-70021461D01*
X120320651Y-70339599D01*
X120260585Y-70667369D01*
X120260584Y-70667373D01*
X120240465Y-71000000D01*
X120025926Y-71000000D01*
X120025951Y-70999027D01*
X120042086Y-70691156D01*
X120042513Y-70687100D01*
X120045637Y-70667375D01*
X120090574Y-70383653D01*
X120091418Y-70379686D01*
X120170937Y-70082919D01*
X120172191Y-70079057D01*
X120282295Y-69792225D01*
X120283954Y-69788501D01*
X120320090Y-69717581D01*
X120423432Y-69514761D01*
X120425462Y-69511246D01*
X120592792Y-69253578D01*
X120595178Y-69250292D01*
X120788541Y-69011510D01*
X120791254Y-69008498D01*
X121008498Y-68791254D01*
X121011510Y-68788541D01*
X121250292Y-68595178D01*
X121253583Y-68592789D01*
X121511246Y-68425462D01*
X121514761Y-68423432D01*
X121788506Y-68283951D01*
X121792225Y-68282295D01*
X122079057Y-68172191D01*
X122082919Y-68170937D01*
X122379686Y-68091418D01*
X122383653Y-68090574D01*
X122687104Y-68042512D01*
X122691156Y-68042086D01*
X122998989Y-68025954D01*
X123001030Y-68025901D01*
X123016171Y-68025901D01*
X123016175Y-68025900D01*
X158991585Y-68025900D01*
X158998970Y-68025900D01*
X159001011Y-68025953D01*
G37*
%TD.AperFunction*%
%TD*%
%TA.AperFunction,Conductor*%
%TO.N,/DRV8323RSRGZR/PHASA*%
G36*
X133238577Y-100761423D02*
G01*
X133250000Y-100789000D01*
X133250000Y-109935100D01*
X133238577Y-109962677D01*
X133211000Y-109974100D01*
X123001030Y-109974100D01*
X122998989Y-109974047D01*
X122691160Y-109957914D01*
X122687100Y-109957487D01*
X122383666Y-109909428D01*
X122379673Y-109908579D01*
X122082930Y-109829066D01*
X122079048Y-109827805D01*
X122025024Y-109807067D01*
X122003372Y-109786520D01*
X122000000Y-109770657D01*
X122000000Y-109626526D01*
X122011423Y-109598949D01*
X122039000Y-109587526D01*
X122050597Y-109589291D01*
X122264336Y-109655894D01*
X122339599Y-109679348D01*
X122667369Y-109739414D01*
X122667373Y-109739415D01*
X122703270Y-109741586D01*
X123000000Y-109759535D01*
X123313653Y-109740562D01*
X123332626Y-109739415D01*
X123332630Y-109739414D01*
X123455071Y-109716976D01*
X123660400Y-109679348D01*
X123978545Y-109580210D01*
X124282420Y-109443447D01*
X124567595Y-109271053D01*
X124829910Y-109065542D01*
X125065542Y-108829910D01*
X125271053Y-108567595D01*
X125443447Y-108282420D01*
X125580210Y-107978545D01*
X125679348Y-107660400D01*
X125739415Y-107332625D01*
X125759535Y-107000000D01*
X125739415Y-106667375D01*
X125679348Y-106339600D01*
X125580210Y-106021455D01*
X125443447Y-105717580D01*
X125271053Y-105432405D01*
X125065542Y-105170090D01*
X124829910Y-104934458D01*
X124567595Y-104728947D01*
X124282420Y-104556553D01*
X124282418Y-104556552D01*
X123978545Y-104419789D01*
X123978538Y-104419787D01*
X123660400Y-104320651D01*
X123332630Y-104260585D01*
X123332626Y-104260584D01*
X123000000Y-104240465D01*
X122667373Y-104260584D01*
X122667369Y-104260585D01*
X122339599Y-104320651D01*
X122050603Y-104410706D01*
X122020876Y-104408005D01*
X122001766Y-104385075D01*
X122000000Y-104373472D01*
X122000000Y-102289000D01*
X122011423Y-102261423D01*
X122039000Y-102250000D01*
X128000000Y-102250000D01*
X128000000Y-100789000D01*
X128011423Y-100761423D01*
X128039000Y-100750000D01*
X133211000Y-100750000D01*
X133238577Y-100761423D01*
G37*
%TD.AperFunction*%
%TD*%
%TA.AperFunction,Conductor*%
%TO.N,/DRV8323RSRGZR/PHASC*%
G36*
X155943039Y-99519685D02*
G01*
X155988794Y-99572489D01*
X156000000Y-99624000D01*
X156000000Y-109850100D01*
X155980315Y-109917139D01*
X155927511Y-109962894D01*
X155876000Y-109974100D01*
X144624000Y-109974100D01*
X144556961Y-109954415D01*
X144511206Y-109901611D01*
X144500000Y-109850100D01*
X144500000Y-104124000D01*
X144519685Y-104056961D01*
X144572489Y-104011206D01*
X144624000Y-104000000D01*
X150000000Y-104000000D01*
X150000000Y-99624000D01*
X150019685Y-99556961D01*
X150072489Y-99511206D01*
X150124000Y-99500000D01*
X155876000Y-99500000D01*
X155943039Y-99519685D01*
G37*
%TD.AperFunction*%
%TD*%
M02*
