M48
; DRILL file {KiCad 8.0.4-8.0.4-0~ubuntu24.04.1} date 2024-08-03T15:04:34+0800
; FORMAT={-:-/ absolute / inch / decimal}
; #@! TF.CreationDate,2024-08-03T15:04:34+08:00
; #@! TF.GenerationSoftware,Kicad,Pcbnew,8.0.4-8.0.4-0~ubuntu24.04.1
; #@! TF.FileFunction,Plated,1,4,PTH
FMAT,2
INCH
; #@! TA.AperFunction,Plated,PTH,ViaDrill
T1C0.0118
; #@! TA.AperFunction,Plated,PTH,ViaDrill
T2C0.0157
; #@! TA.AperFunction,Plated,PTH,ComponentDrill
T3C0.0197
; #@! TA.AperFunction,Plated,PTH,ComponentDrill
T4C0.0394
; #@! TA.AperFunction,Plated,PTH,ComponentDrill
T5C0.0984
%
G90
G05
T1
X4.75Y-3.69
X4.785Y-3.69
X4.8135Y-3.5465
X4.8228Y-4.0453
X4.825Y-3.875
X4.825Y-3.915
X4.825Y-3.955
X4.825Y-3.995
X4.825Y-4.085
X4.8476Y-3.3362
X4.848Y-3.3004
X4.855Y-3.69
X4.865Y-3.53
X4.865Y-3.575
X4.875Y-3.875
X4.875Y-3.915
X4.875Y-3.955
X4.875Y-3.995
X4.875Y-4.045
X4.875Y-4.085
X4.89Y-3.69
X4.9015Y-2.9115
X4.925Y-3.69
X4.925Y-3.875
X4.925Y-3.915
X4.925Y-3.955
X4.925Y-3.995
X4.925Y-4.045
X4.925Y-4.085
X4.944Y-3.38
X4.96Y-3.69
X4.975Y-3.875
X4.975Y-3.915
X4.975Y-3.955
X4.975Y-3.995
X5.015Y-3.0043
X5.0154Y-2.9078
X5.0591Y-2.8083
X5.0594Y-3.1008
X5.06Y-4.07
X5.06Y-4.11
X5.0899Y-3.5235
X5.1Y-3.4
X5.1Y-3.825
X5.1Y-3.86
X5.1043Y-3.276
X5.11Y-4.07
X5.11Y-4.11
X5.1107Y-3.2454
X5.1198Y-3.2172
X5.12Y-3.7
X5.12Y-3.73
X5.125Y-3.375
X5.125Y-3.425
X5.13Y-3.825
X5.13Y-3.86
X5.1492Y-3.2139
X5.15Y-3.35
X5.15Y-3.4
X5.15Y-3.45
X5.15Y-3.7
X5.15Y-3.73
X5.16Y-3.86
X5.16Y-4.07
X5.16Y-4.11
X5.1628Y-3.1876
X5.175Y-3.325
X5.175Y-3.375
X5.175Y-3.425
X5.175Y-3.475
X5.185Y-3.7
X5.185Y-3.73
X5.19Y-3.825
X5.19Y-3.86
X5.1903Y-3.1759
X5.2Y-3.3
X5.2Y-3.35
X5.2Y-3.4
X5.2Y-3.45
X5.2Y-3.5
X5.21Y-4.07
X5.21Y-4.11
X5.215Y-3.7
X5.215Y-3.73
X5.22Y-2.985
X5.22Y-3.825
X5.22Y-3.86
X5.225Y-3.275
X5.225Y-3.325
X5.225Y-3.375
X5.225Y-3.425
X5.225Y-3.475
X5.225Y-3.525
X5.2449Y-3.6047
X5.25Y-3.3
X5.25Y-3.35
X5.25Y-3.4
X5.25Y-3.45
X5.25Y-3.5
X5.2567Y-2.8091
X5.2747Y-3.5843
X5.275Y-3.325
X5.275Y-3.375
X5.275Y-3.425
X5.275Y-3.475
X5.285Y-4.07
X5.285Y-4.11
X5.2953Y-2.8094
X5.3Y-3.35
X5.3Y-3.4
X5.3Y-3.45
X5.3166Y-3.5866
X5.325Y-3.375
X5.325Y-3.425
X5.33Y-3.825
X5.33Y-3.855
X5.335Y-4.07
X5.335Y-4.11
X5.3376Y-3.6076
X5.35Y-3.4
X5.35Y-3.7
X5.35Y-3.73
X5.36Y-3.825
X5.36Y-3.855
X5.3729Y-3.2767
X5.375Y-3.2347
X5.38Y-3.03
X5.38Y-3.06
X5.38Y-3.085
X5.38Y-3.7
X5.38Y-3.73
X5.385Y-4.07
X5.385Y-4.11
X5.39Y-3.825
X5.39Y-3.855
X5.3933Y-3.2982
X5.3968Y-3.2557
X5.415Y-3.7
X5.415Y-3.73
X5.4195Y-3.4015
X5.425Y-3.825
X5.425Y-3.855
X5.435Y-4.07
X5.435Y-4.11
X5.445Y-3.73
X5.4646Y-3.3657
X5.465Y-3.2539
X5.4902Y-2.8315
X5.4906Y-3.4086
X5.495Y-3.565
X5.5Y-3.7
X5.5Y-3.73
X5.505Y-3.945
X5.505Y-3.985
X5.505Y-4.025
X5.505Y-4.065
X5.505Y-4.115
X5.505Y-4.16
X5.525Y-3.47
X5.53Y-3.7
X5.53Y-3.73
X5.55Y-2.855
X5.55Y-2.9
X5.555Y-3.945
X5.555Y-3.985
X5.555Y-4.025
X5.555Y-4.065
X5.555Y-4.115
X5.555Y-4.16
X5.56Y-3.7
X5.56Y-3.73
X5.5649Y-3.4496
X5.565Y-3.4199
X5.5656Y-3.4792
X5.5713Y-3.5087
X5.5719Y-3.5384
X5.5894Y-3.1303
X5.59Y-3.7
X5.59Y-3.73
X5.605Y-3.945
X5.605Y-3.985
X5.605Y-4.025
X5.605Y-4.065
X5.605Y-4.115
X5.605Y-4.16
X5.6063Y-3.1845
X5.6074Y-3.3756
X5.6163Y-3.1426
X5.62Y-3.7
X5.62Y-3.73
X5.6325Y-3.1983
X5.6354Y-3.2432
X5.637Y-3.3767
X5.6434Y-3.1546
X5.6491Y-3.0241
X5.65Y-3.7
X5.65Y-3.73
X5.6516Y-2.7902
X5.6532Y-3.2195
X5.655Y-3.945
X5.655Y-3.985
X5.655Y-4.025
X5.655Y-4.065
X5.6697Y-3.2461
X5.6918Y-3.3029
X5.7114Y-3.0241
X5.715Y-3.7
X5.715Y-3.73
X5.7205Y-3.3101
X5.725Y-3.57
X5.725Y-3.945
X5.725Y-3.985
X5.725Y-4.025
X5.725Y-4.065
X5.725Y-4.115
X5.725Y-4.16
X5.7252Y-3.5043
X5.745Y-3.7
X5.745Y-3.73
X5.748Y-3.0241
X5.76Y-2.855
X5.775Y-3.7
X5.775Y-3.73
X5.775Y-3.945
X5.775Y-3.985
X5.775Y-4.025
X5.775Y-4.065
X5.775Y-4.115
X5.775Y-4.16
X5.785Y-3.5573
X5.7882Y-2.9236
X5.805Y-3.7
X5.805Y-3.73
X5.8174Y-2.9284
X5.8236Y-2.8268
X5.825Y-3.945
X5.825Y-3.985
X5.825Y-4.025
X5.825Y-4.065
X5.825Y-4.115
X5.825Y-4.16
X5.835Y-3.7
X5.835Y-3.73
X5.865Y-3.7
X5.865Y-3.73
X5.8728Y-3.1307
X5.875Y-2.855
X5.875Y-3.945
X5.875Y-3.985
X5.875Y-4.025
X5.875Y-4.065
X5.8858Y-3.3732
X5.8871Y-3.0251
X5.8904Y-3.1546
X5.8929Y-2.8272
X5.91Y-3.515
X5.924Y-3.2299
X5.9476Y-3.3925
X5.955Y-3.93
X5.955Y-3.9665
X5.9764Y-2.9807
X6.005Y-3.875
X6.005Y-3.93
X6.005Y-3.9665
X6.013Y-3.4748
X6.026Y-3.4299
X6.0294Y-3.2585
X6.0442Y-2.895
X6.0453Y-2.9827
X6.0453Y-3.0909
X6.0457Y-2.9398
X6.05Y-3.37
X6.05Y-3.83
X6.055Y-3.875
X6.055Y-3.93
X6.055Y-3.9665
X6.0752Y-2.7898
X6.1Y-3.57
X6.105Y-3.83
X6.105Y-3.875
X6.105Y-3.93
X6.105Y-3.9665
X6.1098Y-3.1016
X6.11Y-3.1394
X6.13Y-3.34
X6.13Y-3.57
X6.1508Y-3.422
X6.245Y-3.2591
X6.245Y-3.295
X6.2461Y-3.2197
X6.2465Y-3.1803
T2
X5.165Y-3.03
T3
X4.7687Y-2.7953
X4.7687Y-4.2126
X4.7903Y-2.7431
X4.7903Y-2.8475
X4.7903Y-4.1604
X4.7903Y-4.2648
X4.8425Y-2.7215
X4.8425Y-2.8691
X4.8425Y-4.1388
X4.8425Y-4.2864
X4.8947Y-2.7431
X4.8947Y-2.8475
X4.8947Y-4.1604
X4.8947Y-4.2648
X4.9163Y-2.7953
X4.9163Y-4.2126
X6.186Y-2.7953
X6.186Y-4.2126
X6.2076Y-2.7431
X6.2076Y-2.8475
X6.2076Y-4.1604
X6.2076Y-4.2648
X6.2598Y-2.7215
X6.2598Y-2.8691
X6.2598Y-4.1388
X6.2598Y-4.2864
X6.312Y-2.7431
X6.312Y-2.8475
X6.312Y-4.1604
X6.312Y-4.2648
X6.3337Y-2.7953
X6.3337Y-4.2126
T4
X5.1575Y-4.252
X5.5512Y-4.252
X5.9449Y-4.252
X6.2992Y-3.7795
X6.2992Y-4.0157
T5
X4.8425Y-2.7953
X4.8425Y-4.2126
X6.2598Y-2.7953
X6.2598Y-4.2126
M30
