%TF.GenerationSoftware,KiCad,Pcbnew,7.0.6*%
%TF.CreationDate,2023-10-03T21:22:45+08:00*%
%TF.ProjectId,CawDrive,43617744-7269-4766-952e-6b696361645f,rev?*%
%TF.SameCoordinates,Original*%
%TF.FileFunction,Drillmap*%
%TF.FilePolarity,Positive*%
%FSLAX45Y45*%
G04 Gerber Fmt 4.5, Leading zero omitted, Abs format (unit mm)*
G04 Created by KiCad (PCBNEW 7.0.6) date 2023-10-03 21:22:45*
%MOMM*%
%LPD*%
G01*
G04 APERTURE LIST*
%ADD10C,0.100000*%
%ADD11C,0.200000*%
G04 APERTURE END LIST*
D10*
X16000000Y-7300000D02*
G75*
G03*
X15700000Y-7000000I-300000J0D01*
G01*
X12300000Y-7000000D02*
X15700000Y-7000000D01*
X12000000Y-10700000D02*
G75*
G03*
X12300000Y-11000000I300000J0D01*
G01*
X16000000Y-7300000D02*
X16000000Y-10700000D01*
X15700000Y-11000000D02*
G75*
G03*
X16000000Y-10700000I0J300000D01*
G01*
X15700000Y-11000000D02*
X12300000Y-11000000D01*
X12000000Y-10700000D02*
X12000000Y-7300000D01*
X12300000Y-7000000D02*
G75*
G03*
X12000000Y-7300000I0J-300000D01*
G01*
D11*
X12255777Y-11316484D02*
X12255777Y-11116484D01*
X12255777Y-11116484D02*
X12303396Y-11116484D01*
X12303396Y-11116484D02*
X12331967Y-11126008D01*
X12331967Y-11126008D02*
X12351015Y-11145055D01*
X12351015Y-11145055D02*
X12360539Y-11164103D01*
X12360539Y-11164103D02*
X12370062Y-11202198D01*
X12370062Y-11202198D02*
X12370062Y-11230769D01*
X12370062Y-11230769D02*
X12360539Y-11268865D01*
X12360539Y-11268865D02*
X12351015Y-11287912D01*
X12351015Y-11287912D02*
X12331967Y-11306960D01*
X12331967Y-11306960D02*
X12303396Y-11316484D01*
X12303396Y-11316484D02*
X12255777Y-11316484D01*
X12455777Y-11316484D02*
X12455777Y-11183150D01*
X12455777Y-11221246D02*
X12465301Y-11202198D01*
X12465301Y-11202198D02*
X12474824Y-11192674D01*
X12474824Y-11192674D02*
X12493872Y-11183150D01*
X12493872Y-11183150D02*
X12512920Y-11183150D01*
X12579586Y-11316484D02*
X12579586Y-11183150D01*
X12579586Y-11116484D02*
X12570062Y-11126008D01*
X12570062Y-11126008D02*
X12579586Y-11135531D01*
X12579586Y-11135531D02*
X12589110Y-11126008D01*
X12589110Y-11126008D02*
X12579586Y-11116484D01*
X12579586Y-11116484D02*
X12579586Y-11135531D01*
X12703396Y-11316484D02*
X12684348Y-11306960D01*
X12684348Y-11306960D02*
X12674824Y-11287912D01*
X12674824Y-11287912D02*
X12674824Y-11116484D01*
X12808158Y-11316484D02*
X12789110Y-11306960D01*
X12789110Y-11306960D02*
X12779586Y-11287912D01*
X12779586Y-11287912D02*
X12779586Y-11116484D01*
X13036729Y-11316484D02*
X13036729Y-11116484D01*
X13036729Y-11116484D02*
X13103396Y-11259341D01*
X13103396Y-11259341D02*
X13170062Y-11116484D01*
X13170062Y-11116484D02*
X13170062Y-11316484D01*
X13351015Y-11316484D02*
X13351015Y-11211722D01*
X13351015Y-11211722D02*
X13341491Y-11192674D01*
X13341491Y-11192674D02*
X13322443Y-11183150D01*
X13322443Y-11183150D02*
X13284348Y-11183150D01*
X13284348Y-11183150D02*
X13265301Y-11192674D01*
X13351015Y-11306960D02*
X13331967Y-11316484D01*
X13331967Y-11316484D02*
X13284348Y-11316484D01*
X13284348Y-11316484D02*
X13265301Y-11306960D01*
X13265301Y-11306960D02*
X13255777Y-11287912D01*
X13255777Y-11287912D02*
X13255777Y-11268865D01*
X13255777Y-11268865D02*
X13265301Y-11249817D01*
X13265301Y-11249817D02*
X13284348Y-11240293D01*
X13284348Y-11240293D02*
X13331967Y-11240293D01*
X13331967Y-11240293D02*
X13351015Y-11230769D01*
X13446253Y-11183150D02*
X13446253Y-11383150D01*
X13446253Y-11192674D02*
X13465301Y-11183150D01*
X13465301Y-11183150D02*
X13503396Y-11183150D01*
X13503396Y-11183150D02*
X13522443Y-11192674D01*
X13522443Y-11192674D02*
X13531967Y-11202198D01*
X13531967Y-11202198D02*
X13541491Y-11221246D01*
X13541491Y-11221246D02*
X13541491Y-11278388D01*
X13541491Y-11278388D02*
X13531967Y-11297436D01*
X13531967Y-11297436D02*
X13522443Y-11306960D01*
X13522443Y-11306960D02*
X13503396Y-11316484D01*
X13503396Y-11316484D02*
X13465301Y-11316484D01*
X13465301Y-11316484D02*
X13446253Y-11306960D01*
X13627205Y-11297436D02*
X13636729Y-11306960D01*
X13636729Y-11306960D02*
X13627205Y-11316484D01*
X13627205Y-11316484D02*
X13617682Y-11306960D01*
X13617682Y-11306960D02*
X13627205Y-11297436D01*
X13627205Y-11297436D02*
X13627205Y-11316484D01*
X13627205Y-11192674D02*
X13636729Y-11202198D01*
X13636729Y-11202198D02*
X13627205Y-11211722D01*
X13627205Y-11211722D02*
X13617682Y-11202198D01*
X13617682Y-11202198D02*
X13627205Y-11192674D01*
X13627205Y-11192674D02*
X13627205Y-11211722D01*
M02*
