%TF.GenerationSoftware,KiCad,Pcbnew,8.0.4-8.0.4-0~ubuntu24.04.1*%
%TF.CreationDate,2024-08-03T15:04:24+08:00*%
%TF.ProjectId,CawDrive,43617744-7269-4766-952e-6b696361645f,rev?*%
%TF.SameCoordinates,Original*%
%TF.FileFunction,Legend,Top*%
%TF.FilePolarity,Positive*%
%FSLAX46Y46*%
G04 Gerber Fmt 4.6, Leading zero omitted, Abs format (unit mm)*
G04 Created by KiCad (PCBNEW 8.0.4-8.0.4-0~ubuntu24.04.1) date 2024-08-03 15:04:24*
%MOMM*%
%LPD*%
G01*
G04 APERTURE LIST*
%ADD10C,0.000000*%
%ADD11C,0.120000*%
%ADD12C,0.100000*%
%ADD13C,0.254000*%
%ADD14C,0.127000*%
%ADD15C,0.152000*%
%ADD16C,0.150000*%
G04 APERTURE END LIST*
D10*
%TO.C,kibuzzard-66ADCBBA*%
G36*
X147132189Y-93177682D02*
G01*
X146595708Y-93177682D01*
X145998283Y-93177682D01*
X144512446Y-93177682D01*
X143446352Y-93177682D01*
X142321030Y-93177682D01*
X140631760Y-93177682D01*
X139032618Y-93177682D01*
X138115880Y-93177682D01*
X136336481Y-93177682D01*
X135404292Y-93177682D01*
X134867811Y-93177682D01*
X134867811Y-92023176D01*
X135404292Y-92023176D01*
X135420708Y-92210515D01*
X135469957Y-92381116D01*
X135544313Y-92528863D01*
X135636052Y-92647639D01*
X135743240Y-92744206D01*
X135863948Y-92825322D01*
X135989485Y-92888090D01*
X136111159Y-92929614D01*
X136227361Y-92952790D01*
X136336481Y-92960515D01*
X136503004Y-92944492D01*
X136662661Y-92896423D01*
X136815451Y-92816309D01*
X136921030Y-92737768D01*
X136957082Y-92643777D01*
X136900429Y-92494421D01*
X136807725Y-92384335D01*
X136720172Y-92347639D01*
X136591416Y-92399142D01*
X136462017Y-92462876D01*
X136326180Y-92484120D01*
X136130472Y-92442918D01*
X136037446Y-92385300D01*
X135954077Y-92294850D01*
X135944446Y-92275536D01*
X137031760Y-92275536D01*
X137051931Y-92440629D01*
X137112446Y-92592561D01*
X137213305Y-92731330D01*
X137339914Y-92841488D01*
X137477682Y-92907582D01*
X137626609Y-92929614D01*
X137774034Y-92906438D01*
X137896996Y-92836910D01*
X137969742Y-92906438D01*
X138115880Y-92929614D01*
X138249785Y-92911588D01*
X138321888Y-92853648D01*
X138346352Y-92785408D01*
X138350215Y-92697854D01*
X138350215Y-91860944D01*
X138346352Y-91774678D01*
X138337456Y-91748927D01*
X138454506Y-91748927D01*
X138463519Y-91917597D01*
X138806009Y-92759657D01*
X138829185Y-92816309D01*
X138863948Y-92870386D01*
X138933476Y-92925751D01*
X139032618Y-92942489D01*
X139084120Y-92939914D01*
X139126609Y-92930901D01*
X139160086Y-92919313D01*
X139185837Y-92900000D01*
X139205150Y-92880687D01*
X139221888Y-92854936D01*
X139233476Y-92826609D01*
X139246352Y-92793133D01*
X139259227Y-92759657D01*
X139377682Y-92442918D01*
X139496137Y-92759657D01*
X139524464Y-92825322D01*
X139559227Y-92880687D01*
X139624893Y-92928326D01*
X139725322Y-92942489D01*
X139769099Y-92938627D01*
X139806438Y-92929614D01*
X139838627Y-92914163D01*
X139864378Y-92896137D01*
X139886266Y-92874249D01*
X139903004Y-92851073D01*
X139917167Y-92825322D01*
X139928755Y-92802146D01*
X139939056Y-92778970D01*
X139946781Y-92759657D01*
X140291845Y-91922747D01*
X140313591Y-91809728D01*
X140265522Y-91714449D01*
X140147639Y-91636910D01*
X140019170Y-91611731D01*
X139918741Y-91659800D01*
X139846352Y-91781116D01*
X139722747Y-92123605D01*
X139604292Y-91793991D01*
X139515451Y-91666524D01*
X139372532Y-91624034D01*
X139239270Y-91665880D01*
X139153648Y-91791416D01*
X139032618Y-92123605D01*
X138893562Y-91739914D01*
X138830043Y-91642346D01*
X138728755Y-91610587D01*
X138589700Y-91644635D01*
X138454506Y-91748927D01*
X138337456Y-91748927D01*
X138321888Y-91703863D01*
X138251073Y-91644635D01*
X138118455Y-91626609D01*
X137962661Y-91653004D01*
X137896996Y-91732189D01*
X137777897Y-91654936D01*
X137626609Y-91629185D01*
X137478970Y-91651216D01*
X137341631Y-91717310D01*
X137214592Y-91827468D01*
X137113019Y-91965379D01*
X137052074Y-92114735D01*
X137031760Y-92275536D01*
X135944446Y-92275536D01*
X135895172Y-92176717D01*
X135875536Y-92036052D01*
X135886481Y-91926609D01*
X135919313Y-91830043D01*
X136033906Y-91689700D01*
X136179399Y-91613734D01*
X136326180Y-91587983D01*
X136387983Y-91590558D01*
X136439485Y-91599571D01*
X136480687Y-91609871D01*
X136515451Y-91622747D01*
X136539914Y-91636910D01*
X136561803Y-91651073D01*
X136578541Y-91662661D01*
X136717597Y-91721888D01*
X136806438Y-91687124D01*
X136903004Y-91582833D01*
X136959657Y-91438627D01*
X136936008Y-91363948D01*
X140397425Y-91363948D01*
X140397425Y-92695279D01*
X140403863Y-92786695D01*
X140430901Y-92858798D01*
X140501717Y-92914163D01*
X140631760Y-92932189D01*
X141069528Y-92932189D01*
X141250590Y-92915531D01*
X141417811Y-92865558D01*
X141571191Y-92782269D01*
X141710730Y-92665665D01*
X141826770Y-92525563D01*
X141909657Y-92371781D01*
X141959388Y-92204319D01*
X141975966Y-92023176D01*
X141960477Y-91858369D01*
X142089270Y-91858369D01*
X142089270Y-92697854D01*
X142093133Y-92786695D01*
X142117597Y-92857511D01*
X142188412Y-92916738D01*
X142321030Y-92934764D01*
X142457511Y-92916738D01*
X142529614Y-92858798D01*
X142554077Y-92790558D01*
X142557940Y-92703004D01*
X142557940Y-92200858D01*
X142608155Y-92106867D01*
X142735622Y-92069528D01*
X142798712Y-92088841D01*
X142897854Y-92108155D01*
X143042060Y-92019313D01*
X143084549Y-91919850D01*
X143091461Y-91860944D01*
X143214592Y-91860944D01*
X143214592Y-92700429D01*
X143218455Y-92789270D01*
X143242918Y-92858798D01*
X143313734Y-92916738D01*
X143446352Y-92934764D01*
X143581545Y-92916738D01*
X143652361Y-92858798D01*
X143676824Y-92790558D01*
X143680687Y-92703004D01*
X143680687Y-91866094D01*
X143677048Y-91782403D01*
X143814592Y-91782403D01*
X143850644Y-91966524D01*
X144306438Y-92834335D01*
X144387554Y-92919313D01*
X144512446Y-92947639D01*
X144637339Y-92919313D01*
X144718455Y-92834335D01*
X145006539Y-92285837D01*
X145295279Y-92285837D01*
X145305258Y-92403004D01*
X145335193Y-92517597D01*
X145384764Y-92628326D01*
X145453648Y-92733906D01*
X145547961Y-92826931D01*
X145673820Y-92900000D01*
X145825751Y-92947318D01*
X145998283Y-92963090D01*
X146232618Y-92948444D01*
X146400000Y-92904506D01*
X146500429Y-92831277D01*
X146533906Y-92728755D01*
X146500429Y-92610300D01*
X146430901Y-92517597D01*
X146345923Y-92486695D01*
X146227468Y-92520172D01*
X146018884Y-92553648D01*
X145866953Y-92517597D01*
X145789700Y-92419742D01*
X146338197Y-92419742D01*
X146442811Y-92400107D01*
X146524893Y-92341202D01*
X146578004Y-92246245D01*
X146595708Y-92118455D01*
X146557403Y-91937554D01*
X146442489Y-91765665D01*
X146325322Y-91672675D01*
X146178112Y-91616881D01*
X146000858Y-91598283D01*
X145805866Y-91619599D01*
X145636338Y-91683548D01*
X145492275Y-91790129D01*
X145382833Y-91930472D01*
X145317167Y-92095708D01*
X145295279Y-92285837D01*
X145006539Y-92285837D01*
X145174249Y-91966524D01*
X145216738Y-91840343D01*
X145185837Y-91737339D01*
X145071245Y-91649785D01*
X144883262Y-91607296D01*
X144815021Y-91653970D01*
X144754506Y-91755365D01*
X144512446Y-92306438D01*
X144270386Y-91755365D01*
X144145494Y-91608584D01*
X143953648Y-91649785D01*
X143814592Y-91782403D01*
X143677048Y-91782403D01*
X143676824Y-91777253D01*
X143652361Y-91706438D01*
X143581545Y-91647210D01*
X143448927Y-91629185D01*
X143446352Y-91629531D01*
X143315021Y-91647210D01*
X143242918Y-91705150D01*
X143218455Y-91774678D01*
X143214592Y-91860944D01*
X143091461Y-91860944D01*
X143098712Y-91799142D01*
X143066524Y-91701288D01*
X142982833Y-91643348D01*
X142890129Y-91620172D01*
X142812876Y-91613734D01*
X142675107Y-91643348D01*
X142545064Y-91732189D01*
X142472961Y-91653004D01*
X142323605Y-91626609D01*
X142188412Y-91644635D01*
X142117597Y-91702575D01*
X142093133Y-91770815D01*
X142089270Y-91858369D01*
X141960477Y-91858369D01*
X141959388Y-91846781D01*
X141909657Y-91683262D01*
X141826770Y-91532618D01*
X141710730Y-91394850D01*
X141571674Y-91279936D01*
X141550821Y-91268670D01*
X143214592Y-91268670D01*
X143218455Y-91354936D01*
X143242918Y-91425751D01*
X143313734Y-91484979D01*
X143446352Y-91503004D01*
X143581545Y-91484979D01*
X143652361Y-91427039D01*
X143676824Y-91358798D01*
X143680687Y-91271245D01*
X143676824Y-91184979D01*
X143652361Y-91114163D01*
X143581545Y-91054936D01*
X143448927Y-91036910D01*
X143315021Y-91054936D01*
X143242918Y-91112876D01*
X143218455Y-91182403D01*
X143214592Y-91268670D01*
X141550821Y-91268670D01*
X141419742Y-91197854D01*
X141254936Y-91148605D01*
X141077253Y-91132189D01*
X140634335Y-91132189D01*
X140497854Y-91148927D01*
X140425751Y-91206867D01*
X140401288Y-91277682D01*
X140397425Y-91363948D01*
X136936008Y-91363948D01*
X136935193Y-91361373D01*
X136887554Y-91307296D01*
X136818026Y-91258369D01*
X136655508Y-91178255D01*
X136497568Y-91130186D01*
X136344206Y-91114163D01*
X136230579Y-91121888D01*
X136111159Y-91145064D01*
X135987554Y-91185944D01*
X135861373Y-91246781D01*
X135740665Y-91325322D01*
X135633476Y-91419313D01*
X135542060Y-91534871D01*
X135468670Y-91678112D01*
X135420386Y-91842918D01*
X135404292Y-92023176D01*
X134867811Y-92023176D01*
X134867811Y-90822318D01*
X135404292Y-90822318D01*
X146595708Y-90822318D01*
X147132189Y-90822318D01*
X147132189Y-93177682D01*
G37*
G36*
X141239485Y-91634979D02*
G01*
X141378541Y-91729614D01*
X141473176Y-91868670D01*
X141504721Y-92033476D01*
X141473176Y-92197961D01*
X141378541Y-92336052D01*
X141240129Y-92429721D01*
X141077253Y-92460944D01*
X140868670Y-92460944D01*
X140868670Y-91603433D01*
X141074678Y-91603433D01*
X141239485Y-91634979D01*
G37*
G36*
X137815880Y-92146781D02*
G01*
X137868670Y-92278112D01*
X137815880Y-92408155D01*
X137690987Y-92463519D01*
X137555794Y-92408155D01*
X137497854Y-92280687D01*
X137553219Y-92149356D01*
X137685837Y-92092704D01*
X137815880Y-92146781D01*
G37*
G36*
X146106438Y-92039914D02*
G01*
X146147639Y-92115880D01*
X146078112Y-92177682D01*
X145789700Y-92177682D01*
X145850215Y-92063090D01*
X145995708Y-92012876D01*
X146106438Y-92039914D01*
G37*
%TO.C,kibuzzard-66ADBF8B*%
G36*
X153782904Y-70233548D02*
G01*
X153335837Y-70233548D01*
X153119099Y-70233548D01*
X151790773Y-70233548D01*
X150904506Y-70233548D01*
X150357296Y-70233548D01*
X148810086Y-70233548D01*
X147958155Y-70233548D01*
X146833691Y-70233548D01*
X144859442Y-70233548D01*
X144664163Y-70233548D01*
X144217096Y-70233548D01*
X144217096Y-68724249D01*
X144664163Y-68724249D01*
X144664163Y-69833691D01*
X144667382Y-69907725D01*
X144687768Y-69966738D01*
X144747854Y-70016094D01*
X144859442Y-70031116D01*
X144973176Y-70016094D01*
X145033262Y-69967811D01*
X145053648Y-69909871D01*
X145056867Y-69835837D01*
X145056867Y-69481760D01*
X145930258Y-69481760D01*
X145947067Y-69619337D01*
X145997496Y-69745947D01*
X146081545Y-69861588D01*
X146187053Y-69953386D01*
X146301860Y-70008464D01*
X146425966Y-70026824D01*
X146548820Y-70007511D01*
X146651288Y-69949571D01*
X146711910Y-70007511D01*
X146833691Y-70026824D01*
X146945279Y-70011803D01*
X147005365Y-69963519D01*
X147025751Y-69906652D01*
X147028970Y-69833691D01*
X147028970Y-69136266D01*
X147025751Y-69064378D01*
X147005365Y-69005365D01*
X146946352Y-68956009D01*
X146835837Y-68940987D01*
X146706009Y-68962983D01*
X146651288Y-69028970D01*
X146552039Y-68964592D01*
X146425966Y-68943133D01*
X146302933Y-68961493D01*
X146188484Y-69016571D01*
X146082618Y-69108369D01*
X145997973Y-69223295D01*
X145947186Y-69347759D01*
X145930258Y-69481760D01*
X145056867Y-69481760D01*
X145056867Y-69447425D01*
X145449571Y-69447425D01*
X145519313Y-69444206D01*
X145571888Y-69427039D01*
X145613734Y-69377682D01*
X145625536Y-69284335D01*
X145613734Y-69185622D01*
X145572961Y-69134120D01*
X145521459Y-69115880D01*
X145451717Y-69112661D01*
X145056867Y-69112661D01*
X145056867Y-68921674D01*
X145646996Y-68921674D01*
X145721030Y-68918455D01*
X145780043Y-68898069D01*
X145829399Y-68839056D01*
X145844421Y-68726395D01*
X145833084Y-68640558D01*
X147168455Y-68640558D01*
X147168455Y-69835837D01*
X147171674Y-69907725D01*
X147192060Y-69966738D01*
X147251073Y-70016094D01*
X147361588Y-70031116D01*
X147474249Y-70016094D01*
X147533262Y-69967811D01*
X147553648Y-69910944D01*
X147556867Y-69837983D01*
X147556867Y-69719957D01*
X147820815Y-69966738D01*
X147958155Y-70043991D01*
X148022532Y-70021996D01*
X148099785Y-69956009D01*
X148170601Y-69812232D01*
X148086910Y-69677039D01*
X147847177Y-69490343D01*
X148224249Y-69490343D01*
X148232564Y-69587983D01*
X148257511Y-69683476D01*
X148298820Y-69775751D01*
X148356223Y-69863734D01*
X148434818Y-69941255D01*
X148539700Y-70002146D01*
X148666309Y-70041577D01*
X148810086Y-70054721D01*
X149005365Y-70042516D01*
X149144850Y-70005901D01*
X149228541Y-69944877D01*
X149256438Y-69859442D01*
X149228541Y-69760730D01*
X149170601Y-69683476D01*
X149099785Y-69657725D01*
X149001073Y-69685622D01*
X148827253Y-69713519D01*
X148700644Y-69683476D01*
X148636266Y-69601931D01*
X149093348Y-69601931D01*
X149180526Y-69585569D01*
X149248927Y-69536481D01*
X149293187Y-69457350D01*
X149307940Y-69350858D01*
X149276019Y-69200107D01*
X149180258Y-69056867D01*
X149082618Y-68979375D01*
X148959943Y-68932880D01*
X148812232Y-68917382D01*
X148649738Y-68935145D01*
X148508464Y-68988436D01*
X148388412Y-69077253D01*
X148297210Y-69194206D01*
X148242489Y-69331903D01*
X148224249Y-69490343D01*
X147847177Y-69490343D01*
X147844421Y-69488197D01*
X148018240Y-69335837D01*
X148098712Y-69202790D01*
X148018240Y-69056867D01*
X147879828Y-68980687D01*
X147739270Y-69056867D01*
X147556867Y-69234979D01*
X147556867Y-68724249D01*
X149415236Y-68724249D01*
X149415236Y-69831545D01*
X149418455Y-69905579D01*
X149438841Y-69964592D01*
X149498927Y-70013948D01*
X149610515Y-70028970D01*
X149724249Y-70013948D01*
X149784335Y-69965665D01*
X149804721Y-69907725D01*
X149807940Y-69833691D01*
X149807940Y-69625536D01*
X150007511Y-69625536D01*
X150237124Y-69936695D01*
X150357296Y-70036481D01*
X150509657Y-69977468D01*
X150612661Y-69850858D01*
X150554721Y-69702790D01*
X150400215Y-69496781D01*
X150505126Y-69379948D01*
X150568073Y-69241178D01*
X150581771Y-69136266D01*
X150711373Y-69136266D01*
X150711373Y-69835837D01*
X150714592Y-69909871D01*
X150734979Y-69967811D01*
X150793991Y-70016094D01*
X150904506Y-70031116D01*
X151017167Y-70016094D01*
X151076180Y-69967811D01*
X151096567Y-69910944D01*
X151099785Y-69837983D01*
X151099785Y-69481760D01*
X151228541Y-69481760D01*
X151241953Y-69609174D01*
X151282189Y-69725322D01*
X151343884Y-69824839D01*
X151421674Y-69902361D01*
X151509925Y-69961373D01*
X151603004Y-70005365D01*
X151697693Y-70032725D01*
X151790773Y-70041845D01*
X151936695Y-70020923D01*
X152082618Y-69958155D01*
X152175846Y-69874225D01*
X152198021Y-69782666D01*
X152149142Y-69683476D01*
X152062768Y-69598176D01*
X151988197Y-69569742D01*
X151876609Y-69616953D01*
X151782189Y-69644850D01*
X151673820Y-69597639D01*
X151627682Y-69483906D01*
X151674893Y-69371245D01*
X151786481Y-69325107D01*
X151894850Y-69363734D01*
X152001073Y-69402361D01*
X152078326Y-69372854D01*
X152155579Y-69284335D01*
X152200644Y-69162017D01*
X152180258Y-69097639D01*
X152139485Y-69051502D01*
X152082618Y-69013948D01*
X151939914Y-68949571D01*
X151786481Y-68928112D01*
X151695011Y-68937232D01*
X151600858Y-68964592D01*
X151508047Y-69008315D01*
X151420601Y-69066524D01*
X151343616Y-69142972D01*
X151282189Y-69241416D01*
X151241953Y-69356223D01*
X151228541Y-69481760D01*
X151099785Y-69481760D01*
X151099785Y-69140558D01*
X151096567Y-69066524D01*
X151076180Y-69007511D01*
X151017167Y-68958155D01*
X150906652Y-68943133D01*
X150904506Y-68943422D01*
X150795064Y-68958155D01*
X150734979Y-69006438D01*
X150714592Y-69064378D01*
X150711373Y-69136266D01*
X150581771Y-69136266D01*
X150589056Y-69080472D01*
X150575644Y-68953058D01*
X150535408Y-68836910D01*
X150473981Y-68737929D01*
X150396996Y-68662017D01*
X150367662Y-68642704D01*
X150711373Y-68642704D01*
X150714592Y-68714592D01*
X150734979Y-68773605D01*
X150793991Y-68822961D01*
X150904506Y-68837983D01*
X151017167Y-68822961D01*
X151076180Y-68774678D01*
X151096567Y-68717811D01*
X151099785Y-68644850D01*
X151099593Y-68640558D01*
X152329399Y-68640558D01*
X152329399Y-69835837D01*
X152332618Y-69907725D01*
X152353004Y-69966738D01*
X152412017Y-70016094D01*
X152522532Y-70031116D01*
X152635193Y-70016094D01*
X152694206Y-69967811D01*
X152714592Y-69910944D01*
X152717811Y-69837983D01*
X152717811Y-69719957D01*
X152981760Y-69966738D01*
X153119099Y-70043991D01*
X153183476Y-70021996D01*
X153260730Y-69956009D01*
X153331545Y-69812232D01*
X153247854Y-69677039D01*
X153005365Y-69488197D01*
X153179185Y-69335837D01*
X153259657Y-69202790D01*
X153179185Y-69056867D01*
X153040773Y-68980687D01*
X152900215Y-69056867D01*
X152717811Y-69234979D01*
X152717811Y-68642704D01*
X152714592Y-68568670D01*
X152694206Y-68509657D01*
X152635193Y-68460300D01*
X152524678Y-68445279D01*
X152413090Y-68460300D01*
X152353004Y-68508584D01*
X152332618Y-68566524D01*
X152329399Y-68640558D01*
X151099593Y-68640558D01*
X151096567Y-68572961D01*
X151076180Y-68513948D01*
X151017167Y-68464592D01*
X150906652Y-68449571D01*
X150795064Y-68464592D01*
X150734979Y-68512876D01*
X150714592Y-68570815D01*
X150711373Y-68642704D01*
X150367662Y-68642704D01*
X150310622Y-68605150D01*
X150221030Y-68563305D01*
X150131170Y-68537554D01*
X150043991Y-68528970D01*
X149612661Y-68528970D01*
X149498927Y-68543991D01*
X149438841Y-68593348D01*
X149418455Y-68652361D01*
X149415236Y-68724249D01*
X147556867Y-68724249D01*
X147556867Y-68642704D01*
X147553648Y-68568670D01*
X147533262Y-68509657D01*
X147474249Y-68460300D01*
X147363734Y-68445279D01*
X147252146Y-68460300D01*
X147192060Y-68508584D01*
X147171674Y-68566524D01*
X147168455Y-68640558D01*
X145833084Y-68640558D01*
X145829399Y-68612661D01*
X145781116Y-68552575D01*
X145723176Y-68532189D01*
X145651288Y-68528970D01*
X144865880Y-68528970D01*
X144708155Y-68570815D01*
X144664163Y-68724249D01*
X144217096Y-68724249D01*
X144217096Y-68266452D01*
X144664163Y-68266452D01*
X153335837Y-68266452D01*
X153782904Y-68266452D01*
X153782904Y-70233548D01*
G37*
G36*
X150150215Y-68966738D02*
G01*
X150196352Y-69078326D01*
X150146996Y-69196352D01*
X150043991Y-69234979D01*
X149807940Y-69234979D01*
X149807940Y-68921674D01*
X150039700Y-68921674D01*
X150150215Y-68966738D01*
G37*
G36*
X146583691Y-69374464D02*
G01*
X146627682Y-69483906D01*
X146583691Y-69592275D01*
X146479614Y-69638412D01*
X146366953Y-69592275D01*
X146318670Y-69486052D01*
X146364807Y-69376609D01*
X146475322Y-69329399D01*
X146583691Y-69374464D01*
G37*
G36*
X148900215Y-69285408D02*
G01*
X148934549Y-69348712D01*
X148876609Y-69400215D01*
X148636266Y-69400215D01*
X148686695Y-69304721D01*
X148807940Y-69262876D01*
X148900215Y-69285408D01*
G37*
D11*
%TO.C,C12*%
X147341000Y-89673165D02*
X147341000Y-89904835D01*
X148061000Y-89673165D02*
X148061000Y-89904835D01*
%TO.C,R17*%
X137415000Y-84241621D02*
X137415000Y-83906379D01*
X138175000Y-84241621D02*
X138175000Y-83906379D01*
%TO.C,C16*%
X126871000Y-78212733D02*
X126871000Y-78505267D01*
X127891000Y-78212733D02*
X127891000Y-78505267D01*
D12*
%TO.C,D4*%
X137972000Y-76586000D02*
G75*
G02*
X137872000Y-76586000I-50000J0D01*
G01*
X137872000Y-76586000D02*
G75*
G02*
X137972000Y-76586000I50000J0D01*
G01*
D11*
%TO.C,R1*%
X124969000Y-74716621D02*
X124969000Y-74381379D01*
X125729000Y-74716621D02*
X125729000Y-74381379D01*
D13*
%TO.C,U6*%
X126800000Y-72898000D02*
X126800000Y-70979000D01*
X127019000Y-72898000D02*
X126981000Y-72898000D01*
X128019000Y-72898000D02*
X126800000Y-72898000D01*
X128019000Y-72898000D02*
X127981000Y-72898000D01*
X128231000Y-68647000D02*
X129769000Y-68647000D01*
X129019000Y-72898000D02*
X128981000Y-72898000D01*
X129980000Y-72947000D02*
X131200000Y-72947000D01*
X131200000Y-72947000D02*
X131200000Y-70978000D01*
D11*
X130310000Y-73787000D02*
X130056000Y-73406000D01*
X130564000Y-73406000D01*
X130310000Y-73787000D01*
G36*
X130310000Y-73787000D02*
G01*
X130056000Y-73406000D01*
X130564000Y-73406000D01*
X130310000Y-73787000D01*
G37*
D14*
%TO.C,Q7*%
X121910000Y-102874000D02*
X121910000Y-97874000D01*
X127010000Y-102874000D02*
X127010000Y-97874000D01*
D11*
%TO.C,R20*%
X155869621Y-77344000D02*
X155534379Y-77344000D01*
X155869621Y-78104000D02*
X155534379Y-78104000D01*
%TO.C,R9*%
X147660379Y-70486000D02*
X147995621Y-70486000D01*
X147660379Y-71246000D02*
X147995621Y-71246000D01*
%TO.C,R18*%
X129709000Y-96735737D02*
X129709000Y-95288263D01*
X132419000Y-96735737D02*
X132419000Y-95288263D01*
D14*
%TO.C,U2*%
X132182000Y-76340000D02*
X130182000Y-76340000D01*
X132182000Y-78600000D02*
X130182000Y-78600000D01*
D13*
%TO.C,U5*%
X157050000Y-89245000D02*
X157050000Y-90465000D01*
X157050000Y-90465000D02*
X159019000Y-90465000D01*
X157099000Y-86065000D02*
X159018000Y-86065000D01*
X157099000Y-86284000D02*
X157099000Y-86246000D01*
X157099000Y-87284000D02*
X157099000Y-86065000D01*
X157099000Y-87284000D02*
X157099000Y-87246000D01*
X157099000Y-88284000D02*
X157099000Y-88246000D01*
X161350000Y-87496000D02*
X161350000Y-89034000D01*
D11*
X156591000Y-89829000D02*
X156210000Y-89575000D01*
X156591000Y-89321000D01*
X156591000Y-89829000D01*
G36*
X156591000Y-89829000D02*
G01*
X156210000Y-89575000D01*
X156591000Y-89321000D01*
X156591000Y-89829000D01*
G37*
D13*
%TO.C,CN1*%
X131777000Y-72898000D02*
X131777000Y-71027000D01*
X133019000Y-72898000D02*
X131777000Y-72898000D01*
X133231000Y-68453000D02*
X138769000Y-68453000D01*
X134019000Y-72898000D02*
X133981000Y-72898000D01*
X135019000Y-72898000D02*
X134981000Y-72898000D01*
X136019000Y-72898000D02*
X135981000Y-72898000D01*
X137019000Y-72898000D02*
X136981000Y-72898000D01*
X138019000Y-72898000D02*
X137981000Y-72898000D01*
X140223000Y-72898000D02*
X138981000Y-72898000D01*
X140223000Y-72898000D02*
X140223000Y-71027000D01*
X139461000Y-73406000D02*
G75*
G02*
X139207000Y-73406000I-127000J0D01*
G01*
X139207000Y-73406000D02*
G75*
G02*
X139461000Y-73406000I127000J0D01*
G01*
X139461000Y-73406000D02*
G75*
G02*
X139207000Y-73406000I-127000J0D01*
G01*
X139207000Y-73406000D02*
G75*
G02*
X139461000Y-73406000I127000J0D01*
G01*
D11*
%TO.C,C2*%
X154082165Y-84476000D02*
X154313835Y-84476000D01*
X154082165Y-85196000D02*
X154313835Y-85196000D01*
%TO.C,L1*%
X142266800Y-72157000D02*
X142467200Y-72157000D01*
X142266800Y-72877000D02*
X142467200Y-72877000D01*
D15*
%TO.C,U3*%
X148763000Y-88045000D02*
X151915000Y-88045000D01*
X148763000Y-88280000D02*
X148763000Y-88045000D01*
X148763000Y-90961000D02*
X148763000Y-91197000D01*
X148763000Y-91197000D02*
X151915000Y-91197000D01*
X151915000Y-88045000D02*
X151915000Y-88280000D01*
X151915000Y-91197000D02*
X151915000Y-90961000D01*
D16*
X148509000Y-88224000D02*
G75*
G02*
X148359000Y-88224000I-75000J0D01*
G01*
X148359000Y-88224000D02*
G75*
G02*
X148509000Y-88224000I75000J0D01*
G01*
D11*
%TO.C,C22*%
X120349600Y-94818252D02*
X120349600Y-93395748D01*
X122169600Y-94818252D02*
X122169600Y-93395748D01*
%TO.C,C7*%
X128545000Y-77293335D02*
X128545000Y-77061665D01*
X129265000Y-77293335D02*
X129265000Y-77061665D01*
D14*
%TO.C,Q12*%
X150612000Y-98084000D02*
X150612000Y-103084000D01*
X155712000Y-98084000D02*
X155712000Y-103084000D01*
D11*
%TO.C,R15*%
X147660379Y-72147000D02*
X147995621Y-72147000D01*
X147660379Y-72907000D02*
X147995621Y-72907000D01*
D14*
%TO.C,Q9*%
X139200000Y-104862000D02*
X139200000Y-99862000D01*
X144300000Y-104862000D02*
X144300000Y-99862000D01*
D11*
%TO.C,C23*%
X139552000Y-96741252D02*
X139552000Y-95318748D01*
X141372000Y-96741252D02*
X141372000Y-95318748D01*
%TO.C,C10*%
X159396165Y-93197000D02*
X159627835Y-93197000D01*
X159396165Y-92477000D02*
X159627835Y-92477000D01*
%TO.C,C20*%
X125124800Y-94818252D02*
X125124800Y-93395748D01*
X126944800Y-94818252D02*
X126944800Y-93395748D01*
%TO.C,D3*%
X128217000Y-82820000D02*
X124207000Y-82820000D01*
X128217000Y-84820000D02*
X124207000Y-84820000D01*
X128217000Y-84820000D02*
X128217000Y-82820000D01*
%TO.C,R21*%
X155869621Y-85599000D02*
X155534379Y-85599000D01*
X155869621Y-86359000D02*
X155534379Y-86359000D01*
%TO.C,C25*%
X144886000Y-96741252D02*
X144886000Y-95318748D01*
X146706000Y-96741252D02*
X146706000Y-95318748D01*
%TO.C,R8*%
X153798000Y-89067621D02*
X153798000Y-88732379D01*
X154558000Y-89067621D02*
X154558000Y-88732379D01*
%TO.C,C11*%
X144664165Y-72157000D02*
X144895835Y-72157000D01*
X144664165Y-72877000D02*
X144895835Y-72877000D01*
%TO.C,C8*%
X144664165Y-73300000D02*
X144895835Y-73300000D01*
X144664165Y-74020000D02*
X144895835Y-74020000D01*
%TO.C,C9*%
X153658835Y-90318000D02*
X153427165Y-90318000D01*
X153658835Y-91038000D02*
X153427165Y-91038000D01*
%TO.C,C30*%
X124595252Y-86974000D02*
X123172748Y-86974000D01*
X124595252Y-88794000D02*
X123172748Y-88794000D01*
D13*
%TO.C,TV1*%
X156370000Y-94237000D02*
X156370000Y-93968100D01*
X156370000Y-94237000D02*
X151770000Y-94237000D01*
X156370000Y-91705900D02*
X156370000Y-91437000D01*
X156370000Y-91437000D02*
X151770000Y-91437000D01*
D14*
X154830000Y-92777000D02*
X153340000Y-92777000D01*
X154660000Y-93077000D02*
X154660000Y-92477000D01*
X154660000Y-93077000D02*
X154072000Y-92788000D01*
X154600000Y-92477000D02*
X154072000Y-92788000D01*
X154072000Y-92788000D02*
X154072000Y-93169000D01*
X154072000Y-92788000D02*
X154072000Y-92407000D01*
X153530000Y-92487000D02*
X154072000Y-92788000D01*
X153500000Y-93087000D02*
X154072000Y-92788000D01*
X153500000Y-93087000D02*
X153500000Y-92487000D01*
D13*
X151770000Y-94237000D02*
X151770000Y-93968100D01*
X151770000Y-91705900D02*
X151770000Y-91437000D01*
D11*
%TO.C,R7*%
X137454621Y-75566000D02*
X137119379Y-75566000D01*
X137454621Y-76326000D02*
X137119379Y-76326000D01*
D13*
%TO.C,X1*%
X153803000Y-81815000D02*
X153803000Y-81578000D01*
X153803000Y-83014000D02*
X153803000Y-82777000D01*
X153818000Y-84049000D02*
X155118000Y-84049000D01*
X155088000Y-80543000D02*
X153788000Y-80543000D01*
X155103000Y-81815000D02*
X155103000Y-81578000D01*
X155103000Y-83014000D02*
X155103000Y-82777000D01*
D11*
%TO.C,R10*%
X152186621Y-73153000D02*
X151851379Y-73153000D01*
X152186621Y-73913000D02*
X151851379Y-73913000D01*
%TO.C,C33*%
X124860267Y-85342000D02*
X124567733Y-85342000D01*
X124860267Y-86362000D02*
X124567733Y-86362000D01*
%TO.C,C31*%
X133394534Y-81198651D02*
X133558349Y-81362466D01*
X133903651Y-80689534D02*
X134067466Y-80853349D01*
%TO.C,R4*%
X121498379Y-90425000D02*
X121833621Y-90425000D01*
X121498379Y-91185000D02*
X121833621Y-91185000D01*
%TO.C,C35*%
X134872000Y-77235267D02*
X134872000Y-76942733D01*
X135892000Y-77235267D02*
X135892000Y-76942733D01*
%TO.C,C14*%
X151903165Y-74316000D02*
X152134835Y-74316000D01*
X151903165Y-75036000D02*
X152134835Y-75036000D01*
%TO.C,C15*%
X128289267Y-81024000D02*
X127996733Y-81024000D01*
X128289267Y-82044000D02*
X127996733Y-82044000D01*
%TO.C,C26*%
X147426000Y-96741252D02*
X147426000Y-95318748D01*
X149246000Y-96741252D02*
X149246000Y-95318748D01*
%TO.C,R16*%
X139532379Y-88647000D02*
X139867621Y-88647000D01*
X139532379Y-89407000D02*
X139867621Y-89407000D01*
D14*
%TO.C,Q8*%
X127879000Y-99818000D02*
X127879000Y-104818000D01*
X132979000Y-99818000D02*
X132979000Y-104818000D01*
D11*
%TO.C,C6*%
X151522165Y-86762000D02*
X151753835Y-86762000D01*
X151522165Y-87482000D02*
X151753835Y-87482000D01*
%TO.C,R19*%
X135645000Y-96723737D02*
X135645000Y-95276263D01*
X138355000Y-96723737D02*
X138355000Y-95276263D01*
%TO.C,C34*%
X133221000Y-77235267D02*
X133221000Y-76942733D01*
X134241000Y-77235267D02*
X134241000Y-76942733D01*
D14*
%TO.C,Q10*%
X133594000Y-99818000D02*
X133594000Y-104818000D01*
X138694000Y-99818000D02*
X138694000Y-104818000D01*
D11*
%TO.C,C29*%
X154254252Y-96414000D02*
X152831748Y-96414000D01*
X154254252Y-94594000D02*
X152831748Y-94594000D01*
D12*
%TO.C,D1*%
X146603000Y-70866000D02*
G75*
G02*
X146503000Y-70866000I-50000J0D01*
G01*
X146503000Y-70866000D02*
G75*
G02*
X146603000Y-70866000I50000J0D01*
G01*
D11*
%TO.C,R12*%
X154518379Y-86742000D02*
X154853621Y-86742000D01*
X154518379Y-87502000D02*
X154853621Y-87502000D01*
D12*
%TO.C,D2*%
X151603500Y-70866000D02*
G75*
G02*
X151503500Y-70866000I-50000J0D01*
G01*
X151503500Y-70866000D02*
G75*
G02*
X151603500Y-70866000I50000J0D01*
G01*
D11*
%TO.C,R14*%
X125135621Y-90425000D02*
X124800379Y-90425000D01*
X125135621Y-91185000D02*
X124800379Y-91185000D01*
%TO.C,C24*%
X141965000Y-96741252D02*
X141965000Y-95318748D01*
X143785000Y-96741252D02*
X143785000Y-95318748D01*
D15*
%TO.C,U7*%
X127657772Y-86360000D02*
X128008497Y-86710725D01*
X128008497Y-86009275D02*
X127657772Y-86360000D01*
X132364275Y-81653497D02*
X132715000Y-81302772D01*
X132715000Y-81302772D02*
X133065725Y-81653497D01*
X132715000Y-91417228D02*
X132364275Y-91066503D01*
X133065725Y-91066503D02*
X132715000Y-91417228D01*
X137421503Y-86710725D02*
X137772228Y-86360000D01*
X137772228Y-86360000D02*
X137421503Y-86009275D01*
D16*
X127988745Y-87272168D02*
G75*
G02*
X127838745Y-87272168I-75000J0D01*
G01*
X127838745Y-87272168D02*
G75*
G02*
X127988745Y-87272168I75000J0D01*
G01*
D11*
%TO.C,C1*%
X126132000Y-74433165D02*
X126132000Y-74664835D01*
X126852000Y-74433165D02*
X126852000Y-74664835D01*
%TO.C,R2*%
X141899621Y-70740000D02*
X141564379Y-70740000D01*
X141899621Y-71500000D02*
X141564379Y-71500000D01*
%TO.C,R13*%
X124800379Y-89282000D02*
X125135621Y-89282000D01*
X124800379Y-90042000D02*
X125135621Y-90042000D01*
D13*
%TO.C,CN2*%
X157099000Y-77057000D02*
X158970000Y-77057000D01*
X157099000Y-78299000D02*
X157099000Y-77057000D01*
X157099000Y-79299000D02*
X157099000Y-79261000D01*
X157099000Y-80299000D02*
X157099000Y-80261000D01*
X157099000Y-81299000D02*
X157099000Y-81261000D01*
X157099000Y-82299000D02*
X157099000Y-82261000D01*
X157099000Y-83299000D02*
X157099000Y-83261000D01*
X157099000Y-85503000D02*
X157099000Y-84261000D01*
X157099000Y-85503000D02*
X158970000Y-85503000D01*
X161544000Y-78511000D02*
X161544000Y-84049000D01*
X156718000Y-84614000D02*
G75*
G02*
X156464000Y-84614000I-127000J0D01*
G01*
X156464000Y-84614000D02*
G75*
G02*
X156718000Y-84614000I127000J0D01*
G01*
X156718000Y-84614000D02*
G75*
G02*
X156464000Y-84614000I-127000J0D01*
G01*
X156464000Y-84614000D02*
G75*
G02*
X156718000Y-84614000I127000J0D01*
G01*
D11*
%TO.C,C32*%
X139975000Y-86498165D02*
X139975000Y-86729835D01*
X140695000Y-86498165D02*
X140695000Y-86729835D01*
%TO.C,U4*%
X141140000Y-76150000D02*
X141140000Y-77100000D01*
X141140000Y-86370000D02*
X141140000Y-85420000D01*
X142090000Y-76150000D02*
X141140000Y-76150000D01*
X142090000Y-86370000D02*
X141140000Y-86370000D01*
X150410000Y-76150000D02*
X151360000Y-76150000D01*
X150410000Y-86370000D02*
X151360000Y-86370000D01*
X151360000Y-76150000D02*
X151360000Y-77100000D01*
X151360000Y-86370000D02*
X151360000Y-85420000D01*
X152315000Y-85890000D02*
X151635000Y-85890000D01*
X151975000Y-85420000D01*
X152315000Y-85890000D01*
G36*
X152315000Y-85890000D02*
G01*
X151635000Y-85890000D01*
X151975000Y-85420000D01*
X152315000Y-85890000D01*
G37*
%TO.C,C3*%
X153183000Y-76973165D02*
X153183000Y-77204835D01*
X153903000Y-76973165D02*
X153903000Y-77204835D01*
%TO.C,C21*%
X122737200Y-94818252D02*
X122737200Y-93395748D01*
X124557200Y-94818252D02*
X124557200Y-93395748D01*
%TO.C,C28*%
X127740000Y-90570267D02*
X127740000Y-90277733D01*
X128760000Y-90570267D02*
X128760000Y-90277733D01*
%TO.C,R11*%
X150446121Y-70486000D02*
X150110879Y-70486000D01*
X150446121Y-71246000D02*
X150110879Y-71246000D01*
D15*
%TO.C,L2*%
X126351000Y-81774000D02*
X126087000Y-81774000D01*
X126351000Y-76722000D02*
X126351000Y-81774000D01*
X126087000Y-76722000D02*
X126351000Y-76722000D01*
X121563000Y-76722000D02*
X121299000Y-76722000D01*
X121299000Y-81774000D02*
X121563000Y-81774000D01*
X121299000Y-76722000D02*
X121299000Y-81774000D01*
D11*
%TO.C,C4*%
X142251165Y-73300000D02*
X142482835Y-73300000D01*
X142251165Y-74020000D02*
X142482835Y-74020000D01*
D14*
%TO.C,Q11*%
X144770000Y-104862000D02*
X144770000Y-99862000D01*
X149870000Y-104862000D02*
X149870000Y-99862000D01*
D11*
%TO.C,C5*%
X138451000Y-84189835D02*
X138451000Y-83958165D01*
X139171000Y-84189835D02*
X139171000Y-83958165D01*
%TO.C,C27*%
X126390000Y-90181165D02*
X126390000Y-90412835D01*
X127110000Y-90181165D02*
X127110000Y-90412835D01*
%TD*%
M02*
