%TF.GenerationSoftware,KiCad,Pcbnew,7.0.6*%
%TF.CreationDate,2023-10-03T21:22:34+08:00*%
%TF.ProjectId,CawDrive,43617744-7269-4766-952e-6b696361645f,rev?*%
%TF.SameCoordinates,Original*%
%TF.FileFunction,Legend,Top*%
%TF.FilePolarity,Positive*%
%FSLAX46Y46*%
G04 Gerber Fmt 4.6, Leading zero omitted, Abs format (unit mm)*
G04 Created by KiCad (PCBNEW 7.0.6) date 2023-10-03 21:22:34*
%MOMM*%
%LPD*%
G01*
G04 APERTURE LIST*
%ADD10C,0.120000*%
%ADD11C,0.100000*%
%ADD12C,0.127000*%
%ADD13C,0.152000*%
%ADD14C,0.150000*%
%ADD15C,0.254000*%
G04 APERTURE END LIST*
D10*
%TO.C,R7*%
X137708621Y-76072000D02*
X137373379Y-76072000D01*
X137708621Y-75312000D02*
X137373379Y-75312000D01*
D11*
%TO.C,D4*%
X138099000Y-76205000D02*
G75*
G03*
X138099000Y-76205000I-50000J0D01*
G01*
D10*
%TO.C,C10*%
X158380165Y-93239000D02*
X158611835Y-93239000D01*
X158380165Y-93959000D02*
X158611835Y-93959000D01*
%TO.C,R4*%
X121498379Y-90425000D02*
X121833621Y-90425000D01*
X121498379Y-91185000D02*
X121833621Y-91185000D01*
%TO.C,C12*%
X148061000Y-89673165D02*
X148061000Y-89904835D01*
X147341000Y-89673165D02*
X147341000Y-89904835D01*
%TO.C,R17*%
X137415000Y-84241621D02*
X137415000Y-83906379D01*
X138175000Y-84241621D02*
X138175000Y-83906379D01*
%TO.C,R1*%
X154345621Y-86486000D02*
X154010379Y-86486000D01*
X154345621Y-85726000D02*
X154010379Y-85726000D01*
%TO.C,C16*%
X127891000Y-77714733D02*
X127891000Y-78007267D01*
X126871000Y-77714733D02*
X126871000Y-78007267D01*
%TO.C,R5*%
X134787621Y-73913000D02*
X134452379Y-73913000D01*
X134787621Y-73153000D02*
X134452379Y-73153000D01*
D12*
%TO.C,Q7*%
X121910000Y-102874000D02*
X121910000Y-97874000D01*
X127010000Y-102874000D02*
X127010000Y-97874000D01*
D10*
%TO.C,R9*%
X142326379Y-88266000D02*
X142661621Y-88266000D01*
X142326379Y-89026000D02*
X142661621Y-89026000D01*
%TO.C,R18*%
X129709000Y-96735737D02*
X129709000Y-95288263D01*
X132419000Y-96735737D02*
X132419000Y-95288263D01*
D12*
%TO.C,U2*%
X132182000Y-78137500D02*
X130182000Y-78137500D01*
X132182000Y-75877500D02*
X130182000Y-75877500D01*
D13*
%TO.C,U5*%
X127830772Y-86474771D02*
X128181497Y-86825496D01*
X132888000Y-91531999D02*
X132537275Y-91181274D01*
X128181497Y-86124046D02*
X127830772Y-86474771D01*
X133238725Y-91181274D02*
X132888000Y-91531999D01*
X132537275Y-81768268D02*
X132888000Y-81417543D01*
X137594503Y-86825496D02*
X137945228Y-86474771D01*
X132888000Y-81417543D02*
X133238725Y-81768268D01*
X137945228Y-86474771D02*
X137594503Y-86124046D01*
D14*
X128161745Y-87386939D02*
G75*
G03*
X128161745Y-87386939I-75000J0D01*
G01*
D10*
%TO.C,C2*%
X154082165Y-84476000D02*
X154313835Y-84476000D01*
X154082165Y-85196000D02*
X154313835Y-85196000D01*
%TO.C,L1*%
X154278200Y-76560000D02*
X154077800Y-76560000D01*
X154278200Y-75840000D02*
X154077800Y-75840000D01*
D13*
%TO.C,U3*%
X148763000Y-88045000D02*
X151915000Y-88045000D01*
X148763000Y-88280000D02*
X148763000Y-88045000D01*
X148763000Y-90961000D02*
X148763000Y-91197000D01*
X148763000Y-91197000D02*
X151915000Y-91197000D01*
X151915000Y-88045000D02*
X151915000Y-88280000D01*
X151915000Y-91197000D02*
X151915000Y-90961000D01*
D14*
X148509000Y-88224000D02*
G75*
G03*
X148509000Y-88224000I-75000J0D01*
G01*
D10*
%TO.C,C22*%
X120349600Y-94818252D02*
X120349600Y-93395748D01*
X122169600Y-94818252D02*
X122169600Y-93395748D01*
%TO.C,C7*%
X128545000Y-77293335D02*
X128545000Y-77061665D01*
X129265000Y-77293335D02*
X129265000Y-77061665D01*
D12*
%TO.C,Q12*%
X155712000Y-98250000D02*
X155712000Y-103250000D01*
X150612000Y-98250000D02*
X150612000Y-103250000D01*
D10*
%TO.C,R2*%
X154010379Y-78106000D02*
X154345621Y-78106000D01*
X154010379Y-78866000D02*
X154345621Y-78866000D01*
D12*
%TO.C,Q9*%
X139200000Y-104862000D02*
X139200000Y-99862000D01*
X144300000Y-104862000D02*
X144300000Y-99862000D01*
D10*
%TO.C,C23*%
X139552000Y-96741252D02*
X139552000Y-95318748D01*
X141372000Y-96741252D02*
X141372000Y-95318748D01*
%TO.C,R3*%
X146979621Y-73913000D02*
X146644379Y-73913000D01*
X146979621Y-73153000D02*
X146644379Y-73153000D01*
%TO.C,C20*%
X125124800Y-94818252D02*
X125124800Y-93395748D01*
X126944800Y-94818252D02*
X126944800Y-93395748D01*
%TO.C,D3*%
X128217000Y-84820000D02*
X128217000Y-82820000D01*
X128217000Y-84820000D02*
X124207000Y-84820000D01*
X128217000Y-82820000D02*
X124207000Y-82820000D01*
%TO.C,C25*%
X144886000Y-96741252D02*
X144886000Y-95318748D01*
X146706000Y-96741252D02*
X146706000Y-95318748D01*
%TO.C,C1*%
X144283165Y-73163000D02*
X144514835Y-73163000D01*
X144283165Y-73883000D02*
X144514835Y-73883000D01*
%TO.C,R8*%
X153798000Y-89067621D02*
X153798000Y-88732379D01*
X154558000Y-89067621D02*
X154558000Y-88732379D01*
%TO.C,C8*%
X154082165Y-76983000D02*
X154313835Y-76983000D01*
X154082165Y-77703000D02*
X154313835Y-77703000D01*
%TO.C,C9*%
X153658835Y-91038000D02*
X153427165Y-91038000D01*
X153658835Y-90318000D02*
X153427165Y-90318000D01*
%TO.C,C30*%
X124595252Y-88794000D02*
X123172748Y-88794000D01*
X124595252Y-86974000D02*
X123172748Y-86974000D01*
D15*
%TO.C,TV1*%
X156370000Y-94410000D02*
X156370000Y-94141100D01*
X156370000Y-94410000D02*
X151770000Y-94410000D01*
X156370000Y-91878900D02*
X156370000Y-91610000D01*
X156370000Y-91610000D02*
X151770000Y-91610000D01*
D12*
X154830000Y-92950000D02*
X153340000Y-92950000D01*
X154660000Y-93250000D02*
X154660000Y-92650000D01*
X154660000Y-93250000D02*
X154072000Y-92961000D01*
X154600000Y-92650000D02*
X154072000Y-92961000D01*
X154072000Y-92961000D02*
X154072000Y-93342000D01*
X154072000Y-92961000D02*
X154072000Y-92580000D01*
X153530000Y-92660000D02*
X154072000Y-92961000D01*
X153500000Y-93260000D02*
X154072000Y-92961000D01*
X153500000Y-93260000D02*
X153500000Y-92660000D01*
D15*
X151770000Y-94410000D02*
X151770000Y-94141100D01*
X151770000Y-91878900D02*
X151770000Y-91610000D01*
%TO.C,X1*%
X153818000Y-84049000D02*
X155118000Y-84049000D01*
X153803000Y-83014000D02*
X153803000Y-82777000D01*
X155103000Y-83014000D02*
X155103000Y-82777000D01*
X153803000Y-81815000D02*
X153803000Y-81578000D01*
X155103000Y-81815000D02*
X155103000Y-81578000D01*
X155088000Y-80543000D02*
X153788000Y-80543000D01*
D10*
%TO.C,R10*%
X152186621Y-73913000D02*
X151851379Y-73913000D01*
X152186621Y-73153000D02*
X151851379Y-73153000D01*
%TO.C,C33*%
X124860267Y-86362000D02*
X124567733Y-86362000D01*
X124860267Y-85342000D02*
X124567733Y-85342000D01*
%TO.C,C31*%
X134500000Y-80534165D02*
X134500000Y-80765835D01*
X133780000Y-80534165D02*
X133780000Y-80765835D01*
%TO.C,C35*%
X134999000Y-76753767D02*
X134999000Y-76461233D01*
X136019000Y-76753767D02*
X136019000Y-76461233D01*
%TO.C,C14*%
X151903165Y-74316000D02*
X152134835Y-74316000D01*
X151903165Y-75036000D02*
X152134835Y-75036000D01*
%TO.C,C15*%
X128289267Y-82044000D02*
X127996733Y-82044000D01*
X128289267Y-81024000D02*
X127996733Y-81024000D01*
%TO.C,C26*%
X147426000Y-96741252D02*
X147426000Y-95318748D01*
X149246000Y-96741252D02*
X149246000Y-95318748D01*
%TO.C,U1*%
X151360000Y-86110000D02*
X151360000Y-85160000D01*
X151360000Y-85160000D02*
X152700000Y-85160000D01*
X151360000Y-75890000D02*
X151360000Y-76840000D01*
X150410000Y-86110000D02*
X151360000Y-86110000D01*
X150410000Y-75890000D02*
X151360000Y-75890000D01*
X142090000Y-86110000D02*
X141140000Y-86110000D01*
X142090000Y-75890000D02*
X141140000Y-75890000D01*
X141140000Y-86110000D02*
X141140000Y-85160000D01*
X141140000Y-75890000D02*
X141140000Y-76840000D01*
%TO.C,kibuzzard-65072293*%
G36*
X127555562Y-107609475D02*
G01*
X127606362Y-107806325D01*
X127649225Y-108001588D01*
X127687325Y-108204788D01*
X127303150Y-108204788D01*
X127342837Y-108001588D01*
X127387287Y-107806325D01*
X127438087Y-107609475D01*
X127496825Y-107398337D01*
X127555562Y-107609475D01*
G37*
G36*
X128926633Y-109644121D02*
G01*
X128265175Y-109644121D01*
X127846075Y-109644121D01*
X126734825Y-109644121D01*
X126073367Y-109644121D01*
X126073367Y-108982663D01*
X126734825Y-108982663D01*
X127141225Y-108982663D01*
X127230125Y-108528638D01*
X127754000Y-108528638D01*
X127846075Y-108982663D01*
X128265175Y-108982663D01*
X128212788Y-108759841D01*
X128159765Y-108543496D01*
X128106107Y-108333629D01*
X128051815Y-108130238D01*
X127996887Y-107933325D01*
X127927732Y-107694505D01*
X127858378Y-107462234D01*
X127788826Y-107236512D01*
X127719075Y-107017338D01*
X127293625Y-107017338D01*
X127226355Y-107234726D01*
X127157894Y-107458266D01*
X127088242Y-107687957D01*
X127017400Y-107923800D01*
X126960377Y-108119062D01*
X126903608Y-108322580D01*
X126847093Y-108534353D01*
X126790832Y-108754380D01*
X126734825Y-108982663D01*
X126073367Y-108982663D01*
X126073367Y-106355879D01*
X126734825Y-106355879D01*
X128265175Y-106355879D01*
X128926633Y-106355879D01*
X128926633Y-109644121D01*
G37*
%TO.C,R16*%
X138175000Y-81493379D02*
X138175000Y-81828621D01*
X137415000Y-81493379D02*
X137415000Y-81828621D01*
D12*
%TO.C,Q8*%
X132979000Y-99818000D02*
X132979000Y-104818000D01*
X127879000Y-99818000D02*
X127879000Y-104818000D01*
D10*
%TO.C,C6*%
X151522165Y-86635000D02*
X151753835Y-86635000D01*
X151522165Y-87355000D02*
X151753835Y-87355000D01*
%TO.C,kibuzzard-650722BD*%
G36*
X153863133Y-109686983D02*
G01*
X153201675Y-109686983D01*
X152652400Y-109686983D01*
X151798325Y-109686983D01*
X151136867Y-109686983D01*
X151136867Y-108000000D01*
X151798325Y-108000000D01*
X151812017Y-108231973D01*
X151853094Y-108435769D01*
X151921555Y-108611386D01*
X152017400Y-108758825D01*
X152185322Y-108906992D01*
X152396989Y-108995892D01*
X152652400Y-109025525D01*
X152825834Y-109014809D01*
X152977838Y-108982662D01*
X153201675Y-108889000D01*
X153103250Y-108581025D01*
X152942913Y-108650875D01*
X152690500Y-108685800D01*
X152463884Y-108640953D01*
X152311088Y-108506412D01*
X152246706Y-108369358D01*
X152208076Y-108197379D01*
X152195200Y-107990475D01*
X152205916Y-107812675D01*
X152238062Y-107666625D01*
X152349188Y-107458662D01*
X152504763Y-107347537D01*
X152684150Y-107314200D01*
X152920688Y-107347537D01*
X153096900Y-107428500D01*
X153198500Y-107117350D01*
X153133413Y-107079250D01*
X153027050Y-107031625D01*
X152879413Y-106991937D01*
X152690500Y-106974475D01*
X152504366Y-106991541D01*
X152333313Y-107042737D01*
X152180913Y-107126875D01*
X152050737Y-107242762D01*
X151944772Y-107389209D01*
X151865000Y-107565025D01*
X151814994Y-107769019D01*
X151798325Y-108000000D01*
X151136867Y-108000000D01*
X151136867Y-106313017D01*
X151798325Y-106313017D01*
X153201675Y-106313017D01*
X153863133Y-106313017D01*
X153863133Y-109686983D01*
G37*
%TO.C,R19*%
X135645000Y-96723737D02*
X135645000Y-95276263D01*
X138355000Y-96723737D02*
X138355000Y-95276263D01*
%TO.C,C34*%
X133221000Y-76753767D02*
X133221000Y-76461233D01*
X134241000Y-76753767D02*
X134241000Y-76461233D01*
D12*
%TO.C,Q10*%
X138694000Y-99818000D02*
X138694000Y-104818000D01*
X133594000Y-99818000D02*
X133594000Y-104818000D01*
D10*
%TO.C,C29*%
X154254252Y-96668000D02*
X152831748Y-96668000D01*
X154254252Y-94848000D02*
X152831748Y-94848000D01*
D11*
%TO.C,D1*%
X141269000Y-88646000D02*
G75*
G03*
X141269000Y-88646000I-50000J0D01*
G01*
%TO.C,D2*%
X141269000Y-89916000D02*
G75*
G03*
X141269000Y-89916000I-50000J0D01*
G01*
D10*
%TO.C,R14*%
X125135621Y-91185000D02*
X124800379Y-91185000D01*
X125135621Y-90425000D02*
X124800379Y-90425000D01*
%TO.C,C24*%
X141965000Y-96741252D02*
X141965000Y-95318748D01*
X143785000Y-96741252D02*
X143785000Y-95318748D01*
%TO.C,R13*%
X124800379Y-89282000D02*
X125135621Y-89282000D01*
X124800379Y-90042000D02*
X125135621Y-90042000D01*
%TO.C,C32*%
X139838165Y-87016000D02*
X140069835Y-87016000D01*
X139838165Y-87736000D02*
X140069835Y-87736000D01*
%TO.C,C3*%
X149109165Y-73163000D02*
X149340835Y-73163000D01*
X149109165Y-73883000D02*
X149340835Y-73883000D01*
%TO.C,C21*%
X122737200Y-94818252D02*
X122737200Y-93395748D01*
X124557200Y-94818252D02*
X124557200Y-93395748D01*
%TO.C,C28*%
X127740000Y-90570267D02*
X127740000Y-90277733D01*
X128760000Y-90570267D02*
X128760000Y-90277733D01*
%TO.C,R11*%
X142326379Y-89536000D02*
X142661621Y-89536000D01*
X142326379Y-90296000D02*
X142661621Y-90296000D01*
D13*
%TO.C,L2*%
X126351000Y-76722000D02*
X126351000Y-81774000D01*
X126087000Y-76722000D02*
X126351000Y-76722000D01*
X121563000Y-76722000D02*
X121299000Y-76722000D01*
X121299000Y-76722000D02*
X121299000Y-81774000D01*
X126351000Y-81774000D02*
X126087000Y-81774000D01*
X121299000Y-81774000D02*
X121563000Y-81774000D01*
D10*
%TO.C,R6*%
X138008379Y-73153000D02*
X138343621Y-73153000D01*
X138008379Y-73913000D02*
X138343621Y-73913000D01*
%TO.C,C4*%
X141870165Y-73163000D02*
X142101835Y-73163000D01*
X141870165Y-73883000D02*
X142101835Y-73883000D01*
D12*
%TO.C,Q11*%
X144770000Y-104862000D02*
X144770000Y-99862000D01*
X149870000Y-104862000D02*
X149870000Y-99862000D01*
D10*
%TO.C,C5*%
X138578000Y-84189835D02*
X138578000Y-83958165D01*
X139298000Y-84189835D02*
X139298000Y-83958165D01*
%TO.C,C27*%
X127110000Y-90181165D02*
X127110000Y-90412835D01*
X126390000Y-90181165D02*
X126390000Y-90412835D01*
%TD*%
M02*
