%TF.GenerationSoftware,KiCad,Pcbnew,7.0.6*%
%TF.CreationDate,2023-10-03T21:22:34+08:00*%
%TF.ProjectId,CawDrive,43617744-7269-4766-952e-6b696361645f,rev?*%
%TF.SameCoordinates,Original*%
%TF.FileFunction,Soldermask,Top*%
%TF.FilePolarity,Negative*%
%FSLAX46Y46*%
G04 Gerber Fmt 4.6, Leading zero omitted, Abs format (unit mm)*
G04 Created by KiCad (PCBNEW 7.0.6) date 2023-10-03 21:22:34*
%MOMM*%
%LPD*%
G01*
G04 APERTURE LIST*
G04 Aperture macros list*
%AMRoundRect*
0 Rectangle with rounded corners*
0 $1 Rounding radius*
0 $2 $3 $4 $5 $6 $7 $8 $9 X,Y pos of 4 corners*
0 Add a 4 corners polygon primitive as box body*
4,1,4,$2,$3,$4,$5,$6,$7,$8,$9,$2,$3,0*
0 Add four circle primitives for the rounded corners*
1,1,$1+$1,$2,$3*
1,1,$1+$1,$4,$5*
1,1,$1+$1,$6,$7*
1,1,$1+$1,$8,$9*
0 Add four rect primitives between the rounded corners*
20,1,$1+$1,$2,$3,$4,$5,0*
20,1,$1+$1,$4,$5,$6,$7,0*
20,1,$1+$1,$6,$7,$8,$9,0*
20,1,$1+$1,$8,$9,$2,$3,0*%
%AMRotRect*
0 Rectangle, with rotation*
0 The origin of the aperture is its center*
0 $1 length*
0 $2 width*
0 $3 Rotation angle, in degrees counterclockwise*
0 Add horizontal line*
21,1,$1,$2,0,0,$3*%
G04 Aperture macros list end*
%ADD10RoundRect,0.160000X0.197500X0.160000X-0.197500X0.160000X-0.197500X-0.160000X0.197500X-0.160000X0*%
%ADD11RoundRect,0.160000X-0.160000X0.222500X-0.160000X-0.222500X0.160000X-0.222500X0.160000X0.222500X0*%
%ADD12RoundRect,0.155000X-0.212500X-0.155000X0.212500X-0.155000X0.212500X0.155000X-0.212500X0.155000X0*%
%ADD13RoundRect,0.160000X-0.197500X-0.160000X0.197500X-0.160000X0.197500X0.160000X-0.197500X0.160000X0*%
%ADD14RoundRect,0.155000X-0.155000X0.212500X-0.155000X-0.212500X0.155000X-0.212500X0.155000X0.212500X0*%
%ADD15RoundRect,0.160000X0.160000X-0.197500X0.160000X0.197500X-0.160000X0.197500X-0.160000X-0.197500X0*%
%ADD16RoundRect,0.237500X-0.237500X0.300000X-0.237500X-0.300000X0.237500X-0.300000X0.237500X0.300000X0*%
%ADD17RoundRect,0.102000X0.425000X-0.725000X0.425000X0.725000X-0.425000X0.725000X-0.425000X-0.725000X0*%
%ADD18RoundRect,0.102000X0.425000X-0.525000X0.425000X0.525000X-0.425000X0.525000X-0.425000X-0.525000X0*%
%ADD19RoundRect,0.102000X2.350000X-1.875000X2.350000X1.875000X-2.350000X1.875000X-2.350000X-1.875000X0*%
%ADD20RoundRect,0.250000X1.075000X-0.400000X1.075000X0.400000X-1.075000X0.400000X-1.075000X-0.400000X0*%
%ADD21RoundRect,0.750000X-0.750000X-0.750000X0.750000X-0.750000X0.750000X0.750000X-0.750000X0.750000X0*%
%ADD22R,0.660000X0.320000*%
%ADD23RoundRect,0.102000X-0.500000X0.800000X-0.500000X-0.800000X0.500000X-0.800000X0.500000X0.800000X0*%
%ADD24RotRect,0.665000X0.280000X45.000000*%
%ADD25RotRect,0.280000X0.665000X45.000000*%
%ADD26RotRect,5.150000X5.150000X45.000000*%
%ADD27RoundRect,0.160000X0.222500X0.160000X-0.222500X0.160000X-0.222500X-0.160000X0.222500X-0.160000X0*%
%ADD28O,0.840000X0.350000*%
%ADD29R,1.650000X2.400000*%
%ADD30R,1.200000X2.200000*%
%ADD31RoundRect,0.250000X0.650000X-0.412500X0.650000X0.412500X-0.650000X0.412500X-0.650000X-0.412500X0*%
%ADD32RoundRect,0.155000X0.155000X-0.212500X0.155000X0.212500X-0.155000X0.212500X-0.155000X-0.212500X0*%
%ADD33RoundRect,0.102000X-0.425000X0.725000X-0.425000X-0.725000X0.425000X-0.725000X0.425000X0.725000X0*%
%ADD34RoundRect,0.102000X-0.425000X0.525000X-0.425000X-0.525000X0.425000X-0.525000X0.425000X0.525000X0*%
%ADD35RoundRect,0.102000X-2.350000X1.875000X-2.350000X-1.875000X2.350000X-1.875000X2.350000X1.875000X0*%
%ADD36C,0.800000*%
%ADD37C,5.000000*%
%ADD38RoundRect,0.225000X0.225000X0.375000X-0.225000X0.375000X-0.225000X-0.375000X0.225000X-0.375000X0*%
%ADD39RoundRect,0.155000X0.212500X0.155000X-0.212500X0.155000X-0.212500X-0.155000X0.212500X-0.155000X0*%
%ADD40RoundRect,0.250000X0.412500X0.650000X-0.412500X0.650000X-0.412500X-0.650000X0.412500X-0.650000X0*%
%ADD41RoundRect,0.050800X1.000000X0.900000X-1.000000X0.900000X-1.000000X-0.900000X1.000000X-0.900000X0*%
%ADD42R,1.700000X0.650000*%
%ADD43R,1.700000X0.500000*%
%ADD44RoundRect,0.237500X0.300000X0.237500X-0.300000X0.237500X-0.300000X-0.237500X0.300000X-0.237500X0*%
%ADD45RoundRect,0.237500X0.237500X-0.300000X0.237500X0.300000X-0.237500X0.300000X-0.237500X-0.300000X0*%
%ADD46RoundRect,0.075000X0.700000X0.075000X-0.700000X0.075000X-0.700000X-0.075000X0.700000X-0.075000X0*%
%ADD47RoundRect,0.075000X0.075000X0.700000X-0.075000X0.700000X-0.075000X-0.700000X0.075000X-0.700000X0*%
%ADD48RoundRect,0.160000X-0.160000X0.197500X-0.160000X-0.197500X0.160000X-0.197500X0.160000X0.197500X0*%
%ADD49R,2.200000X1.200000*%
%ADD50R,4.220000X2.124000*%
G04 APERTURE END LIST*
D10*
%TO.C,R7*%
X138138500Y-75692000D03*
X136943500Y-75692000D03*
%TD*%
D11*
%TO.C,D4*%
X138049000Y-76897500D03*
X138049000Y-78042500D03*
%TD*%
D12*
%TO.C,C10*%
X157928500Y-93599000D03*
X159063500Y-93599000D03*
%TD*%
D13*
%TO.C,R4*%
X121068500Y-90805000D03*
X122263500Y-90805000D03*
%TD*%
D14*
%TO.C,C12*%
X147701000Y-89221500D03*
X147701000Y-90356500D03*
%TD*%
D15*
%TO.C,R17*%
X137795000Y-84671500D03*
X137795000Y-83476500D03*
%TD*%
D10*
%TO.C,R1*%
X154775500Y-86106000D03*
X153580500Y-86106000D03*
%TD*%
D16*
%TO.C,C16*%
X127381000Y-76998500D03*
X127381000Y-78723500D03*
%TD*%
D10*
%TO.C,R5*%
X135217500Y-73533000D03*
X134022500Y-73533000D03*
%TD*%
D17*
%TO.C,Q7*%
X122555000Y-103124000D03*
X123825000Y-103124000D03*
X125095000Y-103124000D03*
X126365000Y-103124000D03*
D18*
X126365000Y-97424000D03*
X125095000Y-97424000D03*
X123825000Y-97424000D03*
X122555000Y-97424000D03*
D19*
X124460000Y-99824000D03*
%TD*%
D13*
%TO.C,R9*%
X141896500Y-88646000D03*
X143091500Y-88646000D03*
%TD*%
D20*
%TO.C,R18*%
X131064000Y-97562000D03*
X131064000Y-94462000D03*
%TD*%
D21*
%TO.C,H8*%
X158000000Y-96000000D03*
%TD*%
D22*
%TO.C,U2*%
X132207000Y-77657500D03*
X132207000Y-77007500D03*
X132207000Y-76357500D03*
X130157000Y-76357500D03*
X130157000Y-77007500D03*
X130157000Y-77657500D03*
D23*
X131182000Y-77007500D03*
%TD*%
D24*
%TO.C,U5*%
X128534344Y-86939340D03*
X128887897Y-87292894D03*
X129241450Y-87646447D03*
X129595004Y-88000000D03*
X129948557Y-88353554D03*
X130302111Y-88707107D03*
X130655664Y-89060660D03*
X131009217Y-89414214D03*
X131362771Y-89767767D03*
X131716324Y-90121321D03*
X132069877Y-90474874D03*
X132423431Y-90828427D03*
D25*
X133352569Y-90828427D03*
X133706123Y-90474874D03*
X134059676Y-90121321D03*
X134413229Y-89767767D03*
X134766783Y-89414214D03*
X135120336Y-89060660D03*
X135473889Y-88707107D03*
X135827443Y-88353554D03*
X136180996Y-88000000D03*
X136534550Y-87646447D03*
X136888103Y-87292894D03*
X137241656Y-86939340D03*
D24*
X137241656Y-86010202D03*
X136888103Y-85656648D03*
X136534550Y-85303095D03*
X136180996Y-84949542D03*
X135827443Y-84595988D03*
X135473889Y-84242435D03*
X135120336Y-83888882D03*
X134766783Y-83535328D03*
X134413229Y-83181775D03*
X134059676Y-82828221D03*
X133706123Y-82474668D03*
X133352569Y-82121115D03*
D25*
X132423431Y-82121115D03*
X132069877Y-82474668D03*
X131716324Y-82828221D03*
X131362771Y-83181775D03*
X131009217Y-83535328D03*
X130655664Y-83888882D03*
X130302111Y-84242435D03*
X129948557Y-84595988D03*
X129595004Y-84949542D03*
X129241450Y-85303095D03*
X128887897Y-85656648D03*
X128534344Y-86010202D03*
D26*
X132888000Y-86474771D03*
%TD*%
D12*
%TO.C,C2*%
X153630500Y-84836000D03*
X154765500Y-84836000D03*
%TD*%
D27*
%TO.C,L1*%
X154750500Y-76200000D03*
X153605500Y-76200000D03*
%TD*%
D28*
%TO.C,U3*%
X148844000Y-88646000D03*
X148844000Y-89296000D03*
X148844000Y-89946000D03*
X148844000Y-90596000D03*
X151834000Y-90596000D03*
X151834000Y-89946000D03*
X151834000Y-89296000D03*
X151834000Y-88646000D03*
D29*
X150339000Y-89621000D03*
%TD*%
D30*
%TO.C,J1*%
X128000000Y-71500000D03*
X130400000Y-71500000D03*
X132800000Y-71500000D03*
X135200000Y-71500000D03*
X137600000Y-71500000D03*
X140000000Y-71500000D03*
X142400000Y-71500000D03*
X144800000Y-71500000D03*
X147200000Y-71500000D03*
X149600000Y-71500000D03*
X152000000Y-71500000D03*
%TD*%
D31*
%TO.C,C22*%
X121259600Y-95669500D03*
X121259600Y-92544500D03*
%TD*%
D32*
%TO.C,C7*%
X128905000Y-77745000D03*
X128905000Y-76610000D03*
%TD*%
D33*
%TO.C,Q12*%
X155067000Y-98000000D03*
X153797000Y-98000000D03*
X152527000Y-98000000D03*
X151257000Y-98000000D03*
D34*
X151257000Y-103700000D03*
X152527000Y-103700000D03*
X153797000Y-103700000D03*
X155067000Y-103700000D03*
D35*
X153162000Y-101300000D03*
%TD*%
D13*
%TO.C,R2*%
X153580500Y-78486000D03*
X154775500Y-78486000D03*
%TD*%
D17*
%TO.C,Q9*%
X139845000Y-105112000D03*
X141115000Y-105112000D03*
X142385000Y-105112000D03*
X143655000Y-105112000D03*
D18*
X143655000Y-99412000D03*
X142385000Y-99412000D03*
X141115000Y-99412000D03*
X139845000Y-99412000D03*
D19*
X141750000Y-101812000D03*
%TD*%
D31*
%TO.C,C23*%
X140462000Y-97592500D03*
X140462000Y-94467500D03*
%TD*%
D36*
%TO.C,H2*%
X155125000Y-73125000D03*
X155674175Y-71799175D03*
X155674175Y-74450825D03*
X157000000Y-71250000D03*
D37*
X157000000Y-73125000D03*
D36*
X157000000Y-75000000D03*
X158325825Y-71799175D03*
X158325825Y-74450825D03*
X158875000Y-73125000D03*
%TD*%
D10*
%TO.C,R3*%
X147409500Y-73533000D03*
X146214500Y-73533000D03*
%TD*%
D21*
%TO.C,H6*%
X140000000Y-108000000D03*
%TD*%
D31*
%TO.C,C20*%
X126034800Y-95669500D03*
X126034800Y-92544500D03*
%TD*%
D38*
%TO.C,D3*%
X127507000Y-83820000D03*
X124207000Y-83820000D03*
%TD*%
D31*
%TO.C,C25*%
X145796000Y-97592500D03*
X145796000Y-94467500D03*
%TD*%
D12*
%TO.C,C1*%
X143831500Y-73523000D03*
X144966500Y-73523000D03*
%TD*%
D15*
%TO.C,R8*%
X154178000Y-89497500D03*
X154178000Y-88302500D03*
%TD*%
D12*
%TO.C,C8*%
X153630500Y-77343000D03*
X154765500Y-77343000D03*
%TD*%
D39*
%TO.C,C9*%
X154110500Y-90678000D03*
X152975500Y-90678000D03*
%TD*%
D36*
%TO.C,H4*%
X121000000Y-107000000D03*
X121549175Y-105674175D03*
X121549175Y-108325825D03*
X122875000Y-105125000D03*
D37*
X122875000Y-107000000D03*
D36*
X122875000Y-108875000D03*
X124200825Y-105674175D03*
X124200825Y-108325825D03*
X124750000Y-107000000D03*
%TD*%
D40*
%TO.C,C30*%
X125446500Y-87884000D03*
X122321500Y-87884000D03*
%TD*%
D41*
%TO.C,TV1*%
X156070000Y-93010000D03*
X152070000Y-93010000D03*
%TD*%
D42*
%TO.C,X1*%
X154453000Y-83496000D03*
D43*
X154453000Y-82296000D03*
D42*
X154453000Y-81096000D03*
%TD*%
D10*
%TO.C,R10*%
X152616500Y-73533000D03*
X151421500Y-73533000D03*
%TD*%
D44*
%TO.C,C33*%
X125576500Y-85852000D03*
X123851500Y-85852000D03*
%TD*%
D14*
%TO.C,C31*%
X134140000Y-80082500D03*
X134140000Y-81217500D03*
%TD*%
D45*
%TO.C,C35*%
X135509000Y-77470000D03*
X135509000Y-75745000D03*
%TD*%
D12*
%TO.C,C14*%
X151451500Y-74676000D03*
X152586500Y-74676000D03*
%TD*%
D44*
%TO.C,C15*%
X129005500Y-81534000D03*
X127280500Y-81534000D03*
%TD*%
D31*
%TO.C,C26*%
X148336000Y-97592500D03*
X148336000Y-94467500D03*
%TD*%
D46*
%TO.C,U1*%
X151925000Y-84750000D03*
X151925000Y-84250000D03*
X151925000Y-83750000D03*
X151925000Y-83250000D03*
X151925000Y-82750000D03*
X151925000Y-82250000D03*
X151925000Y-81750000D03*
X151925000Y-81250000D03*
X151925000Y-80750000D03*
X151925000Y-80250000D03*
X151925000Y-79750000D03*
X151925000Y-79250000D03*
X151925000Y-78750000D03*
X151925000Y-78250000D03*
X151925000Y-77750000D03*
X151925000Y-77250000D03*
D47*
X150000000Y-75325000D03*
X149500000Y-75325000D03*
X149000000Y-75325000D03*
X148500000Y-75325000D03*
X148000000Y-75325000D03*
X147500000Y-75325000D03*
X147000000Y-75325000D03*
X146500000Y-75325000D03*
X146000000Y-75325000D03*
X145500000Y-75325000D03*
X145000000Y-75325000D03*
X144500000Y-75325000D03*
X144000000Y-75325000D03*
X143500000Y-75325000D03*
X143000000Y-75325000D03*
X142500000Y-75325000D03*
D46*
X140575000Y-77250000D03*
X140575000Y-77750000D03*
X140575000Y-78250000D03*
X140575000Y-78750000D03*
X140575000Y-79250000D03*
X140575000Y-79750000D03*
X140575000Y-80250000D03*
X140575000Y-80750000D03*
X140575000Y-81250000D03*
X140575000Y-81750000D03*
X140575000Y-82250000D03*
X140575000Y-82750000D03*
X140575000Y-83250000D03*
X140575000Y-83750000D03*
X140575000Y-84250000D03*
X140575000Y-84750000D03*
D47*
X142500000Y-86675000D03*
X143000000Y-86675000D03*
X143500000Y-86675000D03*
X144000000Y-86675000D03*
X144500000Y-86675000D03*
X145000000Y-86675000D03*
X145500000Y-86675000D03*
X146000000Y-86675000D03*
X146500000Y-86675000D03*
X147000000Y-86675000D03*
X147500000Y-86675000D03*
X148000000Y-86675000D03*
X148500000Y-86675000D03*
X149000000Y-86675000D03*
X149500000Y-86675000D03*
X150000000Y-86675000D03*
%TD*%
D48*
%TO.C,R16*%
X137795000Y-81063500D03*
X137795000Y-82258500D03*
%TD*%
D33*
%TO.C,Q8*%
X132334000Y-99568000D03*
X131064000Y-99568000D03*
X129794000Y-99568000D03*
X128524000Y-99568000D03*
D34*
X128524000Y-105268000D03*
X129794000Y-105268000D03*
X131064000Y-105268000D03*
X132334000Y-105268000D03*
D35*
X130429000Y-102868000D03*
%TD*%
D12*
%TO.C,C6*%
X151070500Y-86995000D03*
X152205500Y-86995000D03*
%TD*%
D21*
%TO.C,H7*%
X149000000Y-108000000D03*
%TD*%
D20*
%TO.C,R19*%
X137000000Y-97550000D03*
X137000000Y-94450000D03*
%TD*%
D45*
%TO.C,C34*%
X133731000Y-77470000D03*
X133731000Y-75745000D03*
%TD*%
D21*
%TO.C,H9*%
X158000000Y-102000000D03*
%TD*%
D33*
%TO.C,Q10*%
X138049000Y-99568000D03*
X136779000Y-99568000D03*
X135509000Y-99568000D03*
X134239000Y-99568000D03*
D34*
X134239000Y-105268000D03*
X135509000Y-105268000D03*
X136779000Y-105268000D03*
X138049000Y-105268000D03*
D35*
X136144000Y-102868000D03*
%TD*%
D40*
%TO.C,C29*%
X155105500Y-95758000D03*
X151980500Y-95758000D03*
%TD*%
D27*
%TO.C,D1*%
X140526500Y-88646000D03*
X139381500Y-88646000D03*
%TD*%
%TO.C,D2*%
X140526500Y-89916000D03*
X139381500Y-89916000D03*
%TD*%
D10*
%TO.C,R14*%
X125565500Y-90805000D03*
X124370500Y-90805000D03*
%TD*%
D31*
%TO.C,C24*%
X142875000Y-97592500D03*
X142875000Y-94467500D03*
%TD*%
D36*
%TO.C,H1*%
X121125000Y-73000000D03*
X121674175Y-71674175D03*
X121674175Y-74325825D03*
X123000000Y-71125000D03*
D37*
X123000000Y-73000000D03*
D36*
X123000000Y-74875000D03*
X124325825Y-71674175D03*
X124325825Y-74325825D03*
X124875000Y-73000000D03*
%TD*%
D49*
%TO.C,J4*%
X158496000Y-76874000D03*
X158496000Y-79274000D03*
X158496000Y-81674000D03*
X158496000Y-84074000D03*
X158496000Y-86474000D03*
X158496000Y-88874000D03*
X158496000Y-91274000D03*
%TD*%
D36*
%TO.C,H3*%
X155125000Y-107000000D03*
X155674175Y-105674175D03*
X155674175Y-108325825D03*
X157000000Y-105125000D03*
D37*
X157000000Y-107000000D03*
D36*
X157000000Y-108875000D03*
X158325825Y-105674175D03*
X158325825Y-108325825D03*
X158875000Y-107000000D03*
%TD*%
D13*
%TO.C,R13*%
X124370500Y-89662000D03*
X125565500Y-89662000D03*
%TD*%
D12*
%TO.C,C32*%
X139386500Y-87376000D03*
X140521500Y-87376000D03*
%TD*%
%TO.C,C3*%
X148657500Y-73523000D03*
X149792500Y-73523000D03*
%TD*%
D31*
%TO.C,C21*%
X123647200Y-95669500D03*
X123647200Y-92544500D03*
%TD*%
D21*
%TO.C,H5*%
X131000000Y-108000000D03*
%TD*%
D45*
%TO.C,C28*%
X128250000Y-91286500D03*
X128250000Y-89561500D03*
%TD*%
D13*
%TO.C,R11*%
X141896500Y-89916000D03*
X143091500Y-89916000D03*
%TD*%
D50*
%TO.C,L2*%
X123825000Y-81248000D03*
X123825000Y-77248000D03*
%TD*%
D13*
%TO.C,R6*%
X137578500Y-73533000D03*
X138773500Y-73533000D03*
%TD*%
D12*
%TO.C,C4*%
X141418500Y-73523000D03*
X142553500Y-73523000D03*
%TD*%
D17*
%TO.C,Q11*%
X145415000Y-105112000D03*
X146685000Y-105112000D03*
X147955000Y-105112000D03*
X149225000Y-105112000D03*
D18*
X149225000Y-99412000D03*
X147955000Y-99412000D03*
X146685000Y-99412000D03*
X145415000Y-99412000D03*
D19*
X147320000Y-101812000D03*
%TD*%
D32*
%TO.C,C5*%
X138938000Y-84641500D03*
X138938000Y-83506500D03*
%TD*%
D14*
%TO.C,C27*%
X126750000Y-89729500D03*
X126750000Y-90864500D03*
%TD*%
M02*
