%TF.GenerationSoftware,KiCad,Pcbnew,7.0.6*%
%TF.CreationDate,2023-10-03T21:22:34+08:00*%
%TF.ProjectId,CawDrive,43617744-7269-4766-952e-6b696361645f,rev?*%
%TF.SameCoordinates,Original*%
%TF.FileFunction,Copper,L3,Inr*%
%TF.FilePolarity,Positive*%
%FSLAX46Y46*%
G04 Gerber Fmt 4.6, Leading zero omitted, Abs format (unit mm)*
G04 Created by KiCad (PCBNEW 7.0.6) date 2023-10-03 21:22:34*
%MOMM*%
%LPD*%
G01*
G04 APERTURE LIST*
G04 Aperture macros list*
%AMRoundRect*
0 Rectangle with rounded corners*
0 $1 Rounding radius*
0 $2 $3 $4 $5 $6 $7 $8 $9 X,Y pos of 4 corners*
0 Add a 4 corners polygon primitive as box body*
4,1,4,$2,$3,$4,$5,$6,$7,$8,$9,$2,$3,0*
0 Add four circle primitives for the rounded corners*
1,1,$1+$1,$2,$3*
1,1,$1+$1,$4,$5*
1,1,$1+$1,$6,$7*
1,1,$1+$1,$8,$9*
0 Add four rect primitives between the rounded corners*
20,1,$1+$1,$2,$3,$4,$5,0*
20,1,$1+$1,$4,$5,$6,$7,0*
20,1,$1+$1,$6,$7,$8,$9,0*
20,1,$1+$1,$8,$9,$2,$3,0*%
G04 Aperture macros list end*
%TA.AperFunction,ComponentPad*%
%ADD10RoundRect,0.750000X-0.750000X-0.750000X0.750000X-0.750000X0.750000X0.750000X-0.750000X0.750000X0*%
%TD*%
%TA.AperFunction,ComponentPad*%
%ADD11C,0.800000*%
%TD*%
%TA.AperFunction,ComponentPad*%
%ADD12C,5.000000*%
%TD*%
%TA.AperFunction,ViaPad*%
%ADD13C,0.600000*%
%TD*%
%TA.AperFunction,ViaPad*%
%ADD14C,0.800000*%
%TD*%
G04 APERTURE END LIST*
D10*
%TO.N,GND1*%
%TO.C,H8*%
X158000000Y-96000000D03*
%TD*%
D11*
%TO.N,unconnected-(H2-Pad1)*%
%TO.C,H2*%
X155125000Y-73125000D03*
X155674175Y-71799175D03*
X155674175Y-74450825D03*
X157000000Y-71250000D03*
D12*
X157000000Y-73125000D03*
D11*
X157000000Y-75000000D03*
X158325825Y-71799175D03*
X158325825Y-74450825D03*
X158875000Y-73125000D03*
%TD*%
D10*
%TO.N,/DRV8323RSRGZR/PHASB*%
%TO.C,H6*%
X140000000Y-108000000D03*
%TD*%
D11*
%TO.N,unconnected-(H4-Pad1)*%
%TO.C,H4*%
X121000000Y-107000000D03*
X121549175Y-105674175D03*
X121549175Y-108325825D03*
X122875000Y-105125000D03*
D12*
X122875000Y-107000000D03*
D11*
X122875000Y-108875000D03*
X124200825Y-105674175D03*
X124200825Y-108325825D03*
X124750000Y-107000000D03*
%TD*%
D10*
%TO.N,/DRV8323RSRGZR/PHASC*%
%TO.C,H7*%
X149000000Y-108000000D03*
%TD*%
%TO.N,+36V*%
%TO.C,H9*%
X158000000Y-102000000D03*
%TD*%
D11*
%TO.N,unconnected-(H1-Pad1)*%
%TO.C,H1*%
X121125000Y-73000000D03*
X121674175Y-71674175D03*
X121674175Y-74325825D03*
X123000000Y-71125000D03*
D12*
X123000000Y-73000000D03*
D11*
X123000000Y-74875000D03*
X124325825Y-71674175D03*
X124325825Y-74325825D03*
X124875000Y-73000000D03*
%TD*%
%TO.N,unconnected-(H3-Pad1)*%
%TO.C,H3*%
X155125000Y-107000000D03*
X155674175Y-105674175D03*
X155674175Y-108325825D03*
X157000000Y-105125000D03*
D12*
X157000000Y-107000000D03*
D11*
X157000000Y-108875000D03*
X158325825Y-105674175D03*
X158325825Y-108325825D03*
X158875000Y-107000000D03*
%TD*%
D10*
%TO.N,/DRV8323RSRGZR/PHASA*%
%TO.C,H5*%
X131000000Y-108000000D03*
%TD*%
D13*
%TO.N,GND1*%
X125984000Y-93726000D03*
X148971000Y-94742000D03*
X148971000Y-93980000D03*
X146685000Y-94742000D03*
X146685000Y-93980000D03*
X143510000Y-94742000D03*
X143510000Y-93980000D03*
X141224000Y-94742000D03*
X141224000Y-93980000D03*
%TO.N,/DRV8323RSRGZR/PHASA*%
X125095000Y-103759000D03*
X123825000Y-103759000D03*
X122555000Y-103759000D03*
%TO.N,GND1*%
X138303000Y-94742000D03*
%TO.N,/DRV8323RSRGZR/SPA*%
X132588000Y-98044000D03*
X131826000Y-98044000D03*
X131826000Y-97155000D03*
X130302000Y-97155000D03*
%TO.N,GND1*%
X132461000Y-94742000D03*
X131699000Y-94742000D03*
X130810000Y-94742000D03*
X130048000Y-94742000D03*
%TO.N,+36V*%
X146685000Y-103251000D03*
X145415000Y-103251000D03*
X149225000Y-103251000D03*
X147955000Y-103251000D03*
X146685000Y-102235000D03*
X145415000Y-102235000D03*
X149225000Y-102235000D03*
X147955000Y-102235000D03*
X146685000Y-101219000D03*
X145415000Y-101219000D03*
X149225000Y-101219000D03*
X147955000Y-101219000D03*
X141097000Y-103251000D03*
X143637000Y-103251000D03*
X142367000Y-103251000D03*
X139827000Y-103251000D03*
X141097000Y-102235000D03*
X143637000Y-102235000D03*
X142367000Y-102235000D03*
X139827000Y-102235000D03*
X141097000Y-101219000D03*
X143637000Y-101219000D03*
X142367000Y-101219000D03*
X139827000Y-101219000D03*
%TO.N,/DRV8323RSRGZR/PHASB*%
X136779000Y-102362000D03*
X138049000Y-102362000D03*
X135509000Y-102362000D03*
X134239000Y-102362000D03*
X136779000Y-103378000D03*
X138049000Y-103378000D03*
X135509000Y-103378000D03*
X134239000Y-103378000D03*
%TO.N,/DRV8323RSRGZR/SPA*%
X129540000Y-97155000D03*
%TO.N,/DRV8323RSRGZR/PHASA*%
X131064000Y-102362000D03*
X128524000Y-102362000D03*
X132334000Y-102362000D03*
X129794000Y-102362000D03*
X131064000Y-103378000D03*
X128524000Y-103378000D03*
X132334000Y-103378000D03*
X129794000Y-103378000D03*
X129794000Y-104394000D03*
%TO.N,+36V*%
X126365000Y-101473000D03*
X123825000Y-101473000D03*
X125095000Y-101473000D03*
X122555000Y-101473000D03*
%TO.N,/DRV8323RSRGZR/PHASA*%
X125095000Y-102743000D03*
X123825000Y-102743000D03*
X122500000Y-102750000D03*
%TO.N,GND*%
X122263500Y-90080500D03*
%TO.N,GND1*%
X152527000Y-98425000D03*
X125095000Y-93726000D03*
X124206000Y-93726000D03*
X123317000Y-93726000D03*
X122428000Y-93726000D03*
X121539000Y-93726000D03*
X120650000Y-93726000D03*
X131699000Y-93980000D03*
X147447000Y-93980000D03*
X139700000Y-93980000D03*
%TO.N,GND*%
X132842000Y-83312000D03*
%TO.N,GND1*%
X148209000Y-94742000D03*
%TO.N,GND*%
X135890000Y-86360000D03*
%TO.N,GND1*%
X141986000Y-93980000D03*
%TO.N,GND*%
X129794000Y-86360000D03*
%TO.N,GND1*%
X139700000Y-94742000D03*
X142748000Y-94742000D03*
%TO.N,GND*%
X156874000Y-79274000D03*
%TO.N,GND1*%
X141986000Y-94742000D03*
%TO.N,GND*%
X138773500Y-74384500D03*
%TO.N,GND1*%
X145923000Y-94742000D03*
%TO.N,GND*%
X128510000Y-78760000D03*
X132715000Y-75491000D03*
X123571000Y-90805000D03*
X141351000Y-87376000D03*
%TO.N,GND1*%
X145161000Y-93980000D03*
X136652000Y-93980000D03*
X153797000Y-98425000D03*
%TO.N,GND*%
X133858000Y-86360000D03*
X130810000Y-87376000D03*
%TO.N,GND1*%
X155067000Y-97282000D03*
%TO.N,GND*%
X143360000Y-76660000D03*
X156845000Y-86487000D03*
D14*
X131191000Y-76962000D03*
D13*
X150114000Y-89281000D03*
%TO.N,GND1*%
X130048000Y-93980000D03*
%TO.N,GND*%
X153560000Y-74670000D03*
X132842000Y-85344000D03*
%TO.N,GND1*%
X137541000Y-94742000D03*
%TO.N,GND*%
X134874000Y-87376000D03*
%TO.N,GND1*%
X140462000Y-93980000D03*
X148209000Y-93980000D03*
X140462000Y-94742000D03*
%TO.N,GND*%
X133858000Y-84328000D03*
%TO.N,GND1*%
X132461000Y-93980000D03*
%TO.N,GND*%
X155702000Y-90678000D03*
X131826000Y-84328000D03*
X131826000Y-88392000D03*
X153110000Y-86990000D03*
%TO.N,GND1*%
X136652000Y-94742000D03*
%TO.N,GND*%
X138938000Y-82550000D03*
X130400000Y-73279000D03*
%TO.N,GND1*%
X133096000Y-91821000D03*
%TO.N,GND*%
X131826000Y-86360000D03*
X155702000Y-82296000D03*
X154775500Y-86868000D03*
%TO.N,GND1*%
X145161000Y-94742000D03*
X155067000Y-98425000D03*
X137541000Y-93980000D03*
X142748000Y-93980000D03*
X135532652Y-91844652D03*
X153670000Y-97282000D03*
X147447000Y-94742000D03*
%TO.N,GND*%
X133858000Y-88392000D03*
X130810000Y-85344000D03*
X155610000Y-78486000D03*
X148831905Y-84708095D03*
X141351000Y-72009000D03*
X149910000Y-77180000D03*
X132842000Y-89408000D03*
%TO.N,GND1*%
X130810000Y-93980000D03*
X135890000Y-94742000D03*
X145923000Y-93980000D03*
X135890000Y-93980000D03*
%TO.N,GND*%
X132842000Y-87376000D03*
X134874000Y-85344000D03*
%TO.N,+3.3V*%
X149700000Y-84430000D03*
X149109697Y-77121745D03*
X134112000Y-74422000D03*
X128016000Y-73279000D03*
X138581568Y-87368377D03*
X138557000Y-88646000D03*
X138595882Y-81191882D03*
X156730000Y-76870000D03*
X140000000Y-73198000D03*
X142479937Y-76426750D03*
X150620000Y-84760000D03*
X154940000Y-90678000D03*
X136667162Y-77339220D03*
X140462000Y-85471000D03*
X136652000Y-77978000D03*
X154750000Y-75340000D03*
X136652000Y-76708000D03*
X139480000Y-85450000D03*
X153560000Y-73570000D03*
%TO.N,+5V*%
X123825000Y-77216000D03*
X146939000Y-90356500D03*
X123571000Y-89662000D03*
%TO.N,/RESET*%
X132715000Y-73660000D03*
X150622000Y-81788000D03*
%TO.N,+36V*%
X147955000Y-100203000D03*
X139827000Y-100203000D03*
X149225000Y-100203000D03*
X123825000Y-98425000D03*
X122555000Y-99441000D03*
X125095000Y-98425000D03*
X122555000Y-100457000D03*
X143637000Y-100203000D03*
X142367000Y-100203000D03*
X145415000Y-100203000D03*
X129667000Y-90043000D03*
X126365000Y-99441000D03*
X123825000Y-99441000D03*
X126365000Y-98425000D03*
X125576500Y-85852000D03*
X125095000Y-100457000D03*
X126365000Y-100457000D03*
X146685000Y-100203000D03*
X122555000Y-98425000D03*
X125095000Y-99441000D03*
X123825000Y-100457000D03*
X141097000Y-100203000D03*
%TO.N,/DRV8323RSRGZR/PHASA*%
X131064000Y-104394000D03*
X128524000Y-104394000D03*
X132334000Y-104394000D03*
%TO.N,/DRV8323RSRGZR/PHASB*%
X142367000Y-104521000D03*
X141097000Y-105664000D03*
X138049000Y-104394000D03*
X135509000Y-104394000D03*
X139827000Y-105664000D03*
X134239000Y-104394000D03*
X139827000Y-104521000D03*
X136779000Y-104394000D03*
X142367000Y-105664000D03*
X141097000Y-104521000D03*
%TO.N,/DRV8323RSRGZR/PHASC*%
X146685000Y-105664000D03*
X151257000Y-100750000D03*
X151257000Y-99822000D03*
X145415000Y-104521000D03*
X146685000Y-104521000D03*
X153797000Y-99822000D03*
X151257000Y-101727000D03*
X147955000Y-105664000D03*
X147955000Y-104521000D03*
X155067000Y-99822000D03*
X153797000Y-101727000D03*
X145415000Y-105664000D03*
X152527000Y-101727000D03*
X155067000Y-101727000D03*
X152527000Y-100750000D03*
X155067000Y-100750000D03*
X153797000Y-100750000D03*
X152527000Y-99822000D03*
%TO.N,/SPI1_NSS*%
X147540000Y-79110000D03*
X143764000Y-72009000D03*
%TO.N,/SPI1_MISO*%
X147531910Y-76580000D03*
X148590000Y-72009000D03*
%TO.N,/SPI1_MOSI*%
X147535640Y-77331893D03*
X151003000Y-72009000D03*
%TO.N,/SWDIO*%
X135250000Y-74422000D03*
X142114768Y-83659440D03*
%TO.N,/SWCLK*%
X137578500Y-74366590D03*
X143129000Y-83659440D03*
%TO.N,/DRV8323RSRGZR/SPA*%
X132588000Y-97155000D03*
X131064000Y-98044000D03*
X130302000Y-98044000D03*
X129540000Y-98044000D03*
%TO.N,/DRV8323RSRGZR/SPB*%
X135382000Y-97917000D03*
X136906000Y-97917000D03*
X135128000Y-91186000D03*
X137795000Y-97155000D03*
X133968090Y-91416090D03*
X137795000Y-97917000D03*
X136906000Y-97155000D03*
X135382000Y-97155000D03*
X136144000Y-97155000D03*
X136144000Y-97917000D03*
%TO.N,Net-(U1-BOOT0)*%
X152527000Y-85979000D03*
X147955000Y-85471000D03*
%TO.N,/SPI1_SCK*%
X147510000Y-78260000D03*
X146177000Y-72009000D03*
%TO.N,/SPI3_MISO*%
X144420000Y-85255670D03*
X136780000Y-81250000D03*
%TO.N,/TIM1_PWM_CH1N*%
X143050260Y-79707740D03*
X131440955Y-81056511D03*
%TO.N,/TIM1_PWM_CH2N*%
X142752706Y-78872391D03*
X130197292Y-82010000D03*
%TO.N,/TIM1_PWM_CH3N*%
X141859000Y-78781910D03*
X129788590Y-83581410D03*
%TO.N,/TIM1_PWM_CH1*%
X142494000Y-81280000D03*
X132224647Y-80714647D03*
%TO.N,/TIM1_PWM_CH2*%
X142723301Y-82148540D03*
X130915183Y-81621345D03*
%TO.N,/TIM1_PWM_CH3*%
X141986000Y-82296000D03*
X130211162Y-82959485D03*
%TO.N,/SPI3_NSS*%
X135812032Y-82192032D03*
X143031910Y-84723760D03*
%TO.N,/SPI3_SCK*%
X143570000Y-85255670D03*
X136518470Y-82641189D03*
%TO.N,/SPI3_MOSI*%
X145161000Y-83947000D03*
X136369895Y-83404937D03*
%TO.N,/USART2_TX*%
X152350000Y-76340000D03*
X156870000Y-84074000D03*
%TO.N,/USART2_RX*%
X156972000Y-81534000D03*
X150610000Y-73950000D03*
%TO.N,/ADC1_IN8*%
X138430000Y-86631910D03*
X147193000Y-83947000D03*
%TO.N,/ADC1_IN9*%
X146168292Y-83804782D03*
X137795000Y-88011000D03*
%TO.N,/CAN_RX*%
X147701000Y-88325540D03*
X148082000Y-91186000D03*
%TO.N,/CAN_STB*%
X153940000Y-87010000D03*
X146079510Y-88060000D03*
%TD*%
%TA.AperFunction,Conductor*%
%TO.N,GND1*%
G36*
X159962677Y-92261423D02*
G01*
X159974100Y-92289000D01*
X159974100Y-98961000D01*
X159962677Y-98988577D01*
X159935100Y-99000000D01*
X129028110Y-99000000D01*
X129000533Y-98988577D01*
X128991111Y-98973333D01*
X128732214Y-98196643D01*
X128681334Y-98044003D01*
X128980715Y-98044003D01*
X128999771Y-98188753D01*
X129055644Y-98323641D01*
X129055645Y-98323643D01*
X129144525Y-98439474D01*
X129233406Y-98507674D01*
X129260357Y-98528355D01*
X129360303Y-98569754D01*
X129395246Y-98584228D01*
X129539997Y-98603285D01*
X129540000Y-98603285D01*
X129540003Y-98603285D01*
X129648565Y-98588992D01*
X129684754Y-98584228D01*
X129819643Y-98528355D01*
X129897258Y-98468797D01*
X129926090Y-98461073D01*
X129944741Y-98468797D01*
X130022357Y-98528355D01*
X130122303Y-98569754D01*
X130157246Y-98584228D01*
X130301997Y-98603285D01*
X130302000Y-98603285D01*
X130302003Y-98603285D01*
X130410565Y-98588992D01*
X130446754Y-98584228D01*
X130581643Y-98528355D01*
X130659258Y-98468797D01*
X130688090Y-98461073D01*
X130706741Y-98468797D01*
X130784357Y-98528355D01*
X130884303Y-98569754D01*
X130919246Y-98584228D01*
X131063997Y-98603285D01*
X131064000Y-98603285D01*
X131064003Y-98603285D01*
X131172565Y-98588992D01*
X131208754Y-98584228D01*
X131343643Y-98528355D01*
X131421258Y-98468797D01*
X131450090Y-98461073D01*
X131468741Y-98468797D01*
X131546357Y-98528355D01*
X131646303Y-98569754D01*
X131681246Y-98584228D01*
X131825997Y-98603285D01*
X131826000Y-98603285D01*
X131826003Y-98603285D01*
X131934565Y-98588992D01*
X131970754Y-98584228D01*
X132105643Y-98528355D01*
X132183258Y-98468797D01*
X132212090Y-98461073D01*
X132230741Y-98468797D01*
X132308357Y-98528355D01*
X132408303Y-98569754D01*
X132443246Y-98584228D01*
X132587997Y-98603285D01*
X132588000Y-98603285D01*
X132588003Y-98603285D01*
X132696565Y-98588992D01*
X132732754Y-98584228D01*
X132867643Y-98528355D01*
X132983474Y-98439474D01*
X133072355Y-98323643D01*
X133128228Y-98188754D01*
X133147285Y-98044000D01*
X133147285Y-98043996D01*
X133130566Y-97917003D01*
X134822715Y-97917003D01*
X134841771Y-98061753D01*
X134897644Y-98196641D01*
X134897645Y-98196643D01*
X134986525Y-98312474D01*
X135024741Y-98341798D01*
X135102357Y-98401355D01*
X135194384Y-98439474D01*
X135237246Y-98457228D01*
X135381997Y-98476285D01*
X135382000Y-98476285D01*
X135382003Y-98476285D01*
X135497548Y-98461073D01*
X135526754Y-98457228D01*
X135661643Y-98401355D01*
X135739258Y-98341797D01*
X135768090Y-98334073D01*
X135786741Y-98341797D01*
X135864357Y-98401355D01*
X135956384Y-98439474D01*
X135999246Y-98457228D01*
X136143997Y-98476285D01*
X136144000Y-98476285D01*
X136144003Y-98476285D01*
X136259548Y-98461073D01*
X136288754Y-98457228D01*
X136423643Y-98401355D01*
X136501258Y-98341797D01*
X136530090Y-98334073D01*
X136548741Y-98341797D01*
X136626357Y-98401355D01*
X136718384Y-98439474D01*
X136761246Y-98457228D01*
X136905997Y-98476285D01*
X136906000Y-98476285D01*
X136906003Y-98476285D01*
X137021548Y-98461073D01*
X137050754Y-98457228D01*
X137185643Y-98401355D01*
X137301474Y-98312474D01*
X137309580Y-98301909D01*
X137319559Y-98288906D01*
X137345409Y-98273981D01*
X137374241Y-98281706D01*
X137381441Y-98288906D01*
X137399524Y-98312472D01*
X137399526Y-98312474D01*
X137515357Y-98401355D01*
X137607384Y-98439474D01*
X137650246Y-98457228D01*
X137794997Y-98476285D01*
X137795000Y-98476285D01*
X137795003Y-98476285D01*
X137910548Y-98461073D01*
X137939754Y-98457228D01*
X138074643Y-98401355D01*
X138190474Y-98312474D01*
X138279355Y-98196643D01*
X138335228Y-98061754D01*
X138354285Y-97917000D01*
X138354285Y-97916996D01*
X138335229Y-97772249D01*
X138331961Y-97764359D01*
X138279355Y-97637358D01*
X138219796Y-97559740D01*
X138212072Y-97530910D01*
X138219798Y-97512258D01*
X138226310Y-97503772D01*
X138279355Y-97434643D01*
X138335228Y-97299754D01*
X138354285Y-97155000D01*
X138354285Y-97154996D01*
X138335229Y-97010249D01*
X138279355Y-96875359D01*
X138279354Y-96875357D01*
X138190474Y-96759525D01*
X138074643Y-96670645D01*
X138074641Y-96670644D01*
X137939753Y-96614771D01*
X137795003Y-96595715D01*
X137794997Y-96595715D01*
X137650249Y-96614770D01*
X137515359Y-96670644D01*
X137515357Y-96670645D01*
X137399523Y-96759527D01*
X137381440Y-96783094D01*
X137355590Y-96798018D01*
X137326758Y-96790292D01*
X137319560Y-96783094D01*
X137301476Y-96759527D01*
X137185643Y-96670645D01*
X137185641Y-96670644D01*
X137050753Y-96614771D01*
X136906003Y-96595715D01*
X136905997Y-96595715D01*
X136761249Y-96614770D01*
X136626359Y-96670644D01*
X136626353Y-96670648D01*
X136548741Y-96730201D01*
X136519909Y-96737926D01*
X136501258Y-96730201D01*
X136423643Y-96670645D01*
X136423641Y-96670644D01*
X136288753Y-96614771D01*
X136144003Y-96595715D01*
X136143997Y-96595715D01*
X135999249Y-96614770D01*
X135864359Y-96670644D01*
X135864353Y-96670648D01*
X135786741Y-96730201D01*
X135757909Y-96737926D01*
X135739258Y-96730201D01*
X135661643Y-96670645D01*
X135661641Y-96670644D01*
X135526753Y-96614771D01*
X135382003Y-96595715D01*
X135381997Y-96595715D01*
X135237249Y-96614770D01*
X135102359Y-96670644D01*
X135102357Y-96670645D01*
X134986525Y-96759525D01*
X134897645Y-96875357D01*
X134897644Y-96875359D01*
X134841770Y-97010249D01*
X134822715Y-97154996D01*
X134822715Y-97155003D01*
X134841771Y-97299753D01*
X134897644Y-97434641D01*
X134897645Y-97434643D01*
X134957201Y-97512258D01*
X134964926Y-97541091D01*
X134957201Y-97559741D01*
X134897648Y-97637353D01*
X134897644Y-97637359D01*
X134841770Y-97772249D01*
X134822715Y-97916996D01*
X134822715Y-97917003D01*
X133130566Y-97917003D01*
X133128229Y-97899249D01*
X133128228Y-97899246D01*
X133072355Y-97764358D01*
X132983474Y-97648526D01*
X132983472Y-97648525D01*
X132983472Y-97648524D01*
X132959906Y-97630441D01*
X132944981Y-97604591D01*
X132952706Y-97575759D01*
X132959906Y-97568559D01*
X132972909Y-97558580D01*
X132983474Y-97550474D01*
X133072355Y-97434643D01*
X133128228Y-97299754D01*
X133147285Y-97155000D01*
X133147285Y-97154996D01*
X133128229Y-97010249D01*
X133072355Y-96875359D01*
X133072354Y-96875357D01*
X132983474Y-96759525D01*
X132867643Y-96670645D01*
X132867641Y-96670644D01*
X132732753Y-96614771D01*
X132588003Y-96595715D01*
X132587997Y-96595715D01*
X132443249Y-96614770D01*
X132308359Y-96670644D01*
X132308353Y-96670648D01*
X132230741Y-96730201D01*
X132201909Y-96737926D01*
X132183258Y-96730201D01*
X132105643Y-96670645D01*
X132105641Y-96670644D01*
X131970753Y-96614771D01*
X131826003Y-96595715D01*
X131825997Y-96595715D01*
X131681249Y-96614770D01*
X131546359Y-96670644D01*
X131546357Y-96670645D01*
X131430525Y-96759525D01*
X131341645Y-96875357D01*
X131341644Y-96875359D01*
X131285770Y-97010249D01*
X131266715Y-97154996D01*
X131266715Y-97155003D01*
X131285771Y-97299753D01*
X131341644Y-97434641D01*
X131341645Y-97434643D01*
X131392907Y-97501448D01*
X131400632Y-97530280D01*
X131385708Y-97556131D01*
X131356876Y-97563856D01*
X131346168Y-97560224D01*
X131346004Y-97560623D01*
X131208753Y-97503771D01*
X131064003Y-97484715D01*
X131063997Y-97484715D01*
X130919249Y-97503770D01*
X130781997Y-97560623D01*
X130781533Y-97559503D01*
X130755899Y-97562852D01*
X130732237Y-97544656D01*
X130728371Y-97515058D01*
X130735091Y-97501450D01*
X130786355Y-97434643D01*
X130842228Y-97299754D01*
X130861285Y-97155000D01*
X130861285Y-97154996D01*
X130842229Y-97010249D01*
X130786355Y-96875359D01*
X130786354Y-96875357D01*
X130697474Y-96759525D01*
X130581643Y-96670645D01*
X130581641Y-96670644D01*
X130446753Y-96614771D01*
X130302003Y-96595715D01*
X130301997Y-96595715D01*
X130157249Y-96614770D01*
X130022359Y-96670644D01*
X130022353Y-96670648D01*
X129944741Y-96730201D01*
X129915909Y-96737926D01*
X129897258Y-96730201D01*
X129819643Y-96670645D01*
X129819641Y-96670644D01*
X129684753Y-96614771D01*
X129540003Y-96595715D01*
X129539997Y-96595715D01*
X129395249Y-96614770D01*
X129260359Y-96670644D01*
X129260357Y-96670645D01*
X129144525Y-96759525D01*
X129055645Y-96875357D01*
X129055644Y-96875359D01*
X128999770Y-97010249D01*
X128980715Y-97154996D01*
X128980715Y-97155003D01*
X128999771Y-97299753D01*
X129055644Y-97434641D01*
X129055645Y-97434643D01*
X129144527Y-97550476D01*
X129168094Y-97568560D01*
X129183018Y-97594410D01*
X129175292Y-97623242D01*
X129168094Y-97630440D01*
X129144527Y-97648523D01*
X129055645Y-97764357D01*
X129055644Y-97764359D01*
X128999770Y-97899249D01*
X128980715Y-98043996D01*
X128980715Y-98044003D01*
X128681334Y-98044003D01*
X127500000Y-94500000D01*
X127499999Y-94500000D01*
X120064900Y-94500000D01*
X120037323Y-94488577D01*
X120025900Y-94461000D01*
X120025900Y-92289000D01*
X120037323Y-92261423D01*
X120064900Y-92250000D01*
X159935100Y-92250000D01*
X159962677Y-92261423D01*
G37*
%TD.AperFunction*%
%TD*%
%TA.AperFunction,Conductor*%
%TO.N,+36V*%
G36*
X126999467Y-95011423D02*
G01*
X127008889Y-95026666D01*
X128500000Y-99500000D01*
X150731823Y-99500000D01*
X150759400Y-99511423D01*
X150770823Y-99539000D01*
X150767854Y-99553925D01*
X150716770Y-99677249D01*
X150697715Y-99821996D01*
X150697715Y-99822003D01*
X150716771Y-99966753D01*
X150772644Y-100101641D01*
X150772645Y-100101643D01*
X150861525Y-100217474D01*
X150910507Y-100255059D01*
X150925431Y-100280910D01*
X150917706Y-100309742D01*
X150910507Y-100316941D01*
X150861525Y-100354525D01*
X150772645Y-100470357D01*
X150772644Y-100470359D01*
X150716770Y-100605249D01*
X150697715Y-100749996D01*
X150697715Y-100750003D01*
X150716771Y-100894753D01*
X150772644Y-101029641D01*
X150772645Y-101029643D01*
X150861525Y-101145474D01*
X150942436Y-101207559D01*
X150957360Y-101233410D01*
X150949635Y-101262242D01*
X150942436Y-101269441D01*
X150861525Y-101331525D01*
X150772645Y-101447357D01*
X150772644Y-101447359D01*
X150716770Y-101582249D01*
X150697715Y-101726996D01*
X150697715Y-101727003D01*
X150716771Y-101871753D01*
X150772644Y-102006641D01*
X150772645Y-102006643D01*
X150861525Y-102122474D01*
X150941336Y-102183715D01*
X150977357Y-102211355D01*
X151091525Y-102258645D01*
X151112246Y-102267228D01*
X151256997Y-102286285D01*
X151257000Y-102286285D01*
X151257003Y-102286285D01*
X151365565Y-102271992D01*
X151401754Y-102267228D01*
X151536643Y-102211355D01*
X151652474Y-102122474D01*
X151741355Y-102006643D01*
X151797228Y-101871754D01*
X151816285Y-101727000D01*
X151816285Y-101726996D01*
X151797229Y-101582249D01*
X151741355Y-101447359D01*
X151741354Y-101447357D01*
X151652474Y-101331525D01*
X151605328Y-101295349D01*
X151571562Y-101269439D01*
X151556639Y-101243591D01*
X151564364Y-101214758D01*
X151571559Y-101207562D01*
X151652474Y-101145474D01*
X151741355Y-101029643D01*
X151797228Y-100894754D01*
X151816285Y-100750000D01*
X151816285Y-100749996D01*
X151797229Y-100605249D01*
X151741355Y-100470359D01*
X151741354Y-100470357D01*
X151652474Y-100354525D01*
X151618724Y-100328629D01*
X151603490Y-100316939D01*
X151588567Y-100291090D01*
X151596292Y-100262257D01*
X151603491Y-100255059D01*
X151652474Y-100217474D01*
X151741355Y-100101643D01*
X151797228Y-99966754D01*
X151816285Y-99822000D01*
X151816285Y-99821996D01*
X151797229Y-99677249D01*
X151746146Y-99553925D01*
X151746146Y-99524075D01*
X151767252Y-99502969D01*
X151782177Y-99500000D01*
X152001823Y-99500000D01*
X152029400Y-99511423D01*
X152040823Y-99539000D01*
X152037854Y-99553925D01*
X151986770Y-99677249D01*
X151967715Y-99821996D01*
X151967715Y-99822003D01*
X151986771Y-99966753D01*
X152042644Y-100101641D01*
X152042645Y-100101643D01*
X152131525Y-100217474D01*
X152180507Y-100255059D01*
X152195431Y-100280910D01*
X152187706Y-100309742D01*
X152180507Y-100316941D01*
X152131525Y-100354525D01*
X152042645Y-100470357D01*
X152042644Y-100470359D01*
X151986770Y-100605249D01*
X151967715Y-100749996D01*
X151967715Y-100750003D01*
X151986771Y-100894753D01*
X152042644Y-101029641D01*
X152042645Y-101029643D01*
X152131525Y-101145474D01*
X152212436Y-101207559D01*
X152227360Y-101233410D01*
X152219635Y-101262242D01*
X152212436Y-101269441D01*
X152131525Y-101331525D01*
X152042645Y-101447357D01*
X152042644Y-101447359D01*
X151986770Y-101582249D01*
X151967715Y-101726996D01*
X151967715Y-101727003D01*
X151986771Y-101871753D01*
X152042644Y-102006641D01*
X152042645Y-102006643D01*
X152131525Y-102122474D01*
X152211336Y-102183715D01*
X152247357Y-102211355D01*
X152361525Y-102258645D01*
X152382246Y-102267228D01*
X152526997Y-102286285D01*
X152527000Y-102286285D01*
X152527003Y-102286285D01*
X152635565Y-102271992D01*
X152671754Y-102267228D01*
X152806643Y-102211355D01*
X152922474Y-102122474D01*
X153011355Y-102006643D01*
X153067228Y-101871754D01*
X153086285Y-101727000D01*
X153086285Y-101726996D01*
X153067229Y-101582249D01*
X153011355Y-101447359D01*
X153011354Y-101447357D01*
X152922474Y-101331525D01*
X152875328Y-101295349D01*
X152841562Y-101269439D01*
X152826639Y-101243591D01*
X152834364Y-101214758D01*
X152841559Y-101207562D01*
X152922474Y-101145474D01*
X153011355Y-101029643D01*
X153067228Y-100894754D01*
X153086285Y-100750000D01*
X153086285Y-100749996D01*
X153067229Y-100605249D01*
X153011355Y-100470359D01*
X153011354Y-100470357D01*
X152922474Y-100354525D01*
X152888724Y-100328629D01*
X152873490Y-100316939D01*
X152858567Y-100291090D01*
X152866292Y-100262257D01*
X152873491Y-100255059D01*
X152922474Y-100217474D01*
X153011355Y-100101643D01*
X153067228Y-99966754D01*
X153086285Y-99822000D01*
X153086285Y-99821996D01*
X153067229Y-99677249D01*
X153016146Y-99553925D01*
X153016146Y-99524075D01*
X153037252Y-99502969D01*
X153052177Y-99500000D01*
X153271823Y-99500000D01*
X153299400Y-99511423D01*
X153310823Y-99539000D01*
X153307854Y-99553925D01*
X153256770Y-99677249D01*
X153237715Y-99821996D01*
X153237715Y-99822003D01*
X153256771Y-99966753D01*
X153312644Y-100101641D01*
X153312645Y-100101643D01*
X153401525Y-100217474D01*
X153450507Y-100255059D01*
X153465431Y-100280910D01*
X153457706Y-100309742D01*
X153450507Y-100316941D01*
X153401525Y-100354525D01*
X153312645Y-100470357D01*
X153312644Y-100470359D01*
X153256770Y-100605249D01*
X153237715Y-100749996D01*
X153237715Y-100750003D01*
X153256771Y-100894753D01*
X153312644Y-101029641D01*
X153312645Y-101029643D01*
X153401525Y-101145474D01*
X153482436Y-101207559D01*
X153497360Y-101233410D01*
X153489635Y-101262242D01*
X153482436Y-101269441D01*
X153401525Y-101331525D01*
X153312645Y-101447357D01*
X153312644Y-101447359D01*
X153256770Y-101582249D01*
X153237715Y-101726996D01*
X153237715Y-101727003D01*
X153256771Y-101871753D01*
X153312644Y-102006641D01*
X153312645Y-102006643D01*
X153401525Y-102122474D01*
X153481336Y-102183715D01*
X153517357Y-102211355D01*
X153631525Y-102258645D01*
X153652246Y-102267228D01*
X153796997Y-102286285D01*
X153797000Y-102286285D01*
X153797003Y-102286285D01*
X153905565Y-102271992D01*
X153941754Y-102267228D01*
X154076643Y-102211355D01*
X154192474Y-102122474D01*
X154281355Y-102006643D01*
X154337228Y-101871754D01*
X154356285Y-101727000D01*
X154356285Y-101726996D01*
X154337229Y-101582249D01*
X154281355Y-101447359D01*
X154281354Y-101447357D01*
X154192474Y-101331525D01*
X154145328Y-101295349D01*
X154111562Y-101269439D01*
X154096639Y-101243591D01*
X154104364Y-101214758D01*
X154111559Y-101207562D01*
X154192474Y-101145474D01*
X154281355Y-101029643D01*
X154337228Y-100894754D01*
X154356285Y-100750000D01*
X154356285Y-100749996D01*
X154337229Y-100605249D01*
X154281355Y-100470359D01*
X154281354Y-100470357D01*
X154192474Y-100354525D01*
X154158724Y-100328629D01*
X154143490Y-100316939D01*
X154128567Y-100291090D01*
X154136292Y-100262257D01*
X154143491Y-100255059D01*
X154192474Y-100217474D01*
X154281355Y-100101643D01*
X154337228Y-99966754D01*
X154356285Y-99822000D01*
X154356285Y-99821996D01*
X154337229Y-99677249D01*
X154286146Y-99553925D01*
X154286146Y-99524075D01*
X154307252Y-99502969D01*
X154322177Y-99500000D01*
X154541823Y-99500000D01*
X154569400Y-99511423D01*
X154580823Y-99539000D01*
X154577854Y-99553925D01*
X154526770Y-99677249D01*
X154507715Y-99821996D01*
X154507715Y-99822003D01*
X154526771Y-99966753D01*
X154582644Y-100101641D01*
X154582645Y-100101643D01*
X154671525Y-100217474D01*
X154720507Y-100255059D01*
X154735431Y-100280910D01*
X154727706Y-100309742D01*
X154720507Y-100316941D01*
X154671525Y-100354525D01*
X154582645Y-100470357D01*
X154582644Y-100470359D01*
X154526770Y-100605249D01*
X154507715Y-100749996D01*
X154507715Y-100750003D01*
X154526771Y-100894753D01*
X154582644Y-101029641D01*
X154582645Y-101029643D01*
X154671525Y-101145474D01*
X154752436Y-101207559D01*
X154767360Y-101233410D01*
X154759635Y-101262242D01*
X154752436Y-101269441D01*
X154671525Y-101331525D01*
X154582645Y-101447357D01*
X154582644Y-101447359D01*
X154526770Y-101582249D01*
X154507715Y-101726996D01*
X154507715Y-101727003D01*
X154526771Y-101871753D01*
X154582644Y-102006641D01*
X154582645Y-102006643D01*
X154671525Y-102122474D01*
X154751336Y-102183715D01*
X154787357Y-102211355D01*
X154901525Y-102258645D01*
X154922246Y-102267228D01*
X155066997Y-102286285D01*
X155067000Y-102286285D01*
X155067003Y-102286285D01*
X155175565Y-102271992D01*
X155211754Y-102267228D01*
X155346643Y-102211355D01*
X155462474Y-102122474D01*
X155551355Y-102006643D01*
X155607228Y-101871754D01*
X155626285Y-101727000D01*
X155626285Y-101726996D01*
X155607229Y-101582249D01*
X155551355Y-101447359D01*
X155551354Y-101447357D01*
X155462474Y-101331525D01*
X155415328Y-101295349D01*
X155381562Y-101269439D01*
X155366639Y-101243591D01*
X155374364Y-101214758D01*
X155381559Y-101207562D01*
X155462474Y-101145474D01*
X155551355Y-101029643D01*
X155607228Y-100894754D01*
X155626285Y-100750000D01*
X155626285Y-100749996D01*
X155607229Y-100605249D01*
X155551355Y-100470359D01*
X155551354Y-100470357D01*
X155462474Y-100354525D01*
X155428724Y-100328629D01*
X155413490Y-100316939D01*
X155398567Y-100291090D01*
X155406292Y-100262257D01*
X155413491Y-100255059D01*
X155462474Y-100217474D01*
X155551355Y-100101643D01*
X155607228Y-99966754D01*
X155626285Y-99822000D01*
X155626285Y-99821996D01*
X155607229Y-99677249D01*
X155556146Y-99553925D01*
X155556146Y-99524075D01*
X155577252Y-99502969D01*
X155592177Y-99500000D01*
X159935100Y-99500000D01*
X159962677Y-99511423D01*
X159974100Y-99539000D01*
X159974100Y-106999481D01*
X159974073Y-107000501D01*
X159957860Y-107309859D01*
X159957647Y-107311890D01*
X159909268Y-107617342D01*
X159908843Y-107619340D01*
X159828802Y-107918056D01*
X159828171Y-107919999D01*
X159717341Y-108208722D01*
X159716510Y-108210588D01*
X159576110Y-108486139D01*
X159575088Y-108487907D01*
X159406654Y-108747273D01*
X159405453Y-108748926D01*
X159210829Y-108989267D01*
X159209462Y-108990785D01*
X158990785Y-109209462D01*
X158989267Y-109210829D01*
X158748926Y-109405453D01*
X158747273Y-109406654D01*
X158487907Y-109575088D01*
X158486139Y-109576110D01*
X158210588Y-109716510D01*
X158208722Y-109717341D01*
X157919999Y-109828171D01*
X157918056Y-109828802D01*
X157619340Y-109908843D01*
X157617342Y-109909268D01*
X157311890Y-109957647D01*
X157309859Y-109957860D01*
X157000501Y-109974073D01*
X156999481Y-109974100D01*
X123000519Y-109974100D01*
X122999499Y-109974073D01*
X122690140Y-109957860D01*
X122688109Y-109957647D01*
X122382657Y-109909268D01*
X122380659Y-109908843D01*
X122081943Y-109828802D01*
X122080000Y-109828171D01*
X121791277Y-109717341D01*
X121789411Y-109716510D01*
X121521907Y-109580210D01*
X121513855Y-109576107D01*
X121512092Y-109575088D01*
X121252726Y-109406654D01*
X121251073Y-109405453D01*
X121010732Y-109210829D01*
X121009214Y-109209462D01*
X120790537Y-108990785D01*
X120789170Y-108989267D01*
X120594546Y-108748926D01*
X120593345Y-108747273D01*
X120424911Y-108487907D01*
X120423895Y-108486150D01*
X120283487Y-108210584D01*
X120282658Y-108208722D01*
X120171825Y-107919991D01*
X120171197Y-107918056D01*
X120091156Y-107619340D01*
X120090731Y-107617342D01*
X120045636Y-107332626D01*
X120042351Y-107311884D01*
X120042139Y-107309859D01*
X120025927Y-107000501D01*
X120025914Y-106999999D01*
X120115465Y-106999999D01*
X120135584Y-107332626D01*
X120135585Y-107332630D01*
X120195651Y-107660400D01*
X120294787Y-107978538D01*
X120294789Y-107978545D01*
X120398384Y-108208722D01*
X120431553Y-108282420D01*
X120603947Y-108567595D01*
X120809458Y-108829910D01*
X121045090Y-109065542D01*
X121307405Y-109271053D01*
X121592580Y-109443447D01*
X121744517Y-109511828D01*
X121896454Y-109580210D01*
X121896461Y-109580212D01*
X122214599Y-109679348D01*
X122542369Y-109739414D01*
X122542373Y-109739415D01*
X122578270Y-109741586D01*
X122875000Y-109759535D01*
X123188653Y-109740562D01*
X123207626Y-109739415D01*
X123207630Y-109739414D01*
X123330071Y-109716976D01*
X123535400Y-109679348D01*
X123853545Y-109580210D01*
X124157420Y-109443447D01*
X124442595Y-109271053D01*
X124704910Y-109065542D01*
X124940542Y-108829910D01*
X124957502Y-108808262D01*
X129245500Y-108808262D01*
X129247425Y-108829910D01*
X129256156Y-108928126D01*
X129312358Y-109124541D01*
X129356717Y-109209462D01*
X129406946Y-109305620D01*
X129536048Y-109463952D01*
X129694380Y-109593054D01*
X129875460Y-109687642D01*
X130071872Y-109743843D01*
X130191738Y-109754500D01*
X130191743Y-109754500D01*
X131808257Y-109754500D01*
X131808262Y-109754500D01*
X131928128Y-109743843D01*
X132124540Y-109687642D01*
X132305620Y-109593054D01*
X132463952Y-109463952D01*
X132593054Y-109305620D01*
X132687642Y-109124540D01*
X132743843Y-108928128D01*
X132754500Y-108808262D01*
X138245500Y-108808262D01*
X138247425Y-108829910D01*
X138256156Y-108928126D01*
X138312358Y-109124541D01*
X138356717Y-109209462D01*
X138406946Y-109305620D01*
X138536048Y-109463952D01*
X138694380Y-109593054D01*
X138875460Y-109687642D01*
X139071872Y-109743843D01*
X139191738Y-109754500D01*
X139191743Y-109754500D01*
X140808257Y-109754500D01*
X140808262Y-109754500D01*
X140928128Y-109743843D01*
X141124540Y-109687642D01*
X141305620Y-109593054D01*
X141463952Y-109463952D01*
X141593054Y-109305620D01*
X141687642Y-109124540D01*
X141743843Y-108928128D01*
X141754500Y-108808262D01*
X147245500Y-108808262D01*
X147247425Y-108829910D01*
X147256156Y-108928126D01*
X147312358Y-109124541D01*
X147356717Y-109209462D01*
X147406946Y-109305620D01*
X147536048Y-109463952D01*
X147694380Y-109593054D01*
X147875460Y-109687642D01*
X148071872Y-109743843D01*
X148191738Y-109754500D01*
X148191743Y-109754500D01*
X149808257Y-109754500D01*
X149808262Y-109754500D01*
X149928128Y-109743843D01*
X150124540Y-109687642D01*
X150305620Y-109593054D01*
X150463952Y-109463952D01*
X150593054Y-109305620D01*
X150687642Y-109124540D01*
X150743843Y-108928128D01*
X150754500Y-108808262D01*
X150754500Y-107191738D01*
X150743843Y-107071872D01*
X150723277Y-106999999D01*
X154240465Y-106999999D01*
X154260584Y-107332626D01*
X154260585Y-107332630D01*
X154320651Y-107660400D01*
X154419787Y-107978538D01*
X154419789Y-107978545D01*
X154523384Y-108208722D01*
X154556553Y-108282420D01*
X154728947Y-108567595D01*
X154934458Y-108829910D01*
X155170090Y-109065542D01*
X155432405Y-109271053D01*
X155717580Y-109443447D01*
X155869517Y-109511828D01*
X156021454Y-109580210D01*
X156021461Y-109580212D01*
X156339599Y-109679348D01*
X156667369Y-109739414D01*
X156667373Y-109739415D01*
X156703270Y-109741586D01*
X157000000Y-109759535D01*
X157313653Y-109740562D01*
X157332626Y-109739415D01*
X157332630Y-109739414D01*
X157455071Y-109716976D01*
X157660400Y-109679348D01*
X157978545Y-109580210D01*
X158282420Y-109443447D01*
X158567595Y-109271053D01*
X158829910Y-109065542D01*
X159065542Y-108829910D01*
X159271053Y-108567595D01*
X159443447Y-108282420D01*
X159580210Y-107978545D01*
X159679348Y-107660400D01*
X159739415Y-107332625D01*
X159759535Y-107000000D01*
X159741586Y-106703270D01*
X159739415Y-106667373D01*
X159739414Y-106667369D01*
X159679348Y-106339599D01*
X159580212Y-106021461D01*
X159580210Y-106021454D01*
X159484481Y-105808754D01*
X159443447Y-105717580D01*
X159271053Y-105432405D01*
X159065542Y-105170090D01*
X158829910Y-104934458D01*
X158567595Y-104728947D01*
X158282420Y-104556553D01*
X158282418Y-104556552D01*
X157978545Y-104419789D01*
X157978538Y-104419787D01*
X157660400Y-104320651D01*
X157332630Y-104260585D01*
X157332626Y-104260584D01*
X157000000Y-104240465D01*
X156667373Y-104260584D01*
X156667369Y-104260585D01*
X156339599Y-104320651D01*
X156021461Y-104419787D01*
X156021454Y-104419789D01*
X155717581Y-104556552D01*
X155432405Y-104728947D01*
X155170093Y-104934455D01*
X155170087Y-104934460D01*
X154934460Y-105170087D01*
X154934455Y-105170093D01*
X154728947Y-105432405D01*
X154556552Y-105717581D01*
X154419789Y-106021454D01*
X154419787Y-106021461D01*
X154320651Y-106339599D01*
X154260585Y-106667369D01*
X154260584Y-106667373D01*
X154240465Y-106999999D01*
X150723277Y-106999999D01*
X150687642Y-106875460D01*
X150593054Y-106694380D01*
X150463952Y-106536048D01*
X150305620Y-106406946D01*
X150215080Y-106359652D01*
X150124541Y-106312358D01*
X149928126Y-106256156D01*
X149850323Y-106249239D01*
X149808262Y-106245500D01*
X148196181Y-106245500D01*
X148168604Y-106234077D01*
X148157181Y-106206500D01*
X148168604Y-106178923D01*
X148181256Y-106170469D01*
X148196213Y-106164273D01*
X148234643Y-106148355D01*
X148350474Y-106059474D01*
X148439355Y-105943643D01*
X148495228Y-105808754D01*
X148514285Y-105664000D01*
X148514285Y-105663996D01*
X148495229Y-105519249D01*
X148439355Y-105384359D01*
X148439354Y-105384357D01*
X148350474Y-105268525D01*
X148234643Y-105179645D01*
X148234641Y-105179644D01*
X148111244Y-105128531D01*
X148090138Y-105107425D01*
X148090138Y-105077575D01*
X148111244Y-105056469D01*
X148146115Y-105042024D01*
X148234643Y-105005355D01*
X148350474Y-104916474D01*
X148439355Y-104800643D01*
X148495228Y-104665754D01*
X148499992Y-104629565D01*
X148514285Y-104521003D01*
X148514285Y-104520996D01*
X148495229Y-104376249D01*
X148491256Y-104366657D01*
X148439355Y-104241358D01*
X148410254Y-104203433D01*
X148350474Y-104125525D01*
X148234643Y-104036645D01*
X148234641Y-104036644D01*
X148099753Y-103980771D01*
X147955003Y-103961715D01*
X147954997Y-103961715D01*
X147810249Y-103980770D01*
X147675359Y-104036644D01*
X147675357Y-104036645D01*
X147559525Y-104125525D01*
X147470645Y-104241357D01*
X147470644Y-104241359D01*
X147414770Y-104376249D01*
X147395715Y-104520996D01*
X147395715Y-104521003D01*
X147414771Y-104665753D01*
X147470644Y-104800641D01*
X147470645Y-104800643D01*
X147559525Y-104916474D01*
X147648406Y-104984674D01*
X147675357Y-105005355D01*
X147744378Y-105033944D01*
X147798756Y-105056469D01*
X147819862Y-105077575D01*
X147819862Y-105107425D01*
X147798756Y-105128531D01*
X147675359Y-105179644D01*
X147675357Y-105179645D01*
X147559525Y-105268525D01*
X147470645Y-105384357D01*
X147470644Y-105384359D01*
X147414770Y-105519249D01*
X147395715Y-105663996D01*
X147395715Y-105664003D01*
X147414771Y-105808753D01*
X147470644Y-105943641D01*
X147470645Y-105943643D01*
X147559525Y-106059474D01*
X147648406Y-106127674D01*
X147675357Y-106148355D01*
X147810246Y-106204228D01*
X147927566Y-106219673D01*
X147953417Y-106234597D01*
X147961142Y-106263429D01*
X147946218Y-106289280D01*
X147933205Y-106295834D01*
X147875458Y-106312358D01*
X147694380Y-106406946D01*
X147694377Y-106406948D01*
X147536048Y-106536048D01*
X147406948Y-106694377D01*
X147406946Y-106694380D01*
X147312358Y-106875458D01*
X147256156Y-107071873D01*
X147248994Y-107152435D01*
X147245500Y-107191738D01*
X147245500Y-108808262D01*
X141754500Y-108808262D01*
X141754500Y-107191738D01*
X141743843Y-107071872D01*
X141687642Y-106875460D01*
X141593054Y-106694380D01*
X141463952Y-106536048D01*
X141305620Y-106406946D01*
X141215080Y-106359652D01*
X141124541Y-106312358D01*
X141077912Y-106299016D01*
X141054541Y-106280448D01*
X141051146Y-106250792D01*
X141069714Y-106227421D01*
X141093732Y-106222855D01*
X141096998Y-106223285D01*
X141097000Y-106223285D01*
X141097003Y-106223285D01*
X141224496Y-106206500D01*
X141241754Y-106204228D01*
X141376643Y-106148355D01*
X141492474Y-106059474D01*
X141581355Y-105943643D01*
X141637228Y-105808754D01*
X141656285Y-105664003D01*
X141807715Y-105664003D01*
X141826771Y-105808753D01*
X141882644Y-105943641D01*
X141882645Y-105943643D01*
X141971525Y-106059474D01*
X142060405Y-106127674D01*
X142087357Y-106148355D01*
X142204222Y-106196762D01*
X142222246Y-106204228D01*
X142366997Y-106223285D01*
X142367000Y-106223285D01*
X142367003Y-106223285D01*
X142494496Y-106206500D01*
X142511754Y-106204228D01*
X142646643Y-106148355D01*
X142762474Y-106059474D01*
X142851355Y-105943643D01*
X142907228Y-105808754D01*
X142926285Y-105664003D01*
X144855715Y-105664003D01*
X144874771Y-105808753D01*
X144930644Y-105943641D01*
X144930645Y-105943643D01*
X145019525Y-106059474D01*
X145108405Y-106127674D01*
X145135357Y-106148355D01*
X145252222Y-106196762D01*
X145270246Y-106204228D01*
X145414997Y-106223285D01*
X145415000Y-106223285D01*
X145415003Y-106223285D01*
X145542496Y-106206500D01*
X145559754Y-106204228D01*
X145694643Y-106148355D01*
X145810474Y-106059474D01*
X145899355Y-105943643D01*
X145955228Y-105808754D01*
X145974285Y-105664003D01*
X146125715Y-105664003D01*
X146144771Y-105808753D01*
X146200644Y-105943641D01*
X146200645Y-105943643D01*
X146289525Y-106059474D01*
X146378405Y-106127674D01*
X146405357Y-106148355D01*
X146522222Y-106196762D01*
X146540246Y-106204228D01*
X146684997Y-106223285D01*
X146685000Y-106223285D01*
X146685003Y-106223285D01*
X146812496Y-106206500D01*
X146829754Y-106204228D01*
X146964643Y-106148355D01*
X147080474Y-106059474D01*
X147169355Y-105943643D01*
X147225228Y-105808754D01*
X147244285Y-105664000D01*
X147244285Y-105663996D01*
X147225229Y-105519249D01*
X147169355Y-105384359D01*
X147169354Y-105384357D01*
X147080474Y-105268525D01*
X146964643Y-105179645D01*
X146964641Y-105179644D01*
X146841244Y-105128531D01*
X146820138Y-105107425D01*
X146820138Y-105077575D01*
X146841244Y-105056469D01*
X146876115Y-105042024D01*
X146964643Y-105005355D01*
X147080474Y-104916474D01*
X147169355Y-104800643D01*
X147225228Y-104665754D01*
X147229992Y-104629565D01*
X147244285Y-104521003D01*
X147244285Y-104520996D01*
X147225229Y-104376249D01*
X147221256Y-104366657D01*
X147169355Y-104241358D01*
X147140254Y-104203433D01*
X147080474Y-104125525D01*
X146964643Y-104036645D01*
X146964641Y-104036644D01*
X146829753Y-103980771D01*
X146685003Y-103961715D01*
X146684997Y-103961715D01*
X146540249Y-103980770D01*
X146405359Y-104036644D01*
X146405357Y-104036645D01*
X146289525Y-104125525D01*
X146200645Y-104241357D01*
X146200644Y-104241359D01*
X146144770Y-104376249D01*
X146125715Y-104520996D01*
X146125715Y-104521003D01*
X146144771Y-104665753D01*
X146200644Y-104800641D01*
X146200645Y-104800643D01*
X146289525Y-104916474D01*
X146378406Y-104984674D01*
X146405357Y-105005355D01*
X146474378Y-105033944D01*
X146528756Y-105056469D01*
X146549862Y-105077575D01*
X146549862Y-105107425D01*
X146528756Y-105128531D01*
X146405359Y-105179644D01*
X146405357Y-105179645D01*
X146289525Y-105268525D01*
X146200645Y-105384357D01*
X146200644Y-105384359D01*
X146144770Y-105519249D01*
X146125715Y-105663996D01*
X146125715Y-105664003D01*
X145974285Y-105664003D01*
X145974285Y-105664000D01*
X145974285Y-105663996D01*
X145955229Y-105519249D01*
X145899355Y-105384359D01*
X145899354Y-105384357D01*
X145810474Y-105268525D01*
X145694643Y-105179645D01*
X145694641Y-105179644D01*
X145571244Y-105128531D01*
X145550138Y-105107425D01*
X145550138Y-105077575D01*
X145571244Y-105056469D01*
X145606115Y-105042024D01*
X145694643Y-105005355D01*
X145810474Y-104916474D01*
X145899355Y-104800643D01*
X145955228Y-104665754D01*
X145959992Y-104629565D01*
X145974285Y-104521003D01*
X145974285Y-104520996D01*
X145955229Y-104376249D01*
X145951256Y-104366657D01*
X145899355Y-104241358D01*
X145870254Y-104203433D01*
X145810474Y-104125525D01*
X145694643Y-104036645D01*
X145694641Y-104036644D01*
X145559753Y-103980771D01*
X145415003Y-103961715D01*
X145414997Y-103961715D01*
X145270249Y-103980770D01*
X145135359Y-104036644D01*
X145135357Y-104036645D01*
X145019525Y-104125525D01*
X144930645Y-104241357D01*
X144930644Y-104241359D01*
X144874770Y-104376249D01*
X144855715Y-104520996D01*
X144855715Y-104521003D01*
X144874771Y-104665753D01*
X144930644Y-104800641D01*
X144930645Y-104800643D01*
X145019525Y-104916474D01*
X145108406Y-104984674D01*
X145135357Y-105005355D01*
X145204378Y-105033944D01*
X145258756Y-105056469D01*
X145279862Y-105077575D01*
X145279862Y-105107425D01*
X145258756Y-105128531D01*
X145135359Y-105179644D01*
X145135357Y-105179645D01*
X145019525Y-105268525D01*
X144930645Y-105384357D01*
X144930644Y-105384359D01*
X144874770Y-105519249D01*
X144855715Y-105663996D01*
X144855715Y-105664003D01*
X142926285Y-105664003D01*
X142926285Y-105664000D01*
X142926285Y-105663996D01*
X142907229Y-105519249D01*
X142851355Y-105384359D01*
X142851354Y-105384357D01*
X142762474Y-105268525D01*
X142646643Y-105179645D01*
X142646641Y-105179644D01*
X142523244Y-105128531D01*
X142502138Y-105107425D01*
X142502138Y-105077575D01*
X142523244Y-105056469D01*
X142558115Y-105042024D01*
X142646643Y-105005355D01*
X142762474Y-104916474D01*
X142851355Y-104800643D01*
X142907228Y-104665754D01*
X142911992Y-104629565D01*
X142926285Y-104521003D01*
X142926285Y-104520996D01*
X142907229Y-104376249D01*
X142903256Y-104366657D01*
X142851355Y-104241358D01*
X142822254Y-104203433D01*
X142762474Y-104125525D01*
X142646643Y-104036645D01*
X142646641Y-104036644D01*
X142511753Y-103980771D01*
X142367003Y-103961715D01*
X142366997Y-103961715D01*
X142222249Y-103980770D01*
X142087359Y-104036644D01*
X142087357Y-104036645D01*
X141971525Y-104125525D01*
X141882645Y-104241357D01*
X141882644Y-104241359D01*
X141826770Y-104376249D01*
X141807715Y-104520996D01*
X141807715Y-104521003D01*
X141826771Y-104665753D01*
X141882644Y-104800641D01*
X141882645Y-104800643D01*
X141971525Y-104916474D01*
X142060405Y-104984674D01*
X142087357Y-105005355D01*
X142156378Y-105033944D01*
X142210756Y-105056469D01*
X142231862Y-105077575D01*
X142231862Y-105107425D01*
X142210756Y-105128531D01*
X142087359Y-105179644D01*
X142087357Y-105179645D01*
X141971525Y-105268525D01*
X141882645Y-105384357D01*
X141882644Y-105384359D01*
X141826770Y-105519249D01*
X141807715Y-105663996D01*
X141807715Y-105664003D01*
X141656285Y-105664003D01*
X141656285Y-105664000D01*
X141656285Y-105663996D01*
X141637229Y-105519249D01*
X141581355Y-105384359D01*
X141581354Y-105384357D01*
X141492474Y-105268525D01*
X141376643Y-105179645D01*
X141376641Y-105179644D01*
X141253244Y-105128531D01*
X141232138Y-105107425D01*
X141232138Y-105077575D01*
X141253244Y-105056469D01*
X141288115Y-105042024D01*
X141376643Y-105005355D01*
X141492474Y-104916474D01*
X141581355Y-104800643D01*
X141637228Y-104665754D01*
X141641992Y-104629565D01*
X141656285Y-104521003D01*
X141656285Y-104520996D01*
X141637229Y-104376249D01*
X141633256Y-104366657D01*
X141581355Y-104241358D01*
X141552254Y-104203433D01*
X141492474Y-104125525D01*
X141376643Y-104036645D01*
X141376641Y-104036644D01*
X141241753Y-103980771D01*
X141097003Y-103961715D01*
X141096997Y-103961715D01*
X140952249Y-103980770D01*
X140817359Y-104036644D01*
X140817357Y-104036645D01*
X140701525Y-104125525D01*
X140612645Y-104241357D01*
X140612644Y-104241359D01*
X140556770Y-104376249D01*
X140537715Y-104520996D01*
X140537715Y-104521003D01*
X140556771Y-104665753D01*
X140612644Y-104800641D01*
X140612645Y-104800643D01*
X140701525Y-104916474D01*
X140790405Y-104984674D01*
X140817357Y-105005355D01*
X140886378Y-105033944D01*
X140940756Y-105056469D01*
X140961862Y-105077575D01*
X140961862Y-105107425D01*
X140940756Y-105128531D01*
X140817359Y-105179644D01*
X140817357Y-105179645D01*
X140701525Y-105268525D01*
X140612645Y-105384357D01*
X140612644Y-105384359D01*
X140556770Y-105519249D01*
X140537715Y-105663996D01*
X140537715Y-105664003D01*
X140556771Y-105808753D01*
X140612644Y-105943641D01*
X140612645Y-105943643D01*
X140701525Y-106059474D01*
X140790405Y-106127674D01*
X140817357Y-106148355D01*
X140883268Y-106175656D01*
X140904374Y-106196762D01*
X140904374Y-106226612D01*
X140883268Y-106247718D01*
X140864890Y-106250534D01*
X140828081Y-106247262D01*
X140808262Y-106245500D01*
X140068181Y-106245500D01*
X140040604Y-106234077D01*
X140029181Y-106206500D01*
X140040604Y-106178923D01*
X140053256Y-106170469D01*
X140068213Y-106164273D01*
X140106643Y-106148355D01*
X140222474Y-106059474D01*
X140311355Y-105943643D01*
X140367228Y-105808754D01*
X140386285Y-105664000D01*
X140386285Y-105663996D01*
X140367229Y-105519249D01*
X140311355Y-105384359D01*
X140311354Y-105384357D01*
X140222474Y-105268525D01*
X140106643Y-105179645D01*
X140106641Y-105179644D01*
X139983244Y-105128531D01*
X139962138Y-105107425D01*
X139962138Y-105077575D01*
X139983244Y-105056469D01*
X140018115Y-105042024D01*
X140106643Y-105005355D01*
X140222474Y-104916474D01*
X140311355Y-104800643D01*
X140367228Y-104665754D01*
X140371992Y-104629565D01*
X140386285Y-104521003D01*
X140386285Y-104520996D01*
X140367229Y-104376249D01*
X140363256Y-104366657D01*
X140311355Y-104241358D01*
X140282254Y-104203433D01*
X140222474Y-104125525D01*
X140106643Y-104036645D01*
X140106641Y-104036644D01*
X139971753Y-103980771D01*
X139827003Y-103961715D01*
X139826997Y-103961715D01*
X139682249Y-103980770D01*
X139547359Y-104036644D01*
X139547357Y-104036645D01*
X139431525Y-104125525D01*
X139342645Y-104241357D01*
X139342644Y-104241359D01*
X139286770Y-104376249D01*
X139267715Y-104520996D01*
X139267715Y-104521003D01*
X139286771Y-104665753D01*
X139342644Y-104800641D01*
X139342645Y-104800643D01*
X139431525Y-104916474D01*
X139520405Y-104984674D01*
X139547357Y-105005355D01*
X139616378Y-105033944D01*
X139670756Y-105056469D01*
X139691862Y-105077575D01*
X139691862Y-105107425D01*
X139670756Y-105128531D01*
X139547359Y-105179644D01*
X139547357Y-105179645D01*
X139431525Y-105268525D01*
X139342645Y-105384357D01*
X139342644Y-105384359D01*
X139286770Y-105519249D01*
X139267715Y-105663996D01*
X139267715Y-105664003D01*
X139286771Y-105808753D01*
X139342644Y-105943641D01*
X139342645Y-105943643D01*
X139431525Y-106059474D01*
X139520406Y-106127674D01*
X139547357Y-106148355D01*
X139577376Y-106160789D01*
X139600744Y-106170469D01*
X139621850Y-106191576D01*
X139621850Y-106221425D01*
X139600743Y-106242531D01*
X139585819Y-106245500D01*
X139191738Y-106245500D01*
X139152435Y-106248994D01*
X139071873Y-106256156D01*
X138875458Y-106312358D01*
X138694380Y-106406946D01*
X138694377Y-106406948D01*
X138536048Y-106536048D01*
X138406948Y-106694377D01*
X138406946Y-106694380D01*
X138312358Y-106875458D01*
X138256156Y-107071873D01*
X138248994Y-107152435D01*
X138245500Y-107191738D01*
X138245500Y-108808262D01*
X132754500Y-108808262D01*
X132754500Y-107191738D01*
X132743843Y-107071872D01*
X132687642Y-106875460D01*
X132593054Y-106694380D01*
X132463952Y-106536048D01*
X132305620Y-106406946D01*
X132215080Y-106359652D01*
X132124541Y-106312358D01*
X131928126Y-106256156D01*
X131850323Y-106249239D01*
X131808262Y-106245500D01*
X130191738Y-106245500D01*
X130152435Y-106248994D01*
X130071873Y-106256156D01*
X129875458Y-106312358D01*
X129694380Y-106406946D01*
X129694377Y-106406948D01*
X129536048Y-106536048D01*
X129406948Y-106694377D01*
X129406946Y-106694380D01*
X129312358Y-106875458D01*
X129256156Y-107071873D01*
X129248994Y-107152435D01*
X129245500Y-107191738D01*
X129245500Y-108808262D01*
X124957502Y-108808262D01*
X125146053Y-108567595D01*
X125318447Y-108282420D01*
X125455210Y-107978545D01*
X125554348Y-107660400D01*
X125614415Y-107332625D01*
X125634535Y-107000000D01*
X125616710Y-106705317D01*
X125614415Y-106667373D01*
X125614414Y-106667369D01*
X125554348Y-106339599D01*
X125455212Y-106021461D01*
X125455210Y-106021454D01*
X125359481Y-105808754D01*
X125318447Y-105717580D01*
X125146053Y-105432405D01*
X124940542Y-105170090D01*
X124704910Y-104934458D01*
X124442595Y-104728947D01*
X124157420Y-104556553D01*
X124157418Y-104556552D01*
X123853545Y-104419789D01*
X123853538Y-104419787D01*
X123770794Y-104394003D01*
X127964715Y-104394003D01*
X127983771Y-104538753D01*
X128039644Y-104673641D01*
X128039645Y-104673643D01*
X128128525Y-104789474D01*
X128217405Y-104857674D01*
X128244357Y-104878355D01*
X128336384Y-104916474D01*
X128379246Y-104934228D01*
X128523997Y-104953285D01*
X128524000Y-104953285D01*
X128524003Y-104953285D01*
X128632565Y-104938992D01*
X128668754Y-104934228D01*
X128803643Y-104878355D01*
X128919474Y-104789474D01*
X129008355Y-104673643D01*
X129064228Y-104538754D01*
X129083285Y-104394003D01*
X129234715Y-104394003D01*
X129253771Y-104538753D01*
X129309644Y-104673641D01*
X129309645Y-104673643D01*
X129398525Y-104789474D01*
X129487405Y-104857674D01*
X129514357Y-104878355D01*
X129606384Y-104916474D01*
X129649246Y-104934228D01*
X129793997Y-104953285D01*
X129794000Y-104953285D01*
X129794003Y-104953285D01*
X129902565Y-104938992D01*
X129938754Y-104934228D01*
X130073643Y-104878355D01*
X130189474Y-104789474D01*
X130278355Y-104673643D01*
X130334228Y-104538754D01*
X130353285Y-104394003D01*
X130504715Y-104394003D01*
X130523771Y-104538753D01*
X130579644Y-104673641D01*
X130579645Y-104673643D01*
X130668525Y-104789474D01*
X130757405Y-104857674D01*
X130784357Y-104878355D01*
X130876384Y-104916474D01*
X130919246Y-104934228D01*
X131063997Y-104953285D01*
X131064000Y-104953285D01*
X131064003Y-104953285D01*
X131172565Y-104938992D01*
X131208754Y-104934228D01*
X131343643Y-104878355D01*
X131459474Y-104789474D01*
X131548355Y-104673643D01*
X131604228Y-104538754D01*
X131623285Y-104394003D01*
X131774715Y-104394003D01*
X131793771Y-104538753D01*
X131849644Y-104673641D01*
X131849645Y-104673643D01*
X131938525Y-104789474D01*
X132027405Y-104857674D01*
X132054357Y-104878355D01*
X132146384Y-104916474D01*
X132189246Y-104934228D01*
X132333997Y-104953285D01*
X132334000Y-104953285D01*
X132334003Y-104953285D01*
X132442565Y-104938992D01*
X132478754Y-104934228D01*
X132613643Y-104878355D01*
X132729474Y-104789474D01*
X132818355Y-104673643D01*
X132874228Y-104538754D01*
X132893285Y-104394003D01*
X133679715Y-104394003D01*
X133698771Y-104538753D01*
X133754644Y-104673641D01*
X133754645Y-104673643D01*
X133843525Y-104789474D01*
X133932405Y-104857674D01*
X133959357Y-104878355D01*
X134051384Y-104916474D01*
X134094246Y-104934228D01*
X134238997Y-104953285D01*
X134239000Y-104953285D01*
X134239003Y-104953285D01*
X134347565Y-104938992D01*
X134383754Y-104934228D01*
X134518643Y-104878355D01*
X134634474Y-104789474D01*
X134723355Y-104673643D01*
X134779228Y-104538754D01*
X134798285Y-104394003D01*
X134949715Y-104394003D01*
X134968771Y-104538753D01*
X135024644Y-104673641D01*
X135024645Y-104673643D01*
X135113525Y-104789474D01*
X135202406Y-104857674D01*
X135229357Y-104878355D01*
X135321384Y-104916474D01*
X135364246Y-104934228D01*
X135508997Y-104953285D01*
X135509000Y-104953285D01*
X135509003Y-104953285D01*
X135617565Y-104938992D01*
X135653754Y-104934228D01*
X135788643Y-104878355D01*
X135904474Y-104789474D01*
X135993355Y-104673643D01*
X136049228Y-104538754D01*
X136068285Y-104394003D01*
X136219715Y-104394003D01*
X136238771Y-104538753D01*
X136294644Y-104673641D01*
X136294645Y-104673643D01*
X136383525Y-104789474D01*
X136472406Y-104857674D01*
X136499357Y-104878355D01*
X136591384Y-104916474D01*
X136634246Y-104934228D01*
X136778997Y-104953285D01*
X136779000Y-104953285D01*
X136779003Y-104953285D01*
X136887565Y-104938992D01*
X136923754Y-104934228D01*
X137058643Y-104878355D01*
X137174474Y-104789474D01*
X137263355Y-104673643D01*
X137319228Y-104538754D01*
X137338285Y-104394003D01*
X137489715Y-104394003D01*
X137508771Y-104538753D01*
X137564644Y-104673641D01*
X137564645Y-104673643D01*
X137653525Y-104789474D01*
X137742406Y-104857674D01*
X137769357Y-104878355D01*
X137861384Y-104916474D01*
X137904246Y-104934228D01*
X138048997Y-104953285D01*
X138049000Y-104953285D01*
X138049003Y-104953285D01*
X138157565Y-104938992D01*
X138193754Y-104934228D01*
X138328643Y-104878355D01*
X138444474Y-104789474D01*
X138533355Y-104673643D01*
X138589228Y-104538754D01*
X138608285Y-104394000D01*
X138608285Y-104393996D01*
X138589229Y-104249249D01*
X138586787Y-104243354D01*
X138533355Y-104114358D01*
X138475257Y-104038643D01*
X138444474Y-103998525D01*
X138338151Y-103916941D01*
X138323227Y-103891090D01*
X138330952Y-103862258D01*
X138338151Y-103855059D01*
X138444474Y-103773474D01*
X138455583Y-103758996D01*
X138533355Y-103657643D01*
X138589228Y-103522754D01*
X138608285Y-103378000D01*
X138608285Y-103377996D01*
X138589229Y-103233249D01*
X138586788Y-103227355D01*
X138533355Y-103098358D01*
X138475257Y-103022643D01*
X138444474Y-102982525D01*
X138338151Y-102900941D01*
X138323227Y-102875090D01*
X138330952Y-102846258D01*
X138338151Y-102839059D01*
X138444474Y-102757474D01*
X138455583Y-102742996D01*
X138533355Y-102641643D01*
X138589228Y-102506754D01*
X138608285Y-102362000D01*
X138608285Y-102361996D01*
X138589229Y-102217249D01*
X138586132Y-102209772D01*
X138533355Y-102082358D01*
X138475257Y-102006643D01*
X138444474Y-101966525D01*
X138328643Y-101877645D01*
X138328641Y-101877644D01*
X138193753Y-101821771D01*
X138049003Y-101802715D01*
X138048997Y-101802715D01*
X137904249Y-101821770D01*
X137769359Y-101877644D01*
X137769357Y-101877645D01*
X137653525Y-101966525D01*
X137564645Y-102082357D01*
X137564644Y-102082359D01*
X137508770Y-102217249D01*
X137489715Y-102361996D01*
X137489715Y-102362003D01*
X137508771Y-102506753D01*
X137564644Y-102641641D01*
X137564645Y-102641643D01*
X137653525Y-102757474D01*
X137759849Y-102839059D01*
X137774773Y-102864910D01*
X137767048Y-102893742D01*
X137759849Y-102900941D01*
X137653525Y-102982525D01*
X137564645Y-103098357D01*
X137564644Y-103098359D01*
X137508770Y-103233249D01*
X137489715Y-103377996D01*
X137489715Y-103378003D01*
X137508771Y-103522753D01*
X137564644Y-103657641D01*
X137564645Y-103657643D01*
X137653525Y-103773474D01*
X137759849Y-103855059D01*
X137774773Y-103880910D01*
X137767048Y-103909742D01*
X137759849Y-103916941D01*
X137653525Y-103998525D01*
X137564645Y-104114357D01*
X137564644Y-104114359D01*
X137508770Y-104249249D01*
X137489715Y-104393996D01*
X137489715Y-104394003D01*
X137338285Y-104394003D01*
X137338285Y-104394000D01*
X137338285Y-104393996D01*
X137319229Y-104249249D01*
X137316787Y-104243354D01*
X137263355Y-104114358D01*
X137205257Y-104038643D01*
X137174474Y-103998525D01*
X137068151Y-103916941D01*
X137053227Y-103891090D01*
X137060952Y-103862258D01*
X137068151Y-103855059D01*
X137174474Y-103773474D01*
X137185583Y-103758996D01*
X137263355Y-103657643D01*
X137319228Y-103522754D01*
X137338285Y-103378000D01*
X137338285Y-103377996D01*
X137319229Y-103233249D01*
X137316788Y-103227355D01*
X137263355Y-103098358D01*
X137205257Y-103022643D01*
X137174474Y-102982525D01*
X137068151Y-102900941D01*
X137053227Y-102875090D01*
X137060952Y-102846258D01*
X137068151Y-102839059D01*
X137174474Y-102757474D01*
X137185583Y-102742996D01*
X137263355Y-102641643D01*
X137319228Y-102506754D01*
X137338285Y-102362000D01*
X137338285Y-102361996D01*
X137319229Y-102217249D01*
X137316132Y-102209772D01*
X137263355Y-102082358D01*
X137205257Y-102006643D01*
X137174474Y-101966525D01*
X137058643Y-101877645D01*
X137058641Y-101877644D01*
X136923753Y-101821771D01*
X136779003Y-101802715D01*
X136778997Y-101802715D01*
X136634249Y-101821770D01*
X136499359Y-101877644D01*
X136499357Y-101877645D01*
X136383525Y-101966525D01*
X136294645Y-102082357D01*
X136294644Y-102082359D01*
X136238770Y-102217249D01*
X136219715Y-102361996D01*
X136219715Y-102362003D01*
X136238771Y-102506753D01*
X136294644Y-102641641D01*
X136294645Y-102641643D01*
X136383525Y-102757474D01*
X136489849Y-102839059D01*
X136504773Y-102864910D01*
X136497048Y-102893742D01*
X136489849Y-102900941D01*
X136383525Y-102982525D01*
X136294645Y-103098357D01*
X136294644Y-103098359D01*
X136238770Y-103233249D01*
X136219715Y-103377996D01*
X136219715Y-103378003D01*
X136238771Y-103522753D01*
X136294644Y-103657641D01*
X136294645Y-103657643D01*
X136383525Y-103773474D01*
X136489849Y-103855059D01*
X136504773Y-103880910D01*
X136497048Y-103909742D01*
X136489849Y-103916941D01*
X136383525Y-103998525D01*
X136294645Y-104114357D01*
X136294644Y-104114359D01*
X136238770Y-104249249D01*
X136219715Y-104393996D01*
X136219715Y-104394003D01*
X136068285Y-104394003D01*
X136068285Y-104394000D01*
X136068285Y-104393996D01*
X136049229Y-104249249D01*
X136046787Y-104243354D01*
X135993355Y-104114358D01*
X135935257Y-104038643D01*
X135904474Y-103998525D01*
X135798151Y-103916941D01*
X135783227Y-103891090D01*
X135790952Y-103862258D01*
X135798151Y-103855059D01*
X135904474Y-103773474D01*
X135915583Y-103758996D01*
X135993355Y-103657643D01*
X136049228Y-103522754D01*
X136068285Y-103378000D01*
X136068285Y-103377996D01*
X136049229Y-103233249D01*
X136046788Y-103227355D01*
X135993355Y-103098358D01*
X135935257Y-103022643D01*
X135904474Y-102982525D01*
X135798151Y-102900941D01*
X135783227Y-102875090D01*
X135790952Y-102846258D01*
X135798151Y-102839059D01*
X135904474Y-102757474D01*
X135915583Y-102742996D01*
X135993355Y-102641643D01*
X136049228Y-102506754D01*
X136068285Y-102362000D01*
X136068285Y-102361996D01*
X136049229Y-102217249D01*
X136046132Y-102209772D01*
X135993355Y-102082358D01*
X135935257Y-102006643D01*
X135904474Y-101966525D01*
X135788643Y-101877645D01*
X135788641Y-101877644D01*
X135653753Y-101821771D01*
X135509003Y-101802715D01*
X135508997Y-101802715D01*
X135364249Y-101821770D01*
X135229359Y-101877644D01*
X135229357Y-101877645D01*
X135113525Y-101966525D01*
X135024645Y-102082357D01*
X135024644Y-102082359D01*
X134968770Y-102217249D01*
X134949715Y-102361996D01*
X134949715Y-102362003D01*
X134968771Y-102506753D01*
X135024644Y-102641641D01*
X135024645Y-102641643D01*
X135113525Y-102757474D01*
X135219849Y-102839059D01*
X135234773Y-102864910D01*
X135227048Y-102893742D01*
X135219849Y-102900941D01*
X135113525Y-102982525D01*
X135024645Y-103098357D01*
X135024644Y-103098359D01*
X134968770Y-103233249D01*
X134949715Y-103377996D01*
X134949715Y-103378003D01*
X134968771Y-103522753D01*
X135024644Y-103657641D01*
X135024645Y-103657643D01*
X135113525Y-103773474D01*
X135219849Y-103855059D01*
X135234773Y-103880910D01*
X135227048Y-103909742D01*
X135219849Y-103916941D01*
X135113525Y-103998525D01*
X135024645Y-104114357D01*
X135024644Y-104114359D01*
X134968770Y-104249249D01*
X134949715Y-104393996D01*
X134949715Y-104394003D01*
X134798285Y-104394003D01*
X134798285Y-104394000D01*
X134798285Y-104393996D01*
X134779229Y-104249249D01*
X134776787Y-104243354D01*
X134723355Y-104114358D01*
X134665257Y-104038643D01*
X134634474Y-103998525D01*
X134528151Y-103916941D01*
X134513227Y-103891090D01*
X134520952Y-103862258D01*
X134528151Y-103855059D01*
X134634474Y-103773474D01*
X134645583Y-103758996D01*
X134723355Y-103657643D01*
X134779228Y-103522754D01*
X134798285Y-103378000D01*
X134798285Y-103377996D01*
X134779229Y-103233249D01*
X134776788Y-103227355D01*
X134723355Y-103098358D01*
X134665257Y-103022643D01*
X134634474Y-102982525D01*
X134528151Y-102900941D01*
X134513227Y-102875090D01*
X134520952Y-102846258D01*
X134528151Y-102839059D01*
X134634474Y-102757474D01*
X134645583Y-102742996D01*
X134723355Y-102641643D01*
X134779228Y-102506754D01*
X134798285Y-102362000D01*
X134798285Y-102361996D01*
X134779229Y-102217249D01*
X134776132Y-102209772D01*
X134723355Y-102082358D01*
X134665257Y-102006643D01*
X134634474Y-101966525D01*
X134518643Y-101877645D01*
X134518641Y-101877644D01*
X134383753Y-101821771D01*
X134239003Y-101802715D01*
X134238997Y-101802715D01*
X134094249Y-101821770D01*
X133959359Y-101877644D01*
X133959357Y-101877645D01*
X133843525Y-101966525D01*
X133754645Y-102082357D01*
X133754644Y-102082359D01*
X133698770Y-102217249D01*
X133679715Y-102361996D01*
X133679715Y-102362003D01*
X133698771Y-102506753D01*
X133754644Y-102641641D01*
X133754645Y-102641643D01*
X133843525Y-102757474D01*
X133949849Y-102839059D01*
X133964773Y-102864910D01*
X133957048Y-102893742D01*
X133949849Y-102900941D01*
X133843525Y-102982525D01*
X133754645Y-103098357D01*
X133754644Y-103098359D01*
X133698770Y-103233249D01*
X133679715Y-103377996D01*
X133679715Y-103378003D01*
X133698771Y-103522753D01*
X133754644Y-103657641D01*
X133754645Y-103657643D01*
X133843525Y-103773474D01*
X133949849Y-103855059D01*
X133964773Y-103880910D01*
X133957048Y-103909742D01*
X133949849Y-103916941D01*
X133843525Y-103998525D01*
X133754645Y-104114357D01*
X133754644Y-104114359D01*
X133698770Y-104249249D01*
X133679715Y-104393996D01*
X133679715Y-104394003D01*
X132893285Y-104394003D01*
X132893285Y-104394000D01*
X132893285Y-104393996D01*
X132874229Y-104249249D01*
X132871787Y-104243354D01*
X132818355Y-104114358D01*
X132760257Y-104038643D01*
X132729474Y-103998525D01*
X132623151Y-103916941D01*
X132608227Y-103891090D01*
X132615952Y-103862258D01*
X132623151Y-103855059D01*
X132729474Y-103773474D01*
X132740583Y-103758996D01*
X132818355Y-103657643D01*
X132874228Y-103522754D01*
X132893285Y-103378000D01*
X132893285Y-103377996D01*
X132874229Y-103233249D01*
X132871788Y-103227355D01*
X132818355Y-103098358D01*
X132760257Y-103022643D01*
X132729474Y-102982525D01*
X132623151Y-102900941D01*
X132608227Y-102875090D01*
X132615952Y-102846258D01*
X132623151Y-102839059D01*
X132729474Y-102757474D01*
X132740583Y-102742996D01*
X132818355Y-102641643D01*
X132874228Y-102506754D01*
X132893285Y-102362000D01*
X132893285Y-102361996D01*
X132874229Y-102217249D01*
X132871132Y-102209772D01*
X132818355Y-102082358D01*
X132760257Y-102006643D01*
X132729474Y-101966525D01*
X132613643Y-101877645D01*
X132613641Y-101877644D01*
X132478753Y-101821771D01*
X132334003Y-101802715D01*
X132333997Y-101802715D01*
X132189249Y-101821770D01*
X132054359Y-101877644D01*
X132054357Y-101877645D01*
X131938525Y-101966525D01*
X131849645Y-102082357D01*
X131849644Y-102082359D01*
X131793770Y-102217249D01*
X131774715Y-102361996D01*
X131774715Y-102362003D01*
X131793771Y-102506753D01*
X131849644Y-102641641D01*
X131849645Y-102641643D01*
X131938525Y-102757474D01*
X132044849Y-102839059D01*
X132059773Y-102864910D01*
X132052048Y-102893742D01*
X132044849Y-102900941D01*
X131938525Y-102982525D01*
X131849645Y-103098357D01*
X131849644Y-103098359D01*
X131793770Y-103233249D01*
X131774715Y-103377996D01*
X131774715Y-103378003D01*
X131793771Y-103522753D01*
X131849644Y-103657641D01*
X131849645Y-103657643D01*
X131938525Y-103773474D01*
X132044849Y-103855059D01*
X132059773Y-103880910D01*
X132052048Y-103909742D01*
X132044849Y-103916941D01*
X131938525Y-103998525D01*
X131849645Y-104114357D01*
X131849644Y-104114359D01*
X131793770Y-104249249D01*
X131774715Y-104393996D01*
X131774715Y-104394003D01*
X131623285Y-104394003D01*
X131623285Y-104394000D01*
X131623285Y-104393996D01*
X131604229Y-104249249D01*
X131601787Y-104243354D01*
X131548355Y-104114358D01*
X131490257Y-104038643D01*
X131459474Y-103998525D01*
X131353151Y-103916941D01*
X131338227Y-103891090D01*
X131345952Y-103862258D01*
X131353151Y-103855059D01*
X131459474Y-103773474D01*
X131470583Y-103758996D01*
X131548355Y-103657643D01*
X131604228Y-103522754D01*
X131623285Y-103378000D01*
X131623285Y-103377996D01*
X131604229Y-103233249D01*
X131601788Y-103227355D01*
X131548355Y-103098358D01*
X131490257Y-103022643D01*
X131459474Y-102982525D01*
X131353151Y-102900941D01*
X131338227Y-102875090D01*
X131345952Y-102846258D01*
X131353151Y-102839059D01*
X131459474Y-102757474D01*
X131470583Y-102742996D01*
X131548355Y-102641643D01*
X131604228Y-102506754D01*
X131623285Y-102362000D01*
X131623285Y-102361996D01*
X131604229Y-102217249D01*
X131601132Y-102209772D01*
X131548355Y-102082358D01*
X131490257Y-102006643D01*
X131459474Y-101966525D01*
X131343643Y-101877645D01*
X131343641Y-101877644D01*
X131208753Y-101821771D01*
X131064003Y-101802715D01*
X131063997Y-101802715D01*
X130919249Y-101821770D01*
X130784359Y-101877644D01*
X130784357Y-101877645D01*
X130668525Y-101966525D01*
X130579645Y-102082357D01*
X130579644Y-102082359D01*
X130523770Y-102217249D01*
X130504715Y-102361996D01*
X130504715Y-102362003D01*
X130523771Y-102506753D01*
X130579644Y-102641641D01*
X130579645Y-102641643D01*
X130668525Y-102757474D01*
X130774849Y-102839059D01*
X130789773Y-102864910D01*
X130782048Y-102893742D01*
X130774849Y-102900941D01*
X130668525Y-102982525D01*
X130579645Y-103098357D01*
X130579644Y-103098359D01*
X130523770Y-103233249D01*
X130504715Y-103377996D01*
X130504715Y-103378003D01*
X130523771Y-103522753D01*
X130579644Y-103657641D01*
X130579645Y-103657643D01*
X130668525Y-103773474D01*
X130774849Y-103855059D01*
X130789773Y-103880910D01*
X130782048Y-103909742D01*
X130774849Y-103916941D01*
X130668525Y-103998525D01*
X130579645Y-104114357D01*
X130579644Y-104114359D01*
X130523770Y-104249249D01*
X130504715Y-104393996D01*
X130504715Y-104394003D01*
X130353285Y-104394003D01*
X130353285Y-104394000D01*
X130353285Y-104393996D01*
X130334229Y-104249249D01*
X130331787Y-104243354D01*
X130278355Y-104114358D01*
X130220257Y-104038643D01*
X130189474Y-103998525D01*
X130083151Y-103916941D01*
X130068227Y-103891090D01*
X130075952Y-103862258D01*
X130083151Y-103855059D01*
X130189474Y-103773474D01*
X130200583Y-103758996D01*
X130278355Y-103657643D01*
X130334228Y-103522754D01*
X130353285Y-103378000D01*
X130353285Y-103377996D01*
X130334229Y-103233249D01*
X130331788Y-103227355D01*
X130278355Y-103098358D01*
X130220257Y-103022643D01*
X130189474Y-102982525D01*
X130083151Y-102900941D01*
X130068227Y-102875090D01*
X130075952Y-102846258D01*
X130083151Y-102839059D01*
X130189474Y-102757474D01*
X130200583Y-102742996D01*
X130278355Y-102641643D01*
X130334228Y-102506754D01*
X130353285Y-102362000D01*
X130353285Y-102361996D01*
X130334229Y-102217249D01*
X130331132Y-102209772D01*
X130278355Y-102082358D01*
X130220257Y-102006643D01*
X130189474Y-101966525D01*
X130073643Y-101877645D01*
X130073641Y-101877644D01*
X129938753Y-101821771D01*
X129794003Y-101802715D01*
X129793997Y-101802715D01*
X129649249Y-101821770D01*
X129514359Y-101877644D01*
X129514357Y-101877645D01*
X129398525Y-101966525D01*
X129309645Y-102082357D01*
X129309644Y-102082359D01*
X129253770Y-102217249D01*
X129234715Y-102361996D01*
X129234715Y-102362003D01*
X129253771Y-102506753D01*
X129309644Y-102641641D01*
X129309645Y-102641643D01*
X129398525Y-102757474D01*
X129504849Y-102839059D01*
X129519773Y-102864910D01*
X129512048Y-102893742D01*
X129504849Y-102900941D01*
X129398525Y-102982525D01*
X129309645Y-103098357D01*
X129309644Y-103098359D01*
X129253770Y-103233249D01*
X129234715Y-103377996D01*
X129234715Y-103378003D01*
X129253771Y-103522753D01*
X129309644Y-103657641D01*
X129309645Y-103657643D01*
X129398525Y-103773474D01*
X129504849Y-103855059D01*
X129519773Y-103880910D01*
X129512048Y-103909742D01*
X129504849Y-103916941D01*
X129398525Y-103998525D01*
X129309645Y-104114357D01*
X129309644Y-104114359D01*
X129253770Y-104249249D01*
X129234715Y-104393996D01*
X129234715Y-104394003D01*
X129083285Y-104394003D01*
X129083285Y-104394000D01*
X129083285Y-104393996D01*
X129064229Y-104249249D01*
X129061787Y-104243354D01*
X129008355Y-104114358D01*
X128950257Y-104038643D01*
X128919474Y-103998525D01*
X128813151Y-103916941D01*
X128798227Y-103891090D01*
X128805952Y-103862258D01*
X128813151Y-103855059D01*
X128919474Y-103773474D01*
X128930583Y-103758996D01*
X129008355Y-103657643D01*
X129064228Y-103522754D01*
X129083285Y-103378000D01*
X129083285Y-103377996D01*
X129064229Y-103233249D01*
X129061788Y-103227355D01*
X129008355Y-103098358D01*
X128950257Y-103022643D01*
X128919474Y-102982525D01*
X128813151Y-102900941D01*
X128798227Y-102875090D01*
X128805952Y-102846258D01*
X128813151Y-102839059D01*
X128919474Y-102757474D01*
X128930583Y-102742996D01*
X129008355Y-102641643D01*
X129064228Y-102506754D01*
X129083285Y-102362000D01*
X129083285Y-102361996D01*
X129064229Y-102217249D01*
X129061132Y-102209772D01*
X129008355Y-102082358D01*
X128950257Y-102006643D01*
X128919474Y-101966525D01*
X128803643Y-101877645D01*
X128803641Y-101877644D01*
X128668753Y-101821771D01*
X128524003Y-101802715D01*
X128523997Y-101802715D01*
X128379249Y-101821770D01*
X128244359Y-101877644D01*
X128244357Y-101877645D01*
X128128525Y-101966525D01*
X128039645Y-102082357D01*
X128039644Y-102082359D01*
X127983770Y-102217249D01*
X127964715Y-102361996D01*
X127964715Y-102362003D01*
X127983771Y-102506753D01*
X128039644Y-102641641D01*
X128039645Y-102641643D01*
X128128525Y-102757474D01*
X128234849Y-102839059D01*
X128249773Y-102864910D01*
X128242048Y-102893742D01*
X128234849Y-102900941D01*
X128128525Y-102982525D01*
X128039645Y-103098357D01*
X128039644Y-103098359D01*
X127983770Y-103233249D01*
X127964715Y-103377996D01*
X127964715Y-103378003D01*
X127983771Y-103522753D01*
X128039644Y-103657641D01*
X128039645Y-103657643D01*
X128128525Y-103773474D01*
X128234849Y-103855059D01*
X128249773Y-103880910D01*
X128242048Y-103909742D01*
X128234849Y-103916941D01*
X128128525Y-103998525D01*
X128039645Y-104114357D01*
X128039644Y-104114359D01*
X127983770Y-104249249D01*
X127964715Y-104393996D01*
X127964715Y-104394003D01*
X123770794Y-104394003D01*
X123744364Y-104385767D01*
X123721434Y-104366657D01*
X123718733Y-104336930D01*
X123737843Y-104314000D01*
X123761058Y-104309867D01*
X123824998Y-104318285D01*
X123825000Y-104318285D01*
X123825003Y-104318285D01*
X123933565Y-104303992D01*
X123969754Y-104299228D01*
X124104643Y-104243355D01*
X124220474Y-104154474D01*
X124309355Y-104038643D01*
X124365228Y-103903754D01*
X124371639Y-103855059D01*
X124384285Y-103759003D01*
X124535715Y-103759003D01*
X124554771Y-103903753D01*
X124610644Y-104038641D01*
X124610645Y-104038643D01*
X124699525Y-104154474D01*
X124763330Y-104203433D01*
X124815357Y-104243355D01*
X124926094Y-104289224D01*
X124950246Y-104299228D01*
X125094997Y-104318285D01*
X125095000Y-104318285D01*
X125095003Y-104318285D01*
X125203565Y-104303992D01*
X125239754Y-104299228D01*
X125374643Y-104243355D01*
X125490474Y-104154474D01*
X125579355Y-104038643D01*
X125635228Y-103903754D01*
X125641639Y-103855059D01*
X125654285Y-103759003D01*
X125654285Y-103758996D01*
X125635229Y-103614249D01*
X125579355Y-103479359D01*
X125579354Y-103479357D01*
X125490474Y-103363525D01*
X125384151Y-103281941D01*
X125369227Y-103256090D01*
X125376952Y-103227258D01*
X125384151Y-103220059D01*
X125490474Y-103138474D01*
X125490474Y-103138473D01*
X125579355Y-103022643D01*
X125635228Y-102887754D01*
X125641639Y-102839059D01*
X125654285Y-102743003D01*
X125654285Y-102742996D01*
X125635229Y-102598249D01*
X125582255Y-102470359D01*
X125579355Y-102463358D01*
X125501583Y-102362003D01*
X125490474Y-102347525D01*
X125374643Y-102258645D01*
X125374641Y-102258644D01*
X125239753Y-102202771D01*
X125095003Y-102183715D01*
X125094997Y-102183715D01*
X124950249Y-102202770D01*
X124815359Y-102258644D01*
X124815357Y-102258645D01*
X124699525Y-102347525D01*
X124610645Y-102463357D01*
X124610644Y-102463359D01*
X124554770Y-102598249D01*
X124535715Y-102742996D01*
X124535715Y-102743003D01*
X124554771Y-102887753D01*
X124610644Y-103022641D01*
X124610645Y-103022643D01*
X124699525Y-103138474D01*
X124805849Y-103220059D01*
X124820773Y-103245910D01*
X124813048Y-103274742D01*
X124805849Y-103281941D01*
X124699525Y-103363525D01*
X124610645Y-103479357D01*
X124610644Y-103479359D01*
X124554770Y-103614249D01*
X124535715Y-103758996D01*
X124535715Y-103759003D01*
X124384285Y-103759003D01*
X124384285Y-103758996D01*
X124365229Y-103614249D01*
X124309355Y-103479359D01*
X124309354Y-103479357D01*
X124220474Y-103363525D01*
X124114151Y-103281941D01*
X124099227Y-103256090D01*
X124106952Y-103227258D01*
X124114151Y-103220059D01*
X124220474Y-103138474D01*
X124220474Y-103138473D01*
X124309355Y-103022643D01*
X124365228Y-102887754D01*
X124371639Y-102839059D01*
X124384285Y-102743003D01*
X124384285Y-102742996D01*
X124365229Y-102598249D01*
X124312255Y-102470359D01*
X124309355Y-102463358D01*
X124231583Y-102362003D01*
X124220474Y-102347525D01*
X124104643Y-102258645D01*
X124104641Y-102258644D01*
X123969753Y-102202771D01*
X123825003Y-102183715D01*
X123824997Y-102183715D01*
X123680249Y-102202770D01*
X123545359Y-102258644D01*
X123545357Y-102258645D01*
X123429525Y-102347525D01*
X123340645Y-102463357D01*
X123340644Y-102463359D01*
X123284770Y-102598249D01*
X123265715Y-102742996D01*
X123265715Y-102743003D01*
X123284771Y-102887753D01*
X123340644Y-103022641D01*
X123340645Y-103022643D01*
X123429525Y-103138474D01*
X123535849Y-103220059D01*
X123550773Y-103245910D01*
X123543048Y-103274742D01*
X123535849Y-103281941D01*
X123429525Y-103363525D01*
X123340645Y-103479357D01*
X123340644Y-103479359D01*
X123284770Y-103614249D01*
X123265715Y-103758996D01*
X123265715Y-103759003D01*
X123284771Y-103903753D01*
X123340644Y-104038641D01*
X123340645Y-104038643D01*
X123429525Y-104154474D01*
X123493330Y-104203433D01*
X123545357Y-104243355D01*
X123548409Y-104244619D01*
X123569517Y-104265722D01*
X123569521Y-104295571D01*
X123548417Y-104316680D01*
X123526458Y-104319012D01*
X123207630Y-104260585D01*
X123207626Y-104260584D01*
X122945309Y-104244717D01*
X122918472Y-104231650D01*
X122908735Y-104203433D01*
X122921802Y-104176596D01*
X122923923Y-104174847D01*
X122950474Y-104154474D01*
X123039355Y-104038643D01*
X123095228Y-103903754D01*
X123101639Y-103855059D01*
X123114285Y-103759003D01*
X123114285Y-103758996D01*
X123095229Y-103614249D01*
X123039355Y-103479359D01*
X123039354Y-103479357D01*
X122950474Y-103363525D01*
X122834643Y-103274645D01*
X122827231Y-103271575D01*
X122806125Y-103250468D01*
X122806126Y-103220618D01*
X122818413Y-103204605D01*
X122895474Y-103145474D01*
X122984355Y-103029643D01*
X123040228Y-102894754D01*
X123059285Y-102750000D01*
X123059285Y-102749996D01*
X123040229Y-102605249D01*
X123040228Y-102605246D01*
X122984355Y-102470358D01*
X122963674Y-102443405D01*
X122895474Y-102354525D01*
X122779643Y-102265645D01*
X122779641Y-102265644D01*
X122644753Y-102209771D01*
X122500003Y-102190715D01*
X122499997Y-102190715D01*
X122355249Y-102209770D01*
X122220359Y-102265644D01*
X122220357Y-102265645D01*
X122104525Y-102354525D01*
X122015645Y-102470357D01*
X122015644Y-102470359D01*
X121959770Y-102605249D01*
X121940715Y-102749996D01*
X121940715Y-102750003D01*
X121959771Y-102894753D01*
X122015644Y-103029641D01*
X122015645Y-103029643D01*
X122104525Y-103145474D01*
X122176629Y-103200801D01*
X122220357Y-103234355D01*
X122227767Y-103237424D01*
X122248873Y-103258529D01*
X122248874Y-103288379D01*
X122236584Y-103304396D01*
X122159525Y-103363525D01*
X122070645Y-103479357D01*
X122070644Y-103479359D01*
X122014770Y-103614249D01*
X121995715Y-103758996D01*
X121995715Y-103759003D01*
X122014771Y-103903753D01*
X122070644Y-104038641D01*
X122070645Y-104038643D01*
X122159525Y-104154474D01*
X122214578Y-104196717D01*
X122275276Y-104243293D01*
X122290200Y-104269142D01*
X122282475Y-104297975D01*
X122258565Y-104312594D01*
X122214598Y-104320652D01*
X121896461Y-104419787D01*
X121896454Y-104419789D01*
X121592581Y-104556552D01*
X121307405Y-104728947D01*
X121045093Y-104934455D01*
X121045087Y-104934460D01*
X120809460Y-105170087D01*
X120809455Y-105170093D01*
X120603947Y-105432405D01*
X120431552Y-105717581D01*
X120294789Y-106021454D01*
X120294787Y-106021461D01*
X120195651Y-106339599D01*
X120135585Y-106667369D01*
X120135584Y-106667373D01*
X120115465Y-106999999D01*
X120025914Y-106999999D01*
X120025900Y-106999481D01*
X120025900Y-95039000D01*
X120037323Y-95011423D01*
X120064900Y-95000000D01*
X126971890Y-95000000D01*
X126999467Y-95011423D01*
G37*
%TD.AperFunction*%
%TD*%
%TA.AperFunction,Conductor*%
%TO.N,+3.3V*%
G36*
X157000501Y-70025927D02*
G01*
X157309859Y-70042139D01*
X157311884Y-70042351D01*
X157617348Y-70090732D01*
X157619335Y-70091154D01*
X157918064Y-70171199D01*
X157919991Y-70171825D01*
X158208722Y-70282658D01*
X158210584Y-70283487D01*
X158486150Y-70423895D01*
X158487907Y-70424911D01*
X158747273Y-70593345D01*
X158748926Y-70594546D01*
X158989267Y-70789170D01*
X158990785Y-70790537D01*
X159209462Y-71009214D01*
X159210829Y-71010732D01*
X159405453Y-71251073D01*
X159406654Y-71252726D01*
X159575088Y-71512092D01*
X159576107Y-71513855D01*
X159581605Y-71524645D01*
X159716510Y-71789411D01*
X159717341Y-71791277D01*
X159828171Y-72080000D01*
X159828802Y-72081943D01*
X159908843Y-72380659D01*
X159909268Y-72382657D01*
X159957647Y-72688109D01*
X159957860Y-72690140D01*
X159974073Y-72999498D01*
X159974100Y-73000518D01*
X159974100Y-91461000D01*
X159962677Y-91488577D01*
X159935100Y-91500000D01*
X148610491Y-91500000D01*
X148582914Y-91488577D01*
X148571491Y-91461000D01*
X148574460Y-91446075D01*
X148586880Y-91416091D01*
X148622228Y-91330754D01*
X148630050Y-91271339D01*
X148641285Y-91186003D01*
X148641285Y-91185996D01*
X148622229Y-91041249D01*
X148622228Y-91041246D01*
X148566355Y-90906358D01*
X148516092Y-90840854D01*
X148477474Y-90790525D01*
X148361643Y-90701645D01*
X148361641Y-90701644D01*
X148304567Y-90678003D01*
X155142715Y-90678003D01*
X155161771Y-90822753D01*
X155217644Y-90957641D01*
X155217645Y-90957643D01*
X155306525Y-91073474D01*
X155388593Y-91136447D01*
X155422357Y-91162355D01*
X155514384Y-91200474D01*
X155557246Y-91218228D01*
X155701997Y-91237285D01*
X155702000Y-91237285D01*
X155702003Y-91237285D01*
X155810565Y-91222992D01*
X155846754Y-91218228D01*
X155981643Y-91162355D01*
X156097474Y-91073474D01*
X156186355Y-90957643D01*
X156242228Y-90822754D01*
X156258172Y-90701645D01*
X156261285Y-90678003D01*
X156261285Y-90677996D01*
X156242229Y-90533249D01*
X156238961Y-90525359D01*
X156186355Y-90398358D01*
X156128257Y-90322643D01*
X156097474Y-90282525D01*
X155981643Y-90193645D01*
X155981641Y-90193644D01*
X155846753Y-90137771D01*
X155702003Y-90118715D01*
X155701997Y-90118715D01*
X155557249Y-90137770D01*
X155422359Y-90193644D01*
X155422357Y-90193645D01*
X155306525Y-90282525D01*
X155217645Y-90398357D01*
X155217644Y-90398359D01*
X155161770Y-90533249D01*
X155142715Y-90677996D01*
X155142715Y-90678003D01*
X148304567Y-90678003D01*
X148226753Y-90645771D01*
X148082003Y-90626715D01*
X148081997Y-90626715D01*
X147937249Y-90645770D01*
X147802359Y-90701644D01*
X147802357Y-90701645D01*
X147686525Y-90790525D01*
X147597645Y-90906357D01*
X147597644Y-90906359D01*
X147541770Y-91041249D01*
X147522715Y-91185996D01*
X147522715Y-91186003D01*
X147541771Y-91330753D01*
X147571600Y-91402766D01*
X147577119Y-91416090D01*
X147589540Y-91446075D01*
X147589540Y-91475924D01*
X147568434Y-91497031D01*
X147553509Y-91500000D01*
X135986356Y-91500000D01*
X135958779Y-91488577D01*
X135955415Y-91484742D01*
X135928126Y-91449177D01*
X135812295Y-91360297D01*
X135812293Y-91360296D01*
X135699636Y-91313632D01*
X135678530Y-91292526D01*
X135675895Y-91272510D01*
X135677317Y-91261715D01*
X135687285Y-91186000D01*
X135687285Y-91185996D01*
X135668229Y-91041249D01*
X135668228Y-91041246D01*
X135612355Y-90906358D01*
X135562092Y-90840854D01*
X135523474Y-90790525D01*
X135407643Y-90701645D01*
X135407641Y-90701644D01*
X135272753Y-90645771D01*
X135128003Y-90626715D01*
X135127997Y-90626715D01*
X134983249Y-90645770D01*
X134848359Y-90701644D01*
X134848357Y-90701645D01*
X134732525Y-90790525D01*
X134643645Y-90906357D01*
X134643644Y-90906359D01*
X134587770Y-91041249D01*
X134568715Y-91185996D01*
X134568715Y-91186003D01*
X134574658Y-91231146D01*
X134566933Y-91259978D01*
X134541082Y-91274902D01*
X134512250Y-91267177D01*
X134499961Y-91251161D01*
X134494213Y-91237285D01*
X134452445Y-91136448D01*
X134412692Y-91084641D01*
X134363564Y-91020615D01*
X134247733Y-90931735D01*
X134247731Y-90931734D01*
X134112843Y-90875861D01*
X133968093Y-90856805D01*
X133968087Y-90856805D01*
X133823339Y-90875860D01*
X133688449Y-90931734D01*
X133688447Y-90931735D01*
X133572615Y-91020615D01*
X133483735Y-91136447D01*
X133483734Y-91136449D01*
X133427860Y-91271339D01*
X133423641Y-91303388D01*
X133408716Y-91329238D01*
X133379884Y-91336963D01*
X133370050Y-91334328D01*
X133240753Y-91280771D01*
X133096003Y-91261715D01*
X133095997Y-91261715D01*
X132951249Y-91280770D01*
X132816359Y-91336644D01*
X132816357Y-91336645D01*
X132700525Y-91425525D01*
X132655088Y-91484742D01*
X132629238Y-91499666D01*
X132624147Y-91500000D01*
X120064900Y-91500000D01*
X120037323Y-91488577D01*
X120025900Y-91461000D01*
X120025900Y-90805003D01*
X123011715Y-90805003D01*
X123030771Y-90949753D01*
X123086644Y-91084641D01*
X123086645Y-91084643D01*
X123175525Y-91200474D01*
X123241582Y-91251161D01*
X123291357Y-91289355D01*
X123405525Y-91336645D01*
X123426246Y-91345228D01*
X123570997Y-91364285D01*
X123571000Y-91364285D01*
X123571003Y-91364285D01*
X123679565Y-91349992D01*
X123715754Y-91345228D01*
X123850643Y-91289355D01*
X123966474Y-91200474D01*
X124055355Y-91084643D01*
X124111228Y-90949754D01*
X124130285Y-90805000D01*
X124130285Y-90804996D01*
X124111229Y-90660249D01*
X124111228Y-90660246D01*
X124055355Y-90525358D01*
X124034674Y-90498406D01*
X123966474Y-90409525D01*
X123850643Y-90320645D01*
X123850641Y-90320644D01*
X123727244Y-90269531D01*
X123706138Y-90248425D01*
X123706138Y-90218575D01*
X123727244Y-90197469D01*
X123762115Y-90183024D01*
X123850643Y-90146355D01*
X123966474Y-90057474D01*
X123977578Y-90043003D01*
X129107715Y-90043003D01*
X129126771Y-90187753D01*
X129182644Y-90322641D01*
X129182645Y-90322643D01*
X129271525Y-90438474D01*
X129353340Y-90501253D01*
X129387357Y-90527355D01*
X129477890Y-90564855D01*
X129522246Y-90583228D01*
X129666997Y-90602285D01*
X129667000Y-90602285D01*
X129667003Y-90602285D01*
X129775565Y-90587992D01*
X129811754Y-90583228D01*
X129946643Y-90527355D01*
X130062474Y-90438474D01*
X130125373Y-90356503D01*
X146379715Y-90356503D01*
X146398771Y-90501253D01*
X146454644Y-90636141D01*
X146454645Y-90636143D01*
X146543525Y-90751974D01*
X146612625Y-90804996D01*
X146659357Y-90840855D01*
X146794245Y-90896728D01*
X146794246Y-90896728D01*
X146938997Y-90915785D01*
X146939000Y-90915785D01*
X146939003Y-90915785D01*
X147047565Y-90901492D01*
X147083754Y-90896728D01*
X147218643Y-90840855D01*
X147334474Y-90751974D01*
X147423355Y-90636143D01*
X147479228Y-90501254D01*
X147492774Y-90398359D01*
X147498285Y-90356503D01*
X147498285Y-90356496D01*
X147479229Y-90211749D01*
X147469290Y-90187754D01*
X147423355Y-90076858D01*
X147339277Y-89967285D01*
X147334474Y-89961025D01*
X147218643Y-89872145D01*
X147218641Y-89872144D01*
X147083753Y-89816271D01*
X146939003Y-89797215D01*
X146938997Y-89797215D01*
X146794249Y-89816270D01*
X146659359Y-89872144D01*
X146659357Y-89872145D01*
X146543525Y-89961025D01*
X146454645Y-90076857D01*
X146454644Y-90076859D01*
X146398770Y-90211749D01*
X146379715Y-90356496D01*
X146379715Y-90356503D01*
X130125373Y-90356503D01*
X130151355Y-90322643D01*
X130207228Y-90187754D01*
X130221349Y-90080496D01*
X130226285Y-90043003D01*
X130226285Y-90042996D01*
X130207229Y-89898249D01*
X130204787Y-89892354D01*
X130151355Y-89763358D01*
X130093257Y-89687643D01*
X130062474Y-89647525D01*
X129946643Y-89558645D01*
X129946641Y-89558644D01*
X129811753Y-89502771D01*
X129667003Y-89483715D01*
X129666997Y-89483715D01*
X129522249Y-89502770D01*
X129387359Y-89558644D01*
X129387357Y-89558645D01*
X129271525Y-89647525D01*
X129182645Y-89763357D01*
X129182644Y-89763359D01*
X129126770Y-89898249D01*
X129107715Y-90042996D01*
X129107715Y-90043003D01*
X123977578Y-90043003D01*
X124055355Y-89941643D01*
X124111228Y-89806754D01*
X124126909Y-89687643D01*
X124130285Y-89662003D01*
X124130285Y-89661996D01*
X124111229Y-89517249D01*
X124111228Y-89517246D01*
X124065978Y-89408003D01*
X132282715Y-89408003D01*
X132301771Y-89552753D01*
X132357644Y-89687641D01*
X132357645Y-89687643D01*
X132446525Y-89803474D01*
X132535405Y-89871674D01*
X132562357Y-89892355D01*
X132697245Y-89948227D01*
X132697246Y-89948228D01*
X132841997Y-89967285D01*
X132842000Y-89967285D01*
X132842003Y-89967285D01*
X132950565Y-89952992D01*
X132986754Y-89948228D01*
X133121643Y-89892355D01*
X133237474Y-89803474D01*
X133326355Y-89687643D01*
X133382228Y-89552754D01*
X133401285Y-89408000D01*
X133401285Y-89407996D01*
X133384566Y-89281003D01*
X149554715Y-89281003D01*
X149573771Y-89425753D01*
X149629644Y-89560641D01*
X149629645Y-89560643D01*
X149718525Y-89676474D01*
X149807405Y-89744674D01*
X149834357Y-89765355D01*
X149934303Y-89806754D01*
X149969246Y-89821228D01*
X150113997Y-89840285D01*
X150114000Y-89840285D01*
X150114003Y-89840285D01*
X150222565Y-89825992D01*
X150258754Y-89821228D01*
X150393643Y-89765355D01*
X150509474Y-89676474D01*
X150598355Y-89560643D01*
X150654228Y-89425754D01*
X150673285Y-89281000D01*
X150673285Y-89280996D01*
X150654229Y-89136249D01*
X150650961Y-89128359D01*
X150598355Y-89001358D01*
X150538723Y-88923644D01*
X150509474Y-88885525D01*
X150393643Y-88796645D01*
X150393641Y-88796644D01*
X150258753Y-88740771D01*
X150114003Y-88721715D01*
X150113997Y-88721715D01*
X149969249Y-88740770D01*
X149834359Y-88796644D01*
X149834357Y-88796645D01*
X149718525Y-88885525D01*
X149629645Y-89001357D01*
X149629644Y-89001359D01*
X149573770Y-89136249D01*
X149554715Y-89280996D01*
X149554715Y-89281003D01*
X133384566Y-89281003D01*
X133382229Y-89263249D01*
X133382228Y-89263246D01*
X133326355Y-89128358D01*
X133305674Y-89101405D01*
X133237474Y-89012525D01*
X133121643Y-88923645D01*
X133121641Y-88923644D01*
X132986753Y-88867771D01*
X132842003Y-88848715D01*
X132841997Y-88848715D01*
X132697249Y-88867770D01*
X132562359Y-88923644D01*
X132562357Y-88923645D01*
X132446525Y-89012525D01*
X132357645Y-89128357D01*
X132357644Y-89128359D01*
X132301770Y-89263249D01*
X132282715Y-89407996D01*
X132282715Y-89408003D01*
X124065978Y-89408003D01*
X124055355Y-89382358D01*
X123977583Y-89281003D01*
X123966474Y-89266525D01*
X123850643Y-89177645D01*
X123850641Y-89177644D01*
X123715753Y-89121771D01*
X123571003Y-89102715D01*
X123570997Y-89102715D01*
X123426249Y-89121770D01*
X123291359Y-89177644D01*
X123291357Y-89177645D01*
X123175525Y-89266525D01*
X123086645Y-89382357D01*
X123086644Y-89382359D01*
X123030770Y-89517249D01*
X123011715Y-89661996D01*
X123011715Y-89662003D01*
X123030771Y-89806753D01*
X123086644Y-89941641D01*
X123086645Y-89941643D01*
X123175525Y-90057474D01*
X123255336Y-90118715D01*
X123291357Y-90146355D01*
X123360378Y-90174944D01*
X123414756Y-90197469D01*
X123435862Y-90218575D01*
X123435862Y-90248425D01*
X123414756Y-90269531D01*
X123291359Y-90320644D01*
X123291357Y-90320645D01*
X123175525Y-90409525D01*
X123086645Y-90525357D01*
X123086644Y-90525359D01*
X123030770Y-90660249D01*
X123011715Y-90804996D01*
X123011715Y-90805003D01*
X120025900Y-90805003D01*
X120025900Y-90080503D01*
X121704215Y-90080503D01*
X121723271Y-90225253D01*
X121779144Y-90360141D01*
X121779145Y-90360143D01*
X121868025Y-90475974D01*
X121956906Y-90544174D01*
X121983857Y-90564855D01*
X122074221Y-90602285D01*
X122118746Y-90620728D01*
X122263497Y-90639785D01*
X122263500Y-90639785D01*
X122263503Y-90639785D01*
X122372065Y-90625492D01*
X122408254Y-90620728D01*
X122543143Y-90564855D01*
X122658974Y-90475974D01*
X122747855Y-90360143D01*
X122803728Y-90225254D01*
X122815245Y-90137771D01*
X122822785Y-90080503D01*
X122822785Y-90080496D01*
X122803729Y-89935749D01*
X122788195Y-89898246D01*
X122747855Y-89800858D01*
X122719080Y-89763358D01*
X122658974Y-89685025D01*
X122543143Y-89596145D01*
X122543141Y-89596144D01*
X122408253Y-89540271D01*
X122263503Y-89521215D01*
X122263497Y-89521215D01*
X122118749Y-89540270D01*
X121983859Y-89596144D01*
X121983857Y-89596145D01*
X121868025Y-89685025D01*
X121779145Y-89800857D01*
X121779144Y-89800859D01*
X121723270Y-89935749D01*
X121704215Y-90080496D01*
X121704215Y-90080503D01*
X120025900Y-90080503D01*
X120025900Y-88392003D01*
X131266715Y-88392003D01*
X131285771Y-88536753D01*
X131341644Y-88671641D01*
X131341645Y-88671643D01*
X131430525Y-88787474D01*
X131459745Y-88809895D01*
X131546357Y-88876355D01*
X131660525Y-88923645D01*
X131681246Y-88932228D01*
X131825997Y-88951285D01*
X131826000Y-88951285D01*
X131826003Y-88951285D01*
X131934565Y-88936992D01*
X131970754Y-88932228D01*
X132105643Y-88876355D01*
X132221474Y-88787474D01*
X132310355Y-88671643D01*
X132366228Y-88536754D01*
X132376929Y-88455474D01*
X132385285Y-88392003D01*
X133298715Y-88392003D01*
X133317771Y-88536753D01*
X133373644Y-88671641D01*
X133373645Y-88671643D01*
X133462525Y-88787474D01*
X133491745Y-88809895D01*
X133578357Y-88876355D01*
X133692525Y-88923645D01*
X133713246Y-88932228D01*
X133857997Y-88951285D01*
X133858000Y-88951285D01*
X133858003Y-88951285D01*
X133966565Y-88936992D01*
X134002754Y-88932228D01*
X134137643Y-88876355D01*
X134253474Y-88787474D01*
X134342355Y-88671643D01*
X134398228Y-88536754D01*
X134408929Y-88455474D01*
X134417285Y-88392003D01*
X134417285Y-88391996D01*
X134398229Y-88247249D01*
X134380627Y-88204754D01*
X134342355Y-88112358D01*
X134302182Y-88060003D01*
X134264583Y-88011003D01*
X137235715Y-88011003D01*
X137254771Y-88155753D01*
X137310644Y-88290641D01*
X137310645Y-88290643D01*
X137399525Y-88406474D01*
X137482696Y-88470293D01*
X137515357Y-88495355D01*
X137615303Y-88536754D01*
X137650246Y-88551228D01*
X137794997Y-88570285D01*
X137795000Y-88570285D01*
X137795003Y-88570285D01*
X137903565Y-88555992D01*
X137939754Y-88551228D01*
X138074643Y-88495355D01*
X138190474Y-88406474D01*
X138279355Y-88290643D01*
X138335228Y-88155754D01*
X138347834Y-88060003D01*
X145520225Y-88060003D01*
X145539281Y-88204753D01*
X145595154Y-88339641D01*
X145595155Y-88339643D01*
X145684035Y-88455474D01*
X145736008Y-88495354D01*
X145799867Y-88544355D01*
X145934756Y-88600227D01*
X145934756Y-88600228D01*
X146079507Y-88619285D01*
X146079510Y-88619285D01*
X146079513Y-88619285D01*
X146188075Y-88604992D01*
X146224264Y-88600228D01*
X146359153Y-88544355D01*
X146474984Y-88455474D01*
X146563865Y-88339643D01*
X146569705Y-88325543D01*
X147141715Y-88325543D01*
X147160771Y-88470293D01*
X147216644Y-88605181D01*
X147216645Y-88605183D01*
X147305525Y-88721014D01*
X147392138Y-88787474D01*
X147421357Y-88809895D01*
X147515077Y-88848715D01*
X147556246Y-88865768D01*
X147700997Y-88884825D01*
X147701000Y-88884825D01*
X147701003Y-88884825D01*
X147809565Y-88870532D01*
X147845754Y-88865768D01*
X147980643Y-88809895D01*
X148096474Y-88721014D01*
X148185355Y-88605183D01*
X148241228Y-88470294D01*
X148251535Y-88392003D01*
X148260285Y-88325543D01*
X148260285Y-88325536D01*
X148241229Y-88180789D01*
X148212883Y-88112357D01*
X148185355Y-88045898D01*
X148100479Y-87935285D01*
X148096474Y-87930065D01*
X147980643Y-87841185D01*
X147980641Y-87841184D01*
X147845753Y-87785311D01*
X147701003Y-87766255D01*
X147700997Y-87766255D01*
X147556249Y-87785310D01*
X147421359Y-87841184D01*
X147421357Y-87841185D01*
X147305525Y-87930065D01*
X147216645Y-88045897D01*
X147216644Y-88045899D01*
X147160770Y-88180789D01*
X147141715Y-88325536D01*
X147141715Y-88325543D01*
X146569705Y-88325543D01*
X146619738Y-88204754D01*
X146638795Y-88060000D01*
X146638795Y-88059996D01*
X146619739Y-87915249D01*
X146619738Y-87915246D01*
X146563865Y-87780358D01*
X146526265Y-87731357D01*
X146474984Y-87664525D01*
X146359153Y-87575645D01*
X146359151Y-87575644D01*
X146224263Y-87519771D01*
X146079513Y-87500715D01*
X146079507Y-87500715D01*
X145934759Y-87519770D01*
X145799869Y-87575644D01*
X145799867Y-87575645D01*
X145684035Y-87664525D01*
X145595155Y-87780357D01*
X145595154Y-87780359D01*
X145539280Y-87915249D01*
X145520225Y-88059996D01*
X145520225Y-88060003D01*
X138347834Y-88060003D01*
X138354285Y-88011000D01*
X138354285Y-88010996D01*
X138335229Y-87866249D01*
X138332787Y-87860354D01*
X138279355Y-87731358D01*
X138228073Y-87664526D01*
X138190474Y-87615525D01*
X138074643Y-87526645D01*
X138074641Y-87526644D01*
X137939753Y-87470771D01*
X137795003Y-87451715D01*
X137794997Y-87451715D01*
X137650249Y-87470770D01*
X137515359Y-87526644D01*
X137515357Y-87526645D01*
X137399525Y-87615525D01*
X137310645Y-87731357D01*
X137310644Y-87731359D01*
X137254770Y-87866249D01*
X137235715Y-88010996D01*
X137235715Y-88011003D01*
X134264583Y-88011003D01*
X134253474Y-87996525D01*
X134137643Y-87907645D01*
X134137641Y-87907644D01*
X134002753Y-87851771D01*
X133858003Y-87832715D01*
X133857997Y-87832715D01*
X133713249Y-87851770D01*
X133578359Y-87907644D01*
X133578357Y-87907645D01*
X133462525Y-87996525D01*
X133373645Y-88112357D01*
X133373644Y-88112359D01*
X133317770Y-88247249D01*
X133298715Y-88391996D01*
X133298715Y-88392003D01*
X132385285Y-88392003D01*
X132385285Y-88391996D01*
X132366229Y-88247249D01*
X132348627Y-88204754D01*
X132310355Y-88112358D01*
X132270182Y-88060003D01*
X132221474Y-87996525D01*
X132105643Y-87907645D01*
X132105641Y-87907644D01*
X131970753Y-87851771D01*
X131826003Y-87832715D01*
X131825997Y-87832715D01*
X131681249Y-87851770D01*
X131546359Y-87907644D01*
X131546357Y-87907645D01*
X131430525Y-87996525D01*
X131341645Y-88112357D01*
X131341644Y-88112359D01*
X131285770Y-88247249D01*
X131266715Y-88391996D01*
X131266715Y-88392003D01*
X120025900Y-88392003D01*
X120025900Y-87376003D01*
X130250715Y-87376003D01*
X130269771Y-87520753D01*
X130325644Y-87655641D01*
X130325645Y-87655643D01*
X130414525Y-87771474D01*
X130494336Y-87832715D01*
X130530357Y-87860355D01*
X130665245Y-87916227D01*
X130665246Y-87916228D01*
X130809997Y-87935285D01*
X130810000Y-87935285D01*
X130810003Y-87935285D01*
X130918565Y-87920992D01*
X130954754Y-87916228D01*
X131089643Y-87860355D01*
X131205474Y-87771474D01*
X131294355Y-87655643D01*
X131350228Y-87520754D01*
X131354992Y-87484565D01*
X131369285Y-87376003D01*
X132282715Y-87376003D01*
X132301771Y-87520753D01*
X132357644Y-87655641D01*
X132357645Y-87655643D01*
X132446525Y-87771474D01*
X132526336Y-87832715D01*
X132562357Y-87860355D01*
X132697245Y-87916227D01*
X132697246Y-87916228D01*
X132841997Y-87935285D01*
X132842000Y-87935285D01*
X132842003Y-87935285D01*
X132950565Y-87920992D01*
X132986754Y-87916228D01*
X133121643Y-87860355D01*
X133237474Y-87771474D01*
X133326355Y-87655643D01*
X133382228Y-87520754D01*
X133386992Y-87484565D01*
X133401285Y-87376003D01*
X134314715Y-87376003D01*
X134333771Y-87520753D01*
X134389644Y-87655641D01*
X134389645Y-87655643D01*
X134478525Y-87771474D01*
X134558336Y-87832715D01*
X134594357Y-87860355D01*
X134729245Y-87916227D01*
X134729246Y-87916228D01*
X134873997Y-87935285D01*
X134874000Y-87935285D01*
X134874003Y-87935285D01*
X134982565Y-87920992D01*
X135018754Y-87916228D01*
X135153643Y-87860355D01*
X135269474Y-87771474D01*
X135358355Y-87655643D01*
X135414228Y-87520754D01*
X135418992Y-87484565D01*
X135433285Y-87376003D01*
X140791715Y-87376003D01*
X140810771Y-87520753D01*
X140866644Y-87655641D01*
X140866645Y-87655643D01*
X140955525Y-87771474D01*
X141035336Y-87832715D01*
X141071357Y-87860355D01*
X141206246Y-87916227D01*
X141206246Y-87916228D01*
X141350997Y-87935285D01*
X141351000Y-87935285D01*
X141351003Y-87935285D01*
X141459565Y-87920992D01*
X141495754Y-87916228D01*
X141630643Y-87860355D01*
X141746474Y-87771474D01*
X141835355Y-87655643D01*
X141891228Y-87520754D01*
X141895992Y-87484565D01*
X141910285Y-87376003D01*
X141910285Y-87375996D01*
X141891229Y-87231249D01*
X141851259Y-87134753D01*
X141835355Y-87096358D01*
X141796933Y-87046285D01*
X141746474Y-86980525D01*
X141630643Y-86891645D01*
X141630641Y-86891644D01*
X141495753Y-86835771D01*
X141351003Y-86816715D01*
X141350997Y-86816715D01*
X141206249Y-86835770D01*
X141071359Y-86891644D01*
X141071357Y-86891645D01*
X140955525Y-86980525D01*
X140866645Y-87096357D01*
X140866644Y-87096359D01*
X140810770Y-87231249D01*
X140791715Y-87375996D01*
X140791715Y-87376003D01*
X135433285Y-87376003D01*
X135433285Y-87375996D01*
X135414229Y-87231249D01*
X135374259Y-87134753D01*
X135358355Y-87096358D01*
X135319933Y-87046285D01*
X135269474Y-86980525D01*
X135153643Y-86891645D01*
X135153641Y-86891644D01*
X135018753Y-86835771D01*
X134874003Y-86816715D01*
X134873997Y-86816715D01*
X134729249Y-86835770D01*
X134594359Y-86891644D01*
X134594357Y-86891645D01*
X134478525Y-86980525D01*
X134389645Y-87096357D01*
X134389644Y-87096359D01*
X134333770Y-87231249D01*
X134314715Y-87375996D01*
X134314715Y-87376003D01*
X133401285Y-87376003D01*
X133401285Y-87375996D01*
X133382229Y-87231249D01*
X133342259Y-87134753D01*
X133326355Y-87096358D01*
X133287933Y-87046285D01*
X133237474Y-86980525D01*
X133121643Y-86891645D01*
X133121641Y-86891644D01*
X132986753Y-86835771D01*
X132842003Y-86816715D01*
X132841997Y-86816715D01*
X132697249Y-86835770D01*
X132562359Y-86891644D01*
X132562357Y-86891645D01*
X132446525Y-86980525D01*
X132357645Y-87096357D01*
X132357644Y-87096359D01*
X132301770Y-87231249D01*
X132282715Y-87375996D01*
X132282715Y-87376003D01*
X131369285Y-87376003D01*
X131369285Y-87375996D01*
X131350229Y-87231249D01*
X131310259Y-87134753D01*
X131294355Y-87096358D01*
X131255933Y-87046285D01*
X131205474Y-86980525D01*
X131089643Y-86891645D01*
X131089641Y-86891644D01*
X130954753Y-86835771D01*
X130810003Y-86816715D01*
X130809997Y-86816715D01*
X130665249Y-86835770D01*
X130530359Y-86891644D01*
X130530357Y-86891645D01*
X130414525Y-86980525D01*
X130325645Y-87096357D01*
X130325644Y-87096359D01*
X130269770Y-87231249D01*
X130250715Y-87375996D01*
X130250715Y-87376003D01*
X120025900Y-87376003D01*
X120025900Y-85852003D01*
X125017215Y-85852003D01*
X125036271Y-85996753D01*
X125092144Y-86131641D01*
X125092145Y-86131643D01*
X125181025Y-86247474D01*
X125260836Y-86308715D01*
X125296857Y-86336355D01*
X125411025Y-86383645D01*
X125431746Y-86392228D01*
X125576497Y-86411285D01*
X125576500Y-86411285D01*
X125576503Y-86411285D01*
X125690612Y-86396262D01*
X125721254Y-86392228D01*
X125799052Y-86360003D01*
X129234715Y-86360003D01*
X129253771Y-86504753D01*
X129309644Y-86639641D01*
X129309645Y-86639643D01*
X129398525Y-86755474D01*
X129478336Y-86816715D01*
X129514357Y-86844355D01*
X129628525Y-86891645D01*
X129649246Y-86900228D01*
X129793997Y-86919285D01*
X129794000Y-86919285D01*
X129794003Y-86919285D01*
X129902565Y-86904992D01*
X129938754Y-86900228D01*
X130073643Y-86844355D01*
X130189474Y-86755474D01*
X130278355Y-86639643D01*
X130334228Y-86504754D01*
X130341342Y-86450715D01*
X130353285Y-86360003D01*
X131266715Y-86360003D01*
X131285771Y-86504753D01*
X131341644Y-86639641D01*
X131341645Y-86639643D01*
X131430525Y-86755474D01*
X131510336Y-86816715D01*
X131546357Y-86844355D01*
X131660525Y-86891645D01*
X131681246Y-86900228D01*
X131825997Y-86919285D01*
X131826000Y-86919285D01*
X131826003Y-86919285D01*
X131934565Y-86904992D01*
X131970754Y-86900228D01*
X132105643Y-86844355D01*
X132221474Y-86755474D01*
X132310355Y-86639643D01*
X132366228Y-86504754D01*
X132373342Y-86450715D01*
X132385285Y-86360003D01*
X133298715Y-86360003D01*
X133317771Y-86504753D01*
X133373644Y-86639641D01*
X133373645Y-86639643D01*
X133462525Y-86755474D01*
X133542336Y-86816715D01*
X133578357Y-86844355D01*
X133692525Y-86891645D01*
X133713246Y-86900228D01*
X133857997Y-86919285D01*
X133858000Y-86919285D01*
X133858003Y-86919285D01*
X133966565Y-86904992D01*
X134002754Y-86900228D01*
X134137643Y-86844355D01*
X134253474Y-86755474D01*
X134342355Y-86639643D01*
X134398228Y-86504754D01*
X134405342Y-86450715D01*
X134417285Y-86360003D01*
X135330715Y-86360003D01*
X135349771Y-86504753D01*
X135405644Y-86639641D01*
X135405645Y-86639643D01*
X135494525Y-86755474D01*
X135574336Y-86816715D01*
X135610357Y-86844355D01*
X135724525Y-86891645D01*
X135745246Y-86900228D01*
X135889997Y-86919285D01*
X135890000Y-86919285D01*
X135890003Y-86919285D01*
X135998565Y-86904992D01*
X136034754Y-86900228D01*
X136169643Y-86844355D01*
X136285474Y-86755474D01*
X136374355Y-86639643D01*
X136377557Y-86631913D01*
X137870715Y-86631913D01*
X137889771Y-86776663D01*
X137945644Y-86911551D01*
X137945645Y-86911553D01*
X138034525Y-87027384D01*
X138123405Y-87095584D01*
X138150357Y-87116265D01*
X138226110Y-87147643D01*
X138285246Y-87172138D01*
X138429997Y-87191195D01*
X138430000Y-87191195D01*
X138430003Y-87191195D01*
X138538565Y-87176902D01*
X138574754Y-87172138D01*
X138709643Y-87116265D01*
X138825474Y-87027384D01*
X138914355Y-86911553D01*
X138970228Y-86776664D01*
X138988267Y-86639643D01*
X138989285Y-86631913D01*
X138989285Y-86631906D01*
X138970229Y-86487159D01*
X138970228Y-86487156D01*
X138914355Y-86352268D01*
X138880936Y-86308715D01*
X138825474Y-86236435D01*
X138709643Y-86147555D01*
X138709641Y-86147554D01*
X138574753Y-86091681D01*
X138430003Y-86072625D01*
X138429997Y-86072625D01*
X138285249Y-86091680D01*
X138150359Y-86147554D01*
X138150357Y-86147555D01*
X138034525Y-86236435D01*
X137945645Y-86352267D01*
X137945644Y-86352269D01*
X137889770Y-86487159D01*
X137870715Y-86631906D01*
X137870715Y-86631913D01*
X136377557Y-86631913D01*
X136430228Y-86504754D01*
X136437342Y-86450715D01*
X136449285Y-86360003D01*
X136449285Y-86359996D01*
X136430229Y-86215249D01*
X136426961Y-86207359D01*
X136374355Y-86080358D01*
X136314723Y-86002644D01*
X136285474Y-85964525D01*
X136169643Y-85875645D01*
X136169641Y-85875644D01*
X136034753Y-85819771D01*
X135890003Y-85800715D01*
X135889997Y-85800715D01*
X135745249Y-85819770D01*
X135610359Y-85875644D01*
X135610357Y-85875645D01*
X135494525Y-85964525D01*
X135405645Y-86080357D01*
X135405644Y-86080359D01*
X135349770Y-86215249D01*
X135330715Y-86359996D01*
X135330715Y-86360003D01*
X134417285Y-86360003D01*
X134417285Y-86359996D01*
X134398229Y-86215249D01*
X134394961Y-86207359D01*
X134342355Y-86080358D01*
X134282723Y-86002644D01*
X134253474Y-85964525D01*
X134137643Y-85875645D01*
X134137641Y-85875644D01*
X134002753Y-85819771D01*
X133858003Y-85800715D01*
X133857997Y-85800715D01*
X133713249Y-85819770D01*
X133578359Y-85875644D01*
X133578357Y-85875645D01*
X133462525Y-85964525D01*
X133373645Y-86080357D01*
X133373644Y-86080359D01*
X133317770Y-86215249D01*
X133298715Y-86359996D01*
X133298715Y-86360003D01*
X132385285Y-86360003D01*
X132385285Y-86359996D01*
X132366229Y-86215249D01*
X132362961Y-86207359D01*
X132310355Y-86080358D01*
X132250723Y-86002644D01*
X132221474Y-85964525D01*
X132105643Y-85875645D01*
X132105641Y-85875644D01*
X131970753Y-85819771D01*
X131826003Y-85800715D01*
X131825997Y-85800715D01*
X131681249Y-85819770D01*
X131546359Y-85875644D01*
X131546357Y-85875645D01*
X131430525Y-85964525D01*
X131341645Y-86080357D01*
X131341644Y-86080359D01*
X131285770Y-86215249D01*
X131266715Y-86359996D01*
X131266715Y-86360003D01*
X130353285Y-86360003D01*
X130353285Y-86359996D01*
X130334229Y-86215249D01*
X130330961Y-86207359D01*
X130278355Y-86080358D01*
X130218723Y-86002644D01*
X130189474Y-85964525D01*
X130073643Y-85875645D01*
X130073641Y-85875644D01*
X129938753Y-85819771D01*
X129794003Y-85800715D01*
X129793997Y-85800715D01*
X129649249Y-85819770D01*
X129514359Y-85875644D01*
X129514357Y-85875645D01*
X129398525Y-85964525D01*
X129309645Y-86080357D01*
X129309644Y-86080359D01*
X129253770Y-86215249D01*
X129234715Y-86359996D01*
X129234715Y-86360003D01*
X125799052Y-86360003D01*
X125856143Y-86336355D01*
X125971974Y-86247474D01*
X126060855Y-86131643D01*
X126116728Y-85996754D01*
X126132672Y-85875645D01*
X126135785Y-85852003D01*
X126135785Y-85851996D01*
X126116729Y-85707249D01*
X126113461Y-85699359D01*
X126060855Y-85572358D01*
X126001223Y-85494644D01*
X125971974Y-85456525D01*
X125856143Y-85367645D01*
X125856141Y-85367644D01*
X125799067Y-85344003D01*
X130250715Y-85344003D01*
X130269771Y-85488753D01*
X130325644Y-85623641D01*
X130325645Y-85623643D01*
X130414525Y-85739474D01*
X130494336Y-85800715D01*
X130530357Y-85828355D01*
X130644525Y-85875645D01*
X130665246Y-85884228D01*
X130809997Y-85903285D01*
X130810000Y-85903285D01*
X130810003Y-85903285D01*
X130918565Y-85888992D01*
X130954754Y-85884228D01*
X131089643Y-85828355D01*
X131205474Y-85739474D01*
X131294355Y-85623643D01*
X131350228Y-85488754D01*
X131366172Y-85367645D01*
X131369285Y-85344003D01*
X132282715Y-85344003D01*
X132301771Y-85488753D01*
X132357644Y-85623641D01*
X132357645Y-85623643D01*
X132446525Y-85739474D01*
X132526336Y-85800715D01*
X132562357Y-85828355D01*
X132676525Y-85875645D01*
X132697246Y-85884228D01*
X132841997Y-85903285D01*
X132842000Y-85903285D01*
X132842003Y-85903285D01*
X132950565Y-85888992D01*
X132986754Y-85884228D01*
X133121643Y-85828355D01*
X133237474Y-85739474D01*
X133326355Y-85623643D01*
X133382228Y-85488754D01*
X133398172Y-85367645D01*
X133401285Y-85344003D01*
X134314715Y-85344003D01*
X134333771Y-85488753D01*
X134389644Y-85623641D01*
X134389645Y-85623643D01*
X134478525Y-85739474D01*
X134558336Y-85800715D01*
X134594357Y-85828355D01*
X134708525Y-85875645D01*
X134729246Y-85884228D01*
X134873997Y-85903285D01*
X134874000Y-85903285D01*
X134874003Y-85903285D01*
X134982565Y-85888992D01*
X135018754Y-85884228D01*
X135153643Y-85828355D01*
X135269474Y-85739474D01*
X135358355Y-85623643D01*
X135414228Y-85488754D01*
X135430172Y-85367645D01*
X135433285Y-85344003D01*
X135433285Y-85343996D01*
X135414229Y-85199249D01*
X135411413Y-85192450D01*
X135358355Y-85064358D01*
X135311581Y-85003401D01*
X135269474Y-84948525D01*
X135153643Y-84859645D01*
X135153641Y-84859644D01*
X135018753Y-84803771D01*
X134874003Y-84784715D01*
X134873997Y-84784715D01*
X134729249Y-84803770D01*
X134594359Y-84859644D01*
X134594357Y-84859645D01*
X134478525Y-84948525D01*
X134389645Y-85064357D01*
X134389644Y-85064359D01*
X134333770Y-85199249D01*
X134314715Y-85343996D01*
X134314715Y-85344003D01*
X133401285Y-85344003D01*
X133401285Y-85343996D01*
X133382229Y-85199249D01*
X133379413Y-85192450D01*
X133326355Y-85064358D01*
X133279581Y-85003401D01*
X133237474Y-84948525D01*
X133121643Y-84859645D01*
X133121641Y-84859644D01*
X132986753Y-84803771D01*
X132842003Y-84784715D01*
X132841997Y-84784715D01*
X132697249Y-84803770D01*
X132562359Y-84859644D01*
X132562357Y-84859645D01*
X132446525Y-84948525D01*
X132357645Y-85064357D01*
X132357644Y-85064359D01*
X132301770Y-85199249D01*
X132282715Y-85343996D01*
X132282715Y-85344003D01*
X131369285Y-85344003D01*
X131369285Y-85343996D01*
X131350229Y-85199249D01*
X131347413Y-85192450D01*
X131294355Y-85064358D01*
X131247581Y-85003401D01*
X131205474Y-84948525D01*
X131089643Y-84859645D01*
X131089641Y-84859644D01*
X130954753Y-84803771D01*
X130810003Y-84784715D01*
X130809997Y-84784715D01*
X130665249Y-84803770D01*
X130530359Y-84859644D01*
X130530357Y-84859645D01*
X130414525Y-84948525D01*
X130325645Y-85064357D01*
X130325644Y-85064359D01*
X130269770Y-85199249D01*
X130250715Y-85343996D01*
X130250715Y-85344003D01*
X125799067Y-85344003D01*
X125721253Y-85311771D01*
X125576503Y-85292715D01*
X125576497Y-85292715D01*
X125431749Y-85311770D01*
X125296859Y-85367644D01*
X125296857Y-85367645D01*
X125181025Y-85456525D01*
X125092145Y-85572357D01*
X125092144Y-85572359D01*
X125036270Y-85707249D01*
X125017215Y-85851996D01*
X125017215Y-85852003D01*
X120025900Y-85852003D01*
X120025900Y-84328003D01*
X131266715Y-84328003D01*
X131285771Y-84472753D01*
X131341644Y-84607641D01*
X131341645Y-84607643D01*
X131430525Y-84723474D01*
X131492873Y-84771315D01*
X131546357Y-84812355D01*
X131660525Y-84859645D01*
X131681246Y-84868228D01*
X131825997Y-84887285D01*
X131826000Y-84887285D01*
X131826003Y-84887285D01*
X131934565Y-84872992D01*
X131970754Y-84868228D01*
X132105643Y-84812355D01*
X132221474Y-84723474D01*
X132310355Y-84607643D01*
X132366228Y-84472754D01*
X132381909Y-84353643D01*
X132385285Y-84328003D01*
X133298715Y-84328003D01*
X133317771Y-84472753D01*
X133373644Y-84607641D01*
X133373645Y-84607643D01*
X133462525Y-84723474D01*
X133524873Y-84771315D01*
X133578357Y-84812355D01*
X133692525Y-84859645D01*
X133713246Y-84868228D01*
X133857997Y-84887285D01*
X133858000Y-84887285D01*
X133858003Y-84887285D01*
X133966565Y-84872992D01*
X134002754Y-84868228D01*
X134137643Y-84812355D01*
X134253474Y-84723474D01*
X134342355Y-84607643D01*
X134398228Y-84472754D01*
X134413909Y-84353643D01*
X134417285Y-84328003D01*
X134417285Y-84327996D01*
X134398229Y-84183249D01*
X134398228Y-84183246D01*
X134342355Y-84048358D01*
X134287511Y-83976884D01*
X134253474Y-83932525D01*
X134137643Y-83843645D01*
X134137641Y-83843644D01*
X134002753Y-83787771D01*
X133858003Y-83768715D01*
X133857997Y-83768715D01*
X133713249Y-83787770D01*
X133578359Y-83843644D01*
X133578357Y-83843645D01*
X133462525Y-83932525D01*
X133373645Y-84048357D01*
X133373644Y-84048359D01*
X133317770Y-84183249D01*
X133298715Y-84327996D01*
X133298715Y-84328003D01*
X132385285Y-84328003D01*
X132385285Y-84327996D01*
X132366229Y-84183249D01*
X132366228Y-84183246D01*
X132310355Y-84048358D01*
X132255511Y-83976884D01*
X132221474Y-83932525D01*
X132105643Y-83843645D01*
X132105641Y-83843644D01*
X131970753Y-83787771D01*
X131826003Y-83768715D01*
X131825997Y-83768715D01*
X131681249Y-83787770D01*
X131546359Y-83843644D01*
X131546357Y-83843645D01*
X131430525Y-83932525D01*
X131341645Y-84048357D01*
X131341644Y-84048359D01*
X131285770Y-84183249D01*
X131266715Y-84327996D01*
X131266715Y-84328003D01*
X120025900Y-84328003D01*
X120025900Y-83581413D01*
X129229305Y-83581413D01*
X129248361Y-83726163D01*
X129304234Y-83861051D01*
X129304235Y-83861053D01*
X129393115Y-83976884D01*
X129481995Y-84045084D01*
X129508947Y-84065765D01*
X129571690Y-84091754D01*
X129643836Y-84121638D01*
X129788587Y-84140695D01*
X129788590Y-84140695D01*
X129788593Y-84140695D01*
X129897155Y-84126402D01*
X129933344Y-84121638D01*
X130068233Y-84065765D01*
X130184064Y-83976884D01*
X130272945Y-83861053D01*
X130328818Y-83726164D01*
X130344262Y-83608853D01*
X130347875Y-83581413D01*
X130347875Y-83581408D01*
X130341997Y-83536766D01*
X130349722Y-83507934D01*
X130365736Y-83495645D01*
X130490805Y-83443840D01*
X130606636Y-83354959D01*
X130639598Y-83312003D01*
X132282715Y-83312003D01*
X132301771Y-83456753D01*
X132357644Y-83591641D01*
X132357645Y-83591643D01*
X132446525Y-83707474D01*
X132526336Y-83768715D01*
X132562357Y-83796355D01*
X132676525Y-83843645D01*
X132697246Y-83852228D01*
X132841997Y-83871285D01*
X132842000Y-83871285D01*
X132842003Y-83871285D01*
X132950565Y-83856992D01*
X132986754Y-83852228D01*
X133121643Y-83796355D01*
X133237474Y-83707474D01*
X133326355Y-83591643D01*
X133382228Y-83456754D01*
X133392359Y-83379798D01*
X133401285Y-83312003D01*
X133401285Y-83311996D01*
X133382229Y-83167249D01*
X133382228Y-83167246D01*
X133326355Y-83032358D01*
X133263532Y-82950485D01*
X133237474Y-82916525D01*
X133121643Y-82827645D01*
X133121641Y-82827644D01*
X132986753Y-82771771D01*
X132842003Y-82752715D01*
X132841997Y-82752715D01*
X132697249Y-82771770D01*
X132562359Y-82827644D01*
X132562357Y-82827645D01*
X132446525Y-82916525D01*
X132357645Y-83032357D01*
X132357644Y-83032359D01*
X132301770Y-83167249D01*
X132282715Y-83311996D01*
X132282715Y-83312003D01*
X130639598Y-83312003D01*
X130695517Y-83239128D01*
X130751390Y-83104239D01*
X130760012Y-83038749D01*
X130770447Y-82959488D01*
X130770447Y-82959481D01*
X130751391Y-82814734D01*
X130751390Y-82814731D01*
X130695517Y-82679843D01*
X130664123Y-82638930D01*
X130606636Y-82564010D01*
X130550587Y-82521003D01*
X130536718Y-82510360D01*
X130521795Y-82484512D01*
X130529520Y-82455679D01*
X130536716Y-82448482D01*
X130592766Y-82405474D01*
X130681647Y-82289643D01*
X130722077Y-82192035D01*
X135252747Y-82192035D01*
X135271803Y-82336785D01*
X135327676Y-82471673D01*
X135327677Y-82471675D01*
X135416557Y-82587506D01*
X135483574Y-82638930D01*
X135532389Y-82676387D01*
X135576731Y-82694754D01*
X135667278Y-82732260D01*
X135812029Y-82751317D01*
X135812032Y-82751317D01*
X135812035Y-82751317D01*
X135932263Y-82735489D01*
X135961095Y-82743214D01*
X135976019Y-82769064D01*
X135978240Y-82785939D01*
X136034115Y-82920832D01*
X136034149Y-82920891D01*
X136034153Y-82920924D01*
X136035093Y-82923193D01*
X136034485Y-82923444D01*
X136038044Y-82950485D01*
X136024115Y-82971329D01*
X135974422Y-83009460D01*
X135885540Y-83125294D01*
X135885539Y-83125296D01*
X135829665Y-83260186D01*
X135810610Y-83404933D01*
X135810610Y-83404940D01*
X135829666Y-83549690D01*
X135885539Y-83684578D01*
X135885540Y-83684580D01*
X135974420Y-83800411D01*
X136063300Y-83868611D01*
X136090252Y-83889292D01*
X136194628Y-83932526D01*
X136225141Y-83945165D01*
X136369892Y-83964222D01*
X136369895Y-83964222D01*
X136369898Y-83964222D01*
X136479875Y-83949743D01*
X136514649Y-83945165D01*
X136649538Y-83889292D01*
X136765369Y-83800411D01*
X136854250Y-83684580D01*
X136864662Y-83659443D01*
X141555483Y-83659443D01*
X141574539Y-83804193D01*
X141630412Y-83939081D01*
X141630413Y-83939083D01*
X141719293Y-84054914D01*
X141758970Y-84085359D01*
X141835125Y-84143795D01*
X141946357Y-84189869D01*
X141970014Y-84199668D01*
X142114765Y-84218725D01*
X142114768Y-84218725D01*
X142114771Y-84218725D01*
X142223333Y-84204432D01*
X142259522Y-84199668D01*
X142394411Y-84143795D01*
X142510242Y-84054914D01*
X142590943Y-83949742D01*
X142616794Y-83934819D01*
X142645626Y-83942544D01*
X142652825Y-83949743D01*
X142733525Y-84054914D01*
X142758399Y-84074000D01*
X142842649Y-84138648D01*
X142857573Y-84164497D01*
X142849848Y-84193330D01*
X142833832Y-84205619D01*
X142752269Y-84239404D01*
X142752267Y-84239405D01*
X142636435Y-84328285D01*
X142547555Y-84444117D01*
X142547554Y-84444119D01*
X142491680Y-84579009D01*
X142472625Y-84723756D01*
X142472625Y-84723763D01*
X142491681Y-84868513D01*
X142547554Y-85003401D01*
X142547555Y-85003403D01*
X142636435Y-85119234D01*
X142725316Y-85187434D01*
X142752267Y-85208115D01*
X142867065Y-85255666D01*
X142887156Y-85263988D01*
X142984337Y-85276782D01*
X143010188Y-85291706D01*
X143017913Y-85310357D01*
X143029770Y-85400420D01*
X143085644Y-85535311D01*
X143085645Y-85535313D01*
X143174525Y-85651144D01*
X143237358Y-85699357D01*
X143290357Y-85740025D01*
X143425246Y-85795897D01*
X143425246Y-85795898D01*
X143569997Y-85814955D01*
X143570000Y-85814955D01*
X143570003Y-85814955D01*
X143678565Y-85800662D01*
X143714754Y-85795898D01*
X143849643Y-85740025D01*
X143965474Y-85651144D01*
X143965475Y-85651142D01*
X143965477Y-85651141D01*
X143967282Y-85649337D01*
X143968421Y-85650476D01*
X143989885Y-85638067D01*
X144018722Y-85645774D01*
X144022501Y-85649553D01*
X144022718Y-85649337D01*
X144024522Y-85651141D01*
X144024526Y-85651144D01*
X144140357Y-85740025D01*
X144275246Y-85795898D01*
X144419997Y-85814955D01*
X144420000Y-85814955D01*
X144420003Y-85814955D01*
X144528565Y-85800662D01*
X144564754Y-85795898D01*
X144699643Y-85740025D01*
X144815474Y-85651144D01*
X144904355Y-85535313D01*
X144930993Y-85471003D01*
X147395715Y-85471003D01*
X147414771Y-85615753D01*
X147470644Y-85750641D01*
X147470645Y-85750643D01*
X147559525Y-85866474D01*
X147639336Y-85927715D01*
X147675357Y-85955355D01*
X147789525Y-86002645D01*
X147810246Y-86011228D01*
X147954997Y-86030285D01*
X147955000Y-86030285D01*
X147955003Y-86030285D01*
X148063565Y-86015992D01*
X148099754Y-86011228D01*
X148177552Y-85979003D01*
X151967715Y-85979003D01*
X151986771Y-86123753D01*
X152042644Y-86258641D01*
X152042645Y-86258643D01*
X152131525Y-86374474D01*
X152204820Y-86430715D01*
X152247357Y-86463355D01*
X152382246Y-86519228D01*
X152526997Y-86538285D01*
X152527000Y-86538285D01*
X152527003Y-86538285D01*
X152635565Y-86523992D01*
X152671754Y-86519228D01*
X152704251Y-86505766D01*
X152734100Y-86505766D01*
X152755207Y-86526873D01*
X152755208Y-86556722D01*
X152742918Y-86572738D01*
X152714527Y-86594523D01*
X152625645Y-86710357D01*
X152625644Y-86710359D01*
X152569770Y-86845249D01*
X152550715Y-86989996D01*
X152550715Y-86990003D01*
X152569771Y-87134753D01*
X152625644Y-87269641D01*
X152625645Y-87269643D01*
X152714525Y-87385474D01*
X152800852Y-87451715D01*
X152830357Y-87474355D01*
X152956596Y-87526645D01*
X152965246Y-87530228D01*
X153109997Y-87549285D01*
X153110000Y-87549285D01*
X153110003Y-87549285D01*
X153218565Y-87534992D01*
X153254754Y-87530228D01*
X153389643Y-87474355D01*
X153489453Y-87397766D01*
X153518285Y-87390041D01*
X153542420Y-87403973D01*
X153542723Y-87403671D01*
X153543851Y-87404800D01*
X153544133Y-87404962D01*
X153544526Y-87405474D01*
X153660357Y-87494355D01*
X153738312Y-87526645D01*
X153795246Y-87550228D01*
X153939997Y-87569285D01*
X153940000Y-87569285D01*
X153940003Y-87569285D01*
X154048565Y-87554992D01*
X154084754Y-87550228D01*
X154219643Y-87494355D01*
X154335474Y-87405474D01*
X154396823Y-87325521D01*
X154422673Y-87310598D01*
X154451505Y-87318322D01*
X154495857Y-87352355D01*
X154620474Y-87403973D01*
X154630746Y-87408228D01*
X154775497Y-87427285D01*
X154775500Y-87427285D01*
X154775503Y-87427285D01*
X154884065Y-87412992D01*
X154920254Y-87408228D01*
X155055143Y-87352355D01*
X155170974Y-87263474D01*
X155259855Y-87147643D01*
X155315728Y-87012754D01*
X155329051Y-86911553D01*
X155334785Y-86868003D01*
X155334785Y-86867996D01*
X155315729Y-86723249D01*
X155310390Y-86710359D01*
X155259855Y-86588358D01*
X155196480Y-86505766D01*
X155182083Y-86487003D01*
X156285715Y-86487003D01*
X156304771Y-86631753D01*
X156360644Y-86766641D01*
X156360645Y-86766643D01*
X156449525Y-86882474D01*
X156538406Y-86950674D01*
X156565357Y-86971355D01*
X156665303Y-87012754D01*
X156700246Y-87027228D01*
X156844997Y-87046285D01*
X156845000Y-87046285D01*
X156845003Y-87046285D01*
X156953565Y-87031992D01*
X156989754Y-87027228D01*
X157124643Y-86971355D01*
X157240474Y-86882474D01*
X157329355Y-86766643D01*
X157385228Y-86631754D01*
X157390941Y-86588357D01*
X157404285Y-86487003D01*
X157404285Y-86486996D01*
X157385229Y-86342249D01*
X157382787Y-86336354D01*
X157329355Y-86207358D01*
X157271257Y-86131643D01*
X157240474Y-86091525D01*
X157124643Y-86002645D01*
X157124641Y-86002644D01*
X156989753Y-85946771D01*
X156845003Y-85927715D01*
X156844997Y-85927715D01*
X156700249Y-85946770D01*
X156565359Y-86002644D01*
X156565357Y-86002645D01*
X156449525Y-86091525D01*
X156360645Y-86207357D01*
X156360644Y-86207359D01*
X156304770Y-86342249D01*
X156285715Y-86486996D01*
X156285715Y-86487003D01*
X155182083Y-86487003D01*
X155170974Y-86472525D01*
X155055143Y-86383645D01*
X155055141Y-86383644D01*
X154920253Y-86327771D01*
X154775503Y-86308715D01*
X154775497Y-86308715D01*
X154630749Y-86327770D01*
X154495859Y-86383644D01*
X154495857Y-86383645D01*
X154380025Y-86472526D01*
X154318675Y-86552477D01*
X154292825Y-86567401D01*
X154263993Y-86559676D01*
X154219643Y-86525645D01*
X154219641Y-86525644D01*
X154084753Y-86469771D01*
X153940003Y-86450715D01*
X153939997Y-86450715D01*
X153795249Y-86469770D01*
X153660359Y-86525644D01*
X153660357Y-86525645D01*
X153598985Y-86572738D01*
X153569929Y-86595034D01*
X153560547Y-86602233D01*
X153531715Y-86609958D01*
X153507586Y-86596028D01*
X153507282Y-86596333D01*
X153506144Y-86595195D01*
X153505865Y-86595034D01*
X153505476Y-86594527D01*
X153389643Y-86505645D01*
X153389641Y-86505644D01*
X153254753Y-86449771D01*
X153110003Y-86430715D01*
X153109997Y-86430715D01*
X152965248Y-86449770D01*
X152965248Y-86449771D01*
X152932745Y-86463234D01*
X152902896Y-86463234D01*
X152881790Y-86442127D01*
X152881790Y-86412278D01*
X152894080Y-86396262D01*
X152910522Y-86383645D01*
X152922474Y-86374474D01*
X153011355Y-86258643D01*
X153067228Y-86123754D01*
X153083172Y-86002645D01*
X153086285Y-85979003D01*
X153086285Y-85978996D01*
X153067229Y-85834249D01*
X153064787Y-85828354D01*
X153011355Y-85699358D01*
X152953257Y-85623643D01*
X152922474Y-85583525D01*
X152806643Y-85494645D01*
X152806641Y-85494644D01*
X152671753Y-85438771D01*
X152527003Y-85419715D01*
X152526997Y-85419715D01*
X152382249Y-85438770D01*
X152247359Y-85494644D01*
X152247357Y-85494645D01*
X152131525Y-85583525D01*
X152042645Y-85699357D01*
X152042644Y-85699359D01*
X151986770Y-85834249D01*
X151967715Y-85978996D01*
X151967715Y-85979003D01*
X148177552Y-85979003D01*
X148234643Y-85955355D01*
X148350474Y-85866474D01*
X148439355Y-85750643D01*
X148495228Y-85615754D01*
X148505818Y-85535313D01*
X148514285Y-85471003D01*
X148514285Y-85470996D01*
X148495229Y-85326249D01*
X148489232Y-85311772D01*
X148443111Y-85200425D01*
X148443111Y-85170576D01*
X148464217Y-85149470D01*
X148494067Y-85149470D01*
X148502880Y-85154558D01*
X148552262Y-85192450D01*
X148590081Y-85208115D01*
X148687151Y-85248323D01*
X148831902Y-85267380D01*
X148831905Y-85267380D01*
X148831908Y-85267380D01*
X148940470Y-85253087D01*
X148976659Y-85248323D01*
X149111548Y-85192450D01*
X149227379Y-85103569D01*
X149316260Y-84987738D01*
X149372133Y-84852849D01*
X149382867Y-84771314D01*
X149391190Y-84708098D01*
X149391190Y-84708091D01*
X149372134Y-84563344D01*
X149372133Y-84563341D01*
X149316260Y-84428453D01*
X149266855Y-84364067D01*
X149227379Y-84312620D01*
X149111548Y-84223740D01*
X149111546Y-84223739D01*
X148976658Y-84167866D01*
X148831908Y-84148810D01*
X148831902Y-84148810D01*
X148687154Y-84167865D01*
X148552264Y-84223739D01*
X148552262Y-84223740D01*
X148436430Y-84312620D01*
X148347550Y-84428452D01*
X148347549Y-84428454D01*
X148291675Y-84563344D01*
X148272620Y-84708091D01*
X148272620Y-84708098D01*
X148291676Y-84852848D01*
X148343792Y-84978667D01*
X148343792Y-85008517D01*
X148322686Y-85029623D01*
X148292836Y-85029623D01*
X148284019Y-85024533D01*
X148234643Y-84986645D01*
X148234641Y-84986644D01*
X148099753Y-84930771D01*
X147955003Y-84911715D01*
X147954997Y-84911715D01*
X147810249Y-84930770D01*
X147675359Y-84986644D01*
X147675357Y-84986645D01*
X147559525Y-85075525D01*
X147470645Y-85191357D01*
X147470644Y-85191359D01*
X147414770Y-85326249D01*
X147395715Y-85470996D01*
X147395715Y-85471003D01*
X144930993Y-85471003D01*
X144960228Y-85400424D01*
X144971899Y-85311771D01*
X144979285Y-85255673D01*
X144979285Y-85255666D01*
X144960229Y-85110919D01*
X144960228Y-85110916D01*
X144904355Y-84976028D01*
X144845000Y-84898675D01*
X144815474Y-84860195D01*
X144699643Y-84771315D01*
X144699641Y-84771314D01*
X144564753Y-84715441D01*
X144420003Y-84696385D01*
X144419997Y-84696385D01*
X144275249Y-84715440D01*
X144140359Y-84771314D01*
X144140357Y-84771315D01*
X144024522Y-84860198D01*
X144022718Y-84862003D01*
X144021596Y-84860881D01*
X144000014Y-84873285D01*
X143971197Y-84865502D01*
X143967490Y-84861794D01*
X143967282Y-84862003D01*
X143965477Y-84860198D01*
X143849643Y-84771315D01*
X143849641Y-84771314D01*
X143714750Y-84715440D01*
X143617570Y-84702646D01*
X143591720Y-84687721D01*
X143583995Y-84669070D01*
X143572139Y-84579009D01*
X143572138Y-84579006D01*
X143516265Y-84444118D01*
X143454840Y-84364067D01*
X143427384Y-84328285D01*
X143318261Y-84244552D01*
X143303337Y-84218701D01*
X143311062Y-84189869D01*
X143327076Y-84177580D01*
X143408643Y-84143795D01*
X143524474Y-84054914D01*
X143607278Y-83947003D01*
X144601715Y-83947003D01*
X144620771Y-84091753D01*
X144676644Y-84226641D01*
X144676645Y-84226643D01*
X144765525Y-84342474D01*
X144793666Y-84364067D01*
X144881357Y-84431355D01*
X144981303Y-84472754D01*
X145016246Y-84487228D01*
X145160997Y-84506285D01*
X145161000Y-84506285D01*
X145161003Y-84506285D01*
X145269565Y-84491992D01*
X145305754Y-84487228D01*
X145440643Y-84431355D01*
X145556474Y-84342474D01*
X145645355Y-84226643D01*
X145671288Y-84164033D01*
X145692393Y-84142929D01*
X145722242Y-84142928D01*
X145738259Y-84155218D01*
X145772817Y-84200256D01*
X145830545Y-84244552D01*
X145888649Y-84289137D01*
X145983163Y-84328286D01*
X146023538Y-84345010D01*
X146168289Y-84364067D01*
X146168292Y-84364067D01*
X146168295Y-84364067D01*
X146276857Y-84349774D01*
X146313046Y-84345010D01*
X146447935Y-84289137D01*
X146563766Y-84200256D01*
X146609635Y-84140478D01*
X146635484Y-84125554D01*
X146664316Y-84133279D01*
X146676606Y-84149295D01*
X146708644Y-84226641D01*
X146708645Y-84226643D01*
X146797525Y-84342474D01*
X146825666Y-84364067D01*
X146913357Y-84431355D01*
X147013303Y-84472754D01*
X147048246Y-84487228D01*
X147192997Y-84506285D01*
X147193000Y-84506285D01*
X147193003Y-84506285D01*
X147301565Y-84491992D01*
X147337754Y-84487228D01*
X147472643Y-84431355D01*
X147588474Y-84342474D01*
X147677355Y-84226643D01*
X147733228Y-84091754D01*
X147735565Y-84074003D01*
X156310715Y-84074003D01*
X156329771Y-84218753D01*
X156385644Y-84353641D01*
X156385645Y-84353643D01*
X156474525Y-84469474D01*
X156563405Y-84537674D01*
X156590357Y-84558355D01*
X156725246Y-84614228D01*
X156869997Y-84633285D01*
X156870000Y-84633285D01*
X156870003Y-84633285D01*
X156978565Y-84618992D01*
X157014754Y-84614228D01*
X157149643Y-84558355D01*
X157265474Y-84469474D01*
X157354355Y-84353643D01*
X157410228Y-84218754D01*
X157416927Y-84167867D01*
X157429285Y-84074003D01*
X157429285Y-84073996D01*
X157410229Y-83929249D01*
X157391541Y-83884133D01*
X157354355Y-83794358D01*
X157302028Y-83726164D01*
X157265474Y-83678525D01*
X157149643Y-83589645D01*
X157149641Y-83589644D01*
X157014753Y-83533771D01*
X156870003Y-83514715D01*
X156869997Y-83514715D01*
X156725249Y-83533770D01*
X156590359Y-83589644D01*
X156590357Y-83589645D01*
X156474525Y-83678525D01*
X156385645Y-83794357D01*
X156385644Y-83794359D01*
X156329770Y-83929249D01*
X156310715Y-84073996D01*
X156310715Y-84074003D01*
X147735565Y-84074003D01*
X147752285Y-83947000D01*
X147752285Y-83946996D01*
X147733229Y-83802249D01*
X147729961Y-83794359D01*
X147677355Y-83667358D01*
X147632462Y-83608852D01*
X147588474Y-83551525D01*
X147472643Y-83462645D01*
X147472641Y-83462644D01*
X147337753Y-83406771D01*
X147193003Y-83387715D01*
X147192997Y-83387715D01*
X147048249Y-83406770D01*
X146913359Y-83462644D01*
X146913357Y-83462645D01*
X146797525Y-83551526D01*
X146751657Y-83611302D01*
X146725806Y-83626226D01*
X146696974Y-83618501D01*
X146684685Y-83602485D01*
X146663577Y-83551527D01*
X146652647Y-83525140D01*
X146600172Y-83456753D01*
X146563766Y-83409307D01*
X146447935Y-83320427D01*
X146447933Y-83320426D01*
X146313045Y-83264553D01*
X146168295Y-83245497D01*
X146168289Y-83245497D01*
X146023541Y-83264552D01*
X145888651Y-83320426D01*
X145888649Y-83320427D01*
X145772817Y-83409307D01*
X145683935Y-83525141D01*
X145658003Y-83587746D01*
X145636896Y-83608853D01*
X145607047Y-83608852D01*
X145591031Y-83596562D01*
X145556475Y-83551527D01*
X145556472Y-83551525D01*
X145440643Y-83462645D01*
X145426421Y-83456754D01*
X145305753Y-83406771D01*
X145161003Y-83387715D01*
X145160997Y-83387715D01*
X145016249Y-83406770D01*
X144881359Y-83462644D01*
X144881357Y-83462645D01*
X144765525Y-83551525D01*
X144676645Y-83667357D01*
X144676644Y-83667359D01*
X144620770Y-83802249D01*
X144601715Y-83946996D01*
X144601715Y-83947003D01*
X143607278Y-83947003D01*
X143613355Y-83939083D01*
X143669228Y-83804194D01*
X143681961Y-83707474D01*
X143688285Y-83659443D01*
X143688285Y-83659436D01*
X143669229Y-83514689D01*
X143661340Y-83495644D01*
X143613355Y-83379798D01*
X143567798Y-83320427D01*
X143524474Y-83263965D01*
X143408643Y-83175085D01*
X143408641Y-83175084D01*
X143273753Y-83119211D01*
X143129003Y-83100155D01*
X143128997Y-83100155D01*
X142984249Y-83119210D01*
X142849359Y-83175084D01*
X142849357Y-83175085D01*
X142733525Y-83263965D01*
X142652825Y-83369137D01*
X142626974Y-83384061D01*
X142598142Y-83376336D01*
X142590943Y-83369137D01*
X142510242Y-83263965D01*
X142394411Y-83175085D01*
X142394409Y-83175084D01*
X142259521Y-83119211D01*
X142114771Y-83100155D01*
X142114765Y-83100155D01*
X141970017Y-83119210D01*
X141835127Y-83175084D01*
X141835125Y-83175085D01*
X141719293Y-83263965D01*
X141630413Y-83379797D01*
X141630412Y-83379799D01*
X141574538Y-83514689D01*
X141555483Y-83659436D01*
X141555483Y-83659443D01*
X136864662Y-83659443D01*
X136910123Y-83549691D01*
X136915620Y-83507934D01*
X136929180Y-83404940D01*
X136929180Y-83404933D01*
X136910124Y-83260186D01*
X136910123Y-83260183D01*
X136854250Y-83125295D01*
X136854248Y-83125292D01*
X136854214Y-83125232D01*
X136854209Y-83125197D01*
X136853272Y-83122934D01*
X136853878Y-83122682D01*
X136850321Y-83095638D01*
X136864249Y-83074795D01*
X136913944Y-83036663D01*
X136934818Y-83009460D01*
X137002825Y-82920832D01*
X137058698Y-82785943D01*
X137072666Y-82679843D01*
X137077755Y-82641192D01*
X137077755Y-82641185D01*
X137065751Y-82550003D01*
X138378715Y-82550003D01*
X138397771Y-82694753D01*
X138453644Y-82829641D01*
X138453645Y-82829643D01*
X138542525Y-82945474D01*
X138618967Y-83004130D01*
X138658357Y-83034355D01*
X138755988Y-83074795D01*
X138793246Y-83090228D01*
X138937997Y-83109285D01*
X138938000Y-83109285D01*
X138938003Y-83109285D01*
X139046565Y-83094992D01*
X139082754Y-83090228D01*
X139217643Y-83034355D01*
X139333474Y-82945474D01*
X139422355Y-82829643D01*
X139478228Y-82694754D01*
X139483959Y-82651220D01*
X139497285Y-82550003D01*
X139497285Y-82549996D01*
X139478229Y-82405249D01*
X139478228Y-82405246D01*
X139432978Y-82296003D01*
X141426715Y-82296003D01*
X141445771Y-82440753D01*
X141501644Y-82575641D01*
X141501645Y-82575643D01*
X141590525Y-82691474D01*
X141636313Y-82726608D01*
X141706357Y-82780355D01*
X141841246Y-82836227D01*
X141841246Y-82836228D01*
X141985997Y-82855285D01*
X141986000Y-82855285D01*
X141986003Y-82855285D01*
X142094565Y-82840992D01*
X142130754Y-82836228D01*
X142265643Y-82780355D01*
X142381474Y-82691474D01*
X142412361Y-82651220D01*
X142438212Y-82636295D01*
X142458227Y-82638929D01*
X142548654Y-82676386D01*
X142578547Y-82688768D01*
X142723298Y-82707825D01*
X142723301Y-82707825D01*
X142723304Y-82707825D01*
X142831866Y-82693532D01*
X142868055Y-82688768D01*
X143002944Y-82632895D01*
X143118775Y-82544014D01*
X143207656Y-82428183D01*
X143263529Y-82293294D01*
X143277987Y-82183474D01*
X143282586Y-82148543D01*
X143282586Y-82148536D01*
X143263530Y-82003789D01*
X143234106Y-81932753D01*
X143207656Y-81868898D01*
X143170111Y-81819968D01*
X143145584Y-81788003D01*
X150062715Y-81788003D01*
X150081771Y-81932753D01*
X150137644Y-82067641D01*
X150137645Y-82067643D01*
X150226525Y-82183474D01*
X150307638Y-82245714D01*
X150342357Y-82272355D01*
X150477246Y-82328227D01*
X150477246Y-82328228D01*
X150621997Y-82347285D01*
X150622000Y-82347285D01*
X150622003Y-82347285D01*
X150730565Y-82332992D01*
X150766754Y-82328228D01*
X150844552Y-82296003D01*
X155142715Y-82296003D01*
X155161771Y-82440753D01*
X155217644Y-82575641D01*
X155217645Y-82575643D01*
X155306525Y-82691474D01*
X155352313Y-82726608D01*
X155422357Y-82780355D01*
X155557246Y-82836227D01*
X155557246Y-82836228D01*
X155701997Y-82855285D01*
X155702000Y-82855285D01*
X155702003Y-82855285D01*
X155810565Y-82840992D01*
X155846754Y-82836228D01*
X155981643Y-82780355D01*
X156097474Y-82691474D01*
X156186355Y-82575643D01*
X156242228Y-82440754D01*
X156254533Y-82347285D01*
X156261285Y-82296003D01*
X156261285Y-82295996D01*
X156242229Y-82151249D01*
X156223362Y-82105700D01*
X156186355Y-82016358D01*
X156165674Y-81989405D01*
X156097474Y-81900525D01*
X155981643Y-81811645D01*
X155981641Y-81811644D01*
X155846753Y-81755771D01*
X155702003Y-81736715D01*
X155701997Y-81736715D01*
X155557249Y-81755770D01*
X155422359Y-81811644D01*
X155422357Y-81811645D01*
X155306525Y-81900525D01*
X155217645Y-82016357D01*
X155217644Y-82016359D01*
X155161770Y-82151249D01*
X155142715Y-82295996D01*
X155142715Y-82296003D01*
X150844552Y-82296003D01*
X150901643Y-82272355D01*
X151017474Y-82183474D01*
X151106355Y-82067643D01*
X151162228Y-81932754D01*
X151171115Y-81865249D01*
X151181285Y-81788003D01*
X151181285Y-81787996D01*
X151162229Y-81643249D01*
X151162228Y-81643246D01*
X151116978Y-81534003D01*
X156412715Y-81534003D01*
X156431771Y-81678753D01*
X156487644Y-81813641D01*
X156487645Y-81813643D01*
X156576525Y-81929474D01*
X156656336Y-81990715D01*
X156692357Y-82018355D01*
X156827246Y-82074227D01*
X156827246Y-82074228D01*
X156971997Y-82093285D01*
X156972000Y-82093285D01*
X156972003Y-82093285D01*
X157080565Y-82078992D01*
X157116754Y-82074228D01*
X157251643Y-82018355D01*
X157367474Y-81929474D01*
X157456355Y-81813643D01*
X157512228Y-81678754D01*
X157522631Y-81599736D01*
X157531285Y-81534003D01*
X157531285Y-81533996D01*
X157512229Y-81389249D01*
X157492534Y-81341702D01*
X157456355Y-81254358D01*
X157413878Y-81199001D01*
X157367474Y-81138525D01*
X157251643Y-81049645D01*
X157251641Y-81049644D01*
X157116753Y-80993771D01*
X156972003Y-80974715D01*
X156971997Y-80974715D01*
X156827249Y-80993770D01*
X156692359Y-81049644D01*
X156692357Y-81049645D01*
X156576525Y-81138525D01*
X156487645Y-81254357D01*
X156487644Y-81254359D01*
X156431770Y-81389249D01*
X156412715Y-81533996D01*
X156412715Y-81534003D01*
X151116978Y-81534003D01*
X151106355Y-81508358D01*
X151081979Y-81476591D01*
X151017474Y-81392525D01*
X150901643Y-81303645D01*
X150901641Y-81303644D01*
X150766753Y-81247771D01*
X150622003Y-81228715D01*
X150621997Y-81228715D01*
X150477249Y-81247770D01*
X150342359Y-81303644D01*
X150342357Y-81303645D01*
X150226525Y-81392525D01*
X150137645Y-81508357D01*
X150137644Y-81508359D01*
X150081770Y-81643249D01*
X150062715Y-81787996D01*
X150062715Y-81788003D01*
X143145584Y-81788003D01*
X143118775Y-81753065D01*
X143002944Y-81664185D01*
X143002942Y-81664184D01*
X142970371Y-81650692D01*
X142949264Y-81629585D01*
X142949265Y-81599736D01*
X142954356Y-81590919D01*
X142978351Y-81559648D01*
X142978350Y-81559648D01*
X142978355Y-81559643D01*
X143034228Y-81424754D01*
X143050172Y-81303645D01*
X143053285Y-81280003D01*
X143053285Y-81279996D01*
X143034229Y-81135249D01*
X143023821Y-81110121D01*
X142978355Y-81000358D01*
X142955334Y-80970357D01*
X142889474Y-80884525D01*
X142773643Y-80795645D01*
X142773641Y-80795644D01*
X142638753Y-80739771D01*
X142494003Y-80720715D01*
X142493997Y-80720715D01*
X142349249Y-80739770D01*
X142214359Y-80795644D01*
X142214357Y-80795645D01*
X142098525Y-80884525D01*
X142009645Y-81000357D01*
X142009644Y-81000359D01*
X141953770Y-81135249D01*
X141934715Y-81279996D01*
X141934715Y-81280003D01*
X141953771Y-81424753D01*
X142009644Y-81559641D01*
X142009645Y-81559643D01*
X142098526Y-81675474D01*
X142102695Y-81678673D01*
X142117621Y-81704522D01*
X142109897Y-81733355D01*
X142084048Y-81748281D01*
X142073865Y-81748281D01*
X141986003Y-81736715D01*
X141985997Y-81736715D01*
X141841249Y-81755770D01*
X141706359Y-81811644D01*
X141706357Y-81811645D01*
X141590525Y-81900525D01*
X141501645Y-82016357D01*
X141501644Y-82016359D01*
X141445770Y-82151249D01*
X141426715Y-82295996D01*
X141426715Y-82296003D01*
X139432978Y-82296003D01*
X139422355Y-82270358D01*
X139362256Y-82192035D01*
X139333474Y-82154525D01*
X139217643Y-82065645D01*
X139217641Y-82065644D01*
X139082753Y-82009771D01*
X138938003Y-81990715D01*
X138937997Y-81990715D01*
X138793249Y-82009770D01*
X138658359Y-82065644D01*
X138658357Y-82065645D01*
X138542525Y-82154525D01*
X138453645Y-82270357D01*
X138453644Y-82270359D01*
X138397770Y-82405249D01*
X138378715Y-82549996D01*
X138378715Y-82550003D01*
X137065751Y-82550003D01*
X137058699Y-82496438D01*
X137035634Y-82440754D01*
X137002825Y-82361547D01*
X136977258Y-82328228D01*
X136913944Y-82245714D01*
X136798113Y-82156834D01*
X136798111Y-82156833D01*
X136663223Y-82100960D01*
X136518473Y-82081904D01*
X136518467Y-82081904D01*
X136398238Y-82097732D01*
X136369406Y-82090007D01*
X136354482Y-82064156D01*
X136354481Y-82064155D01*
X136352260Y-82047278D01*
X136296387Y-81912390D01*
X136263015Y-81868899D01*
X136207506Y-81796557D01*
X136091675Y-81707677D01*
X136091673Y-81707676D01*
X135956785Y-81651803D01*
X135812035Y-81632747D01*
X135812029Y-81632747D01*
X135667281Y-81651802D01*
X135532391Y-81707676D01*
X135532389Y-81707677D01*
X135416557Y-81796557D01*
X135327677Y-81912389D01*
X135327676Y-81912391D01*
X135271802Y-82047281D01*
X135252747Y-82192028D01*
X135252747Y-82192035D01*
X130722077Y-82192035D01*
X130725176Y-82184553D01*
X130746282Y-82163447D01*
X130767789Y-82162037D01*
X130767894Y-82161240D01*
X130915180Y-82180630D01*
X130915183Y-82180630D01*
X130915186Y-82180630D01*
X131045702Y-82163447D01*
X131059937Y-82161573D01*
X131194826Y-82105700D01*
X131310657Y-82016819D01*
X131399538Y-81900988D01*
X131455411Y-81766099D01*
X131471896Y-81640875D01*
X131486820Y-81615026D01*
X131505469Y-81607302D01*
X131585709Y-81596739D01*
X131720598Y-81540866D01*
X131836429Y-81451985D01*
X131925310Y-81336154D01*
X131961760Y-81248152D01*
X131982865Y-81227048D01*
X132012710Y-81227047D01*
X132079893Y-81254875D01*
X132079896Y-81254875D01*
X132079898Y-81254876D01*
X132079895Y-81254876D01*
X132224644Y-81273932D01*
X132224647Y-81273932D01*
X132224650Y-81273932D01*
X132333212Y-81259639D01*
X132369401Y-81254875D01*
X132381163Y-81250003D01*
X136220715Y-81250003D01*
X136239771Y-81394753D01*
X136295644Y-81529641D01*
X136295645Y-81529643D01*
X136384525Y-81645474D01*
X136465590Y-81707677D01*
X136500357Y-81734355D01*
X136629867Y-81788000D01*
X136635246Y-81790228D01*
X136779997Y-81809285D01*
X136780000Y-81809285D01*
X136780003Y-81809285D01*
X136888565Y-81794992D01*
X136924754Y-81790228D01*
X137059643Y-81734355D01*
X137175474Y-81645474D01*
X137264355Y-81529643D01*
X137320228Y-81394754D01*
X137335335Y-81280003D01*
X137339285Y-81250003D01*
X137339285Y-81249996D01*
X137320229Y-81105249D01*
X137310233Y-81081117D01*
X137264355Y-80970358D01*
X137198494Y-80884526D01*
X137175474Y-80854525D01*
X137059643Y-80765645D01*
X137059641Y-80765644D01*
X136924753Y-80709771D01*
X136780003Y-80690715D01*
X136779997Y-80690715D01*
X136635249Y-80709770D01*
X136500359Y-80765644D01*
X136500357Y-80765645D01*
X136384525Y-80854525D01*
X136295645Y-80970357D01*
X136295644Y-80970359D01*
X136239770Y-81105249D01*
X136220715Y-81249996D01*
X136220715Y-81250003D01*
X132381163Y-81250003D01*
X132504290Y-81199002D01*
X132620121Y-81110121D01*
X132709002Y-80994290D01*
X132764875Y-80859401D01*
X132775740Y-80776870D01*
X132783932Y-80714650D01*
X132783932Y-80714643D01*
X132764876Y-80569896D01*
X132764875Y-80569893D01*
X132709002Y-80435005D01*
X132688321Y-80408052D01*
X132620121Y-80319172D01*
X132504290Y-80230292D01*
X132504288Y-80230291D01*
X132369400Y-80174418D01*
X132224650Y-80155362D01*
X132224644Y-80155362D01*
X132079896Y-80174417D01*
X131945006Y-80230291D01*
X131945004Y-80230292D01*
X131829172Y-80319172D01*
X131740292Y-80435004D01*
X131740291Y-80435006D01*
X131703841Y-80523002D01*
X131682734Y-80544109D01*
X131652885Y-80544108D01*
X131585708Y-80516282D01*
X131440958Y-80497226D01*
X131440952Y-80497226D01*
X131296204Y-80516281D01*
X131161314Y-80572155D01*
X131161312Y-80572156D01*
X131045480Y-80661036D01*
X130956600Y-80776868D01*
X130956599Y-80776870D01*
X130900725Y-80911760D01*
X130884241Y-81036977D01*
X130869317Y-81062828D01*
X130850666Y-81070553D01*
X130770432Y-81081115D01*
X130635542Y-81136989D01*
X130635540Y-81136990D01*
X130519708Y-81225870D01*
X130430828Y-81341702D01*
X130430827Y-81341704D01*
X130387298Y-81446791D01*
X130366191Y-81467897D01*
X130344685Y-81469310D01*
X130344581Y-81470105D01*
X130197295Y-81450715D01*
X130197289Y-81450715D01*
X130052541Y-81469770D01*
X129917651Y-81525644D01*
X129917649Y-81525645D01*
X129801817Y-81614525D01*
X129712937Y-81730357D01*
X129712936Y-81730359D01*
X129657062Y-81865249D01*
X129638007Y-82009996D01*
X129638007Y-82010003D01*
X129657063Y-82154753D01*
X129712936Y-82289641D01*
X129712937Y-82289643D01*
X129801817Y-82405474D01*
X129831410Y-82428181D01*
X129871734Y-82459123D01*
X129886658Y-82484972D01*
X129878933Y-82513805D01*
X129871734Y-82521003D01*
X129815689Y-82564008D01*
X129726807Y-82679842D01*
X129726806Y-82679844D01*
X129670932Y-82814734D01*
X129651877Y-82959481D01*
X129651877Y-82959488D01*
X129657754Y-83004130D01*
X129650029Y-83032962D01*
X129634013Y-83045251D01*
X129508949Y-83097054D01*
X129508947Y-83097055D01*
X129393115Y-83185935D01*
X129304235Y-83301767D01*
X129304234Y-83301769D01*
X129248360Y-83436659D01*
X129229305Y-83581406D01*
X129229305Y-83581413D01*
X120025900Y-83581413D01*
X120025900Y-78760003D01*
X127950715Y-78760003D01*
X127969771Y-78904753D01*
X128025644Y-79039641D01*
X128025645Y-79039643D01*
X128114525Y-79155474D01*
X128162423Y-79192227D01*
X128230357Y-79244355D01*
X128365246Y-79300227D01*
X128365246Y-79300228D01*
X128509997Y-79319285D01*
X128510000Y-79319285D01*
X128510003Y-79319285D01*
X128618565Y-79304992D01*
X128654754Y-79300228D01*
X128789643Y-79244355D01*
X128905474Y-79155474D01*
X128994355Y-79039643D01*
X129050228Y-78904754D01*
X129060022Y-78830358D01*
X129066400Y-78781913D01*
X141299715Y-78781913D01*
X141318771Y-78926663D01*
X141374644Y-79061551D01*
X141374645Y-79061553D01*
X141463525Y-79177384D01*
X141523474Y-79223384D01*
X141579357Y-79266265D01*
X141661351Y-79300228D01*
X141714246Y-79322138D01*
X141858997Y-79341195D01*
X141859000Y-79341195D01*
X141859003Y-79341195D01*
X141967565Y-79326902D01*
X142003754Y-79322138D01*
X142138643Y-79266265D01*
X142244511Y-79185028D01*
X142273342Y-79177303D01*
X142299192Y-79192227D01*
X142319461Y-79218642D01*
X142357231Y-79267865D01*
X142415096Y-79312266D01*
X142473063Y-79356746D01*
X142541504Y-79385095D01*
X142562610Y-79406201D01*
X142562610Y-79436051D01*
X142510030Y-79562989D01*
X142490975Y-79707736D01*
X142490975Y-79707743D01*
X142510031Y-79852493D01*
X142565904Y-79987381D01*
X142565905Y-79987383D01*
X142654785Y-80103214D01*
X142722746Y-80155362D01*
X142770617Y-80192095D01*
X142905506Y-80247968D01*
X143050257Y-80267025D01*
X143050260Y-80267025D01*
X143050263Y-80267025D01*
X143158825Y-80252732D01*
X143195014Y-80247968D01*
X143329903Y-80192095D01*
X143445734Y-80103214D01*
X143534615Y-79987383D01*
X143590488Y-79852494D01*
X143595526Y-79814228D01*
X143609545Y-79707743D01*
X143609545Y-79707736D01*
X143590489Y-79562989D01*
X143586617Y-79553641D01*
X143534615Y-79428098D01*
X143513934Y-79401145D01*
X143445734Y-79312265D01*
X143329903Y-79223385D01*
X143329901Y-79223384D01*
X143261462Y-79195035D01*
X143240356Y-79173928D01*
X143240356Y-79144079D01*
X143254474Y-79109996D01*
X143292934Y-79017145D01*
X143304846Y-78926663D01*
X143311991Y-78872394D01*
X143311991Y-78872387D01*
X143292935Y-78727640D01*
X143292934Y-78727637D01*
X143237061Y-78592749D01*
X143216380Y-78565797D01*
X143148180Y-78476916D01*
X143032349Y-78388036D01*
X143032347Y-78388035D01*
X142897459Y-78332162D01*
X142752709Y-78313106D01*
X142752703Y-78313106D01*
X142607955Y-78332161D01*
X142473065Y-78388035D01*
X142473063Y-78388036D01*
X142367195Y-78469272D01*
X142338362Y-78476997D01*
X142312513Y-78462073D01*
X142268530Y-78404754D01*
X142254474Y-78386435D01*
X142138643Y-78297555D01*
X142138641Y-78297554D01*
X142047986Y-78260003D01*
X146950715Y-78260003D01*
X146969771Y-78404753D01*
X147010164Y-78502269D01*
X147025645Y-78539643D01*
X147114526Y-78655474D01*
X147130988Y-78668106D01*
X147145911Y-78693954D01*
X147138186Y-78722786D01*
X147055648Y-78830353D01*
X147055644Y-78830359D01*
X146999770Y-78965249D01*
X146980715Y-79109996D01*
X146980715Y-79110003D01*
X146999771Y-79254753D01*
X147055644Y-79389641D01*
X147055645Y-79389643D01*
X147144525Y-79505474D01*
X147219476Y-79562986D01*
X147260357Y-79594355D01*
X147395246Y-79650227D01*
X147395246Y-79650228D01*
X147539997Y-79669285D01*
X147540000Y-79669285D01*
X147540003Y-79669285D01*
X147648565Y-79654992D01*
X147684754Y-79650228D01*
X147819643Y-79594355D01*
X147935474Y-79505474D01*
X148024355Y-79389643D01*
X148072255Y-79274003D01*
X156314715Y-79274003D01*
X156333771Y-79418753D01*
X156389644Y-79553641D01*
X156389645Y-79553643D01*
X156478525Y-79669474D01*
X156567406Y-79737674D01*
X156594357Y-79758355D01*
X156729246Y-79814227D01*
X156729246Y-79814228D01*
X156873997Y-79833285D01*
X156874000Y-79833285D01*
X156874003Y-79833285D01*
X156982565Y-79818992D01*
X157018754Y-79814228D01*
X157153643Y-79758355D01*
X157269474Y-79669474D01*
X157358355Y-79553643D01*
X157414228Y-79418754D01*
X157418992Y-79382565D01*
X157433285Y-79274003D01*
X157433285Y-79273996D01*
X157414229Y-79129249D01*
X157386188Y-79061553D01*
X157358355Y-78994358D01*
X157306411Y-78926663D01*
X157269474Y-78878525D01*
X157153643Y-78789645D01*
X157153641Y-78789644D01*
X157018753Y-78733771D01*
X156874003Y-78714715D01*
X156873997Y-78714715D01*
X156729249Y-78733770D01*
X156594359Y-78789644D01*
X156594357Y-78789645D01*
X156478525Y-78878525D01*
X156389645Y-78994357D01*
X156389644Y-78994359D01*
X156333770Y-79129249D01*
X156314715Y-79273996D01*
X156314715Y-79274003D01*
X148072255Y-79274003D01*
X148080228Y-79254754D01*
X148090414Y-79177384D01*
X148099285Y-79110003D01*
X148099285Y-79109996D01*
X148080229Y-78965249D01*
X148080228Y-78965246D01*
X148024355Y-78830358D01*
X147950241Y-78733771D01*
X147935475Y-78714527D01*
X147919011Y-78701893D01*
X147904087Y-78676042D01*
X147911812Y-78647213D01*
X147994355Y-78539643D01*
X148016573Y-78486003D01*
X155050715Y-78486003D01*
X155069771Y-78630753D01*
X155125644Y-78765641D01*
X155125645Y-78765643D01*
X155214525Y-78881474D01*
X155273417Y-78926663D01*
X155330357Y-78970355D01*
X155443318Y-79017145D01*
X155465246Y-79026228D01*
X155609997Y-79045285D01*
X155610000Y-79045285D01*
X155610003Y-79045285D01*
X155718565Y-79030992D01*
X155754754Y-79026228D01*
X155889643Y-78970355D01*
X156005474Y-78881474D01*
X156094355Y-78765643D01*
X156150228Y-78630754D01*
X156162223Y-78539641D01*
X156169285Y-78486003D01*
X156169285Y-78485996D01*
X156150229Y-78341249D01*
X156150228Y-78341246D01*
X156094355Y-78206358D01*
X156024445Y-78115249D01*
X156005474Y-78090525D01*
X155889643Y-78001645D01*
X155889641Y-78001644D01*
X155754753Y-77945771D01*
X155610003Y-77926715D01*
X155609997Y-77926715D01*
X155465249Y-77945770D01*
X155330359Y-78001644D01*
X155330357Y-78001645D01*
X155214525Y-78090525D01*
X155125645Y-78206357D01*
X155125644Y-78206359D01*
X155069770Y-78341249D01*
X155050715Y-78485996D01*
X155050715Y-78486003D01*
X148016573Y-78486003D01*
X148050228Y-78404754D01*
X148055524Y-78364525D01*
X148069285Y-78260003D01*
X148069285Y-78259996D01*
X148050229Y-78115249D01*
X148050228Y-78115246D01*
X147994355Y-77980358D01*
X147905474Y-77864526D01*
X147905473Y-77864525D01*
X147869242Y-77836723D01*
X147854318Y-77810873D01*
X147862044Y-77782041D01*
X147869243Y-77774842D01*
X147931114Y-77727367D01*
X148019995Y-77611536D01*
X148075868Y-77476647D01*
X148086064Y-77399201D01*
X148094925Y-77331896D01*
X148094925Y-77331889D01*
X148075869Y-77187142D01*
X148072912Y-77180003D01*
X149350715Y-77180003D01*
X149369771Y-77324753D01*
X149425644Y-77459641D01*
X149425645Y-77459643D01*
X149514525Y-77575474D01*
X149603405Y-77643674D01*
X149630357Y-77664355D01*
X149765246Y-77720227D01*
X149765246Y-77720228D01*
X149909997Y-77739285D01*
X149910000Y-77739285D01*
X149910003Y-77739285D01*
X150018565Y-77724992D01*
X150054754Y-77720228D01*
X150189643Y-77664355D01*
X150305474Y-77575474D01*
X150394355Y-77459643D01*
X150450228Y-77324754D01*
X150468345Y-77187142D01*
X150469285Y-77180003D01*
X150469285Y-77179996D01*
X150450229Y-77035249D01*
X150419888Y-76962000D01*
X150394355Y-76900358D01*
X150336036Y-76824355D01*
X150305474Y-76784525D01*
X150189643Y-76695645D01*
X150189641Y-76695644D01*
X150054753Y-76639771D01*
X149910003Y-76620715D01*
X149909997Y-76620715D01*
X149765249Y-76639770D01*
X149630359Y-76695644D01*
X149630357Y-76695645D01*
X149514525Y-76784525D01*
X149425645Y-76900357D01*
X149425644Y-76900359D01*
X149369770Y-77035249D01*
X149350715Y-77179996D01*
X149350715Y-77180003D01*
X148072912Y-77180003D01*
X148058146Y-77144355D01*
X148019995Y-77052251D01*
X147962449Y-76977256D01*
X147954725Y-76948426D01*
X147962451Y-76929774D01*
X148016261Y-76859648D01*
X148016260Y-76859648D01*
X148016265Y-76859643D01*
X148072138Y-76724754D01*
X148080663Y-76660000D01*
X148091195Y-76580003D01*
X148091195Y-76579996D01*
X148072139Y-76435249D01*
X148072138Y-76435246D01*
X148032687Y-76340003D01*
X151790715Y-76340003D01*
X151809771Y-76484753D01*
X151865644Y-76619641D01*
X151865645Y-76619643D01*
X151954525Y-76735474D01*
X152018450Y-76784525D01*
X152070357Y-76824355D01*
X152155545Y-76859641D01*
X152205246Y-76880228D01*
X152349997Y-76899285D01*
X152350000Y-76899285D01*
X152350003Y-76899285D01*
X152458565Y-76884992D01*
X152494754Y-76880228D01*
X152629643Y-76824355D01*
X152745474Y-76735474D01*
X152834355Y-76619643D01*
X152890228Y-76484754D01*
X152909285Y-76340000D01*
X152909285Y-76339996D01*
X152890229Y-76195249D01*
X152890228Y-76195246D01*
X152834355Y-76060358D01*
X152769130Y-75975355D01*
X152745474Y-75944525D01*
X152629643Y-75855645D01*
X152629641Y-75855644D01*
X152494753Y-75799771D01*
X152350003Y-75780715D01*
X152349997Y-75780715D01*
X152205249Y-75799770D01*
X152070359Y-75855644D01*
X152070357Y-75855645D01*
X151954525Y-75944525D01*
X151865645Y-76060357D01*
X151865644Y-76060359D01*
X151809770Y-76195249D01*
X151790715Y-76339996D01*
X151790715Y-76340003D01*
X148032687Y-76340003D01*
X148016265Y-76300358D01*
X147988769Y-76264525D01*
X147927384Y-76184525D01*
X147811553Y-76095645D01*
X147811551Y-76095644D01*
X147676663Y-76039771D01*
X147531913Y-76020715D01*
X147531907Y-76020715D01*
X147387159Y-76039770D01*
X147252269Y-76095644D01*
X147252267Y-76095645D01*
X147136435Y-76184525D01*
X147047555Y-76300357D01*
X147047554Y-76300359D01*
X146991680Y-76435249D01*
X146972625Y-76579996D01*
X146972625Y-76580003D01*
X146991681Y-76724753D01*
X147047554Y-76859641D01*
X147047555Y-76859643D01*
X147105098Y-76934635D01*
X147112823Y-76963468D01*
X147105098Y-76982118D01*
X147051288Y-77052246D01*
X147051284Y-77052252D01*
X146995410Y-77187142D01*
X146976355Y-77331889D01*
X146976355Y-77331896D01*
X146995411Y-77476646D01*
X147051284Y-77611534D01*
X147051285Y-77611536D01*
X147140165Y-77727367D01*
X147176397Y-77755168D01*
X147191321Y-77781018D01*
X147183596Y-77809851D01*
X147176397Y-77817050D01*
X147114525Y-77864525D01*
X147025645Y-77980357D01*
X147025644Y-77980359D01*
X146969770Y-78115249D01*
X146950715Y-78259996D01*
X146950715Y-78260003D01*
X142047986Y-78260003D01*
X142003753Y-78241681D01*
X141859003Y-78222625D01*
X141858997Y-78222625D01*
X141714249Y-78241680D01*
X141579359Y-78297554D01*
X141579357Y-78297555D01*
X141463525Y-78386435D01*
X141374645Y-78502267D01*
X141374644Y-78502269D01*
X141318770Y-78637159D01*
X141299715Y-78781906D01*
X141299715Y-78781913D01*
X129066400Y-78781913D01*
X129069285Y-78760003D01*
X129069285Y-78759996D01*
X129050229Y-78615249D01*
X129050228Y-78615246D01*
X128994355Y-78480358D01*
X128936342Y-78404754D01*
X128905474Y-78364525D01*
X128789643Y-78275645D01*
X128789641Y-78275644D01*
X128654753Y-78219771D01*
X128510003Y-78200715D01*
X128509997Y-78200715D01*
X128365249Y-78219770D01*
X128230359Y-78275644D01*
X128230357Y-78275645D01*
X128114525Y-78364525D01*
X128025645Y-78480357D01*
X128025644Y-78480359D01*
X127969770Y-78615249D01*
X127950715Y-78759996D01*
X127950715Y-78760003D01*
X120025900Y-78760003D01*
X120025900Y-77216003D01*
X123265715Y-77216003D01*
X123284771Y-77360753D01*
X123340644Y-77495641D01*
X123340645Y-77495643D01*
X123429525Y-77611474D01*
X123498440Y-77664354D01*
X123545357Y-77700355D01*
X123593335Y-77720228D01*
X123680246Y-77756228D01*
X123824997Y-77775285D01*
X123825000Y-77775285D01*
X123825003Y-77775285D01*
X123933565Y-77760992D01*
X123969754Y-77756228D01*
X124104643Y-77700355D01*
X124220474Y-77611474D01*
X124309355Y-77495643D01*
X124365228Y-77360754D01*
X124384285Y-77216000D01*
X124384285Y-77215996D01*
X124365229Y-77071249D01*
X124357360Y-77052251D01*
X124319976Y-76962000D01*
X130531693Y-76962000D01*
X130550851Y-77119782D01*
X130607213Y-77268395D01*
X130697502Y-77399201D01*
X130816471Y-77504599D01*
X130957207Y-77578463D01*
X131111529Y-77616500D01*
X131111531Y-77616500D01*
X131270469Y-77616500D01*
X131270471Y-77616500D01*
X131424793Y-77578463D01*
X131565529Y-77504599D01*
X131684498Y-77399201D01*
X131774787Y-77268395D01*
X131831149Y-77119782D01*
X131850307Y-76962000D01*
X131831149Y-76804218D01*
X131776455Y-76660003D01*
X142800715Y-76660003D01*
X142819771Y-76804753D01*
X142875644Y-76939641D01*
X142875645Y-76939643D01*
X142964525Y-77055474D01*
X143048332Y-77119781D01*
X143080357Y-77144355D01*
X143183654Y-77187142D01*
X143215246Y-77200228D01*
X143359997Y-77219285D01*
X143360000Y-77219285D01*
X143360003Y-77219285D01*
X143468565Y-77204992D01*
X143504754Y-77200228D01*
X143639643Y-77144355D01*
X143755474Y-77055474D01*
X143844355Y-76939643D01*
X143900228Y-76804754D01*
X143910760Y-76724753D01*
X143919285Y-76660003D01*
X143919285Y-76659996D01*
X143900229Y-76515249D01*
X143900228Y-76515246D01*
X143844355Y-76380358D01*
X143782969Y-76300358D01*
X143755474Y-76264525D01*
X143639643Y-76175645D01*
X143639641Y-76175644D01*
X143504753Y-76119771D01*
X143360003Y-76100715D01*
X143359997Y-76100715D01*
X143215249Y-76119770D01*
X143080359Y-76175644D01*
X143080357Y-76175645D01*
X142964525Y-76264525D01*
X142875645Y-76380357D01*
X142875644Y-76380359D01*
X142819770Y-76515249D01*
X142800715Y-76659996D01*
X142800715Y-76660003D01*
X131776455Y-76660003D01*
X131774787Y-76655605D01*
X131684498Y-76524799D01*
X131673718Y-76515249D01*
X131565529Y-76419401D01*
X131565528Y-76419400D01*
X131424793Y-76345537D01*
X131270471Y-76307500D01*
X131111529Y-76307500D01*
X130957207Y-76345536D01*
X130957207Y-76345537D01*
X130816470Y-76419401D01*
X130697503Y-76524797D01*
X130697501Y-76524799D01*
X130697502Y-76524799D01*
X130607213Y-76655605D01*
X130558320Y-76784525D01*
X130550851Y-76804218D01*
X130534408Y-76939643D01*
X130531693Y-76962000D01*
X124319976Y-76962000D01*
X124309355Y-76936358D01*
X124281731Y-76900358D01*
X124220474Y-76820525D01*
X124104643Y-76731645D01*
X124104641Y-76731644D01*
X123969753Y-76675771D01*
X123825003Y-76656715D01*
X123824997Y-76656715D01*
X123680249Y-76675770D01*
X123545359Y-76731644D01*
X123545357Y-76731645D01*
X123429525Y-76820525D01*
X123340645Y-76936357D01*
X123340644Y-76936359D01*
X123284770Y-77071249D01*
X123265715Y-77215996D01*
X123265715Y-77216003D01*
X120025900Y-77216003D01*
X120025900Y-73000518D01*
X120025914Y-73000000D01*
X120240465Y-73000000D01*
X120260584Y-73332626D01*
X120260585Y-73332630D01*
X120320651Y-73660400D01*
X120419787Y-73978538D01*
X120419789Y-73978545D01*
X120532799Y-74229641D01*
X120556553Y-74282420D01*
X120728947Y-74567595D01*
X120934458Y-74829910D01*
X121170090Y-75065542D01*
X121432405Y-75271053D01*
X121717580Y-75443447D01*
X121823245Y-75491003D01*
X122021454Y-75580210D01*
X122021461Y-75580212D01*
X122339599Y-75679348D01*
X122667369Y-75739414D01*
X122667373Y-75739415D01*
X122703270Y-75741586D01*
X123000000Y-75759535D01*
X123313653Y-75740562D01*
X123332626Y-75739415D01*
X123332630Y-75739414D01*
X123519276Y-75705210D01*
X123660400Y-75679348D01*
X123978545Y-75580210D01*
X124176755Y-75491003D01*
X132155715Y-75491003D01*
X132174771Y-75635753D01*
X132230644Y-75770641D01*
X132230645Y-75770643D01*
X132319525Y-75886474D01*
X132395179Y-75944525D01*
X132435357Y-75975355D01*
X132570245Y-76031228D01*
X132570246Y-76031228D01*
X132714997Y-76050285D01*
X132715000Y-76050285D01*
X132715003Y-76050285D01*
X132823565Y-76035992D01*
X132859754Y-76031228D01*
X132994643Y-75975355D01*
X133110474Y-75886474D01*
X133199355Y-75770643D01*
X133255228Y-75635754D01*
X133274285Y-75491000D01*
X133274285Y-75490996D01*
X133255229Y-75346249D01*
X133255228Y-75346246D01*
X133199355Y-75211358D01*
X133155615Y-75154355D01*
X133110474Y-75095525D01*
X132994643Y-75006645D01*
X132994641Y-75006644D01*
X132859753Y-74950771D01*
X132715003Y-74931715D01*
X132714997Y-74931715D01*
X132570249Y-74950770D01*
X132435359Y-75006644D01*
X132435357Y-75006645D01*
X132319525Y-75095525D01*
X132230645Y-75211357D01*
X132230644Y-75211359D01*
X132174770Y-75346249D01*
X132155715Y-75490996D01*
X132155715Y-75491003D01*
X124176755Y-75491003D01*
X124282420Y-75443447D01*
X124567595Y-75271053D01*
X124829910Y-75065542D01*
X125065542Y-74829910D01*
X125271053Y-74567595D01*
X125359066Y-74422003D01*
X134690715Y-74422003D01*
X134709771Y-74566753D01*
X134765644Y-74701641D01*
X134765645Y-74701643D01*
X134854525Y-74817474D01*
X134921485Y-74868854D01*
X134970357Y-74906355D01*
X135077589Y-74950772D01*
X135105246Y-74962228D01*
X135249997Y-74981285D01*
X135250000Y-74981285D01*
X135250003Y-74981285D01*
X135358565Y-74966992D01*
X135394754Y-74962228D01*
X135529643Y-74906355D01*
X135645474Y-74817474D01*
X135734355Y-74701643D01*
X135790228Y-74566754D01*
X135800303Y-74490228D01*
X135809285Y-74422003D01*
X135809285Y-74421996D01*
X135801991Y-74366593D01*
X137019215Y-74366593D01*
X137038271Y-74511343D01*
X137094144Y-74646231D01*
X137094145Y-74646233D01*
X137183025Y-74762064D01*
X137251691Y-74814753D01*
X137298857Y-74850945D01*
X137432626Y-74906354D01*
X137433746Y-74906818D01*
X137578497Y-74925875D01*
X137578500Y-74925875D01*
X137578503Y-74925875D01*
X137687065Y-74911582D01*
X137723254Y-74906818D01*
X137858143Y-74850945D01*
X137973974Y-74762064D01*
X138062855Y-74646233D01*
X138118728Y-74511344D01*
X138135427Y-74384503D01*
X138214215Y-74384503D01*
X138233271Y-74529253D01*
X138289144Y-74664141D01*
X138289145Y-74664143D01*
X138378025Y-74779974D01*
X138443098Y-74829906D01*
X138493857Y-74868855D01*
X138584390Y-74906355D01*
X138628746Y-74924728D01*
X138773497Y-74943785D01*
X138773500Y-74943785D01*
X138773503Y-74943785D01*
X138882065Y-74929492D01*
X138918254Y-74924728D01*
X139053143Y-74868855D01*
X139168974Y-74779974D01*
X139253358Y-74670003D01*
X153000715Y-74670003D01*
X153019771Y-74814753D01*
X153075644Y-74949641D01*
X153075645Y-74949643D01*
X153164525Y-75065474D01*
X153203690Y-75095526D01*
X153280357Y-75154355D01*
X153367713Y-75190539D01*
X153415246Y-75210228D01*
X153559997Y-75229285D01*
X153560000Y-75229285D01*
X153560003Y-75229285D01*
X153668565Y-75214992D01*
X153704754Y-75210228D01*
X153839643Y-75154355D01*
X153955474Y-75065474D01*
X154044355Y-74949643D01*
X154100228Y-74814754D01*
X154115119Y-74701643D01*
X154119285Y-74670003D01*
X154119285Y-74669996D01*
X154100229Y-74525249D01*
X154100228Y-74525246D01*
X154044355Y-74390358D01*
X154009914Y-74345474D01*
X153955474Y-74274525D01*
X153839643Y-74185645D01*
X153839641Y-74185644D01*
X153704753Y-74129771D01*
X153560003Y-74110715D01*
X153559997Y-74110715D01*
X153415249Y-74129770D01*
X153280359Y-74185644D01*
X153280357Y-74185645D01*
X153164525Y-74274525D01*
X153075645Y-74390357D01*
X153075644Y-74390359D01*
X153019770Y-74525249D01*
X153000715Y-74669996D01*
X153000715Y-74670003D01*
X139253358Y-74670003D01*
X139257855Y-74664143D01*
X139313728Y-74529254D01*
X139332785Y-74384500D01*
X139332785Y-74384496D01*
X139313729Y-74239749D01*
X139309542Y-74229641D01*
X139257855Y-74104858D01*
X139237174Y-74077906D01*
X139168974Y-73989025D01*
X139118119Y-73950003D01*
X150050715Y-73950003D01*
X150069771Y-74094753D01*
X150125644Y-74229641D01*
X150125645Y-74229643D01*
X150214525Y-74345474D01*
X150295252Y-74407418D01*
X150330357Y-74434355D01*
X150465246Y-74490227D01*
X150465246Y-74490228D01*
X150609997Y-74509285D01*
X150610000Y-74509285D01*
X150610003Y-74509285D01*
X150718565Y-74494992D01*
X150754754Y-74490228D01*
X150889643Y-74434355D01*
X151005474Y-74345474D01*
X151094355Y-74229643D01*
X151150228Y-74094754D01*
X151159210Y-74026526D01*
X151169285Y-73950003D01*
X151169285Y-73949996D01*
X151150229Y-73805249D01*
X151132876Y-73763355D01*
X151094355Y-73670358D01*
X151073674Y-73643406D01*
X151005474Y-73554525D01*
X150889643Y-73465645D01*
X150889641Y-73465644D01*
X150754753Y-73409771D01*
X150610003Y-73390715D01*
X150609997Y-73390715D01*
X150465249Y-73409770D01*
X150330359Y-73465644D01*
X150330357Y-73465645D01*
X150214525Y-73554525D01*
X150125645Y-73670357D01*
X150125644Y-73670359D01*
X150069770Y-73805249D01*
X150050715Y-73949996D01*
X150050715Y-73950003D01*
X139118119Y-73950003D01*
X139053143Y-73900145D01*
X139053141Y-73900144D01*
X138918253Y-73844271D01*
X138773503Y-73825215D01*
X138773497Y-73825215D01*
X138628749Y-73844270D01*
X138493859Y-73900144D01*
X138493857Y-73900145D01*
X138378025Y-73989025D01*
X138289145Y-74104857D01*
X138289144Y-74104859D01*
X138233270Y-74239749D01*
X138214215Y-74384496D01*
X138214215Y-74384503D01*
X138135427Y-74384503D01*
X138137785Y-74366590D01*
X138137785Y-74366586D01*
X138118729Y-74221839D01*
X138117671Y-74219285D01*
X138062855Y-74086948D01*
X137987717Y-73989026D01*
X137973974Y-73971115D01*
X137858143Y-73882235D01*
X137858141Y-73882234D01*
X137723253Y-73826361D01*
X137578503Y-73807305D01*
X137578497Y-73807305D01*
X137433749Y-73826360D01*
X137298859Y-73882234D01*
X137298857Y-73882235D01*
X137183025Y-73971115D01*
X137094145Y-74086947D01*
X137094144Y-74086949D01*
X137038270Y-74221839D01*
X137019215Y-74366586D01*
X137019215Y-74366593D01*
X135801991Y-74366593D01*
X135790229Y-74277249D01*
X135767276Y-74221836D01*
X135734355Y-74142358D01*
X135713674Y-74115405D01*
X135645474Y-74026525D01*
X135529643Y-73937645D01*
X135529641Y-73937644D01*
X135394753Y-73881771D01*
X135250003Y-73862715D01*
X135249997Y-73862715D01*
X135105249Y-73881770D01*
X134970359Y-73937644D01*
X134970357Y-73937645D01*
X134854525Y-74026525D01*
X134765645Y-74142357D01*
X134765644Y-74142359D01*
X134709770Y-74277249D01*
X134690715Y-74421996D01*
X134690715Y-74422003D01*
X125359066Y-74422003D01*
X125443447Y-74282420D01*
X125580210Y-73978545D01*
X125679348Y-73660400D01*
X125739415Y-73332625D01*
X125742659Y-73279003D01*
X129840715Y-73279003D01*
X129859771Y-73423753D01*
X129915644Y-73558641D01*
X129915645Y-73558643D01*
X130004525Y-73674474D01*
X130093406Y-73742674D01*
X130120357Y-73763355D01*
X130255245Y-73819227D01*
X130255246Y-73819228D01*
X130399997Y-73838285D01*
X130400000Y-73838285D01*
X130400003Y-73838285D01*
X130508565Y-73823992D01*
X130544754Y-73819228D01*
X130679643Y-73763355D01*
X130795474Y-73674474D01*
X130806578Y-73660003D01*
X132155715Y-73660003D01*
X132174771Y-73804753D01*
X132230644Y-73939641D01*
X132230645Y-73939643D01*
X132319525Y-74055474D01*
X132383884Y-74104858D01*
X132435357Y-74144355D01*
X132535037Y-74185644D01*
X132570246Y-74200228D01*
X132714997Y-74219285D01*
X132715000Y-74219285D01*
X132715003Y-74219285D01*
X132823565Y-74204992D01*
X132859754Y-74200228D01*
X132994643Y-74144355D01*
X133110474Y-74055474D01*
X133199355Y-73939643D01*
X133255228Y-73804754D01*
X133260678Y-73763354D01*
X133274285Y-73660003D01*
X133274285Y-73659996D01*
X133255229Y-73515249D01*
X133231362Y-73457630D01*
X133199355Y-73380358D01*
X133121583Y-73279003D01*
X133110474Y-73264525D01*
X132994643Y-73175645D01*
X132994641Y-73175644D01*
X132872374Y-73124999D01*
X154240465Y-73124999D01*
X154260584Y-73457626D01*
X154260585Y-73457630D01*
X154320651Y-73785400D01*
X154419787Y-74103538D01*
X154419789Y-74103545D01*
X154548874Y-74390358D01*
X154556553Y-74407420D01*
X154728947Y-74692595D01*
X154934458Y-74954910D01*
X155170090Y-75190542D01*
X155432405Y-75396053D01*
X155717580Y-75568447D01*
X155867128Y-75635753D01*
X156021454Y-75705210D01*
X156021461Y-75705212D01*
X156339599Y-75804348D01*
X156667369Y-75864414D01*
X156667373Y-75864415D01*
X156703270Y-75866586D01*
X157000000Y-75884535D01*
X157313653Y-75865562D01*
X157332626Y-75864415D01*
X157332630Y-75864414D01*
X157380487Y-75855644D01*
X157660400Y-75804348D01*
X157978545Y-75705210D01*
X158282420Y-75568447D01*
X158567595Y-75396053D01*
X158829910Y-75190542D01*
X159065542Y-74954910D01*
X159271053Y-74692595D01*
X159443447Y-74407420D01*
X159580210Y-74103545D01*
X159679348Y-73785400D01*
X159739415Y-73457625D01*
X159759535Y-73125000D01*
X159739415Y-72792375D01*
X159684618Y-72493355D01*
X159679348Y-72464599D01*
X159580212Y-72146461D01*
X159580210Y-72146454D01*
X159443447Y-71842581D01*
X159443447Y-71842580D01*
X159271053Y-71557405D01*
X159065542Y-71295090D01*
X158829910Y-71059458D01*
X158567595Y-70853947D01*
X158282420Y-70681553D01*
X158282418Y-70681552D01*
X157978545Y-70544789D01*
X157978538Y-70544787D01*
X157660400Y-70445651D01*
X157332630Y-70385585D01*
X157332626Y-70385584D01*
X157017947Y-70366550D01*
X157000000Y-70365465D01*
X156999999Y-70365465D01*
X156667373Y-70385584D01*
X156667369Y-70385585D01*
X156339599Y-70445651D01*
X156021461Y-70544787D01*
X156021454Y-70544789D01*
X155717581Y-70681552D01*
X155432405Y-70853947D01*
X155170093Y-71059455D01*
X155170087Y-71059460D01*
X154934460Y-71295087D01*
X154934455Y-71295093D01*
X154728947Y-71557405D01*
X154556552Y-71842581D01*
X154419789Y-72146454D01*
X154419787Y-72146461D01*
X154320651Y-72464599D01*
X154260585Y-72792369D01*
X154260584Y-72792373D01*
X154240465Y-73124999D01*
X132872374Y-73124999D01*
X132859753Y-73119771D01*
X132715003Y-73100715D01*
X132714997Y-73100715D01*
X132570249Y-73119770D01*
X132435359Y-73175644D01*
X132435357Y-73175645D01*
X132319525Y-73264525D01*
X132230645Y-73380357D01*
X132230644Y-73380359D01*
X132174770Y-73515249D01*
X132155715Y-73659996D01*
X132155715Y-73660003D01*
X130806578Y-73660003D01*
X130884355Y-73558643D01*
X130940228Y-73423754D01*
X130959285Y-73279000D01*
X130959285Y-73278996D01*
X130940229Y-73134249D01*
X130936398Y-73125000D01*
X130884355Y-72999358D01*
X130863674Y-72972406D01*
X130795474Y-72883525D01*
X130679643Y-72794645D01*
X130679641Y-72794644D01*
X130544753Y-72738771D01*
X130400003Y-72719715D01*
X130399997Y-72719715D01*
X130255249Y-72738770D01*
X130120359Y-72794644D01*
X130120357Y-72794645D01*
X130004525Y-72883525D01*
X129915645Y-72999357D01*
X129915644Y-72999359D01*
X129859770Y-73134249D01*
X129840715Y-73278996D01*
X129840715Y-73279003D01*
X125742659Y-73279003D01*
X125759535Y-73000000D01*
X125739415Y-72667375D01*
X125707525Y-72493355D01*
X125679348Y-72339599D01*
X125580212Y-72021461D01*
X125580210Y-72021454D01*
X125574606Y-72009003D01*
X140791715Y-72009003D01*
X140810771Y-72153753D01*
X140866644Y-72288641D01*
X140866645Y-72288643D01*
X140955525Y-72404474D01*
X141033882Y-72464599D01*
X141071357Y-72493355D01*
X141150157Y-72525995D01*
X141206246Y-72549228D01*
X141350997Y-72568285D01*
X141351000Y-72568285D01*
X141351003Y-72568285D01*
X141459565Y-72553992D01*
X141495754Y-72549228D01*
X141630643Y-72493355D01*
X141746474Y-72404474D01*
X141835355Y-72288643D01*
X141891228Y-72153754D01*
X141900938Y-72080000D01*
X141910285Y-72009003D01*
X143204715Y-72009003D01*
X143223771Y-72153753D01*
X143279644Y-72288641D01*
X143279645Y-72288643D01*
X143368525Y-72404474D01*
X143446882Y-72464599D01*
X143484357Y-72493355D01*
X143563157Y-72525995D01*
X143619246Y-72549228D01*
X143763997Y-72568285D01*
X143764000Y-72568285D01*
X143764003Y-72568285D01*
X143872565Y-72553992D01*
X143908754Y-72549228D01*
X144043643Y-72493355D01*
X144159474Y-72404474D01*
X144248355Y-72288643D01*
X144304228Y-72153754D01*
X144313938Y-72080000D01*
X144323285Y-72009003D01*
X145617715Y-72009003D01*
X145636771Y-72153753D01*
X145692644Y-72288641D01*
X145692645Y-72288643D01*
X145781525Y-72404474D01*
X145859882Y-72464599D01*
X145897357Y-72493355D01*
X145976157Y-72525995D01*
X146032246Y-72549228D01*
X146176997Y-72568285D01*
X146177000Y-72568285D01*
X146177003Y-72568285D01*
X146285565Y-72553992D01*
X146321754Y-72549228D01*
X146456643Y-72493355D01*
X146572474Y-72404474D01*
X146661355Y-72288643D01*
X146717228Y-72153754D01*
X146726938Y-72080000D01*
X146736285Y-72009003D01*
X148030715Y-72009003D01*
X148049771Y-72153753D01*
X148105644Y-72288641D01*
X148105645Y-72288643D01*
X148194525Y-72404474D01*
X148272882Y-72464599D01*
X148310357Y-72493355D01*
X148389157Y-72525995D01*
X148445246Y-72549228D01*
X148589997Y-72568285D01*
X148590000Y-72568285D01*
X148590003Y-72568285D01*
X148698565Y-72553992D01*
X148734754Y-72549228D01*
X148869643Y-72493355D01*
X148985474Y-72404474D01*
X149074355Y-72288643D01*
X149130228Y-72153754D01*
X149139938Y-72080000D01*
X149149285Y-72009003D01*
X150443715Y-72009003D01*
X150462771Y-72153753D01*
X150518644Y-72288641D01*
X150518645Y-72288643D01*
X150607525Y-72404474D01*
X150685882Y-72464599D01*
X150723357Y-72493355D01*
X150802157Y-72525995D01*
X150858246Y-72549228D01*
X151002997Y-72568285D01*
X151003000Y-72568285D01*
X151003003Y-72568285D01*
X151111565Y-72553992D01*
X151147754Y-72549228D01*
X151282643Y-72493355D01*
X151398474Y-72404474D01*
X151487355Y-72288643D01*
X151543228Y-72153754D01*
X151552938Y-72080000D01*
X151562285Y-72009003D01*
X151562285Y-72008996D01*
X151543229Y-71864249D01*
X151534254Y-71842581D01*
X151487355Y-71729358D01*
X151466674Y-71702406D01*
X151398474Y-71613525D01*
X151282643Y-71524645D01*
X151282641Y-71524644D01*
X151147753Y-71468771D01*
X151003003Y-71449715D01*
X151002997Y-71449715D01*
X150858249Y-71468770D01*
X150723359Y-71524644D01*
X150723357Y-71524645D01*
X150607525Y-71613525D01*
X150518645Y-71729357D01*
X150518644Y-71729359D01*
X150462770Y-71864249D01*
X150443715Y-72008996D01*
X150443715Y-72009003D01*
X149149285Y-72009003D01*
X149149285Y-72008996D01*
X149130229Y-71864249D01*
X149121254Y-71842581D01*
X149074355Y-71729358D01*
X149053674Y-71702406D01*
X148985474Y-71613525D01*
X148869643Y-71524645D01*
X148869641Y-71524644D01*
X148734753Y-71468771D01*
X148590003Y-71449715D01*
X148589997Y-71449715D01*
X148445249Y-71468770D01*
X148310359Y-71524644D01*
X148310357Y-71524645D01*
X148194525Y-71613525D01*
X148105645Y-71729357D01*
X148105644Y-71729359D01*
X148049770Y-71864249D01*
X148030715Y-72008996D01*
X148030715Y-72009003D01*
X146736285Y-72009003D01*
X146736285Y-72008996D01*
X146717229Y-71864249D01*
X146708254Y-71842581D01*
X146661355Y-71729358D01*
X146640674Y-71702406D01*
X146572474Y-71613525D01*
X146456643Y-71524645D01*
X146456641Y-71524644D01*
X146321753Y-71468771D01*
X146177003Y-71449715D01*
X146176997Y-71449715D01*
X146032249Y-71468770D01*
X145897359Y-71524644D01*
X145897357Y-71524645D01*
X145781525Y-71613525D01*
X145692645Y-71729357D01*
X145692644Y-71729359D01*
X145636770Y-71864249D01*
X145617715Y-72008996D01*
X145617715Y-72009003D01*
X144323285Y-72009003D01*
X144323285Y-72008996D01*
X144304229Y-71864249D01*
X144295254Y-71842581D01*
X144248355Y-71729358D01*
X144227674Y-71702406D01*
X144159474Y-71613525D01*
X144043643Y-71524645D01*
X144043641Y-71524644D01*
X143908753Y-71468771D01*
X143764003Y-71449715D01*
X143763997Y-71449715D01*
X143619249Y-71468770D01*
X143484359Y-71524644D01*
X143484357Y-71524645D01*
X143368525Y-71613525D01*
X143279645Y-71729357D01*
X143279644Y-71729359D01*
X143223770Y-71864249D01*
X143204715Y-72008996D01*
X143204715Y-72009003D01*
X141910285Y-72009003D01*
X141910285Y-72008996D01*
X141891229Y-71864249D01*
X141882254Y-71842581D01*
X141835355Y-71729358D01*
X141814674Y-71702406D01*
X141746474Y-71613525D01*
X141630643Y-71524645D01*
X141630641Y-71524644D01*
X141495753Y-71468771D01*
X141351003Y-71449715D01*
X141350997Y-71449715D01*
X141206249Y-71468770D01*
X141071359Y-71524644D01*
X141071357Y-71524645D01*
X140955525Y-71613525D01*
X140866645Y-71729357D01*
X140866644Y-71729359D01*
X140810770Y-71864249D01*
X140791715Y-72008996D01*
X140791715Y-72009003D01*
X125574606Y-72009003D01*
X125476187Y-71790325D01*
X125443447Y-71717580D01*
X125271053Y-71432405D01*
X125065542Y-71170090D01*
X124829910Y-70934458D01*
X124567595Y-70728947D01*
X124282420Y-70556553D01*
X124256284Y-70544790D01*
X123978545Y-70419789D01*
X123978538Y-70419787D01*
X123660400Y-70320651D01*
X123332630Y-70260585D01*
X123332626Y-70260584D01*
X123017947Y-70241550D01*
X123000000Y-70240465D01*
X122999999Y-70240465D01*
X122667373Y-70260584D01*
X122667369Y-70260585D01*
X122339599Y-70320651D01*
X122021461Y-70419787D01*
X122021454Y-70419789D01*
X121717581Y-70556552D01*
X121432405Y-70728947D01*
X121170093Y-70934455D01*
X121170087Y-70934460D01*
X120934460Y-71170087D01*
X120934455Y-71170093D01*
X120728947Y-71432405D01*
X120556552Y-71717581D01*
X120419789Y-72021454D01*
X120419787Y-72021461D01*
X120320651Y-72339599D01*
X120260585Y-72667369D01*
X120260584Y-72667373D01*
X120240465Y-73000000D01*
X120025914Y-73000000D01*
X120025927Y-72999498D01*
X120042139Y-72690140D01*
X120042352Y-72688109D01*
X120045636Y-72667375D01*
X120090732Y-72382647D01*
X120091153Y-72380668D01*
X120171201Y-72081930D01*
X120171823Y-72080013D01*
X120282662Y-71791267D01*
X120283484Y-71789422D01*
X120423900Y-71513840D01*
X120424911Y-71512092D01*
X120593352Y-71252715D01*
X120594539Y-71251082D01*
X120789178Y-71010722D01*
X120790527Y-71009224D01*
X121009224Y-70790527D01*
X121010722Y-70789178D01*
X121251082Y-70594539D01*
X121252715Y-70593352D01*
X121512094Y-70424909D01*
X121513840Y-70423900D01*
X121789422Y-70283484D01*
X121791267Y-70282662D01*
X122080013Y-70171823D01*
X122081930Y-70171201D01*
X122380668Y-70091153D01*
X122382647Y-70090732D01*
X122688117Y-70042351D01*
X122690140Y-70042139D01*
X122999499Y-70025927D01*
X123000519Y-70025900D01*
X123008415Y-70025900D01*
X156991585Y-70025900D01*
X156999481Y-70025900D01*
X157000501Y-70025927D01*
G37*
%TD.AperFunction*%
%TD*%
M02*
