%TF.GenerationSoftware,KiCad,Pcbnew,7.0.6*%
%TF.CreationDate,2023-10-03T21:22:34+08:00*%
%TF.ProjectId,CawDrive,43617744-7269-4766-952e-6b696361645f,rev?*%
%TF.SameCoordinates,Original*%
%TF.FileFunction,Copper,L2,Inr*%
%TF.FilePolarity,Positive*%
%FSLAX46Y46*%
G04 Gerber Fmt 4.6, Leading zero omitted, Abs format (unit mm)*
G04 Created by KiCad (PCBNEW 7.0.6) date 2023-10-03 21:22:34*
%MOMM*%
%LPD*%
G01*
G04 APERTURE LIST*
G04 Aperture macros list*
%AMRoundRect*
0 Rectangle with rounded corners*
0 $1 Rounding radius*
0 $2 $3 $4 $5 $6 $7 $8 $9 X,Y pos of 4 corners*
0 Add a 4 corners polygon primitive as box body*
4,1,4,$2,$3,$4,$5,$6,$7,$8,$9,$2,$3,0*
0 Add four circle primitives for the rounded corners*
1,1,$1+$1,$2,$3*
1,1,$1+$1,$4,$5*
1,1,$1+$1,$6,$7*
1,1,$1+$1,$8,$9*
0 Add four rect primitives between the rounded corners*
20,1,$1+$1,$2,$3,$4,$5,0*
20,1,$1+$1,$4,$5,$6,$7,0*
20,1,$1+$1,$6,$7,$8,$9,0*
20,1,$1+$1,$8,$9,$2,$3,0*%
G04 Aperture macros list end*
%TA.AperFunction,ComponentPad*%
%ADD10RoundRect,0.750000X-0.750000X-0.750000X0.750000X-0.750000X0.750000X0.750000X-0.750000X0.750000X0*%
%TD*%
%TA.AperFunction,ComponentPad*%
%ADD11C,0.800000*%
%TD*%
%TA.AperFunction,ComponentPad*%
%ADD12C,5.000000*%
%TD*%
%TA.AperFunction,ViaPad*%
%ADD13C,0.600000*%
%TD*%
%TA.AperFunction,ViaPad*%
%ADD14C,0.800000*%
%TD*%
G04 APERTURE END LIST*
D10*
%TO.N,GND1*%
%TO.C,H8*%
X158000000Y-96000000D03*
%TD*%
D11*
%TO.N,unconnected-(H2-Pad1)*%
%TO.C,H2*%
X155125000Y-73125000D03*
X155674175Y-71799175D03*
X155674175Y-74450825D03*
X157000000Y-71250000D03*
D12*
X157000000Y-73125000D03*
D11*
X157000000Y-75000000D03*
X158325825Y-71799175D03*
X158325825Y-74450825D03*
X158875000Y-73125000D03*
%TD*%
D10*
%TO.N,/DRV8323RSRGZR/PHASB*%
%TO.C,H6*%
X140000000Y-108000000D03*
%TD*%
D11*
%TO.N,unconnected-(H4-Pad1)*%
%TO.C,H4*%
X121000000Y-107000000D03*
X121549175Y-105674175D03*
X121549175Y-108325825D03*
X122875000Y-105125000D03*
D12*
X122875000Y-107000000D03*
D11*
X122875000Y-108875000D03*
X124200825Y-105674175D03*
X124200825Y-108325825D03*
X124750000Y-107000000D03*
%TD*%
D10*
%TO.N,/DRV8323RSRGZR/PHASC*%
%TO.C,H7*%
X149000000Y-108000000D03*
%TD*%
%TO.N,+36V*%
%TO.C,H9*%
X158000000Y-102000000D03*
%TD*%
D11*
%TO.N,unconnected-(H1-Pad1)*%
%TO.C,H1*%
X121125000Y-73000000D03*
X121674175Y-71674175D03*
X121674175Y-74325825D03*
X123000000Y-71125000D03*
D12*
X123000000Y-73000000D03*
D11*
X123000000Y-74875000D03*
X124325825Y-71674175D03*
X124325825Y-74325825D03*
X124875000Y-73000000D03*
%TD*%
%TO.N,unconnected-(H3-Pad1)*%
%TO.C,H3*%
X155125000Y-107000000D03*
X155674175Y-105674175D03*
X155674175Y-108325825D03*
X157000000Y-105125000D03*
D12*
X157000000Y-107000000D03*
D11*
X157000000Y-108875000D03*
X158325825Y-105674175D03*
X158325825Y-108325825D03*
X158875000Y-107000000D03*
%TD*%
D10*
%TO.N,/DRV8323RSRGZR/PHASA*%
%TO.C,H5*%
X131000000Y-108000000D03*
%TD*%
D13*
%TO.N,GND1*%
X125984000Y-93726000D03*
X148971000Y-94742000D03*
X148971000Y-93980000D03*
X146685000Y-94742000D03*
X146685000Y-93980000D03*
X143510000Y-94742000D03*
X143510000Y-93980000D03*
X141224000Y-94742000D03*
X141224000Y-93980000D03*
%TO.N,/DRV8323RSRGZR/PHASA*%
X125095000Y-103759000D03*
X123825000Y-103759000D03*
X122555000Y-103759000D03*
%TO.N,GND1*%
X138303000Y-94742000D03*
%TO.N,/DRV8323RSRGZR/SPA*%
X132588000Y-98044000D03*
X131826000Y-98044000D03*
X131826000Y-97155000D03*
X130302000Y-97155000D03*
%TO.N,GND1*%
X132461000Y-94742000D03*
X131699000Y-94742000D03*
X130810000Y-94742000D03*
X130048000Y-94742000D03*
%TO.N,+36V*%
X146685000Y-103251000D03*
X145415000Y-103251000D03*
X149225000Y-103251000D03*
X147955000Y-103251000D03*
X146685000Y-102235000D03*
X145415000Y-102235000D03*
X149225000Y-102235000D03*
X147955000Y-102235000D03*
X146685000Y-101219000D03*
X145415000Y-101219000D03*
X149225000Y-101219000D03*
X147955000Y-101219000D03*
X141097000Y-103251000D03*
X143637000Y-103251000D03*
X142367000Y-103251000D03*
X139827000Y-103251000D03*
X141097000Y-102235000D03*
X143637000Y-102235000D03*
X142367000Y-102235000D03*
X139827000Y-102235000D03*
X141097000Y-101219000D03*
X143637000Y-101219000D03*
X142367000Y-101219000D03*
X139827000Y-101219000D03*
%TO.N,/DRV8323RSRGZR/PHASB*%
X136779000Y-102362000D03*
X138049000Y-102362000D03*
X135509000Y-102362000D03*
X134239000Y-102362000D03*
X136779000Y-103378000D03*
X138049000Y-103378000D03*
X135509000Y-103378000D03*
X134239000Y-103378000D03*
%TO.N,/DRV8323RSRGZR/SPA*%
X129540000Y-97155000D03*
%TO.N,/DRV8323RSRGZR/PHASA*%
X131064000Y-102362000D03*
X128524000Y-102362000D03*
X132334000Y-102362000D03*
X129794000Y-102362000D03*
X131064000Y-103378000D03*
X128524000Y-103378000D03*
X132334000Y-103378000D03*
X129794000Y-103378000D03*
X129794000Y-104394000D03*
%TO.N,+36V*%
X126365000Y-101473000D03*
X123825000Y-101473000D03*
X125095000Y-101473000D03*
X122555000Y-101473000D03*
%TO.N,/DRV8323RSRGZR/PHASA*%
X125095000Y-102743000D03*
X123825000Y-102743000D03*
X122500000Y-102750000D03*
%TO.N,GND*%
X122263500Y-90080500D03*
%TO.N,GND1*%
X152527000Y-98425000D03*
X125095000Y-93726000D03*
X124206000Y-93726000D03*
X123317000Y-93726000D03*
X122428000Y-93726000D03*
X121539000Y-93726000D03*
X120650000Y-93726000D03*
X131699000Y-93980000D03*
X147447000Y-93980000D03*
X139700000Y-93980000D03*
%TO.N,GND*%
X132842000Y-83312000D03*
%TO.N,GND1*%
X148209000Y-94742000D03*
%TO.N,GND*%
X135890000Y-86360000D03*
%TO.N,GND1*%
X141986000Y-93980000D03*
%TO.N,GND*%
X129794000Y-86360000D03*
%TO.N,GND1*%
X139700000Y-94742000D03*
X142748000Y-94742000D03*
%TO.N,GND*%
X156874000Y-79274000D03*
%TO.N,GND1*%
X141986000Y-94742000D03*
%TO.N,GND*%
X138773500Y-74384500D03*
%TO.N,GND1*%
X145923000Y-94742000D03*
%TO.N,GND*%
X128510000Y-78760000D03*
X132715000Y-75491000D03*
X123571000Y-90805000D03*
X141351000Y-87376000D03*
%TO.N,GND1*%
X145161000Y-93980000D03*
X136652000Y-93980000D03*
X153797000Y-98425000D03*
%TO.N,GND*%
X133858000Y-86360000D03*
X130810000Y-87376000D03*
%TO.N,GND1*%
X155067000Y-97282000D03*
%TO.N,GND*%
X143360000Y-76660000D03*
X156845000Y-86487000D03*
D14*
X131191000Y-76962000D03*
D13*
X150114000Y-89281000D03*
%TO.N,GND1*%
X130048000Y-93980000D03*
%TO.N,GND*%
X153560000Y-74670000D03*
X132842000Y-85344000D03*
%TO.N,GND1*%
X137541000Y-94742000D03*
%TO.N,GND*%
X134874000Y-87376000D03*
%TO.N,GND1*%
X140462000Y-93980000D03*
X148209000Y-93980000D03*
X140462000Y-94742000D03*
%TO.N,GND*%
X133858000Y-84328000D03*
%TO.N,GND1*%
X132461000Y-93980000D03*
%TO.N,GND*%
X155702000Y-90678000D03*
X131826000Y-84328000D03*
X131826000Y-88392000D03*
X153110000Y-86990000D03*
%TO.N,GND1*%
X136652000Y-94742000D03*
%TO.N,GND*%
X138938000Y-82550000D03*
X130400000Y-73279000D03*
%TO.N,GND1*%
X133096000Y-91821000D03*
%TO.N,GND*%
X131826000Y-86360000D03*
X155702000Y-82296000D03*
X154775500Y-86868000D03*
%TO.N,GND1*%
X145161000Y-94742000D03*
X155067000Y-98425000D03*
X137541000Y-93980000D03*
X142748000Y-93980000D03*
X135532652Y-91844652D03*
X153670000Y-97282000D03*
X147447000Y-94742000D03*
%TO.N,GND*%
X133858000Y-88392000D03*
X130810000Y-85344000D03*
X155610000Y-78486000D03*
X148831905Y-84708095D03*
X141351000Y-72009000D03*
X149910000Y-77180000D03*
X132842000Y-89408000D03*
%TO.N,GND1*%
X130810000Y-93980000D03*
X135890000Y-94742000D03*
X145923000Y-93980000D03*
X135890000Y-93980000D03*
%TO.N,GND*%
X132842000Y-87376000D03*
X134874000Y-85344000D03*
%TO.N,+3.3V*%
X149700000Y-84430000D03*
X149109697Y-77121745D03*
X134112000Y-74422000D03*
X128016000Y-73279000D03*
X138581568Y-87368377D03*
X138557000Y-88646000D03*
X138595882Y-81191882D03*
X156730000Y-76870000D03*
X140000000Y-73198000D03*
X142479937Y-76426750D03*
X150620000Y-84760000D03*
X154940000Y-90678000D03*
X136667162Y-77339220D03*
X140462000Y-85471000D03*
X136652000Y-77978000D03*
X154750000Y-75340000D03*
X136652000Y-76708000D03*
X139480000Y-85450000D03*
X153560000Y-73570000D03*
%TO.N,+5V*%
X123825000Y-77216000D03*
X146939000Y-90356500D03*
X123571000Y-89662000D03*
%TO.N,/RESET*%
X132715000Y-73660000D03*
X150622000Y-81788000D03*
%TO.N,+36V*%
X147955000Y-100203000D03*
X139827000Y-100203000D03*
X149225000Y-100203000D03*
X123825000Y-98425000D03*
X122555000Y-99441000D03*
X125095000Y-98425000D03*
X122555000Y-100457000D03*
X143637000Y-100203000D03*
X142367000Y-100203000D03*
X145415000Y-100203000D03*
X129667000Y-90043000D03*
X126365000Y-99441000D03*
X123825000Y-99441000D03*
X126365000Y-98425000D03*
X125576500Y-85852000D03*
X125095000Y-100457000D03*
X126365000Y-100457000D03*
X146685000Y-100203000D03*
X122555000Y-98425000D03*
X125095000Y-99441000D03*
X123825000Y-100457000D03*
X141097000Y-100203000D03*
%TO.N,/DRV8323RSRGZR/PHASA*%
X131064000Y-104394000D03*
X128524000Y-104394000D03*
X132334000Y-104394000D03*
%TO.N,/DRV8323RSRGZR/PHASB*%
X142367000Y-104521000D03*
X141097000Y-105664000D03*
X138049000Y-104394000D03*
X135509000Y-104394000D03*
X139827000Y-105664000D03*
X134239000Y-104394000D03*
X139827000Y-104521000D03*
X136779000Y-104394000D03*
X142367000Y-105664000D03*
X141097000Y-104521000D03*
%TO.N,/DRV8323RSRGZR/PHASC*%
X146685000Y-105664000D03*
X151257000Y-100750000D03*
X151257000Y-99822000D03*
X145415000Y-104521000D03*
X146685000Y-104521000D03*
X153797000Y-99822000D03*
X151257000Y-101727000D03*
X147955000Y-105664000D03*
X147955000Y-104521000D03*
X155067000Y-99822000D03*
X153797000Y-101727000D03*
X145415000Y-105664000D03*
X152527000Y-101727000D03*
X155067000Y-101727000D03*
X152527000Y-100750000D03*
X155067000Y-100750000D03*
X153797000Y-100750000D03*
X152527000Y-99822000D03*
%TO.N,/SPI1_NSS*%
X147540000Y-79110000D03*
X143764000Y-72009000D03*
%TO.N,/SPI1_MISO*%
X147531910Y-76580000D03*
X148590000Y-72009000D03*
%TO.N,/SPI1_MOSI*%
X147535640Y-77331893D03*
X151003000Y-72009000D03*
%TO.N,/SWDIO*%
X135250000Y-74422000D03*
X142114768Y-83659440D03*
%TO.N,/SWCLK*%
X137578500Y-74366590D03*
X143129000Y-83659440D03*
%TO.N,/DRV8323RSRGZR/SPA*%
X132588000Y-97155000D03*
X131064000Y-98044000D03*
X130302000Y-98044000D03*
X129540000Y-98044000D03*
%TO.N,/DRV8323RSRGZR/SPB*%
X135382000Y-97917000D03*
X136906000Y-97917000D03*
X135128000Y-91186000D03*
X137795000Y-97155000D03*
X133968090Y-91416090D03*
X137795000Y-97917000D03*
X136906000Y-97155000D03*
X135382000Y-97155000D03*
X136144000Y-97155000D03*
X136144000Y-97917000D03*
%TO.N,Net-(U1-BOOT0)*%
X152527000Y-85979000D03*
X147955000Y-85471000D03*
%TO.N,/SPI1_SCK*%
X147510000Y-78260000D03*
X146177000Y-72009000D03*
%TO.N,/SPI3_MISO*%
X144420000Y-85255670D03*
X136780000Y-81250000D03*
%TO.N,/TIM1_PWM_CH1N*%
X143050260Y-79707740D03*
X131440955Y-81056511D03*
%TO.N,/TIM1_PWM_CH2N*%
X142752706Y-78872391D03*
X130197292Y-82010000D03*
%TO.N,/TIM1_PWM_CH3N*%
X141859000Y-78781910D03*
X129788590Y-83581410D03*
%TO.N,/TIM1_PWM_CH1*%
X142494000Y-81280000D03*
X132224647Y-80714647D03*
%TO.N,/TIM1_PWM_CH2*%
X142723301Y-82148540D03*
X130915183Y-81621345D03*
%TO.N,/TIM1_PWM_CH3*%
X141986000Y-82296000D03*
X130211162Y-82959485D03*
%TO.N,/SPI3_NSS*%
X135812032Y-82192032D03*
X143031910Y-84723760D03*
%TO.N,/SPI3_SCK*%
X143570000Y-85255670D03*
X136518470Y-82641189D03*
%TO.N,/SPI3_MOSI*%
X145161000Y-83947000D03*
X136369895Y-83404937D03*
%TO.N,/USART2_TX*%
X152350000Y-76340000D03*
X156870000Y-84074000D03*
%TO.N,/USART2_RX*%
X156972000Y-81534000D03*
X150610000Y-73950000D03*
%TO.N,/ADC1_IN8*%
X138430000Y-86631910D03*
X147193000Y-83947000D03*
%TO.N,/ADC1_IN9*%
X146168292Y-83804782D03*
X137795000Y-88011000D03*
%TO.N,/CAN_RX*%
X147701000Y-88325540D03*
X148082000Y-91186000D03*
%TO.N,/CAN_STB*%
X153940000Y-87010000D03*
X146079510Y-88060000D03*
%TD*%
%TA.AperFunction,Conductor*%
%TO.N,/DRV8323RSRGZR/PHASB*%
G36*
X138988577Y-100761423D02*
G01*
X139000000Y-100789000D01*
X139000000Y-104000000D01*
X142961000Y-104000000D01*
X142988577Y-104011423D01*
X143000000Y-104039000D01*
X143000000Y-109935100D01*
X142988577Y-109962677D01*
X142961000Y-109974100D01*
X133789000Y-109974100D01*
X133761423Y-109962677D01*
X133750000Y-109935100D01*
X133750000Y-100789000D01*
X133761423Y-100761423D01*
X133789000Y-100750000D01*
X138961000Y-100750000D01*
X138988577Y-100761423D01*
G37*
%TD.AperFunction*%
%TD*%
%TA.AperFunction,Conductor*%
%TO.N,GND1*%
G36*
X159962677Y-92261423D02*
G01*
X159974100Y-92289000D01*
X159974100Y-98961000D01*
X159962677Y-98988577D01*
X159935100Y-99000000D01*
X126714383Y-99000000D01*
X126690641Y-98991940D01*
X126654151Y-98963939D01*
X126639227Y-98938089D01*
X126646953Y-98909257D01*
X126654145Y-98902063D01*
X126760474Y-98820474D01*
X126849355Y-98704643D01*
X126905228Y-98569754D01*
X126920042Y-98457228D01*
X126924285Y-98425003D01*
X126924285Y-98424996D01*
X126905229Y-98280249D01*
X126849355Y-98145359D01*
X126849354Y-98145357D01*
X126771583Y-98044003D01*
X128980715Y-98044003D01*
X128999771Y-98188753D01*
X129055644Y-98323641D01*
X129055645Y-98323643D01*
X129144525Y-98439474D01*
X129233406Y-98507674D01*
X129260357Y-98528355D01*
X129360303Y-98569754D01*
X129395246Y-98584228D01*
X129539997Y-98603285D01*
X129540000Y-98603285D01*
X129540003Y-98603285D01*
X129648565Y-98588992D01*
X129684754Y-98584228D01*
X129819643Y-98528355D01*
X129897258Y-98468797D01*
X129926090Y-98461073D01*
X129944741Y-98468797D01*
X130022357Y-98528355D01*
X130122303Y-98569754D01*
X130157246Y-98584228D01*
X130301997Y-98603285D01*
X130302000Y-98603285D01*
X130302003Y-98603285D01*
X130410565Y-98588992D01*
X130446754Y-98584228D01*
X130581643Y-98528355D01*
X130659258Y-98468797D01*
X130688090Y-98461073D01*
X130706741Y-98468797D01*
X130784357Y-98528355D01*
X130884303Y-98569754D01*
X130919246Y-98584228D01*
X131063997Y-98603285D01*
X131064000Y-98603285D01*
X131064003Y-98603285D01*
X131172565Y-98588992D01*
X131208754Y-98584228D01*
X131343643Y-98528355D01*
X131421258Y-98468797D01*
X131450090Y-98461073D01*
X131468741Y-98468797D01*
X131546357Y-98528355D01*
X131646303Y-98569754D01*
X131681246Y-98584228D01*
X131825997Y-98603285D01*
X131826000Y-98603285D01*
X131826003Y-98603285D01*
X131934565Y-98588992D01*
X131970754Y-98584228D01*
X132105643Y-98528355D01*
X132183258Y-98468797D01*
X132212090Y-98461073D01*
X132230741Y-98468797D01*
X132308357Y-98528355D01*
X132408303Y-98569754D01*
X132443246Y-98584228D01*
X132587997Y-98603285D01*
X132588000Y-98603285D01*
X132588003Y-98603285D01*
X132696565Y-98588992D01*
X132732754Y-98584228D01*
X132867643Y-98528355D01*
X132983474Y-98439474D01*
X133072355Y-98323643D01*
X133128228Y-98188754D01*
X133147285Y-98044000D01*
X133147285Y-98043996D01*
X133130566Y-97917003D01*
X134822715Y-97917003D01*
X134841771Y-98061753D01*
X134897644Y-98196641D01*
X134897645Y-98196643D01*
X134986525Y-98312474D01*
X135024741Y-98341798D01*
X135102357Y-98401355D01*
X135194384Y-98439474D01*
X135237246Y-98457228D01*
X135381997Y-98476285D01*
X135382000Y-98476285D01*
X135382003Y-98476285D01*
X135497548Y-98461073D01*
X135526754Y-98457228D01*
X135661643Y-98401355D01*
X135739258Y-98341797D01*
X135768090Y-98334073D01*
X135786741Y-98341797D01*
X135864357Y-98401355D01*
X135956384Y-98439474D01*
X135999246Y-98457228D01*
X136143997Y-98476285D01*
X136144000Y-98476285D01*
X136144003Y-98476285D01*
X136259548Y-98461073D01*
X136288754Y-98457228D01*
X136423643Y-98401355D01*
X136501258Y-98341797D01*
X136530090Y-98334073D01*
X136548741Y-98341797D01*
X136626357Y-98401355D01*
X136718384Y-98439474D01*
X136761246Y-98457228D01*
X136905997Y-98476285D01*
X136906000Y-98476285D01*
X136906003Y-98476285D01*
X137021548Y-98461073D01*
X137050754Y-98457228D01*
X137185643Y-98401355D01*
X137301474Y-98312474D01*
X137309580Y-98301909D01*
X137319559Y-98288906D01*
X137345409Y-98273981D01*
X137374241Y-98281706D01*
X137381441Y-98288906D01*
X137399524Y-98312472D01*
X137399526Y-98312474D01*
X137515357Y-98401355D01*
X137607384Y-98439474D01*
X137650246Y-98457228D01*
X137794997Y-98476285D01*
X137795000Y-98476285D01*
X137795003Y-98476285D01*
X137910548Y-98461073D01*
X137939754Y-98457228D01*
X138074643Y-98401355D01*
X138190474Y-98312474D01*
X138279355Y-98196643D01*
X138335228Y-98061754D01*
X138351172Y-97940645D01*
X138354285Y-97917003D01*
X138354285Y-97916996D01*
X138335229Y-97772249D01*
X138331961Y-97764359D01*
X138279355Y-97637358D01*
X138219796Y-97559740D01*
X138212072Y-97530910D01*
X138219798Y-97512258D01*
X138226310Y-97503772D01*
X138279355Y-97434643D01*
X138335228Y-97299754D01*
X138354285Y-97155000D01*
X138354285Y-97154996D01*
X138335229Y-97010249D01*
X138279355Y-96875359D01*
X138279354Y-96875357D01*
X138190474Y-96759525D01*
X138074643Y-96670645D01*
X138074641Y-96670644D01*
X137939753Y-96614771D01*
X137795003Y-96595715D01*
X137794997Y-96595715D01*
X137650249Y-96614770D01*
X137515359Y-96670644D01*
X137515357Y-96670645D01*
X137399523Y-96759527D01*
X137381440Y-96783094D01*
X137355590Y-96798018D01*
X137326758Y-96790292D01*
X137319560Y-96783094D01*
X137301476Y-96759527D01*
X137185643Y-96670645D01*
X137185641Y-96670644D01*
X137050753Y-96614771D01*
X136906003Y-96595715D01*
X136905997Y-96595715D01*
X136761249Y-96614770D01*
X136626359Y-96670644D01*
X136626353Y-96670648D01*
X136548741Y-96730201D01*
X136519909Y-96737926D01*
X136501258Y-96730201D01*
X136423643Y-96670645D01*
X136423641Y-96670644D01*
X136288753Y-96614771D01*
X136144003Y-96595715D01*
X136143997Y-96595715D01*
X135999249Y-96614770D01*
X135864359Y-96670644D01*
X135864353Y-96670648D01*
X135786741Y-96730201D01*
X135757909Y-96737926D01*
X135739258Y-96730201D01*
X135661643Y-96670645D01*
X135661641Y-96670644D01*
X135526753Y-96614771D01*
X135382003Y-96595715D01*
X135381997Y-96595715D01*
X135237249Y-96614770D01*
X135102359Y-96670644D01*
X135102357Y-96670645D01*
X134986525Y-96759525D01*
X134897645Y-96875357D01*
X134897644Y-96875359D01*
X134841770Y-97010249D01*
X134822715Y-97154996D01*
X134822715Y-97155003D01*
X134841771Y-97299753D01*
X134897644Y-97434641D01*
X134897645Y-97434643D01*
X134957201Y-97512258D01*
X134964926Y-97541091D01*
X134957201Y-97559741D01*
X134897648Y-97637353D01*
X134897644Y-97637359D01*
X134841770Y-97772249D01*
X134822715Y-97916996D01*
X134822715Y-97917003D01*
X133130566Y-97917003D01*
X133128229Y-97899249D01*
X133128228Y-97899246D01*
X133072355Y-97764358D01*
X132983474Y-97648526D01*
X132983472Y-97648525D01*
X132983472Y-97648524D01*
X132959906Y-97630441D01*
X132944981Y-97604591D01*
X132952706Y-97575759D01*
X132959906Y-97568559D01*
X132972909Y-97558580D01*
X132983474Y-97550474D01*
X133072355Y-97434643D01*
X133128228Y-97299754D01*
X133147285Y-97155000D01*
X133147285Y-97154996D01*
X133128229Y-97010249D01*
X133072355Y-96875359D01*
X133072354Y-96875357D01*
X132983474Y-96759525D01*
X132867643Y-96670645D01*
X132867641Y-96670644D01*
X132732753Y-96614771D01*
X132588003Y-96595715D01*
X132587997Y-96595715D01*
X132443249Y-96614770D01*
X132308359Y-96670644D01*
X132308353Y-96670648D01*
X132230741Y-96730201D01*
X132201909Y-96737926D01*
X132183258Y-96730201D01*
X132105643Y-96670645D01*
X132105641Y-96670644D01*
X131970753Y-96614771D01*
X131826003Y-96595715D01*
X131825997Y-96595715D01*
X131681249Y-96614770D01*
X131546359Y-96670644D01*
X131546357Y-96670645D01*
X131430525Y-96759525D01*
X131341645Y-96875357D01*
X131341644Y-96875359D01*
X131285770Y-97010249D01*
X131266715Y-97154996D01*
X131266715Y-97155003D01*
X131285771Y-97299753D01*
X131341644Y-97434641D01*
X131341645Y-97434643D01*
X131392907Y-97501448D01*
X131400632Y-97530280D01*
X131385708Y-97556131D01*
X131356876Y-97563856D01*
X131346168Y-97560224D01*
X131346004Y-97560623D01*
X131208753Y-97503771D01*
X131064003Y-97484715D01*
X131063997Y-97484715D01*
X130919249Y-97503770D01*
X130781997Y-97560623D01*
X130781533Y-97559503D01*
X130755899Y-97562852D01*
X130732237Y-97544656D01*
X130728371Y-97515058D01*
X130735091Y-97501450D01*
X130786355Y-97434643D01*
X130842228Y-97299754D01*
X130861285Y-97155000D01*
X130861285Y-97154996D01*
X130842229Y-97010249D01*
X130786355Y-96875359D01*
X130786354Y-96875357D01*
X130697474Y-96759525D01*
X130581643Y-96670645D01*
X130581641Y-96670644D01*
X130446753Y-96614771D01*
X130302003Y-96595715D01*
X130301997Y-96595715D01*
X130157249Y-96614770D01*
X130022359Y-96670644D01*
X130022353Y-96670648D01*
X129944741Y-96730201D01*
X129915909Y-96737926D01*
X129897258Y-96730201D01*
X129819643Y-96670645D01*
X129819641Y-96670644D01*
X129684753Y-96614771D01*
X129540003Y-96595715D01*
X129539997Y-96595715D01*
X129395249Y-96614770D01*
X129260359Y-96670644D01*
X129260357Y-96670645D01*
X129144525Y-96759525D01*
X129055645Y-96875357D01*
X129055644Y-96875359D01*
X128999770Y-97010249D01*
X128980715Y-97154996D01*
X128980715Y-97155003D01*
X128999771Y-97299753D01*
X129055644Y-97434641D01*
X129055645Y-97434643D01*
X129144527Y-97550476D01*
X129168094Y-97568560D01*
X129183018Y-97594410D01*
X129175292Y-97623242D01*
X129168094Y-97630440D01*
X129144527Y-97648523D01*
X129055645Y-97764357D01*
X129055644Y-97764359D01*
X128999770Y-97899249D01*
X128980715Y-98043996D01*
X128980715Y-98044003D01*
X126771583Y-98044003D01*
X126760474Y-98029525D01*
X126644643Y-97940645D01*
X126644641Y-97940644D01*
X126509753Y-97884771D01*
X126365003Y-97865715D01*
X126364997Y-97865715D01*
X126220249Y-97884770D01*
X126085359Y-97940644D01*
X126085357Y-97940645D01*
X125969525Y-98029525D01*
X125880645Y-98145357D01*
X125880644Y-98145359D01*
X125824770Y-98280249D01*
X125805715Y-98424996D01*
X125805715Y-98425003D01*
X125824771Y-98569753D01*
X125880644Y-98704641D01*
X125880645Y-98704643D01*
X125969525Y-98820474D01*
X126054425Y-98885620D01*
X126075847Y-98902058D01*
X126075849Y-98902059D01*
X126090773Y-98927910D01*
X126083048Y-98956742D01*
X126075849Y-98963940D01*
X126039360Y-98991940D01*
X126015618Y-99000000D01*
X125444383Y-99000000D01*
X125420641Y-98991940D01*
X125384151Y-98963939D01*
X125369227Y-98938089D01*
X125376953Y-98909257D01*
X125384145Y-98902063D01*
X125490474Y-98820474D01*
X125579355Y-98704643D01*
X125635228Y-98569754D01*
X125650042Y-98457228D01*
X125654285Y-98425003D01*
X125654285Y-98424996D01*
X125635229Y-98280249D01*
X125579355Y-98145359D01*
X125579354Y-98145357D01*
X125490474Y-98029525D01*
X125374643Y-97940645D01*
X125374641Y-97940644D01*
X125239753Y-97884771D01*
X125095003Y-97865715D01*
X125094997Y-97865715D01*
X124950249Y-97884770D01*
X124815359Y-97940644D01*
X124815357Y-97940645D01*
X124699525Y-98029525D01*
X124610645Y-98145357D01*
X124610644Y-98145359D01*
X124554770Y-98280249D01*
X124535715Y-98424996D01*
X124535715Y-98425003D01*
X124554771Y-98569753D01*
X124610644Y-98704641D01*
X124610645Y-98704643D01*
X124699525Y-98820474D01*
X124784425Y-98885620D01*
X124805847Y-98902058D01*
X124805849Y-98902059D01*
X124820773Y-98927910D01*
X124813048Y-98956742D01*
X124805849Y-98963940D01*
X124769360Y-98991940D01*
X124745618Y-99000000D01*
X124174383Y-99000000D01*
X124150641Y-98991940D01*
X124114151Y-98963939D01*
X124099227Y-98938089D01*
X124106953Y-98909257D01*
X124114145Y-98902063D01*
X124220474Y-98820474D01*
X124309355Y-98704643D01*
X124365228Y-98569754D01*
X124380042Y-98457228D01*
X124384285Y-98425003D01*
X124384285Y-98424996D01*
X124365229Y-98280249D01*
X124309355Y-98145359D01*
X124309354Y-98145357D01*
X124220474Y-98029525D01*
X124104643Y-97940645D01*
X124104641Y-97940644D01*
X123969753Y-97884771D01*
X123825003Y-97865715D01*
X123824997Y-97865715D01*
X123680249Y-97884770D01*
X123545359Y-97940644D01*
X123545357Y-97940645D01*
X123429525Y-98029525D01*
X123340645Y-98145357D01*
X123340644Y-98145359D01*
X123284770Y-98280249D01*
X123265715Y-98424996D01*
X123265715Y-98425003D01*
X123284771Y-98569753D01*
X123340644Y-98704641D01*
X123340645Y-98704643D01*
X123429525Y-98820474D01*
X123514425Y-98885620D01*
X123535847Y-98902058D01*
X123535849Y-98902059D01*
X123550773Y-98927910D01*
X123543048Y-98956742D01*
X123535849Y-98963940D01*
X123499360Y-98991940D01*
X123475618Y-99000000D01*
X122904383Y-99000000D01*
X122880641Y-98991940D01*
X122844151Y-98963939D01*
X122829227Y-98938089D01*
X122836953Y-98909257D01*
X122844145Y-98902063D01*
X122950474Y-98820474D01*
X123039355Y-98704643D01*
X123095228Y-98569754D01*
X123110042Y-98457228D01*
X123114285Y-98425003D01*
X123114285Y-98424996D01*
X123095229Y-98280249D01*
X123039355Y-98145359D01*
X123039354Y-98145357D01*
X122950474Y-98029525D01*
X122834643Y-97940645D01*
X122834641Y-97940644D01*
X122699753Y-97884771D01*
X122555003Y-97865715D01*
X122554997Y-97865715D01*
X122410249Y-97884770D01*
X122275359Y-97940644D01*
X122275357Y-97940645D01*
X122159525Y-98029525D01*
X122070645Y-98145357D01*
X122070644Y-98145359D01*
X122014770Y-98280249D01*
X121995715Y-98424996D01*
X121995715Y-98425003D01*
X122014771Y-98569753D01*
X122070644Y-98704641D01*
X122070645Y-98704643D01*
X122159525Y-98820474D01*
X122244425Y-98885620D01*
X122265847Y-98902058D01*
X122265849Y-98902059D01*
X122280773Y-98927910D01*
X122273048Y-98956742D01*
X122265849Y-98963940D01*
X122229360Y-98991940D01*
X122205618Y-99000000D01*
X120064900Y-99000000D01*
X120037323Y-98988577D01*
X120025900Y-98961000D01*
X120025900Y-92289000D01*
X120037323Y-92261423D01*
X120064900Y-92250000D01*
X159935100Y-92250000D01*
X159962677Y-92261423D01*
G37*
%TD.AperFunction*%
%TD*%
%TA.AperFunction,Conductor*%
%TO.N,/DRV8323RSRGZR/PHASA*%
G36*
X133238577Y-100761423D02*
G01*
X133250000Y-100789000D01*
X133250000Y-109935100D01*
X133238577Y-109962677D01*
X133211000Y-109974100D01*
X123000519Y-109974100D01*
X122999499Y-109974073D01*
X122690140Y-109957860D01*
X122688109Y-109957647D01*
X122382657Y-109909268D01*
X122380659Y-109908843D01*
X122081944Y-109828802D01*
X122080001Y-109828171D01*
X122025024Y-109807067D01*
X122003372Y-109786520D01*
X122000000Y-109770657D01*
X122000000Y-109665477D01*
X122011423Y-109637900D01*
X122039000Y-109626477D01*
X122050593Y-109628241D01*
X122185811Y-109670377D01*
X122214599Y-109679348D01*
X122542369Y-109739414D01*
X122542373Y-109739415D01*
X122578270Y-109741586D01*
X122875000Y-109759535D01*
X123188653Y-109740562D01*
X123207626Y-109739415D01*
X123207630Y-109739414D01*
X123330071Y-109716976D01*
X123535400Y-109679348D01*
X123853545Y-109580210D01*
X124157420Y-109443447D01*
X124442595Y-109271053D01*
X124704910Y-109065542D01*
X124940542Y-108829910D01*
X125146053Y-108567595D01*
X125318447Y-108282420D01*
X125455210Y-107978545D01*
X125554348Y-107660400D01*
X125614415Y-107332625D01*
X125634535Y-107000000D01*
X125614415Y-106667375D01*
X125554348Y-106339600D01*
X125455210Y-106021455D01*
X125318447Y-105717580D01*
X125146053Y-105432405D01*
X124940542Y-105170090D01*
X124704910Y-104934458D01*
X124442595Y-104728947D01*
X124157420Y-104556553D01*
X124157418Y-104556552D01*
X123853545Y-104419789D01*
X123853538Y-104419787D01*
X123535400Y-104320651D01*
X123207630Y-104260585D01*
X123207626Y-104260584D01*
X122875000Y-104240465D01*
X122542373Y-104260584D01*
X122542369Y-104260585D01*
X122214599Y-104320651D01*
X122050603Y-104371755D01*
X122020876Y-104369054D01*
X122001766Y-104346124D01*
X122000000Y-104334521D01*
X122000000Y-102289000D01*
X122011423Y-102261423D01*
X122039000Y-102250000D01*
X128000000Y-102250000D01*
X128000000Y-100789000D01*
X128011423Y-100761423D01*
X128039000Y-100750000D01*
X133211000Y-100750000D01*
X133238577Y-100761423D01*
G37*
%TD.AperFunction*%
%TD*%
%TA.AperFunction,Conductor*%
%TO.N,/DRV8323RSRGZR/PHASC*%
G36*
X155738577Y-99511423D02*
G01*
X155750000Y-99539000D01*
X155750000Y-104211000D01*
X155738577Y-104238577D01*
X155711000Y-104250000D01*
X154000000Y-104250000D01*
X154000000Y-109935100D01*
X153988577Y-109962677D01*
X153961000Y-109974100D01*
X144789000Y-109974100D01*
X144761423Y-109962677D01*
X144750000Y-109935100D01*
X144750000Y-104039000D01*
X144761423Y-104011423D01*
X144789000Y-104000000D01*
X150500000Y-104000000D01*
X150500000Y-99539000D01*
X150511423Y-99511423D01*
X150539000Y-99500000D01*
X155711000Y-99500000D01*
X155738577Y-99511423D01*
G37*
%TD.AperFunction*%
%TD*%
%TA.AperFunction,Conductor*%
%TO.N,GND*%
G36*
X157000501Y-70025927D02*
G01*
X157309859Y-70042139D01*
X157311884Y-70042351D01*
X157617348Y-70090732D01*
X157619335Y-70091154D01*
X157918064Y-70171199D01*
X157919991Y-70171825D01*
X158208722Y-70282658D01*
X158210584Y-70283487D01*
X158486150Y-70423895D01*
X158487907Y-70424911D01*
X158747273Y-70593345D01*
X158748926Y-70594546D01*
X158989267Y-70789170D01*
X158990785Y-70790537D01*
X159209462Y-71009214D01*
X159210829Y-71010732D01*
X159405453Y-71251073D01*
X159406654Y-71252726D01*
X159575088Y-71512092D01*
X159576107Y-71513855D01*
X159581605Y-71524645D01*
X159716510Y-71789411D01*
X159717341Y-71791277D01*
X159828171Y-72080000D01*
X159828802Y-72081943D01*
X159908843Y-72380659D01*
X159909268Y-72382657D01*
X159957647Y-72688109D01*
X159957860Y-72690140D01*
X159974073Y-72999498D01*
X159974100Y-73000518D01*
X159974100Y-91461000D01*
X159962677Y-91488577D01*
X159935100Y-91500000D01*
X148610491Y-91500000D01*
X148582914Y-91488577D01*
X148571491Y-91461000D01*
X148574460Y-91446075D01*
X148582972Y-91425526D01*
X148622228Y-91330754D01*
X148628808Y-91280772D01*
X148641285Y-91186003D01*
X148641285Y-91185996D01*
X148622229Y-91041249D01*
X148622228Y-91041246D01*
X148566355Y-90906358D01*
X148516092Y-90840854D01*
X148477474Y-90790525D01*
X148361643Y-90701645D01*
X148361641Y-90701644D01*
X148304567Y-90678003D01*
X154380715Y-90678003D01*
X154399771Y-90822753D01*
X154455644Y-90957641D01*
X154455645Y-90957643D01*
X154544525Y-91073474D01*
X154626595Y-91136448D01*
X154660357Y-91162355D01*
X154795246Y-91218227D01*
X154795246Y-91218228D01*
X154939997Y-91237285D01*
X154940000Y-91237285D01*
X154940003Y-91237285D01*
X155048565Y-91222992D01*
X155084754Y-91218228D01*
X155219643Y-91162355D01*
X155335474Y-91073474D01*
X155424355Y-90957643D01*
X155480228Y-90822754D01*
X155496172Y-90701645D01*
X155499285Y-90678003D01*
X155499285Y-90677996D01*
X155480229Y-90533249D01*
X155466457Y-90500000D01*
X155424355Y-90398358D01*
X155366257Y-90322643D01*
X155335474Y-90282525D01*
X155219643Y-90193645D01*
X155219641Y-90193644D01*
X155084753Y-90137771D01*
X154940003Y-90118715D01*
X154939997Y-90118715D01*
X154795249Y-90137770D01*
X154660359Y-90193644D01*
X154660357Y-90193645D01*
X154544525Y-90282525D01*
X154455645Y-90398357D01*
X154455644Y-90398359D01*
X154399770Y-90533249D01*
X154380715Y-90677996D01*
X154380715Y-90678003D01*
X148304567Y-90678003D01*
X148226753Y-90645771D01*
X148082003Y-90626715D01*
X148081997Y-90626715D01*
X147937249Y-90645770D01*
X147802359Y-90701644D01*
X147802357Y-90701645D01*
X147686525Y-90790525D01*
X147597645Y-90906357D01*
X147597644Y-90906359D01*
X147541770Y-91041249D01*
X147522715Y-91185996D01*
X147522715Y-91186003D01*
X147541771Y-91330753D01*
X147544212Y-91336645D01*
X147577119Y-91416090D01*
X147589540Y-91446075D01*
X147589540Y-91475924D01*
X147568434Y-91497031D01*
X147553509Y-91500000D01*
X136539000Y-91500000D01*
X136511423Y-91488577D01*
X136500000Y-91461000D01*
X136500000Y-90500000D01*
X132000000Y-90500000D01*
X132000000Y-91461000D01*
X131988577Y-91488577D01*
X131961000Y-91500000D01*
X120064900Y-91500000D01*
X120037323Y-91488577D01*
X120025900Y-91461000D01*
X120025900Y-89662003D01*
X123011715Y-89662003D01*
X123030771Y-89806753D01*
X123086644Y-89941641D01*
X123086645Y-89941643D01*
X123175525Y-90057474D01*
X123255336Y-90118715D01*
X123291357Y-90146355D01*
X123405525Y-90193645D01*
X123426246Y-90202228D01*
X123570997Y-90221285D01*
X123571000Y-90221285D01*
X123571003Y-90221285D01*
X123679565Y-90206992D01*
X123715754Y-90202228D01*
X123850643Y-90146355D01*
X123966474Y-90057474D01*
X123977578Y-90043003D01*
X129107715Y-90043003D01*
X129126771Y-90187753D01*
X129182644Y-90322641D01*
X129182645Y-90322643D01*
X129271525Y-90438474D01*
X129353340Y-90501253D01*
X129387357Y-90527355D01*
X129522246Y-90583228D01*
X129666997Y-90602285D01*
X129667000Y-90602285D01*
X129667003Y-90602285D01*
X129775565Y-90587992D01*
X129811754Y-90583228D01*
X129946643Y-90527355D01*
X130062474Y-90438474D01*
X130125373Y-90356503D01*
X146379715Y-90356503D01*
X146398771Y-90501253D01*
X146454644Y-90636141D01*
X146454645Y-90636143D01*
X146543525Y-90751974D01*
X146632406Y-90820174D01*
X146659357Y-90840855D01*
X146794245Y-90896728D01*
X146794246Y-90896728D01*
X146938997Y-90915785D01*
X146939000Y-90915785D01*
X146939003Y-90915785D01*
X147047565Y-90901492D01*
X147083754Y-90896728D01*
X147218643Y-90840855D01*
X147334474Y-90751974D01*
X147423355Y-90636143D01*
X147479228Y-90501254D01*
X147492774Y-90398359D01*
X147498285Y-90356503D01*
X147498285Y-90356496D01*
X147479229Y-90211749D01*
X147469290Y-90187754D01*
X147423355Y-90076858D01*
X147397372Y-90042996D01*
X147334474Y-89961025D01*
X147218643Y-89872145D01*
X147218641Y-89872144D01*
X147083753Y-89816271D01*
X146939003Y-89797215D01*
X146938997Y-89797215D01*
X146794249Y-89816270D01*
X146659359Y-89872144D01*
X146659357Y-89872145D01*
X146543525Y-89961025D01*
X146454645Y-90076857D01*
X146454644Y-90076859D01*
X146398770Y-90211749D01*
X146379715Y-90356496D01*
X146379715Y-90356503D01*
X130125373Y-90356503D01*
X130151355Y-90322643D01*
X130207228Y-90187754D01*
X130216317Y-90118715D01*
X130226285Y-90043003D01*
X130226285Y-90042996D01*
X130207229Y-89898249D01*
X130207228Y-89898246D01*
X130151355Y-89763358D01*
X130073583Y-89662003D01*
X130062474Y-89647525D01*
X129946643Y-89558645D01*
X129946641Y-89558644D01*
X129811753Y-89502771D01*
X129667003Y-89483715D01*
X129666997Y-89483715D01*
X129522249Y-89502770D01*
X129387359Y-89558644D01*
X129387357Y-89558645D01*
X129271525Y-89647525D01*
X129182645Y-89763357D01*
X129182644Y-89763359D01*
X129126770Y-89898249D01*
X129107715Y-90042996D01*
X129107715Y-90043003D01*
X123977578Y-90043003D01*
X124055355Y-89941643D01*
X124111228Y-89806754D01*
X124130285Y-89662000D01*
X124130285Y-89661996D01*
X124111229Y-89517249D01*
X124111228Y-89517246D01*
X124055355Y-89382358D01*
X124034674Y-89355405D01*
X123966474Y-89266525D01*
X123850643Y-89177645D01*
X123850641Y-89177644D01*
X123715753Y-89121771D01*
X123571003Y-89102715D01*
X123570997Y-89102715D01*
X123426249Y-89121770D01*
X123291359Y-89177644D01*
X123291357Y-89177645D01*
X123175525Y-89266525D01*
X123086645Y-89382357D01*
X123086644Y-89382359D01*
X123030770Y-89517249D01*
X123011715Y-89661996D01*
X123011715Y-89662003D01*
X120025900Y-89662003D01*
X120025900Y-88011003D01*
X137235715Y-88011003D01*
X137254771Y-88155753D01*
X137310644Y-88290641D01*
X137310645Y-88290643D01*
X137399525Y-88406474D01*
X137482696Y-88470293D01*
X137515357Y-88495355D01*
X137575744Y-88520368D01*
X137650246Y-88551228D01*
X137794997Y-88570285D01*
X137795000Y-88570285D01*
X137795003Y-88570285D01*
X137939750Y-88551229D01*
X137939751Y-88551228D01*
X137939754Y-88551228D01*
X137951846Y-88546218D01*
X137981694Y-88546217D01*
X138002801Y-88567322D01*
X138005437Y-88587339D01*
X137997715Y-88645996D01*
X137997715Y-88646003D01*
X138016771Y-88790753D01*
X138072644Y-88925641D01*
X138072645Y-88925643D01*
X138161525Y-89041474D01*
X138241336Y-89102715D01*
X138277357Y-89130355D01*
X138391525Y-89177645D01*
X138412246Y-89186228D01*
X138556997Y-89205285D01*
X138557000Y-89205285D01*
X138557003Y-89205285D01*
X138665565Y-89190992D01*
X138701754Y-89186228D01*
X138836643Y-89130355D01*
X138952474Y-89041474D01*
X139041355Y-88925643D01*
X139097228Y-88790754D01*
X139116285Y-88646000D01*
X139116285Y-88645996D01*
X139097229Y-88501249D01*
X139084407Y-88470294D01*
X139041355Y-88366358D01*
X138983257Y-88290643D01*
X138952474Y-88250525D01*
X138836643Y-88161645D01*
X138836641Y-88161644D01*
X138701753Y-88105771D01*
X138557003Y-88086715D01*
X138556997Y-88086715D01*
X138412248Y-88105770D01*
X138400152Y-88110781D01*
X138370302Y-88110780D01*
X138349196Y-88089673D01*
X138346562Y-88069658D01*
X138347833Y-88060003D01*
X145520225Y-88060003D01*
X145539281Y-88204753D01*
X145595154Y-88339641D01*
X145595155Y-88339643D01*
X145684035Y-88455474D01*
X145768607Y-88520368D01*
X145799867Y-88544355D01*
X145934756Y-88600227D01*
X145934756Y-88600228D01*
X146079507Y-88619285D01*
X146079510Y-88619285D01*
X146079513Y-88619285D01*
X146188075Y-88604992D01*
X146224264Y-88600228D01*
X146359153Y-88544355D01*
X146474984Y-88455474D01*
X146563865Y-88339643D01*
X146569705Y-88325543D01*
X147141715Y-88325543D01*
X147160771Y-88470293D01*
X147216644Y-88605181D01*
X147216645Y-88605183D01*
X147305525Y-88721014D01*
X147394406Y-88789214D01*
X147421357Y-88809895D01*
X147556245Y-88865768D01*
X147556246Y-88865768D01*
X147700997Y-88884825D01*
X147701000Y-88884825D01*
X147701003Y-88884825D01*
X147809565Y-88870532D01*
X147845754Y-88865768D01*
X147980643Y-88809895D01*
X148096474Y-88721014D01*
X148185355Y-88605183D01*
X148241228Y-88470294D01*
X148254911Y-88366359D01*
X148260285Y-88325543D01*
X148260285Y-88325536D01*
X148241229Y-88180789D01*
X148222938Y-88136631D01*
X148185355Y-88045898D01*
X148099120Y-87933514D01*
X148096474Y-87930065D01*
X147980643Y-87841185D01*
X147980641Y-87841184D01*
X147845753Y-87785311D01*
X147701003Y-87766255D01*
X147700997Y-87766255D01*
X147556249Y-87785310D01*
X147421359Y-87841184D01*
X147421357Y-87841185D01*
X147305525Y-87930065D01*
X147216645Y-88045897D01*
X147216644Y-88045899D01*
X147160770Y-88180789D01*
X147141715Y-88325536D01*
X147141715Y-88325543D01*
X146569705Y-88325543D01*
X146619738Y-88204754D01*
X146626189Y-88155753D01*
X146638795Y-88060003D01*
X146638795Y-88059996D01*
X146619739Y-87915249D01*
X146619738Y-87915246D01*
X146563865Y-87780358D01*
X146526265Y-87731357D01*
X146474984Y-87664525D01*
X146359153Y-87575645D01*
X146359151Y-87575644D01*
X146224263Y-87519771D01*
X146079513Y-87500715D01*
X146079507Y-87500715D01*
X145934759Y-87519770D01*
X145799869Y-87575644D01*
X145799867Y-87575645D01*
X145684035Y-87664525D01*
X145595155Y-87780357D01*
X145595154Y-87780359D01*
X145539280Y-87915249D01*
X145520225Y-88059996D01*
X145520225Y-88060003D01*
X138347833Y-88060003D01*
X138349691Y-88045897D01*
X138354285Y-88011000D01*
X138354284Y-88010996D01*
X138344084Y-87933514D01*
X138351809Y-87904681D01*
X138377659Y-87889757D01*
X138397672Y-87892391D01*
X138436814Y-87908605D01*
X138436817Y-87908605D01*
X138436819Y-87908606D01*
X138436816Y-87908606D01*
X138581565Y-87927662D01*
X138581568Y-87927662D01*
X138581571Y-87927662D01*
X138690133Y-87913369D01*
X138726322Y-87908605D01*
X138861211Y-87852732D01*
X138977042Y-87763851D01*
X139065923Y-87648020D01*
X139121796Y-87513131D01*
X139127373Y-87470770D01*
X139140853Y-87368380D01*
X139140853Y-87368373D01*
X139121797Y-87223626D01*
X139093269Y-87154754D01*
X139065923Y-87088735D01*
X139044229Y-87060463D01*
X139005510Y-87010003D01*
X153380715Y-87010003D01*
X153399771Y-87154753D01*
X153455644Y-87289641D01*
X153455645Y-87289643D01*
X153544525Y-87405474D01*
X153597160Y-87445862D01*
X153660357Y-87494355D01*
X153738312Y-87526645D01*
X153795246Y-87550228D01*
X153939997Y-87569285D01*
X153940000Y-87569285D01*
X153940003Y-87569285D01*
X154048565Y-87554992D01*
X154084754Y-87550228D01*
X154219643Y-87494355D01*
X154335474Y-87405474D01*
X154424355Y-87289643D01*
X154480228Y-87154754D01*
X154488919Y-87088736D01*
X154499285Y-87010003D01*
X154499285Y-87009996D01*
X154480229Y-86865249D01*
X154480228Y-86865246D01*
X154424355Y-86730358D01*
X154348816Y-86631913D01*
X154335474Y-86614525D01*
X154219643Y-86525645D01*
X154219641Y-86525644D01*
X154084753Y-86469771D01*
X153940003Y-86450715D01*
X153939997Y-86450715D01*
X153795249Y-86469770D01*
X153660359Y-86525644D01*
X153660357Y-86525645D01*
X153544525Y-86614525D01*
X153455645Y-86730357D01*
X153455644Y-86730359D01*
X153399770Y-86865249D01*
X153380715Y-87009996D01*
X153380715Y-87010003D01*
X139005510Y-87010003D01*
X138977042Y-86972902D01*
X138933932Y-86939823D01*
X138919008Y-86913972D01*
X138921642Y-86893958D01*
X138970228Y-86776664D01*
X138989285Y-86631910D01*
X138989285Y-86631906D01*
X138970229Y-86487159D01*
X138914355Y-86352269D01*
X138914354Y-86352267D01*
X138902144Y-86336355D01*
X138893674Y-86325316D01*
X138825474Y-86236435D01*
X138709643Y-86147555D01*
X138709641Y-86147554D01*
X138574753Y-86091681D01*
X138430003Y-86072625D01*
X138429997Y-86072625D01*
X138285249Y-86091680D01*
X138150359Y-86147554D01*
X138150357Y-86147555D01*
X138034525Y-86236435D01*
X137945645Y-86352267D01*
X137945644Y-86352269D01*
X137889770Y-86487159D01*
X137870715Y-86631906D01*
X137870715Y-86631913D01*
X137889771Y-86776663D01*
X137945644Y-86911551D01*
X137945645Y-86911553D01*
X138034527Y-87027385D01*
X138077635Y-87060463D01*
X138092560Y-87086313D01*
X138089925Y-87106329D01*
X138041338Y-87223626D01*
X138022283Y-87368373D01*
X138022283Y-87368380D01*
X138032483Y-87445862D01*
X138024758Y-87474694D01*
X137998907Y-87489618D01*
X137978892Y-87486983D01*
X137939753Y-87470771D01*
X137795003Y-87451715D01*
X137794997Y-87451715D01*
X137650249Y-87470770D01*
X137515359Y-87526644D01*
X137515357Y-87526645D01*
X137399525Y-87615525D01*
X137310645Y-87731357D01*
X137310644Y-87731359D01*
X137254770Y-87866249D01*
X137235715Y-88010996D01*
X137235715Y-88011003D01*
X120025900Y-88011003D01*
X120025900Y-85852003D01*
X125017215Y-85852003D01*
X125036271Y-85996753D01*
X125092144Y-86131641D01*
X125092145Y-86131643D01*
X125181025Y-86247474D01*
X125269906Y-86315674D01*
X125296857Y-86336355D01*
X125335277Y-86352269D01*
X125431746Y-86392228D01*
X125576497Y-86411285D01*
X125576500Y-86411285D01*
X125576503Y-86411285D01*
X125685065Y-86396992D01*
X125721254Y-86392228D01*
X125856143Y-86336355D01*
X125971974Y-86247474D01*
X126060855Y-86131643D01*
X126116728Y-85996754D01*
X126124943Y-85934354D01*
X126135785Y-85852003D01*
X126135785Y-85851996D01*
X126116729Y-85707249D01*
X126113461Y-85699359D01*
X126060855Y-85572358D01*
X125983083Y-85471003D01*
X125971974Y-85456525D01*
X125963474Y-85450003D01*
X138920715Y-85450003D01*
X138939771Y-85594753D01*
X138995644Y-85729641D01*
X138995645Y-85729643D01*
X139084525Y-85845474D01*
X139173406Y-85913674D01*
X139200357Y-85934355D01*
X139308130Y-85978996D01*
X139335246Y-85990228D01*
X139479997Y-86009285D01*
X139480000Y-86009285D01*
X139480003Y-86009285D01*
X139588565Y-85994992D01*
X139624754Y-85990228D01*
X139759643Y-85934355D01*
X139875474Y-85845474D01*
X139932003Y-85771804D01*
X139957852Y-85756881D01*
X139986685Y-85764606D01*
X139993881Y-85771802D01*
X140012371Y-85795898D01*
X140066525Y-85866474D01*
X140154988Y-85934354D01*
X140182357Y-85955355D01*
X140282303Y-85996754D01*
X140317246Y-86011228D01*
X140461997Y-86030285D01*
X140462000Y-86030285D01*
X140462003Y-86030285D01*
X140570565Y-86015992D01*
X140606754Y-86011228D01*
X140741643Y-85955355D01*
X140857474Y-85866474D01*
X140946355Y-85750643D01*
X141002228Y-85615754D01*
X141012818Y-85535313D01*
X141021285Y-85471003D01*
X141021285Y-85470996D01*
X141002229Y-85326249D01*
X141002228Y-85326246D01*
X140946355Y-85191358D01*
X140918820Y-85155474D01*
X140857474Y-85075525D01*
X140741643Y-84986645D01*
X140741641Y-84986644D01*
X140606753Y-84930771D01*
X140462003Y-84911715D01*
X140461997Y-84911715D01*
X140317249Y-84930770D01*
X140182359Y-84986644D01*
X140182357Y-84986645D01*
X140066525Y-85075526D01*
X140009997Y-85149194D01*
X139984146Y-85164118D01*
X139955314Y-85156393D01*
X139948115Y-85149194D01*
X139875474Y-85054525D01*
X139759643Y-84965645D01*
X139759641Y-84965644D01*
X139624753Y-84909771D01*
X139480003Y-84890715D01*
X139479997Y-84890715D01*
X139335249Y-84909770D01*
X139200359Y-84965644D01*
X139200357Y-84965645D01*
X139084525Y-85054525D01*
X138995645Y-85170357D01*
X138995644Y-85170359D01*
X138939770Y-85305249D01*
X138920715Y-85449996D01*
X138920715Y-85450003D01*
X125963474Y-85450003D01*
X125856143Y-85367645D01*
X125856141Y-85367644D01*
X125721253Y-85311771D01*
X125576503Y-85292715D01*
X125576497Y-85292715D01*
X125431749Y-85311770D01*
X125296859Y-85367644D01*
X125296857Y-85367645D01*
X125181025Y-85456525D01*
X125092145Y-85572357D01*
X125092144Y-85572359D01*
X125036270Y-85707249D01*
X125017215Y-85851996D01*
X125017215Y-85852003D01*
X120025900Y-85852003D01*
X120025900Y-83581413D01*
X129229305Y-83581413D01*
X129248361Y-83726163D01*
X129304234Y-83861051D01*
X129304235Y-83861053D01*
X129393115Y-83976884D01*
X129468236Y-84034526D01*
X129508947Y-84065765D01*
X129571690Y-84091754D01*
X129643836Y-84121638D01*
X129788587Y-84140695D01*
X129788590Y-84140695D01*
X129788593Y-84140695D01*
X129897155Y-84126402D01*
X129933344Y-84121638D01*
X130068233Y-84065765D01*
X130184064Y-83976884D01*
X130272945Y-83861053D01*
X130328818Y-83726164D01*
X130344262Y-83608853D01*
X130347875Y-83581413D01*
X130347875Y-83581408D01*
X130341997Y-83536766D01*
X130349722Y-83507934D01*
X130365736Y-83495645D01*
X130490805Y-83443840D01*
X130606636Y-83354959D01*
X130695517Y-83239128D01*
X130751390Y-83104239D01*
X130760012Y-83038749D01*
X130770447Y-82959488D01*
X130770447Y-82959481D01*
X130751391Y-82814734D01*
X130751390Y-82814731D01*
X130695517Y-82679843D01*
X130664123Y-82638930D01*
X130606636Y-82564010D01*
X130550587Y-82521003D01*
X130536718Y-82510360D01*
X130521795Y-82484512D01*
X130529520Y-82455679D01*
X130536716Y-82448482D01*
X130592766Y-82405474D01*
X130681647Y-82289643D01*
X130722077Y-82192035D01*
X135252747Y-82192035D01*
X135271803Y-82336785D01*
X135327676Y-82471673D01*
X135327677Y-82471675D01*
X135416557Y-82587506D01*
X135483574Y-82638930D01*
X135532389Y-82676387D01*
X135608287Y-82707825D01*
X135667278Y-82732260D01*
X135812029Y-82751317D01*
X135812032Y-82751317D01*
X135812035Y-82751317D01*
X135932263Y-82735489D01*
X135961095Y-82743214D01*
X135976019Y-82769064D01*
X135978240Y-82785939D01*
X136034115Y-82920832D01*
X136034149Y-82920891D01*
X136034153Y-82920924D01*
X136035093Y-82923193D01*
X136034485Y-82923444D01*
X136038044Y-82950485D01*
X136024115Y-82971329D01*
X135974422Y-83009460D01*
X135885540Y-83125294D01*
X135885539Y-83125296D01*
X135829665Y-83260186D01*
X135810610Y-83404933D01*
X135810610Y-83404940D01*
X135829666Y-83549690D01*
X135885539Y-83684578D01*
X135885540Y-83684580D01*
X135974420Y-83800411D01*
X136063300Y-83868611D01*
X136090252Y-83889292D01*
X136200164Y-83934819D01*
X136225141Y-83945165D01*
X136369892Y-83964222D01*
X136369895Y-83964222D01*
X136369898Y-83964222D01*
X136479875Y-83949743D01*
X136514649Y-83945165D01*
X136649538Y-83889292D01*
X136765369Y-83800411D01*
X136854250Y-83684580D01*
X136864662Y-83659443D01*
X141555483Y-83659443D01*
X141574539Y-83804193D01*
X141630412Y-83939081D01*
X141630413Y-83939083D01*
X141719293Y-84054914D01*
X141758970Y-84085359D01*
X141835125Y-84143795D01*
X141946357Y-84189869D01*
X141970014Y-84199668D01*
X142114765Y-84218725D01*
X142114768Y-84218725D01*
X142114771Y-84218725D01*
X142223333Y-84204432D01*
X142259522Y-84199668D01*
X142394411Y-84143795D01*
X142510242Y-84054914D01*
X142590943Y-83949742D01*
X142616794Y-83934819D01*
X142645626Y-83942544D01*
X142652825Y-83949743D01*
X142733525Y-84054914D01*
X142758399Y-84074000D01*
X142842649Y-84138648D01*
X142857573Y-84164497D01*
X142849848Y-84193330D01*
X142833832Y-84205619D01*
X142752269Y-84239404D01*
X142752267Y-84239405D01*
X142636435Y-84328285D01*
X142547555Y-84444117D01*
X142547554Y-84444119D01*
X142491680Y-84579009D01*
X142472625Y-84723756D01*
X142472625Y-84723763D01*
X142491681Y-84868513D01*
X142547554Y-85003401D01*
X142547555Y-85003403D01*
X142636435Y-85119234D01*
X142703063Y-85170359D01*
X142752267Y-85208115D01*
X142839758Y-85244355D01*
X142887156Y-85263988D01*
X142984337Y-85276782D01*
X143010188Y-85291706D01*
X143017913Y-85310357D01*
X143029770Y-85400420D01*
X143085644Y-85535311D01*
X143085645Y-85535313D01*
X143174525Y-85651144D01*
X143237358Y-85699357D01*
X143290357Y-85740025D01*
X143349701Y-85764606D01*
X143425246Y-85795898D01*
X143569997Y-85814955D01*
X143570000Y-85814955D01*
X143570003Y-85814955D01*
X143678565Y-85800662D01*
X143714754Y-85795898D01*
X143849643Y-85740025D01*
X143965474Y-85651144D01*
X143965475Y-85651142D01*
X143965477Y-85651141D01*
X143967282Y-85649337D01*
X143968421Y-85650476D01*
X143989885Y-85638067D01*
X144018722Y-85645774D01*
X144022501Y-85649553D01*
X144022718Y-85649337D01*
X144024522Y-85651141D01*
X144024526Y-85651144D01*
X144140357Y-85740025D01*
X144199701Y-85764606D01*
X144275246Y-85795898D01*
X144419997Y-85814955D01*
X144420000Y-85814955D01*
X144420003Y-85814955D01*
X144528565Y-85800662D01*
X144564754Y-85795898D01*
X144699643Y-85740025D01*
X144815474Y-85651144D01*
X144904355Y-85535313D01*
X144930993Y-85471003D01*
X147395715Y-85471003D01*
X147414771Y-85615753D01*
X147470644Y-85750641D01*
X147470645Y-85750643D01*
X147559525Y-85866474D01*
X147647988Y-85934354D01*
X147675357Y-85955355D01*
X147775303Y-85996754D01*
X147810246Y-86011228D01*
X147954997Y-86030285D01*
X147955000Y-86030285D01*
X147955003Y-86030285D01*
X148063565Y-86015992D01*
X148099754Y-86011228D01*
X148177552Y-85979003D01*
X151967715Y-85979003D01*
X151986771Y-86123753D01*
X152042644Y-86258641D01*
X152042645Y-86258643D01*
X152131525Y-86374474D01*
X152220405Y-86442674D01*
X152247357Y-86463355D01*
X152304818Y-86487156D01*
X152382246Y-86519228D01*
X152526997Y-86538285D01*
X152527000Y-86538285D01*
X152527003Y-86538285D01*
X152635565Y-86523992D01*
X152671754Y-86519228D01*
X152806643Y-86463355D01*
X152922474Y-86374474D01*
X153011355Y-86258643D01*
X153067228Y-86123754D01*
X153086285Y-85979000D01*
X153086285Y-85978996D01*
X153067229Y-85834249D01*
X153059237Y-85814955D01*
X153011355Y-85699358D01*
X152964325Y-85638067D01*
X152922474Y-85583525D01*
X152806643Y-85494645D01*
X152806641Y-85494644D01*
X152671753Y-85438771D01*
X152527003Y-85419715D01*
X152526997Y-85419715D01*
X152382249Y-85438770D01*
X152247359Y-85494644D01*
X152247357Y-85494645D01*
X152131525Y-85583525D01*
X152042645Y-85699357D01*
X152042644Y-85699359D01*
X151986770Y-85834249D01*
X151967715Y-85978996D01*
X151967715Y-85979003D01*
X148177552Y-85979003D01*
X148234643Y-85955355D01*
X148350474Y-85866474D01*
X148439355Y-85750643D01*
X148495228Y-85615754D01*
X148505818Y-85535313D01*
X148514285Y-85471003D01*
X148514285Y-85470996D01*
X148495229Y-85326249D01*
X148495228Y-85326246D01*
X148439355Y-85191358D01*
X148411820Y-85155474D01*
X148350474Y-85075525D01*
X148234643Y-84986645D01*
X148234641Y-84986644D01*
X148099753Y-84930771D01*
X147955003Y-84911715D01*
X147954997Y-84911715D01*
X147810249Y-84930770D01*
X147675359Y-84986644D01*
X147675357Y-84986645D01*
X147559525Y-85075525D01*
X147470645Y-85191357D01*
X147470644Y-85191359D01*
X147414770Y-85326249D01*
X147395715Y-85470996D01*
X147395715Y-85471003D01*
X144930993Y-85471003D01*
X144960228Y-85400424D01*
X144971899Y-85311771D01*
X144979285Y-85255673D01*
X144979285Y-85255666D01*
X144960229Y-85110919D01*
X144930705Y-85039643D01*
X144904355Y-84976028D01*
X144853515Y-84909772D01*
X144815474Y-84860195D01*
X144699643Y-84771315D01*
X144699641Y-84771314D01*
X144564753Y-84715441D01*
X144420003Y-84696385D01*
X144419997Y-84696385D01*
X144275249Y-84715440D01*
X144140359Y-84771314D01*
X144140357Y-84771315D01*
X144024522Y-84860198D01*
X144022718Y-84862003D01*
X144021596Y-84860881D01*
X144000014Y-84873285D01*
X143971197Y-84865502D01*
X143967490Y-84861794D01*
X143967282Y-84862003D01*
X143965477Y-84860198D01*
X143849643Y-84771315D01*
X143849641Y-84771314D01*
X143714750Y-84715440D01*
X143617570Y-84702646D01*
X143591720Y-84687721D01*
X143583995Y-84669070D01*
X143572139Y-84579009D01*
X143572138Y-84579006D01*
X143516265Y-84444118D01*
X143455192Y-84364526D01*
X143427384Y-84328285D01*
X143318261Y-84244552D01*
X143303337Y-84218701D01*
X143311062Y-84189869D01*
X143327076Y-84177580D01*
X143408643Y-84143795D01*
X143524474Y-84054914D01*
X143607278Y-83947003D01*
X144601715Y-83947003D01*
X144620771Y-84091753D01*
X144676644Y-84226641D01*
X144676645Y-84226643D01*
X144765525Y-84342474D01*
X144793666Y-84364067D01*
X144881357Y-84431355D01*
X144999663Y-84480359D01*
X145016246Y-84487228D01*
X145160997Y-84506285D01*
X145161000Y-84506285D01*
X145161003Y-84506285D01*
X145269565Y-84491992D01*
X145305754Y-84487228D01*
X145440643Y-84431355D01*
X145556474Y-84342474D01*
X145645355Y-84226643D01*
X145671288Y-84164033D01*
X145692393Y-84142929D01*
X145722242Y-84142928D01*
X145738259Y-84155218D01*
X145772817Y-84200256D01*
X145830545Y-84244552D01*
X145888649Y-84289137D01*
X145983163Y-84328286D01*
X146023538Y-84345010D01*
X146168289Y-84364067D01*
X146168292Y-84364067D01*
X146168295Y-84364067D01*
X146276857Y-84349774D01*
X146313046Y-84345010D01*
X146447935Y-84289137D01*
X146563766Y-84200256D01*
X146609635Y-84140478D01*
X146635484Y-84125554D01*
X146664316Y-84133279D01*
X146676606Y-84149295D01*
X146708644Y-84226641D01*
X146708645Y-84226643D01*
X146797525Y-84342474D01*
X146825666Y-84364067D01*
X146913357Y-84431355D01*
X147031663Y-84480359D01*
X147048246Y-84487228D01*
X147192997Y-84506285D01*
X147193000Y-84506285D01*
X147193003Y-84506285D01*
X147301565Y-84491992D01*
X147337754Y-84487228D01*
X147472643Y-84431355D01*
X147474405Y-84430003D01*
X149140715Y-84430003D01*
X149159771Y-84574753D01*
X149215644Y-84709641D01*
X149215645Y-84709643D01*
X149304525Y-84825474D01*
X149352131Y-84862003D01*
X149420357Y-84914355D01*
X149544179Y-84965644D01*
X149555246Y-84970228D01*
X149699997Y-84989285D01*
X149700000Y-84989285D01*
X149700003Y-84989285D01*
X149808565Y-84974992D01*
X149844754Y-84970228D01*
X149979643Y-84914355D01*
X150018524Y-84884520D01*
X150047353Y-84876794D01*
X150073204Y-84891718D01*
X150078525Y-84902502D01*
X150078793Y-84902392D01*
X150135644Y-85039641D01*
X150135645Y-85039643D01*
X150224525Y-85155474D01*
X150313406Y-85223674D01*
X150340357Y-85244355D01*
X150454672Y-85291706D01*
X150475246Y-85300228D01*
X150619997Y-85319285D01*
X150620000Y-85319285D01*
X150620003Y-85319285D01*
X150728565Y-85304992D01*
X150764754Y-85300228D01*
X150899643Y-85244355D01*
X151015474Y-85155474D01*
X151104355Y-85039643D01*
X151160228Y-84904754D01*
X151170665Y-84825474D01*
X151179285Y-84760003D01*
X151179285Y-84759996D01*
X151160229Y-84615249D01*
X151145218Y-84579009D01*
X151104355Y-84480358D01*
X151065711Y-84429996D01*
X151015474Y-84364525D01*
X150899643Y-84275645D01*
X150899641Y-84275644D01*
X150764753Y-84219771D01*
X150620003Y-84200715D01*
X150619997Y-84200715D01*
X150475249Y-84219770D01*
X150340359Y-84275644D01*
X150340356Y-84275645D01*
X150301476Y-84305479D01*
X150272644Y-84313204D01*
X150246794Y-84298279D01*
X150241476Y-84287496D01*
X150241207Y-84287608D01*
X150195631Y-84177580D01*
X150184355Y-84150358D01*
X150125766Y-84074003D01*
X156310715Y-84074003D01*
X156329771Y-84218753D01*
X156385644Y-84353641D01*
X156385645Y-84353643D01*
X156474525Y-84469474D01*
X156563405Y-84537674D01*
X156590357Y-84558355D01*
X156725246Y-84614228D01*
X156869997Y-84633285D01*
X156870000Y-84633285D01*
X156870003Y-84633285D01*
X156978565Y-84618992D01*
X157014754Y-84614228D01*
X157149643Y-84558355D01*
X157265474Y-84469474D01*
X157354355Y-84353643D01*
X157410228Y-84218754D01*
X157419232Y-84150359D01*
X157429285Y-84074003D01*
X157429285Y-84073996D01*
X157410229Y-83929249D01*
X157393877Y-83889772D01*
X157354355Y-83794358D01*
X157302028Y-83726164D01*
X157265474Y-83678525D01*
X157149643Y-83589645D01*
X157149641Y-83589644D01*
X157014753Y-83533771D01*
X156870003Y-83514715D01*
X156869997Y-83514715D01*
X156725249Y-83533770D01*
X156590359Y-83589644D01*
X156590357Y-83589645D01*
X156474525Y-83678525D01*
X156385645Y-83794357D01*
X156385644Y-83794359D01*
X156329770Y-83929249D01*
X156310715Y-84073996D01*
X156310715Y-84074003D01*
X150125766Y-84074003D01*
X150095474Y-84034525D01*
X149979643Y-83945645D01*
X149979641Y-83945644D01*
X149844753Y-83889771D01*
X149700003Y-83870715D01*
X149699997Y-83870715D01*
X149555249Y-83889770D01*
X149420359Y-83945644D01*
X149420357Y-83945645D01*
X149304525Y-84034525D01*
X149215645Y-84150357D01*
X149215644Y-84150359D01*
X149159770Y-84285249D01*
X149140715Y-84429996D01*
X149140715Y-84430003D01*
X147474405Y-84430003D01*
X147588474Y-84342474D01*
X147677355Y-84226643D01*
X147733228Y-84091754D01*
X147752285Y-83947000D01*
X147752285Y-83946996D01*
X147733229Y-83802249D01*
X147729961Y-83794359D01*
X147677355Y-83667358D01*
X147632462Y-83608852D01*
X147588474Y-83551525D01*
X147472643Y-83462645D01*
X147472641Y-83462644D01*
X147337753Y-83406771D01*
X147193003Y-83387715D01*
X147192997Y-83387715D01*
X147048249Y-83406770D01*
X146913359Y-83462644D01*
X146913357Y-83462645D01*
X146797525Y-83551526D01*
X146751657Y-83611302D01*
X146725806Y-83626226D01*
X146696974Y-83618501D01*
X146684685Y-83602485D01*
X146663577Y-83551527D01*
X146652647Y-83525140D01*
X146604692Y-83462644D01*
X146563766Y-83409307D01*
X146447935Y-83320427D01*
X146447933Y-83320426D01*
X146313045Y-83264553D01*
X146168295Y-83245497D01*
X146168289Y-83245497D01*
X146023541Y-83264552D01*
X145888651Y-83320426D01*
X145888649Y-83320427D01*
X145772817Y-83409307D01*
X145683935Y-83525141D01*
X145658003Y-83587746D01*
X145636896Y-83608853D01*
X145607047Y-83608852D01*
X145591031Y-83596562D01*
X145556475Y-83551527D01*
X145556472Y-83551525D01*
X145440643Y-83462645D01*
X145440641Y-83462644D01*
X145305753Y-83406771D01*
X145161003Y-83387715D01*
X145160997Y-83387715D01*
X145016249Y-83406770D01*
X144881359Y-83462644D01*
X144881357Y-83462645D01*
X144765525Y-83551525D01*
X144676645Y-83667357D01*
X144676644Y-83667359D01*
X144620770Y-83802249D01*
X144601715Y-83946996D01*
X144601715Y-83947003D01*
X143607278Y-83947003D01*
X143613355Y-83939083D01*
X143669228Y-83804194D01*
X143679501Y-83726163D01*
X143688285Y-83659443D01*
X143688285Y-83659436D01*
X143669229Y-83514689D01*
X143661340Y-83495644D01*
X143613355Y-83379798D01*
X143567798Y-83320427D01*
X143524474Y-83263965D01*
X143408643Y-83175085D01*
X143408641Y-83175084D01*
X143273753Y-83119211D01*
X143129003Y-83100155D01*
X143128997Y-83100155D01*
X142984249Y-83119210D01*
X142849359Y-83175084D01*
X142849357Y-83175085D01*
X142733525Y-83263965D01*
X142652825Y-83369137D01*
X142626974Y-83384061D01*
X142598142Y-83376336D01*
X142590943Y-83369137D01*
X142510242Y-83263965D01*
X142394411Y-83175085D01*
X142394409Y-83175084D01*
X142259521Y-83119211D01*
X142114771Y-83100155D01*
X142114765Y-83100155D01*
X141970017Y-83119210D01*
X141835127Y-83175084D01*
X141835125Y-83175085D01*
X141719293Y-83263965D01*
X141630413Y-83379797D01*
X141630412Y-83379799D01*
X141574538Y-83514689D01*
X141555483Y-83659436D01*
X141555483Y-83659443D01*
X136864662Y-83659443D01*
X136910123Y-83549691D01*
X136915620Y-83507934D01*
X136929180Y-83404940D01*
X136929180Y-83404933D01*
X136910124Y-83260186D01*
X136910123Y-83260183D01*
X136854250Y-83125295D01*
X136854248Y-83125292D01*
X136854214Y-83125232D01*
X136854209Y-83125197D01*
X136853272Y-83122934D01*
X136853878Y-83122682D01*
X136850321Y-83095638D01*
X136864249Y-83074795D01*
X136913944Y-83036663D01*
X136934818Y-83009460D01*
X137002825Y-82920832D01*
X137058698Y-82785943D01*
X137072666Y-82679843D01*
X137077755Y-82641192D01*
X137077755Y-82641185D01*
X137058699Y-82496438D01*
X137035634Y-82440754D01*
X137002825Y-82361547D01*
X136977258Y-82328228D01*
X136952531Y-82296003D01*
X141426715Y-82296003D01*
X141445771Y-82440753D01*
X141501644Y-82575641D01*
X141501645Y-82575643D01*
X141590525Y-82691474D01*
X141636313Y-82726608D01*
X141706357Y-82780355D01*
X141719848Y-82785943D01*
X141841246Y-82836228D01*
X141985997Y-82855285D01*
X141986000Y-82855285D01*
X141986003Y-82855285D01*
X142094565Y-82840992D01*
X142130754Y-82836228D01*
X142265643Y-82780355D01*
X142381474Y-82691474D01*
X142412361Y-82651220D01*
X142438212Y-82636295D01*
X142458227Y-82638929D01*
X142548654Y-82676386D01*
X142578547Y-82688768D01*
X142723298Y-82707825D01*
X142723301Y-82707825D01*
X142723304Y-82707825D01*
X142831866Y-82693532D01*
X142868055Y-82688768D01*
X143002944Y-82632895D01*
X143118775Y-82544014D01*
X143207656Y-82428183D01*
X143263529Y-82293294D01*
X143277987Y-82183474D01*
X143282586Y-82148543D01*
X143282586Y-82148536D01*
X143263530Y-82003789D01*
X143234106Y-81932753D01*
X143207656Y-81868898D01*
X143170111Y-81819968D01*
X143145584Y-81788003D01*
X150062715Y-81788003D01*
X150081771Y-81932753D01*
X150137644Y-82067641D01*
X150137645Y-82067643D01*
X150226525Y-82183474D01*
X150307638Y-82245714D01*
X150342357Y-82272355D01*
X150477246Y-82328227D01*
X150477246Y-82328228D01*
X150621997Y-82347285D01*
X150622000Y-82347285D01*
X150622003Y-82347285D01*
X150730565Y-82332992D01*
X150766754Y-82328228D01*
X150901643Y-82272355D01*
X151017474Y-82183474D01*
X151106355Y-82067643D01*
X151162228Y-81932754D01*
X151171115Y-81865249D01*
X151181285Y-81788003D01*
X151181285Y-81787996D01*
X151162229Y-81643249D01*
X151162228Y-81643246D01*
X151116978Y-81534003D01*
X156412715Y-81534003D01*
X156431771Y-81678753D01*
X156487644Y-81813641D01*
X156487645Y-81813643D01*
X156576525Y-81929474D01*
X156665405Y-81997674D01*
X156692357Y-82018355D01*
X156827246Y-82074227D01*
X156827246Y-82074228D01*
X156971997Y-82093285D01*
X156972000Y-82093285D01*
X156972003Y-82093285D01*
X157080565Y-82078992D01*
X157116754Y-82074228D01*
X157251643Y-82018355D01*
X157367474Y-81929474D01*
X157456355Y-81813643D01*
X157512228Y-81678754D01*
X157522631Y-81599736D01*
X157531285Y-81534003D01*
X157531285Y-81533996D01*
X157512229Y-81389249D01*
X157490436Y-81336636D01*
X157456355Y-81254358D01*
X157408418Y-81191885D01*
X157367474Y-81138525D01*
X157251643Y-81049645D01*
X157251641Y-81049644D01*
X157116753Y-80993771D01*
X156972003Y-80974715D01*
X156971997Y-80974715D01*
X156827249Y-80993770D01*
X156692359Y-81049644D01*
X156692357Y-81049645D01*
X156576525Y-81138525D01*
X156487645Y-81254357D01*
X156487644Y-81254359D01*
X156431770Y-81389249D01*
X156412715Y-81533996D01*
X156412715Y-81534003D01*
X151116978Y-81534003D01*
X151106355Y-81508358D01*
X151078091Y-81471523D01*
X151017474Y-81392525D01*
X150901643Y-81303645D01*
X150901641Y-81303644D01*
X150766753Y-81247771D01*
X150622003Y-81228715D01*
X150621997Y-81228715D01*
X150477249Y-81247770D01*
X150342359Y-81303644D01*
X150342357Y-81303645D01*
X150226525Y-81392525D01*
X150137645Y-81508357D01*
X150137644Y-81508359D01*
X150081770Y-81643249D01*
X150062715Y-81787996D01*
X150062715Y-81788003D01*
X143145584Y-81788003D01*
X143118775Y-81753065D01*
X143002944Y-81664185D01*
X143002942Y-81664184D01*
X142970371Y-81650692D01*
X142949264Y-81629585D01*
X142949265Y-81599736D01*
X142954356Y-81590919D01*
X142978351Y-81559648D01*
X142978350Y-81559648D01*
X142978355Y-81559643D01*
X143034228Y-81424754D01*
X143050172Y-81303645D01*
X143053285Y-81280003D01*
X143053285Y-81279996D01*
X143034229Y-81135249D01*
X143023821Y-81110121D01*
X142978355Y-81000358D01*
X142955334Y-80970357D01*
X142889474Y-80884525D01*
X142773643Y-80795645D01*
X142773641Y-80795644D01*
X142638753Y-80739771D01*
X142494003Y-80720715D01*
X142493997Y-80720715D01*
X142349249Y-80739770D01*
X142214359Y-80795644D01*
X142214357Y-80795645D01*
X142098525Y-80884525D01*
X142009645Y-81000357D01*
X142009644Y-81000359D01*
X141953770Y-81135249D01*
X141934715Y-81279996D01*
X141934715Y-81280003D01*
X141953771Y-81424753D01*
X142009644Y-81559641D01*
X142009645Y-81559643D01*
X142098526Y-81675474D01*
X142102695Y-81678673D01*
X142117621Y-81704522D01*
X142109897Y-81733355D01*
X142084048Y-81748281D01*
X142073865Y-81748281D01*
X141986003Y-81736715D01*
X141985997Y-81736715D01*
X141841249Y-81755770D01*
X141706359Y-81811644D01*
X141706357Y-81811645D01*
X141590525Y-81900525D01*
X141501645Y-82016357D01*
X141501644Y-82016359D01*
X141445770Y-82151249D01*
X141426715Y-82295996D01*
X141426715Y-82296003D01*
X136952531Y-82296003D01*
X136913944Y-82245714D01*
X136798113Y-82156834D01*
X136798111Y-82156833D01*
X136663223Y-82100960D01*
X136518473Y-82081904D01*
X136518467Y-82081904D01*
X136398238Y-82097732D01*
X136369406Y-82090007D01*
X136354482Y-82064156D01*
X136354481Y-82064155D01*
X136352260Y-82047278D01*
X136296387Y-81912390D01*
X136263015Y-81868899D01*
X136207506Y-81796557D01*
X136091675Y-81707677D01*
X136091673Y-81707676D01*
X135956785Y-81651803D01*
X135812035Y-81632747D01*
X135812029Y-81632747D01*
X135667281Y-81651802D01*
X135532391Y-81707676D01*
X135532389Y-81707677D01*
X135416557Y-81796557D01*
X135327677Y-81912389D01*
X135327676Y-81912391D01*
X135271802Y-82047281D01*
X135252747Y-82192028D01*
X135252747Y-82192035D01*
X130722077Y-82192035D01*
X130725176Y-82184553D01*
X130746282Y-82163447D01*
X130767789Y-82162037D01*
X130767894Y-82161240D01*
X130915180Y-82180630D01*
X130915183Y-82180630D01*
X130915186Y-82180630D01*
X131045702Y-82163447D01*
X131059937Y-82161573D01*
X131194826Y-82105700D01*
X131310657Y-82016819D01*
X131399538Y-81900988D01*
X131455411Y-81766099D01*
X131471896Y-81640875D01*
X131486820Y-81615026D01*
X131505469Y-81607302D01*
X131585709Y-81596739D01*
X131720598Y-81540866D01*
X131836429Y-81451985D01*
X131925310Y-81336154D01*
X131961760Y-81248152D01*
X131982865Y-81227048D01*
X132012710Y-81227047D01*
X132079893Y-81254875D01*
X132079896Y-81254875D01*
X132079898Y-81254876D01*
X132079895Y-81254876D01*
X132224644Y-81273932D01*
X132224647Y-81273932D01*
X132224650Y-81273932D01*
X132333212Y-81259639D01*
X132369401Y-81254875D01*
X132381163Y-81250003D01*
X136220715Y-81250003D01*
X136239771Y-81394753D01*
X136295644Y-81529641D01*
X136295645Y-81529643D01*
X136384525Y-81645474D01*
X136465590Y-81707677D01*
X136500357Y-81734355D01*
X136629867Y-81788000D01*
X136635246Y-81790228D01*
X136779997Y-81809285D01*
X136780000Y-81809285D01*
X136780003Y-81809285D01*
X136888565Y-81794992D01*
X136924754Y-81790228D01*
X137059643Y-81734355D01*
X137175474Y-81645474D01*
X137264355Y-81529643D01*
X137320228Y-81394754D01*
X137327879Y-81336636D01*
X137339285Y-81250003D01*
X137339285Y-81249996D01*
X137331635Y-81191885D01*
X138036597Y-81191885D01*
X138055653Y-81336635D01*
X138111526Y-81471523D01*
X138111527Y-81471525D01*
X138200407Y-81587356D01*
X138276148Y-81645474D01*
X138316239Y-81676237D01*
X138392142Y-81707677D01*
X138451128Y-81732110D01*
X138595879Y-81751167D01*
X138595882Y-81751167D01*
X138595885Y-81751167D01*
X138723583Y-81734355D01*
X138740636Y-81732110D01*
X138875525Y-81676237D01*
X138991356Y-81587356D01*
X139080237Y-81471525D01*
X139136110Y-81336636D01*
X139150318Y-81228715D01*
X139155167Y-81191885D01*
X139155167Y-81191878D01*
X139136111Y-81047131D01*
X139116737Y-81000358D01*
X139080237Y-80912240D01*
X139039692Y-80859401D01*
X138991356Y-80796407D01*
X138875525Y-80707527D01*
X138875523Y-80707526D01*
X138740635Y-80651653D01*
X138595885Y-80632597D01*
X138595879Y-80632597D01*
X138451131Y-80651652D01*
X138316241Y-80707526D01*
X138316239Y-80707527D01*
X138200407Y-80796407D01*
X138111527Y-80912239D01*
X138111526Y-80912241D01*
X138055652Y-81047131D01*
X138036597Y-81191878D01*
X138036597Y-81191885D01*
X137331635Y-81191885D01*
X137320229Y-81105249D01*
X137310233Y-81081117D01*
X137264355Y-80970358D01*
X137243674Y-80943405D01*
X137175474Y-80854525D01*
X137059643Y-80765645D01*
X137059641Y-80765644D01*
X136924753Y-80709771D01*
X136780003Y-80690715D01*
X136779997Y-80690715D01*
X136635249Y-80709770D01*
X136500359Y-80765644D01*
X136500357Y-80765645D01*
X136384525Y-80854525D01*
X136295645Y-80970357D01*
X136295644Y-80970359D01*
X136239770Y-81105249D01*
X136220715Y-81249996D01*
X136220715Y-81250003D01*
X132381163Y-81250003D01*
X132504290Y-81199002D01*
X132620121Y-81110121D01*
X132709002Y-80994290D01*
X132764875Y-80859401D01*
X132775740Y-80776870D01*
X132783932Y-80714650D01*
X132783932Y-80714643D01*
X132764876Y-80569896D01*
X132764875Y-80569893D01*
X132709002Y-80435005D01*
X132688321Y-80408052D01*
X132620121Y-80319172D01*
X132504290Y-80230292D01*
X132504288Y-80230291D01*
X132369400Y-80174418D01*
X132224650Y-80155362D01*
X132224644Y-80155362D01*
X132079896Y-80174417D01*
X131945006Y-80230291D01*
X131945004Y-80230292D01*
X131829172Y-80319172D01*
X131740292Y-80435004D01*
X131740291Y-80435006D01*
X131703841Y-80523002D01*
X131682734Y-80544109D01*
X131652885Y-80544108D01*
X131585708Y-80516282D01*
X131440958Y-80497226D01*
X131440952Y-80497226D01*
X131296204Y-80516281D01*
X131161314Y-80572155D01*
X131161312Y-80572156D01*
X131045480Y-80661036D01*
X130956600Y-80776868D01*
X130956599Y-80776870D01*
X130900725Y-80911760D01*
X130884241Y-81036977D01*
X130869317Y-81062828D01*
X130850666Y-81070553D01*
X130770432Y-81081115D01*
X130635542Y-81136989D01*
X130635540Y-81136990D01*
X130519708Y-81225870D01*
X130430828Y-81341702D01*
X130430827Y-81341704D01*
X130387298Y-81446791D01*
X130366191Y-81467897D01*
X130344685Y-81469310D01*
X130344581Y-81470105D01*
X130197295Y-81450715D01*
X130197289Y-81450715D01*
X130052541Y-81469770D01*
X129917651Y-81525644D01*
X129917649Y-81525645D01*
X129801817Y-81614525D01*
X129712937Y-81730357D01*
X129712936Y-81730359D01*
X129657062Y-81865249D01*
X129638007Y-82009996D01*
X129638007Y-82010003D01*
X129657063Y-82154753D01*
X129712936Y-82289641D01*
X129712937Y-82289643D01*
X129801817Y-82405474D01*
X129831410Y-82428181D01*
X129871734Y-82459123D01*
X129886658Y-82484972D01*
X129878933Y-82513805D01*
X129871734Y-82521003D01*
X129815689Y-82564008D01*
X129726807Y-82679842D01*
X129726806Y-82679844D01*
X129670932Y-82814734D01*
X129651877Y-82959481D01*
X129651877Y-82959488D01*
X129657754Y-83004130D01*
X129650029Y-83032962D01*
X129634013Y-83045251D01*
X129508949Y-83097054D01*
X129508947Y-83097055D01*
X129393115Y-83185935D01*
X129304235Y-83301767D01*
X129304234Y-83301769D01*
X129248360Y-83436659D01*
X129229305Y-83581406D01*
X129229305Y-83581413D01*
X120025900Y-83581413D01*
X120025900Y-78781913D01*
X141299715Y-78781913D01*
X141318771Y-78926663D01*
X141374644Y-79061551D01*
X141374645Y-79061553D01*
X141463525Y-79177384D01*
X141523474Y-79223384D01*
X141579357Y-79266265D01*
X141690411Y-79312265D01*
X141714246Y-79322138D01*
X141858997Y-79341195D01*
X141859000Y-79341195D01*
X141859003Y-79341195D01*
X141967565Y-79326902D01*
X142003754Y-79322138D01*
X142138643Y-79266265D01*
X142244511Y-79185028D01*
X142273342Y-79177303D01*
X142299192Y-79192227D01*
X142319461Y-79218642D01*
X142357231Y-79267865D01*
X142415096Y-79312266D01*
X142473063Y-79356746D01*
X142541504Y-79385095D01*
X142562610Y-79406201D01*
X142562610Y-79436051D01*
X142510030Y-79562989D01*
X142490975Y-79707736D01*
X142490975Y-79707743D01*
X142510031Y-79852493D01*
X142565904Y-79987381D01*
X142565905Y-79987383D01*
X142654785Y-80103214D01*
X142722746Y-80155362D01*
X142770617Y-80192095D01*
X142905506Y-80247968D01*
X143050257Y-80267025D01*
X143050260Y-80267025D01*
X143050263Y-80267025D01*
X143158825Y-80252732D01*
X143195014Y-80247968D01*
X143329903Y-80192095D01*
X143445734Y-80103214D01*
X143534615Y-79987383D01*
X143590488Y-79852494D01*
X143609545Y-79707740D01*
X143609545Y-79707736D01*
X143590489Y-79562989D01*
X143590488Y-79562986D01*
X143534615Y-79428098D01*
X143513934Y-79401145D01*
X143445734Y-79312265D01*
X143329903Y-79223385D01*
X143329901Y-79223384D01*
X143261462Y-79195035D01*
X143240356Y-79173928D01*
X143240356Y-79144079D01*
X143254474Y-79109996D01*
X143292934Y-79017145D01*
X143311991Y-78872391D01*
X143311991Y-78872387D01*
X143292935Y-78727640D01*
X143292934Y-78727637D01*
X143237061Y-78592749D01*
X143216380Y-78565797D01*
X143148180Y-78476916D01*
X143032349Y-78388036D01*
X143032347Y-78388035D01*
X142897459Y-78332162D01*
X142752709Y-78313106D01*
X142752703Y-78313106D01*
X142607955Y-78332161D01*
X142473065Y-78388035D01*
X142473063Y-78388036D01*
X142367195Y-78469272D01*
X142338362Y-78476997D01*
X142312513Y-78462073D01*
X142268530Y-78404754D01*
X142254474Y-78386435D01*
X142138643Y-78297555D01*
X142138641Y-78297554D01*
X142047986Y-78260003D01*
X146950715Y-78260003D01*
X146969771Y-78404753D01*
X147024668Y-78537285D01*
X147025645Y-78539643D01*
X147114526Y-78655474D01*
X147130988Y-78668106D01*
X147145911Y-78693954D01*
X147138186Y-78722786D01*
X147055648Y-78830353D01*
X147055644Y-78830359D01*
X146999770Y-78965249D01*
X146980715Y-79109996D01*
X146980715Y-79110003D01*
X146999771Y-79254753D01*
X147055644Y-79389641D01*
X147055645Y-79389643D01*
X147144525Y-79505474D01*
X147219476Y-79562986D01*
X147260357Y-79594355D01*
X147395246Y-79650227D01*
X147395246Y-79650228D01*
X147539997Y-79669285D01*
X147540000Y-79669285D01*
X147540003Y-79669285D01*
X147648565Y-79654992D01*
X147684754Y-79650228D01*
X147819643Y-79594355D01*
X147935474Y-79505474D01*
X148024355Y-79389643D01*
X148080228Y-79254754D01*
X148090414Y-79177384D01*
X148099285Y-79110003D01*
X148099285Y-79109996D01*
X148080229Y-78965249D01*
X148080228Y-78965246D01*
X148024355Y-78830358D01*
X147945537Y-78727640D01*
X147935475Y-78714527D01*
X147919011Y-78701893D01*
X147904087Y-78676042D01*
X147911812Y-78647213D01*
X147994355Y-78539643D01*
X148050228Y-78404754D01*
X148069285Y-78260000D01*
X148069285Y-78259996D01*
X148050229Y-78115249D01*
X147994355Y-77980359D01*
X147994354Y-77980357D01*
X147992546Y-77978000D01*
X147905474Y-77864526D01*
X147905473Y-77864525D01*
X147869242Y-77836723D01*
X147854318Y-77810873D01*
X147862044Y-77782041D01*
X147869243Y-77774842D01*
X147931114Y-77727367D01*
X148019995Y-77611536D01*
X148075868Y-77476647D01*
X148085776Y-77401386D01*
X148094925Y-77331896D01*
X148094925Y-77331889D01*
X148075869Y-77187142D01*
X148060336Y-77149643D01*
X148048782Y-77121748D01*
X148550412Y-77121748D01*
X148569468Y-77266498D01*
X148625341Y-77401386D01*
X148625342Y-77401388D01*
X148714222Y-77517219D01*
X148803103Y-77585419D01*
X148830054Y-77606100D01*
X148964942Y-77661972D01*
X148964943Y-77661973D01*
X149109694Y-77681030D01*
X149109697Y-77681030D01*
X149109700Y-77681030D01*
X149218262Y-77666737D01*
X149254451Y-77661973D01*
X149389340Y-77606100D01*
X149505171Y-77517219D01*
X149594052Y-77401388D01*
X149649925Y-77266499D01*
X149659408Y-77194466D01*
X149668982Y-77121748D01*
X149668982Y-77121741D01*
X149649926Y-76976994D01*
X149645777Y-76966978D01*
X149594052Y-76842103D01*
X149509295Y-76731645D01*
X149505171Y-76726270D01*
X149389340Y-76637390D01*
X149389338Y-76637389D01*
X149254450Y-76581516D01*
X149109700Y-76562460D01*
X149109694Y-76562460D01*
X148964946Y-76581515D01*
X148830056Y-76637389D01*
X148830054Y-76637390D01*
X148714222Y-76726270D01*
X148625342Y-76842102D01*
X148625341Y-76842104D01*
X148569467Y-76976994D01*
X148550412Y-77121741D01*
X148550412Y-77121748D01*
X148048782Y-77121748D01*
X148019995Y-77052251D01*
X147962449Y-76977256D01*
X147954725Y-76948426D01*
X147962451Y-76929774D01*
X148016261Y-76859648D01*
X148016260Y-76859648D01*
X148016265Y-76859643D01*
X148072138Y-76724754D01*
X148078587Y-76675770D01*
X148091195Y-76580003D01*
X148091195Y-76579996D01*
X148072139Y-76435249D01*
X148051592Y-76385644D01*
X148032687Y-76340003D01*
X151790715Y-76340003D01*
X151809771Y-76484753D01*
X151865644Y-76619641D01*
X151865645Y-76619643D01*
X151954525Y-76735474D01*
X152043405Y-76803674D01*
X152070357Y-76824355D01*
X152180561Y-76870003D01*
X152205246Y-76880228D01*
X152349997Y-76899285D01*
X152350000Y-76899285D01*
X152350003Y-76899285D01*
X152458565Y-76884992D01*
X152494754Y-76880228D01*
X152519439Y-76870003D01*
X156170715Y-76870003D01*
X156189771Y-77014753D01*
X156245644Y-77149641D01*
X156245645Y-77149643D01*
X156334525Y-77265474D01*
X156421079Y-77331889D01*
X156450357Y-77354355D01*
X156585246Y-77410227D01*
X156585246Y-77410228D01*
X156729997Y-77429285D01*
X156730000Y-77429285D01*
X156730003Y-77429285D01*
X156838565Y-77414992D01*
X156874754Y-77410228D01*
X157009643Y-77354355D01*
X157125474Y-77265474D01*
X157214355Y-77149643D01*
X157270228Y-77014754D01*
X157281416Y-76929774D01*
X157289285Y-76870003D01*
X157289285Y-76869996D01*
X157270229Y-76725249D01*
X157270024Y-76724753D01*
X157214355Y-76590358D01*
X157192948Y-76562460D01*
X157125474Y-76474525D01*
X157009643Y-76385645D01*
X157009641Y-76385644D01*
X156874753Y-76329771D01*
X156730003Y-76310715D01*
X156729997Y-76310715D01*
X156585249Y-76329770D01*
X156450359Y-76385644D01*
X156450357Y-76385645D01*
X156334525Y-76474525D01*
X156245645Y-76590357D01*
X156245644Y-76590359D01*
X156189770Y-76725249D01*
X156170715Y-76869996D01*
X156170715Y-76870003D01*
X152519439Y-76870003D01*
X152629643Y-76824355D01*
X152745474Y-76735474D01*
X152834355Y-76619643D01*
X152890228Y-76484754D01*
X152896746Y-76435246D01*
X152909285Y-76340003D01*
X152909285Y-76339996D01*
X152890229Y-76195249D01*
X152890228Y-76195246D01*
X152834355Y-76060358D01*
X152803936Y-76020715D01*
X152745474Y-75944525D01*
X152629643Y-75855645D01*
X152629641Y-75855644D01*
X152494753Y-75799771D01*
X152350003Y-75780715D01*
X152349997Y-75780715D01*
X152205249Y-75799770D01*
X152070359Y-75855644D01*
X152070357Y-75855645D01*
X151954525Y-75944525D01*
X151865645Y-76060357D01*
X151865644Y-76060359D01*
X151809770Y-76195249D01*
X151790715Y-76339996D01*
X151790715Y-76340003D01*
X148032687Y-76340003D01*
X148016265Y-76300358D01*
X147957401Y-76223645D01*
X147927384Y-76184525D01*
X147811553Y-76095645D01*
X147811551Y-76095644D01*
X147676663Y-76039771D01*
X147531913Y-76020715D01*
X147531907Y-76020715D01*
X147387159Y-76039770D01*
X147252269Y-76095644D01*
X147252267Y-76095645D01*
X147136435Y-76184525D01*
X147047555Y-76300357D01*
X147047554Y-76300359D01*
X146991680Y-76435249D01*
X146972625Y-76579996D01*
X146972625Y-76580003D01*
X146991681Y-76724753D01*
X147047554Y-76859641D01*
X147047555Y-76859643D01*
X147105098Y-76934635D01*
X147112823Y-76963468D01*
X147105098Y-76982118D01*
X147051288Y-77052246D01*
X147051284Y-77052252D01*
X146995410Y-77187142D01*
X146976355Y-77331889D01*
X146976355Y-77331896D01*
X146995411Y-77476646D01*
X147051284Y-77611534D01*
X147051285Y-77611536D01*
X147140165Y-77727367D01*
X147176397Y-77755168D01*
X147191321Y-77781018D01*
X147183596Y-77809851D01*
X147176397Y-77817050D01*
X147114525Y-77864525D01*
X147025645Y-77980357D01*
X147025644Y-77980359D01*
X146969770Y-78115249D01*
X146950715Y-78259996D01*
X146950715Y-78260003D01*
X142047986Y-78260003D01*
X142003753Y-78241681D01*
X141859003Y-78222625D01*
X141858997Y-78222625D01*
X141714249Y-78241680D01*
X141579359Y-78297554D01*
X141579357Y-78297555D01*
X141463525Y-78386435D01*
X141374645Y-78502267D01*
X141374644Y-78502269D01*
X141318770Y-78637159D01*
X141299715Y-78781906D01*
X141299715Y-78781913D01*
X120025900Y-78781913D01*
X120025900Y-77978003D01*
X136092715Y-77978003D01*
X136111771Y-78122753D01*
X136167644Y-78257641D01*
X136167645Y-78257643D01*
X136256525Y-78373474D01*
X136345406Y-78441674D01*
X136372357Y-78462355D01*
X136468718Y-78502269D01*
X136507246Y-78518228D01*
X136651997Y-78537285D01*
X136652000Y-78537285D01*
X136652003Y-78537285D01*
X136760565Y-78522992D01*
X136796754Y-78518228D01*
X136931643Y-78462355D01*
X137047474Y-78373474D01*
X137136355Y-78257643D01*
X137192228Y-78122754D01*
X137196992Y-78086565D01*
X137211285Y-77978003D01*
X137211285Y-77977996D01*
X137192229Y-77833249D01*
X137185519Y-77817050D01*
X137136355Y-77698358D01*
X137136352Y-77698355D01*
X137136351Y-77698352D01*
X137131655Y-77692232D01*
X137123929Y-77663400D01*
X137131655Y-77644748D01*
X137151513Y-77618868D01*
X137151512Y-77618868D01*
X137151517Y-77618863D01*
X137207390Y-77483974D01*
X137223612Y-77360753D01*
X137226447Y-77339223D01*
X137226447Y-77339216D01*
X137207391Y-77194469D01*
X137204355Y-77187139D01*
X137151517Y-77059578D01*
X137134553Y-77037470D01*
X137126829Y-77008640D01*
X137134557Y-76989985D01*
X137136355Y-76987643D01*
X137192228Y-76852754D01*
X137208172Y-76731645D01*
X137211285Y-76708003D01*
X137211285Y-76707996D01*
X137192229Y-76563249D01*
X137159715Y-76484754D01*
X137136355Y-76428358D01*
X137135123Y-76426753D01*
X141920652Y-76426753D01*
X141939708Y-76571503D01*
X141995581Y-76706391D01*
X141995582Y-76706393D01*
X142084462Y-76822224D01*
X142173343Y-76890424D01*
X142200294Y-76911105D01*
X142326709Y-76963468D01*
X142335183Y-76966978D01*
X142479934Y-76986035D01*
X142479937Y-76986035D01*
X142479940Y-76986035D01*
X142588502Y-76971742D01*
X142624691Y-76966978D01*
X142759580Y-76911105D01*
X142875411Y-76822224D01*
X142964292Y-76706393D01*
X143020165Y-76571504D01*
X143032932Y-76474526D01*
X143039222Y-76426753D01*
X143039222Y-76426746D01*
X143020166Y-76281999D01*
X142995995Y-76223645D01*
X142964292Y-76147108D01*
X142924803Y-76095645D01*
X142875411Y-76031275D01*
X142759580Y-75942395D01*
X142759578Y-75942394D01*
X142624690Y-75886521D01*
X142479940Y-75867465D01*
X142479934Y-75867465D01*
X142335186Y-75886520D01*
X142200296Y-75942394D01*
X142200294Y-75942395D01*
X142084462Y-76031275D01*
X141995582Y-76147107D01*
X141995581Y-76147109D01*
X141939707Y-76281999D01*
X141920652Y-76426746D01*
X141920652Y-76426753D01*
X137135123Y-76426753D01*
X137103580Y-76385645D01*
X137047474Y-76312525D01*
X136931643Y-76223645D01*
X136931641Y-76223644D01*
X136796753Y-76167771D01*
X136652003Y-76148715D01*
X136651997Y-76148715D01*
X136507249Y-76167770D01*
X136372359Y-76223644D01*
X136372357Y-76223645D01*
X136256525Y-76312525D01*
X136167645Y-76428357D01*
X136167644Y-76428359D01*
X136111770Y-76563249D01*
X136092715Y-76707996D01*
X136092715Y-76708003D01*
X136111771Y-76852753D01*
X136157631Y-76963468D01*
X136167645Y-76987643D01*
X136184607Y-77009749D01*
X136192332Y-77038580D01*
X136184610Y-77057227D01*
X136182809Y-77059574D01*
X136182806Y-77059579D01*
X136126932Y-77194469D01*
X136107877Y-77339216D01*
X136107877Y-77339223D01*
X136126933Y-77483973D01*
X136182806Y-77618861D01*
X136182807Y-77618863D01*
X136187507Y-77624988D01*
X136195232Y-77653821D01*
X136187508Y-77672470D01*
X136167645Y-77698357D01*
X136167644Y-77698359D01*
X136111770Y-77833249D01*
X136092715Y-77977996D01*
X136092715Y-77978003D01*
X120025900Y-77978003D01*
X120025900Y-77216003D01*
X123265715Y-77216003D01*
X123284771Y-77360753D01*
X123340644Y-77495641D01*
X123340645Y-77495643D01*
X123429525Y-77611474D01*
X123503830Y-77668490D01*
X123545357Y-77700355D01*
X123610570Y-77727367D01*
X123680246Y-77756228D01*
X123824997Y-77775285D01*
X123825000Y-77775285D01*
X123825003Y-77775285D01*
X123933565Y-77760992D01*
X123969754Y-77756228D01*
X124104643Y-77700355D01*
X124220474Y-77611474D01*
X124309355Y-77495643D01*
X124365228Y-77360754D01*
X124384285Y-77216000D01*
X124384285Y-77215996D01*
X124365229Y-77071249D01*
X124357360Y-77052251D01*
X124309355Y-76936358D01*
X124258434Y-76869996D01*
X124220474Y-76820525D01*
X124104643Y-76731645D01*
X124104641Y-76731644D01*
X123969753Y-76675771D01*
X123825003Y-76656715D01*
X123824997Y-76656715D01*
X123680249Y-76675770D01*
X123545359Y-76731644D01*
X123545357Y-76731645D01*
X123429525Y-76820525D01*
X123340645Y-76936357D01*
X123340644Y-76936359D01*
X123284770Y-77071249D01*
X123265715Y-77215996D01*
X123265715Y-77216003D01*
X120025900Y-77216003D01*
X120025900Y-73000518D01*
X120025914Y-73000000D01*
X120240465Y-73000000D01*
X120260584Y-73332626D01*
X120260585Y-73332630D01*
X120320651Y-73660400D01*
X120419787Y-73978538D01*
X120419789Y-73978545D01*
X120532799Y-74229641D01*
X120556553Y-74282420D01*
X120728947Y-74567595D01*
X120934458Y-74829910D01*
X121170090Y-75065542D01*
X121432405Y-75271053D01*
X121717580Y-75443447D01*
X121869517Y-75511828D01*
X122021454Y-75580210D01*
X122021461Y-75580212D01*
X122339599Y-75679348D01*
X122667369Y-75739414D01*
X122667373Y-75739415D01*
X122703270Y-75741586D01*
X123000000Y-75759535D01*
X123313653Y-75740562D01*
X123332626Y-75739415D01*
X123332630Y-75739414D01*
X123519276Y-75705210D01*
X123660400Y-75679348D01*
X123978545Y-75580210D01*
X124282420Y-75443447D01*
X124453538Y-75340003D01*
X154190715Y-75340003D01*
X154209771Y-75484753D01*
X154265644Y-75619641D01*
X154265645Y-75619643D01*
X154354525Y-75735474D01*
X154438317Y-75799770D01*
X154470357Y-75824355D01*
X154605246Y-75880227D01*
X154605246Y-75880228D01*
X154749997Y-75899285D01*
X154750000Y-75899285D01*
X154750003Y-75899285D01*
X154862046Y-75884534D01*
X154894754Y-75880228D01*
X155029643Y-75824355D01*
X155145474Y-75735474D01*
X155234355Y-75619643D01*
X155290228Y-75484754D01*
X155305186Y-75371130D01*
X155320111Y-75345279D01*
X155348943Y-75337554D01*
X155367903Y-75345519D01*
X155432405Y-75396053D01*
X155717580Y-75568447D01*
X155831333Y-75619643D01*
X156021454Y-75705210D01*
X156021461Y-75705212D01*
X156339599Y-75804348D01*
X156667369Y-75864414D01*
X156667373Y-75864415D01*
X156703270Y-75866586D01*
X157000000Y-75884535D01*
X157313653Y-75865562D01*
X157332626Y-75864415D01*
X157332630Y-75864414D01*
X157380487Y-75855644D01*
X157660400Y-75804348D01*
X157978545Y-75705210D01*
X158282420Y-75568447D01*
X158567595Y-75396053D01*
X158829910Y-75190542D01*
X159065542Y-74954910D01*
X159271053Y-74692595D01*
X159443447Y-74407420D01*
X159580210Y-74103545D01*
X159679348Y-73785400D01*
X159739415Y-73457625D01*
X159759535Y-73125000D01*
X159739415Y-72792375D01*
X159684618Y-72493355D01*
X159679348Y-72464599D01*
X159580212Y-72146461D01*
X159580210Y-72146454D01*
X159443447Y-71842581D01*
X159443447Y-71842580D01*
X159271053Y-71557405D01*
X159065542Y-71295090D01*
X158829910Y-71059458D01*
X158567595Y-70853947D01*
X158282420Y-70681553D01*
X158282418Y-70681552D01*
X157978545Y-70544789D01*
X157978538Y-70544787D01*
X157660400Y-70445651D01*
X157332630Y-70385585D01*
X157332626Y-70385584D01*
X157017947Y-70366550D01*
X157000000Y-70365465D01*
X156999999Y-70365465D01*
X156667373Y-70385584D01*
X156667369Y-70385585D01*
X156339599Y-70445651D01*
X156021461Y-70544787D01*
X156021454Y-70544789D01*
X155717581Y-70681552D01*
X155432405Y-70853947D01*
X155170093Y-71059455D01*
X155170087Y-71059460D01*
X154934460Y-71295087D01*
X154934455Y-71295093D01*
X154728947Y-71557405D01*
X154556552Y-71842581D01*
X154419789Y-72146454D01*
X154419787Y-72146461D01*
X154320651Y-72464599D01*
X154260585Y-72792369D01*
X154260584Y-72792373D01*
X154240465Y-73124999D01*
X154260584Y-73457626D01*
X154260585Y-73457630D01*
X154320651Y-73785400D01*
X154419787Y-74103538D01*
X154419789Y-74103545D01*
X154500294Y-74282418D01*
X154556553Y-74407420D01*
X154728947Y-74692595D01*
X154736036Y-74701643D01*
X154751350Y-74721190D01*
X154759366Y-74749943D01*
X154744702Y-74775942D01*
X154725740Y-74783908D01*
X154605249Y-74799770D01*
X154470359Y-74855644D01*
X154470357Y-74855645D01*
X154354525Y-74944525D01*
X154265645Y-75060357D01*
X154265644Y-75060359D01*
X154209770Y-75195249D01*
X154190715Y-75339996D01*
X154190715Y-75340003D01*
X124453538Y-75340003D01*
X124567595Y-75271053D01*
X124829910Y-75065542D01*
X125065542Y-74829910D01*
X125271053Y-74567595D01*
X125359066Y-74422003D01*
X133552715Y-74422003D01*
X133571771Y-74566753D01*
X133627644Y-74701641D01*
X133627645Y-74701643D01*
X133716525Y-74817474D01*
X133766271Y-74855645D01*
X133832357Y-74906355D01*
X133924510Y-74944526D01*
X133967246Y-74962228D01*
X134111997Y-74981285D01*
X134112000Y-74981285D01*
X134112003Y-74981285D01*
X134220565Y-74966992D01*
X134256754Y-74962228D01*
X134391643Y-74906355D01*
X134507474Y-74817474D01*
X134596355Y-74701643D01*
X134626090Y-74629855D01*
X134644969Y-74584280D01*
X134666076Y-74563174D01*
X134695925Y-74563174D01*
X134717031Y-74584280D01*
X134765644Y-74701641D01*
X134765645Y-74701643D01*
X134854525Y-74817474D01*
X134904271Y-74855645D01*
X134970357Y-74906355D01*
X135062510Y-74944526D01*
X135105246Y-74962228D01*
X135249997Y-74981285D01*
X135250000Y-74981285D01*
X135250003Y-74981285D01*
X135358565Y-74966992D01*
X135394754Y-74962228D01*
X135529643Y-74906355D01*
X135645474Y-74817474D01*
X135734355Y-74701643D01*
X135790228Y-74566754D01*
X135800303Y-74490228D01*
X135809285Y-74422003D01*
X135809285Y-74421996D01*
X135801991Y-74366593D01*
X137019215Y-74366593D01*
X137038271Y-74511343D01*
X137094144Y-74646231D01*
X137094145Y-74646233D01*
X137183025Y-74762064D01*
X137255237Y-74817474D01*
X137298857Y-74850945D01*
X137432626Y-74906354D01*
X137433746Y-74906818D01*
X137578497Y-74925875D01*
X137578500Y-74925875D01*
X137578503Y-74925875D01*
X137687065Y-74911582D01*
X137723254Y-74906818D01*
X137858143Y-74850945D01*
X137973974Y-74762064D01*
X138062855Y-74646233D01*
X138118728Y-74511344D01*
X138137785Y-74366590D01*
X138137785Y-74366586D01*
X138118729Y-74221839D01*
X138117671Y-74219285D01*
X138062855Y-74086948D01*
X138016491Y-74026525D01*
X137973974Y-73971115D01*
X137946460Y-73950003D01*
X150050715Y-73950003D01*
X150069771Y-74094753D01*
X150125644Y-74229641D01*
X150125645Y-74229643D01*
X150214525Y-74345474D01*
X150295252Y-74407418D01*
X150330357Y-74434355D01*
X150465246Y-74490227D01*
X150465246Y-74490228D01*
X150609997Y-74509285D01*
X150610000Y-74509285D01*
X150610003Y-74509285D01*
X150718565Y-74494992D01*
X150754754Y-74490228D01*
X150889643Y-74434355D01*
X151005474Y-74345474D01*
X151094355Y-74229643D01*
X151150228Y-74094754D01*
X151159210Y-74026526D01*
X151169285Y-73950003D01*
X151169285Y-73949996D01*
X151150229Y-73805249D01*
X151132876Y-73763355D01*
X151094355Y-73670358D01*
X151035360Y-73593474D01*
X151017350Y-73570003D01*
X153000715Y-73570003D01*
X153019771Y-73714753D01*
X153075644Y-73849641D01*
X153075645Y-73849643D01*
X153164525Y-73965474D01*
X153244090Y-74026526D01*
X153280357Y-74054355D01*
X153359046Y-74086949D01*
X153415246Y-74110228D01*
X153559997Y-74129285D01*
X153560000Y-74129285D01*
X153560003Y-74129285D01*
X153668565Y-74114992D01*
X153704754Y-74110228D01*
X153839643Y-74054355D01*
X153955474Y-73965474D01*
X154044355Y-73849643D01*
X154100228Y-73714754D01*
X154119285Y-73570000D01*
X154119285Y-73569996D01*
X154100229Y-73425249D01*
X154099610Y-73423754D01*
X154044355Y-73290358D01*
X153973489Y-73198003D01*
X153955474Y-73174525D01*
X153839643Y-73085645D01*
X153839641Y-73085644D01*
X153704753Y-73029771D01*
X153560003Y-73010715D01*
X153559997Y-73010715D01*
X153415249Y-73029770D01*
X153280359Y-73085644D01*
X153280357Y-73085645D01*
X153164525Y-73174525D01*
X153075645Y-73290357D01*
X153075644Y-73290359D01*
X153019770Y-73425249D01*
X153000715Y-73569996D01*
X153000715Y-73570003D01*
X151017350Y-73570003D01*
X151005474Y-73554525D01*
X150889643Y-73465645D01*
X150889641Y-73465644D01*
X150754753Y-73409771D01*
X150610003Y-73390715D01*
X150609997Y-73390715D01*
X150465249Y-73409770D01*
X150330359Y-73465644D01*
X150330357Y-73465645D01*
X150214525Y-73554525D01*
X150125645Y-73670357D01*
X150125644Y-73670359D01*
X150069770Y-73805249D01*
X150050715Y-73949996D01*
X150050715Y-73950003D01*
X137946460Y-73950003D01*
X137858143Y-73882235D01*
X137858141Y-73882234D01*
X137723253Y-73826361D01*
X137578503Y-73807305D01*
X137578497Y-73807305D01*
X137433749Y-73826360D01*
X137298859Y-73882234D01*
X137298857Y-73882235D01*
X137183025Y-73971115D01*
X137094145Y-74086947D01*
X137094144Y-74086949D01*
X137038270Y-74221839D01*
X137019215Y-74366586D01*
X137019215Y-74366593D01*
X135801991Y-74366593D01*
X135790229Y-74277249D01*
X135767276Y-74221836D01*
X135734355Y-74142358D01*
X135697827Y-74094754D01*
X135645474Y-74026525D01*
X135529643Y-73937645D01*
X135529641Y-73937644D01*
X135394753Y-73881771D01*
X135250003Y-73862715D01*
X135249997Y-73862715D01*
X135105249Y-73881770D01*
X134970359Y-73937644D01*
X134970357Y-73937645D01*
X134854525Y-74026525D01*
X134765645Y-74142357D01*
X134765644Y-74142359D01*
X134717031Y-74259722D01*
X134695925Y-74280828D01*
X134666075Y-74280828D01*
X134644969Y-74259722D01*
X134629276Y-74221836D01*
X134596355Y-74142358D01*
X134559827Y-74094754D01*
X134507474Y-74026525D01*
X134391643Y-73937645D01*
X134391641Y-73937644D01*
X134256753Y-73881771D01*
X134112003Y-73862715D01*
X134111997Y-73862715D01*
X133967249Y-73881770D01*
X133832359Y-73937644D01*
X133832357Y-73937645D01*
X133716525Y-74026525D01*
X133627645Y-74142357D01*
X133627644Y-74142359D01*
X133571770Y-74277249D01*
X133552715Y-74421996D01*
X133552715Y-74422003D01*
X125359066Y-74422003D01*
X125443447Y-74282420D01*
X125580210Y-73978545D01*
X125679348Y-73660400D01*
X125739415Y-73332625D01*
X125742659Y-73279003D01*
X127456715Y-73279003D01*
X127475771Y-73423753D01*
X127531644Y-73558641D01*
X127531645Y-73558643D01*
X127620525Y-73674474D01*
X127673018Y-73714753D01*
X127736357Y-73763355D01*
X127871245Y-73819227D01*
X127871246Y-73819228D01*
X128015997Y-73838285D01*
X128016000Y-73838285D01*
X128016003Y-73838285D01*
X128124565Y-73823992D01*
X128160754Y-73819228D01*
X128295643Y-73763355D01*
X128411474Y-73674474D01*
X128422578Y-73660003D01*
X132155715Y-73660003D01*
X132174771Y-73804753D01*
X132230644Y-73939641D01*
X132230645Y-73939643D01*
X132319525Y-74055474D01*
X132382173Y-74103545D01*
X132435357Y-74144355D01*
X132570245Y-74200227D01*
X132570246Y-74200228D01*
X132714997Y-74219285D01*
X132715000Y-74219285D01*
X132715003Y-74219285D01*
X132823565Y-74204992D01*
X132859754Y-74200228D01*
X132994643Y-74144355D01*
X133110474Y-74055474D01*
X133199355Y-73939643D01*
X133255228Y-73804754D01*
X133271342Y-73682354D01*
X133274285Y-73660003D01*
X133274285Y-73659996D01*
X133255229Y-73515249D01*
X133231362Y-73457630D01*
X133199355Y-73380358D01*
X133178674Y-73353405D01*
X133110474Y-73264525D01*
X133023781Y-73198003D01*
X139440715Y-73198003D01*
X139459771Y-73342753D01*
X139515644Y-73477641D01*
X139515645Y-73477643D01*
X139604525Y-73593474D01*
X139691218Y-73659996D01*
X139720357Y-73682355D01*
X139798575Y-73714754D01*
X139855246Y-73738228D01*
X139999997Y-73757285D01*
X140000000Y-73757285D01*
X140000003Y-73757285D01*
X140108565Y-73742992D01*
X140144754Y-73738228D01*
X140279643Y-73682355D01*
X140395474Y-73593474D01*
X140484355Y-73477643D01*
X140540228Y-73342754D01*
X140559285Y-73198000D01*
X140559285Y-73197996D01*
X140540229Y-73053249D01*
X140540228Y-73053246D01*
X140484355Y-72918358D01*
X140463674Y-72891405D01*
X140395474Y-72802525D01*
X140279643Y-72713645D01*
X140279641Y-72713644D01*
X140144753Y-72657771D01*
X140000003Y-72638715D01*
X139999997Y-72638715D01*
X139855249Y-72657770D01*
X139720359Y-72713644D01*
X139720357Y-72713645D01*
X139604525Y-72802525D01*
X139515645Y-72918357D01*
X139515644Y-72918359D01*
X139459770Y-73053249D01*
X139440715Y-73197996D01*
X139440715Y-73198003D01*
X133023781Y-73198003D01*
X132994643Y-73175645D01*
X132994641Y-73175644D01*
X132859753Y-73119771D01*
X132715003Y-73100715D01*
X132714997Y-73100715D01*
X132570249Y-73119770D01*
X132435359Y-73175644D01*
X132435357Y-73175645D01*
X132319525Y-73264525D01*
X132230645Y-73380357D01*
X132230644Y-73380359D01*
X132174770Y-73515249D01*
X132155715Y-73659996D01*
X132155715Y-73660003D01*
X128422578Y-73660003D01*
X128500355Y-73558643D01*
X128556228Y-73423754D01*
X128575285Y-73279000D01*
X128575285Y-73278996D01*
X128556229Y-73134249D01*
X128552398Y-73125000D01*
X128500355Y-72999358D01*
X128479674Y-72972406D01*
X128411474Y-72883525D01*
X128295643Y-72794645D01*
X128295641Y-72794644D01*
X128160753Y-72738771D01*
X128016003Y-72719715D01*
X128015997Y-72719715D01*
X127871249Y-72738770D01*
X127736359Y-72794644D01*
X127736357Y-72794645D01*
X127620525Y-72883525D01*
X127531645Y-72999357D01*
X127531644Y-72999359D01*
X127475770Y-73134249D01*
X127456715Y-73278996D01*
X127456715Y-73279003D01*
X125742659Y-73279003D01*
X125759535Y-73000000D01*
X125739415Y-72667375D01*
X125707525Y-72493355D01*
X125679348Y-72339599D01*
X125580212Y-72021461D01*
X125580210Y-72021454D01*
X125574606Y-72009003D01*
X143204715Y-72009003D01*
X143223771Y-72153753D01*
X143279644Y-72288641D01*
X143279645Y-72288643D01*
X143368525Y-72404474D01*
X143446882Y-72464599D01*
X143484357Y-72493355D01*
X143563157Y-72525995D01*
X143619246Y-72549228D01*
X143763997Y-72568285D01*
X143764000Y-72568285D01*
X143764003Y-72568285D01*
X143872565Y-72553992D01*
X143908754Y-72549228D01*
X144043643Y-72493355D01*
X144159474Y-72404474D01*
X144248355Y-72288643D01*
X144304228Y-72153754D01*
X144313938Y-72080000D01*
X144323285Y-72009003D01*
X145617715Y-72009003D01*
X145636771Y-72153753D01*
X145692644Y-72288641D01*
X145692645Y-72288643D01*
X145781525Y-72404474D01*
X145859882Y-72464599D01*
X145897357Y-72493355D01*
X145976157Y-72525995D01*
X146032246Y-72549228D01*
X146176997Y-72568285D01*
X146177000Y-72568285D01*
X146177003Y-72568285D01*
X146285565Y-72553992D01*
X146321754Y-72549228D01*
X146456643Y-72493355D01*
X146572474Y-72404474D01*
X146661355Y-72288643D01*
X146717228Y-72153754D01*
X146726938Y-72080000D01*
X146736285Y-72009003D01*
X148030715Y-72009003D01*
X148049771Y-72153753D01*
X148105644Y-72288641D01*
X148105645Y-72288643D01*
X148194525Y-72404474D01*
X148272882Y-72464599D01*
X148310357Y-72493355D01*
X148389157Y-72525995D01*
X148445246Y-72549228D01*
X148589997Y-72568285D01*
X148590000Y-72568285D01*
X148590003Y-72568285D01*
X148698565Y-72553992D01*
X148734754Y-72549228D01*
X148869643Y-72493355D01*
X148985474Y-72404474D01*
X149074355Y-72288643D01*
X149130228Y-72153754D01*
X149139938Y-72080000D01*
X149149285Y-72009003D01*
X150443715Y-72009003D01*
X150462771Y-72153753D01*
X150518644Y-72288641D01*
X150518645Y-72288643D01*
X150607525Y-72404474D01*
X150685882Y-72464599D01*
X150723357Y-72493355D01*
X150802157Y-72525995D01*
X150858246Y-72549228D01*
X151002997Y-72568285D01*
X151003000Y-72568285D01*
X151003003Y-72568285D01*
X151111565Y-72553992D01*
X151147754Y-72549228D01*
X151282643Y-72493355D01*
X151398474Y-72404474D01*
X151487355Y-72288643D01*
X151543228Y-72153754D01*
X151552938Y-72080000D01*
X151562285Y-72009003D01*
X151562285Y-72008996D01*
X151543229Y-71864249D01*
X151534254Y-71842581D01*
X151487355Y-71729358D01*
X151466674Y-71702406D01*
X151398474Y-71613525D01*
X151282643Y-71524645D01*
X151282641Y-71524644D01*
X151147753Y-71468771D01*
X151003003Y-71449715D01*
X151002997Y-71449715D01*
X150858249Y-71468770D01*
X150723359Y-71524644D01*
X150723357Y-71524645D01*
X150607525Y-71613525D01*
X150518645Y-71729357D01*
X150518644Y-71729359D01*
X150462770Y-71864249D01*
X150443715Y-72008996D01*
X150443715Y-72009003D01*
X149149285Y-72009003D01*
X149149285Y-72008996D01*
X149130229Y-71864249D01*
X149121254Y-71842581D01*
X149074355Y-71729358D01*
X149053674Y-71702406D01*
X148985474Y-71613525D01*
X148869643Y-71524645D01*
X148869641Y-71524644D01*
X148734753Y-71468771D01*
X148590003Y-71449715D01*
X148589997Y-71449715D01*
X148445249Y-71468770D01*
X148310359Y-71524644D01*
X148310357Y-71524645D01*
X148194525Y-71613525D01*
X148105645Y-71729357D01*
X148105644Y-71729359D01*
X148049770Y-71864249D01*
X148030715Y-72008996D01*
X148030715Y-72009003D01*
X146736285Y-72009003D01*
X146736285Y-72008996D01*
X146717229Y-71864249D01*
X146708254Y-71842581D01*
X146661355Y-71729358D01*
X146640674Y-71702406D01*
X146572474Y-71613525D01*
X146456643Y-71524645D01*
X146456641Y-71524644D01*
X146321753Y-71468771D01*
X146177003Y-71449715D01*
X146176997Y-71449715D01*
X146032249Y-71468770D01*
X145897359Y-71524644D01*
X145897357Y-71524645D01*
X145781525Y-71613525D01*
X145692645Y-71729357D01*
X145692644Y-71729359D01*
X145636770Y-71864249D01*
X145617715Y-72008996D01*
X145617715Y-72009003D01*
X144323285Y-72009003D01*
X144323285Y-72008996D01*
X144304229Y-71864249D01*
X144295254Y-71842581D01*
X144248355Y-71729358D01*
X144227674Y-71702406D01*
X144159474Y-71613525D01*
X144043643Y-71524645D01*
X144043641Y-71524644D01*
X143908753Y-71468771D01*
X143764003Y-71449715D01*
X143763997Y-71449715D01*
X143619249Y-71468770D01*
X143484359Y-71524644D01*
X143484357Y-71524645D01*
X143368525Y-71613525D01*
X143279645Y-71729357D01*
X143279644Y-71729359D01*
X143223770Y-71864249D01*
X143204715Y-72008996D01*
X143204715Y-72009003D01*
X125574606Y-72009003D01*
X125476187Y-71790325D01*
X125443447Y-71717580D01*
X125271053Y-71432405D01*
X125065542Y-71170090D01*
X124829910Y-70934458D01*
X124567595Y-70728947D01*
X124282420Y-70556553D01*
X124256284Y-70544790D01*
X123978545Y-70419789D01*
X123978538Y-70419787D01*
X123660400Y-70320651D01*
X123332630Y-70260585D01*
X123332626Y-70260584D01*
X123017947Y-70241550D01*
X123000000Y-70240465D01*
X122999999Y-70240465D01*
X122667373Y-70260584D01*
X122667369Y-70260585D01*
X122339599Y-70320651D01*
X122021461Y-70419787D01*
X122021454Y-70419789D01*
X121717581Y-70556552D01*
X121432405Y-70728947D01*
X121170093Y-70934455D01*
X121170087Y-70934460D01*
X120934460Y-71170087D01*
X120934455Y-71170093D01*
X120728947Y-71432405D01*
X120556552Y-71717581D01*
X120419789Y-72021454D01*
X120419787Y-72021461D01*
X120320651Y-72339599D01*
X120260585Y-72667369D01*
X120260584Y-72667373D01*
X120240465Y-73000000D01*
X120025914Y-73000000D01*
X120025927Y-72999498D01*
X120042139Y-72690140D01*
X120042352Y-72688109D01*
X120045636Y-72667375D01*
X120090732Y-72382647D01*
X120091153Y-72380668D01*
X120171201Y-72081930D01*
X120171823Y-72080013D01*
X120282662Y-71791267D01*
X120283484Y-71789422D01*
X120423900Y-71513840D01*
X120424911Y-71512092D01*
X120593352Y-71252715D01*
X120594539Y-71251082D01*
X120789178Y-71010722D01*
X120790527Y-71009224D01*
X121009224Y-70790527D01*
X121010722Y-70789178D01*
X121251082Y-70594539D01*
X121252715Y-70593352D01*
X121512094Y-70424909D01*
X121513840Y-70423900D01*
X121789422Y-70283484D01*
X121791267Y-70282662D01*
X122080013Y-70171823D01*
X122081930Y-70171201D01*
X122380668Y-70091153D01*
X122382647Y-70090732D01*
X122688117Y-70042351D01*
X122690140Y-70042139D01*
X122999499Y-70025927D01*
X123000519Y-70025900D01*
X123008415Y-70025900D01*
X156991585Y-70025900D01*
X156999481Y-70025900D01*
X157000501Y-70025927D01*
G37*
%TD.AperFunction*%
%TD*%
M02*
