M48
; DRILL file {KiCad 7.0.6} date Tue Oct  3 21:22:43 2023
; FORMAT={-:-/ absolute / inch / decimal}
; #@! TF.CreationDate,2023-10-03T21:22:43+08:00
; #@! TF.GenerationSoftware,Kicad,Pcbnew,7.0.6
; #@! TF.FileFunction,Plated,1,4,PTH
FMAT,2
INCH
; #@! TA.AperFunction,Plated,PTH,ViaDrill
T1C0.0118
; #@! TA.AperFunction,Plated,PTH,ViaDrill
T2C0.0157
; #@! TA.AperFunction,Plated,PTH,ComponentDrill
T3C0.0197
; #@! TA.AperFunction,Plated,PTH,ComponentDrill
T4C0.0591
; #@! TA.AperFunction,Plated,PTH,ComponentDrill
T5C0.0984
%
G90
G05
T1
X4.75Y-3.69
X4.785Y-3.69
X4.8135Y-3.5465
X4.82Y-3.69
X4.8228Y-4.0453
X4.825Y-3.875
X4.825Y-3.915
X4.825Y-3.955
X4.825Y-3.995
X4.825Y-4.085
X4.855Y-3.69
X4.865Y-3.53
X4.865Y-3.575
X4.875Y-3.04
X4.875Y-3.875
X4.875Y-3.915
X4.875Y-3.955
X4.875Y-3.995
X4.875Y-4.045
X4.875Y-4.085
X4.89Y-3.69
X4.925Y-3.69
X4.925Y-3.875
X4.925Y-3.915
X4.925Y-3.955
X4.925Y-3.995
X4.925Y-4.045
X4.925Y-4.085
X4.944Y-3.38
X4.96Y-3.69
X4.975Y-3.875
X4.975Y-3.915
X4.975Y-3.955
X4.975Y-3.995
X5.04Y-2.885
X5.0594Y-3.1008
X5.06Y-4.03
X5.06Y-4.07
X5.06Y-4.11
X5.1Y-3.825
X5.1Y-3.86
X5.105Y-3.545
X5.1098Y-3.2906
X5.11Y-3.4
X5.11Y-4.03
X5.11Y-4.07
X5.11Y-4.11
X5.12Y-3.7
X5.12Y-3.73
X5.1259Y-3.2287
X5.1264Y-3.2661
X5.13Y-3.825
X5.13Y-3.86
X5.1339Y-2.885
X5.15Y-3.36
X5.15Y-3.44
X5.15Y-3.7
X5.15Y-3.73
X5.1541Y-3.2134
X5.16Y-3.86
X5.16Y-4.03
X5.16Y-4.07
X5.16Y-4.11
X5.1748Y-3.1912
X5.185Y-3.7
X5.185Y-3.73
X5.19Y-3.32
X5.19Y-3.4
X5.19Y-3.48
X5.19Y-3.825
X5.19Y-3.86
X5.2057Y-3.1777
X5.21Y-4.03
X5.21Y-4.07
X5.21Y-4.11
X5.215Y-3.7
X5.215Y-3.73
X5.22Y-3.825
X5.22Y-3.86
X5.225Y-2.9
X5.225Y-2.9721
X5.23Y-3.28
X5.23Y-3.36
X5.23Y-3.44
X5.23Y-3.52
X5.24Y-3.615
X5.27Y-3.32
X5.27Y-3.4
X5.27Y-3.48
X5.2743Y-3.5991
X5.28Y-2.93
X5.285Y-4.03
X5.285Y-4.07
X5.285Y-4.11
X5.31Y-3.36
X5.31Y-3.44
X5.32Y-3.59
X5.3248Y-2.93
X5.33Y-3.825
X5.33Y-3.855
X5.335Y-4.03
X5.335Y-4.07
X5.335Y-4.11
X5.3359Y-3.6159
X5.3469Y-3.2359
X5.35Y-3.4
X5.35Y-3.7
X5.35Y-3.73
X5.36Y-3.825
X5.36Y-3.855
X5.3689Y-3.2837
X5.3747Y-3.2536
X5.38Y-3.02
X5.38Y-3.07
X5.38Y-3.7
X5.38Y-3.73
X5.3806Y-3.0449
X5.385Y-4.03
X5.385Y-4.07
X5.385Y-4.11
X5.385Y-3.1988
X5.39Y-3.825
X5.39Y-3.855
X5.415Y-3.7
X5.415Y-3.73
X5.4165Y-2.9278
X5.425Y-3.465
X5.425Y-3.825
X5.425Y-3.855
X5.435Y-4.03
X5.435Y-4.07
X5.435Y-4.11
X5.445Y-3.73
X5.45Y-3.4107
X5.455Y-3.49
X5.456Y-3.4397
X5.4565Y-3.1965
X5.4635Y-2.9285
X5.47Y-3.25
X5.4913Y-3.3642
X5.5Y-3.7
X5.5Y-3.73
X5.505Y-3.945
X5.505Y-3.985
X5.505Y-4.025
X5.505Y-4.065
X5.505Y-4.115
X5.505Y-4.16
X5.5118Y-2.8818
X5.53Y-3.365
X5.53Y-3.7
X5.53Y-3.73
X5.555Y-3.945
X5.555Y-3.985
X5.555Y-4.025
X5.555Y-4.065
X5.555Y-4.115
X5.555Y-4.16
X5.56Y-3.7
X5.56Y-3.73
X5.565Y-2.835
X5.565Y-3.44
X5.585Y-3.1016
X5.59Y-3.24
X5.59Y-3.7
X5.59Y-3.73
X5.5951Y-3.2937
X5.605Y-3.945
X5.605Y-3.985
X5.605Y-4.025
X5.605Y-4.065
X5.605Y-4.115
X5.605Y-4.16
X5.6094Y-3.0089
X5.61Y-3.2
X5.619Y-3.2342
X5.62Y-3.7
X5.62Y-3.73
X5.6202Y-3.1052
X5.6312Y-3.3356
X5.6319Y-3.1381
X5.635Y-3.2937
X5.6441Y-3.0181
X5.65Y-3.7
X5.65Y-3.73
X5.6524Y-3.3565
X5.655Y-3.945
X5.655Y-3.985
X5.655Y-4.025
X5.655Y-4.065
X5.66Y-2.835
X5.6858Y-3.3565
X5.715Y-3.305
X5.715Y-3.7
X5.715Y-3.73
X5.725Y-3.945
X5.725Y-3.985
X5.725Y-4.025
X5.725Y-4.065
X5.725Y-4.115
X5.725Y-4.16
X5.745Y-3.7
X5.745Y-3.73
X5.7512Y-3.4669
X5.7547Y-3.2994
X5.755Y-2.835
X5.775Y-3.7
X5.775Y-3.73
X5.775Y-3.945
X5.775Y-3.985
X5.775Y-4.025
X5.775Y-4.065
X5.775Y-4.115
X5.775Y-4.16
X5.785Y-3.5573
X5.795Y-3.305
X5.805Y-3.7
X5.805Y-3.73
X5.8075Y-3.0811
X5.8083Y-3.015
X5.8085Y-3.0446
X5.8087Y-3.1146
X5.815Y-3.4774
X5.825Y-3.365
X5.825Y-3.945
X5.825Y-3.985
X5.825Y-4.025
X5.825Y-4.065
X5.825Y-4.115
X5.825Y-4.16
X5.83Y-3.59
X5.835Y-3.7
X5.835Y-3.73
X5.85Y-2.835
X5.8595Y-3.335
X5.865Y-3.7
X5.865Y-3.73
X5.8705Y-3.0363
X5.875Y-3.945
X5.875Y-3.985
X5.875Y-4.025
X5.875Y-4.065
X5.8937Y-3.324
X5.902Y-3.0386
X5.91Y-3.515
X5.9295Y-2.9114
X5.9299Y-3.337
X5.93Y-3.22
X5.945Y-2.835
X5.955Y-3.93
X5.955Y-3.9665
X5.955Y-4.005
X5.998Y-3.0055
X6.005Y-3.385
X6.005Y-3.875
X6.005Y-3.93
X6.005Y-3.9665
X6.005Y-4.005
X6.028Y-3.4248
X6.0457Y-2.8965
X6.0457Y-2.9398
X6.05Y-3.83
X6.055Y-3.875
X6.055Y-3.93
X6.055Y-3.9665
X6.055Y-4.005
X6.0606Y-3.4256
X6.0925Y-2.9661
X6.0935Y-3.42
X6.1Y-3.57
X6.105Y-3.83
X6.105Y-3.875
X6.105Y-3.93
X6.105Y-3.9665
X6.105Y-4.005
X6.1264Y-3.09
X6.13Y-3.24
X6.13Y-3.57
X6.1705Y-3.0264
X6.175Y-3.405
X6.176Y-3.31
X6.1761Y-3.121
X6.18Y-3.21
T2
X5.165Y-3.03
T3
X4.7638Y-4.2126
X4.7687Y-2.874
X4.7854Y-4.1604
X4.7854Y-4.2648
X4.7903Y-2.8218
X4.7903Y-2.9262
X4.8376Y-4.1388
X4.8376Y-4.2864
X4.8425Y-2.8002
X4.8425Y-2.9478
X4.8898Y-4.1604
X4.8898Y-4.2648
X4.8947Y-2.8218
X4.8947Y-2.9262
X4.9114Y-4.2126
X4.9163Y-2.874
X6.1073Y-2.8789
X6.1073Y-4.2126
X6.1289Y-2.8267
X6.1289Y-2.9311
X6.1289Y-4.1604
X6.1289Y-4.2648
X6.1811Y-2.8051
X6.1811Y-2.9528
X6.1811Y-4.1388
X6.1811Y-4.2864
X6.2333Y-2.8267
X6.2333Y-2.9311
X6.2333Y-4.1604
X6.2333Y-4.2648
X6.2549Y-2.8789
X6.2549Y-4.2126
T4
X5.1575Y-4.252
X5.5118Y-4.252
X5.8661Y-4.252
X6.2205Y-3.7795
X6.2205Y-4.0157
T5
X4.8376Y-4.2126
X4.8425Y-2.874
X6.1811Y-2.8789
X6.1811Y-4.2126
T0
M30
