%TF.GenerationSoftware,KiCad,Pcbnew,9.0.1*%
%TF.CreationDate,2025-04-08T03:51:10+08:00*%
%TF.ProjectId,CawDrive,43617744-7269-4766-952e-6b696361645f,rev?*%
%TF.SameCoordinates,Original*%
%TF.FileFunction,Legend,Bot*%
%TF.FilePolarity,Positive*%
%FSLAX46Y46*%
G04 Gerber Fmt 4.6, Leading zero omitted, Abs format (unit mm)*
G04 Created by KiCad (PCBNEW 9.0.1) date 2025-04-08 03:51:10*
%MOMM*%
%LPD*%
G01*
G04 APERTURE LIST*
%ADD10C,0.152000*%
%ADD11C,0.300000*%
%ADD12C,0.000000*%
%ADD13C,0.120000*%
G04 APERTURE END LIST*
D10*
%TO.C,U9*%
X139223400Y-86425600D02*
X139223400Y-91577600D01*
X139223400Y-91577600D02*
X142766400Y-91577600D01*
X142766400Y-86425600D02*
X139223400Y-86425600D01*
X142766400Y-91577600D02*
X142766400Y-86425600D01*
D11*
X142415400Y-86969600D02*
G75*
G02*
X142115400Y-86969600I-150000J0D01*
G01*
X142115400Y-86969600D02*
G75*
G02*
X142415400Y-86969600I150000J0D01*
G01*
X144011400Y-86102600D02*
G75*
G02*
X143711400Y-86102600I-150000J0D01*
G01*
X143711400Y-86102600D02*
G75*
G02*
X144011400Y-86102600I150000J0D01*
G01*
D12*
%TO.C,kibuzzard-67F13BB6*%
G36*
X162957997Y-91064620D02*
G01*
X162840065Y-91048465D01*
X162738288Y-90996769D01*
X162665590Y-90906300D01*
X162638126Y-90770598D01*
X162663974Y-90636511D01*
X162735057Y-90542811D01*
X162838449Y-90484653D01*
X162957997Y-90457189D01*
X162957997Y-91064620D01*
G37*
G36*
X163534733Y-80864297D02*
G01*
X163578352Y-81064620D01*
X163576737Y-81190630D01*
X163568659Y-81297254D01*
X163219709Y-81297254D01*
X163208401Y-81203554D01*
X163203554Y-81103393D01*
X163211632Y-80983845D01*
X163239095Y-80882068D01*
X163294023Y-80812601D01*
X163387722Y-80786753D01*
X163534733Y-80864297D01*
G37*
G36*
X163542811Y-84092084D02*
G01*
X163542811Y-84127625D01*
X163491115Y-84355412D01*
X163348950Y-84504039D01*
X163134087Y-84584814D01*
X163003635Y-84602989D01*
X162861066Y-84609047D01*
X162609047Y-84589661D01*
X162392569Y-84521809D01*
X162242326Y-84389338D01*
X162185784Y-84172859D01*
X162187399Y-84114701D01*
X162195477Y-84056543D01*
X163539580Y-84056543D01*
X163542811Y-84092084D01*
G37*
G36*
X165742057Y-81035541D02*
G01*
X165742057Y-82909532D01*
X165742057Y-84085622D01*
X165742057Y-85788368D01*
X165742057Y-87794830D01*
X165742057Y-88957997D01*
X165742057Y-90880452D01*
X165742057Y-94437803D01*
X165742057Y-95394184D01*
X165742057Y-97901454D01*
X165742057Y-99274637D01*
X165742057Y-100620894D01*
X160257943Y-100620894D01*
X160257943Y-99274637D01*
X160257943Y-98376414D01*
X161604200Y-98376414D01*
X161604200Y-99274637D01*
X164395800Y-99274637D01*
X164395800Y-98376414D01*
X164085622Y-98376414D01*
X164085622Y-98893376D01*
X161914378Y-98893376D01*
X161914378Y-98376414D01*
X161604200Y-98376414D01*
X160257943Y-98376414D01*
X160257943Y-97184168D01*
X161817447Y-97184168D01*
X161852989Y-97420032D01*
X161959612Y-97620355D01*
X162138934Y-97759289D01*
X162389338Y-97810985D01*
X162588045Y-97772213D01*
X162773829Y-97668821D01*
X162948304Y-97523425D01*
X163109855Y-97358643D01*
X163201939Y-97261712D01*
X163311793Y-97158320D01*
X163426494Y-97075929D01*
X163533118Y-97042003D01*
X163533118Y-97901454D01*
X163862682Y-97901454D01*
X163862682Y-96596123D01*
X163781906Y-96588045D01*
X163714055Y-96589661D01*
X163558966Y-96604604D01*
X163416801Y-96649435D01*
X163286349Y-96717286D01*
X163166397Y-96801292D01*
X163055735Y-96896607D01*
X162953150Y-96998384D01*
X162856624Y-97100162D01*
X162764136Y-97195477D01*
X162589661Y-97347334D01*
X162418417Y-97407108D01*
X162229402Y-97332795D01*
X162163166Y-97145396D01*
X162208401Y-96948304D01*
X162360258Y-96744750D01*
X162082391Y-96547658D01*
X161964459Y-96686995D01*
X161882068Y-96846527D01*
X161833603Y-97015751D01*
X161817447Y-97184168D01*
X160257943Y-97184168D01*
X160257943Y-94835218D01*
X161862682Y-94835218D01*
X161862682Y-95255250D01*
X162030291Y-95279483D01*
X162222940Y-95313409D01*
X162431341Y-95354200D01*
X162646204Y-95399031D01*
X162862682Y-95447496D01*
X163075929Y-95499192D01*
X163276656Y-95552100D01*
X163455574Y-95604200D01*
X163279079Y-95655897D01*
X163079160Y-95707593D01*
X162865913Y-95757674D01*
X162649435Y-95804523D01*
X162434168Y-95848142D01*
X162224556Y-95888530D01*
X162030695Y-95924071D01*
X161862682Y-95953150D01*
X161862682Y-96369952D01*
X162067851Y-96326737D01*
X162295638Y-96274637D01*
X162540792Y-96214055D01*
X162798061Y-96145396D01*
X162974690Y-96095315D01*
X163153473Y-96042003D01*
X163334410Y-95985460D01*
X163514450Y-95926584D01*
X163690540Y-95866272D01*
X163862682Y-95804523D01*
X163862682Y-95394184D01*
X163625202Y-95314216D01*
X163358643Y-95229402D01*
X163171423Y-95172321D01*
X162984563Y-95117394D01*
X162798061Y-95064620D01*
X162615150Y-95014719D01*
X162439059Y-94968408D01*
X162269790Y-94925687D01*
X162043619Y-94872375D01*
X161862682Y-94835218D01*
X160257943Y-94835218D01*
X160257943Y-93542811D01*
X161604200Y-93542811D01*
X161604200Y-94437803D01*
X161914378Y-94437803D01*
X161914378Y-93920840D01*
X164085622Y-93920840D01*
X164085622Y-94437803D01*
X164395800Y-94437803D01*
X164395800Y-93542811D01*
X161604200Y-93542811D01*
X160257943Y-93542811D01*
X160257943Y-90764136D01*
X162305331Y-90764136D01*
X162327410Y-90970203D01*
X162393646Y-91140370D01*
X162504039Y-91274637D01*
X162656794Y-91371567D01*
X162850117Y-91429725D01*
X163084006Y-91449111D01*
X163164782Y-91447496D01*
X163232633Y-91442649D01*
X163232633Y-90457189D01*
X163365509Y-90487884D01*
X163466882Y-90579968D01*
X163531099Y-90720517D01*
X163552504Y-90896607D01*
X163526656Y-91124394D01*
X163474960Y-91306947D01*
X163814216Y-91361874D01*
X163873990Y-91142165D01*
X163898223Y-90880452D01*
X163885703Y-90696688D01*
X163848142Y-90533118D01*
X163785945Y-90390953D01*
X163699515Y-90271405D01*
X163589257Y-90175687D01*
X163455574Y-90105008D01*
X163298061Y-90061389D01*
X163116317Y-90046850D01*
X162928110Y-90062197D01*
X162764136Y-90108239D01*
X162624798Y-90179321D01*
X162510501Y-90269790D01*
X162421244Y-90377221D01*
X162357027Y-90499192D01*
X162318255Y-90630048D01*
X162305331Y-90764136D01*
X160257943Y-90764136D01*
X160257943Y-88376414D01*
X162344103Y-88376414D01*
X162344103Y-88793215D01*
X162470921Y-88825121D01*
X162605816Y-88862682D01*
X162745153Y-88904281D01*
X162885299Y-88948304D01*
X163023829Y-88993942D01*
X163158320Y-89040388D01*
X163400646Y-89129241D01*
X163158320Y-89222940D01*
X163023829Y-89274233D01*
X162885299Y-89324717D01*
X162745153Y-89373990D01*
X162605816Y-89421648D01*
X162470921Y-89464055D01*
X162344103Y-89497577D01*
X162344103Y-89901454D01*
X162568962Y-89831785D01*
X162784733Y-89758481D01*
X162991418Y-89681543D01*
X163189015Y-89600969D01*
X163435469Y-89493269D01*
X163660025Y-89389876D01*
X163862682Y-89290792D01*
X163862682Y-88957997D01*
X163660025Y-88860528D01*
X163435469Y-88761982D01*
X163189015Y-88662359D01*
X162991418Y-88588146D01*
X162784733Y-88515751D01*
X162568962Y-88445174D01*
X162344103Y-88376414D01*
X160257943Y-88376414D01*
X160257943Y-87649435D01*
X162344103Y-87649435D01*
X163284330Y-87649435D01*
X163486268Y-87699515D01*
X163552504Y-87865913D01*
X163537964Y-87998384D01*
X163478191Y-88172859D01*
X163798061Y-88224556D01*
X163877221Y-87993538D01*
X163898223Y-87794830D01*
X163886914Y-87652262D01*
X163852989Y-87534733D01*
X163722132Y-87366721D01*
X163513732Y-87277868D01*
X163382068Y-87258481D01*
X163232633Y-87252019D01*
X162673667Y-87252019D01*
X162673667Y-86831987D01*
X162344103Y-86831987D01*
X162344103Y-87381260D01*
X162344103Y-87649435D01*
X160257943Y-87649435D01*
X160257943Y-87381260D01*
X161652666Y-87381260D01*
X161720517Y-87558966D01*
X161907916Y-87633279D01*
X162092084Y-87558966D01*
X162159935Y-87381260D01*
X162092084Y-87205170D01*
X161907916Y-87132472D01*
X161720517Y-87205170D01*
X161652666Y-87381260D01*
X160257943Y-87381260D01*
X160257943Y-86101777D01*
X162315024Y-86101777D01*
X162318255Y-86193861D01*
X162329564Y-86321486D01*
X162348950Y-86458805D01*
X162379645Y-86583199D01*
X162747981Y-86512116D01*
X162728595Y-86420032D01*
X162710824Y-86311793D01*
X162699515Y-86205170D01*
X162696284Y-86117932D01*
X162704362Y-85953150D01*
X162735057Y-85788368D01*
X163862682Y-85788368D01*
X163862682Y-85387722D01*
X162444265Y-85387722D01*
X162391761Y-85548061D01*
X162350565Y-85712439D01*
X162323910Y-85892973D01*
X162315024Y-86101777D01*
X160257943Y-86101777D01*
X160257943Y-84137318D01*
X161840065Y-84137318D01*
X161854604Y-84325929D01*
X161898223Y-84497577D01*
X161972940Y-84648223D01*
X162080775Y-84773829D01*
X162222132Y-84874394D01*
X162397415Y-84949919D01*
X162609451Y-84997173D01*
X162861066Y-85012924D01*
X163118336Y-84995557D01*
X163334410Y-84943457D01*
X163511712Y-84860662D01*
X163652666Y-84751212D01*
X163758885Y-84616721D01*
X163831987Y-84458805D01*
X163874394Y-84280695D01*
X163888530Y-84085622D01*
X163877221Y-83877221D01*
X163840065Y-83659128D01*
X161888530Y-83659128D01*
X161849758Y-83914378D01*
X161840065Y-84137318D01*
X160257943Y-84137318D01*
X160257943Y-81904685D01*
X162344103Y-81904685D01*
X162344103Y-82243942D01*
X162530066Y-82252737D01*
X162713157Y-82261892D01*
X162893376Y-82271405D01*
X163073954Y-82283791D01*
X163258122Y-82301562D01*
X163445880Y-82324717D01*
X163218094Y-82397415D01*
X163017771Y-82452342D01*
X162833603Y-82497577D01*
X162651050Y-82541195D01*
X162651050Y-82828756D01*
X162833603Y-82869144D01*
X163017771Y-82914378D01*
X163218094Y-82966074D01*
X163445880Y-83032310D01*
X163300485Y-83050081D01*
X163161551Y-83064620D01*
X163026252Y-83076333D01*
X162891761Y-83085622D01*
X162623586Y-83098546D01*
X162486672Y-83103796D01*
X162344103Y-83109855D01*
X162344103Y-83449111D01*
X162562197Y-83429624D01*
X162773829Y-83406704D01*
X162978998Y-83380351D01*
X163177706Y-83350565D01*
X163427571Y-83306947D01*
X163655897Y-83260097D01*
X163862682Y-83210016D01*
X163862682Y-82909532D01*
X163678514Y-82843296D01*
X163515347Y-82785137D01*
X163350565Y-82730210D01*
X163161551Y-82673667D01*
X163347334Y-82615509D01*
X163510501Y-82562197D01*
X163675283Y-82505654D01*
X163862682Y-82434572D01*
X163862682Y-82134087D01*
X163712843Y-82096527D01*
X163547658Y-82061389D01*
X163369144Y-82028675D01*
X163179321Y-81998384D01*
X162980210Y-81970921D01*
X162773829Y-81946688D01*
X162561389Y-81924879D01*
X162344103Y-81904685D01*
X160257943Y-81904685D01*
X160257943Y-81029079D01*
X162305331Y-81029079D01*
X162316236Y-81200727D01*
X162348950Y-81340872D01*
X162471729Y-81539580D01*
X162665590Y-81646204D01*
X162922456Y-81678514D01*
X163827141Y-81678514D01*
X163872375Y-81420032D01*
X163891761Y-81238288D01*
X163898223Y-81035541D01*
X163872375Y-80772213D01*
X163786753Y-80570275D01*
X163631664Y-80441034D01*
X163397415Y-80395800D01*
X163174475Y-80447496D01*
X163029079Y-80586430D01*
X162949919Y-80786753D01*
X162925687Y-81022617D01*
X162932149Y-81168821D01*
X162951535Y-81297254D01*
X162903069Y-81297254D01*
X162714055Y-81226171D01*
X162657108Y-81129241D01*
X162638126Y-80980614D01*
X162654281Y-80762520D01*
X162693053Y-80592892D01*
X162373183Y-80537964D01*
X162326333Y-80747981D01*
X162310582Y-80886107D01*
X162305331Y-81029079D01*
X160257943Y-81029079D01*
X160257943Y-79633279D01*
X161817447Y-79633279D01*
X161835218Y-79825525D01*
X161875606Y-79975767D01*
X161924071Y-80084006D01*
X161962843Y-80150242D01*
X162279483Y-80046850D01*
X162197092Y-79867528D01*
X162163166Y-79626817D01*
X162197092Y-79444265D01*
X162310178Y-79285945D01*
X162521809Y-79172859D01*
X162670436Y-79140145D01*
X162851373Y-79129241D01*
X163061928Y-79142344D01*
X163236941Y-79181655D01*
X163376414Y-79247173D01*
X163513328Y-79402666D01*
X163558966Y-79633279D01*
X163523425Y-79890145D01*
X163452342Y-80053312D01*
X163765751Y-80153473D01*
X163861066Y-79925687D01*
X163893780Y-79771002D01*
X163904685Y-79594507D01*
X163874529Y-79334590D01*
X163784060Y-79119189D01*
X163633279Y-78948304D01*
X163483239Y-78850767D01*
X163304523Y-78781099D01*
X163097132Y-78739297D01*
X162861066Y-78725363D01*
X162626010Y-78742326D01*
X162418417Y-78793215D01*
X162239499Y-78874394D01*
X162090468Y-78982229D01*
X161972536Y-79114701D01*
X161886914Y-79269790D01*
X161834814Y-79443861D01*
X161817447Y-79633279D01*
X160257943Y-79633279D01*
X160257943Y-78725363D01*
X160257943Y-77379106D01*
X165742057Y-77379106D01*
X165742057Y-78725363D01*
X165742057Y-79594507D01*
X165742057Y-81035541D01*
G37*
D13*
%TO.C,C18*%
X136165000Y-90054165D02*
X136165000Y-90285835D01*
X136885000Y-90054165D02*
X136885000Y-90285835D01*
D12*
%TO.C,kibuzzard-67F4292F*%
G36*
X157452536Y-83357566D02*
G01*
X157393570Y-83349489D01*
X157342682Y-83323641D01*
X157306333Y-83278406D01*
X157292601Y-83210555D01*
X157305525Y-83143511D01*
X157341066Y-83096662D01*
X157392763Y-83067582D01*
X157452536Y-83053851D01*
X157452536Y-83357566D01*
G37*
G36*
X157740905Y-81488423D02*
G01*
X157762714Y-81588584D01*
X157761906Y-81651589D01*
X157757868Y-81704901D01*
X157583393Y-81704901D01*
X157577738Y-81658051D01*
X157575315Y-81607970D01*
X157579354Y-81548196D01*
X157593086Y-81497308D01*
X157620549Y-81462574D01*
X157667399Y-81449650D01*
X157740905Y-81488423D01*
G37*
G36*
X157749790Y-78298600D02*
G01*
X157751405Y-78341411D01*
X157738279Y-78410878D01*
X157698901Y-78464190D01*
X157628021Y-78498116D01*
X157520388Y-78509424D01*
X157426284Y-78500741D01*
X157357221Y-78474691D01*
X157314814Y-78430870D01*
X157300679Y-78368875D01*
X157309564Y-78305062D01*
X157331373Y-78250943D01*
X157743328Y-78250943D01*
X157749790Y-78298600D01*
G37*
G36*
X158849413Y-78952074D02*
G01*
X158849413Y-79973075D01*
X158849413Y-80599893D01*
X158849413Y-81574045D01*
X158849413Y-82777599D01*
X158849413Y-83265482D01*
X158849413Y-83950458D01*
X158849413Y-84953689D01*
X158849413Y-85732364D01*
X158849413Y-86816371D01*
X158849413Y-87489500D01*
X156110587Y-87489500D01*
X156110587Y-86816371D01*
X156110587Y-86331718D01*
X156783716Y-86331718D01*
X157446074Y-86331718D01*
X157374184Y-86390684D01*
X157295832Y-86448843D01*
X157217480Y-86502962D01*
X157145590Y-86548196D01*
X157145590Y-86787292D01*
X157226365Y-86721056D01*
X157315218Y-86644319D01*
X157402456Y-86565159D01*
X157480000Y-86493269D01*
X157572892Y-86580507D01*
X157628021Y-86626952D01*
X157685170Y-86672591D01*
X157743328Y-86716007D01*
X157801486Y-86755789D01*
X157904879Y-86816371D01*
X157904879Y-86588584D01*
X157813603Y-86537696D01*
X157713441Y-86470652D01*
X157619742Y-86398762D01*
X157546236Y-86331718D01*
X157904879Y-86331718D01*
X157904879Y-86131395D01*
X156817641Y-86131395D01*
X156783716Y-86331718D01*
X156110587Y-86331718D01*
X156110587Y-85727518D01*
X157126204Y-85727518D01*
X157135897Y-85850297D01*
X157168207Y-85961767D01*
X157328142Y-85918148D01*
X157307948Y-85846258D01*
X157299063Y-85745288D01*
X157316026Y-85626549D01*
X157362876Y-85549812D01*
X157434766Y-85507809D01*
X157525234Y-85494885D01*
X157618934Y-85509626D01*
X157690016Y-85553851D01*
X157734847Y-85633616D01*
X157749790Y-85754982D01*
X157743328Y-85852720D01*
X157722326Y-85945612D01*
X157885493Y-85974691D01*
X157912149Y-85872914D01*
X157920024Y-85807889D01*
X157922649Y-85732364D01*
X157914976Y-85624327D01*
X157891955Y-85532849D01*
X157855606Y-85457122D01*
X157807948Y-85396339D01*
X157749790Y-85350095D01*
X157681939Y-85317986D01*
X157606414Y-85299206D01*
X157525234Y-85292946D01*
X157445267Y-85299408D01*
X157370145Y-85318794D01*
X157302092Y-85351508D01*
X157243328Y-85397954D01*
X157194863Y-85458334D01*
X157157706Y-85532849D01*
X157134079Y-85622308D01*
X157126204Y-85727518D01*
X156110587Y-85727518D01*
X156110587Y-84880991D01*
X157145590Y-84880991D01*
X157615703Y-84880991D01*
X157716672Y-84906032D01*
X157749790Y-84989230D01*
X157742520Y-85055466D01*
X157712633Y-85142704D01*
X157872569Y-85168552D01*
X157912149Y-85053043D01*
X157922649Y-84953689D01*
X157916995Y-84882405D01*
X157900032Y-84823641D01*
X157834604Y-84739634D01*
X157730404Y-84695208D01*
X157664572Y-84685515D01*
X157589855Y-84682284D01*
X157310372Y-84682284D01*
X157310372Y-84472267D01*
X157145590Y-84472267D01*
X157145590Y-84746904D01*
X157145590Y-84880991D01*
X156110587Y-84880991D01*
X156110587Y-84746904D01*
X156799871Y-84746904D01*
X156833796Y-84835757D01*
X156927496Y-84872914D01*
X157019580Y-84835757D01*
X157053506Y-84746904D01*
X157019580Y-84658859D01*
X156927496Y-84622510D01*
X156833796Y-84658859D01*
X156799871Y-84746904D01*
X156110587Y-84746904D01*
X156110587Y-84107162D01*
X157131050Y-84107162D01*
X157132666Y-84153204D01*
X157138320Y-84217017D01*
X157148013Y-84285676D01*
X157163360Y-84347873D01*
X157347528Y-84312332D01*
X157337835Y-84266290D01*
X157328950Y-84212171D01*
X157323296Y-84158859D01*
X157321680Y-84115240D01*
X157325719Y-84032849D01*
X157341066Y-83950458D01*
X157904879Y-83950458D01*
X157904879Y-83750135D01*
X157195670Y-83750135D01*
X157169418Y-83830305D01*
X157148821Y-83912494D01*
X157135493Y-84002760D01*
X157131050Y-84107162D01*
X156110587Y-84107162D01*
X156110587Y-83207324D01*
X157126204Y-83207324D01*
X157137243Y-83310358D01*
X157170361Y-83395441D01*
X157225557Y-83462574D01*
X157301935Y-83511040D01*
X157398596Y-83540119D01*
X157515541Y-83549812D01*
X157555929Y-83549004D01*
X157589855Y-83546581D01*
X157589855Y-83053851D01*
X157656292Y-83069198D01*
X157706979Y-83115240D01*
X157739087Y-83185515D01*
X157749790Y-83273560D01*
X157736866Y-83387453D01*
X157711018Y-83478729D01*
X157880646Y-83506193D01*
X157910533Y-83396339D01*
X157922649Y-83265482D01*
X157916389Y-83173600D01*
X157897609Y-83091815D01*
X157866511Y-83020733D01*
X157823296Y-82960959D01*
X157768166Y-82913099D01*
X157701325Y-82877760D01*
X157622569Y-82855951D01*
X157531696Y-82848681D01*
X157437593Y-82856355D01*
X157355606Y-82879376D01*
X157285937Y-82914917D01*
X157228788Y-82960151D01*
X157184160Y-83013867D01*
X157152052Y-83074852D01*
X157132666Y-83140280D01*
X157126204Y-83207324D01*
X156110587Y-83207324D01*
X156110587Y-82292946D01*
X156783716Y-82292946D01*
X157446074Y-82292946D01*
X157374184Y-82351912D01*
X157295832Y-82410070D01*
X157217480Y-82464190D01*
X157145590Y-82509424D01*
X157145590Y-82748519D01*
X157226365Y-82682284D01*
X157315218Y-82605547D01*
X157402456Y-82526387D01*
X157480000Y-82454497D01*
X157572892Y-82541734D01*
X157628021Y-82588180D01*
X157685170Y-82633818D01*
X157743328Y-82677235D01*
X157801486Y-82717017D01*
X157904879Y-82777599D01*
X157904879Y-82549812D01*
X157813603Y-82498923D01*
X157713441Y-82431880D01*
X157619742Y-82359990D01*
X157546236Y-82292946D01*
X157904879Y-82292946D01*
X157904879Y-82092623D01*
X156817641Y-82092623D01*
X156783716Y-82292946D01*
X156110587Y-82292946D01*
X156110587Y-81570814D01*
X157126204Y-81570814D01*
X157131656Y-81656637D01*
X157148013Y-81726710D01*
X157209402Y-81826064D01*
X157306333Y-81879376D01*
X157434766Y-81895531D01*
X157887108Y-81895531D01*
X157909725Y-81766290D01*
X157919418Y-81675418D01*
X157922649Y-81574045D01*
X157909725Y-81442381D01*
X157866914Y-81341411D01*
X157789370Y-81276791D01*
X157672246Y-81254174D01*
X157560775Y-81280022D01*
X157488078Y-81349489D01*
X157448498Y-81449650D01*
X157436381Y-81567582D01*
X157439612Y-81640684D01*
X157449305Y-81704901D01*
X157425073Y-81704901D01*
X157330565Y-81669360D01*
X157302092Y-81620894D01*
X157292601Y-81546581D01*
X157300679Y-81437534D01*
X157320065Y-81352720D01*
X157160129Y-81325256D01*
X157136704Y-81430264D01*
X157128829Y-81499327D01*
X157126204Y-81570814D01*
X156110587Y-81570814D01*
X156110587Y-80921379D01*
X156785331Y-80921379D01*
X156796640Y-81050620D01*
X156833796Y-81170167D01*
X156995347Y-81136242D01*
X156968691Y-81043350D01*
X156954960Y-80937534D01*
X156959806Y-80885030D01*
X156980808Y-80841411D01*
X157026850Y-80811524D01*
X157105202Y-80800216D01*
X157145590Y-80800216D01*
X157145590Y-81112009D01*
X157310372Y-81112009D01*
X157310372Y-80800216D01*
X157904879Y-80800216D01*
X157904879Y-80599893D01*
X157310372Y-80599893D01*
X157310372Y-80433495D01*
X157145590Y-80433495D01*
X157145590Y-80599893D01*
X157101971Y-80599893D01*
X157017763Y-80606557D01*
X156949305Y-80626549D01*
X156852375Y-80698439D01*
X156800679Y-80801831D01*
X156785331Y-80921379D01*
X156110587Y-80921379D01*
X156110587Y-79973075D01*
X157145590Y-79973075D01*
X157182746Y-80073237D01*
X157287754Y-80116856D01*
X157395994Y-80073237D01*
X157433150Y-79973075D01*
X157635089Y-79973075D01*
X157672246Y-80073237D01*
X157777254Y-80116856D01*
X157885493Y-80073237D01*
X157922649Y-79973075D01*
X157912956Y-79918148D01*
X157884685Y-79872106D01*
X157839451Y-79839796D01*
X157777254Y-79827679D01*
X157716672Y-79839796D01*
X157672246Y-79872106D01*
X157644782Y-79918148D01*
X157635089Y-79973075D01*
X157433150Y-79973075D01*
X157423457Y-79918148D01*
X157395186Y-79872106D01*
X157349952Y-79839796D01*
X157287754Y-79827679D01*
X157227173Y-79839796D01*
X157182746Y-79872106D01*
X157155283Y-79918148D01*
X157145590Y-79973075D01*
X156110587Y-79973075D01*
X156110587Y-78819602D01*
X157145590Y-78819602D01*
X157145590Y-79026387D01*
X157273215Y-79059505D01*
X157341066Y-79078689D01*
X157408918Y-79099085D01*
X157476163Y-79120692D01*
X157542197Y-79143511D01*
X157664168Y-79191169D01*
X157542197Y-79225095D01*
X157476365Y-79242461D01*
X157409725Y-79259020D01*
X157342480Y-79274973D01*
X157274830Y-79290523D01*
X157145590Y-79318794D01*
X157145590Y-79522348D01*
X157251204Y-79492259D01*
X157354798Y-79463382D01*
X157456171Y-79434505D01*
X157555121Y-79404416D01*
X157651850Y-79372712D01*
X157746559Y-79338988D01*
X157839047Y-79302841D01*
X157929111Y-79263867D01*
X158040582Y-79203285D01*
X158117318Y-79137049D01*
X158161745Y-79056274D01*
X158176284Y-78952074D01*
X158168207Y-78860797D01*
X158147205Y-78792138D01*
X157980808Y-78829295D01*
X158001002Y-78886645D01*
X158006656Y-78940765D01*
X157967884Y-79034465D01*
X157875800Y-79091007D01*
X157776446Y-79043619D01*
X157667938Y-78996231D01*
X157550275Y-78948843D01*
X157456222Y-78914109D01*
X157357423Y-78880991D01*
X157253879Y-78849489D01*
X157145590Y-78819602D01*
X156110587Y-78819602D01*
X156110587Y-78250943D01*
X156783716Y-78250943D01*
X157163360Y-78250943D01*
X157136704Y-78331718D01*
X157129435Y-78409263D01*
X157136502Y-78479133D01*
X157157706Y-78540119D01*
X157238481Y-78634626D01*
X157296034Y-78667946D01*
X157363683Y-78691977D01*
X157440420Y-78706516D01*
X157525234Y-78711363D01*
X157611462Y-78705305D01*
X157689208Y-78687130D01*
X157757262Y-78657243D01*
X157814410Y-78616048D01*
X157860250Y-78563948D01*
X157894378Y-78501347D01*
X157915582Y-78428649D01*
X157922649Y-78346258D01*
X157919822Y-78267906D01*
X157911341Y-78187938D01*
X157898417Y-78113624D01*
X157882262Y-78052235D01*
X156817641Y-78052235D01*
X156783716Y-78250943D01*
X156110587Y-78250943D01*
X156110587Y-78052235D01*
X156110587Y-77379106D01*
X158849413Y-77379106D01*
X158849413Y-78052235D01*
X158849413Y-78346258D01*
X158849413Y-78952074D01*
G37*
%TD*%
M02*
