M48
; DRILL file {KiCad 9.0.1} date 2025-05-07T17:15:16+0800
; FORMAT={-:-/ absolute / metric / decimal}
; #@! TF.CreationDate,2025-05-07T17:15:16+08:00
; #@! TF.GenerationSoftware,Kicad,Pcbnew,9.0.1
; #@! TF.FileFunction,Plated,1,4,PTH
FMAT,2
METRIC
; #@! TA.AperFunction,Plated,PTH,ViaDrill
T1C0.305
; #@! TA.AperFunction,Plated,PTH,ComponentDrill
T2C0.500
; #@! TA.AperFunction,Plated,PTH,ComponentDrill
T3C1.000
; #@! TA.AperFunction,Plated,PTH,ComponentDrill
T4C2.500
%
G90
G05
T1
X120.777Y-93.853
X121.666Y-93.853
X121.793Y-90.207
X122.31Y-86.48
X122.555Y-98.425
X122.555Y-99.441
X122.555Y-100.457
X122.555Y-101.346
X122.555Y-102.743
X122.555Y-103.505
X122.65Y-85.88
X123.07Y-83.81
X123.3Y-90.02
X123.317Y-93.853
X123.41Y-89.15
X123.825Y-98.425
X123.825Y-99.441
X123.825Y-100.457
X123.825Y-101.346
X123.825Y-102.743
X123.825Y-103.505
X124.079Y-93.853
X125.095Y-98.425
X125.095Y-99.441
X125.095Y-100.457
X125.095Y-101.346
X125.095Y-102.743
X125.095Y-103.505
X125.576Y-85.852
X125.603Y-93.853
X126.021Y-73.13
X126.365Y-93.853
X126.365Y-98.425
X126.365Y-99.441
X126.365Y-100.457
X126.365Y-101.346
X127.38Y-76.45
X128.1Y-79.7
X128.5Y-71.72
X128.524Y-103.632
X128.524Y-104.267
X129.282Y-89.498
X129.5Y-71.67
X129.54Y-97.917
X129.794Y-103.632
X129.794Y-104.267
X129.85Y-83.25
X130.048Y-94.107
X130.048Y-94.742
X130.191Y-82.685
X130.302Y-76.708
X130.305Y-75.637
X130.331Y-80.15
X130.429Y-97.917
X130.81Y-85.344
X130.81Y-87.376
X130.973Y-82.028
X131.064Y-103.632
X131.064Y-104.267
X131.699Y-86.36
X131.699Y-97.917
X131.826Y-88.392
X131.953Y-84.328
X132.08Y-94.107
X132.08Y-94.742
X132.3Y-80.52
X132.334Y-103.632
X132.334Y-104.267
X132.5Y-78.64
X132.588Y-97.917
X132.715Y-87.376
X132.842Y-85.344
X133.595Y-76.327
X133.604Y-75.692
X133.604Y-76.962
X133.604Y-86.233
X133.604Y-88.392
X133.63Y-91.84
X133.731Y-84.455
X133.847Y-91.124
X134.01Y-71.62
X134.239Y-103.632
X134.239Y-104.267
X134.62Y-85.344
X134.62Y-87.376
X134.868Y-91.13
X134.985Y-74.797
X135.08Y-71.68
X135.382Y-98.044
X135.509Y-103.632
X135.509Y-104.267
X135.604Y-91.631
X135.89Y-94.107
X135.89Y-94.742
X136.03Y-82.08
X136.271Y-98.044
X136.3Y-83.769
X136.432Y-82.683
X136.779Y-103.632
X136.779Y-104.267
X136.93Y-83.187
X137.2Y-84.448
X137.414Y-98.044
X137.922Y-94.107
X137.922Y-94.742
X138.049Y-103.632
X138.049Y-104.267
X138.28Y-86.12
X138.303Y-98.044
X139.065Y-75.819
X139.065Y-76.454
X139.065Y-77.089
X139.419Y-86.303
X139.446Y-88.773
X139.446Y-89.408
X139.54Y-71.57
X139.7Y-93.98
X139.7Y-94.869
X139.827Y-100.33
X139.827Y-101.219
X139.827Y-102.235
X139.827Y-103.124
X139.827Y-105.537
X139.845Y-104.648
X139.9Y-85.145
X139.996Y-82.594
X140.02Y-88.0
X140.58Y-71.67
X140.85Y-85.145
X141.097Y-94.869
X141.097Y-100.33
X141.097Y-101.219
X141.097Y-102.235
X141.097Y-103.124
X141.097Y-104.648
X141.097Y-105.537
X141.224Y-93.98
X141.27Y-87.57
X141.58Y-89.16
X142.012Y-88.603
X142.24Y-93.98
X142.24Y-94.869
X142.367Y-100.33
X142.367Y-101.219
X142.367Y-102.235
X142.367Y-103.124
X142.367Y-104.648
X142.367Y-105.537
X142.42Y-87.58
X142.58Y-88.265
X142.69Y-76.38
X143.637Y-93.98
X143.637Y-94.869
X143.637Y-100.33
X143.637Y-101.219
X143.637Y-102.235
X143.637Y-103.124
X143.83Y-76.35
X144.238Y-78.564
X144.305Y-79.221
X144.345Y-79.881
X144.38Y-81.02
X144.905Y-81.421
X145.08Y-71.86
X145.161Y-93.98
X145.161Y-94.869
X145.415Y-100.33
X145.415Y-101.219
X145.415Y-102.235
X145.415Y-103.124
X145.415Y-104.648
X145.415Y-105.537
X145.469Y-82.023
X146.09Y-71.86
X146.18Y-83.364
X146.195Y-88.975
X146.431Y-93.98
X146.431Y-94.869
X146.523Y-84.592
X146.685Y-100.33
X146.685Y-101.219
X146.685Y-102.235
X146.685Y-103.124
X146.685Y-104.648
X146.685Y-105.537
X146.695Y-83.778
X146.82Y-74.05
X146.9Y-74.97
X147.03Y-90.44
X147.049Y-88.887
X147.21Y-83.364
X147.701Y-72.771
X147.701Y-93.98
X147.701Y-94.869
X147.937Y-83.371
X147.955Y-100.33
X147.955Y-101.219
X147.955Y-102.235
X147.955Y-103.124
X147.955Y-104.648
X147.955Y-105.537
X147.967Y-88.748
X148.63Y-90.519
X148.72Y-83.39
X148.84Y-73.2
X148.98Y-88.78
X149.098Y-93.98
X149.098Y-94.869
X149.225Y-100.33
X149.225Y-101.219
X149.225Y-102.235
X149.225Y-103.124
X150.623Y-90.814
X150.71Y-86.45
X151.12Y-81.784
X151.257Y-104.267
X151.6Y-81.25
X151.76Y-86.42
X152.26Y-82.7
X152.362Y-80.714
X152.45Y-91.66
X152.51Y-78.94
X152.527Y-97.155
X152.527Y-98.044
X152.527Y-104.267
X152.814Y-79.546
X152.86Y-83.275
X152.88Y-78.35
X153.14Y-80.154
X153.18Y-89.91
X153.21Y-82.156
X153.61Y-75.134
X153.797Y-97.155
X153.797Y-98.044
X153.797Y-104.267
X154.75Y-75.134
X155.067Y-104.267
X155.194Y-97.155
X155.194Y-98.044
X155.448Y-74.168
X155.575Y-75.692
X155.886Y-91.694
X155.924Y-83.384
X156.05Y-87.89
X156.06Y-89.17
X156.245Y-85.175
X156.556Y-86.894
X157.099Y-99.949
X157.099Y-100.711
X157.099Y-102.235
X157.099Y-103.505
X157.67Y-86.91
X157.861Y-99.949
X157.861Y-100.711
X157.861Y-102.235
X157.861Y-103.505
X158.14Y-79.67
X158.21Y-80.39
X158.24Y-78.0
X158.369Y-74.168
X158.421Y-76.318
X158.53Y-75.56
X158.68Y-87.91
X158.8Y-74.803
X158.85Y-79.12
X160.147Y-94.107
X160.147Y-95.377
X160.147Y-96.774
X160.147Y-98.044
X160.909Y-94.107
X160.909Y-95.377
X160.909Y-96.774
X160.909Y-98.044
X161.35Y-82.77
X161.354Y-78.606
X161.429Y-84.679
X161.48Y-79.69
X161.486Y-75.961
X161.51Y-83.57
X161.544Y-74.803
X161.55Y-80.837
X161.76Y-77.41
X162.02Y-90.95
X162.179Y-81.38
X162.179Y-82.54
X162.94Y-79.38
X162.94Y-84.58
X163.49Y-77.54
X163.52Y-78.48
X164.0Y-91.69
X164.81Y-76.104
X165.67Y-91.81
X166.13Y-80.48
X166.18Y-79.51
T2
X121.125Y-71.0
X121.125Y-107.0
X121.674Y-69.674
X121.674Y-72.326
X121.674Y-105.674
X121.674Y-108.326
X123.0Y-69.125
X123.0Y-72.875
X123.0Y-105.125
X123.0Y-108.875
X124.326Y-69.674
X124.326Y-72.326
X124.326Y-105.674
X124.326Y-108.326
X124.875Y-71.0
X124.875Y-107.0
X157.125Y-71.0
X157.125Y-107.0
X157.674Y-69.674
X157.674Y-72.326
X157.674Y-105.674
X157.674Y-108.326
X159.0Y-69.125
X159.0Y-72.875
X159.0Y-105.125
X159.0Y-108.875
X160.326Y-69.674
X160.326Y-72.326
X160.326Y-105.674
X160.326Y-108.326
X160.875Y-71.0
X160.875Y-107.0
T3
X131.0Y-108.0
X141.0Y-108.0
X151.0Y-108.0
X168.0Y-95.0
X168.0Y-101.0
T4
X123.0Y-71.0
X123.0Y-107.0
X159.0Y-71.0
X159.0Y-107.0
M30
