%TF.GenerationSoftware,KiCad,Pcbnew,9.0.1*%
%TF.CreationDate,2025-04-22T15:18:38+08:00*%
%TF.ProjectId,CawDrive,43617744-7269-4766-952e-6b696361645f,rev?*%
%TF.SameCoordinates,Original*%
%TF.FileFunction,Legend,Bot*%
%TF.FilePolarity,Positive*%
%FSLAX46Y46*%
G04 Gerber Fmt 4.6, Leading zero omitted, Abs format (unit mm)*
G04 Created by KiCad (PCBNEW 9.0.1) date 2025-04-22 15:18:38*
%MOMM*%
%LPD*%
G01*
G04 APERTURE LIST*
%ADD10C,0.000000*%
%ADD11C,0.152000*%
%ADD12C,0.300000*%
%ADD13C,0.120000*%
%ADD14C,0.254000*%
%ADD15C,0.150000*%
G04 APERTURE END LIST*
D10*
%TO.C,G\u002A\u002A\u002A*%
G36*
X156911138Y-92649476D02*
G01*
X156936565Y-92657867D01*
X156936565Y-92726660D01*
X156936009Y-92756649D01*
X156933269Y-92782463D01*
X156927557Y-92794377D01*
X156918119Y-92792734D01*
X156904205Y-92777877D01*
X156885062Y-92750149D01*
X156884861Y-92749837D01*
X156862421Y-92710732D01*
X156850833Y-92680102D01*
X156850003Y-92658303D01*
X156859839Y-92645695D01*
X156880248Y-92642633D01*
X156911138Y-92649476D01*
G37*
G36*
X158035265Y-91780580D02*
G01*
X158052709Y-91790738D01*
X158070578Y-91803801D01*
X158084503Y-91816388D01*
X158090115Y-91825117D01*
X158088049Y-91830136D01*
X158078350Y-91843829D01*
X158063389Y-91861250D01*
X158062008Y-91862722D01*
X158043507Y-91879075D01*
X158026711Y-91888655D01*
X158014513Y-91890297D01*
X158009804Y-91882835D01*
X158005530Y-91878096D01*
X157992049Y-91875534D01*
X157985829Y-91874420D01*
X157970729Y-91865572D01*
X157956835Y-91851446D01*
X157947895Y-91836345D01*
X157947657Y-91824571D01*
X157958156Y-91813299D01*
X157976543Y-91799822D01*
X157997641Y-91787692D01*
X158016792Y-91779558D01*
X158029341Y-91778072D01*
X158035265Y-91780580D01*
G37*
G36*
X156756200Y-91514671D02*
G01*
X156775862Y-91526223D01*
X156798999Y-91542531D01*
X156821905Y-91560977D01*
X156840876Y-91578943D01*
X156858352Y-91597620D01*
X156838679Y-91623412D01*
X156829792Y-91634100D01*
X156814080Y-91645967D01*
X156795581Y-91649204D01*
X156779018Y-91651606D01*
X156763037Y-91663806D01*
X156755432Y-91672821D01*
X156744721Y-91678408D01*
X156737403Y-91675119D01*
X156722007Y-91663819D01*
X156702423Y-91647221D01*
X156681767Y-91628213D01*
X156663155Y-91609681D01*
X156649703Y-91594511D01*
X156644527Y-91585590D01*
X156645489Y-91582889D01*
X156655081Y-91571880D01*
X156672117Y-91556891D01*
X156693062Y-91540590D01*
X156714383Y-91525644D01*
X156732546Y-91514720D01*
X156744018Y-91510486D01*
X156756200Y-91514671D01*
G37*
G36*
X156981619Y-92849508D02*
G01*
X156995075Y-92861936D01*
X157013234Y-92881845D01*
X157033760Y-92906793D01*
X157043527Y-92919133D01*
X157070844Y-92952936D01*
X157098732Y-92986632D01*
X157122465Y-93014482D01*
X157132617Y-93026450D01*
X157169392Y-93078016D01*
X157195619Y-93131724D01*
X157212094Y-93190189D01*
X157219612Y-93256029D01*
X157218968Y-93331861D01*
X157216815Y-93362733D01*
X157209196Y-93421291D01*
X157197512Y-93466900D01*
X157181587Y-93500348D01*
X157181142Y-93501023D01*
X157169139Y-93515629D01*
X157161595Y-93516390D01*
X157158488Y-93503278D01*
X157159790Y-93476267D01*
X157161794Y-93458161D01*
X157164477Y-93437547D01*
X157166475Y-93426333D01*
X157167076Y-93421532D01*
X157166525Y-93402976D01*
X157164024Y-93375603D01*
X157160048Y-93343113D01*
X157155075Y-93309205D01*
X157149578Y-93277577D01*
X157144036Y-93251931D01*
X157133503Y-93215788D01*
X157114991Y-93163087D01*
X157091878Y-93104767D01*
X157065815Y-93044606D01*
X157038449Y-92986380D01*
X157011431Y-92933869D01*
X156986409Y-92890848D01*
X156973935Y-92870310D01*
X156967151Y-92855609D01*
X156968052Y-92848445D01*
X156976114Y-92846560D01*
X156981619Y-92849508D01*
G37*
G36*
X158849413Y-91557942D02*
G01*
X158849413Y-91620000D01*
X158849413Y-92226656D01*
X158849413Y-92874431D01*
X158849413Y-94620690D01*
X155848724Y-94620690D01*
X152848034Y-94620690D01*
X152848034Y-92704191D01*
X152975955Y-92704191D01*
X153016033Y-92675335D01*
X153036827Y-92660217D01*
X153068580Y-92636792D01*
X153097537Y-92615102D01*
X153119984Y-92599235D01*
X153142721Y-92586768D01*
X153157014Y-92584083D01*
X153161975Y-92591506D01*
X153161728Y-92594982D01*
X153156531Y-92609565D01*
X153143691Y-92628800D01*
X153122029Y-92654266D01*
X153090367Y-92687545D01*
X153071926Y-92706832D01*
X153053849Y-92727074D01*
X153042348Y-92741646D01*
X153039342Y-92748263D01*
X153041555Y-92749328D01*
X153048726Y-92744483D01*
X153052706Y-92740793D01*
X153065904Y-92738405D01*
X153067134Y-92738437D01*
X153079328Y-92732967D01*
X153097634Y-92719518D01*
X153118798Y-92700424D01*
X153122852Y-92696498D01*
X153150466Y-92671488D01*
X153182770Y-92644324D01*
X153213588Y-92620230D01*
X153226864Y-92610372D01*
X153281201Y-92570186D01*
X153325111Y-92538040D01*
X153359560Y-92513256D01*
X153385516Y-92495158D01*
X153403945Y-92483070D01*
X153415814Y-92476313D01*
X153422089Y-92474211D01*
X153425264Y-92475575D01*
X153428592Y-92483231D01*
X153430694Y-92499420D01*
X153431793Y-92526161D01*
X153432110Y-92565473D01*
X153432110Y-92656735D01*
X153518010Y-92656735D01*
X153603911Y-92656735D01*
X153599288Y-92596502D01*
X153598623Y-92587305D01*
X153597178Y-92560266D01*
X153596868Y-92540161D01*
X153597779Y-92530794D01*
X153602326Y-92526289D01*
X153613520Y-92527445D01*
X153630702Y-92539253D01*
X153655063Y-92562372D01*
X153678811Y-92585872D01*
X153695840Y-92600805D01*
X153703400Y-92604643D01*
X153701340Y-92597523D01*
X153689507Y-92579580D01*
X153667750Y-92550953D01*
X153650534Y-92529103D01*
X153623938Y-92494996D01*
X153605124Y-92469923D01*
X153593211Y-92452325D01*
X153587321Y-92440644D01*
X153586573Y-92433321D01*
X153590088Y-92428797D01*
X153596987Y-92425512D01*
X153606762Y-92427031D01*
X153625986Y-92439676D01*
X153653569Y-92464156D01*
X153656535Y-92466991D01*
X153682830Y-92491950D01*
X153709205Y-92516730D01*
X153730364Y-92536354D01*
X153762135Y-92565473D01*
X153743595Y-92536269D01*
X153738518Y-92528458D01*
X153724221Y-92507975D01*
X153712619Y-92493258D01*
X153704960Y-92484328D01*
X153689296Y-92464899D01*
X153670475Y-92440692D01*
X153650526Y-92414418D01*
X153631478Y-92388788D01*
X153615361Y-92366511D01*
X153604202Y-92350298D01*
X153600031Y-92342860D01*
X153602355Y-92337656D01*
X153612124Y-92327261D01*
X153618262Y-92321411D01*
X153616955Y-92316855D01*
X153602998Y-92313509D01*
X153601977Y-92313343D01*
X153596109Y-92312733D01*
X153591392Y-92311893D01*
X153587663Y-92309389D01*
X153584757Y-92303783D01*
X153582510Y-92293638D01*
X153580758Y-92277519D01*
X153579337Y-92253989D01*
X153578082Y-92221612D01*
X153576828Y-92178950D01*
X153575413Y-92124567D01*
X153574702Y-92097002D01*
X153753976Y-92097002D01*
X153756351Y-92123489D01*
X153760718Y-92162384D01*
X153763415Y-92191065D01*
X153766525Y-92230840D01*
X153769779Y-92277909D01*
X153772924Y-92328615D01*
X153775708Y-92379299D01*
X153775902Y-92383102D01*
X153778446Y-92431890D01*
X153780978Y-92478689D01*
X153783321Y-92520351D01*
X153785298Y-92553727D01*
X153786066Y-92565473D01*
X153786733Y-92575669D01*
X153787732Y-92601710D01*
X153785343Y-92624171D01*
X153778460Y-92640185D01*
X153770953Y-92653058D01*
X153769195Y-92659194D01*
X153775781Y-92659484D01*
X153794259Y-92659437D01*
X153821590Y-92659036D01*
X153854768Y-92658312D01*
X153937933Y-92656238D01*
X153933058Y-92591659D01*
X153930705Y-92558996D01*
X153926391Y-92491158D01*
X153922481Y-92419626D01*
X153919139Y-92348049D01*
X153916526Y-92280076D01*
X153914808Y-92219355D01*
X153914147Y-92169536D01*
X153914007Y-92092339D01*
X154089258Y-92092339D01*
X154089450Y-92127187D01*
X154090048Y-92169374D01*
X154091048Y-92216853D01*
X154091223Y-92224008D01*
X154092723Y-92278341D01*
X154094393Y-92321165D01*
X154096503Y-92355249D01*
X154099324Y-92383365D01*
X154103125Y-92408283D01*
X154108178Y-92432774D01*
X154114752Y-92459609D01*
X154115551Y-92462745D01*
X154127148Y-92518303D01*
X154130947Y-92563873D01*
X154126954Y-92601696D01*
X154115173Y-92634011D01*
X154103679Y-92656238D01*
X154103422Y-92656735D01*
X154179577Y-92656735D01*
X154255732Y-92656735D01*
X154252936Y-92614755D01*
X154251712Y-92594444D01*
X154249893Y-92556060D01*
X154248414Y-92514611D01*
X154247313Y-92472619D01*
X154246627Y-92432608D01*
X154246396Y-92397097D01*
X154246658Y-92368610D01*
X154247450Y-92349669D01*
X154248811Y-92342794D01*
X154256315Y-92345691D01*
X154270036Y-92354119D01*
X154273683Y-92356527D01*
X154301491Y-92370135D01*
X154336641Y-92382119D01*
X154372961Y-92390651D01*
X154404279Y-92393901D01*
X154408738Y-92393920D01*
X154428270Y-92395145D01*
X154437389Y-92399281D01*
X154439641Y-92407711D01*
X154442843Y-92417192D01*
X154457330Y-92425962D01*
X154463007Y-92427727D01*
X154488447Y-92442331D01*
X154511827Y-92464729D01*
X154527748Y-92490010D01*
X154530690Y-92497556D01*
X154533439Y-92510794D01*
X154528695Y-92516319D01*
X154523282Y-92521761D01*
X154519951Y-92536069D01*
X154519871Y-92538811D01*
X154511690Y-92562326D01*
X154491493Y-92580486D01*
X154461278Y-92591404D01*
X154444661Y-92594186D01*
X154415737Y-92597178D01*
X154390773Y-92597639D01*
X154373246Y-92595584D01*
X154366631Y-92591027D01*
X154363893Y-92586783D01*
X154352029Y-92583726D01*
X154346328Y-92584399D01*
X154339077Y-92591510D01*
X154339599Y-92607754D01*
X154347753Y-92634832D01*
X154349269Y-92638809D01*
X154360693Y-92656761D01*
X154378226Y-92664997D01*
X154381132Y-92665582D01*
X154410291Y-92668765D01*
X154447707Y-92669738D01*
X154487938Y-92668632D01*
X154525539Y-92665579D01*
X154555068Y-92660712D01*
X154572849Y-92655209D01*
X154611002Y-92633470D01*
X154640258Y-92601640D01*
X154659050Y-92561766D01*
X154665810Y-92515901D01*
X154665208Y-92502415D01*
X154653946Y-92460211D01*
X154628432Y-92420941D01*
X154588642Y-92384577D01*
X154534553Y-92351091D01*
X154511756Y-92340291D01*
X154488378Y-92333600D01*
X154466473Y-92333646D01*
X154441330Y-92333426D01*
X154411716Y-92326164D01*
X154396149Y-92320306D01*
X154368402Y-92311027D01*
X154339314Y-92302262D01*
X154309655Y-92293202D01*
X154280852Y-92281349D01*
X154262239Y-92268051D01*
X154251360Y-92251398D01*
X154245761Y-92229481D01*
X154244130Y-92211712D01*
X154246867Y-92184663D01*
X154256296Y-92166751D01*
X154271562Y-92160271D01*
X154284966Y-92156612D01*
X154300923Y-92145669D01*
X154302551Y-92144133D01*
X154324421Y-92133286D01*
X154350897Y-92132254D01*
X154376014Y-92141378D01*
X154385002Y-92145006D01*
X154407078Y-92150389D01*
X154437063Y-92155633D01*
X154471136Y-92159988D01*
X154496434Y-92162889D01*
X154528274Y-92167246D01*
X154553390Y-92171502D01*
X154567874Y-92175050D01*
X154575950Y-92177769D01*
X154583958Y-92176537D01*
X154585660Y-92164632D01*
X154585381Y-92159225D01*
X154578944Y-92132664D01*
X154566460Y-92105560D01*
X154551220Y-92085480D01*
X154546956Y-92082143D01*
X154528327Y-92071457D01*
X154505617Y-92061802D01*
X154496689Y-92058494D01*
X154476881Y-92049999D01*
X154464852Y-92043171D01*
X154458602Y-92039909D01*
X154451984Y-92046111D01*
X154447970Y-92049974D01*
X154436449Y-92053535D01*
X154415794Y-92056396D01*
X154384183Y-92058800D01*
X154339792Y-92060986D01*
X154328749Y-92061462D01*
X154285804Y-92063505D01*
X154244941Y-92065723D01*
X154210329Y-92067879D01*
X154186140Y-92069734D01*
X154164976Y-92071069D01*
X154138390Y-92069367D01*
X154117484Y-92062346D01*
X154114651Y-92060945D01*
X154098953Y-92053706D01*
X154090637Y-92050756D01*
X154090114Y-92052854D01*
X154089478Y-92066879D01*
X154089258Y-92092339D01*
X153914007Y-92092339D01*
X153913972Y-92072939D01*
X153882943Y-92076788D01*
X153863919Y-92077836D01*
X153833629Y-92077079D01*
X153802633Y-92074303D01*
X153784975Y-92071863D01*
X153769092Y-92070352D01*
X153759317Y-92072596D01*
X153754621Y-92080758D01*
X153753976Y-92097002D01*
X153574702Y-92097002D01*
X153573671Y-92057027D01*
X153573069Y-92034128D01*
X154771778Y-92034128D01*
X154772488Y-92043455D01*
X154772583Y-92044313D01*
X154773533Y-92058105D01*
X154774928Y-92084144D01*
X154776673Y-92120380D01*
X154778673Y-92164765D01*
X154780831Y-92215250D01*
X154783052Y-92269785D01*
X154784960Y-92313827D01*
X154788032Y-92372658D01*
X154791388Y-92425150D01*
X154794879Y-92469239D01*
X154798351Y-92502859D01*
X154800394Y-92515901D01*
X154801655Y-92523946D01*
X154804411Y-92537191D01*
X154809935Y-92574751D01*
X154811606Y-92607870D01*
X154809384Y-92633346D01*
X154803228Y-92647974D01*
X154802336Y-92649005D01*
X154803221Y-92652736D01*
X154813451Y-92655113D01*
X154834774Y-92656368D01*
X154868936Y-92656735D01*
X154943406Y-92656735D01*
X154943406Y-92612929D01*
X154944179Y-92592993D01*
X154946718Y-92575756D01*
X154950414Y-92569124D01*
X154958452Y-92573973D01*
X154973098Y-92586917D01*
X154991094Y-92605121D01*
X155023322Y-92633857D01*
X155058920Y-92653027D01*
X155061864Y-92653984D01*
X155086190Y-92659395D01*
X155118586Y-92663951D01*
X155154564Y-92667309D01*
X155189634Y-92669127D01*
X155219307Y-92669063D01*
X155239094Y-92666774D01*
X155240935Y-92666290D01*
X155259091Y-92661568D01*
X155281171Y-92655874D01*
X155288511Y-92653509D01*
X155312778Y-92641485D01*
X155335249Y-92625461D01*
X155336895Y-92624002D01*
X155361371Y-92597196D01*
X155377247Y-92566766D01*
X155385766Y-92529331D01*
X155388172Y-92481512D01*
X155387782Y-92461751D01*
X155386424Y-92426360D01*
X155384274Y-92382563D01*
X155381515Y-92333232D01*
X155378333Y-92281241D01*
X155374911Y-92229466D01*
X155371435Y-92180780D01*
X155368089Y-92138058D01*
X155367790Y-92134717D01*
X155548355Y-92134717D01*
X155552432Y-92163921D01*
X155552542Y-92164708D01*
X155560968Y-92225842D01*
X155567418Y-92275146D01*
X155572090Y-92315197D01*
X155575181Y-92348574D01*
X155576892Y-92377856D01*
X155577418Y-92405620D01*
X155576960Y-92434446D01*
X155575713Y-92466910D01*
X155575619Y-92469002D01*
X155574965Y-92481512D01*
X155573462Y-92510288D01*
X155570877Y-92550503D01*
X155568178Y-92585139D01*
X155565684Y-92609690D01*
X155560069Y-92653906D01*
X155709872Y-92662723D01*
X155714458Y-92662991D01*
X155762955Y-92665647D01*
X155809182Y-92667876D01*
X155850061Y-92669549D01*
X155882519Y-92670540D01*
X155903481Y-92670722D01*
X155911571Y-92670491D01*
X155954496Y-92667318D01*
X156001596Y-92661294D01*
X156048176Y-92653211D01*
X156089545Y-92643860D01*
X156121009Y-92634032D01*
X156151391Y-92619947D01*
X156204919Y-92583904D01*
X156251737Y-92537575D01*
X156289417Y-92483573D01*
X156315532Y-92424513D01*
X156318823Y-92413987D01*
X156324548Y-92392463D01*
X156328138Y-92371171D01*
X156329438Y-92353222D01*
X156629803Y-92353222D01*
X156629817Y-92359711D01*
X156630233Y-92391407D01*
X156631161Y-92434308D01*
X156632528Y-92485770D01*
X156634259Y-92543147D01*
X156636281Y-92603794D01*
X156638520Y-92665067D01*
X156647360Y-92896078D01*
X156673947Y-92874712D01*
X156711197Y-92851960D01*
X156750090Y-92842898D01*
X156789398Y-92848280D01*
X156828913Y-92868038D01*
X156868423Y-92902105D01*
X156907719Y-92950411D01*
X156909490Y-92952935D01*
X156936502Y-92994902D01*
X156964572Y-93044002D01*
X156991254Y-93095526D01*
X157014100Y-93144763D01*
X157030663Y-93187005D01*
X157034760Y-93198946D01*
X157045582Y-93229858D01*
X157058450Y-93266051D01*
X157071385Y-93301943D01*
X157095059Y-93370490D01*
X157122449Y-93457127D01*
X157149586Y-93549983D01*
X157175250Y-93644707D01*
X157198221Y-93736949D01*
X157217278Y-93822356D01*
X157217372Y-93822809D01*
X157223703Y-93853437D01*
X157232364Y-93895450D01*
X157242764Y-93945980D01*
X157254314Y-94002161D01*
X157266424Y-94061126D01*
X157278504Y-94120008D01*
X157280573Y-94130075D01*
X157293755Y-94193048D01*
X157304539Y-94242183D01*
X157313041Y-94277954D01*
X157319381Y-94300837D01*
X157323678Y-94311305D01*
X157326051Y-94309833D01*
X157327493Y-94302371D01*
X157331733Y-94279832D01*
X157337992Y-94246183D01*
X157345900Y-94203439D01*
X157355082Y-94153619D01*
X157365169Y-94098737D01*
X157375787Y-94040811D01*
X157386564Y-93981857D01*
X157390653Y-93960579D01*
X157402428Y-93905705D01*
X157417656Y-93840770D01*
X157435636Y-93768396D01*
X157455669Y-93691205D01*
X157477053Y-93611819D01*
X157499089Y-93532861D01*
X157521076Y-93456952D01*
X157542312Y-93386715D01*
X157562099Y-93324772D01*
X157564070Y-93318863D01*
X157589364Y-93249785D01*
X157618689Y-93180080D01*
X157650755Y-93112205D01*
X157684271Y-93048619D01*
X157717948Y-92991781D01*
X157750497Y-92944149D01*
X157780627Y-92908182D01*
X157798977Y-92891011D01*
X157840434Y-92863381D01*
X157883167Y-92849053D01*
X157925811Y-92848370D01*
X157966997Y-92861671D01*
X157976034Y-92866115D01*
X157991709Y-92872841D01*
X157998968Y-92874431D01*
X157998798Y-92871779D01*
X157995584Y-92857500D01*
X157989206Y-92833064D01*
X157980312Y-92800915D01*
X157969550Y-92763501D01*
X157965395Y-92749446D01*
X157950930Y-92703515D01*
X157938334Y-92669220D01*
X157926767Y-92644439D01*
X157915385Y-92627052D01*
X157907901Y-92617456D01*
X157897195Y-92602362D01*
X157892989Y-92594271D01*
X157892232Y-92592440D01*
X157884565Y-92581500D01*
X157870631Y-92563833D01*
X157852909Y-92542402D01*
X157833874Y-92520170D01*
X157816006Y-92500103D01*
X157801780Y-92485163D01*
X157789333Y-92471476D01*
X157772248Y-92450643D01*
X157753693Y-92426698D01*
X157736375Y-92403221D01*
X157723000Y-92383794D01*
X157716273Y-92371998D01*
X157715983Y-92371287D01*
X157708975Y-92359301D01*
X157695893Y-92340012D01*
X157679315Y-92317241D01*
X157669481Y-92303498D01*
X157651566Y-92276410D01*
X157631338Y-92244049D01*
X157610247Y-92208929D01*
X157589741Y-92173565D01*
X157571270Y-92140470D01*
X157556281Y-92112159D01*
X157550477Y-92100031D01*
X157670495Y-92100031D01*
X157746759Y-92177607D01*
X157759634Y-92190586D01*
X157785612Y-92216027D01*
X157807425Y-92236392D01*
X157823091Y-92249862D01*
X157830628Y-92254617D01*
X157835570Y-92253618D01*
X157851940Y-92248837D01*
X157873695Y-92241559D01*
X157876891Y-92240422D01*
X157895658Y-92232675D01*
X157902434Y-92226656D01*
X157899166Y-92220775D01*
X157893505Y-92217102D01*
X157876074Y-92207186D01*
X157849722Y-92192878D01*
X157816845Y-92175470D01*
X157779835Y-92156257D01*
X157670495Y-92100031D01*
X157550477Y-92100031D01*
X157546224Y-92091144D01*
X157542548Y-92079941D01*
X157541738Y-92076688D01*
X157535934Y-92072826D01*
X157522541Y-92070472D01*
X157499224Y-92069301D01*
X157463650Y-92068990D01*
X157431932Y-92068625D01*
X157401693Y-92066885D01*
X157381755Y-92063456D01*
X157369713Y-92058057D01*
X157366082Y-92055421D01*
X157349895Y-92043715D01*
X157327001Y-92027196D01*
X157301124Y-92008552D01*
X157284880Y-91996856D01*
X157643211Y-91996856D01*
X157644757Y-92002222D01*
X157650540Y-92003731D01*
X157669423Y-92008117D01*
X157698998Y-92014738D01*
X157737171Y-92023129D01*
X157781847Y-92032830D01*
X157830931Y-92043375D01*
X157866731Y-92051047D01*
X157912532Y-92060922D01*
X157952276Y-92069560D01*
X157983905Y-92076511D01*
X158005363Y-92081325D01*
X158014594Y-92083553D01*
X158017149Y-92084319D01*
X158020091Y-92084257D01*
X158023957Y-92082186D01*
X158029618Y-92077033D01*
X158037949Y-92067727D01*
X158049825Y-92053194D01*
X158066117Y-92032361D01*
X158087701Y-92004157D01*
X158115449Y-91967507D01*
X158150235Y-91921340D01*
X158192934Y-91864582D01*
X158213107Y-91837791D01*
X158250387Y-91788418D01*
X158286118Y-91741264D01*
X158318857Y-91698222D01*
X158347163Y-91661185D01*
X158369595Y-91632046D01*
X158384712Y-91612699D01*
X158428211Y-91557942D01*
X158394684Y-91555736D01*
X158367984Y-91556535D01*
X158327865Y-91562535D01*
X158280844Y-91573215D01*
X158230310Y-91587792D01*
X158179652Y-91605482D01*
X158177309Y-91606385D01*
X158107751Y-91637917D01*
X158031687Y-91680808D01*
X157950426Y-91734146D01*
X157865279Y-91797019D01*
X157777555Y-91868514D01*
X157688563Y-91947718D01*
X157672311Y-91963145D01*
X157670792Y-91964587D01*
X157651691Y-91984558D01*
X157643211Y-91996856D01*
X157284880Y-91996856D01*
X157247577Y-91969997D01*
X157229205Y-91993950D01*
X157201988Y-92025398D01*
X157162910Y-92058971D01*
X157113756Y-92090009D01*
X157101797Y-92096382D01*
X157064278Y-92114369D01*
X157016839Y-92135120D01*
X156962322Y-92157515D01*
X156903568Y-92180434D01*
X156843420Y-92202756D01*
X156784721Y-92223362D01*
X156730313Y-92241131D01*
X156629925Y-92272388D01*
X156629861Y-92314472D01*
X156629803Y-92353222D01*
X156329438Y-92353222D01*
X156329931Y-92346409D01*
X156330264Y-92314472D01*
X156329475Y-92271658D01*
X156326936Y-92170066D01*
X156294914Y-92105472D01*
X156274900Y-92069096D01*
X156245780Y-92027711D01*
X156237243Y-92018254D01*
X156937680Y-92018254D01*
X156943333Y-92023664D01*
X156957427Y-92031966D01*
X156959702Y-92033135D01*
X156974575Y-92040364D01*
X156981833Y-92043159D01*
X156983632Y-92042252D01*
X156994206Y-92035087D01*
X157011316Y-92022703D01*
X157031907Y-92007405D01*
X157052923Y-91991497D01*
X157071309Y-91977282D01*
X157084008Y-91967063D01*
X157087965Y-91963145D01*
X157082638Y-91964563D01*
X157066352Y-91969988D01*
X157042735Y-91978280D01*
X157015305Y-91988155D01*
X156987581Y-91998331D01*
X156963083Y-92007527D01*
X156945328Y-92014460D01*
X156937835Y-92017849D01*
X156937680Y-92018254D01*
X156237243Y-92018254D01*
X156209222Y-91987215D01*
X156162326Y-91944080D01*
X156150461Y-91935047D01*
X156119058Y-91916249D01*
X156079950Y-91897235D01*
X156037429Y-91880004D01*
X155995790Y-91866554D01*
X155984660Y-91863612D01*
X155964023Y-91859001D01*
X155942598Y-91855748D01*
X155917624Y-91853660D01*
X155886338Y-91852545D01*
X155845979Y-91852211D01*
X155793785Y-91852464D01*
X155763556Y-91852613D01*
X155707597Y-91852157D01*
X155664181Y-91850574D01*
X155631923Y-91847797D01*
X155609436Y-91843763D01*
X155571288Y-91833867D01*
X155571288Y-91909085D01*
X155571288Y-91957955D01*
X155571288Y-91984303D01*
X155598666Y-91972206D01*
X155611995Y-91967552D01*
X155630787Y-91963936D01*
X155656563Y-91961588D01*
X155691859Y-91960284D01*
X155739209Y-91959801D01*
X155751403Y-91959775D01*
X155792151Y-91959931D01*
X155822174Y-91960775D01*
X155844570Y-91962673D01*
X155862440Y-91965987D01*
X155878886Y-91971081D01*
X155897007Y-91978320D01*
X155916628Y-91986295D01*
X155933414Y-91991602D01*
X155942906Y-91991457D01*
X155948429Y-91986382D01*
X155954385Y-91980367D01*
X155964868Y-91979678D01*
X155984107Y-91984869D01*
X155986026Y-91985484D01*
X156028455Y-92000307D01*
X156059127Y-92014957D01*
X156080495Y-92032093D01*
X156095009Y-92054377D01*
X156105121Y-92084468D01*
X156113283Y-92125026D01*
X156117119Y-92145515D01*
X156122647Y-92165647D01*
X156129394Y-92176954D01*
X156138865Y-92182840D01*
X156150263Y-92189733D01*
X156161607Y-92207095D01*
X156167975Y-92235010D01*
X156169965Y-92275253D01*
X156169965Y-92323576D01*
X156131635Y-92360530D01*
X156123224Y-92368696D01*
X156106739Y-92385977D01*
X156098057Y-92399201D01*
X156094981Y-92412592D01*
X156095314Y-92430372D01*
X156094356Y-92451358D01*
X156084425Y-92484678D01*
X156066247Y-92513085D01*
X156042248Y-92531934D01*
X156038962Y-92533445D01*
X156023475Y-92538033D01*
X156005081Y-92537978D01*
X155978270Y-92533407D01*
X155959320Y-92529316D01*
X155937704Y-92524168D01*
X155925061Y-92520534D01*
X155919078Y-92519847D01*
X155914432Y-92527930D01*
X155914016Y-92531105D01*
X155904368Y-92542903D01*
X155884547Y-92552134D01*
X155858026Y-92558216D01*
X155828275Y-92560564D01*
X155798768Y-92558594D01*
X155772976Y-92551723D01*
X155767692Y-92549623D01*
X155745633Y-92542709D01*
X155728527Y-92539920D01*
X155719940Y-92538015D01*
X155707286Y-92526999D01*
X155692880Y-92504191D01*
X155686001Y-92490567D01*
X155670331Y-92443924D01*
X155667010Y-92399188D01*
X155675990Y-92358396D01*
X155697222Y-92323586D01*
X155720223Y-92297389D01*
X155770618Y-92302355D01*
X155797210Y-92305373D01*
X155819165Y-92308597D01*
X155831354Y-92311289D01*
X155835162Y-92312396D01*
X155838278Y-92309156D01*
X155834258Y-92295696D01*
X155833989Y-92294971D01*
X155828917Y-92273422D01*
X155826821Y-92249232D01*
X155826821Y-92222329D01*
X155788491Y-92221854D01*
X155774052Y-92221485D01*
X155733398Y-92218815D01*
X155692027Y-92214142D01*
X155653767Y-92208041D01*
X155622449Y-92201087D01*
X155601900Y-92193853D01*
X155600960Y-92193355D01*
X155580138Y-92177777D01*
X155563149Y-92158091D01*
X155548355Y-92134717D01*
X155367790Y-92134717D01*
X155365057Y-92104173D01*
X155362525Y-92081999D01*
X155358067Y-92051184D01*
X155332369Y-92061922D01*
X155332267Y-92061964D01*
X155299747Y-92071412D01*
X155272408Y-92069144D01*
X155246307Y-92054835D01*
X155222938Y-92037010D01*
X155236140Y-92100465D01*
X155244982Y-92148287D01*
X155252197Y-92202561D01*
X155255478Y-92250633D01*
X155254667Y-92289930D01*
X155249603Y-92317879D01*
X155242321Y-92350950D01*
X155241657Y-92390660D01*
X155249269Y-92425405D01*
X155255350Y-92444031D01*
X155255404Y-92460346D01*
X155246811Y-92476117D01*
X155228143Y-92496114D01*
X155216299Y-92508380D01*
X155203792Y-92523396D01*
X155198939Y-92532330D01*
X155198934Y-92532497D01*
X155192268Y-92537745D01*
X155176780Y-92539920D01*
X155157477Y-92542987D01*
X155135908Y-92552180D01*
X155131052Y-92555211D01*
X155116514Y-92560376D01*
X155103410Y-92555831D01*
X155101428Y-92554737D01*
X155083501Y-92549395D01*
X155061172Y-92547221D01*
X155051133Y-92546905D01*
X155035707Y-92543082D01*
X155029171Y-92533650D01*
X155022193Y-92523588D01*
X155006727Y-92515336D01*
X155000339Y-92513405D01*
X154973792Y-92497736D01*
X154954308Y-92473969D01*
X154945652Y-92446359D01*
X154941966Y-92396373D01*
X154938511Y-92355156D01*
X154935239Y-92322902D01*
X154931884Y-92296725D01*
X154930195Y-92269280D01*
X154935997Y-92244433D01*
X154937899Y-92239811D01*
X154941392Y-92217323D01*
X154941311Y-92185190D01*
X154937779Y-92146792D01*
X154930919Y-92105513D01*
X154924964Y-92076310D01*
X154862255Y-92072659D01*
X154853270Y-92072086D01*
X154817980Y-92068179D01*
X154794427Y-92061714D01*
X154780297Y-92051776D01*
X154773277Y-92037449D01*
X154771778Y-92034128D01*
X153573069Y-92034128D01*
X153568561Y-91862522D01*
X153527714Y-91866069D01*
X153512063Y-91866983D01*
X153476794Y-91863971D01*
X153451297Y-91852299D01*
X153433633Y-91831247D01*
X153433437Y-91830900D01*
X153753351Y-91830900D01*
X153753351Y-91889721D01*
X153753351Y-91948543D01*
X153780730Y-91948595D01*
X153798397Y-91949121D01*
X153827119Y-91950829D01*
X153857390Y-91953301D01*
X153906671Y-91957955D01*
X153906671Y-91905793D01*
X153906671Y-91853631D01*
X153846238Y-91853631D01*
X153811344Y-91852588D01*
X153785523Y-91848918D01*
X153769578Y-91842265D01*
X153753351Y-91830900D01*
X153433437Y-91830900D01*
X153423258Y-91812875D01*
X153415482Y-91801028D01*
X153410026Y-91796899D01*
X153406588Y-91801632D01*
X153404863Y-91816374D01*
X153404548Y-91842272D01*
X153405340Y-91880470D01*
X153406936Y-91932116D01*
X153408407Y-91980455D01*
X153409259Y-92018477D01*
X153409325Y-92045486D01*
X153408518Y-92063311D01*
X153406753Y-92073779D01*
X153403944Y-92078720D01*
X153400006Y-92079960D01*
X153394281Y-92079161D01*
X153388304Y-92073748D01*
X153384957Y-92066647D01*
X153374661Y-92050850D01*
X153359833Y-92029974D01*
X153342948Y-92007329D01*
X153326482Y-91986228D01*
X153312910Y-91969982D01*
X153304705Y-91961901D01*
X153304104Y-91961475D01*
X153295307Y-91952200D01*
X153281224Y-91934787D01*
X153264609Y-91912619D01*
X153261740Y-91908675D01*
X153246404Y-91888153D01*
X153234915Y-91873699D01*
X153229576Y-91868233D01*
X153228803Y-91873016D01*
X153233023Y-91888491D01*
X153242614Y-91915540D01*
X153257864Y-91955045D01*
X153260622Y-91962136D01*
X153269440Y-91986628D01*
X153274806Y-92004584D01*
X153275644Y-92012530D01*
X153275136Y-92012999D01*
X153266347Y-92013803D01*
X153252926Y-92004232D01*
X153234027Y-91983506D01*
X153208801Y-91950842D01*
X153199117Y-91937804D01*
X153179150Y-91911484D01*
X153161924Y-91889475D01*
X153150353Y-91875534D01*
X153148811Y-91873801D01*
X153135087Y-91857860D01*
X153116344Y-91835549D01*
X153096166Y-91811131D01*
X153090169Y-91803893D01*
X153073387Y-91784589D01*
X153061018Y-91771786D01*
X153055394Y-91767953D01*
X153055057Y-91770893D01*
X153058033Y-91784628D01*
X153064555Y-91805761D01*
X153073265Y-91830335D01*
X153082804Y-91854394D01*
X153091813Y-91873982D01*
X153097670Y-91885579D01*
X153102573Y-91898436D01*
X153099970Y-91903716D01*
X153089625Y-91904737D01*
X153080095Y-91900515D01*
X153063352Y-91883271D01*
X153041592Y-91852991D01*
X153035215Y-91843444D01*
X153020446Y-91822455D01*
X153009521Y-91808533D01*
X153004443Y-91804302D01*
X153004403Y-91804347D01*
X153005236Y-91812641D01*
X153010305Y-91831149D01*
X153018501Y-91856581D01*
X153028712Y-91885649D01*
X153039831Y-91915063D01*
X153050747Y-91941535D01*
X153066095Y-91972254D01*
X153094938Y-92019781D01*
X153132701Y-92074279D01*
X153178250Y-92134205D01*
X153230452Y-92198020D01*
X153288172Y-92264183D01*
X153302322Y-92280217D01*
X153325032Y-92308036D01*
X153337702Y-92327218D01*
X153339929Y-92337192D01*
X153323736Y-92360624D01*
X153295237Y-92394744D01*
X153261694Y-92429460D01*
X153227042Y-92460471D01*
X153215013Y-92470462D01*
X153182339Y-92498682D01*
X153146280Y-92531022D01*
X153109245Y-92565210D01*
X153073645Y-92598973D01*
X153041891Y-92630039D01*
X153016391Y-92656135D01*
X152999558Y-92674987D01*
X152975955Y-92704191D01*
X152848034Y-92704191D01*
X152848034Y-91620000D01*
X152848034Y-91341179D01*
X156082592Y-91341179D01*
X156083085Y-91342450D01*
X156089366Y-91353680D01*
X156101966Y-91374688D01*
X156119738Y-91403598D01*
X156141532Y-91438537D01*
X156166201Y-91477632D01*
X156167505Y-91479686D01*
X156195745Y-91524282D01*
X156224358Y-91569596D01*
X156251291Y-91612368D01*
X156274491Y-91649339D01*
X156291905Y-91677249D01*
X156321014Y-91723829D01*
X156353390Y-91774503D01*
X156380556Y-91815339D01*
X156403662Y-91847946D01*
X156423858Y-91873932D01*
X156442292Y-91894906D01*
X156460116Y-91912473D01*
X156505263Y-91947211D01*
X156568354Y-91980363D01*
X156639106Y-92003290D01*
X156649675Y-92005579D01*
X156701554Y-92012153D01*
X156754512Y-92012359D01*
X156801497Y-92006076D01*
X156808541Y-92004407D01*
X156821475Y-92001077D01*
X156837471Y-91996597D01*
X156858077Y-91990488D01*
X156884839Y-91982273D01*
X156919307Y-91971476D01*
X156963026Y-91957620D01*
X157017544Y-91940226D01*
X157084409Y-91918818D01*
X157228603Y-91872602D01*
X157228603Y-91804330D01*
X157228535Y-91795342D01*
X157223531Y-91722839D01*
X157211336Y-91649492D01*
X157192978Y-91580254D01*
X157169487Y-91520077D01*
X157166049Y-91512961D01*
X157150070Y-91483309D01*
X157132198Y-91457074D01*
X157109284Y-91430050D01*
X157078182Y-91398030D01*
X157041662Y-91363635D01*
X156997187Y-91328104D01*
X156952339Y-91300854D01*
X156903575Y-91280140D01*
X156847352Y-91264219D01*
X156780129Y-91251349D01*
X156760021Y-91248519D01*
X156700263Y-91243505D01*
X156632046Y-91241688D01*
X156559526Y-91243028D01*
X156486858Y-91247481D01*
X156418198Y-91255005D01*
X156390255Y-91259364D01*
X156349271Y-91266972D01*
X156304790Y-91276284D01*
X156259041Y-91286729D01*
X156214250Y-91297735D01*
X156172643Y-91308732D01*
X156136448Y-91319146D01*
X156107889Y-91328406D01*
X156089195Y-91335941D01*
X156082592Y-91341179D01*
X152848034Y-91341179D01*
X152848034Y-91265611D01*
X156014406Y-91265611D01*
X156016204Y-91269555D01*
X156017998Y-91269528D01*
X156042100Y-91266669D01*
X156077254Y-91259525D01*
X156121030Y-91248692D01*
X156170996Y-91234768D01*
X156224722Y-91218349D01*
X156248555Y-91210832D01*
X156369086Y-91175640D01*
X156478905Y-91148844D01*
X156579068Y-91130473D01*
X156670634Y-91120551D01*
X156754660Y-91119105D01*
X156832203Y-91126160D01*
X156904320Y-91141744D01*
X156972069Y-91165882D01*
X157036506Y-91198600D01*
X157098690Y-91239925D01*
X157141618Y-91277248D01*
X157190175Y-91332739D01*
X157235777Y-91398835D01*
X157277366Y-91473394D01*
X157313883Y-91554278D01*
X157344270Y-91639346D01*
X157367468Y-91726459D01*
X157382419Y-91813475D01*
X157383051Y-91818628D01*
X157387000Y-91848945D01*
X157390400Y-91872602D01*
X157390761Y-91875116D01*
X157393598Y-91891961D01*
X157394660Y-91896519D01*
X157401928Y-91908778D01*
X157417182Y-91911683D01*
X157430633Y-91909843D01*
X157460514Y-91901134D01*
X157500956Y-91885772D01*
X157550800Y-91864302D01*
X157608887Y-91837269D01*
X157674056Y-91805218D01*
X157745149Y-91768696D01*
X157821005Y-91728246D01*
X157900466Y-91684415D01*
X158014896Y-91620954D01*
X158124541Y-91561556D01*
X158227228Y-91507386D01*
X158322285Y-91458768D01*
X158409040Y-91416026D01*
X158486822Y-91379482D01*
X158554958Y-91349462D01*
X158612777Y-91326287D01*
X158659607Y-91310283D01*
X158694775Y-91301773D01*
X158711244Y-91298517D01*
X158723176Y-91293129D01*
X158721059Y-91286295D01*
X158705220Y-91277247D01*
X158658068Y-91260407D01*
X158597135Y-91248969D01*
X158534866Y-91246703D01*
X158477065Y-91254197D01*
X158461668Y-91256907D01*
X158431196Y-91259844D01*
X158395171Y-91261482D01*
X158357609Y-91261809D01*
X158322529Y-91260813D01*
X158293951Y-91258481D01*
X158275893Y-91254802D01*
X158256030Y-91243577D01*
X158228008Y-91219259D01*
X158197465Y-91185429D01*
X158165983Y-91144327D01*
X158135140Y-91098190D01*
X158106515Y-91049259D01*
X158081688Y-90999770D01*
X158062239Y-90951964D01*
X158059814Y-90945371D01*
X158051713Y-90924380D01*
X158040130Y-90895021D01*
X158026415Y-90860653D01*
X158011916Y-90824633D01*
X157997982Y-90790318D01*
X157985962Y-90761066D01*
X157977203Y-90740236D01*
X157973675Y-90731378D01*
X157965333Y-90708539D01*
X157954910Y-90678568D01*
X157943868Y-90645621D01*
X157937771Y-90627557D01*
X157917946Y-90576217D01*
X157898281Y-90537517D01*
X157877936Y-90509992D01*
X157856072Y-90492172D01*
X157846127Y-90486994D01*
X157831471Y-90482122D01*
X157812230Y-90479200D01*
X157785068Y-90477776D01*
X157746651Y-90477402D01*
X157709466Y-90476856D01*
X157674998Y-90474053D01*
X157650133Y-90467797D01*
X157632154Y-90456912D01*
X157618341Y-90440223D01*
X157605978Y-90416553D01*
X157600310Y-90402476D01*
X157595873Y-90386356D01*
X157592595Y-90366103D01*
X157590162Y-90339100D01*
X157588263Y-90302730D01*
X157586583Y-90254375D01*
X157585446Y-90219263D01*
X157583416Y-90176743D01*
X157580256Y-90144873D01*
X157575115Y-90121273D01*
X157567141Y-90103566D01*
X157555484Y-90089374D01*
X157539290Y-90076319D01*
X157517709Y-90062023D01*
X157508136Y-90055672D01*
X157489400Y-90040619D01*
X157476034Y-90023816D01*
X157467174Y-90002701D01*
X157461957Y-89974710D01*
X157459517Y-89937281D01*
X157458991Y-89887850D01*
X157459004Y-89880170D01*
X157458770Y-89843509D01*
X157457811Y-89818842D01*
X157455863Y-89803948D01*
X157452665Y-89796609D01*
X157447953Y-89794603D01*
X157441733Y-89794137D01*
X157412990Y-89784220D01*
X157381891Y-89762863D01*
X157350435Y-89731961D01*
X157320621Y-89693409D01*
X157294448Y-89649100D01*
X157293235Y-89646701D01*
X157275789Y-89608503D01*
X157259292Y-89564775D01*
X157243344Y-89514016D01*
X157227540Y-89454728D01*
X157211481Y-89385410D01*
X157194764Y-89304563D01*
X157176988Y-89210687D01*
X157162147Y-89133081D01*
X157143418Y-89045864D01*
X157125160Y-88973196D01*
X157107365Y-88915055D01*
X157090027Y-88871415D01*
X157073138Y-88842252D01*
X157071825Y-88840790D01*
X157069459Y-88840319D01*
X157067463Y-88844154D01*
X157065788Y-88853439D01*
X157064382Y-88869320D01*
X157063194Y-88892938D01*
X157062174Y-88925439D01*
X157061272Y-88967967D01*
X157060437Y-89021664D01*
X157059618Y-89087675D01*
X157058765Y-89167144D01*
X157058204Y-89214890D01*
X157057085Y-89288023D01*
X157055704Y-89358976D01*
X157054116Y-89425679D01*
X157052377Y-89486063D01*
X157050544Y-89538056D01*
X157048673Y-89579588D01*
X157046819Y-89608589D01*
X157044639Y-89633807D01*
X157033983Y-89733687D01*
X157021141Y-89821530D01*
X157006231Y-89896720D01*
X156989371Y-89958641D01*
X156970679Y-90006677D01*
X156954817Y-90039821D01*
X156973070Y-90055306D01*
X156991322Y-90070792D01*
X156991297Y-90103282D01*
X156991171Y-90270446D01*
X156991168Y-90273304D01*
X156990771Y-90345168D01*
X156989625Y-90404006D01*
X156987561Y-90451328D01*
X156984407Y-90488644D01*
X156979993Y-90517464D01*
X156974147Y-90539297D01*
X156966698Y-90555655D01*
X156957476Y-90568046D01*
X156953076Y-90572492D01*
X156942224Y-90579512D01*
X156927531Y-90581417D01*
X156903764Y-90579306D01*
X156865048Y-90574469D01*
X156846083Y-90606829D01*
X156842836Y-90612506D01*
X156825257Y-90648844D01*
X156809219Y-90692778D01*
X156793960Y-90746637D01*
X156778718Y-90812750D01*
X156771504Y-90844658D01*
X156757102Y-90895878D01*
X156741232Y-90935579D01*
X156723002Y-90965789D01*
X156701523Y-90988535D01*
X156677492Y-91008757D01*
X156586175Y-91002904D01*
X156565130Y-91001605D01*
X156508081Y-90998946D01*
X156461430Y-90998763D01*
X156422082Y-91001545D01*
X156386943Y-91007783D01*
X156352918Y-91017970D01*
X156316911Y-91032596D01*
X156275829Y-91052152D01*
X156265253Y-91057420D01*
X156235914Y-91072390D01*
X156211999Y-91085695D01*
X156190844Y-91099294D01*
X156169786Y-91115145D01*
X156146162Y-91135209D01*
X156117309Y-91161445D01*
X156080565Y-91195811D01*
X156072233Y-91203678D01*
X156042118Y-91233019D01*
X156022943Y-91253547D01*
X156014406Y-91265611D01*
X152848034Y-91265611D01*
X152848034Y-90149711D01*
X156863555Y-90149711D01*
X156863730Y-90165429D01*
X156864487Y-90182416D01*
X156865639Y-90189014D01*
X156865878Y-90188863D01*
X156870674Y-90181111D01*
X156879822Y-90163952D01*
X156891583Y-90140627D01*
X156902136Y-90118537D01*
X156908129Y-90103282D01*
X156908007Y-90096999D01*
X156902276Y-90097650D01*
X156894580Y-90100626D01*
X156876332Y-90106733D01*
X156875981Y-90106838D01*
X156868386Y-90112450D01*
X156864590Y-90125577D01*
X156863555Y-90149711D01*
X152848034Y-90149711D01*
X152848034Y-88619311D01*
X155848724Y-88619311D01*
X158849413Y-88619311D01*
X158849413Y-91293129D01*
X158849413Y-91557942D01*
G37*
D11*
%TO.C,U9*%
X139223400Y-86425600D02*
X139223400Y-91577600D01*
X139223400Y-91577600D02*
X142766400Y-91577600D01*
X142766400Y-86425600D02*
X139223400Y-86425600D01*
X142766400Y-91577600D02*
X142766400Y-86425600D01*
D12*
X142415400Y-86969600D02*
G75*
G02*
X142115400Y-86969600I-150000J0D01*
G01*
X142115400Y-86969600D02*
G75*
G02*
X142415400Y-86969600I150000J0D01*
G01*
X144011400Y-86102600D02*
G75*
G02*
X143711400Y-86102600I-150000J0D01*
G01*
X143711400Y-86102600D02*
G75*
G02*
X144011400Y-86102600I150000J0D01*
G01*
D10*
%TO.C,kibuzzard-67F13BB6*%
G36*
X162957997Y-91064620D02*
G01*
X162840065Y-91048465D01*
X162738288Y-90996769D01*
X162665590Y-90906300D01*
X162638126Y-90770598D01*
X162663974Y-90636511D01*
X162735057Y-90542811D01*
X162838449Y-90484653D01*
X162957997Y-90457189D01*
X162957997Y-91064620D01*
G37*
G36*
X163534733Y-80864297D02*
G01*
X163578352Y-81064620D01*
X163576737Y-81190630D01*
X163568659Y-81297254D01*
X163219709Y-81297254D01*
X163208401Y-81203554D01*
X163203554Y-81103393D01*
X163211632Y-80983845D01*
X163239095Y-80882068D01*
X163294023Y-80812601D01*
X163387722Y-80786753D01*
X163534733Y-80864297D01*
G37*
G36*
X163542811Y-84092084D02*
G01*
X163542811Y-84127625D01*
X163491115Y-84355412D01*
X163348950Y-84504039D01*
X163134087Y-84584814D01*
X163003635Y-84602989D01*
X162861066Y-84609047D01*
X162609047Y-84589661D01*
X162392569Y-84521809D01*
X162242326Y-84389338D01*
X162185784Y-84172859D01*
X162187399Y-84114701D01*
X162195477Y-84056543D01*
X163539580Y-84056543D01*
X163542811Y-84092084D01*
G37*
G36*
X165742057Y-81035541D02*
G01*
X165742057Y-82909532D01*
X165742057Y-84085622D01*
X165742057Y-85788368D01*
X165742057Y-87794830D01*
X165742057Y-88957997D01*
X165742057Y-90880452D01*
X165742057Y-94437803D01*
X165742057Y-95394184D01*
X165742057Y-97901454D01*
X165742057Y-99274637D01*
X165742057Y-100620894D01*
X160257943Y-100620894D01*
X160257943Y-99274637D01*
X160257943Y-98376414D01*
X161604200Y-98376414D01*
X161604200Y-99274637D01*
X164395800Y-99274637D01*
X164395800Y-98376414D01*
X164085622Y-98376414D01*
X164085622Y-98893376D01*
X161914378Y-98893376D01*
X161914378Y-98376414D01*
X161604200Y-98376414D01*
X160257943Y-98376414D01*
X160257943Y-97184168D01*
X161817447Y-97184168D01*
X161852989Y-97420032D01*
X161959612Y-97620355D01*
X162138934Y-97759289D01*
X162389338Y-97810985D01*
X162588045Y-97772213D01*
X162773829Y-97668821D01*
X162948304Y-97523425D01*
X163109855Y-97358643D01*
X163201939Y-97261712D01*
X163311793Y-97158320D01*
X163426494Y-97075929D01*
X163533118Y-97042003D01*
X163533118Y-97901454D01*
X163862682Y-97901454D01*
X163862682Y-96596123D01*
X163781906Y-96588045D01*
X163714055Y-96589661D01*
X163558966Y-96604604D01*
X163416801Y-96649435D01*
X163286349Y-96717286D01*
X163166397Y-96801292D01*
X163055735Y-96896607D01*
X162953150Y-96998384D01*
X162856624Y-97100162D01*
X162764136Y-97195477D01*
X162589661Y-97347334D01*
X162418417Y-97407108D01*
X162229402Y-97332795D01*
X162163166Y-97145396D01*
X162208401Y-96948304D01*
X162360258Y-96744750D01*
X162082391Y-96547658D01*
X161964459Y-96686995D01*
X161882068Y-96846527D01*
X161833603Y-97015751D01*
X161817447Y-97184168D01*
X160257943Y-97184168D01*
X160257943Y-94835218D01*
X161862682Y-94835218D01*
X161862682Y-95255250D01*
X162030291Y-95279483D01*
X162222940Y-95313409D01*
X162431341Y-95354200D01*
X162646204Y-95399031D01*
X162862682Y-95447496D01*
X163075929Y-95499192D01*
X163276656Y-95552100D01*
X163455574Y-95604200D01*
X163279079Y-95655897D01*
X163079160Y-95707593D01*
X162865913Y-95757674D01*
X162649435Y-95804523D01*
X162434168Y-95848142D01*
X162224556Y-95888530D01*
X162030695Y-95924071D01*
X161862682Y-95953150D01*
X161862682Y-96369952D01*
X162067851Y-96326737D01*
X162295638Y-96274637D01*
X162540792Y-96214055D01*
X162798061Y-96145396D01*
X162974690Y-96095315D01*
X163153473Y-96042003D01*
X163334410Y-95985460D01*
X163514450Y-95926584D01*
X163690540Y-95866272D01*
X163862682Y-95804523D01*
X163862682Y-95394184D01*
X163625202Y-95314216D01*
X163358643Y-95229402D01*
X163171423Y-95172321D01*
X162984563Y-95117394D01*
X162798061Y-95064620D01*
X162615150Y-95014719D01*
X162439059Y-94968408D01*
X162269790Y-94925687D01*
X162043619Y-94872375D01*
X161862682Y-94835218D01*
X160257943Y-94835218D01*
X160257943Y-93542811D01*
X161604200Y-93542811D01*
X161604200Y-94437803D01*
X161914378Y-94437803D01*
X161914378Y-93920840D01*
X164085622Y-93920840D01*
X164085622Y-94437803D01*
X164395800Y-94437803D01*
X164395800Y-93542811D01*
X161604200Y-93542811D01*
X160257943Y-93542811D01*
X160257943Y-90764136D01*
X162305331Y-90764136D01*
X162327410Y-90970203D01*
X162393646Y-91140370D01*
X162504039Y-91274637D01*
X162656794Y-91371567D01*
X162850117Y-91429725D01*
X163084006Y-91449111D01*
X163164782Y-91447496D01*
X163232633Y-91442649D01*
X163232633Y-90457189D01*
X163365509Y-90487884D01*
X163466882Y-90579968D01*
X163531099Y-90720517D01*
X163552504Y-90896607D01*
X163526656Y-91124394D01*
X163474960Y-91306947D01*
X163814216Y-91361874D01*
X163873990Y-91142165D01*
X163898223Y-90880452D01*
X163885703Y-90696688D01*
X163848142Y-90533118D01*
X163785945Y-90390953D01*
X163699515Y-90271405D01*
X163589257Y-90175687D01*
X163455574Y-90105008D01*
X163298061Y-90061389D01*
X163116317Y-90046850D01*
X162928110Y-90062197D01*
X162764136Y-90108239D01*
X162624798Y-90179321D01*
X162510501Y-90269790D01*
X162421244Y-90377221D01*
X162357027Y-90499192D01*
X162318255Y-90630048D01*
X162305331Y-90764136D01*
X160257943Y-90764136D01*
X160257943Y-88376414D01*
X162344103Y-88376414D01*
X162344103Y-88793215D01*
X162470921Y-88825121D01*
X162605816Y-88862682D01*
X162745153Y-88904281D01*
X162885299Y-88948304D01*
X163023829Y-88993942D01*
X163158320Y-89040388D01*
X163400646Y-89129241D01*
X163158320Y-89222940D01*
X163023829Y-89274233D01*
X162885299Y-89324717D01*
X162745153Y-89373990D01*
X162605816Y-89421648D01*
X162470921Y-89464055D01*
X162344103Y-89497577D01*
X162344103Y-89901454D01*
X162568962Y-89831785D01*
X162784733Y-89758481D01*
X162991418Y-89681543D01*
X163189015Y-89600969D01*
X163435469Y-89493269D01*
X163660025Y-89389876D01*
X163862682Y-89290792D01*
X163862682Y-88957997D01*
X163660025Y-88860528D01*
X163435469Y-88761982D01*
X163189015Y-88662359D01*
X162991418Y-88588146D01*
X162784733Y-88515751D01*
X162568962Y-88445174D01*
X162344103Y-88376414D01*
X160257943Y-88376414D01*
X160257943Y-87649435D01*
X162344103Y-87649435D01*
X163284330Y-87649435D01*
X163486268Y-87699515D01*
X163552504Y-87865913D01*
X163537964Y-87998384D01*
X163478191Y-88172859D01*
X163798061Y-88224556D01*
X163877221Y-87993538D01*
X163898223Y-87794830D01*
X163886914Y-87652262D01*
X163852989Y-87534733D01*
X163722132Y-87366721D01*
X163513732Y-87277868D01*
X163382068Y-87258481D01*
X163232633Y-87252019D01*
X162673667Y-87252019D01*
X162673667Y-86831987D01*
X162344103Y-86831987D01*
X162344103Y-87381260D01*
X162344103Y-87649435D01*
X160257943Y-87649435D01*
X160257943Y-87381260D01*
X161652666Y-87381260D01*
X161720517Y-87558966D01*
X161907916Y-87633279D01*
X162092084Y-87558966D01*
X162159935Y-87381260D01*
X162092084Y-87205170D01*
X161907916Y-87132472D01*
X161720517Y-87205170D01*
X161652666Y-87381260D01*
X160257943Y-87381260D01*
X160257943Y-86101777D01*
X162315024Y-86101777D01*
X162318255Y-86193861D01*
X162329564Y-86321486D01*
X162348950Y-86458805D01*
X162379645Y-86583199D01*
X162747981Y-86512116D01*
X162728595Y-86420032D01*
X162710824Y-86311793D01*
X162699515Y-86205170D01*
X162696284Y-86117932D01*
X162704362Y-85953150D01*
X162735057Y-85788368D01*
X163862682Y-85788368D01*
X163862682Y-85387722D01*
X162444265Y-85387722D01*
X162391761Y-85548061D01*
X162350565Y-85712439D01*
X162323910Y-85892973D01*
X162315024Y-86101777D01*
X160257943Y-86101777D01*
X160257943Y-84137318D01*
X161840065Y-84137318D01*
X161854604Y-84325929D01*
X161898223Y-84497577D01*
X161972940Y-84648223D01*
X162080775Y-84773829D01*
X162222132Y-84874394D01*
X162397415Y-84949919D01*
X162609451Y-84997173D01*
X162861066Y-85012924D01*
X163118336Y-84995557D01*
X163334410Y-84943457D01*
X163511712Y-84860662D01*
X163652666Y-84751212D01*
X163758885Y-84616721D01*
X163831987Y-84458805D01*
X163874394Y-84280695D01*
X163888530Y-84085622D01*
X163877221Y-83877221D01*
X163840065Y-83659128D01*
X161888530Y-83659128D01*
X161849758Y-83914378D01*
X161840065Y-84137318D01*
X160257943Y-84137318D01*
X160257943Y-81904685D01*
X162344103Y-81904685D01*
X162344103Y-82243942D01*
X162530066Y-82252737D01*
X162713157Y-82261892D01*
X162893376Y-82271405D01*
X163073954Y-82283791D01*
X163258122Y-82301562D01*
X163445880Y-82324717D01*
X163218094Y-82397415D01*
X163017771Y-82452342D01*
X162833603Y-82497577D01*
X162651050Y-82541195D01*
X162651050Y-82828756D01*
X162833603Y-82869144D01*
X163017771Y-82914378D01*
X163218094Y-82966074D01*
X163445880Y-83032310D01*
X163300485Y-83050081D01*
X163161551Y-83064620D01*
X163026252Y-83076333D01*
X162891761Y-83085622D01*
X162623586Y-83098546D01*
X162486672Y-83103796D01*
X162344103Y-83109855D01*
X162344103Y-83449111D01*
X162562197Y-83429624D01*
X162773829Y-83406704D01*
X162978998Y-83380351D01*
X163177706Y-83350565D01*
X163427571Y-83306947D01*
X163655897Y-83260097D01*
X163862682Y-83210016D01*
X163862682Y-82909532D01*
X163678514Y-82843296D01*
X163515347Y-82785137D01*
X163350565Y-82730210D01*
X163161551Y-82673667D01*
X163347334Y-82615509D01*
X163510501Y-82562197D01*
X163675283Y-82505654D01*
X163862682Y-82434572D01*
X163862682Y-82134087D01*
X163712843Y-82096527D01*
X163547658Y-82061389D01*
X163369144Y-82028675D01*
X163179321Y-81998384D01*
X162980210Y-81970921D01*
X162773829Y-81946688D01*
X162561389Y-81924879D01*
X162344103Y-81904685D01*
X160257943Y-81904685D01*
X160257943Y-81029079D01*
X162305331Y-81029079D01*
X162316236Y-81200727D01*
X162348950Y-81340872D01*
X162471729Y-81539580D01*
X162665590Y-81646204D01*
X162922456Y-81678514D01*
X163827141Y-81678514D01*
X163872375Y-81420032D01*
X163891761Y-81238288D01*
X163898223Y-81035541D01*
X163872375Y-80772213D01*
X163786753Y-80570275D01*
X163631664Y-80441034D01*
X163397415Y-80395800D01*
X163174475Y-80447496D01*
X163029079Y-80586430D01*
X162949919Y-80786753D01*
X162925687Y-81022617D01*
X162932149Y-81168821D01*
X162951535Y-81297254D01*
X162903069Y-81297254D01*
X162714055Y-81226171D01*
X162657108Y-81129241D01*
X162638126Y-80980614D01*
X162654281Y-80762520D01*
X162693053Y-80592892D01*
X162373183Y-80537964D01*
X162326333Y-80747981D01*
X162310582Y-80886107D01*
X162305331Y-81029079D01*
X160257943Y-81029079D01*
X160257943Y-79633279D01*
X161817447Y-79633279D01*
X161835218Y-79825525D01*
X161875606Y-79975767D01*
X161924071Y-80084006D01*
X161962843Y-80150242D01*
X162279483Y-80046850D01*
X162197092Y-79867528D01*
X162163166Y-79626817D01*
X162197092Y-79444265D01*
X162310178Y-79285945D01*
X162521809Y-79172859D01*
X162670436Y-79140145D01*
X162851373Y-79129241D01*
X163061928Y-79142344D01*
X163236941Y-79181655D01*
X163376414Y-79247173D01*
X163513328Y-79402666D01*
X163558966Y-79633279D01*
X163523425Y-79890145D01*
X163452342Y-80053312D01*
X163765751Y-80153473D01*
X163861066Y-79925687D01*
X163893780Y-79771002D01*
X163904685Y-79594507D01*
X163874529Y-79334590D01*
X163784060Y-79119189D01*
X163633279Y-78948304D01*
X163483239Y-78850767D01*
X163304523Y-78781099D01*
X163097132Y-78739297D01*
X162861066Y-78725363D01*
X162626010Y-78742326D01*
X162418417Y-78793215D01*
X162239499Y-78874394D01*
X162090468Y-78982229D01*
X161972536Y-79114701D01*
X161886914Y-79269790D01*
X161834814Y-79443861D01*
X161817447Y-79633279D01*
X160257943Y-79633279D01*
X160257943Y-78725363D01*
X160257943Y-77379106D01*
X165742057Y-77379106D01*
X165742057Y-78725363D01*
X165742057Y-79594507D01*
X165742057Y-81035541D01*
G37*
D13*
%TO.C,C18*%
X136038000Y-90562165D02*
X136038000Y-90793835D01*
X136758000Y-90562165D02*
X136758000Y-90793835D01*
D14*
%TO.C,D5*%
X146447000Y-90400000D02*
X146447000Y-87400000D01*
D15*
X146939000Y-88392000D02*
X147955000Y-88392000D01*
X147193000Y-88900000D02*
X147701000Y-88900000D01*
X147447000Y-88900000D02*
X146939000Y-88392000D01*
X147447000Y-88900000D02*
X146939000Y-89408000D01*
X147447000Y-88900000D02*
X147955000Y-88392000D01*
X147447000Y-88900000D02*
X147955000Y-89408000D01*
X147447000Y-89662000D02*
X147447000Y-88138000D01*
X147955000Y-88900000D02*
X146939000Y-88900000D01*
X147955000Y-89408000D02*
X146939000Y-89408000D01*
D14*
X148447000Y-90400000D02*
X148447000Y-87400000D01*
D10*
%TO.C,kibuzzard-67F4292F*%
G36*
X157452536Y-83357566D02*
G01*
X157393570Y-83349489D01*
X157342682Y-83323641D01*
X157306333Y-83278406D01*
X157292601Y-83210555D01*
X157305525Y-83143511D01*
X157341066Y-83096662D01*
X157392763Y-83067582D01*
X157452536Y-83053851D01*
X157452536Y-83357566D01*
G37*
G36*
X157740905Y-81488423D02*
G01*
X157762714Y-81588584D01*
X157761906Y-81651589D01*
X157757868Y-81704901D01*
X157583393Y-81704901D01*
X157577738Y-81658051D01*
X157575315Y-81607970D01*
X157579354Y-81548196D01*
X157593086Y-81497308D01*
X157620549Y-81462574D01*
X157667399Y-81449650D01*
X157740905Y-81488423D01*
G37*
G36*
X157749790Y-78298600D02*
G01*
X157751405Y-78341411D01*
X157738279Y-78410878D01*
X157698901Y-78464190D01*
X157628021Y-78498116D01*
X157520388Y-78509424D01*
X157426284Y-78500741D01*
X157357221Y-78474691D01*
X157314814Y-78430870D01*
X157300679Y-78368875D01*
X157309564Y-78305062D01*
X157331373Y-78250943D01*
X157743328Y-78250943D01*
X157749790Y-78298600D01*
G37*
G36*
X158849413Y-78952074D02*
G01*
X158849413Y-79973075D01*
X158849413Y-80599893D01*
X158849413Y-81574045D01*
X158849413Y-82777599D01*
X158849413Y-83265482D01*
X158849413Y-83950458D01*
X158849413Y-84953689D01*
X158849413Y-85732364D01*
X158849413Y-86816371D01*
X158849413Y-87489500D01*
X156110587Y-87489500D01*
X156110587Y-86816371D01*
X156110587Y-86331718D01*
X156783716Y-86331718D01*
X157446074Y-86331718D01*
X157374184Y-86390684D01*
X157295832Y-86448843D01*
X157217480Y-86502962D01*
X157145590Y-86548196D01*
X157145590Y-86787292D01*
X157226365Y-86721056D01*
X157315218Y-86644319D01*
X157402456Y-86565159D01*
X157480000Y-86493269D01*
X157572892Y-86580507D01*
X157628021Y-86626952D01*
X157685170Y-86672591D01*
X157743328Y-86716007D01*
X157801486Y-86755789D01*
X157904879Y-86816371D01*
X157904879Y-86588584D01*
X157813603Y-86537696D01*
X157713441Y-86470652D01*
X157619742Y-86398762D01*
X157546236Y-86331718D01*
X157904879Y-86331718D01*
X157904879Y-86131395D01*
X156817641Y-86131395D01*
X156783716Y-86331718D01*
X156110587Y-86331718D01*
X156110587Y-85727518D01*
X157126204Y-85727518D01*
X157135897Y-85850297D01*
X157168207Y-85961767D01*
X157328142Y-85918148D01*
X157307948Y-85846258D01*
X157299063Y-85745288D01*
X157316026Y-85626549D01*
X157362876Y-85549812D01*
X157434766Y-85507809D01*
X157525234Y-85494885D01*
X157618934Y-85509626D01*
X157690016Y-85553851D01*
X157734847Y-85633616D01*
X157749790Y-85754982D01*
X157743328Y-85852720D01*
X157722326Y-85945612D01*
X157885493Y-85974691D01*
X157912149Y-85872914D01*
X157920024Y-85807889D01*
X157922649Y-85732364D01*
X157914976Y-85624327D01*
X157891955Y-85532849D01*
X157855606Y-85457122D01*
X157807948Y-85396339D01*
X157749790Y-85350095D01*
X157681939Y-85317986D01*
X157606414Y-85299206D01*
X157525234Y-85292946D01*
X157445267Y-85299408D01*
X157370145Y-85318794D01*
X157302092Y-85351508D01*
X157243328Y-85397954D01*
X157194863Y-85458334D01*
X157157706Y-85532849D01*
X157134079Y-85622308D01*
X157126204Y-85727518D01*
X156110587Y-85727518D01*
X156110587Y-84880991D01*
X157145590Y-84880991D01*
X157615703Y-84880991D01*
X157716672Y-84906032D01*
X157749790Y-84989230D01*
X157742520Y-85055466D01*
X157712633Y-85142704D01*
X157872569Y-85168552D01*
X157912149Y-85053043D01*
X157922649Y-84953689D01*
X157916995Y-84882405D01*
X157900032Y-84823641D01*
X157834604Y-84739634D01*
X157730404Y-84695208D01*
X157664572Y-84685515D01*
X157589855Y-84682284D01*
X157310372Y-84682284D01*
X157310372Y-84472267D01*
X157145590Y-84472267D01*
X157145590Y-84746904D01*
X157145590Y-84880991D01*
X156110587Y-84880991D01*
X156110587Y-84746904D01*
X156799871Y-84746904D01*
X156833796Y-84835757D01*
X156927496Y-84872914D01*
X157019580Y-84835757D01*
X157053506Y-84746904D01*
X157019580Y-84658859D01*
X156927496Y-84622510D01*
X156833796Y-84658859D01*
X156799871Y-84746904D01*
X156110587Y-84746904D01*
X156110587Y-84107162D01*
X157131050Y-84107162D01*
X157132666Y-84153204D01*
X157138320Y-84217017D01*
X157148013Y-84285676D01*
X157163360Y-84347873D01*
X157347528Y-84312332D01*
X157337835Y-84266290D01*
X157328950Y-84212171D01*
X157323296Y-84158859D01*
X157321680Y-84115240D01*
X157325719Y-84032849D01*
X157341066Y-83950458D01*
X157904879Y-83950458D01*
X157904879Y-83750135D01*
X157195670Y-83750135D01*
X157169418Y-83830305D01*
X157148821Y-83912494D01*
X157135493Y-84002760D01*
X157131050Y-84107162D01*
X156110587Y-84107162D01*
X156110587Y-83207324D01*
X157126204Y-83207324D01*
X157137243Y-83310358D01*
X157170361Y-83395441D01*
X157225557Y-83462574D01*
X157301935Y-83511040D01*
X157398596Y-83540119D01*
X157515541Y-83549812D01*
X157555929Y-83549004D01*
X157589855Y-83546581D01*
X157589855Y-83053851D01*
X157656292Y-83069198D01*
X157706979Y-83115240D01*
X157739087Y-83185515D01*
X157749790Y-83273560D01*
X157736866Y-83387453D01*
X157711018Y-83478729D01*
X157880646Y-83506193D01*
X157910533Y-83396339D01*
X157922649Y-83265482D01*
X157916389Y-83173600D01*
X157897609Y-83091815D01*
X157866511Y-83020733D01*
X157823296Y-82960959D01*
X157768166Y-82913099D01*
X157701325Y-82877760D01*
X157622569Y-82855951D01*
X157531696Y-82848681D01*
X157437593Y-82856355D01*
X157355606Y-82879376D01*
X157285937Y-82914917D01*
X157228788Y-82960151D01*
X157184160Y-83013867D01*
X157152052Y-83074852D01*
X157132666Y-83140280D01*
X157126204Y-83207324D01*
X156110587Y-83207324D01*
X156110587Y-82292946D01*
X156783716Y-82292946D01*
X157446074Y-82292946D01*
X157374184Y-82351912D01*
X157295832Y-82410070D01*
X157217480Y-82464190D01*
X157145590Y-82509424D01*
X157145590Y-82748519D01*
X157226365Y-82682284D01*
X157315218Y-82605547D01*
X157402456Y-82526387D01*
X157480000Y-82454497D01*
X157572892Y-82541734D01*
X157628021Y-82588180D01*
X157685170Y-82633818D01*
X157743328Y-82677235D01*
X157801486Y-82717017D01*
X157904879Y-82777599D01*
X157904879Y-82549812D01*
X157813603Y-82498923D01*
X157713441Y-82431880D01*
X157619742Y-82359990D01*
X157546236Y-82292946D01*
X157904879Y-82292946D01*
X157904879Y-82092623D01*
X156817641Y-82092623D01*
X156783716Y-82292946D01*
X156110587Y-82292946D01*
X156110587Y-81570814D01*
X157126204Y-81570814D01*
X157131656Y-81656637D01*
X157148013Y-81726710D01*
X157209402Y-81826064D01*
X157306333Y-81879376D01*
X157434766Y-81895531D01*
X157887108Y-81895531D01*
X157909725Y-81766290D01*
X157919418Y-81675418D01*
X157922649Y-81574045D01*
X157909725Y-81442381D01*
X157866914Y-81341411D01*
X157789370Y-81276791D01*
X157672246Y-81254174D01*
X157560775Y-81280022D01*
X157488078Y-81349489D01*
X157448498Y-81449650D01*
X157436381Y-81567582D01*
X157439612Y-81640684D01*
X157449305Y-81704901D01*
X157425073Y-81704901D01*
X157330565Y-81669360D01*
X157302092Y-81620894D01*
X157292601Y-81546581D01*
X157300679Y-81437534D01*
X157320065Y-81352720D01*
X157160129Y-81325256D01*
X157136704Y-81430264D01*
X157128829Y-81499327D01*
X157126204Y-81570814D01*
X156110587Y-81570814D01*
X156110587Y-80921379D01*
X156785331Y-80921379D01*
X156796640Y-81050620D01*
X156833796Y-81170167D01*
X156995347Y-81136242D01*
X156968691Y-81043350D01*
X156954960Y-80937534D01*
X156959806Y-80885030D01*
X156980808Y-80841411D01*
X157026850Y-80811524D01*
X157105202Y-80800216D01*
X157145590Y-80800216D01*
X157145590Y-81112009D01*
X157310372Y-81112009D01*
X157310372Y-80800216D01*
X157904879Y-80800216D01*
X157904879Y-80599893D01*
X157310372Y-80599893D01*
X157310372Y-80433495D01*
X157145590Y-80433495D01*
X157145590Y-80599893D01*
X157101971Y-80599893D01*
X157017763Y-80606557D01*
X156949305Y-80626549D01*
X156852375Y-80698439D01*
X156800679Y-80801831D01*
X156785331Y-80921379D01*
X156110587Y-80921379D01*
X156110587Y-79973075D01*
X157145590Y-79973075D01*
X157182746Y-80073237D01*
X157287754Y-80116856D01*
X157395994Y-80073237D01*
X157433150Y-79973075D01*
X157635089Y-79973075D01*
X157672246Y-80073237D01*
X157777254Y-80116856D01*
X157885493Y-80073237D01*
X157922649Y-79973075D01*
X157912956Y-79918148D01*
X157884685Y-79872106D01*
X157839451Y-79839796D01*
X157777254Y-79827679D01*
X157716672Y-79839796D01*
X157672246Y-79872106D01*
X157644782Y-79918148D01*
X157635089Y-79973075D01*
X157433150Y-79973075D01*
X157423457Y-79918148D01*
X157395186Y-79872106D01*
X157349952Y-79839796D01*
X157287754Y-79827679D01*
X157227173Y-79839796D01*
X157182746Y-79872106D01*
X157155283Y-79918148D01*
X157145590Y-79973075D01*
X156110587Y-79973075D01*
X156110587Y-78819602D01*
X157145590Y-78819602D01*
X157145590Y-79026387D01*
X157273215Y-79059505D01*
X157341066Y-79078689D01*
X157408918Y-79099085D01*
X157476163Y-79120692D01*
X157542197Y-79143511D01*
X157664168Y-79191169D01*
X157542197Y-79225095D01*
X157476365Y-79242461D01*
X157409725Y-79259020D01*
X157342480Y-79274973D01*
X157274830Y-79290523D01*
X157145590Y-79318794D01*
X157145590Y-79522348D01*
X157251204Y-79492259D01*
X157354798Y-79463382D01*
X157456171Y-79434505D01*
X157555121Y-79404416D01*
X157651850Y-79372712D01*
X157746559Y-79338988D01*
X157839047Y-79302841D01*
X157929111Y-79263867D01*
X158040582Y-79203285D01*
X158117318Y-79137049D01*
X158161745Y-79056274D01*
X158176284Y-78952074D01*
X158168207Y-78860797D01*
X158147205Y-78792138D01*
X157980808Y-78829295D01*
X158001002Y-78886645D01*
X158006656Y-78940765D01*
X157967884Y-79034465D01*
X157875800Y-79091007D01*
X157776446Y-79043619D01*
X157667938Y-78996231D01*
X157550275Y-78948843D01*
X157456222Y-78914109D01*
X157357423Y-78880991D01*
X157253879Y-78849489D01*
X157145590Y-78819602D01*
X156110587Y-78819602D01*
X156110587Y-78250943D01*
X156783716Y-78250943D01*
X157163360Y-78250943D01*
X157136704Y-78331718D01*
X157129435Y-78409263D01*
X157136502Y-78479133D01*
X157157706Y-78540119D01*
X157238481Y-78634626D01*
X157296034Y-78667946D01*
X157363683Y-78691977D01*
X157440420Y-78706516D01*
X157525234Y-78711363D01*
X157611462Y-78705305D01*
X157689208Y-78687130D01*
X157757262Y-78657243D01*
X157814410Y-78616048D01*
X157860250Y-78563948D01*
X157894378Y-78501347D01*
X157915582Y-78428649D01*
X157922649Y-78346258D01*
X157919822Y-78267906D01*
X157911341Y-78187938D01*
X157898417Y-78113624D01*
X157882262Y-78052235D01*
X156817641Y-78052235D01*
X156783716Y-78250943D01*
X156110587Y-78250943D01*
X156110587Y-78052235D01*
X156110587Y-77379106D01*
X158849413Y-77379106D01*
X158849413Y-78052235D01*
X158849413Y-78346258D01*
X158849413Y-78952074D01*
G37*
%TD*%
M02*
