%TF.GenerationSoftware,KiCad,Pcbnew,9.0.1*%
%TF.CreationDate,2025-04-08T03:40:33+08:00*%
%TF.ProjectId,CawDrive,43617744-7269-4766-952e-6b696361645f,rev?*%
%TF.SameCoordinates,Original*%
%TF.FileFunction,Copper,L4,Bot*%
%TF.FilePolarity,Positive*%
%FSLAX46Y46*%
G04 Gerber Fmt 4.6, Leading zero omitted, Abs format (unit mm)*
G04 Created by KiCad (PCBNEW 9.0.1) date 2025-04-08 03:40:33*
%MOMM*%
%LPD*%
G01*
G04 APERTURE LIST*
G04 Aperture macros list*
%AMRoundRect*
0 Rectangle with rounded corners*
0 $1 Rounding radius*
0 $2 $3 $4 $5 $6 $7 $8 $9 X,Y pos of 4 corners*
0 Add a 4 corners polygon primitive as box body*
4,1,4,$2,$3,$4,$5,$6,$7,$8,$9,$2,$3,0*
0 Add four circle primitives for the rounded corners*
1,1,$1+$1,$2,$3*
1,1,$1+$1,$4,$5*
1,1,$1+$1,$6,$7*
1,1,$1+$1,$8,$9*
0 Add four rect primitives between the rounded corners*
20,1,$1+$1,$2,$3,$4,$5,0*
20,1,$1+$1,$4,$5,$6,$7,0*
20,1,$1+$1,$6,$7,$8,$9,0*
20,1,$1+$1,$8,$9,$2,$3,0*%
G04 Aperture macros list end*
%TA.AperFunction,SMDPad,CuDef*%
%ADD10RoundRect,0.155000X-0.155000X0.212500X-0.155000X-0.212500X0.155000X-0.212500X0.155000X0.212500X0*%
%TD*%
%TA.AperFunction,ComponentPad*%
%ADD11RoundRect,0.750000X-0.750000X-0.750000X0.750000X-0.750000X0.750000X0.750000X-0.750000X0.750000X0*%
%TD*%
%TA.AperFunction,ComponentPad*%
%ADD12C,0.800000*%
%TD*%
%TA.AperFunction,ComponentPad*%
%ADD13C,5.000000*%
%TD*%
%TA.AperFunction,SMDPad,CuDef*%
%ADD14O,1.731000X0.343000*%
%TD*%
%TA.AperFunction,ViaPad*%
%ADD15C,0.600000*%
%TD*%
%TA.AperFunction,ViaPad*%
%ADD16C,0.800000*%
%TD*%
%TA.AperFunction,Conductor*%
%ADD17C,0.160020*%
%TD*%
%TA.AperFunction,Conductor*%
%ADD18C,0.304800*%
%TD*%
%TA.AperFunction,Conductor*%
%ADD19C,0.279400*%
%TD*%
G04 APERTURE END LIST*
D10*
%TO.P,C18,1*%
%TO.N,GND*%
X136525000Y-89602500D03*
%TO.P,C18,2*%
%TO.N,+3.3V*%
X136525000Y-90737500D03*
%TD*%
D11*
%TO.P,H8,1,1*%
%TO.N,GND1*%
X168000000Y-95000000D03*
%TD*%
D12*
%TO.P,H2,1,1*%
%TO.N,unconnected-(H2-Pad1)_1*%
X157125000Y-71000000D03*
%TO.N,unconnected-(H2-Pad1)_5*%
X157674175Y-69674175D03*
%TO.N,unconnected-(H2-Pad1)_8*%
X157674175Y-72325825D03*
%TO.N,unconnected-(H2-Pad1)_2*%
X159000000Y-69125000D03*
D13*
%TO.N,unconnected-(H2-Pad1)*%
X159000000Y-71000000D03*
D12*
%TO.N,unconnected-(H2-Pad1)_4*%
X159000000Y-72875000D03*
%TO.N,unconnected-(H2-Pad1)_7*%
X160325825Y-69674175D03*
%TO.N,unconnected-(H2-Pad1)_6*%
X160325825Y-72325825D03*
%TO.N,unconnected-(H2-Pad1)_3*%
X160875000Y-71000000D03*
%TD*%
D11*
%TO.P,H6,1,1*%
%TO.N,/DRV8323RSRGZR/PHASB*%
X141000000Y-108000000D03*
%TD*%
D12*
%TO.P,H4,1,1*%
%TO.N,unconnected-(H4-Pad1)_7*%
X121125000Y-107000000D03*
%TO.N,unconnected-(H4-Pad1)_5*%
X121674175Y-105674175D03*
%TO.N,unconnected-(H4-Pad1)_3*%
X121674175Y-108325825D03*
%TO.N,unconnected-(H4-Pad1)*%
X123000000Y-105125000D03*
D13*
%TO.N,unconnected-(H4-Pad1)_4*%
X123000000Y-107000000D03*
D12*
%TO.N,unconnected-(H4-Pad1)_2*%
X123000000Y-108875000D03*
%TO.N,unconnected-(H4-Pad1)_8*%
X124325825Y-105674175D03*
%TO.N,unconnected-(H4-Pad1)_6*%
X124325825Y-108325825D03*
%TO.N,unconnected-(H4-Pad1)_1*%
X124875000Y-107000000D03*
%TD*%
D11*
%TO.P,H7,1,1*%
%TO.N,/DRV8323RSRGZR/PHASC*%
X151000000Y-108000000D03*
%TD*%
%TO.P,H9,1,1*%
%TO.N,+36V*%
X168000000Y-101000000D03*
%TD*%
D12*
%TO.P,H1,1,1*%
%TO.N,unconnected-(H1-Pad1)_5*%
X121125000Y-71000000D03*
%TO.N,unconnected-(H1-Pad1)_4*%
X121674175Y-69674175D03*
%TO.N,unconnected-(H1-Pad1)_8*%
X121674175Y-72325825D03*
%TO.N,unconnected-(H1-Pad1)_6*%
X123000000Y-69125000D03*
D13*
%TO.N,unconnected-(H1-Pad1)*%
X123000000Y-71000000D03*
D12*
%TO.N,unconnected-(H1-Pad1)_1*%
X123000000Y-72875000D03*
%TO.N,unconnected-(H1-Pad1)_7*%
X124325825Y-69674175D03*
%TO.N,unconnected-(H1-Pad1)_2*%
X124325825Y-72325825D03*
%TO.N,unconnected-(H1-Pad1)_3*%
X124875000Y-71000000D03*
%TD*%
%TO.P,H3,1,1*%
%TO.N,unconnected-(H3-Pad1)_4*%
X157125000Y-107000000D03*
%TO.N,unconnected-(H3-Pad1)_7*%
X157674175Y-105674175D03*
%TO.N,unconnected-(H3-Pad1)_8*%
X157674175Y-108325825D03*
%TO.N,unconnected-(H3-Pad1)_1*%
X159000000Y-105125000D03*
D13*
%TO.N,unconnected-(H3-Pad1)_2*%
X159000000Y-107000000D03*
D12*
%TO.N,unconnected-(H3-Pad1)_5*%
X159000000Y-108875000D03*
%TO.N,unconnected-(H3-Pad1)_6*%
X160325825Y-105674175D03*
%TO.N,unconnected-(H3-Pad1)*%
X160325825Y-108325825D03*
%TO.N,unconnected-(H3-Pad1)_3*%
X160875000Y-107000000D03*
%TD*%
D11*
%TO.P,H5,1,1*%
%TO.N,/DRV8323RSRGZR/PHASA*%
X131000000Y-108000000D03*
%TD*%
D14*
%TO.P,U9,1,U*%
%TO.N,unconnected-(U9-U-Pad1)*%
X143861400Y-86726600D03*
%TO.P,U9,2,V*%
%TO.N,unconnected-(U9-V-Pad2)*%
X143861400Y-87376600D03*
%TO.P,U9,3,W*%
%TO.N,unconnected-(U9-W-Pad3)*%
X143861400Y-88026600D03*
%TO.P,U9,4,CAL_EN*%
%TO.N,/ENCODER_CAL_EN*%
X143861400Y-88676600D03*
%TO.P,U9,5,MISO*%
%TO.N,/SPI3_MISO*%
X143861400Y-89326600D03*
%TO.P,U9,6,MOSI*%
%TO.N,/SPI3_MOSI*%
X143861400Y-89976600D03*
%TO.P,U9,7,SCK*%
%TO.N,/SPI3_SCK*%
X143861400Y-90626600D03*
%TO.P,U9,8,CSN*%
%TO.N,/ENCODER_SPI_NSS*%
X143861400Y-91276600D03*
%TO.P,U9,9,VDD*%
%TO.N,+3.3V*%
X138129400Y-91276600D03*
%TO.P,U9,10,OUT*%
%TO.N,unconnected-(U9-OUT-Pad10)*%
X138129400Y-90626600D03*
%TO.P,U9,11,TEST*%
%TO.N,GND*%
X138129400Y-89976600D03*
%TO.P,U9,12,VSS*%
X138129400Y-89326600D03*
%TO.P,U9,13,TEST_EN*%
X138129400Y-88676600D03*
%TO.P,U9,14,Z*%
%TO.N,unconnected-(U9-Z-Pad14)*%
X138129400Y-88026600D03*
%TO.P,U9,15,B*%
%TO.N,unconnected-(U9-B-Pad15)*%
X138129400Y-87376600D03*
%TO.P,U9,16,A*%
%TO.N,unconnected-(U9-A-Pad16)*%
X138129400Y-86726600D03*
%TD*%
D15*
%TO.N,GND*%
X166160000Y-80510000D03*
X161671000Y-74803000D03*
X133985000Y-88265000D03*
X153363542Y-89846906D03*
X131445000Y-84455000D03*
X132715000Y-88265000D03*
X132715000Y-89535000D03*
X133985000Y-84455000D03*
X133985000Y-85725000D03*
X156337000Y-89154000D03*
X134620000Y-86360000D03*
X163180000Y-90860000D03*
X133350000Y-86360000D03*
X155900211Y-83037269D03*
X126270000Y-79230000D03*
X133100000Y-74497590D03*
X123571000Y-90805000D03*
X133985000Y-86995000D03*
X139590000Y-88630000D03*
X165670000Y-90730000D03*
X132715000Y-84455000D03*
X137636562Y-77671235D03*
D16*
X131699000Y-75692000D03*
D15*
X139580000Y-89330000D03*
X132080000Y-85090000D03*
X133985000Y-71628000D03*
X135255000Y-86995000D03*
X141264656Y-83883830D03*
X157070000Y-80117590D03*
X132080000Y-86360000D03*
X131445000Y-88265000D03*
X130810000Y-85090000D03*
X157861000Y-86233000D03*
X133350000Y-83820000D03*
X129540000Y-86360000D03*
X131445000Y-86995000D03*
X130810000Y-87630000D03*
X131445000Y-85725000D03*
X130810000Y-86360000D03*
X134620000Y-85090000D03*
X158460000Y-75940000D03*
X155575000Y-75311000D03*
X132080000Y-88900000D03*
X122263500Y-90080500D03*
X133350000Y-88900000D03*
X135255000Y-85725000D03*
X127390000Y-72320000D03*
X139573000Y-71628000D03*
X123130000Y-84740000D03*
X150495000Y-91040000D03*
X140589000Y-86868000D03*
X132715000Y-86995000D03*
X130175000Y-85725000D03*
X161671000Y-77089000D03*
X132080000Y-87630000D03*
X135001000Y-77697590D03*
X123140000Y-83830000D03*
X133350000Y-85090000D03*
X142875000Y-76200000D03*
X133350000Y-87630000D03*
X141351000Y-86868000D03*
X132715000Y-85725000D03*
X135890000Y-86360000D03*
X162687000Y-84709000D03*
X132080000Y-83820000D03*
X130175000Y-86995000D03*
X134620000Y-87630000D03*
X132715000Y-83185000D03*
%TO.N,+3.3V*%
X155575000Y-76581000D03*
X153270000Y-88630000D03*
X158496000Y-77089000D03*
X147066000Y-89916000D03*
X125000000Y-73850000D03*
X162030000Y-90850000D03*
X161030632Y-83012410D03*
X161120000Y-84460000D03*
X140589000Y-71628000D03*
X136982855Y-84612855D03*
X137160000Y-76454000D03*
X144270000Y-86102700D03*
X137160000Y-77089000D03*
X137160000Y-75692000D03*
X140589000Y-90424000D03*
X154813000Y-86233000D03*
X163490000Y-80140000D03*
X147066000Y-91059000D03*
X144018000Y-76200000D03*
X161671000Y-75946000D03*
X140560000Y-84147590D03*
X141224000Y-90424000D03*
D16*
%TO.N,+5V*%
X152400000Y-91948000D03*
D15*
X135001000Y-70993000D03*
X127381000Y-76309000D03*
X123571000Y-89662000D03*
%TO.N,+36V*%
X147955000Y-100203000D03*
X149225000Y-101219000D03*
X143637000Y-103251000D03*
X139827000Y-100203000D03*
X139827000Y-102235000D03*
X157099000Y-100584000D03*
X142367000Y-101219000D03*
X149225000Y-100203000D03*
X123825000Y-98425000D03*
X149225000Y-102235000D03*
X157861000Y-102870000D03*
X122555000Y-101473000D03*
X147955000Y-101219000D03*
X142367000Y-103251000D03*
X139827000Y-101219000D03*
X147955000Y-103251000D03*
X122555000Y-99441000D03*
X157099000Y-103505000D03*
X139827000Y-103251000D03*
X125095000Y-98425000D03*
X123825000Y-101473000D03*
X145415000Y-101219000D03*
X122555000Y-100457000D03*
X147955000Y-102235000D03*
X143637000Y-100203000D03*
X141097000Y-102235000D03*
X141097000Y-101219000D03*
X142367000Y-100203000D03*
X145415000Y-102235000D03*
X145415000Y-103251000D03*
X157099000Y-102235000D03*
X157861000Y-99822000D03*
X142367000Y-102235000D03*
X157099000Y-99822000D03*
X149225000Y-103251000D03*
X145415000Y-100203000D03*
X157861000Y-100584000D03*
X126365000Y-101473000D03*
X157861000Y-102235000D03*
X146685000Y-102235000D03*
X129282341Y-89497659D03*
X157861000Y-103505000D03*
X126365000Y-99441000D03*
X123825000Y-99441000D03*
X143637000Y-101219000D03*
X141097000Y-103251000D03*
X126365000Y-98425000D03*
X125095000Y-101473000D03*
X146685000Y-101219000D03*
X157099000Y-102870000D03*
X125576500Y-85852000D03*
X125095000Y-100457000D03*
X126365000Y-100457000D03*
X146685000Y-100203000D03*
X122555000Y-98425000D03*
X125095000Y-99441000D03*
X123825000Y-100457000D03*
X141097000Y-100203000D03*
X143637000Y-102235000D03*
X146685000Y-103251000D03*
%TO.N,/DRV8323RSRGZR/PHASA*%
X129794000Y-103378000D03*
X131064000Y-104394000D03*
X125095000Y-102743000D03*
X131064000Y-103378000D03*
X125095000Y-103759000D03*
X128524000Y-104394000D03*
X128524000Y-103378000D03*
X122500000Y-102750000D03*
X123825000Y-103759000D03*
X132334000Y-104394000D03*
X129794000Y-104394000D03*
X123825000Y-102743000D03*
X132334000Y-103378000D03*
X122555000Y-103759000D03*
%TO.N,/DRV8323RSRGZR/PHASB*%
X138049000Y-103378000D03*
X142367000Y-104521000D03*
X141097000Y-105664000D03*
X138049000Y-104394000D03*
X135509000Y-104394000D03*
X134239000Y-103378000D03*
X139827000Y-105664000D03*
X135509000Y-103378000D03*
X134239000Y-104394000D03*
X139827000Y-104521000D03*
X136779000Y-103378000D03*
X136779000Y-104394000D03*
X142367000Y-105664000D03*
X141097000Y-104521000D03*
%TO.N,/DRV8323RSRGZR/PHASC*%
X146685000Y-105664000D03*
X151257000Y-101473000D03*
X145415000Y-104521000D03*
X146685000Y-104521000D03*
X147955000Y-105664000D03*
X147955000Y-104521000D03*
X145415000Y-105664000D03*
X152527000Y-101473000D03*
X154940000Y-101473000D03*
X153797000Y-101473000D03*
D16*
%TO.N,/SPI1_NSS*%
X150600000Y-71590000D03*
X148097590Y-77410000D03*
%TO.N,/SPI1_MISO*%
X152504274Y-71621814D03*
X150090000Y-78134170D03*
%TO.N,/SPI1_MOSI*%
X149362410Y-77400000D03*
X151552403Y-71590000D03*
D15*
%TO.N,/SWDIO*%
X152655955Y-82933814D03*
X161671000Y-81534000D03*
%TO.N,/SWCLK*%
X161671000Y-82550000D03*
X153260000Y-83382410D03*
%TO.N,/DRV8323RSRGZR/SPA*%
X131826000Y-97155000D03*
X132588000Y-97155000D03*
X132588000Y-98044000D03*
X131064000Y-98044000D03*
X130302000Y-98044000D03*
X130302000Y-97155000D03*
X131826000Y-98044000D03*
X129540000Y-97155000D03*
X129540000Y-98044000D03*
%TO.N,/DRV8323RSRGZR/SPB*%
X135382000Y-97917000D03*
X136906000Y-97917000D03*
X135042409Y-91100409D03*
X137795000Y-97155000D03*
X133977590Y-91040000D03*
X137795000Y-97917000D03*
X136906000Y-97155000D03*
X135382000Y-97155000D03*
X136144000Y-97155000D03*
X136144000Y-97917000D03*
D16*
%TO.N,/SPI1_SCK*%
X151321720Y-77751498D03*
X153550000Y-71630000D03*
%TO.N,/MCU_STA*%
X161380000Y-80017590D03*
X153009663Y-80024590D03*
%TO.N,/DRV_STA*%
X161814600Y-83590000D03*
X152610000Y-81000590D03*
D15*
%TO.N,/SPI3_MISO*%
X137742767Y-82576235D03*
X146622410Y-83834170D03*
D16*
X145150030Y-89285830D03*
D15*
%TO.N,/SPI3_SCK*%
X146004360Y-82744170D03*
X136181559Y-82631559D03*
D16*
X141956186Y-89258536D03*
D15*
%TO.N,/SPI3_MOSI*%
X146910000Y-82980000D03*
X136973030Y-82593030D03*
D16*
X145757590Y-90019271D03*
D15*
%TO.N,GND1*%
X121539000Y-93726000D03*
X141224000Y-93980000D03*
X125984000Y-93726000D03*
X143510000Y-94742000D03*
X131699000Y-93980000D03*
X160909000Y-95377000D03*
X147447000Y-93980000D03*
X139700000Y-93980000D03*
X148209000Y-94742000D03*
X160909000Y-96901000D03*
X160274000Y-95377000D03*
X143510000Y-93980000D03*
X141986000Y-93980000D03*
X154051000Y-94107000D03*
X139700000Y-94742000D03*
X154686000Y-94742000D03*
X142748000Y-94742000D03*
X141986000Y-94742000D03*
X160909000Y-97536000D03*
X153416000Y-94742000D03*
X145923000Y-94742000D03*
X153416000Y-94107000D03*
X160274000Y-94107000D03*
X145161000Y-93980000D03*
X136652000Y-93980000D03*
X160909000Y-94107000D03*
X130048000Y-93980000D03*
X120650000Y-93726000D03*
X141224000Y-94742000D03*
X160274000Y-97536000D03*
X148971000Y-93980000D03*
X160274000Y-98171000D03*
X137541000Y-94742000D03*
X140462000Y-93980000D03*
X148209000Y-93980000D03*
X140462000Y-94742000D03*
X160909000Y-98171000D03*
X125095000Y-93726000D03*
X138303000Y-94742000D03*
X148971000Y-94742000D03*
X132461000Y-93980000D03*
X160909000Y-94742000D03*
X130810000Y-94742000D03*
X155321000Y-94742000D03*
X136652000Y-94742000D03*
X124206000Y-93726000D03*
X131699000Y-94742000D03*
X133664382Y-91724113D03*
X160274000Y-96901000D03*
X145161000Y-94742000D03*
X154686000Y-94107000D03*
X137541000Y-93980000D03*
X142748000Y-93980000D03*
X135574437Y-91632439D03*
X132461000Y-94742000D03*
X160274000Y-94742000D03*
X130048000Y-94742000D03*
X147447000Y-94742000D03*
X155321000Y-94107000D03*
X154051000Y-94742000D03*
X130810000Y-93980000D03*
X135890000Y-94742000D03*
X146685000Y-93980000D03*
X123317000Y-93726000D03*
X145923000Y-93980000D03*
X135890000Y-93980000D03*
X146685000Y-94742000D03*
%TO.N,/TIM1_CH1N*%
X131930443Y-79987079D03*
X144526000Y-78105000D03*
%TO.N,/DRV_SPI_NSS*%
X146530000Y-82205830D03*
X135415088Y-82645088D03*
%TO.N,/TIM1_CH3N*%
X145301931Y-79171011D03*
X128905000Y-80010000D03*
%TO.N,/TIM1_CH3*%
X129667000Y-80010000D03*
X145896335Y-80321306D03*
%TO.N,/TIM1_CH2*%
X145148803Y-80235830D03*
X131180469Y-80047479D03*
%TO.N,/TIM1_CH2N*%
X144589707Y-78854700D03*
X130429000Y-80010000D03*
%TO.N,/TIM1_CH1*%
X132876549Y-79804034D03*
X144396400Y-80235830D03*
D16*
%TO.N,/ADC2_IN9*%
X130810000Y-74225200D03*
X147575830Y-78524980D03*
D15*
%TO.N,/ADC3_IN3*%
X141986000Y-74295000D03*
D16*
X153520000Y-75155830D03*
%TO.N,/ADC1_IN10*%
X155956000Y-80368180D03*
X164592000Y-90678000D03*
%TO.N,/USART3_TX*%
X166330000Y-78510000D03*
X147809267Y-80400733D03*
%TO.N,/USART3_RX*%
X166280000Y-77500000D03*
X147575830Y-79477383D03*
D15*
%TO.N,/DRV8323RSRGZR/SPC*%
X155575000Y-97282000D03*
X153289000Y-97917000D03*
X155575000Y-97917000D03*
X154051000Y-97917000D03*
X154813000Y-97282000D03*
X153289000Y-97282000D03*
X154051000Y-97282000D03*
X154813000Y-97917000D03*
%TO.N,/I2C1_SCL*%
X145080000Y-71660000D03*
X147967327Y-82206100D03*
%TO.N,/I2C1_SDA*%
X149100000Y-82205830D03*
X146130000Y-71630000D03*
D16*
%TO.N,/ENCODER_STA*%
X161370000Y-85560000D03*
X152706964Y-81948044D03*
D15*
%TO.N,/CAN_TX*%
X151602327Y-85122584D03*
X156464000Y-87884000D03*
%TO.N,/CAN_RX*%
X150970095Y-85702499D03*
X156464000Y-91694000D03*
%TO.N,/CAN_STB*%
X148985087Y-85901656D03*
X158360000Y-87870000D03*
%TO.N,/ADC1_IN0*%
X148758345Y-80684597D03*
X141129322Y-84687590D03*
%TO.N,/ADC2_IN1*%
X140058818Y-85361188D03*
X149290374Y-80152568D03*
%TO.N,/ADC3_IN2*%
X150015184Y-79950686D03*
X140649822Y-85893598D03*
D16*
%TO.N,Net-(U8-PC13)*%
X165720000Y-76560000D03*
X151287590Y-83789990D03*
%TO.N,/ENCODER_CAL_EN*%
X142067689Y-87929392D03*
%TO.N,/ENCODER_SPI_NSS*%
X145870000Y-91091732D03*
%TD*%
D17*
%TO.N,/SWCLK*%
X161610000Y-82480000D02*
X161671000Y-82541000D01*
X154180000Y-82480000D02*
X161610000Y-82480000D01*
X161671000Y-82541000D02*
X161671000Y-82550000D01*
X153277590Y-83382410D02*
X154180000Y-82480000D01*
X153260000Y-83382410D02*
X153277590Y-83382410D01*
%TO.N,/SPI3_MOSI*%
X137523235Y-82042825D02*
X136973030Y-82593030D01*
X137963713Y-82042825D02*
X137523235Y-82042825D01*
X145610000Y-83300000D02*
X145080000Y-82770000D01*
X146498370Y-83300000D02*
X145610000Y-83300000D01*
X138690888Y-82770000D02*
X137963713Y-82042825D01*
X146910000Y-82980000D02*
X146818370Y-82980000D01*
X146818370Y-82980000D02*
X146498370Y-83300000D01*
X145080000Y-82770000D02*
X138690888Y-82770000D01*
%TO.N,/SPI1_MISO*%
X150090000Y-75370000D02*
X152504274Y-72955726D01*
X152504274Y-72955726D02*
X152504274Y-71621814D01*
X150090000Y-78134170D02*
X150090000Y-75370000D01*
%TO.N,/SPI1_MOSI*%
X151552403Y-72697597D02*
X151552403Y-71590000D01*
X149362410Y-74887590D02*
X151552403Y-72697597D01*
X149362410Y-77400000D02*
X149362410Y-74887590D01*
%TO.N,/TIM1_CH1N*%
X142900484Y-79220000D02*
X144015484Y-78105000D01*
X144015484Y-78105000D02*
X144526000Y-78105000D01*
X132180000Y-79220000D02*
X142900484Y-79220000D01*
X131930443Y-79469557D02*
X132180000Y-79220000D01*
X131930443Y-79987079D02*
X131930443Y-79469557D01*
%TO.N,/TIM1_CH3*%
X131137000Y-81480000D02*
X129667000Y-80010000D01*
X139732872Y-81102565D02*
X135557435Y-81102565D01*
X135180000Y-81480000D02*
X131137000Y-81480000D01*
X144716840Y-81593160D02*
X140223467Y-81593160D01*
X145890159Y-80419841D02*
X144716840Y-81593160D01*
X145890159Y-80327482D02*
X145890159Y-80419841D01*
X135557435Y-81102565D02*
X135180000Y-81480000D01*
X145896335Y-80321306D02*
X145890159Y-80327482D01*
X140223467Y-81593160D02*
X139732872Y-81102565D01*
%TO.N,/TIM1_CH2*%
X131590000Y-80520000D02*
X131180469Y-80110469D01*
X140570000Y-80520000D02*
X131590000Y-80520000D01*
X144750000Y-80890000D02*
X140940000Y-80890000D01*
X145148803Y-80235830D02*
X145148803Y-80491197D01*
X145148803Y-80491197D02*
X144750000Y-80890000D01*
X140940000Y-80890000D02*
X140570000Y-80520000D01*
X131180469Y-80110469D02*
X131180469Y-80047479D01*
%TO.N,/DRV_STA*%
X162570000Y-81450000D02*
X162120590Y-81000590D01*
X162120590Y-81000590D02*
X152610000Y-81000590D01*
X162570000Y-83210000D02*
X162570000Y-81450000D01*
X162190000Y-83590000D02*
X162570000Y-83210000D01*
X161814600Y-83590000D02*
X162190000Y-83590000D01*
%TO.N,/SPI1_NSS*%
X150610000Y-72320000D02*
X150610000Y-71600000D01*
X148100000Y-74830000D02*
X150610000Y-72320000D01*
X150610000Y-71600000D02*
X150600000Y-71590000D01*
X148100000Y-77407590D02*
X148100000Y-74830000D01*
X148097590Y-77410000D02*
X148100000Y-77407590D01*
%TO.N,/TIM1_CH2N*%
X131709000Y-78730000D02*
X130429000Y-80010000D01*
X144800000Y-77400000D02*
X143660000Y-77400000D01*
X143660000Y-77400000D02*
X142330000Y-78730000D01*
X145240000Y-77840000D02*
X144800000Y-77400000D01*
X145240000Y-78480000D02*
X145240000Y-77840000D01*
X142330000Y-78730000D02*
X131709000Y-78730000D01*
X144865300Y-78854700D02*
X145240000Y-78480000D01*
X144589707Y-78854700D02*
X144865300Y-78854700D01*
%TO.N,/TIM1_CH3N*%
X141670000Y-78230000D02*
X130685000Y-78230000D01*
X142970000Y-76930000D02*
X141670000Y-78230000D01*
X130685000Y-78230000D02*
X128905000Y-80010000D01*
X145000000Y-76930000D02*
X142970000Y-76930000D01*
X145740000Y-77670000D02*
X145000000Y-76930000D01*
X145308989Y-79171011D02*
X145740000Y-78740000D01*
X145301931Y-79171011D02*
X145308989Y-79171011D01*
X145740000Y-78740000D02*
X145740000Y-77670000D01*
%TO.N,/TIM1_CH1*%
X143990570Y-79830000D02*
X144396400Y-80235830D01*
X132902515Y-79830000D02*
X143990570Y-79830000D01*
X132876549Y-79804034D02*
X132902515Y-79830000D01*
%TO.N,/I2C1_SCL*%
X145070000Y-76230000D02*
X145070000Y-71670000D01*
X145070000Y-71670000D02*
X145080000Y-71660000D01*
X146430000Y-77590000D02*
X145070000Y-76230000D01*
X146430000Y-80940000D02*
X146430000Y-77590000D01*
X147696100Y-82206100D02*
X146430000Y-80940000D01*
X147967327Y-82206100D02*
X147696100Y-82206100D01*
%TO.N,/ADC1_IN0*%
X141168175Y-84687590D02*
X141129322Y-84687590D01*
X147630000Y-84450000D02*
X141405765Y-84450000D01*
X149710000Y-82370000D02*
X147630000Y-84450000D01*
X149710000Y-81750000D02*
X149710000Y-82370000D01*
X148758345Y-80798345D02*
X149710000Y-81750000D01*
X148758345Y-80684597D02*
X148758345Y-80798345D01*
X141405765Y-84450000D02*
X141168175Y-84687590D01*
%TO.N,/ADC2_IN1*%
X147820000Y-85010000D02*
X143260000Y-85010000D01*
X150310000Y-82520000D02*
X147820000Y-85010000D01*
X142980000Y-85290000D02*
X140130006Y-85290000D01*
X150310000Y-81187509D02*
X150310000Y-82520000D01*
X140130006Y-85290000D02*
X140058818Y-85361188D01*
X149290374Y-80152568D02*
X149290374Y-80167883D01*
X143260000Y-85010000D02*
X142980000Y-85290000D01*
X149290374Y-80167883D02*
X150310000Y-81187509D01*
%TO.N,/SPI3_SCK*%
X136190000Y-82623118D02*
X136181559Y-82631559D01*
X136190000Y-82250000D02*
X136190000Y-82623118D01*
X138880000Y-82220000D02*
X138389405Y-81729405D01*
X145587664Y-82220000D02*
X138880000Y-82220000D01*
X146004360Y-82744170D02*
X146004360Y-82636696D01*
X146004360Y-82636696D02*
X145587664Y-82220000D01*
X138389405Y-81729405D02*
X136710595Y-81729405D01*
X136710595Y-81729405D02*
X136190000Y-82250000D01*
D18*
%TO.N,GND*%
X135001000Y-77697590D02*
X135147600Y-77844190D01*
X135147600Y-77844190D02*
X137463607Y-77844190D01*
X137463607Y-77844190D02*
X137636562Y-77671235D01*
X142875000Y-76479382D02*
X141510192Y-77844190D01*
X142875000Y-76200000D02*
X142875000Y-76479382D01*
X141510192Y-77844190D02*
X137809517Y-77844190D01*
X137809517Y-77844190D02*
X137636562Y-77671235D01*
D17*
%TO.N,/DRV_SPI_NSS*%
X135415088Y-82264912D02*
X135415088Y-82645088D01*
X138925985Y-81415985D02*
X136264015Y-81415985D01*
X136264015Y-81415985D02*
X135415088Y-82264912D01*
X139416580Y-81906580D02*
X138925985Y-81415985D01*
X146230750Y-81906580D02*
X139416580Y-81906580D01*
X146530000Y-82205830D02*
X146230750Y-81906580D01*
%TO.N,/CAN_TX*%
X156121020Y-87541020D02*
X156464000Y-87884000D01*
X154051020Y-87541020D02*
X156121020Y-87541020D01*
X151632584Y-85122584D02*
X154051020Y-87541020D01*
X151602327Y-85122584D02*
X151632584Y-85122584D01*
%TO.N,/CAN_STB*%
X154480000Y-87180000D02*
X157670000Y-87180000D01*
X150420000Y-84470000D02*
X151770000Y-84470000D01*
X157670000Y-87180000D02*
X158360000Y-87870000D01*
X148988344Y-85901656D02*
X150420000Y-84470000D01*
X148985087Y-85901656D02*
X148988344Y-85901656D01*
X151770000Y-84470000D02*
X154480000Y-87180000D01*
%TO.N,/SPI3_MISO*%
X138516532Y-83350000D02*
X137742767Y-82576235D01*
X144670000Y-83350000D02*
X138516532Y-83350000D01*
X146622410Y-83834170D02*
X146606580Y-83850000D01*
X146606580Y-83850000D02*
X145170000Y-83850000D01*
X145170000Y-83850000D02*
X144670000Y-83350000D01*
%TO.N,/ADC3_IN3*%
X142421758Y-74295000D02*
X141986000Y-74295000D01*
X142690000Y-74026758D02*
X142421758Y-74295000D01*
X142690000Y-71396758D02*
X142690000Y-74026758D01*
X144176758Y-69910000D02*
X142690000Y-71396758D01*
X153222000Y-69910000D02*
X144176758Y-69910000D01*
X154650000Y-71338000D02*
X153222000Y-69910000D01*
X154650000Y-74241222D02*
X154650000Y-71338000D01*
X153735392Y-75155830D02*
X154650000Y-74241222D01*
X153520000Y-75155830D02*
X153735392Y-75155830D01*
%TO.N,/ADC2_IN9*%
X147575830Y-78285830D02*
X147575830Y-78524980D01*
X147256840Y-71246840D02*
X147256840Y-77966840D01*
X147256840Y-77966840D02*
X147575830Y-78285830D01*
X146750000Y-70740000D02*
X147256840Y-71246840D01*
X144300000Y-70740000D02*
X146750000Y-70740000D01*
X143530000Y-71510000D02*
X144300000Y-70740000D01*
X132748000Y-75090000D02*
X142600000Y-75090000D01*
X142600000Y-75090000D02*
X143530000Y-74160000D01*
X131883200Y-74225200D02*
X132748000Y-75090000D01*
X143530000Y-74160000D02*
X143530000Y-71510000D01*
X130810000Y-74225200D02*
X131883200Y-74225200D01*
%TO.N,/ADC3_IN2*%
X150184824Y-79950686D02*
X150015184Y-79950686D01*
X148080000Y-85540000D02*
X150993421Y-82626579D01*
X144050000Y-85540000D02*
X148080000Y-85540000D01*
X143830000Y-85760000D02*
X144050000Y-85540000D01*
X150993421Y-82626579D02*
X150993421Y-80759284D01*
X140660226Y-85760000D02*
X143830000Y-85760000D01*
X150993421Y-80759284D02*
X150184824Y-79950686D01*
X140649822Y-85749596D02*
X140660226Y-85760000D01*
X140649822Y-85893598D02*
X140649822Y-85749596D01*
%TO.N,Net-(U8-PC13)*%
X165857598Y-76697598D02*
X165720000Y-76560000D01*
X152949891Y-79190000D02*
X166800000Y-79190000D01*
X151500000Y-80639891D02*
X152949891Y-79190000D01*
X167370000Y-78620000D02*
X167370000Y-77300000D01*
X166767598Y-76697598D02*
X165857598Y-76697598D01*
X151500000Y-83577580D02*
X151500000Y-80639891D01*
X166800000Y-79190000D02*
X167370000Y-78620000D01*
X167370000Y-77300000D02*
X166767598Y-76697598D01*
X151287590Y-83789990D02*
X151500000Y-83577580D01*
%TO.N,/CAN_RX*%
X156464000Y-90954000D02*
X156464000Y-91694000D01*
X151212594Y-85702594D02*
X156464000Y-90954000D01*
X150970000Y-85702594D02*
X151212594Y-85702594D01*
X150970095Y-85702499D02*
X150970000Y-85702594D01*
%TO.N,/SWDIO*%
X161655000Y-81550000D02*
X161671000Y-81534000D01*
X154160000Y-81550000D02*
X161655000Y-81550000D01*
X152776186Y-82933814D02*
X154160000Y-81550000D01*
X152655955Y-82933814D02*
X152776186Y-82933814D01*
%TO.N,/ENCODER_STA*%
X151920000Y-84094356D02*
X153385644Y-85560000D01*
X151920000Y-82735008D02*
X151920000Y-84094356D01*
X152706964Y-81948044D02*
X151920000Y-82735008D01*
X153385644Y-85560000D02*
X161370000Y-85560000D01*
%TO.N,/MCU_STA*%
X153011079Y-80024590D02*
X153009663Y-80024590D01*
X153485669Y-79550000D02*
X153011079Y-80024590D01*
X161110000Y-79550000D02*
X153485669Y-79550000D01*
X161380000Y-79820000D02*
X161110000Y-79550000D01*
X161380000Y-80017590D02*
X161380000Y-79820000D01*
%TO.N,/USART3_TX*%
X152700000Y-78530000D02*
X166310000Y-78530000D01*
X151830000Y-79400000D02*
X152700000Y-78530000D01*
X149290000Y-79400000D02*
X151830000Y-79400000D01*
X148289267Y-80400733D02*
X149290000Y-79400000D01*
X147809267Y-80400733D02*
X148289267Y-80400733D01*
X166310000Y-78530000D02*
X166330000Y-78510000D01*
%TO.N,/USART3_RX*%
X152370000Y-77890000D02*
X165846404Y-77890000D01*
X148840178Y-78766580D02*
X151493420Y-78766580D01*
X166236404Y-77500000D02*
X166280000Y-77500000D01*
X148129375Y-79477383D02*
X148840178Y-78766580D01*
X147575830Y-79477383D02*
X148129375Y-79477383D01*
X151493420Y-78766580D02*
X152370000Y-77890000D01*
X165846404Y-77890000D02*
X166236404Y-77500000D01*
%TO.N,/ADC1_IN10*%
X164592000Y-82612000D02*
X164592000Y-90678000D01*
X156237820Y-80650000D02*
X162630000Y-80650000D01*
X155956000Y-80368180D02*
X156237820Y-80650000D01*
X162630000Y-80650000D02*
X164592000Y-82612000D01*
%TO.N,/I2C1_SDA*%
X146170000Y-71670000D02*
X146130000Y-71630000D01*
X146170000Y-76200000D02*
X146170000Y-71670000D01*
X146943420Y-76973420D02*
X146170000Y-76200000D01*
X146943420Y-80429250D02*
X146943420Y-76973420D01*
X148186860Y-81672690D02*
X146943420Y-80429250D01*
X148188273Y-81672690D02*
X148186860Y-81672690D01*
X148500737Y-81986567D02*
X148500737Y-81985154D01*
X148720000Y-82205830D02*
X148500737Y-81986567D01*
X148500737Y-81985154D02*
X148188273Y-81672690D01*
X149100000Y-82205830D02*
X148720000Y-82205830D01*
%TO.N,/SPI1_SCK*%
X151321720Y-75758280D02*
X153550000Y-73530000D01*
X153550000Y-73530000D02*
X153550000Y-71630000D01*
X151321720Y-77751498D02*
X151321720Y-75758280D01*
D19*
%TO.N,GND*%
X139580000Y-89700000D02*
X139580000Y-89330000D01*
X139580000Y-89330000D02*
X138132800Y-89330000D01*
X138176000Y-88630000D02*
X138129400Y-88676600D01*
X136807500Y-89320000D02*
X138122800Y-89320000D01*
X139303400Y-89976600D02*
X139580000Y-89700000D01*
X136525000Y-89602500D02*
X136807500Y-89320000D01*
X138129400Y-89976600D02*
X139303400Y-89976600D01*
X139590000Y-88630000D02*
X138176000Y-88630000D01*
%TO.N,+3.3V*%
X136525000Y-90737500D02*
X137064100Y-91276600D01*
X137064100Y-91276600D02*
X138129400Y-91276600D01*
X139736400Y-91276600D02*
X138129400Y-91276600D01*
X140589000Y-90424000D02*
X139736400Y-91276600D01*
D18*
%TO.N,+5V*%
X127381000Y-76309000D02*
X127381000Y-76221000D01*
X126861000Y-76309000D02*
X124333000Y-78837000D01*
X127381000Y-86621000D02*
X133107400Y-92347400D01*
X134208000Y-70200000D02*
X135001000Y-70993000D01*
X152000600Y-92347400D02*
X152400000Y-91948000D01*
X124333000Y-88900000D02*
X123571000Y-89662000D01*
X128100000Y-70200000D02*
X134208000Y-70200000D01*
X127381000Y-76221000D02*
X126000000Y-74840000D01*
X133107400Y-92347400D02*
X152000600Y-92347400D01*
X126000000Y-74840000D02*
X126000000Y-72300000D01*
X126000000Y-72300000D02*
X128100000Y-70200000D01*
X124333000Y-78837000D02*
X124333000Y-88900000D01*
X127381000Y-76309000D02*
X126861000Y-76309000D01*
X127381000Y-76309000D02*
X127381000Y-86621000D01*
%TO.N,+36V*%
X129248659Y-89497659D02*
X125603000Y-85852000D01*
X129282341Y-89497659D02*
X129248659Y-89497659D01*
X125603000Y-85852000D02*
X125576500Y-85852000D01*
D17*
%TO.N,/DRV8323RSRGZR/SPB*%
X135042409Y-91100409D02*
X134037999Y-91100409D01*
X134037999Y-91100409D02*
X133977590Y-91040000D01*
%TO.N,/SPI3_MISO*%
X145150030Y-89285830D02*
X143902170Y-89285830D01*
%TO.N,/SPI3_SCK*%
X141956186Y-90246186D02*
X142336600Y-90626600D01*
X141956186Y-89258536D02*
X141956186Y-90246186D01*
X142336600Y-90626600D02*
X143861400Y-90626600D01*
%TO.N,/SPI3_MOSI*%
X145757590Y-90019271D02*
X145708319Y-89970000D01*
X145708319Y-89970000D02*
X143868000Y-89970000D01*
%TO.N,GND1*%
X133664382Y-91724113D02*
X133728495Y-91660000D01*
X135546876Y-91660000D02*
X135574437Y-91632439D01*
X133728495Y-91660000D02*
X135546876Y-91660000D01*
%TO.N,/ENCODER_CAL_EN*%
X142220000Y-88680000D02*
X143858000Y-88680000D01*
X142067689Y-88527689D02*
X142220000Y-88680000D01*
X142067689Y-87929392D02*
X142067689Y-88527689D01*
%TO.N,/ENCODER_SPI_NSS*%
X145681732Y-91280000D02*
X143864800Y-91280000D01*
X145870000Y-91091732D02*
X145681732Y-91280000D01*
%TD*%
%TA.AperFunction,Conductor*%
%TO.N,+36V*%
G36*
X128488577Y-96511423D02*
G01*
X128500000Y-96539000D01*
X128500000Y-99250000D01*
X169935100Y-99250000D01*
X169962677Y-99261423D01*
X169974100Y-99289000D01*
X169974100Y-102772822D01*
X169962677Y-102800399D01*
X169935100Y-102811822D01*
X165008416Y-102811822D01*
X165008415Y-102811822D01*
X165000000Y-102811822D01*
X164999994Y-102811822D01*
X164983511Y-102811823D01*
X164983495Y-102811826D01*
X164832251Y-102811858D01*
X164832244Y-102811858D01*
X164832242Y-102811859D01*
X164726679Y-102822999D01*
X164498577Y-102847070D01*
X164170460Y-102917103D01*
X164170452Y-102917105D01*
X163851496Y-103021186D01*
X163851480Y-103021193D01*
X163545231Y-103158163D01*
X163545219Y-103158169D01*
X163255008Y-103326539D01*
X162984067Y-103524438D01*
X162984059Y-103524445D01*
X162735400Y-103749672D01*
X162735392Y-103749680D01*
X162511746Y-103999755D01*
X162511724Y-103999783D01*
X162315558Y-104271949D01*
X162315552Y-104271957D01*
X162149026Y-104563219D01*
X162013980Y-104870364D01*
X161911918Y-105189971D01*
X161843959Y-105518544D01*
X161810860Y-105852419D01*
X161812983Y-106187916D01*
X161812983Y-106187917D01*
X161826912Y-106312358D01*
X161850305Y-106521355D01*
X161853939Y-106537867D01*
X161922415Y-106849036D01*
X161971577Y-106996625D01*
X161973523Y-107010991D01*
X161957914Y-107308839D01*
X161957487Y-107312899D01*
X161909428Y-107616333D01*
X161908579Y-107620326D01*
X161829066Y-107917070D01*
X161827805Y-107920952D01*
X161717707Y-108207768D01*
X161716046Y-108211498D01*
X161576573Y-108485229D01*
X161574532Y-108488764D01*
X161407210Y-108746417D01*
X161404811Y-108749719D01*
X161211472Y-108988473D01*
X161208740Y-108991507D01*
X160991507Y-109208740D01*
X160988473Y-109211472D01*
X160749719Y-109404811D01*
X160746417Y-109407210D01*
X160488764Y-109574532D01*
X160485229Y-109576573D01*
X160211498Y-109716046D01*
X160207768Y-109717707D01*
X159920952Y-109827805D01*
X159917070Y-109829066D01*
X159620326Y-109908579D01*
X159616333Y-109909428D01*
X159312899Y-109957487D01*
X159308839Y-109957914D01*
X159001011Y-109974047D01*
X158998970Y-109974100D01*
X123001030Y-109974100D01*
X122998989Y-109974047D01*
X122691160Y-109957914D01*
X122687100Y-109957487D01*
X122383666Y-109909428D01*
X122379673Y-109908579D01*
X122082929Y-109829066D01*
X122079047Y-109827805D01*
X121792231Y-109717707D01*
X121788501Y-109716046D01*
X121514770Y-109576573D01*
X121511235Y-109574532D01*
X121253582Y-109407210D01*
X121250280Y-109404811D01*
X121011526Y-109211472D01*
X121008492Y-109208740D01*
X120791259Y-108991507D01*
X120788527Y-108988473D01*
X120739659Y-108928126D01*
X120595186Y-108749717D01*
X120592789Y-108746417D01*
X120425467Y-108488764D01*
X120423426Y-108485229D01*
X120283953Y-108211498D01*
X120282292Y-108207768D01*
X120272690Y-108182754D01*
X120172192Y-107920947D01*
X120170933Y-107917070D01*
X120135340Y-107784235D01*
X120091418Y-107620317D01*
X120090573Y-107616342D01*
X120042511Y-107312897D01*
X120042085Y-107308839D01*
X120025953Y-107001011D01*
X120025900Y-106998970D01*
X120025900Y-106845311D01*
X120245500Y-106845311D01*
X120245500Y-107154689D01*
X120279434Y-107455863D01*
X120280141Y-107462132D01*
X120280141Y-107462134D01*
X120348981Y-107763740D01*
X120348983Y-107763749D01*
X120451162Y-108055758D01*
X120451163Y-108055761D01*
X120465665Y-108085874D01*
X120585399Y-108334503D01*
X120585401Y-108334507D01*
X120585402Y-108334508D01*
X120749998Y-108596463D01*
X120750001Y-108596468D01*
X120942886Y-108838337D01*
X121161662Y-109057113D01*
X121403531Y-109249998D01*
X121403536Y-109250001D01*
X121403538Y-109250002D01*
X121665497Y-109414601D01*
X121928415Y-109541216D01*
X121944238Y-109548836D01*
X121944241Y-109548837D01*
X122236250Y-109651016D01*
X122236259Y-109651018D01*
X122537866Y-109719858D01*
X122537870Y-109719858D01*
X122537877Y-109719860D01*
X122845311Y-109754500D01*
X122845316Y-109754500D01*
X123154684Y-109754500D01*
X123154689Y-109754500D01*
X123462123Y-109719860D01*
X123462132Y-109719858D01*
X123462134Y-109719858D01*
X123698404Y-109665930D01*
X123763745Y-109651017D01*
X123763745Y-109651016D01*
X123763749Y-109651016D01*
X123929397Y-109593053D01*
X124055762Y-109548836D01*
X124334503Y-109414601D01*
X124596462Y-109250002D01*
X124596464Y-109250000D01*
X124596468Y-109249998D01*
X124838337Y-109057113D01*
X124838339Y-109057110D01*
X124838344Y-109057107D01*
X125057107Y-108838344D01*
X125081097Y-108808262D01*
X125249998Y-108596468D01*
X125250001Y-108596463D01*
X125250002Y-108596462D01*
X125414601Y-108334503D01*
X125548836Y-108055762D01*
X125599926Y-107909753D01*
X125651016Y-107763749D01*
X125651018Y-107763740D01*
X125719858Y-107462134D01*
X125719858Y-107462132D01*
X125719858Y-107462131D01*
X125719860Y-107462123D01*
X125750326Y-107191738D01*
X129245500Y-107191738D01*
X129245500Y-108808262D01*
X129248174Y-108838337D01*
X129256156Y-108928126D01*
X129312358Y-109124541D01*
X129356340Y-109208740D01*
X129406946Y-109305620D01*
X129536048Y-109463952D01*
X129694380Y-109593054D01*
X129875460Y-109687642D01*
X130071872Y-109743843D01*
X130191738Y-109754500D01*
X130191745Y-109754500D01*
X131808255Y-109754500D01*
X131808262Y-109754500D01*
X131928128Y-109743843D01*
X132124540Y-109687642D01*
X132305620Y-109593054D01*
X132463952Y-109463952D01*
X132593054Y-109305620D01*
X132687642Y-109124540D01*
X132743843Y-108928128D01*
X132754500Y-108808262D01*
X132754500Y-107191738D01*
X139245500Y-107191738D01*
X139245500Y-108808262D01*
X139248174Y-108838337D01*
X139256156Y-108928126D01*
X139312358Y-109124541D01*
X139356340Y-109208740D01*
X139406946Y-109305620D01*
X139536048Y-109463952D01*
X139694380Y-109593054D01*
X139875460Y-109687642D01*
X140071872Y-109743843D01*
X140191738Y-109754500D01*
X140191745Y-109754500D01*
X141808255Y-109754500D01*
X141808262Y-109754500D01*
X141928128Y-109743843D01*
X142124540Y-109687642D01*
X142305620Y-109593054D01*
X142463952Y-109463952D01*
X142593054Y-109305620D01*
X142687642Y-109124540D01*
X142743843Y-108928128D01*
X142754500Y-108808262D01*
X142754500Y-107191738D01*
X149245500Y-107191738D01*
X149245500Y-108808262D01*
X149248174Y-108838337D01*
X149256156Y-108928126D01*
X149312358Y-109124541D01*
X149356340Y-109208740D01*
X149406946Y-109305620D01*
X149536048Y-109463952D01*
X149694380Y-109593054D01*
X149875460Y-109687642D01*
X150071872Y-109743843D01*
X150191738Y-109754500D01*
X150191745Y-109754500D01*
X151808255Y-109754500D01*
X151808262Y-109754500D01*
X151928128Y-109743843D01*
X152124540Y-109687642D01*
X152305620Y-109593054D01*
X152463952Y-109463952D01*
X152593054Y-109305620D01*
X152687642Y-109124540D01*
X152743843Y-108928128D01*
X152754500Y-108808262D01*
X152754500Y-107191738D01*
X152743843Y-107071872D01*
X152687642Y-106875460D01*
X152671894Y-106845311D01*
X156245500Y-106845311D01*
X156245500Y-107154689D01*
X156279434Y-107455863D01*
X156280141Y-107462132D01*
X156280141Y-107462134D01*
X156348981Y-107763740D01*
X156348983Y-107763749D01*
X156451162Y-108055758D01*
X156451163Y-108055761D01*
X156465665Y-108085874D01*
X156585399Y-108334503D01*
X156585401Y-108334507D01*
X156585402Y-108334508D01*
X156749998Y-108596463D01*
X156750001Y-108596468D01*
X156942886Y-108838337D01*
X157161662Y-109057113D01*
X157403531Y-109249998D01*
X157403536Y-109250001D01*
X157403538Y-109250002D01*
X157665497Y-109414601D01*
X157928415Y-109541216D01*
X157944238Y-109548836D01*
X157944241Y-109548837D01*
X158236250Y-109651016D01*
X158236259Y-109651018D01*
X158537866Y-109719858D01*
X158537870Y-109719858D01*
X158537877Y-109719860D01*
X158845311Y-109754500D01*
X158845316Y-109754500D01*
X159154684Y-109754500D01*
X159154689Y-109754500D01*
X159462123Y-109719860D01*
X159462132Y-109719858D01*
X159462134Y-109719858D01*
X159698404Y-109665930D01*
X159763745Y-109651017D01*
X159763745Y-109651016D01*
X159763749Y-109651016D01*
X159929397Y-109593053D01*
X160055762Y-109548836D01*
X160334503Y-109414601D01*
X160596462Y-109250002D01*
X160596464Y-109250000D01*
X160596468Y-109249998D01*
X160838337Y-109057113D01*
X160838339Y-109057110D01*
X160838344Y-109057107D01*
X161057107Y-108838344D01*
X161081097Y-108808262D01*
X161249998Y-108596468D01*
X161250001Y-108596463D01*
X161250002Y-108596462D01*
X161414601Y-108334503D01*
X161548836Y-108055762D01*
X161599926Y-107909753D01*
X161651016Y-107763749D01*
X161651018Y-107763740D01*
X161719858Y-107462134D01*
X161719858Y-107462132D01*
X161719858Y-107462131D01*
X161719860Y-107462123D01*
X161754500Y-107154689D01*
X161754500Y-106845311D01*
X161719860Y-106537877D01*
X161719858Y-106537867D01*
X161719858Y-106537865D01*
X161651018Y-106236259D01*
X161651016Y-106236250D01*
X161548837Y-105944241D01*
X161548836Y-105944238D01*
X161504618Y-105852419D01*
X161414601Y-105665497D01*
X161250002Y-105403538D01*
X161250001Y-105403536D01*
X161249998Y-105403531D01*
X161057113Y-105161662D01*
X160838337Y-104942886D01*
X160596468Y-104750001D01*
X160596463Y-104749998D01*
X160334508Y-104585402D01*
X160334507Y-104585401D01*
X160334503Y-104585399D01*
X160185885Y-104513828D01*
X160055761Y-104451163D01*
X160055758Y-104451162D01*
X159763749Y-104348983D01*
X159763740Y-104348981D01*
X159462133Y-104280141D01*
X159389427Y-104271949D01*
X159154689Y-104245500D01*
X158845311Y-104245500D01*
X158610573Y-104271949D01*
X158537867Y-104280141D01*
X158537865Y-104280141D01*
X158236259Y-104348981D01*
X158236250Y-104348983D01*
X157944241Y-104451162D01*
X157944238Y-104451163D01*
X157665491Y-104585402D01*
X157403536Y-104749998D01*
X157403531Y-104750001D01*
X157161662Y-104942886D01*
X156942886Y-105161662D01*
X156750001Y-105403531D01*
X156749998Y-105403536D01*
X156585402Y-105665491D01*
X156451163Y-105944238D01*
X156451162Y-105944241D01*
X156348983Y-106236250D01*
X156348981Y-106236259D01*
X156280141Y-106537865D01*
X156280141Y-106537867D01*
X156280140Y-106537877D01*
X156245500Y-106845311D01*
X152671894Y-106845311D01*
X152593054Y-106694380D01*
X152463952Y-106536048D01*
X152305620Y-106406946D01*
X152194460Y-106348881D01*
X152124541Y-106312358D01*
X151928126Y-106256156D01*
X151859899Y-106250090D01*
X151808262Y-106245500D01*
X150191738Y-106245500D01*
X150143094Y-106249824D01*
X150071873Y-106256156D01*
X149875458Y-106312358D01*
X149694380Y-106406946D01*
X149694377Y-106406948D01*
X149536048Y-106536048D01*
X149406948Y-106694377D01*
X149406946Y-106694380D01*
X149312358Y-106875458D01*
X149256156Y-107071873D01*
X149249824Y-107143094D01*
X149245500Y-107191738D01*
X142754500Y-107191738D01*
X142743843Y-107071872D01*
X142687642Y-106875460D01*
X142593054Y-106694380D01*
X142463952Y-106536048D01*
X142305620Y-106406946D01*
X142194460Y-106348881D01*
X142124541Y-106312358D01*
X141928126Y-106256156D01*
X141859899Y-106250090D01*
X141808262Y-106245500D01*
X141344363Y-106245500D01*
X141316786Y-106234077D01*
X141305363Y-106206500D01*
X141316786Y-106178923D01*
X141324863Y-106172725D01*
X141331933Y-106168643D01*
X141437471Y-106107711D01*
X141437472Y-106107710D01*
X141437473Y-106107710D01*
X141540710Y-106004473D01*
X141540710Y-106004472D01*
X141540711Y-106004471D01*
X141613712Y-105878029D01*
X141620576Y-105852414D01*
X141651499Y-105737005D01*
X141651500Y-105736999D01*
X141651500Y-105591000D01*
X141651499Y-105590994D01*
X141613713Y-105449973D01*
X141540710Y-105323527D01*
X141437472Y-105220289D01*
X141311026Y-105147286D01*
X141247148Y-105130171D01*
X141223467Y-105112000D01*
X141219571Y-105082406D01*
X141237742Y-105058725D01*
X141247148Y-105054829D01*
X141311026Y-105037713D01*
X141311026Y-105037712D01*
X141311029Y-105037712D01*
X141437471Y-104964711D01*
X141437472Y-104964710D01*
X141437473Y-104964710D01*
X141540710Y-104861473D01*
X141540710Y-104861472D01*
X141540711Y-104861471D01*
X141613712Y-104735029D01*
X141651500Y-104594001D01*
X141651500Y-104447999D01*
X141651499Y-104447994D01*
X141812500Y-104447994D01*
X141812500Y-104594005D01*
X141850286Y-104735026D01*
X141923289Y-104861472D01*
X142026527Y-104964710D01*
X142152973Y-105037713D01*
X142216851Y-105054829D01*
X142240532Y-105073000D01*
X142244428Y-105102594D01*
X142226257Y-105126275D01*
X142216851Y-105130171D01*
X142152973Y-105147286D01*
X142026527Y-105220289D01*
X142026527Y-105220290D01*
X141923290Y-105323527D01*
X141923289Y-105323527D01*
X141850286Y-105449973D01*
X141812500Y-105590994D01*
X141812500Y-105737005D01*
X141850286Y-105878026D01*
X141923289Y-106004472D01*
X142026527Y-106107710D01*
X142026529Y-106107711D01*
X142149872Y-106178923D01*
X142152973Y-106180713D01*
X142293994Y-106218499D01*
X142293997Y-106218499D01*
X142293999Y-106218500D01*
X142294000Y-106218500D01*
X142440000Y-106218500D01*
X142440001Y-106218500D01*
X142554121Y-106187922D01*
X142581026Y-106180713D01*
X142581026Y-106180712D01*
X142581029Y-106180712D01*
X142707471Y-106107711D01*
X142707472Y-106107710D01*
X142707473Y-106107710D01*
X142810710Y-106004473D01*
X142810710Y-106004472D01*
X142810711Y-106004471D01*
X142883712Y-105878029D01*
X142890576Y-105852414D01*
X142921499Y-105737005D01*
X142921500Y-105736999D01*
X142921500Y-105591000D01*
X142921499Y-105590994D01*
X142883713Y-105449973D01*
X142810710Y-105323527D01*
X142707472Y-105220289D01*
X142581026Y-105147286D01*
X142517148Y-105130171D01*
X142493467Y-105112000D01*
X142489571Y-105082406D01*
X142507742Y-105058725D01*
X142517148Y-105054829D01*
X142581026Y-105037713D01*
X142581026Y-105037712D01*
X142581029Y-105037712D01*
X142707471Y-104964711D01*
X142707472Y-104964710D01*
X142707473Y-104964710D01*
X142810710Y-104861473D01*
X142810710Y-104861472D01*
X142810711Y-104861471D01*
X142883712Y-104735029D01*
X142921500Y-104594001D01*
X142921500Y-104447999D01*
X142921499Y-104447994D01*
X144860500Y-104447994D01*
X144860500Y-104594005D01*
X144898286Y-104735026D01*
X144971289Y-104861472D01*
X145074527Y-104964710D01*
X145200973Y-105037713D01*
X145264851Y-105054829D01*
X145288532Y-105073000D01*
X145292428Y-105102594D01*
X145274257Y-105126275D01*
X145264851Y-105130171D01*
X145200973Y-105147286D01*
X145074527Y-105220289D01*
X145074527Y-105220290D01*
X144971290Y-105323527D01*
X144971289Y-105323527D01*
X144898286Y-105449973D01*
X144860500Y-105590994D01*
X144860500Y-105737005D01*
X144898286Y-105878026D01*
X144971289Y-106004472D01*
X145074527Y-106107710D01*
X145074529Y-106107711D01*
X145197872Y-106178923D01*
X145200973Y-106180713D01*
X145341994Y-106218499D01*
X145341997Y-106218499D01*
X145341999Y-106218500D01*
X145342000Y-106218500D01*
X145488000Y-106218500D01*
X145488001Y-106218500D01*
X145602121Y-106187922D01*
X145629026Y-106180713D01*
X145629026Y-106180712D01*
X145629029Y-106180712D01*
X145755471Y-106107711D01*
X145755472Y-106107710D01*
X145755473Y-106107710D01*
X145858710Y-106004473D01*
X145858710Y-106004472D01*
X145858711Y-106004471D01*
X145931712Y-105878029D01*
X145938576Y-105852414D01*
X145969499Y-105737005D01*
X145969500Y-105736999D01*
X145969500Y-105591000D01*
X145969499Y-105590994D01*
X145931713Y-105449973D01*
X145858710Y-105323527D01*
X145755472Y-105220289D01*
X145629026Y-105147286D01*
X145565148Y-105130171D01*
X145541467Y-105112000D01*
X145537571Y-105082406D01*
X145555742Y-105058725D01*
X145565148Y-105054829D01*
X145629026Y-105037713D01*
X145629026Y-105037712D01*
X145629029Y-105037712D01*
X145755471Y-104964711D01*
X145755472Y-104964710D01*
X145755473Y-104964710D01*
X145858710Y-104861473D01*
X145858710Y-104861472D01*
X145858711Y-104861471D01*
X145931712Y-104735029D01*
X145969500Y-104594001D01*
X145969500Y-104447999D01*
X145969499Y-104447994D01*
X146130500Y-104447994D01*
X146130500Y-104594005D01*
X146168286Y-104735026D01*
X146241289Y-104861472D01*
X146344527Y-104964710D01*
X146470973Y-105037713D01*
X146534851Y-105054829D01*
X146558532Y-105073000D01*
X146562428Y-105102594D01*
X146544257Y-105126275D01*
X146534851Y-105130171D01*
X146470973Y-105147286D01*
X146344527Y-105220289D01*
X146344527Y-105220290D01*
X146241290Y-105323527D01*
X146241289Y-105323527D01*
X146168286Y-105449973D01*
X146130500Y-105590994D01*
X146130500Y-105737005D01*
X146168286Y-105878026D01*
X146241289Y-106004472D01*
X146344527Y-106107710D01*
X146344529Y-106107711D01*
X146467872Y-106178923D01*
X146470973Y-106180713D01*
X146611994Y-106218499D01*
X146611997Y-106218499D01*
X146611999Y-106218500D01*
X146612000Y-106218500D01*
X146758000Y-106218500D01*
X146758001Y-106218500D01*
X146872121Y-106187922D01*
X146899026Y-106180713D01*
X146899026Y-106180712D01*
X146899029Y-106180712D01*
X147025471Y-106107711D01*
X147025472Y-106107710D01*
X147025473Y-106107710D01*
X147128710Y-106004473D01*
X147128710Y-106004472D01*
X147128711Y-106004471D01*
X147201712Y-105878029D01*
X147208576Y-105852414D01*
X147239499Y-105737005D01*
X147239500Y-105736999D01*
X147239500Y-105591000D01*
X147239499Y-105590994D01*
X147201713Y-105449973D01*
X147128710Y-105323527D01*
X147025472Y-105220289D01*
X146899026Y-105147286D01*
X146835148Y-105130171D01*
X146811467Y-105112000D01*
X146807571Y-105082406D01*
X146825742Y-105058725D01*
X146835148Y-105054829D01*
X146899026Y-105037713D01*
X146899026Y-105037712D01*
X146899029Y-105037712D01*
X147025471Y-104964711D01*
X147025472Y-104964710D01*
X147025473Y-104964710D01*
X147128710Y-104861473D01*
X147128710Y-104861472D01*
X147128711Y-104861471D01*
X147201712Y-104735029D01*
X147239500Y-104594001D01*
X147239500Y-104447999D01*
X147239499Y-104447994D01*
X147400500Y-104447994D01*
X147400500Y-104594005D01*
X147438286Y-104735026D01*
X147511289Y-104861472D01*
X147614527Y-104964710D01*
X147740973Y-105037713D01*
X147804851Y-105054829D01*
X147828532Y-105073000D01*
X147832428Y-105102594D01*
X147814257Y-105126275D01*
X147804851Y-105130171D01*
X147740973Y-105147286D01*
X147614527Y-105220289D01*
X147614527Y-105220290D01*
X147511290Y-105323527D01*
X147511289Y-105323527D01*
X147438286Y-105449973D01*
X147400500Y-105590994D01*
X147400500Y-105737005D01*
X147438286Y-105878026D01*
X147511289Y-106004472D01*
X147614527Y-106107710D01*
X147614529Y-106107711D01*
X147737872Y-106178923D01*
X147740973Y-106180713D01*
X147881994Y-106218499D01*
X147881997Y-106218499D01*
X147881999Y-106218500D01*
X147882000Y-106218500D01*
X148028000Y-106218500D01*
X148028001Y-106218500D01*
X148142121Y-106187922D01*
X148169026Y-106180713D01*
X148169026Y-106180712D01*
X148169029Y-106180712D01*
X148295471Y-106107711D01*
X148295472Y-106107710D01*
X148295473Y-106107710D01*
X148398710Y-106004473D01*
X148398710Y-106004472D01*
X148398711Y-106004471D01*
X148471712Y-105878029D01*
X148478576Y-105852414D01*
X148509499Y-105737005D01*
X148509500Y-105736999D01*
X148509500Y-105591000D01*
X148509499Y-105590994D01*
X148471713Y-105449973D01*
X148398710Y-105323527D01*
X148295472Y-105220289D01*
X148169026Y-105147286D01*
X148105148Y-105130171D01*
X148081467Y-105112000D01*
X148077571Y-105082406D01*
X148095742Y-105058725D01*
X148105148Y-105054829D01*
X148169026Y-105037713D01*
X148169026Y-105037712D01*
X148169029Y-105037712D01*
X148295471Y-104964711D01*
X148295472Y-104964710D01*
X148295473Y-104964710D01*
X148398710Y-104861473D01*
X148398710Y-104861472D01*
X148398711Y-104861471D01*
X148471712Y-104735029D01*
X148509500Y-104594001D01*
X148509500Y-104447999D01*
X148482969Y-104348983D01*
X148471713Y-104306973D01*
X148398710Y-104180527D01*
X148295472Y-104077289D01*
X148169026Y-104004286D01*
X148028005Y-103966500D01*
X148028001Y-103966500D01*
X147881999Y-103966500D01*
X147881994Y-103966500D01*
X147740973Y-104004286D01*
X147614527Y-104077289D01*
X147614527Y-104077290D01*
X147511290Y-104180527D01*
X147511289Y-104180527D01*
X147438286Y-104306973D01*
X147400500Y-104447994D01*
X147239499Y-104447994D01*
X147212969Y-104348983D01*
X147201713Y-104306973D01*
X147128710Y-104180527D01*
X147025472Y-104077289D01*
X146899026Y-104004286D01*
X146758005Y-103966500D01*
X146758001Y-103966500D01*
X146611999Y-103966500D01*
X146611994Y-103966500D01*
X146470973Y-104004286D01*
X146344527Y-104077289D01*
X146344527Y-104077290D01*
X146241290Y-104180527D01*
X146241289Y-104180527D01*
X146168286Y-104306973D01*
X146130500Y-104447994D01*
X145969499Y-104447994D01*
X145942969Y-104348983D01*
X145931713Y-104306973D01*
X145858710Y-104180527D01*
X145755472Y-104077289D01*
X145629026Y-104004286D01*
X145488005Y-103966500D01*
X145488001Y-103966500D01*
X145341999Y-103966500D01*
X145341994Y-103966500D01*
X145200973Y-104004286D01*
X145074527Y-104077289D01*
X145074527Y-104077290D01*
X144971290Y-104180527D01*
X144971289Y-104180527D01*
X144898286Y-104306973D01*
X144860500Y-104447994D01*
X142921499Y-104447994D01*
X142894969Y-104348983D01*
X142883713Y-104306973D01*
X142810710Y-104180527D01*
X142707472Y-104077289D01*
X142581026Y-104004286D01*
X142440005Y-103966500D01*
X142440001Y-103966500D01*
X142293999Y-103966500D01*
X142293994Y-103966500D01*
X142152973Y-104004286D01*
X142026527Y-104077289D01*
X142026527Y-104077290D01*
X141923290Y-104180527D01*
X141923289Y-104180527D01*
X141850286Y-104306973D01*
X141812500Y-104447994D01*
X141651499Y-104447994D01*
X141624969Y-104348983D01*
X141613713Y-104306973D01*
X141540710Y-104180527D01*
X141437472Y-104077289D01*
X141311026Y-104004286D01*
X141170005Y-103966500D01*
X141170001Y-103966500D01*
X141023999Y-103966500D01*
X141023994Y-103966500D01*
X140882973Y-104004286D01*
X140756527Y-104077289D01*
X140756527Y-104077290D01*
X140653290Y-104180527D01*
X140653289Y-104180527D01*
X140580286Y-104306973D01*
X140542500Y-104447994D01*
X140542500Y-104594005D01*
X140580286Y-104735026D01*
X140653289Y-104861472D01*
X140756527Y-104964710D01*
X140882973Y-105037713D01*
X140946851Y-105054829D01*
X140970532Y-105073000D01*
X140974428Y-105102594D01*
X140956257Y-105126275D01*
X140946851Y-105130171D01*
X140882973Y-105147286D01*
X140756527Y-105220289D01*
X140756527Y-105220290D01*
X140653290Y-105323527D01*
X140653289Y-105323527D01*
X140580286Y-105449973D01*
X140542500Y-105590994D01*
X140542500Y-105737005D01*
X140580286Y-105878026D01*
X140653289Y-106004472D01*
X140756527Y-106107710D01*
X140869137Y-106172725D01*
X140887308Y-106196406D01*
X140883412Y-106226000D01*
X140859731Y-106244171D01*
X140849637Y-106245500D01*
X140191738Y-106245500D01*
X140143094Y-106249824D01*
X140071873Y-106256156D01*
X139875458Y-106312358D01*
X139694380Y-106406946D01*
X139694377Y-106406948D01*
X139536048Y-106536048D01*
X139406948Y-106694377D01*
X139406946Y-106694380D01*
X139312358Y-106875458D01*
X139256156Y-107071873D01*
X139249824Y-107143094D01*
X139245500Y-107191738D01*
X132754500Y-107191738D01*
X132743843Y-107071872D01*
X132687642Y-106875460D01*
X132593054Y-106694380D01*
X132463952Y-106536048D01*
X132305620Y-106406946D01*
X132194460Y-106348881D01*
X132124541Y-106312358D01*
X131928126Y-106256156D01*
X131859899Y-106250090D01*
X131808262Y-106245500D01*
X130191738Y-106245500D01*
X130143094Y-106249824D01*
X130071873Y-106256156D01*
X129875458Y-106312358D01*
X129694380Y-106406946D01*
X129694377Y-106406948D01*
X129536048Y-106536048D01*
X129406948Y-106694377D01*
X129406946Y-106694380D01*
X129312358Y-106875458D01*
X129256156Y-107071873D01*
X129249824Y-107143094D01*
X129245500Y-107191738D01*
X125750326Y-107191738D01*
X125754500Y-107154689D01*
X125754500Y-106845311D01*
X125719860Y-106537877D01*
X125719858Y-106537867D01*
X125719858Y-106537865D01*
X125651018Y-106236259D01*
X125651016Y-106236250D01*
X125548837Y-105944241D01*
X125548836Y-105944238D01*
X125504618Y-105852419D01*
X125414601Y-105665497D01*
X125250002Y-105403538D01*
X125250001Y-105403536D01*
X125249998Y-105403531D01*
X125057113Y-105161662D01*
X124838337Y-104942886D01*
X124596468Y-104750001D01*
X124596463Y-104749998D01*
X124334508Y-104585402D01*
X124334507Y-104585401D01*
X124334503Y-104585399D01*
X124185885Y-104513828D01*
X124055761Y-104451163D01*
X124055758Y-104451162D01*
X123878997Y-104389311D01*
X123856740Y-104369422D01*
X123855067Y-104339619D01*
X123874956Y-104317362D01*
X123891878Y-104313500D01*
X123898000Y-104313500D01*
X123898001Y-104313500D01*
X123898005Y-104313499D01*
X124039026Y-104275713D01*
X124039026Y-104275712D01*
X124039029Y-104275712D01*
X124165471Y-104202711D01*
X124165472Y-104202710D01*
X124165473Y-104202710D01*
X124268710Y-104099473D01*
X124268710Y-104099472D01*
X124281517Y-104077290D01*
X124341712Y-103973029D01*
X124343462Y-103966500D01*
X124379499Y-103832005D01*
X124379500Y-103831999D01*
X124379500Y-103686000D01*
X124379499Y-103685994D01*
X124341713Y-103544973D01*
X124268710Y-103418527D01*
X124165472Y-103315289D01*
X124116699Y-103287131D01*
X124112617Y-103284774D01*
X124094447Y-103261094D01*
X124098343Y-103231500D01*
X124112617Y-103217225D01*
X124165471Y-103186711D01*
X124165472Y-103186710D01*
X124165473Y-103186710D01*
X124268710Y-103083473D01*
X124268710Y-103083472D01*
X124268711Y-103083471D01*
X124341712Y-102957029D01*
X124367366Y-102861288D01*
X124379499Y-102816005D01*
X124379500Y-102815999D01*
X124379500Y-102670000D01*
X124379499Y-102669994D01*
X124540500Y-102669994D01*
X124540500Y-102816005D01*
X124578286Y-102957026D01*
X124651289Y-103083472D01*
X124754527Y-103186710D01*
X124807380Y-103217225D01*
X124825551Y-103240906D01*
X124821655Y-103270500D01*
X124807380Y-103284775D01*
X124754527Y-103315289D01*
X124754527Y-103315290D01*
X124651290Y-103418527D01*
X124651289Y-103418527D01*
X124578286Y-103544973D01*
X124540500Y-103685994D01*
X124540500Y-103832005D01*
X124578286Y-103973026D01*
X124651289Y-104099472D01*
X124754527Y-104202710D01*
X124807902Y-104233526D01*
X124874453Y-104271949D01*
X124880973Y-104275713D01*
X125021994Y-104313499D01*
X125021997Y-104313499D01*
X125021999Y-104313500D01*
X125022000Y-104313500D01*
X125168000Y-104313500D01*
X125168001Y-104313500D01*
X125168005Y-104313499D01*
X125309026Y-104275713D01*
X125309026Y-104275712D01*
X125309029Y-104275712D01*
X125435471Y-104202711D01*
X125435472Y-104202710D01*
X125435473Y-104202710D01*
X125538710Y-104099473D01*
X125538710Y-104099472D01*
X125551517Y-104077290D01*
X125611712Y-103973029D01*
X125613462Y-103966500D01*
X125649499Y-103832005D01*
X125649500Y-103831999D01*
X125649500Y-103686000D01*
X125649499Y-103685994D01*
X125611713Y-103544973D01*
X125538710Y-103418527D01*
X125435472Y-103315289D01*
X125417640Y-103304994D01*
X127969500Y-103304994D01*
X127969500Y-103451005D01*
X128007286Y-103592026D01*
X128080289Y-103718472D01*
X128183527Y-103821710D01*
X128236380Y-103852225D01*
X128254551Y-103875906D01*
X128250655Y-103905500D01*
X128236380Y-103919775D01*
X128183527Y-103950289D01*
X128183527Y-103950290D01*
X128080290Y-104053527D01*
X128080289Y-104053527D01*
X128007286Y-104179973D01*
X127969500Y-104320994D01*
X127969500Y-104467005D01*
X128007286Y-104608026D01*
X128080289Y-104734472D01*
X128183527Y-104837710D01*
X128309973Y-104910713D01*
X128450994Y-104948499D01*
X128450997Y-104948499D01*
X128450999Y-104948500D01*
X128451000Y-104948500D01*
X128597000Y-104948500D01*
X128597001Y-104948500D01*
X128617953Y-104942886D01*
X128738026Y-104910713D01*
X128738026Y-104910712D01*
X128738029Y-104910712D01*
X128864471Y-104837711D01*
X128864472Y-104837710D01*
X128864473Y-104837710D01*
X128967710Y-104734473D01*
X128967710Y-104734472D01*
X128967711Y-104734471D01*
X129040712Y-104608029D01*
X129078500Y-104467001D01*
X129078500Y-104320999D01*
X129078499Y-104320994D01*
X129040713Y-104179973D01*
X128967710Y-104053527D01*
X128864472Y-103950289D01*
X128832222Y-103931670D01*
X128811617Y-103919774D01*
X128793447Y-103896094D01*
X128797343Y-103866500D01*
X128811617Y-103852225D01*
X128864471Y-103821711D01*
X128864472Y-103821710D01*
X128864473Y-103821710D01*
X128967710Y-103718473D01*
X128967710Y-103718472D01*
X128986458Y-103686000D01*
X129040712Y-103592029D01*
X129078500Y-103451001D01*
X129078500Y-103304999D01*
X129078499Y-103304994D01*
X129239500Y-103304994D01*
X129239500Y-103451005D01*
X129277286Y-103592026D01*
X129350289Y-103718472D01*
X129453527Y-103821710D01*
X129506380Y-103852225D01*
X129524551Y-103875906D01*
X129520655Y-103905500D01*
X129506380Y-103919775D01*
X129453527Y-103950289D01*
X129453527Y-103950290D01*
X129350290Y-104053527D01*
X129350289Y-104053527D01*
X129277286Y-104179973D01*
X129239500Y-104320994D01*
X129239500Y-104467005D01*
X129277286Y-104608026D01*
X129350289Y-104734472D01*
X129453527Y-104837710D01*
X129579973Y-104910713D01*
X129720994Y-104948499D01*
X129720997Y-104948499D01*
X129720999Y-104948500D01*
X129721000Y-104948500D01*
X129867000Y-104948500D01*
X129867001Y-104948500D01*
X129887953Y-104942886D01*
X130008026Y-104910713D01*
X130008026Y-104910712D01*
X130008029Y-104910712D01*
X130134471Y-104837711D01*
X130134472Y-104837710D01*
X130134473Y-104837710D01*
X130237710Y-104734473D01*
X130237710Y-104734472D01*
X130237711Y-104734471D01*
X130310712Y-104608029D01*
X130348500Y-104467001D01*
X130348500Y-104320999D01*
X130348499Y-104320994D01*
X130310713Y-104179973D01*
X130237710Y-104053527D01*
X130134472Y-103950289D01*
X130102222Y-103931670D01*
X130081617Y-103919774D01*
X130063447Y-103896094D01*
X130067343Y-103866500D01*
X130081617Y-103852225D01*
X130134471Y-103821711D01*
X130134472Y-103821710D01*
X130134473Y-103821710D01*
X130237710Y-103718473D01*
X130237710Y-103718472D01*
X130256458Y-103686000D01*
X130310712Y-103592029D01*
X130348500Y-103451001D01*
X130348500Y-103304999D01*
X130348499Y-103304994D01*
X130509500Y-103304994D01*
X130509500Y-103451005D01*
X130547286Y-103592026D01*
X130620289Y-103718472D01*
X130723527Y-103821710D01*
X130776380Y-103852225D01*
X130794551Y-103875906D01*
X130790655Y-103905500D01*
X130776380Y-103919775D01*
X130723527Y-103950289D01*
X130723527Y-103950290D01*
X130620290Y-104053527D01*
X130620289Y-104053527D01*
X130547286Y-104179973D01*
X130509500Y-104320994D01*
X130509500Y-104467005D01*
X130547286Y-104608026D01*
X130620289Y-104734472D01*
X130723527Y-104837710D01*
X130849973Y-104910713D01*
X130990994Y-104948499D01*
X130990997Y-104948499D01*
X130990999Y-104948500D01*
X130991000Y-104948500D01*
X131137000Y-104948500D01*
X131137001Y-104948500D01*
X131157953Y-104942886D01*
X131278026Y-104910713D01*
X131278026Y-104910712D01*
X131278029Y-104910712D01*
X131404471Y-104837711D01*
X131404472Y-104837710D01*
X131404473Y-104837710D01*
X131507710Y-104734473D01*
X131507710Y-104734472D01*
X131507711Y-104734471D01*
X131580712Y-104608029D01*
X131618500Y-104467001D01*
X131618500Y-104320999D01*
X131618499Y-104320994D01*
X131580713Y-104179973D01*
X131507710Y-104053527D01*
X131404472Y-103950289D01*
X131372222Y-103931670D01*
X131351617Y-103919774D01*
X131333447Y-103896094D01*
X131337343Y-103866500D01*
X131351617Y-103852225D01*
X131404471Y-103821711D01*
X131404472Y-103821710D01*
X131404473Y-103821710D01*
X131507710Y-103718473D01*
X131507710Y-103718472D01*
X131526458Y-103686000D01*
X131580712Y-103592029D01*
X131618500Y-103451001D01*
X131618500Y-103304999D01*
X131618499Y-103304994D01*
X131779500Y-103304994D01*
X131779500Y-103451005D01*
X131817286Y-103592026D01*
X131890289Y-103718472D01*
X131993527Y-103821710D01*
X132046380Y-103852225D01*
X132064551Y-103875906D01*
X132060655Y-103905500D01*
X132046380Y-103919775D01*
X131993527Y-103950289D01*
X131993527Y-103950290D01*
X131890290Y-104053527D01*
X131890289Y-104053527D01*
X131817286Y-104179973D01*
X131779500Y-104320994D01*
X131779500Y-104467005D01*
X131817286Y-104608026D01*
X131890289Y-104734472D01*
X131993527Y-104837710D01*
X132119973Y-104910713D01*
X132260994Y-104948499D01*
X132260997Y-104948499D01*
X132260999Y-104948500D01*
X132261000Y-104948500D01*
X132407000Y-104948500D01*
X132407001Y-104948500D01*
X132427953Y-104942886D01*
X132548026Y-104910713D01*
X132548026Y-104910712D01*
X132548029Y-104910712D01*
X132674471Y-104837711D01*
X132674472Y-104837710D01*
X132674473Y-104837710D01*
X132777710Y-104734473D01*
X132777710Y-104734472D01*
X132777711Y-104734471D01*
X132850712Y-104608029D01*
X132888500Y-104467001D01*
X132888500Y-104320999D01*
X132888499Y-104320994D01*
X132850713Y-104179973D01*
X132777710Y-104053527D01*
X132674472Y-103950289D01*
X132642222Y-103931670D01*
X132621617Y-103919774D01*
X132603447Y-103896094D01*
X132607343Y-103866500D01*
X132621617Y-103852225D01*
X132674471Y-103821711D01*
X132674472Y-103821710D01*
X132674473Y-103821710D01*
X132777710Y-103718473D01*
X132777710Y-103718472D01*
X132796458Y-103686000D01*
X132850712Y-103592029D01*
X132888500Y-103451001D01*
X132888500Y-103304999D01*
X132888499Y-103304994D01*
X133684500Y-103304994D01*
X133684500Y-103451005D01*
X133722286Y-103592026D01*
X133795289Y-103718472D01*
X133898527Y-103821710D01*
X133951380Y-103852225D01*
X133969551Y-103875906D01*
X133965655Y-103905500D01*
X133951380Y-103919775D01*
X133898527Y-103950289D01*
X133898527Y-103950290D01*
X133795290Y-104053527D01*
X133795289Y-104053527D01*
X133722286Y-104179973D01*
X133684500Y-104320994D01*
X133684500Y-104467005D01*
X133722286Y-104608026D01*
X133795289Y-104734472D01*
X133898527Y-104837710D01*
X134024973Y-104910713D01*
X134165994Y-104948499D01*
X134165997Y-104948499D01*
X134165999Y-104948500D01*
X134166000Y-104948500D01*
X134312000Y-104948500D01*
X134312001Y-104948500D01*
X134332953Y-104942886D01*
X134453026Y-104910713D01*
X134453026Y-104910712D01*
X134453029Y-104910712D01*
X134579471Y-104837711D01*
X134579472Y-104837710D01*
X134579473Y-104837710D01*
X134682710Y-104734473D01*
X134682710Y-104734472D01*
X134682711Y-104734471D01*
X134755712Y-104608029D01*
X134793500Y-104467001D01*
X134793500Y-104320999D01*
X134793499Y-104320994D01*
X134755713Y-104179973D01*
X134682710Y-104053527D01*
X134579472Y-103950289D01*
X134547222Y-103931670D01*
X134526617Y-103919774D01*
X134508447Y-103896094D01*
X134512343Y-103866500D01*
X134526617Y-103852225D01*
X134579471Y-103821711D01*
X134579472Y-103821710D01*
X134579473Y-103821710D01*
X134682710Y-103718473D01*
X134682710Y-103718472D01*
X134701458Y-103686000D01*
X134755712Y-103592029D01*
X134793500Y-103451001D01*
X134793500Y-103304999D01*
X134793499Y-103304994D01*
X134954500Y-103304994D01*
X134954500Y-103451005D01*
X134992286Y-103592026D01*
X135065289Y-103718472D01*
X135168527Y-103821710D01*
X135221380Y-103852225D01*
X135239551Y-103875906D01*
X135235655Y-103905500D01*
X135221380Y-103919775D01*
X135168527Y-103950289D01*
X135168527Y-103950290D01*
X135065290Y-104053527D01*
X135065289Y-104053527D01*
X134992286Y-104179973D01*
X134954500Y-104320994D01*
X134954500Y-104467005D01*
X134992286Y-104608026D01*
X135065289Y-104734472D01*
X135168527Y-104837710D01*
X135294973Y-104910713D01*
X135435994Y-104948499D01*
X135435997Y-104948499D01*
X135435999Y-104948500D01*
X135436000Y-104948500D01*
X135582000Y-104948500D01*
X135582001Y-104948500D01*
X135602953Y-104942886D01*
X135723026Y-104910713D01*
X135723026Y-104910712D01*
X135723029Y-104910712D01*
X135849471Y-104837711D01*
X135849472Y-104837710D01*
X135849473Y-104837710D01*
X135952710Y-104734473D01*
X135952710Y-104734472D01*
X135952711Y-104734471D01*
X136025712Y-104608029D01*
X136063500Y-104467001D01*
X136063500Y-104320999D01*
X136063499Y-104320994D01*
X136025713Y-104179973D01*
X135952710Y-104053527D01*
X135849472Y-103950289D01*
X135817222Y-103931670D01*
X135796617Y-103919774D01*
X135778447Y-103896094D01*
X135782343Y-103866500D01*
X135796617Y-103852225D01*
X135849471Y-103821711D01*
X135849472Y-103821710D01*
X135849473Y-103821710D01*
X135952710Y-103718473D01*
X135952710Y-103718472D01*
X135971458Y-103686000D01*
X136025712Y-103592029D01*
X136063500Y-103451001D01*
X136063500Y-103304999D01*
X136063499Y-103304994D01*
X136224500Y-103304994D01*
X136224500Y-103451005D01*
X136262286Y-103592026D01*
X136335289Y-103718472D01*
X136438527Y-103821710D01*
X136491380Y-103852225D01*
X136509551Y-103875906D01*
X136505655Y-103905500D01*
X136491380Y-103919775D01*
X136438527Y-103950289D01*
X136438527Y-103950290D01*
X136335290Y-104053527D01*
X136335289Y-104053527D01*
X136262286Y-104179973D01*
X136224500Y-104320994D01*
X136224500Y-104467005D01*
X136262286Y-104608026D01*
X136335289Y-104734472D01*
X136438527Y-104837710D01*
X136564973Y-104910713D01*
X136705994Y-104948499D01*
X136705997Y-104948499D01*
X136705999Y-104948500D01*
X136706000Y-104948500D01*
X136852000Y-104948500D01*
X136852001Y-104948500D01*
X136872953Y-104942886D01*
X136993026Y-104910713D01*
X136993026Y-104910712D01*
X136993029Y-104910712D01*
X137119471Y-104837711D01*
X137119472Y-104837710D01*
X137119473Y-104837710D01*
X137222710Y-104734473D01*
X137222710Y-104734472D01*
X137222711Y-104734471D01*
X137295712Y-104608029D01*
X137333500Y-104467001D01*
X137333500Y-104320999D01*
X137333499Y-104320994D01*
X137295713Y-104179973D01*
X137222710Y-104053527D01*
X137119472Y-103950289D01*
X137087222Y-103931670D01*
X137066617Y-103919774D01*
X137048447Y-103896094D01*
X137052343Y-103866500D01*
X137066617Y-103852225D01*
X137119471Y-103821711D01*
X137119472Y-103821710D01*
X137119473Y-103821710D01*
X137222710Y-103718473D01*
X137222710Y-103718472D01*
X137241458Y-103686000D01*
X137295712Y-103592029D01*
X137333500Y-103451001D01*
X137333500Y-103304999D01*
X137333499Y-103304994D01*
X137494500Y-103304994D01*
X137494500Y-103451005D01*
X137532286Y-103592026D01*
X137605289Y-103718472D01*
X137708527Y-103821710D01*
X137761380Y-103852225D01*
X137779551Y-103875906D01*
X137775655Y-103905500D01*
X137761380Y-103919775D01*
X137708527Y-103950289D01*
X137708527Y-103950290D01*
X137605290Y-104053527D01*
X137605289Y-104053527D01*
X137532286Y-104179973D01*
X137494500Y-104320994D01*
X137494500Y-104467005D01*
X137532286Y-104608026D01*
X137605289Y-104734472D01*
X137708527Y-104837710D01*
X137834973Y-104910713D01*
X137975994Y-104948499D01*
X137975997Y-104948499D01*
X137975999Y-104948500D01*
X137976000Y-104948500D01*
X138122000Y-104948500D01*
X138122001Y-104948500D01*
X138142953Y-104942886D01*
X138263026Y-104910713D01*
X138263026Y-104910712D01*
X138263029Y-104910712D01*
X138389471Y-104837711D01*
X138389472Y-104837710D01*
X138389473Y-104837710D01*
X138492710Y-104734473D01*
X138492710Y-104734472D01*
X138492711Y-104734471D01*
X138565712Y-104608029D01*
X138603500Y-104467001D01*
X138603500Y-104447994D01*
X139272500Y-104447994D01*
X139272500Y-104594005D01*
X139310286Y-104735026D01*
X139383289Y-104861472D01*
X139486527Y-104964710D01*
X139612973Y-105037713D01*
X139676851Y-105054829D01*
X139700532Y-105073000D01*
X139704428Y-105102594D01*
X139686257Y-105126275D01*
X139676851Y-105130171D01*
X139612973Y-105147286D01*
X139486527Y-105220289D01*
X139486527Y-105220290D01*
X139383290Y-105323527D01*
X139383289Y-105323527D01*
X139310286Y-105449973D01*
X139272500Y-105590994D01*
X139272500Y-105737005D01*
X139310286Y-105878026D01*
X139383289Y-106004472D01*
X139486527Y-106107710D01*
X139486529Y-106107711D01*
X139609872Y-106178923D01*
X139612973Y-106180713D01*
X139753994Y-106218499D01*
X139753997Y-106218499D01*
X139753999Y-106218500D01*
X139754000Y-106218500D01*
X139900000Y-106218500D01*
X139900001Y-106218500D01*
X140014121Y-106187922D01*
X140041026Y-106180713D01*
X140041026Y-106180712D01*
X140041029Y-106180712D01*
X140167471Y-106107711D01*
X140167472Y-106107710D01*
X140167473Y-106107710D01*
X140270710Y-106004473D01*
X140270710Y-106004472D01*
X140270711Y-106004471D01*
X140343712Y-105878029D01*
X140350576Y-105852414D01*
X140381499Y-105737005D01*
X140381500Y-105736999D01*
X140381500Y-105591000D01*
X140381499Y-105590994D01*
X140343713Y-105449973D01*
X140270710Y-105323527D01*
X140167472Y-105220289D01*
X140041026Y-105147286D01*
X139977148Y-105130171D01*
X139953467Y-105112000D01*
X139949571Y-105082406D01*
X139967742Y-105058725D01*
X139977148Y-105054829D01*
X140041026Y-105037713D01*
X140041026Y-105037712D01*
X140041029Y-105037712D01*
X140167471Y-104964711D01*
X140167472Y-104964710D01*
X140167473Y-104964710D01*
X140270710Y-104861473D01*
X140270710Y-104861472D01*
X140270711Y-104861471D01*
X140343712Y-104735029D01*
X140381500Y-104594001D01*
X140381500Y-104447999D01*
X140354969Y-104348983D01*
X140343713Y-104306973D01*
X140270710Y-104180527D01*
X140167472Y-104077289D01*
X140041026Y-104004286D01*
X139900005Y-103966500D01*
X139900001Y-103966500D01*
X139753999Y-103966500D01*
X139753994Y-103966500D01*
X139612973Y-104004286D01*
X139486527Y-104077289D01*
X139486527Y-104077290D01*
X139383290Y-104180527D01*
X139383289Y-104180527D01*
X139310286Y-104306973D01*
X139272500Y-104447994D01*
X138603500Y-104447994D01*
X138603500Y-104320999D01*
X138603499Y-104320994D01*
X138565713Y-104179973D01*
X138492710Y-104053527D01*
X138389472Y-103950289D01*
X138357222Y-103931670D01*
X138336617Y-103919774D01*
X138318447Y-103896094D01*
X138322343Y-103866500D01*
X138336617Y-103852225D01*
X138389471Y-103821711D01*
X138389472Y-103821710D01*
X138389473Y-103821710D01*
X138492710Y-103718473D01*
X138492710Y-103718472D01*
X138511458Y-103686000D01*
X138565712Y-103592029D01*
X138603500Y-103451001D01*
X138603500Y-103304999D01*
X138599448Y-103289876D01*
X138565713Y-103163973D01*
X138492710Y-103037527D01*
X138389472Y-102934289D01*
X138263026Y-102861286D01*
X138122005Y-102823500D01*
X138122001Y-102823500D01*
X137975999Y-102823500D01*
X137975994Y-102823500D01*
X137834973Y-102861286D01*
X137708527Y-102934289D01*
X137708527Y-102934290D01*
X137605290Y-103037527D01*
X137605289Y-103037527D01*
X137532286Y-103163973D01*
X137494500Y-103304994D01*
X137333499Y-103304994D01*
X137329448Y-103289876D01*
X137295713Y-103163973D01*
X137222710Y-103037527D01*
X137119472Y-102934289D01*
X136993026Y-102861286D01*
X136852005Y-102823500D01*
X136852001Y-102823500D01*
X136705999Y-102823500D01*
X136705994Y-102823500D01*
X136564973Y-102861286D01*
X136438527Y-102934289D01*
X136438527Y-102934290D01*
X136335290Y-103037527D01*
X136335289Y-103037527D01*
X136262286Y-103163973D01*
X136224500Y-103304994D01*
X136063499Y-103304994D01*
X136059448Y-103289876D01*
X136025713Y-103163973D01*
X135952710Y-103037527D01*
X135849472Y-102934289D01*
X135723026Y-102861286D01*
X135582005Y-102823500D01*
X135582001Y-102823500D01*
X135435999Y-102823500D01*
X135435994Y-102823500D01*
X135294973Y-102861286D01*
X135168527Y-102934289D01*
X135168527Y-102934290D01*
X135065290Y-103037527D01*
X135065289Y-103037527D01*
X134992286Y-103163973D01*
X134954500Y-103304994D01*
X134793499Y-103304994D01*
X134789448Y-103289876D01*
X134755713Y-103163973D01*
X134682710Y-103037527D01*
X134579472Y-102934289D01*
X134453026Y-102861286D01*
X134312005Y-102823500D01*
X134312001Y-102823500D01*
X134165999Y-102823500D01*
X134165994Y-102823500D01*
X134024973Y-102861286D01*
X133898527Y-102934289D01*
X133898527Y-102934290D01*
X133795290Y-103037527D01*
X133795289Y-103037527D01*
X133722286Y-103163973D01*
X133684500Y-103304994D01*
X132888499Y-103304994D01*
X132884448Y-103289876D01*
X132850713Y-103163973D01*
X132777710Y-103037527D01*
X132674472Y-102934289D01*
X132548026Y-102861286D01*
X132407005Y-102823500D01*
X132407001Y-102823500D01*
X132260999Y-102823500D01*
X132260994Y-102823500D01*
X132119973Y-102861286D01*
X131993527Y-102934289D01*
X131993527Y-102934290D01*
X131890290Y-103037527D01*
X131890289Y-103037527D01*
X131817286Y-103163973D01*
X131779500Y-103304994D01*
X131618499Y-103304994D01*
X131614448Y-103289876D01*
X131580713Y-103163973D01*
X131507710Y-103037527D01*
X131404472Y-102934289D01*
X131278026Y-102861286D01*
X131137005Y-102823500D01*
X131137001Y-102823500D01*
X130990999Y-102823500D01*
X130990994Y-102823500D01*
X130849973Y-102861286D01*
X130723527Y-102934289D01*
X130723527Y-102934290D01*
X130620290Y-103037527D01*
X130620289Y-103037527D01*
X130547286Y-103163973D01*
X130509500Y-103304994D01*
X130348499Y-103304994D01*
X130344448Y-103289876D01*
X130310713Y-103163973D01*
X130237710Y-103037527D01*
X130134472Y-102934289D01*
X130008026Y-102861286D01*
X129867005Y-102823500D01*
X129867001Y-102823500D01*
X129720999Y-102823500D01*
X129720994Y-102823500D01*
X129579973Y-102861286D01*
X129453527Y-102934289D01*
X129453527Y-102934290D01*
X129350290Y-103037527D01*
X129350289Y-103037527D01*
X129277286Y-103163973D01*
X129239500Y-103304994D01*
X129078499Y-103304994D01*
X129074448Y-103289876D01*
X129040713Y-103163973D01*
X128967710Y-103037527D01*
X128864472Y-102934289D01*
X128738026Y-102861286D01*
X128597005Y-102823500D01*
X128597001Y-102823500D01*
X128450999Y-102823500D01*
X128450994Y-102823500D01*
X128309973Y-102861286D01*
X128183527Y-102934289D01*
X128183527Y-102934290D01*
X128080290Y-103037527D01*
X128080289Y-103037527D01*
X128007286Y-103163973D01*
X127969500Y-103304994D01*
X125417640Y-103304994D01*
X125386699Y-103287131D01*
X125382617Y-103284774D01*
X125364447Y-103261094D01*
X125368343Y-103231500D01*
X125382617Y-103217225D01*
X125435471Y-103186711D01*
X125435472Y-103186710D01*
X125435473Y-103186710D01*
X125538710Y-103083473D01*
X125538710Y-103083472D01*
X125538711Y-103083471D01*
X125611712Y-102957029D01*
X125637366Y-102861288D01*
X125649499Y-102816005D01*
X125649500Y-102815999D01*
X125649500Y-102670000D01*
X125649499Y-102669994D01*
X125611713Y-102528973D01*
X125538710Y-102402527D01*
X125435472Y-102299289D01*
X125309026Y-102226286D01*
X125168005Y-102188500D01*
X125168001Y-102188500D01*
X125021999Y-102188500D01*
X125021994Y-102188500D01*
X124880973Y-102226286D01*
X124754527Y-102299289D01*
X124754527Y-102299290D01*
X124651290Y-102402527D01*
X124651289Y-102402527D01*
X124578286Y-102528973D01*
X124540500Y-102669994D01*
X124379499Y-102669994D01*
X124341713Y-102528973D01*
X124268710Y-102402527D01*
X124165472Y-102299289D01*
X124039026Y-102226286D01*
X123898005Y-102188500D01*
X123898001Y-102188500D01*
X123751999Y-102188500D01*
X123751994Y-102188500D01*
X123610973Y-102226286D01*
X123484527Y-102299289D01*
X123484527Y-102299290D01*
X123381290Y-102402527D01*
X123381289Y-102402527D01*
X123308286Y-102528973D01*
X123270500Y-102669994D01*
X123270500Y-102816005D01*
X123308286Y-102957026D01*
X123381289Y-103083472D01*
X123484527Y-103186710D01*
X123537380Y-103217225D01*
X123555551Y-103240906D01*
X123551655Y-103270500D01*
X123537380Y-103284775D01*
X123484527Y-103315289D01*
X123484527Y-103315290D01*
X123381290Y-103418527D01*
X123381289Y-103418527D01*
X123308286Y-103544973D01*
X123270500Y-103685994D01*
X123270500Y-103832005D01*
X123308286Y-103973026D01*
X123381289Y-104099472D01*
X123484527Y-104202710D01*
X123496885Y-104209845D01*
X123515056Y-104233526D01*
X123511160Y-104263120D01*
X123487479Y-104281291D01*
X123468707Y-104281642D01*
X123462133Y-104280141D01*
X123389427Y-104271949D01*
X123154689Y-104245500D01*
X122946837Y-104245500D01*
X122919260Y-104234077D01*
X122907837Y-104206500D01*
X122919260Y-104178923D01*
X122998710Y-104099473D01*
X122998710Y-104099472D01*
X123011517Y-104077290D01*
X123071712Y-103973029D01*
X123073462Y-103966500D01*
X123109499Y-103832005D01*
X123109500Y-103831999D01*
X123109500Y-103686000D01*
X123109499Y-103685994D01*
X123071713Y-103544973D01*
X122998710Y-103418527D01*
X122895472Y-103315289D01*
X122821181Y-103272397D01*
X122803010Y-103248716D01*
X122806906Y-103219122D01*
X122821181Y-103204847D01*
X122840471Y-103193711D01*
X122840472Y-103193710D01*
X122840473Y-103193710D01*
X122943710Y-103090473D01*
X122943710Y-103090472D01*
X122947751Y-103083473D01*
X123016712Y-102964029D01*
X123018589Y-102957026D01*
X123054499Y-102823005D01*
X123054500Y-102822999D01*
X123054500Y-102677000D01*
X123054499Y-102676994D01*
X123016713Y-102535973D01*
X123012670Y-102528971D01*
X122943711Y-102409529D01*
X122943710Y-102409527D01*
X122840472Y-102306289D01*
X122714026Y-102233286D01*
X122573005Y-102195500D01*
X122573001Y-102195500D01*
X122426999Y-102195500D01*
X122426994Y-102195500D01*
X122285973Y-102233286D01*
X122159527Y-102306289D01*
X122159527Y-102306290D01*
X122056290Y-102409527D01*
X122056289Y-102409527D01*
X121983286Y-102535973D01*
X121945500Y-102676994D01*
X121945500Y-102823005D01*
X121983286Y-102964026D01*
X122056289Y-103090472D01*
X122159527Y-103193710D01*
X122159529Y-103193711D01*
X122233818Y-103236602D01*
X122251989Y-103260282D01*
X122248093Y-103289876D01*
X122233819Y-103304150D01*
X122214530Y-103315287D01*
X122111290Y-103418527D01*
X122111289Y-103418527D01*
X122038286Y-103544973D01*
X122000500Y-103685994D01*
X122000500Y-103832005D01*
X122038286Y-103973026D01*
X122111289Y-104099472D01*
X122214527Y-104202710D01*
X122316197Y-104261409D01*
X122334368Y-104285090D01*
X122330472Y-104314684D01*
X122306791Y-104332855D01*
X122305375Y-104333206D01*
X122236259Y-104348981D01*
X122236250Y-104348983D01*
X121944241Y-104451162D01*
X121944238Y-104451163D01*
X121665491Y-104585402D01*
X121403536Y-104749998D01*
X121403531Y-104750001D01*
X121161662Y-104942886D01*
X120942886Y-105161662D01*
X120750001Y-105403531D01*
X120749998Y-105403536D01*
X120585402Y-105665491D01*
X120451163Y-105944238D01*
X120451162Y-105944241D01*
X120348983Y-106236250D01*
X120348981Y-106236259D01*
X120280141Y-106537865D01*
X120280141Y-106537867D01*
X120280140Y-106537877D01*
X120245500Y-106845311D01*
X120025900Y-106845311D01*
X120025900Y-101399994D01*
X150702500Y-101399994D01*
X150702500Y-101546005D01*
X150740286Y-101687026D01*
X150813289Y-101813472D01*
X150916527Y-101916710D01*
X151042973Y-101989713D01*
X151183994Y-102027499D01*
X151183997Y-102027499D01*
X151183999Y-102027500D01*
X151184000Y-102027500D01*
X151330000Y-102027500D01*
X151330001Y-102027500D01*
X151330005Y-102027499D01*
X151471026Y-101989713D01*
X151471026Y-101989712D01*
X151471029Y-101989712D01*
X151597471Y-101916711D01*
X151597472Y-101916710D01*
X151597473Y-101916710D01*
X151700710Y-101813473D01*
X151700710Y-101813472D01*
X151700711Y-101813471D01*
X151773712Y-101687029D01*
X151811500Y-101546001D01*
X151811500Y-101399999D01*
X151811499Y-101399994D01*
X151972500Y-101399994D01*
X151972500Y-101546005D01*
X152010286Y-101687026D01*
X152083289Y-101813472D01*
X152186527Y-101916710D01*
X152312973Y-101989713D01*
X152453994Y-102027499D01*
X152453997Y-102027499D01*
X152453999Y-102027500D01*
X152454000Y-102027500D01*
X152600000Y-102027500D01*
X152600001Y-102027500D01*
X152600005Y-102027499D01*
X152741026Y-101989713D01*
X152741026Y-101989712D01*
X152741029Y-101989712D01*
X152867471Y-101916711D01*
X152867472Y-101916710D01*
X152867473Y-101916710D01*
X152970710Y-101813473D01*
X152970710Y-101813472D01*
X152970711Y-101813471D01*
X153043712Y-101687029D01*
X153081500Y-101546001D01*
X153081500Y-101399999D01*
X153081499Y-101399994D01*
X153242500Y-101399994D01*
X153242500Y-101546005D01*
X153280286Y-101687026D01*
X153353289Y-101813472D01*
X153456527Y-101916710D01*
X153582973Y-101989713D01*
X153723994Y-102027499D01*
X153723997Y-102027499D01*
X153723999Y-102027500D01*
X153724000Y-102027500D01*
X153870000Y-102027500D01*
X153870001Y-102027500D01*
X153870005Y-102027499D01*
X154011026Y-101989713D01*
X154011026Y-101989712D01*
X154011029Y-101989712D01*
X154137471Y-101916711D01*
X154137472Y-101916710D01*
X154137473Y-101916710D01*
X154240710Y-101813473D01*
X154240710Y-101813472D01*
X154240711Y-101813471D01*
X154313712Y-101687029D01*
X154330829Y-101623148D01*
X154349000Y-101599467D01*
X154378594Y-101595571D01*
X154402275Y-101613742D01*
X154406171Y-101623148D01*
X154423286Y-101687026D01*
X154496289Y-101813472D01*
X154599527Y-101916710D01*
X154725973Y-101989713D01*
X154866994Y-102027499D01*
X154866997Y-102027499D01*
X154866999Y-102027500D01*
X154867000Y-102027500D01*
X155013000Y-102027500D01*
X155013001Y-102027500D01*
X155013005Y-102027499D01*
X155154026Y-101989713D01*
X155154026Y-101989712D01*
X155154029Y-101989712D01*
X155280471Y-101916711D01*
X155280472Y-101916710D01*
X155280473Y-101916710D01*
X155383710Y-101813473D01*
X155383710Y-101813472D01*
X155383711Y-101813471D01*
X155456712Y-101687029D01*
X155494500Y-101546001D01*
X155494500Y-101399999D01*
X155476349Y-101332257D01*
X155456713Y-101258973D01*
X155383710Y-101132527D01*
X155280472Y-101029289D01*
X155154026Y-100956286D01*
X155013005Y-100918500D01*
X155013001Y-100918500D01*
X154866999Y-100918500D01*
X154866994Y-100918500D01*
X154725973Y-100956286D01*
X154599527Y-101029289D01*
X154599527Y-101029290D01*
X154496290Y-101132527D01*
X154496289Y-101132527D01*
X154423286Y-101258973D01*
X154406171Y-101322851D01*
X154388000Y-101346532D01*
X154358406Y-101350428D01*
X154334725Y-101332257D01*
X154330829Y-101322851D01*
X154313713Y-101258973D01*
X154240710Y-101132527D01*
X154137472Y-101029289D01*
X154011026Y-100956286D01*
X153870005Y-100918500D01*
X153870001Y-100918500D01*
X153723999Y-100918500D01*
X153723994Y-100918500D01*
X153582973Y-100956286D01*
X153456527Y-101029289D01*
X153456527Y-101029290D01*
X153353290Y-101132527D01*
X153353289Y-101132527D01*
X153280286Y-101258973D01*
X153242500Y-101399994D01*
X153081499Y-101399994D01*
X153063349Y-101332257D01*
X153043713Y-101258973D01*
X152970710Y-101132527D01*
X152867472Y-101029289D01*
X152741026Y-100956286D01*
X152600005Y-100918500D01*
X152600001Y-100918500D01*
X152453999Y-100918500D01*
X152453994Y-100918500D01*
X152312973Y-100956286D01*
X152186527Y-101029289D01*
X152186527Y-101029290D01*
X152083290Y-101132527D01*
X152083289Y-101132527D01*
X152010286Y-101258973D01*
X151972500Y-101399994D01*
X151811499Y-101399994D01*
X151793349Y-101332257D01*
X151773713Y-101258973D01*
X151700710Y-101132527D01*
X151597472Y-101029289D01*
X151471026Y-100956286D01*
X151330005Y-100918500D01*
X151330001Y-100918500D01*
X151183999Y-100918500D01*
X151183994Y-100918500D01*
X151042973Y-100956286D01*
X150916527Y-101029289D01*
X150916527Y-101029290D01*
X150813290Y-101132527D01*
X150813289Y-101132527D01*
X150740286Y-101258973D01*
X150702500Y-101399994D01*
X120025900Y-101399994D01*
X120025900Y-96539000D01*
X120037323Y-96511423D01*
X120064900Y-96500000D01*
X128461000Y-96500000D01*
X128488577Y-96511423D01*
G37*
%TD.AperFunction*%
%TD*%
%TA.AperFunction,Conductor*%
%TO.N,/DRV8323RSRGZR/SPC*%
G36*
X155943039Y-96519685D02*
G01*
X155988794Y-96572489D01*
X156000000Y-96624000D01*
X156000000Y-98376000D01*
X155980315Y-98443039D01*
X155927511Y-98488794D01*
X155876000Y-98500000D01*
X152624000Y-98500000D01*
X152556961Y-98480315D01*
X152511206Y-98427511D01*
X152500000Y-98376000D01*
X152500000Y-96624000D01*
X152519685Y-96556961D01*
X152572489Y-96511206D01*
X152624000Y-96500000D01*
X155876000Y-96500000D01*
X155943039Y-96519685D01*
G37*
%TD.AperFunction*%
%TD*%
%TA.AperFunction,Conductor*%
%TO.N,/DRV8323RSRGZR/SPB*%
G36*
X138738577Y-96511423D02*
G01*
X138750000Y-96539000D01*
X138750000Y-98711000D01*
X138738577Y-98738577D01*
X138711000Y-98750000D01*
X134539000Y-98750000D01*
X134511423Y-98738577D01*
X134500000Y-98711000D01*
X134500000Y-96539000D01*
X134511423Y-96511423D01*
X134539000Y-96500000D01*
X138711000Y-96500000D01*
X138738577Y-96511423D01*
G37*
%TD.AperFunction*%
%TD*%
%TA.AperFunction,Conductor*%
%TO.N,GND*%
G36*
X132879933Y-81825933D02*
G01*
X137312057Y-86258057D01*
X137323480Y-86285634D01*
X137312057Y-86313211D01*
X137294575Y-86323305D01*
X137270971Y-86329630D01*
X137173828Y-86385715D01*
X137173828Y-86385716D01*
X137094516Y-86465028D01*
X137094515Y-86465028D01*
X137038429Y-86562172D01*
X137009400Y-86670511D01*
X137009400Y-86748446D01*
X136997977Y-86776023D01*
X132869577Y-90904423D01*
X132842000Y-90915846D01*
X132814423Y-90904423D01*
X128297577Y-86387577D01*
X128286154Y-86360000D01*
X128297577Y-86332423D01*
X132804067Y-81825933D01*
X132831644Y-81814510D01*
X132852356Y-81814510D01*
X132879933Y-81825933D01*
G37*
%TD.AperFunction*%
%TD*%
%TA.AperFunction,Conductor*%
%TO.N,GND1*%
G36*
X169917139Y-93019685D02*
G01*
X169962894Y-93072489D01*
X169974100Y-93124000D01*
X169974100Y-98376000D01*
X169954415Y-98443039D01*
X169901611Y-98488794D01*
X169850100Y-98500000D01*
X156624000Y-98500000D01*
X156556961Y-98480315D01*
X156511206Y-98427511D01*
X156500000Y-98376000D01*
X156500000Y-96000000D01*
X152000000Y-96000000D01*
X152000000Y-98376000D01*
X151980315Y-98443039D01*
X151927511Y-98488794D01*
X151876000Y-98500000D01*
X139624000Y-98500000D01*
X139556961Y-98480315D01*
X139511206Y-98427511D01*
X139500000Y-98376000D01*
X139500000Y-96000000D01*
X120149900Y-96000000D01*
X120082861Y-95980315D01*
X120037106Y-95927511D01*
X120025900Y-95876000D01*
X120025900Y-93124000D01*
X120045585Y-93056961D01*
X120098389Y-93011206D01*
X120149900Y-93000000D01*
X169850100Y-93000000D01*
X169917139Y-93019685D01*
G37*
%TD.AperFunction*%
%TD*%
%TA.AperFunction,Conductor*%
%TO.N,/DRV8323RSRGZR/SPA*%
G36*
X133488577Y-96511423D02*
G01*
X133500000Y-96539000D01*
X133500000Y-98711000D01*
X133488577Y-98738577D01*
X133461000Y-98750000D01*
X129039000Y-98750000D01*
X129011423Y-98738577D01*
X129000000Y-98711000D01*
X129000000Y-96539000D01*
X129011423Y-96511423D01*
X129039000Y-96500000D01*
X133461000Y-96500000D01*
X133488577Y-96511423D01*
G37*
%TD.AperFunction*%
%TD*%
%TA.AperFunction,Conductor*%
%TO.N,/SWCLK*%
G36*
X161609297Y-82260177D02*
G01*
X161614773Y-82267263D01*
X161614950Y-82268010D01*
X161671030Y-82545210D01*
X161669311Y-82553998D01*
X161669272Y-82554057D01*
X161510374Y-82790447D01*
X161502915Y-82795401D01*
X161494899Y-82794101D01*
X161397615Y-82739011D01*
X161393244Y-82734673D01*
X161393041Y-82734321D01*
X161308720Y-82650001D01*
X161308715Y-82649997D01*
X161205447Y-82590374D01*
X161205443Y-82590372D01*
X161090188Y-82559491D01*
X161083084Y-82554040D01*
X161081516Y-82548190D01*
X161081516Y-82408935D01*
X161084943Y-82400662D01*
X161090145Y-82397645D01*
X161600415Y-82259039D01*
X161609297Y-82260177D01*
G37*
%TD.AperFunction*%
%TD*%
%TA.AperFunction,Conductor*%
%TO.N,/SWCLK*%
G36*
X153634185Y-82917420D02*
G01*
X153637878Y-82919913D01*
X153739833Y-83021868D01*
X153743260Y-83030141D01*
X153742218Y-83034967D01*
X153515111Y-83536557D01*
X153508577Y-83542680D01*
X153499627Y-83542389D01*
X153497985Y-83541480D01*
X153382646Y-83464957D01*
X153263364Y-83385818D01*
X153258366Y-83378392D01*
X153203332Y-83097658D01*
X153205103Y-83088883D01*
X153210436Y-83084560D01*
X153625231Y-82917335D01*
X153634185Y-82917420D01*
G37*
%TD.AperFunction*%
%TD*%
%TA.AperFunction,Conductor*%
%TO.N,/SPI3_MOSI*%
G36*
X137342244Y-82121869D02*
G01*
X137441167Y-82220792D01*
X137444594Y-82229065D01*
X137441167Y-82237338D01*
X137380358Y-82298146D01*
X137380354Y-82298151D01*
X137320731Y-82401419D01*
X137320729Y-82401423D01*
X137289867Y-82516607D01*
X137289867Y-82600079D01*
X137288921Y-82604689D01*
X137227999Y-82746803D01*
X137221589Y-82753057D01*
X137212635Y-82752947D01*
X137210777Y-82751942D01*
X136974295Y-82595045D01*
X136971014Y-82591764D01*
X136814117Y-82355282D01*
X136812398Y-82346494D01*
X136817398Y-82339065D01*
X136819253Y-82338061D01*
X137329361Y-82119387D01*
X137338315Y-82119278D01*
X137342244Y-82121869D01*
G37*
%TD.AperFunction*%
%TD*%
%TA.AperFunction,Conductor*%
%TO.N,/SPI3_MOSI*%
G36*
X146670306Y-82819841D02*
G01*
X146670906Y-82820215D01*
X146906935Y-82977295D01*
X146911924Y-82984731D01*
X146911936Y-82984790D01*
X146966279Y-83262740D01*
X146964503Y-83271517D01*
X146957042Y-83276467D01*
X146957030Y-83276469D01*
X146957027Y-83276470D01*
X146438001Y-83377303D01*
X146429226Y-83375517D01*
X146424285Y-83368049D01*
X146424070Y-83365818D01*
X146424070Y-83223144D01*
X146425656Y-83217262D01*
X146654311Y-82824071D01*
X146661431Y-82818644D01*
X146670306Y-82819841D01*
G37*
%TD.AperFunction*%
%TD*%
%TA.AperFunction,Conductor*%
%TO.N,/SPI1_MISO*%
G36*
X152510794Y-71625190D02*
G01*
X152828706Y-71838568D01*
X152833666Y-71846024D01*
X152832883Y-71853022D01*
X152587368Y-72407167D01*
X152580884Y-72413343D01*
X152576671Y-72414128D01*
X152431877Y-72414128D01*
X152423604Y-72410701D01*
X152421180Y-72407167D01*
X152390235Y-72337324D01*
X152175663Y-71853020D01*
X152175446Y-71844070D01*
X152179840Y-71838569D01*
X152497754Y-71625189D01*
X152506533Y-71623425D01*
X152510794Y-71625190D01*
G37*
%TD.AperFunction*%
%TD*%
%TA.AperFunction,Conductor*%
%TO.N,/SPI1_MISO*%
G36*
X150170670Y-77345283D02*
G01*
X150173094Y-77348817D01*
X150418609Y-77902961D01*
X150418827Y-77911913D01*
X150414432Y-77917415D01*
X150096520Y-78130793D01*
X150087741Y-78132558D01*
X150083480Y-78130793D01*
X149765567Y-77917415D01*
X149760607Y-77909959D01*
X149761389Y-77902964D01*
X150006906Y-77348817D01*
X150013390Y-77342641D01*
X150017603Y-77341856D01*
X150162397Y-77341856D01*
X150170670Y-77345283D01*
G37*
%TD.AperFunction*%
%TD*%
%TA.AperFunction,Conductor*%
%TO.N,/SPI1_MOSI*%
G36*
X151558923Y-71593376D02*
G01*
X151876835Y-71806754D01*
X151881795Y-71814210D01*
X151881012Y-71821208D01*
X151635497Y-72375353D01*
X151629013Y-72381529D01*
X151624800Y-72382314D01*
X151480006Y-72382314D01*
X151471733Y-72378887D01*
X151469309Y-72375353D01*
X151438364Y-72305510D01*
X151223792Y-71821206D01*
X151223575Y-71812256D01*
X151227969Y-71806755D01*
X151545883Y-71593375D01*
X151554662Y-71591611D01*
X151558923Y-71593376D01*
G37*
%TD.AperFunction*%
%TD*%
%TA.AperFunction,Conductor*%
%TO.N,/SPI1_MOSI*%
G36*
X149443080Y-76611113D02*
G01*
X149445504Y-76614647D01*
X149691019Y-77168791D01*
X149691237Y-77177743D01*
X149686842Y-77183245D01*
X149368930Y-77396623D01*
X149360151Y-77398388D01*
X149355890Y-77396623D01*
X149037977Y-77183245D01*
X149033017Y-77175789D01*
X149033799Y-77168794D01*
X149279316Y-76614647D01*
X149285800Y-76608471D01*
X149290013Y-76607686D01*
X149434807Y-76607686D01*
X149443080Y-76611113D01*
G37*
%TD.AperFunction*%
%TD*%
%TA.AperFunction,Conductor*%
%TO.N,/TIM1_CH1N*%
G36*
X144365294Y-77864423D02*
G01*
X144523981Y-78100243D01*
X144525757Y-78109020D01*
X144525745Y-78109079D01*
X144470222Y-78385546D01*
X144465233Y-78392982D01*
X144456447Y-78394713D01*
X144454476Y-78394133D01*
X144015132Y-78221665D01*
X144011134Y-78219047D01*
X143910740Y-78118653D01*
X143907313Y-78110380D01*
X143910740Y-78102107D01*
X143913380Y-78100125D01*
X144349962Y-77860695D01*
X144358863Y-77859723D01*
X144365294Y-77864423D01*
G37*
%TD.AperFunction*%
%TD*%
%TA.AperFunction,Conductor*%
%TO.N,/TIM1_CH1N*%
G36*
X131936508Y-79367842D02*
G01*
X131939260Y-79369884D01*
X132039570Y-79470194D01*
X132042154Y-79474106D01*
X132219433Y-79915491D01*
X132219337Y-79924446D01*
X132212937Y-79930709D01*
X132210880Y-79931323D01*
X131934522Y-79986824D01*
X131925736Y-79985093D01*
X131925686Y-79985060D01*
X131689775Y-79826311D01*
X131684824Y-79818849D01*
X131685991Y-79811086D01*
X131920674Y-79372633D01*
X131927597Y-79366959D01*
X131936508Y-79367842D01*
G37*
%TD.AperFunction*%
%TD*%
%TA.AperFunction,Conductor*%
%TO.N,/TIM1_CH3*%
G36*
X129920964Y-79854368D02*
G01*
X129921969Y-79856226D01*
X129975154Y-79980290D01*
X129976100Y-79984900D01*
X129976100Y-80069627D01*
X130006962Y-80184811D01*
X130006964Y-80184815D01*
X130066587Y-80288083D01*
X130066591Y-80288088D01*
X130135901Y-80357398D01*
X130138382Y-80361061D01*
X130140641Y-80366331D01*
X130140750Y-80375286D01*
X130138160Y-80379214D01*
X130036214Y-80481160D01*
X130027941Y-80484587D01*
X130023331Y-80483641D01*
X129513226Y-80264969D01*
X129506972Y-80258559D01*
X129507082Y-80249605D01*
X129508084Y-80247751D01*
X129664985Y-80011263D01*
X129668263Y-80007985D01*
X129904748Y-79851086D01*
X129913535Y-79849368D01*
X129920964Y-79854368D01*
G37*
%TD.AperFunction*%
%TD*%
%TA.AperFunction,Conductor*%
%TO.N,/TIM1_CH3*%
G36*
X145615651Y-80265435D02*
G01*
X145892247Y-80319659D01*
X145899704Y-80324611D01*
X145899744Y-80324671D01*
X146056048Y-80560260D01*
X146057767Y-80569048D01*
X146052767Y-80576477D01*
X146052040Y-80576922D01*
X145588624Y-80837906D01*
X145579734Y-80838980D01*
X145574610Y-80835985D01*
X145472617Y-80733992D01*
X145469190Y-80725719D01*
X145469646Y-80722485D01*
X145547806Y-80451213D01*
X145548900Y-80448640D01*
X145570839Y-80410643D01*
X145601703Y-80295455D01*
X145601703Y-80276917D01*
X145605130Y-80268644D01*
X145613403Y-80265217D01*
X145615651Y-80265435D01*
G37*
%TD.AperFunction*%
%TD*%
%TA.AperFunction,Conductor*%
%TO.N,/TIM1_CH2*%
G36*
X131472370Y-79992901D02*
G01*
X131477324Y-80000360D01*
X131477543Y-80002611D01*
X131477543Y-80046706D01*
X131508405Y-80161890D01*
X131508407Y-80161894D01*
X131564211Y-80258546D01*
X131565180Y-80260700D01*
X131623453Y-80435728D01*
X131622815Y-80444660D01*
X131620625Y-80447697D01*
X131518643Y-80549679D01*
X131510370Y-80553106D01*
X131504981Y-80551791D01*
X131281306Y-80435728D01*
X131025358Y-80302918D01*
X131019594Y-80296067D01*
X131020363Y-80287145D01*
X131020999Y-80286066D01*
X131177061Y-80050842D01*
X131184484Y-80045846D01*
X131463593Y-79991130D01*
X131472370Y-79992901D01*
G37*
%TD.AperFunction*%
%TD*%
%TA.AperFunction,Conductor*%
%TO.N,/TIM1_CH2*%
G36*
X144868140Y-80179963D02*
G01*
X145144715Y-80234183D01*
X145152172Y-80239135D01*
X145152212Y-80239195D01*
X145309791Y-80476706D01*
X145311510Y-80485494D01*
X145307712Y-80492009D01*
X144962611Y-80791625D01*
X144954118Y-80794461D01*
X144946668Y-80791063D01*
X144844781Y-80689176D01*
X144841354Y-80680903D01*
X144841357Y-80680664D01*
X144854203Y-80191136D01*
X144857846Y-80182959D01*
X144866206Y-80179750D01*
X144868140Y-80179963D01*
G37*
%TD.AperFunction*%
%TD*%
%TA.AperFunction,Conductor*%
%TO.N,/DRV_STA*%
G36*
X152841206Y-80671979D02*
G01*
X153395354Y-80917496D01*
X153401529Y-80923979D01*
X153402314Y-80928192D01*
X153402314Y-81072987D01*
X153398887Y-81081260D01*
X153395353Y-81083684D01*
X152841208Y-81329199D01*
X152832256Y-81329417D01*
X152826754Y-81325022D01*
X152613376Y-81007110D01*
X152611611Y-80998331D01*
X152613376Y-80994070D01*
X152826754Y-80676157D01*
X152834210Y-80671197D01*
X152841206Y-80671979D01*
G37*
%TD.AperFunction*%
%TD*%
%TA.AperFunction,Conductor*%
%TO.N,/DRV_STA*%
G36*
X162428795Y-83233376D02*
G01*
X162436289Y-83236776D01*
X162538668Y-83339155D01*
X162542095Y-83347428D01*
X162539276Y-83355045D01*
X162153925Y-83804372D01*
X162145938Y-83808421D01*
X162138568Y-83806499D01*
X161820431Y-83595052D01*
X161815437Y-83587619D01*
X161815435Y-83583010D01*
X161890621Y-83207743D01*
X161895606Y-83200304D01*
X161902869Y-83198367D01*
X162428795Y-83233376D01*
G37*
%TD.AperFunction*%
%TD*%
%TA.AperFunction,Conductor*%
%TO.N,/SPI1_NSS*%
G36*
X150607217Y-71593666D02*
G01*
X150923978Y-71806444D01*
X150928935Y-71813902D01*
X150927878Y-71821469D01*
X150629823Y-72406292D01*
X150623013Y-72412107D01*
X150614086Y-72411403D01*
X150611126Y-72409252D01*
X150510745Y-72308871D01*
X150508505Y-72305734D01*
X150271895Y-71821406D01*
X150271344Y-71812470D01*
X150275902Y-71806548D01*
X150594188Y-71593652D01*
X150602970Y-71591902D01*
X150607217Y-71593666D01*
G37*
%TD.AperFunction*%
%TD*%
%TA.AperFunction,Conductor*%
%TO.N,/SPI1_NSS*%
G36*
X148180640Y-76621113D02*
G01*
X148183081Y-76624685D01*
X148426245Y-77178810D01*
X148426431Y-77187762D01*
X148422051Y-77193226D01*
X148104110Y-77406623D01*
X148095331Y-77408388D01*
X148091070Y-77406623D01*
X147773186Y-77193265D01*
X147768226Y-77185809D01*
X147769025Y-77178776D01*
X148016893Y-76624608D01*
X148023399Y-76618456D01*
X148027573Y-76617686D01*
X148172367Y-76617686D01*
X148180640Y-76621113D01*
G37*
%TD.AperFunction*%
%TD*%
%TA.AperFunction,Conductor*%
%TO.N,/TIM1_CH2N*%
G36*
X130798214Y-79538839D02*
G01*
X130900160Y-79640785D01*
X130903587Y-79649058D01*
X130902641Y-79653668D01*
X130880162Y-79706105D01*
X130877681Y-79709768D01*
X130818060Y-79769390D01*
X130818056Y-79769395D01*
X130758433Y-79872663D01*
X130758431Y-79872667D01*
X130727569Y-79987851D01*
X130727569Y-80059664D01*
X130726623Y-80064274D01*
X130683969Y-80163773D01*
X130677559Y-80170027D01*
X130668605Y-80169917D01*
X130666747Y-80168912D01*
X130430265Y-80012015D01*
X130426984Y-80008734D01*
X130270087Y-79772252D01*
X130268368Y-79763464D01*
X130273368Y-79756035D01*
X130275223Y-79755031D01*
X130785331Y-79536357D01*
X130794285Y-79536248D01*
X130798214Y-79538839D01*
G37*
%TD.AperFunction*%
%TD*%
%TA.AperFunction,Conductor*%
%TO.N,/TIM1_CH2N*%
G36*
X145034775Y-78567266D02*
G01*
X145042840Y-78570691D01*
X145144715Y-78672566D01*
X145148142Y-78680839D01*
X145145054Y-78688759D01*
X145048489Y-78793753D01*
X145045727Y-78795965D01*
X145023848Y-78808598D01*
X145023842Y-78808602D01*
X144939522Y-78892922D01*
X144939518Y-78892928D01*
X144910214Y-78943681D01*
X144908694Y-78945751D01*
X144845907Y-79014021D01*
X144837784Y-79017791D01*
X144830827Y-79015850D01*
X144595550Y-78859753D01*
X144590550Y-78852324D01*
X144590547Y-78847704D01*
X144646313Y-78570026D01*
X144651301Y-78562593D01*
X144657986Y-78560635D01*
X145034775Y-78567266D01*
G37*
%TD.AperFunction*%
%TD*%
%TA.AperFunction,Conductor*%
%TO.N,/TIM1_CH3N*%
G36*
X129274214Y-79538839D02*
G01*
X129376161Y-79640786D01*
X129377078Y-79643000D01*
X129378752Y-79644716D01*
X129378724Y-79646973D01*
X129379588Y-79649059D01*
X129378641Y-79653670D01*
X129376383Y-79658936D01*
X129373903Y-79662598D01*
X129304591Y-79731911D01*
X129304587Y-79731916D01*
X129244964Y-79835184D01*
X129244962Y-79835188D01*
X129214100Y-79950372D01*
X129214100Y-80035098D01*
X129213154Y-80039708D01*
X129159969Y-80163773D01*
X129153559Y-80170027D01*
X129144605Y-80169917D01*
X129142747Y-80168912D01*
X128906265Y-80012015D01*
X128902984Y-80008734D01*
X128746087Y-79772252D01*
X128744368Y-79763464D01*
X128749368Y-79756035D01*
X128751223Y-79755031D01*
X129261331Y-79536357D01*
X129270285Y-79536248D01*
X129274214Y-79538839D01*
G37*
%TD.AperFunction*%
%TD*%
%TA.AperFunction,Conductor*%
%TO.N,/TIM1_CH3N*%
G36*
X145674625Y-78703330D02*
G01*
X145776572Y-78805277D01*
X145779999Y-78813550D01*
X145779015Y-78818246D01*
X145556958Y-79324934D01*
X145550499Y-79331136D01*
X145541546Y-79330954D01*
X145539774Y-79329987D01*
X145303196Y-79173026D01*
X145299915Y-79169745D01*
X145297934Y-79166759D01*
X145143333Y-78933738D01*
X145142567Y-78929821D01*
X145141454Y-78925982D01*
X145141721Y-78925496D01*
X145141615Y-78924953D01*
X145145773Y-78918138D01*
X145147059Y-78917109D01*
X145149836Y-78915458D01*
X145661830Y-78700812D01*
X145670783Y-78700775D01*
X145674625Y-78703330D01*
G37*
%TD.AperFunction*%
%TD*%
%TA.AperFunction,Conductor*%
%TO.N,/TIM1_CH1*%
G36*
X143986262Y-79756314D02*
G01*
X144445879Y-79938017D01*
X144452312Y-79944245D01*
X144453060Y-79951142D01*
X144398906Y-80228124D01*
X144393955Y-80235586D01*
X144389698Y-80237356D01*
X144112187Y-80292369D01*
X144103406Y-80290616D01*
X144098846Y-80284691D01*
X143970899Y-79911857D01*
X143970265Y-79908059D01*
X143970265Y-79767196D01*
X143973692Y-79758923D01*
X143981965Y-79755496D01*
X143986262Y-79756314D01*
G37*
%TD.AperFunction*%
%TD*%
%TA.AperFunction,Conductor*%
%TO.N,/TIM1_CH1*%
G36*
X133052252Y-79558721D02*
G01*
X133231281Y-79640536D01*
X133463948Y-79746865D01*
X133470048Y-79753420D01*
X133470785Y-79757506D01*
X133470785Y-79901720D01*
X133467358Y-79909993D01*
X133462964Y-79912758D01*
X132947757Y-80093813D01*
X132938816Y-80093323D01*
X132932840Y-80086654D01*
X132932412Y-80085102D01*
X132876518Y-79808823D01*
X132878237Y-79800035D01*
X133037680Y-79562833D01*
X133045138Y-79557881D01*
X133052252Y-79558721D01*
G37*
%TD.AperFunction*%
%TD*%
%TA.AperFunction,Conductor*%
%TO.N,/I2C1_SCL*%
G36*
X145083998Y-71661688D02*
G01*
X145084057Y-71661727D01*
X145321456Y-71821304D01*
X145326410Y-71828763D01*
X145325718Y-71835541D01*
X145153020Y-72247063D01*
X145146658Y-72253366D01*
X145142231Y-72254236D01*
X144998052Y-72254236D01*
X144989779Y-72250809D01*
X144987119Y-72246704D01*
X144790681Y-71731425D01*
X144790936Y-71722474D01*
X144797446Y-71716324D01*
X144799285Y-71715791D01*
X145075210Y-71659969D01*
X145083998Y-71661688D01*
G37*
%TD.AperFunction*%
%TD*%
%TA.AperFunction,Conductor*%
%TO.N,/I2C1_SCL*%
G36*
X147907448Y-81915300D02*
G01*
X147910699Y-81921322D01*
X147966486Y-82199100D01*
X147964755Y-82207886D01*
X147961483Y-82211153D01*
X147726260Y-82367215D01*
X147717472Y-82368934D01*
X147711130Y-82365331D01*
X147411879Y-82035788D01*
X147408855Y-82027360D01*
X147412267Y-82019651D01*
X147514139Y-81917779D01*
X147522335Y-81914353D01*
X147899153Y-81911926D01*
X147907448Y-81915300D01*
G37*
%TD.AperFunction*%
%TD*%
%TA.AperFunction,Conductor*%
%TO.N,/ADC1_IN0*%
G36*
X149050476Y-80629974D02*
G01*
X149055293Y-80636822D01*
X149170193Y-81092227D01*
X149168895Y-81101087D01*
X149167122Y-81103362D01*
X149065101Y-81205383D01*
X149056828Y-81208810D01*
X149050847Y-81207166D01*
X148602236Y-80940320D01*
X148596877Y-80933145D01*
X148598161Y-80924283D01*
X148598445Y-80923831D01*
X148754937Y-80687960D01*
X148762360Y-80682964D01*
X149041699Y-80628203D01*
X149050476Y-80629974D01*
G37*
%TD.AperFunction*%
%TD*%
%TA.AperFunction,Conductor*%
%TO.N,/ADC1_IN0*%
G36*
X141632750Y-84373576D02*
G01*
X141636515Y-84381700D01*
X141636525Y-84382183D01*
X141636525Y-84525925D01*
X141633984Y-84533206D01*
X141385453Y-84845845D01*
X141377622Y-84850188D01*
X141369812Y-84848304D01*
X141132386Y-84690294D01*
X141127397Y-84682858D01*
X141127385Y-84682799D01*
X141073409Y-84406726D01*
X141075185Y-84397949D01*
X141082647Y-84392998D01*
X141084399Y-84392792D01*
X141624342Y-84370493D01*
X141632750Y-84373576D01*
G37*
%TD.AperFunction*%
%TD*%
%TA.AperFunction,Conductor*%
%TO.N,/ADC2_IN1*%
G36*
X140129369Y-85070194D02*
G01*
X140639156Y-85207656D01*
X140646252Y-85213119D01*
X140647810Y-85218953D01*
X140647810Y-85363210D01*
X140644383Y-85371483D01*
X140641902Y-85373376D01*
X140234929Y-85605250D01*
X140226044Y-85606368D01*
X140219427Y-85601611D01*
X140060545Y-85365245D01*
X140058774Y-85356467D01*
X140058787Y-85356398D01*
X140114872Y-85079172D01*
X140119871Y-85071746D01*
X140128659Y-85070027D01*
X140129369Y-85070194D01*
G37*
%TD.AperFunction*%
%TD*%
%TA.AperFunction,Conductor*%
%TO.N,/ADC2_IN1*%
G36*
X149582767Y-80097894D02*
G01*
X149587541Y-80104576D01*
X149593146Y-80125497D01*
X149593148Y-80125500D01*
X149600485Y-80138206D01*
X149607178Y-80149800D01*
X149607881Y-80151236D01*
X149756553Y-80516646D01*
X149756497Y-80525600D01*
X149753989Y-80529328D01*
X149652037Y-80631280D01*
X149643764Y-80634707D01*
X149638966Y-80633678D01*
X149136274Y-80407661D01*
X149130134Y-80401143D01*
X149130401Y-80392192D01*
X149131317Y-80390532D01*
X149286966Y-80155931D01*
X149294389Y-80150935D01*
X149573989Y-80096123D01*
X149582767Y-80097894D01*
G37*
%TD.AperFunction*%
%TD*%
%TA.AperFunction,Conductor*%
%TO.N,/SPI3_SCK*%
G36*
X136292085Y-82051383D02*
G01*
X136292866Y-82052097D01*
X136394407Y-82153638D01*
X136397630Y-82159737D01*
X136473645Y-82561664D01*
X136471815Y-82570430D01*
X136464453Y-82575309D01*
X136185638Y-82631304D01*
X136176852Y-82629573D01*
X136176802Y-82629540D01*
X135942876Y-82472127D01*
X135937925Y-82464665D01*
X135939701Y-82455888D01*
X135940415Y-82454934D01*
X136275608Y-82052876D01*
X136283536Y-82048718D01*
X136292085Y-82051383D01*
G37*
%TD.AperFunction*%
%TD*%
%TA.AperFunction,Conductor*%
%TO.N,/SPI3_SCK*%
G36*
X145707396Y-82223349D02*
G01*
X145884797Y-82327187D01*
X146160349Y-82488476D01*
X146165758Y-82495612D01*
X146164536Y-82504483D01*
X146164188Y-82505041D01*
X146007769Y-82740804D01*
X146000340Y-82745803D01*
X146000296Y-82745812D01*
X146000271Y-82745817D01*
X145720900Y-82800584D01*
X145712122Y-82798813D01*
X145707334Y-82792077D01*
X145588156Y-82338431D01*
X145589368Y-82329560D01*
X145591195Y-82327191D01*
X145693214Y-82225172D01*
X145701486Y-82221746D01*
X145707396Y-82223349D01*
G37*
%TD.AperFunction*%
%TD*%
%TA.AperFunction,Conductor*%
%TO.N,GND*%
G36*
X137475504Y-77430536D02*
G01*
X137476941Y-77432283D01*
X137636242Y-77669271D01*
X137638015Y-77673553D01*
X137692501Y-77952238D01*
X137690725Y-77961015D01*
X137683263Y-77965966D01*
X137681622Y-77966167D01*
X137105709Y-77995953D01*
X137097270Y-77992958D01*
X137093421Y-77984873D01*
X137093405Y-77984269D01*
X137093405Y-77697797D01*
X137096832Y-77689524D01*
X137098281Y-77688292D01*
X137388935Y-77479851D01*
X137389868Y-77479249D01*
X137438087Y-77451410D01*
X137458962Y-77430534D01*
X137467230Y-77427110D01*
X137475504Y-77430536D01*
G37*
%TD.AperFunction*%
%TD*%
%TA.AperFunction,Conductor*%
%TO.N,GND*%
G36*
X135177261Y-77454123D02*
G01*
X135553242Y-77688355D01*
X135558452Y-77695639D01*
X135558755Y-77698286D01*
X135558755Y-77984798D01*
X135555328Y-77993071D01*
X135547055Y-77996498D01*
X135546965Y-77996498D01*
X134956571Y-77991934D01*
X134948324Y-77988443D01*
X134944961Y-77980144D01*
X134945178Y-77977989D01*
X134999547Y-77699904D01*
X135001317Y-77695630D01*
X135161367Y-77457527D01*
X135168825Y-77452574D01*
X135177261Y-77454123D01*
G37*
%TD.AperFunction*%
%TD*%
%TA.AperFunction,Conductor*%
%TO.N,GND*%
G36*
X142593505Y-76143970D02*
G01*
X142872110Y-76198587D01*
X142873386Y-76198838D01*
X142877667Y-76200612D01*
X143113745Y-76359473D01*
X143118696Y-76366935D01*
X143116920Y-76375712D01*
X143116243Y-76376620D01*
X142763970Y-76804187D01*
X142756064Y-76808393D01*
X142747500Y-76805777D01*
X142746667Y-76805020D01*
X142544114Y-76602467D01*
X142540687Y-76594194D01*
X142540733Y-76593161D01*
X142559924Y-76376620D01*
X142579616Y-76154419D01*
X142583759Y-76146483D01*
X142592303Y-76143800D01*
X142593505Y-76143970D01*
G37*
%TD.AperFunction*%
%TD*%
%TA.AperFunction,Conductor*%
%TO.N,GND*%
G36*
X137812742Y-77428620D02*
G01*
X137813031Y-77428820D01*
X138174837Y-77688289D01*
X138179563Y-77695894D01*
X138179719Y-77697796D01*
X138179719Y-77984269D01*
X138176292Y-77992542D01*
X138168019Y-77995969D01*
X138167415Y-77995953D01*
X137591501Y-77966167D01*
X137583416Y-77962318D01*
X137580421Y-77953879D01*
X137580622Y-77952238D01*
X137635109Y-77673549D01*
X137636879Y-77669275D01*
X137796505Y-77431802D01*
X137803964Y-77426849D01*
X137812742Y-77428620D01*
G37*
%TD.AperFunction*%
%TD*%
%TA.AperFunction,Conductor*%
%TO.N,/DRV_SPI_NSS*%
G36*
X135518152Y-82065335D02*
G01*
X135519024Y-82066123D01*
X135620551Y-82167650D01*
X135623735Y-82173549D01*
X135706935Y-82575033D01*
X135705258Y-82583829D01*
X135697852Y-82588864D01*
X135697782Y-82588878D01*
X135419167Y-82644833D01*
X135410381Y-82643102D01*
X135410331Y-82643069D01*
X135176296Y-82485583D01*
X135171345Y-82478121D01*
X135173121Y-82469344D01*
X135173767Y-82468475D01*
X135419477Y-82167650D01*
X135501690Y-82066994D01*
X135509577Y-82062755D01*
X135518152Y-82065335D01*
G37*
%TD.AperFunction*%
%TD*%
%TA.AperFunction,Conductor*%
%TO.N,/DRV_SPI_NSS*%
G36*
X146073265Y-81828748D02*
G01*
X146576581Y-81909673D01*
X146584204Y-81914369D01*
X146586274Y-81923081D01*
X146586205Y-81923469D01*
X146531936Y-82201039D01*
X146526985Y-82208501D01*
X146526935Y-82208534D01*
X146290979Y-82365566D01*
X146282193Y-82367297D01*
X146274757Y-82362308D01*
X146274342Y-82361637D01*
X146061263Y-81989289D01*
X146059718Y-81983478D01*
X146059718Y-81840301D01*
X146063145Y-81832028D01*
X146071418Y-81828601D01*
X146073265Y-81828748D01*
G37*
%TD.AperFunction*%
%TD*%
%TA.AperFunction,Conductor*%
%TO.N,/CAN_TX*%
G36*
X156026384Y-87464679D02*
G01*
X156511777Y-87587053D01*
X156518961Y-87592398D01*
X156520399Y-87600643D01*
X156465936Y-87879209D01*
X156460985Y-87886671D01*
X156460935Y-87886704D01*
X156225839Y-88043163D01*
X156217053Y-88044894D01*
X156209617Y-88039905D01*
X156208776Y-88038416D01*
X156135914Y-87884000D01*
X156012950Y-87623401D01*
X156011831Y-87618408D01*
X156011831Y-87476025D01*
X156015258Y-87467752D01*
X156023531Y-87464325D01*
X156026384Y-87464679D01*
G37*
%TD.AperFunction*%
%TD*%
%TA.AperFunction,Conductor*%
%TO.N,/CAN_TX*%
G36*
X151856698Y-84966682D02*
G01*
X151857535Y-84968168D01*
X152090717Y-85463627D01*
X152091140Y-85472572D01*
X152088404Y-85476882D01*
X151986435Y-85578851D01*
X151978162Y-85582278D01*
X151973979Y-85581505D01*
X151552991Y-85420338D01*
X151546490Y-85414179D01*
X151545693Y-85407162D01*
X151600680Y-85126669D01*
X151605631Y-85119215D01*
X151840482Y-84963400D01*
X151849269Y-84961682D01*
X151856698Y-84966682D01*
G37*
%TD.AperFunction*%
%TD*%
%TA.AperFunction,Conductor*%
%TO.N,/CAN_STB*%
G36*
X158003668Y-87396358D02*
G01*
X158513773Y-87615030D01*
X158520027Y-87621440D01*
X158519917Y-87630394D01*
X158518912Y-87632252D01*
X158362015Y-87868734D01*
X158358734Y-87872015D01*
X158122252Y-88028912D01*
X158113464Y-88030631D01*
X158106035Y-88025631D01*
X158105030Y-88023773D01*
X157886358Y-87513668D01*
X157886248Y-87504714D01*
X157888837Y-87500787D01*
X157990786Y-87398838D01*
X157999058Y-87395412D01*
X158003668Y-87396358D01*
G37*
%TD.AperFunction*%
%TD*%
%TA.AperFunction,Conductor*%
%TO.N,/CAN_STB*%
G36*
X149355907Y-85432100D02*
G01*
X149457854Y-85534047D01*
X149461281Y-85542320D01*
X149460317Y-85546970D01*
X149240083Y-86055499D01*
X149233651Y-86061729D01*
X149224697Y-86061585D01*
X149222879Y-86060598D01*
X148986352Y-85903671D01*
X148983071Y-85900390D01*
X148826203Y-85663952D01*
X148824484Y-85655164D01*
X148829484Y-85647735D01*
X148831378Y-85646715D01*
X149343066Y-85429601D01*
X149352018Y-85429526D01*
X149355907Y-85432100D01*
G37*
%TD.AperFunction*%
%TD*%
%TA.AperFunction,Conductor*%
%TO.N,/SPI3_MISO*%
G36*
X137996731Y-82420603D02*
G01*
X137997736Y-82422461D01*
X138216408Y-82932566D01*
X138216518Y-82941520D01*
X138213927Y-82945449D01*
X138111981Y-83047395D01*
X138103708Y-83050822D01*
X138099098Y-83049876D01*
X137588993Y-82831204D01*
X137582739Y-82824794D01*
X137582849Y-82815840D01*
X137583851Y-82813986D01*
X137740752Y-82577498D01*
X137744030Y-82574220D01*
X137980515Y-82417321D01*
X137989302Y-82415603D01*
X137996731Y-82420603D01*
G37*
%TD.AperFunction*%
%TD*%
%TA.AperFunction,Conductor*%
%TO.N,/SPI3_MISO*%
G36*
X146461169Y-83592807D02*
G01*
X146620682Y-83830112D01*
X146622453Y-83838890D01*
X146622440Y-83838959D01*
X146566593Y-84115006D01*
X146561593Y-84122435D01*
X146552805Y-84124154D01*
X146551062Y-84123658D01*
X146035811Y-83932838D01*
X146029243Y-83926751D01*
X146028174Y-83921866D01*
X146028174Y-83777672D01*
X146031601Y-83769399D01*
X146035222Y-83766936D01*
X146446809Y-83588597D01*
X146455761Y-83588454D01*
X146461169Y-83592807D01*
G37*
%TD.AperFunction*%
%TD*%
%TA.AperFunction,Conductor*%
%TO.N,/ADC3_IN3*%
G36*
X142056742Y-74004309D02*
G01*
X142474356Y-74125526D01*
X142479368Y-74128489D01*
X142580510Y-74229631D01*
X142583937Y-74237904D01*
X142580510Y-74246177D01*
X142578925Y-74247504D01*
X142162427Y-74537644D01*
X142153680Y-74539561D01*
X142146139Y-74534732D01*
X142146066Y-74534625D01*
X141988018Y-74299756D01*
X141986242Y-74290980D01*
X142042020Y-74013242D01*
X142047009Y-74005808D01*
X142055795Y-74004077D01*
X142056742Y-74004309D01*
G37*
%TD.AperFunction*%
%TD*%
%TA.AperFunction,Conductor*%
%TO.N,/ADC3_IN3*%
G36*
X154112503Y-74671503D02*
G01*
X154113752Y-74672587D01*
X154216208Y-74775043D01*
X154219635Y-74783316D01*
X154217876Y-74789486D01*
X153858952Y-75367802D01*
X153851678Y-75373024D01*
X153842841Y-75371573D01*
X153842535Y-75371376D01*
X153523355Y-75159237D01*
X153518362Y-75151805D01*
X153444345Y-74775618D01*
X153446110Y-74766840D01*
X153453566Y-74761880D01*
X153454168Y-74761778D01*
X154103830Y-74669277D01*
X154112503Y-74671503D01*
G37*
%TD.AperFunction*%
%TD*%
%TA.AperFunction,Conductor*%
%TO.N,/ADC2_IN9*%
G36*
X147340022Y-77834947D02*
G01*
X147351973Y-77844274D01*
X147789501Y-78185714D01*
X147793915Y-78193506D01*
X147792040Y-78201425D01*
X147578531Y-78521924D01*
X147571092Y-78526909D01*
X147571048Y-78526918D01*
X147197347Y-78600299D01*
X147188569Y-78598530D01*
X147183612Y-78591072D01*
X147183393Y-78588927D01*
X147176932Y-77844273D01*
X147180287Y-77835971D01*
X147188530Y-77832472D01*
X147332825Y-77832472D01*
X147340022Y-77834947D01*
G37*
%TD.AperFunction*%
%TD*%
%TA.AperFunction,Conductor*%
%TO.N,/ADC2_IN9*%
G36*
X131041206Y-73896589D02*
G01*
X131595354Y-74142106D01*
X131601529Y-74148589D01*
X131602314Y-74152802D01*
X131602314Y-74297597D01*
X131598887Y-74305870D01*
X131595353Y-74308294D01*
X131041208Y-74553809D01*
X131032256Y-74554027D01*
X131026754Y-74549632D01*
X130813376Y-74231720D01*
X130811611Y-74222941D01*
X130813376Y-74218680D01*
X131026754Y-73900767D01*
X131034210Y-73895807D01*
X131041206Y-73896589D01*
G37*
%TD.AperFunction*%
%TD*%
%TA.AperFunction,Conductor*%
%TO.N,/ADC3_IN2*%
G36*
X141203109Y-85678415D02*
G01*
X141210737Y-85683104D01*
X141212962Y-85689968D01*
X141212962Y-85834226D01*
X141209535Y-85842499D01*
X141208367Y-85843522D01*
X140826371Y-86135488D01*
X140817717Y-86137789D01*
X140809970Y-86133297D01*
X140809556Y-86132719D01*
X140651549Y-85897655D01*
X140649778Y-85888877D01*
X140649791Y-85888808D01*
X140659663Y-85840010D01*
X140706123Y-85610364D01*
X140711122Y-85602937D01*
X140719434Y-85601133D01*
X141203109Y-85678415D01*
G37*
%TD.AperFunction*%
%TD*%
%TA.AperFunction,Conductor*%
%TO.N,/ADC3_IN2*%
G36*
X150271145Y-79793490D02*
G01*
X150553257Y-80203466D01*
X150555123Y-80212224D01*
X150551891Y-80218371D01*
X150449864Y-80320398D01*
X150441591Y-80323825D01*
X150439708Y-80323673D01*
X149968579Y-80246865D01*
X149960965Y-80242151D01*
X149958914Y-80233434D01*
X149958981Y-80233066D01*
X149963067Y-80212224D01*
X150013537Y-79954771D01*
X150018488Y-79947317D01*
X150255041Y-79790373D01*
X150263827Y-79788655D01*
X150271145Y-79793490D01*
G37*
%TD.AperFunction*%
%TD*%
%TA.AperFunction,Conductor*%
%TO.N,Net-(U8-PC13)*%
G36*
X165951744Y-76234226D02*
G01*
X165952031Y-76234425D01*
X166482750Y-76614088D01*
X166487485Y-76621688D01*
X166487643Y-76623603D01*
X166487643Y-76768502D01*
X166484216Y-76776775D01*
X166478816Y-76779844D01*
X165809951Y-76949295D01*
X165801090Y-76948005D01*
X165795736Y-76940826D01*
X165795608Y-76940264D01*
X165762839Y-76777608D01*
X165719963Y-76564780D01*
X165721689Y-76555994D01*
X165721718Y-76555950D01*
X165935511Y-76237419D01*
X165942965Y-76232461D01*
X165951744Y-76234226D01*
G37*
%TD.AperFunction*%
%TD*%
%TA.AperFunction,Conductor*%
%TO.N,Net-(U8-PC13)*%
G36*
X151578224Y-83056762D02*
G01*
X151581519Y-83063281D01*
X151678232Y-83700931D01*
X151676084Y-83709624D01*
X151668975Y-83714155D01*
X151292371Y-83790026D01*
X151283584Y-83788300D01*
X151283540Y-83788271D01*
X150966225Y-83575295D01*
X150961265Y-83567839D01*
X150963030Y-83559060D01*
X150964057Y-83557744D01*
X151416506Y-83057188D01*
X151424596Y-83053350D01*
X151425186Y-83053335D01*
X151569951Y-83053335D01*
X151578224Y-83056762D01*
G37*
%TD.AperFunction*%
%TD*%
%TA.AperFunction,Conductor*%
%TO.N,/CAN_RX*%
G36*
X156544361Y-91103191D02*
G01*
X156546952Y-91107120D01*
X156753025Y-91622443D01*
X156752915Y-91631397D01*
X156746505Y-91637651D01*
X156744481Y-91638255D01*
X156466320Y-91694530D01*
X156461680Y-91694530D01*
X156183518Y-91638255D01*
X156176089Y-91633255D01*
X156174370Y-91624467D01*
X156174972Y-91622448D01*
X156381048Y-91107119D01*
X156387302Y-91100710D01*
X156391912Y-91099764D01*
X156536088Y-91099764D01*
X156544361Y-91103191D01*
G37*
%TD.AperFunction*%
%TD*%
%TA.AperFunction,Conductor*%
%TO.N,/CAN_RX*%
G36*
X151226254Y-85543844D02*
G01*
X151526155Y-85901675D01*
X151528843Y-85910217D01*
X151525461Y-85917463D01*
X151423566Y-86019358D01*
X151415293Y-86022785D01*
X151414688Y-86022769D01*
X150925039Y-85997432D01*
X150916954Y-85993583D01*
X150913960Y-85985143D01*
X150914163Y-85983497D01*
X150927108Y-85917463D01*
X150968448Y-85706584D01*
X150973399Y-85699130D01*
X151210822Y-85541609D01*
X151219607Y-85539891D01*
X151226254Y-85543844D01*
G37*
%TD.AperFunction*%
%TD*%
%TA.AperFunction,Conductor*%
%TO.N,/SWDIO*%
G36*
X161509761Y-81292640D02*
G01*
X161669272Y-81529942D01*
X161671043Y-81538720D01*
X161671030Y-81538789D01*
X161615183Y-81814840D01*
X161610183Y-81822269D01*
X161601395Y-81823988D01*
X161599655Y-81823493D01*
X161084404Y-81632836D01*
X161077834Y-81626751D01*
X161076764Y-81621863D01*
X161076764Y-81477668D01*
X161080191Y-81469395D01*
X161083806Y-81466935D01*
X161495396Y-81288432D01*
X161504349Y-81288285D01*
X161509761Y-81292640D01*
G37*
%TD.AperFunction*%
%TD*%
%TA.AperFunction,Conductor*%
%TO.N,/SWDIO*%
G36*
X153074391Y-82527854D02*
G01*
X153076565Y-82529566D01*
X153178592Y-82631593D01*
X153182019Y-82639866D01*
X153180330Y-82645921D01*
X152912203Y-83089228D01*
X152910465Y-83091446D01*
X152909776Y-83092135D01*
X152901503Y-83095562D01*
X152895035Y-83093611D01*
X152659319Y-82937222D01*
X152654321Y-82929796D01*
X152599583Y-82650570D01*
X152601354Y-82641793D01*
X152608316Y-82636947D01*
X152630474Y-82631593D01*
X153065545Y-82526466D01*
X153074391Y-82527854D01*
G37*
%TD.AperFunction*%
%TD*%
%TA.AperFunction,Conductor*%
%TO.N,/ENCODER_STA*%
G36*
X152699968Y-81945821D02*
G01*
X152707422Y-81950780D01*
X152709187Y-81955041D01*
X152783103Y-82330720D01*
X152781338Y-82339499D01*
X152775836Y-82343894D01*
X152210391Y-82562128D01*
X152201439Y-82561910D01*
X152197905Y-82559486D01*
X152095521Y-82457102D01*
X152092094Y-82448829D01*
X152092879Y-82444616D01*
X152131753Y-82343894D01*
X152311113Y-81879170D01*
X152317289Y-81872687D01*
X152324286Y-81871904D01*
X152699968Y-81945821D01*
G37*
%TD.AperFunction*%
%TD*%
%TA.AperFunction,Conductor*%
%TO.N,/ENCODER_STA*%
G36*
X161153245Y-85235567D02*
G01*
X161366623Y-85553480D01*
X161368388Y-85562259D01*
X161366623Y-85566520D01*
X161153245Y-85884432D01*
X161145789Y-85889392D01*
X161138791Y-85888609D01*
X160584647Y-85643094D01*
X160578471Y-85636610D01*
X160577686Y-85632397D01*
X160577686Y-85487602D01*
X160581113Y-85479329D01*
X160584643Y-85476907D01*
X161138793Y-85231389D01*
X161147743Y-85231172D01*
X161153245Y-85235567D01*
G37*
%TD.AperFunction*%
%TD*%
%TA.AperFunction,Conductor*%
%TO.N,/MCU_STA*%
G36*
X153600217Y-79474860D02*
G01*
X153605485Y-79482102D01*
X153605810Y-79484840D01*
X153605810Y-79627615D01*
X153604869Y-79632212D01*
X153347782Y-80233873D01*
X153341380Y-80240134D01*
X153332426Y-80240035D01*
X153330536Y-80239013D01*
X153012718Y-80027291D01*
X153007733Y-80019852D01*
X153007724Y-80019808D01*
X153006933Y-80015782D01*
X152933787Y-79643278D01*
X152935556Y-79634502D01*
X152942528Y-79629651D01*
X153591373Y-79473465D01*
X153600217Y-79474860D01*
G37*
%TD.AperFunction*%
%TD*%
%TA.AperFunction,Conductor*%
%TO.N,/MCU_STA*%
G36*
X160879451Y-79473827D02*
G01*
X161447400Y-79622492D01*
X161454534Y-79627901D01*
X161455917Y-79636064D01*
X161382511Y-80009894D01*
X161377554Y-80017352D01*
X161373307Y-80019116D01*
X160998470Y-80093486D01*
X160989688Y-80091735D01*
X160984880Y-80084996D01*
X160967491Y-80019116D01*
X160865177Y-79631476D01*
X160864790Y-79628490D01*
X160864790Y-79485147D01*
X160868217Y-79476874D01*
X160876490Y-79473447D01*
X160879451Y-79473827D01*
G37*
%TD.AperFunction*%
%TD*%
%TA.AperFunction,Conductor*%
%TO.N,/USART3_TX*%
G36*
X166113408Y-78185810D02*
G01*
X166328281Y-78505950D01*
X166330046Y-78514729D01*
X166330036Y-78514781D01*
X166254760Y-78888434D01*
X166249766Y-78895867D01*
X166240979Y-78897593D01*
X166238859Y-78896951D01*
X165544955Y-78612984D01*
X165538596Y-78606679D01*
X165537686Y-78602156D01*
X165537686Y-78457363D01*
X165541113Y-78449090D01*
X165544334Y-78446810D01*
X166098647Y-78181774D01*
X166107588Y-78181297D01*
X166113408Y-78185810D01*
G37*
%TD.AperFunction*%
%TD*%
%TA.AperFunction,Conductor*%
%TO.N,/USART3_TX*%
G36*
X148450076Y-80122618D02*
G01*
X148456022Y-80125811D01*
X148558094Y-80227883D01*
X148561521Y-80236156D01*
X148558094Y-80244429D01*
X148557781Y-80244731D01*
X148041530Y-80724004D01*
X148033136Y-80727121D01*
X148024995Y-80723389D01*
X148023862Y-80721959D01*
X147897759Y-80534229D01*
X147811277Y-80405484D01*
X147809508Y-80396706D01*
X147809517Y-80396662D01*
X147839957Y-80244731D01*
X147884999Y-80019917D01*
X147889983Y-80012480D01*
X147898766Y-80010745D01*
X148450076Y-80122618D01*
G37*
%TD.AperFunction*%
%TD*%
%TA.AperFunction,Conductor*%
%TO.N,/USART3_RX*%
G36*
X147666030Y-79088523D02*
G01*
X148238708Y-79251142D01*
X148243785Y-79254124D01*
X148345536Y-79355875D01*
X148348963Y-79364148D01*
X148345536Y-79372421D01*
X148344567Y-79373288D01*
X147807987Y-79802037D01*
X147799384Y-79804525D01*
X147791543Y-79800201D01*
X147790971Y-79799421D01*
X147577840Y-79482134D01*
X147576071Y-79473356D01*
X147576080Y-79473312D01*
X147597756Y-79365124D01*
X147651378Y-79097482D01*
X147656363Y-79090045D01*
X147665148Y-79088310D01*
X147666030Y-79088523D01*
G37*
%TD.AperFunction*%
%TD*%
%TA.AperFunction,Conductor*%
%TO.N,/USART3_RX*%
G36*
X165957155Y-77284287D02*
G01*
X165957733Y-77284648D01*
X166269663Y-77492447D01*
X166276944Y-77497298D01*
X166281929Y-77504737D01*
X166281938Y-77504781D01*
X166355577Y-77879793D01*
X166353808Y-77888571D01*
X166346350Y-77893528D01*
X166345349Y-77893680D01*
X165649413Y-77968615D01*
X165640820Y-77966093D01*
X165636527Y-77958235D01*
X165636460Y-77956982D01*
X165636460Y-77813156D01*
X165638057Y-77807255D01*
X165941152Y-77288486D01*
X165948283Y-77283072D01*
X165957155Y-77284287D01*
G37*
%TD.AperFunction*%
%TD*%
%TA.AperFunction,Conductor*%
%TO.N,/ADC1_IN10*%
G36*
X164672670Y-89889113D02*
G01*
X164675094Y-89892647D01*
X164920609Y-90446791D01*
X164920827Y-90455743D01*
X164916432Y-90461245D01*
X164598520Y-90674623D01*
X164589741Y-90676388D01*
X164585480Y-90674623D01*
X164267567Y-90461245D01*
X164262607Y-90453789D01*
X164263389Y-90446794D01*
X164508906Y-89892647D01*
X164515390Y-89886471D01*
X164519603Y-89885686D01*
X164664397Y-89885686D01*
X164672670Y-89889113D01*
G37*
%TD.AperFunction*%
%TD*%
%TA.AperFunction,Conductor*%
%TO.N,/I2C1_SDA*%
G36*
X146134789Y-71629969D02*
G01*
X146411369Y-71685924D01*
X146418798Y-71690924D01*
X146420517Y-71699712D01*
X146420175Y-71701011D01*
X146252638Y-72216155D01*
X146246821Y-72222962D01*
X146241512Y-72224236D01*
X146097287Y-72224236D01*
X146089014Y-72220809D01*
X146086780Y-72217683D01*
X146086032Y-72216155D01*
X145885046Y-71805833D01*
X145884485Y-71796898D01*
X145889025Y-71790979D01*
X146125943Y-71631726D01*
X146134720Y-71629956D01*
X146134789Y-71629969D01*
G37*
%TD.AperFunction*%
%TD*%
%TA.AperFunction,Conductor*%
%TO.N,/I2C1_SDA*%
G36*
X149038744Y-81915658D02*
G01*
X149043776Y-81923065D01*
X149043790Y-81923132D01*
X149099745Y-82201750D01*
X149098014Y-82210536D01*
X149097981Y-82210586D01*
X148940497Y-82444618D01*
X148933035Y-82449569D01*
X148924258Y-82447793D01*
X148923387Y-82447146D01*
X148521954Y-82119103D01*
X148517716Y-82111214D01*
X148520297Y-82102640D01*
X148521074Y-82101780D01*
X148622615Y-82000239D01*
X148628512Y-81997058D01*
X149029948Y-81913979D01*
X149038744Y-81915658D01*
G37*
%TD.AperFunction*%
%TD*%
%TA.AperFunction,Conductor*%
%TO.N,/SPI1_SCK*%
G36*
X153556520Y-71633376D02*
G01*
X153874432Y-71846754D01*
X153879392Y-71854210D01*
X153878609Y-71861208D01*
X153633094Y-72415353D01*
X153626610Y-72421529D01*
X153622397Y-72422314D01*
X153477603Y-72422314D01*
X153469330Y-72418887D01*
X153466906Y-72415353D01*
X153435961Y-72345510D01*
X153221389Y-71861206D01*
X153221172Y-71852256D01*
X153225566Y-71846755D01*
X153543480Y-71633375D01*
X153552259Y-71631611D01*
X153556520Y-71633376D01*
G37*
%TD.AperFunction*%
%TD*%
%TA.AperFunction,Conductor*%
%TO.N,/SPI1_SCK*%
G36*
X151402390Y-76962611D02*
G01*
X151404814Y-76966145D01*
X151650329Y-77520289D01*
X151650547Y-77529241D01*
X151646152Y-77534743D01*
X151328240Y-77748121D01*
X151319461Y-77749886D01*
X151315200Y-77748121D01*
X150997287Y-77534743D01*
X150992327Y-77527287D01*
X150993109Y-77520292D01*
X151238626Y-76966145D01*
X151245110Y-76959969D01*
X151249323Y-76959184D01*
X151394117Y-76959184D01*
X151402390Y-76962611D01*
G37*
%TD.AperFunction*%
%TD*%
%TA.AperFunction,Conductor*%
%TO.N,GND*%
G36*
X139584706Y-89331985D02*
G01*
X139584756Y-89332018D01*
X139665632Y-89386441D01*
X139819745Y-89490146D01*
X139824696Y-89497608D01*
X139822927Y-89506374D01*
X139528152Y-89945529D01*
X139520696Y-89950488D01*
X139511917Y-89948722D01*
X139510165Y-89947281D01*
X139325615Y-89762731D01*
X139322245Y-89755616D01*
X139286811Y-89399067D01*
X139289403Y-89390498D01*
X139296149Y-89386441D01*
X139575920Y-89330254D01*
X139584706Y-89331985D01*
G37*
%TD.AperFunction*%
%TD*%
%TA.AperFunction,Conductor*%
%TO.N,GND*%
G36*
X139518177Y-89040281D02*
G01*
X139523763Y-89047280D01*
X139523989Y-89048203D01*
X139580530Y-89327680D01*
X139580530Y-89332320D01*
X139523989Y-89611796D01*
X139518989Y-89619225D01*
X139510201Y-89620944D01*
X139509278Y-89620718D01*
X138994221Y-89472139D01*
X138987222Y-89466553D01*
X138985764Y-89460897D01*
X138985764Y-89199102D01*
X138989191Y-89190829D01*
X138994219Y-89187860D01*
X139509280Y-89039281D01*
X139518177Y-89040281D01*
G37*
%TD.AperFunction*%
%TD*%
%TA.AperFunction,Conductor*%
%TO.N,GND*%
G36*
X139528177Y-88340281D02*
G01*
X139533763Y-88347280D01*
X139533989Y-88348203D01*
X139590530Y-88627680D01*
X139590530Y-88632320D01*
X139533989Y-88911796D01*
X139528989Y-88919225D01*
X139520201Y-88920944D01*
X139519278Y-88920718D01*
X139004221Y-88772139D01*
X138997222Y-88766553D01*
X138995764Y-88760897D01*
X138995764Y-88499102D01*
X138999191Y-88490829D01*
X139004219Y-88487860D01*
X139519280Y-88339281D01*
X139528177Y-88340281D01*
G37*
%TD.AperFunction*%
%TD*%
%TA.AperFunction,Conductor*%
%TO.N,+3.3V*%
G36*
X140349322Y-90263852D02*
G01*
X140350134Y-90264345D01*
X140587734Y-90421984D01*
X140591015Y-90425265D01*
X140748654Y-90662865D01*
X140750373Y-90671653D01*
X140745373Y-90679082D01*
X140744561Y-90679575D01*
X140275300Y-90938715D01*
X140266401Y-90939715D01*
X140261371Y-90936746D01*
X140076253Y-90751628D01*
X140072826Y-90743355D01*
X140074282Y-90737703D01*
X140333424Y-90268437D01*
X140340423Y-90262852D01*
X140349322Y-90263852D01*
G37*
%TD.AperFunction*%
%TD*%
%TA.AperFunction,Conductor*%
%TO.N,+5V*%
G36*
X134696359Y-70469573D02*
G01*
X134986158Y-70638041D01*
X135156938Y-70737320D01*
X135162368Y-70744440D01*
X135161173Y-70753315D01*
X135160807Y-70753903D01*
X135003015Y-70991734D01*
X134999734Y-70995015D01*
X134761903Y-71152807D01*
X134753115Y-71154526D01*
X134745686Y-71149526D01*
X134745320Y-71148938D01*
X134646041Y-70978158D01*
X134477573Y-70688359D01*
X134476379Y-70679486D01*
X134479414Y-70674210D01*
X134682209Y-70471415D01*
X134690481Y-70467989D01*
X134696359Y-70469573D01*
G37*
%TD.AperFunction*%
%TD*%
%TA.AperFunction,Conductor*%
%TO.N,+5V*%
G36*
X152077149Y-91732264D02*
G01*
X152077420Y-91732439D01*
X152396944Y-91945298D01*
X152401929Y-91952737D01*
X152401938Y-91952781D01*
X152475845Y-92329157D01*
X152474076Y-92337935D01*
X152466946Y-92342823D01*
X151787405Y-92496568D01*
X151778579Y-92495051D01*
X151773411Y-92487738D01*
X151773123Y-92485156D01*
X151773123Y-92198365D01*
X151774911Y-92192149D01*
X152061023Y-91735958D01*
X152068320Y-91730772D01*
X152077149Y-91732264D01*
G37*
%TD.AperFunction*%
%TD*%
%TA.AperFunction,Conductor*%
%TO.N,+5V*%
G36*
X123889791Y-89140416D02*
G01*
X124092583Y-89343208D01*
X124096010Y-89351481D01*
X124094425Y-89357361D01*
X123826679Y-89817938D01*
X123819559Y-89823368D01*
X123810684Y-89822173D01*
X123810096Y-89821807D01*
X123572265Y-89664015D01*
X123568984Y-89660734D01*
X123411192Y-89422903D01*
X123409473Y-89414115D01*
X123414473Y-89406686D01*
X123415061Y-89406320D01*
X123875640Y-89138573D01*
X123884513Y-89137379D01*
X123889791Y-89140416D01*
G37*
%TD.AperFunction*%
%TD*%
%TA.AperFunction,Conductor*%
%TO.N,+5V*%
G36*
X127121763Y-75744134D02*
G01*
X127538742Y-76052946D01*
X127543351Y-76060623D01*
X127541528Y-76068816D01*
X127383015Y-76307734D01*
X127379734Y-76311015D01*
X127143069Y-76468034D01*
X127134281Y-76469753D01*
X127126852Y-76464753D01*
X127125920Y-76463061D01*
X126901420Y-75961011D01*
X126901171Y-75952060D01*
X126903826Y-75947964D01*
X127106528Y-75745262D01*
X127114800Y-75741836D01*
X127121763Y-75744134D01*
G37*
%TD.AperFunction*%
%TD*%
%TA.AperFunction,Conductor*%
%TO.N,+5V*%
G36*
X127318497Y-76019962D02*
G01*
X127324664Y-76026455D01*
X127325212Y-76028339D01*
X127381241Y-76305984D01*
X127381243Y-76310602D01*
X127325072Y-76590293D01*
X127320083Y-76597729D01*
X127311297Y-76599460D01*
X127309936Y-76599100D01*
X126918911Y-76470126D01*
X126914303Y-76467288D01*
X126713478Y-76266463D01*
X126710051Y-76258190D01*
X126713478Y-76249917D01*
X126717550Y-76247270D01*
X127309547Y-76019732D01*
X127318497Y-76019962D01*
G37*
%TD.AperFunction*%
%TD*%
%TA.AperFunction,Conductor*%
%TO.N,+5V*%
G36*
X127663068Y-76365065D02*
G01*
X127670497Y-76370065D01*
X127672216Y-76378853D01*
X127672058Y-76379528D01*
X127535705Y-76894531D01*
X127530275Y-76901651D01*
X127524395Y-76903236D01*
X127237605Y-76903236D01*
X127229332Y-76899809D01*
X127226295Y-76894531D01*
X127089941Y-76379528D01*
X127091136Y-76370653D01*
X127098256Y-76365223D01*
X127098915Y-76365068D01*
X127378682Y-76308469D01*
X127383318Y-76308469D01*
X127663068Y-76365065D01*
G37*
%TD.AperFunction*%
%TD*%
%TA.AperFunction,Conductor*%
%TO.N,+36V*%
G36*
X128960705Y-88990574D02*
G01*
X129437571Y-89242181D01*
X129443289Y-89249073D01*
X129442459Y-89257989D01*
X129441860Y-89258997D01*
X129284356Y-89496393D01*
X129281075Y-89499674D01*
X129042818Y-89657749D01*
X129034030Y-89659468D01*
X129026601Y-89654468D01*
X129026491Y-89654299D01*
X128767031Y-89248218D01*
X128742610Y-89209998D01*
X128741044Y-89201183D01*
X128744195Y-89195429D01*
X128946975Y-88992649D01*
X128955247Y-88989223D01*
X128960705Y-88990574D01*
G37*
%TD.AperFunction*%
%TD*%
%TA.AperFunction,Conductor*%
%TO.N,+36V*%
G36*
X125832149Y-85695250D02*
G01*
X125832316Y-85695508D01*
X126090362Y-86107523D01*
X126112756Y-86143278D01*
X126114243Y-86152108D01*
X126111113Y-86157761D01*
X125908330Y-86360544D01*
X125900057Y-86363971D01*
X125894508Y-86362571D01*
X125421118Y-86107523D01*
X125415460Y-86100582D01*
X125416367Y-86091674D01*
X125416910Y-86090767D01*
X125574485Y-85853263D01*
X125577763Y-85849985D01*
X125815933Y-85691968D01*
X125824720Y-85690250D01*
X125832149Y-85695250D01*
G37*
%TD.AperFunction*%
%TD*%
%TA.AperFunction,Conductor*%
%TO.N,/DRV8323RSRGZR/SPB*%
G36*
X134979806Y-90811493D02*
G01*
X134986060Y-90817903D01*
X134986664Y-90819927D01*
X135042939Y-91098089D01*
X135042939Y-91102729D01*
X134986664Y-91380890D01*
X134981664Y-91388319D01*
X134972876Y-91390038D01*
X134970852Y-91389434D01*
X134455529Y-91183360D01*
X134449119Y-91177106D01*
X134448173Y-91172496D01*
X134448173Y-91028321D01*
X134451600Y-91020048D01*
X134455527Y-91017457D01*
X134970853Y-90811383D01*
X134979806Y-90811493D01*
G37*
%TD.AperFunction*%
%TD*%
%TA.AperFunction,Conductor*%
%TO.N,/DRV8323RSRGZR/SPB*%
G36*
X134153598Y-90795587D02*
G01*
X134564895Y-91017086D01*
X134570553Y-91024025D01*
X134571046Y-91027386D01*
X134571046Y-91171609D01*
X134567619Y-91179882D01*
X134562579Y-91182853D01*
X134048303Y-91330731D01*
X134039405Y-91329724D01*
X134033826Y-91322720D01*
X134033602Y-91321807D01*
X134005490Y-91182853D01*
X133977559Y-91044789D01*
X133979278Y-91036001D01*
X134138344Y-90799361D01*
X134145802Y-90794408D01*
X134153598Y-90795587D01*
G37*
%TD.AperFunction*%
%TD*%
%TA.AperFunction,Conductor*%
%TO.N,/SPI3_MISO*%
G36*
X144933275Y-88961397D02*
G01*
X145146653Y-89279310D01*
X145148418Y-89288089D01*
X145146653Y-89292350D01*
X144933275Y-89610262D01*
X144925819Y-89615222D01*
X144918821Y-89614439D01*
X144364677Y-89368924D01*
X144358501Y-89362440D01*
X144357716Y-89358227D01*
X144357716Y-89213432D01*
X144361143Y-89205159D01*
X144364673Y-89202737D01*
X144918823Y-88957219D01*
X144927773Y-88957002D01*
X144933275Y-88961397D01*
G37*
%TD.AperFunction*%
%TD*%
%TA.AperFunction,Conductor*%
%TO.N,/SPI3_SCK*%
G36*
X141962706Y-89261912D02*
G01*
X142280618Y-89475290D01*
X142285578Y-89482746D01*
X142284795Y-89489744D01*
X142039280Y-90043889D01*
X142032796Y-90050065D01*
X142028583Y-90050850D01*
X141883789Y-90050850D01*
X141875516Y-90047423D01*
X141873092Y-90043889D01*
X141842147Y-89974046D01*
X141627575Y-89489742D01*
X141627358Y-89480792D01*
X141631752Y-89475291D01*
X141949666Y-89261911D01*
X141958445Y-89260147D01*
X141962706Y-89261912D01*
G37*
%TD.AperFunction*%
%TD*%
%TA.AperFunction,Conductor*%
%TO.N,/SPI3_MOSI*%
G36*
X145675686Y-89632033D02*
G01*
X145681760Y-89638612D01*
X145682251Y-89640344D01*
X145757626Y-90014489D01*
X145755900Y-90023276D01*
X145755871Y-90023320D01*
X145541236Y-90343106D01*
X145533780Y-90348066D01*
X145526046Y-90346926D01*
X144971501Y-90053306D01*
X144965793Y-90046406D01*
X144965276Y-90042966D01*
X144965276Y-89898149D01*
X144968703Y-89889876D01*
X144972931Y-89887170D01*
X145102517Y-89839451D01*
X145106560Y-89838730D01*
X145222822Y-89838730D01*
X145222822Y-89838729D01*
X145293131Y-89819890D01*
X145363439Y-89801052D01*
X145363443Y-89801050D01*
X145436615Y-89758804D01*
X145489519Y-89728260D01*
X145537286Y-89680492D01*
X145541505Y-89677793D01*
X145666739Y-89631676D01*
X145675686Y-89632033D01*
G37*
%TD.AperFunction*%
%TD*%
%TA.AperFunction,Conductor*%
%TO.N,GND1*%
G36*
X135413323Y-91391266D02*
G01*
X135572709Y-91628381D01*
X135574480Y-91637159D01*
X135574467Y-91637228D01*
X135518568Y-91913535D01*
X135513568Y-91920964D01*
X135504780Y-91922683D01*
X135503250Y-91922263D01*
X134988051Y-91742745D01*
X134981366Y-91736787D01*
X134980201Y-91731697D01*
X134980201Y-91587481D01*
X134983628Y-91579208D01*
X134987005Y-91576855D01*
X135035780Y-91554383D01*
X135040676Y-91553309D01*
X135102035Y-91553309D01*
X135102035Y-91553308D01*
X135159628Y-91537877D01*
X135217220Y-91522446D01*
X135217224Y-91522444D01*
X135251646Y-91502569D01*
X135320496Y-91462819D01*
X135392477Y-91390837D01*
X135395848Y-91388489D01*
X135398717Y-91387167D01*
X135407665Y-91386817D01*
X135413323Y-91391266D01*
G37*
%TD.AperFunction*%
%TD*%
%TA.AperFunction,Conductor*%
%TO.N,GND1*%
G36*
X133735034Y-91433289D02*
G01*
X133768659Y-91442752D01*
X133771325Y-91443877D01*
X133798558Y-91459600D01*
X133802775Y-91462035D01*
X133802778Y-91462037D01*
X133893619Y-91486376D01*
X133917962Y-91492899D01*
X133917964Y-91492900D01*
X133945234Y-91492900D01*
X133948404Y-91493338D01*
X134247774Y-91577589D01*
X134254809Y-91583128D01*
X134256304Y-91588851D01*
X134256304Y-91733087D01*
X134252877Y-91741360D01*
X134250236Y-91743342D01*
X133840428Y-91968405D01*
X133831527Y-91969384D01*
X133825086Y-91964677D01*
X133666109Y-91728170D01*
X133664338Y-91719392D01*
X133664351Y-91719323D01*
X133720409Y-91442233D01*
X133725408Y-91434806D01*
X133734196Y-91433087D01*
X133735034Y-91433289D01*
G37*
%TD.AperFunction*%
%TD*%
%TA.AperFunction,Conductor*%
%TO.N,/ENCODER_CAL_EN*%
G36*
X142071759Y-87929642D02*
G01*
X142447046Y-88004832D01*
X142454485Y-88009817D01*
X142456220Y-88018602D01*
X142455857Y-88019975D01*
X142262326Y-88605666D01*
X142259490Y-88610268D01*
X142157999Y-88711759D01*
X142149726Y-88715186D01*
X142141453Y-88711759D01*
X142140254Y-88710354D01*
X141742220Y-88161437D01*
X141740138Y-88152728D01*
X141744824Y-88145097D01*
X141745141Y-88144875D01*
X142062937Y-87931401D01*
X142071714Y-87929633D01*
X142071759Y-87929642D01*
G37*
%TD.AperFunction*%
%TD*%
%TA.AperFunction,Conductor*%
%TO.N,/ENCODER_SPI_NSS*%
G36*
X145654278Y-90768959D02*
G01*
X145655037Y-90769968D01*
X145868281Y-91087682D01*
X145870046Y-91096461D01*
X145870036Y-91096513D01*
X145794239Y-91472751D01*
X145789245Y-91480184D01*
X145780635Y-91481944D01*
X145132911Y-91361784D01*
X145125402Y-91356905D01*
X145123345Y-91350280D01*
X145123345Y-91205439D01*
X145126772Y-91197166D01*
X145127506Y-91196491D01*
X145637794Y-90767531D01*
X145646331Y-90764832D01*
X145654278Y-90768959D01*
G37*
%TD.AperFunction*%
%TD*%
M02*
