%TF.GenerationSoftware,KiCad,Pcbnew,9.0.1*%
%TF.CreationDate,2025-04-22T15:18:38+08:00*%
%TF.ProjectId,CawDrive,43617744-7269-4766-952e-6b696361645f,rev?*%
%TF.SameCoordinates,Original*%
%TF.FileFunction,Copper,L4,Bot*%
%TF.FilePolarity,Positive*%
%FSLAX46Y46*%
G04 Gerber Fmt 4.6, Leading zero omitted, Abs format (unit mm)*
G04 Created by KiCad (PCBNEW 9.0.1) date 2025-04-22 15:18:38*
%MOMM*%
%LPD*%
G01*
G04 APERTURE LIST*
G04 Aperture macros list*
%AMRoundRect*
0 Rectangle with rounded corners*
0 $1 Rounding radius*
0 $2 $3 $4 $5 $6 $7 $8 $9 X,Y pos of 4 corners*
0 Add a 4 corners polygon primitive as box body*
4,1,4,$2,$3,$4,$5,$6,$7,$8,$9,$2,$3,0*
0 Add four circle primitives for the rounded corners*
1,1,$1+$1,$2,$3*
1,1,$1+$1,$4,$5*
1,1,$1+$1,$6,$7*
1,1,$1+$1,$8,$9*
0 Add four rect primitives between the rounded corners*
20,1,$1+$1,$2,$3,$4,$5,0*
20,1,$1+$1,$4,$5,$6,$7,0*
20,1,$1+$1,$6,$7,$8,$9,0*
20,1,$1+$1,$8,$9,$2,$3,0*%
G04 Aperture macros list end*
%TA.AperFunction,ComponentPad*%
%ADD10RoundRect,0.750000X-0.750000X-0.750000X0.750000X-0.750000X0.750000X0.750000X-0.750000X0.750000X0*%
%TD*%
%TA.AperFunction,ComponentPad*%
%ADD11C,0.800000*%
%TD*%
%TA.AperFunction,ComponentPad*%
%ADD12C,5.000000*%
%TD*%
%TA.AperFunction,SMDPad,CuDef*%
%ADD13O,1.731000X0.343000*%
%TD*%
%TA.AperFunction,SMDPad,CuDef*%
%ADD14RoundRect,0.155000X-0.155000X0.212500X-0.155000X-0.212500X0.155000X-0.212500X0.155000X0.212500X0*%
%TD*%
%TA.AperFunction,SMDPad,CuDef*%
%ADD15R,1.400000X1.200000*%
%TD*%
%TA.AperFunction,ViaPad*%
%ADD16C,0.600000*%
%TD*%
%TA.AperFunction,ViaPad*%
%ADD17C,0.500000*%
%TD*%
%TA.AperFunction,ViaPad*%
%ADD18C,0.800000*%
%TD*%
%TA.AperFunction,Conductor*%
%ADD19C,0.101600*%
%TD*%
%TA.AperFunction,Conductor*%
%ADD20C,0.279400*%
%TD*%
%TA.AperFunction,Conductor*%
%ADD21C,0.304800*%
%TD*%
%TA.AperFunction,Conductor*%
%ADD22C,0.160020*%
%TD*%
G04 APERTURE END LIST*
D10*
%TO.P,H8,1,1*%
%TO.N,GND1*%
X168000000Y-95000000D03*
%TD*%
D11*
%TO.P,H2,1,1*%
%TO.N,unconnected-(H2-Pad1)_1*%
X157125000Y-71000000D03*
%TO.N,unconnected-(H2-Pad1)_5*%
X157674175Y-69674175D03*
%TO.N,unconnected-(H2-Pad1)_8*%
X157674175Y-72325825D03*
%TO.N,unconnected-(H2-Pad1)_2*%
X159000000Y-69125000D03*
D12*
%TO.N,unconnected-(H2-Pad1)*%
X159000000Y-71000000D03*
D11*
%TO.N,unconnected-(H2-Pad1)_4*%
X159000000Y-72875000D03*
%TO.N,unconnected-(H2-Pad1)_7*%
X160325825Y-69674175D03*
%TO.N,unconnected-(H2-Pad1)_6*%
X160325825Y-72325825D03*
%TO.N,unconnected-(H2-Pad1)_3*%
X160875000Y-71000000D03*
%TD*%
D10*
%TO.P,H6,1,1*%
%TO.N,/DRV8323RSRGZR/PHASB*%
X141000000Y-108000000D03*
%TD*%
D11*
%TO.P,H4,1,1*%
%TO.N,unconnected-(H4-Pad1)_7*%
X121125000Y-107000000D03*
%TO.N,unconnected-(H4-Pad1)_5*%
X121674175Y-105674175D03*
%TO.N,unconnected-(H4-Pad1)_3*%
X121674175Y-108325825D03*
%TO.N,unconnected-(H4-Pad1)*%
X123000000Y-105125000D03*
D12*
%TO.N,unconnected-(H4-Pad1)_4*%
X123000000Y-107000000D03*
D11*
%TO.N,unconnected-(H4-Pad1)_2*%
X123000000Y-108875000D03*
%TO.N,unconnected-(H4-Pad1)_8*%
X124325825Y-105674175D03*
%TO.N,unconnected-(H4-Pad1)_6*%
X124325825Y-108325825D03*
%TO.N,unconnected-(H4-Pad1)_1*%
X124875000Y-107000000D03*
%TD*%
D10*
%TO.P,H7,1,1*%
%TO.N,/DRV8323RSRGZR/PHASC*%
X151000000Y-108000000D03*
%TD*%
%TO.P,H9,1,1*%
%TO.N,+36V*%
X168000000Y-101000000D03*
%TD*%
D11*
%TO.P,H1,1,1*%
%TO.N,unconnected-(H1-Pad1)_5*%
X121125000Y-71000000D03*
%TO.N,unconnected-(H1-Pad1)_4*%
X121674175Y-69674175D03*
%TO.N,unconnected-(H1-Pad1)_8*%
X121674175Y-72325825D03*
%TO.N,unconnected-(H1-Pad1)_6*%
X123000000Y-69125000D03*
D12*
%TO.N,unconnected-(H1-Pad1)*%
X123000000Y-71000000D03*
D11*
%TO.N,unconnected-(H1-Pad1)_1*%
X123000000Y-72875000D03*
%TO.N,unconnected-(H1-Pad1)_7*%
X124325825Y-69674175D03*
%TO.N,unconnected-(H1-Pad1)_2*%
X124325825Y-72325825D03*
%TO.N,unconnected-(H1-Pad1)_3*%
X124875000Y-71000000D03*
%TD*%
%TO.P,H3,1,1*%
%TO.N,unconnected-(H3-Pad1)_4*%
X157125000Y-107000000D03*
%TO.N,unconnected-(H3-Pad1)_7*%
X157674175Y-105674175D03*
%TO.N,unconnected-(H3-Pad1)_8*%
X157674175Y-108325825D03*
%TO.N,unconnected-(H3-Pad1)_1*%
X159000000Y-105125000D03*
D12*
%TO.N,unconnected-(H3-Pad1)_2*%
X159000000Y-107000000D03*
D11*
%TO.N,unconnected-(H3-Pad1)_5*%
X159000000Y-108875000D03*
%TO.N,unconnected-(H3-Pad1)_6*%
X160325825Y-105674175D03*
%TO.N,unconnected-(H3-Pad1)*%
X160325825Y-108325825D03*
%TO.N,unconnected-(H3-Pad1)_3*%
X160875000Y-107000000D03*
%TD*%
D10*
%TO.P,H5,1,1*%
%TO.N,/DRV8323RSRGZR/PHASA*%
X131000000Y-108000000D03*
%TD*%
D13*
%TO.P,U9,1,U*%
%TO.N,unconnected-(U9-U-Pad1)*%
X143861400Y-86726600D03*
%TO.P,U9,2,V*%
%TO.N,unconnected-(U9-V-Pad2)*%
X143861400Y-87376600D03*
%TO.P,U9,3,W*%
%TO.N,unconnected-(U9-W-Pad3)*%
X143861400Y-88026600D03*
%TO.P,U9,4,CAL_EN*%
%TO.N,/ENCODER_CAL_EN*%
X143861400Y-88676600D03*
%TO.P,U9,5,MISO*%
%TO.N,/SPI3_MISO*%
X143861400Y-89326600D03*
%TO.P,U9,6,MOSI*%
%TO.N,/SPI3_MOSI*%
X143861400Y-89976600D03*
%TO.P,U9,7,SCK*%
%TO.N,/SPI3_SCK*%
X143861400Y-90626600D03*
%TO.P,U9,8,CSN*%
%TO.N,/ENCODER_SPI_NSS*%
X143861400Y-91276600D03*
%TO.P,U9,9,VDD*%
%TO.N,+3.3V*%
X138129400Y-91276600D03*
%TO.P,U9,10,OUT*%
%TO.N,unconnected-(U9-OUT-Pad10)*%
X138129400Y-90626600D03*
%TO.P,U9,11,TEST*%
%TO.N,GND*%
X138129400Y-89976600D03*
%TO.P,U9,12,VSS*%
X138129400Y-89326600D03*
%TO.P,U9,13,TEST_EN*%
X138129400Y-88676600D03*
%TO.P,U9,14,Z*%
%TO.N,unconnected-(U9-Z-Pad14)*%
X138129400Y-88026600D03*
%TO.P,U9,15,B*%
%TO.N,unconnected-(U9-B-Pad15)*%
X138129400Y-87376600D03*
%TO.P,U9,16,A*%
%TO.N,unconnected-(U9-A-Pad16)*%
X138129400Y-86726600D03*
%TD*%
D14*
%TO.P,C18,1*%
%TO.N,GND*%
X136398000Y-90110500D03*
%TO.P,C18,2*%
%TO.N,+3.3V*%
X136398000Y-91245500D03*
%TD*%
D15*
%TO.P,D5,1,1*%
%TO.N,+3.3V*%
X147447000Y-90600000D03*
%TO.P,D5,2,2*%
%TO.N,GND*%
X147447000Y-87200000D03*
%TD*%
D16*
%TO.N,/ADC1_IN10*%
X164502500Y-90840000D03*
D17*
X157607000Y-80596000D03*
%TO.N,GND*%
X129611100Y-83280000D03*
X129611100Y-82610000D03*
X128470000Y-80480000D03*
X128470000Y-79730000D03*
X166160000Y-80510000D03*
D16*
X133985000Y-88265000D03*
D17*
X156845000Y-74168000D03*
X153359927Y-89797182D03*
D16*
X131445000Y-84455000D03*
X132715000Y-88265000D03*
X132715000Y-89535000D03*
X133985000Y-84455000D03*
X133985000Y-85725000D03*
D17*
X156337000Y-89154000D03*
D16*
X134620000Y-86360000D03*
D17*
X163180000Y-90860000D03*
X149853162Y-91796638D03*
D16*
X133350000Y-86360000D03*
D17*
X155896481Y-83163519D03*
X126270000Y-79230000D03*
X133100000Y-74497590D03*
X123571000Y-90805000D03*
D16*
X133985000Y-86995000D03*
D17*
X166624000Y-91694000D03*
D16*
X132715000Y-84455000D03*
D18*
X131699000Y-75692000D03*
D16*
X132080000Y-85090000D03*
X135255000Y-86995000D03*
D17*
X140410000Y-83664000D03*
X158496000Y-77089000D03*
D16*
X132080000Y-86360000D03*
X131445000Y-88265000D03*
X130810000Y-85090000D03*
X157861000Y-86233000D03*
X133350000Y-83820000D03*
X129540000Y-86360000D03*
X131445000Y-86995000D03*
X130810000Y-87630000D03*
X131445000Y-85725000D03*
X130810000Y-86360000D03*
X134620000Y-85090000D03*
D17*
X155575000Y-75311000D03*
D16*
X132080000Y-88900000D03*
D17*
X122263500Y-90080500D03*
D16*
X133350000Y-88900000D03*
D17*
X141680000Y-87110000D03*
D16*
X135255000Y-85725000D03*
D17*
X128524000Y-71501000D03*
X140190000Y-74290000D03*
D16*
X123130000Y-84740000D03*
D17*
X142810000Y-72830000D03*
X150420000Y-90374400D03*
D16*
X132715000Y-86995000D03*
D17*
X139634666Y-91357100D03*
D16*
X130175000Y-85725000D03*
D17*
X161671000Y-77089000D03*
D16*
X132080000Y-87630000D03*
D17*
X148540000Y-73060000D03*
D16*
X123140000Y-83830000D03*
X133350000Y-85090000D03*
D17*
X141986000Y-75184000D03*
D16*
X133350000Y-87630000D03*
D17*
X136888408Y-88610842D03*
D16*
X132715000Y-85725000D03*
X135890000Y-86360000D03*
D17*
X162687000Y-84709000D03*
D16*
X132080000Y-83820000D03*
X130175000Y-86995000D03*
X134620000Y-87630000D03*
X132715000Y-83185000D03*
D17*
%TO.N,+3.3V*%
X155575000Y-76581000D03*
X153380000Y-88480000D03*
X158623000Y-75946000D03*
X162030000Y-90850000D03*
X141686056Y-89695608D03*
X161070000Y-82744000D03*
X147387971Y-89437971D03*
X161120000Y-84460000D03*
X124968000Y-74168000D03*
X141180000Y-74210000D03*
X142470000Y-87060000D03*
X136982855Y-84612855D03*
D16*
X137160000Y-76454000D03*
X137160000Y-77089000D03*
X137160000Y-75692000D03*
X154813000Y-86233000D03*
X163490000Y-79980000D03*
D17*
X161671000Y-75946000D03*
X139893214Y-84302708D03*
%TO.N,+5V*%
X135890000Y-73914000D03*
X127381000Y-76309000D03*
X152430000Y-91890000D03*
X123571000Y-89662000D03*
D16*
%TO.N,+36V*%
X147955000Y-100203000D03*
X149225000Y-101219000D03*
X143637000Y-103251000D03*
X139827000Y-100203000D03*
X139827000Y-102235000D03*
X157099000Y-100584000D03*
X142367000Y-101219000D03*
X149225000Y-100203000D03*
X123825000Y-98425000D03*
X149225000Y-102235000D03*
X157861000Y-102870000D03*
X122555000Y-101473000D03*
X147955000Y-101219000D03*
X142367000Y-103251000D03*
X139827000Y-101219000D03*
X147955000Y-103251000D03*
X122555000Y-99441000D03*
X157099000Y-103505000D03*
X139827000Y-103251000D03*
X125095000Y-98425000D03*
X123825000Y-101473000D03*
X145415000Y-101219000D03*
X122555000Y-100457000D03*
X147955000Y-102235000D03*
X143637000Y-100203000D03*
X141097000Y-102235000D03*
X141097000Y-101219000D03*
X142367000Y-100203000D03*
X145415000Y-102235000D03*
X145415000Y-103251000D03*
X157099000Y-102235000D03*
X157861000Y-99822000D03*
X142367000Y-102235000D03*
X157099000Y-99822000D03*
X149225000Y-103251000D03*
X145415000Y-100203000D03*
X157861000Y-100584000D03*
X126365000Y-101473000D03*
X157861000Y-102235000D03*
X146685000Y-102235000D03*
X129282341Y-89497659D03*
X157861000Y-103505000D03*
X126365000Y-99441000D03*
X123825000Y-99441000D03*
X143637000Y-101219000D03*
X141097000Y-103251000D03*
X126365000Y-98425000D03*
X125095000Y-101473000D03*
X146685000Y-101219000D03*
X157099000Y-102870000D03*
X125576500Y-85852000D03*
X125095000Y-100457000D03*
X126365000Y-100457000D03*
X146685000Y-100203000D03*
X122555000Y-98425000D03*
X125095000Y-99441000D03*
X123825000Y-100457000D03*
X141097000Y-100203000D03*
X143637000Y-102235000D03*
X146685000Y-103251000D03*
%TO.N,/DRV8323RSRGZR/PHASA*%
X129794000Y-103378000D03*
X131064000Y-104394000D03*
X125095000Y-102743000D03*
X131064000Y-103378000D03*
X125095000Y-103759000D03*
X128524000Y-104394000D03*
X128524000Y-103378000D03*
X122500000Y-102750000D03*
X123825000Y-103759000D03*
X132334000Y-104394000D03*
X129794000Y-104394000D03*
X123825000Y-102743000D03*
X132334000Y-103378000D03*
X122555000Y-103759000D03*
%TO.N,/DRV8323RSRGZR/PHASB*%
X138049000Y-103378000D03*
X142367000Y-104521000D03*
X141097000Y-105664000D03*
X138049000Y-104394000D03*
X135509000Y-104394000D03*
X134239000Y-103378000D03*
X139827000Y-105664000D03*
X135509000Y-103378000D03*
X134239000Y-104394000D03*
X139827000Y-104521000D03*
X136779000Y-103378000D03*
X136779000Y-104394000D03*
X142367000Y-105664000D03*
X141097000Y-104521000D03*
%TO.N,/DRV8323RSRGZR/PHASC*%
X146685000Y-105664000D03*
X151257000Y-101473000D03*
X145415000Y-104521000D03*
X146685000Y-104521000D03*
X147955000Y-105664000D03*
X147955000Y-104521000D03*
X145415000Y-105664000D03*
X152527000Y-101473000D03*
X154940000Y-101473000D03*
X153797000Y-101473000D03*
D17*
%TO.N,/SPI1_NSS*%
X150600000Y-71590000D03*
X147960000Y-77600000D03*
%TO.N,/SPI1_MISO*%
X152504274Y-71621814D03*
X150090000Y-78134170D03*
%TO.N,/SPI1_MOSI*%
X149362410Y-77400000D03*
X151550000Y-71060000D03*
%TO.N,/SWDIO*%
X152655955Y-82933814D03*
X161800000Y-81604000D03*
%TO.N,/SWCLK*%
X161840000Y-82630000D03*
X152850000Y-83830000D03*
%TO.N,/SPI1_SCK*%
X151321720Y-77751498D03*
X153550000Y-71630000D03*
%TO.N,/MCU_STA*%
X161380000Y-80017590D03*
X153009663Y-80024590D03*
%TO.N,/DRV_STA*%
X161495520Y-83303846D03*
X152220000Y-80820000D03*
%TO.N,/SPI3_MISO*%
X146180000Y-88620000D03*
X137983262Y-82503262D03*
X146820000Y-83834170D03*
%TO.N,/SPI3_SCK*%
X146004360Y-82744170D03*
X136174574Y-82296537D03*
X142240000Y-88890000D03*
%TO.N,/SPI3_MOSI*%
X146910000Y-82980000D03*
X136977600Y-82313345D03*
X145662016Y-89971001D03*
D16*
%TO.N,GND1*%
X121539000Y-93726000D03*
X141224000Y-93980000D03*
X125984000Y-93726000D03*
X143510000Y-94742000D03*
X131699000Y-93980000D03*
X160909000Y-95377000D03*
X147447000Y-93980000D03*
X139700000Y-93980000D03*
X148209000Y-94742000D03*
X160909000Y-96901000D03*
X160274000Y-95377000D03*
X143510000Y-93980000D03*
X141986000Y-93980000D03*
X154051000Y-94107000D03*
X139700000Y-94742000D03*
X154686000Y-94742000D03*
X142748000Y-94742000D03*
X141986000Y-94742000D03*
X160909000Y-97536000D03*
X153416000Y-94742000D03*
X145923000Y-94742000D03*
X153416000Y-94107000D03*
X160274000Y-94107000D03*
X145161000Y-93980000D03*
X136652000Y-93980000D03*
X160909000Y-94107000D03*
X130048000Y-93980000D03*
X120650000Y-93726000D03*
X141224000Y-94742000D03*
X160274000Y-97536000D03*
X148971000Y-93980000D03*
X160274000Y-98171000D03*
X137541000Y-94742000D03*
X140462000Y-93980000D03*
X148209000Y-93980000D03*
X140462000Y-94742000D03*
X160909000Y-98171000D03*
X125095000Y-93726000D03*
X148971000Y-94742000D03*
X132461000Y-93980000D03*
X160909000Y-94742000D03*
X130810000Y-94742000D03*
X155321000Y-94742000D03*
X136652000Y-94742000D03*
X124206000Y-93726000D03*
X131699000Y-94742000D03*
D17*
X133120000Y-91890000D03*
D16*
X160274000Y-96901000D03*
X145161000Y-94742000D03*
X154686000Y-94107000D03*
X137541000Y-93980000D03*
X142748000Y-93980000D03*
D17*
X135620000Y-91890000D03*
D16*
X132461000Y-94742000D03*
X160274000Y-94742000D03*
X130048000Y-94742000D03*
X147447000Y-94742000D03*
X155321000Y-94107000D03*
X154051000Y-94742000D03*
X130810000Y-93980000D03*
X135890000Y-94742000D03*
X146685000Y-93980000D03*
X123317000Y-93726000D03*
X145923000Y-93980000D03*
X135890000Y-93980000D03*
X146685000Y-94742000D03*
D17*
%TO.N,/TIM1_CH1N*%
X132510000Y-79390000D03*
X144410000Y-78020000D03*
%TO.N,/DRV_SPI_NSS*%
X146670000Y-82180000D03*
X135304712Y-82723062D03*
%TO.N,/TIM1_CH3N*%
X144402828Y-79181844D03*
X129160000Y-80060000D03*
%TO.N,/TIM1_CH3*%
X129964380Y-79855620D03*
X145431091Y-81352581D03*
%TO.N,/TIM1_CH2*%
X145100000Y-80610000D03*
X131780000Y-79770000D03*
%TO.N,/TIM1_CH2N*%
X144802652Y-78603368D03*
X130980000Y-79800000D03*
%TO.N,/TIM1_CH1*%
X134580000Y-79574000D03*
X144396400Y-80235830D03*
%TO.N,/ADC3_IN3*%
X154750000Y-73260000D03*
X138480000Y-73530000D03*
%TO.N,/USART3_TX*%
X166330000Y-78510000D03*
X148520000Y-79534000D03*
%TO.N,/USART3_RX*%
X166273092Y-77508413D03*
X148478467Y-78531657D03*
%TO.N,/I2C1_SCL*%
X145080000Y-74310000D03*
X147967327Y-82206100D03*
%TO.N,/I2C1_SDA*%
X149230000Y-82250000D03*
X146050000Y-74295000D03*
%TO.N,/ENCODER_STA*%
X161370000Y-85560000D03*
X152706964Y-81948044D03*
%TO.N,/CAN_TX*%
X151602327Y-85122584D03*
X156464000Y-87884000D03*
%TO.N,/CAN_RX*%
X150970095Y-85702499D03*
X156464000Y-91694000D03*
%TO.N,/CAN_STB*%
X148985087Y-85901656D03*
D16*
X158360000Y-87870000D03*
D17*
%TO.N,/ADC1_IN0*%
X148190000Y-80720000D03*
X141129322Y-84687590D03*
%TO.N,/ADC2_IN1*%
X139690000Y-85960000D03*
X149050000Y-80290000D03*
%TO.N,/ADC3_IN2*%
X150015184Y-79950686D03*
X140230292Y-86554322D03*
%TO.N,Net-(U8-PC13)*%
X165720000Y-76560000D03*
X151287590Y-83789990D03*
%TO.N,/ENCODER_CAL_EN*%
X141930000Y-87890000D03*
%TO.N,/ENCODER_SPI_NSS*%
X146243798Y-90366000D03*
D16*
%TO.N,/DRV8323RSRGZR/SPA*%
X131826000Y-97155000D03*
X132588000Y-97155000D03*
X132588000Y-98044000D03*
X131064000Y-98044000D03*
X130302000Y-98044000D03*
X130302000Y-97155000D03*
X131826000Y-98044000D03*
X129540000Y-97155000D03*
X129540000Y-98044000D03*
%TO.N,/DRV8323RSRGZR/SPB*%
X135382000Y-97917000D03*
X136906000Y-97917000D03*
D17*
X135141337Y-91245009D03*
D16*
X137795000Y-97155000D03*
D17*
X133820000Y-91290000D03*
D16*
X137795000Y-97917000D03*
X136906000Y-97155000D03*
X135382000Y-97155000D03*
X136144000Y-97155000D03*
X136144000Y-97917000D03*
%TO.N,/DRV8323RSRGZR/SPC*%
X155575000Y-97282000D03*
X153289000Y-97917000D03*
X155575000Y-97917000D03*
X154051000Y-97917000D03*
X154813000Y-97282000D03*
X153289000Y-97282000D03*
X154051000Y-97282000D03*
X154813000Y-97917000D03*
%TD*%
D19*
%TO.N,/TIM1_CH2N*%
X144906632Y-78603368D02*
X144802652Y-78603368D01*
X145210000Y-78300000D02*
X144906632Y-78603368D01*
X143750000Y-77310000D02*
X144710000Y-77310000D01*
X142700000Y-78360000D02*
X143750000Y-77310000D01*
X144710000Y-77310000D02*
X145210000Y-77810000D01*
X131660000Y-78360000D02*
X142700000Y-78360000D01*
X130980000Y-79040000D02*
X131660000Y-78360000D01*
X145210000Y-77810000D02*
X145210000Y-78300000D01*
X130980000Y-79800000D02*
X130980000Y-79040000D01*
%TO.N,/TIM1_CH3N*%
X145316669Y-79181844D02*
X144402828Y-79181844D01*
X145740000Y-78758513D02*
X145316669Y-79181844D01*
X145740000Y-77520000D02*
X145740000Y-78758513D01*
X144940000Y-76720000D02*
X145740000Y-77520000D01*
X143180000Y-76720000D02*
X144940000Y-76720000D01*
X129020000Y-79160000D02*
X130460000Y-77720000D01*
X129020000Y-79720000D02*
X129020000Y-79160000D01*
X129160000Y-79860000D02*
X129020000Y-79720000D01*
X130460000Y-77720000D02*
X142180000Y-77720000D01*
X129160000Y-80060000D02*
X129160000Y-79860000D01*
X142180000Y-77720000D02*
X143180000Y-76720000D01*
%TO.N,/ADC1_IN10*%
X164502500Y-82460500D02*
X164502500Y-90840000D01*
X162638000Y-80596000D02*
X164502500Y-82460500D01*
X157607000Y-80596000D02*
X162638000Y-80596000D01*
%TO.N,/ADC3_IN3*%
X141660000Y-70350000D02*
X138480000Y-73530000D01*
X154160000Y-70350000D02*
X141660000Y-70350000D01*
X154750000Y-70940000D02*
X154160000Y-70350000D01*
X154750000Y-73260000D02*
X154750000Y-70940000D01*
%TO.N,/DRV_STA*%
X162570000Y-81450000D02*
X162220000Y-81100000D01*
X152500000Y-81100000D02*
X152220000Y-80820000D01*
X162570000Y-83010000D02*
X162570000Y-81450000D01*
X162220000Y-81100000D02*
X152500000Y-81100000D01*
X162276154Y-83303846D02*
X162570000Y-83010000D01*
X161495520Y-83303846D02*
X162276154Y-83303846D01*
%TO.N,/ADC2_IN1*%
X142070000Y-85010000D02*
X141120000Y-85960000D01*
X148270000Y-85010000D02*
X142070000Y-85010000D01*
X150390000Y-81580000D02*
X150390000Y-82890000D01*
X149100000Y-80290000D02*
X150390000Y-81580000D01*
X150390000Y-82890000D02*
X148270000Y-85010000D01*
X149050000Y-80290000D02*
X149100000Y-80290000D01*
X141120000Y-85960000D02*
X139690000Y-85960000D01*
%TO.N,/ADC3_IN2*%
X150993421Y-82966579D02*
X150993421Y-80759284D01*
X150993421Y-80759284D02*
X150184824Y-79950686D01*
X150184824Y-79950686D02*
X150015184Y-79950686D01*
X148300000Y-85660000D02*
X150993421Y-82966579D01*
X142360000Y-85660000D02*
X148300000Y-85660000D01*
X141465678Y-86554322D02*
X142360000Y-85660000D01*
X140230292Y-86554322D02*
X141465678Y-86554322D01*
D20*
%TO.N,GND*%
X142520000Y-86090000D02*
X146337000Y-86090000D01*
X141680000Y-86930000D02*
X142520000Y-86090000D01*
X146337000Y-86090000D02*
X147447000Y-87200000D01*
X141680000Y-87110000D02*
X141680000Y-86930000D01*
D19*
%TO.N,/TIM1_CH3*%
X140010307Y-81380000D02*
X145403672Y-81380000D01*
X145403672Y-81380000D02*
X145431091Y-81352581D01*
X139430307Y-80800000D02*
X140010307Y-81380000D01*
X130908760Y-80800000D02*
X139430307Y-80800000D01*
X129964380Y-79855620D02*
X130908760Y-80800000D01*
%TO.N,/SPI3_SCK*%
X146004360Y-82636696D02*
X146004360Y-82744170D01*
X145727664Y-82360000D02*
X146004360Y-82636696D01*
X136147542Y-82142458D02*
X136780000Y-81510000D01*
X138410000Y-81510000D02*
X139260000Y-82360000D01*
X136147542Y-82269505D02*
X136147542Y-82142458D01*
X139260000Y-82360000D02*
X145727664Y-82360000D01*
X136174574Y-82296537D02*
X136147542Y-82269505D01*
X136780000Y-81510000D02*
X138410000Y-81510000D01*
%TO.N,/I2C1_SCL*%
X147956100Y-82206100D02*
X147967327Y-82206100D01*
X146400000Y-80650000D02*
X147956100Y-82206100D01*
X146400000Y-77410000D02*
X146400000Y-80650000D01*
X145070000Y-76080000D02*
X146400000Y-77410000D01*
X145070000Y-74570000D02*
X145070000Y-76080000D01*
X145080000Y-74410000D02*
X145105000Y-74435000D01*
X145080000Y-74310000D02*
X145080000Y-74410000D01*
X145105000Y-74435000D02*
X145105000Y-74535000D01*
X145105000Y-74535000D02*
X145070000Y-74570000D01*
%TO.N,/TIM1_CH2*%
X143320000Y-80250000D02*
X132260000Y-80250000D01*
X144040000Y-80970000D02*
X143320000Y-80250000D01*
X132260000Y-80250000D02*
X131780000Y-79770000D01*
X144740000Y-80970000D02*
X144040000Y-80970000D01*
X145100000Y-80610000D02*
X144740000Y-80970000D01*
%TO.N,Net-(U8-PC13)*%
X167370000Y-78620000D02*
X167370000Y-77300000D01*
X166800000Y-79190000D02*
X167370000Y-78620000D01*
X152710000Y-79190000D02*
X166800000Y-79190000D01*
X167370000Y-77300000D02*
X166630000Y-76560000D01*
X151500000Y-80400000D02*
X152710000Y-79190000D01*
X166630000Y-76560000D02*
X165720000Y-76560000D01*
X151500000Y-83577580D02*
X151500000Y-80400000D01*
X151287590Y-83789990D02*
X151500000Y-83577580D01*
%TO.N,/SWDIO*%
X154100000Y-81610000D02*
X152776186Y-82933814D01*
X152776186Y-82933814D02*
X152655955Y-82933814D01*
X161794000Y-81610000D02*
X154100000Y-81610000D01*
X161800000Y-81604000D02*
X161794000Y-81610000D01*
%TO.N,/SWCLK*%
X154440000Y-82240000D02*
X152850000Y-83830000D01*
X161450000Y-82240000D02*
X154440000Y-82240000D01*
X161840000Y-82630000D02*
X161450000Y-82240000D01*
D20*
%TO.N,GND*%
X138129400Y-89976600D02*
X136531900Y-89976600D01*
X136606400Y-89326600D02*
X136398000Y-89535000D01*
X136398000Y-89535000D02*
X136398000Y-90110500D01*
X138129400Y-89326600D02*
X136606400Y-89326600D01*
X136888408Y-88610842D02*
X136749158Y-88610842D01*
X136888408Y-88610842D02*
X136954166Y-88676600D01*
X136954166Y-88676600D02*
X138129400Y-88676600D01*
X136749158Y-88610842D02*
X136398000Y-88962000D01*
X136398000Y-88962000D02*
X136398000Y-90110500D01*
%TO.N,+3.3V*%
X137152500Y-92000000D02*
X136398000Y-91245500D01*
X147447000Y-90600000D02*
X146047000Y-92000000D01*
X147390000Y-89440000D02*
X147390000Y-90543000D01*
X147387971Y-89437971D02*
X147390000Y-89440000D01*
X136398000Y-91245500D02*
X138098300Y-91245500D01*
X146047000Y-92000000D02*
X137152500Y-92000000D01*
D21*
%TO.N,+5V*%
X126000000Y-74840000D02*
X127381000Y-76221000D01*
X147733400Y-92546600D02*
X129916600Y-92546600D01*
X125031000Y-76309000D02*
X127381000Y-76309000D01*
X151530000Y-90980000D02*
X149300000Y-90980000D01*
X123571000Y-89662000D02*
X122260000Y-88351000D01*
X135890000Y-71882000D02*
X134208000Y-70200000D01*
X134208000Y-70200000D02*
X128100000Y-70200000D01*
X152430000Y-91880000D02*
X151530000Y-90980000D01*
X152430000Y-91890000D02*
X152430000Y-91880000D01*
X149300000Y-90980000D02*
X147733400Y-92546600D01*
X122260000Y-88351000D02*
X122260000Y-79080000D01*
X127381000Y-76221000D02*
X127381000Y-76309000D01*
X129916600Y-92546600D02*
X124300000Y-86930000D01*
X128100000Y-70200000D02*
X126000000Y-72300000D01*
X122260000Y-79080000D02*
X125031000Y-76309000D01*
X124300000Y-86930000D02*
X124300000Y-79390000D01*
X126000000Y-72300000D02*
X126000000Y-74840000D01*
X135890000Y-73914000D02*
X135890000Y-71882000D01*
X124300000Y-79390000D02*
X127381000Y-76309000D01*
%TO.N,+36V*%
X129248659Y-89497659D02*
X125603000Y-85852000D01*
X129282341Y-89497659D02*
X129248659Y-89497659D01*
X125603000Y-85852000D02*
X125576500Y-85852000D01*
D22*
%TO.N,/SPI1_NSS*%
X147960000Y-74970000D02*
X150610000Y-72320000D01*
X147960000Y-77600000D02*
X147960000Y-74970000D01*
X150610000Y-71600000D02*
X150600000Y-71590000D01*
X150610000Y-72320000D02*
X150610000Y-71600000D01*
D19*
%TO.N,/SPI1_MISO*%
X150090000Y-75370000D02*
X152504274Y-72955726D01*
X152504274Y-72955726D02*
X152504274Y-71621814D01*
X150090000Y-78134170D02*
X150090000Y-75370000D01*
%TO.N,/SPI1_MOSI*%
X151552403Y-71062403D02*
X151552403Y-72697597D01*
X149362410Y-74887590D02*
X149362410Y-77400000D01*
X151550000Y-71060000D02*
X151552403Y-71062403D01*
X151552403Y-72697597D02*
X149362410Y-74887590D01*
%TO.N,/SPI1_SCK*%
X151321720Y-77751498D02*
X151321720Y-75758280D01*
X151321720Y-75758280D02*
X153550000Y-73530000D01*
X153550000Y-73530000D02*
X153550000Y-71630000D01*
%TO.N,/MCU_STA*%
X153459000Y-79591000D02*
X153025410Y-80024590D01*
X161380000Y-80017590D02*
X160953410Y-79591000D01*
X153025410Y-80024590D02*
X153009663Y-80024590D01*
X160953410Y-79591000D02*
X153459000Y-79591000D01*
%TO.N,/SPI3_MISO*%
X145303400Y-89326600D02*
X143861400Y-89326600D01*
X146820000Y-83834170D02*
X146622410Y-83834170D01*
X138660000Y-83160000D02*
X138003262Y-82503262D01*
X146010000Y-88620000D02*
X145303400Y-89326600D01*
X138003262Y-82503262D02*
X137983262Y-82503262D01*
X146180000Y-88620000D02*
X146010000Y-88620000D01*
X145170000Y-83850000D02*
X144480000Y-83160000D01*
X146606580Y-83850000D02*
X145170000Y-83850000D01*
X146622410Y-83834170D02*
X146606580Y-83850000D01*
X144480000Y-83160000D02*
X138660000Y-83160000D01*
%TO.N,/SPI3_SCK*%
X142240000Y-89687720D02*
X143178880Y-90626600D01*
X142240000Y-88890000D02*
X142240000Y-89687720D01*
%TO.N,/SPI3_MOSI*%
X145080000Y-82770000D02*
X145610000Y-83300000D01*
X146818370Y-82980000D02*
X146910000Y-82980000D01*
X136977600Y-82313345D02*
X137342683Y-81948262D01*
X146498370Y-83300000D02*
X146818370Y-82980000D01*
X138218262Y-81948262D02*
X139040000Y-82770000D01*
X145661015Y-89970000D02*
X143868000Y-89970000D01*
X139040000Y-82770000D02*
X145080000Y-82770000D01*
X137342683Y-81948262D02*
X138218262Y-81948262D01*
X145662016Y-89971001D02*
X145661015Y-89970000D01*
X145610000Y-83300000D02*
X146498370Y-83300000D01*
%TO.N,GND1*%
X135620000Y-91890000D02*
X135605200Y-91875200D01*
X133134800Y-91875200D02*
X133120000Y-91890000D01*
X135605200Y-91875200D02*
X133134800Y-91875200D01*
%TO.N,/TIM1_CH1N*%
X132880000Y-79020000D02*
X143100484Y-79020000D01*
X144015484Y-78105000D02*
X144325000Y-78105000D01*
X143100484Y-79020000D02*
X144015484Y-78105000D01*
X132510000Y-79390000D02*
X132880000Y-79020000D01*
X144325000Y-78105000D02*
X144410000Y-78020000D01*
%TO.N,/DRV_SPI_NSS*%
X135304712Y-82723062D02*
X135304712Y-82005288D01*
X145201202Y-81907581D02*
X145660980Y-81907581D01*
X146230750Y-81906580D02*
X146504170Y-82180000D01*
X135304712Y-82005288D02*
X136160000Y-81150000D01*
X139616580Y-81906580D02*
X145200201Y-81906580D01*
X145200201Y-81906580D02*
X145201202Y-81907581D01*
X145661981Y-81906580D02*
X146230750Y-81906580D01*
X145660980Y-81907581D02*
X145661981Y-81906580D01*
X146504170Y-82180000D02*
X146670000Y-82180000D01*
X138860000Y-81150000D02*
X139616580Y-81906580D01*
X136160000Y-81150000D02*
X138860000Y-81150000D01*
%TO.N,/TIM1_CH1*%
X143780570Y-79620000D02*
X144396400Y-80235830D01*
X134580000Y-79574000D02*
X134626000Y-79620000D01*
X134626000Y-79620000D02*
X143780570Y-79620000D01*
%TO.N,/USART3_TX*%
X148520000Y-79534000D02*
X148520000Y-79480000D01*
X152880000Y-78340000D02*
X166160000Y-78340000D01*
X148520000Y-79480000D02*
X148660000Y-79340000D01*
X148660000Y-79340000D02*
X151880000Y-79340000D01*
X166160000Y-78340000D02*
X166330000Y-78510000D01*
X151880000Y-79340000D02*
X152880000Y-78340000D01*
%TO.N,/USART3_RX*%
X152380000Y-77690000D02*
X151190000Y-78880000D01*
X151190000Y-78880000D02*
X148826810Y-78880000D01*
X148826810Y-78880000D02*
X148478467Y-78531657D01*
X166091505Y-77690000D02*
X152380000Y-77690000D01*
X166273092Y-77508413D02*
X166091505Y-77690000D01*
%TO.N,/I2C1_SDA*%
X149230000Y-82250000D02*
X148796116Y-82250000D01*
X148796116Y-82250000D02*
X146943420Y-80397304D01*
X146943420Y-80397304D02*
X146943420Y-76973420D01*
X146050000Y-76080000D02*
X146050000Y-74295000D01*
X146943420Y-76973420D02*
X146050000Y-76080000D01*
%TO.N,/ENCODER_STA*%
X152706964Y-81948044D02*
X152080000Y-82575008D01*
X152080000Y-84030000D02*
X153610000Y-85560000D01*
X152080000Y-82575008D02*
X152080000Y-84030000D01*
X153610000Y-85560000D02*
X161370000Y-85560000D01*
%TO.N,/CAN_TX*%
X154051020Y-87541020D02*
X156121020Y-87541020D01*
X156121020Y-87541020D02*
X156464000Y-87884000D01*
X151632584Y-85122584D02*
X154051020Y-87541020D01*
X151602327Y-85122584D02*
X151632584Y-85122584D01*
%TO.N,/CAN_RX*%
X156464000Y-90614000D02*
X156464000Y-91694000D01*
X150970095Y-85702499D02*
X151552499Y-85702499D01*
X151552499Y-85702499D02*
X156464000Y-90614000D01*
%TO.N,/CAN_STB*%
X157500000Y-87010000D02*
X158360000Y-87870000D01*
X154310000Y-87010000D02*
X157500000Y-87010000D01*
X151770000Y-84470000D02*
X154310000Y-87010000D01*
X148988344Y-85901656D02*
X150420000Y-84470000D01*
X150420000Y-84470000D02*
X151770000Y-84470000D01*
X148985087Y-85901656D02*
X148988344Y-85901656D01*
%TO.N,/ADC1_IN0*%
X148190000Y-80720000D02*
X148268345Y-80798345D01*
X148110000Y-84450000D02*
X141405765Y-84450000D01*
X148758345Y-80798345D02*
X149840000Y-81880000D01*
X149840000Y-82720000D02*
X148110000Y-84450000D01*
X148268345Y-80798345D02*
X148758345Y-80798345D01*
X149840000Y-81880000D02*
X149840000Y-82720000D01*
X141168175Y-84687590D02*
X141129322Y-84687590D01*
X141405765Y-84450000D02*
X141168175Y-84687590D01*
%TO.N,/ENCODER_CAL_EN*%
X141930000Y-87890000D02*
X142050000Y-87890000D01*
X142050000Y-87890000D02*
X142836600Y-88676600D01*
X142836600Y-88676600D02*
X143146600Y-88676600D01*
%TO.N,/ENCODER_SPI_NSS*%
X146228633Y-90366000D02*
X145318033Y-91276600D01*
X146243798Y-90366000D02*
X146228633Y-90366000D01*
X145318033Y-91276600D02*
X143861400Y-91276600D01*
%TO.N,/DRV8323RSRGZR/SPB*%
X133834768Y-91220000D02*
X133820000Y-91234768D01*
X135116328Y-91220000D02*
X133834768Y-91220000D01*
X135141337Y-91245009D02*
X135116328Y-91220000D01*
X133820000Y-91234768D02*
X133820000Y-91290000D01*
%TD*%
%TA.AperFunction,Conductor*%
%TO.N,/DRV8323RSRGZR/SPA*%
G36*
X133488577Y-96511423D02*
G01*
X133500000Y-96539000D01*
X133500000Y-98711000D01*
X133488577Y-98738577D01*
X133461000Y-98750000D01*
X129039000Y-98750000D01*
X129011423Y-98738577D01*
X129000000Y-98711000D01*
X129000000Y-96539000D01*
X129011423Y-96511423D01*
X129039000Y-96500000D01*
X133461000Y-96500000D01*
X133488577Y-96511423D01*
G37*
%TD.AperFunction*%
%TD*%
%TA.AperFunction,Conductor*%
%TO.N,GND1*%
G36*
X169917139Y-93019685D02*
G01*
X169962894Y-93072489D01*
X169974100Y-93124000D01*
X169974100Y-98376000D01*
X169954415Y-98443039D01*
X169901611Y-98488794D01*
X169850100Y-98500000D01*
X156624000Y-98500000D01*
X156556961Y-98480315D01*
X156511206Y-98427511D01*
X156500000Y-98376000D01*
X156500000Y-96000000D01*
X152000000Y-96000000D01*
X152000000Y-98376000D01*
X151980315Y-98443039D01*
X151927511Y-98488794D01*
X151876000Y-98500000D01*
X139624000Y-98500000D01*
X139556961Y-98480315D01*
X139511206Y-98427511D01*
X139500000Y-98376000D01*
X139500000Y-96000000D01*
X120149900Y-96000000D01*
X120082861Y-95980315D01*
X120037106Y-95927511D01*
X120025900Y-95876000D01*
X120025900Y-93124000D01*
X120045585Y-93056961D01*
X120098389Y-93011206D01*
X120149900Y-93000000D01*
X169850100Y-93000000D01*
X169917139Y-93019685D01*
G37*
%TD.AperFunction*%
%TD*%
%TA.AperFunction,Conductor*%
%TO.N,GND*%
G36*
X132869577Y-81815577D02*
G01*
X137312057Y-86258057D01*
X137323480Y-86285634D01*
X137312057Y-86313211D01*
X137294575Y-86323305D01*
X137270971Y-86329630D01*
X137173828Y-86385715D01*
X137173828Y-86385716D01*
X137094516Y-86465028D01*
X137094515Y-86465028D01*
X137038429Y-86562172D01*
X137009400Y-86670511D01*
X137009400Y-86748446D01*
X136997977Y-86776023D01*
X132869577Y-90904423D01*
X132842000Y-90915846D01*
X132814423Y-90904423D01*
X128297577Y-86387577D01*
X128286154Y-86360000D01*
X128297577Y-86332423D01*
X132814423Y-81815577D01*
X132842000Y-81804154D01*
X132869577Y-81815577D01*
G37*
%TD.AperFunction*%
%TD*%
%TA.AperFunction,Conductor*%
%TO.N,/DRV8323RSRGZR/SPB*%
G36*
X138738577Y-96511423D02*
G01*
X138750000Y-96539000D01*
X138750000Y-98711000D01*
X138738577Y-98738577D01*
X138711000Y-98750000D01*
X134539000Y-98750000D01*
X134511423Y-98738577D01*
X134500000Y-98711000D01*
X134500000Y-96539000D01*
X134511423Y-96511423D01*
X134539000Y-96500000D01*
X138711000Y-96500000D01*
X138738577Y-96511423D01*
G37*
%TD.AperFunction*%
%TD*%
%TA.AperFunction,Conductor*%
%TO.N,/DRV8323RSRGZR/SPC*%
G36*
X155943039Y-96519685D02*
G01*
X155988794Y-96572489D01*
X156000000Y-96624000D01*
X156000000Y-98376000D01*
X155980315Y-98443039D01*
X155927511Y-98488794D01*
X155876000Y-98500000D01*
X152624000Y-98500000D01*
X152556961Y-98480315D01*
X152511206Y-98427511D01*
X152500000Y-98376000D01*
X152500000Y-96624000D01*
X152519685Y-96556961D01*
X152572489Y-96511206D01*
X152624000Y-96500000D01*
X155876000Y-96500000D01*
X155943039Y-96519685D01*
G37*
%TD.AperFunction*%
%TD*%
%TA.AperFunction,Conductor*%
%TO.N,+36V*%
G36*
X128488577Y-96511423D02*
G01*
X128500000Y-96539000D01*
X128500000Y-99250000D01*
X169935100Y-99250000D01*
X169962677Y-99261423D01*
X169974100Y-99289000D01*
X169974100Y-102772822D01*
X169962677Y-102800399D01*
X169935100Y-102811822D01*
X165008416Y-102811822D01*
X165008415Y-102811822D01*
X165000000Y-102811822D01*
X164999994Y-102811822D01*
X164983511Y-102811823D01*
X164983495Y-102811826D01*
X164832251Y-102811858D01*
X164832244Y-102811858D01*
X164832242Y-102811859D01*
X164726679Y-102822999D01*
X164498577Y-102847070D01*
X164170460Y-102917103D01*
X164170452Y-102917105D01*
X163851496Y-103021186D01*
X163851480Y-103021193D01*
X163545231Y-103158163D01*
X163545219Y-103158169D01*
X163255008Y-103326539D01*
X162984067Y-103524438D01*
X162984059Y-103524445D01*
X162735400Y-103749672D01*
X162735392Y-103749680D01*
X162511746Y-103999755D01*
X162511724Y-103999783D01*
X162315558Y-104271949D01*
X162315552Y-104271957D01*
X162149026Y-104563219D01*
X162013980Y-104870364D01*
X161911918Y-105189971D01*
X161843959Y-105518544D01*
X161810860Y-105852419D01*
X161812983Y-106187916D01*
X161812983Y-106187917D01*
X161826912Y-106312358D01*
X161850305Y-106521355D01*
X161853939Y-106537867D01*
X161922415Y-106849036D01*
X161971577Y-106996625D01*
X161973523Y-107010991D01*
X161957914Y-107308839D01*
X161957487Y-107312899D01*
X161909428Y-107616333D01*
X161908579Y-107620326D01*
X161829066Y-107917070D01*
X161827805Y-107920952D01*
X161717707Y-108207768D01*
X161716046Y-108211498D01*
X161576573Y-108485229D01*
X161574532Y-108488764D01*
X161407210Y-108746417D01*
X161404811Y-108749719D01*
X161211472Y-108988473D01*
X161208740Y-108991507D01*
X160991507Y-109208740D01*
X160988473Y-109211472D01*
X160749719Y-109404811D01*
X160746417Y-109407210D01*
X160488764Y-109574532D01*
X160485229Y-109576573D01*
X160211498Y-109716046D01*
X160207768Y-109717707D01*
X159920952Y-109827805D01*
X159917070Y-109829066D01*
X159620326Y-109908579D01*
X159616333Y-109909428D01*
X159312899Y-109957487D01*
X159308839Y-109957914D01*
X159001011Y-109974047D01*
X158998970Y-109974100D01*
X123001030Y-109974100D01*
X122998989Y-109974047D01*
X122691160Y-109957914D01*
X122687100Y-109957487D01*
X122383666Y-109909428D01*
X122379673Y-109908579D01*
X122082929Y-109829066D01*
X122079047Y-109827805D01*
X121792231Y-109717707D01*
X121788501Y-109716046D01*
X121514770Y-109576573D01*
X121511235Y-109574532D01*
X121253582Y-109407210D01*
X121250280Y-109404811D01*
X121011526Y-109211472D01*
X121008492Y-109208740D01*
X120791259Y-108991507D01*
X120788527Y-108988473D01*
X120739659Y-108928126D01*
X120595186Y-108749717D01*
X120592789Y-108746417D01*
X120425467Y-108488764D01*
X120423426Y-108485229D01*
X120283953Y-108211498D01*
X120282292Y-108207768D01*
X120272690Y-108182754D01*
X120172192Y-107920947D01*
X120170933Y-107917070D01*
X120135340Y-107784235D01*
X120091418Y-107620317D01*
X120090573Y-107616342D01*
X120042511Y-107312897D01*
X120042085Y-107308839D01*
X120025953Y-107001011D01*
X120025900Y-106998970D01*
X120025900Y-106845311D01*
X120245500Y-106845311D01*
X120245500Y-107154689D01*
X120279434Y-107455863D01*
X120280141Y-107462132D01*
X120280141Y-107462134D01*
X120348981Y-107763740D01*
X120348983Y-107763749D01*
X120451162Y-108055758D01*
X120451163Y-108055761D01*
X120465665Y-108085874D01*
X120585399Y-108334503D01*
X120585401Y-108334507D01*
X120585402Y-108334508D01*
X120749998Y-108596463D01*
X120750001Y-108596468D01*
X120942886Y-108838337D01*
X121161662Y-109057113D01*
X121403531Y-109249998D01*
X121403536Y-109250001D01*
X121403538Y-109250002D01*
X121665497Y-109414601D01*
X121928415Y-109541216D01*
X121944238Y-109548836D01*
X121944241Y-109548837D01*
X122236250Y-109651016D01*
X122236259Y-109651018D01*
X122537866Y-109719858D01*
X122537870Y-109719858D01*
X122537877Y-109719860D01*
X122845311Y-109754500D01*
X122845316Y-109754500D01*
X123154684Y-109754500D01*
X123154689Y-109754500D01*
X123462123Y-109719860D01*
X123462132Y-109719858D01*
X123462134Y-109719858D01*
X123698404Y-109665930D01*
X123763745Y-109651017D01*
X123763745Y-109651016D01*
X123763749Y-109651016D01*
X123929397Y-109593053D01*
X124055762Y-109548836D01*
X124334503Y-109414601D01*
X124596462Y-109250002D01*
X124596464Y-109250000D01*
X124596468Y-109249998D01*
X124838337Y-109057113D01*
X124838339Y-109057110D01*
X124838344Y-109057107D01*
X125057107Y-108838344D01*
X125081097Y-108808262D01*
X125249998Y-108596468D01*
X125250001Y-108596463D01*
X125250002Y-108596462D01*
X125414601Y-108334503D01*
X125548836Y-108055762D01*
X125599926Y-107909753D01*
X125651016Y-107763749D01*
X125651018Y-107763740D01*
X125719858Y-107462134D01*
X125719858Y-107462132D01*
X125719858Y-107462131D01*
X125719860Y-107462123D01*
X125750326Y-107191738D01*
X129245500Y-107191738D01*
X129245500Y-108808262D01*
X129248174Y-108838337D01*
X129256156Y-108928126D01*
X129312358Y-109124541D01*
X129356340Y-109208740D01*
X129406946Y-109305620D01*
X129536048Y-109463952D01*
X129694380Y-109593054D01*
X129875460Y-109687642D01*
X130071872Y-109743843D01*
X130191738Y-109754500D01*
X130191745Y-109754500D01*
X131808255Y-109754500D01*
X131808262Y-109754500D01*
X131928128Y-109743843D01*
X132124540Y-109687642D01*
X132305620Y-109593054D01*
X132463952Y-109463952D01*
X132593054Y-109305620D01*
X132687642Y-109124540D01*
X132743843Y-108928128D01*
X132754500Y-108808262D01*
X132754500Y-107191738D01*
X139245500Y-107191738D01*
X139245500Y-108808262D01*
X139248174Y-108838337D01*
X139256156Y-108928126D01*
X139312358Y-109124541D01*
X139356340Y-109208740D01*
X139406946Y-109305620D01*
X139536048Y-109463952D01*
X139694380Y-109593054D01*
X139875460Y-109687642D01*
X140071872Y-109743843D01*
X140191738Y-109754500D01*
X140191745Y-109754500D01*
X141808255Y-109754500D01*
X141808262Y-109754500D01*
X141928128Y-109743843D01*
X142124540Y-109687642D01*
X142305620Y-109593054D01*
X142463952Y-109463952D01*
X142593054Y-109305620D01*
X142687642Y-109124540D01*
X142743843Y-108928128D01*
X142754500Y-108808262D01*
X142754500Y-107191738D01*
X149245500Y-107191738D01*
X149245500Y-108808262D01*
X149248174Y-108838337D01*
X149256156Y-108928126D01*
X149312358Y-109124541D01*
X149356340Y-109208740D01*
X149406946Y-109305620D01*
X149536048Y-109463952D01*
X149694380Y-109593054D01*
X149875460Y-109687642D01*
X150071872Y-109743843D01*
X150191738Y-109754500D01*
X150191745Y-109754500D01*
X151808255Y-109754500D01*
X151808262Y-109754500D01*
X151928128Y-109743843D01*
X152124540Y-109687642D01*
X152305620Y-109593054D01*
X152463952Y-109463952D01*
X152593054Y-109305620D01*
X152687642Y-109124540D01*
X152743843Y-108928128D01*
X152754500Y-108808262D01*
X152754500Y-107191738D01*
X152743843Y-107071872D01*
X152687642Y-106875460D01*
X152671894Y-106845311D01*
X156245500Y-106845311D01*
X156245500Y-107154689D01*
X156279434Y-107455863D01*
X156280141Y-107462132D01*
X156280141Y-107462134D01*
X156348981Y-107763740D01*
X156348983Y-107763749D01*
X156451162Y-108055758D01*
X156451163Y-108055761D01*
X156465665Y-108085874D01*
X156585399Y-108334503D01*
X156585401Y-108334507D01*
X156585402Y-108334508D01*
X156749998Y-108596463D01*
X156750001Y-108596468D01*
X156942886Y-108838337D01*
X157161662Y-109057113D01*
X157403531Y-109249998D01*
X157403536Y-109250001D01*
X157403538Y-109250002D01*
X157665497Y-109414601D01*
X157928415Y-109541216D01*
X157944238Y-109548836D01*
X157944241Y-109548837D01*
X158236250Y-109651016D01*
X158236259Y-109651018D01*
X158537866Y-109719858D01*
X158537870Y-109719858D01*
X158537877Y-109719860D01*
X158845311Y-109754500D01*
X158845316Y-109754500D01*
X159154684Y-109754500D01*
X159154689Y-109754500D01*
X159462123Y-109719860D01*
X159462132Y-109719858D01*
X159462134Y-109719858D01*
X159698404Y-109665930D01*
X159763745Y-109651017D01*
X159763745Y-109651016D01*
X159763749Y-109651016D01*
X159929397Y-109593053D01*
X160055762Y-109548836D01*
X160334503Y-109414601D01*
X160596462Y-109250002D01*
X160596464Y-109250000D01*
X160596468Y-109249998D01*
X160838337Y-109057113D01*
X160838339Y-109057110D01*
X160838344Y-109057107D01*
X161057107Y-108838344D01*
X161081097Y-108808262D01*
X161249998Y-108596468D01*
X161250001Y-108596463D01*
X161250002Y-108596462D01*
X161414601Y-108334503D01*
X161548836Y-108055762D01*
X161599926Y-107909753D01*
X161651016Y-107763749D01*
X161651018Y-107763740D01*
X161719858Y-107462134D01*
X161719858Y-107462132D01*
X161719858Y-107462131D01*
X161719860Y-107462123D01*
X161754500Y-107154689D01*
X161754500Y-106845311D01*
X161719860Y-106537877D01*
X161719858Y-106537867D01*
X161719858Y-106537865D01*
X161651018Y-106236259D01*
X161651016Y-106236250D01*
X161548837Y-105944241D01*
X161548836Y-105944238D01*
X161504618Y-105852419D01*
X161414601Y-105665497D01*
X161250002Y-105403538D01*
X161250001Y-105403536D01*
X161249998Y-105403531D01*
X161057113Y-105161662D01*
X160838337Y-104942886D01*
X160596468Y-104750001D01*
X160596463Y-104749998D01*
X160334508Y-104585402D01*
X160334507Y-104585401D01*
X160334503Y-104585399D01*
X160185885Y-104513828D01*
X160055761Y-104451163D01*
X160055758Y-104451162D01*
X159763749Y-104348983D01*
X159763740Y-104348981D01*
X159462133Y-104280141D01*
X159389427Y-104271949D01*
X159154689Y-104245500D01*
X158845311Y-104245500D01*
X158610573Y-104271949D01*
X158537867Y-104280141D01*
X158537865Y-104280141D01*
X158236259Y-104348981D01*
X158236250Y-104348983D01*
X157944241Y-104451162D01*
X157944238Y-104451163D01*
X157665491Y-104585402D01*
X157403536Y-104749998D01*
X157403531Y-104750001D01*
X157161662Y-104942886D01*
X156942886Y-105161662D01*
X156750001Y-105403531D01*
X156749998Y-105403536D01*
X156585402Y-105665491D01*
X156451163Y-105944238D01*
X156451162Y-105944241D01*
X156348983Y-106236250D01*
X156348981Y-106236259D01*
X156280141Y-106537865D01*
X156280141Y-106537867D01*
X156280140Y-106537877D01*
X156245500Y-106845311D01*
X152671894Y-106845311D01*
X152593054Y-106694380D01*
X152463952Y-106536048D01*
X152305620Y-106406946D01*
X152194460Y-106348881D01*
X152124541Y-106312358D01*
X151928126Y-106256156D01*
X151859899Y-106250090D01*
X151808262Y-106245500D01*
X150191738Y-106245500D01*
X150143094Y-106249824D01*
X150071873Y-106256156D01*
X149875458Y-106312358D01*
X149694380Y-106406946D01*
X149694377Y-106406948D01*
X149536048Y-106536048D01*
X149406948Y-106694377D01*
X149406946Y-106694380D01*
X149312358Y-106875458D01*
X149256156Y-107071873D01*
X149249824Y-107143094D01*
X149245500Y-107191738D01*
X142754500Y-107191738D01*
X142743843Y-107071872D01*
X142687642Y-106875460D01*
X142593054Y-106694380D01*
X142463952Y-106536048D01*
X142305620Y-106406946D01*
X142194460Y-106348881D01*
X142124541Y-106312358D01*
X141928126Y-106256156D01*
X141859899Y-106250090D01*
X141808262Y-106245500D01*
X141344363Y-106245500D01*
X141316786Y-106234077D01*
X141305363Y-106206500D01*
X141316786Y-106178923D01*
X141324863Y-106172725D01*
X141331933Y-106168643D01*
X141437471Y-106107711D01*
X141437472Y-106107710D01*
X141437473Y-106107710D01*
X141540710Y-106004473D01*
X141540710Y-106004472D01*
X141540711Y-106004471D01*
X141613712Y-105878029D01*
X141620576Y-105852414D01*
X141651499Y-105737005D01*
X141651500Y-105736999D01*
X141651500Y-105591000D01*
X141651499Y-105590994D01*
X141613713Y-105449973D01*
X141540710Y-105323527D01*
X141437472Y-105220289D01*
X141311026Y-105147286D01*
X141247148Y-105130171D01*
X141223467Y-105112000D01*
X141219571Y-105082406D01*
X141237742Y-105058725D01*
X141247148Y-105054829D01*
X141311026Y-105037713D01*
X141311026Y-105037712D01*
X141311029Y-105037712D01*
X141437471Y-104964711D01*
X141437472Y-104964710D01*
X141437473Y-104964710D01*
X141540710Y-104861473D01*
X141540710Y-104861472D01*
X141540711Y-104861471D01*
X141613712Y-104735029D01*
X141651500Y-104594001D01*
X141651500Y-104447999D01*
X141651499Y-104447994D01*
X141812500Y-104447994D01*
X141812500Y-104594005D01*
X141850286Y-104735026D01*
X141923289Y-104861472D01*
X142026527Y-104964710D01*
X142152973Y-105037713D01*
X142216851Y-105054829D01*
X142240532Y-105073000D01*
X142244428Y-105102594D01*
X142226257Y-105126275D01*
X142216851Y-105130171D01*
X142152973Y-105147286D01*
X142026527Y-105220289D01*
X142026527Y-105220290D01*
X141923290Y-105323527D01*
X141923289Y-105323527D01*
X141850286Y-105449973D01*
X141812500Y-105590994D01*
X141812500Y-105737005D01*
X141850286Y-105878026D01*
X141923289Y-106004472D01*
X142026527Y-106107710D01*
X142026529Y-106107711D01*
X142149872Y-106178923D01*
X142152973Y-106180713D01*
X142293994Y-106218499D01*
X142293997Y-106218499D01*
X142293999Y-106218500D01*
X142294000Y-106218500D01*
X142440000Y-106218500D01*
X142440001Y-106218500D01*
X142554121Y-106187922D01*
X142581026Y-106180713D01*
X142581026Y-106180712D01*
X142581029Y-106180712D01*
X142707471Y-106107711D01*
X142707472Y-106107710D01*
X142707473Y-106107710D01*
X142810710Y-106004473D01*
X142810710Y-106004472D01*
X142810711Y-106004471D01*
X142883712Y-105878029D01*
X142890576Y-105852414D01*
X142921499Y-105737005D01*
X142921500Y-105736999D01*
X142921500Y-105591000D01*
X142921499Y-105590994D01*
X142883713Y-105449973D01*
X142810710Y-105323527D01*
X142707472Y-105220289D01*
X142581026Y-105147286D01*
X142517148Y-105130171D01*
X142493467Y-105112000D01*
X142489571Y-105082406D01*
X142507742Y-105058725D01*
X142517148Y-105054829D01*
X142581026Y-105037713D01*
X142581026Y-105037712D01*
X142581029Y-105037712D01*
X142707471Y-104964711D01*
X142707472Y-104964710D01*
X142707473Y-104964710D01*
X142810710Y-104861473D01*
X142810710Y-104861472D01*
X142810711Y-104861471D01*
X142883712Y-104735029D01*
X142921500Y-104594001D01*
X142921500Y-104447999D01*
X142921499Y-104447994D01*
X144860500Y-104447994D01*
X144860500Y-104594005D01*
X144898286Y-104735026D01*
X144971289Y-104861472D01*
X145074527Y-104964710D01*
X145200973Y-105037713D01*
X145264851Y-105054829D01*
X145288532Y-105073000D01*
X145292428Y-105102594D01*
X145274257Y-105126275D01*
X145264851Y-105130171D01*
X145200973Y-105147286D01*
X145074527Y-105220289D01*
X145074527Y-105220290D01*
X144971290Y-105323527D01*
X144971289Y-105323527D01*
X144898286Y-105449973D01*
X144860500Y-105590994D01*
X144860500Y-105737005D01*
X144898286Y-105878026D01*
X144971289Y-106004472D01*
X145074527Y-106107710D01*
X145074529Y-106107711D01*
X145197872Y-106178923D01*
X145200973Y-106180713D01*
X145341994Y-106218499D01*
X145341997Y-106218499D01*
X145341999Y-106218500D01*
X145342000Y-106218500D01*
X145488000Y-106218500D01*
X145488001Y-106218500D01*
X145602121Y-106187922D01*
X145629026Y-106180713D01*
X145629026Y-106180712D01*
X145629029Y-106180712D01*
X145755471Y-106107711D01*
X145755472Y-106107710D01*
X145755473Y-106107710D01*
X145858710Y-106004473D01*
X145858710Y-106004472D01*
X145858711Y-106004471D01*
X145931712Y-105878029D01*
X145938576Y-105852414D01*
X145969499Y-105737005D01*
X145969500Y-105736999D01*
X145969500Y-105591000D01*
X145969499Y-105590994D01*
X145931713Y-105449973D01*
X145858710Y-105323527D01*
X145755472Y-105220289D01*
X145629026Y-105147286D01*
X145565148Y-105130171D01*
X145541467Y-105112000D01*
X145537571Y-105082406D01*
X145555742Y-105058725D01*
X145565148Y-105054829D01*
X145629026Y-105037713D01*
X145629026Y-105037712D01*
X145629029Y-105037712D01*
X145755471Y-104964711D01*
X145755472Y-104964710D01*
X145755473Y-104964710D01*
X145858710Y-104861473D01*
X145858710Y-104861472D01*
X145858711Y-104861471D01*
X145931712Y-104735029D01*
X145969500Y-104594001D01*
X145969500Y-104447999D01*
X145969499Y-104447994D01*
X146130500Y-104447994D01*
X146130500Y-104594005D01*
X146168286Y-104735026D01*
X146241289Y-104861472D01*
X146344527Y-104964710D01*
X146470973Y-105037713D01*
X146534851Y-105054829D01*
X146558532Y-105073000D01*
X146562428Y-105102594D01*
X146544257Y-105126275D01*
X146534851Y-105130171D01*
X146470973Y-105147286D01*
X146344527Y-105220289D01*
X146344527Y-105220290D01*
X146241290Y-105323527D01*
X146241289Y-105323527D01*
X146168286Y-105449973D01*
X146130500Y-105590994D01*
X146130500Y-105737005D01*
X146168286Y-105878026D01*
X146241289Y-106004472D01*
X146344527Y-106107710D01*
X146344529Y-106107711D01*
X146467872Y-106178923D01*
X146470973Y-106180713D01*
X146611994Y-106218499D01*
X146611997Y-106218499D01*
X146611999Y-106218500D01*
X146612000Y-106218500D01*
X146758000Y-106218500D01*
X146758001Y-106218500D01*
X146872121Y-106187922D01*
X146899026Y-106180713D01*
X146899026Y-106180712D01*
X146899029Y-106180712D01*
X147025471Y-106107711D01*
X147025472Y-106107710D01*
X147025473Y-106107710D01*
X147128710Y-106004473D01*
X147128710Y-106004472D01*
X147128711Y-106004471D01*
X147201712Y-105878029D01*
X147208576Y-105852414D01*
X147239499Y-105737005D01*
X147239500Y-105736999D01*
X147239500Y-105591000D01*
X147239499Y-105590994D01*
X147201713Y-105449973D01*
X147128710Y-105323527D01*
X147025472Y-105220289D01*
X146899026Y-105147286D01*
X146835148Y-105130171D01*
X146811467Y-105112000D01*
X146807571Y-105082406D01*
X146825742Y-105058725D01*
X146835148Y-105054829D01*
X146899026Y-105037713D01*
X146899026Y-105037712D01*
X146899029Y-105037712D01*
X147025471Y-104964711D01*
X147025472Y-104964710D01*
X147025473Y-104964710D01*
X147128710Y-104861473D01*
X147128710Y-104861472D01*
X147128711Y-104861471D01*
X147201712Y-104735029D01*
X147239500Y-104594001D01*
X147239500Y-104447999D01*
X147239499Y-104447994D01*
X147400500Y-104447994D01*
X147400500Y-104594005D01*
X147438286Y-104735026D01*
X147511289Y-104861472D01*
X147614527Y-104964710D01*
X147740973Y-105037713D01*
X147804851Y-105054829D01*
X147828532Y-105073000D01*
X147832428Y-105102594D01*
X147814257Y-105126275D01*
X147804851Y-105130171D01*
X147740973Y-105147286D01*
X147614527Y-105220289D01*
X147614527Y-105220290D01*
X147511290Y-105323527D01*
X147511289Y-105323527D01*
X147438286Y-105449973D01*
X147400500Y-105590994D01*
X147400500Y-105737005D01*
X147438286Y-105878026D01*
X147511289Y-106004472D01*
X147614527Y-106107710D01*
X147614529Y-106107711D01*
X147737872Y-106178923D01*
X147740973Y-106180713D01*
X147881994Y-106218499D01*
X147881997Y-106218499D01*
X147881999Y-106218500D01*
X147882000Y-106218500D01*
X148028000Y-106218500D01*
X148028001Y-106218500D01*
X148142121Y-106187922D01*
X148169026Y-106180713D01*
X148169026Y-106180712D01*
X148169029Y-106180712D01*
X148295471Y-106107711D01*
X148295472Y-106107710D01*
X148295473Y-106107710D01*
X148398710Y-106004473D01*
X148398710Y-106004472D01*
X148398711Y-106004471D01*
X148471712Y-105878029D01*
X148478576Y-105852414D01*
X148509499Y-105737005D01*
X148509500Y-105736999D01*
X148509500Y-105591000D01*
X148509499Y-105590994D01*
X148471713Y-105449973D01*
X148398710Y-105323527D01*
X148295472Y-105220289D01*
X148169026Y-105147286D01*
X148105148Y-105130171D01*
X148081467Y-105112000D01*
X148077571Y-105082406D01*
X148095742Y-105058725D01*
X148105148Y-105054829D01*
X148169026Y-105037713D01*
X148169026Y-105037712D01*
X148169029Y-105037712D01*
X148295471Y-104964711D01*
X148295472Y-104964710D01*
X148295473Y-104964710D01*
X148398710Y-104861473D01*
X148398710Y-104861472D01*
X148398711Y-104861471D01*
X148471712Y-104735029D01*
X148509500Y-104594001D01*
X148509500Y-104447999D01*
X148482969Y-104348983D01*
X148471713Y-104306973D01*
X148398710Y-104180527D01*
X148295472Y-104077289D01*
X148169026Y-104004286D01*
X148028005Y-103966500D01*
X148028001Y-103966500D01*
X147881999Y-103966500D01*
X147881994Y-103966500D01*
X147740973Y-104004286D01*
X147614527Y-104077289D01*
X147614527Y-104077290D01*
X147511290Y-104180527D01*
X147511289Y-104180527D01*
X147438286Y-104306973D01*
X147400500Y-104447994D01*
X147239499Y-104447994D01*
X147212969Y-104348983D01*
X147201713Y-104306973D01*
X147128710Y-104180527D01*
X147025472Y-104077289D01*
X146899026Y-104004286D01*
X146758005Y-103966500D01*
X146758001Y-103966500D01*
X146611999Y-103966500D01*
X146611994Y-103966500D01*
X146470973Y-104004286D01*
X146344527Y-104077289D01*
X146344527Y-104077290D01*
X146241290Y-104180527D01*
X146241289Y-104180527D01*
X146168286Y-104306973D01*
X146130500Y-104447994D01*
X145969499Y-104447994D01*
X145942969Y-104348983D01*
X145931713Y-104306973D01*
X145858710Y-104180527D01*
X145755472Y-104077289D01*
X145629026Y-104004286D01*
X145488005Y-103966500D01*
X145488001Y-103966500D01*
X145341999Y-103966500D01*
X145341994Y-103966500D01*
X145200973Y-104004286D01*
X145074527Y-104077289D01*
X145074527Y-104077290D01*
X144971290Y-104180527D01*
X144971289Y-104180527D01*
X144898286Y-104306973D01*
X144860500Y-104447994D01*
X142921499Y-104447994D01*
X142894969Y-104348983D01*
X142883713Y-104306973D01*
X142810710Y-104180527D01*
X142707472Y-104077289D01*
X142581026Y-104004286D01*
X142440005Y-103966500D01*
X142440001Y-103966500D01*
X142293999Y-103966500D01*
X142293994Y-103966500D01*
X142152973Y-104004286D01*
X142026527Y-104077289D01*
X142026527Y-104077290D01*
X141923290Y-104180527D01*
X141923289Y-104180527D01*
X141850286Y-104306973D01*
X141812500Y-104447994D01*
X141651499Y-104447994D01*
X141624969Y-104348983D01*
X141613713Y-104306973D01*
X141540710Y-104180527D01*
X141437472Y-104077289D01*
X141311026Y-104004286D01*
X141170005Y-103966500D01*
X141170001Y-103966500D01*
X141023999Y-103966500D01*
X141023994Y-103966500D01*
X140882973Y-104004286D01*
X140756527Y-104077289D01*
X140756527Y-104077290D01*
X140653290Y-104180527D01*
X140653289Y-104180527D01*
X140580286Y-104306973D01*
X140542500Y-104447994D01*
X140542500Y-104594005D01*
X140580286Y-104735026D01*
X140653289Y-104861472D01*
X140756527Y-104964710D01*
X140882973Y-105037713D01*
X140946851Y-105054829D01*
X140970532Y-105073000D01*
X140974428Y-105102594D01*
X140956257Y-105126275D01*
X140946851Y-105130171D01*
X140882973Y-105147286D01*
X140756527Y-105220289D01*
X140756527Y-105220290D01*
X140653290Y-105323527D01*
X140653289Y-105323527D01*
X140580286Y-105449973D01*
X140542500Y-105590994D01*
X140542500Y-105737005D01*
X140580286Y-105878026D01*
X140653289Y-106004472D01*
X140756527Y-106107710D01*
X140869137Y-106172725D01*
X140887308Y-106196406D01*
X140883412Y-106226000D01*
X140859731Y-106244171D01*
X140849637Y-106245500D01*
X140191738Y-106245500D01*
X140143094Y-106249824D01*
X140071873Y-106256156D01*
X139875458Y-106312358D01*
X139694380Y-106406946D01*
X139694377Y-106406948D01*
X139536048Y-106536048D01*
X139406948Y-106694377D01*
X139406946Y-106694380D01*
X139312358Y-106875458D01*
X139256156Y-107071873D01*
X139249824Y-107143094D01*
X139245500Y-107191738D01*
X132754500Y-107191738D01*
X132743843Y-107071872D01*
X132687642Y-106875460D01*
X132593054Y-106694380D01*
X132463952Y-106536048D01*
X132305620Y-106406946D01*
X132194460Y-106348881D01*
X132124541Y-106312358D01*
X131928126Y-106256156D01*
X131859899Y-106250090D01*
X131808262Y-106245500D01*
X130191738Y-106245500D01*
X130143094Y-106249824D01*
X130071873Y-106256156D01*
X129875458Y-106312358D01*
X129694380Y-106406946D01*
X129694377Y-106406948D01*
X129536048Y-106536048D01*
X129406948Y-106694377D01*
X129406946Y-106694380D01*
X129312358Y-106875458D01*
X129256156Y-107071873D01*
X129249824Y-107143094D01*
X129245500Y-107191738D01*
X125750326Y-107191738D01*
X125754500Y-107154689D01*
X125754500Y-106845311D01*
X125719860Y-106537877D01*
X125719858Y-106537867D01*
X125719858Y-106537865D01*
X125651018Y-106236259D01*
X125651016Y-106236250D01*
X125548837Y-105944241D01*
X125548836Y-105944238D01*
X125504618Y-105852419D01*
X125414601Y-105665497D01*
X125250002Y-105403538D01*
X125250001Y-105403536D01*
X125249998Y-105403531D01*
X125057113Y-105161662D01*
X124838337Y-104942886D01*
X124596468Y-104750001D01*
X124596463Y-104749998D01*
X124334508Y-104585402D01*
X124334507Y-104585401D01*
X124334503Y-104585399D01*
X124185885Y-104513828D01*
X124055761Y-104451163D01*
X124055758Y-104451162D01*
X123878997Y-104389311D01*
X123856740Y-104369422D01*
X123855067Y-104339619D01*
X123874956Y-104317362D01*
X123891878Y-104313500D01*
X123898000Y-104313500D01*
X123898001Y-104313500D01*
X123898005Y-104313499D01*
X124039026Y-104275713D01*
X124039026Y-104275712D01*
X124039029Y-104275712D01*
X124165471Y-104202711D01*
X124165472Y-104202710D01*
X124165473Y-104202710D01*
X124268710Y-104099473D01*
X124268710Y-104099472D01*
X124281517Y-104077290D01*
X124341712Y-103973029D01*
X124343462Y-103966500D01*
X124379499Y-103832005D01*
X124379500Y-103831999D01*
X124379500Y-103686000D01*
X124379499Y-103685994D01*
X124341713Y-103544973D01*
X124268710Y-103418527D01*
X124165472Y-103315289D01*
X124116699Y-103287131D01*
X124112617Y-103284774D01*
X124094447Y-103261094D01*
X124098343Y-103231500D01*
X124112617Y-103217225D01*
X124165471Y-103186711D01*
X124165472Y-103186710D01*
X124165473Y-103186710D01*
X124268710Y-103083473D01*
X124268710Y-103083472D01*
X124268711Y-103083471D01*
X124341712Y-102957029D01*
X124367366Y-102861288D01*
X124379499Y-102816005D01*
X124379500Y-102815999D01*
X124379500Y-102670000D01*
X124379499Y-102669994D01*
X124540500Y-102669994D01*
X124540500Y-102816005D01*
X124578286Y-102957026D01*
X124651289Y-103083472D01*
X124754527Y-103186710D01*
X124807380Y-103217225D01*
X124825551Y-103240906D01*
X124821655Y-103270500D01*
X124807380Y-103284775D01*
X124754527Y-103315289D01*
X124754527Y-103315290D01*
X124651290Y-103418527D01*
X124651289Y-103418527D01*
X124578286Y-103544973D01*
X124540500Y-103685994D01*
X124540500Y-103832005D01*
X124578286Y-103973026D01*
X124651289Y-104099472D01*
X124754527Y-104202710D01*
X124807902Y-104233526D01*
X124874453Y-104271949D01*
X124880973Y-104275713D01*
X125021994Y-104313499D01*
X125021997Y-104313499D01*
X125021999Y-104313500D01*
X125022000Y-104313500D01*
X125168000Y-104313500D01*
X125168001Y-104313500D01*
X125168005Y-104313499D01*
X125309026Y-104275713D01*
X125309026Y-104275712D01*
X125309029Y-104275712D01*
X125435471Y-104202711D01*
X125435472Y-104202710D01*
X125435473Y-104202710D01*
X125538710Y-104099473D01*
X125538710Y-104099472D01*
X125551517Y-104077290D01*
X125611712Y-103973029D01*
X125613462Y-103966500D01*
X125649499Y-103832005D01*
X125649500Y-103831999D01*
X125649500Y-103686000D01*
X125649499Y-103685994D01*
X125611713Y-103544973D01*
X125538710Y-103418527D01*
X125435472Y-103315289D01*
X125417640Y-103304994D01*
X127969500Y-103304994D01*
X127969500Y-103451005D01*
X128007286Y-103592026D01*
X128080289Y-103718472D01*
X128183527Y-103821710D01*
X128236380Y-103852225D01*
X128254551Y-103875906D01*
X128250655Y-103905500D01*
X128236380Y-103919775D01*
X128183527Y-103950289D01*
X128183527Y-103950290D01*
X128080290Y-104053527D01*
X128080289Y-104053527D01*
X128007286Y-104179973D01*
X127969500Y-104320994D01*
X127969500Y-104467005D01*
X128007286Y-104608026D01*
X128080289Y-104734472D01*
X128183527Y-104837710D01*
X128309973Y-104910713D01*
X128450994Y-104948499D01*
X128450997Y-104948499D01*
X128450999Y-104948500D01*
X128451000Y-104948500D01*
X128597000Y-104948500D01*
X128597001Y-104948500D01*
X128617953Y-104942886D01*
X128738026Y-104910713D01*
X128738026Y-104910712D01*
X128738029Y-104910712D01*
X128864471Y-104837711D01*
X128864472Y-104837710D01*
X128864473Y-104837710D01*
X128967710Y-104734473D01*
X128967710Y-104734472D01*
X128967711Y-104734471D01*
X129040712Y-104608029D01*
X129078500Y-104467001D01*
X129078500Y-104320999D01*
X129078499Y-104320994D01*
X129040713Y-104179973D01*
X128967710Y-104053527D01*
X128864472Y-103950289D01*
X128832222Y-103931670D01*
X128811617Y-103919774D01*
X128793447Y-103896094D01*
X128797343Y-103866500D01*
X128811617Y-103852225D01*
X128864471Y-103821711D01*
X128864472Y-103821710D01*
X128864473Y-103821710D01*
X128967710Y-103718473D01*
X128967710Y-103718472D01*
X128986458Y-103686000D01*
X129040712Y-103592029D01*
X129078500Y-103451001D01*
X129078500Y-103304999D01*
X129078499Y-103304994D01*
X129239500Y-103304994D01*
X129239500Y-103451005D01*
X129277286Y-103592026D01*
X129350289Y-103718472D01*
X129453527Y-103821710D01*
X129506380Y-103852225D01*
X129524551Y-103875906D01*
X129520655Y-103905500D01*
X129506380Y-103919775D01*
X129453527Y-103950289D01*
X129453527Y-103950290D01*
X129350290Y-104053527D01*
X129350289Y-104053527D01*
X129277286Y-104179973D01*
X129239500Y-104320994D01*
X129239500Y-104467005D01*
X129277286Y-104608026D01*
X129350289Y-104734472D01*
X129453527Y-104837710D01*
X129579973Y-104910713D01*
X129720994Y-104948499D01*
X129720997Y-104948499D01*
X129720999Y-104948500D01*
X129721000Y-104948500D01*
X129867000Y-104948500D01*
X129867001Y-104948500D01*
X129887953Y-104942886D01*
X130008026Y-104910713D01*
X130008026Y-104910712D01*
X130008029Y-104910712D01*
X130134471Y-104837711D01*
X130134472Y-104837710D01*
X130134473Y-104837710D01*
X130237710Y-104734473D01*
X130237710Y-104734472D01*
X130237711Y-104734471D01*
X130310712Y-104608029D01*
X130348500Y-104467001D01*
X130348500Y-104320999D01*
X130348499Y-104320994D01*
X130310713Y-104179973D01*
X130237710Y-104053527D01*
X130134472Y-103950289D01*
X130102222Y-103931670D01*
X130081617Y-103919774D01*
X130063447Y-103896094D01*
X130067343Y-103866500D01*
X130081617Y-103852225D01*
X130134471Y-103821711D01*
X130134472Y-103821710D01*
X130134473Y-103821710D01*
X130237710Y-103718473D01*
X130237710Y-103718472D01*
X130256458Y-103686000D01*
X130310712Y-103592029D01*
X130348500Y-103451001D01*
X130348500Y-103304999D01*
X130348499Y-103304994D01*
X130509500Y-103304994D01*
X130509500Y-103451005D01*
X130547286Y-103592026D01*
X130620289Y-103718472D01*
X130723527Y-103821710D01*
X130776380Y-103852225D01*
X130794551Y-103875906D01*
X130790655Y-103905500D01*
X130776380Y-103919775D01*
X130723527Y-103950289D01*
X130723527Y-103950290D01*
X130620290Y-104053527D01*
X130620289Y-104053527D01*
X130547286Y-104179973D01*
X130509500Y-104320994D01*
X130509500Y-104467005D01*
X130547286Y-104608026D01*
X130620289Y-104734472D01*
X130723527Y-104837710D01*
X130849973Y-104910713D01*
X130990994Y-104948499D01*
X130990997Y-104948499D01*
X130990999Y-104948500D01*
X130991000Y-104948500D01*
X131137000Y-104948500D01*
X131137001Y-104948500D01*
X131157953Y-104942886D01*
X131278026Y-104910713D01*
X131278026Y-104910712D01*
X131278029Y-104910712D01*
X131404471Y-104837711D01*
X131404472Y-104837710D01*
X131404473Y-104837710D01*
X131507710Y-104734473D01*
X131507710Y-104734472D01*
X131507711Y-104734471D01*
X131580712Y-104608029D01*
X131618500Y-104467001D01*
X131618500Y-104320999D01*
X131618499Y-104320994D01*
X131580713Y-104179973D01*
X131507710Y-104053527D01*
X131404472Y-103950289D01*
X131372222Y-103931670D01*
X131351617Y-103919774D01*
X131333447Y-103896094D01*
X131337343Y-103866500D01*
X131351617Y-103852225D01*
X131404471Y-103821711D01*
X131404472Y-103821710D01*
X131404473Y-103821710D01*
X131507710Y-103718473D01*
X131507710Y-103718472D01*
X131526458Y-103686000D01*
X131580712Y-103592029D01*
X131618500Y-103451001D01*
X131618500Y-103304999D01*
X131618499Y-103304994D01*
X131779500Y-103304994D01*
X131779500Y-103451005D01*
X131817286Y-103592026D01*
X131890289Y-103718472D01*
X131993527Y-103821710D01*
X132046380Y-103852225D01*
X132064551Y-103875906D01*
X132060655Y-103905500D01*
X132046380Y-103919775D01*
X131993527Y-103950289D01*
X131993527Y-103950290D01*
X131890290Y-104053527D01*
X131890289Y-104053527D01*
X131817286Y-104179973D01*
X131779500Y-104320994D01*
X131779500Y-104467005D01*
X131817286Y-104608026D01*
X131890289Y-104734472D01*
X131993527Y-104837710D01*
X132119973Y-104910713D01*
X132260994Y-104948499D01*
X132260997Y-104948499D01*
X132260999Y-104948500D01*
X132261000Y-104948500D01*
X132407000Y-104948500D01*
X132407001Y-104948500D01*
X132427953Y-104942886D01*
X132548026Y-104910713D01*
X132548026Y-104910712D01*
X132548029Y-104910712D01*
X132674471Y-104837711D01*
X132674472Y-104837710D01*
X132674473Y-104837710D01*
X132777710Y-104734473D01*
X132777710Y-104734472D01*
X132777711Y-104734471D01*
X132850712Y-104608029D01*
X132888500Y-104467001D01*
X132888500Y-104320999D01*
X132888499Y-104320994D01*
X132850713Y-104179973D01*
X132777710Y-104053527D01*
X132674472Y-103950289D01*
X132642222Y-103931670D01*
X132621617Y-103919774D01*
X132603447Y-103896094D01*
X132607343Y-103866500D01*
X132621617Y-103852225D01*
X132674471Y-103821711D01*
X132674472Y-103821710D01*
X132674473Y-103821710D01*
X132777710Y-103718473D01*
X132777710Y-103718472D01*
X132796458Y-103686000D01*
X132850712Y-103592029D01*
X132888500Y-103451001D01*
X132888500Y-103304999D01*
X132888499Y-103304994D01*
X133684500Y-103304994D01*
X133684500Y-103451005D01*
X133722286Y-103592026D01*
X133795289Y-103718472D01*
X133898527Y-103821710D01*
X133951380Y-103852225D01*
X133969551Y-103875906D01*
X133965655Y-103905500D01*
X133951380Y-103919775D01*
X133898527Y-103950289D01*
X133898527Y-103950290D01*
X133795290Y-104053527D01*
X133795289Y-104053527D01*
X133722286Y-104179973D01*
X133684500Y-104320994D01*
X133684500Y-104467005D01*
X133722286Y-104608026D01*
X133795289Y-104734472D01*
X133898527Y-104837710D01*
X134024973Y-104910713D01*
X134165994Y-104948499D01*
X134165997Y-104948499D01*
X134165999Y-104948500D01*
X134166000Y-104948500D01*
X134312000Y-104948500D01*
X134312001Y-104948500D01*
X134332953Y-104942886D01*
X134453026Y-104910713D01*
X134453026Y-104910712D01*
X134453029Y-104910712D01*
X134579471Y-104837711D01*
X134579472Y-104837710D01*
X134579473Y-104837710D01*
X134682710Y-104734473D01*
X134682710Y-104734472D01*
X134682711Y-104734471D01*
X134755712Y-104608029D01*
X134793500Y-104467001D01*
X134793500Y-104320999D01*
X134793499Y-104320994D01*
X134755713Y-104179973D01*
X134682710Y-104053527D01*
X134579472Y-103950289D01*
X134547222Y-103931670D01*
X134526617Y-103919774D01*
X134508447Y-103896094D01*
X134512343Y-103866500D01*
X134526617Y-103852225D01*
X134579471Y-103821711D01*
X134579472Y-103821710D01*
X134579473Y-103821710D01*
X134682710Y-103718473D01*
X134682710Y-103718472D01*
X134701458Y-103686000D01*
X134755712Y-103592029D01*
X134793500Y-103451001D01*
X134793500Y-103304999D01*
X134793499Y-103304994D01*
X134954500Y-103304994D01*
X134954500Y-103451005D01*
X134992286Y-103592026D01*
X135065289Y-103718472D01*
X135168527Y-103821710D01*
X135221380Y-103852225D01*
X135239551Y-103875906D01*
X135235655Y-103905500D01*
X135221380Y-103919775D01*
X135168527Y-103950289D01*
X135168527Y-103950290D01*
X135065290Y-104053527D01*
X135065289Y-104053527D01*
X134992286Y-104179973D01*
X134954500Y-104320994D01*
X134954500Y-104467005D01*
X134992286Y-104608026D01*
X135065289Y-104734472D01*
X135168527Y-104837710D01*
X135294973Y-104910713D01*
X135435994Y-104948499D01*
X135435997Y-104948499D01*
X135435999Y-104948500D01*
X135436000Y-104948500D01*
X135582000Y-104948500D01*
X135582001Y-104948500D01*
X135602953Y-104942886D01*
X135723026Y-104910713D01*
X135723026Y-104910712D01*
X135723029Y-104910712D01*
X135849471Y-104837711D01*
X135849472Y-104837710D01*
X135849473Y-104837710D01*
X135952710Y-104734473D01*
X135952710Y-104734472D01*
X135952711Y-104734471D01*
X136025712Y-104608029D01*
X136063500Y-104467001D01*
X136063500Y-104320999D01*
X136063499Y-104320994D01*
X136025713Y-104179973D01*
X135952710Y-104053527D01*
X135849472Y-103950289D01*
X135817222Y-103931670D01*
X135796617Y-103919774D01*
X135778447Y-103896094D01*
X135782343Y-103866500D01*
X135796617Y-103852225D01*
X135849471Y-103821711D01*
X135849472Y-103821710D01*
X135849473Y-103821710D01*
X135952710Y-103718473D01*
X135952710Y-103718472D01*
X135971458Y-103686000D01*
X136025712Y-103592029D01*
X136063500Y-103451001D01*
X136063500Y-103304999D01*
X136063499Y-103304994D01*
X136224500Y-103304994D01*
X136224500Y-103451005D01*
X136262286Y-103592026D01*
X136335289Y-103718472D01*
X136438527Y-103821710D01*
X136491380Y-103852225D01*
X136509551Y-103875906D01*
X136505655Y-103905500D01*
X136491380Y-103919775D01*
X136438527Y-103950289D01*
X136438527Y-103950290D01*
X136335290Y-104053527D01*
X136335289Y-104053527D01*
X136262286Y-104179973D01*
X136224500Y-104320994D01*
X136224500Y-104467005D01*
X136262286Y-104608026D01*
X136335289Y-104734472D01*
X136438527Y-104837710D01*
X136564973Y-104910713D01*
X136705994Y-104948499D01*
X136705997Y-104948499D01*
X136705999Y-104948500D01*
X136706000Y-104948500D01*
X136852000Y-104948500D01*
X136852001Y-104948500D01*
X136872953Y-104942886D01*
X136993026Y-104910713D01*
X136993026Y-104910712D01*
X136993029Y-104910712D01*
X137119471Y-104837711D01*
X137119472Y-104837710D01*
X137119473Y-104837710D01*
X137222710Y-104734473D01*
X137222710Y-104734472D01*
X137222711Y-104734471D01*
X137295712Y-104608029D01*
X137333500Y-104467001D01*
X137333500Y-104320999D01*
X137333499Y-104320994D01*
X137295713Y-104179973D01*
X137222710Y-104053527D01*
X137119472Y-103950289D01*
X137087222Y-103931670D01*
X137066617Y-103919774D01*
X137048447Y-103896094D01*
X137052343Y-103866500D01*
X137066617Y-103852225D01*
X137119471Y-103821711D01*
X137119472Y-103821710D01*
X137119473Y-103821710D01*
X137222710Y-103718473D01*
X137222710Y-103718472D01*
X137241458Y-103686000D01*
X137295712Y-103592029D01*
X137333500Y-103451001D01*
X137333500Y-103304999D01*
X137333499Y-103304994D01*
X137494500Y-103304994D01*
X137494500Y-103451005D01*
X137532286Y-103592026D01*
X137605289Y-103718472D01*
X137708527Y-103821710D01*
X137761380Y-103852225D01*
X137779551Y-103875906D01*
X137775655Y-103905500D01*
X137761380Y-103919775D01*
X137708527Y-103950289D01*
X137708527Y-103950290D01*
X137605290Y-104053527D01*
X137605289Y-104053527D01*
X137532286Y-104179973D01*
X137494500Y-104320994D01*
X137494500Y-104467005D01*
X137532286Y-104608026D01*
X137605289Y-104734472D01*
X137708527Y-104837710D01*
X137834973Y-104910713D01*
X137975994Y-104948499D01*
X137975997Y-104948499D01*
X137975999Y-104948500D01*
X137976000Y-104948500D01*
X138122000Y-104948500D01*
X138122001Y-104948500D01*
X138142953Y-104942886D01*
X138263026Y-104910713D01*
X138263026Y-104910712D01*
X138263029Y-104910712D01*
X138389471Y-104837711D01*
X138389472Y-104837710D01*
X138389473Y-104837710D01*
X138492710Y-104734473D01*
X138492710Y-104734472D01*
X138492711Y-104734471D01*
X138565712Y-104608029D01*
X138603500Y-104467001D01*
X138603500Y-104447994D01*
X139272500Y-104447994D01*
X139272500Y-104594005D01*
X139310286Y-104735026D01*
X139383289Y-104861472D01*
X139486527Y-104964710D01*
X139612973Y-105037713D01*
X139676851Y-105054829D01*
X139700532Y-105073000D01*
X139704428Y-105102594D01*
X139686257Y-105126275D01*
X139676851Y-105130171D01*
X139612973Y-105147286D01*
X139486527Y-105220289D01*
X139486527Y-105220290D01*
X139383290Y-105323527D01*
X139383289Y-105323527D01*
X139310286Y-105449973D01*
X139272500Y-105590994D01*
X139272500Y-105737005D01*
X139310286Y-105878026D01*
X139383289Y-106004472D01*
X139486527Y-106107710D01*
X139486529Y-106107711D01*
X139609872Y-106178923D01*
X139612973Y-106180713D01*
X139753994Y-106218499D01*
X139753997Y-106218499D01*
X139753999Y-106218500D01*
X139754000Y-106218500D01*
X139900000Y-106218500D01*
X139900001Y-106218500D01*
X140014121Y-106187922D01*
X140041026Y-106180713D01*
X140041026Y-106180712D01*
X140041029Y-106180712D01*
X140167471Y-106107711D01*
X140167472Y-106107710D01*
X140167473Y-106107710D01*
X140270710Y-106004473D01*
X140270710Y-106004472D01*
X140270711Y-106004471D01*
X140343712Y-105878029D01*
X140350576Y-105852414D01*
X140381499Y-105737005D01*
X140381500Y-105736999D01*
X140381500Y-105591000D01*
X140381499Y-105590994D01*
X140343713Y-105449973D01*
X140270710Y-105323527D01*
X140167472Y-105220289D01*
X140041026Y-105147286D01*
X139977148Y-105130171D01*
X139953467Y-105112000D01*
X139949571Y-105082406D01*
X139967742Y-105058725D01*
X139977148Y-105054829D01*
X140041026Y-105037713D01*
X140041026Y-105037712D01*
X140041029Y-105037712D01*
X140167471Y-104964711D01*
X140167472Y-104964710D01*
X140167473Y-104964710D01*
X140270710Y-104861473D01*
X140270710Y-104861472D01*
X140270711Y-104861471D01*
X140343712Y-104735029D01*
X140381500Y-104594001D01*
X140381500Y-104447999D01*
X140354969Y-104348983D01*
X140343713Y-104306973D01*
X140270710Y-104180527D01*
X140167472Y-104077289D01*
X140041026Y-104004286D01*
X139900005Y-103966500D01*
X139900001Y-103966500D01*
X139753999Y-103966500D01*
X139753994Y-103966500D01*
X139612973Y-104004286D01*
X139486527Y-104077289D01*
X139486527Y-104077290D01*
X139383290Y-104180527D01*
X139383289Y-104180527D01*
X139310286Y-104306973D01*
X139272500Y-104447994D01*
X138603500Y-104447994D01*
X138603500Y-104320999D01*
X138603499Y-104320994D01*
X138565713Y-104179973D01*
X138492710Y-104053527D01*
X138389472Y-103950289D01*
X138357222Y-103931670D01*
X138336617Y-103919774D01*
X138318447Y-103896094D01*
X138322343Y-103866500D01*
X138336617Y-103852225D01*
X138389471Y-103821711D01*
X138389472Y-103821710D01*
X138389473Y-103821710D01*
X138492710Y-103718473D01*
X138492710Y-103718472D01*
X138511458Y-103686000D01*
X138565712Y-103592029D01*
X138603500Y-103451001D01*
X138603500Y-103304999D01*
X138599448Y-103289876D01*
X138565713Y-103163973D01*
X138492710Y-103037527D01*
X138389472Y-102934289D01*
X138263026Y-102861286D01*
X138122005Y-102823500D01*
X138122001Y-102823500D01*
X137975999Y-102823500D01*
X137975994Y-102823500D01*
X137834973Y-102861286D01*
X137708527Y-102934289D01*
X137708527Y-102934290D01*
X137605290Y-103037527D01*
X137605289Y-103037527D01*
X137532286Y-103163973D01*
X137494500Y-103304994D01*
X137333499Y-103304994D01*
X137329448Y-103289876D01*
X137295713Y-103163973D01*
X137222710Y-103037527D01*
X137119472Y-102934289D01*
X136993026Y-102861286D01*
X136852005Y-102823500D01*
X136852001Y-102823500D01*
X136705999Y-102823500D01*
X136705994Y-102823500D01*
X136564973Y-102861286D01*
X136438527Y-102934289D01*
X136438527Y-102934290D01*
X136335290Y-103037527D01*
X136335289Y-103037527D01*
X136262286Y-103163973D01*
X136224500Y-103304994D01*
X136063499Y-103304994D01*
X136059448Y-103289876D01*
X136025713Y-103163973D01*
X135952710Y-103037527D01*
X135849472Y-102934289D01*
X135723026Y-102861286D01*
X135582005Y-102823500D01*
X135582001Y-102823500D01*
X135435999Y-102823500D01*
X135435994Y-102823500D01*
X135294973Y-102861286D01*
X135168527Y-102934289D01*
X135168527Y-102934290D01*
X135065290Y-103037527D01*
X135065289Y-103037527D01*
X134992286Y-103163973D01*
X134954500Y-103304994D01*
X134793499Y-103304994D01*
X134789448Y-103289876D01*
X134755713Y-103163973D01*
X134682710Y-103037527D01*
X134579472Y-102934289D01*
X134453026Y-102861286D01*
X134312005Y-102823500D01*
X134312001Y-102823500D01*
X134165999Y-102823500D01*
X134165994Y-102823500D01*
X134024973Y-102861286D01*
X133898527Y-102934289D01*
X133898527Y-102934290D01*
X133795290Y-103037527D01*
X133795289Y-103037527D01*
X133722286Y-103163973D01*
X133684500Y-103304994D01*
X132888499Y-103304994D01*
X132884448Y-103289876D01*
X132850713Y-103163973D01*
X132777710Y-103037527D01*
X132674472Y-102934289D01*
X132548026Y-102861286D01*
X132407005Y-102823500D01*
X132407001Y-102823500D01*
X132260999Y-102823500D01*
X132260994Y-102823500D01*
X132119973Y-102861286D01*
X131993527Y-102934289D01*
X131993527Y-102934290D01*
X131890290Y-103037527D01*
X131890289Y-103037527D01*
X131817286Y-103163973D01*
X131779500Y-103304994D01*
X131618499Y-103304994D01*
X131614448Y-103289876D01*
X131580713Y-103163973D01*
X131507710Y-103037527D01*
X131404472Y-102934289D01*
X131278026Y-102861286D01*
X131137005Y-102823500D01*
X131137001Y-102823500D01*
X130990999Y-102823500D01*
X130990994Y-102823500D01*
X130849973Y-102861286D01*
X130723527Y-102934289D01*
X130723527Y-102934290D01*
X130620290Y-103037527D01*
X130620289Y-103037527D01*
X130547286Y-103163973D01*
X130509500Y-103304994D01*
X130348499Y-103304994D01*
X130344448Y-103289876D01*
X130310713Y-103163973D01*
X130237710Y-103037527D01*
X130134472Y-102934289D01*
X130008026Y-102861286D01*
X129867005Y-102823500D01*
X129867001Y-102823500D01*
X129720999Y-102823500D01*
X129720994Y-102823500D01*
X129579973Y-102861286D01*
X129453527Y-102934289D01*
X129453527Y-102934290D01*
X129350290Y-103037527D01*
X129350289Y-103037527D01*
X129277286Y-103163973D01*
X129239500Y-103304994D01*
X129078499Y-103304994D01*
X129074448Y-103289876D01*
X129040713Y-103163973D01*
X128967710Y-103037527D01*
X128864472Y-102934289D01*
X128738026Y-102861286D01*
X128597005Y-102823500D01*
X128597001Y-102823500D01*
X128450999Y-102823500D01*
X128450994Y-102823500D01*
X128309973Y-102861286D01*
X128183527Y-102934289D01*
X128183527Y-102934290D01*
X128080290Y-103037527D01*
X128080289Y-103037527D01*
X128007286Y-103163973D01*
X127969500Y-103304994D01*
X125417640Y-103304994D01*
X125386699Y-103287131D01*
X125382617Y-103284774D01*
X125364447Y-103261094D01*
X125368343Y-103231500D01*
X125382617Y-103217225D01*
X125435471Y-103186711D01*
X125435472Y-103186710D01*
X125435473Y-103186710D01*
X125538710Y-103083473D01*
X125538710Y-103083472D01*
X125538711Y-103083471D01*
X125611712Y-102957029D01*
X125637366Y-102861288D01*
X125649499Y-102816005D01*
X125649500Y-102815999D01*
X125649500Y-102670000D01*
X125649499Y-102669994D01*
X125611713Y-102528973D01*
X125538710Y-102402527D01*
X125435472Y-102299289D01*
X125309026Y-102226286D01*
X125168005Y-102188500D01*
X125168001Y-102188500D01*
X125021999Y-102188500D01*
X125021994Y-102188500D01*
X124880973Y-102226286D01*
X124754527Y-102299289D01*
X124754527Y-102299290D01*
X124651290Y-102402527D01*
X124651289Y-102402527D01*
X124578286Y-102528973D01*
X124540500Y-102669994D01*
X124379499Y-102669994D01*
X124341713Y-102528973D01*
X124268710Y-102402527D01*
X124165472Y-102299289D01*
X124039026Y-102226286D01*
X123898005Y-102188500D01*
X123898001Y-102188500D01*
X123751999Y-102188500D01*
X123751994Y-102188500D01*
X123610973Y-102226286D01*
X123484527Y-102299289D01*
X123484527Y-102299290D01*
X123381290Y-102402527D01*
X123381289Y-102402527D01*
X123308286Y-102528973D01*
X123270500Y-102669994D01*
X123270500Y-102816005D01*
X123308286Y-102957026D01*
X123381289Y-103083472D01*
X123484527Y-103186710D01*
X123537380Y-103217225D01*
X123555551Y-103240906D01*
X123551655Y-103270500D01*
X123537380Y-103284775D01*
X123484527Y-103315289D01*
X123484527Y-103315290D01*
X123381290Y-103418527D01*
X123381289Y-103418527D01*
X123308286Y-103544973D01*
X123270500Y-103685994D01*
X123270500Y-103832005D01*
X123308286Y-103973026D01*
X123381289Y-104099472D01*
X123484527Y-104202710D01*
X123496885Y-104209845D01*
X123515056Y-104233526D01*
X123511160Y-104263120D01*
X123487479Y-104281291D01*
X123468707Y-104281642D01*
X123462133Y-104280141D01*
X123389427Y-104271949D01*
X123154689Y-104245500D01*
X122946837Y-104245500D01*
X122919260Y-104234077D01*
X122907837Y-104206500D01*
X122919260Y-104178923D01*
X122998710Y-104099473D01*
X122998710Y-104099472D01*
X123011517Y-104077290D01*
X123071712Y-103973029D01*
X123073462Y-103966500D01*
X123109499Y-103832005D01*
X123109500Y-103831999D01*
X123109500Y-103686000D01*
X123109499Y-103685994D01*
X123071713Y-103544973D01*
X122998710Y-103418527D01*
X122895472Y-103315289D01*
X122821181Y-103272397D01*
X122803010Y-103248716D01*
X122806906Y-103219122D01*
X122821181Y-103204847D01*
X122840471Y-103193711D01*
X122840472Y-103193710D01*
X122840473Y-103193710D01*
X122943710Y-103090473D01*
X122943710Y-103090472D01*
X122947751Y-103083473D01*
X123016712Y-102964029D01*
X123018589Y-102957026D01*
X123054499Y-102823005D01*
X123054500Y-102822999D01*
X123054500Y-102677000D01*
X123054499Y-102676994D01*
X123016713Y-102535973D01*
X123012670Y-102528971D01*
X122943711Y-102409529D01*
X122943710Y-102409527D01*
X122840472Y-102306289D01*
X122714026Y-102233286D01*
X122573005Y-102195500D01*
X122573001Y-102195500D01*
X122426999Y-102195500D01*
X122426994Y-102195500D01*
X122285973Y-102233286D01*
X122159527Y-102306289D01*
X122159527Y-102306290D01*
X122056290Y-102409527D01*
X122056289Y-102409527D01*
X121983286Y-102535973D01*
X121945500Y-102676994D01*
X121945500Y-102823005D01*
X121983286Y-102964026D01*
X122056289Y-103090472D01*
X122159527Y-103193710D01*
X122159529Y-103193711D01*
X122233818Y-103236602D01*
X122251989Y-103260282D01*
X122248093Y-103289876D01*
X122233819Y-103304150D01*
X122214530Y-103315287D01*
X122111290Y-103418527D01*
X122111289Y-103418527D01*
X122038286Y-103544973D01*
X122000500Y-103685994D01*
X122000500Y-103832005D01*
X122038286Y-103973026D01*
X122111289Y-104099472D01*
X122214527Y-104202710D01*
X122316197Y-104261409D01*
X122334368Y-104285090D01*
X122330472Y-104314684D01*
X122306791Y-104332855D01*
X122305375Y-104333206D01*
X122236259Y-104348981D01*
X122236250Y-104348983D01*
X121944241Y-104451162D01*
X121944238Y-104451163D01*
X121665491Y-104585402D01*
X121403536Y-104749998D01*
X121403531Y-104750001D01*
X121161662Y-104942886D01*
X120942886Y-105161662D01*
X120750001Y-105403531D01*
X120749998Y-105403536D01*
X120585402Y-105665491D01*
X120451163Y-105944238D01*
X120451162Y-105944241D01*
X120348983Y-106236250D01*
X120348981Y-106236259D01*
X120280141Y-106537865D01*
X120280141Y-106537867D01*
X120280140Y-106537877D01*
X120245500Y-106845311D01*
X120025900Y-106845311D01*
X120025900Y-101399994D01*
X150702500Y-101399994D01*
X150702500Y-101546005D01*
X150740286Y-101687026D01*
X150813289Y-101813472D01*
X150916527Y-101916710D01*
X151042973Y-101989713D01*
X151183994Y-102027499D01*
X151183997Y-102027499D01*
X151183999Y-102027500D01*
X151184000Y-102027500D01*
X151330000Y-102027500D01*
X151330001Y-102027500D01*
X151330005Y-102027499D01*
X151471026Y-101989713D01*
X151471026Y-101989712D01*
X151471029Y-101989712D01*
X151597471Y-101916711D01*
X151597472Y-101916710D01*
X151597473Y-101916710D01*
X151700710Y-101813473D01*
X151700710Y-101813472D01*
X151700711Y-101813471D01*
X151773712Y-101687029D01*
X151811500Y-101546001D01*
X151811500Y-101399999D01*
X151811499Y-101399994D01*
X151972500Y-101399994D01*
X151972500Y-101546005D01*
X152010286Y-101687026D01*
X152083289Y-101813472D01*
X152186527Y-101916710D01*
X152312973Y-101989713D01*
X152453994Y-102027499D01*
X152453997Y-102027499D01*
X152453999Y-102027500D01*
X152454000Y-102027500D01*
X152600000Y-102027500D01*
X152600001Y-102027500D01*
X152600005Y-102027499D01*
X152741026Y-101989713D01*
X152741026Y-101989712D01*
X152741029Y-101989712D01*
X152867471Y-101916711D01*
X152867472Y-101916710D01*
X152867473Y-101916710D01*
X152970710Y-101813473D01*
X152970710Y-101813472D01*
X152970711Y-101813471D01*
X153043712Y-101687029D01*
X153081500Y-101546001D01*
X153081500Y-101399999D01*
X153081499Y-101399994D01*
X153242500Y-101399994D01*
X153242500Y-101546005D01*
X153280286Y-101687026D01*
X153353289Y-101813472D01*
X153456527Y-101916710D01*
X153582973Y-101989713D01*
X153723994Y-102027499D01*
X153723997Y-102027499D01*
X153723999Y-102027500D01*
X153724000Y-102027500D01*
X153870000Y-102027500D01*
X153870001Y-102027500D01*
X153870005Y-102027499D01*
X154011026Y-101989713D01*
X154011026Y-101989712D01*
X154011029Y-101989712D01*
X154137471Y-101916711D01*
X154137472Y-101916710D01*
X154137473Y-101916710D01*
X154240710Y-101813473D01*
X154240710Y-101813472D01*
X154240711Y-101813471D01*
X154313712Y-101687029D01*
X154330829Y-101623148D01*
X154349000Y-101599467D01*
X154378594Y-101595571D01*
X154402275Y-101613742D01*
X154406171Y-101623148D01*
X154423286Y-101687026D01*
X154496289Y-101813472D01*
X154599527Y-101916710D01*
X154725973Y-101989713D01*
X154866994Y-102027499D01*
X154866997Y-102027499D01*
X154866999Y-102027500D01*
X154867000Y-102027500D01*
X155013000Y-102027500D01*
X155013001Y-102027500D01*
X155013005Y-102027499D01*
X155154026Y-101989713D01*
X155154026Y-101989712D01*
X155154029Y-101989712D01*
X155280471Y-101916711D01*
X155280472Y-101916710D01*
X155280473Y-101916710D01*
X155383710Y-101813473D01*
X155383710Y-101813472D01*
X155383711Y-101813471D01*
X155456712Y-101687029D01*
X155494500Y-101546001D01*
X155494500Y-101399999D01*
X155476349Y-101332257D01*
X155456713Y-101258973D01*
X155383710Y-101132527D01*
X155280472Y-101029289D01*
X155154026Y-100956286D01*
X155013005Y-100918500D01*
X155013001Y-100918500D01*
X154866999Y-100918500D01*
X154866994Y-100918500D01*
X154725973Y-100956286D01*
X154599527Y-101029289D01*
X154599527Y-101029290D01*
X154496290Y-101132527D01*
X154496289Y-101132527D01*
X154423286Y-101258973D01*
X154406171Y-101322851D01*
X154388000Y-101346532D01*
X154358406Y-101350428D01*
X154334725Y-101332257D01*
X154330829Y-101322851D01*
X154313713Y-101258973D01*
X154240710Y-101132527D01*
X154137472Y-101029289D01*
X154011026Y-100956286D01*
X153870005Y-100918500D01*
X153870001Y-100918500D01*
X153723999Y-100918500D01*
X153723994Y-100918500D01*
X153582973Y-100956286D01*
X153456527Y-101029289D01*
X153456527Y-101029290D01*
X153353290Y-101132527D01*
X153353289Y-101132527D01*
X153280286Y-101258973D01*
X153242500Y-101399994D01*
X153081499Y-101399994D01*
X153063349Y-101332257D01*
X153043713Y-101258973D01*
X152970710Y-101132527D01*
X152867472Y-101029289D01*
X152741026Y-100956286D01*
X152600005Y-100918500D01*
X152600001Y-100918500D01*
X152453999Y-100918500D01*
X152453994Y-100918500D01*
X152312973Y-100956286D01*
X152186527Y-101029289D01*
X152186527Y-101029290D01*
X152083290Y-101132527D01*
X152083289Y-101132527D01*
X152010286Y-101258973D01*
X151972500Y-101399994D01*
X151811499Y-101399994D01*
X151793349Y-101332257D01*
X151773713Y-101258973D01*
X151700710Y-101132527D01*
X151597472Y-101029289D01*
X151471026Y-100956286D01*
X151330005Y-100918500D01*
X151330001Y-100918500D01*
X151183999Y-100918500D01*
X151183994Y-100918500D01*
X151042973Y-100956286D01*
X150916527Y-101029289D01*
X150916527Y-101029290D01*
X150813290Y-101132527D01*
X150813289Y-101132527D01*
X150740286Y-101258973D01*
X150702500Y-101399994D01*
X120025900Y-101399994D01*
X120025900Y-96539000D01*
X120037323Y-96511423D01*
X120064900Y-96500000D01*
X128461000Y-96500000D01*
X128488577Y-96511423D01*
G37*
%TD.AperFunction*%
%TD*%
%TA.AperFunction,Conductor*%
%TO.N,/TIM1_CH2N*%
G36*
X145164270Y-78279496D02*
G01*
X145166055Y-78280959D01*
X145227176Y-78342080D01*
X145230603Y-78350353D01*
X145229085Y-78356116D01*
X145016701Y-78731338D01*
X145009644Y-78736850D01*
X145000756Y-78735757D01*
X145000057Y-78735329D01*
X144806026Y-78606779D01*
X144801022Y-78599353D01*
X144756113Y-78369601D01*
X144757889Y-78360825D01*
X144765298Y-78355885D01*
X145155486Y-78277760D01*
X145164270Y-78279496D01*
G37*
%TD.AperFunction*%
%TD*%
%TA.AperFunction,Conductor*%
%TO.N,/TIM1_CH2N*%
G36*
X131031444Y-79308231D02*
G01*
X131033877Y-79311785D01*
X131183917Y-79652147D01*
X131184118Y-79661099D01*
X131179743Y-79666573D01*
X130986532Y-79796604D01*
X130977756Y-79798380D01*
X130973468Y-79796604D01*
X130780256Y-79666573D01*
X130775305Y-79659110D01*
X130776081Y-79652149D01*
X130926123Y-79311785D01*
X130932596Y-79305597D01*
X130936829Y-79304804D01*
X131023171Y-79304804D01*
X131031444Y-79308231D01*
G37*
%TD.AperFunction*%
%TD*%
%TA.AperFunction,Conductor*%
%TO.N,/TIM1_CH3N*%
G36*
X144549904Y-78981331D02*
G01*
X144627527Y-79026148D01*
X144627529Y-79026148D01*
X144627530Y-79026149D01*
X144709656Y-79048154D01*
X144711317Y-79048739D01*
X144891044Y-79127967D01*
X144897231Y-79134439D01*
X144898024Y-79138672D01*
X144898024Y-79225015D01*
X144894597Y-79233288D01*
X144891043Y-79235721D01*
X144550680Y-79385761D01*
X144541728Y-79385962D01*
X144536254Y-79381587D01*
X144406223Y-79188375D01*
X144404447Y-79179599D01*
X144406220Y-79175317D01*
X144534350Y-78984928D01*
X144541810Y-78979980D01*
X144549904Y-78981331D01*
G37*
%TD.AperFunction*%
%TD*%
%TA.AperFunction,Conductor*%
%TO.N,/TIM1_CH3N*%
G36*
X129074002Y-79607500D02*
G01*
X129074267Y-79607773D01*
X129358467Y-79911075D01*
X129361623Y-79919455D01*
X129357929Y-79927613D01*
X129356461Y-79928782D01*
X129164061Y-80058266D01*
X129155285Y-80060042D01*
X129155201Y-80060025D01*
X128925521Y-80013402D01*
X128918095Y-80008398D01*
X128916252Y-80000387D01*
X128967844Y-79614224D01*
X128972336Y-79606477D01*
X128979441Y-79604073D01*
X129065729Y-79604073D01*
X129074002Y-79607500D01*
G37*
%TD.AperFunction*%
%TD*%
%TA.AperFunction,Conductor*%
%TO.N,/ADC1_IN10*%
G36*
X164554107Y-90249191D02*
G01*
X164556445Y-90252534D01*
X164747729Y-90664264D01*
X164748107Y-90673211D01*
X164743645Y-90678904D01*
X164509027Y-90836612D01*
X164500249Y-90838383D01*
X164495973Y-90836612D01*
X164261354Y-90678904D01*
X164256400Y-90671445D01*
X164257270Y-90664264D01*
X164448555Y-90252534D01*
X164455149Y-90246475D01*
X164459166Y-90245764D01*
X164545834Y-90245764D01*
X164554107Y-90249191D01*
G37*
%TD.AperFunction*%
%TD*%
%TA.AperFunction,Conductor*%
%TO.N,/ADC1_IN10*%
G36*
X157754850Y-80392081D02*
G01*
X158095216Y-80542123D01*
X158101403Y-80548595D01*
X158102196Y-80552828D01*
X158102196Y-80639171D01*
X158098769Y-80647444D01*
X158095215Y-80649877D01*
X157754852Y-80799917D01*
X157745900Y-80800118D01*
X157740426Y-80795743D01*
X157703403Y-80740732D01*
X157610394Y-80602529D01*
X157608619Y-80593756D01*
X157610393Y-80589471D01*
X157740426Y-80396255D01*
X157747889Y-80391305D01*
X157754850Y-80392081D01*
G37*
%TD.AperFunction*%
%TD*%
%TA.AperFunction,Conductor*%
%TO.N,/ADC3_IN3*%
G36*
X138796075Y-73146884D02*
G01*
X138799629Y-73149317D01*
X138860682Y-73210370D01*
X138864109Y-73218643D01*
X138863316Y-73222876D01*
X138728738Y-73569644D01*
X138722550Y-73576117D01*
X138715587Y-73576894D01*
X138487021Y-73532217D01*
X138479558Y-73527266D01*
X138477782Y-73522978D01*
X138433105Y-73294412D01*
X138434881Y-73285636D01*
X138440353Y-73281261D01*
X138787123Y-73146683D01*
X138796075Y-73146884D01*
G37*
%TD.AperFunction*%
%TD*%
%TA.AperFunction,Conductor*%
%TO.N,/ADC3_IN3*%
G36*
X154801444Y-72768231D02*
G01*
X154803877Y-72771785D01*
X154953917Y-73112147D01*
X154954118Y-73121099D01*
X154949743Y-73126573D01*
X154756532Y-73256604D01*
X154747756Y-73258380D01*
X154743468Y-73256604D01*
X154550256Y-73126573D01*
X154545305Y-73119110D01*
X154546081Y-73112149D01*
X154696123Y-72771785D01*
X154702596Y-72765597D01*
X154706829Y-72764804D01*
X154793171Y-72764804D01*
X154801444Y-72768231D01*
G37*
%TD.AperFunction*%
%TD*%
%TA.AperFunction,Conductor*%
%TO.N,/DRV_STA*%
G36*
X152432749Y-80691911D02*
G01*
X152433613Y-80693452D01*
X152598124Y-81046852D01*
X152599217Y-81051790D01*
X152599217Y-81136527D01*
X152595790Y-81144800D01*
X152587517Y-81148227D01*
X152585222Y-81148000D01*
X152182642Y-81067479D01*
X152175202Y-81062496D01*
X152173453Y-81053769D01*
X152218065Y-80824797D01*
X152223011Y-80817333D01*
X152223030Y-80817320D01*
X152416528Y-80688646D01*
X152425314Y-80686920D01*
X152432749Y-80691911D01*
G37*
%TD.AperFunction*%
%TD*%
%TA.AperFunction,Conductor*%
%TO.N,/DRV_STA*%
G36*
X161643370Y-83099927D02*
G01*
X161983736Y-83249969D01*
X161989923Y-83256441D01*
X161990716Y-83260674D01*
X161990716Y-83347017D01*
X161987289Y-83355290D01*
X161983735Y-83357723D01*
X161643372Y-83507763D01*
X161634420Y-83507964D01*
X161628946Y-83503589D01*
X161591923Y-83448578D01*
X161498914Y-83310375D01*
X161497139Y-83301602D01*
X161498913Y-83297317D01*
X161628946Y-83104101D01*
X161636409Y-83099151D01*
X161643370Y-83099927D01*
G37*
%TD.AperFunction*%
%TD*%
%TA.AperFunction,Conductor*%
%TO.N,/ADC2_IN1*%
G36*
X149262836Y-80161850D02*
G01*
X149263652Y-80163295D01*
X149457538Y-80571780D01*
X149457989Y-80580723D01*
X149455241Y-80585070D01*
X149394169Y-80646142D01*
X149385896Y-80649569D01*
X149382548Y-80649080D01*
X149011398Y-80538233D01*
X149004451Y-80532582D01*
X149003263Y-80524778D01*
X149048354Y-80294096D01*
X149053303Y-80286636D01*
X149246620Y-80158557D01*
X149255410Y-80156846D01*
X149262836Y-80161850D01*
G37*
%TD.AperFunction*%
%TD*%
%TA.AperFunction,Conductor*%
%TO.N,/ADC2_IN1*%
G36*
X139837850Y-85756081D02*
G01*
X140178216Y-85906123D01*
X140184403Y-85912595D01*
X140185196Y-85916828D01*
X140185196Y-86003171D01*
X140181769Y-86011444D01*
X140178215Y-86013877D01*
X139837852Y-86163917D01*
X139828900Y-86164118D01*
X139823426Y-86159743D01*
X139786403Y-86104732D01*
X139693394Y-85966529D01*
X139691619Y-85957756D01*
X139693393Y-85953471D01*
X139823426Y-85760255D01*
X139830889Y-85755305D01*
X139837850Y-85756081D01*
G37*
%TD.AperFunction*%
%TD*%
%TA.AperFunction,Conductor*%
%TO.N,/ADC3_IN2*%
G36*
X150229583Y-79821165D02*
G01*
X150459631Y-80151216D01*
X150461550Y-80159961D01*
X150458305Y-80166178D01*
X150397222Y-80227261D01*
X150388949Y-80230688D01*
X150387987Y-80230648D01*
X149979439Y-80196956D01*
X149971476Y-80192861D01*
X149968741Y-80184334D01*
X149968915Y-80183066D01*
X150013538Y-79954782D01*
X150018487Y-79947322D01*
X150213527Y-79818102D01*
X150222314Y-79816391D01*
X150229583Y-79821165D01*
G37*
%TD.AperFunction*%
%TD*%
%TA.AperFunction,Conductor*%
%TO.N,/ADC3_IN2*%
G36*
X140378142Y-86350403D02*
G01*
X140718508Y-86500445D01*
X140724695Y-86506917D01*
X140725488Y-86511150D01*
X140725488Y-86597493D01*
X140722061Y-86605766D01*
X140718507Y-86608199D01*
X140378144Y-86758239D01*
X140369192Y-86758440D01*
X140363718Y-86754065D01*
X140326695Y-86699054D01*
X140233686Y-86560851D01*
X140231911Y-86552078D01*
X140233685Y-86547793D01*
X140363718Y-86354577D01*
X140371181Y-86349627D01*
X140378142Y-86350403D01*
G37*
%TD.AperFunction*%
%TD*%
%TA.AperFunction,Conductor*%
%TO.N,GND*%
G36*
X141826653Y-86602343D02*
G01*
X141827012Y-86602688D01*
X142011275Y-86786951D01*
X142014702Y-86795224D01*
X142014360Y-86798031D01*
X141927868Y-87147960D01*
X141922556Y-87155170D01*
X141914266Y-87156636D01*
X141731386Y-87120889D01*
X141681619Y-87111161D01*
X141677327Y-87109382D01*
X141483410Y-86978706D01*
X141478465Y-86971241D01*
X141480246Y-86962466D01*
X141481327Y-86961094D01*
X141810122Y-86603046D01*
X141818241Y-86599272D01*
X141826653Y-86602343D01*
G37*
%TD.AperFunction*%
%TD*%
%TA.AperFunction,Conductor*%
%TO.N,/TIM1_CH3*%
G36*
X145298022Y-81153368D02*
G01*
X145429357Y-81348519D01*
X145431133Y-81357295D01*
X145431116Y-81357379D01*
X145385044Y-81584344D01*
X145380040Y-81591770D01*
X145371250Y-81593482D01*
X145369481Y-81592975D01*
X144943496Y-81433643D01*
X144936948Y-81427535D01*
X144935895Y-81422684D01*
X144935895Y-81336317D01*
X144939322Y-81328044D01*
X144942212Y-81325929D01*
X145282935Y-81149509D01*
X145291858Y-81148749D01*
X145298022Y-81153368D01*
G37*
%TD.AperFunction*%
%TD*%
%TA.AperFunction,Conductor*%
%TO.N,/TIM1_CH3*%
G36*
X130208743Y-79810501D02*
G01*
X130213118Y-79815975D01*
X130347696Y-80162743D01*
X130347495Y-80171695D01*
X130345062Y-80175249D01*
X130284009Y-80236302D01*
X130275736Y-80239729D01*
X130271503Y-80238936D01*
X129924735Y-80104358D01*
X129918262Y-80098170D01*
X129917485Y-80091207D01*
X129962162Y-79862641D01*
X129967113Y-79855178D01*
X129971399Y-79853402D01*
X130199967Y-79808725D01*
X130208743Y-79810501D01*
G37*
%TD.AperFunction*%
%TD*%
%TA.AperFunction,Conductor*%
%TO.N,/SPI3_SCK*%
G36*
X145728188Y-82318206D02*
G01*
X146131782Y-82530275D01*
X146137512Y-82537157D01*
X146136697Y-82546074D01*
X146136090Y-82547100D01*
X146008054Y-82740108D01*
X146000625Y-82745108D01*
X146000578Y-82745117D01*
X145771477Y-82790503D01*
X145762695Y-82788749D01*
X145757726Y-82781300D01*
X145757598Y-82780509D01*
X145711139Y-82411530D01*
X145711047Y-82410068D01*
X145711047Y-82328564D01*
X145714474Y-82320291D01*
X145722747Y-82316864D01*
X145728188Y-82318206D01*
G37*
%TD.AperFunction*%
%TD*%
%TA.AperFunction,Conductor*%
%TO.N,/SPI3_SCK*%
G36*
X136382081Y-81850181D02*
G01*
X136443134Y-81911234D01*
X136446561Y-81919507D01*
X136446538Y-81920242D01*
X136420607Y-82332004D01*
X136416667Y-82340046D01*
X136408195Y-82342946D01*
X136406686Y-82342752D01*
X136178672Y-82298183D01*
X136171209Y-82293232D01*
X136171204Y-82293225D01*
X136041880Y-82098027D01*
X136040169Y-82089240D01*
X136044774Y-82082090D01*
X136366949Y-81848974D01*
X136375661Y-81846902D01*
X136382081Y-81850181D01*
G37*
%TD.AperFunction*%
%TD*%
%TA.AperFunction,Conductor*%
%TO.N,/I2C1_SCL*%
G36*
X147654495Y-81828211D02*
G01*
X148006734Y-81957467D01*
X148013320Y-81963534D01*
X148014186Y-81970696D01*
X147969544Y-82199079D01*
X147964593Y-82206541D01*
X147960306Y-82208317D01*
X147731558Y-82253030D01*
X147722781Y-82251254D01*
X147718487Y-82245984D01*
X147578588Y-81904679D01*
X147578621Y-81895728D01*
X147581138Y-81891975D01*
X147642192Y-81830921D01*
X147650464Y-81827495D01*
X147654495Y-81828211D01*
G37*
%TD.AperFunction*%
%TD*%
%TA.AperFunction,Conductor*%
%TO.N,/I2C1_SCL*%
G36*
X145086528Y-74313393D02*
G01*
X145232893Y-74411895D01*
X145279492Y-74443257D01*
X145284443Y-74450720D01*
X145283520Y-74458002D01*
X145123978Y-74792402D01*
X145117322Y-74798393D01*
X145113418Y-74799064D01*
X145026976Y-74799064D01*
X145018703Y-74795637D01*
X145016189Y-74791895D01*
X144875856Y-74457759D01*
X144875813Y-74448806D01*
X144880112Y-74443523D01*
X145073470Y-74313394D01*
X145082244Y-74311619D01*
X145086528Y-74313393D01*
G37*
%TD.AperFunction*%
%TD*%
%TA.AperFunction,Conductor*%
%TO.N,/TIM1_CH2*%
G36*
X132024363Y-79724881D02*
G01*
X132028738Y-79730355D01*
X132163316Y-80077123D01*
X132163115Y-80086075D01*
X132160682Y-80089629D01*
X132099629Y-80150682D01*
X132091356Y-80154109D01*
X132087123Y-80153316D01*
X131740355Y-80018738D01*
X131733882Y-80012550D01*
X131733105Y-80005587D01*
X131777782Y-79777021D01*
X131782733Y-79769558D01*
X131787019Y-79767782D01*
X132015587Y-79723105D01*
X132024363Y-79724881D01*
G37*
%TD.AperFunction*%
%TD*%
%TA.AperFunction,Conductor*%
%TO.N,/TIM1_CH2*%
G36*
X145092978Y-80607782D02*
G01*
X145100441Y-80612733D01*
X145102217Y-80617021D01*
X145146894Y-80845587D01*
X145145118Y-80854363D01*
X145139644Y-80858738D01*
X144792876Y-80993316D01*
X144783924Y-80993115D01*
X144780370Y-80990682D01*
X144719317Y-80929629D01*
X144715890Y-80921356D01*
X144716683Y-80917123D01*
X144739342Y-80858738D01*
X144851261Y-80570354D01*
X144857449Y-80563882D01*
X144864412Y-80563105D01*
X145092978Y-80607782D01*
G37*
%TD.AperFunction*%
%TD*%
%TA.AperFunction,Conductor*%
%TO.N,Net-(U8-PC13)*%
G36*
X165867850Y-76356081D02*
G01*
X166208216Y-76506123D01*
X166214403Y-76512595D01*
X166215196Y-76516828D01*
X166215196Y-76603171D01*
X166211769Y-76611444D01*
X166208215Y-76613877D01*
X165867852Y-76763917D01*
X165858900Y-76764118D01*
X165853426Y-76759743D01*
X165816403Y-76704732D01*
X165723394Y-76566529D01*
X165721619Y-76557756D01*
X165723393Y-76553471D01*
X165853426Y-76360255D01*
X165860889Y-76355305D01*
X165867850Y-76356081D01*
G37*
%TD.AperFunction*%
%TD*%
%TA.AperFunction,Conductor*%
%TO.N,Net-(U8-PC13)*%
G36*
X151546902Y-83386204D02*
G01*
X151550329Y-83394477D01*
X151550320Y-83394939D01*
X151533324Y-83825132D01*
X151529573Y-83833263D01*
X151521171Y-83836361D01*
X151519395Y-83836154D01*
X151292388Y-83791924D01*
X151284923Y-83786978D01*
X151284883Y-83786919D01*
X151155183Y-83591876D01*
X151153456Y-83583089D01*
X151158445Y-83575655D01*
X151446260Y-83384726D01*
X151452728Y-83382777D01*
X151538629Y-83382777D01*
X151546902Y-83386204D01*
G37*
%TD.AperFunction*%
%TD*%
%TA.AperFunction,Conductor*%
%TO.N,/SWDIO*%
G36*
X153022460Y-82621472D02*
G01*
X153023964Y-82622742D01*
X153085094Y-82683872D01*
X153088521Y-82692145D01*
X153086874Y-82698131D01*
X152870103Y-83062158D01*
X152862925Y-83067513D01*
X152854064Y-83066225D01*
X152853588Y-83065926D01*
X152659329Y-82937225D01*
X152654325Y-82929799D01*
X152609482Y-82700384D01*
X152611258Y-82691609D01*
X152618721Y-82686658D01*
X152618933Y-82686619D01*
X153013730Y-82619481D01*
X153022460Y-82621472D01*
G37*
%TD.AperFunction*%
%TD*%
%TA.AperFunction,Conductor*%
%TO.N,/SWDIO*%
G36*
X161666651Y-81404371D02*
G01*
X161770338Y-81558439D01*
X161796604Y-81597468D01*
X161798380Y-81606244D01*
X161796604Y-81610532D01*
X161666495Y-81803859D01*
X161659032Y-81808810D01*
X161652221Y-81808099D01*
X161311937Y-81663824D01*
X161305658Y-81657439D01*
X161304804Y-81653052D01*
X161304804Y-81566712D01*
X161308231Y-81558439D01*
X161311632Y-81556075D01*
X161652078Y-81400264D01*
X161661025Y-81399938D01*
X161666651Y-81404371D01*
G37*
%TD.AperFunction*%
%TD*%
%TA.AperFunction,Conductor*%
%TO.N,/SWCLK*%
G36*
X153166075Y-83446884D02*
G01*
X153169629Y-83449317D01*
X153230682Y-83510370D01*
X153234109Y-83518643D01*
X153233316Y-83522876D01*
X153098738Y-83869644D01*
X153092550Y-83876117D01*
X153085587Y-83876894D01*
X152857021Y-83832217D01*
X152849558Y-83827266D01*
X152847782Y-83822978D01*
X152803105Y-83594412D01*
X152804881Y-83585636D01*
X152810353Y-83581261D01*
X153157123Y-83446683D01*
X153166075Y-83446884D01*
G37*
%TD.AperFunction*%
%TD*%
%TA.AperFunction,Conductor*%
%TO.N,/SWCLK*%
G36*
X161532876Y-82246683D02*
G01*
X161879644Y-82381261D01*
X161886117Y-82387449D01*
X161886894Y-82394412D01*
X161842217Y-82622978D01*
X161837266Y-82630441D01*
X161832978Y-82632217D01*
X161604412Y-82676894D01*
X161595636Y-82675118D01*
X161591261Y-82669644D01*
X161456683Y-82322876D01*
X161456884Y-82313924D01*
X161459314Y-82310373D01*
X161520371Y-82249316D01*
X161528643Y-82245890D01*
X161532876Y-82246683D01*
G37*
%TD.AperFunction*%
%TD*%
%TA.AperFunction,Conductor*%
%TO.N,GND*%
G36*
X136950127Y-88370691D02*
G01*
X137369119Y-88533996D01*
X137375582Y-88540192D01*
X137376569Y-88544896D01*
X137376569Y-88805610D01*
X137373142Y-88813883D01*
X137365923Y-88817262D01*
X136947616Y-88855094D01*
X136939068Y-88852427D01*
X136935097Y-88845771D01*
X136887880Y-88613167D01*
X136887880Y-88608516D01*
X136934416Y-88379265D01*
X136939420Y-88371840D01*
X136948210Y-88370128D01*
X136950127Y-88370691D01*
G37*
%TD.AperFunction*%
%TD*%
%TA.AperFunction,Conductor*%
%TO.N,GND*%
G36*
X136688647Y-88477319D02*
G01*
X136885033Y-88607431D01*
X136890037Y-88614856D01*
X136890054Y-88614939D01*
X136923524Y-88786172D01*
X136935214Y-88845974D01*
X136933438Y-88854751D01*
X136927463Y-88859308D01*
X136588839Y-88973286D01*
X136579905Y-88972677D01*
X136576834Y-88970470D01*
X136392536Y-88786172D01*
X136389109Y-88777899D01*
X136392399Y-88769766D01*
X136673778Y-88478938D01*
X136681993Y-88475376D01*
X136688647Y-88477319D01*
G37*
%TD.AperFunction*%
%TD*%
%TA.AperFunction,Conductor*%
%TO.N,+3.3V*%
G36*
X147621382Y-89484351D02*
G01*
X147628807Y-89489355D01*
X147630519Y-89498145D01*
X147630451Y-89498459D01*
X147531799Y-89924109D01*
X147526593Y-89931394D01*
X147520401Y-89933167D01*
X147259517Y-89933167D01*
X147251244Y-89929740D01*
X147248142Y-89924207D01*
X147145615Y-89498536D01*
X147147010Y-89489690D01*
X147154250Y-89484421D01*
X147154604Y-89484342D01*
X147385646Y-89437443D01*
X147390296Y-89437443D01*
X147621382Y-89484351D01*
G37*
%TD.AperFunction*%
%TD*%
%TA.AperFunction,Conductor*%
%TO.N,+5V*%
G36*
X127194781Y-75818187D02*
G01*
X127512153Y-76094397D01*
X127516144Y-76102414D01*
X127514226Y-76109685D01*
X127383018Y-76307726D01*
X127379726Y-76311018D01*
X127184332Y-76440472D01*
X127175543Y-76442184D01*
X127168116Y-76437180D01*
X127167325Y-76435785D01*
X126974604Y-76034018D01*
X126974117Y-76025078D01*
X126976879Y-76020688D01*
X127178828Y-75818739D01*
X127187100Y-75815313D01*
X127194781Y-75818187D01*
G37*
%TD.AperFunction*%
%TD*%
%TA.AperFunction,Conductor*%
%TO.N,+5V*%
G36*
X127329515Y-76067867D02*
G01*
X127334554Y-76075270D01*
X127334565Y-76075323D01*
X127381527Y-76306672D01*
X127381527Y-76311328D01*
X127334565Y-76542676D01*
X127329561Y-76550102D01*
X127320771Y-76551814D01*
X127320718Y-76551803D01*
X126895123Y-76463337D01*
X126887720Y-76458298D01*
X126885804Y-76451882D01*
X126885804Y-76166117D01*
X126889231Y-76157844D01*
X126895120Y-76154663D01*
X127320718Y-76066196D01*
X127329515Y-76067867D01*
G37*
%TD.AperFunction*%
%TD*%
%TA.AperFunction,Conductor*%
%TO.N,+5V*%
G36*
X123336565Y-89209300D02*
G01*
X123700062Y-89447686D01*
X123705101Y-89455089D01*
X123703430Y-89463886D01*
X123703400Y-89463932D01*
X123573018Y-89660726D01*
X123569726Y-89664018D01*
X123372932Y-89794400D01*
X123364143Y-89796112D01*
X123356716Y-89791108D01*
X123356686Y-89791062D01*
X123118300Y-89427565D01*
X123116629Y-89418768D01*
X123119809Y-89412878D01*
X123321877Y-89210810D01*
X123330149Y-89207384D01*
X123336565Y-89209300D01*
G37*
%TD.AperFunction*%
%TD*%
%TA.AperFunction,Conductor*%
%TO.N,+5V*%
G36*
X152200606Y-91432503D02*
G01*
X152500222Y-91635587D01*
X152559309Y-91675637D01*
X152564234Y-91683116D01*
X152562498Y-91691784D01*
X152432018Y-91888726D01*
X152428726Y-91892018D01*
X152232081Y-92022301D01*
X152223292Y-92024013D01*
X152215865Y-92019009D01*
X152215770Y-92018862D01*
X151982099Y-91650517D01*
X151980562Y-91641699D01*
X151983705Y-91635982D01*
X152185772Y-91433915D01*
X152194044Y-91430489D01*
X152200606Y-91432503D01*
G37*
%TD.AperFunction*%
%TD*%
%TA.AperFunction,Conductor*%
%TO.N,+5V*%
G36*
X136041155Y-73422231D02*
G01*
X136044337Y-73428123D01*
X136132803Y-73853718D01*
X136131132Y-73862515D01*
X136123729Y-73867554D01*
X136123676Y-73867565D01*
X135892328Y-73914527D01*
X135887672Y-73914527D01*
X135656323Y-73867565D01*
X135648897Y-73862561D01*
X135647185Y-73853771D01*
X135647196Y-73853718D01*
X135735663Y-73428123D01*
X135740702Y-73420720D01*
X135747118Y-73418804D01*
X136032882Y-73418804D01*
X136041155Y-73422231D01*
G37*
%TD.AperFunction*%
%TD*%
%TA.AperFunction,Conductor*%
%TO.N,+5V*%
G36*
X127182886Y-76176569D02*
G01*
X127182932Y-76176599D01*
X127379726Y-76306981D01*
X127383018Y-76310273D01*
X127513400Y-76507067D01*
X127515112Y-76515856D01*
X127510108Y-76523283D01*
X127510062Y-76523313D01*
X127146565Y-76761699D01*
X127137768Y-76763370D01*
X127131876Y-76760188D01*
X126929811Y-76558123D01*
X126926384Y-76549850D01*
X126928299Y-76543435D01*
X127166686Y-76179936D01*
X127174089Y-76174898D01*
X127182886Y-76176569D01*
G37*
%TD.AperFunction*%
%TD*%
%TA.AperFunction,Conductor*%
%TO.N,+36V*%
G36*
X128960705Y-88990574D02*
G01*
X129437571Y-89242181D01*
X129443289Y-89249073D01*
X129442459Y-89257989D01*
X129441860Y-89258997D01*
X129284356Y-89496393D01*
X129281075Y-89499674D01*
X129042818Y-89657749D01*
X129034030Y-89659468D01*
X129026601Y-89654468D01*
X129026491Y-89654299D01*
X128767031Y-89248218D01*
X128742610Y-89209998D01*
X128741044Y-89201183D01*
X128744195Y-89195429D01*
X128946975Y-88992649D01*
X128955247Y-88989223D01*
X128960705Y-88990574D01*
G37*
%TD.AperFunction*%
%TD*%
%TA.AperFunction,Conductor*%
%TO.N,+36V*%
G36*
X125832149Y-85695250D02*
G01*
X125832316Y-85695508D01*
X126090362Y-86107523D01*
X126112756Y-86143278D01*
X126114243Y-86152108D01*
X126111113Y-86157761D01*
X125908330Y-86360544D01*
X125900057Y-86363971D01*
X125894508Y-86362571D01*
X125421118Y-86107523D01*
X125415460Y-86100582D01*
X125416367Y-86091674D01*
X125416910Y-86090767D01*
X125574485Y-85853263D01*
X125577763Y-85849985D01*
X125815933Y-85691968D01*
X125824720Y-85690250D01*
X125832149Y-85695250D01*
G37*
%TD.AperFunction*%
%TD*%
%TA.AperFunction,Conductor*%
%TO.N,/SPI1_NSS*%
G36*
X148040137Y-77108231D02*
G01*
X148042837Y-77112444D01*
X148200456Y-77538417D01*
X148200113Y-77547365D01*
X148193543Y-77553450D01*
X148191811Y-77553943D01*
X147962328Y-77600527D01*
X147957672Y-77600527D01*
X147728188Y-77553943D01*
X147720762Y-77548939D01*
X147719050Y-77540149D01*
X147719539Y-77538428D01*
X147877163Y-77112443D01*
X147883248Y-77105874D01*
X147888136Y-77104804D01*
X148031864Y-77104804D01*
X148040137Y-77108231D01*
G37*
%TD.AperFunction*%
%TD*%
%TA.AperFunction,Conductor*%
%TO.N,/SPI1_NSS*%
G36*
X150809651Y-71631557D02*
G01*
X150832077Y-71636110D01*
X150839503Y-71641114D01*
X150841215Y-71649904D01*
X150840800Y-71651418D01*
X150692742Y-72077338D01*
X150686789Y-72084027D01*
X150681691Y-72085196D01*
X150537967Y-72085196D01*
X150529694Y-72081769D01*
X150527076Y-72077770D01*
X150359893Y-71651741D01*
X150360060Y-71642788D01*
X150366510Y-71636576D01*
X150368447Y-71636003D01*
X150597675Y-71589472D01*
X150602325Y-71589472D01*
X150809651Y-71631557D01*
G37*
%TD.AperFunction*%
%TD*%
%TA.AperFunction,Conductor*%
%TO.N,/SPI1_MISO*%
G36*
X152510802Y-71625207D02*
G01*
X152649006Y-71718217D01*
X152704017Y-71755240D01*
X152708968Y-71762703D01*
X152708191Y-71769666D01*
X152558151Y-72110029D01*
X152551678Y-72116217D01*
X152547445Y-72117010D01*
X152461103Y-72117010D01*
X152452830Y-72113583D01*
X152450397Y-72110029D01*
X152300356Y-71769666D01*
X152300155Y-71760714D01*
X152304530Y-71755240D01*
X152497744Y-71625208D01*
X152506518Y-71623433D01*
X152510802Y-71625207D01*
G37*
%TD.AperFunction*%
%TD*%
%TA.AperFunction,Conductor*%
%TO.N,/SPI1_MISO*%
G36*
X150141444Y-77642401D02*
G01*
X150143877Y-77645955D01*
X150293917Y-77986317D01*
X150294118Y-77995269D01*
X150289743Y-78000743D01*
X150096532Y-78130774D01*
X150087756Y-78132550D01*
X150083468Y-78130774D01*
X149890256Y-78000743D01*
X149885305Y-77993280D01*
X149886081Y-77986319D01*
X150036123Y-77645955D01*
X150042596Y-77639767D01*
X150046829Y-77638974D01*
X150133171Y-77638974D01*
X150141444Y-77642401D01*
G37*
%TD.AperFunction*%
%TD*%
%TA.AperFunction,Conductor*%
%TO.N,/SPI1_MOSI*%
G36*
X151556528Y-71063393D02*
G01*
X151749696Y-71193394D01*
X151749790Y-71193457D01*
X151754741Y-71200920D01*
X151753990Y-71207823D01*
X151606259Y-71548155D01*
X151599822Y-71554379D01*
X151595527Y-71555196D01*
X151509185Y-71555196D01*
X151500912Y-71551769D01*
X151498506Y-71548276D01*
X151346156Y-71207881D01*
X151345904Y-71198929D01*
X151350301Y-71193395D01*
X151543470Y-71063394D01*
X151552244Y-71061619D01*
X151556528Y-71063393D01*
G37*
%TD.AperFunction*%
%TD*%
%TA.AperFunction,Conductor*%
%TO.N,/SPI1_MOSI*%
G36*
X149413854Y-76908231D02*
G01*
X149416287Y-76911785D01*
X149566327Y-77252147D01*
X149566528Y-77261099D01*
X149562153Y-77266573D01*
X149368942Y-77396604D01*
X149360166Y-77398380D01*
X149355878Y-77396604D01*
X149162666Y-77266573D01*
X149157715Y-77259110D01*
X149158491Y-77252149D01*
X149308533Y-76911785D01*
X149315006Y-76905597D01*
X149319239Y-76904804D01*
X149405581Y-76904804D01*
X149413854Y-76908231D01*
G37*
%TD.AperFunction*%
%TD*%
%TA.AperFunction,Conductor*%
%TO.N,/SPI1_SCK*%
G36*
X151373164Y-77259729D02*
G01*
X151375597Y-77263283D01*
X151525637Y-77603645D01*
X151525838Y-77612597D01*
X151521463Y-77618071D01*
X151328252Y-77748102D01*
X151319476Y-77749878D01*
X151315188Y-77748102D01*
X151121976Y-77618071D01*
X151117025Y-77610608D01*
X151117801Y-77603647D01*
X151267843Y-77263283D01*
X151274316Y-77257095D01*
X151278549Y-77256302D01*
X151364891Y-77256302D01*
X151373164Y-77259729D01*
G37*
%TD.AperFunction*%
%TD*%
%TA.AperFunction,Conductor*%
%TO.N,/SPI1_SCK*%
G36*
X153556528Y-71633393D02*
G01*
X153694732Y-71726403D01*
X153749743Y-71763426D01*
X153754694Y-71770889D01*
X153753917Y-71777852D01*
X153603877Y-72118215D01*
X153597404Y-72124403D01*
X153593171Y-72125196D01*
X153506829Y-72125196D01*
X153498556Y-72121769D01*
X153496123Y-72118215D01*
X153346082Y-71777852D01*
X153345881Y-71768900D01*
X153350256Y-71763426D01*
X153543470Y-71633394D01*
X153552244Y-71631619D01*
X153556528Y-71633393D01*
G37*
%TD.AperFunction*%
%TD*%
%TA.AperFunction,Conductor*%
%TO.N,/MCU_STA*%
G36*
X153333737Y-79649322D02*
G01*
X153337015Y-79651629D01*
X153398067Y-79712681D01*
X153401494Y-79720954D01*
X153400589Y-79725466D01*
X153222987Y-80150423D01*
X153216635Y-80156735D01*
X153207680Y-80156706D01*
X153205730Y-80155665D01*
X153013037Y-80028001D01*
X153008033Y-80020575D01*
X152962818Y-79789257D01*
X152964594Y-79780482D01*
X152970351Y-79776001D01*
X153131446Y-79718228D01*
X153324792Y-79648889D01*
X153333737Y-79649322D01*
G37*
%TD.AperFunction*%
%TD*%
%TA.AperFunction,Conductor*%
%TO.N,/MCU_STA*%
G36*
X161072876Y-79634273D02*
G01*
X161419644Y-79768851D01*
X161426117Y-79775039D01*
X161426894Y-79782002D01*
X161382217Y-80010568D01*
X161377266Y-80018031D01*
X161372978Y-80019807D01*
X161144412Y-80064484D01*
X161135636Y-80062708D01*
X161131261Y-80057234D01*
X160996683Y-79710466D01*
X160996884Y-79701514D01*
X160999314Y-79697963D01*
X161060371Y-79636906D01*
X161068643Y-79633480D01*
X161072876Y-79634273D01*
G37*
%TD.AperFunction*%
%TD*%
%TA.AperFunction,Conductor*%
%TO.N,/SPI3_MISO*%
G36*
X138195614Y-82375432D02*
G01*
X138196629Y-82377320D01*
X138376253Y-82800231D01*
X138376333Y-82809186D01*
X138373757Y-82813078D01*
X138312700Y-82874135D01*
X138304427Y-82877562D01*
X138300553Y-82876902D01*
X137944039Y-82751809D01*
X137937367Y-82745836D01*
X137936430Y-82738526D01*
X137981616Y-82507358D01*
X137986565Y-82499898D01*
X138179400Y-82372139D01*
X138188187Y-82370428D01*
X138195614Y-82375432D01*
G37*
%TD.AperFunction*%
%TD*%
%TA.AperFunction,Conductor*%
%TO.N,/SPI3_MISO*%
G36*
X145981652Y-88487413D02*
G01*
X146176625Y-88616589D01*
X146181629Y-88624014D01*
X146181646Y-88624098D01*
X146226263Y-88852358D01*
X146224487Y-88861134D01*
X146217024Y-88866085D01*
X146215734Y-88866263D01*
X145807085Y-88899712D01*
X145798560Y-88896971D01*
X145797858Y-88896324D01*
X145736776Y-88835242D01*
X145733349Y-88826969D01*
X145735453Y-88820276D01*
X145965598Y-88490471D01*
X145973141Y-88485649D01*
X145981652Y-88487413D01*
G37*
%TD.AperFunction*%
%TD*%
%TA.AperFunction,Conductor*%
%TO.N,/SPI3_MISO*%
G36*
X146686780Y-83634733D02*
G01*
X146818266Y-83830108D01*
X146820042Y-83838884D01*
X146820025Y-83838968D01*
X146774016Y-84065622D01*
X146769012Y-84073048D01*
X146760222Y-84074760D01*
X146758205Y-84074157D01*
X146332159Y-83903741D01*
X146325750Y-83897487D01*
X146324804Y-83892878D01*
X146324804Y-83806527D01*
X146328231Y-83798254D01*
X146331396Y-83796001D01*
X146663735Y-83634733D01*
X146671965Y-83630738D01*
X146680904Y-83630210D01*
X146686780Y-83634733D01*
G37*
%TD.AperFunction*%
%TD*%
%TA.AperFunction,Conductor*%
%TO.N,/SPI3_SCK*%
G36*
X142246528Y-88893393D02*
G01*
X142384732Y-88986403D01*
X142439743Y-89023426D01*
X142444694Y-89030889D01*
X142443917Y-89037852D01*
X142293877Y-89378215D01*
X142287404Y-89384403D01*
X142283171Y-89385196D01*
X142196829Y-89385196D01*
X142188556Y-89381769D01*
X142186123Y-89378215D01*
X142036082Y-89037852D01*
X142035881Y-89028900D01*
X142040256Y-89023426D01*
X142233470Y-88893394D01*
X142242244Y-88891619D01*
X142246528Y-88893393D01*
G37*
%TD.AperFunction*%
%TD*%
%TA.AperFunction,Conductor*%
%TO.N,/SPI3_MOSI*%
G36*
X137293675Y-81930229D02*
G01*
X137297229Y-81932662D01*
X137358282Y-81993715D01*
X137361709Y-82001988D01*
X137360916Y-82006221D01*
X137226338Y-82352989D01*
X137220150Y-82359462D01*
X137213187Y-82360239D01*
X136984621Y-82315562D01*
X136977158Y-82310611D01*
X136975382Y-82306323D01*
X136930705Y-82077757D01*
X136932481Y-82068981D01*
X136937953Y-82064606D01*
X137284723Y-81930028D01*
X137293675Y-81930229D01*
G37*
%TD.AperFunction*%
%TD*%
%TA.AperFunction,Conductor*%
%TO.N,/SPI3_MOSI*%
G36*
X146711901Y-82847632D02*
G01*
X146712766Y-82848152D01*
X146719041Y-82852309D01*
X146906625Y-82976589D01*
X146911629Y-82984014D01*
X146911646Y-82984098D01*
X146956588Y-83214019D01*
X146954812Y-83222795D01*
X146947658Y-83227681D01*
X146560919Y-83314166D01*
X146552098Y-83312627D01*
X146550093Y-83311021D01*
X146488986Y-83249914D01*
X146485559Y-83241641D01*
X146486984Y-83236047D01*
X146696031Y-82852308D01*
X146702997Y-82846683D01*
X146711901Y-82847632D01*
G37*
%TD.AperFunction*%
%TD*%
%TA.AperFunction,Conductor*%
%TO.N,/SPI3_MOSI*%
G36*
X145528576Y-89771237D02*
G01*
X145658620Y-89964469D01*
X145660396Y-89973245D01*
X145658620Y-89977533D01*
X145528603Y-90170724D01*
X145521140Y-90175675D01*
X145514151Y-90174887D01*
X145173775Y-90023885D01*
X145167603Y-90017397D01*
X145166820Y-90013190D01*
X145166820Y-89926848D01*
X145170247Y-89918575D01*
X145173824Y-89916131D01*
X145514178Y-89767051D01*
X145523128Y-89766872D01*
X145528576Y-89771237D01*
G37*
%TD.AperFunction*%
%TD*%
%TA.AperFunction,Conductor*%
%TO.N,GND1*%
G36*
X135567144Y-91650140D02*
G01*
X135573411Y-91656536D01*
X135574022Y-91658575D01*
X135620025Y-91885201D01*
X135618313Y-91893991D01*
X135618266Y-91894061D01*
X135486766Y-92089456D01*
X135479303Y-92094407D01*
X135471976Y-92093462D01*
X135131421Y-91929191D01*
X135125458Y-91922510D01*
X135124804Y-91918653D01*
X135124804Y-91832304D01*
X135128231Y-91824031D01*
X135132133Y-91821451D01*
X135558191Y-91650048D01*
X135567144Y-91650140D01*
G37*
%TD.AperFunction*%
%TD*%
%TA.AperFunction,Conductor*%
%TO.N,GND1*%
G36*
X133181802Y-91650045D02*
G01*
X133607864Y-91821450D01*
X133614259Y-91827716D01*
X133615196Y-91832304D01*
X133615196Y-91918653D01*
X133611769Y-91926926D01*
X133608579Y-91929191D01*
X133268023Y-92093462D01*
X133259083Y-92093970D01*
X133253233Y-92089456D01*
X133121733Y-91894061D01*
X133119957Y-91885285D01*
X133119974Y-91885201D01*
X133132915Y-91821449D01*
X133165977Y-91658573D01*
X133170981Y-91651149D01*
X133179771Y-91649437D01*
X133181802Y-91650045D01*
G37*
%TD.AperFunction*%
%TD*%
%TA.AperFunction,Conductor*%
%TO.N,/TIM1_CH1N*%
G36*
X144277623Y-77822011D02*
G01*
X144278637Y-77823308D01*
X144407975Y-78015239D01*
X144409756Y-78024014D01*
X144409742Y-78024085D01*
X144363470Y-78254045D01*
X144358479Y-78261480D01*
X144350017Y-78263268D01*
X143994486Y-78202130D01*
X143988196Y-78198872D01*
X143927694Y-78138370D01*
X143924267Y-78130097D01*
X143927694Y-78121824D01*
X143928112Y-78121426D01*
X144261100Y-77821156D01*
X144269538Y-77818162D01*
X144277623Y-77822011D01*
G37*
%TD.AperFunction*%
%TD*%
%TA.AperFunction,Conductor*%
%TO.N,/TIM1_CH1N*%
G36*
X132826075Y-79006884D02*
G01*
X132829629Y-79009317D01*
X132890682Y-79070370D01*
X132894109Y-79078643D01*
X132893316Y-79082876D01*
X132758738Y-79429644D01*
X132752550Y-79436117D01*
X132745587Y-79436894D01*
X132517021Y-79392217D01*
X132509558Y-79387266D01*
X132507782Y-79382978D01*
X132463105Y-79154412D01*
X132464881Y-79145636D01*
X132470353Y-79141261D01*
X132817123Y-79006683D01*
X132826075Y-79006884D01*
G37*
%TD.AperFunction*%
%TD*%
%TA.AperFunction,Conductor*%
%TO.N,/DRV_SPI_NSS*%
G36*
X135356156Y-82231293D02*
G01*
X135358589Y-82234847D01*
X135508629Y-82575209D01*
X135508830Y-82584161D01*
X135504455Y-82589635D01*
X135311244Y-82719666D01*
X135302468Y-82721442D01*
X135298180Y-82719666D01*
X135104968Y-82589635D01*
X135100017Y-82582172D01*
X135100793Y-82575211D01*
X135250835Y-82234847D01*
X135257308Y-82228659D01*
X135261541Y-82227866D01*
X135347883Y-82227866D01*
X135356156Y-82231293D01*
G37*
%TD.AperFunction*%
%TD*%
%TA.AperFunction,Conductor*%
%TO.N,/DRV_SPI_NSS*%
G36*
X146298339Y-81897380D02*
G01*
X146705835Y-81933652D01*
X146713772Y-81937799D01*
X146716452Y-81946343D01*
X146716281Y-81947550D01*
X146671646Y-82175901D01*
X146666695Y-82183364D01*
X146666625Y-82183411D01*
X146471714Y-82312545D01*
X146462925Y-82314257D01*
X146455615Y-82309426D01*
X146226589Y-81976760D01*
X146224720Y-81968002D01*
X146227951Y-81961854D01*
X146289044Y-81900761D01*
X146297316Y-81897335D01*
X146298339Y-81897380D01*
G37*
%TD.AperFunction*%
%TD*%
%TA.AperFunction,Conductor*%
%TO.N,/TIM1_CH1*%
G36*
X144089276Y-79852513D02*
G01*
X144436044Y-79987091D01*
X144442517Y-79993279D01*
X144443294Y-80000242D01*
X144398617Y-80228808D01*
X144393666Y-80236271D01*
X144389378Y-80238047D01*
X144160812Y-80282724D01*
X144152036Y-80280948D01*
X144147661Y-80275474D01*
X144013083Y-79928706D01*
X144013284Y-79919754D01*
X144015714Y-79916203D01*
X144076771Y-79855146D01*
X144085043Y-79851720D01*
X144089276Y-79852513D01*
G37*
%TD.AperFunction*%
%TD*%
%TA.AperFunction,Conductor*%
%TO.N,/TIM1_CH1*%
G36*
X134728327Y-79371509D02*
G01*
X135069289Y-79565833D01*
X135074780Y-79572907D01*
X135075196Y-79575998D01*
X135075196Y-79662359D01*
X135071769Y-79670632D01*
X135067187Y-79673462D01*
X134641303Y-79815030D01*
X134632371Y-79814387D01*
X134626509Y-79807618D01*
X134626146Y-79806255D01*
X134579974Y-79578798D01*
X134581685Y-79570009D01*
X134712830Y-79375141D01*
X134720291Y-79370192D01*
X134728327Y-79371509D01*
G37*
%TD.AperFunction*%
%TD*%
%TA.AperFunction,Conductor*%
%TO.N,/USART3_TX*%
G36*
X166279515Y-78268348D02*
G01*
X166283257Y-78274808D01*
X166288406Y-78300169D01*
X166329434Y-78502286D01*
X166327722Y-78511076D01*
X166324447Y-78514357D01*
X166130801Y-78643128D01*
X166122014Y-78644855D01*
X166115399Y-78640953D01*
X165906017Y-78394074D01*
X165903240Y-78386506D01*
X165903240Y-78300169D01*
X165906667Y-78291896D01*
X165914184Y-78288493D01*
X166271039Y-78265461D01*
X166279515Y-78268348D01*
G37*
%TD.AperFunction*%
%TD*%
%TA.AperFunction,Conductor*%
%TO.N,/USART3_TX*%
G36*
X148911075Y-79289186D02*
G01*
X148919342Y-79292622D01*
X148922760Y-79300886D01*
X148922760Y-79387151D01*
X148920686Y-79393801D01*
X148734401Y-79663435D01*
X148726879Y-79668294D01*
X148718296Y-79666528D01*
X148525552Y-79538357D01*
X148520561Y-79530922D01*
X148520564Y-79526290D01*
X148566868Y-79298184D01*
X148571872Y-79290760D01*
X148578344Y-79288814D01*
X148911075Y-79289186D01*
G37*
%TD.AperFunction*%
%TD*%
%TA.AperFunction,Conductor*%
%TO.N,/USART3_RX*%
G36*
X148722069Y-78486693D02*
G01*
X148726751Y-78493000D01*
X148828865Y-78827529D01*
X148829375Y-78830945D01*
X148829375Y-78913755D01*
X148825948Y-78922028D01*
X148817675Y-78925455D01*
X148813470Y-78924673D01*
X148438849Y-78780379D01*
X148432360Y-78774208D01*
X148431570Y-78767224D01*
X148475964Y-78539370D01*
X148480910Y-78531904D01*
X148485173Y-78530130D01*
X148713288Y-78484939D01*
X148722069Y-78486693D01*
G37*
%TD.AperFunction*%
%TD*%
%TA.AperFunction,Conductor*%
%TO.N,/USART3_RX*%
G36*
X166074218Y-77375500D02*
G01*
X166267539Y-77504055D01*
X166272530Y-77511490D01*
X166272526Y-77516126D01*
X166226289Y-77743902D01*
X166221285Y-77751328D01*
X166214420Y-77753267D01*
X165864408Y-77741189D01*
X165856257Y-77737479D01*
X165853111Y-77729496D01*
X165853111Y-77643249D01*
X165855615Y-77636016D01*
X166058547Y-77378009D01*
X166066353Y-77373627D01*
X166074218Y-77375500D01*
G37*
%TD.AperFunction*%
%TD*%
%TA.AperFunction,Conductor*%
%TO.N,/I2C1_SDA*%
G36*
X149096494Y-82050182D02*
G01*
X149218030Y-82231767D01*
X149226336Y-82244176D01*
X149228090Y-82252958D01*
X149226316Y-82257222D01*
X149097197Y-82448828D01*
X149089731Y-82453774D01*
X149081660Y-82452432D01*
X148730079Y-82250182D01*
X148724616Y-82243086D01*
X148725771Y-82234206D01*
X148727636Y-82231771D01*
X148787080Y-82172327D01*
X148790769Y-82169838D01*
X149082193Y-82045922D01*
X149091147Y-82045839D01*
X149096494Y-82050182D01*
G37*
%TD.AperFunction*%
%TD*%
%TA.AperFunction,Conductor*%
%TO.N,/I2C1_SDA*%
G36*
X146056528Y-74298393D02*
G01*
X146194732Y-74391403D01*
X146249743Y-74428426D01*
X146254694Y-74435889D01*
X146253917Y-74442852D01*
X146103877Y-74783215D01*
X146097404Y-74789403D01*
X146093171Y-74790196D01*
X146006829Y-74790196D01*
X145998556Y-74786769D01*
X145996123Y-74783215D01*
X145846082Y-74442852D01*
X145845881Y-74433900D01*
X145850256Y-74428426D01*
X146043470Y-74298394D01*
X146052244Y-74296619D01*
X146056528Y-74298393D01*
G37*
%TD.AperFunction*%
%TD*%
%TA.AperFunction,Conductor*%
%TO.N,/ENCODER_STA*%
G36*
X152699942Y-81945826D02*
G01*
X152707405Y-81950777D01*
X152709181Y-81955065D01*
X152753858Y-82183631D01*
X152752082Y-82192407D01*
X152746608Y-82196782D01*
X152399840Y-82331360D01*
X152390888Y-82331159D01*
X152387334Y-82328726D01*
X152326281Y-82267673D01*
X152322854Y-82259400D01*
X152323647Y-82255167D01*
X152346306Y-82196782D01*
X152458225Y-81908398D01*
X152464413Y-81901926D01*
X152471376Y-81901149D01*
X152699942Y-81945826D01*
G37*
%TD.AperFunction*%
%TD*%
%TA.AperFunction,Conductor*%
%TO.N,/ENCODER_STA*%
G36*
X161236573Y-85360256D02*
G01*
X161366604Y-85553468D01*
X161368380Y-85562244D01*
X161366604Y-85566532D01*
X161236573Y-85759743D01*
X161229110Y-85764694D01*
X161222147Y-85763917D01*
X160881785Y-85613877D01*
X160875597Y-85607404D01*
X160874804Y-85603171D01*
X160874804Y-85516828D01*
X160878231Y-85508555D01*
X160881782Y-85506123D01*
X161222148Y-85356081D01*
X161231099Y-85355881D01*
X161236573Y-85360256D01*
G37*
%TD.AperFunction*%
%TD*%
%TA.AperFunction,Conductor*%
%TO.N,/CAN_TX*%
G36*
X156126625Y-87496044D02*
G01*
X156503444Y-87635355D01*
X156510015Y-87641437D01*
X156510870Y-87648565D01*
X156466502Y-87876286D01*
X156461556Y-87883752D01*
X156457292Y-87885526D01*
X156229072Y-87930738D01*
X156220290Y-87928984D01*
X156215644Y-87922792D01*
X156203285Y-87883752D01*
X156126578Y-87641437D01*
X156111417Y-87593544D01*
X156110871Y-87590013D01*
X156110871Y-87507019D01*
X156114298Y-87498746D01*
X156122571Y-87495319D01*
X156126625Y-87496044D01*
G37*
%TD.AperFunction*%
%TD*%
%TA.AperFunction,Conductor*%
%TO.N,/CAN_TX*%
G36*
X151814845Y-84994644D02*
G01*
X151815795Y-84996381D01*
X152000296Y-85414360D01*
X152000501Y-85423313D01*
X151997865Y-85427358D01*
X151936800Y-85488423D01*
X151928527Y-85491850D01*
X151924835Y-85491252D01*
X151563318Y-85371027D01*
X151556549Y-85365165D01*
X151555527Y-85357683D01*
X151600681Y-85126678D01*
X151605630Y-85119220D01*
X151798631Y-84991351D01*
X151807418Y-84989640D01*
X151814845Y-84994644D01*
G37*
%TD.AperFunction*%
%TD*%
%TA.AperFunction,Conductor*%
%TO.N,/CAN_RX*%
G36*
X156515444Y-91202231D02*
G01*
X156517877Y-91205785D01*
X156667917Y-91546147D01*
X156668118Y-91555099D01*
X156663743Y-91560573D01*
X156470532Y-91690604D01*
X156461756Y-91692380D01*
X156457468Y-91690604D01*
X156264256Y-91560573D01*
X156259305Y-91553110D01*
X156260081Y-91546149D01*
X156410123Y-91205785D01*
X156416596Y-91199597D01*
X156420829Y-91198804D01*
X156507171Y-91198804D01*
X156515444Y-91202231D01*
G37*
%TD.AperFunction*%
%TD*%
%TA.AperFunction,Conductor*%
%TO.N,/CAN_RX*%
G36*
X151117945Y-85498580D02*
G01*
X151458311Y-85648622D01*
X151464498Y-85655094D01*
X151465291Y-85659327D01*
X151465291Y-85745670D01*
X151461864Y-85753943D01*
X151458310Y-85756376D01*
X151117947Y-85906416D01*
X151108995Y-85906617D01*
X151103521Y-85902242D01*
X151066498Y-85847231D01*
X150973489Y-85709028D01*
X150971714Y-85700255D01*
X150973488Y-85695970D01*
X151103521Y-85502754D01*
X151110984Y-85497804D01*
X151117945Y-85498580D01*
G37*
%TD.AperFunction*%
%TD*%
%TA.AperFunction,Conductor*%
%TO.N,/CAN_STB*%
G36*
X157982743Y-87416454D02*
G01*
X158185320Y-87490510D01*
X158409140Y-87572332D01*
X158415734Y-87578391D01*
X158416604Y-87585572D01*
X158362219Y-87862989D01*
X158357265Y-87870448D01*
X158352989Y-87872219D01*
X158075572Y-87926604D01*
X158066794Y-87924833D01*
X158062332Y-87919140D01*
X158044626Y-87870707D01*
X157980510Y-87695320D01*
X157906454Y-87492743D01*
X157906832Y-87483796D01*
X157909167Y-87480456D01*
X157970454Y-87419169D01*
X157978726Y-87415743D01*
X157982743Y-87416454D01*
G37*
%TD.AperFunction*%
%TD*%
%TA.AperFunction,Conductor*%
%TO.N,/CAN_STB*%
G36*
X149302817Y-85520162D02*
G01*
X149306313Y-85522569D01*
X149367366Y-85583622D01*
X149370793Y-85591895D01*
X149369977Y-85596187D01*
X149233855Y-85941370D01*
X149227632Y-85947809D01*
X149220726Y-85948561D01*
X148992107Y-85903873D01*
X148984645Y-85898922D01*
X148982869Y-85894634D01*
X148938202Y-85666121D01*
X148939978Y-85657345D01*
X148945509Y-85652948D01*
X149293867Y-85519912D01*
X149302817Y-85520162D01*
G37*
%TD.AperFunction*%
%TD*%
%TA.AperFunction,Conductor*%
%TO.N,/ADC1_IN0*%
G36*
X148338548Y-80518740D02*
G01*
X148338623Y-80518791D01*
X148343189Y-80521915D01*
X148639702Y-80724798D01*
X148667854Y-80744060D01*
X148672747Y-80751560D01*
X148672947Y-80753716D01*
X148672947Y-80840161D01*
X148669520Y-80848434D01*
X148664268Y-80851464D01*
X148250786Y-80961984D01*
X148241909Y-80960810D01*
X148236462Y-80953702D01*
X148236299Y-80953009D01*
X148189974Y-80724798D01*
X148191685Y-80716009D01*
X148322310Y-80521914D01*
X148329772Y-80516964D01*
X148338548Y-80518740D01*
G37*
%TD.AperFunction*%
%TD*%
%TA.AperFunction,Conductor*%
%TO.N,/ADC1_IN0*%
G36*
X141533244Y-84403043D02*
G01*
X141537434Y-84410957D01*
X141537486Y-84412058D01*
X141537486Y-84497490D01*
X141535752Y-84503619D01*
X141343539Y-84816156D01*
X141336286Y-84821408D01*
X141327444Y-84819993D01*
X141327094Y-84819770D01*
X141132392Y-84690296D01*
X141127401Y-84682861D01*
X141127387Y-84682791D01*
X141126379Y-84677620D01*
X141083017Y-84455063D01*
X141084798Y-84446289D01*
X141092263Y-84441343D01*
X141093395Y-84441179D01*
X141524685Y-84400410D01*
X141533244Y-84403043D01*
G37*
%TD.AperFunction*%
%TD*%
%TA.AperFunction,Conductor*%
%TO.N,/ENCODER_CAL_EN*%
G36*
X142143845Y-87761181D02*
G01*
X142144146Y-87761660D01*
X142360855Y-88125846D01*
X142362140Y-88134708D01*
X142359073Y-88140102D01*
X142297944Y-88201231D01*
X142289671Y-88204658D01*
X142287705Y-88204492D01*
X141893043Y-88137210D01*
X141885463Y-88132441D01*
X141883475Y-88123710D01*
X141883526Y-88123432D01*
X141928354Y-87894096D01*
X141933303Y-87886636D01*
X142127631Y-87757888D01*
X142136418Y-87756177D01*
X142143845Y-87761181D01*
G37*
%TD.AperFunction*%
%TD*%
%TA.AperFunction,Conductor*%
%TO.N,/ENCODER_SPI_NSS*%
G36*
X146047217Y-90234611D02*
G01*
X146047812Y-90234978D01*
X146240423Y-90362589D01*
X146245427Y-90370015D01*
X146245444Y-90370098D01*
X146290644Y-90601341D01*
X146288868Y-90610117D01*
X146283121Y-90614594D01*
X145928964Y-90741982D01*
X145920019Y-90741558D01*
X145916731Y-90739246D01*
X145855680Y-90678195D01*
X145852253Y-90669922D01*
X145853153Y-90665421D01*
X146030163Y-90240937D01*
X146030816Y-90239618D01*
X146031236Y-90238892D01*
X146038339Y-90233442D01*
X146047217Y-90234611D01*
G37*
%TD.AperFunction*%
%TD*%
%TA.AperFunction,Conductor*%
%TO.N,/DRV8323RSRGZR/SPB*%
G36*
X133880926Y-91048258D02*
G01*
X134297903Y-91166783D01*
X134304923Y-91172341D01*
X134306403Y-91178037D01*
X134306403Y-91264469D01*
X134302976Y-91272742D01*
X134301108Y-91274259D01*
X133968555Y-91491554D01*
X133959755Y-91493210D01*
X133952448Y-91488291D01*
X133821733Y-91294061D01*
X133819957Y-91285285D01*
X133819974Y-91285201D01*
X133822897Y-91270800D01*
X133866260Y-91057181D01*
X133871263Y-91049758D01*
X133880053Y-91048046D01*
X133880926Y-91048258D01*
G37*
%TD.AperFunction*%
%TD*%
%TA.AperFunction,Conductor*%
%TO.N,/DRV8323RSRGZR/SPB*%
G36*
X135088637Y-91004968D02*
G01*
X135094776Y-91011487D01*
X135095303Y-91013310D01*
X135141362Y-91240210D01*
X135139650Y-91249000D01*
X135139603Y-91249070D01*
X135008236Y-91444268D01*
X135000773Y-91449219D01*
X134993205Y-91448154D01*
X134652517Y-91274058D01*
X134646709Y-91267242D01*
X134646141Y-91263640D01*
X134646141Y-91177274D01*
X134649568Y-91169001D01*
X134653687Y-91166336D01*
X135079686Y-91004699D01*
X135088637Y-91004968D01*
G37*
%TD.AperFunction*%
%TD*%
M02*
