%TF.GenerationSoftware,KiCad,Pcbnew,9.0.1*%
%TF.CreationDate,2025-04-08T03:51:10+08:00*%
%TF.ProjectId,CawDrive,43617744-7269-4766-952e-6b696361645f,rev?*%
%TF.SameCoordinates,Original*%
%TF.FileFunction,Paste,Top*%
%TF.FilePolarity,Positive*%
%FSLAX46Y46*%
G04 Gerber Fmt 4.6, Leading zero omitted, Abs format (unit mm)*
G04 Created by KiCad (PCBNEW 9.0.1) date 2025-04-08 03:51:10*
%MOMM*%
%LPD*%
G01*
G04 APERTURE LIST*
G04 Aperture macros list*
%AMRoundRect*
0 Rectangle with rounded corners*
0 $1 Rounding radius*
0 $2 $3 $4 $5 $6 $7 $8 $9 X,Y pos of 4 corners*
0 Add a 4 corners polygon primitive as box body*
4,1,4,$2,$3,$4,$5,$6,$7,$8,$9,$2,$3,0*
0 Add four circle primitives for the rounded corners*
1,1,$1+$1,$2,$3*
1,1,$1+$1,$4,$5*
1,1,$1+$1,$6,$7*
1,1,$1+$1,$8,$9*
0 Add four rect primitives between the rounded corners*
20,1,$1+$1,$2,$3,$4,$5,0*
20,1,$1+$1,$4,$5,$6,$7,0*
20,1,$1+$1,$6,$7,$8,$9,0*
20,1,$1+$1,$8,$9,$2,$3,0*%
%AMRotRect*
0 Rectangle, with rotation*
0 The origin of the aperture is its center*
0 $1 length*
0 $2 width*
0 $3 Rotation angle, in degrees counterclockwise*
0 Add horizontal line*
21,1,$1,$2,0,0,$3*%
G04 Aperture macros list end*
%ADD10C,0.010000*%
%ADD11C,0.120000*%
%ADD12RoundRect,0.160000X0.160000X-0.197500X0.160000X0.197500X-0.160000X0.197500X-0.160000X-0.197500X0*%
%ADD13RoundRect,0.237500X-0.237500X0.300000X-0.237500X-0.300000X0.237500X-0.300000X0.237500X0.300000X0*%
%ADD14RoundRect,0.155000X0.212500X0.155000X-0.212500X0.155000X-0.212500X-0.155000X0.212500X-0.155000X0*%
%ADD15RoundRect,0.160000X-0.160000X0.222500X-0.160000X-0.222500X0.160000X-0.222500X0.160000X0.222500X0*%
%ADD16RoundRect,0.250000X-0.412500X-0.650000X0.412500X-0.650000X0.412500X0.650000X-0.412500X0.650000X0*%
%ADD17R,0.500000X1.700000*%
%ADD18R,1.200000X2.500000*%
%ADD19R,0.850000X1.450000*%
%ADD20R,0.850000X1.050000*%
%ADD21RoundRect,0.160000X-0.197500X-0.160000X0.197500X-0.160000X0.197500X0.160000X-0.197500X0.160000X0*%
%ADD22RoundRect,0.250000X1.075000X-0.400000X1.075000X0.400000X-1.075000X0.400000X-1.075000X-0.400000X0*%
%ADD23R,0.660000X0.320000*%
%ADD24RoundRect,0.160000X0.197500X0.160000X-0.197500X0.160000X-0.197500X-0.160000X0.197500X-0.160000X0*%
%ADD25R,1.700000X0.500000*%
%ADD26R,2.500000X1.200000*%
%ADD27RoundRect,0.155000X-0.212500X-0.155000X0.212500X-0.155000X0.212500X0.155000X-0.212500X0.155000X0*%
%ADD28RoundRect,0.160000X0.222500X0.160000X-0.222500X0.160000X-0.222500X-0.160000X0.222500X-0.160000X0*%
%ADD29RoundRect,0.250000X0.650000X-0.412500X0.650000X0.412500X-0.650000X0.412500X-0.650000X-0.412500X0*%
%ADD30RoundRect,0.155000X0.155000X-0.212500X0.155000X0.212500X-0.155000X0.212500X-0.155000X-0.212500X0*%
%ADD31RoundRect,0.225000X0.225000X0.375000X-0.225000X0.375000X-0.225000X-0.375000X0.225000X-0.375000X0*%
%ADD32R,1.400000X1.200000*%
%ADD33RoundRect,0.250000X0.412500X0.650000X-0.412500X0.650000X-0.412500X-0.650000X0.412500X-0.650000X0*%
%ADD34RoundRect,0.050800X0.900000X-1.000000X0.900000X1.000000X-0.900000X1.000000X-0.900000X-1.000000X0*%
%ADD35R,1.700000X0.650000*%
%ADD36RoundRect,0.237500X0.300000X0.237500X-0.300000X0.237500X-0.300000X-0.237500X0.300000X-0.237500X0*%
%ADD37RoundRect,0.155000X-0.259862X0.040659X0.040659X-0.259862X0.259862X-0.040659X-0.040659X0.259862X0*%
%ADD38RoundRect,0.237500X0.237500X-0.300000X0.237500X0.300000X-0.237500X0.300000X-0.237500X-0.300000X0*%
%ADD39RoundRect,0.160000X-0.222500X-0.160000X0.222500X-0.160000X0.222500X0.160000X-0.222500X0.160000X0*%
%ADD40RotRect,0.665000X0.280000X45.000000*%
%ADD41RotRect,0.280000X0.665000X45.000000*%
%ADD42RotRect,5.150000X5.150000X45.000000*%
%ADD43RoundRect,0.155000X-0.155000X0.212500X-0.155000X-0.212500X0.155000X-0.212500X0.155000X0.212500X0*%
%ADD44O,2.045000X0.588000*%
%ADD45R,4.220000X2.124000*%
%ADD46RoundRect,0.075000X0.700000X0.075000X-0.700000X0.075000X-0.700000X-0.075000X0.700000X-0.075000X0*%
%ADD47RoundRect,0.075000X0.075000X0.700000X-0.075000X0.700000X-0.075000X-0.700000X0.075000X-0.700000X0*%
G04 APERTURE END LIST*
D10*
%TO.C,Q7*%
X125646000Y-101314000D02*
X123274000Y-101314000D01*
X123274000Y-98334000D01*
X125646000Y-98334000D01*
X125646000Y-101314000D01*
G36*
X125646000Y-101314000D02*
G01*
X123274000Y-101314000D01*
X123274000Y-98334000D01*
X125646000Y-98334000D01*
X125646000Y-101314000D01*
G37*
%TO.C,U2*%
X132006000Y-76706000D02*
X131374000Y-76706000D01*
X131374000Y-75694000D01*
X132006000Y-75694000D01*
X132006000Y-76706000D01*
G36*
X132006000Y-76706000D02*
G01*
X131374000Y-76706000D01*
X131374000Y-75694000D01*
X132006000Y-75694000D01*
X132006000Y-76706000D01*
G37*
%TO.C,Q12*%
X154348000Y-104402000D02*
X151976000Y-104402000D01*
X151976000Y-101422000D01*
X154348000Y-101422000D01*
X154348000Y-104402000D01*
G36*
X154348000Y-104402000D02*
G01*
X151976000Y-104402000D01*
X151976000Y-101422000D01*
X154348000Y-101422000D01*
X154348000Y-104402000D01*
G37*
%TO.C,Q9*%
X142936000Y-103302000D02*
X140564000Y-103302000D01*
X140564000Y-100322000D01*
X142936000Y-100322000D01*
X142936000Y-103302000D01*
G36*
X142936000Y-103302000D02*
G01*
X140564000Y-103302000D01*
X140564000Y-100322000D01*
X142936000Y-100322000D01*
X142936000Y-103302000D01*
G37*
%TO.C,Q8*%
X131615000Y-104358000D02*
X129243000Y-104358000D01*
X129243000Y-101378000D01*
X131615000Y-101378000D01*
X131615000Y-104358000D01*
G36*
X131615000Y-104358000D02*
G01*
X129243000Y-104358000D01*
X129243000Y-101378000D01*
X131615000Y-101378000D01*
X131615000Y-104358000D01*
G37*
%TO.C,Q10*%
X137330000Y-104358000D02*
X134958000Y-104358000D01*
X134958000Y-101378000D01*
X137330000Y-101378000D01*
X137330000Y-104358000D01*
G36*
X137330000Y-104358000D02*
G01*
X134958000Y-104358000D01*
X134958000Y-101378000D01*
X137330000Y-101378000D01*
X137330000Y-104358000D01*
G37*
D11*
%TO.C,U7*%
X128695098Y-86688805D02*
X128224872Y-87159031D01*
X128026882Y-86961041D01*
X128497108Y-86490815D01*
X128695098Y-86688805D01*
G36*
X128695098Y-86688805D02*
G01*
X128224872Y-87159031D01*
X128026882Y-86961041D01*
X128497108Y-86490815D01*
X128695098Y-86688805D01*
G37*
X129048651Y-87042358D02*
X128578425Y-87512584D01*
X128380435Y-87314594D01*
X128850661Y-86844368D01*
X129048651Y-87042358D01*
G36*
X129048651Y-87042358D02*
G01*
X128578425Y-87512584D01*
X128380435Y-87314594D01*
X128850661Y-86844368D01*
X129048651Y-87042358D01*
G37*
X128695098Y-86031195D02*
X128497108Y-86229185D01*
X128026882Y-85758959D01*
X128224872Y-85560969D01*
X128695098Y-86031195D01*
G36*
X128695098Y-86031195D02*
G01*
X128497108Y-86229185D01*
X128026882Y-85758959D01*
X128224872Y-85560969D01*
X128695098Y-86031195D01*
G37*
X129402205Y-87395911D02*
X128931979Y-87866137D01*
X128733989Y-87668148D01*
X129204215Y-87197922D01*
X129402205Y-87395911D01*
G36*
X129402205Y-87395911D02*
G01*
X128931979Y-87866137D01*
X128733989Y-87668148D01*
X129204215Y-87197922D01*
X129402205Y-87395911D01*
G37*
X129048651Y-85677642D02*
X128850661Y-85875632D01*
X128380435Y-85405406D01*
X128578425Y-85207416D01*
X129048651Y-85677642D01*
G36*
X129048651Y-85677642D02*
G01*
X128850661Y-85875632D01*
X128380435Y-85405406D01*
X128578425Y-85207416D01*
X129048651Y-85677642D01*
G37*
X129755758Y-87749465D02*
X129285532Y-88219691D01*
X129087542Y-88021701D01*
X129557768Y-87551475D01*
X129755758Y-87749465D01*
G36*
X129755758Y-87749465D02*
G01*
X129285532Y-88219691D01*
X129087542Y-88021701D01*
X129557768Y-87551475D01*
X129755758Y-87749465D01*
G37*
X129402205Y-85324089D02*
X129204215Y-85522078D01*
X128733989Y-85051852D01*
X128931979Y-84853863D01*
X129402205Y-85324089D01*
G36*
X129402205Y-85324089D02*
G01*
X129204215Y-85522078D01*
X128733989Y-85051852D01*
X128931979Y-84853863D01*
X129402205Y-85324089D01*
G37*
X130109312Y-88103018D02*
X129639086Y-88573244D01*
X129441096Y-88375254D01*
X129911322Y-87905028D01*
X130109312Y-88103018D01*
G36*
X130109312Y-88103018D02*
G01*
X129639086Y-88573244D01*
X129441096Y-88375254D01*
X129911322Y-87905028D01*
X130109312Y-88103018D01*
G37*
X129755758Y-84970535D02*
X129557768Y-85168525D01*
X129087542Y-84698299D01*
X129285532Y-84500309D01*
X129755758Y-84970535D01*
G36*
X129755758Y-84970535D02*
G01*
X129557768Y-85168525D01*
X129087542Y-84698299D01*
X129285532Y-84500309D01*
X129755758Y-84970535D01*
G37*
X130462865Y-88456572D02*
X129992639Y-88926798D01*
X129794649Y-88728808D01*
X130264875Y-88258582D01*
X130462865Y-88456572D01*
G36*
X130462865Y-88456572D02*
G01*
X129992639Y-88926798D01*
X129794649Y-88728808D01*
X130264875Y-88258582D01*
X130462865Y-88456572D01*
G37*
X135543427Y-86360000D02*
X132715000Y-89188427D01*
X129886573Y-86360000D01*
X132715000Y-83531573D01*
X135543427Y-86360000D01*
G36*
X135543427Y-86360000D02*
G01*
X132715000Y-89188427D01*
X129886573Y-86360000D01*
X132715000Y-83531573D01*
X135543427Y-86360000D01*
G37*
X130109312Y-84616982D02*
X129911322Y-84814972D01*
X129441096Y-84344746D01*
X129639086Y-84146756D01*
X130109312Y-84616982D01*
G36*
X130109312Y-84616982D02*
G01*
X129911322Y-84814972D01*
X129441096Y-84344746D01*
X129639086Y-84146756D01*
X130109312Y-84616982D01*
G37*
X130816418Y-88810125D02*
X130346192Y-89280351D01*
X130148202Y-89082361D01*
X130618428Y-88612135D01*
X130816418Y-88810125D01*
G36*
X130816418Y-88810125D02*
G01*
X130346192Y-89280351D01*
X130148202Y-89082361D01*
X130618428Y-88612135D01*
X130816418Y-88810125D01*
G37*
X130462865Y-84263428D02*
X130264875Y-84461418D01*
X129794649Y-83991192D01*
X129992639Y-83793202D01*
X130462865Y-84263428D01*
G36*
X130462865Y-84263428D02*
G01*
X130264875Y-84461418D01*
X129794649Y-83991192D01*
X129992639Y-83793202D01*
X130462865Y-84263428D01*
G37*
X131169972Y-83556322D02*
X130971982Y-83754312D01*
X130501756Y-83284086D01*
X130699746Y-83086096D01*
X131169972Y-83556322D01*
G36*
X131169972Y-83556322D02*
G01*
X130971982Y-83754312D01*
X130501756Y-83284086D01*
X130699746Y-83086096D01*
X131169972Y-83556322D01*
G37*
X131169972Y-89163678D02*
X130699746Y-89633904D01*
X130501756Y-89435914D01*
X130971982Y-88965688D01*
X131169972Y-89163678D01*
G36*
X131169972Y-89163678D02*
G01*
X130699746Y-89633904D01*
X130501756Y-89435914D01*
X130971982Y-88965688D01*
X131169972Y-89163678D01*
G37*
X130816418Y-83909875D02*
X130618428Y-84107865D01*
X130148202Y-83637639D01*
X130346192Y-83439649D01*
X130816418Y-83909875D01*
G36*
X130816418Y-83909875D02*
G01*
X130618428Y-84107865D01*
X130148202Y-83637639D01*
X130346192Y-83439649D01*
X130816418Y-83909875D01*
G37*
X131523525Y-83202768D02*
X131325535Y-83400758D01*
X130855309Y-82930532D01*
X131053299Y-82732542D01*
X131523525Y-83202768D01*
G36*
X131523525Y-83202768D02*
G01*
X131325535Y-83400758D01*
X130855309Y-82930532D01*
X131053299Y-82732542D01*
X131523525Y-83202768D01*
G37*
X131523525Y-89517232D02*
X131053299Y-89987458D01*
X130855309Y-89789468D01*
X131325535Y-89319242D01*
X131523525Y-89517232D01*
G36*
X131523525Y-89517232D02*
G01*
X131053299Y-89987458D01*
X130855309Y-89789468D01*
X131325535Y-89319242D01*
X131523525Y-89517232D01*
G37*
X131877078Y-82849215D02*
X131679089Y-83047205D01*
X131208863Y-82576979D01*
X131406852Y-82378989D01*
X131877078Y-82849215D01*
G36*
X131877078Y-82849215D02*
G01*
X131679089Y-83047205D01*
X131208863Y-82576979D01*
X131406852Y-82378989D01*
X131877078Y-82849215D01*
G37*
X131877078Y-89870785D02*
X131406852Y-90341011D01*
X131208863Y-90143021D01*
X131679089Y-89672795D01*
X131877078Y-89870785D01*
G36*
X131877078Y-89870785D02*
G01*
X131406852Y-90341011D01*
X131208863Y-90143021D01*
X131679089Y-89672795D01*
X131877078Y-89870785D01*
G37*
X132230632Y-90224339D02*
X131760406Y-90694565D01*
X131562416Y-90496575D01*
X132032642Y-90026349D01*
X132230632Y-90224339D01*
G36*
X132230632Y-90224339D02*
G01*
X131760406Y-90694565D01*
X131562416Y-90496575D01*
X132032642Y-90026349D01*
X132230632Y-90224339D01*
G37*
X132584185Y-90577892D02*
X132113959Y-91048118D01*
X131915969Y-90850128D01*
X132386195Y-90379902D01*
X132584185Y-90577892D01*
G36*
X132584185Y-90577892D02*
G01*
X132113959Y-91048118D01*
X131915969Y-90850128D01*
X132386195Y-90379902D01*
X132584185Y-90577892D01*
G37*
X132230632Y-82495661D02*
X132032642Y-82693651D01*
X131562416Y-82223425D01*
X131760406Y-82025435D01*
X132230632Y-82495661D01*
G36*
X132230632Y-82495661D02*
G01*
X132032642Y-82693651D01*
X131562416Y-82223425D01*
X131760406Y-82025435D01*
X132230632Y-82495661D01*
G37*
X132584185Y-82142108D02*
X132386195Y-82340098D01*
X131915969Y-81869872D01*
X132113959Y-81671882D01*
X132584185Y-82142108D01*
G36*
X132584185Y-82142108D02*
G01*
X132386195Y-82340098D01*
X131915969Y-81869872D01*
X132113959Y-81671882D01*
X132584185Y-82142108D01*
G37*
X133514031Y-90850128D02*
X133316041Y-91048118D01*
X132845815Y-90577892D01*
X133043805Y-90379902D01*
X133514031Y-90850128D01*
G36*
X133514031Y-90850128D02*
G01*
X133316041Y-91048118D01*
X132845815Y-90577892D01*
X133043805Y-90379902D01*
X133514031Y-90850128D01*
G37*
X133867584Y-90496575D02*
X133669594Y-90694565D01*
X133199368Y-90224339D01*
X133397358Y-90026349D01*
X133867584Y-90496575D01*
G36*
X133867584Y-90496575D02*
G01*
X133669594Y-90694565D01*
X133199368Y-90224339D01*
X133397358Y-90026349D01*
X133867584Y-90496575D01*
G37*
X133514031Y-81869872D02*
X133043805Y-82340098D01*
X132845815Y-82142108D01*
X133316041Y-81671882D01*
X133514031Y-81869872D01*
G36*
X133514031Y-81869872D02*
G01*
X133043805Y-82340098D01*
X132845815Y-82142108D01*
X133316041Y-81671882D01*
X133514031Y-81869872D01*
G37*
X134221137Y-90143021D02*
X134023148Y-90341011D01*
X133552922Y-89870785D01*
X133750911Y-89672795D01*
X134221137Y-90143021D01*
G36*
X134221137Y-90143021D02*
G01*
X134023148Y-90341011D01*
X133552922Y-89870785D01*
X133750911Y-89672795D01*
X134221137Y-90143021D01*
G37*
X133867584Y-82223425D02*
X133397358Y-82693651D01*
X133199368Y-82495661D01*
X133669594Y-82025435D01*
X133867584Y-82223425D01*
G36*
X133867584Y-82223425D02*
G01*
X133397358Y-82693651D01*
X133199368Y-82495661D01*
X133669594Y-82025435D01*
X133867584Y-82223425D01*
G37*
X134221137Y-82576979D02*
X133750911Y-83047205D01*
X133552922Y-82849215D01*
X134023148Y-82378989D01*
X134221137Y-82576979D01*
G36*
X134221137Y-82576979D02*
G01*
X133750911Y-83047205D01*
X133552922Y-82849215D01*
X134023148Y-82378989D01*
X134221137Y-82576979D01*
G37*
X134574691Y-82930532D02*
X134104465Y-83400758D01*
X133906475Y-83202768D01*
X134376701Y-82732542D01*
X134574691Y-82930532D01*
G36*
X134574691Y-82930532D02*
G01*
X134104465Y-83400758D01*
X133906475Y-83202768D01*
X134376701Y-82732542D01*
X134574691Y-82930532D01*
G37*
X134574691Y-89789468D02*
X134376701Y-89987458D01*
X133906475Y-89517232D01*
X134104465Y-89319242D01*
X134574691Y-89789468D01*
G36*
X134574691Y-89789468D02*
G01*
X134376701Y-89987458D01*
X133906475Y-89517232D01*
X134104465Y-89319242D01*
X134574691Y-89789468D01*
G37*
X134928244Y-83284086D02*
X134458018Y-83754312D01*
X134260028Y-83556322D01*
X134730254Y-83086096D01*
X134928244Y-83284086D01*
G36*
X134928244Y-83284086D02*
G01*
X134458018Y-83754312D01*
X134260028Y-83556322D01*
X134730254Y-83086096D01*
X134928244Y-83284086D01*
G37*
X134928244Y-89435914D02*
X134730254Y-89633904D01*
X134260028Y-89163678D01*
X134458018Y-88965688D01*
X134928244Y-89435914D01*
G36*
X134928244Y-89435914D02*
G01*
X134730254Y-89633904D01*
X134260028Y-89163678D01*
X134458018Y-88965688D01*
X134928244Y-89435914D01*
G37*
X135281798Y-83637639D02*
X134811572Y-84107865D01*
X134613582Y-83909875D01*
X135083808Y-83439649D01*
X135281798Y-83637639D01*
G36*
X135281798Y-83637639D02*
G01*
X134811572Y-84107865D01*
X134613582Y-83909875D01*
X135083808Y-83439649D01*
X135281798Y-83637639D01*
G37*
X135281798Y-89082361D02*
X135083808Y-89280351D01*
X134613582Y-88810125D01*
X134811572Y-88612135D01*
X135281798Y-89082361D01*
G36*
X135281798Y-89082361D02*
G01*
X135083808Y-89280351D01*
X134613582Y-88810125D01*
X134811572Y-88612135D01*
X135281798Y-89082361D01*
G37*
X135635351Y-83991192D02*
X135165125Y-84461418D01*
X134967135Y-84263428D01*
X135437361Y-83793202D01*
X135635351Y-83991192D01*
G36*
X135635351Y-83991192D02*
G01*
X135165125Y-84461418D01*
X134967135Y-84263428D01*
X135437361Y-83793202D01*
X135635351Y-83991192D01*
G37*
X135635351Y-88728808D02*
X135437361Y-88926798D01*
X134967135Y-88456572D01*
X135165125Y-88258582D01*
X135635351Y-88728808D01*
G36*
X135635351Y-88728808D02*
G01*
X135437361Y-88926798D01*
X134967135Y-88456572D01*
X135165125Y-88258582D01*
X135635351Y-88728808D01*
G37*
X135988904Y-84344746D02*
X135518678Y-84814972D01*
X135320688Y-84616982D01*
X135790914Y-84146756D01*
X135988904Y-84344746D01*
G36*
X135988904Y-84344746D02*
G01*
X135518678Y-84814972D01*
X135320688Y-84616982D01*
X135790914Y-84146756D01*
X135988904Y-84344746D01*
G37*
X135988904Y-88375254D02*
X135790914Y-88573244D01*
X135320688Y-88103018D01*
X135518678Y-87905028D01*
X135988904Y-88375254D01*
G36*
X135988904Y-88375254D02*
G01*
X135790914Y-88573244D01*
X135320688Y-88103018D01*
X135518678Y-87905028D01*
X135988904Y-88375254D01*
G37*
X136342458Y-84698299D02*
X135872232Y-85168525D01*
X135674242Y-84970535D01*
X136144468Y-84500309D01*
X136342458Y-84698299D01*
G36*
X136342458Y-84698299D02*
G01*
X135872232Y-85168525D01*
X135674242Y-84970535D01*
X136144468Y-84500309D01*
X136342458Y-84698299D01*
G37*
X136342458Y-88021701D02*
X136144468Y-88219691D01*
X135674242Y-87749465D01*
X135872232Y-87551475D01*
X136342458Y-88021701D01*
G36*
X136342458Y-88021701D02*
G01*
X136144468Y-88219691D01*
X135674242Y-87749465D01*
X135872232Y-87551475D01*
X136342458Y-88021701D01*
G37*
X136696011Y-85051852D02*
X136225785Y-85522078D01*
X136027795Y-85324089D01*
X136498021Y-84853863D01*
X136696011Y-85051852D01*
G36*
X136696011Y-85051852D02*
G01*
X136225785Y-85522078D01*
X136027795Y-85324089D01*
X136498021Y-84853863D01*
X136696011Y-85051852D01*
G37*
X136696011Y-87668148D02*
X136498021Y-87866137D01*
X136027795Y-87395911D01*
X136225785Y-87197922D01*
X136696011Y-87668148D01*
G36*
X136696011Y-87668148D02*
G01*
X136498021Y-87866137D01*
X136027795Y-87395911D01*
X136225785Y-87197922D01*
X136696011Y-87668148D01*
G37*
X137403118Y-85758959D02*
X136932892Y-86229185D01*
X136734902Y-86031195D01*
X137205128Y-85560969D01*
X137403118Y-85758959D01*
G36*
X137403118Y-85758959D02*
G01*
X136932892Y-86229185D01*
X136734902Y-86031195D01*
X137205128Y-85560969D01*
X137403118Y-85758959D01*
G37*
X137049565Y-85405406D02*
X136579339Y-85875632D01*
X136381349Y-85677642D01*
X136851575Y-85207416D01*
X137049565Y-85405406D01*
G36*
X137049565Y-85405406D02*
G01*
X136579339Y-85875632D01*
X136381349Y-85677642D01*
X136851575Y-85207416D01*
X137049565Y-85405406D01*
G37*
X137049565Y-87314594D02*
X136851575Y-87512584D01*
X136381349Y-87042358D01*
X136579339Y-86844368D01*
X137049565Y-87314594D01*
G36*
X137049565Y-87314594D02*
G01*
X136851575Y-87512584D01*
X136381349Y-87042358D01*
X136579339Y-86844368D01*
X137049565Y-87314594D01*
G37*
X137403118Y-86961041D02*
X137205128Y-87159031D01*
X136734902Y-86688805D01*
X136932892Y-86490815D01*
X137403118Y-86961041D01*
G36*
X137403118Y-86961041D02*
G01*
X137205128Y-87159031D01*
X136734902Y-86688805D01*
X136932892Y-86490815D01*
X137403118Y-86961041D01*
G37*
D10*
%TO.C,Q11*%
X148506000Y-103302000D02*
X146134000Y-103302000D01*
X146134000Y-100322000D01*
X148506000Y-100322000D01*
X148506000Y-103302000D01*
G36*
X148506000Y-103302000D02*
G01*
X146134000Y-103302000D01*
X146134000Y-100322000D01*
X148506000Y-100322000D01*
X148506000Y-103302000D01*
G37*
%TD*%
D12*
%TO.C,R17*%
X137795000Y-84671500D03*
X137795000Y-83476500D03*
%TD*%
D13*
%TO.C,C16*%
X127381000Y-77496500D03*
X127381000Y-79221500D03*
%TD*%
D14*
%TO.C,C13*%
X152459500Y-91059000D03*
X151324500Y-91059000D03*
%TD*%
D15*
%TO.C,D4*%
X138430000Y-76008500D03*
X138430000Y-77153500D03*
%TD*%
D12*
%TO.C,R1*%
X126238000Y-75019500D03*
X126238000Y-73824500D03*
%TD*%
D16*
%TO.C,C38*%
X157437500Y-102870000D03*
X160562500Y-102870000D03*
%TD*%
D17*
%TO.C,U6*%
X129500000Y-72947000D03*
X128500000Y-72947000D03*
D18*
X127400000Y-69547000D03*
X130600000Y-69547000D03*
%TD*%
D12*
%TO.C,R2*%
X162687000Y-81369500D03*
X162687000Y-80174500D03*
%TD*%
D19*
%TO.C,Q7*%
X122555000Y-103124000D03*
X123825000Y-103124000D03*
X125095000Y-103124000D03*
X126365000Y-103124000D03*
D20*
X126365000Y-97424000D03*
X125095000Y-97424000D03*
X123825000Y-97424000D03*
X122555000Y-97424000D03*
%TD*%
D12*
%TO.C,R26*%
X163068000Y-88100500D03*
X163068000Y-86905500D03*
%TD*%
D14*
%TO.C,C9*%
X160714500Y-74803000D03*
X159579500Y-74803000D03*
%TD*%
D21*
%TO.C,R9*%
X159041500Y-81026000D03*
X160236500Y-81026000D03*
%TD*%
D22*
%TO.C,R18*%
X131064000Y-97562000D03*
X131064000Y-94462000D03*
%TD*%
D23*
%TO.C,U2*%
X132715000Y-76850000D03*
X132715000Y-76200000D03*
X132715000Y-75550000D03*
X130665000Y-75550000D03*
X130665000Y-76200000D03*
X130665000Y-76850000D03*
%TD*%
D24*
%TO.C,R8*%
X164554500Y-93980000D03*
X163359500Y-93980000D03*
%TD*%
D25*
%TO.C,U5*%
X164800000Y-88000000D03*
X164800000Y-87000000D03*
D26*
X168200000Y-85900000D03*
X168200000Y-89100000D03*
%TD*%
D27*
%TO.C,C2*%
X155769500Y-86233000D03*
X156904500Y-86233000D03*
%TD*%
D28*
%TO.C,L1*%
X157544500Y-77089000D03*
X156399500Y-77089000D03*
%TD*%
D29*
%TO.C,C22*%
X121259600Y-95669500D03*
X121259600Y-92544500D03*
%TD*%
D30*
%TO.C,C7*%
X129413000Y-76475000D03*
X129413000Y-75340000D03*
%TD*%
D19*
%TO.C,Q12*%
X155067000Y-99612000D03*
X153797000Y-99612000D03*
X152527000Y-99612000D03*
X151257000Y-99612000D03*
D20*
X151257000Y-105312000D03*
X152527000Y-105312000D03*
X153797000Y-105312000D03*
X155067000Y-105312000D03*
%TD*%
D19*
%TO.C,Q9*%
X139845000Y-105112000D03*
X141115000Y-105112000D03*
X142385000Y-105112000D03*
X143655000Y-105112000D03*
D20*
X143655000Y-99412000D03*
X142385000Y-99412000D03*
X141115000Y-99412000D03*
X139845000Y-99412000D03*
%TD*%
D29*
%TO.C,C23*%
X140462000Y-97592500D03*
X140462000Y-94467500D03*
%TD*%
D14*
%TO.C,C10*%
X164067500Y-101854000D03*
X162932500Y-101854000D03*
%TD*%
D27*
%TO.C,C19*%
X164532500Y-91694000D03*
X165667500Y-91694000D03*
%TD*%
D17*
%TO.C,U11*%
X135028750Y-72947000D03*
X134028750Y-72947000D03*
D18*
X132928750Y-69547000D03*
X136128750Y-69547000D03*
%TD*%
D29*
%TO.C,C20*%
X126034800Y-95669500D03*
X126034800Y-92544500D03*
%TD*%
D31*
%TO.C,D3*%
X127507000Y-83820000D03*
X124207000Y-83820000D03*
%TD*%
D17*
%TO.C,CN3*%
X153590000Y-73074000D03*
X152590000Y-73074000D03*
X151590000Y-73074000D03*
X150590000Y-73074000D03*
D18*
X154690000Y-69674000D03*
X149490000Y-69674000D03*
%TD*%
D24*
%TO.C,R23*%
X152489500Y-89916000D03*
X151294500Y-89916000D03*
%TD*%
D29*
%TO.C,C25*%
X145796000Y-97592500D03*
X145796000Y-94467500D03*
%TD*%
D24*
%TO.C,R20*%
X136868500Y-79375000D03*
X135673500Y-79375000D03*
%TD*%
%TO.C,R5*%
X149187500Y-89916000D03*
X147992500Y-89916000D03*
%TD*%
D27*
%TO.C,C11*%
X156404500Y-78232000D03*
X157539500Y-78232000D03*
%TD*%
D32*
%TO.C,D5*%
X140970000Y-90346000D03*
X140970000Y-86946000D03*
%TD*%
D14*
%TO.C,C17*%
X163177500Y-91690000D03*
X162042500Y-91690000D03*
%TD*%
D33*
%TO.C,C30*%
X125446500Y-87884000D03*
X122321500Y-87884000D03*
%TD*%
D34*
%TO.C,TV1*%
X163500000Y-100000000D03*
X163500000Y-96000000D03*
%TD*%
D21*
%TO.C,R24*%
X156374500Y-79375000D03*
X157569500Y-79375000D03*
%TD*%
D24*
%TO.C,R7*%
X138392500Y-74676000D03*
X137197500Y-74676000D03*
%TD*%
D35*
%TO.C,X1*%
X157200000Y-84350000D03*
D25*
X157200000Y-83150000D03*
D35*
X157200000Y-81950000D03*
%TD*%
D16*
%TO.C,C36*%
X157437500Y-97423333D03*
X160562500Y-97423333D03*
%TD*%
D24*
%TO.C,R10*%
X160744500Y-75946000D03*
X159549500Y-75946000D03*
%TD*%
D36*
%TO.C,C33*%
X125576500Y-85852000D03*
X123851500Y-85852000D03*
%TD*%
D37*
%TO.C,C31*%
X133456717Y-80751717D03*
X134259283Y-81554283D03*
%TD*%
D21*
%TO.C,R4*%
X121068500Y-90805000D03*
X122263500Y-90805000D03*
%TD*%
D24*
%TO.C,R12*%
X165697500Y-92837000D03*
X164502500Y-92837000D03*
%TD*%
D38*
%TO.C,C35*%
X135890000Y-76681500D03*
X135890000Y-74956500D03*
%TD*%
D27*
%TO.C,C14*%
X159579500Y-77089000D03*
X160714500Y-77089000D03*
%TD*%
D39*
%TO.C,D6*%
X159066500Y-84455000D03*
X160211500Y-84455000D03*
%TD*%
D36*
%TO.C,C15*%
X129005500Y-81534000D03*
X127280500Y-81534000D03*
%TD*%
D29*
%TO.C,C26*%
X148336000Y-97592500D03*
X148336000Y-94467500D03*
%TD*%
D21*
%TO.C,R16*%
X142912500Y-89281000D03*
X144107500Y-89281000D03*
%TD*%
D19*
%TO.C,Q8*%
X132334000Y-99568000D03*
X131064000Y-99568000D03*
X129794000Y-99568000D03*
X128524000Y-99568000D03*
D20*
X128524000Y-105268000D03*
X129794000Y-105268000D03*
X131064000Y-105268000D03*
X132334000Y-105268000D03*
%TD*%
D17*
%TO.C,U12*%
X140557500Y-72947000D03*
X139557500Y-72947000D03*
D18*
X138457500Y-69547000D03*
X141657500Y-69547000D03*
%TD*%
D12*
%TO.C,R3*%
X162687000Y-83782500D03*
X162687000Y-82587500D03*
%TD*%
D14*
%TO.C,C6*%
X152459500Y-88773000D03*
X151324500Y-88773000D03*
%TD*%
D22*
%TO.C,R22*%
X154332000Y-97550000D03*
X154332000Y-94450000D03*
%TD*%
D16*
%TO.C,C37*%
X157437500Y-100146667D03*
X160562500Y-100146667D03*
%TD*%
D22*
%TO.C,R19*%
X137000000Y-97550000D03*
X137000000Y-94450000D03*
%TD*%
D38*
%TO.C,C34*%
X134239000Y-76681500D03*
X134239000Y-74956500D03*
%TD*%
D19*
%TO.C,Q10*%
X138049000Y-99568000D03*
X136779000Y-99568000D03*
X135509000Y-99568000D03*
X134239000Y-99568000D03*
D20*
X134239000Y-105268000D03*
X135509000Y-105268000D03*
X136779000Y-105268000D03*
X138049000Y-105268000D03*
%TD*%
D16*
%TO.C,C29*%
X157437500Y-94700000D03*
X160562500Y-94700000D03*
%TD*%
D39*
%TO.C,D1*%
X159066500Y-79883000D03*
X160211500Y-79883000D03*
%TD*%
%TO.C,D2*%
X159066500Y-82169000D03*
X160211500Y-82169000D03*
%TD*%
D24*
%TO.C,R14*%
X125565500Y-90805000D03*
X124370500Y-90805000D03*
%TD*%
%TO.C,R6*%
X149187500Y-91059000D03*
X147992500Y-91059000D03*
%TD*%
D29*
%TO.C,C24*%
X142875000Y-97592500D03*
X142875000Y-94467500D03*
%TD*%
D17*
%TO.C,U10*%
X146086250Y-72947000D03*
X145086250Y-72947000D03*
D18*
X143986250Y-69547000D03*
X147186250Y-69547000D03*
%TD*%
D21*
%TO.C,R15*%
X159041500Y-85598000D03*
X160236500Y-85598000D03*
%TD*%
D40*
%TO.C,U7*%
X128361344Y-86824569D03*
X128714897Y-87178123D03*
X129068450Y-87531676D03*
X129422004Y-87885229D03*
X129775557Y-88238783D03*
X130129111Y-88592336D03*
X130482664Y-88945889D03*
X130836217Y-89299443D03*
X131189771Y-89652996D03*
X131543324Y-90006550D03*
X131896877Y-90360103D03*
X132250431Y-90713656D03*
D41*
X133179569Y-90713656D03*
X133533123Y-90360103D03*
X133886676Y-90006550D03*
X134240229Y-89652996D03*
X134593783Y-89299443D03*
X134947336Y-88945889D03*
X135300889Y-88592336D03*
X135654443Y-88238783D03*
X136007996Y-87885229D03*
X136361550Y-87531676D03*
X136715103Y-87178123D03*
X137068656Y-86824569D03*
D40*
X137068656Y-85895431D03*
X136715103Y-85541877D03*
X136361550Y-85188324D03*
X136007996Y-84834771D03*
X135654443Y-84481217D03*
X135300889Y-84127664D03*
X134947336Y-83774111D03*
X134593783Y-83420557D03*
X134240229Y-83067004D03*
X133886676Y-82713450D03*
X133533123Y-82359897D03*
X133179569Y-82006344D03*
D41*
X132250431Y-82006344D03*
X131896877Y-82359897D03*
X131543324Y-82713450D03*
X131189771Y-83067004D03*
X130836217Y-83420557D03*
X130482664Y-83774111D03*
X130129111Y-84127664D03*
X129775557Y-84481217D03*
X129422004Y-84834771D03*
X129068450Y-85188324D03*
X128714897Y-85541877D03*
X128361344Y-85895431D03*
D42*
X132715000Y-86360000D03*
%TD*%
D43*
%TO.C,C1*%
X127381000Y-73854500D03*
X127381000Y-74989500D03*
%TD*%
D21*
%TO.C,R13*%
X124370500Y-89662000D03*
X125565500Y-89662000D03*
%TD*%
D25*
%TO.C,CN2*%
X164800000Y-82500000D03*
X164800000Y-81500000D03*
X164800000Y-80500000D03*
X164800000Y-79500000D03*
X164800000Y-78500000D03*
X164800000Y-77500000D03*
D26*
X168200000Y-76400000D03*
X168200000Y-83600000D03*
%TD*%
D30*
%TO.C,C32*%
X139065000Y-84641500D03*
X139065000Y-83506500D03*
%TD*%
D44*
%TO.C,U1*%
X154581000Y-87884000D03*
X154581000Y-89154000D03*
X154581000Y-90424000D03*
X154581000Y-91694000D03*
X160125000Y-91694000D03*
X160125000Y-90424000D03*
X160125000Y-89154000D03*
X160125000Y-87884000D03*
%TD*%
D43*
%TO.C,C12*%
X138049000Y-79442500D03*
X138049000Y-80577500D03*
%TD*%
D30*
%TO.C,C3*%
X154686000Y-76513500D03*
X154686000Y-75378500D03*
%TD*%
D29*
%TO.C,C21*%
X123647200Y-95669500D03*
X123647200Y-92544500D03*
%TD*%
D38*
%TO.C,C28*%
X128250000Y-91286500D03*
X128250000Y-89561500D03*
%TD*%
D21*
%TO.C,R11*%
X159041500Y-83312000D03*
X160236500Y-83312000D03*
%TD*%
D45*
%TO.C,L2*%
X123825000Y-81248000D03*
X123825000Y-77248000D03*
%TD*%
D21*
%TO.C,R25*%
X156374500Y-75946000D03*
X157569500Y-75946000D03*
%TD*%
%TO.C,R21*%
X135673500Y-80518000D03*
X136868500Y-80518000D03*
%TD*%
D14*
%TO.C,C4*%
X143950500Y-75438000D03*
X142815500Y-75438000D03*
%TD*%
D19*
%TO.C,Q11*%
X145415000Y-105112000D03*
X146685000Y-105112000D03*
X147955000Y-105112000D03*
X149225000Y-105112000D03*
D20*
X149225000Y-99412000D03*
X147955000Y-99412000D03*
X146685000Y-99412000D03*
X145415000Y-99412000D03*
%TD*%
D43*
%TO.C,C5*%
X142875000Y-86300500D03*
X142875000Y-87435500D03*
%TD*%
%TO.C,C27*%
X126750000Y-89729500D03*
X126750000Y-90864500D03*
%TD*%
D46*
%TO.C,U8*%
X154519000Y-85157000D03*
X154519000Y-84657000D03*
X154519000Y-84157000D03*
X154519000Y-83657000D03*
X154519000Y-83157000D03*
X154519000Y-82657000D03*
X154519000Y-82157000D03*
X154519000Y-81657000D03*
X154519000Y-81157000D03*
X154519000Y-80657000D03*
X154519000Y-80157000D03*
X154519000Y-79657000D03*
X154519000Y-79157000D03*
X154519000Y-78657000D03*
X154519000Y-78157000D03*
X154519000Y-77657000D03*
D47*
X152594000Y-75732000D03*
X152094000Y-75732000D03*
X151594000Y-75732000D03*
X151094000Y-75732000D03*
X150594000Y-75732000D03*
X150094000Y-75732000D03*
X149594000Y-75732000D03*
X149094000Y-75732000D03*
X148594000Y-75732000D03*
X148094000Y-75732000D03*
X147594000Y-75732000D03*
X147094000Y-75732000D03*
X146594000Y-75732000D03*
X146094000Y-75732000D03*
X145594000Y-75732000D03*
X145094000Y-75732000D03*
D46*
X143169000Y-77657000D03*
X143169000Y-78157000D03*
X143169000Y-78657000D03*
X143169000Y-79157000D03*
X143169000Y-79657000D03*
X143169000Y-80157000D03*
X143169000Y-80657000D03*
X143169000Y-81157000D03*
X143169000Y-81657000D03*
X143169000Y-82157000D03*
X143169000Y-82657000D03*
X143169000Y-83157000D03*
X143169000Y-83657000D03*
X143169000Y-84157000D03*
X143169000Y-84657000D03*
X143169000Y-85157000D03*
D47*
X145094000Y-87082000D03*
X145594000Y-87082000D03*
X146094000Y-87082000D03*
X146594000Y-87082000D03*
X147094000Y-87082000D03*
X147594000Y-87082000D03*
X148094000Y-87082000D03*
X148594000Y-87082000D03*
X149094000Y-87082000D03*
X149594000Y-87082000D03*
X150094000Y-87082000D03*
X150594000Y-87082000D03*
X151094000Y-87082000D03*
X151594000Y-87082000D03*
X152094000Y-87082000D03*
X152594000Y-87082000D03*
%TD*%
M02*
