%TF.GenerationSoftware,KiCad,Pcbnew,9.0.1*%
%TF.CreationDate,2025-05-07T14:48:38+08:00*%
%TF.ProjectId,CawDrive,43617744-7269-4766-952e-6b696361645f,rev?*%
%TF.SameCoordinates,Original*%
%TF.FileFunction,Copper,L2,Inr*%
%TF.FilePolarity,Positive*%
%FSLAX46Y46*%
G04 Gerber Fmt 4.6, Leading zero omitted, Abs format (unit mm)*
G04 Created by KiCad (PCBNEW 9.0.1) date 2025-05-07 14:48:38*
%MOMM*%
%LPD*%
G01*
G04 APERTURE LIST*
G04 Aperture macros list*
%AMRoundRect*
0 Rectangle with rounded corners*
0 $1 Rounding radius*
0 $2 $3 $4 $5 $6 $7 $8 $9 X,Y pos of 4 corners*
0 Add a 4 corners polygon primitive as box body*
4,1,4,$2,$3,$4,$5,$6,$7,$8,$9,$2,$3,0*
0 Add four circle primitives for the rounded corners*
1,1,$1+$1,$2,$3*
1,1,$1+$1,$4,$5*
1,1,$1+$1,$6,$7*
1,1,$1+$1,$8,$9*
0 Add four rect primitives between the rounded corners*
20,1,$1+$1,$2,$3,$4,$5,0*
20,1,$1+$1,$4,$5,$6,$7,0*
20,1,$1+$1,$6,$7,$8,$9,0*
20,1,$1+$1,$8,$9,$2,$3,0*%
G04 Aperture macros list end*
%TA.AperFunction,ComponentPad*%
%ADD10RoundRect,0.750000X-0.750000X-0.750000X0.750000X-0.750000X0.750000X0.750000X-0.750000X0.750000X0*%
%TD*%
%TA.AperFunction,ComponentPad*%
%ADD11C,0.800000*%
%TD*%
%TA.AperFunction,ComponentPad*%
%ADD12C,5.000000*%
%TD*%
%TA.AperFunction,ViaPad*%
%ADD13C,0.406400*%
%TD*%
%TA.AperFunction,ViaPad*%
%ADD14C,0.609600*%
%TD*%
%TA.AperFunction,ViaPad*%
%ADD15C,0.600000*%
%TD*%
G04 APERTURE END LIST*
D10*
%TO.N,GND1*%
%TO.C,H8*%
X168000000Y-95000000D03*
%TD*%
D11*
%TO.N,unconnected-(H2-Pad1)_1*%
%TO.C,H2*%
X157125000Y-71000000D03*
%TO.N,unconnected-(H2-Pad1)_5*%
X157674175Y-69674175D03*
%TO.N,unconnected-(H2-Pad1)_8*%
X157674175Y-72325825D03*
%TO.N,unconnected-(H2-Pad1)_2*%
X159000000Y-69125000D03*
D12*
%TO.N,unconnected-(H2-Pad1)*%
X159000000Y-71000000D03*
D11*
%TO.N,unconnected-(H2-Pad1)_4*%
X159000000Y-72875000D03*
%TO.N,unconnected-(H2-Pad1)_7*%
X160325825Y-69674175D03*
%TO.N,unconnected-(H2-Pad1)_6*%
X160325825Y-72325825D03*
%TO.N,unconnected-(H2-Pad1)_3*%
X160875000Y-71000000D03*
%TD*%
D10*
%TO.N,/DRV8323RSRGZR/PHASB*%
%TO.C,H6*%
X141000000Y-108000000D03*
%TD*%
D11*
%TO.N,unconnected-(H4-Pad1)_7*%
%TO.C,H4*%
X121125000Y-107000000D03*
%TO.N,unconnected-(H4-Pad1)_5*%
X121674175Y-105674175D03*
%TO.N,unconnected-(H4-Pad1)_3*%
X121674175Y-108325825D03*
%TO.N,unconnected-(H4-Pad1)*%
X123000000Y-105125000D03*
D12*
%TO.N,unconnected-(H4-Pad1)_4*%
X123000000Y-107000000D03*
D11*
%TO.N,unconnected-(H4-Pad1)_2*%
X123000000Y-108875000D03*
%TO.N,unconnected-(H4-Pad1)_8*%
X124325825Y-105674175D03*
%TO.N,unconnected-(H4-Pad1)_6*%
X124325825Y-108325825D03*
%TO.N,unconnected-(H4-Pad1)_1*%
X124875000Y-107000000D03*
%TD*%
D10*
%TO.N,/DRV8323RSRGZR/PHASC*%
%TO.C,H7*%
X151000000Y-108000000D03*
%TD*%
%TO.N,+36V*%
%TO.C,H9*%
X168000000Y-101000000D03*
%TD*%
D11*
%TO.N,unconnected-(H1-Pad1)_5*%
%TO.C,H1*%
X121125000Y-71000000D03*
%TO.N,unconnected-(H1-Pad1)_4*%
X121674175Y-69674175D03*
%TO.N,unconnected-(H1-Pad1)_8*%
X121674175Y-72325825D03*
%TO.N,unconnected-(H1-Pad1)_6*%
X123000000Y-69125000D03*
D12*
%TO.N,unconnected-(H1-Pad1)*%
X123000000Y-71000000D03*
D11*
%TO.N,unconnected-(H1-Pad1)_1*%
X123000000Y-72875000D03*
%TO.N,unconnected-(H1-Pad1)_7*%
X124325825Y-69674175D03*
%TO.N,unconnected-(H1-Pad1)_2*%
X124325825Y-72325825D03*
%TO.N,unconnected-(H1-Pad1)_3*%
X124875000Y-71000000D03*
%TD*%
%TO.N,unconnected-(H3-Pad1)_4*%
%TO.C,H3*%
X157125000Y-107000000D03*
%TO.N,unconnected-(H3-Pad1)_7*%
X157674175Y-105674175D03*
%TO.N,unconnected-(H3-Pad1)_8*%
X157674175Y-108325825D03*
%TO.N,unconnected-(H3-Pad1)_1*%
X159000000Y-105125000D03*
D12*
%TO.N,unconnected-(H3-Pad1)_2*%
X159000000Y-107000000D03*
D11*
%TO.N,unconnected-(H3-Pad1)_5*%
X159000000Y-108875000D03*
%TO.N,unconnected-(H3-Pad1)_6*%
X160325825Y-105674175D03*
%TO.N,unconnected-(H3-Pad1)*%
X160325825Y-108325825D03*
%TO.N,unconnected-(H3-Pad1)_3*%
X160875000Y-107000000D03*
%TD*%
D10*
%TO.N,/DRV8323RSRGZR/PHASA*%
%TO.C,H5*%
X131000000Y-108000000D03*
%TD*%
D13*
%TO.N,GND*%
X158240000Y-78000000D03*
X139446000Y-89408000D03*
D14*
%TO.N,GND1*%
X160909000Y-98044000D03*
X160909000Y-96774000D03*
X160147000Y-98044000D03*
X160147000Y-96774000D03*
X160909000Y-95377000D03*
X160909000Y-94107000D03*
X160147000Y-95377000D03*
X160147000Y-94107000D03*
%TO.N,+36V*%
X157861000Y-103505000D03*
X157861000Y-102235000D03*
X157099000Y-103505000D03*
X157099000Y-102235000D03*
X157861000Y-100711000D03*
X157861000Y-99949000D03*
X157099000Y-100711000D03*
X157099000Y-99949000D03*
%TO.N,/DRV8323RSRGZR/PHASC*%
X155067000Y-104267000D03*
X153797000Y-104267000D03*
X152527000Y-104267000D03*
X151257000Y-104267000D03*
%TO.N,GND1*%
X155194000Y-98044000D03*
X153797000Y-98044000D03*
X152527000Y-98044000D03*
X155194000Y-97155000D03*
X153797000Y-97155000D03*
X152527000Y-97155000D03*
%TO.N,/DRV8323RSRGZR/PHASC*%
X147955000Y-105537000D03*
X147955000Y-104648000D03*
X146685000Y-105537000D03*
X146685000Y-104648000D03*
X145415000Y-105537000D03*
X145415000Y-104648000D03*
%TO.N,+36V*%
X149225000Y-103124000D03*
X149225000Y-102235000D03*
X149225000Y-101219000D03*
X147955000Y-103124000D03*
X147955000Y-102235000D03*
X147955000Y-101219000D03*
X146685000Y-103124000D03*
X146685000Y-102235000D03*
X146685000Y-101219000D03*
X145415000Y-103124000D03*
X145415000Y-102235000D03*
X145415000Y-101219000D03*
X149225000Y-100330000D03*
X147955000Y-100330000D03*
X146685000Y-100330000D03*
X145415000Y-100330000D03*
%TO.N,GND1*%
X149098000Y-94869000D03*
X147701000Y-94869000D03*
X149098000Y-93980000D03*
X147701000Y-93980000D03*
X146431000Y-94869000D03*
X145161000Y-94869000D03*
X146431000Y-93980000D03*
X145161000Y-93980000D03*
%TO.N,/DRV8323RSRGZR/PHASB*%
X142367000Y-105537000D03*
X142367000Y-104648000D03*
X141097000Y-105537000D03*
X141097000Y-104648000D03*
X139827000Y-105537000D03*
X139845000Y-104648000D03*
%TO.N,+36V*%
X143637000Y-103124000D03*
X143637000Y-102235000D03*
X143637000Y-101219000D03*
X142367000Y-103124000D03*
X142367000Y-102235000D03*
X142367000Y-101219000D03*
X141097000Y-103124000D03*
X141097000Y-102235000D03*
X141097000Y-101219000D03*
X139827000Y-103124000D03*
X139827000Y-102235000D03*
X139827000Y-101219000D03*
X143637000Y-100330000D03*
X142367000Y-100330000D03*
X141097000Y-100330000D03*
X139827000Y-100330000D03*
%TO.N,GND1*%
X143637000Y-94869000D03*
X142240000Y-94869000D03*
X143637000Y-93980000D03*
X142240000Y-93980000D03*
X141097000Y-94869000D03*
X139700000Y-94869000D03*
X141224000Y-93980000D03*
X139700000Y-93980000D03*
%TO.N,/DRV8323RSRGZR/PHASB*%
X138049000Y-103632000D03*
X136779000Y-103632000D03*
X135509000Y-103632000D03*
X134239000Y-103632000D03*
X138049000Y-104267000D03*
X136779000Y-104267000D03*
X135509000Y-104267000D03*
X134239000Y-104267000D03*
%TO.N,/DRV8323RSRGZR/SPB*%
X138303000Y-98044000D03*
X137414000Y-98044000D03*
X136271000Y-98044000D03*
X135382000Y-98044000D03*
%TO.N,GND1*%
X137922000Y-94742000D03*
X135890000Y-94742000D03*
X137922000Y-94107000D03*
X135890000Y-94107000D03*
%TO.N,/DRV8323RSRGZR/PHASA*%
X132334000Y-103632000D03*
X131064000Y-103632000D03*
X129794000Y-103632000D03*
X128524000Y-103632000D03*
X132334000Y-104267000D03*
X131064000Y-104267000D03*
X129794000Y-104267000D03*
X128524000Y-104267000D03*
%TO.N,/DRV8323RSRGZR/SPA*%
X132588000Y-97917000D03*
X131699000Y-97917000D03*
X130429000Y-97917000D03*
X129540000Y-97917000D03*
%TO.N,GND1*%
X132080000Y-94742000D03*
X130048000Y-94742000D03*
X132080000Y-94107000D03*
X130048000Y-94107000D03*
%TO.N,/DRV8323RSRGZR/PHASA*%
X125095000Y-103505000D03*
X125095000Y-102743000D03*
X123825000Y-103505000D03*
X123825000Y-102743000D03*
X122555000Y-103505000D03*
X122555000Y-102743000D03*
%TO.N,+36V*%
X126365000Y-101346000D03*
X126365000Y-100457000D03*
X126365000Y-99441000D03*
X126365000Y-98425000D03*
X125095000Y-101346000D03*
X125095000Y-100457000D03*
X125095000Y-98425000D03*
X125095000Y-99441000D03*
X123825000Y-101346000D03*
X123825000Y-100457000D03*
X123825000Y-98425000D03*
X123825000Y-99441000D03*
X122555000Y-101346000D03*
X122555000Y-100457000D03*
X122555000Y-99441000D03*
X122555000Y-98425000D03*
%TO.N,GND1*%
X126365000Y-93853000D03*
X125603000Y-93853000D03*
X124079000Y-93853000D03*
X123317000Y-93853000D03*
X121666000Y-93853000D03*
X120777000Y-93853000D03*
%TO.N,GND*%
X134620000Y-87376000D03*
D13*
X133595000Y-76327000D03*
X157670000Y-86910000D03*
X130305000Y-75637000D03*
D14*
X133604000Y-86233000D03*
D13*
X141270000Y-87570000D03*
X161544000Y-74803000D03*
X123300000Y-90020000D03*
X166130000Y-80480000D03*
X158369000Y-74168000D03*
X128100000Y-79700000D03*
X165670000Y-91810000D03*
X148840000Y-73200000D03*
X162940000Y-84580000D03*
D14*
X134620000Y-85344000D03*
D13*
X133604000Y-76835000D03*
D14*
X133604000Y-88392000D03*
D13*
X139540000Y-71570000D03*
X158210000Y-80390000D03*
X122310000Y-86480000D03*
D14*
X130810000Y-87376000D03*
D13*
X158140000Y-79670000D03*
X142690000Y-76380000D03*
X156060000Y-89170000D03*
X121793000Y-90207000D03*
X139446000Y-88773000D03*
X164000000Y-91690000D03*
X148630000Y-90519200D03*
X150623050Y-90813950D03*
D14*
X131699000Y-86360000D03*
D13*
X158380000Y-75710000D03*
X134010000Y-71620000D03*
X139629209Y-82567401D03*
D14*
X131826000Y-88392000D03*
D13*
X153610000Y-75134200D03*
D14*
X131953000Y-84328000D03*
X132842000Y-85344000D03*
D13*
X128500000Y-71628000D03*
D14*
X132715000Y-87376000D03*
D13*
X122650000Y-85880000D03*
X134985000Y-74797000D03*
D14*
X130810000Y-85344000D03*
D13*
X155923750Y-83383750D03*
X161465099Y-77352599D03*
X123070000Y-83810000D03*
D14*
X133731000Y-84455000D03*
D13*
%TO.N,+3.3V*%
X161550000Y-80837400D03*
X137250000Y-84732600D03*
X156556250Y-86893750D03*
X158421234Y-76318206D03*
X140440000Y-88710000D03*
X143830000Y-76350000D03*
X162940000Y-79380000D03*
X125984000Y-73025000D03*
X140020000Y-88000000D03*
X139065000Y-75819000D03*
X161353750Y-78606250D03*
X139065000Y-76454000D03*
X161485711Y-75961025D03*
X153180000Y-89910000D03*
X139065000Y-77089000D03*
X139900000Y-85145200D03*
X161510000Y-83570000D03*
X147081250Y-90371250D03*
X162020000Y-90950000D03*
X154750000Y-75134200D03*
X141700000Y-88620000D03*
X142420000Y-87580000D03*
X166180000Y-79510000D03*
X140580000Y-71670000D03*
%TO.N,+5V*%
X123373043Y-89414789D03*
X127380000Y-76450000D03*
X152450000Y-91660000D03*
X130302000Y-76708000D03*
X135080000Y-71680000D03*
%TO.N,/RESET*%
X152260000Y-82700000D03*
X158356151Y-79100006D03*
D15*
%TO.N,+36V*%
X129282341Y-89497659D03*
X125576500Y-85852000D03*
D13*
%TO.N,/SWDIO*%
X162179000Y-81380000D03*
X153001013Y-82228963D03*
%TO.N,/SWCLK*%
X162179000Y-82540000D03*
X152565903Y-83274534D03*
%TO.N,/DRV8323RSRGZR/SPB*%
X133867400Y-91120000D03*
X135015928Y-91008874D03*
%TO.N,/MCU_STA*%
X161480000Y-79690000D03*
X152114825Y-80677215D03*
%TO.N,/DRV_STA*%
X161350000Y-82770000D03*
X151730000Y-81150000D03*
%TO.N,/SPI3_MISO*%
X136380132Y-83780135D03*
X146430000Y-84602600D03*
X146440000Y-88910000D03*
%TO.N,/SPI3_SCK*%
X142660810Y-89048508D03*
X136078094Y-82599057D03*
X145970000Y-83550000D03*
%TO.N,/SPI3_MOSI*%
X147049164Y-88886882D03*
X146450562Y-83993344D03*
X136237349Y-83187490D03*
%TO.N,GND1*%
X135498527Y-91491473D03*
X133867400Y-91729603D03*
%TO.N,/TIM1_CH1N*%
X144231442Y-78617034D03*
X131190000Y-79580000D03*
%TO.N,/DRV_SPI_NSS*%
X147529169Y-84047012D03*
X135134867Y-82854867D03*
%TO.N,/TIM1_CH3N*%
X144214885Y-79806674D03*
X129836851Y-83167754D03*
%TO.N,/TIM1_CH3*%
X145353994Y-82094168D03*
X130414132Y-82956632D03*
%TO.N,/TIM1_CH2*%
X131112599Y-82258119D03*
X145100000Y-81540000D03*
%TO.N,/TIM1_CH2N*%
X130265493Y-80481907D03*
X144090000Y-79210000D03*
%TO.N,/TIM1_CH1*%
X131700000Y-81370000D03*
X144650000Y-80890000D03*
%TO.N,/ADC2_IN9*%
X147701000Y-72771000D03*
X129540000Y-71501000D03*
%TO.N,Net-(U8-VCAP_1)*%
X155448000Y-74168000D03*
X146840000Y-74350000D03*
%TO.N,/ADC3_IN2*%
X155575000Y-75692000D03*
X140850000Y-85145200D03*
%TO.N,/USART3_TX*%
X152711700Y-80154032D03*
X163520000Y-78480000D03*
%TO.N,/USART3_RX*%
X152662341Y-79546431D03*
X163490000Y-77540000D03*
%TO.N,/I2C1_SCL*%
X145080000Y-71860000D03*
X147936652Y-83370594D03*
%TO.N,/I2C1_SDA*%
X148546114Y-83357506D03*
X146090000Y-71860000D03*
%TO.N,/ENCODER_STA*%
X151130000Y-81650000D03*
X161428700Y-84678700D03*
%TO.N,Net-(U8-PB2)*%
X146900000Y-74970000D03*
X158496000Y-74803000D03*
%TO.N,/CAN_TX*%
X151504445Y-86405555D03*
X156050000Y-87890000D03*
%TO.N,/CAN_RX*%
X155886000Y-91694000D03*
X150858990Y-86442600D03*
%TO.N,/CAN_STB*%
X158680000Y-87910000D03*
X148970000Y-88910000D03*
%TO.N,/ADC1_IN0*%
X152509605Y-78940395D03*
X139419189Y-86302670D03*
%TO.N,/ADC2_IN1*%
X152880000Y-78350000D03*
X138090000Y-86110000D03*
%TO.N,Net-(U8-PC13)*%
X155990000Y-84920000D03*
X164810000Y-76103800D03*
%TO.N,/ENCODER_CAL_EN*%
X142580000Y-88265000D03*
%TO.N,/ENCODER_SPI_NSS*%
X147967000Y-88748000D03*
%TD*%
%TA.AperFunction,Conductor*%
%TO.N,/DRV8323RSRGZR/PHASB*%
G36*
X138988577Y-99511423D02*
G01*
X139000000Y-99539000D01*
X139000000Y-104000000D01*
X143961000Y-104000000D01*
X143988577Y-104011423D01*
X144000000Y-104039000D01*
X144000000Y-109706500D01*
X143988577Y-109734077D01*
X143961000Y-109745500D01*
X133789000Y-109745500D01*
X133761423Y-109734077D01*
X133750000Y-109706500D01*
X133750000Y-99539000D01*
X133761423Y-99511423D01*
X133789000Y-99500000D01*
X138961000Y-99500000D01*
X138988577Y-99511423D01*
G37*
%TD.AperFunction*%
%TD*%
%TA.AperFunction,Conductor*%
%TO.N,/DRV8323RSRGZR/PHASC*%
G36*
X155943039Y-99519685D02*
G01*
X155988794Y-99572489D01*
X156000000Y-99624000D01*
X156000000Y-109621500D01*
X155980315Y-109688539D01*
X155927511Y-109734294D01*
X155876000Y-109745500D01*
X144624000Y-109745500D01*
X144556961Y-109725815D01*
X144511206Y-109673011D01*
X144500000Y-109621500D01*
X144500000Y-104124000D01*
X144519685Y-104056961D01*
X144572489Y-104011206D01*
X144624000Y-104000000D01*
X150000000Y-104000000D01*
X150000000Y-99624000D01*
X150019685Y-99556961D01*
X150072489Y-99511206D01*
X150124000Y-99500000D01*
X155876000Y-99500000D01*
X155943039Y-99519685D01*
G37*
%TD.AperFunction*%
%TD*%
%TA.AperFunction,Conductor*%
%TO.N,+36V*%
G36*
X127443039Y-97769685D02*
G01*
X127488794Y-97822489D01*
X127500000Y-97874000D01*
X127500000Y-101626000D01*
X127480315Y-101693039D01*
X127427511Y-101738794D01*
X127376000Y-101750000D01*
X120378500Y-101750000D01*
X120311461Y-101730315D01*
X120265706Y-101677511D01*
X120254500Y-101626000D01*
X120254500Y-97874000D01*
X120274185Y-97806961D01*
X120326989Y-97761206D01*
X120378500Y-97750000D01*
X127376000Y-97750000D01*
X127443039Y-97769685D01*
G37*
%TD.AperFunction*%
%TD*%
%TA.AperFunction,Conductor*%
%TO.N,GND*%
G36*
X158331653Y-68265923D02*
G01*
X158343076Y-68293500D01*
X158331653Y-68321077D01*
X158312754Y-68331522D01*
X158236259Y-68348981D01*
X158236250Y-68348983D01*
X157944241Y-68451162D01*
X157944238Y-68451163D01*
X157665491Y-68585402D01*
X157403536Y-68749998D01*
X157403531Y-68750001D01*
X157161662Y-68942886D01*
X156942886Y-69161662D01*
X156750001Y-69403531D01*
X156749998Y-69403536D01*
X156585402Y-69665491D01*
X156451163Y-69944238D01*
X156451162Y-69944241D01*
X156348983Y-70236250D01*
X156348981Y-70236259D01*
X156280141Y-70537865D01*
X156280141Y-70537867D01*
X156280140Y-70537877D01*
X156245500Y-70845311D01*
X156245500Y-71154689D01*
X156276914Y-71433492D01*
X156280141Y-71462132D01*
X156280141Y-71462134D01*
X156348981Y-71763740D01*
X156348983Y-71763749D01*
X156451162Y-72055758D01*
X156451163Y-72055761D01*
X156500210Y-72157607D01*
X156585399Y-72334503D01*
X156585401Y-72334507D01*
X156585402Y-72334508D01*
X156749998Y-72596463D01*
X156750001Y-72596468D01*
X156942886Y-72838337D01*
X157161662Y-73057113D01*
X157403531Y-73249998D01*
X157403536Y-73250001D01*
X157403538Y-73250002D01*
X157665497Y-73414601D01*
X157925460Y-73539793D01*
X157944238Y-73548836D01*
X157944241Y-73548837D01*
X158236250Y-73651016D01*
X158236259Y-73651018D01*
X158537866Y-73719858D01*
X158537870Y-73719858D01*
X158537877Y-73719860D01*
X158845311Y-73754500D01*
X158845316Y-73754500D01*
X159154684Y-73754500D01*
X159154689Y-73754500D01*
X159462123Y-73719860D01*
X159462132Y-73719858D01*
X159462134Y-73719858D01*
X159698404Y-73665930D01*
X159763745Y-73651017D01*
X159763745Y-73651016D01*
X159763749Y-73651016D01*
X159909753Y-73599926D01*
X160055762Y-73548836D01*
X160334503Y-73414601D01*
X160596462Y-73250002D01*
X160596464Y-73250000D01*
X160596468Y-73249998D01*
X160838337Y-73057113D01*
X160838339Y-73057110D01*
X160838344Y-73057107D01*
X161057107Y-72838344D01*
X161062759Y-72831257D01*
X161249998Y-72596468D01*
X161250001Y-72596463D01*
X161251339Y-72594334D01*
X161414601Y-72334503D01*
X161508058Y-72140438D01*
X161530314Y-72120550D01*
X161560117Y-72122223D01*
X161580006Y-72144480D01*
X161582116Y-72157141D01*
X161582143Y-72157140D01*
X161582153Y-72157363D01*
X161582194Y-72157607D01*
X161582190Y-72158161D01*
X161617662Y-72515978D01*
X161690494Y-72868109D01*
X161799877Y-73210642D01*
X161944598Y-73539793D01*
X162123069Y-73851948D01*
X162123075Y-73851956D01*
X162279487Y-74068966D01*
X162333319Y-74143653D01*
X162573017Y-74411678D01*
X162573019Y-74411680D01*
X162573022Y-74411683D01*
X162839510Y-74653059D01*
X162839518Y-74653065D01*
X162839520Y-74653067D01*
X163129885Y-74865154D01*
X163440904Y-75045596D01*
X163440913Y-75045600D01*
X163440919Y-75045603D01*
X163526849Y-75084035D01*
X163769142Y-75192401D01*
X164110975Y-75303948D01*
X164462627Y-75379004D01*
X164820214Y-75416740D01*
X164945412Y-75416766D01*
X164945530Y-75416778D01*
X164949377Y-75416778D01*
X165000000Y-75416778D01*
X165044875Y-75416778D01*
X169706500Y-75416778D01*
X169734077Y-75428201D01*
X169745500Y-75455778D01*
X169745500Y-92211000D01*
X169734077Y-92238577D01*
X169706500Y-92250000D01*
X136539000Y-92250000D01*
X136511423Y-92238577D01*
X136500000Y-92211000D01*
X136500000Y-91599738D01*
X151992300Y-91599738D01*
X151992300Y-91720261D01*
X152023492Y-91836665D01*
X152083749Y-91941035D01*
X152168964Y-92026250D01*
X152168966Y-92026251D01*
X152273335Y-92086508D01*
X152352837Y-92107811D01*
X152389738Y-92117699D01*
X152389741Y-92117699D01*
X152389743Y-92117700D01*
X152389744Y-92117700D01*
X152510256Y-92117700D01*
X152510257Y-92117700D01*
X152626665Y-92086508D01*
X152731034Y-92026251D01*
X152731035Y-92026250D01*
X152731036Y-92026250D01*
X152816250Y-91941036D01*
X152816250Y-91941035D01*
X152816251Y-91941034D01*
X152876508Y-91836665D01*
X152907700Y-91720257D01*
X152907700Y-91633738D01*
X155428300Y-91633738D01*
X155428300Y-91754261D01*
X155459492Y-91870665D01*
X155519749Y-91975035D01*
X155604964Y-92060250D01*
X155604966Y-92060251D01*
X155709335Y-92120508D01*
X155788837Y-92141811D01*
X155825738Y-92151699D01*
X155825741Y-92151699D01*
X155825743Y-92151700D01*
X155825744Y-92151700D01*
X155946256Y-92151700D01*
X155946257Y-92151700D01*
X156062665Y-92120508D01*
X156167034Y-92060251D01*
X156167035Y-92060250D01*
X156167036Y-92060250D01*
X156252250Y-91975036D01*
X156252250Y-91975035D01*
X156260353Y-91961000D01*
X156312508Y-91870665D01*
X156343700Y-91754257D01*
X156343700Y-91633743D01*
X156312508Y-91517335D01*
X156252251Y-91412966D01*
X156252250Y-91412964D01*
X156167035Y-91327749D01*
X156062665Y-91267492D01*
X155946261Y-91236300D01*
X155946257Y-91236300D01*
X155825743Y-91236300D01*
X155825738Y-91236300D01*
X155709334Y-91267492D01*
X155604964Y-91327749D01*
X155604964Y-91327750D01*
X155519750Y-91412964D01*
X155519749Y-91412964D01*
X155459492Y-91517334D01*
X155428300Y-91633738D01*
X152907700Y-91633738D01*
X152907700Y-91599743D01*
X152876508Y-91483335D01*
X152816251Y-91378966D01*
X152816250Y-91378964D01*
X152731035Y-91293749D01*
X152626665Y-91233492D01*
X152510261Y-91202300D01*
X152510257Y-91202300D01*
X152389743Y-91202300D01*
X152389738Y-91202300D01*
X152273334Y-91233492D01*
X152168964Y-91293749D01*
X152168964Y-91293750D01*
X152083750Y-91378964D01*
X152083749Y-91378964D01*
X152023492Y-91483334D01*
X151992300Y-91599738D01*
X136500000Y-91599738D01*
X136500000Y-90889738D01*
X161562300Y-90889738D01*
X161562300Y-91010261D01*
X161593492Y-91126665D01*
X161653749Y-91231035D01*
X161738964Y-91316250D01*
X161738966Y-91316251D01*
X161843335Y-91376508D01*
X161922837Y-91397811D01*
X161959738Y-91407699D01*
X161959741Y-91407699D01*
X161959743Y-91407700D01*
X161959744Y-91407700D01*
X162080256Y-91407700D01*
X162080257Y-91407700D01*
X162196665Y-91376508D01*
X162301034Y-91316251D01*
X162301035Y-91316250D01*
X162301036Y-91316250D01*
X162386250Y-91231036D01*
X162386250Y-91231035D01*
X162412517Y-91185539D01*
X162446508Y-91126665D01*
X162477700Y-91010257D01*
X162477700Y-90889743D01*
X162446508Y-90773335D01*
X162386251Y-90668966D01*
X162386250Y-90668964D01*
X162301035Y-90583749D01*
X162196665Y-90523492D01*
X162080261Y-90492300D01*
X162080257Y-90492300D01*
X161959743Y-90492300D01*
X161959738Y-90492300D01*
X161843334Y-90523492D01*
X161738964Y-90583749D01*
X161738964Y-90583750D01*
X161653750Y-90668964D01*
X161653749Y-90668964D01*
X161593492Y-90773334D01*
X161562300Y-90889738D01*
X136500000Y-90889738D01*
X136500000Y-90500000D01*
X132000000Y-90500000D01*
X132000000Y-91961000D01*
X131988577Y-91988577D01*
X131961000Y-92000000D01*
X120293500Y-92000000D01*
X120265923Y-91988577D01*
X120254500Y-91961000D01*
X120254500Y-90310988D01*
X146623550Y-90310988D01*
X146623550Y-90431511D01*
X146654742Y-90547915D01*
X146714999Y-90652285D01*
X146800214Y-90737500D01*
X146800216Y-90737501D01*
X146904585Y-90797758D01*
X146984087Y-90819061D01*
X147020988Y-90828949D01*
X147020991Y-90828949D01*
X147020993Y-90828950D01*
X147020994Y-90828950D01*
X147141506Y-90828950D01*
X147141507Y-90828950D01*
X147257915Y-90797758D01*
X147362284Y-90737501D01*
X147362285Y-90737500D01*
X147362286Y-90737500D01*
X147447500Y-90652286D01*
X147447500Y-90652285D01*
X147447501Y-90652284D01*
X147507758Y-90547915D01*
X147538950Y-90431507D01*
X147538950Y-90310993D01*
X147507758Y-90194585D01*
X147447501Y-90090216D01*
X147447500Y-90090214D01*
X147362285Y-90004999D01*
X147257915Y-89944742D01*
X147141511Y-89913550D01*
X147141507Y-89913550D01*
X147020993Y-89913550D01*
X147020988Y-89913550D01*
X146904584Y-89944742D01*
X146800214Y-90004999D01*
X146800214Y-90005000D01*
X146715000Y-90090214D01*
X146714999Y-90090214D01*
X146654742Y-90194584D01*
X146623550Y-90310988D01*
X120254500Y-90310988D01*
X120254500Y-89354527D01*
X122915343Y-89354527D01*
X122915343Y-89475050D01*
X122946535Y-89591454D01*
X123006792Y-89695824D01*
X123092007Y-89781039D01*
X123092009Y-89781040D01*
X123196378Y-89841297D01*
X123275880Y-89862600D01*
X123312781Y-89872488D01*
X123312784Y-89872488D01*
X123312786Y-89872489D01*
X123312787Y-89872489D01*
X123433299Y-89872489D01*
X123433300Y-89872489D01*
X123549708Y-89841297D01*
X123654077Y-89781040D01*
X123654078Y-89781039D01*
X123654079Y-89781039D01*
X123739293Y-89695825D01*
X123739293Y-89695824D01*
X123739294Y-89695823D01*
X123799551Y-89591454D01*
X123830743Y-89475046D01*
X123830743Y-89424653D01*
X128727841Y-89424653D01*
X128727841Y-89570664D01*
X128765627Y-89711685D01*
X128838630Y-89838131D01*
X128941868Y-89941369D01*
X129068314Y-90014372D01*
X129209335Y-90052158D01*
X129209338Y-90052158D01*
X129209340Y-90052159D01*
X129209341Y-90052159D01*
X129355341Y-90052159D01*
X129355342Y-90052159D01*
X129355346Y-90052158D01*
X129496367Y-90014372D01*
X129496367Y-90014371D01*
X129496370Y-90014371D01*
X129622812Y-89941370D01*
X129622813Y-89941369D01*
X129622814Y-89941369D01*
X129714444Y-89849738D01*
X152722300Y-89849738D01*
X152722300Y-89970261D01*
X152753492Y-90086665D01*
X152813749Y-90191035D01*
X152898964Y-90276250D01*
X152898966Y-90276251D01*
X153003335Y-90336508D01*
X153082837Y-90357811D01*
X153119738Y-90367699D01*
X153119741Y-90367699D01*
X153119743Y-90367700D01*
X153119744Y-90367700D01*
X153240256Y-90367700D01*
X153240257Y-90367700D01*
X153356665Y-90336508D01*
X153461034Y-90276251D01*
X153461035Y-90276250D01*
X153461036Y-90276250D01*
X153546250Y-90191036D01*
X153546250Y-90191035D01*
X153546251Y-90191034D01*
X153606508Y-90086665D01*
X153637700Y-89970257D01*
X153637700Y-89849743D01*
X153606508Y-89733335D01*
X153546251Y-89628966D01*
X153546250Y-89628964D01*
X153461035Y-89543749D01*
X153356665Y-89483492D01*
X153240261Y-89452300D01*
X153240257Y-89452300D01*
X153119743Y-89452300D01*
X153119738Y-89452300D01*
X153003334Y-89483492D01*
X152898964Y-89543749D01*
X152898964Y-89543750D01*
X152813750Y-89628964D01*
X152813749Y-89628964D01*
X152753492Y-89733334D01*
X152722300Y-89849738D01*
X129714444Y-89849738D01*
X129726050Y-89838132D01*
X129726051Y-89838131D01*
X129726052Y-89838130D01*
X129799053Y-89711688D01*
X129803304Y-89695825D01*
X129836840Y-89570664D01*
X129836841Y-89570658D01*
X129836841Y-89424659D01*
X129836840Y-89424653D01*
X129799054Y-89283632D01*
X129726051Y-89157186D01*
X129622813Y-89053948D01*
X129496367Y-88980945D01*
X129355346Y-88943159D01*
X129355342Y-88943159D01*
X129209340Y-88943159D01*
X129209335Y-88943159D01*
X129068314Y-88980945D01*
X128941868Y-89053948D01*
X128941868Y-89053949D01*
X128838631Y-89157186D01*
X128838630Y-89157186D01*
X128765627Y-89283632D01*
X128727841Y-89424653D01*
X123830743Y-89424653D01*
X123830743Y-89354532D01*
X123825913Y-89336508D01*
X123811745Y-89283632D01*
X123799551Y-89238124D01*
X123752822Y-89157186D01*
X123739293Y-89133753D01*
X123654078Y-89048538D01*
X123549708Y-88988281D01*
X123433304Y-88957089D01*
X123433300Y-88957089D01*
X123312786Y-88957089D01*
X123312781Y-88957089D01*
X123196377Y-88988281D01*
X123092007Y-89048538D01*
X123092007Y-89048539D01*
X123006793Y-89133753D01*
X123006792Y-89133753D01*
X122946535Y-89238123D01*
X122915343Y-89354527D01*
X120254500Y-89354527D01*
X120254500Y-87939738D01*
X139562300Y-87939738D01*
X139562300Y-88060261D01*
X139593492Y-88176665D01*
X139653749Y-88281035D01*
X139738964Y-88366250D01*
X139738966Y-88366251D01*
X139843335Y-88426508D01*
X139922837Y-88447811D01*
X139959738Y-88457699D01*
X139959741Y-88457699D01*
X139959743Y-88457700D01*
X139989610Y-88457700D01*
X140017187Y-88469123D01*
X140028610Y-88496700D01*
X140023385Y-88516200D01*
X140013492Y-88533334D01*
X139982300Y-88649738D01*
X139982300Y-88770261D01*
X140013492Y-88886665D01*
X140073749Y-88991035D01*
X140158964Y-89076250D01*
X140158966Y-89076251D01*
X140263335Y-89136508D01*
X140340505Y-89157186D01*
X140379738Y-89167699D01*
X140379741Y-89167699D01*
X140379743Y-89167700D01*
X140379744Y-89167700D01*
X140500256Y-89167700D01*
X140500257Y-89167700D01*
X140616665Y-89136508D01*
X140721034Y-89076251D01*
X140721035Y-89076250D01*
X140721036Y-89076250D01*
X140806250Y-88991036D01*
X140806250Y-88991035D01*
X140807857Y-88988252D01*
X140866508Y-88886665D01*
X140897700Y-88770257D01*
X140897700Y-88649743D01*
X140892745Y-88631252D01*
X140875604Y-88567281D01*
X140873584Y-88559743D01*
X140873583Y-88559738D01*
X141242300Y-88559738D01*
X141242300Y-88680261D01*
X141273492Y-88796665D01*
X141333749Y-88901035D01*
X141418964Y-88986250D01*
X141418966Y-88986251D01*
X141523335Y-89046508D01*
X141602837Y-89067811D01*
X141639738Y-89077699D01*
X141639741Y-89077699D01*
X141639743Y-89077700D01*
X141639744Y-89077700D01*
X141760256Y-89077700D01*
X141760257Y-89077700D01*
X141876665Y-89046508D01*
X141981034Y-88986251D01*
X141981035Y-88986250D01*
X141981036Y-88986250D01*
X142066250Y-88901036D01*
X142066250Y-88901035D01*
X142066251Y-88901034D01*
X142126508Y-88796665D01*
X142157700Y-88680257D01*
X142157700Y-88584140D01*
X142169123Y-88556563D01*
X142196700Y-88545140D01*
X142224277Y-88556563D01*
X142298964Y-88631250D01*
X142298967Y-88631252D01*
X142338516Y-88654085D01*
X142356688Y-88677765D01*
X142352792Y-88707359D01*
X142346594Y-88715437D01*
X142294559Y-88767472D01*
X142234302Y-88871842D01*
X142203110Y-88988246D01*
X142203110Y-89108769D01*
X142234302Y-89225173D01*
X142294559Y-89329543D01*
X142379774Y-89414758D01*
X142379776Y-89414759D01*
X142484145Y-89475016D01*
X142563647Y-89496319D01*
X142600548Y-89506207D01*
X142600551Y-89506207D01*
X142600553Y-89506208D01*
X142600554Y-89506208D01*
X142721066Y-89506208D01*
X142721067Y-89506208D01*
X142837475Y-89475016D01*
X142941844Y-89414759D01*
X142941845Y-89414758D01*
X142941846Y-89414758D01*
X143027060Y-89329544D01*
X143027060Y-89329543D01*
X143036386Y-89313390D01*
X143087318Y-89225173D01*
X143118510Y-89108765D01*
X143118510Y-88988251D01*
X143116552Y-88980945D01*
X143095140Y-88901035D01*
X143087318Y-88871843D01*
X143074556Y-88849738D01*
X145982300Y-88849738D01*
X145982300Y-88970261D01*
X146013492Y-89086665D01*
X146073749Y-89191035D01*
X146158964Y-89276250D01*
X146158966Y-89276251D01*
X146263335Y-89336508D01*
X146330604Y-89354533D01*
X146379738Y-89367699D01*
X146379741Y-89367699D01*
X146379743Y-89367700D01*
X146379744Y-89367700D01*
X146500256Y-89367700D01*
X146500257Y-89367700D01*
X146616665Y-89336508D01*
X146721034Y-89276251D01*
X146731767Y-89265518D01*
X146759343Y-89254094D01*
X146778844Y-89259318D01*
X146872499Y-89313390D01*
X146952001Y-89334693D01*
X146988902Y-89344581D01*
X146988905Y-89344581D01*
X146988907Y-89344582D01*
X146988908Y-89344582D01*
X147109420Y-89344582D01*
X147109421Y-89344582D01*
X147225829Y-89313390D01*
X147330198Y-89253133D01*
X147330199Y-89253132D01*
X147330200Y-89253132D01*
X147415414Y-89167918D01*
X147415414Y-89167917D01*
X147415415Y-89167916D01*
X147475672Y-89063547D01*
X147497268Y-88982950D01*
X147515438Y-88959271D01*
X147545032Y-88955375D01*
X147568713Y-88973546D01*
X147600749Y-89029035D01*
X147685964Y-89114250D01*
X147685966Y-89114251D01*
X147790335Y-89174508D01*
X147869837Y-89195811D01*
X147906738Y-89205699D01*
X147906741Y-89205699D01*
X147906743Y-89205700D01*
X147906744Y-89205700D01*
X148027256Y-89205700D01*
X148027257Y-89205700D01*
X148143665Y-89174508D01*
X148248034Y-89114251D01*
X148248035Y-89114250D01*
X148248036Y-89114250D01*
X148333250Y-89029036D01*
X148333250Y-89029035D01*
X148333251Y-89029034D01*
X148393508Y-88924665D01*
X148413585Y-88849738D01*
X148512300Y-88849738D01*
X148512300Y-88970261D01*
X148543492Y-89086665D01*
X148603749Y-89191035D01*
X148688964Y-89276250D01*
X148688966Y-89276251D01*
X148793335Y-89336508D01*
X148860604Y-89354533D01*
X148909738Y-89367699D01*
X148909741Y-89367699D01*
X148909743Y-89367700D01*
X148909744Y-89367700D01*
X149030256Y-89367700D01*
X149030257Y-89367700D01*
X149146665Y-89336508D01*
X149251034Y-89276251D01*
X149251035Y-89276250D01*
X149251036Y-89276250D01*
X149336250Y-89191036D01*
X149336250Y-89191035D01*
X149345792Y-89174508D01*
X149396508Y-89086665D01*
X149427700Y-88970257D01*
X149427700Y-88849743D01*
X149424310Y-88837093D01*
X149416583Y-88808255D01*
X149396508Y-88733335D01*
X149336251Y-88628966D01*
X149336250Y-88628964D01*
X149251035Y-88543749D01*
X149146665Y-88483492D01*
X149030261Y-88452300D01*
X149030257Y-88452300D01*
X148909743Y-88452300D01*
X148909738Y-88452300D01*
X148793334Y-88483492D01*
X148688964Y-88543749D01*
X148688964Y-88543750D01*
X148603750Y-88628964D01*
X148603749Y-88628964D01*
X148543492Y-88733334D01*
X148512300Y-88849738D01*
X148413585Y-88849738D01*
X148424700Y-88808257D01*
X148424700Y-88687743D01*
X148422026Y-88677765D01*
X148414516Y-88649738D01*
X148393508Y-88571335D01*
X148333251Y-88466966D01*
X148333250Y-88466964D01*
X148248035Y-88381749D01*
X148143665Y-88321492D01*
X148027261Y-88290300D01*
X148027257Y-88290300D01*
X147906743Y-88290300D01*
X147906738Y-88290300D01*
X147790334Y-88321492D01*
X147685964Y-88381749D01*
X147685964Y-88381750D01*
X147600750Y-88466964D01*
X147600749Y-88466964D01*
X147540493Y-88571333D01*
X147518896Y-88651930D01*
X147500724Y-88675610D01*
X147471130Y-88679506D01*
X147447450Y-88661335D01*
X147440757Y-88649743D01*
X147415415Y-88605848D01*
X147415414Y-88605846D01*
X147330199Y-88520631D01*
X147225829Y-88460374D01*
X147109425Y-88429182D01*
X147109421Y-88429182D01*
X146988907Y-88429182D01*
X146988902Y-88429182D01*
X146872498Y-88460374D01*
X146768128Y-88520631D01*
X146757394Y-88531365D01*
X146729816Y-88542787D01*
X146710318Y-88537562D01*
X146616665Y-88483492D01*
X146500261Y-88452300D01*
X146500257Y-88452300D01*
X146379743Y-88452300D01*
X146379738Y-88452300D01*
X146263334Y-88483492D01*
X146158964Y-88543749D01*
X146158964Y-88543750D01*
X146073750Y-88628964D01*
X146073749Y-88628964D01*
X146013492Y-88733334D01*
X145982300Y-88849738D01*
X143074556Y-88849738D01*
X143027061Y-88767474D01*
X143027060Y-88767472D01*
X142941845Y-88682257D01*
X142902292Y-88659421D01*
X142884121Y-88635740D01*
X142888017Y-88606146D01*
X142894208Y-88598076D01*
X142946251Y-88546034D01*
X143006508Y-88441665D01*
X143037700Y-88325257D01*
X143037700Y-88204743D01*
X143006508Y-88088335D01*
X142946251Y-87983966D01*
X142946250Y-87983964D01*
X142861035Y-87898749D01*
X142822390Y-87876437D01*
X142822389Y-87876437D01*
X142811437Y-87862163D01*
X142804219Y-87852756D01*
X142804291Y-87852212D01*
X142807249Y-87829738D01*
X155592300Y-87829738D01*
X155592300Y-87950261D01*
X155623492Y-88066665D01*
X155683749Y-88171035D01*
X155768964Y-88256250D01*
X155768966Y-88256251D01*
X155873335Y-88316508D01*
X155947971Y-88336507D01*
X155989738Y-88347699D01*
X155989741Y-88347699D01*
X155989743Y-88347700D01*
X155989744Y-88347700D01*
X156110256Y-88347700D01*
X156110257Y-88347700D01*
X156226665Y-88316508D01*
X156331034Y-88256251D01*
X156331035Y-88256250D01*
X156331036Y-88256250D01*
X156416250Y-88171036D01*
X156416250Y-88171035D01*
X156416251Y-88171034D01*
X156476508Y-88066665D01*
X156507700Y-87950257D01*
X156507700Y-87849738D01*
X158222300Y-87849738D01*
X158222300Y-87970261D01*
X158253492Y-88086665D01*
X158313749Y-88191035D01*
X158398964Y-88276250D01*
X158398966Y-88276251D01*
X158503335Y-88336508D01*
X158582837Y-88357811D01*
X158619738Y-88367699D01*
X158619741Y-88367699D01*
X158619743Y-88367700D01*
X158619744Y-88367700D01*
X158740256Y-88367700D01*
X158740257Y-88367700D01*
X158856665Y-88336508D01*
X158961034Y-88276251D01*
X158961035Y-88276250D01*
X158961036Y-88276250D01*
X159046250Y-88191036D01*
X159046250Y-88191035D01*
X159046251Y-88191034D01*
X159106508Y-88086665D01*
X159137700Y-87970257D01*
X159137700Y-87849743D01*
X159106508Y-87733335D01*
X159049013Y-87633750D01*
X159046250Y-87628964D01*
X158961035Y-87543749D01*
X158856665Y-87483492D01*
X158740261Y-87452300D01*
X158740257Y-87452300D01*
X158619743Y-87452300D01*
X158619738Y-87452300D01*
X158503334Y-87483492D01*
X158398964Y-87543749D01*
X158398964Y-87543750D01*
X158313750Y-87628964D01*
X158313749Y-87628964D01*
X158253492Y-87733334D01*
X158222300Y-87849738D01*
X156507700Y-87849738D01*
X156507700Y-87829743D01*
X156505936Y-87823161D01*
X156481867Y-87733335D01*
X156476508Y-87713335D01*
X156416251Y-87608966D01*
X156416250Y-87608964D01*
X156331035Y-87523749D01*
X156226665Y-87463492D01*
X156110261Y-87432300D01*
X156110257Y-87432300D01*
X155989743Y-87432300D01*
X155989738Y-87432300D01*
X155873334Y-87463492D01*
X155768964Y-87523749D01*
X155768964Y-87523750D01*
X155683750Y-87608964D01*
X155683749Y-87608964D01*
X155623492Y-87713334D01*
X155592300Y-87829738D01*
X142807249Y-87829738D01*
X142808114Y-87823163D01*
X142846508Y-87756665D01*
X142877700Y-87640257D01*
X142877700Y-87519743D01*
X142846508Y-87403335D01*
X142786251Y-87298966D01*
X142786250Y-87298964D01*
X142701035Y-87213749D01*
X142596665Y-87153492D01*
X142480261Y-87122300D01*
X142480257Y-87122300D01*
X142359743Y-87122300D01*
X142359738Y-87122300D01*
X142243334Y-87153492D01*
X142138964Y-87213749D01*
X142138964Y-87213750D01*
X142053750Y-87298964D01*
X142053749Y-87298964D01*
X141993492Y-87403334D01*
X141962300Y-87519738D01*
X141962300Y-87640261D01*
X141993492Y-87756665D01*
X142053749Y-87861035D01*
X142138964Y-87946250D01*
X142177609Y-87968561D01*
X142195780Y-87992242D01*
X142191884Y-88021835D01*
X142153494Y-88088330D01*
X142153492Y-88088334D01*
X142122300Y-88204738D01*
X142122300Y-88300860D01*
X142110877Y-88328437D01*
X142083300Y-88339860D01*
X142055723Y-88328437D01*
X141981035Y-88253749D01*
X141876665Y-88193492D01*
X141760261Y-88162300D01*
X141760257Y-88162300D01*
X141639743Y-88162300D01*
X141639738Y-88162300D01*
X141523334Y-88193492D01*
X141418964Y-88253749D01*
X141418964Y-88253750D01*
X141333750Y-88338964D01*
X141333749Y-88338964D01*
X141273492Y-88443334D01*
X141242300Y-88559738D01*
X140873583Y-88559738D01*
X140866508Y-88533335D01*
X140806251Y-88428966D01*
X140806250Y-88428964D01*
X140721035Y-88343749D01*
X140616665Y-88283492D01*
X140500261Y-88252300D01*
X140500257Y-88252300D01*
X140470390Y-88252300D01*
X140442813Y-88240877D01*
X140431390Y-88213300D01*
X140436615Y-88193800D01*
X140438212Y-88191034D01*
X140446508Y-88176665D01*
X140477700Y-88060257D01*
X140477700Y-87939743D01*
X140446508Y-87823335D01*
X140386251Y-87718966D01*
X140386250Y-87718964D01*
X140301035Y-87633749D01*
X140196665Y-87573492D01*
X140080261Y-87542300D01*
X140080257Y-87542300D01*
X139959743Y-87542300D01*
X139959738Y-87542300D01*
X139843334Y-87573492D01*
X139738964Y-87633749D01*
X139738964Y-87633750D01*
X139653750Y-87718964D01*
X139653749Y-87718964D01*
X139593492Y-87823334D01*
X139562300Y-87939738D01*
X120254500Y-87939738D01*
X120254500Y-85778994D01*
X125022000Y-85778994D01*
X125022000Y-85925005D01*
X125059786Y-86066026D01*
X125132789Y-86192472D01*
X125236027Y-86295710D01*
X125236029Y-86295711D01*
X125352449Y-86362926D01*
X125362473Y-86368713D01*
X125503494Y-86406499D01*
X125503497Y-86406499D01*
X125503499Y-86406500D01*
X125503500Y-86406500D01*
X125649500Y-86406500D01*
X125649501Y-86406500D01*
X125707218Y-86391035D01*
X125790526Y-86368713D01*
X125790526Y-86368712D01*
X125790529Y-86368712D01*
X125916971Y-86295711D01*
X125916972Y-86295710D01*
X125916973Y-86295710D01*
X126020210Y-86192473D01*
X126020210Y-86192472D01*
X126020211Y-86192471D01*
X126093212Y-86066029D01*
X126097576Y-86049743D01*
X126097577Y-86049738D01*
X137632300Y-86049738D01*
X137632300Y-86170261D01*
X137663492Y-86286665D01*
X137723749Y-86391035D01*
X137808964Y-86476250D01*
X137836928Y-86492395D01*
X137913335Y-86536508D01*
X137992837Y-86557811D01*
X138029738Y-86567699D01*
X138029741Y-86567699D01*
X138029743Y-86567700D01*
X138029744Y-86567700D01*
X138150256Y-86567700D01*
X138150257Y-86567700D01*
X138266665Y-86536508D01*
X138371034Y-86476251D01*
X138371035Y-86476250D01*
X138371036Y-86476250D01*
X138456250Y-86391036D01*
X138456250Y-86391035D01*
X138456251Y-86391034D01*
X138516508Y-86286665D01*
X138528367Y-86242408D01*
X138961489Y-86242408D01*
X138961489Y-86362931D01*
X138992681Y-86479335D01*
X139052938Y-86583705D01*
X139138153Y-86668920D01*
X139138155Y-86668921D01*
X139242524Y-86729178D01*
X139315137Y-86748635D01*
X139358927Y-86760369D01*
X139358930Y-86760369D01*
X139358932Y-86760370D01*
X139358933Y-86760370D01*
X139479445Y-86760370D01*
X139479446Y-86760370D01*
X139595854Y-86729178D01*
X139700223Y-86668921D01*
X139700224Y-86668920D01*
X139700225Y-86668920D01*
X139785439Y-86583706D01*
X139785439Y-86583705D01*
X139785440Y-86583704D01*
X139845697Y-86479335D01*
X139871688Y-86382338D01*
X150401290Y-86382338D01*
X150401290Y-86502861D01*
X150432482Y-86619265D01*
X150492739Y-86723635D01*
X150577954Y-86808850D01*
X150577956Y-86808851D01*
X150682325Y-86869108D01*
X150761827Y-86890411D01*
X150798728Y-86900299D01*
X150798731Y-86900299D01*
X150798733Y-86900300D01*
X150798734Y-86900300D01*
X150919246Y-86900300D01*
X150919247Y-86900300D01*
X151035655Y-86869108D01*
X151140024Y-86808851D01*
X151173004Y-86775870D01*
X151200580Y-86764447D01*
X151220755Y-86771293D01*
X151221197Y-86770528D01*
X151223411Y-86771806D01*
X151327780Y-86832063D01*
X151407282Y-86853366D01*
X151444183Y-86863254D01*
X151444186Y-86863254D01*
X151444188Y-86863255D01*
X151444189Y-86863255D01*
X151564701Y-86863255D01*
X151564702Y-86863255D01*
X151675792Y-86833488D01*
X156098550Y-86833488D01*
X156098550Y-86954011D01*
X156129742Y-87070415D01*
X156189999Y-87174785D01*
X156275214Y-87260000D01*
X156275216Y-87260001D01*
X156379585Y-87320258D01*
X156459087Y-87341561D01*
X156495988Y-87351449D01*
X156495991Y-87351449D01*
X156495993Y-87351450D01*
X156495994Y-87351450D01*
X156616506Y-87351450D01*
X156616507Y-87351450D01*
X156732915Y-87320258D01*
X156837284Y-87260001D01*
X156837285Y-87260000D01*
X156837286Y-87260000D01*
X156922500Y-87174786D01*
X156922500Y-87174785D01*
X156922501Y-87174784D01*
X156982758Y-87070415D01*
X157013950Y-86954007D01*
X157013950Y-86833493D01*
X156982758Y-86717085D01*
X156922501Y-86612716D01*
X156922500Y-86612714D01*
X156837285Y-86527499D01*
X156732915Y-86467242D01*
X156616511Y-86436050D01*
X156616507Y-86436050D01*
X156495993Y-86436050D01*
X156495988Y-86436050D01*
X156379584Y-86467242D01*
X156275214Y-86527499D01*
X156275214Y-86527500D01*
X156190000Y-86612714D01*
X156189999Y-86612714D01*
X156129742Y-86717084D01*
X156098550Y-86833488D01*
X151675792Y-86833488D01*
X151681110Y-86832063D01*
X151785479Y-86771806D01*
X151785480Y-86771805D01*
X151785481Y-86771805D01*
X151870695Y-86686591D01*
X151870695Y-86686590D01*
X151870696Y-86686589D01*
X151930953Y-86582220D01*
X151962145Y-86465812D01*
X151962145Y-86345298D01*
X151930953Y-86228890D01*
X151870696Y-86124521D01*
X151870695Y-86124519D01*
X151785480Y-86039304D01*
X151681110Y-85979047D01*
X151564706Y-85947855D01*
X151564702Y-85947855D01*
X151444188Y-85947855D01*
X151444183Y-85947855D01*
X151327779Y-85979047D01*
X151223409Y-86039304D01*
X151223409Y-86039305D01*
X151190430Y-86072284D01*
X151162853Y-86083707D01*
X151142679Y-86076862D01*
X151142238Y-86077627D01*
X151035655Y-86016092D01*
X150919251Y-85984900D01*
X150919247Y-85984900D01*
X150798733Y-85984900D01*
X150798728Y-85984900D01*
X150682324Y-86016092D01*
X150577954Y-86076349D01*
X150577954Y-86076350D01*
X150492740Y-86161564D01*
X150492739Y-86161564D01*
X150432482Y-86265934D01*
X150401290Y-86382338D01*
X139871688Y-86382338D01*
X139876889Y-86362927D01*
X139876889Y-86242413D01*
X139873499Y-86229763D01*
X139863507Y-86192471D01*
X139845697Y-86126005D01*
X139785440Y-86021636D01*
X139785439Y-86021634D01*
X139700224Y-85936419D01*
X139595854Y-85876162D01*
X139479450Y-85844970D01*
X139479446Y-85844970D01*
X139358932Y-85844970D01*
X139358927Y-85844970D01*
X139242523Y-85876162D01*
X139138153Y-85936419D01*
X139138153Y-85936420D01*
X139052939Y-86021634D01*
X139052938Y-86021634D01*
X138992681Y-86126004D01*
X138961489Y-86242408D01*
X138528367Y-86242408D01*
X138547700Y-86170257D01*
X138547700Y-86049743D01*
X138544310Y-86037093D01*
X138530325Y-85984900D01*
X138516508Y-85933335D01*
X138456251Y-85828966D01*
X138456250Y-85828964D01*
X138371035Y-85743749D01*
X138266665Y-85683492D01*
X138150261Y-85652300D01*
X138150257Y-85652300D01*
X138029743Y-85652300D01*
X138029738Y-85652300D01*
X137913334Y-85683492D01*
X137808964Y-85743749D01*
X137808964Y-85743750D01*
X137723750Y-85828964D01*
X137723749Y-85828964D01*
X137663492Y-85933334D01*
X137632300Y-86049738D01*
X126097577Y-86049738D01*
X126100966Y-86037093D01*
X126130999Y-85925005D01*
X126131000Y-85924999D01*
X126131000Y-85779000D01*
X126130999Y-85778994D01*
X126093213Y-85637973D01*
X126020210Y-85511527D01*
X125916972Y-85408289D01*
X125790526Y-85335286D01*
X125649505Y-85297500D01*
X125649501Y-85297500D01*
X125503499Y-85297500D01*
X125503494Y-85297500D01*
X125362473Y-85335286D01*
X125236027Y-85408289D01*
X125236027Y-85408290D01*
X125132790Y-85511527D01*
X125132789Y-85511527D01*
X125059786Y-85637973D01*
X125022000Y-85778994D01*
X120254500Y-85778994D01*
X120254500Y-84672338D01*
X136792300Y-84672338D01*
X136792300Y-84792861D01*
X136823492Y-84909265D01*
X136883749Y-85013635D01*
X136968964Y-85098850D01*
X136968966Y-85098851D01*
X137073335Y-85159108D01*
X137152837Y-85180411D01*
X137189738Y-85190299D01*
X137189741Y-85190299D01*
X137189743Y-85190300D01*
X137189744Y-85190300D01*
X137310256Y-85190300D01*
X137310257Y-85190300D01*
X137426665Y-85159108D01*
X137531034Y-85098851D01*
X137531035Y-85098850D01*
X137531036Y-85098850D01*
X137544948Y-85084938D01*
X139442300Y-85084938D01*
X139442300Y-85205461D01*
X139473492Y-85321865D01*
X139533749Y-85426235D01*
X139618964Y-85511450D01*
X139619101Y-85511529D01*
X139723335Y-85571708D01*
X139802837Y-85593011D01*
X139839738Y-85602899D01*
X139839741Y-85602899D01*
X139839743Y-85602900D01*
X139839744Y-85602900D01*
X139960256Y-85602900D01*
X139960257Y-85602900D01*
X140076665Y-85571708D01*
X140181034Y-85511451D01*
X140181035Y-85511450D01*
X140181036Y-85511450D01*
X140266250Y-85426236D01*
X140266250Y-85426235D01*
X140266251Y-85426234D01*
X140326508Y-85321865D01*
X140337329Y-85281479D01*
X140355500Y-85257799D01*
X140385094Y-85253903D01*
X140408775Y-85272074D01*
X140412671Y-85281480D01*
X140423492Y-85321865D01*
X140483749Y-85426235D01*
X140568964Y-85511450D01*
X140569101Y-85511529D01*
X140673335Y-85571708D01*
X140752837Y-85593011D01*
X140789738Y-85602899D01*
X140789741Y-85602899D01*
X140789743Y-85602900D01*
X140789744Y-85602900D01*
X140910256Y-85602900D01*
X140910257Y-85602900D01*
X141026665Y-85571708D01*
X141131034Y-85511451D01*
X141131035Y-85511450D01*
X141131036Y-85511450D01*
X141216250Y-85426236D01*
X141216250Y-85426235D01*
X141216251Y-85426234D01*
X141276508Y-85321865D01*
X141307700Y-85205457D01*
X141307700Y-85084943D01*
X141276508Y-84968535D01*
X141216251Y-84864166D01*
X141216250Y-84864164D01*
X141131035Y-84778949D01*
X141026665Y-84718692D01*
X140910261Y-84687500D01*
X140910257Y-84687500D01*
X140789743Y-84687500D01*
X140789738Y-84687500D01*
X140673334Y-84718692D01*
X140568964Y-84778949D01*
X140568964Y-84778950D01*
X140483750Y-84864164D01*
X140483749Y-84864164D01*
X140423492Y-84968534D01*
X140412671Y-85008919D01*
X140394500Y-85032600D01*
X140364906Y-85036496D01*
X140341225Y-85018325D01*
X140337329Y-85008919D01*
X140326508Y-84968535D01*
X140266251Y-84864166D01*
X140266250Y-84864164D01*
X140181035Y-84778949D01*
X140076665Y-84718692D01*
X139960261Y-84687500D01*
X139960257Y-84687500D01*
X139839743Y-84687500D01*
X139839738Y-84687500D01*
X139723334Y-84718692D01*
X139618964Y-84778949D01*
X139618964Y-84778950D01*
X139533750Y-84864164D01*
X139533749Y-84864164D01*
X139473492Y-84968534D01*
X139442300Y-85084938D01*
X137544948Y-85084938D01*
X137616250Y-85013636D01*
X137616250Y-85013635D01*
X137618973Y-85008919D01*
X137676508Y-84909265D01*
X137707700Y-84792857D01*
X137707700Y-84672343D01*
X137705159Y-84662861D01*
X137697811Y-84635437D01*
X137676508Y-84555935D01*
X137628926Y-84473520D01*
X137616250Y-84451564D01*
X137531035Y-84366349D01*
X137426665Y-84306092D01*
X137310261Y-84274900D01*
X137310257Y-84274900D01*
X137189743Y-84274900D01*
X137189738Y-84274900D01*
X137073334Y-84306092D01*
X136968964Y-84366349D01*
X136968964Y-84366350D01*
X136883750Y-84451564D01*
X136883749Y-84451564D01*
X136823492Y-84555934D01*
X136792300Y-84672338D01*
X120254500Y-84672338D01*
X120254500Y-83107492D01*
X129379151Y-83107492D01*
X129379151Y-83228015D01*
X129410343Y-83344419D01*
X129470600Y-83448789D01*
X129555815Y-83534004D01*
X129558656Y-83535644D01*
X129660186Y-83594262D01*
X129739688Y-83615565D01*
X129776589Y-83625453D01*
X129776592Y-83625453D01*
X129776594Y-83625454D01*
X129776595Y-83625454D01*
X129897107Y-83625454D01*
X129897108Y-83625454D01*
X130013516Y-83594262D01*
X130117885Y-83534005D01*
X130117886Y-83534004D01*
X130117887Y-83534004D01*
X130203096Y-83448794D01*
X130203102Y-83448788D01*
X130225567Y-83409875D01*
X130249246Y-83391705D01*
X130269433Y-83391705D01*
X130353875Y-83414332D01*
X130353876Y-83414332D01*
X130474388Y-83414332D01*
X130474389Y-83414332D01*
X130590797Y-83383140D01*
X130695166Y-83322883D01*
X130695167Y-83322882D01*
X130695168Y-83322882D01*
X130780382Y-83237668D01*
X130780382Y-83237667D01*
X130780383Y-83237666D01*
X130840640Y-83133297D01*
X130871832Y-83016889D01*
X130871832Y-82896375D01*
X130869244Y-82886718D01*
X130851699Y-82821239D01*
X130844564Y-82794611D01*
X134677167Y-82794611D01*
X134677167Y-82915128D01*
X134708359Y-83031532D01*
X134768616Y-83135902D01*
X134853831Y-83221117D01*
X134853833Y-83221118D01*
X134958202Y-83281375D01*
X135037704Y-83302678D01*
X135074605Y-83312566D01*
X135074608Y-83312566D01*
X135074610Y-83312567D01*
X135074611Y-83312567D01*
X135195123Y-83312567D01*
X135195124Y-83312567D01*
X135311532Y-83281375D01*
X135415901Y-83221118D01*
X135415902Y-83221117D01*
X135415903Y-83221117D01*
X135501117Y-83135903D01*
X135501117Y-83135902D01*
X135502621Y-83133297D01*
X135561375Y-83031532D01*
X135592567Y-82915124D01*
X135592567Y-82819048D01*
X135603990Y-82791471D01*
X135631567Y-82780048D01*
X135659144Y-82791471D01*
X135665342Y-82799548D01*
X135711843Y-82880092D01*
X135797056Y-82965305D01*
X135798073Y-82966085D01*
X135798397Y-82966646D01*
X135798867Y-82967116D01*
X135798741Y-82967241D01*
X135813005Y-82991931D01*
X135810869Y-83008186D01*
X135811502Y-83008356D01*
X135779649Y-83127228D01*
X135779649Y-83247751D01*
X135810841Y-83364155D01*
X135871098Y-83468525D01*
X135951650Y-83549077D01*
X135963073Y-83576654D01*
X135957849Y-83596152D01*
X135953622Y-83603473D01*
X135922432Y-83719873D01*
X135922432Y-83840396D01*
X135953624Y-83956800D01*
X136013881Y-84061170D01*
X136099096Y-84146385D01*
X136099098Y-84146386D01*
X136203467Y-84206643D01*
X136267038Y-84223677D01*
X136319870Y-84237834D01*
X136319873Y-84237834D01*
X136319875Y-84237835D01*
X136319876Y-84237835D01*
X136440388Y-84237835D01*
X136440389Y-84237835D01*
X136556797Y-84206643D01*
X136661166Y-84146386D01*
X136661167Y-84146385D01*
X136661168Y-84146385D01*
X136746382Y-84061171D01*
X136746382Y-84061170D01*
X136750752Y-84053601D01*
X136806640Y-83956800D01*
X136837832Y-83840392D01*
X136837832Y-83719878D01*
X136806640Y-83603470D01*
X136746383Y-83499101D01*
X136746382Y-83499099D01*
X136737021Y-83489738D01*
X145512300Y-83489738D01*
X145512300Y-83610261D01*
X145543492Y-83726665D01*
X145603749Y-83831035D01*
X145688964Y-83916250D01*
X145688966Y-83916251D01*
X145793335Y-83976508D01*
X145867971Y-83996507D01*
X145909738Y-84007699D01*
X145909741Y-84007699D01*
X145909743Y-84007700D01*
X145953862Y-84007700D01*
X145981439Y-84019123D01*
X145992862Y-84046700D01*
X145992862Y-84053605D01*
X146024054Y-84170009D01*
X146079093Y-84265341D01*
X146082989Y-84294935D01*
X146072896Y-84312417D01*
X146063749Y-84321564D01*
X146003492Y-84425934D01*
X145972300Y-84542338D01*
X145972300Y-84662861D01*
X146003492Y-84779265D01*
X146063749Y-84883635D01*
X146148964Y-84968850D01*
X146148966Y-84968851D01*
X146253335Y-85029108D01*
X146312461Y-85044951D01*
X146369738Y-85060299D01*
X146369741Y-85060299D01*
X146369743Y-85060300D01*
X146369744Y-85060300D01*
X146490256Y-85060300D01*
X146490257Y-85060300D01*
X146606665Y-85029108D01*
X146711034Y-84968851D01*
X146711035Y-84968850D01*
X146711036Y-84968850D01*
X146796250Y-84883636D01*
X146796250Y-84883635D01*
X146807491Y-84864166D01*
X146810047Y-84859738D01*
X155532300Y-84859738D01*
X155532300Y-84980261D01*
X155563492Y-85096665D01*
X155623749Y-85201035D01*
X155708964Y-85286250D01*
X155708966Y-85286251D01*
X155813335Y-85346508D01*
X155892837Y-85367811D01*
X155929738Y-85377699D01*
X155929741Y-85377699D01*
X155929743Y-85377700D01*
X155929744Y-85377700D01*
X156050256Y-85377700D01*
X156050257Y-85377700D01*
X156166665Y-85346508D01*
X156271034Y-85286251D01*
X156271035Y-85286250D01*
X156271036Y-85286250D01*
X156356250Y-85201036D01*
X156356250Y-85201035D01*
X156362448Y-85190300D01*
X156416508Y-85096665D01*
X156447700Y-84980257D01*
X156447700Y-84859743D01*
X156416508Y-84743335D01*
X156356251Y-84638966D01*
X156356250Y-84638964D01*
X156335724Y-84618438D01*
X160971000Y-84618438D01*
X160971000Y-84738961D01*
X161002192Y-84855365D01*
X161062449Y-84959735D01*
X161147664Y-85044950D01*
X161147666Y-85044951D01*
X161252035Y-85105208D01*
X161331537Y-85126511D01*
X161368438Y-85136399D01*
X161368441Y-85136399D01*
X161368443Y-85136400D01*
X161368444Y-85136400D01*
X161488956Y-85136400D01*
X161488957Y-85136400D01*
X161605365Y-85105208D01*
X161709734Y-85044951D01*
X161709735Y-85044950D01*
X161709736Y-85044950D01*
X161794950Y-84959736D01*
X161794950Y-84959735D01*
X161794951Y-84959734D01*
X161855208Y-84855365D01*
X161886400Y-84738957D01*
X161886400Y-84618443D01*
X161855208Y-84502035D01*
X161794951Y-84397666D01*
X161794950Y-84397664D01*
X161709735Y-84312449D01*
X161605365Y-84252192D01*
X161488961Y-84221000D01*
X161488957Y-84221000D01*
X161368443Y-84221000D01*
X161368438Y-84221000D01*
X161252034Y-84252192D01*
X161147664Y-84312449D01*
X161147664Y-84312450D01*
X161062450Y-84397664D01*
X161062449Y-84397664D01*
X161002192Y-84502034D01*
X160971000Y-84618438D01*
X156335724Y-84618438D01*
X156271035Y-84553749D01*
X156166665Y-84493492D01*
X156050261Y-84462300D01*
X156050257Y-84462300D01*
X155929743Y-84462300D01*
X155929738Y-84462300D01*
X155813334Y-84493492D01*
X155708964Y-84553749D01*
X155708964Y-84553750D01*
X155623750Y-84638964D01*
X155623749Y-84638964D01*
X155563492Y-84743334D01*
X155532300Y-84859738D01*
X146810047Y-84859738D01*
X146856508Y-84779265D01*
X146887700Y-84662857D01*
X146887700Y-84542343D01*
X146856508Y-84425935D01*
X146801468Y-84330602D01*
X146797572Y-84301008D01*
X146807667Y-84283524D01*
X146816812Y-84274379D01*
X146822030Y-84265341D01*
X146877070Y-84170009D01*
X146908262Y-84053601D01*
X146908262Y-83986750D01*
X147071469Y-83986750D01*
X147071469Y-84107273D01*
X147102661Y-84223677D01*
X147162918Y-84328047D01*
X147248133Y-84413262D01*
X147248135Y-84413263D01*
X147352504Y-84473520D01*
X147427039Y-84493492D01*
X147468907Y-84504711D01*
X147468910Y-84504711D01*
X147468912Y-84504712D01*
X147468913Y-84504712D01*
X147589425Y-84504712D01*
X147589426Y-84504712D01*
X147705834Y-84473520D01*
X147810203Y-84413263D01*
X147810204Y-84413262D01*
X147810205Y-84413262D01*
X147895419Y-84328048D01*
X147895419Y-84328047D01*
X147904424Y-84312450D01*
X147955677Y-84223677D01*
X147986869Y-84107269D01*
X147986869Y-83986755D01*
X147984123Y-83976508D01*
X147967977Y-83916250D01*
X147957563Y-83877386D01*
X147961459Y-83847794D01*
X147985140Y-83829623D01*
X147995234Y-83828294D01*
X147996908Y-83828294D01*
X147996909Y-83828294D01*
X148113317Y-83797102D01*
X148217686Y-83736845D01*
X148222168Y-83732363D01*
X148249744Y-83720938D01*
X148269247Y-83726163D01*
X148287749Y-83736845D01*
X148369449Y-83784014D01*
X148448951Y-83805317D01*
X148485852Y-83815205D01*
X148485855Y-83815205D01*
X148485857Y-83815206D01*
X148485858Y-83815206D01*
X148606370Y-83815206D01*
X148606371Y-83815206D01*
X148722779Y-83784014D01*
X148827148Y-83723757D01*
X148827149Y-83723756D01*
X148827150Y-83723756D01*
X148912364Y-83638542D01*
X148912364Y-83638541D01*
X148912365Y-83638540D01*
X148972622Y-83534171D01*
X149003814Y-83417763D01*
X149003814Y-83297249D01*
X149001594Y-83288965D01*
X148982522Y-83217788D01*
X148972622Y-83180841D01*
X148928509Y-83104434D01*
X148912364Y-83076470D01*
X148827149Y-82991255D01*
X148722779Y-82930998D01*
X148606375Y-82899806D01*
X148606371Y-82899806D01*
X148485857Y-82899806D01*
X148485852Y-82899806D01*
X148369448Y-82930998D01*
X148265078Y-82991255D01*
X148265076Y-82991256D01*
X148260593Y-82995740D01*
X148233015Y-83007161D01*
X148213518Y-83001936D01*
X148113317Y-82944086D01*
X147996913Y-82912894D01*
X147996909Y-82912894D01*
X147876395Y-82912894D01*
X147876390Y-82912894D01*
X147759986Y-82944086D01*
X147655616Y-83004343D01*
X147655616Y-83004344D01*
X147570402Y-83089558D01*
X147570401Y-83089558D01*
X147510144Y-83193928D01*
X147478952Y-83310332D01*
X147478952Y-83430855D01*
X147497039Y-83498353D01*
X147508257Y-83540219D01*
X147504362Y-83569812D01*
X147480681Y-83587983D01*
X147470587Y-83589312D01*
X147468907Y-83589312D01*
X147352503Y-83620504D01*
X147248133Y-83680761D01*
X147248133Y-83680762D01*
X147162919Y-83765976D01*
X147162918Y-83765976D01*
X147102661Y-83870346D01*
X147071469Y-83986750D01*
X146908262Y-83986750D01*
X146908262Y-83933087D01*
X146903750Y-83916250D01*
X146893337Y-83877388D01*
X146877070Y-83816679D01*
X146828316Y-83732234D01*
X146816812Y-83712308D01*
X146731597Y-83627093D01*
X146627227Y-83566836D01*
X146510823Y-83535644D01*
X146510819Y-83535644D01*
X146466700Y-83535644D01*
X146439123Y-83524221D01*
X146427700Y-83496644D01*
X146427700Y-83489744D01*
X146427699Y-83489738D01*
X146411921Y-83430855D01*
X146396508Y-83373335D01*
X146336251Y-83268966D01*
X146336250Y-83268964D01*
X146251035Y-83183749D01*
X146146665Y-83123492D01*
X146030261Y-83092300D01*
X146030257Y-83092300D01*
X145909743Y-83092300D01*
X145909738Y-83092300D01*
X145793334Y-83123492D01*
X145688964Y-83183749D01*
X145688964Y-83183750D01*
X145603750Y-83268964D01*
X145603749Y-83268964D01*
X145543492Y-83373334D01*
X145512300Y-83489738D01*
X136737021Y-83489738D01*
X136665830Y-83418547D01*
X136654407Y-83390970D01*
X136659632Y-83371472D01*
X136663857Y-83364155D01*
X136695049Y-83247747D01*
X136695049Y-83127233D01*
X136693703Y-83122211D01*
X136681447Y-83076470D01*
X136663857Y-83010825D01*
X136608607Y-82915128D01*
X136603599Y-82906454D01*
X136518383Y-82821238D01*
X136517361Y-82820454D01*
X136517035Y-82819890D01*
X136516576Y-82819431D01*
X136516699Y-82819307D01*
X136502436Y-82794604D01*
X136504575Y-82778361D01*
X136503940Y-82778191D01*
X136508745Y-82760261D01*
X136534953Y-82662452D01*
X136535793Y-82659318D01*
X136535794Y-82659312D01*
X136535794Y-82639738D01*
X151802300Y-82639738D01*
X151802300Y-82760261D01*
X151833492Y-82876665D01*
X151893749Y-82981035D01*
X151978964Y-83066250D01*
X152033729Y-83097868D01*
X152083335Y-83126508D01*
X152090806Y-83128509D01*
X152114487Y-83146679D01*
X152118385Y-83176273D01*
X152118384Y-83176274D01*
X152108204Y-83214270D01*
X152108203Y-83214278D01*
X152108203Y-83334795D01*
X152139395Y-83451199D01*
X152199652Y-83555569D01*
X152284867Y-83640784D01*
X152284869Y-83640785D01*
X152389238Y-83701042D01*
X152463490Y-83720938D01*
X152505641Y-83732233D01*
X152505644Y-83732233D01*
X152505646Y-83732234D01*
X152505647Y-83732234D01*
X152626159Y-83732234D01*
X152626160Y-83732234D01*
X152742568Y-83701042D01*
X152846937Y-83640785D01*
X152846938Y-83640784D01*
X152846939Y-83640784D01*
X152932153Y-83555570D01*
X152932153Y-83555569D01*
X152932154Y-83555568D01*
X152992411Y-83451199D01*
X153023603Y-83334791D01*
X153023603Y-83214277D01*
X153018198Y-83194107D01*
X153003326Y-83138604D01*
X152992411Y-83097869D01*
X152938414Y-83004343D01*
X152932153Y-82993498D01*
X152846938Y-82908283D01*
X152742568Y-82848026D01*
X152742565Y-82848025D01*
X152735091Y-82846022D01*
X152711412Y-82827850D01*
X152707517Y-82798258D01*
X152717700Y-82760257D01*
X152717700Y-82709738D01*
X160892300Y-82709738D01*
X160892300Y-82830261D01*
X160923492Y-82946665D01*
X160983749Y-83051035D01*
X161068964Y-83136250D01*
X161081508Y-83143492D01*
X161169177Y-83194107D01*
X161187348Y-83217788D01*
X161183452Y-83247382D01*
X161177255Y-83255458D01*
X161143748Y-83288965D01*
X161143748Y-83288966D01*
X161083492Y-83393334D01*
X161052300Y-83509738D01*
X161052300Y-83630261D01*
X161083492Y-83746665D01*
X161143749Y-83851035D01*
X161228964Y-83936250D01*
X161228966Y-83936251D01*
X161333335Y-83996508D01*
X161412837Y-84017811D01*
X161449738Y-84027699D01*
X161449741Y-84027699D01*
X161449743Y-84027700D01*
X161449744Y-84027700D01*
X161570256Y-84027700D01*
X161570257Y-84027700D01*
X161686665Y-83996508D01*
X161791034Y-83936251D01*
X161791035Y-83936250D01*
X161791036Y-83936250D01*
X161876250Y-83851036D01*
X161876250Y-83851035D01*
X161876251Y-83851034D01*
X161936508Y-83746665D01*
X161967700Y-83630257D01*
X161967700Y-83509743D01*
X161964848Y-83499101D01*
X161951367Y-83448788D01*
X161936508Y-83393335D01*
X161876251Y-83288966D01*
X161876250Y-83288964D01*
X161791035Y-83203749D01*
X161739758Y-83174145D01*
X161690820Y-83145891D01*
X161672650Y-83122211D01*
X161676546Y-83092617D01*
X161682743Y-83084541D01*
X161716251Y-83051034D01*
X161776508Y-82946665D01*
X161793232Y-82884247D01*
X161811403Y-82860568D01*
X161840997Y-82856672D01*
X161858480Y-82866766D01*
X161897964Y-82906250D01*
X161925928Y-82922395D01*
X162002335Y-82966508D01*
X162056550Y-82981035D01*
X162118738Y-82997699D01*
X162118741Y-82997699D01*
X162118743Y-82997700D01*
X162118744Y-82997700D01*
X162239256Y-82997700D01*
X162239257Y-82997700D01*
X162355665Y-82966508D01*
X162460034Y-82906251D01*
X162460035Y-82906250D01*
X162460036Y-82906250D01*
X162545250Y-82821036D01*
X162545250Y-82821035D01*
X162545251Y-82821034D01*
X162605508Y-82716665D01*
X162636700Y-82600257D01*
X162636700Y-82479743D01*
X162605508Y-82363335D01*
X162545251Y-82258966D01*
X162545250Y-82258964D01*
X162460035Y-82173749D01*
X162355665Y-82113492D01*
X162239261Y-82082300D01*
X162239257Y-82082300D01*
X162118743Y-82082300D01*
X162118738Y-82082300D01*
X162002334Y-82113492D01*
X161897964Y-82173749D01*
X161897964Y-82173750D01*
X161812750Y-82258964D01*
X161812749Y-82258964D01*
X161752493Y-82363333D01*
X161735767Y-82425751D01*
X161717595Y-82449431D01*
X161688001Y-82453327D01*
X161670519Y-82443233D01*
X161631035Y-82403749D01*
X161526665Y-82343492D01*
X161410261Y-82312300D01*
X161410257Y-82312300D01*
X161289743Y-82312300D01*
X161289738Y-82312300D01*
X161173334Y-82343492D01*
X161068964Y-82403749D01*
X161068964Y-82403750D01*
X160983750Y-82488964D01*
X160983749Y-82488964D01*
X160923492Y-82593334D01*
X160892300Y-82709738D01*
X152717700Y-82709738D01*
X152717700Y-82661447D01*
X152729123Y-82633870D01*
X152756700Y-82622447D01*
X152776196Y-82627671D01*
X152824348Y-82655471D01*
X152899462Y-82675598D01*
X152940751Y-82686662D01*
X152940754Y-82686662D01*
X152940756Y-82686663D01*
X152940757Y-82686663D01*
X153061269Y-82686663D01*
X153061270Y-82686663D01*
X153068869Y-82684627D01*
X153102564Y-82675598D01*
X153177678Y-82655471D01*
X153282047Y-82595214D01*
X153282048Y-82595213D01*
X153282049Y-82595213D01*
X153367263Y-82509999D01*
X153367263Y-82509998D01*
X153379407Y-82488964D01*
X153427521Y-82405628D01*
X153458713Y-82289220D01*
X153458713Y-82168706D01*
X153454887Y-82154429D01*
X153434008Y-82076508D01*
X153427521Y-82052298D01*
X153367264Y-81947929D01*
X153367263Y-81947927D01*
X153282048Y-81862712D01*
X153177678Y-81802455D01*
X153061274Y-81771263D01*
X153061270Y-81771263D01*
X152940756Y-81771263D01*
X152940751Y-81771263D01*
X152824347Y-81802455D01*
X152719977Y-81862712D01*
X152719977Y-81862713D01*
X152634763Y-81947927D01*
X152634762Y-81947927D01*
X152574505Y-82052297D01*
X152543313Y-82168701D01*
X152543313Y-82267515D01*
X152531890Y-82295092D01*
X152504313Y-82306515D01*
X152484813Y-82301290D01*
X152436665Y-82273492D01*
X152320261Y-82242300D01*
X152320257Y-82242300D01*
X152199743Y-82242300D01*
X152199738Y-82242300D01*
X152083334Y-82273492D01*
X151978964Y-82333749D01*
X151978964Y-82333750D01*
X151893750Y-82418964D01*
X151893749Y-82418964D01*
X151833492Y-82523334D01*
X151802300Y-82639738D01*
X136535794Y-82639738D01*
X136535794Y-82538801D01*
X136535793Y-82538795D01*
X136522347Y-82488616D01*
X136504602Y-82422392D01*
X136444345Y-82318023D01*
X136444344Y-82318021D01*
X136359129Y-82232806D01*
X136254759Y-82172549D01*
X136138355Y-82141357D01*
X136138351Y-82141357D01*
X136017837Y-82141357D01*
X136017832Y-82141357D01*
X135901428Y-82172549D01*
X135797058Y-82232806D01*
X135797058Y-82232807D01*
X135711844Y-82318021D01*
X135711843Y-82318021D01*
X135651586Y-82422391D01*
X135620394Y-82538795D01*
X135620394Y-82634875D01*
X135608971Y-82662452D01*
X135581394Y-82673875D01*
X135553817Y-82662452D01*
X135547619Y-82654375D01*
X135501117Y-82573831D01*
X135415902Y-82488616D01*
X135311532Y-82428359D01*
X135195128Y-82397167D01*
X135195124Y-82397167D01*
X135074610Y-82397167D01*
X135074605Y-82397167D01*
X134958201Y-82428359D01*
X134853831Y-82488616D01*
X134853831Y-82488617D01*
X134768617Y-82573831D01*
X134768616Y-82573831D01*
X134708359Y-82678201D01*
X134677168Y-82794604D01*
X134677167Y-82794611D01*
X130844564Y-82794611D01*
X130840640Y-82779967D01*
X130783201Y-82680480D01*
X130779306Y-82650887D01*
X130797477Y-82627206D01*
X130827071Y-82623310D01*
X130836477Y-82627206D01*
X130935934Y-82684627D01*
X131015436Y-82705930D01*
X131052337Y-82715818D01*
X131052340Y-82715818D01*
X131052342Y-82715819D01*
X131052343Y-82715819D01*
X131172855Y-82715819D01*
X131172856Y-82715819D01*
X131289264Y-82684627D01*
X131393633Y-82624370D01*
X131393634Y-82624369D01*
X131393635Y-82624369D01*
X131478849Y-82539155D01*
X131478849Y-82539154D01*
X131479053Y-82538801D01*
X131539107Y-82434784D01*
X131570299Y-82318376D01*
X131570299Y-82197862D01*
X131539107Y-82081454D01*
X131478850Y-81977085D01*
X131478849Y-81977083D01*
X131393634Y-81891868D01*
X131289264Y-81831611D01*
X131172860Y-81800419D01*
X131172856Y-81800419D01*
X131052342Y-81800419D01*
X131052337Y-81800419D01*
X130935933Y-81831611D01*
X130831563Y-81891868D01*
X130831563Y-81891869D01*
X130746349Y-81977083D01*
X130746348Y-81977083D01*
X130686091Y-82081453D01*
X130654899Y-82197857D01*
X130654899Y-82318380D01*
X130686091Y-82434784D01*
X130743528Y-82534269D01*
X130747424Y-82563863D01*
X130729253Y-82587544D01*
X130699659Y-82591440D01*
X130690253Y-82587544D01*
X130590797Y-82530124D01*
X130474393Y-82498932D01*
X130474389Y-82498932D01*
X130353875Y-82498932D01*
X130353870Y-82498932D01*
X130237466Y-82530124D01*
X130133096Y-82590381D01*
X130133096Y-82590382D01*
X130047882Y-82675595D01*
X130025415Y-82714509D01*
X130001733Y-82732679D01*
X129981546Y-82732679D01*
X129897112Y-82710054D01*
X129897108Y-82710054D01*
X129776594Y-82710054D01*
X129776589Y-82710054D01*
X129660185Y-82741246D01*
X129555815Y-82801503D01*
X129555815Y-82801504D01*
X129470601Y-82886718D01*
X129470600Y-82886718D01*
X129410343Y-82991088D01*
X129379151Y-83107492D01*
X120254500Y-83107492D01*
X120254500Y-81309738D01*
X131242300Y-81309738D01*
X131242300Y-81430261D01*
X131273492Y-81546665D01*
X131333749Y-81651035D01*
X131418964Y-81736250D01*
X131418966Y-81736251D01*
X131523335Y-81796508D01*
X131602837Y-81817811D01*
X131639738Y-81827699D01*
X131639741Y-81827699D01*
X131639743Y-81827700D01*
X131639744Y-81827700D01*
X131760256Y-81827700D01*
X131760257Y-81827700D01*
X131876665Y-81796508D01*
X131981034Y-81736251D01*
X131981035Y-81736250D01*
X131981036Y-81736250D01*
X132066250Y-81651036D01*
X132066250Y-81651035D01*
X132066251Y-81651034D01*
X132126508Y-81546665D01*
X132157700Y-81430257D01*
X132157700Y-81309743D01*
X132156707Y-81306039D01*
X132144094Y-81258966D01*
X132126508Y-81193335D01*
X132080411Y-81113492D01*
X132066250Y-81088964D01*
X131981035Y-81003749D01*
X131876665Y-80943492D01*
X131760261Y-80912300D01*
X131760257Y-80912300D01*
X131639743Y-80912300D01*
X131639738Y-80912300D01*
X131523334Y-80943492D01*
X131418964Y-81003749D01*
X131418964Y-81003750D01*
X131333750Y-81088964D01*
X131333749Y-81088964D01*
X131273492Y-81193334D01*
X131242300Y-81309738D01*
X120254500Y-81309738D01*
X120254500Y-80421645D01*
X129807793Y-80421645D01*
X129807793Y-80542168D01*
X129838985Y-80658572D01*
X129899242Y-80762942D01*
X129984457Y-80848157D01*
X129984459Y-80848158D01*
X130088828Y-80908415D01*
X130168330Y-80929718D01*
X130205231Y-80939606D01*
X130205234Y-80939606D01*
X130205236Y-80939607D01*
X130205237Y-80939607D01*
X130325749Y-80939607D01*
X130325750Y-80939607D01*
X130442158Y-80908415D01*
X130546527Y-80848158D01*
X130546528Y-80848157D01*
X130546529Y-80848157D01*
X130564948Y-80829738D01*
X144192300Y-80829738D01*
X144192300Y-80950261D01*
X144223492Y-81066665D01*
X144283749Y-81171035D01*
X144368964Y-81256250D01*
X144382227Y-81263907D01*
X144473335Y-81316508D01*
X144552837Y-81337811D01*
X144589738Y-81347699D01*
X144589741Y-81347699D01*
X144589743Y-81347700D01*
X144626856Y-81347700D01*
X144654433Y-81359123D01*
X144665856Y-81386700D01*
X144664527Y-81396794D01*
X144642300Y-81479738D01*
X144642300Y-81600261D01*
X144673492Y-81716665D01*
X144733749Y-81821035D01*
X144818959Y-81906245D01*
X144818963Y-81906248D01*
X144818966Y-81906251D01*
X144889641Y-81947054D01*
X144907812Y-81970735D01*
X144907812Y-81990923D01*
X144896294Y-82033906D01*
X144896294Y-82154429D01*
X144927486Y-82270833D01*
X144987743Y-82375203D01*
X145072958Y-82460418D01*
X145072960Y-82460419D01*
X145177329Y-82520676D01*
X145256831Y-82541979D01*
X145293732Y-82551867D01*
X145293735Y-82551867D01*
X145293737Y-82551868D01*
X145293738Y-82551868D01*
X145414250Y-82551868D01*
X145414251Y-82551868D01*
X145530659Y-82520676D01*
X145635028Y-82460419D01*
X145635029Y-82460418D01*
X145635030Y-82460418D01*
X145720244Y-82375204D01*
X145720244Y-82375203D01*
X145727096Y-82363335D01*
X145780502Y-82270833D01*
X145811694Y-82154425D01*
X145811694Y-82033911D01*
X145780502Y-81917503D01*
X145734428Y-81837700D01*
X145720244Y-81813132D01*
X145635029Y-81727917D01*
X145564352Y-81687112D01*
X145558938Y-81680056D01*
X145551523Y-81675150D01*
X145550504Y-81669065D01*
X145546181Y-81663431D01*
X145545567Y-81645901D01*
X145545825Y-81644570D01*
X145557700Y-81600257D01*
X145557700Y-81589738D01*
X150672300Y-81589738D01*
X150672300Y-81710261D01*
X150703492Y-81826665D01*
X150763749Y-81931035D01*
X150848964Y-82016250D01*
X150848966Y-82016251D01*
X150953335Y-82076508D01*
X151032837Y-82097811D01*
X151069738Y-82107699D01*
X151069741Y-82107699D01*
X151069743Y-82107700D01*
X151069744Y-82107700D01*
X151190256Y-82107700D01*
X151190257Y-82107700D01*
X151306665Y-82076508D01*
X151411034Y-82016251D01*
X151411035Y-82016250D01*
X151411036Y-82016250D01*
X151496250Y-81931036D01*
X151496250Y-81931035D01*
X151504063Y-81917503D01*
X151556508Y-81826665D01*
X151587700Y-81710257D01*
X151587700Y-81636542D01*
X151599123Y-81608965D01*
X151626700Y-81597542D01*
X151636793Y-81598870D01*
X151669743Y-81607700D01*
X151669744Y-81607700D01*
X151790256Y-81607700D01*
X151790257Y-81607700D01*
X151906665Y-81576508D01*
X152011034Y-81516251D01*
X152011035Y-81516250D01*
X152011036Y-81516250D01*
X152096250Y-81431036D01*
X152096250Y-81431035D01*
X152096697Y-81430261D01*
X152156508Y-81326665D01*
X152187700Y-81210257D01*
X152187700Y-81161458D01*
X152199123Y-81133881D01*
X152216605Y-81123787D01*
X152291490Y-81103723D01*
X152395859Y-81043466D01*
X152395860Y-81043465D01*
X152395861Y-81043465D01*
X152481075Y-80958251D01*
X152481075Y-80958250D01*
X152483822Y-80953492D01*
X152541333Y-80853880D01*
X152561895Y-80777143D01*
X152561896Y-80777138D01*
X161092300Y-80777138D01*
X161092300Y-80897661D01*
X161123492Y-81014065D01*
X161183749Y-81118435D01*
X161268964Y-81203650D01*
X161280408Y-81210257D01*
X161373335Y-81263908D01*
X161442194Y-81282359D01*
X161489738Y-81295099D01*
X161489741Y-81295099D01*
X161489743Y-81295100D01*
X161489744Y-81295100D01*
X161610256Y-81295100D01*
X161610257Y-81295100D01*
X161672345Y-81278463D01*
X161701937Y-81282359D01*
X161720109Y-81306039D01*
X161720843Y-81317187D01*
X161721300Y-81317187D01*
X161721300Y-81440261D01*
X161752492Y-81556665D01*
X161812749Y-81661035D01*
X161897964Y-81746250D01*
X161897966Y-81746251D01*
X162002335Y-81806508D01*
X162056550Y-81821035D01*
X162118738Y-81837699D01*
X162118741Y-81837699D01*
X162118743Y-81837700D01*
X162118744Y-81837700D01*
X162239256Y-81837700D01*
X162239257Y-81837700D01*
X162355665Y-81806508D01*
X162460034Y-81746251D01*
X162460035Y-81746250D01*
X162460036Y-81746250D01*
X162545250Y-81661036D01*
X162545250Y-81661035D01*
X162551023Y-81651036D01*
X162605508Y-81556665D01*
X162636700Y-81440257D01*
X162636700Y-81319743D01*
X162634020Y-81309743D01*
X162621739Y-81263908D01*
X162605508Y-81203335D01*
X162547998Y-81103724D01*
X162545250Y-81098964D01*
X162460035Y-81013749D01*
X162355665Y-80953492D01*
X162239261Y-80922300D01*
X162239257Y-80922300D01*
X162118743Y-80922300D01*
X162118738Y-80922300D01*
X162056655Y-80938936D01*
X162027061Y-80935040D01*
X162008890Y-80911359D01*
X162008162Y-80900213D01*
X162007700Y-80900213D01*
X162007700Y-80777144D01*
X162007699Y-80777138D01*
X161985242Y-80693332D01*
X161976508Y-80660735D01*
X161916251Y-80556366D01*
X161916250Y-80556364D01*
X161831035Y-80471149D01*
X161726665Y-80410892D01*
X161610261Y-80379700D01*
X161610257Y-80379700D01*
X161489743Y-80379700D01*
X161489738Y-80379700D01*
X161373334Y-80410892D01*
X161268964Y-80471149D01*
X161268964Y-80471150D01*
X161183750Y-80556364D01*
X161183749Y-80556364D01*
X161123492Y-80660734D01*
X161092300Y-80777138D01*
X152561896Y-80777138D01*
X152565285Y-80764493D01*
X152572524Y-80737476D01*
X152572525Y-80737470D01*
X152572525Y-80641411D01*
X152583948Y-80613834D01*
X152611525Y-80602411D01*
X152621615Y-80603739D01*
X152651443Y-80611732D01*
X152651444Y-80611732D01*
X152771956Y-80611732D01*
X152771957Y-80611732D01*
X152888365Y-80580540D01*
X152992734Y-80520283D01*
X152992735Y-80520282D01*
X152992736Y-80520282D01*
X153077950Y-80435068D01*
X153077950Y-80435067D01*
X153085696Y-80421651D01*
X153138208Y-80330697D01*
X153169400Y-80214289D01*
X153169400Y-80093775D01*
X153167774Y-80087708D01*
X153139808Y-79983339D01*
X153138208Y-79977367D01*
X153077951Y-79872998D01*
X153051151Y-79846198D01*
X153039729Y-79818623D01*
X153044952Y-79799125D01*
X153088849Y-79723096D01*
X153113865Y-79629738D01*
X161022300Y-79629738D01*
X161022300Y-79750261D01*
X161053492Y-79866665D01*
X161113749Y-79971035D01*
X161198964Y-80056250D01*
X161198966Y-80056251D01*
X161303335Y-80116508D01*
X161382837Y-80137811D01*
X161419738Y-80147699D01*
X161419741Y-80147699D01*
X161419743Y-80147700D01*
X161419744Y-80147700D01*
X161540256Y-80147700D01*
X161540257Y-80147700D01*
X161656665Y-80116508D01*
X161761034Y-80056251D01*
X161761035Y-80056250D01*
X161761036Y-80056250D01*
X161846250Y-79971036D01*
X161846250Y-79971035D01*
X161846251Y-79971034D01*
X161906508Y-79866665D01*
X161937700Y-79750257D01*
X161937700Y-79629743D01*
X161934310Y-79617093D01*
X161924579Y-79580775D01*
X161906508Y-79513335D01*
X161846251Y-79408966D01*
X161846250Y-79408964D01*
X161761035Y-79323749D01*
X161754088Y-79319738D01*
X162482300Y-79319738D01*
X162482300Y-79440261D01*
X162513492Y-79556665D01*
X162573749Y-79661035D01*
X162658964Y-79746250D01*
X162677004Y-79756665D01*
X162763335Y-79806508D01*
X162841542Y-79827464D01*
X162879738Y-79837699D01*
X162879741Y-79837699D01*
X162879743Y-79837700D01*
X162879744Y-79837700D01*
X163000256Y-79837700D01*
X163000257Y-79837700D01*
X163116665Y-79806508D01*
X163221034Y-79746251D01*
X163221035Y-79746250D01*
X163221036Y-79746250D01*
X163306250Y-79661036D01*
X163306250Y-79661035D01*
X163318244Y-79640261D01*
X163366508Y-79556665D01*
X163395160Y-79449738D01*
X165722300Y-79449738D01*
X165722300Y-79570261D01*
X165753492Y-79686665D01*
X165813749Y-79791035D01*
X165898964Y-79876250D01*
X165898966Y-79876251D01*
X166003335Y-79936508D01*
X166082837Y-79957811D01*
X166119738Y-79967699D01*
X166119741Y-79967699D01*
X166119743Y-79967700D01*
X166119744Y-79967700D01*
X166240256Y-79967700D01*
X166240257Y-79967700D01*
X166356665Y-79936508D01*
X166461034Y-79876251D01*
X166461035Y-79876250D01*
X166461036Y-79876250D01*
X166546250Y-79791036D01*
X166546250Y-79791035D01*
X166546251Y-79791034D01*
X166606508Y-79686665D01*
X166637700Y-79570257D01*
X166637700Y-79449743D01*
X166635159Y-79440261D01*
X166625265Y-79403335D01*
X166606508Y-79333335D01*
X166546251Y-79228966D01*
X166546250Y-79228964D01*
X166461035Y-79143749D01*
X166356665Y-79083492D01*
X166240261Y-79052300D01*
X166240257Y-79052300D01*
X166119743Y-79052300D01*
X166119738Y-79052300D01*
X166003334Y-79083492D01*
X165898964Y-79143749D01*
X165898964Y-79143750D01*
X165813750Y-79228964D01*
X165813749Y-79228964D01*
X165753492Y-79333334D01*
X165722300Y-79449738D01*
X163395160Y-79449738D01*
X163397700Y-79440257D01*
X163397700Y-79319743D01*
X163394850Y-79309108D01*
X163374269Y-79232300D01*
X163366508Y-79203335D01*
X163316699Y-79117062D01*
X163306250Y-79098964D01*
X163221035Y-79013749D01*
X163116665Y-78953492D01*
X163000261Y-78922300D01*
X163000257Y-78922300D01*
X162879743Y-78922300D01*
X162879738Y-78922300D01*
X162763334Y-78953492D01*
X162658964Y-79013749D01*
X162658964Y-79013750D01*
X162573750Y-79098964D01*
X162573749Y-79098964D01*
X162513492Y-79203334D01*
X162482300Y-79319738D01*
X161754088Y-79319738D01*
X161656665Y-79263492D01*
X161540261Y-79232300D01*
X161540257Y-79232300D01*
X161419743Y-79232300D01*
X161419738Y-79232300D01*
X161303334Y-79263492D01*
X161198964Y-79323749D01*
X161198964Y-79323750D01*
X161113750Y-79408964D01*
X161113749Y-79408964D01*
X161053492Y-79513334D01*
X161022300Y-79629738D01*
X153113865Y-79629738D01*
X153120041Y-79606688D01*
X153120041Y-79486174D01*
X153088849Y-79369766D01*
X153028592Y-79265397D01*
X153028591Y-79265395D01*
X152943377Y-79180181D01*
X152941349Y-79178625D01*
X152942043Y-79177720D01*
X152926201Y-79157079D01*
X152930092Y-79127487D01*
X152936113Y-79117060D01*
X152956830Y-79039744D01*
X157898451Y-79039744D01*
X157898451Y-79160267D01*
X157929643Y-79276671D01*
X157989900Y-79381041D01*
X158075115Y-79466256D01*
X158075117Y-79466257D01*
X158179486Y-79526514D01*
X158258988Y-79547817D01*
X158295889Y-79557705D01*
X158295892Y-79557705D01*
X158295894Y-79557706D01*
X158295895Y-79557706D01*
X158416407Y-79557706D01*
X158416408Y-79557706D01*
X158532816Y-79526514D01*
X158637185Y-79466257D01*
X158637186Y-79466256D01*
X158637187Y-79466256D01*
X158722401Y-79381042D01*
X158722401Y-79381041D01*
X158728911Y-79369766D01*
X158782659Y-79276671D01*
X158813851Y-79160263D01*
X158813851Y-79039749D01*
X158812132Y-79033335D01*
X158798721Y-78983285D01*
X158782659Y-78923341D01*
X158722402Y-78818972D01*
X158722401Y-78818970D01*
X158637186Y-78733755D01*
X158532816Y-78673498D01*
X158416412Y-78642306D01*
X158416408Y-78642306D01*
X158295894Y-78642306D01*
X158295889Y-78642306D01*
X158179485Y-78673498D01*
X158075115Y-78733755D01*
X158075115Y-78733756D01*
X157989901Y-78818970D01*
X157989900Y-78818970D01*
X157929643Y-78923340D01*
X157898451Y-79039744D01*
X152956830Y-79039744D01*
X152960219Y-79027099D01*
X152967304Y-79000656D01*
X152967305Y-79000650D01*
X152967305Y-78880139D01*
X152967304Y-78880135D01*
X152957477Y-78843460D01*
X152961373Y-78813868D01*
X152985052Y-78795696D01*
X152985054Y-78795696D01*
X153056662Y-78776509D01*
X153056662Y-78776508D01*
X153056665Y-78776508D01*
X153161034Y-78716251D01*
X153161035Y-78716250D01*
X153161036Y-78716250D01*
X153246250Y-78631036D01*
X153246250Y-78631035D01*
X153246251Y-78631034D01*
X153295352Y-78545988D01*
X160896050Y-78545988D01*
X160896050Y-78666511D01*
X160927242Y-78782915D01*
X160987499Y-78887285D01*
X161072714Y-78972500D01*
X161100678Y-78988645D01*
X161177085Y-79032758D01*
X161256587Y-79054061D01*
X161293488Y-79063949D01*
X161293491Y-79063949D01*
X161293493Y-79063950D01*
X161293494Y-79063950D01*
X161414006Y-79063950D01*
X161414007Y-79063950D01*
X161530415Y-79032758D01*
X161634784Y-78972501D01*
X161634785Y-78972500D01*
X161634786Y-78972500D01*
X161720000Y-78887286D01*
X161720000Y-78887285D01*
X161724126Y-78880139D01*
X161780258Y-78782915D01*
X161811450Y-78666507D01*
X161811450Y-78545993D01*
X161809912Y-78540255D01*
X161797705Y-78494698D01*
X161780258Y-78429585D01*
X161720001Y-78325216D01*
X161720000Y-78325214D01*
X161634785Y-78239999D01*
X161530415Y-78179742D01*
X161414011Y-78148550D01*
X161414007Y-78148550D01*
X161293493Y-78148550D01*
X161293488Y-78148550D01*
X161177084Y-78179742D01*
X161072714Y-78239999D01*
X161072714Y-78240000D01*
X160987500Y-78325214D01*
X160987499Y-78325214D01*
X160927242Y-78429584D01*
X160896050Y-78545988D01*
X153295352Y-78545988D01*
X153306508Y-78526665D01*
X153337700Y-78410257D01*
X153337700Y-78289743D01*
X153306508Y-78173335D01*
X153246251Y-78068966D01*
X153246250Y-78068964D01*
X153161035Y-77983749D01*
X153056665Y-77923492D01*
X152940261Y-77892300D01*
X152940257Y-77892300D01*
X152819743Y-77892300D01*
X152819738Y-77892300D01*
X152703334Y-77923492D01*
X152598964Y-77983749D01*
X152598964Y-77983750D01*
X152513750Y-78068964D01*
X152513749Y-78068964D01*
X152453492Y-78173334D01*
X152422300Y-78289738D01*
X152422300Y-78410261D01*
X152432127Y-78446933D01*
X152428231Y-78476527D01*
X152404550Y-78494698D01*
X152332940Y-78513887D01*
X152332938Y-78513887D01*
X152332938Y-78513888D01*
X152228569Y-78574144D01*
X152228569Y-78574145D01*
X152143355Y-78659359D01*
X152143354Y-78659359D01*
X152083097Y-78763729D01*
X152051905Y-78880133D01*
X152051905Y-79000656D01*
X152083097Y-79117060D01*
X152143354Y-79221430D01*
X152228569Y-79306645D01*
X152230597Y-79308201D01*
X152229900Y-79309108D01*
X152245741Y-79329736D01*
X152241857Y-79359332D01*
X152241850Y-79359343D01*
X152235834Y-79369763D01*
X152235833Y-79369765D01*
X152204641Y-79486169D01*
X152204641Y-79606692D01*
X152235833Y-79723096D01*
X152283990Y-79806508D01*
X152296090Y-79827465D01*
X152322887Y-79854262D01*
X152334310Y-79881838D01*
X152329085Y-79901338D01*
X152285194Y-79977362D01*
X152285192Y-79977366D01*
X152254000Y-80093770D01*
X152254000Y-80189835D01*
X152242577Y-80217412D01*
X152215000Y-80228835D01*
X152204906Y-80227506D01*
X152175086Y-80219515D01*
X152175082Y-80219515D01*
X152054568Y-80219515D01*
X152054563Y-80219515D01*
X151938159Y-80250707D01*
X151833789Y-80310964D01*
X151833789Y-80310965D01*
X151748575Y-80396179D01*
X151748574Y-80396179D01*
X151688317Y-80500549D01*
X151657125Y-80616953D01*
X151657125Y-80665755D01*
X151645702Y-80693332D01*
X151628220Y-80703426D01*
X151603731Y-80709988D01*
X151553335Y-80723492D01*
X151553333Y-80723492D01*
X151553333Y-80723493D01*
X151448964Y-80783749D01*
X151448964Y-80783750D01*
X151363750Y-80868964D01*
X151363749Y-80868964D01*
X151303492Y-80973334D01*
X151272300Y-81089738D01*
X151272300Y-81163457D01*
X151260877Y-81191034D01*
X151233300Y-81202457D01*
X151223206Y-81201128D01*
X151190261Y-81192300D01*
X151190257Y-81192300D01*
X151069743Y-81192300D01*
X151069738Y-81192300D01*
X150953334Y-81223492D01*
X150848964Y-81283749D01*
X150848964Y-81283750D01*
X150763750Y-81368964D01*
X150763749Y-81368964D01*
X150703492Y-81473334D01*
X150672300Y-81589738D01*
X145557700Y-81589738D01*
X145557700Y-81479743D01*
X145526508Y-81363335D01*
X145466251Y-81258966D01*
X145466250Y-81258964D01*
X145381035Y-81173749D01*
X145276665Y-81113492D01*
X145160261Y-81082300D01*
X145160257Y-81082300D01*
X145123144Y-81082300D01*
X145095567Y-81070877D01*
X145084144Y-81043300D01*
X145085473Y-81033206D01*
X145093367Y-81003749D01*
X145107700Y-80950257D01*
X145107700Y-80829743D01*
X145076508Y-80713335D01*
X145017848Y-80611732D01*
X145016250Y-80608964D01*
X144931035Y-80523749D01*
X144826665Y-80463492D01*
X144710261Y-80432300D01*
X144710257Y-80432300D01*
X144589743Y-80432300D01*
X144589738Y-80432300D01*
X144473334Y-80463492D01*
X144368964Y-80523749D01*
X144368964Y-80523750D01*
X144283750Y-80608964D01*
X144283749Y-80608964D01*
X144223492Y-80713334D01*
X144192300Y-80829738D01*
X130564948Y-80829738D01*
X130631743Y-80762943D01*
X130631743Y-80762942D01*
X130646448Y-80737472D01*
X130692001Y-80658572D01*
X130723193Y-80542164D01*
X130723193Y-80421650D01*
X130720310Y-80410892D01*
X130711952Y-80379700D01*
X130692001Y-80305242D01*
X130631744Y-80200873D01*
X130631743Y-80200871D01*
X130546528Y-80115656D01*
X130442158Y-80055399D01*
X130325754Y-80024207D01*
X130325750Y-80024207D01*
X130205236Y-80024207D01*
X130205231Y-80024207D01*
X130088827Y-80055399D01*
X129984457Y-80115656D01*
X129984457Y-80115657D01*
X129899243Y-80200871D01*
X129899242Y-80200871D01*
X129838985Y-80305241D01*
X129807793Y-80421645D01*
X120254500Y-80421645D01*
X120254500Y-79519738D01*
X130732300Y-79519738D01*
X130732300Y-79640261D01*
X130763492Y-79756665D01*
X130823749Y-79861035D01*
X130908964Y-79946250D01*
X130908966Y-79946251D01*
X131013335Y-80006508D01*
X131092837Y-80027811D01*
X131129738Y-80037699D01*
X131129741Y-80037699D01*
X131129743Y-80037700D01*
X131129744Y-80037700D01*
X131250256Y-80037700D01*
X131250257Y-80037700D01*
X131366665Y-80006508D01*
X131471034Y-79946251D01*
X131471035Y-79946250D01*
X131471036Y-79946250D01*
X131556250Y-79861036D01*
X131556250Y-79861035D01*
X131564815Y-79846200D01*
X131616508Y-79756665D01*
X131647700Y-79640257D01*
X131647700Y-79519743D01*
X131616508Y-79403335D01*
X131568244Y-79319738D01*
X131556250Y-79298964D01*
X131471035Y-79213749D01*
X131414245Y-79180962D01*
X131366665Y-79153492D01*
X131352656Y-79149738D01*
X143632300Y-79149738D01*
X143632300Y-79270261D01*
X143663492Y-79386665D01*
X143723749Y-79491035D01*
X143794428Y-79561714D01*
X143805851Y-79589291D01*
X143800627Y-79608789D01*
X143788375Y-79630010D01*
X143757185Y-79746412D01*
X143757185Y-79866935D01*
X143788377Y-79983339D01*
X143848634Y-80087709D01*
X143933849Y-80172924D01*
X143933851Y-80172925D01*
X144038220Y-80233182D01*
X144103623Y-80250707D01*
X144154623Y-80264373D01*
X144154626Y-80264373D01*
X144154628Y-80264374D01*
X144154629Y-80264374D01*
X144275141Y-80264374D01*
X144275142Y-80264374D01*
X144391550Y-80233182D01*
X144495919Y-80172925D01*
X144495920Y-80172924D01*
X144495921Y-80172924D01*
X144581135Y-80087710D01*
X144581135Y-80087709D01*
X144581136Y-80087708D01*
X144641393Y-79983339D01*
X144672585Y-79866931D01*
X144672585Y-79746417D01*
X144672540Y-79746250D01*
X144656574Y-79686665D01*
X144641393Y-79630009D01*
X144581136Y-79525640D01*
X144581135Y-79525638D01*
X144510455Y-79454959D01*
X144499032Y-79427382D01*
X144504257Y-79407883D01*
X144516508Y-79386665D01*
X144547700Y-79270257D01*
X144547700Y-79149743D01*
X144516508Y-79033335D01*
X144512908Y-79027099D01*
X144511675Y-79024963D01*
X144507779Y-78995369D01*
X144517870Y-78977890D01*
X144597693Y-78898068D01*
X144657950Y-78793699D01*
X144689142Y-78677291D01*
X144689142Y-78556777D01*
X144686252Y-78545993D01*
X144677649Y-78513887D01*
X144657950Y-78440369D01*
X144597693Y-78336000D01*
X144597692Y-78335998D01*
X144512477Y-78250783D01*
X144408107Y-78190526D01*
X144291703Y-78159334D01*
X144291699Y-78159334D01*
X144171185Y-78159334D01*
X144171180Y-78159334D01*
X144054776Y-78190526D01*
X143950406Y-78250783D01*
X143950406Y-78250784D01*
X143865192Y-78335998D01*
X143865191Y-78335998D01*
X143804934Y-78440368D01*
X143773742Y-78556772D01*
X143773742Y-78677295D01*
X143804934Y-78793699D01*
X143809766Y-78802068D01*
X143813662Y-78831662D01*
X143803568Y-78849145D01*
X143723749Y-78928964D01*
X143663492Y-79033334D01*
X143632300Y-79149738D01*
X131352656Y-79149738D01*
X131250261Y-79122300D01*
X131250257Y-79122300D01*
X131129743Y-79122300D01*
X131129738Y-79122300D01*
X131013334Y-79153492D01*
X130908964Y-79213749D01*
X130908964Y-79213750D01*
X130823750Y-79298964D01*
X130823749Y-79298964D01*
X130763492Y-79403334D01*
X130732300Y-79519738D01*
X120254500Y-79519738D01*
X120254500Y-76389738D01*
X126922300Y-76389738D01*
X126922300Y-76510261D01*
X126953492Y-76626665D01*
X127013749Y-76731035D01*
X127098964Y-76816250D01*
X127098966Y-76816251D01*
X127203335Y-76876508D01*
X127282837Y-76897811D01*
X127319738Y-76907699D01*
X127319741Y-76907699D01*
X127319743Y-76907700D01*
X127319744Y-76907700D01*
X127440256Y-76907700D01*
X127440257Y-76907700D01*
X127556665Y-76876508D01*
X127661034Y-76816251D01*
X127661035Y-76816250D01*
X127661036Y-76816250D01*
X127746250Y-76731036D01*
X127746250Y-76731035D01*
X127746251Y-76731034D01*
X127794342Y-76647738D01*
X129844300Y-76647738D01*
X129844300Y-76768261D01*
X129875492Y-76884665D01*
X129935749Y-76989035D01*
X130020964Y-77074250D01*
X130020966Y-77074251D01*
X130125335Y-77134508D01*
X130204837Y-77155811D01*
X130241738Y-77165699D01*
X130241741Y-77165699D01*
X130241743Y-77165700D01*
X130241744Y-77165700D01*
X130362256Y-77165700D01*
X130362257Y-77165700D01*
X130478665Y-77134508D01*
X130583034Y-77074251D01*
X130583035Y-77074250D01*
X130583036Y-77074250D01*
X130668250Y-76989036D01*
X130668250Y-76989035D01*
X130668251Y-76989034D01*
X130728508Y-76884665D01*
X130757651Y-76775905D01*
X130759699Y-76768261D01*
X130759700Y-76768255D01*
X130759700Y-76647744D01*
X130759699Y-76647738D01*
X130746703Y-76599240D01*
X130728508Y-76531335D01*
X130668251Y-76426966D01*
X130668250Y-76426964D01*
X130583035Y-76341749D01*
X130478665Y-76281492D01*
X130362261Y-76250300D01*
X130362257Y-76250300D01*
X130241743Y-76250300D01*
X130241738Y-76250300D01*
X130125334Y-76281492D01*
X130020964Y-76341749D01*
X130020964Y-76341750D01*
X129935750Y-76426964D01*
X129935749Y-76426964D01*
X129875492Y-76531334D01*
X129844300Y-76647738D01*
X127794342Y-76647738D01*
X127806508Y-76626665D01*
X127837700Y-76510257D01*
X127837700Y-76389743D01*
X127834677Y-76378463D01*
X127824840Y-76341749D01*
X127806508Y-76273335D01*
X127762395Y-76196928D01*
X127746250Y-76168964D01*
X127661035Y-76083749D01*
X127556665Y-76023492D01*
X127440261Y-75992300D01*
X127440257Y-75992300D01*
X127319743Y-75992300D01*
X127319738Y-75992300D01*
X127203334Y-76023492D01*
X127098964Y-76083749D01*
X127098964Y-76083750D01*
X127013750Y-76168964D01*
X127013749Y-76168964D01*
X126953492Y-76273334D01*
X126922300Y-76389738D01*
X120254500Y-76389738D01*
X120254500Y-75758738D01*
X138607300Y-75758738D01*
X138607300Y-75879261D01*
X138638492Y-75995665D01*
X138698749Y-76100035D01*
X138707637Y-76108923D01*
X138719060Y-76136500D01*
X138707637Y-76164077D01*
X138698750Y-76172964D01*
X138698749Y-76172964D01*
X138638492Y-76277334D01*
X138607300Y-76393738D01*
X138607300Y-76514261D01*
X138638492Y-76630665D01*
X138698749Y-76735035D01*
X138707637Y-76743923D01*
X138719060Y-76771500D01*
X138707637Y-76799077D01*
X138698750Y-76807964D01*
X138698749Y-76807964D01*
X138638492Y-76912334D01*
X138607300Y-77028738D01*
X138607300Y-77149261D01*
X138638492Y-77265665D01*
X138698749Y-77370035D01*
X138783964Y-77455250D01*
X138783966Y-77455251D01*
X138888335Y-77515508D01*
X138967837Y-77536811D01*
X139004738Y-77546699D01*
X139004741Y-77546699D01*
X139004743Y-77546700D01*
X139004744Y-77546700D01*
X139125256Y-77546700D01*
X139125257Y-77546700D01*
X139241665Y-77515508D01*
X139303621Y-77479738D01*
X163032300Y-77479738D01*
X163032300Y-77600261D01*
X163063492Y-77716665D01*
X163123749Y-77821035D01*
X163208964Y-77906250D01*
X163208966Y-77906251D01*
X163313335Y-77966508D01*
X163350059Y-77976348D01*
X163373740Y-77994519D01*
X163377636Y-78024113D01*
X163359465Y-78047794D01*
X163350062Y-78051689D01*
X163343337Y-78053491D01*
X163343334Y-78053492D01*
X163238964Y-78113749D01*
X163238964Y-78113750D01*
X163153750Y-78198964D01*
X163153749Y-78198964D01*
X163093492Y-78303334D01*
X163062300Y-78419738D01*
X163062300Y-78540261D01*
X163093492Y-78656665D01*
X163153749Y-78761035D01*
X163238964Y-78846250D01*
X163266928Y-78862395D01*
X163343335Y-78906508D01*
X163422837Y-78927811D01*
X163459738Y-78937699D01*
X163459741Y-78937699D01*
X163459743Y-78937700D01*
X163459744Y-78937700D01*
X163580256Y-78937700D01*
X163580257Y-78937700D01*
X163696665Y-78906508D01*
X163801034Y-78846251D01*
X163801035Y-78846250D01*
X163801036Y-78846250D01*
X163886250Y-78761036D01*
X163886250Y-78761035D01*
X163886251Y-78761034D01*
X163946508Y-78656665D01*
X163977700Y-78540257D01*
X163977700Y-78419743D01*
X163975159Y-78410261D01*
X163967811Y-78382837D01*
X163946508Y-78303335D01*
X163886251Y-78198966D01*
X163886250Y-78198964D01*
X163801035Y-78113749D01*
X163696666Y-78053492D01*
X163659939Y-78043651D01*
X163636259Y-78025479D01*
X163632363Y-77995885D01*
X163650535Y-77972205D01*
X163659932Y-77968312D01*
X163666665Y-77966508D01*
X163771034Y-77906251D01*
X163771035Y-77906250D01*
X163771036Y-77906250D01*
X163856250Y-77821036D01*
X163856250Y-77821035D01*
X163856251Y-77821034D01*
X163916508Y-77716665D01*
X163947700Y-77600257D01*
X163947700Y-77479743D01*
X163916508Y-77363335D01*
X163856251Y-77258966D01*
X163856250Y-77258964D01*
X163771035Y-77173749D01*
X163666665Y-77113492D01*
X163550261Y-77082300D01*
X163550257Y-77082300D01*
X163429743Y-77082300D01*
X163429738Y-77082300D01*
X163313334Y-77113492D01*
X163208964Y-77173749D01*
X163208964Y-77173750D01*
X163123750Y-77258964D01*
X163123749Y-77258964D01*
X163063492Y-77363334D01*
X163032300Y-77479738D01*
X139303621Y-77479738D01*
X139346034Y-77455251D01*
X139346035Y-77455250D01*
X139346036Y-77455250D01*
X139431250Y-77370036D01*
X139431250Y-77370035D01*
X139431251Y-77370034D01*
X139491508Y-77265665D01*
X139522700Y-77149257D01*
X139522700Y-77028743D01*
X139491508Y-76912335D01*
X139431251Y-76807966D01*
X139431250Y-76807964D01*
X139422363Y-76799078D01*
X139410939Y-76771502D01*
X139422361Y-76743924D01*
X139431250Y-76735035D01*
X139433559Y-76731036D01*
X139491508Y-76630665D01*
X139522700Y-76514257D01*
X139522700Y-76393743D01*
X139521628Y-76389744D01*
X139504890Y-76327276D01*
X139494831Y-76289738D01*
X143372300Y-76289738D01*
X143372300Y-76410261D01*
X143403492Y-76526665D01*
X143463749Y-76631035D01*
X143548964Y-76716250D01*
X143548966Y-76716251D01*
X143653335Y-76776508D01*
X143732837Y-76797811D01*
X143769738Y-76807699D01*
X143769741Y-76807699D01*
X143769743Y-76807700D01*
X143769744Y-76807700D01*
X143890256Y-76807700D01*
X143890257Y-76807700D01*
X144006665Y-76776508D01*
X144111034Y-76716251D01*
X144111035Y-76716250D01*
X144111036Y-76716250D01*
X144196250Y-76631036D01*
X144196250Y-76631035D01*
X144198774Y-76626664D01*
X144256508Y-76526665D01*
X144287700Y-76410257D01*
X144287700Y-76289743D01*
X144287699Y-76289738D01*
X144281201Y-76265487D01*
X144279180Y-76257944D01*
X157963534Y-76257944D01*
X157963534Y-76378467D01*
X157994726Y-76494871D01*
X158054983Y-76599241D01*
X158140198Y-76684456D01*
X158140200Y-76684457D01*
X158244569Y-76744714D01*
X158324071Y-76766017D01*
X158360972Y-76775905D01*
X158360975Y-76775905D01*
X158360977Y-76775906D01*
X158360978Y-76775906D01*
X158481490Y-76775906D01*
X158481491Y-76775906D01*
X158597899Y-76744714D01*
X158702268Y-76684457D01*
X158702269Y-76684456D01*
X158702270Y-76684456D01*
X158787484Y-76599242D01*
X158787484Y-76599241D01*
X158787485Y-76599240D01*
X158847742Y-76494871D01*
X158878934Y-76378463D01*
X158878934Y-76257949D01*
X158876884Y-76250300D01*
X158856162Y-76172966D01*
X158847742Y-76141541D01*
X158791163Y-76043543D01*
X158787484Y-76037170D01*
X158702269Y-75951955D01*
X158667682Y-75931987D01*
X158613600Y-75900763D01*
X161028011Y-75900763D01*
X161028011Y-76021286D01*
X161059203Y-76137690D01*
X161119460Y-76242060D01*
X161204675Y-76327275D01*
X161204677Y-76327276D01*
X161309046Y-76387533D01*
X161388548Y-76408836D01*
X161425449Y-76418724D01*
X161425452Y-76418724D01*
X161425454Y-76418725D01*
X161425455Y-76418725D01*
X161545967Y-76418725D01*
X161545968Y-76418725D01*
X161662376Y-76387533D01*
X161766745Y-76327276D01*
X161766746Y-76327275D01*
X161766747Y-76327275D01*
X161851961Y-76242061D01*
X161851961Y-76242060D01*
X161851962Y-76242059D01*
X161912219Y-76137690D01*
X161937446Y-76043543D01*
X161937447Y-76043538D01*
X164352300Y-76043538D01*
X164352300Y-76164061D01*
X164383492Y-76280465D01*
X164443749Y-76384835D01*
X164528964Y-76470050D01*
X164528966Y-76470051D01*
X164633335Y-76530308D01*
X164712837Y-76551611D01*
X164749738Y-76561499D01*
X164749741Y-76561499D01*
X164749743Y-76561500D01*
X164749744Y-76561500D01*
X164870256Y-76561500D01*
X164870257Y-76561500D01*
X164986665Y-76530308D01*
X165091034Y-76470051D01*
X165091035Y-76470050D01*
X165091036Y-76470050D01*
X165176250Y-76384836D01*
X165176250Y-76384835D01*
X165201125Y-76341750D01*
X165236508Y-76280465D01*
X165267700Y-76164057D01*
X165267700Y-76043543D01*
X165265992Y-76037170D01*
X165248807Y-75973034D01*
X165236508Y-75927135D01*
X165176251Y-75822766D01*
X165176250Y-75822764D01*
X165091035Y-75737549D01*
X164986665Y-75677292D01*
X164870261Y-75646100D01*
X164870257Y-75646100D01*
X164749743Y-75646100D01*
X164749738Y-75646100D01*
X164633334Y-75677292D01*
X164528964Y-75737549D01*
X164528964Y-75737550D01*
X164443750Y-75822764D01*
X164443749Y-75822764D01*
X164383492Y-75927134D01*
X164352300Y-76043538D01*
X161937447Y-76043538D01*
X161940836Y-76030893D01*
X161943410Y-76021286D01*
X161943411Y-76021280D01*
X161943411Y-75900769D01*
X161943410Y-75900763D01*
X161922510Y-75822766D01*
X161912219Y-75784360D01*
X161851962Y-75679991D01*
X161851961Y-75679989D01*
X161766746Y-75594774D01*
X161662376Y-75534517D01*
X161545972Y-75503325D01*
X161545968Y-75503325D01*
X161425454Y-75503325D01*
X161425449Y-75503325D01*
X161309045Y-75534517D01*
X161204675Y-75594774D01*
X161204675Y-75594775D01*
X161119461Y-75679989D01*
X161119460Y-75679989D01*
X161059203Y-75784359D01*
X161028011Y-75900763D01*
X158613600Y-75900763D01*
X158597899Y-75891698D01*
X158481495Y-75860506D01*
X158481491Y-75860506D01*
X158360977Y-75860506D01*
X158360972Y-75860506D01*
X158244568Y-75891698D01*
X158140198Y-75951955D01*
X158140198Y-75951956D01*
X158054984Y-76037170D01*
X158054983Y-76037170D01*
X157994726Y-76141540D01*
X157963534Y-76257944D01*
X144279180Y-76257944D01*
X144271245Y-76228335D01*
X144256508Y-76173335D01*
X144212395Y-76096928D01*
X144196250Y-76068964D01*
X144111035Y-75983749D01*
X144006665Y-75923492D01*
X143890261Y-75892300D01*
X143890257Y-75892300D01*
X143769743Y-75892300D01*
X143769738Y-75892300D01*
X143653334Y-75923492D01*
X143548964Y-75983749D01*
X143548964Y-75983750D01*
X143463750Y-76068964D01*
X143463749Y-76068964D01*
X143403492Y-76173334D01*
X143372300Y-76289738D01*
X139494831Y-76289738D01*
X139491508Y-76277335D01*
X139431464Y-76173335D01*
X139431250Y-76172964D01*
X139422363Y-76164078D01*
X139410939Y-76136502D01*
X139422361Y-76108924D01*
X139431250Y-76100035D01*
X139440653Y-76083749D01*
X139491508Y-75995665D01*
X139522700Y-75879257D01*
X139522700Y-75758743D01*
X139491508Y-75642335D01*
X139485390Y-75631738D01*
X155117300Y-75631738D01*
X155117300Y-75752261D01*
X155148492Y-75868665D01*
X155208749Y-75973035D01*
X155293964Y-76058250D01*
X155293966Y-76058251D01*
X155398335Y-76118508D01*
X155469922Y-76137690D01*
X155514738Y-76149699D01*
X155514741Y-76149699D01*
X155514743Y-76149700D01*
X155514744Y-76149700D01*
X155635256Y-76149700D01*
X155635257Y-76149700D01*
X155751665Y-76118508D01*
X155856034Y-76058251D01*
X155856035Y-76058250D01*
X155856036Y-76058250D01*
X155941250Y-75973036D01*
X155941250Y-75973035D01*
X155953420Y-75951956D01*
X156001508Y-75868665D01*
X156032700Y-75752257D01*
X156032700Y-75631743D01*
X156001508Y-75515335D01*
X155941251Y-75410966D01*
X155941250Y-75410964D01*
X155856035Y-75325749D01*
X155751665Y-75265492D01*
X155635261Y-75234300D01*
X155635257Y-75234300D01*
X155514743Y-75234300D01*
X155514738Y-75234300D01*
X155398334Y-75265492D01*
X155293964Y-75325749D01*
X155293964Y-75325750D01*
X155208820Y-75410893D01*
X155208817Y-75410897D01*
X155208749Y-75410966D01*
X155183986Y-75453855D01*
X155182389Y-75456620D01*
X155182390Y-75456621D01*
X155148492Y-75515334D01*
X155117300Y-75631738D01*
X139485390Y-75631738D01*
X139431251Y-75537966D01*
X139431250Y-75537964D01*
X139346035Y-75452749D01*
X139241665Y-75392492D01*
X139125261Y-75361300D01*
X139125257Y-75361300D01*
X139004743Y-75361300D01*
X139004738Y-75361300D01*
X138888334Y-75392492D01*
X138783964Y-75452749D01*
X138783964Y-75452750D01*
X138698750Y-75537964D01*
X138698749Y-75537964D01*
X138638492Y-75642334D01*
X138607300Y-75758738D01*
X120254500Y-75758738D01*
X120254500Y-74289738D01*
X146382300Y-74289738D01*
X146382300Y-74410261D01*
X146413492Y-74526665D01*
X146472991Y-74629722D01*
X146473749Y-74631034D01*
X146511831Y-74669116D01*
X146523254Y-74696693D01*
X146518029Y-74716193D01*
X146473492Y-74793334D01*
X146442300Y-74909738D01*
X146442300Y-75030261D01*
X146473492Y-75146665D01*
X146533749Y-75251035D01*
X146618964Y-75336250D01*
X146618966Y-75336251D01*
X146723335Y-75396508D01*
X146798938Y-75416766D01*
X146839738Y-75427699D01*
X146839741Y-75427699D01*
X146839743Y-75427700D01*
X146839744Y-75427700D01*
X146960256Y-75427700D01*
X146960257Y-75427700D01*
X147076665Y-75396508D01*
X147181034Y-75336251D01*
X147181035Y-75336250D01*
X147181036Y-75336250D01*
X147266250Y-75251036D01*
X147266250Y-75251035D01*
X147275912Y-75234300D01*
X147326508Y-75146665D01*
X147345994Y-75073943D01*
X147345995Y-75073938D01*
X154292300Y-75073938D01*
X154292300Y-75194461D01*
X154323492Y-75310865D01*
X154383749Y-75415235D01*
X154468964Y-75500450D01*
X154468966Y-75500451D01*
X154573335Y-75560708D01*
X154652837Y-75582011D01*
X154689738Y-75591899D01*
X154689741Y-75591899D01*
X154689743Y-75591900D01*
X154689744Y-75591900D01*
X154810256Y-75591900D01*
X154810257Y-75591900D01*
X154926665Y-75560708D01*
X155031034Y-75500451D01*
X155031035Y-75500450D01*
X155031036Y-75500450D01*
X155116175Y-75415310D01*
X155116251Y-75415234D01*
X155176508Y-75310865D01*
X155207700Y-75194457D01*
X155207700Y-75073943D01*
X155204310Y-75061293D01*
X155195994Y-75030255D01*
X155176508Y-74957535D01*
X155116251Y-74853166D01*
X155116250Y-74853164D01*
X155031035Y-74767949D01*
X154987368Y-74742738D01*
X158038300Y-74742738D01*
X158038300Y-74863261D01*
X158069492Y-74979665D01*
X158129749Y-75084035D01*
X158214964Y-75169250D01*
X158214966Y-75169251D01*
X158319335Y-75229508D01*
X158398837Y-75250811D01*
X158435738Y-75260699D01*
X158435741Y-75260699D01*
X158435743Y-75260700D01*
X158435744Y-75260700D01*
X158556256Y-75260700D01*
X158556257Y-75260700D01*
X158672665Y-75229508D01*
X158777034Y-75169251D01*
X158777035Y-75169250D01*
X158777036Y-75169250D01*
X158862250Y-75084036D01*
X158862250Y-75084035D01*
X158868077Y-75073943D01*
X158922508Y-74979665D01*
X158953700Y-74863257D01*
X158953700Y-74742743D01*
X158922508Y-74626335D01*
X158862251Y-74521966D01*
X158862250Y-74521964D01*
X158777035Y-74436749D01*
X158672665Y-74376492D01*
X158556261Y-74345300D01*
X158556257Y-74345300D01*
X158435743Y-74345300D01*
X158435738Y-74345300D01*
X158319334Y-74376492D01*
X158214964Y-74436749D01*
X158214964Y-74436750D01*
X158129750Y-74521964D01*
X158129749Y-74521964D01*
X158069492Y-74626334D01*
X158038300Y-74742738D01*
X154987368Y-74742738D01*
X154926665Y-74707692D01*
X154810261Y-74676500D01*
X154810257Y-74676500D01*
X154689743Y-74676500D01*
X154689738Y-74676500D01*
X154573334Y-74707692D01*
X154468964Y-74767949D01*
X154468964Y-74767950D01*
X154383750Y-74853164D01*
X154383749Y-74853164D01*
X154323492Y-74957534D01*
X154292300Y-75073938D01*
X147345995Y-75073938D01*
X147349384Y-75061293D01*
X147357699Y-75030261D01*
X147357700Y-75030255D01*
X147357700Y-74909744D01*
X147357699Y-74909738D01*
X147337940Y-74836000D01*
X147326508Y-74793335D01*
X147266251Y-74688966D01*
X147266250Y-74688964D01*
X147228168Y-74650882D01*
X147216745Y-74623305D01*
X147221970Y-74603805D01*
X147227339Y-74594507D01*
X147266508Y-74526665D01*
X147297700Y-74410257D01*
X147297700Y-74289743D01*
X147266508Y-74173335D01*
X147228636Y-74107738D01*
X154990300Y-74107738D01*
X154990300Y-74228261D01*
X155021492Y-74344665D01*
X155081749Y-74449035D01*
X155166964Y-74534250D01*
X155166966Y-74534251D01*
X155271335Y-74594508D01*
X155350837Y-74615811D01*
X155387738Y-74625699D01*
X155387741Y-74625699D01*
X155387743Y-74625700D01*
X155387744Y-74625700D01*
X155508256Y-74625700D01*
X155508257Y-74625700D01*
X155624665Y-74594508D01*
X155729034Y-74534251D01*
X155729035Y-74534250D01*
X155729036Y-74534250D01*
X155814250Y-74449036D01*
X155814250Y-74449035D01*
X155821343Y-74436750D01*
X155874508Y-74344665D01*
X155905700Y-74228257D01*
X155905700Y-74107743D01*
X155874508Y-73991335D01*
X155814251Y-73886966D01*
X155814250Y-73886964D01*
X155729035Y-73801749D01*
X155624665Y-73741492D01*
X155508261Y-73710300D01*
X155508257Y-73710300D01*
X155387743Y-73710300D01*
X155387738Y-73710300D01*
X155271334Y-73741492D01*
X155166964Y-73801749D01*
X155166964Y-73801750D01*
X155081750Y-73886964D01*
X155081749Y-73886964D01*
X155021492Y-73991334D01*
X154990300Y-74107738D01*
X147228636Y-74107738D01*
X147206251Y-74068966D01*
X147206250Y-74068964D01*
X147121035Y-73983749D01*
X147016665Y-73923492D01*
X146900261Y-73892300D01*
X146900257Y-73892300D01*
X146779743Y-73892300D01*
X146779738Y-73892300D01*
X146663334Y-73923492D01*
X146558964Y-73983749D01*
X146558964Y-73983750D01*
X146473750Y-74068964D01*
X146473749Y-74068964D01*
X146413492Y-74173334D01*
X146382300Y-74289738D01*
X120254500Y-74289738D01*
X120254500Y-71695923D01*
X120265923Y-71668346D01*
X120293500Y-71656923D01*
X120321077Y-71668346D01*
X120331522Y-71687245D01*
X120348981Y-71763740D01*
X120348983Y-71763749D01*
X120451162Y-72055758D01*
X120451163Y-72055761D01*
X120500210Y-72157607D01*
X120585399Y-72334503D01*
X120585401Y-72334507D01*
X120585402Y-72334508D01*
X120749998Y-72596463D01*
X120750001Y-72596468D01*
X120942886Y-72838337D01*
X121161662Y-73057113D01*
X121403531Y-73249998D01*
X121403536Y-73250001D01*
X121403538Y-73250002D01*
X121665497Y-73414601D01*
X121925460Y-73539793D01*
X121944238Y-73548836D01*
X121944241Y-73548837D01*
X122236250Y-73651016D01*
X122236259Y-73651018D01*
X122537866Y-73719858D01*
X122537870Y-73719858D01*
X122537877Y-73719860D01*
X122845311Y-73754500D01*
X122845316Y-73754500D01*
X123154684Y-73754500D01*
X123154689Y-73754500D01*
X123462123Y-73719860D01*
X123462132Y-73719858D01*
X123462134Y-73719858D01*
X123698404Y-73665930D01*
X123763745Y-73651017D01*
X123763745Y-73651016D01*
X123763749Y-73651016D01*
X123909753Y-73599926D01*
X124055762Y-73548836D01*
X124334503Y-73414601D01*
X124596462Y-73250002D01*
X124596464Y-73250000D01*
X124596468Y-73249998D01*
X124838337Y-73057113D01*
X124838339Y-73057110D01*
X124838344Y-73057107D01*
X124930713Y-72964738D01*
X125526300Y-72964738D01*
X125526300Y-73085261D01*
X125557492Y-73201665D01*
X125617749Y-73306035D01*
X125702964Y-73391250D01*
X125702966Y-73391251D01*
X125807335Y-73451508D01*
X125886837Y-73472811D01*
X125923738Y-73482699D01*
X125923741Y-73482699D01*
X125923743Y-73482700D01*
X125923744Y-73482700D01*
X126044256Y-73482700D01*
X126044257Y-73482700D01*
X126160665Y-73451508D01*
X126265034Y-73391251D01*
X126265035Y-73391250D01*
X126265036Y-73391250D01*
X126350250Y-73306036D01*
X126350250Y-73306035D01*
X126350251Y-73306034D01*
X126410508Y-73201665D01*
X126441700Y-73085257D01*
X126441700Y-72964743D01*
X126410508Y-72848335D01*
X126350251Y-72743966D01*
X126350250Y-72743964D01*
X126317024Y-72710738D01*
X147243300Y-72710738D01*
X147243300Y-72831261D01*
X147274492Y-72947665D01*
X147334749Y-73052035D01*
X147419964Y-73137250D01*
X147419966Y-73137251D01*
X147524335Y-73197508D01*
X147603837Y-73218811D01*
X147640738Y-73228699D01*
X147640741Y-73228699D01*
X147640743Y-73228700D01*
X147640744Y-73228700D01*
X147761256Y-73228700D01*
X147761257Y-73228700D01*
X147877665Y-73197508D01*
X147982034Y-73137251D01*
X147982035Y-73137250D01*
X147982036Y-73137250D01*
X148067250Y-73052036D01*
X148067250Y-73052035D01*
X148067251Y-73052034D01*
X148127508Y-72947665D01*
X148158700Y-72831257D01*
X148158700Y-72710743D01*
X148127508Y-72594335D01*
X148067251Y-72489966D01*
X148067250Y-72489964D01*
X147982035Y-72404749D01*
X147877665Y-72344492D01*
X147761261Y-72313300D01*
X147761257Y-72313300D01*
X147640743Y-72313300D01*
X147640738Y-72313300D01*
X147524334Y-72344492D01*
X147419964Y-72404749D01*
X147419964Y-72404750D01*
X147334750Y-72489964D01*
X147334749Y-72489964D01*
X147274492Y-72594334D01*
X147243300Y-72710738D01*
X126317024Y-72710738D01*
X126265035Y-72658749D01*
X126160665Y-72598492D01*
X126044261Y-72567300D01*
X126044257Y-72567300D01*
X125923743Y-72567300D01*
X125923738Y-72567300D01*
X125807334Y-72598492D01*
X125702964Y-72658749D01*
X125702964Y-72658750D01*
X125617750Y-72743964D01*
X125617749Y-72743964D01*
X125557492Y-72848334D01*
X125526300Y-72964738D01*
X124930713Y-72964738D01*
X125057107Y-72838344D01*
X125062759Y-72831257D01*
X125249998Y-72596468D01*
X125250001Y-72596463D01*
X125251339Y-72594334D01*
X125414601Y-72334503D01*
X125548836Y-72055762D01*
X125622002Y-71846665D01*
X125651016Y-71763749D01*
X125651018Y-71763740D01*
X125719858Y-71462134D01*
X125719858Y-71462131D01*
X125719860Y-71462123D01*
X125722270Y-71440738D01*
X129082300Y-71440738D01*
X129082300Y-71561261D01*
X129113492Y-71677665D01*
X129173749Y-71782035D01*
X129258964Y-71867250D01*
X129258966Y-71867251D01*
X129363335Y-71927508D01*
X129442837Y-71948811D01*
X129479738Y-71958699D01*
X129479741Y-71958699D01*
X129479743Y-71958700D01*
X129479744Y-71958700D01*
X129600256Y-71958700D01*
X129600257Y-71958700D01*
X129716665Y-71927508D01*
X129821034Y-71867251D01*
X129821035Y-71867250D01*
X129821036Y-71867250D01*
X129906250Y-71782036D01*
X129906250Y-71782035D01*
X129906251Y-71782034D01*
X129966508Y-71677665D01*
X129982030Y-71619738D01*
X134622300Y-71619738D01*
X134622300Y-71740261D01*
X134653492Y-71856665D01*
X134713749Y-71961035D01*
X134798964Y-72046250D01*
X134798966Y-72046251D01*
X134903335Y-72106508D01*
X134982419Y-72127699D01*
X135019738Y-72137699D01*
X135019741Y-72137699D01*
X135019743Y-72137700D01*
X135019744Y-72137700D01*
X135140256Y-72137700D01*
X135140257Y-72137700D01*
X135256665Y-72106508D01*
X135361034Y-72046251D01*
X135361035Y-72046250D01*
X135361036Y-72046250D01*
X135446250Y-71961036D01*
X135446250Y-71961035D01*
X135446251Y-71961034D01*
X135506508Y-71856665D01*
X135537700Y-71740257D01*
X135537700Y-71619743D01*
X135537040Y-71617279D01*
X135537040Y-71617277D01*
X135535020Y-71609738D01*
X140122300Y-71609738D01*
X140122300Y-71730261D01*
X140153492Y-71846665D01*
X140213749Y-71951035D01*
X140298964Y-72036250D01*
X140298966Y-72036251D01*
X140403335Y-72096508D01*
X140482837Y-72117811D01*
X140519738Y-72127699D01*
X140519741Y-72127699D01*
X140519743Y-72127700D01*
X140519744Y-72127700D01*
X140640256Y-72127700D01*
X140640257Y-72127700D01*
X140756665Y-72096508D01*
X140861034Y-72036251D01*
X140861035Y-72036250D01*
X140861036Y-72036250D01*
X140946250Y-71951036D01*
X140946250Y-71951035D01*
X140946251Y-71951034D01*
X141006508Y-71846665D01*
X141019082Y-71799738D01*
X144622300Y-71799738D01*
X144622300Y-71920261D01*
X144653492Y-72036665D01*
X144713749Y-72141035D01*
X144798964Y-72226250D01*
X144798966Y-72226251D01*
X144903335Y-72286508D01*
X144982837Y-72307811D01*
X145019738Y-72317699D01*
X145019741Y-72317699D01*
X145019743Y-72317700D01*
X145019744Y-72317700D01*
X145140256Y-72317700D01*
X145140257Y-72317700D01*
X145256665Y-72286508D01*
X145361034Y-72226251D01*
X145361035Y-72226250D01*
X145361036Y-72226250D01*
X145446250Y-72141036D01*
X145446250Y-72141035D01*
X145446251Y-72141034D01*
X145506508Y-72036665D01*
X145537700Y-71920257D01*
X145537700Y-71799743D01*
X145537699Y-71799738D01*
X145632300Y-71799738D01*
X145632300Y-71920261D01*
X145663492Y-72036665D01*
X145723749Y-72141035D01*
X145808964Y-72226250D01*
X145808966Y-72226251D01*
X145913335Y-72286508D01*
X145992837Y-72307811D01*
X146029738Y-72317699D01*
X146029741Y-72317699D01*
X146029743Y-72317700D01*
X146029744Y-72317700D01*
X146150256Y-72317700D01*
X146150257Y-72317700D01*
X146266665Y-72286508D01*
X146371034Y-72226251D01*
X146371035Y-72226250D01*
X146371036Y-72226250D01*
X146456250Y-72141036D01*
X146456250Y-72141035D01*
X146456251Y-72141034D01*
X146516508Y-72036665D01*
X146547700Y-71920257D01*
X146547700Y-71799743D01*
X146542955Y-71782036D01*
X146537811Y-71762837D01*
X146516508Y-71683335D01*
X146456251Y-71578966D01*
X146456250Y-71578964D01*
X146371035Y-71493749D01*
X146266665Y-71433492D01*
X146150261Y-71402300D01*
X146150257Y-71402300D01*
X146029743Y-71402300D01*
X146029738Y-71402300D01*
X145913334Y-71433492D01*
X145808964Y-71493749D01*
X145808964Y-71493750D01*
X145723750Y-71578964D01*
X145723749Y-71578964D01*
X145663492Y-71683334D01*
X145632300Y-71799738D01*
X145537699Y-71799738D01*
X145532955Y-71782036D01*
X145527811Y-71762837D01*
X145506508Y-71683335D01*
X145446251Y-71578966D01*
X145446250Y-71578964D01*
X145361035Y-71493749D01*
X145256665Y-71433492D01*
X145140261Y-71402300D01*
X145140257Y-71402300D01*
X145019743Y-71402300D01*
X145019738Y-71402300D01*
X144903334Y-71433492D01*
X144798964Y-71493749D01*
X144798964Y-71493750D01*
X144713750Y-71578964D01*
X144713749Y-71578964D01*
X144653492Y-71683334D01*
X144622300Y-71799738D01*
X141019082Y-71799738D01*
X141035019Y-71740261D01*
X141037699Y-71730261D01*
X141037700Y-71730255D01*
X141037700Y-71609744D01*
X141037699Y-71609738D01*
X141024707Y-71561255D01*
X141006508Y-71493335D01*
X140953949Y-71402300D01*
X140946250Y-71388964D01*
X140861035Y-71303749D01*
X140756665Y-71243492D01*
X140640261Y-71212300D01*
X140640257Y-71212300D01*
X140519743Y-71212300D01*
X140519738Y-71212300D01*
X140403334Y-71243492D01*
X140298964Y-71303749D01*
X140298964Y-71303750D01*
X140213750Y-71388964D01*
X140213749Y-71388964D01*
X140153492Y-71493334D01*
X140122300Y-71609738D01*
X135535020Y-71609738D01*
X135521340Y-71558689D01*
X135506508Y-71503335D01*
X135446251Y-71398966D01*
X135446250Y-71398964D01*
X135361035Y-71313749D01*
X135256665Y-71253492D01*
X135140261Y-71222300D01*
X135140257Y-71222300D01*
X135019743Y-71222300D01*
X135019738Y-71222300D01*
X134903334Y-71253492D01*
X134798964Y-71313749D01*
X134798964Y-71313750D01*
X134713750Y-71398964D01*
X134713749Y-71398964D01*
X134653492Y-71503334D01*
X134622300Y-71619738D01*
X129982030Y-71619738D01*
X129997700Y-71561257D01*
X129997700Y-71440743D01*
X129966508Y-71324335D01*
X129906251Y-71219966D01*
X129906250Y-71219964D01*
X129821035Y-71134749D01*
X129716665Y-71074492D01*
X129600261Y-71043300D01*
X129600257Y-71043300D01*
X129479743Y-71043300D01*
X129479738Y-71043300D01*
X129363334Y-71074492D01*
X129258964Y-71134749D01*
X129258964Y-71134750D01*
X129173750Y-71219964D01*
X129173749Y-71219964D01*
X129113492Y-71324334D01*
X129082300Y-71440738D01*
X125722270Y-71440738D01*
X125754500Y-71154689D01*
X125754500Y-70845311D01*
X125719860Y-70537877D01*
X125719858Y-70537867D01*
X125719858Y-70537865D01*
X125651018Y-70236259D01*
X125651016Y-70236250D01*
X125548837Y-69944241D01*
X125548836Y-69944238D01*
X125414601Y-69665497D01*
X125250002Y-69403538D01*
X125250001Y-69403536D01*
X125249998Y-69403531D01*
X125057113Y-69161662D01*
X124838337Y-68942886D01*
X124596468Y-68750001D01*
X124596463Y-68749998D01*
X124334508Y-68585402D01*
X124334507Y-68585401D01*
X124334503Y-68585399D01*
X124185885Y-68513828D01*
X124055761Y-68451163D01*
X124055758Y-68451162D01*
X123763749Y-68348983D01*
X123763740Y-68348981D01*
X123687246Y-68331522D01*
X123662902Y-68314249D01*
X123657902Y-68284822D01*
X123675175Y-68260478D01*
X123695924Y-68254500D01*
X158304076Y-68254500D01*
X158331653Y-68265923D01*
G37*
%TD.AperFunction*%
%TD*%
%TA.AperFunction,Conductor*%
%TO.N,GND1*%
G36*
X169688539Y-92769685D02*
G01*
X169734294Y-92822489D01*
X169745500Y-92874000D01*
X169745500Y-98626000D01*
X169725815Y-98693039D01*
X169673011Y-98738794D01*
X169621500Y-98750000D01*
X138661546Y-98750000D01*
X138594507Y-98730315D01*
X138548752Y-98677511D01*
X138538808Y-98608353D01*
X138567833Y-98544797D01*
X138599545Y-98518613D01*
X138646418Y-98491551D01*
X138750551Y-98387418D01*
X138824184Y-98259882D01*
X138862300Y-98117633D01*
X138862300Y-97970367D01*
X138824184Y-97828118D01*
X138750551Y-97700582D01*
X138646418Y-97596449D01*
X138601527Y-97570531D01*
X138518885Y-97522817D01*
X138518886Y-97522817D01*
X138494695Y-97516335D01*
X138376633Y-97484700D01*
X138229367Y-97484700D01*
X138111305Y-97516335D01*
X138087114Y-97522817D01*
X137959585Y-97596447D01*
X137959579Y-97596451D01*
X137946181Y-97609850D01*
X137884858Y-97643335D01*
X137815166Y-97638351D01*
X137770819Y-97609850D01*
X137757420Y-97596451D01*
X137757418Y-97596449D01*
X137712527Y-97570531D01*
X137629885Y-97522817D01*
X137629886Y-97522817D01*
X137605695Y-97516335D01*
X137487633Y-97484700D01*
X137340367Y-97484700D01*
X137222305Y-97516335D01*
X137198114Y-97522817D01*
X137070585Y-97596447D01*
X137070579Y-97596451D01*
X136966451Y-97700579D01*
X136966447Y-97700585D01*
X136949886Y-97729269D01*
X136899318Y-97777483D01*
X136830711Y-97790705D01*
X136765847Y-97764736D01*
X136735114Y-97729269D01*
X136728081Y-97717089D01*
X136718551Y-97700582D01*
X136614418Y-97596449D01*
X136569527Y-97570531D01*
X136486885Y-97522817D01*
X136486886Y-97522817D01*
X136462695Y-97516335D01*
X136344633Y-97484700D01*
X136197367Y-97484700D01*
X136079305Y-97516335D01*
X136055114Y-97522817D01*
X135927585Y-97596447D01*
X135927579Y-97596451D01*
X135914181Y-97609850D01*
X135852858Y-97643335D01*
X135783166Y-97638351D01*
X135738819Y-97609850D01*
X135725420Y-97596451D01*
X135725418Y-97596449D01*
X135680527Y-97570531D01*
X135597885Y-97522817D01*
X135597886Y-97522817D01*
X135573695Y-97516335D01*
X135455633Y-97484700D01*
X135308367Y-97484700D01*
X135190305Y-97516335D01*
X135166114Y-97522817D01*
X135038585Y-97596447D01*
X135038579Y-97596451D01*
X134934451Y-97700579D01*
X134934447Y-97700585D01*
X134860817Y-97828114D01*
X134860816Y-97828118D01*
X134822700Y-97970367D01*
X134822700Y-98117633D01*
X134847214Y-98209118D01*
X134860817Y-98259885D01*
X134897408Y-98323262D01*
X134934449Y-98387418D01*
X135038582Y-98491551D01*
X135085455Y-98518613D01*
X135133670Y-98569181D01*
X135146892Y-98637788D01*
X135120924Y-98702652D01*
X135064010Y-98743180D01*
X135023454Y-98750000D01*
X128124000Y-98750000D01*
X128056961Y-98730315D01*
X128011206Y-98677511D01*
X128000000Y-98626000D01*
X128000000Y-97843367D01*
X128980700Y-97843367D01*
X128980700Y-97990633D01*
X128998808Y-98058212D01*
X129018817Y-98132885D01*
X129062831Y-98209118D01*
X129092449Y-98260418D01*
X129196582Y-98364551D01*
X129286226Y-98416307D01*
X129324114Y-98438182D01*
X129324115Y-98438182D01*
X129324118Y-98438184D01*
X129466367Y-98476300D01*
X129466370Y-98476300D01*
X129613630Y-98476300D01*
X129613633Y-98476300D01*
X129755882Y-98438184D01*
X129883418Y-98364551D01*
X129896819Y-98351150D01*
X129958142Y-98317665D01*
X130027834Y-98322649D01*
X130072181Y-98351150D01*
X130085582Y-98364551D01*
X130175226Y-98416307D01*
X130213114Y-98438182D01*
X130213115Y-98438182D01*
X130213118Y-98438184D01*
X130355367Y-98476300D01*
X130355370Y-98476300D01*
X130502630Y-98476300D01*
X130502633Y-98476300D01*
X130644882Y-98438184D01*
X130772418Y-98364551D01*
X130876551Y-98260418D01*
X130929674Y-98168405D01*
X130954248Y-98125844D01*
X130955827Y-98126755D01*
X130993271Y-98080283D01*
X131059564Y-98058212D01*
X131127264Y-98075486D01*
X131174879Y-98126619D01*
X131177451Y-98132251D01*
X131221831Y-98209118D01*
X131251449Y-98260418D01*
X131355582Y-98364551D01*
X131445226Y-98416307D01*
X131483114Y-98438182D01*
X131483115Y-98438182D01*
X131483118Y-98438184D01*
X131625367Y-98476300D01*
X131625370Y-98476300D01*
X131772630Y-98476300D01*
X131772633Y-98476300D01*
X131914882Y-98438184D01*
X132042418Y-98364551D01*
X132055819Y-98351150D01*
X132117142Y-98317665D01*
X132186834Y-98322649D01*
X132231181Y-98351150D01*
X132244582Y-98364551D01*
X132334226Y-98416307D01*
X132372114Y-98438182D01*
X132372115Y-98438182D01*
X132372118Y-98438184D01*
X132514367Y-98476300D01*
X132514370Y-98476300D01*
X132661630Y-98476300D01*
X132661633Y-98476300D01*
X132803882Y-98438184D01*
X132931418Y-98364551D01*
X133035551Y-98260418D01*
X133109184Y-98132882D01*
X133147300Y-97990633D01*
X133147300Y-97843367D01*
X133109184Y-97701118D01*
X133108876Y-97700585D01*
X133048752Y-97596447D01*
X133035551Y-97573582D01*
X132931418Y-97469449D01*
X132893526Y-97447572D01*
X132803885Y-97395817D01*
X132803886Y-97395817D01*
X132792220Y-97392691D01*
X132661633Y-97357700D01*
X132514367Y-97357700D01*
X132383779Y-97392691D01*
X132372114Y-97395817D01*
X132244585Y-97469447D01*
X132244579Y-97469451D01*
X132231181Y-97482850D01*
X132169858Y-97516335D01*
X132100166Y-97511351D01*
X132055819Y-97482850D01*
X132042420Y-97469451D01*
X132042418Y-97469449D01*
X132004526Y-97447572D01*
X131914885Y-97395817D01*
X131914886Y-97395817D01*
X131903220Y-97392691D01*
X131772633Y-97357700D01*
X131625367Y-97357700D01*
X131494779Y-97392691D01*
X131483114Y-97395817D01*
X131355585Y-97469447D01*
X131355579Y-97469451D01*
X131251451Y-97573579D01*
X131251447Y-97573585D01*
X131173752Y-97708156D01*
X131172173Y-97707244D01*
X131134722Y-97753720D01*
X131068429Y-97775787D01*
X131000729Y-97758509D01*
X130953117Y-97707373D01*
X130950549Y-97701749D01*
X130889752Y-97596447D01*
X130876551Y-97573582D01*
X130772418Y-97469449D01*
X130734526Y-97447572D01*
X130644885Y-97395817D01*
X130644886Y-97395817D01*
X130633220Y-97392691D01*
X130502633Y-97357700D01*
X130355367Y-97357700D01*
X130224779Y-97392691D01*
X130213114Y-97395817D01*
X130085585Y-97469447D01*
X130085579Y-97469451D01*
X130072181Y-97482850D01*
X130010858Y-97516335D01*
X129941166Y-97511351D01*
X129896819Y-97482850D01*
X129883420Y-97469451D01*
X129883418Y-97469449D01*
X129845526Y-97447572D01*
X129755885Y-97395817D01*
X129755886Y-97395817D01*
X129744220Y-97392691D01*
X129613633Y-97357700D01*
X129466367Y-97357700D01*
X129335779Y-97392691D01*
X129324114Y-97395817D01*
X129196585Y-97469447D01*
X129196579Y-97469451D01*
X129092451Y-97573579D01*
X129092447Y-97573585D01*
X129018817Y-97701114D01*
X129017140Y-97707373D01*
X128980700Y-97843367D01*
X128000000Y-97843367D01*
X128000000Y-97250000D01*
X120378500Y-97250000D01*
X120311461Y-97230315D01*
X120265706Y-97177511D01*
X120254500Y-97126000D01*
X120254500Y-92874000D01*
X120274185Y-92806961D01*
X120326989Y-92761206D01*
X120378500Y-92750000D01*
X169621500Y-92750000D01*
X169688539Y-92769685D01*
G37*
%TD.AperFunction*%
%TD*%
%TA.AperFunction,Conductor*%
%TO.N,/DRV8323RSRGZR/PHASA*%
G36*
X133238577Y-99511423D02*
G01*
X133250000Y-99539000D01*
X133250000Y-109706500D01*
X133238577Y-109734077D01*
X133211000Y-109745500D01*
X123695924Y-109745500D01*
X123668347Y-109734077D01*
X123656924Y-109706500D01*
X123668347Y-109678923D01*
X123687246Y-109668478D01*
X123750369Y-109654069D01*
X123763745Y-109651017D01*
X123763745Y-109651016D01*
X123763749Y-109651016D01*
X123909753Y-109599926D01*
X124055762Y-109548836D01*
X124334503Y-109414601D01*
X124596462Y-109250002D01*
X124596464Y-109250000D01*
X124596468Y-109249998D01*
X124838337Y-109057113D01*
X124838339Y-109057110D01*
X124838344Y-109057107D01*
X125057107Y-108838344D01*
X125057113Y-108838337D01*
X125249998Y-108596468D01*
X125250001Y-108596463D01*
X125250002Y-108596462D01*
X125414601Y-108334503D01*
X125548836Y-108055762D01*
X125651017Y-107763745D01*
X125708975Y-107509815D01*
X125719858Y-107462134D01*
X125719858Y-107462132D01*
X125719858Y-107462131D01*
X125719860Y-107462123D01*
X125754500Y-107154689D01*
X125754500Y-106845311D01*
X125719860Y-106537877D01*
X125719858Y-106537867D01*
X125719858Y-106537865D01*
X125651018Y-106236259D01*
X125651016Y-106236250D01*
X125548837Y-105944241D01*
X125548836Y-105944238D01*
X125414601Y-105665497D01*
X125250002Y-105403538D01*
X125250001Y-105403536D01*
X125249998Y-105403531D01*
X125057113Y-105161662D01*
X124838337Y-104942886D01*
X124596468Y-104750001D01*
X124596463Y-104749998D01*
X124334508Y-104585402D01*
X124334507Y-104585401D01*
X124334503Y-104585399D01*
X124185885Y-104513828D01*
X124055761Y-104451163D01*
X124055758Y-104451162D01*
X123763749Y-104348983D01*
X123763740Y-104348981D01*
X123462133Y-104280141D01*
X123405667Y-104273778D01*
X123154689Y-104245500D01*
X122845311Y-104245500D01*
X122594332Y-104273778D01*
X122537867Y-104280141D01*
X122537865Y-104280141D01*
X122236259Y-104348981D01*
X122236250Y-104348983D01*
X121944241Y-104451162D01*
X121944238Y-104451163D01*
X121665491Y-104585402D01*
X121403536Y-104749998D01*
X121403531Y-104750001D01*
X121161662Y-104942886D01*
X120942886Y-105161662D01*
X120750001Y-105403531D01*
X120749998Y-105403536D01*
X120585402Y-105665491D01*
X120451163Y-105944238D01*
X120451162Y-105944241D01*
X120348983Y-106236250D01*
X120348981Y-106236259D01*
X120331522Y-106312754D01*
X120314249Y-106337098D01*
X120284822Y-106342098D01*
X120260478Y-106324825D01*
X120254500Y-106304076D01*
X120254500Y-102289000D01*
X120265923Y-102261423D01*
X120293500Y-102250000D01*
X128000000Y-102250000D01*
X128000000Y-99539000D01*
X128011423Y-99511423D01*
X128039000Y-99500000D01*
X133211000Y-99500000D01*
X133238577Y-99511423D01*
G37*
%TD.AperFunction*%
%TD*%
%TA.AperFunction,Conductor*%
%TO.N,+36V*%
G36*
X169688539Y-99519685D02*
G01*
X169734294Y-99572489D01*
X169745500Y-99624000D01*
X169745500Y-102459222D01*
X169725815Y-102526261D01*
X169673011Y-102572016D01*
X169621500Y-102583222D01*
X164938057Y-102583222D01*
X164937921Y-102583235D01*
X164820268Y-102583260D01*
X164820214Y-102583261D01*
X164820212Y-102583261D01*
X164820197Y-102583262D01*
X164462632Y-102620996D01*
X164110968Y-102696054D01*
X163769148Y-102807597D01*
X163769142Y-102807600D01*
X163440911Y-102954401D01*
X163440897Y-102954408D01*
X163129886Y-103134845D01*
X162839523Y-103346931D01*
X162573016Y-103588325D01*
X162573011Y-103588329D01*
X162333321Y-103856344D01*
X162123069Y-104148054D01*
X161944600Y-104460205D01*
X161799878Y-104789356D01*
X161799876Y-104789362D01*
X161690497Y-105131885D01*
X161690495Y-105131892D01*
X161690495Y-105131894D01*
X161634310Y-105403541D01*
X161617666Y-105484010D01*
X161617665Y-105484017D01*
X161610178Y-105559537D01*
X161583976Y-105624308D01*
X161526915Y-105664630D01*
X161457113Y-105667702D01*
X161396731Y-105632549D01*
X161381789Y-105613276D01*
X161300568Y-105484014D01*
X161250002Y-105403538D01*
X161057107Y-105161656D01*
X160838344Y-104942893D01*
X160596462Y-104749998D01*
X160334503Y-104585399D01*
X160334500Y-104585397D01*
X160055765Y-104451165D01*
X159763756Y-104348986D01*
X159763744Y-104348982D01*
X159462126Y-104280140D01*
X159462110Y-104280138D01*
X159154693Y-104245500D01*
X159154689Y-104245500D01*
X158845311Y-104245500D01*
X158845307Y-104245500D01*
X158537889Y-104280138D01*
X158537873Y-104280140D01*
X158236255Y-104348982D01*
X158236243Y-104348986D01*
X157944234Y-104451165D01*
X157665499Y-104585397D01*
X157403539Y-104749997D01*
X157161656Y-104942892D01*
X156942892Y-105161656D01*
X156749995Y-105403541D01*
X156728993Y-105436966D01*
X156676659Y-105483256D01*
X156607605Y-105493904D01*
X156543757Y-105465529D01*
X156505385Y-105407139D01*
X156500000Y-105370993D01*
X156500000Y-99624000D01*
X156519685Y-99556961D01*
X156572489Y-99511206D01*
X156624000Y-99500000D01*
X169621500Y-99500000D01*
X169688539Y-99519685D01*
G37*
%TD.AperFunction*%
%TD*%
%TA.AperFunction,Conductor*%
%TO.N,+36V*%
G36*
X149443039Y-99519685D02*
G01*
X149488794Y-99572489D01*
X149500000Y-99624000D01*
X149500000Y-103376000D01*
X149480315Y-103443039D01*
X149427511Y-103488794D01*
X149376000Y-103500000D01*
X139624000Y-103500000D01*
X139556961Y-103480315D01*
X139511206Y-103427511D01*
X139500000Y-103376000D01*
X139500000Y-99624000D01*
X139519685Y-99556961D01*
X139572489Y-99511206D01*
X139624000Y-99500000D01*
X149376000Y-99500000D01*
X149443039Y-99519685D01*
G37*
%TD.AperFunction*%
%TD*%
M02*
