%TF.GenerationSoftware,KiCad,Pcbnew,9.0.1*%
%TF.CreationDate,2025-05-07T17:15:19+08:00*%
%TF.ProjectId,CawDrive,43617744-7269-4766-952e-6b696361645f,rev?*%
%TF.SameCoordinates,Original*%
%TF.FileFunction,Copper,L3,Inr*%
%TF.FilePolarity,Positive*%
%FSLAX46Y46*%
G04 Gerber Fmt 4.6, Leading zero omitted, Abs format (unit mm)*
G04 Created by KiCad (PCBNEW 9.0.1) date 2025-05-07 17:15:19*
%MOMM*%
%LPD*%
G01*
G04 APERTURE LIST*
G04 Aperture macros list*
%AMRoundRect*
0 Rectangle with rounded corners*
0 $1 Rounding radius*
0 $2 $3 $4 $5 $6 $7 $8 $9 X,Y pos of 4 corners*
0 Add a 4 corners polygon primitive as box body*
4,1,4,$2,$3,$4,$5,$6,$7,$8,$9,$2,$3,0*
0 Add four circle primitives for the rounded corners*
1,1,$1+$1,$2,$3*
1,1,$1+$1,$4,$5*
1,1,$1+$1,$6,$7*
1,1,$1+$1,$8,$9*
0 Add four rect primitives between the rounded corners*
20,1,$1+$1,$2,$3,$4,$5,0*
20,1,$1+$1,$4,$5,$6,$7,0*
20,1,$1+$1,$6,$7,$8,$9,0*
20,1,$1+$1,$8,$9,$2,$3,0*%
G04 Aperture macros list end*
%TA.AperFunction,ComponentPad*%
%ADD10RoundRect,0.750000X-0.750000X-0.750000X0.750000X-0.750000X0.750000X0.750000X-0.750000X0.750000X0*%
%TD*%
%TA.AperFunction,ComponentPad*%
%ADD11C,0.800000*%
%TD*%
%TA.AperFunction,ComponentPad*%
%ADD12C,5.000000*%
%TD*%
%TA.AperFunction,ViaPad*%
%ADD13C,0.457200*%
%TD*%
%TA.AperFunction,ViaPad*%
%ADD14C,0.609600*%
%TD*%
G04 APERTURE END LIST*
D10*
%TO.N,GND1*%
%TO.C,H8*%
X168000000Y-95000000D03*
%TD*%
D11*
%TO.N,unconnected-(H2-Pad1)_1*%
%TO.C,H2*%
X157125000Y-71000000D03*
%TO.N,unconnected-(H2-Pad1)_5*%
X157674175Y-69674175D03*
%TO.N,unconnected-(H2-Pad1)_8*%
X157674175Y-72325825D03*
%TO.N,unconnected-(H2-Pad1)_2*%
X159000000Y-69125000D03*
D12*
%TO.N,unconnected-(H2-Pad1)*%
X159000000Y-71000000D03*
D11*
%TO.N,unconnected-(H2-Pad1)_4*%
X159000000Y-72875000D03*
%TO.N,unconnected-(H2-Pad1)_7*%
X160325825Y-69674175D03*
%TO.N,unconnected-(H2-Pad1)_6*%
X160325825Y-72325825D03*
%TO.N,unconnected-(H2-Pad1)_3*%
X160875000Y-71000000D03*
%TD*%
D10*
%TO.N,/DRV8323RSRGZR/PHASB*%
%TO.C,H6*%
X141000000Y-108000000D03*
%TD*%
D11*
%TO.N,unconnected-(H4-Pad1)_7*%
%TO.C,H4*%
X121125000Y-107000000D03*
%TO.N,unconnected-(H4-Pad1)_5*%
X121674175Y-105674175D03*
%TO.N,unconnected-(H4-Pad1)_3*%
X121674175Y-108325825D03*
%TO.N,unconnected-(H4-Pad1)*%
X123000000Y-105125000D03*
D12*
%TO.N,unconnected-(H4-Pad1)_4*%
X123000000Y-107000000D03*
D11*
%TO.N,unconnected-(H4-Pad1)_2*%
X123000000Y-108875000D03*
%TO.N,unconnected-(H4-Pad1)_8*%
X124325825Y-105674175D03*
%TO.N,unconnected-(H4-Pad1)_6*%
X124325825Y-108325825D03*
%TO.N,unconnected-(H4-Pad1)_1*%
X124875000Y-107000000D03*
%TD*%
D10*
%TO.N,/DRV8323RSRGZR/PHASC*%
%TO.C,H7*%
X151000000Y-108000000D03*
%TD*%
%TO.N,+36V*%
%TO.C,H9*%
X168000000Y-101000000D03*
%TD*%
D11*
%TO.N,unconnected-(H1-Pad1)_5*%
%TO.C,H1*%
X121125000Y-71000000D03*
%TO.N,unconnected-(H1-Pad1)_4*%
X121674175Y-69674175D03*
%TO.N,unconnected-(H1-Pad1)_8*%
X121674175Y-72325825D03*
%TO.N,unconnected-(H1-Pad1)_6*%
X123000000Y-69125000D03*
D12*
%TO.N,unconnected-(H1-Pad1)*%
X123000000Y-71000000D03*
D11*
%TO.N,unconnected-(H1-Pad1)_1*%
X123000000Y-72875000D03*
%TO.N,unconnected-(H1-Pad1)_7*%
X124325825Y-69674175D03*
%TO.N,unconnected-(H1-Pad1)_2*%
X124325825Y-72325825D03*
%TO.N,unconnected-(H1-Pad1)_3*%
X124875000Y-71000000D03*
%TD*%
%TO.N,unconnected-(H3-Pad1)_4*%
%TO.C,H3*%
X157125000Y-107000000D03*
%TO.N,unconnected-(H3-Pad1)_7*%
X157674175Y-105674175D03*
%TO.N,unconnected-(H3-Pad1)_8*%
X157674175Y-108325825D03*
%TO.N,unconnected-(H3-Pad1)_1*%
X159000000Y-105125000D03*
D12*
%TO.N,unconnected-(H3-Pad1)_2*%
X159000000Y-107000000D03*
D11*
%TO.N,unconnected-(H3-Pad1)_5*%
X159000000Y-108875000D03*
%TO.N,unconnected-(H3-Pad1)_6*%
X160325825Y-105674175D03*
%TO.N,unconnected-(H3-Pad1)*%
X160325825Y-108325825D03*
%TO.N,unconnected-(H3-Pad1)_3*%
X160875000Y-107000000D03*
%TD*%
D10*
%TO.N,/DRV8323RSRGZR/PHASA*%
%TO.C,H5*%
X131000000Y-108000000D03*
%TD*%
D13*
%TO.N,/SPI3_SCK*%
X142012442Y-88602650D03*
%TO.N,/TIM1_CH1*%
X132300000Y-80520000D03*
%TO.N,/TIM1_CH2*%
X130973262Y-82028316D03*
%TO.N,/TIM1_CH3*%
X130191342Y-82684653D03*
X145468669Y-82022713D03*
%TO.N,/TIM1_CH2*%
X144904596Y-81421162D03*
%TO.N,/TIM1_CH1*%
X144380000Y-81020000D03*
%TO.N,/TIM1_CH3N*%
X129850000Y-83250000D03*
X144344814Y-79880720D03*
%TO.N,/TIM1_CH2N*%
X130331400Y-80150180D03*
X144305500Y-79221489D03*
%TO.N,/TIM1_CH1N*%
X132500000Y-78640000D03*
X144238441Y-78564500D03*
%TO.N,GND*%
X133604000Y-75692000D03*
X133604000Y-76962000D03*
X128500000Y-71720000D03*
%TO.N,+3.3V*%
X126021500Y-73130000D03*
%TO.N,+36V*%
X125576500Y-85852000D03*
X129282341Y-89497659D03*
%TO.N,/SWCLK*%
X152860000Y-83274534D03*
%TO.N,/DRV8323RSRGZR/SPB*%
X133847400Y-91123782D03*
%TO.N,/SPI3_MISO*%
X146522501Y-84592280D03*
%TO.N,/SPI3_MOSI*%
X147049164Y-88886882D03*
%TO.N,/SWDIO*%
X162179000Y-81380000D03*
%TO.N,/SWCLK*%
X162179000Y-82540000D03*
%TO.N,/SWDIO*%
X153210000Y-82155688D03*
%TO.N,/DRV8323RSRGZR/SPB*%
X134868000Y-91130000D03*
%TO.N,/MCU_STA*%
X161480000Y-79690000D03*
X152362297Y-80714432D03*
%TO.N,/DRV_STA*%
X161350000Y-82770000D03*
X151600000Y-81250000D03*
%TO.N,/SPI3_MISO*%
X136299609Y-83768813D03*
X146195000Y-88975000D03*
%TO.N,/SPI3_SCK*%
X136431660Y-82683204D03*
X146180000Y-83364500D03*
%TO.N,/SPI3_MOSI*%
X146694998Y-83777906D03*
X136930000Y-83187490D03*
%TO.N,GND1*%
X135603624Y-91631077D03*
%TO.N,Net-(U8-VCAP_1)*%
X146820000Y-74050000D03*
%TO.N,/USART3_TX*%
X163520000Y-78480000D03*
%TO.N,/DRV_SPI_NSS*%
X136030000Y-82080000D03*
%TO.N,GND1*%
X133630000Y-91840000D03*
%TO.N,/DRV_SPI_NSS*%
X147210000Y-83364500D03*
%TO.N,/ADC2_IN9*%
X147701000Y-72771000D03*
X129500000Y-71670000D03*
%TO.N,Net-(U8-VCAP_1)*%
X155448000Y-74168000D03*
%TO.N,/ADC3_IN2*%
X155575000Y-75692000D03*
X140850000Y-85145200D03*
%TO.N,/USART3_TX*%
X153140000Y-80154032D03*
%TO.N,/USART3_RX*%
X152813569Y-79546431D03*
X163490000Y-77540000D03*
%TO.N,/I2C1_SCL*%
X145080000Y-71860000D03*
%TO.N,Net-(U8-PC13)*%
X164810000Y-76103800D03*
%TO.N,/CAN_TX*%
X151760000Y-86420000D03*
X156050000Y-87890000D03*
%TO.N,/ENCODER_CAL_EN*%
X142580000Y-88265000D03*
%TO.N,/ENCODER_SPI_NSS*%
X147967000Y-88748000D03*
%TO.N,/I2C1_SCL*%
X147936652Y-83370594D03*
%TO.N,/I2C1_SDA*%
X146090000Y-71860000D03*
%TO.N,/ENCODER_STA*%
X161428700Y-84678700D03*
%TO.N,Net-(U8-PB2)*%
X158800000Y-74803000D03*
%TO.N,/CAN_STB*%
X158680000Y-87910000D03*
%TO.N,/ADC1_IN0*%
X152509605Y-78940395D03*
%TO.N,/CAN_RX*%
X155886000Y-91694000D03*
%TO.N,Net-(U8-PB2)*%
X146900000Y-74970000D03*
%TO.N,/ADC1_IN0*%
X139419189Y-86302670D03*
%TO.N,Net-(U8-PC13)*%
X156245000Y-85175000D03*
%TO.N,/CAN_RX*%
X150710000Y-86450000D03*
%TO.N,/ENCODER_STA*%
X151120000Y-81784463D03*
%TO.N,/CAN_STB*%
X148980000Y-88780000D03*
%TO.N,/ADC2_IN1*%
X152880000Y-78350000D03*
X138280000Y-86120000D03*
%TO.N,/I2C1_SDA*%
X148720000Y-83390000D03*
%TO.N,GND*%
X139540000Y-71570000D03*
X164000000Y-91690000D03*
%TO.N,+3.3V*%
X137200000Y-84448000D03*
%TO.N,GND*%
X123070000Y-83810000D03*
%TO.N,+5V*%
X127380000Y-76450000D03*
X152450000Y-91660000D03*
%TO.N,GND*%
X134985000Y-74797000D03*
%TO.N,/RESET*%
X158850000Y-79120000D03*
%TO.N,GND*%
X158210000Y-80390000D03*
X158140000Y-79670000D03*
X148630000Y-90519200D03*
X139995789Y-82594211D03*
%TO.N,+3.3V*%
X156556250Y-86893750D03*
%TO.N,GND*%
X150623050Y-90813950D03*
%TO.N,+3.3V*%
X162940000Y-79380000D03*
X139065000Y-75819000D03*
X161510000Y-83570000D03*
%TO.N,GND*%
X158240000Y-78000000D03*
X122650000Y-85880000D03*
X161760000Y-77410000D03*
%TO.N,+3.3V*%
X161550000Y-80837400D03*
X161353750Y-78606250D03*
X139065000Y-77089000D03*
X139900000Y-85145200D03*
X147030000Y-90440000D03*
X154750000Y-75134200D03*
%TO.N,GND*%
X142690000Y-76380000D03*
X153610000Y-75134200D03*
X139446000Y-88773000D03*
X155923750Y-83383750D03*
%TO.N,+3.3V*%
X158421234Y-76318206D03*
%TO.N,GND*%
X121793000Y-90207000D03*
%TO.N,+3.3V*%
X139065000Y-76454000D03*
X140020000Y-88000000D03*
X161485711Y-75961025D03*
%TO.N,GND*%
X156060000Y-89170000D03*
X158530000Y-75560000D03*
X122310000Y-86480000D03*
X134010000Y-71620000D03*
%TO.N,+3.3V*%
X153180000Y-89910000D03*
X143830000Y-76350000D03*
X162020000Y-90950000D03*
X141580000Y-89160000D03*
X142420000Y-87580000D03*
X166180000Y-79510000D03*
X140580000Y-71670000D03*
%TO.N,+5V*%
X123410000Y-89150000D03*
X130302000Y-76708000D03*
X135080000Y-71680000D03*
%TO.N,/RESET*%
X152260000Y-82700000D03*
%TO.N,GND*%
X162940000Y-84580000D03*
X166130000Y-80480000D03*
X130305000Y-75637000D03*
X128100000Y-79700000D03*
X165670000Y-91810000D03*
X157670000Y-86910000D03*
X139446000Y-89408000D03*
X141270000Y-87570000D03*
X161544000Y-74803000D03*
X133595000Y-76327000D03*
X123300000Y-90020000D03*
X158369000Y-74168000D03*
X148840000Y-73200000D03*
D14*
X134620000Y-87376000D03*
X133604000Y-86233000D03*
X134620000Y-85344000D03*
X133604000Y-88392000D03*
X130810000Y-87376000D03*
X131699000Y-86360000D03*
X131826000Y-88392000D03*
X131953000Y-84328000D03*
X132842000Y-85344000D03*
X132715000Y-87376000D03*
X130810000Y-85344000D03*
X133731000Y-84455000D03*
%TO.N,+36V*%
X147955000Y-103124000D03*
X126365000Y-101346000D03*
X122555000Y-99441000D03*
X139827000Y-102235000D03*
X147955000Y-100330000D03*
X143637000Y-100330000D03*
X142367000Y-103124000D03*
X149225000Y-102235000D03*
X122555000Y-98425000D03*
X146685000Y-103124000D03*
X123825000Y-101346000D03*
X141097000Y-101219000D03*
X157861000Y-99949000D03*
X123825000Y-100457000D03*
X146685000Y-101219000D03*
X126365000Y-98425000D03*
X157099000Y-102235000D03*
X122555000Y-101346000D03*
X125095000Y-99441000D03*
X145415000Y-102235000D03*
X125095000Y-101346000D03*
X146685000Y-102235000D03*
X123825000Y-98425000D03*
X125095000Y-100457000D03*
X157861000Y-100711000D03*
X142367000Y-102235000D03*
X149225000Y-103124000D03*
X142367000Y-101219000D03*
X143637000Y-103124000D03*
X145415000Y-100330000D03*
X141097000Y-100330000D03*
X126365000Y-100457000D03*
X141097000Y-103124000D03*
X143637000Y-101219000D03*
X126365000Y-99441000D03*
X145415000Y-103124000D03*
X139827000Y-101219000D03*
X149225000Y-100330000D03*
X157099000Y-100711000D03*
X122555000Y-100457000D03*
X139827000Y-103124000D03*
X149225000Y-101219000D03*
X139827000Y-100330000D03*
X142367000Y-100330000D03*
X147955000Y-101219000D03*
X123825000Y-99441000D03*
X141097000Y-102235000D03*
X157861000Y-102235000D03*
X147955000Y-102235000D03*
X146685000Y-100330000D03*
X157099000Y-99949000D03*
X125095000Y-98425000D03*
X157861000Y-103505000D03*
X145415000Y-101219000D03*
X157099000Y-103505000D03*
X143637000Y-102235000D03*
%TO.N,/DRV8323RSRGZR/PHASA*%
X128524000Y-104267000D03*
X129794000Y-104267000D03*
X122555000Y-102743000D03*
X128524000Y-103632000D03*
X132334000Y-103632000D03*
X123825000Y-102743000D03*
X125095000Y-102743000D03*
X132334000Y-104267000D03*
X131064000Y-104267000D03*
X129794000Y-103632000D03*
X125095000Y-103505000D03*
X123825000Y-103505000D03*
X122555000Y-103505000D03*
X131064000Y-103632000D03*
%TO.N,/DRV8323RSRGZR/PHASB*%
X135509000Y-104267000D03*
X139845000Y-104648000D03*
X134239000Y-104267000D03*
X134239000Y-103632000D03*
X135509000Y-103632000D03*
X141097000Y-104648000D03*
X141097000Y-105537000D03*
X136779000Y-104267000D03*
X142367000Y-105537000D03*
X138049000Y-103632000D03*
X142367000Y-104648000D03*
X139827000Y-105537000D03*
X138049000Y-104267000D03*
X136779000Y-103632000D03*
%TO.N,/DRV8323RSRGZR/PHASC*%
X146685000Y-105537000D03*
X152527000Y-104267000D03*
X145415000Y-104648000D03*
X147955000Y-105537000D03*
X145415000Y-105537000D03*
X151257000Y-104267000D03*
X153797000Y-104267000D03*
X147955000Y-104648000D03*
X155067000Y-104267000D03*
X146685000Y-104648000D03*
%TO.N,/DRV8323RSRGZR/SPA*%
X131699000Y-97917000D03*
X129540000Y-97917000D03*
X132588000Y-97917000D03*
X130429000Y-97917000D03*
%TO.N,/DRV8323RSRGZR/SPB*%
X135382000Y-98044000D03*
X138303000Y-98044000D03*
X136271000Y-98044000D03*
X137414000Y-98044000D03*
%TO.N,GND1*%
X142240000Y-94869000D03*
X121666000Y-93853000D03*
X147701000Y-93980000D03*
X139700000Y-93980000D03*
X130048000Y-94742000D03*
X124079000Y-93853000D03*
X130048000Y-94107000D03*
X120777000Y-93853000D03*
X147701000Y-94869000D03*
X143637000Y-93980000D03*
X137922000Y-94107000D03*
X155194000Y-98044000D03*
X152527000Y-97155000D03*
X126365000Y-93853000D03*
X132080000Y-94742000D03*
X149098000Y-93980000D03*
X146431000Y-93980000D03*
X153797000Y-97155000D03*
X142240000Y-93980000D03*
X145161000Y-93980000D03*
X132080000Y-94107000D03*
X160147000Y-95377000D03*
X160147000Y-96774000D03*
X160909000Y-94107000D03*
X160147000Y-98044000D03*
X155194000Y-97155000D03*
X123317000Y-93853000D03*
X153797000Y-98044000D03*
X141224000Y-93980000D03*
X146431000Y-94869000D03*
X149098000Y-94869000D03*
X137922000Y-94742000D03*
X160147000Y-94107000D03*
X141097000Y-94869000D03*
X125603000Y-93853000D03*
X152527000Y-98044000D03*
X160909000Y-95377000D03*
X139700000Y-94869000D03*
X160909000Y-96774000D03*
X135890000Y-94107000D03*
X135890000Y-94742000D03*
X143637000Y-94869000D03*
X160909000Y-98044000D03*
X145161000Y-94869000D03*
%TD*%
%TA.AperFunction,Conductor*%
%TO.N,+5V*%
G36*
X133518047Y-71269685D02*
G01*
X133563802Y-71322489D01*
X133573746Y-71391647D01*
X133561987Y-71425624D01*
X133562934Y-71426016D01*
X133559823Y-71433526D01*
X133526900Y-71556399D01*
X133526900Y-71683600D01*
X133559822Y-71806471D01*
X133588690Y-71856470D01*
X133623424Y-71916631D01*
X133713369Y-72006576D01*
X133823530Y-72070178D01*
X133946399Y-72103100D01*
X133946401Y-72103100D01*
X134073599Y-72103100D01*
X134073601Y-72103100D01*
X134196470Y-72070178D01*
X134306631Y-72006576D01*
X134396576Y-71916631D01*
X134460178Y-71806470D01*
X134493100Y-71683601D01*
X134493100Y-71556399D01*
X134460178Y-71433530D01*
X134460176Y-71433526D01*
X134457066Y-71426016D01*
X134458987Y-71425219D01*
X134445133Y-71368093D01*
X134467989Y-71302067D01*
X134522912Y-71258880D01*
X134568992Y-71250000D01*
X136376000Y-71250000D01*
X136443039Y-71269685D01*
X136488794Y-71322489D01*
X136500000Y-71374000D01*
X136500000Y-81578744D01*
X136480315Y-81645783D01*
X136427511Y-81691538D01*
X136358353Y-81701482D01*
X136314000Y-81686131D01*
X136216473Y-81629823D01*
X136216470Y-81629822D01*
X136093601Y-81596900D01*
X135966399Y-81596900D01*
X135843528Y-81629822D01*
X135733369Y-81693424D01*
X135733366Y-81693426D01*
X135643426Y-81783366D01*
X135643424Y-81783369D01*
X135579822Y-81893528D01*
X135546900Y-82016399D01*
X135546900Y-82143600D01*
X135579822Y-82266471D01*
X135606931Y-82313424D01*
X135643424Y-82376631D01*
X135733369Y-82466576D01*
X135843530Y-82530178D01*
X135856650Y-82533693D01*
X135916310Y-82570054D01*
X135946842Y-82632900D01*
X135948560Y-82653468D01*
X135948560Y-82746805D01*
X135954629Y-82769455D01*
X135981482Y-82869675D01*
X136007260Y-82914322D01*
X136045084Y-82979835D01*
X136135029Y-83069780D01*
X136163234Y-83086064D01*
X136211449Y-83136632D01*
X136224671Y-83205239D01*
X136198703Y-83270104D01*
X136141788Y-83310631D01*
X136133341Y-83313221D01*
X136113139Y-83318635D01*
X136113138Y-83318635D01*
X136113136Y-83318636D01*
X136002978Y-83382237D01*
X136002975Y-83382239D01*
X135913035Y-83472179D01*
X135913033Y-83472182D01*
X135849431Y-83582341D01*
X135828326Y-83661110D01*
X135816509Y-83705212D01*
X135816509Y-83832414D01*
X135820578Y-83847600D01*
X135849431Y-83955284D01*
X135873991Y-83997822D01*
X135913033Y-84065444D01*
X136002978Y-84155389D01*
X136113139Y-84218991D01*
X136236008Y-84251913D01*
X136236010Y-84251913D01*
X136371337Y-84251913D01*
X136371337Y-84254156D01*
X136428848Y-84263124D01*
X136481104Y-84309503D01*
X136500000Y-84375299D01*
X136500000Y-88750000D01*
X139000000Y-91250000D01*
X150378883Y-91250000D01*
X150428160Y-91263203D01*
X150429066Y-91261016D01*
X150436576Y-91264126D01*
X150436577Y-91264126D01*
X150436580Y-91264128D01*
X150559449Y-91297050D01*
X150559451Y-91297050D01*
X150686649Y-91297050D01*
X150686651Y-91297050D01*
X150809520Y-91264128D01*
X150809524Y-91264125D01*
X150817034Y-91261016D01*
X150817939Y-91263203D01*
X150867217Y-91250000D01*
X153876000Y-91250000D01*
X153943039Y-91269685D01*
X153988794Y-91322489D01*
X154000000Y-91374000D01*
X154000000Y-92376000D01*
X153980315Y-92443039D01*
X153927511Y-92488794D01*
X153876000Y-92500000D01*
X133915822Y-92500000D01*
X133848783Y-92480315D01*
X133803028Y-92427511D01*
X133793084Y-92358353D01*
X133822109Y-92294797D01*
X133853821Y-92268613D01*
X133926631Y-92226576D01*
X134016576Y-92136631D01*
X134080178Y-92026470D01*
X134113100Y-91903601D01*
X134113100Y-91776399D01*
X134080178Y-91653530D01*
X134080177Y-91653528D01*
X134080135Y-91653371D01*
X134081798Y-91583521D01*
X134110050Y-91535831D01*
X134122392Y-91522850D01*
X134144031Y-91510358D01*
X134233976Y-91420413D01*
X134255889Y-91382458D01*
X134266044Y-91371779D01*
X134284034Y-91361359D01*
X134299082Y-91347011D01*
X134313660Y-91344200D01*
X134326505Y-91336762D01*
X134347271Y-91337722D01*
X134367689Y-91333787D01*
X134381470Y-91339304D01*
X134396300Y-91339990D01*
X134413252Y-91352027D01*
X134432554Y-91359754D01*
X134446020Y-91375294D01*
X134453269Y-91380441D01*
X134455681Y-91386442D01*
X134463290Y-91395223D01*
X134481424Y-91426631D01*
X134571369Y-91516576D01*
X134681530Y-91580178D01*
X134804399Y-91613100D01*
X134804401Y-91613100D01*
X134931599Y-91613100D01*
X134931601Y-91613100D01*
X134967701Y-91603427D01*
X135037550Y-91605090D01*
X135095412Y-91644253D01*
X135119568Y-91691109D01*
X135153446Y-91817548D01*
X135185247Y-91872627D01*
X135217048Y-91927708D01*
X135306993Y-92017653D01*
X135417154Y-92081255D01*
X135540023Y-92114177D01*
X135540025Y-92114177D01*
X135667223Y-92114177D01*
X135667225Y-92114177D01*
X135790094Y-92081255D01*
X135900255Y-92017653D01*
X135990200Y-91927708D01*
X136053802Y-91817547D01*
X136086724Y-91694678D01*
X136086724Y-91567476D01*
X136053802Y-91444607D01*
X136050058Y-91438123D01*
X136016755Y-91380441D01*
X135990200Y-91334446D01*
X135900255Y-91244501D01*
X135824089Y-91200526D01*
X135790095Y-91180899D01*
X135728659Y-91164438D01*
X135667225Y-91147977D01*
X135540023Y-91147977D01*
X135503920Y-91157650D01*
X135434070Y-91155985D01*
X135376209Y-91116821D01*
X135352055Y-91069966D01*
X135351100Y-91066401D01*
X135351100Y-91066399D01*
X135318178Y-90943530D01*
X135254576Y-90833369D01*
X135164631Y-90743424D01*
X135099240Y-90705670D01*
X135054471Y-90679822D01*
X134993035Y-90663361D01*
X134931601Y-90646900D01*
X134804399Y-90646900D01*
X134681528Y-90679822D01*
X134571369Y-90743424D01*
X134571366Y-90743426D01*
X134481426Y-90833366D01*
X134481421Y-90833372D01*
X134466881Y-90858557D01*
X134416313Y-90906772D01*
X134347706Y-90919993D01*
X134282841Y-90894024D01*
X134252109Y-90858557D01*
X134244016Y-90844542D01*
X134233976Y-90827151D01*
X134144031Y-90737206D01*
X134088950Y-90705405D01*
X134033871Y-90673604D01*
X133934207Y-90646900D01*
X133911001Y-90640682D01*
X133783799Y-90640682D01*
X133660928Y-90673604D01*
X133550769Y-90737206D01*
X133550766Y-90737208D01*
X133460826Y-90827148D01*
X133460824Y-90827151D01*
X133397222Y-90937310D01*
X133364300Y-91060181D01*
X133364300Y-91187384D01*
X133397264Y-91310411D01*
X133395601Y-91380260D01*
X133356438Y-91438123D01*
X133339493Y-91449888D01*
X133333372Y-91453421D01*
X133333366Y-91453426D01*
X133243426Y-91543366D01*
X133243424Y-91543369D01*
X133179822Y-91653528D01*
X133146900Y-91776399D01*
X133146900Y-91903600D01*
X133179822Y-92026471D01*
X133211452Y-92081254D01*
X133243424Y-92136631D01*
X133333369Y-92226576D01*
X133406179Y-92268613D01*
X133454394Y-92319181D01*
X133467616Y-92387788D01*
X133441648Y-92452652D01*
X133384734Y-92493180D01*
X133344178Y-92500000D01*
X126874000Y-92500000D01*
X126806961Y-92480315D01*
X126761206Y-92427511D01*
X126750000Y-92376000D01*
X126750000Y-89434058D01*
X128799241Y-89434058D01*
X128799241Y-89561260D01*
X128812348Y-89610178D01*
X128832163Y-89684130D01*
X128844000Y-89704631D01*
X128895765Y-89794290D01*
X128985710Y-89884235D01*
X129095871Y-89947837D01*
X129218740Y-89980759D01*
X129218742Y-89980759D01*
X129345940Y-89980759D01*
X129345942Y-89980759D01*
X129468811Y-89947837D01*
X129578972Y-89884235D01*
X129668917Y-89794290D01*
X129732519Y-89684129D01*
X129765441Y-89561260D01*
X129765441Y-89434058D01*
X129732519Y-89311189D01*
X129668917Y-89201028D01*
X129578972Y-89111083D01*
X129507176Y-89069631D01*
X129468812Y-89047481D01*
X129407376Y-89031020D01*
X129345942Y-89014559D01*
X129218740Y-89014559D01*
X129095869Y-89047481D01*
X128985710Y-89111083D01*
X128985707Y-89111085D01*
X128895767Y-89201025D01*
X128895765Y-89201028D01*
X128832163Y-89311187D01*
X128801620Y-89425178D01*
X128799241Y-89434058D01*
X126750000Y-89434058D01*
X126750000Y-88318367D01*
X131266700Y-88318367D01*
X131266700Y-88465633D01*
X131304816Y-88607882D01*
X131304817Y-88607885D01*
X131345512Y-88678369D01*
X131378449Y-88735418D01*
X131482582Y-88839551D01*
X131572226Y-88891307D01*
X131610114Y-88913182D01*
X131610115Y-88913182D01*
X131610118Y-88913184D01*
X131752367Y-88951300D01*
X131752370Y-88951300D01*
X131899630Y-88951300D01*
X131899633Y-88951300D01*
X132041882Y-88913184D01*
X132169418Y-88839551D01*
X132273551Y-88735418D01*
X132347184Y-88607882D01*
X132385300Y-88465633D01*
X132385300Y-88318367D01*
X133044700Y-88318367D01*
X133044700Y-88465633D01*
X133082816Y-88607882D01*
X133082817Y-88607885D01*
X133123512Y-88678369D01*
X133156449Y-88735418D01*
X133260582Y-88839551D01*
X133350226Y-88891307D01*
X133388114Y-88913182D01*
X133388115Y-88913182D01*
X133388118Y-88913184D01*
X133530367Y-88951300D01*
X133530370Y-88951300D01*
X133677630Y-88951300D01*
X133677633Y-88951300D01*
X133819882Y-88913184D01*
X133947418Y-88839551D01*
X134051551Y-88735418D01*
X134125184Y-88607882D01*
X134163300Y-88465633D01*
X134163300Y-88318367D01*
X134125184Y-88176118D01*
X134051551Y-88048582D01*
X133947418Y-87944449D01*
X133865553Y-87897184D01*
X133819885Y-87870817D01*
X133819886Y-87870817D01*
X133808220Y-87867691D01*
X133677633Y-87832700D01*
X133530367Y-87832700D01*
X133399779Y-87867691D01*
X133388114Y-87870817D01*
X133321539Y-87909253D01*
X133321529Y-87909260D01*
X133260582Y-87944449D01*
X133156449Y-88048582D01*
X133155882Y-88049562D01*
X133155880Y-88049565D01*
X133082817Y-88176114D01*
X133082816Y-88176118D01*
X133044700Y-88318367D01*
X132385300Y-88318367D01*
X132347184Y-88176118D01*
X132320700Y-88130246D01*
X132274120Y-88049567D01*
X132274119Y-88049566D01*
X132273551Y-88048582D01*
X132169418Y-87944449D01*
X132108460Y-87909255D01*
X132108458Y-87909253D01*
X132041885Y-87870817D01*
X132041886Y-87870817D01*
X132030220Y-87867691D01*
X131899633Y-87832700D01*
X131752367Y-87832700D01*
X131621779Y-87867691D01*
X131610114Y-87870817D01*
X131482585Y-87944447D01*
X131482579Y-87944451D01*
X131378451Y-88048579D01*
X131378447Y-88048585D01*
X131304817Y-88176114D01*
X131304816Y-88176118D01*
X131266700Y-88318367D01*
X126750000Y-88318367D01*
X126750000Y-87302367D01*
X130250700Y-87302367D01*
X130250700Y-87449633D01*
X130277546Y-87549822D01*
X130288817Y-87591885D01*
X130301253Y-87613424D01*
X130362449Y-87719418D01*
X130466582Y-87823551D01*
X130541199Y-87866631D01*
X130594114Y-87897182D01*
X130594115Y-87897182D01*
X130594118Y-87897184D01*
X130736367Y-87935300D01*
X130736370Y-87935300D01*
X130883630Y-87935300D01*
X130883633Y-87935300D01*
X131025882Y-87897184D01*
X131153418Y-87823551D01*
X131257551Y-87719418D01*
X131331184Y-87591882D01*
X131369300Y-87449633D01*
X131369300Y-87302367D01*
X132155700Y-87302367D01*
X132155700Y-87449633D01*
X132182546Y-87549822D01*
X132193817Y-87591885D01*
X132266879Y-87718432D01*
X132266880Y-87718433D01*
X132267449Y-87719418D01*
X132371582Y-87823551D01*
X132499118Y-87897184D01*
X132641367Y-87935300D01*
X132641370Y-87935300D01*
X132788630Y-87935300D01*
X132788633Y-87935300D01*
X132930882Y-87897184D01*
X132930884Y-87897182D01*
X132930886Y-87897182D01*
X132930887Y-87897181D01*
X133058418Y-87823551D01*
X133162551Y-87719418D01*
X133236184Y-87591882D01*
X133274300Y-87449633D01*
X133274300Y-87302367D01*
X134060700Y-87302367D01*
X134060700Y-87449633D01*
X134087546Y-87549822D01*
X134098817Y-87591885D01*
X134111253Y-87613424D01*
X134172449Y-87719418D01*
X134276582Y-87823551D01*
X134351199Y-87866631D01*
X134404114Y-87897182D01*
X134404115Y-87897182D01*
X134404118Y-87897184D01*
X134546367Y-87935300D01*
X134546370Y-87935300D01*
X134693630Y-87935300D01*
X134693633Y-87935300D01*
X134835882Y-87897184D01*
X134963418Y-87823551D01*
X135067551Y-87719418D01*
X135141184Y-87591882D01*
X135179300Y-87449633D01*
X135179300Y-87302367D01*
X135141184Y-87160118D01*
X135067551Y-87032582D01*
X134963418Y-86928449D01*
X134881553Y-86881184D01*
X134835885Y-86854817D01*
X134835886Y-86854817D01*
X134824220Y-86851691D01*
X134693633Y-86816700D01*
X134546367Y-86816700D01*
X134415779Y-86851691D01*
X134404114Y-86854817D01*
X134276585Y-86928447D01*
X134276579Y-86928451D01*
X134172451Y-87032579D01*
X134172447Y-87032585D01*
X134098817Y-87160114D01*
X134098816Y-87160118D01*
X134060700Y-87302367D01*
X133274300Y-87302367D01*
X133236184Y-87160118D01*
X133162551Y-87032582D01*
X133058418Y-86928449D01*
X132976553Y-86881184D01*
X132930885Y-86854817D01*
X132930886Y-86854817D01*
X132919220Y-86851691D01*
X132788633Y-86816700D01*
X132641367Y-86816700D01*
X132510779Y-86851691D01*
X132499114Y-86854817D01*
X132371585Y-86928447D01*
X132371579Y-86928451D01*
X132267451Y-87032579D01*
X132267447Y-87032585D01*
X132193817Y-87160114D01*
X132193816Y-87160118D01*
X132155700Y-87302367D01*
X131369300Y-87302367D01*
X131331184Y-87160118D01*
X131257551Y-87032582D01*
X131153418Y-86928449D01*
X131092460Y-86893255D01*
X131092458Y-86893253D01*
X131025885Y-86854817D01*
X131025886Y-86854817D01*
X131014220Y-86851691D01*
X130883633Y-86816700D01*
X130736367Y-86816700D01*
X130605779Y-86851691D01*
X130594114Y-86854817D01*
X130466585Y-86928447D01*
X130466579Y-86928451D01*
X130362451Y-87032579D01*
X130362447Y-87032585D01*
X130288817Y-87160114D01*
X130288816Y-87160118D01*
X130250700Y-87302367D01*
X126750000Y-87302367D01*
X126750000Y-86286367D01*
X131139700Y-86286367D01*
X131139700Y-86433633D01*
X131161128Y-86513601D01*
X131177817Y-86575885D01*
X131250879Y-86702432D01*
X131250880Y-86702433D01*
X131251449Y-86703418D01*
X131355582Y-86807551D01*
X131483118Y-86881184D01*
X131625367Y-86919300D01*
X131625370Y-86919300D01*
X131772630Y-86919300D01*
X131772633Y-86919300D01*
X131914882Y-86881184D01*
X132042418Y-86807551D01*
X132146551Y-86703418D01*
X132220184Y-86575882D01*
X132258300Y-86433633D01*
X132258300Y-86286367D01*
X132220184Y-86144118D01*
X132146551Y-86016582D01*
X132042418Y-85912449D01*
X131960553Y-85865184D01*
X131914885Y-85838817D01*
X131914886Y-85838817D01*
X131903220Y-85835691D01*
X131772633Y-85800700D01*
X131625367Y-85800700D01*
X131494779Y-85835691D01*
X131483114Y-85838817D01*
X131416539Y-85877253D01*
X131416529Y-85877260D01*
X131355582Y-85912449D01*
X131251449Y-86016582D01*
X131250882Y-86017562D01*
X131250880Y-86017565D01*
X131177817Y-86144114D01*
X131177816Y-86144118D01*
X131139700Y-86286367D01*
X126750000Y-86286367D01*
X126750000Y-85270367D01*
X130250700Y-85270367D01*
X130250700Y-85417633D01*
X130281285Y-85531776D01*
X130288817Y-85559885D01*
X130327254Y-85626458D01*
X130362449Y-85687418D01*
X130466582Y-85791551D01*
X130548447Y-85838816D01*
X130594114Y-85865182D01*
X130594115Y-85865182D01*
X130594118Y-85865184D01*
X130736367Y-85903300D01*
X130736370Y-85903300D01*
X130883630Y-85903300D01*
X130883633Y-85903300D01*
X131025882Y-85865184D01*
X131025884Y-85865182D01*
X131025886Y-85865182D01*
X131025887Y-85865181D01*
X131153418Y-85791551D01*
X131257551Y-85687418D01*
X131331184Y-85559882D01*
X131369300Y-85417633D01*
X131369300Y-85270367D01*
X132282700Y-85270367D01*
X132282700Y-85417633D01*
X132313285Y-85531776D01*
X132320817Y-85559885D01*
X132359254Y-85626458D01*
X132394449Y-85687418D01*
X132498582Y-85791551D01*
X132580447Y-85838816D01*
X132626114Y-85865182D01*
X132626115Y-85865182D01*
X132626118Y-85865184D01*
X132768367Y-85903300D01*
X132768370Y-85903300D01*
X132915629Y-85903300D01*
X132915633Y-85903300D01*
X132921144Y-85901823D01*
X132990990Y-85903482D01*
X133048855Y-85942641D01*
X133076363Y-86006867D01*
X133073016Y-86053689D01*
X133054346Y-86123369D01*
X133044700Y-86159367D01*
X133044700Y-86306633D01*
X133078729Y-86433630D01*
X133082817Y-86448885D01*
X133134572Y-86538526D01*
X133156449Y-86576418D01*
X133260582Y-86680551D01*
X133350226Y-86732307D01*
X133388114Y-86754182D01*
X133388115Y-86754182D01*
X133388118Y-86754184D01*
X133530367Y-86792300D01*
X133530370Y-86792300D01*
X133677630Y-86792300D01*
X133677633Y-86792300D01*
X133819882Y-86754184D01*
X133947418Y-86680551D01*
X134051551Y-86576418D01*
X134125184Y-86448882D01*
X134163300Y-86306633D01*
X134163300Y-86159367D01*
X134125184Y-86017118D01*
X134051551Y-85889582D01*
X133947418Y-85785449D01*
X133946433Y-85784880D01*
X133946432Y-85784879D01*
X133819885Y-85711817D01*
X133819886Y-85711817D01*
X133808220Y-85708691D01*
X133677633Y-85673700D01*
X133530367Y-85673700D01*
X133524847Y-85675178D01*
X133454998Y-85673514D01*
X133397137Y-85634350D01*
X133369635Y-85570121D01*
X133372982Y-85523313D01*
X133401300Y-85417633D01*
X133401300Y-85270367D01*
X133363184Y-85128118D01*
X133363182Y-85128114D01*
X133363159Y-85128028D01*
X133364822Y-85058178D01*
X133403984Y-85000316D01*
X133468212Y-84972811D01*
X133515028Y-84976159D01*
X133515115Y-84976182D01*
X133515118Y-84976184D01*
X133657367Y-85014300D01*
X133657370Y-85014300D01*
X133804630Y-85014300D01*
X133804633Y-85014300D01*
X133946882Y-84976184D01*
X133946885Y-84976181D01*
X133946971Y-84976159D01*
X134016821Y-84977822D01*
X134074683Y-85016984D01*
X134102188Y-85081212D01*
X134098840Y-85128027D01*
X134060700Y-85270367D01*
X134060700Y-85417633D01*
X134091285Y-85531776D01*
X134098817Y-85559885D01*
X134137253Y-85626458D01*
X134137255Y-85626460D01*
X134172449Y-85687418D01*
X134276582Y-85791551D01*
X134277566Y-85792119D01*
X134277567Y-85792120D01*
X134404114Y-85865182D01*
X134404115Y-85865182D01*
X134404118Y-85865184D01*
X134546367Y-85903300D01*
X134546370Y-85903300D01*
X134693630Y-85903300D01*
X134693633Y-85903300D01*
X134835882Y-85865184D01*
X134963418Y-85791551D01*
X135067551Y-85687418D01*
X135141184Y-85559882D01*
X135179300Y-85417633D01*
X135179300Y-85270367D01*
X135141184Y-85128118D01*
X135141131Y-85128027D01*
X135091728Y-85042458D01*
X135067551Y-85000582D01*
X134963418Y-84896449D01*
X134881553Y-84849184D01*
X134835885Y-84822817D01*
X134835886Y-84822817D01*
X134824220Y-84819691D01*
X134693633Y-84784700D01*
X134546367Y-84784700D01*
X134404027Y-84822840D01*
X134334177Y-84821177D01*
X134276315Y-84782014D01*
X134248811Y-84717786D01*
X134252159Y-84670971D01*
X134252181Y-84670885D01*
X134252184Y-84670882D01*
X134290300Y-84528633D01*
X134290300Y-84381367D01*
X134252184Y-84239118D01*
X134178551Y-84111582D01*
X134074418Y-84007449D01*
X134034806Y-83984579D01*
X133946885Y-83933817D01*
X133946886Y-83933817D01*
X133935220Y-83930691D01*
X133804633Y-83895700D01*
X133657367Y-83895700D01*
X133526779Y-83930691D01*
X133515114Y-83933817D01*
X133387585Y-84007447D01*
X133387579Y-84007451D01*
X133283451Y-84111579D01*
X133283447Y-84111585D01*
X133209817Y-84239114D01*
X133209816Y-84239118D01*
X133171700Y-84381367D01*
X133171700Y-84528633D01*
X133207463Y-84662100D01*
X133209840Y-84670971D01*
X133208177Y-84740821D01*
X133169015Y-84798684D01*
X133104786Y-84826188D01*
X133057971Y-84822840D01*
X133057882Y-84822816D01*
X132915633Y-84784700D01*
X132768367Y-84784700D01*
X132637779Y-84819691D01*
X132626114Y-84822817D01*
X132559539Y-84861253D01*
X132559529Y-84861260D01*
X132498582Y-84896449D01*
X132394449Y-85000582D01*
X132393882Y-85001562D01*
X132393880Y-85001565D01*
X132320817Y-85128114D01*
X132320816Y-85128118D01*
X132282700Y-85270367D01*
X131369300Y-85270367D01*
X131331184Y-85128118D01*
X131331131Y-85128027D01*
X131281728Y-85042458D01*
X131257551Y-85000582D01*
X131153418Y-84896449D01*
X131071553Y-84849184D01*
X131025885Y-84822817D01*
X131025886Y-84822817D01*
X131014220Y-84819691D01*
X130883633Y-84784700D01*
X130736367Y-84784700D01*
X130605779Y-84819691D01*
X130594114Y-84822817D01*
X130466585Y-84896447D01*
X130466579Y-84896451D01*
X130362451Y-85000579D01*
X130362447Y-85000585D01*
X130288817Y-85128114D01*
X130288816Y-85128118D01*
X130250700Y-85270367D01*
X126750000Y-85270367D01*
X126750000Y-84254367D01*
X131393700Y-84254367D01*
X131393700Y-84401633D01*
X131431816Y-84543882D01*
X131431817Y-84543885D01*
X131483572Y-84633526D01*
X131505449Y-84671418D01*
X131609582Y-84775551D01*
X131691447Y-84822816D01*
X131737114Y-84849182D01*
X131737115Y-84849182D01*
X131737118Y-84849184D01*
X131879367Y-84887300D01*
X131879370Y-84887300D01*
X132026630Y-84887300D01*
X132026633Y-84887300D01*
X132168882Y-84849184D01*
X132168884Y-84849182D01*
X132168886Y-84849182D01*
X132168887Y-84849181D01*
X132169947Y-84848569D01*
X132296418Y-84775551D01*
X132400551Y-84671418D01*
X132474184Y-84543882D01*
X132512300Y-84401633D01*
X132512300Y-84254367D01*
X132474184Y-84112118D01*
X132473876Y-84111585D01*
X132413752Y-84007447D01*
X132400551Y-83984582D01*
X132296418Y-83880449D01*
X132226667Y-83840178D01*
X132168885Y-83806817D01*
X132168886Y-83806817D01*
X132157220Y-83803691D01*
X132026633Y-83768700D01*
X131879367Y-83768700D01*
X131748779Y-83803691D01*
X131737114Y-83806817D01*
X131609585Y-83880447D01*
X131609579Y-83880451D01*
X131505451Y-83984579D01*
X131505447Y-83984585D01*
X131431817Y-84112114D01*
X131431816Y-84112118D01*
X131393700Y-84254367D01*
X126750000Y-84254367D01*
X126750000Y-83186399D01*
X129366900Y-83186399D01*
X129366900Y-83313600D01*
X129399822Y-83436471D01*
X129431623Y-83491550D01*
X129463424Y-83546631D01*
X129553369Y-83636576D01*
X129663530Y-83700178D01*
X129786399Y-83733100D01*
X129786401Y-83733100D01*
X129913599Y-83733100D01*
X129913601Y-83733100D01*
X130036470Y-83700178D01*
X130146631Y-83636576D01*
X130236576Y-83546631D01*
X130300178Y-83436470D01*
X130333100Y-83313601D01*
X130333100Y-83232237D01*
X130352785Y-83165198D01*
X130395099Y-83124850D01*
X130487973Y-83071229D01*
X130577918Y-82981284D01*
X130641520Y-82871123D01*
X130674442Y-82748254D01*
X130674442Y-82621052D01*
X130674442Y-82612925D01*
X130677153Y-82612925D01*
X130685863Y-82557040D01*
X130732239Y-82504781D01*
X130799507Y-82485890D01*
X130830123Y-82490104D01*
X130909661Y-82511416D01*
X130909664Y-82511416D01*
X131036861Y-82511416D01*
X131036863Y-82511416D01*
X131159732Y-82478494D01*
X131269893Y-82414892D01*
X131359838Y-82324947D01*
X131423440Y-82214786D01*
X131456362Y-82091917D01*
X131456362Y-81964715D01*
X131423440Y-81841846D01*
X131359838Y-81731685D01*
X131269893Y-81641740D01*
X131194122Y-81597993D01*
X131159733Y-81578138D01*
X131098297Y-81561677D01*
X131036863Y-81545216D01*
X130909661Y-81545216D01*
X130786790Y-81578138D01*
X130676631Y-81641740D01*
X130676628Y-81641742D01*
X130586688Y-81731682D01*
X130586686Y-81731685D01*
X130523084Y-81841844D01*
X130490162Y-81964715D01*
X130490162Y-82100044D01*
X130487456Y-82100044D01*
X130478725Y-82155959D01*
X130432334Y-82208206D01*
X130365062Y-82227078D01*
X130334472Y-82222862D01*
X130254943Y-82201553D01*
X130127741Y-82201553D01*
X130004870Y-82234475D01*
X129894711Y-82298077D01*
X129894708Y-82298079D01*
X129804768Y-82388019D01*
X129804766Y-82388022D01*
X129741164Y-82498181D01*
X129708242Y-82621052D01*
X129708242Y-82702416D01*
X129688557Y-82769455D01*
X129646243Y-82809802D01*
X129553369Y-82863424D01*
X129553366Y-82863426D01*
X129463426Y-82953366D01*
X129463424Y-82953369D01*
X129399822Y-83063528D01*
X129366900Y-83186399D01*
X126750000Y-83186399D01*
X126750000Y-79636399D01*
X127616900Y-79636399D01*
X127616900Y-79763601D01*
X127617933Y-79767456D01*
X127649822Y-79886471D01*
X127676690Y-79933007D01*
X127713424Y-79996631D01*
X127803369Y-80086576D01*
X127913530Y-80150178D01*
X128036399Y-80183100D01*
X128036401Y-80183100D01*
X128163599Y-80183100D01*
X128163601Y-80183100D01*
X128286470Y-80150178D01*
X128396626Y-80086579D01*
X129848300Y-80086579D01*
X129848300Y-80213780D01*
X129881222Y-80336651D01*
X129908373Y-80383677D01*
X129944824Y-80446811D01*
X130034769Y-80536756D01*
X130144930Y-80600358D01*
X130267799Y-80633280D01*
X130267801Y-80633280D01*
X130394999Y-80633280D01*
X130395001Y-80633280D01*
X130517870Y-80600358D01*
X130628031Y-80536756D01*
X130708388Y-80456399D01*
X131816900Y-80456399D01*
X131816900Y-80583600D01*
X131849822Y-80706471D01*
X131881623Y-80761550D01*
X131913424Y-80816631D01*
X132003369Y-80906576D01*
X132113530Y-80970178D01*
X132236399Y-81003100D01*
X132236401Y-81003100D01*
X132363599Y-81003100D01*
X132363601Y-81003100D01*
X132486470Y-80970178D01*
X132596631Y-80906576D01*
X132686576Y-80816631D01*
X132750178Y-80706470D01*
X132783100Y-80583601D01*
X132783100Y-80456399D01*
X132750178Y-80333530D01*
X132748658Y-80330898D01*
X132691173Y-80231332D01*
X132686576Y-80223369D01*
X132596631Y-80133424D01*
X132522166Y-80090431D01*
X132486471Y-80069822D01*
X132425035Y-80053361D01*
X132363601Y-80036900D01*
X132236399Y-80036900D01*
X132113528Y-80069822D01*
X132003369Y-80133424D01*
X132003366Y-80133426D01*
X131913426Y-80223366D01*
X131913424Y-80223369D01*
X131849822Y-80333528D01*
X131816900Y-80456399D01*
X130708388Y-80456399D01*
X130717976Y-80446811D01*
X130781578Y-80336650D01*
X130814500Y-80213781D01*
X130814500Y-80086579D01*
X130781578Y-79963710D01*
X130717976Y-79853549D01*
X130628031Y-79763604D01*
X130572950Y-79731803D01*
X130517871Y-79700002D01*
X130456435Y-79683541D01*
X130395001Y-79667080D01*
X130267799Y-79667080D01*
X130144928Y-79700002D01*
X130034769Y-79763604D01*
X130034766Y-79763606D01*
X129944826Y-79853546D01*
X129944824Y-79853549D01*
X129881222Y-79963708D01*
X129848300Y-80086579D01*
X128396626Y-80086579D01*
X128396631Y-80086576D01*
X128486576Y-79996631D01*
X128550178Y-79886470D01*
X128583100Y-79763601D01*
X128583100Y-79636399D01*
X128550178Y-79513530D01*
X128486576Y-79403369D01*
X128396631Y-79313424D01*
X128341550Y-79281623D01*
X128286471Y-79249822D01*
X128225035Y-79233361D01*
X128163601Y-79216900D01*
X128036399Y-79216900D01*
X127913528Y-79249822D01*
X127803369Y-79313424D01*
X127803366Y-79313426D01*
X127713426Y-79403366D01*
X127713424Y-79403369D01*
X127649822Y-79513528D01*
X127648592Y-79518120D01*
X127616900Y-79636399D01*
X126750000Y-79636399D01*
X126750000Y-78576399D01*
X132016900Y-78576399D01*
X132016900Y-78703601D01*
X132029592Y-78750970D01*
X132049822Y-78826471D01*
X132078877Y-78876794D01*
X132113424Y-78936631D01*
X132203369Y-79026576D01*
X132298768Y-79081655D01*
X132310171Y-79088239D01*
X132313530Y-79090178D01*
X132436399Y-79123100D01*
X132436401Y-79123100D01*
X132563599Y-79123100D01*
X132563601Y-79123100D01*
X132686470Y-79090178D01*
X132796631Y-79026576D01*
X132886576Y-78936631D01*
X132950178Y-78826470D01*
X132983100Y-78703601D01*
X132983100Y-78576399D01*
X132950178Y-78453530D01*
X132886576Y-78343369D01*
X132796631Y-78253424D01*
X132741550Y-78221623D01*
X132686471Y-78189822D01*
X132625035Y-78173361D01*
X132563601Y-78156900D01*
X132436399Y-78156900D01*
X132313528Y-78189822D01*
X132203369Y-78253424D01*
X132203366Y-78253426D01*
X132113426Y-78343366D01*
X132113424Y-78343369D01*
X132049822Y-78453528D01*
X132027599Y-78536470D01*
X132016900Y-78576399D01*
X126750000Y-78576399D01*
X126750000Y-76263399D01*
X133111900Y-76263399D01*
X133111900Y-76390600D01*
X133144823Y-76513473D01*
X133189176Y-76590294D01*
X133205649Y-76658194D01*
X133189176Y-76714294D01*
X133153823Y-76775526D01*
X133120900Y-76898399D01*
X133120900Y-77025600D01*
X133153822Y-77148471D01*
X133156207Y-77152601D01*
X133217424Y-77258631D01*
X133307369Y-77348576D01*
X133417530Y-77412178D01*
X133540399Y-77445100D01*
X133540401Y-77445100D01*
X133667599Y-77445100D01*
X133667601Y-77445100D01*
X133790470Y-77412178D01*
X133900631Y-77348576D01*
X133990576Y-77258631D01*
X134054178Y-77148470D01*
X134087100Y-77025601D01*
X134087100Y-76898399D01*
X134054178Y-76775530D01*
X134009822Y-76698705D01*
X133993350Y-76630806D01*
X134009823Y-76574705D01*
X134045178Y-76513470D01*
X134078100Y-76390601D01*
X134078100Y-76263399D01*
X134045178Y-76140530D01*
X134042851Y-76136500D01*
X134009824Y-76079295D01*
X133993350Y-76011395D01*
X134009824Y-75955293D01*
X134054175Y-75878475D01*
X134054176Y-75878473D01*
X134054177Y-75878471D01*
X134054178Y-75878470D01*
X134087100Y-75755601D01*
X134087100Y-75628399D01*
X134054178Y-75505530D01*
X133990576Y-75395369D01*
X133900631Y-75305424D01*
X133833440Y-75266631D01*
X133790471Y-75241822D01*
X133729035Y-75225361D01*
X133667601Y-75208900D01*
X133540399Y-75208900D01*
X133417528Y-75241822D01*
X133307369Y-75305424D01*
X133307366Y-75305426D01*
X133217426Y-75395366D01*
X133217424Y-75395369D01*
X133153822Y-75505528D01*
X133120900Y-75628399D01*
X133120900Y-75755600D01*
X133153822Y-75878471D01*
X133178605Y-75921396D01*
X133185669Y-75933631D01*
X133189176Y-75939704D01*
X133205649Y-76007604D01*
X133189176Y-76063705D01*
X133144823Y-76140526D01*
X133111900Y-76263399D01*
X126750000Y-76263399D01*
X126750000Y-75124000D01*
X126769685Y-75056961D01*
X126822489Y-75011206D01*
X126874000Y-75000000D01*
X129979341Y-75000000D01*
X130046380Y-75019685D01*
X130092135Y-75072489D01*
X130102079Y-75141647D01*
X130073054Y-75205203D01*
X130041342Y-75231386D01*
X130008375Y-75250419D01*
X130008366Y-75250426D01*
X129918426Y-75340366D01*
X129918424Y-75340369D01*
X129854822Y-75450528D01*
X129821900Y-75573399D01*
X129821900Y-75700600D01*
X129854822Y-75823471D01*
X129886577Y-75878470D01*
X129918424Y-75933631D01*
X130008369Y-76023576D01*
X130118530Y-76087178D01*
X130241399Y-76120100D01*
X130241401Y-76120100D01*
X130368599Y-76120100D01*
X130368601Y-76120100D01*
X130491470Y-76087178D01*
X130601631Y-76023576D01*
X130691576Y-75933631D01*
X130755178Y-75823470D01*
X130788100Y-75700601D01*
X130788100Y-75573399D01*
X130755178Y-75450530D01*
X130691576Y-75340369D01*
X130601631Y-75250424D01*
X130601628Y-75250422D01*
X130601624Y-75250419D01*
X130568658Y-75231386D01*
X130520443Y-75180819D01*
X130507221Y-75112212D01*
X130533189Y-75047347D01*
X130590104Y-75006819D01*
X130630659Y-75000000D01*
X132500000Y-75000000D01*
X132500000Y-74733399D01*
X134501900Y-74733399D01*
X134501900Y-74860600D01*
X134534822Y-74983471D01*
X134555731Y-75019685D01*
X134598424Y-75093631D01*
X134688369Y-75183576D01*
X134798530Y-75247178D01*
X134921399Y-75280100D01*
X134921401Y-75280100D01*
X135048599Y-75280100D01*
X135048601Y-75280100D01*
X135171470Y-75247178D01*
X135281631Y-75183576D01*
X135371576Y-75093631D01*
X135435178Y-74983470D01*
X135468100Y-74860601D01*
X135468100Y-74733399D01*
X135435178Y-74610530D01*
X135371576Y-74500369D01*
X135281631Y-74410424D01*
X135226550Y-74378623D01*
X135171471Y-74346822D01*
X135110035Y-74330361D01*
X135048601Y-74313900D01*
X134921399Y-74313900D01*
X134798528Y-74346822D01*
X134688369Y-74410424D01*
X134688366Y-74410426D01*
X134598426Y-74500366D01*
X134598424Y-74500369D01*
X134534822Y-74610528D01*
X134501900Y-74733399D01*
X132500000Y-74733399D01*
X132500000Y-71374000D01*
X132519685Y-71306961D01*
X132572489Y-71261206D01*
X132624000Y-71250000D01*
X133451008Y-71250000D01*
X133518047Y-71269685D01*
G37*
%TD.AperFunction*%
%TD*%
%TA.AperFunction,Conductor*%
%TO.N,+3.3V*%
G36*
X157876374Y-68274185D02*
G01*
X157922129Y-68326989D01*
X157932073Y-68396147D01*
X157903048Y-68459703D01*
X157863137Y-68490220D01*
X157665499Y-68585397D01*
X157403539Y-68749997D01*
X157161656Y-68942892D01*
X156942892Y-69161656D01*
X156749997Y-69403539D01*
X156585397Y-69665499D01*
X156451165Y-69944234D01*
X156348986Y-70236243D01*
X156348982Y-70236255D01*
X156280140Y-70537873D01*
X156280138Y-70537889D01*
X156245500Y-70845306D01*
X156245500Y-71154693D01*
X156280138Y-71462110D01*
X156280140Y-71462126D01*
X156348982Y-71763744D01*
X156348986Y-71763756D01*
X156451165Y-72055765D01*
X156585397Y-72334500D01*
X156585399Y-72334503D01*
X156749998Y-72596462D01*
X156872299Y-72749822D01*
X156939905Y-72834598D01*
X156942893Y-72838344D01*
X157161656Y-73057107D01*
X157403538Y-73250002D01*
X157665497Y-73414601D01*
X157944238Y-73548836D01*
X158025187Y-73577161D01*
X158081960Y-73617881D01*
X158107707Y-73682834D01*
X158094251Y-73751395D01*
X158071911Y-73781882D01*
X157982424Y-73871369D01*
X157918822Y-73981528D01*
X157885900Y-74104399D01*
X157885900Y-74231600D01*
X157918822Y-74354471D01*
X157931252Y-74376000D01*
X157982424Y-74464631D01*
X158072369Y-74554576D01*
X158182530Y-74618178D01*
X158224993Y-74629555D01*
X158284653Y-74665919D01*
X158315183Y-74728766D01*
X158316900Y-74749330D01*
X158316900Y-74866601D01*
X158348214Y-74983470D01*
X158351926Y-74997321D01*
X158348833Y-74998149D01*
X158354690Y-75052676D01*
X158323409Y-75115153D01*
X158294664Y-75138034D01*
X158233372Y-75173422D01*
X158233366Y-75173426D01*
X158143426Y-75263366D01*
X158143424Y-75263369D01*
X158079822Y-75373528D01*
X158046900Y-75496399D01*
X158046900Y-75623600D01*
X158079822Y-75746471D01*
X158111623Y-75801550D01*
X158143424Y-75856631D01*
X158233369Y-75946576D01*
X158314515Y-75993426D01*
X158334561Y-76005000D01*
X158343530Y-76010178D01*
X158466399Y-76043100D01*
X158466401Y-76043100D01*
X158593599Y-76043100D01*
X158593601Y-76043100D01*
X158716470Y-76010178D01*
X158826631Y-75946576D01*
X158916576Y-75856631D01*
X158980178Y-75746470D01*
X159013100Y-75623601D01*
X159013100Y-75496399D01*
X158980178Y-75373530D01*
X158980177Y-75373528D01*
X158978074Y-75365679D01*
X158981174Y-75364848D01*
X158975300Y-75310372D01*
X159006556Y-75247883D01*
X159035335Y-75224965D01*
X159096631Y-75189576D01*
X159186576Y-75099631D01*
X159250178Y-74989470D01*
X159283100Y-74866601D01*
X159283100Y-74739399D01*
X161060900Y-74739399D01*
X161060900Y-74866600D01*
X161093822Y-74989471D01*
X161110360Y-75018115D01*
X161157424Y-75099631D01*
X161247369Y-75189576D01*
X161357530Y-75253178D01*
X161480399Y-75286100D01*
X161480401Y-75286100D01*
X161607599Y-75286100D01*
X161607601Y-75286100D01*
X161730470Y-75253178D01*
X161840631Y-75189576D01*
X161930576Y-75099631D01*
X161994178Y-74989470D01*
X162027100Y-74866601D01*
X162027100Y-74739399D01*
X161994178Y-74616530D01*
X161930576Y-74506369D01*
X161840631Y-74416424D01*
X161770615Y-74376000D01*
X161730471Y-74352822D01*
X161669035Y-74336361D01*
X161607601Y-74319900D01*
X161480399Y-74319900D01*
X161357528Y-74352822D01*
X161247369Y-74416424D01*
X161247366Y-74416426D01*
X161157426Y-74506366D01*
X161157424Y-74506369D01*
X161093822Y-74616528D01*
X161060900Y-74739399D01*
X159283100Y-74739399D01*
X159250178Y-74616530D01*
X159186576Y-74506369D01*
X159096631Y-74416424D01*
X159026615Y-74376000D01*
X158986471Y-74352822D01*
X158944006Y-74341444D01*
X158884345Y-74305078D01*
X158853817Y-74242231D01*
X158852100Y-74221669D01*
X158852100Y-74104401D01*
X158852100Y-74104399D01*
X158819178Y-73981530D01*
X158819177Y-73981528D01*
X158819177Y-73981527D01*
X158795490Y-73940502D01*
X158779016Y-73872602D01*
X158801868Y-73806574D01*
X158856788Y-73763383D01*
X158902876Y-73754500D01*
X159154693Y-73754500D01*
X159154693Y-73754499D01*
X159462123Y-73719860D01*
X159763745Y-73651017D01*
X160055762Y-73548836D01*
X160334503Y-73414601D01*
X160596462Y-73250002D01*
X160838344Y-73057107D01*
X161057107Y-72838344D01*
X161250002Y-72596462D01*
X161381789Y-72386722D01*
X161434122Y-72340433D01*
X161503176Y-72329784D01*
X161567024Y-72358159D01*
X161605396Y-72416549D01*
X161610176Y-72440461D01*
X161617664Y-72515987D01*
X161690494Y-72868106D01*
X161690496Y-72868114D01*
X161799875Y-73210638D01*
X161799877Y-73210644D01*
X161944599Y-73539795D01*
X162123068Y-73851946D01*
X162333320Y-74143655D01*
X162573010Y-74411671D01*
X162573012Y-74411673D01*
X162573017Y-74411678D01*
X162799182Y-74616530D01*
X162839522Y-74653069D01*
X162867315Y-74673369D01*
X163129885Y-74865154D01*
X163440904Y-75045596D01*
X163769142Y-75192401D01*
X163769146Y-75192402D01*
X163769152Y-75192405D01*
X164110965Y-75303945D01*
X164110967Y-75303945D01*
X164110975Y-75303948D01*
X164462627Y-75379004D01*
X164648794Y-75398650D01*
X164713398Y-75425261D01*
X164753358Y-75482575D01*
X164755989Y-75552395D01*
X164720455Y-75612554D01*
X164667875Y-75641740D01*
X164623528Y-75653622D01*
X164513369Y-75717224D01*
X164513366Y-75717226D01*
X164423426Y-75807166D01*
X164423424Y-75807169D01*
X164359822Y-75917328D01*
X164326900Y-76040199D01*
X164326900Y-76167400D01*
X164359822Y-76290271D01*
X164374909Y-76316401D01*
X164423424Y-76400431D01*
X164513369Y-76490376D01*
X164623530Y-76553978D01*
X164746399Y-76586900D01*
X164746401Y-76586900D01*
X164873599Y-76586900D01*
X164873601Y-76586900D01*
X164996470Y-76553978D01*
X165106631Y-76490376D01*
X165196576Y-76400431D01*
X165260178Y-76290270D01*
X165293100Y-76167401D01*
X165293100Y-76040199D01*
X165260178Y-75917330D01*
X165196576Y-75807169D01*
X165106631Y-75717224D01*
X164996470Y-75653622D01*
X164996469Y-75653621D01*
X164989431Y-75649558D01*
X164990704Y-75647351D01*
X164946213Y-75611498D01*
X164924148Y-75545204D01*
X164941427Y-75477505D01*
X164992564Y-75429894D01*
X165048069Y-75416778D01*
X169621500Y-75416778D01*
X169688539Y-75436463D01*
X169734294Y-75489267D01*
X169745500Y-75540778D01*
X169745500Y-92376000D01*
X169725815Y-92443039D01*
X169673011Y-92488794D01*
X169621500Y-92500000D01*
X165900878Y-92500000D01*
X165833839Y-92480315D01*
X165788084Y-92427511D01*
X165778140Y-92358353D01*
X165807165Y-92294797D01*
X165849463Y-92264297D01*
X165849431Y-92264242D01*
X165849982Y-92263923D01*
X165853431Y-92261437D01*
X165856467Y-92260179D01*
X165856467Y-92260178D01*
X165856470Y-92260178D01*
X165966631Y-92196576D01*
X166056576Y-92106631D01*
X166120178Y-91996470D01*
X166153100Y-91873601D01*
X166153100Y-91746399D01*
X166120178Y-91623530D01*
X166056576Y-91513369D01*
X165966631Y-91423424D01*
X165911550Y-91391623D01*
X165856471Y-91359822D01*
X165795035Y-91343361D01*
X165733601Y-91326900D01*
X165606399Y-91326900D01*
X165483528Y-91359822D01*
X165373369Y-91423424D01*
X165373366Y-91423426D01*
X165283426Y-91513366D01*
X165283424Y-91513369D01*
X165219822Y-91623528D01*
X165186900Y-91746399D01*
X165186900Y-91873600D01*
X165219822Y-91996471D01*
X165248751Y-92046576D01*
X165283424Y-92106631D01*
X165373369Y-92196576D01*
X165483530Y-92260178D01*
X165483532Y-92260179D01*
X165486569Y-92261437D01*
X165488738Y-92263185D01*
X165490569Y-92264242D01*
X165490404Y-92264527D01*
X165540975Y-92305275D01*
X165563043Y-92371568D01*
X165545767Y-92439268D01*
X165494632Y-92486881D01*
X165439122Y-92500000D01*
X154624000Y-92500000D01*
X154556961Y-92480315D01*
X154511206Y-92427511D01*
X154500000Y-92376000D01*
X154500000Y-91630399D01*
X155402900Y-91630399D01*
X155402900Y-91757600D01*
X155435822Y-91880471D01*
X155463095Y-91927708D01*
X155499424Y-91990631D01*
X155589369Y-92080576D01*
X155699530Y-92144178D01*
X155822399Y-92177100D01*
X155822401Y-92177100D01*
X155949599Y-92177100D01*
X155949601Y-92177100D01*
X156072470Y-92144178D01*
X156182631Y-92080576D01*
X156272576Y-91990631D01*
X156336178Y-91880470D01*
X156369100Y-91757601D01*
X156369100Y-91630399D01*
X156368028Y-91626399D01*
X163516900Y-91626399D01*
X163516900Y-91753600D01*
X163549822Y-91876471D01*
X163581623Y-91931550D01*
X163613424Y-91986631D01*
X163703369Y-92076576D01*
X163813530Y-92140178D01*
X163936399Y-92173100D01*
X163936401Y-92173100D01*
X164063599Y-92173100D01*
X164063601Y-92173100D01*
X164186470Y-92140178D01*
X164296631Y-92076576D01*
X164386576Y-91986631D01*
X164450178Y-91876470D01*
X164483100Y-91753601D01*
X164483100Y-91626399D01*
X164450178Y-91503530D01*
X164386576Y-91393369D01*
X164296631Y-91303424D01*
X164228569Y-91264128D01*
X164186471Y-91239822D01*
X164078529Y-91210900D01*
X164063601Y-91206900D01*
X163936399Y-91206900D01*
X163813528Y-91239822D01*
X163703369Y-91303424D01*
X163703366Y-91303426D01*
X163613426Y-91393366D01*
X163613424Y-91393369D01*
X163549822Y-91503528D01*
X163516900Y-91626399D01*
X156368028Y-91626399D01*
X156336178Y-91507530D01*
X156333867Y-91503528D01*
X156316548Y-91473530D01*
X156272576Y-91397369D01*
X156182631Y-91307424D01*
X156107641Y-91264128D01*
X156072471Y-91243822D01*
X155997335Y-91223690D01*
X155949601Y-91210900D01*
X155822399Y-91210900D01*
X155699528Y-91243822D01*
X155589369Y-91307424D01*
X155589366Y-91307426D01*
X155499426Y-91397366D01*
X155499424Y-91397369D01*
X155435822Y-91507528D01*
X155402900Y-91630399D01*
X154500000Y-91630399D01*
X154500000Y-90750000D01*
X151201206Y-90750000D01*
X151134167Y-90730315D01*
X151088412Y-90677511D01*
X151081431Y-90658093D01*
X151073228Y-90627481D01*
X151073228Y-90627480D01*
X151009626Y-90517319D01*
X150919681Y-90427374D01*
X150860958Y-90393470D01*
X150809521Y-90363772D01*
X150693667Y-90332730D01*
X150686651Y-90330850D01*
X150559449Y-90330850D01*
X150436578Y-90363772D01*
X150326419Y-90427374D01*
X150326416Y-90427376D01*
X150236476Y-90517316D01*
X150236474Y-90517319D01*
X150172871Y-90627481D01*
X150164669Y-90658093D01*
X150128304Y-90717754D01*
X150065457Y-90748283D01*
X150044894Y-90750000D01*
X149229899Y-90750000D01*
X149162860Y-90730315D01*
X149117105Y-90677511D01*
X149107161Y-90608353D01*
X149110124Y-90593908D01*
X149110324Y-90593158D01*
X149113100Y-90582801D01*
X149113100Y-90455599D01*
X149080178Y-90332730D01*
X149016576Y-90222569D01*
X148926631Y-90132624D01*
X148871550Y-90100823D01*
X148816471Y-90069022D01*
X148755035Y-90052561D01*
X148693601Y-90036100D01*
X148566399Y-90036100D01*
X148443528Y-90069022D01*
X148333369Y-90132624D01*
X148333366Y-90132626D01*
X148243426Y-90222566D01*
X148243424Y-90222569D01*
X148179822Y-90332728D01*
X148146900Y-90455599D01*
X148146900Y-90582802D01*
X148149876Y-90593908D01*
X148148213Y-90663758D01*
X148109049Y-90721620D01*
X148044821Y-90749123D01*
X148030101Y-90750000D01*
X139301362Y-90750000D01*
X139234323Y-90730315D01*
X139213681Y-90713681D01*
X137209399Y-88709399D01*
X138962900Y-88709399D01*
X138962900Y-88836601D01*
X138993633Y-88951300D01*
X138995823Y-88959473D01*
X139035676Y-89028500D01*
X139052149Y-89096400D01*
X139035676Y-89152500D01*
X138995823Y-89221526D01*
X138962900Y-89344399D01*
X138962900Y-89471600D01*
X138995822Y-89594471D01*
X139018312Y-89633424D01*
X139059424Y-89704631D01*
X139149369Y-89794576D01*
X139259530Y-89858178D01*
X139382399Y-89891100D01*
X139382401Y-89891100D01*
X139509599Y-89891100D01*
X139509601Y-89891100D01*
X139632470Y-89858178D01*
X139742631Y-89794576D01*
X139832576Y-89704631D01*
X139896178Y-89594470D01*
X139929100Y-89471601D01*
X139929100Y-89344399D01*
X139896178Y-89221530D01*
X139891600Y-89213601D01*
X139856324Y-89152501D01*
X139839850Y-89084601D01*
X139856324Y-89028499D01*
X139892135Y-88966473D01*
X139896178Y-88959470D01*
X139929100Y-88836601D01*
X139929100Y-88709399D01*
X139896178Y-88586530D01*
X139868765Y-88539049D01*
X141529342Y-88539049D01*
X141529342Y-88666251D01*
X141532588Y-88678366D01*
X141562264Y-88789121D01*
X141589676Y-88836599D01*
X141625866Y-88899281D01*
X141715811Y-88989226D01*
X141825972Y-89052828D01*
X141948841Y-89085750D01*
X141948843Y-89085750D01*
X142076041Y-89085750D01*
X142076043Y-89085750D01*
X142198912Y-89052828D01*
X142309073Y-88989226D01*
X142386900Y-88911399D01*
X145711900Y-88911399D01*
X145711900Y-89038601D01*
X145723595Y-89082249D01*
X145744822Y-89161471D01*
X145767661Y-89201028D01*
X145808424Y-89271631D01*
X145898369Y-89361576D01*
X146008530Y-89425178D01*
X146131399Y-89458100D01*
X146131401Y-89458100D01*
X146258599Y-89458100D01*
X146258601Y-89458100D01*
X146381470Y-89425178D01*
X146491631Y-89361576D01*
X146578462Y-89274744D01*
X146639781Y-89241262D01*
X146709473Y-89246246D01*
X146745438Y-89269356D01*
X146746087Y-89268511D01*
X146752528Y-89273453D01*
X146752533Y-89273458D01*
X146862694Y-89337060D01*
X146985563Y-89369982D01*
X146985565Y-89369982D01*
X147112763Y-89369982D01*
X147112765Y-89369982D01*
X147235634Y-89337060D01*
X147345795Y-89273458D01*
X147435740Y-89183513D01*
X147458733Y-89143687D01*
X147509297Y-89095473D01*
X147577904Y-89082249D01*
X147642769Y-89108216D01*
X147653800Y-89118007D01*
X147670369Y-89134576D01*
X147780530Y-89198178D01*
X147903399Y-89231100D01*
X147903401Y-89231100D01*
X148030599Y-89231100D01*
X148030601Y-89231100D01*
X148153470Y-89198178D01*
X148263631Y-89134576D01*
X148353576Y-89044631D01*
X148356876Y-89038916D01*
X148407439Y-88990702D01*
X148476045Y-88977477D01*
X148540911Y-89003443D01*
X148571649Y-89038916D01*
X148593421Y-89076627D01*
X148593423Y-89076629D01*
X148593424Y-89076631D01*
X148683369Y-89166576D01*
X148793530Y-89230178D01*
X148916399Y-89263100D01*
X148916401Y-89263100D01*
X149043599Y-89263100D01*
X149043601Y-89263100D01*
X149166470Y-89230178D01*
X149276631Y-89166576D01*
X149336808Y-89106399D01*
X155576900Y-89106399D01*
X155576900Y-89233601D01*
X155587925Y-89274747D01*
X155609822Y-89356471D01*
X155617623Y-89369982D01*
X155673424Y-89466631D01*
X155763369Y-89556576D01*
X155873530Y-89620178D01*
X155996399Y-89653100D01*
X155996401Y-89653100D01*
X156123599Y-89653100D01*
X156123601Y-89653100D01*
X156246470Y-89620178D01*
X156356631Y-89556576D01*
X156446576Y-89466631D01*
X156510178Y-89356470D01*
X156543100Y-89233601D01*
X156543100Y-89106399D01*
X156510178Y-88983530D01*
X156446576Y-88873369D01*
X156356631Y-88783424D01*
X156273483Y-88735418D01*
X156246471Y-88719822D01*
X156174029Y-88700412D01*
X156123601Y-88686900D01*
X155996399Y-88686900D01*
X155873528Y-88719822D01*
X155763369Y-88783424D01*
X155763366Y-88783426D01*
X155673426Y-88873366D01*
X155673424Y-88873369D01*
X155609822Y-88983528D01*
X155583371Y-89082249D01*
X155576900Y-89106399D01*
X149336808Y-89106399D01*
X149366576Y-89076631D01*
X149368469Y-89073352D01*
X149389879Y-89036271D01*
X149430176Y-88966473D01*
X149430175Y-88966473D01*
X149430178Y-88966470D01*
X149463100Y-88843601D01*
X149463100Y-88716399D01*
X149430178Y-88593530D01*
X149366576Y-88483369D01*
X149276631Y-88393424D01*
X149219046Y-88360177D01*
X149166471Y-88329822D01*
X149077623Y-88306016D01*
X149043601Y-88296900D01*
X148916399Y-88296900D01*
X148793528Y-88329822D01*
X148683369Y-88393424D01*
X148683366Y-88393426D01*
X148593426Y-88483366D01*
X148593419Y-88483375D01*
X148590120Y-88489090D01*
X148539550Y-88537302D01*
X148470942Y-88550521D01*
X148406079Y-88524549D01*
X148375350Y-88489083D01*
X148353576Y-88451369D01*
X148263631Y-88361424D01*
X148167668Y-88306019D01*
X148153471Y-88297822D01*
X148074177Y-88276576D01*
X148030601Y-88264900D01*
X147903399Y-88264900D01*
X147780528Y-88297822D01*
X147670369Y-88361424D01*
X147670366Y-88361426D01*
X147580426Y-88451366D01*
X147580424Y-88451369D01*
X147561951Y-88483366D01*
X147557431Y-88491194D01*
X147506863Y-88539409D01*
X147438256Y-88552631D01*
X147373391Y-88526663D01*
X147362363Y-88516874D01*
X147345797Y-88500308D01*
X147345795Y-88500306D01*
X147285740Y-88465633D01*
X147235635Y-88436704D01*
X147159028Y-88416178D01*
X147112765Y-88403782D01*
X146985563Y-88403782D01*
X146862692Y-88436704D01*
X146752533Y-88500306D01*
X146752530Y-88500308D01*
X146665704Y-88587135D01*
X146604381Y-88620620D01*
X146534689Y-88615636D01*
X146498727Y-88592523D01*
X146498077Y-88593371D01*
X146491633Y-88588426D01*
X146491631Y-88588424D01*
X146425982Y-88550521D01*
X146381471Y-88524822D01*
X146320035Y-88508361D01*
X146258601Y-88491900D01*
X146131399Y-88491900D01*
X146008528Y-88524822D01*
X145898369Y-88588424D01*
X145898366Y-88588426D01*
X145808426Y-88678366D01*
X145808424Y-88678369D01*
X145744822Y-88788528D01*
X145730066Y-88843600D01*
X145711900Y-88911399D01*
X142386900Y-88911399D01*
X142399018Y-88899281D01*
X142432511Y-88841270D01*
X142450509Y-88810098D01*
X142501077Y-88761883D01*
X142557895Y-88748100D01*
X142643599Y-88748100D01*
X142643601Y-88748100D01*
X142766470Y-88715178D01*
X142876631Y-88651576D01*
X142966576Y-88561631D01*
X143030178Y-88451470D01*
X143063100Y-88328601D01*
X143063100Y-88201399D01*
X143030178Y-88078530D01*
X142966576Y-87968369D01*
X142876631Y-87878424D01*
X142821163Y-87846399D01*
X142786523Y-87826399D01*
X155566900Y-87826399D01*
X155566900Y-87953601D01*
X155572259Y-87973600D01*
X155599822Y-88076471D01*
X155616736Y-88105766D01*
X155663424Y-88186631D01*
X155753369Y-88276576D01*
X155863530Y-88340178D01*
X155986399Y-88373100D01*
X155986401Y-88373100D01*
X156113599Y-88373100D01*
X156113601Y-88373100D01*
X156236470Y-88340178D01*
X156346631Y-88276576D01*
X156436576Y-88186631D01*
X156500178Y-88076470D01*
X156533100Y-87953601D01*
X156533100Y-87846399D01*
X158196900Y-87846399D01*
X158196900Y-87973600D01*
X158229822Y-88096471D01*
X158235189Y-88105766D01*
X158293424Y-88206631D01*
X158383369Y-88296576D01*
X158493530Y-88360178D01*
X158616399Y-88393100D01*
X158616401Y-88393100D01*
X158743599Y-88393100D01*
X158743601Y-88393100D01*
X158866470Y-88360178D01*
X158976631Y-88296576D01*
X159066576Y-88206631D01*
X159130178Y-88096470D01*
X159163100Y-87973601D01*
X159163100Y-87846399D01*
X159130178Y-87723530D01*
X159066576Y-87613369D01*
X158976631Y-87523424D01*
X158921550Y-87491623D01*
X158866471Y-87459822D01*
X158805035Y-87443361D01*
X158743601Y-87426900D01*
X158616399Y-87426900D01*
X158493528Y-87459822D01*
X158383369Y-87523424D01*
X158383366Y-87523426D01*
X158293426Y-87613366D01*
X158293424Y-87613369D01*
X158229822Y-87723528D01*
X158196900Y-87846399D01*
X156533100Y-87846399D01*
X156533100Y-87826399D01*
X156500178Y-87703530D01*
X156436576Y-87593369D01*
X156346631Y-87503424D01*
X156271111Y-87459822D01*
X156236471Y-87439822D01*
X156175035Y-87423361D01*
X156113601Y-87406900D01*
X155986399Y-87406900D01*
X155863528Y-87439822D01*
X155753369Y-87503424D01*
X155753366Y-87503426D01*
X155663426Y-87593366D01*
X155663424Y-87593369D01*
X155599822Y-87703528D01*
X155578823Y-87781900D01*
X155566900Y-87826399D01*
X142786523Y-87826399D01*
X142766471Y-87814822D01*
X142705035Y-87798361D01*
X142643601Y-87781900D01*
X142516399Y-87781900D01*
X142393528Y-87814822D01*
X142283369Y-87878424D01*
X142283366Y-87878426D01*
X142193426Y-87968366D01*
X142193422Y-87968372D01*
X142141935Y-88057550D01*
X142091368Y-88105766D01*
X142034548Y-88119550D01*
X141948841Y-88119550D01*
X141825970Y-88152472D01*
X141715811Y-88216074D01*
X141715808Y-88216076D01*
X141625868Y-88306016D01*
X141625866Y-88306019D01*
X141562264Y-88416178D01*
X141542730Y-88489083D01*
X141529342Y-88539049D01*
X139868765Y-88539049D01*
X139832576Y-88476369D01*
X139742631Y-88386424D01*
X139687550Y-88354623D01*
X139632471Y-88322822D01*
X139569748Y-88306016D01*
X139509601Y-88289900D01*
X139382399Y-88289900D01*
X139259528Y-88322822D01*
X139149369Y-88386424D01*
X139149366Y-88386426D01*
X139059426Y-88476366D01*
X139059424Y-88476369D01*
X138995822Y-88586528D01*
X138968928Y-88686900D01*
X138962900Y-88709399D01*
X137209399Y-88709399D01*
X137036319Y-88536319D01*
X137002834Y-88474996D01*
X137000000Y-88448638D01*
X137000000Y-87506399D01*
X140786900Y-87506399D01*
X140786900Y-87633600D01*
X140819822Y-87756471D01*
X140834504Y-87781900D01*
X140883424Y-87866631D01*
X140973369Y-87956576D01*
X141083530Y-88020178D01*
X141206399Y-88053100D01*
X141206401Y-88053100D01*
X141333599Y-88053100D01*
X141333601Y-88053100D01*
X141456470Y-88020178D01*
X141566631Y-87956576D01*
X141656576Y-87866631D01*
X141720178Y-87756470D01*
X141753100Y-87633601D01*
X141753100Y-87506399D01*
X141720178Y-87383530D01*
X141656576Y-87273369D01*
X141566631Y-87183424D01*
X141511550Y-87151623D01*
X141456471Y-87119822D01*
X141369317Y-87096470D01*
X141333601Y-87086900D01*
X141206399Y-87086900D01*
X141083528Y-87119822D01*
X140973369Y-87183424D01*
X140973366Y-87183426D01*
X140883426Y-87273366D01*
X140883424Y-87273369D01*
X140819822Y-87383528D01*
X140786900Y-87506399D01*
X137000000Y-87506399D01*
X137000000Y-86056399D01*
X137796900Y-86056399D01*
X137796900Y-86183601D01*
X137808688Y-86227594D01*
X137829822Y-86306471D01*
X137849808Y-86341086D01*
X137893424Y-86416631D01*
X137983369Y-86506576D01*
X138093530Y-86570178D01*
X138216399Y-86603100D01*
X138216401Y-86603100D01*
X138343599Y-86603100D01*
X138343601Y-86603100D01*
X138466470Y-86570178D01*
X138576631Y-86506576D01*
X138666576Y-86416631D01*
X138710192Y-86341085D01*
X138760759Y-86292870D01*
X138829366Y-86279647D01*
X138894231Y-86305615D01*
X138934759Y-86362530D01*
X138937353Y-86370991D01*
X138969011Y-86489140D01*
X139032613Y-86599301D01*
X139122558Y-86689246D01*
X139232719Y-86752848D01*
X139355588Y-86785770D01*
X139355590Y-86785770D01*
X139482788Y-86785770D01*
X139482790Y-86785770D01*
X139605659Y-86752848D01*
X139715820Y-86689246D01*
X139805765Y-86599301D01*
X139869367Y-86489140D01*
X139896896Y-86386399D01*
X150226900Y-86386399D01*
X150226900Y-86513600D01*
X150259822Y-86636471D01*
X150283726Y-86677873D01*
X150323424Y-86746631D01*
X150413369Y-86836576D01*
X150523530Y-86900178D01*
X150646399Y-86933100D01*
X150646401Y-86933100D01*
X150773599Y-86933100D01*
X150773601Y-86933100D01*
X150896470Y-86900178D01*
X151006631Y-86836576D01*
X151096576Y-86746631D01*
X151136273Y-86677873D01*
X151186840Y-86629658D01*
X151255447Y-86616436D01*
X151320312Y-86642404D01*
X151351046Y-86677873D01*
X151357613Y-86689246D01*
X151373424Y-86716631D01*
X151463369Y-86806576D01*
X151573530Y-86870178D01*
X151696399Y-86903100D01*
X151696401Y-86903100D01*
X151823599Y-86903100D01*
X151823601Y-86903100D01*
X151946470Y-86870178D01*
X151987656Y-86846399D01*
X157186900Y-86846399D01*
X157186900Y-86973600D01*
X157219822Y-87096471D01*
X157233304Y-87119822D01*
X157283424Y-87206631D01*
X157373369Y-87296576D01*
X157483530Y-87360178D01*
X157606399Y-87393100D01*
X157606401Y-87393100D01*
X157733599Y-87393100D01*
X157733601Y-87393100D01*
X157856470Y-87360178D01*
X157966631Y-87296576D01*
X158056576Y-87206631D01*
X158120178Y-87096470D01*
X158153100Y-86973601D01*
X158153100Y-86846399D01*
X158120178Y-86723530D01*
X158056576Y-86613369D01*
X157966631Y-86523424D01*
X157897656Y-86483601D01*
X157856471Y-86459822D01*
X157758729Y-86433633D01*
X157733601Y-86426900D01*
X157606399Y-86426900D01*
X157483528Y-86459822D01*
X157373369Y-86523424D01*
X157373366Y-86523426D01*
X157283426Y-86613366D01*
X157283424Y-86613369D01*
X157219822Y-86723528D01*
X157186900Y-86846399D01*
X151987656Y-86846399D01*
X152056631Y-86806576D01*
X152146576Y-86716631D01*
X152210178Y-86606470D01*
X152243100Y-86483601D01*
X152243100Y-86356399D01*
X152210178Y-86233530D01*
X152146576Y-86123369D01*
X152056631Y-86033424D01*
X151998431Y-85999822D01*
X151946471Y-85969822D01*
X151885035Y-85953361D01*
X151823601Y-85936900D01*
X151696399Y-85936900D01*
X151573528Y-85969822D01*
X151463369Y-86033424D01*
X151463366Y-86033426D01*
X151373426Y-86123366D01*
X151373422Y-86123372D01*
X151333725Y-86192127D01*
X151283157Y-86240342D01*
X151214550Y-86253563D01*
X151149686Y-86227594D01*
X151118952Y-86192125D01*
X151096578Y-86153372D01*
X151096573Y-86153366D01*
X151006633Y-86063426D01*
X151006631Y-86063424D01*
X150948431Y-86029822D01*
X150896471Y-85999822D01*
X150835035Y-85983361D01*
X150773601Y-85966900D01*
X150646399Y-85966900D01*
X150523528Y-85999822D01*
X150413369Y-86063424D01*
X150413366Y-86063426D01*
X150323426Y-86153366D01*
X150323424Y-86153369D01*
X150259822Y-86263528D01*
X150226900Y-86386399D01*
X139896896Y-86386399D01*
X139902289Y-86366271D01*
X139902289Y-86239069D01*
X139869367Y-86116200D01*
X139805765Y-86006039D01*
X139715820Y-85916094D01*
X139660739Y-85884293D01*
X139605660Y-85852492D01*
X139496968Y-85823369D01*
X139482790Y-85819570D01*
X139355588Y-85819570D01*
X139232717Y-85852492D01*
X139122558Y-85916094D01*
X139122555Y-85916096D01*
X139032615Y-86006036D01*
X139032611Y-86006042D01*
X138988995Y-86081585D01*
X138938427Y-86129799D01*
X138869820Y-86143021D01*
X138804956Y-86117052D01*
X138764428Y-86060138D01*
X138761837Y-86051688D01*
X138730178Y-85933530D01*
X138666576Y-85823369D01*
X138576631Y-85733424D01*
X138496947Y-85687418D01*
X138466471Y-85669822D01*
X138405035Y-85653361D01*
X138343601Y-85636900D01*
X138216399Y-85636900D01*
X138093528Y-85669822D01*
X137983369Y-85733424D01*
X137983366Y-85733426D01*
X137893426Y-85823366D01*
X137893424Y-85823369D01*
X137829822Y-85933528D01*
X137810393Y-86006042D01*
X137796900Y-86056399D01*
X137000000Y-86056399D01*
X137000000Y-85081599D01*
X140366900Y-85081599D01*
X140366900Y-85208801D01*
X140374885Y-85238601D01*
X140399822Y-85331671D01*
X140421317Y-85368900D01*
X140463424Y-85441831D01*
X140553369Y-85531776D01*
X140663530Y-85595378D01*
X140786399Y-85628300D01*
X140786401Y-85628300D01*
X140913599Y-85628300D01*
X140913601Y-85628300D01*
X141036470Y-85595378D01*
X141146631Y-85531776D01*
X141236576Y-85441831D01*
X141300178Y-85331670D01*
X141333100Y-85208801D01*
X141333100Y-85111399D01*
X155761900Y-85111399D01*
X155761900Y-85238600D01*
X155794822Y-85361471D01*
X155818119Y-85401822D01*
X155858424Y-85471631D01*
X155948369Y-85561576D01*
X156058530Y-85625178D01*
X156181399Y-85658100D01*
X156181401Y-85658100D01*
X156308599Y-85658100D01*
X156308601Y-85658100D01*
X156431470Y-85625178D01*
X156541631Y-85561576D01*
X156631576Y-85471631D01*
X156695178Y-85361470D01*
X156728100Y-85238601D01*
X156728100Y-85111399D01*
X156695178Y-84988530D01*
X156687557Y-84975331D01*
X156677972Y-84958728D01*
X156631576Y-84878369D01*
X156541631Y-84788424D01*
X156486550Y-84756623D01*
X156431471Y-84724822D01*
X156370035Y-84708361D01*
X156308601Y-84691900D01*
X156181399Y-84691900D01*
X156058528Y-84724822D01*
X155948369Y-84788424D01*
X155948366Y-84788426D01*
X155858426Y-84878366D01*
X155858424Y-84878369D01*
X155794822Y-84988528D01*
X155761900Y-85111399D01*
X141333100Y-85111399D01*
X141333100Y-85081599D01*
X141300178Y-84958730D01*
X141236576Y-84848569D01*
X141146631Y-84758624D01*
X141088085Y-84724822D01*
X141036471Y-84695022D01*
X140948377Y-84671418D01*
X140913601Y-84662100D01*
X140786399Y-84662100D01*
X140663528Y-84695022D01*
X140553369Y-84758624D01*
X140553366Y-84758626D01*
X140463426Y-84848566D01*
X140463424Y-84848569D01*
X140399822Y-84958728D01*
X140371857Y-85063099D01*
X140366900Y-85081599D01*
X137000000Y-85081599D01*
X137000000Y-83764024D01*
X137019685Y-83696985D01*
X137072489Y-83651230D01*
X137091902Y-83644250D01*
X137116470Y-83637668D01*
X137226631Y-83574066D01*
X137316576Y-83484121D01*
X137380178Y-83373960D01*
X137399754Y-83300899D01*
X145696900Y-83300899D01*
X145696900Y-83428101D01*
X145708711Y-83472182D01*
X145729822Y-83550971D01*
X145744545Y-83576471D01*
X145793424Y-83661131D01*
X145883369Y-83751076D01*
X145978768Y-83806155D01*
X145993526Y-83814676D01*
X145993530Y-83814678D01*
X146116399Y-83847600D01*
X146118381Y-83847600D01*
X146119990Y-83848072D01*
X146124459Y-83848661D01*
X146124367Y-83849357D01*
X146185420Y-83867285D01*
X146230486Y-83918605D01*
X146235264Y-83928713D01*
X146244820Y-83964376D01*
X146285120Y-84034178D01*
X146287298Y-84038784D01*
X146291966Y-84068470D01*
X146299053Y-84097679D01*
X146297339Y-84102630D01*
X146298153Y-84107805D01*
X146286032Y-84135298D01*
X146276201Y-84163706D01*
X146271710Y-84167788D01*
X146269969Y-84171738D01*
X146260409Y-84178061D01*
X146237196Y-84199164D01*
X146225876Y-84205699D01*
X146225867Y-84205706D01*
X146135927Y-84295646D01*
X146135925Y-84295649D01*
X146072323Y-84405808D01*
X146049168Y-84492228D01*
X146039401Y-84528679D01*
X146039401Y-84655881D01*
X146043564Y-84671418D01*
X146072323Y-84778751D01*
X146075758Y-84784700D01*
X146135925Y-84888911D01*
X146225870Y-84978856D01*
X146336031Y-85042458D01*
X146458900Y-85075380D01*
X146458902Y-85075380D01*
X146586100Y-85075380D01*
X146586102Y-85075380D01*
X146708971Y-85042458D01*
X146819132Y-84978856D01*
X146909077Y-84888911D01*
X146972679Y-84778750D01*
X147005601Y-84655881D01*
X147005601Y-84615099D01*
X160945600Y-84615099D01*
X160945600Y-84742300D01*
X160978522Y-84865171D01*
X160991299Y-84887300D01*
X161042124Y-84975331D01*
X161132069Y-85065276D01*
X161211956Y-85111399D01*
X161240913Y-85128118D01*
X161242230Y-85128878D01*
X161365099Y-85161800D01*
X161365101Y-85161800D01*
X161492299Y-85161800D01*
X161492301Y-85161800D01*
X161615170Y-85128878D01*
X161725331Y-85065276D01*
X161815276Y-84975331D01*
X161878878Y-84865170D01*
X161911800Y-84742301D01*
X161911800Y-84615099D01*
X161885354Y-84516399D01*
X162456900Y-84516399D01*
X162456900Y-84643601D01*
X162469841Y-84691900D01*
X162489822Y-84766471D01*
X162496912Y-84778751D01*
X162553424Y-84876631D01*
X162643369Y-84966576D01*
X162753530Y-85030178D01*
X162876399Y-85063100D01*
X162876401Y-85063100D01*
X163003599Y-85063100D01*
X163003601Y-85063100D01*
X163126470Y-85030178D01*
X163236631Y-84966576D01*
X163326576Y-84876631D01*
X163390178Y-84766470D01*
X163423100Y-84643601D01*
X163423100Y-84516399D01*
X163390178Y-84393530D01*
X163326576Y-84283369D01*
X163236631Y-84193424D01*
X163170753Y-84155389D01*
X163126471Y-84129822D01*
X163058396Y-84111582D01*
X163003601Y-84096900D01*
X162876399Y-84096900D01*
X162753528Y-84129822D01*
X162643369Y-84193424D01*
X162643366Y-84193426D01*
X162553426Y-84283366D01*
X162553424Y-84283369D01*
X162489822Y-84393528D01*
X162463376Y-84492228D01*
X162456900Y-84516399D01*
X161885354Y-84516399D01*
X161878878Y-84492230D01*
X161815276Y-84382069D01*
X161725331Y-84292124D01*
X161669999Y-84260178D01*
X161615171Y-84228522D01*
X161553735Y-84212061D01*
X161492301Y-84195600D01*
X161365099Y-84195600D01*
X161242228Y-84228522D01*
X161132069Y-84292124D01*
X161132066Y-84292126D01*
X161042126Y-84382066D01*
X161042124Y-84382069D01*
X160978522Y-84492228D01*
X160945600Y-84615099D01*
X147005601Y-84615099D01*
X147005601Y-84528679D01*
X146972679Y-84405810D01*
X146970267Y-84401633D01*
X146934918Y-84340407D01*
X146918445Y-84272507D01*
X146941297Y-84206480D01*
X146980307Y-84171018D01*
X146991629Y-84164482D01*
X147081574Y-84074537D01*
X147145176Y-83964376D01*
X147148342Y-83952558D01*
X147151840Y-83939507D01*
X147188205Y-83879846D01*
X147251052Y-83849317D01*
X147271615Y-83847600D01*
X147273599Y-83847600D01*
X147273601Y-83847600D01*
X147396470Y-83814678D01*
X147506461Y-83751173D01*
X147574361Y-83734700D01*
X147632076Y-83754675D01*
X147632983Y-83753106D01*
X147640019Y-83757168D01*
X147640021Y-83757170D01*
X147673633Y-83776576D01*
X147739623Y-83814676D01*
X147750182Y-83820772D01*
X147873051Y-83853694D01*
X147873053Y-83853694D01*
X148000251Y-83853694D01*
X148000253Y-83853694D01*
X148123122Y-83820772D01*
X148233283Y-83757170D01*
X148233285Y-83757167D01*
X148233290Y-83757165D01*
X148239734Y-83752221D01*
X148241082Y-83753978D01*
X148292247Y-83726030D01*
X148361939Y-83731004D01*
X148406304Y-83759511D01*
X148423369Y-83776576D01*
X148533530Y-83840178D01*
X148656399Y-83873100D01*
X148656401Y-83873100D01*
X148783599Y-83873100D01*
X148783601Y-83873100D01*
X148906470Y-83840178D01*
X149016631Y-83776576D01*
X149106576Y-83686631D01*
X149170178Y-83576470D01*
X149203100Y-83453601D01*
X149203100Y-83326399D01*
X149170178Y-83203530D01*
X149106576Y-83093369D01*
X149016631Y-83003424D01*
X148929934Y-82953369D01*
X148906471Y-82939822D01*
X148834044Y-82920416D01*
X148783601Y-82906900D01*
X148656399Y-82906900D01*
X148533528Y-82939822D01*
X148423369Y-83003424D01*
X148416923Y-83008371D01*
X148415578Y-83006618D01*
X148364369Y-83034571D01*
X148294678Y-83029576D01*
X148250350Y-83001084D01*
X148233286Y-82984021D01*
X148233283Y-82984018D01*
X148145909Y-82933572D01*
X148123123Y-82920416D01*
X148049353Y-82900650D01*
X148000253Y-82887494D01*
X147873051Y-82887494D01*
X147750178Y-82920417D01*
X147640189Y-82983920D01*
X147572289Y-83000393D01*
X147514575Y-82980417D01*
X147513669Y-82981988D01*
X147506632Y-82977925D01*
X147506631Y-82977924D01*
X147429812Y-82933572D01*
X147396471Y-82914322D01*
X147308847Y-82890844D01*
X147273601Y-82881400D01*
X147146399Y-82881400D01*
X147023528Y-82914322D01*
X146913369Y-82977924D01*
X146913366Y-82977926D01*
X146823426Y-83067866D01*
X146823419Y-83067875D01*
X146802386Y-83104306D01*
X146751819Y-83152521D01*
X146683212Y-83165743D01*
X146618347Y-83139775D01*
X146587614Y-83104306D01*
X146566580Y-83067875D01*
X146566577Y-83067872D01*
X146566576Y-83067869D01*
X146476631Y-82977924D01*
X146399812Y-82933572D01*
X146366471Y-82914322D01*
X146278847Y-82890844D01*
X146243601Y-82881400D01*
X146116399Y-82881400D01*
X145993528Y-82914322D01*
X145883369Y-82977924D01*
X145883366Y-82977926D01*
X145793426Y-83067866D01*
X145793424Y-83067869D01*
X145729822Y-83178028D01*
X145707677Y-83260679D01*
X145696900Y-83300899D01*
X137399754Y-83300899D01*
X137413100Y-83251091D01*
X137413100Y-83123889D01*
X137380178Y-83001020D01*
X137377957Y-82997174D01*
X137367947Y-82979835D01*
X137316576Y-82890859D01*
X137226631Y-82800914D01*
X137135422Y-82748254D01*
X137116469Y-82737311D01*
X137091904Y-82730729D01*
X137068128Y-82716236D01*
X137042797Y-82704668D01*
X137038705Y-82698301D01*
X137032244Y-82694363D01*
X137020076Y-82669314D01*
X137005023Y-82645890D01*
X137003477Y-82635141D01*
X137001716Y-82631515D01*
X137000000Y-82610955D01*
X137000000Y-82530610D01*
X139512689Y-82530610D01*
X139512689Y-82657811D01*
X139545611Y-82780682D01*
X139561945Y-82808972D01*
X139609213Y-82890842D01*
X139699158Y-82980787D01*
X139809319Y-83044389D01*
X139932188Y-83077311D01*
X139932190Y-83077311D01*
X140059388Y-83077311D01*
X140059390Y-83077311D01*
X140182259Y-83044389D01*
X140292420Y-82980787D01*
X140382365Y-82890842D01*
X140445967Y-82780681D01*
X140478889Y-82657812D01*
X140478889Y-82636399D01*
X151776900Y-82636399D01*
X151776900Y-82763601D01*
X151784358Y-82791434D01*
X151809822Y-82886471D01*
X151840625Y-82939822D01*
X151873424Y-82996631D01*
X151963369Y-83086576D01*
X152055512Y-83139775D01*
X152072291Y-83149463D01*
X152073530Y-83150178D01*
X152196399Y-83183100D01*
X152196401Y-83183100D01*
X152252900Y-83183100D01*
X152319939Y-83202785D01*
X152365694Y-83255589D01*
X152376900Y-83307100D01*
X152376900Y-83338134D01*
X152409822Y-83461005D01*
X152423170Y-83484123D01*
X152473424Y-83571165D01*
X152563369Y-83661110D01*
X152673530Y-83724712D01*
X152796399Y-83757634D01*
X152796401Y-83757634D01*
X152923599Y-83757634D01*
X152923601Y-83757634D01*
X153046470Y-83724712D01*
X153156631Y-83661110D01*
X153246576Y-83571165D01*
X153310178Y-83461004D01*
X153343100Y-83338135D01*
X153343100Y-83320149D01*
X155440650Y-83320149D01*
X155440650Y-83447351D01*
X155442325Y-83453601D01*
X155473572Y-83570221D01*
X155477180Y-83576470D01*
X155537174Y-83680381D01*
X155627119Y-83770326D01*
X155714492Y-83820771D01*
X155734657Y-83832414D01*
X155737280Y-83833928D01*
X155860149Y-83866850D01*
X155860151Y-83866850D01*
X155987349Y-83866850D01*
X155987351Y-83866850D01*
X156110220Y-83833928D01*
X156220381Y-83770326D01*
X156310326Y-83680381D01*
X156373928Y-83570220D01*
X156406850Y-83447351D01*
X156406850Y-83320149D01*
X156373928Y-83197280D01*
X156310326Y-83087119D01*
X156220381Y-82997174D01*
X156149880Y-82956470D01*
X156110221Y-82933572D01*
X156048785Y-82917111D01*
X155987351Y-82900650D01*
X155860149Y-82900650D01*
X155737278Y-82933572D01*
X155627119Y-82997174D01*
X155627116Y-82997176D01*
X155537176Y-83087116D01*
X155537174Y-83087119D01*
X155473572Y-83197278D01*
X155445808Y-83300899D01*
X155440650Y-83320149D01*
X153343100Y-83320149D01*
X153343100Y-83210933D01*
X153310178Y-83088064D01*
X153309632Y-83087119D01*
X153297805Y-83066633D01*
X153246576Y-82977903D01*
X153156631Y-82887958D01*
X153125829Y-82870174D01*
X153077614Y-82819608D01*
X153064391Y-82751001D01*
X153082248Y-82706399D01*
X160866900Y-82706399D01*
X160866900Y-82833601D01*
X160881066Y-82886470D01*
X160899822Y-82956471D01*
X160923009Y-82996631D01*
X160963424Y-83066631D01*
X161053369Y-83156576D01*
X161163530Y-83220178D01*
X161286399Y-83253100D01*
X161286401Y-83253100D01*
X161413599Y-83253100D01*
X161413601Y-83253100D01*
X161536470Y-83220178D01*
X161646631Y-83156576D01*
X161736576Y-83066631D01*
X161771671Y-83005845D01*
X161822235Y-82957632D01*
X161890842Y-82944408D01*
X161941056Y-82960460D01*
X161992526Y-82990176D01*
X161992527Y-82990176D01*
X161992530Y-82990178D01*
X162115399Y-83023100D01*
X162115401Y-83023100D01*
X162242599Y-83023100D01*
X162242601Y-83023100D01*
X162365470Y-82990178D01*
X162475631Y-82926576D01*
X162565576Y-82836631D01*
X162629178Y-82726470D01*
X162662100Y-82603601D01*
X162662100Y-82476399D01*
X162629178Y-82353530D01*
X162565576Y-82243369D01*
X162475631Y-82153424D01*
X162365470Y-82089822D01*
X162327970Y-82079774D01*
X162268311Y-82043411D01*
X162237781Y-81980564D01*
X162246075Y-81911189D01*
X162290560Y-81857310D01*
X162327970Y-81840225D01*
X162365470Y-81830178D01*
X162475631Y-81766576D01*
X162565576Y-81676631D01*
X162629178Y-81566470D01*
X162662100Y-81443601D01*
X162662100Y-81316399D01*
X162629178Y-81193530D01*
X162565576Y-81083369D01*
X162475631Y-80993424D01*
X162420550Y-80961623D01*
X162365471Y-80929822D01*
X162278713Y-80906576D01*
X162242601Y-80896900D01*
X162115399Y-80896900D01*
X161992528Y-80929822D01*
X161882369Y-80993424D01*
X161882366Y-80993426D01*
X161792426Y-81083366D01*
X161792424Y-81083369D01*
X161728822Y-81193528D01*
X161717891Y-81234324D01*
X161695900Y-81316399D01*
X161695900Y-81443601D01*
X161711842Y-81503099D01*
X161728822Y-81566471D01*
X161752587Y-81607632D01*
X161792424Y-81676631D01*
X161882369Y-81766576D01*
X161992530Y-81830178D01*
X162030029Y-81840225D01*
X162089689Y-81876590D01*
X162120218Y-81939437D01*
X162111924Y-82008812D01*
X162067438Y-82062690D01*
X162030029Y-82079774D01*
X162025097Y-82081096D01*
X161992528Y-82089822D01*
X161882369Y-82153424D01*
X161882366Y-82153426D01*
X161792426Y-82243366D01*
X161792421Y-82243372D01*
X161757328Y-82304154D01*
X161706760Y-82352369D01*
X161638152Y-82365590D01*
X161587942Y-82349539D01*
X161536473Y-82319823D01*
X161536470Y-82319822D01*
X161413601Y-82286900D01*
X161286399Y-82286900D01*
X161163528Y-82319822D01*
X161053369Y-82383424D01*
X161053366Y-82383426D01*
X160963426Y-82473366D01*
X160963424Y-82473369D01*
X160899822Y-82583528D01*
X160876837Y-82669314D01*
X160866900Y-82706399D01*
X153082248Y-82706399D01*
X153090360Y-82686136D01*
X153147274Y-82645608D01*
X153187830Y-82638788D01*
X153273599Y-82638788D01*
X153273601Y-82638788D01*
X153396470Y-82605866D01*
X153506631Y-82542264D01*
X153596576Y-82452319D01*
X153660178Y-82342158D01*
X153693100Y-82219289D01*
X153693100Y-82092087D01*
X153660178Y-81969218D01*
X153596576Y-81859057D01*
X153506631Y-81769112D01*
X153441806Y-81731685D01*
X153396471Y-81705510D01*
X153288697Y-81676633D01*
X153273601Y-81672588D01*
X153146399Y-81672588D01*
X153023528Y-81705510D01*
X152913369Y-81769112D01*
X152913366Y-81769114D01*
X152823426Y-81859054D01*
X152823424Y-81859057D01*
X152759822Y-81969216D01*
X152726900Y-82092087D01*
X152726900Y-82196954D01*
X152707215Y-82263993D01*
X152654411Y-82309748D01*
X152585253Y-82319692D01*
X152540900Y-82304341D01*
X152446473Y-82249823D01*
X152446470Y-82249822D01*
X152323601Y-82216900D01*
X152196399Y-82216900D01*
X152073528Y-82249822D01*
X151963369Y-82313424D01*
X151963366Y-82313426D01*
X151873426Y-82403366D01*
X151873424Y-82403369D01*
X151809822Y-82513528D01*
X151781400Y-82619603D01*
X151776900Y-82636399D01*
X140478889Y-82636399D01*
X140478889Y-82530610D01*
X140445967Y-82407741D01*
X140382365Y-82297580D01*
X140292420Y-82207635D01*
X140237339Y-82175834D01*
X140182260Y-82144033D01*
X140120824Y-82127572D01*
X140059390Y-82111111D01*
X139932188Y-82111111D01*
X139809317Y-82144033D01*
X139699158Y-82207635D01*
X139699155Y-82207637D01*
X139609215Y-82297577D01*
X139609213Y-82297580D01*
X139545611Y-82407739D01*
X139512689Y-82530610D01*
X137000000Y-82530610D01*
X137000000Y-78500899D01*
X143755341Y-78500899D01*
X143755341Y-78628100D01*
X143788263Y-78750971D01*
X143813848Y-78795284D01*
X143851865Y-78861131D01*
X143851868Y-78861134D01*
X143856812Y-78867577D01*
X143855344Y-78868702D01*
X143883908Y-78921012D01*
X143878924Y-78990704D01*
X143870131Y-79009366D01*
X143855324Y-79035012D01*
X143855323Y-79035017D01*
X143855322Y-79035019D01*
X143822400Y-79157888D01*
X143822400Y-79285090D01*
X143827313Y-79303426D01*
X143855322Y-79407960D01*
X143882514Y-79455057D01*
X143914746Y-79510884D01*
X143921828Y-79523149D01*
X143938301Y-79591049D01*
X143921829Y-79647149D01*
X143894636Y-79694247D01*
X143876053Y-79763604D01*
X143861714Y-79817119D01*
X143861714Y-79944321D01*
X143873051Y-79986631D01*
X143894636Y-80067191D01*
X143909782Y-80093424D01*
X143958238Y-80177351D01*
X144048183Y-80267296D01*
X144158344Y-80330898D01*
X144177108Y-80335925D01*
X144236768Y-80372289D01*
X144267298Y-80435135D01*
X144259004Y-80504511D01*
X144214520Y-80558389D01*
X144196908Y-80567871D01*
X144083369Y-80633424D01*
X144083366Y-80633426D01*
X143993426Y-80723366D01*
X143993424Y-80723369D01*
X143929822Y-80833528D01*
X143896900Y-80956399D01*
X143896900Y-81083600D01*
X143929822Y-81206471D01*
X143946115Y-81234690D01*
X143993424Y-81316631D01*
X144083369Y-81406576D01*
X144193530Y-81470178D01*
X144316399Y-81503100D01*
X144331260Y-81503100D01*
X144398299Y-81522785D01*
X144444054Y-81575589D01*
X144451034Y-81595004D01*
X144454417Y-81607631D01*
X144471127Y-81636573D01*
X144518020Y-81717793D01*
X144607965Y-81807738D01*
X144718126Y-81871340D01*
X144840995Y-81904262D01*
X144840997Y-81904262D01*
X144861569Y-81904262D01*
X144928608Y-81923947D01*
X144974363Y-81976751D01*
X144985569Y-82028262D01*
X144985569Y-82086314D01*
X144992213Y-82111111D01*
X145018491Y-82209184D01*
X145033189Y-82234641D01*
X145082093Y-82319344D01*
X145172038Y-82409289D01*
X145282199Y-82472891D01*
X145405068Y-82505813D01*
X145405070Y-82505813D01*
X145532267Y-82505813D01*
X145532270Y-82505813D01*
X145655139Y-82472891D01*
X145765300Y-82409289D01*
X145855245Y-82319344D01*
X145918847Y-82209183D01*
X145951769Y-82086314D01*
X145951769Y-81959112D01*
X145918847Y-81836243D01*
X145855245Y-81726082D01*
X145850025Y-81720862D01*
X150636900Y-81720862D01*
X150636900Y-81848064D01*
X150649082Y-81893530D01*
X150669822Y-81970934D01*
X150696072Y-82016399D01*
X150733424Y-82081094D01*
X150823369Y-82171039D01*
X150933530Y-82234641D01*
X151056399Y-82267563D01*
X151056401Y-82267563D01*
X151183599Y-82267563D01*
X151183601Y-82267563D01*
X151306470Y-82234641D01*
X151416631Y-82171039D01*
X151506576Y-82081094D01*
X151570178Y-81970933D01*
X151603100Y-81848064D01*
X151603100Y-81844459D01*
X151603960Y-81841529D01*
X151604161Y-81840004D01*
X151604398Y-81840035D01*
X151622785Y-81777420D01*
X151675589Y-81731665D01*
X151695000Y-81724686D01*
X151786470Y-81700178D01*
X151896631Y-81636576D01*
X151986576Y-81546631D01*
X152050178Y-81436470D01*
X152083100Y-81313601D01*
X152083100Y-81301363D01*
X152102785Y-81234324D01*
X152155589Y-81188569D01*
X152224747Y-81178625D01*
X152239184Y-81181586D01*
X152298696Y-81197532D01*
X152298698Y-81197532D01*
X152425896Y-81197532D01*
X152425898Y-81197532D01*
X152548767Y-81164610D01*
X152658928Y-81101008D01*
X152748873Y-81011063D01*
X152812475Y-80900902D01*
X152845397Y-80778033D01*
X152845397Y-80736835D01*
X152865082Y-80669796D01*
X152917886Y-80624041D01*
X152987044Y-80614097D01*
X153001480Y-80617058D01*
X153076399Y-80637132D01*
X153076401Y-80637132D01*
X153203599Y-80637132D01*
X153203601Y-80637132D01*
X153326470Y-80604210D01*
X153436631Y-80540608D01*
X153526576Y-80450663D01*
X153590178Y-80340502D01*
X153623100Y-80217633D01*
X153623100Y-80090431D01*
X153590178Y-79967562D01*
X153589640Y-79966631D01*
X153576759Y-79944320D01*
X153526576Y-79857401D01*
X153436631Y-79767456D01*
X153412630Y-79753599D01*
X153358667Y-79722442D01*
X153350384Y-79713755D01*
X153339466Y-79708769D01*
X153326719Y-79688934D01*
X153310453Y-79671874D01*
X153307237Y-79658620D01*
X153301692Y-79649991D01*
X153296669Y-79615056D01*
X153296669Y-79606399D01*
X157656900Y-79606399D01*
X157656900Y-79733601D01*
X157662259Y-79753600D01*
X157689822Y-79856471D01*
X157721623Y-79911550D01*
X157753424Y-79966631D01*
X157753426Y-79966633D01*
X157776910Y-79990117D01*
X157810395Y-80051440D01*
X157805411Y-80121132D01*
X157796617Y-80139797D01*
X157759822Y-80203527D01*
X157726900Y-80326399D01*
X157726900Y-80453600D01*
X157759822Y-80576471D01*
X157763939Y-80583601D01*
X157823424Y-80686631D01*
X157913369Y-80776576D01*
X158023530Y-80840178D01*
X158146399Y-80873100D01*
X158146401Y-80873100D01*
X158273599Y-80873100D01*
X158273601Y-80873100D01*
X158396470Y-80840178D01*
X158506631Y-80776576D01*
X158596576Y-80686631D01*
X158660178Y-80576470D01*
X158693100Y-80453601D01*
X158693100Y-80416399D01*
X165646900Y-80416399D01*
X165646900Y-80543601D01*
X165652579Y-80564794D01*
X165679822Y-80666471D01*
X165681742Y-80669796D01*
X165743424Y-80776631D01*
X165833369Y-80866576D01*
X165943530Y-80930178D01*
X166066399Y-80963100D01*
X166066401Y-80963100D01*
X166193599Y-80963100D01*
X166193601Y-80963100D01*
X166316470Y-80930178D01*
X166426631Y-80866576D01*
X166516576Y-80776631D01*
X166580178Y-80666470D01*
X166613100Y-80543601D01*
X166613100Y-80416399D01*
X166580178Y-80293530D01*
X166516576Y-80183369D01*
X166426631Y-80093424D01*
X166352233Y-80050470D01*
X166316471Y-80029822D01*
X166243772Y-80010343D01*
X166193601Y-79996900D01*
X166066399Y-79996900D01*
X165943528Y-80029822D01*
X165833369Y-80093424D01*
X165833366Y-80093426D01*
X165743426Y-80183366D01*
X165743424Y-80183369D01*
X165679822Y-80293528D01*
X165668268Y-80336650D01*
X165646900Y-80416399D01*
X158693100Y-80416399D01*
X158693100Y-80326399D01*
X158660178Y-80203530D01*
X158596576Y-80093369D01*
X158573087Y-80069880D01*
X158539603Y-80008556D01*
X158544589Y-79938864D01*
X158553384Y-79920199D01*
X158590175Y-79856475D01*
X158590176Y-79856473D01*
X158590177Y-79856471D01*
X158590178Y-79856470D01*
X158623100Y-79733601D01*
X158623100Y-79720943D01*
X158642785Y-79653904D01*
X158674527Y-79626399D01*
X160996900Y-79626399D01*
X160996900Y-79753601D01*
X161000613Y-79767458D01*
X161029822Y-79876471D01*
X161055069Y-79920199D01*
X161093424Y-79986631D01*
X161183369Y-80076576D01*
X161293530Y-80140178D01*
X161416399Y-80173100D01*
X161416401Y-80173100D01*
X161543599Y-80173100D01*
X161543601Y-80173100D01*
X161666470Y-80140178D01*
X161776631Y-80076576D01*
X161866576Y-79986631D01*
X161930178Y-79876470D01*
X161963100Y-79753601D01*
X161963100Y-79626399D01*
X161930178Y-79503530D01*
X161866576Y-79393369D01*
X161776631Y-79303424D01*
X161721550Y-79271623D01*
X161666471Y-79239822D01*
X161605035Y-79223361D01*
X161543601Y-79206900D01*
X161416399Y-79206900D01*
X161293528Y-79239822D01*
X161183369Y-79303424D01*
X161183366Y-79303426D01*
X161093426Y-79393366D01*
X161093424Y-79393369D01*
X161029822Y-79503528D01*
X161011964Y-79570177D01*
X160996900Y-79626399D01*
X158674527Y-79626399D01*
X158695589Y-79608149D01*
X158764747Y-79598205D01*
X158779186Y-79601167D01*
X158786399Y-79603100D01*
X158786401Y-79603100D01*
X158913599Y-79603100D01*
X158913601Y-79603100D01*
X159036470Y-79570178D01*
X159139168Y-79510884D01*
X159139170Y-79510884D01*
X159146624Y-79506580D01*
X159146623Y-79506580D01*
X159146631Y-79506576D01*
X159236576Y-79416631D01*
X159300178Y-79306470D01*
X159333100Y-79183601D01*
X159333100Y-79056399D01*
X159300178Y-78933530D01*
X159236576Y-78823369D01*
X159146631Y-78733424D01*
X159091550Y-78701623D01*
X159036471Y-78669822D01*
X158975035Y-78653361D01*
X158913601Y-78636900D01*
X158786399Y-78636900D01*
X158663528Y-78669822D01*
X158553369Y-78733424D01*
X158553366Y-78733426D01*
X158463426Y-78823366D01*
X158463424Y-78823369D01*
X158399822Y-78933528D01*
X158366900Y-79056399D01*
X158366900Y-79069056D01*
X158347215Y-79136095D01*
X158294411Y-79181850D01*
X158225253Y-79191794D01*
X158210808Y-79188831D01*
X158203602Y-79186900D01*
X158203601Y-79186900D01*
X158076399Y-79186900D01*
X157953528Y-79219822D01*
X157843369Y-79283424D01*
X157843366Y-79283426D01*
X157753426Y-79373366D01*
X157753424Y-79373369D01*
X157689822Y-79483528D01*
X157658301Y-79601170D01*
X157656900Y-79606399D01*
X153296669Y-79606399D01*
X153296669Y-79482832D01*
X153296669Y-79482830D01*
X153263747Y-79359961D01*
X153200145Y-79249800D01*
X153110200Y-79159855D01*
X153053686Y-79127226D01*
X153044996Y-79118113D01*
X153033592Y-79112772D01*
X153021342Y-79093304D01*
X153005473Y-79076661D01*
X153002199Y-79062882D01*
X152996382Y-79053636D01*
X152994786Y-79031674D01*
X152991694Y-79018654D01*
X152991802Y-79007365D01*
X152992705Y-79003996D01*
X152992705Y-78913025D01*
X152992711Y-78912399D01*
X153002712Y-78879502D01*
X153012390Y-78846547D01*
X153012855Y-78846143D01*
X153013036Y-78845551D01*
X153039280Y-78823245D01*
X153060025Y-78805270D01*
X153059431Y-78804242D01*
X153064769Y-78801159D01*
X153065194Y-78800792D01*
X153066058Y-78800415D01*
X153066467Y-78800178D01*
X153066470Y-78800178D01*
X153176631Y-78736576D01*
X153266576Y-78646631D01*
X153330178Y-78536470D01*
X153363100Y-78413601D01*
X153363100Y-78286399D01*
X153330178Y-78163530D01*
X153266576Y-78053369D01*
X153176631Y-77963424D01*
X153129823Y-77936399D01*
X157756900Y-77936399D01*
X157756900Y-78063600D01*
X157789822Y-78186471D01*
X157791757Y-78189822D01*
X157853424Y-78296631D01*
X157943369Y-78386576D01*
X158053530Y-78450178D01*
X158176399Y-78483100D01*
X158176401Y-78483100D01*
X158303599Y-78483100D01*
X158303601Y-78483100D01*
X158426470Y-78450178D01*
X158536631Y-78386576D01*
X158626576Y-78296631D01*
X158690178Y-78186470D01*
X158723100Y-78063601D01*
X158723100Y-77936399D01*
X158690178Y-77813530D01*
X158626576Y-77703369D01*
X158536631Y-77613424D01*
X158481550Y-77581623D01*
X158426471Y-77549822D01*
X158365035Y-77533361D01*
X158303601Y-77516900D01*
X158176399Y-77516900D01*
X158053528Y-77549822D01*
X157943369Y-77613424D01*
X157943366Y-77613426D01*
X157853426Y-77703366D01*
X157853424Y-77703369D01*
X157789822Y-77813528D01*
X157756900Y-77936399D01*
X153129823Y-77936399D01*
X153112809Y-77926576D01*
X153066471Y-77899822D01*
X153005035Y-77883361D01*
X152943601Y-77866900D01*
X152816399Y-77866900D01*
X152693528Y-77899822D01*
X152583369Y-77963424D01*
X152583366Y-77963426D01*
X152493426Y-78053366D01*
X152493424Y-78053369D01*
X152429822Y-78163528D01*
X152396900Y-78286399D01*
X152396900Y-78376808D01*
X152377215Y-78443847D01*
X152329579Y-78485123D01*
X152330174Y-78486153D01*
X152324831Y-78489237D01*
X152324411Y-78489602D01*
X152323553Y-78489975D01*
X152212974Y-78553819D01*
X152212971Y-78553821D01*
X152123031Y-78643761D01*
X152123029Y-78643764D01*
X152059427Y-78753923D01*
X152039989Y-78826470D01*
X152026505Y-78876794D01*
X152026505Y-79003996D01*
X152039806Y-79053636D01*
X152059427Y-79126866D01*
X152064756Y-79136095D01*
X152123029Y-79237026D01*
X152212974Y-79326971D01*
X152229814Y-79336693D01*
X152269485Y-79359599D01*
X152317700Y-79410166D01*
X152330138Y-79474703D01*
X152330469Y-79474703D01*
X152330469Y-79476422D01*
X152330922Y-79478773D01*
X152330469Y-79482765D01*
X152330469Y-79482830D01*
X152330469Y-79610032D01*
X152334855Y-79626401D01*
X152363391Y-79732902D01*
X152395192Y-79787981D01*
X152426993Y-79843062D01*
X152516938Y-79933007D01*
X152594901Y-79978019D01*
X152603182Y-79986704D01*
X152614103Y-79991692D01*
X152626849Y-80011525D01*
X152643115Y-80028585D01*
X152646330Y-80041839D01*
X152651877Y-80050470D01*
X152656900Y-80085405D01*
X152656900Y-80131628D01*
X152637215Y-80198667D01*
X152584411Y-80244422D01*
X152515253Y-80254366D01*
X152500808Y-80251403D01*
X152425899Y-80231332D01*
X152425898Y-80231332D01*
X152298696Y-80231332D01*
X152175825Y-80264254D01*
X152065666Y-80327856D01*
X152065663Y-80327858D01*
X151975723Y-80417798D01*
X151975721Y-80417801D01*
X151912119Y-80527960D01*
X151879197Y-80650831D01*
X151879197Y-80663068D01*
X151859512Y-80730107D01*
X151806708Y-80775862D01*
X151737550Y-80785806D01*
X151723105Y-80782843D01*
X151663602Y-80766900D01*
X151663601Y-80766900D01*
X151536399Y-80766900D01*
X151413528Y-80799822D01*
X151303369Y-80863424D01*
X151303366Y-80863426D01*
X151213426Y-80953366D01*
X151213424Y-80953369D01*
X151149822Y-81063528D01*
X151116900Y-81186399D01*
X151116900Y-81190003D01*
X151116040Y-81192931D01*
X151115839Y-81194459D01*
X151115600Y-81194427D01*
X151097215Y-81257042D01*
X151044411Y-81302797D01*
X151024993Y-81309778D01*
X150933529Y-81334285D01*
X150823369Y-81397887D01*
X150823366Y-81397889D01*
X150733426Y-81487829D01*
X150733424Y-81487832D01*
X150669822Y-81597991D01*
X150659484Y-81636575D01*
X150636900Y-81720862D01*
X145850025Y-81720862D01*
X145765300Y-81636137D01*
X145664844Y-81578138D01*
X145655140Y-81572535D01*
X145566818Y-81548870D01*
X145532270Y-81539613D01*
X145511696Y-81539613D01*
X145444657Y-81519928D01*
X145398902Y-81467124D01*
X145387696Y-81415613D01*
X145387696Y-81357563D01*
X145387696Y-81357561D01*
X145354774Y-81234692D01*
X145291172Y-81124531D01*
X145201227Y-81034586D01*
X145146146Y-81002785D01*
X145091067Y-80970984D01*
X145025313Y-80953366D01*
X144968197Y-80938062D01*
X144968196Y-80938062D01*
X144953336Y-80938062D01*
X144886297Y-80918377D01*
X144840542Y-80865573D01*
X144833562Y-80846158D01*
X144830178Y-80833530D01*
X144820421Y-80816631D01*
X144766576Y-80723369D01*
X144676631Y-80633424D01*
X144566470Y-80569822D01*
X144547701Y-80564793D01*
X144488043Y-80528428D01*
X144457515Y-80465581D01*
X144465810Y-80396205D01*
X144510296Y-80342328D01*
X144527879Y-80332863D01*
X144531281Y-80330898D01*
X144531284Y-80330898D01*
X144641445Y-80267296D01*
X144731390Y-80177351D01*
X144794992Y-80067190D01*
X144827914Y-79944321D01*
X144827914Y-79817119D01*
X144794992Y-79694250D01*
X144731390Y-79584089D01*
X144731387Y-79584086D01*
X144728485Y-79579059D01*
X144712012Y-79511159D01*
X144728486Y-79455057D01*
X144755675Y-79407964D01*
X144755676Y-79407962D01*
X144755677Y-79407960D01*
X144755678Y-79407959D01*
X144788600Y-79285090D01*
X144788600Y-79157888D01*
X144755678Y-79035019D01*
X144692076Y-78924858D01*
X144692071Y-78924853D01*
X144687129Y-78918412D01*
X144688595Y-78917286D01*
X144660032Y-78864976D01*
X144665016Y-78795284D01*
X144673812Y-78776616D01*
X144688618Y-78750972D01*
X144688619Y-78750970D01*
X144721541Y-78628101D01*
X144721541Y-78500899D01*
X144688619Y-78378030D01*
X144687913Y-78376808D01*
X144668607Y-78343369D01*
X144625017Y-78267869D01*
X144535072Y-78177924D01*
X144479991Y-78146123D01*
X144424912Y-78114322D01*
X144346917Y-78093424D01*
X144302042Y-78081400D01*
X144174840Y-78081400D01*
X144051969Y-78114322D01*
X143941810Y-78177924D01*
X143941807Y-78177926D01*
X143851867Y-78267866D01*
X143851865Y-78267869D01*
X143788263Y-78378028D01*
X143755341Y-78500899D01*
X137000000Y-78500899D01*
X137000000Y-77346399D01*
X161276900Y-77346399D01*
X161276900Y-77473600D01*
X161309822Y-77596471D01*
X161341623Y-77651550D01*
X161373424Y-77706631D01*
X161463369Y-77796576D01*
X161573530Y-77860178D01*
X161696399Y-77893100D01*
X161696401Y-77893100D01*
X161823599Y-77893100D01*
X161823601Y-77893100D01*
X161946470Y-77860178D01*
X162056631Y-77796576D01*
X162146576Y-77706631D01*
X162210178Y-77596470D01*
X162242350Y-77476399D01*
X163006900Y-77476399D01*
X163006900Y-77603600D01*
X163039822Y-77726471D01*
X163071623Y-77781550D01*
X163103424Y-77836631D01*
X163103426Y-77836633D01*
X163199116Y-77932323D01*
X163198018Y-77933420D01*
X163233779Y-77982398D01*
X163237931Y-78052144D01*
X163204770Y-78112023D01*
X163133424Y-78183369D01*
X163069822Y-78293528D01*
X163056468Y-78343369D01*
X163036900Y-78416399D01*
X163036900Y-78543601D01*
X163045688Y-78576399D01*
X163069822Y-78666471D01*
X163071757Y-78669822D01*
X163133424Y-78776631D01*
X163223369Y-78866576D01*
X163302736Y-78912399D01*
X163327973Y-78926970D01*
X163333530Y-78930178D01*
X163456399Y-78963100D01*
X163456401Y-78963100D01*
X163583599Y-78963100D01*
X163583601Y-78963100D01*
X163706470Y-78930178D01*
X163816631Y-78866576D01*
X163906576Y-78776631D01*
X163970178Y-78666470D01*
X164003100Y-78543601D01*
X164003100Y-78416399D01*
X163970178Y-78293530D01*
X163906576Y-78183369D01*
X163816631Y-78093424D01*
X163810884Y-78087677D01*
X163811981Y-78086579D01*
X163776219Y-78037598D01*
X163772069Y-77967852D01*
X163805227Y-77907979D01*
X163876576Y-77836631D01*
X163940178Y-77726470D01*
X163973100Y-77603601D01*
X163973100Y-77476399D01*
X163940178Y-77353530D01*
X163876576Y-77243369D01*
X163786631Y-77153424D01*
X163731550Y-77121623D01*
X163676471Y-77089822D01*
X163615035Y-77073361D01*
X163553601Y-77056900D01*
X163426399Y-77056900D01*
X163303528Y-77089822D01*
X163193369Y-77153424D01*
X163193366Y-77153426D01*
X163103426Y-77243366D01*
X163103424Y-77243369D01*
X163039822Y-77353528D01*
X163006900Y-77476399D01*
X162242350Y-77476399D01*
X162243100Y-77473601D01*
X162243100Y-77346399D01*
X162210178Y-77223530D01*
X162146576Y-77113369D01*
X162056631Y-77023424D01*
X162001550Y-76991623D01*
X161946471Y-76959822D01*
X161846740Y-76933100D01*
X161823601Y-76926900D01*
X161696399Y-76926900D01*
X161573528Y-76959822D01*
X161463369Y-77023424D01*
X161463366Y-77023426D01*
X161373426Y-77113366D01*
X161373424Y-77113369D01*
X161309822Y-77223528D01*
X161276900Y-77346399D01*
X137000000Y-77346399D01*
X137000000Y-76316399D01*
X142206900Y-76316399D01*
X142206900Y-76443600D01*
X142239822Y-76566471D01*
X142251617Y-76586900D01*
X142303424Y-76676631D01*
X142393369Y-76766576D01*
X142503530Y-76830178D01*
X142626399Y-76863100D01*
X142626401Y-76863100D01*
X142753599Y-76863100D01*
X142753601Y-76863100D01*
X142876470Y-76830178D01*
X142986631Y-76766576D01*
X143076576Y-76676631D01*
X143140178Y-76566470D01*
X143173100Y-76443601D01*
X143173100Y-76316399D01*
X143140178Y-76193530D01*
X143076576Y-76083369D01*
X142986631Y-75993424D01*
X142905487Y-75946575D01*
X142876471Y-75929822D01*
X142815035Y-75913361D01*
X142753601Y-75896900D01*
X142626399Y-75896900D01*
X142503528Y-75929822D01*
X142393369Y-75993424D01*
X142393366Y-75993426D01*
X142303426Y-76083366D01*
X142303424Y-76083369D01*
X142239822Y-76193528D01*
X142206900Y-76316399D01*
X137000000Y-76316399D01*
X137000000Y-75628399D01*
X155091900Y-75628399D01*
X155091900Y-75755600D01*
X155124822Y-75878471D01*
X155147257Y-75917328D01*
X155188424Y-75988631D01*
X155278369Y-76078576D01*
X155373768Y-76133655D01*
X155385675Y-76140530D01*
X155388530Y-76142178D01*
X155511399Y-76175100D01*
X155511401Y-76175100D01*
X155638599Y-76175100D01*
X155638601Y-76175100D01*
X155761470Y-76142178D01*
X155871631Y-76078576D01*
X155961576Y-75988631D01*
X156025178Y-75878470D01*
X156058100Y-75755601D01*
X156058100Y-75628399D01*
X156025178Y-75505530D01*
X155961576Y-75395369D01*
X155871631Y-75305424D01*
X155816550Y-75273623D01*
X155761471Y-75241822D01*
X155698554Y-75224964D01*
X155638601Y-75208900D01*
X155511399Y-75208900D01*
X155388528Y-75241822D01*
X155278369Y-75305424D01*
X155278366Y-75305426D01*
X155188426Y-75395366D01*
X155188424Y-75395369D01*
X155124822Y-75505528D01*
X155091900Y-75628399D01*
X137000000Y-75628399D01*
X137000000Y-73986399D01*
X146336900Y-73986399D01*
X146336900Y-74113600D01*
X146369822Y-74236471D01*
X146373148Y-74242231D01*
X146433424Y-74346631D01*
X146523369Y-74436576D01*
X146527235Y-74438808D01*
X146575451Y-74489375D01*
X146588674Y-74557982D01*
X146562706Y-74622847D01*
X146552917Y-74633875D01*
X146513427Y-74673365D01*
X146513424Y-74673369D01*
X146449822Y-74783528D01*
X146416900Y-74906399D01*
X146416900Y-75033600D01*
X146449822Y-75156471D01*
X146473684Y-75197800D01*
X146513424Y-75266631D01*
X146603369Y-75356576D01*
X146713530Y-75420178D01*
X146836399Y-75453100D01*
X146836401Y-75453100D01*
X146963599Y-75453100D01*
X146963601Y-75453100D01*
X147086470Y-75420178D01*
X147196631Y-75356576D01*
X147286576Y-75266631D01*
X147350178Y-75156470D01*
X147373187Y-75070599D01*
X153126900Y-75070599D01*
X153126900Y-75197800D01*
X153159822Y-75320671D01*
X153185328Y-75364848D01*
X153223424Y-75430831D01*
X153313369Y-75520776D01*
X153423530Y-75584378D01*
X153546399Y-75617300D01*
X153546401Y-75617300D01*
X153673599Y-75617300D01*
X153673601Y-75617300D01*
X153796470Y-75584378D01*
X153906631Y-75520776D01*
X153996576Y-75430831D01*
X154060178Y-75320670D01*
X154093100Y-75197801D01*
X154093100Y-75070599D01*
X154060178Y-74947730D01*
X153996576Y-74837569D01*
X153906631Y-74747624D01*
X153851550Y-74715823D01*
X153796471Y-74684022D01*
X153728907Y-74665919D01*
X153673601Y-74651100D01*
X153546399Y-74651100D01*
X153423528Y-74684022D01*
X153313369Y-74747624D01*
X153313366Y-74747626D01*
X153223426Y-74837566D01*
X153223424Y-74837569D01*
X153159822Y-74947728D01*
X153126900Y-75070599D01*
X147373187Y-75070599D01*
X147383100Y-75033601D01*
X147383100Y-74906399D01*
X147350178Y-74783530D01*
X147286576Y-74673369D01*
X147196631Y-74583424D01*
X147196628Y-74583422D01*
X147196624Y-74583419D01*
X147192761Y-74581189D01*
X147144547Y-74530621D01*
X147131326Y-74462014D01*
X147157296Y-74397149D01*
X147167076Y-74386130D01*
X147206576Y-74346631D01*
X147270178Y-74236470D01*
X147303100Y-74113601D01*
X147303100Y-74104399D01*
X154964900Y-74104399D01*
X154964900Y-74231600D01*
X154997822Y-74354471D01*
X155010252Y-74376000D01*
X155061424Y-74464631D01*
X155151369Y-74554576D01*
X155246768Y-74609655D01*
X155258675Y-74616530D01*
X155261530Y-74618178D01*
X155384399Y-74651100D01*
X155384401Y-74651100D01*
X155511599Y-74651100D01*
X155511601Y-74651100D01*
X155634470Y-74618178D01*
X155744631Y-74554576D01*
X155834576Y-74464631D01*
X155898178Y-74354470D01*
X155931100Y-74231601D01*
X155931100Y-74104399D01*
X155898178Y-73981530D01*
X155834576Y-73871369D01*
X155744631Y-73781424D01*
X155643122Y-73722817D01*
X155634471Y-73717822D01*
X155573035Y-73701361D01*
X155511601Y-73684900D01*
X155384399Y-73684900D01*
X155261528Y-73717822D01*
X155151369Y-73781424D01*
X155151366Y-73781426D01*
X155061426Y-73871366D01*
X155061424Y-73871369D01*
X154997822Y-73981528D01*
X154964900Y-74104399D01*
X147303100Y-74104399D01*
X147303100Y-73986399D01*
X147270178Y-73863530D01*
X147206576Y-73753369D01*
X147116631Y-73663424D01*
X147037749Y-73617881D01*
X147006471Y-73599822D01*
X146945035Y-73583361D01*
X146883601Y-73566900D01*
X146756399Y-73566900D01*
X146633528Y-73599822D01*
X146523369Y-73663424D01*
X146523366Y-73663426D01*
X146433426Y-73753366D01*
X146433424Y-73753369D01*
X146369822Y-73863528D01*
X146336900Y-73986399D01*
X137000000Y-73986399D01*
X137000000Y-72707399D01*
X147217900Y-72707399D01*
X147217900Y-72834601D01*
X147226880Y-72868114D01*
X147250822Y-72957471D01*
X147282623Y-73012550D01*
X147314424Y-73067631D01*
X147404369Y-73157576D01*
X147514530Y-73221178D01*
X147637399Y-73254100D01*
X147637401Y-73254100D01*
X147764599Y-73254100D01*
X147764601Y-73254100D01*
X147887470Y-73221178D01*
X147997631Y-73157576D01*
X148018810Y-73136397D01*
X148356900Y-73136397D01*
X148356900Y-73263600D01*
X148389822Y-73386471D01*
X148406064Y-73414602D01*
X148453424Y-73496631D01*
X148543369Y-73586576D01*
X148653530Y-73650178D01*
X148776399Y-73683100D01*
X148776401Y-73683100D01*
X148903599Y-73683100D01*
X148903601Y-73683100D01*
X149026470Y-73650178D01*
X149136631Y-73586576D01*
X149226576Y-73496631D01*
X149290178Y-73386470D01*
X149323100Y-73263601D01*
X149323100Y-73136399D01*
X149290178Y-73013530D01*
X149226576Y-72903369D01*
X149136631Y-72813424D01*
X149081550Y-72781623D01*
X149026471Y-72749822D01*
X148965035Y-72733361D01*
X148903601Y-72716900D01*
X148776399Y-72716900D01*
X148653528Y-72749822D01*
X148543369Y-72813424D01*
X148543366Y-72813426D01*
X148453426Y-72903366D01*
X148453420Y-72903375D01*
X148394078Y-73006155D01*
X148394075Y-73006162D01*
X148389822Y-73013530D01*
X148379992Y-73050216D01*
X148379982Y-73050248D01*
X148356900Y-73136397D01*
X148018810Y-73136397D01*
X148087576Y-73067631D01*
X148151178Y-72957470D01*
X148184100Y-72834601D01*
X148184100Y-72707399D01*
X148151178Y-72584530D01*
X148087576Y-72474369D01*
X147997631Y-72384424D01*
X147942550Y-72352623D01*
X147887471Y-72320822D01*
X147826035Y-72304361D01*
X147764601Y-72287900D01*
X147637399Y-72287900D01*
X147514528Y-72320822D01*
X147404369Y-72384424D01*
X147404366Y-72384426D01*
X147314426Y-72474366D01*
X147314424Y-72474369D01*
X147250822Y-72584528D01*
X147217900Y-72707399D01*
X137000000Y-72707399D01*
X137000000Y-71506399D01*
X139056900Y-71506399D01*
X139056900Y-71633600D01*
X139089822Y-71756471D01*
X139105486Y-71783601D01*
X139153424Y-71866631D01*
X139243369Y-71956576D01*
X139329971Y-72006576D01*
X139347379Y-72016627D01*
X139353530Y-72020178D01*
X139476399Y-72053100D01*
X139476401Y-72053100D01*
X139603599Y-72053100D01*
X139603601Y-72053100D01*
X139726470Y-72020178D01*
X139836631Y-71956576D01*
X139926576Y-71866631D01*
X139967125Y-71796399D01*
X144596900Y-71796399D01*
X144596900Y-71923601D01*
X144605795Y-71956797D01*
X144629822Y-72046471D01*
X144658967Y-72096951D01*
X144693424Y-72156631D01*
X144783369Y-72246576D01*
X144893530Y-72310178D01*
X145016399Y-72343100D01*
X145016401Y-72343100D01*
X145143599Y-72343100D01*
X145143601Y-72343100D01*
X145266470Y-72310178D01*
X145376631Y-72246576D01*
X145466576Y-72156631D01*
X145477613Y-72137515D01*
X145528179Y-72089299D01*
X145596786Y-72076075D01*
X145661651Y-72102043D01*
X145692387Y-72137515D01*
X145703424Y-72156631D01*
X145793369Y-72246576D01*
X145903530Y-72310178D01*
X146026399Y-72343100D01*
X146026401Y-72343100D01*
X146153599Y-72343100D01*
X146153601Y-72343100D01*
X146276470Y-72310178D01*
X146386631Y-72246576D01*
X146476576Y-72156631D01*
X146540178Y-72046470D01*
X146573100Y-71923601D01*
X146573100Y-71796399D01*
X146540178Y-71673530D01*
X146476576Y-71563369D01*
X146386631Y-71473424D01*
X146299929Y-71423366D01*
X146276471Y-71409822D01*
X146212337Y-71392638D01*
X146153601Y-71376900D01*
X146026399Y-71376900D01*
X145903528Y-71409822D01*
X145793369Y-71473424D01*
X145793366Y-71473426D01*
X145703426Y-71563366D01*
X145703420Y-71563375D01*
X145692386Y-71582486D01*
X145641819Y-71630701D01*
X145573212Y-71643923D01*
X145508347Y-71617955D01*
X145477614Y-71582486D01*
X145466579Y-71563375D01*
X145466576Y-71563369D01*
X145376631Y-71473424D01*
X145289929Y-71423366D01*
X145266471Y-71409822D01*
X145202337Y-71392638D01*
X145143601Y-71376900D01*
X145016399Y-71376900D01*
X144893528Y-71409822D01*
X144783369Y-71473424D01*
X144783366Y-71473426D01*
X144693426Y-71563366D01*
X144693424Y-71563369D01*
X144629822Y-71673528D01*
X144605646Y-71763756D01*
X144596900Y-71796399D01*
X139967125Y-71796399D01*
X139990178Y-71756470D01*
X140023100Y-71633601D01*
X140023100Y-71506399D01*
X139990178Y-71383530D01*
X139984311Y-71373369D01*
X139961249Y-71333424D01*
X139926576Y-71273369D01*
X139836631Y-71183424D01*
X139756050Y-71136900D01*
X139726471Y-71119822D01*
X139665035Y-71103361D01*
X139603601Y-71086900D01*
X139476399Y-71086900D01*
X139353528Y-71119822D01*
X139243369Y-71183424D01*
X139243366Y-71183426D01*
X139153426Y-71273366D01*
X139153424Y-71273369D01*
X139089822Y-71383528D01*
X139056900Y-71506399D01*
X137000000Y-71506399D01*
X137000000Y-70750000D01*
X132000000Y-70750000D01*
X132000000Y-74376000D01*
X131980315Y-74443039D01*
X131927511Y-74488794D01*
X131876000Y-74500000D01*
X120378500Y-74500000D01*
X120311461Y-74480315D01*
X120265706Y-74427511D01*
X120254500Y-74376000D01*
X120254500Y-72190664D01*
X120274185Y-72123625D01*
X120326989Y-72077870D01*
X120396147Y-72067926D01*
X120459703Y-72096951D01*
X120490220Y-72136862D01*
X120585397Y-72334500D01*
X120585399Y-72334503D01*
X120749998Y-72596462D01*
X120872299Y-72749822D01*
X120939905Y-72834598D01*
X120942893Y-72838344D01*
X121161656Y-73057107D01*
X121403538Y-73250002D01*
X121665497Y-73414601D01*
X121944238Y-73548836D01*
X122089948Y-73599822D01*
X122236243Y-73651013D01*
X122236255Y-73651017D01*
X122537877Y-73719860D01*
X122845306Y-73754499D01*
X122845307Y-73754500D01*
X122845311Y-73754500D01*
X123154693Y-73754500D01*
X123154693Y-73754499D01*
X123462123Y-73719860D01*
X123763745Y-73651017D01*
X124055762Y-73548836D01*
X124334503Y-73414601D01*
X124596462Y-73250002D01*
X124838344Y-73057107D01*
X125057107Y-72838344D01*
X125250002Y-72596462D01*
X125414601Y-72334503D01*
X125548836Y-72055762D01*
X125651017Y-71763745D01*
X125675518Y-71656399D01*
X128016900Y-71656399D01*
X128016900Y-71783600D01*
X128049822Y-71906471D01*
X128081623Y-71961550D01*
X128113424Y-72016631D01*
X128203369Y-72106576D01*
X128313530Y-72170178D01*
X128436399Y-72203100D01*
X128436401Y-72203100D01*
X128563599Y-72203100D01*
X128563601Y-72203100D01*
X128686470Y-72170178D01*
X128796631Y-72106576D01*
X128886576Y-72016631D01*
X128907659Y-71980113D01*
X128958226Y-71931898D01*
X129026833Y-71918675D01*
X129091698Y-71944643D01*
X129113422Y-71966628D01*
X129113424Y-71966631D01*
X129203369Y-72056576D01*
X129313530Y-72120178D01*
X129436399Y-72153100D01*
X129436401Y-72153100D01*
X129563599Y-72153100D01*
X129563601Y-72153100D01*
X129686470Y-72120178D01*
X129796631Y-72056576D01*
X129886576Y-71966631D01*
X129950178Y-71856470D01*
X129983100Y-71733601D01*
X129983100Y-71606399D01*
X129950178Y-71483530D01*
X129886576Y-71373369D01*
X129796631Y-71283424D01*
X129716050Y-71236900D01*
X129686471Y-71219822D01*
X129600922Y-71196900D01*
X129563601Y-71186900D01*
X129436399Y-71186900D01*
X129313528Y-71219822D01*
X129203369Y-71283424D01*
X129203366Y-71283426D01*
X129113426Y-71373366D01*
X129113424Y-71373369D01*
X129092339Y-71409888D01*
X129041770Y-71458102D01*
X128973163Y-71471323D01*
X128908299Y-71445354D01*
X128886577Y-71423371D01*
X128886576Y-71423369D01*
X128796631Y-71333424D01*
X128710033Y-71283426D01*
X128686471Y-71269822D01*
X128625035Y-71253361D01*
X128563601Y-71236900D01*
X128436399Y-71236900D01*
X128313528Y-71269822D01*
X128203369Y-71333424D01*
X128203366Y-71333426D01*
X128113426Y-71423366D01*
X128113424Y-71423369D01*
X128049822Y-71533528D01*
X128016900Y-71656399D01*
X125675518Y-71656399D01*
X125683671Y-71620679D01*
X125683671Y-71620678D01*
X125709754Y-71506399D01*
X125719860Y-71462123D01*
X125754500Y-71154689D01*
X125754500Y-70845311D01*
X125719860Y-70537877D01*
X125651017Y-70236255D01*
X125548836Y-69944238D01*
X125414601Y-69665497D01*
X125250002Y-69403538D01*
X125057107Y-69161656D01*
X124838344Y-68942893D01*
X124596462Y-68749998D01*
X124334503Y-68585399D01*
X124334500Y-68585397D01*
X124136863Y-68490220D01*
X124085004Y-68443397D01*
X124066691Y-68375970D01*
X124087739Y-68309346D01*
X124141465Y-68264678D01*
X124190665Y-68254500D01*
X157809335Y-68254500D01*
X157876374Y-68274185D01*
G37*
%TD.AperFunction*%
%TD*%
%TA.AperFunction,Conductor*%
%TO.N,+36V*%
G36*
X127416134Y-96261423D02*
G01*
X127425555Y-96276666D01*
X128500000Y-99500000D01*
X169706500Y-99500000D01*
X169734077Y-99511423D01*
X169745500Y-99539000D01*
X169745500Y-102544222D01*
X169734077Y-102571799D01*
X169706500Y-102583222D01*
X164945854Y-102583222D01*
X164945736Y-102583233D01*
X164820223Y-102583260D01*
X164820216Y-102583260D01*
X164820214Y-102583261D01*
X164677179Y-102598355D01*
X164462624Y-102620997D01*
X164110977Y-102696052D01*
X163769146Y-102807598D01*
X163769130Y-102807605D01*
X163440919Y-102954397D01*
X163440907Y-102954403D01*
X163129887Y-103134845D01*
X162839520Y-103346934D01*
X162839511Y-103346941D01*
X162573022Y-103588318D01*
X162573014Y-103588326D01*
X162333331Y-103856333D01*
X162333309Y-103856361D01*
X162123076Y-104148044D01*
X162123070Y-104148052D01*
X161944599Y-104460207D01*
X161799878Y-104789358D01*
X161690495Y-105131890D01*
X161617663Y-105484022D01*
X161582191Y-105841838D01*
X161582195Y-105842394D01*
X161582161Y-105842475D01*
X161582144Y-105842860D01*
X161582007Y-105842853D01*
X161570946Y-105870043D01*
X161543442Y-105881639D01*
X161515793Y-105870390D01*
X161508058Y-105859562D01*
X161499790Y-105842394D01*
X161414601Y-105665497D01*
X161250002Y-105403538D01*
X161250001Y-105403536D01*
X161249998Y-105403531D01*
X161057113Y-105161662D01*
X160838337Y-104942886D01*
X160596468Y-104750001D01*
X160596463Y-104749998D01*
X160334508Y-104585402D01*
X160334507Y-104585401D01*
X160334503Y-104585399D01*
X160121625Y-104482882D01*
X160055761Y-104451163D01*
X160055758Y-104451162D01*
X159763749Y-104348983D01*
X159763740Y-104348981D01*
X159462133Y-104280141D01*
X159405667Y-104273778D01*
X159154689Y-104245500D01*
X158845311Y-104245500D01*
X158594332Y-104273778D01*
X158537867Y-104280141D01*
X158537865Y-104280141D01*
X158236259Y-104348981D01*
X158236250Y-104348983D01*
X157944241Y-104451162D01*
X157944238Y-104451163D01*
X157693237Y-104572039D01*
X157688416Y-104574362D01*
X157665491Y-104585402D01*
X157403536Y-104749998D01*
X157403531Y-104750001D01*
X157161662Y-104942886D01*
X156942886Y-105161662D01*
X156750001Y-105403531D01*
X156749998Y-105403536D01*
X156585402Y-105665491D01*
X156451163Y-105944238D01*
X156451162Y-105944241D01*
X156348983Y-106236250D01*
X156348981Y-106236259D01*
X156280141Y-106537865D01*
X156280141Y-106537867D01*
X156280140Y-106537877D01*
X156245500Y-106845311D01*
X156245500Y-107154689D01*
X156279434Y-107455863D01*
X156280141Y-107462132D01*
X156280141Y-107462134D01*
X156348981Y-107763740D01*
X156348983Y-107763749D01*
X156451162Y-108055758D01*
X156451163Y-108055761D01*
X156505171Y-108167909D01*
X156585399Y-108334503D01*
X156585401Y-108334507D01*
X156585402Y-108334508D01*
X156749998Y-108596463D01*
X156750001Y-108596468D01*
X156942886Y-108838337D01*
X157161662Y-109057113D01*
X157403531Y-109249998D01*
X157403536Y-109250001D01*
X157403538Y-109250002D01*
X157665497Y-109414601D01*
X157910715Y-109532692D01*
X157944238Y-109548836D01*
X157944241Y-109548837D01*
X158236250Y-109651016D01*
X158236259Y-109651018D01*
X158312754Y-109668478D01*
X158337098Y-109685751D01*
X158342098Y-109715178D01*
X158324825Y-109739522D01*
X158304076Y-109745500D01*
X152172673Y-109745500D01*
X152145096Y-109734077D01*
X152133673Y-109706500D01*
X152145096Y-109678923D01*
X152154616Y-109671932D01*
X152194657Y-109651016D01*
X152305620Y-109593054D01*
X152463952Y-109463952D01*
X152593054Y-109305620D01*
X152687642Y-109124540D01*
X152743843Y-108928128D01*
X152754500Y-108808262D01*
X152754500Y-107191738D01*
X152743843Y-107071872D01*
X152687642Y-106875460D01*
X152593054Y-106694380D01*
X152463952Y-106536048D01*
X152305620Y-106406946D01*
X152215080Y-106359652D01*
X152124541Y-106312358D01*
X151928126Y-106256156D01*
X151859899Y-106250090D01*
X151808262Y-106245500D01*
X150191738Y-106245500D01*
X150143094Y-106249824D01*
X150071873Y-106256156D01*
X149875458Y-106312358D01*
X149694380Y-106406946D01*
X149694377Y-106406948D01*
X149536048Y-106536048D01*
X149406948Y-106694377D01*
X149406946Y-106694380D01*
X149312358Y-106875458D01*
X149256156Y-107071873D01*
X149249824Y-107143094D01*
X149245500Y-107191738D01*
X149245500Y-108808262D01*
X149248174Y-108838337D01*
X149256156Y-108928126D01*
X149312358Y-109124541D01*
X149359652Y-109215080D01*
X149406946Y-109305620D01*
X149536048Y-109463952D01*
X149694380Y-109593054D01*
X149805343Y-109651016D01*
X149845384Y-109671932D01*
X149864538Y-109694825D01*
X149861895Y-109724557D01*
X149839002Y-109743711D01*
X149827327Y-109745500D01*
X142172673Y-109745500D01*
X142145096Y-109734077D01*
X142133673Y-109706500D01*
X142145096Y-109678923D01*
X142154616Y-109671932D01*
X142194657Y-109651016D01*
X142305620Y-109593054D01*
X142463952Y-109463952D01*
X142593054Y-109305620D01*
X142687642Y-109124540D01*
X142743843Y-108928128D01*
X142754500Y-108808262D01*
X142754500Y-107191738D01*
X142743843Y-107071872D01*
X142687642Y-106875460D01*
X142593054Y-106694380D01*
X142463952Y-106536048D01*
X142305620Y-106406946D01*
X142215080Y-106359652D01*
X142124541Y-106312358D01*
X141928126Y-106256156D01*
X141859899Y-106250090D01*
X141808262Y-106245500D01*
X140191738Y-106245500D01*
X140143094Y-106249824D01*
X140071873Y-106256156D01*
X139875458Y-106312358D01*
X139694380Y-106406946D01*
X139694377Y-106406948D01*
X139536048Y-106536048D01*
X139406948Y-106694377D01*
X139406946Y-106694380D01*
X139312358Y-106875458D01*
X139256156Y-107071873D01*
X139249824Y-107143094D01*
X139245500Y-107191738D01*
X139245500Y-108808262D01*
X139248174Y-108838337D01*
X139256156Y-108928126D01*
X139312358Y-109124541D01*
X139359652Y-109215080D01*
X139406946Y-109305620D01*
X139536048Y-109463952D01*
X139694380Y-109593054D01*
X139805343Y-109651016D01*
X139845384Y-109671932D01*
X139864538Y-109694825D01*
X139861895Y-109724557D01*
X139839002Y-109743711D01*
X139827327Y-109745500D01*
X132172673Y-109745500D01*
X132145096Y-109734077D01*
X132133673Y-109706500D01*
X132145096Y-109678923D01*
X132154616Y-109671932D01*
X132194657Y-109651016D01*
X132305620Y-109593054D01*
X132463952Y-109463952D01*
X132593054Y-109305620D01*
X132687642Y-109124540D01*
X132743843Y-108928128D01*
X132754500Y-108808262D01*
X132754500Y-107191738D01*
X132743843Y-107071872D01*
X132687642Y-106875460D01*
X132593054Y-106694380D01*
X132463952Y-106536048D01*
X132305620Y-106406946D01*
X132215080Y-106359652D01*
X132124541Y-106312358D01*
X131928126Y-106256156D01*
X131859899Y-106250090D01*
X131808262Y-106245500D01*
X130191738Y-106245500D01*
X130143094Y-106249824D01*
X130071873Y-106256156D01*
X129875458Y-106312358D01*
X129694380Y-106406946D01*
X129694377Y-106406948D01*
X129536048Y-106536048D01*
X129406948Y-106694377D01*
X129406946Y-106694380D01*
X129312358Y-106875458D01*
X129256156Y-107071873D01*
X129249824Y-107143094D01*
X129245500Y-107191738D01*
X129245500Y-108808262D01*
X129248174Y-108838337D01*
X129256156Y-108928126D01*
X129312358Y-109124541D01*
X129359652Y-109215080D01*
X129406946Y-109305620D01*
X129536048Y-109463952D01*
X129694380Y-109593054D01*
X129805343Y-109651016D01*
X129845384Y-109671932D01*
X129864538Y-109694825D01*
X129861895Y-109724557D01*
X129839002Y-109743711D01*
X129827327Y-109745500D01*
X123695924Y-109745500D01*
X123668347Y-109734077D01*
X123656924Y-109706500D01*
X123668347Y-109678923D01*
X123687246Y-109668478D01*
X123750369Y-109654069D01*
X123763745Y-109651017D01*
X123763745Y-109651016D01*
X123763749Y-109651016D01*
X123929397Y-109593053D01*
X124055762Y-109548836D01*
X124334503Y-109414601D01*
X124596462Y-109250002D01*
X124596464Y-109250000D01*
X124596468Y-109249998D01*
X124838337Y-109057113D01*
X124838339Y-109057110D01*
X124838344Y-109057107D01*
X125057107Y-108838344D01*
X125081097Y-108808262D01*
X125249998Y-108596468D01*
X125250001Y-108596463D01*
X125250002Y-108596462D01*
X125414601Y-108334503D01*
X125548836Y-108055762D01*
X125651017Y-107763745D01*
X125708975Y-107509815D01*
X125719858Y-107462134D01*
X125719858Y-107462132D01*
X125719858Y-107462131D01*
X125719860Y-107462123D01*
X125754500Y-107154689D01*
X125754500Y-106845311D01*
X125719860Y-106537877D01*
X125719858Y-106537867D01*
X125719858Y-106537865D01*
X125651018Y-106236259D01*
X125651016Y-106236250D01*
X125548837Y-105944241D01*
X125548836Y-105944238D01*
X125518102Y-105880418D01*
X125414601Y-105665497D01*
X125380127Y-105610631D01*
X125299027Y-105481560D01*
X125287592Y-105463362D01*
X139267700Y-105463362D01*
X139267700Y-105610637D01*
X139305816Y-105752882D01*
X139379449Y-105880419D01*
X139483580Y-105984550D01*
X139483582Y-105984551D01*
X139611118Y-106058184D01*
X139708270Y-106084216D01*
X139753362Y-106096299D01*
X139753365Y-106096299D01*
X139753367Y-106096300D01*
X139753368Y-106096300D01*
X139900632Y-106096300D01*
X139900633Y-106096300D01*
X140042882Y-106058184D01*
X140170418Y-105984551D01*
X140170419Y-105984550D01*
X140170420Y-105984550D01*
X140274550Y-105880420D01*
X140274550Y-105880419D01*
X140274551Y-105880418D01*
X140348184Y-105752882D01*
X140386300Y-105610633D01*
X140386300Y-105463367D01*
X140348184Y-105321118D01*
X140274551Y-105193582D01*
X140274550Y-105193580D01*
X140210046Y-105129077D01*
X140198623Y-105101500D01*
X140210046Y-105073923D01*
X140292550Y-104991419D01*
X140292551Y-104991418D01*
X140366184Y-104863882D01*
X140404300Y-104721633D01*
X140404300Y-104574367D01*
X140404299Y-104574362D01*
X140537700Y-104574362D01*
X140537700Y-104721637D01*
X140575816Y-104863882D01*
X140649449Y-104991419D01*
X140722953Y-105064923D01*
X140734376Y-105092500D01*
X140722953Y-105120077D01*
X140649450Y-105193580D01*
X140649449Y-105193580D01*
X140575816Y-105321117D01*
X140537700Y-105463362D01*
X140537700Y-105610637D01*
X140575816Y-105752882D01*
X140649449Y-105880419D01*
X140753580Y-105984550D01*
X140753582Y-105984551D01*
X140881118Y-106058184D01*
X140978270Y-106084216D01*
X141023362Y-106096299D01*
X141023365Y-106096299D01*
X141023367Y-106096300D01*
X141023368Y-106096300D01*
X141170632Y-106096300D01*
X141170633Y-106096300D01*
X141312882Y-106058184D01*
X141440418Y-105984551D01*
X141440419Y-105984550D01*
X141440420Y-105984550D01*
X141544550Y-105880420D01*
X141544550Y-105880419D01*
X141544551Y-105880418D01*
X141618184Y-105752882D01*
X141656300Y-105610633D01*
X141656300Y-105463367D01*
X141618184Y-105321118D01*
X141544551Y-105193582D01*
X141544550Y-105193580D01*
X141471046Y-105120077D01*
X141459623Y-105092500D01*
X141471046Y-105064923D01*
X141544550Y-104991419D01*
X141544551Y-104991418D01*
X141618184Y-104863882D01*
X141656300Y-104721633D01*
X141656300Y-104574367D01*
X141656299Y-104574362D01*
X141807700Y-104574362D01*
X141807700Y-104721637D01*
X141845816Y-104863882D01*
X141919449Y-104991419D01*
X141992953Y-105064923D01*
X142004376Y-105092500D01*
X141992953Y-105120077D01*
X141919450Y-105193580D01*
X141919449Y-105193580D01*
X141845816Y-105321117D01*
X141807700Y-105463362D01*
X141807700Y-105610637D01*
X141845816Y-105752882D01*
X141919449Y-105880419D01*
X142023580Y-105984550D01*
X142023582Y-105984551D01*
X142151118Y-106058184D01*
X142248270Y-106084216D01*
X142293362Y-106096299D01*
X142293365Y-106096299D01*
X142293367Y-106096300D01*
X142293368Y-106096300D01*
X142440632Y-106096300D01*
X142440633Y-106096300D01*
X142582882Y-106058184D01*
X142710418Y-105984551D01*
X142710419Y-105984550D01*
X142710420Y-105984550D01*
X142814550Y-105880420D01*
X142814550Y-105880419D01*
X142814551Y-105880418D01*
X142888184Y-105752882D01*
X142926300Y-105610633D01*
X142926300Y-105463367D01*
X142888184Y-105321118D01*
X142814551Y-105193582D01*
X142814550Y-105193580D01*
X142741046Y-105120077D01*
X142729623Y-105092500D01*
X142741046Y-105064923D01*
X142814550Y-104991419D01*
X142814551Y-104991418D01*
X142888184Y-104863882D01*
X142926300Y-104721633D01*
X142926300Y-104574367D01*
X142926299Y-104574362D01*
X144855700Y-104574362D01*
X144855700Y-104721637D01*
X144893816Y-104863882D01*
X144967449Y-104991419D01*
X145040953Y-105064923D01*
X145052376Y-105092500D01*
X145040953Y-105120077D01*
X144967450Y-105193580D01*
X144967449Y-105193580D01*
X144893816Y-105321117D01*
X144855700Y-105463362D01*
X144855700Y-105610637D01*
X144893816Y-105752882D01*
X144967449Y-105880419D01*
X145071580Y-105984550D01*
X145071582Y-105984551D01*
X145199118Y-106058184D01*
X145296270Y-106084216D01*
X145341362Y-106096299D01*
X145341365Y-106096299D01*
X145341367Y-106096300D01*
X145341368Y-106096300D01*
X145488632Y-106096300D01*
X145488633Y-106096300D01*
X145630882Y-106058184D01*
X145758418Y-105984551D01*
X145758419Y-105984550D01*
X145758420Y-105984550D01*
X145862550Y-105880420D01*
X145862550Y-105880419D01*
X145862551Y-105880418D01*
X145936184Y-105752882D01*
X145974300Y-105610633D01*
X145974300Y-105463367D01*
X145936184Y-105321118D01*
X145862551Y-105193582D01*
X145862550Y-105193580D01*
X145789046Y-105120077D01*
X145777623Y-105092500D01*
X145789046Y-105064923D01*
X145862550Y-104991419D01*
X145862551Y-104991418D01*
X145936184Y-104863882D01*
X145974300Y-104721633D01*
X145974300Y-104574367D01*
X145974299Y-104574362D01*
X146125700Y-104574362D01*
X146125700Y-104721637D01*
X146163816Y-104863882D01*
X146237449Y-104991419D01*
X146310953Y-105064923D01*
X146322376Y-105092500D01*
X146310953Y-105120077D01*
X146237450Y-105193580D01*
X146237449Y-105193580D01*
X146163816Y-105321117D01*
X146125700Y-105463362D01*
X146125700Y-105610637D01*
X146163816Y-105752882D01*
X146237449Y-105880419D01*
X146341580Y-105984550D01*
X146341582Y-105984551D01*
X146469118Y-106058184D01*
X146566270Y-106084216D01*
X146611362Y-106096299D01*
X146611365Y-106096299D01*
X146611367Y-106096300D01*
X146611368Y-106096300D01*
X146758632Y-106096300D01*
X146758633Y-106096300D01*
X146900882Y-106058184D01*
X147028418Y-105984551D01*
X147028419Y-105984550D01*
X147028420Y-105984550D01*
X147132550Y-105880420D01*
X147132550Y-105880419D01*
X147132551Y-105880418D01*
X147206184Y-105752882D01*
X147244300Y-105610633D01*
X147244300Y-105463367D01*
X147206184Y-105321118D01*
X147132551Y-105193582D01*
X147132550Y-105193580D01*
X147059046Y-105120077D01*
X147047623Y-105092500D01*
X147059046Y-105064923D01*
X147132550Y-104991419D01*
X147132551Y-104991418D01*
X147206184Y-104863882D01*
X147244300Y-104721633D01*
X147244300Y-104574367D01*
X147244299Y-104574362D01*
X147395700Y-104574362D01*
X147395700Y-104721637D01*
X147433816Y-104863882D01*
X147507449Y-104991419D01*
X147580953Y-105064923D01*
X147592376Y-105092500D01*
X147580953Y-105120077D01*
X147507450Y-105193580D01*
X147507449Y-105193580D01*
X147433816Y-105321117D01*
X147395700Y-105463362D01*
X147395700Y-105610637D01*
X147433816Y-105752882D01*
X147507449Y-105880419D01*
X147611580Y-105984550D01*
X147611582Y-105984551D01*
X147739118Y-106058184D01*
X147836270Y-106084216D01*
X147881362Y-106096299D01*
X147881365Y-106096299D01*
X147881367Y-106096300D01*
X147881368Y-106096300D01*
X148028632Y-106096300D01*
X148028633Y-106096300D01*
X148170882Y-106058184D01*
X148298418Y-105984551D01*
X148298419Y-105984550D01*
X148298420Y-105984550D01*
X148402550Y-105880420D01*
X148402550Y-105880419D01*
X148402551Y-105880418D01*
X148476184Y-105752882D01*
X148514300Y-105610633D01*
X148514300Y-105463367D01*
X148476184Y-105321118D01*
X148402551Y-105193582D01*
X148402550Y-105193580D01*
X148329046Y-105120077D01*
X148317623Y-105092500D01*
X148329046Y-105064923D01*
X148402550Y-104991419D01*
X148402551Y-104991418D01*
X148476184Y-104863882D01*
X148514300Y-104721633D01*
X148514300Y-104574367D01*
X148476184Y-104432118D01*
X148402551Y-104304582D01*
X148402550Y-104304580D01*
X148298419Y-104200449D01*
X148286144Y-104193362D01*
X150697700Y-104193362D01*
X150697700Y-104340637D01*
X150735816Y-104482882D01*
X150809449Y-104610419D01*
X150913580Y-104714550D01*
X150913582Y-104714551D01*
X151041118Y-104788184D01*
X151138270Y-104814216D01*
X151183362Y-104826299D01*
X151183365Y-104826299D01*
X151183367Y-104826300D01*
X151183368Y-104826300D01*
X151330632Y-104826300D01*
X151330633Y-104826300D01*
X151472882Y-104788184D01*
X151600418Y-104714551D01*
X151600419Y-104714550D01*
X151600420Y-104714550D01*
X151704550Y-104610420D01*
X151704550Y-104610419D01*
X151704551Y-104610418D01*
X151778184Y-104482882D01*
X151816300Y-104340633D01*
X151816300Y-104193367D01*
X151816299Y-104193362D01*
X151967700Y-104193362D01*
X151967700Y-104340637D01*
X152005816Y-104482882D01*
X152079449Y-104610419D01*
X152183580Y-104714550D01*
X152183582Y-104714551D01*
X152311118Y-104788184D01*
X152408270Y-104814216D01*
X152453362Y-104826299D01*
X152453365Y-104826299D01*
X152453367Y-104826300D01*
X152453368Y-104826300D01*
X152600632Y-104826300D01*
X152600633Y-104826300D01*
X152742882Y-104788184D01*
X152870418Y-104714551D01*
X152870419Y-104714550D01*
X152870420Y-104714550D01*
X152974550Y-104610420D01*
X152974550Y-104610419D01*
X152974551Y-104610418D01*
X153048184Y-104482882D01*
X153086300Y-104340633D01*
X153086300Y-104193367D01*
X153086299Y-104193362D01*
X153237700Y-104193362D01*
X153237700Y-104340637D01*
X153275816Y-104482882D01*
X153349449Y-104610419D01*
X153453580Y-104714550D01*
X153453582Y-104714551D01*
X153581118Y-104788184D01*
X153678270Y-104814216D01*
X153723362Y-104826299D01*
X153723365Y-104826299D01*
X153723367Y-104826300D01*
X153723368Y-104826300D01*
X153870632Y-104826300D01*
X153870633Y-104826300D01*
X154012882Y-104788184D01*
X154140418Y-104714551D01*
X154140419Y-104714550D01*
X154140420Y-104714550D01*
X154244550Y-104610420D01*
X154244550Y-104610419D01*
X154244551Y-104610418D01*
X154318184Y-104482882D01*
X154356300Y-104340633D01*
X154356300Y-104193367D01*
X154356299Y-104193362D01*
X154507700Y-104193362D01*
X154507700Y-104340637D01*
X154545816Y-104482882D01*
X154619449Y-104610419D01*
X154723580Y-104714550D01*
X154723582Y-104714551D01*
X154851118Y-104788184D01*
X154948270Y-104814216D01*
X154993362Y-104826299D01*
X154993365Y-104826299D01*
X154993367Y-104826300D01*
X154993368Y-104826300D01*
X155140632Y-104826300D01*
X155140633Y-104826300D01*
X155282882Y-104788184D01*
X155410418Y-104714551D01*
X155410419Y-104714550D01*
X155410420Y-104714550D01*
X155514550Y-104610420D01*
X155514550Y-104610419D01*
X155514551Y-104610418D01*
X155588184Y-104482882D01*
X155626300Y-104340633D01*
X155626300Y-104193367D01*
X155588184Y-104051118D01*
X155523687Y-103939406D01*
X155514550Y-103923580D01*
X155410419Y-103819449D01*
X155282882Y-103745816D01*
X155140637Y-103707700D01*
X155140633Y-103707700D01*
X154993367Y-103707700D01*
X154993362Y-103707700D01*
X154851117Y-103745816D01*
X154723580Y-103819449D01*
X154723580Y-103819450D01*
X154619450Y-103923580D01*
X154619449Y-103923580D01*
X154545816Y-104051117D01*
X154507700Y-104193362D01*
X154356299Y-104193362D01*
X154318184Y-104051118D01*
X154253687Y-103939406D01*
X154244550Y-103923580D01*
X154140419Y-103819449D01*
X154012882Y-103745816D01*
X153870637Y-103707700D01*
X153870633Y-103707700D01*
X153723367Y-103707700D01*
X153723362Y-103707700D01*
X153581117Y-103745816D01*
X153453580Y-103819449D01*
X153453580Y-103819450D01*
X153349450Y-103923580D01*
X153349449Y-103923580D01*
X153275816Y-104051117D01*
X153237700Y-104193362D01*
X153086299Y-104193362D01*
X153048184Y-104051118D01*
X152983687Y-103939406D01*
X152974550Y-103923580D01*
X152870419Y-103819449D01*
X152742882Y-103745816D01*
X152600637Y-103707700D01*
X152600633Y-103707700D01*
X152453367Y-103707700D01*
X152453362Y-103707700D01*
X152311117Y-103745816D01*
X152183580Y-103819449D01*
X152183580Y-103819450D01*
X152079450Y-103923580D01*
X152079449Y-103923580D01*
X152005816Y-104051117D01*
X151967700Y-104193362D01*
X151816299Y-104193362D01*
X151778184Y-104051118D01*
X151713687Y-103939406D01*
X151704550Y-103923580D01*
X151600419Y-103819449D01*
X151472882Y-103745816D01*
X151330637Y-103707700D01*
X151330633Y-103707700D01*
X151183367Y-103707700D01*
X151183362Y-103707700D01*
X151041117Y-103745816D01*
X150913580Y-103819449D01*
X150913580Y-103819450D01*
X150809450Y-103923580D01*
X150809449Y-103923580D01*
X150735816Y-104051117D01*
X150697700Y-104193362D01*
X148286144Y-104193362D01*
X148170882Y-104126816D01*
X148028637Y-104088700D01*
X148028633Y-104088700D01*
X147881367Y-104088700D01*
X147881362Y-104088700D01*
X147739117Y-104126816D01*
X147611580Y-104200449D01*
X147611580Y-104200450D01*
X147507450Y-104304580D01*
X147507449Y-104304580D01*
X147433816Y-104432117D01*
X147395700Y-104574362D01*
X147244299Y-104574362D01*
X147206184Y-104432118D01*
X147132551Y-104304582D01*
X147132550Y-104304580D01*
X147028419Y-104200449D01*
X146900882Y-104126816D01*
X146758637Y-104088700D01*
X146758633Y-104088700D01*
X146611367Y-104088700D01*
X146611362Y-104088700D01*
X146469117Y-104126816D01*
X146341580Y-104200449D01*
X146341580Y-104200450D01*
X146237450Y-104304580D01*
X146237449Y-104304580D01*
X146163816Y-104432117D01*
X146125700Y-104574362D01*
X145974299Y-104574362D01*
X145936184Y-104432118D01*
X145862551Y-104304582D01*
X145862550Y-104304580D01*
X145758419Y-104200449D01*
X145630882Y-104126816D01*
X145488637Y-104088700D01*
X145488633Y-104088700D01*
X145341367Y-104088700D01*
X145341362Y-104088700D01*
X145199117Y-104126816D01*
X145071580Y-104200449D01*
X145071580Y-104200450D01*
X144967450Y-104304580D01*
X144967449Y-104304580D01*
X144893816Y-104432117D01*
X144855700Y-104574362D01*
X142926299Y-104574362D01*
X142888184Y-104432118D01*
X142814551Y-104304582D01*
X142814550Y-104304580D01*
X142710419Y-104200449D01*
X142582882Y-104126816D01*
X142440637Y-104088700D01*
X142440633Y-104088700D01*
X142293367Y-104088700D01*
X142293362Y-104088700D01*
X142151117Y-104126816D01*
X142023580Y-104200449D01*
X142023580Y-104200450D01*
X141919450Y-104304580D01*
X141919449Y-104304580D01*
X141845816Y-104432117D01*
X141807700Y-104574362D01*
X141656299Y-104574362D01*
X141618184Y-104432118D01*
X141544551Y-104304582D01*
X141544550Y-104304580D01*
X141440419Y-104200449D01*
X141312882Y-104126816D01*
X141170637Y-104088700D01*
X141170633Y-104088700D01*
X141023367Y-104088700D01*
X141023362Y-104088700D01*
X140881117Y-104126816D01*
X140753580Y-104200449D01*
X140753580Y-104200450D01*
X140649450Y-104304580D01*
X140649449Y-104304580D01*
X140575816Y-104432117D01*
X140537700Y-104574362D01*
X140404299Y-104574362D01*
X140366184Y-104432118D01*
X140292551Y-104304582D01*
X140292550Y-104304580D01*
X140188419Y-104200449D01*
X140060882Y-104126816D01*
X139918637Y-104088700D01*
X139918633Y-104088700D01*
X139771367Y-104088700D01*
X139771362Y-104088700D01*
X139629117Y-104126816D01*
X139501580Y-104200449D01*
X139501580Y-104200450D01*
X139397450Y-104304580D01*
X139397449Y-104304580D01*
X139323816Y-104432117D01*
X139285700Y-104574362D01*
X139285700Y-104721637D01*
X139323816Y-104863882D01*
X139397449Y-104991419D01*
X139461953Y-105055922D01*
X139473376Y-105083499D01*
X139461953Y-105111076D01*
X139379449Y-105193580D01*
X139305816Y-105321117D01*
X139267700Y-105463362D01*
X125287592Y-105463362D01*
X125250001Y-105403536D01*
X125249998Y-105403531D01*
X125057113Y-105161662D01*
X124838337Y-104942886D01*
X124596468Y-104750001D01*
X124596463Y-104749998D01*
X124334508Y-104585402D01*
X124334507Y-104585401D01*
X124334503Y-104585399D01*
X124121625Y-104482882D01*
X124055761Y-104451163D01*
X124055758Y-104451162D01*
X123763749Y-104348983D01*
X123763740Y-104348981D01*
X123462133Y-104280141D01*
X123405667Y-104273778D01*
X123154689Y-104245500D01*
X122845311Y-104245500D01*
X122594332Y-104273778D01*
X122537867Y-104280141D01*
X122537865Y-104280141D01*
X122236259Y-104348981D01*
X122236250Y-104348983D01*
X121944241Y-104451162D01*
X121944238Y-104451163D01*
X121693237Y-104572039D01*
X121688416Y-104574362D01*
X121665491Y-104585402D01*
X121403536Y-104749998D01*
X121403531Y-104750001D01*
X121161662Y-104942886D01*
X120942886Y-105161662D01*
X120750001Y-105403531D01*
X120749998Y-105403536D01*
X120585402Y-105665491D01*
X120451163Y-105944238D01*
X120451162Y-105944241D01*
X120348983Y-106236250D01*
X120348981Y-106236259D01*
X120331522Y-106312754D01*
X120314249Y-106337098D01*
X120284822Y-106342098D01*
X120260478Y-106324825D01*
X120254500Y-106304076D01*
X120254500Y-102669362D01*
X121995700Y-102669362D01*
X121995700Y-102816637D01*
X122033816Y-102958882D01*
X122107449Y-103086419D01*
X122117453Y-103096423D01*
X122128876Y-103124000D01*
X122117453Y-103151577D01*
X122107450Y-103161580D01*
X122107449Y-103161580D01*
X122033816Y-103289117D01*
X121995700Y-103431362D01*
X121995700Y-103578637D01*
X122033816Y-103720882D01*
X122107449Y-103848419D01*
X122211580Y-103952550D01*
X122211582Y-103952551D01*
X122339118Y-104026184D01*
X122432168Y-104051117D01*
X122481362Y-104064299D01*
X122481365Y-104064299D01*
X122481367Y-104064300D01*
X122481368Y-104064300D01*
X122628632Y-104064300D01*
X122628633Y-104064300D01*
X122770882Y-104026184D01*
X122898418Y-103952551D01*
X122898419Y-103952550D01*
X122898420Y-103952550D01*
X123002550Y-103848420D01*
X123002550Y-103848419D01*
X123002860Y-103847882D01*
X123076184Y-103720882D01*
X123114300Y-103578633D01*
X123114300Y-103431367D01*
X123076184Y-103289118D01*
X123002551Y-103161582D01*
X123002550Y-103161580D01*
X122992547Y-103151578D01*
X122981123Y-103124002D01*
X122992545Y-103096424D01*
X123002550Y-103086419D01*
X123010471Y-103072700D01*
X123076184Y-102958882D01*
X123114300Y-102816633D01*
X123114300Y-102669367D01*
X123114299Y-102669362D01*
X123265700Y-102669362D01*
X123265700Y-102816637D01*
X123303816Y-102958882D01*
X123377449Y-103086419D01*
X123387453Y-103096423D01*
X123398876Y-103124000D01*
X123387453Y-103151577D01*
X123377450Y-103161580D01*
X123377449Y-103161580D01*
X123303816Y-103289117D01*
X123265700Y-103431362D01*
X123265700Y-103578637D01*
X123303816Y-103720882D01*
X123377449Y-103848419D01*
X123481580Y-103952550D01*
X123481582Y-103952551D01*
X123609118Y-104026184D01*
X123702168Y-104051117D01*
X123751362Y-104064299D01*
X123751365Y-104064299D01*
X123751367Y-104064300D01*
X123751368Y-104064300D01*
X123898632Y-104064300D01*
X123898633Y-104064300D01*
X124040882Y-104026184D01*
X124168418Y-103952551D01*
X124168419Y-103952550D01*
X124168420Y-103952550D01*
X124272550Y-103848420D01*
X124272550Y-103848419D01*
X124272860Y-103847882D01*
X124346184Y-103720882D01*
X124384300Y-103578633D01*
X124384300Y-103431367D01*
X124346184Y-103289118D01*
X124272551Y-103161582D01*
X124272550Y-103161580D01*
X124262547Y-103151578D01*
X124251123Y-103124002D01*
X124262545Y-103096424D01*
X124272550Y-103086419D01*
X124280471Y-103072700D01*
X124346184Y-102958882D01*
X124384300Y-102816633D01*
X124384300Y-102669367D01*
X124384299Y-102669362D01*
X124535700Y-102669362D01*
X124535700Y-102816637D01*
X124573816Y-102958882D01*
X124647449Y-103086419D01*
X124657453Y-103096423D01*
X124668876Y-103124000D01*
X124657453Y-103151577D01*
X124647450Y-103161580D01*
X124647449Y-103161580D01*
X124573816Y-103289117D01*
X124535700Y-103431362D01*
X124535700Y-103578637D01*
X124573816Y-103720882D01*
X124647449Y-103848419D01*
X124751580Y-103952550D01*
X124751582Y-103952551D01*
X124879118Y-104026184D01*
X124972168Y-104051117D01*
X125021362Y-104064299D01*
X125021365Y-104064299D01*
X125021367Y-104064300D01*
X125021368Y-104064300D01*
X125168632Y-104064300D01*
X125168633Y-104064300D01*
X125310882Y-104026184D01*
X125438418Y-103952551D01*
X125438419Y-103952550D01*
X125438420Y-103952550D01*
X125542550Y-103848420D01*
X125542550Y-103848419D01*
X125542860Y-103847882D01*
X125616184Y-103720882D01*
X125654300Y-103578633D01*
X125654300Y-103558362D01*
X127964700Y-103558362D01*
X127964700Y-103705637D01*
X128002816Y-103847882D01*
X128050226Y-103930000D01*
X128054122Y-103959594D01*
X128050226Y-103969000D01*
X128002816Y-104051117D01*
X127964700Y-104193362D01*
X127964700Y-104340637D01*
X128002816Y-104482882D01*
X128076449Y-104610419D01*
X128180580Y-104714550D01*
X128180582Y-104714551D01*
X128308118Y-104788184D01*
X128405270Y-104814216D01*
X128450362Y-104826299D01*
X128450365Y-104826299D01*
X128450367Y-104826300D01*
X128450368Y-104826300D01*
X128597632Y-104826300D01*
X128597633Y-104826300D01*
X128739882Y-104788184D01*
X128867418Y-104714551D01*
X128867419Y-104714550D01*
X128867420Y-104714550D01*
X128971550Y-104610420D01*
X128971550Y-104610419D01*
X128971551Y-104610418D01*
X129045184Y-104482882D01*
X129083300Y-104340633D01*
X129083300Y-104193367D01*
X129045184Y-104051118D01*
X128997771Y-103968998D01*
X128993876Y-103939406D01*
X128997772Y-103930000D01*
X129045184Y-103847882D01*
X129083300Y-103705633D01*
X129083300Y-103558367D01*
X129083299Y-103558362D01*
X129234700Y-103558362D01*
X129234700Y-103705637D01*
X129272816Y-103847882D01*
X129320226Y-103930000D01*
X129324122Y-103959594D01*
X129320226Y-103969000D01*
X129272816Y-104051117D01*
X129234700Y-104193362D01*
X129234700Y-104340637D01*
X129272816Y-104482882D01*
X129346449Y-104610419D01*
X129450580Y-104714550D01*
X129450582Y-104714551D01*
X129578118Y-104788184D01*
X129675270Y-104814216D01*
X129720362Y-104826299D01*
X129720365Y-104826299D01*
X129720367Y-104826300D01*
X129720368Y-104826300D01*
X129867632Y-104826300D01*
X129867633Y-104826300D01*
X130009882Y-104788184D01*
X130137418Y-104714551D01*
X130137419Y-104714550D01*
X130137420Y-104714550D01*
X130241550Y-104610420D01*
X130241550Y-104610419D01*
X130241551Y-104610418D01*
X130315184Y-104482882D01*
X130353300Y-104340633D01*
X130353300Y-104193367D01*
X130315184Y-104051118D01*
X130267771Y-103968998D01*
X130263876Y-103939406D01*
X130267772Y-103930000D01*
X130315184Y-103847882D01*
X130353300Y-103705633D01*
X130353300Y-103558367D01*
X130353299Y-103558362D01*
X130504700Y-103558362D01*
X130504700Y-103705637D01*
X130542816Y-103847882D01*
X130590226Y-103930000D01*
X130594122Y-103959594D01*
X130590226Y-103969000D01*
X130542816Y-104051117D01*
X130504700Y-104193362D01*
X130504700Y-104340637D01*
X130542816Y-104482882D01*
X130616449Y-104610419D01*
X130720580Y-104714550D01*
X130720582Y-104714551D01*
X130848118Y-104788184D01*
X130945270Y-104814216D01*
X130990362Y-104826299D01*
X130990365Y-104826299D01*
X130990367Y-104826300D01*
X130990368Y-104826300D01*
X131137632Y-104826300D01*
X131137633Y-104826300D01*
X131279882Y-104788184D01*
X131407418Y-104714551D01*
X131407419Y-104714550D01*
X131407420Y-104714550D01*
X131511550Y-104610420D01*
X131511550Y-104610419D01*
X131511551Y-104610418D01*
X131585184Y-104482882D01*
X131623300Y-104340633D01*
X131623300Y-104193367D01*
X131585184Y-104051118D01*
X131537771Y-103968998D01*
X131533876Y-103939406D01*
X131537772Y-103930000D01*
X131585184Y-103847882D01*
X131623300Y-103705633D01*
X131623300Y-103558367D01*
X131623299Y-103558362D01*
X131774700Y-103558362D01*
X131774700Y-103705637D01*
X131812816Y-103847882D01*
X131860226Y-103930000D01*
X131864122Y-103959594D01*
X131860226Y-103969000D01*
X131812816Y-104051117D01*
X131774700Y-104193362D01*
X131774700Y-104340637D01*
X131812816Y-104482882D01*
X131886449Y-104610419D01*
X131990580Y-104714550D01*
X131990582Y-104714551D01*
X132118118Y-104788184D01*
X132215270Y-104814216D01*
X132260362Y-104826299D01*
X132260365Y-104826299D01*
X132260367Y-104826300D01*
X132260368Y-104826300D01*
X132407632Y-104826300D01*
X132407633Y-104826300D01*
X132549882Y-104788184D01*
X132677418Y-104714551D01*
X132677419Y-104714550D01*
X132677420Y-104714550D01*
X132781550Y-104610420D01*
X132781550Y-104610419D01*
X132781551Y-104610418D01*
X132855184Y-104482882D01*
X132893300Y-104340633D01*
X132893300Y-104193367D01*
X132855184Y-104051118D01*
X132807771Y-103968998D01*
X132803876Y-103939406D01*
X132807772Y-103930000D01*
X132855184Y-103847882D01*
X132893300Y-103705633D01*
X132893300Y-103558367D01*
X132893299Y-103558362D01*
X133679700Y-103558362D01*
X133679700Y-103705637D01*
X133717816Y-103847882D01*
X133765226Y-103930000D01*
X133769122Y-103959594D01*
X133765226Y-103969000D01*
X133717816Y-104051117D01*
X133679700Y-104193362D01*
X133679700Y-104340637D01*
X133717816Y-104482882D01*
X133791449Y-104610419D01*
X133895580Y-104714550D01*
X133895582Y-104714551D01*
X134023118Y-104788184D01*
X134120270Y-104814216D01*
X134165362Y-104826299D01*
X134165365Y-104826299D01*
X134165367Y-104826300D01*
X134165368Y-104826300D01*
X134312632Y-104826300D01*
X134312633Y-104826300D01*
X134454882Y-104788184D01*
X134582418Y-104714551D01*
X134582419Y-104714550D01*
X134582420Y-104714550D01*
X134686550Y-104610420D01*
X134686550Y-104610419D01*
X134686551Y-104610418D01*
X134760184Y-104482882D01*
X134798300Y-104340633D01*
X134798300Y-104193367D01*
X134760184Y-104051118D01*
X134712771Y-103968998D01*
X134708876Y-103939406D01*
X134712772Y-103930000D01*
X134760184Y-103847882D01*
X134798300Y-103705633D01*
X134798300Y-103558367D01*
X134798299Y-103558362D01*
X134949700Y-103558362D01*
X134949700Y-103705637D01*
X134987816Y-103847882D01*
X135035226Y-103930000D01*
X135039122Y-103959594D01*
X135035226Y-103969000D01*
X134987816Y-104051117D01*
X134949700Y-104193362D01*
X134949700Y-104340637D01*
X134987816Y-104482882D01*
X135061449Y-104610419D01*
X135165580Y-104714550D01*
X135165582Y-104714551D01*
X135293118Y-104788184D01*
X135390270Y-104814216D01*
X135435362Y-104826299D01*
X135435365Y-104826299D01*
X135435367Y-104826300D01*
X135435368Y-104826300D01*
X135582632Y-104826300D01*
X135582633Y-104826300D01*
X135724882Y-104788184D01*
X135852418Y-104714551D01*
X135852419Y-104714550D01*
X135852420Y-104714550D01*
X135956550Y-104610420D01*
X135956550Y-104610419D01*
X135956551Y-104610418D01*
X136030184Y-104482882D01*
X136068300Y-104340633D01*
X136068300Y-104193367D01*
X136030184Y-104051118D01*
X135982771Y-103968998D01*
X135978876Y-103939406D01*
X135982772Y-103930000D01*
X136030184Y-103847882D01*
X136068300Y-103705633D01*
X136068300Y-103558367D01*
X136068299Y-103558362D01*
X136219700Y-103558362D01*
X136219700Y-103705637D01*
X136257816Y-103847882D01*
X136305226Y-103930000D01*
X136309122Y-103959594D01*
X136305226Y-103969000D01*
X136257816Y-104051117D01*
X136219700Y-104193362D01*
X136219700Y-104340637D01*
X136257816Y-104482882D01*
X136331449Y-104610419D01*
X136435580Y-104714550D01*
X136435582Y-104714551D01*
X136563118Y-104788184D01*
X136660270Y-104814216D01*
X136705362Y-104826299D01*
X136705365Y-104826299D01*
X136705367Y-104826300D01*
X136705368Y-104826300D01*
X136852632Y-104826300D01*
X136852633Y-104826300D01*
X136994882Y-104788184D01*
X137122418Y-104714551D01*
X137122419Y-104714550D01*
X137122420Y-104714550D01*
X137226550Y-104610420D01*
X137226550Y-104610419D01*
X137226551Y-104610418D01*
X137300184Y-104482882D01*
X137338300Y-104340633D01*
X137338300Y-104193367D01*
X137300184Y-104051118D01*
X137252771Y-103968998D01*
X137248876Y-103939406D01*
X137252772Y-103930000D01*
X137300184Y-103847882D01*
X137338300Y-103705633D01*
X137338300Y-103558367D01*
X137338299Y-103558362D01*
X137489700Y-103558362D01*
X137489700Y-103705637D01*
X137527816Y-103847882D01*
X137575226Y-103930000D01*
X137579122Y-103959594D01*
X137575226Y-103969000D01*
X137527816Y-104051117D01*
X137489700Y-104193362D01*
X137489700Y-104340637D01*
X137527816Y-104482882D01*
X137601449Y-104610419D01*
X137705580Y-104714550D01*
X137705582Y-104714551D01*
X137833118Y-104788184D01*
X137930270Y-104814216D01*
X137975362Y-104826299D01*
X137975365Y-104826299D01*
X137975367Y-104826300D01*
X137975368Y-104826300D01*
X138122632Y-104826300D01*
X138122633Y-104826300D01*
X138264882Y-104788184D01*
X138392418Y-104714551D01*
X138392419Y-104714550D01*
X138392420Y-104714550D01*
X138496550Y-104610420D01*
X138496550Y-104610419D01*
X138496551Y-104610418D01*
X138570184Y-104482882D01*
X138608300Y-104340633D01*
X138608300Y-104193367D01*
X138570184Y-104051118D01*
X138522771Y-103968998D01*
X138518876Y-103939406D01*
X138522772Y-103930000D01*
X138570184Y-103847882D01*
X138608300Y-103705633D01*
X138608300Y-103558367D01*
X138570184Y-103416118D01*
X138516280Y-103322753D01*
X138496550Y-103288580D01*
X138392419Y-103184449D01*
X138264882Y-103110816D01*
X138122637Y-103072700D01*
X138122633Y-103072700D01*
X137975367Y-103072700D01*
X137975362Y-103072700D01*
X137833117Y-103110816D01*
X137705580Y-103184449D01*
X137705580Y-103184450D01*
X137601450Y-103288580D01*
X137601449Y-103288580D01*
X137527816Y-103416117D01*
X137489700Y-103558362D01*
X137338299Y-103558362D01*
X137300184Y-103416118D01*
X137246280Y-103322753D01*
X137226550Y-103288580D01*
X137122419Y-103184449D01*
X136994882Y-103110816D01*
X136852637Y-103072700D01*
X136852633Y-103072700D01*
X136705367Y-103072700D01*
X136705362Y-103072700D01*
X136563117Y-103110816D01*
X136435580Y-103184449D01*
X136435580Y-103184450D01*
X136331450Y-103288580D01*
X136331449Y-103288580D01*
X136257816Y-103416117D01*
X136219700Y-103558362D01*
X136068299Y-103558362D01*
X136030184Y-103416118D01*
X135976280Y-103322753D01*
X135956550Y-103288580D01*
X135852419Y-103184449D01*
X135724882Y-103110816D01*
X135582637Y-103072700D01*
X135582633Y-103072700D01*
X135435367Y-103072700D01*
X135435362Y-103072700D01*
X135293117Y-103110816D01*
X135165580Y-103184449D01*
X135165580Y-103184450D01*
X135061450Y-103288580D01*
X135061449Y-103288580D01*
X134987816Y-103416117D01*
X134949700Y-103558362D01*
X134798299Y-103558362D01*
X134760184Y-103416118D01*
X134706280Y-103322753D01*
X134686550Y-103288580D01*
X134582419Y-103184449D01*
X134454882Y-103110816D01*
X134312637Y-103072700D01*
X134312633Y-103072700D01*
X134165367Y-103072700D01*
X134165362Y-103072700D01*
X134023117Y-103110816D01*
X133895580Y-103184449D01*
X133895580Y-103184450D01*
X133791450Y-103288580D01*
X133791449Y-103288580D01*
X133717816Y-103416117D01*
X133679700Y-103558362D01*
X132893299Y-103558362D01*
X132855184Y-103416118D01*
X132801280Y-103322753D01*
X132781550Y-103288580D01*
X132677419Y-103184449D01*
X132549882Y-103110816D01*
X132407637Y-103072700D01*
X132407633Y-103072700D01*
X132260367Y-103072700D01*
X132260362Y-103072700D01*
X132118117Y-103110816D01*
X131990580Y-103184449D01*
X131990580Y-103184450D01*
X131886450Y-103288580D01*
X131886449Y-103288580D01*
X131812816Y-103416117D01*
X131774700Y-103558362D01*
X131623299Y-103558362D01*
X131585184Y-103416118D01*
X131531280Y-103322753D01*
X131511550Y-103288580D01*
X131407419Y-103184449D01*
X131279882Y-103110816D01*
X131137637Y-103072700D01*
X131137633Y-103072700D01*
X130990367Y-103072700D01*
X130990362Y-103072700D01*
X130848117Y-103110816D01*
X130720580Y-103184449D01*
X130720580Y-103184450D01*
X130616450Y-103288580D01*
X130616449Y-103288580D01*
X130542816Y-103416117D01*
X130504700Y-103558362D01*
X130353299Y-103558362D01*
X130315184Y-103416118D01*
X130261280Y-103322753D01*
X130241550Y-103288580D01*
X130137419Y-103184449D01*
X130009882Y-103110816D01*
X129867637Y-103072700D01*
X129867633Y-103072700D01*
X129720367Y-103072700D01*
X129720362Y-103072700D01*
X129578117Y-103110816D01*
X129450580Y-103184449D01*
X129450580Y-103184450D01*
X129346450Y-103288580D01*
X129346449Y-103288580D01*
X129272816Y-103416117D01*
X129234700Y-103558362D01*
X129083299Y-103558362D01*
X129045184Y-103416118D01*
X128991280Y-103322753D01*
X128971550Y-103288580D01*
X128867419Y-103184449D01*
X128739882Y-103110816D01*
X128597637Y-103072700D01*
X128597633Y-103072700D01*
X128450367Y-103072700D01*
X128450362Y-103072700D01*
X128308117Y-103110816D01*
X128180580Y-103184449D01*
X128180580Y-103184450D01*
X128076450Y-103288580D01*
X128076449Y-103288580D01*
X128002816Y-103416117D01*
X127964700Y-103558362D01*
X125654300Y-103558362D01*
X125654300Y-103431367D01*
X125616184Y-103289118D01*
X125542551Y-103161582D01*
X125542550Y-103161580D01*
X125532547Y-103151578D01*
X125521123Y-103124002D01*
X125532545Y-103096424D01*
X125542550Y-103086419D01*
X125550471Y-103072700D01*
X125616184Y-102958882D01*
X125654300Y-102816633D01*
X125654300Y-102669367D01*
X125616184Y-102527118D01*
X125542551Y-102399582D01*
X125542550Y-102399580D01*
X125438419Y-102295449D01*
X125310882Y-102221816D01*
X125168637Y-102183700D01*
X125168633Y-102183700D01*
X125021367Y-102183700D01*
X125021362Y-102183700D01*
X124879117Y-102221816D01*
X124751580Y-102295449D01*
X124751580Y-102295450D01*
X124647450Y-102399580D01*
X124647449Y-102399580D01*
X124573816Y-102527117D01*
X124535700Y-102669362D01*
X124384299Y-102669362D01*
X124346184Y-102527118D01*
X124272551Y-102399582D01*
X124272550Y-102399580D01*
X124168419Y-102295449D01*
X124040882Y-102221816D01*
X123898637Y-102183700D01*
X123898633Y-102183700D01*
X123751367Y-102183700D01*
X123751362Y-102183700D01*
X123609117Y-102221816D01*
X123481580Y-102295449D01*
X123481580Y-102295450D01*
X123377450Y-102399580D01*
X123377449Y-102399580D01*
X123303816Y-102527117D01*
X123265700Y-102669362D01*
X123114299Y-102669362D01*
X123076184Y-102527118D01*
X123002551Y-102399582D01*
X123002550Y-102399580D01*
X122898419Y-102295449D01*
X122770882Y-102221816D01*
X122628637Y-102183700D01*
X122628633Y-102183700D01*
X122481367Y-102183700D01*
X122481362Y-102183700D01*
X122339117Y-102221816D01*
X122211580Y-102295449D01*
X122211580Y-102295450D01*
X122107450Y-102399580D01*
X122107449Y-102399580D01*
X122033816Y-102527117D01*
X121995700Y-102669362D01*
X120254500Y-102669362D01*
X120254500Y-96289000D01*
X120265923Y-96261423D01*
X120293500Y-96250000D01*
X127388557Y-96250000D01*
X127416134Y-96261423D01*
G37*
%TD.AperFunction*%
%TD*%
%TA.AperFunction,Conductor*%
%TO.N,GND1*%
G36*
X126810687Y-92750396D02*
G01*
X126874000Y-92759500D01*
X126874001Y-92759500D01*
X133344169Y-92759500D01*
X133344178Y-92759500D01*
X133387212Y-92755907D01*
X133419128Y-92750539D01*
X133425595Y-92750000D01*
X133846960Y-92750000D01*
X133852509Y-92750396D01*
X133915822Y-92759500D01*
X133915823Y-92759500D01*
X153875994Y-92759500D01*
X153876000Y-92759500D01*
X153931163Y-92753569D01*
X153943474Y-92750890D01*
X153951763Y-92750000D01*
X154555138Y-92750000D01*
X154560687Y-92750396D01*
X154624000Y-92759500D01*
X154624001Y-92759500D01*
X165439117Y-92759500D01*
X165439122Y-92759500D01*
X165498807Y-92752543D01*
X165505143Y-92751045D01*
X165514112Y-92750000D01*
X165832016Y-92750000D01*
X165837565Y-92750396D01*
X165900878Y-92759500D01*
X165900879Y-92759500D01*
X169621494Y-92759500D01*
X169621500Y-92759500D01*
X169676663Y-92753569D01*
X169688974Y-92750890D01*
X169697263Y-92750000D01*
X169706500Y-92750000D01*
X169734077Y-92761423D01*
X169745500Y-92789000D01*
X169745500Y-98961000D01*
X169734077Y-98988577D01*
X169706500Y-99000000D01*
X129028110Y-99000000D01*
X129000533Y-98988577D01*
X128991111Y-98973333D01*
X128617715Y-97853144D01*
X128614454Y-97843362D01*
X128980700Y-97843362D01*
X128980700Y-97990637D01*
X129018816Y-98132882D01*
X129092449Y-98260419D01*
X129196580Y-98364550D01*
X129196582Y-98364551D01*
X129324118Y-98438184D01*
X129421270Y-98464216D01*
X129466362Y-98476299D01*
X129466365Y-98476299D01*
X129466367Y-98476300D01*
X129466368Y-98476300D01*
X129613632Y-98476300D01*
X129613633Y-98476300D01*
X129755882Y-98438184D01*
X129883418Y-98364551D01*
X129956923Y-98291046D01*
X129984500Y-98279623D01*
X130012077Y-98291046D01*
X130085580Y-98364550D01*
X130085582Y-98364551D01*
X130213118Y-98438184D01*
X130310270Y-98464216D01*
X130355362Y-98476299D01*
X130355365Y-98476299D01*
X130355367Y-98476300D01*
X130355368Y-98476300D01*
X130502632Y-98476300D01*
X130502633Y-98476300D01*
X130644882Y-98438184D01*
X130772418Y-98364551D01*
X130772419Y-98364550D01*
X130772420Y-98364550D01*
X130876550Y-98260420D01*
X130876550Y-98260419D01*
X130876860Y-98259882D01*
X130950184Y-98132882D01*
X130988300Y-97990633D01*
X130988300Y-97843367D01*
X130988299Y-97843362D01*
X131139700Y-97843362D01*
X131139700Y-97990637D01*
X131177816Y-98132882D01*
X131251449Y-98260419D01*
X131355580Y-98364550D01*
X131355582Y-98364551D01*
X131483118Y-98438184D01*
X131580270Y-98464216D01*
X131625362Y-98476299D01*
X131625365Y-98476299D01*
X131625367Y-98476300D01*
X131625368Y-98476300D01*
X131772632Y-98476300D01*
X131772633Y-98476300D01*
X131914882Y-98438184D01*
X132042418Y-98364551D01*
X132115923Y-98291046D01*
X132143500Y-98279623D01*
X132171077Y-98291046D01*
X132244580Y-98364550D01*
X132244582Y-98364551D01*
X132372118Y-98438184D01*
X132469270Y-98464216D01*
X132514362Y-98476299D01*
X132514365Y-98476299D01*
X132514367Y-98476300D01*
X132514368Y-98476300D01*
X132661632Y-98476300D01*
X132661633Y-98476300D01*
X132803882Y-98438184D01*
X132931418Y-98364551D01*
X132931419Y-98364550D01*
X132931420Y-98364550D01*
X133035550Y-98260420D01*
X133035550Y-98260419D01*
X133035860Y-98259882D01*
X133109184Y-98132882D01*
X133147300Y-97990633D01*
X133147300Y-97970362D01*
X134822700Y-97970362D01*
X134822700Y-98117637D01*
X134860816Y-98259882D01*
X134934449Y-98387419D01*
X135038580Y-98491550D01*
X135038582Y-98491551D01*
X135166118Y-98565184D01*
X135263270Y-98591216D01*
X135308362Y-98603299D01*
X135308365Y-98603299D01*
X135308367Y-98603300D01*
X135308368Y-98603300D01*
X135455632Y-98603300D01*
X135455633Y-98603300D01*
X135597882Y-98565184D01*
X135725418Y-98491551D01*
X135798923Y-98418046D01*
X135826500Y-98406623D01*
X135854077Y-98418046D01*
X135927580Y-98491550D01*
X135927582Y-98491551D01*
X136055118Y-98565184D01*
X136152270Y-98591216D01*
X136197362Y-98603299D01*
X136197365Y-98603299D01*
X136197367Y-98603300D01*
X136197368Y-98603300D01*
X136344632Y-98603300D01*
X136344633Y-98603300D01*
X136486882Y-98565184D01*
X136614418Y-98491551D01*
X136614419Y-98491550D01*
X136614420Y-98491550D01*
X136718550Y-98387420D01*
X136718550Y-98387419D01*
X136731753Y-98364551D01*
X136792184Y-98259882D01*
X136804829Y-98212689D01*
X136823000Y-98189009D01*
X136852594Y-98185113D01*
X136876275Y-98203284D01*
X136880171Y-98212690D01*
X136892816Y-98259882D01*
X136966449Y-98387419D01*
X137070580Y-98491550D01*
X137070582Y-98491551D01*
X137198118Y-98565184D01*
X137295270Y-98591216D01*
X137340362Y-98603299D01*
X137340365Y-98603299D01*
X137340367Y-98603300D01*
X137340368Y-98603300D01*
X137487632Y-98603300D01*
X137487633Y-98603300D01*
X137629882Y-98565184D01*
X137757418Y-98491551D01*
X137830923Y-98418046D01*
X137858500Y-98406623D01*
X137886077Y-98418046D01*
X137959580Y-98491550D01*
X137959582Y-98491551D01*
X138087118Y-98565184D01*
X138184270Y-98591216D01*
X138229362Y-98603299D01*
X138229365Y-98603299D01*
X138229367Y-98603300D01*
X138229368Y-98603300D01*
X138376632Y-98603300D01*
X138376633Y-98603300D01*
X138518882Y-98565184D01*
X138646418Y-98491551D01*
X138646419Y-98491550D01*
X138646420Y-98491550D01*
X138750550Y-98387420D01*
X138750550Y-98387419D01*
X138763753Y-98364551D01*
X138824184Y-98259882D01*
X138862300Y-98117633D01*
X138862300Y-97970367D01*
X138824184Y-97828118D01*
X138770280Y-97734753D01*
X138750550Y-97700580D01*
X138646419Y-97596449D01*
X138518882Y-97522816D01*
X138376637Y-97484700D01*
X138376633Y-97484700D01*
X138229367Y-97484700D01*
X138229362Y-97484700D01*
X138087117Y-97522816D01*
X137959580Y-97596449D01*
X137959580Y-97596450D01*
X137886077Y-97669953D01*
X137858500Y-97681376D01*
X137830923Y-97669953D01*
X137757419Y-97596449D01*
X137629882Y-97522816D01*
X137487637Y-97484700D01*
X137487633Y-97484700D01*
X137340367Y-97484700D01*
X137340362Y-97484700D01*
X137198117Y-97522816D01*
X137070580Y-97596449D01*
X137070580Y-97596450D01*
X136966450Y-97700580D01*
X136966449Y-97700580D01*
X136892816Y-97828117D01*
X136880171Y-97875309D01*
X136862000Y-97898990D01*
X136832406Y-97902886D01*
X136808725Y-97884715D01*
X136804829Y-97875309D01*
X136804091Y-97872556D01*
X136792184Y-97828118D01*
X136738280Y-97734753D01*
X136718550Y-97700580D01*
X136614419Y-97596449D01*
X136486882Y-97522816D01*
X136344637Y-97484700D01*
X136344633Y-97484700D01*
X136197367Y-97484700D01*
X136197362Y-97484700D01*
X136055117Y-97522816D01*
X135927580Y-97596449D01*
X135927580Y-97596450D01*
X135854077Y-97669953D01*
X135826500Y-97681376D01*
X135798923Y-97669953D01*
X135725419Y-97596449D01*
X135597882Y-97522816D01*
X135455637Y-97484700D01*
X135455633Y-97484700D01*
X135308367Y-97484700D01*
X135308362Y-97484700D01*
X135166117Y-97522816D01*
X135038580Y-97596449D01*
X135038580Y-97596450D01*
X134934450Y-97700580D01*
X134934449Y-97700580D01*
X134860816Y-97828117D01*
X134822700Y-97970362D01*
X133147300Y-97970362D01*
X133147300Y-97843367D01*
X133109184Y-97701118D01*
X133035551Y-97573582D01*
X133035550Y-97573580D01*
X132931419Y-97469449D01*
X132803882Y-97395816D01*
X132661637Y-97357700D01*
X132661633Y-97357700D01*
X132514367Y-97357700D01*
X132514362Y-97357700D01*
X132372117Y-97395816D01*
X132244580Y-97469449D01*
X132244580Y-97469450D01*
X132171077Y-97542953D01*
X132143500Y-97554376D01*
X132115923Y-97542953D01*
X132042419Y-97469449D01*
X131914882Y-97395816D01*
X131772637Y-97357700D01*
X131772633Y-97357700D01*
X131625367Y-97357700D01*
X131625362Y-97357700D01*
X131483117Y-97395816D01*
X131355580Y-97469449D01*
X131355580Y-97469450D01*
X131251450Y-97573580D01*
X131251449Y-97573580D01*
X131177816Y-97701117D01*
X131139700Y-97843362D01*
X130988299Y-97843362D01*
X130950184Y-97701118D01*
X130876551Y-97573582D01*
X130876550Y-97573580D01*
X130772419Y-97469449D01*
X130644882Y-97395816D01*
X130502637Y-97357700D01*
X130502633Y-97357700D01*
X130355367Y-97357700D01*
X130355362Y-97357700D01*
X130213117Y-97395816D01*
X130085580Y-97469449D01*
X130085580Y-97469450D01*
X130012077Y-97542953D01*
X129984500Y-97554376D01*
X129956923Y-97542953D01*
X129883419Y-97469449D01*
X129755882Y-97395816D01*
X129613637Y-97357700D01*
X129613633Y-97357700D01*
X129466367Y-97357700D01*
X129466362Y-97357700D01*
X129324117Y-97395816D01*
X129196580Y-97469449D01*
X129196580Y-97469450D01*
X129092450Y-97573580D01*
X129092449Y-97573580D01*
X129018816Y-97701117D01*
X128980700Y-97843362D01*
X128614454Y-97843362D01*
X128452567Y-97357700D01*
X127916667Y-95750000D01*
X127916666Y-95750000D01*
X120293500Y-95750000D01*
X120265923Y-95738577D01*
X120254500Y-95711000D01*
X120254500Y-92789000D01*
X120265923Y-92761423D01*
X120293500Y-92750000D01*
X126805138Y-92750000D01*
X126810687Y-92750396D01*
G37*
%TD.AperFunction*%
%TD*%
M02*
