%TF.GenerationSoftware,KiCad,Pcbnew,9.0.1*%
%TF.CreationDate,2025-04-22T15:18:38+08:00*%
%TF.ProjectId,CawDrive,43617744-7269-4766-952e-6b696361645f,rev?*%
%TF.SameCoordinates,Original*%
%TF.FileFunction,Copper,L2,Inr*%
%TF.FilePolarity,Positive*%
%FSLAX46Y46*%
G04 Gerber Fmt 4.6, Leading zero omitted, Abs format (unit mm)*
G04 Created by KiCad (PCBNEW 9.0.1) date 2025-04-22 15:18:38*
%MOMM*%
%LPD*%
G01*
G04 APERTURE LIST*
G04 Aperture macros list*
%AMRoundRect*
0 Rectangle with rounded corners*
0 $1 Rounding radius*
0 $2 $3 $4 $5 $6 $7 $8 $9 X,Y pos of 4 corners*
0 Add a 4 corners polygon primitive as box body*
4,1,4,$2,$3,$4,$5,$6,$7,$8,$9,$2,$3,0*
0 Add four circle primitives for the rounded corners*
1,1,$1+$1,$2,$3*
1,1,$1+$1,$4,$5*
1,1,$1+$1,$6,$7*
1,1,$1+$1,$8,$9*
0 Add four rect primitives between the rounded corners*
20,1,$1+$1,$2,$3,$4,$5,0*
20,1,$1+$1,$4,$5,$6,$7,0*
20,1,$1+$1,$6,$7,$8,$9,0*
20,1,$1+$1,$8,$9,$2,$3,0*%
G04 Aperture macros list end*
%TA.AperFunction,ComponentPad*%
%ADD10RoundRect,0.750000X-0.750000X-0.750000X0.750000X-0.750000X0.750000X0.750000X-0.750000X0.750000X0*%
%TD*%
%TA.AperFunction,ComponentPad*%
%ADD11C,0.800000*%
%TD*%
%TA.AperFunction,ComponentPad*%
%ADD12C,5.000000*%
%TD*%
%TA.AperFunction,ViaPad*%
%ADD13C,0.600000*%
%TD*%
%TA.AperFunction,ViaPad*%
%ADD14C,0.500000*%
%TD*%
%TA.AperFunction,ViaPad*%
%ADD15C,0.800000*%
%TD*%
G04 APERTURE END LIST*
D10*
%TO.N,GND1*%
%TO.C,H8*%
X168000000Y-95000000D03*
%TD*%
D11*
%TO.N,unconnected-(H2-Pad1)_1*%
%TO.C,H2*%
X157125000Y-71000000D03*
%TO.N,unconnected-(H2-Pad1)_5*%
X157674175Y-69674175D03*
%TO.N,unconnected-(H2-Pad1)_8*%
X157674175Y-72325825D03*
%TO.N,unconnected-(H2-Pad1)_2*%
X159000000Y-69125000D03*
D12*
%TO.N,unconnected-(H2-Pad1)*%
X159000000Y-71000000D03*
D11*
%TO.N,unconnected-(H2-Pad1)_4*%
X159000000Y-72875000D03*
%TO.N,unconnected-(H2-Pad1)_7*%
X160325825Y-69674175D03*
%TO.N,unconnected-(H2-Pad1)_6*%
X160325825Y-72325825D03*
%TO.N,unconnected-(H2-Pad1)_3*%
X160875000Y-71000000D03*
%TD*%
D10*
%TO.N,/DRV8323RSRGZR/PHASB*%
%TO.C,H6*%
X141000000Y-108000000D03*
%TD*%
D11*
%TO.N,unconnected-(H4-Pad1)_7*%
%TO.C,H4*%
X121125000Y-107000000D03*
%TO.N,unconnected-(H4-Pad1)_5*%
X121674175Y-105674175D03*
%TO.N,unconnected-(H4-Pad1)_3*%
X121674175Y-108325825D03*
%TO.N,unconnected-(H4-Pad1)*%
X123000000Y-105125000D03*
D12*
%TO.N,unconnected-(H4-Pad1)_4*%
X123000000Y-107000000D03*
D11*
%TO.N,unconnected-(H4-Pad1)_2*%
X123000000Y-108875000D03*
%TO.N,unconnected-(H4-Pad1)_8*%
X124325825Y-105674175D03*
%TO.N,unconnected-(H4-Pad1)_6*%
X124325825Y-108325825D03*
%TO.N,unconnected-(H4-Pad1)_1*%
X124875000Y-107000000D03*
%TD*%
D10*
%TO.N,/DRV8323RSRGZR/PHASC*%
%TO.C,H7*%
X151000000Y-108000000D03*
%TD*%
%TO.N,+36V*%
%TO.C,H9*%
X168000000Y-101000000D03*
%TD*%
D11*
%TO.N,unconnected-(H1-Pad1)_5*%
%TO.C,H1*%
X121125000Y-71000000D03*
%TO.N,unconnected-(H1-Pad1)_4*%
X121674175Y-69674175D03*
%TO.N,unconnected-(H1-Pad1)_8*%
X121674175Y-72325825D03*
%TO.N,unconnected-(H1-Pad1)_6*%
X123000000Y-69125000D03*
D12*
%TO.N,unconnected-(H1-Pad1)*%
X123000000Y-71000000D03*
D11*
%TO.N,unconnected-(H1-Pad1)_1*%
X123000000Y-72875000D03*
%TO.N,unconnected-(H1-Pad1)_7*%
X124325825Y-69674175D03*
%TO.N,unconnected-(H1-Pad1)_2*%
X124325825Y-72325825D03*
%TO.N,unconnected-(H1-Pad1)_3*%
X124875000Y-71000000D03*
%TD*%
%TO.N,unconnected-(H3-Pad1)_4*%
%TO.C,H3*%
X157125000Y-107000000D03*
%TO.N,unconnected-(H3-Pad1)_7*%
X157674175Y-105674175D03*
%TO.N,unconnected-(H3-Pad1)_8*%
X157674175Y-108325825D03*
%TO.N,unconnected-(H3-Pad1)_1*%
X159000000Y-105125000D03*
D12*
%TO.N,unconnected-(H3-Pad1)_2*%
X159000000Y-107000000D03*
D11*
%TO.N,unconnected-(H3-Pad1)_5*%
X159000000Y-108875000D03*
%TO.N,unconnected-(H3-Pad1)_6*%
X160325825Y-105674175D03*
%TO.N,unconnected-(H3-Pad1)*%
X160325825Y-108325825D03*
%TO.N,unconnected-(H3-Pad1)_3*%
X160875000Y-107000000D03*
%TD*%
D10*
%TO.N,/DRV8323RSRGZR/PHASA*%
%TO.C,H5*%
X131000000Y-108000000D03*
%TD*%
D13*
%TO.N,/ADC1_IN10*%
X164502500Y-90840000D03*
D14*
X157607000Y-80596000D03*
%TO.N,GND*%
X129611100Y-83280000D03*
X129611100Y-82610000D03*
X128470000Y-80480000D03*
X128470000Y-79730000D03*
X166160000Y-80510000D03*
D13*
X133985000Y-88265000D03*
D14*
X156845000Y-74168000D03*
X153359927Y-89797182D03*
D13*
X131445000Y-84455000D03*
X132715000Y-88265000D03*
X132715000Y-89535000D03*
X133985000Y-84455000D03*
X133985000Y-85725000D03*
D14*
X156337000Y-89154000D03*
D13*
X134620000Y-86360000D03*
D14*
X163180000Y-90860000D03*
X149853162Y-91796638D03*
D13*
X133350000Y-86360000D03*
D14*
X155896481Y-83163519D03*
X126270000Y-79230000D03*
X133100000Y-74497590D03*
X123571000Y-90805000D03*
D13*
X133985000Y-86995000D03*
D14*
X166624000Y-91694000D03*
D13*
X132715000Y-84455000D03*
D15*
X131699000Y-75692000D03*
D13*
X132080000Y-85090000D03*
X135255000Y-86995000D03*
D14*
X140410000Y-83664000D03*
X158496000Y-77089000D03*
D13*
X132080000Y-86360000D03*
X131445000Y-88265000D03*
X130810000Y-85090000D03*
X157861000Y-86233000D03*
X133350000Y-83820000D03*
X129540000Y-86360000D03*
X131445000Y-86995000D03*
X130810000Y-87630000D03*
X131445000Y-85725000D03*
X130810000Y-86360000D03*
X134620000Y-85090000D03*
D14*
X155575000Y-75311000D03*
D13*
X132080000Y-88900000D03*
D14*
X122263500Y-90080500D03*
D13*
X133350000Y-88900000D03*
D14*
X141680000Y-87110000D03*
D13*
X135255000Y-85725000D03*
D14*
X128524000Y-71501000D03*
X140190000Y-74290000D03*
D13*
X123130000Y-84740000D03*
D14*
X142810000Y-72830000D03*
X150420000Y-90374400D03*
D13*
X132715000Y-86995000D03*
D14*
X139634666Y-91357100D03*
D13*
X130175000Y-85725000D03*
D14*
X161671000Y-77089000D03*
D13*
X132080000Y-87630000D03*
D14*
X148540000Y-73060000D03*
D13*
X123140000Y-83830000D03*
X133350000Y-85090000D03*
D14*
X141986000Y-75184000D03*
D13*
X133350000Y-87630000D03*
D14*
X136888408Y-88610842D03*
D13*
X132715000Y-85725000D03*
X135890000Y-86360000D03*
D14*
X162687000Y-84709000D03*
D13*
X132080000Y-83820000D03*
X130175000Y-86995000D03*
X134620000Y-87630000D03*
X132715000Y-83185000D03*
D14*
%TO.N,+3.3V*%
X155575000Y-76581000D03*
X153380000Y-88480000D03*
X158623000Y-75946000D03*
X162030000Y-90850000D03*
X141686056Y-89695608D03*
X161070000Y-82744000D03*
X147387971Y-89437971D03*
X161120000Y-84460000D03*
X124968000Y-74168000D03*
X141180000Y-74210000D03*
X142470000Y-87060000D03*
X136982855Y-84612855D03*
D13*
X137160000Y-76454000D03*
X137160000Y-77089000D03*
X137160000Y-75692000D03*
X154813000Y-86233000D03*
X163490000Y-79980000D03*
D14*
X161671000Y-75946000D03*
X139893214Y-84302708D03*
%TO.N,+5V*%
X135890000Y-73914000D03*
X127381000Y-76309000D03*
X152430000Y-91890000D03*
X123571000Y-89662000D03*
D13*
%TO.N,+36V*%
X147955000Y-100203000D03*
X149225000Y-101219000D03*
X143637000Y-103251000D03*
X139827000Y-100203000D03*
X139827000Y-102235000D03*
X157099000Y-100584000D03*
X142367000Y-101219000D03*
X149225000Y-100203000D03*
X123825000Y-98425000D03*
X149225000Y-102235000D03*
X157861000Y-102870000D03*
X122555000Y-101473000D03*
X147955000Y-101219000D03*
X142367000Y-103251000D03*
X139827000Y-101219000D03*
X147955000Y-103251000D03*
X122555000Y-99441000D03*
X157099000Y-103505000D03*
X139827000Y-103251000D03*
X125095000Y-98425000D03*
X123825000Y-101473000D03*
X145415000Y-101219000D03*
X122555000Y-100457000D03*
X147955000Y-102235000D03*
X143637000Y-100203000D03*
X141097000Y-102235000D03*
X141097000Y-101219000D03*
X142367000Y-100203000D03*
X145415000Y-102235000D03*
X145415000Y-103251000D03*
X157099000Y-102235000D03*
X157861000Y-99822000D03*
X142367000Y-102235000D03*
X157099000Y-99822000D03*
X149225000Y-103251000D03*
X145415000Y-100203000D03*
X157861000Y-100584000D03*
X126365000Y-101473000D03*
X157861000Y-102235000D03*
X146685000Y-102235000D03*
X129282341Y-89497659D03*
X157861000Y-103505000D03*
X126365000Y-99441000D03*
X123825000Y-99441000D03*
X143637000Y-101219000D03*
X141097000Y-103251000D03*
X126365000Y-98425000D03*
X125095000Y-101473000D03*
X146685000Y-101219000D03*
X157099000Y-102870000D03*
X125576500Y-85852000D03*
X125095000Y-100457000D03*
X126365000Y-100457000D03*
X146685000Y-100203000D03*
X122555000Y-98425000D03*
X125095000Y-99441000D03*
X123825000Y-100457000D03*
X141097000Y-100203000D03*
X143637000Y-102235000D03*
X146685000Y-103251000D03*
%TO.N,/DRV8323RSRGZR/PHASA*%
X129794000Y-103378000D03*
X131064000Y-104394000D03*
X125095000Y-102743000D03*
X131064000Y-103378000D03*
X125095000Y-103759000D03*
X128524000Y-104394000D03*
X128524000Y-103378000D03*
X122500000Y-102750000D03*
X123825000Y-103759000D03*
X132334000Y-104394000D03*
X129794000Y-104394000D03*
X123825000Y-102743000D03*
X132334000Y-103378000D03*
X122555000Y-103759000D03*
%TO.N,/DRV8323RSRGZR/PHASB*%
X138049000Y-103378000D03*
X142367000Y-104521000D03*
X141097000Y-105664000D03*
X138049000Y-104394000D03*
X135509000Y-104394000D03*
X134239000Y-103378000D03*
X139827000Y-105664000D03*
X135509000Y-103378000D03*
X134239000Y-104394000D03*
X139827000Y-104521000D03*
X136779000Y-103378000D03*
X136779000Y-104394000D03*
X142367000Y-105664000D03*
X141097000Y-104521000D03*
%TO.N,/DRV8323RSRGZR/PHASC*%
X146685000Y-105664000D03*
X151257000Y-101473000D03*
X145415000Y-104521000D03*
X146685000Y-104521000D03*
X147955000Y-105664000D03*
X147955000Y-104521000D03*
X145415000Y-105664000D03*
X152527000Y-101473000D03*
X154940000Y-101473000D03*
X153797000Y-101473000D03*
D14*
%TO.N,/SPI1_NSS*%
X150600000Y-71590000D03*
X147960000Y-77600000D03*
%TO.N,/SPI1_MISO*%
X152504274Y-71621814D03*
X150090000Y-78134170D03*
%TO.N,/SPI1_MOSI*%
X149362410Y-77400000D03*
X151550000Y-71060000D03*
%TO.N,/SWDIO*%
X152655955Y-82933814D03*
X161800000Y-81604000D03*
%TO.N,/SWCLK*%
X161840000Y-82630000D03*
X152850000Y-83830000D03*
%TO.N,/SPI1_SCK*%
X151321720Y-77751498D03*
X153550000Y-71630000D03*
%TO.N,/MCU_STA*%
X161380000Y-80017590D03*
X153009663Y-80024590D03*
%TO.N,/DRV_STA*%
X161495520Y-83303846D03*
X152220000Y-80820000D03*
%TO.N,/SPI3_MISO*%
X146180000Y-88620000D03*
X137983262Y-82503262D03*
X146820000Y-83834170D03*
%TO.N,/SPI3_SCK*%
X146004360Y-82744170D03*
X136174574Y-82296537D03*
X142240000Y-88890000D03*
%TO.N,/SPI3_MOSI*%
X146910000Y-82980000D03*
X136977600Y-82313345D03*
X145662016Y-89971001D03*
D13*
%TO.N,GND1*%
X121539000Y-93726000D03*
X141224000Y-93980000D03*
X125984000Y-93726000D03*
X143510000Y-94742000D03*
X131699000Y-93980000D03*
X160909000Y-95377000D03*
X147447000Y-93980000D03*
X139700000Y-93980000D03*
X148209000Y-94742000D03*
X160909000Y-96901000D03*
X160274000Y-95377000D03*
X143510000Y-93980000D03*
X141986000Y-93980000D03*
X154051000Y-94107000D03*
X139700000Y-94742000D03*
X154686000Y-94742000D03*
X142748000Y-94742000D03*
X141986000Y-94742000D03*
X160909000Y-97536000D03*
X153416000Y-94742000D03*
X145923000Y-94742000D03*
X153416000Y-94107000D03*
X160274000Y-94107000D03*
X145161000Y-93980000D03*
X136652000Y-93980000D03*
X160909000Y-94107000D03*
X130048000Y-93980000D03*
X120650000Y-93726000D03*
X141224000Y-94742000D03*
X160274000Y-97536000D03*
X148971000Y-93980000D03*
X160274000Y-98171000D03*
X137541000Y-94742000D03*
X140462000Y-93980000D03*
X148209000Y-93980000D03*
X140462000Y-94742000D03*
X160909000Y-98171000D03*
X125095000Y-93726000D03*
X148971000Y-94742000D03*
X132461000Y-93980000D03*
X160909000Y-94742000D03*
X130810000Y-94742000D03*
X155321000Y-94742000D03*
X136652000Y-94742000D03*
X124206000Y-93726000D03*
X131699000Y-94742000D03*
D14*
X133120000Y-91890000D03*
D13*
X160274000Y-96901000D03*
X145161000Y-94742000D03*
X154686000Y-94107000D03*
X137541000Y-93980000D03*
X142748000Y-93980000D03*
D14*
X135620000Y-91890000D03*
D13*
X132461000Y-94742000D03*
X160274000Y-94742000D03*
X130048000Y-94742000D03*
X147447000Y-94742000D03*
X155321000Y-94107000D03*
X154051000Y-94742000D03*
X130810000Y-93980000D03*
X135890000Y-94742000D03*
X146685000Y-93980000D03*
X123317000Y-93726000D03*
X145923000Y-93980000D03*
X135890000Y-93980000D03*
X146685000Y-94742000D03*
D14*
%TO.N,/TIM1_CH1N*%
X132510000Y-79390000D03*
X144410000Y-78020000D03*
%TO.N,/DRV_SPI_NSS*%
X146670000Y-82180000D03*
X135304712Y-82723062D03*
%TO.N,/TIM1_CH3N*%
X144402828Y-79181844D03*
X129160000Y-80060000D03*
%TO.N,/TIM1_CH3*%
X129964380Y-79855620D03*
X145431091Y-81352581D03*
%TO.N,/TIM1_CH2*%
X145100000Y-80610000D03*
X131780000Y-79770000D03*
%TO.N,/TIM1_CH2N*%
X144802652Y-78603368D03*
X130980000Y-79800000D03*
%TO.N,/TIM1_CH1*%
X134580000Y-79574000D03*
X144396400Y-80235830D03*
%TO.N,/ADC3_IN3*%
X154750000Y-73260000D03*
X138480000Y-73530000D03*
%TO.N,/USART3_TX*%
X166330000Y-78510000D03*
X148520000Y-79534000D03*
%TO.N,/USART3_RX*%
X166273092Y-77508413D03*
X148478467Y-78531657D03*
%TO.N,/I2C1_SCL*%
X145080000Y-74310000D03*
X147967327Y-82206100D03*
%TO.N,/I2C1_SDA*%
X149230000Y-82250000D03*
X146050000Y-74295000D03*
%TO.N,/ENCODER_STA*%
X161370000Y-85560000D03*
X152706964Y-81948044D03*
%TO.N,/CAN_TX*%
X151602327Y-85122584D03*
X156464000Y-87884000D03*
%TO.N,/CAN_RX*%
X150970095Y-85702499D03*
X156464000Y-91694000D03*
%TO.N,/CAN_STB*%
X148985087Y-85901656D03*
D13*
X158360000Y-87870000D03*
D14*
%TO.N,/ADC1_IN0*%
X148190000Y-80720000D03*
X141129322Y-84687590D03*
%TO.N,/ADC2_IN1*%
X139690000Y-85960000D03*
X149050000Y-80290000D03*
%TO.N,/ADC3_IN2*%
X150015184Y-79950686D03*
X140230292Y-86554322D03*
%TO.N,Net-(U8-PC13)*%
X165720000Y-76560000D03*
X151287590Y-83789990D03*
%TO.N,/ENCODER_CAL_EN*%
X141930000Y-87890000D03*
%TO.N,/ENCODER_SPI_NSS*%
X146243798Y-90366000D03*
D13*
%TO.N,/DRV8323RSRGZR/SPA*%
X131826000Y-97155000D03*
X132588000Y-97155000D03*
X132588000Y-98044000D03*
X131064000Y-98044000D03*
X130302000Y-98044000D03*
X130302000Y-97155000D03*
X131826000Y-98044000D03*
X129540000Y-97155000D03*
X129540000Y-98044000D03*
%TO.N,/DRV8323RSRGZR/SPB*%
X135382000Y-97917000D03*
X136906000Y-97917000D03*
D14*
X135141337Y-91245009D03*
D13*
X137795000Y-97155000D03*
D14*
X133820000Y-91290000D03*
D13*
X137795000Y-97917000D03*
X136906000Y-97155000D03*
X135382000Y-97155000D03*
X136144000Y-97155000D03*
X136144000Y-97917000D03*
%TO.N,/DRV8323RSRGZR/SPC*%
X155575000Y-97282000D03*
X153289000Y-97917000D03*
X155575000Y-97917000D03*
X154051000Y-97917000D03*
X154813000Y-97282000D03*
X153289000Y-97282000D03*
X154051000Y-97282000D03*
X154813000Y-97917000D03*
%TD*%
%TA.AperFunction,Conductor*%
%TO.N,/DRV8323RSRGZR/PHASB*%
G36*
X138988577Y-99511423D02*
G01*
X139000000Y-99539000D01*
X139000000Y-104000000D01*
X143961000Y-104000000D01*
X143988577Y-104011423D01*
X144000000Y-104039000D01*
X144000000Y-109935100D01*
X143988577Y-109962677D01*
X143961000Y-109974100D01*
X133789000Y-109974100D01*
X133761423Y-109962677D01*
X133750000Y-109935100D01*
X133750000Y-99539000D01*
X133761423Y-99511423D01*
X133789000Y-99500000D01*
X138961000Y-99500000D01*
X138988577Y-99511423D01*
G37*
%TD.AperFunction*%
%TD*%
%TA.AperFunction,Conductor*%
%TO.N,/DRV8323RSRGZR/PHASC*%
G36*
X155943039Y-99519685D02*
G01*
X155988794Y-99572489D01*
X156000000Y-99624000D01*
X156000000Y-109850100D01*
X155980315Y-109917139D01*
X155927511Y-109962894D01*
X155876000Y-109974100D01*
X144624000Y-109974100D01*
X144556961Y-109954415D01*
X144511206Y-109901611D01*
X144500000Y-109850100D01*
X144500000Y-104124000D01*
X144519685Y-104056961D01*
X144572489Y-104011206D01*
X144624000Y-104000000D01*
X150000000Y-104000000D01*
X150000000Y-99624000D01*
X150019685Y-99556961D01*
X150072489Y-99511206D01*
X150124000Y-99500000D01*
X155876000Y-99500000D01*
X155943039Y-99519685D01*
G37*
%TD.AperFunction*%
%TD*%
%TA.AperFunction,Conductor*%
%TO.N,+36V*%
G36*
X127443039Y-97769685D02*
G01*
X127488794Y-97822489D01*
X127500000Y-97874000D01*
X127500000Y-101626000D01*
X127480315Y-101693039D01*
X127427511Y-101738794D01*
X127376000Y-101750000D01*
X120149900Y-101750000D01*
X120082861Y-101730315D01*
X120037106Y-101677511D01*
X120025900Y-101626000D01*
X120025900Y-97874000D01*
X120045585Y-97806961D01*
X120098389Y-97761206D01*
X120149900Y-97750000D01*
X127376000Y-97750000D01*
X127443039Y-97769685D01*
G37*
%TD.AperFunction*%
%TD*%
%TA.AperFunction,Conductor*%
%TO.N,GND*%
G36*
X159001011Y-68025953D02*
G01*
X159308841Y-68042085D01*
X159312897Y-68042511D01*
X159616342Y-68090573D01*
X159620317Y-68091418D01*
X159917074Y-68170934D01*
X159920947Y-68172192D01*
X160111921Y-68245500D01*
X160207768Y-68282292D01*
X160211498Y-68283953D01*
X160485229Y-68423426D01*
X160488762Y-68425466D01*
X160540067Y-68458784D01*
X160746417Y-68592789D01*
X160749719Y-68595188D01*
X160988473Y-68788527D01*
X160991507Y-68791259D01*
X161208740Y-69008492D01*
X161211472Y-69011526D01*
X161404811Y-69250280D01*
X161407210Y-69253582D01*
X161574532Y-69511235D01*
X161576573Y-69514770D01*
X161716046Y-69788501D01*
X161717707Y-69792231D01*
X161827805Y-70079047D01*
X161829066Y-70082929D01*
X161908579Y-70379673D01*
X161909428Y-70383666D01*
X161957487Y-70687100D01*
X161957914Y-70691160D01*
X161973523Y-70989004D01*
X161971577Y-71003370D01*
X161922414Y-71150963D01*
X161885165Y-71320230D01*
X161853938Y-71462134D01*
X161850303Y-71478650D01*
X161812982Y-71812081D01*
X161812982Y-71812082D01*
X161810859Y-72147580D01*
X161843958Y-72481455D01*
X161843960Y-72481464D01*
X161911917Y-72810025D01*
X161911918Y-72810028D01*
X161911917Y-72810028D01*
X162013982Y-73129644D01*
X162149020Y-73436772D01*
X162315551Y-73728043D01*
X162315557Y-73728051D01*
X162511652Y-74000119D01*
X162511734Y-74000232D01*
X162511740Y-74000239D01*
X162511745Y-74000245D01*
X162735391Y-74250320D01*
X162735399Y-74250328D01*
X162905865Y-74404730D01*
X162984067Y-74475563D01*
X163255005Y-74673460D01*
X163545215Y-74841830D01*
X163545224Y-74841834D01*
X163545230Y-74841837D01*
X163732222Y-74925469D01*
X163851493Y-74978813D01*
X164170456Y-75082896D01*
X164498580Y-75152931D01*
X164832242Y-75188142D01*
X164981511Y-75188173D01*
X164981535Y-75188178D01*
X164989272Y-75188178D01*
X165000000Y-75188178D01*
X165008415Y-75188178D01*
X169935100Y-75188178D01*
X169962677Y-75199601D01*
X169974100Y-75227178D01*
X169974100Y-91961000D01*
X169962677Y-91988577D01*
X169935100Y-92000000D01*
X169918962Y-92000000D01*
X169913412Y-91999603D01*
X169911604Y-91999343D01*
X169850100Y-91990500D01*
X169850099Y-91990500D01*
X156942912Y-91990500D01*
X156915335Y-91979077D01*
X156903912Y-91951500D01*
X156909137Y-91932000D01*
X156927612Y-91900000D01*
X156934119Y-91888730D01*
X156951576Y-91823582D01*
X156968499Y-91760423D01*
X156968500Y-91760417D01*
X156968500Y-91627582D01*
X156968499Y-91627576D01*
X156955812Y-91580228D01*
X156934119Y-91499270D01*
X156875366Y-91397508D01*
X156867699Y-91384228D01*
X156773771Y-91290300D01*
X156658730Y-91223881D01*
X156530423Y-91189500D01*
X156530419Y-91189500D01*
X156397581Y-91189500D01*
X156397576Y-91189500D01*
X156269269Y-91223881D01*
X156154228Y-91290300D01*
X156154228Y-91290301D01*
X156060301Y-91384228D01*
X156060300Y-91384228D01*
X155993881Y-91499269D01*
X155959500Y-91627576D01*
X155959500Y-91760423D01*
X155993879Y-91888727D01*
X156018863Y-91932000D01*
X156022759Y-91961594D01*
X156004588Y-91985275D01*
X155985088Y-91990500D01*
X152973500Y-91990500D01*
X152945923Y-91979077D01*
X152934500Y-91951500D01*
X152934500Y-91823582D01*
X152934499Y-91823576D01*
X152914242Y-91747978D01*
X152900119Y-91695270D01*
X152833700Y-91580230D01*
X152833699Y-91580228D01*
X152739771Y-91486300D01*
X152624730Y-91419881D01*
X152496423Y-91385500D01*
X152496419Y-91385500D01*
X152363581Y-91385500D01*
X152363576Y-91385500D01*
X152235269Y-91419881D01*
X152120228Y-91486300D01*
X152120228Y-91486301D01*
X152026301Y-91580228D01*
X152026300Y-91580228D01*
X151959881Y-91695269D01*
X151925500Y-91823576D01*
X151925500Y-91951500D01*
X151914077Y-91979077D01*
X151886500Y-91990500D01*
X150110141Y-91990500D01*
X150110136Y-91990500D01*
X150110128Y-91990501D01*
X150041709Y-91999509D01*
X150041697Y-91999422D01*
X150035828Y-92000000D01*
X149670497Y-92000000D01*
X149664628Y-91999422D01*
X149664617Y-91999509D01*
X149596197Y-91990501D01*
X149596187Y-91990500D01*
X149596183Y-91990500D01*
X149596175Y-91990500D01*
X136163500Y-91990500D01*
X136135923Y-91979077D01*
X136124500Y-91951500D01*
X136124500Y-91823582D01*
X136124499Y-91823576D01*
X136104242Y-91747978D01*
X136090119Y-91695270D01*
X136023700Y-91580230D01*
X136023699Y-91580228D01*
X135929772Y-91486301D01*
X135919499Y-91480370D01*
X135901329Y-91456688D01*
X135900000Y-91446595D01*
X135900000Y-90700000D01*
X133000000Y-90700000D01*
X133000000Y-91369931D01*
X132988577Y-91397508D01*
X132971095Y-91407602D01*
X132925268Y-91419881D01*
X132810228Y-91486300D01*
X132810228Y-91486301D01*
X132716301Y-91580228D01*
X132716300Y-91580228D01*
X132649881Y-91695269D01*
X132615500Y-91823576D01*
X132615500Y-91861000D01*
X132604077Y-91888577D01*
X132576500Y-91900000D01*
X120064900Y-91900000D01*
X120037323Y-91888577D01*
X120025900Y-91861000D01*
X120025900Y-89595576D01*
X123066500Y-89595576D01*
X123066500Y-89728423D01*
X123100881Y-89856730D01*
X123167300Y-89971771D01*
X123261228Y-90065699D01*
X123261230Y-90065700D01*
X123376270Y-90132119D01*
X123463903Y-90155600D01*
X123504576Y-90166499D01*
X123504579Y-90166499D01*
X123504581Y-90166500D01*
X123504582Y-90166500D01*
X123637418Y-90166500D01*
X123637419Y-90166500D01*
X123765730Y-90132119D01*
X123880770Y-90065700D01*
X123880771Y-90065699D01*
X123880772Y-90065699D01*
X123974699Y-89971772D01*
X123974699Y-89971771D01*
X123974700Y-89971770D01*
X124041119Y-89856730D01*
X124075500Y-89728419D01*
X124075500Y-89595581D01*
X124068823Y-89570664D01*
X124051065Y-89504390D01*
X124041119Y-89467270D01*
X124016514Y-89424653D01*
X128727841Y-89424653D01*
X128727841Y-89570664D01*
X128765627Y-89711685D01*
X128838630Y-89838131D01*
X128941868Y-89941369D01*
X128941870Y-89941370D01*
X129052737Y-90005379D01*
X129068314Y-90014372D01*
X129209335Y-90052158D01*
X129209338Y-90052158D01*
X129209340Y-90052159D01*
X129209341Y-90052159D01*
X129355341Y-90052159D01*
X129355342Y-90052159D01*
X129355346Y-90052158D01*
X129496367Y-90014372D01*
X129496367Y-90014371D01*
X129496370Y-90014371D01*
X129622812Y-89941370D01*
X129622813Y-89941369D01*
X129622814Y-89941369D01*
X129726051Y-89838132D01*
X129726051Y-89838131D01*
X129761766Y-89776271D01*
X129799053Y-89711688D01*
X129821160Y-89629184D01*
X141181556Y-89629184D01*
X141181556Y-89762031D01*
X141215937Y-89890338D01*
X141282356Y-90005379D01*
X141376284Y-90099307D01*
X141376286Y-90099308D01*
X141491326Y-90165727D01*
X141578959Y-90189208D01*
X141619632Y-90200107D01*
X141619635Y-90200107D01*
X141619637Y-90200108D01*
X141619638Y-90200108D01*
X141752474Y-90200108D01*
X141752475Y-90200108D01*
X141880786Y-90165727D01*
X141995826Y-90099308D01*
X141995827Y-90099307D01*
X141995828Y-90099307D01*
X142089755Y-90005380D01*
X142089755Y-90005379D01*
X142089756Y-90005378D01*
X142147954Y-89904577D01*
X145157516Y-89904577D01*
X145157516Y-90037424D01*
X145191897Y-90165731D01*
X145258316Y-90280772D01*
X145352244Y-90374700D01*
X145352246Y-90374701D01*
X145467286Y-90441120D01*
X145554919Y-90464601D01*
X145595592Y-90475500D01*
X145595595Y-90475500D01*
X145595597Y-90475501D01*
X145595598Y-90475501D01*
X145720916Y-90475501D01*
X145748493Y-90486924D01*
X145758587Y-90504407D01*
X145773679Y-90560730D01*
X145840098Y-90675771D01*
X145934026Y-90769699D01*
X145934028Y-90769700D01*
X146049068Y-90836119D01*
X146136701Y-90859600D01*
X146177374Y-90870499D01*
X146177377Y-90870499D01*
X146177379Y-90870500D01*
X146177380Y-90870500D01*
X146310216Y-90870500D01*
X146310217Y-90870500D01*
X146438528Y-90836119D01*
X146529534Y-90783576D01*
X161525500Y-90783576D01*
X161525500Y-90916423D01*
X161559881Y-91044730D01*
X161626300Y-91159771D01*
X161720228Y-91253699D01*
X161720230Y-91253700D01*
X161835270Y-91320119D01*
X161922903Y-91343600D01*
X161963576Y-91354499D01*
X161963579Y-91354499D01*
X161963581Y-91354500D01*
X161963582Y-91354500D01*
X162096418Y-91354500D01*
X162096419Y-91354500D01*
X162224730Y-91320119D01*
X162339770Y-91253700D01*
X162339771Y-91253699D01*
X162339772Y-91253699D01*
X162433699Y-91159772D01*
X162433699Y-91159771D01*
X162470939Y-91095270D01*
X162500119Y-91044730D01*
X162534500Y-90916419D01*
X162534500Y-90783581D01*
X162534499Y-90783576D01*
X162532077Y-90774537D01*
X162530056Y-90766994D01*
X163948000Y-90766994D01*
X163948000Y-90913005D01*
X163985786Y-91054026D01*
X164058789Y-91180472D01*
X164162027Y-91283710D01*
X164288473Y-91356713D01*
X164429494Y-91394499D01*
X164429497Y-91394499D01*
X164429499Y-91394500D01*
X164429500Y-91394500D01*
X164575500Y-91394500D01*
X164575501Y-91394500D01*
X164667195Y-91369931D01*
X164716526Y-91356713D01*
X164716526Y-91356712D01*
X164716529Y-91356712D01*
X164842971Y-91283711D01*
X164842972Y-91283710D01*
X164842973Y-91283710D01*
X164946210Y-91180473D01*
X164946210Y-91180472D01*
X164947297Y-91178590D01*
X165019212Y-91054029D01*
X165057000Y-90913001D01*
X165057000Y-90766999D01*
X165032556Y-90675771D01*
X165019213Y-90625973D01*
X164946210Y-90499527D01*
X164842972Y-90396289D01*
X164716526Y-90323286D01*
X164575505Y-90285500D01*
X164575501Y-90285500D01*
X164429499Y-90285500D01*
X164429494Y-90285500D01*
X164288473Y-90323286D01*
X164162027Y-90396289D01*
X164162027Y-90396290D01*
X164058790Y-90499527D01*
X164058789Y-90499527D01*
X163985786Y-90625973D01*
X163948000Y-90766994D01*
X162530056Y-90766994D01*
X162512104Y-90700000D01*
X162500119Y-90655270D01*
X162433700Y-90540230D01*
X162433699Y-90540228D01*
X162339771Y-90446300D01*
X162224730Y-90379881D01*
X162096423Y-90345500D01*
X162096419Y-90345500D01*
X161963581Y-90345500D01*
X161963576Y-90345500D01*
X161835269Y-90379881D01*
X161720228Y-90446300D01*
X161720228Y-90446301D01*
X161626301Y-90540228D01*
X161626300Y-90540228D01*
X161559881Y-90655269D01*
X161525500Y-90783576D01*
X146529534Y-90783576D01*
X146553568Y-90769700D01*
X146553569Y-90769699D01*
X146553570Y-90769699D01*
X146647497Y-90675772D01*
X146647497Y-90675771D01*
X146647498Y-90675770D01*
X146713917Y-90560730D01*
X146748298Y-90432419D01*
X146748298Y-90299581D01*
X146713917Y-90171270D01*
X146647498Y-90056230D01*
X146647497Y-90056228D01*
X146553569Y-89962300D01*
X146438528Y-89895881D01*
X146310221Y-89861500D01*
X146310217Y-89861500D01*
X146184898Y-89861500D01*
X146157321Y-89850077D01*
X146147227Y-89832594D01*
X146144127Y-89821026D01*
X146132135Y-89776271D01*
X146065716Y-89661231D01*
X146065715Y-89661229D01*
X145971787Y-89567301D01*
X145856746Y-89500882D01*
X145728439Y-89466501D01*
X145728435Y-89466501D01*
X145595597Y-89466501D01*
X145595592Y-89466501D01*
X145467285Y-89500882D01*
X145352244Y-89567301D01*
X145352244Y-89567302D01*
X145258317Y-89661229D01*
X145258316Y-89661229D01*
X145191897Y-89776270D01*
X145157516Y-89904577D01*
X142147954Y-89904577D01*
X142156175Y-89890338D01*
X142190556Y-89762027D01*
X142190556Y-89629189D01*
X142187166Y-89616539D01*
X142174873Y-89570660D01*
X142156175Y-89500878D01*
X142127407Y-89451052D01*
X142123512Y-89421461D01*
X142141683Y-89397779D01*
X142171276Y-89393883D01*
X142171278Y-89393883D01*
X142173581Y-89394500D01*
X142173582Y-89394500D01*
X142306418Y-89394500D01*
X142306419Y-89394500D01*
X142392080Y-89371547D01*
X146883471Y-89371547D01*
X146883471Y-89504394D01*
X146917852Y-89632701D01*
X146984271Y-89747742D01*
X147078199Y-89841670D01*
X147078201Y-89841671D01*
X147193241Y-89908090D01*
X147280874Y-89931571D01*
X147321547Y-89942470D01*
X147321550Y-89942470D01*
X147321552Y-89942471D01*
X147321553Y-89942471D01*
X147454389Y-89942471D01*
X147454390Y-89942471D01*
X147582701Y-89908090D01*
X147697741Y-89841671D01*
X147697742Y-89841670D01*
X147697743Y-89841670D01*
X147791670Y-89747743D01*
X147791670Y-89747742D01*
X147802824Y-89728423D01*
X147858090Y-89632701D01*
X147892471Y-89504390D01*
X147892471Y-89371552D01*
X147858090Y-89243241D01*
X147791671Y-89128201D01*
X147791670Y-89128199D01*
X147697742Y-89034271D01*
X147582701Y-88967852D01*
X147454394Y-88933471D01*
X147454390Y-88933471D01*
X147321552Y-88933471D01*
X147321547Y-88933471D01*
X147193240Y-88967852D01*
X147078199Y-89034271D01*
X147078199Y-89034272D01*
X146984272Y-89128199D01*
X146984271Y-89128199D01*
X146917852Y-89243240D01*
X146883471Y-89371547D01*
X142392080Y-89371547D01*
X142434730Y-89360119D01*
X142549770Y-89293700D01*
X142549771Y-89293699D01*
X142549772Y-89293699D01*
X142643699Y-89199772D01*
X142643699Y-89199771D01*
X142643700Y-89199770D01*
X142710119Y-89084730D01*
X142744500Y-88956419D01*
X142744500Y-88823581D01*
X142742128Y-88814730D01*
X142733600Y-88782903D01*
X142710119Y-88695270D01*
X142643700Y-88580230D01*
X142643699Y-88580228D01*
X142617047Y-88553576D01*
X145675500Y-88553576D01*
X145675500Y-88686423D01*
X145709881Y-88814730D01*
X145776300Y-88929771D01*
X145870228Y-89023699D01*
X145870230Y-89023700D01*
X145985270Y-89090119D01*
X146072903Y-89113600D01*
X146113576Y-89124499D01*
X146113579Y-89124499D01*
X146113581Y-89124500D01*
X146113582Y-89124500D01*
X146246418Y-89124500D01*
X146246419Y-89124500D01*
X146374730Y-89090119D01*
X146489770Y-89023700D01*
X146489771Y-89023699D01*
X146489772Y-89023699D01*
X146583699Y-88929772D01*
X146583699Y-88929771D01*
X146583700Y-88929770D01*
X146650119Y-88814730D01*
X146684500Y-88686419D01*
X146684500Y-88553581D01*
X146682580Y-88546417D01*
X146661374Y-88467275D01*
X146650119Y-88425270D01*
X146643367Y-88413576D01*
X152875500Y-88413576D01*
X152875500Y-88546423D01*
X152909881Y-88674730D01*
X152976300Y-88789771D01*
X153070228Y-88883699D01*
X153070230Y-88883700D01*
X153185270Y-88950119D01*
X153272903Y-88973600D01*
X153313576Y-88984499D01*
X153313579Y-88984499D01*
X153313581Y-88984500D01*
X153313582Y-88984500D01*
X153446418Y-88984500D01*
X153446419Y-88984500D01*
X153574730Y-88950119D01*
X153689770Y-88883700D01*
X153689771Y-88883699D01*
X153689772Y-88883699D01*
X153783699Y-88789772D01*
X153783699Y-88789771D01*
X153783700Y-88789770D01*
X153850119Y-88674730D01*
X153884500Y-88546419D01*
X153884500Y-88413581D01*
X153877300Y-88386712D01*
X153870175Y-88360119D01*
X153850119Y-88285270D01*
X153783700Y-88170230D01*
X153783699Y-88170228D01*
X153689771Y-88076300D01*
X153574730Y-88009881D01*
X153446423Y-87975500D01*
X153446419Y-87975500D01*
X153313581Y-87975500D01*
X153313576Y-87975500D01*
X153185269Y-88009881D01*
X153070228Y-88076300D01*
X153070228Y-88076301D01*
X152976301Y-88170228D01*
X152976300Y-88170228D01*
X152909881Y-88285269D01*
X152875500Y-88413576D01*
X146643367Y-88413576D01*
X146583700Y-88310230D01*
X146583699Y-88310228D01*
X146489771Y-88216300D01*
X146374730Y-88149881D01*
X146246423Y-88115500D01*
X146246419Y-88115500D01*
X146113581Y-88115500D01*
X146113576Y-88115500D01*
X145985269Y-88149881D01*
X145870228Y-88216300D01*
X145870228Y-88216301D01*
X145776301Y-88310228D01*
X145776300Y-88310228D01*
X145709881Y-88425269D01*
X145675500Y-88553576D01*
X142617047Y-88553576D01*
X142549771Y-88486300D01*
X142434730Y-88419881D01*
X142306423Y-88385500D01*
X142306419Y-88385500D01*
X142226318Y-88385500D01*
X142198741Y-88374077D01*
X142187318Y-88346500D01*
X142198741Y-88318923D01*
X142206818Y-88312725D01*
X142211143Y-88310228D01*
X142239770Y-88293700D01*
X142239771Y-88293699D01*
X142239772Y-88293699D01*
X142333699Y-88199772D01*
X142333699Y-88199771D01*
X142337163Y-88193772D01*
X142400119Y-88084730D01*
X142434500Y-87956419D01*
X142434500Y-87823581D01*
X142432891Y-87817578D01*
X142432890Y-87817576D01*
X155959500Y-87817576D01*
X155959500Y-87950423D01*
X155993881Y-88078730D01*
X156060300Y-88193771D01*
X156154228Y-88287699D01*
X156154230Y-88287700D01*
X156269270Y-88354119D01*
X156343754Y-88374077D01*
X156397576Y-88388499D01*
X156397579Y-88388499D01*
X156397581Y-88388500D01*
X156397582Y-88388500D01*
X156530418Y-88388500D01*
X156530419Y-88388500D01*
X156658730Y-88354119D01*
X156773770Y-88287700D01*
X156773771Y-88287699D01*
X156773772Y-88287699D01*
X156867699Y-88193772D01*
X156867699Y-88193771D01*
X156867700Y-88193770D01*
X156934119Y-88078730D01*
X156968500Y-87950419D01*
X156968500Y-87817581D01*
X156962984Y-87796994D01*
X157805500Y-87796994D01*
X157805500Y-87943005D01*
X157843286Y-88084026D01*
X157916289Y-88210472D01*
X158019527Y-88313710D01*
X158019529Y-88313711D01*
X158124086Y-88374077D01*
X158145973Y-88386713D01*
X158286994Y-88424499D01*
X158286997Y-88424499D01*
X158286999Y-88424500D01*
X158287000Y-88424500D01*
X158433000Y-88424500D01*
X158433001Y-88424500D01*
X158433005Y-88424499D01*
X158574026Y-88386713D01*
X158574026Y-88386712D01*
X158574029Y-88386712D01*
X158700471Y-88313711D01*
X158700472Y-88313710D01*
X158700473Y-88313710D01*
X158803710Y-88210473D01*
X158803710Y-88210472D01*
X158809888Y-88199772D01*
X158876712Y-88084029D01*
X158914500Y-87943001D01*
X158914500Y-87796999D01*
X158887242Y-87695269D01*
X158876713Y-87655973D01*
X158803710Y-87529527D01*
X158700472Y-87426289D01*
X158574026Y-87353286D01*
X158433005Y-87315500D01*
X158433001Y-87315500D01*
X158286999Y-87315500D01*
X158286994Y-87315500D01*
X158145973Y-87353286D01*
X158019527Y-87426289D01*
X158019527Y-87426290D01*
X157916290Y-87529527D01*
X157916289Y-87529527D01*
X157843286Y-87655973D01*
X157805500Y-87796994D01*
X156962984Y-87796994D01*
X156934119Y-87689270D01*
X156885497Y-87605055D01*
X156867699Y-87574228D01*
X156773771Y-87480300D01*
X156658730Y-87413881D01*
X156530423Y-87379500D01*
X156530419Y-87379500D01*
X156397581Y-87379500D01*
X156397576Y-87379500D01*
X156269269Y-87413881D01*
X156154228Y-87480300D01*
X156154228Y-87480301D01*
X156060301Y-87574228D01*
X156060300Y-87574228D01*
X155993881Y-87689269D01*
X155959500Y-87817576D01*
X142432890Y-87817576D01*
X142427376Y-87796994D01*
X142400119Y-87695270D01*
X142357243Y-87621008D01*
X142353348Y-87591416D01*
X142371519Y-87567735D01*
X142401113Y-87563839D01*
X142401114Y-87563839D01*
X142403581Y-87564500D01*
X142403582Y-87564500D01*
X142536418Y-87564500D01*
X142536419Y-87564500D01*
X142664730Y-87530119D01*
X142779770Y-87463700D01*
X142779771Y-87463699D01*
X142779772Y-87463699D01*
X142873699Y-87369772D01*
X142873699Y-87369771D01*
X142873700Y-87369770D01*
X142940119Y-87254730D01*
X142974500Y-87126419D01*
X142974500Y-86993581D01*
X142940119Y-86865270D01*
X142873700Y-86750230D01*
X142873699Y-86750228D01*
X142779771Y-86656300D01*
X142664730Y-86589881D01*
X142536423Y-86555500D01*
X142536419Y-86555500D01*
X142403581Y-86555500D01*
X142403576Y-86555500D01*
X142275269Y-86589881D01*
X142160228Y-86656300D01*
X142160228Y-86656301D01*
X142066301Y-86750228D01*
X142066300Y-86750228D01*
X141999881Y-86865269D01*
X141965500Y-86993576D01*
X141965500Y-87126423D01*
X141999881Y-87254730D01*
X142042755Y-87328989D01*
X142046651Y-87358583D01*
X142028480Y-87382264D01*
X141998890Y-87386161D01*
X141996426Y-87385501D01*
X141996419Y-87385500D01*
X141863581Y-87385500D01*
X141863576Y-87385500D01*
X141735269Y-87419881D01*
X141620228Y-87486300D01*
X141620228Y-87486301D01*
X141526301Y-87580228D01*
X141526300Y-87580228D01*
X141459881Y-87695269D01*
X141425500Y-87823576D01*
X141425500Y-87956423D01*
X141459881Y-88084730D01*
X141526300Y-88199771D01*
X141620228Y-88293699D01*
X141620230Y-88293700D01*
X141735270Y-88360119D01*
X141822903Y-88383600D01*
X141863576Y-88394499D01*
X141863579Y-88394499D01*
X141863581Y-88394500D01*
X141863582Y-88394500D01*
X141943682Y-88394500D01*
X141971259Y-88405923D01*
X141982682Y-88433500D01*
X141971259Y-88461077D01*
X141963182Y-88467275D01*
X141930228Y-88486300D01*
X141930228Y-88486301D01*
X141836301Y-88580228D01*
X141836300Y-88580228D01*
X141769881Y-88695269D01*
X141735500Y-88823576D01*
X141735500Y-88956423D01*
X141761633Y-89053948D01*
X141769881Y-89084730D01*
X141794979Y-89128201D01*
X141798647Y-89134553D01*
X141802543Y-89164147D01*
X141784372Y-89187828D01*
X141754783Y-89191725D01*
X141752484Y-89191109D01*
X141752475Y-89191108D01*
X141619637Y-89191108D01*
X141619632Y-89191108D01*
X141491325Y-89225489D01*
X141376284Y-89291908D01*
X141376284Y-89291909D01*
X141282357Y-89385836D01*
X141282356Y-89385836D01*
X141215937Y-89500877D01*
X141181556Y-89629184D01*
X129821160Y-89629184D01*
X129830164Y-89595581D01*
X129836840Y-89570664D01*
X129836841Y-89570658D01*
X129836841Y-89424659D01*
X129836840Y-89424653D01*
X129799054Y-89283632D01*
X129775734Y-89243241D01*
X129726052Y-89157188D01*
X129726051Y-89157186D01*
X129622813Y-89053948D01*
X129496367Y-88980945D01*
X129355346Y-88943159D01*
X129355342Y-88943159D01*
X129209340Y-88943159D01*
X129209335Y-88943159D01*
X129068314Y-88980945D01*
X128941868Y-89053948D01*
X128941868Y-89053949D01*
X128838631Y-89157186D01*
X128838630Y-89157186D01*
X128765627Y-89283632D01*
X128727841Y-89424653D01*
X124016514Y-89424653D01*
X123974700Y-89352230D01*
X123974699Y-89352228D01*
X123880771Y-89258300D01*
X123765730Y-89191881D01*
X123637423Y-89157500D01*
X123637419Y-89157500D01*
X123504581Y-89157500D01*
X123504576Y-89157500D01*
X123376269Y-89191881D01*
X123261228Y-89258300D01*
X123261228Y-89258301D01*
X123167301Y-89352228D01*
X123167300Y-89352228D01*
X123100881Y-89467269D01*
X123066500Y-89595576D01*
X120025900Y-89595576D01*
X120025900Y-85778994D01*
X125022000Y-85778994D01*
X125022000Y-85925005D01*
X125059786Y-86066026D01*
X125132789Y-86192472D01*
X125236027Y-86295710D01*
X125362473Y-86368713D01*
X125503494Y-86406499D01*
X125503497Y-86406499D01*
X125503499Y-86406500D01*
X125503500Y-86406500D01*
X125649500Y-86406500D01*
X125649501Y-86406500D01*
X125779098Y-86371775D01*
X125790526Y-86368713D01*
X125790526Y-86368712D01*
X125790529Y-86368712D01*
X125916971Y-86295711D01*
X125916972Y-86295710D01*
X125916973Y-86295710D01*
X126020210Y-86192473D01*
X126020210Y-86192472D01*
X126031673Y-86172618D01*
X126093212Y-86066029D01*
X126100616Y-86038399D01*
X126130999Y-85925005D01*
X126131000Y-85924999D01*
X126131000Y-85893576D01*
X139185500Y-85893576D01*
X139185500Y-86026423D01*
X139219881Y-86154730D01*
X139286300Y-86269771D01*
X139380228Y-86363699D01*
X139394214Y-86371774D01*
X139495270Y-86430119D01*
X139558379Y-86447029D01*
X139623576Y-86464499D01*
X139623579Y-86464499D01*
X139623581Y-86464500D01*
X139686792Y-86464500D01*
X139714369Y-86475923D01*
X139725792Y-86503500D01*
X139725792Y-86620745D01*
X139740789Y-86676711D01*
X139760173Y-86749052D01*
X139782371Y-86787499D01*
X139826592Y-86864093D01*
X139920520Y-86958021D01*
X139920522Y-86958022D01*
X140035562Y-87024441D01*
X140123195Y-87047922D01*
X140163868Y-87058821D01*
X140163871Y-87058821D01*
X140163873Y-87058822D01*
X140163874Y-87058822D01*
X140296710Y-87058822D01*
X140296711Y-87058822D01*
X140425022Y-87024441D01*
X140540062Y-86958022D01*
X140540063Y-86958021D01*
X140540064Y-86958021D01*
X140633991Y-86864094D01*
X140633991Y-86864093D01*
X140633992Y-86864092D01*
X140700411Y-86749052D01*
X140734792Y-86620741D01*
X140734792Y-86487903D01*
X140700411Y-86359592D01*
X140633992Y-86244552D01*
X140633991Y-86244550D01*
X140540063Y-86150622D01*
X140425022Y-86084203D01*
X140296715Y-86049822D01*
X140296711Y-86049822D01*
X140233500Y-86049822D01*
X140205923Y-86038399D01*
X140194500Y-86010822D01*
X140194500Y-85893582D01*
X140194499Y-85893576D01*
X140180887Y-85842775D01*
X140178866Y-85835232D01*
X148480587Y-85835232D01*
X148480587Y-85968079D01*
X148514968Y-86096386D01*
X148581387Y-86211427D01*
X148675315Y-86305355D01*
X148676434Y-86306001D01*
X148790357Y-86371775D01*
X148877990Y-86395256D01*
X148918663Y-86406155D01*
X148918666Y-86406155D01*
X148918668Y-86406156D01*
X148918669Y-86406156D01*
X149051505Y-86406156D01*
X149051506Y-86406156D01*
X149179817Y-86371775D01*
X149294857Y-86305356D01*
X149294858Y-86305355D01*
X149294859Y-86305355D01*
X149388786Y-86211428D01*
X149388786Y-86211427D01*
X149391343Y-86206999D01*
X149455206Y-86096386D01*
X149489587Y-85968075D01*
X149489587Y-85835237D01*
X149455206Y-85706926D01*
X149414300Y-85636075D01*
X150465595Y-85636075D01*
X150465595Y-85768922D01*
X150499976Y-85897229D01*
X150566395Y-86012270D01*
X150660323Y-86106198D01*
X150660325Y-86106199D01*
X150775365Y-86172618D01*
X150862998Y-86196099D01*
X150903671Y-86206998D01*
X150903674Y-86206998D01*
X150903676Y-86206999D01*
X150903677Y-86206999D01*
X151036513Y-86206999D01*
X151036514Y-86206999D01*
X151164825Y-86172618D01*
X151186690Y-86159994D01*
X154258500Y-86159994D01*
X154258500Y-86306005D01*
X154296286Y-86447026D01*
X154369289Y-86573472D01*
X154472527Y-86676710D01*
X154598973Y-86749713D01*
X154739994Y-86787499D01*
X154739997Y-86787499D01*
X154739999Y-86787500D01*
X154740000Y-86787500D01*
X154886000Y-86787500D01*
X154886001Y-86787500D01*
X154886005Y-86787499D01*
X155027026Y-86749713D01*
X155027026Y-86749712D01*
X155027029Y-86749712D01*
X155153471Y-86676711D01*
X155153472Y-86676710D01*
X155153473Y-86676710D01*
X155256710Y-86573473D01*
X155256710Y-86573472D01*
X155256711Y-86573471D01*
X155329712Y-86447029D01*
X155353141Y-86359592D01*
X155367499Y-86306005D01*
X155367500Y-86305999D01*
X155367500Y-86160000D01*
X155367499Y-86159994D01*
X155329713Y-86018973D01*
X155325842Y-86012269D01*
X155275459Y-85925001D01*
X155256710Y-85892527D01*
X155153472Y-85789289D01*
X155027026Y-85716286D01*
X154886005Y-85678500D01*
X154886001Y-85678500D01*
X154739999Y-85678500D01*
X154739994Y-85678500D01*
X154598973Y-85716286D01*
X154472527Y-85789289D01*
X154472527Y-85789290D01*
X154369290Y-85892527D01*
X154369289Y-85892527D01*
X154296286Y-86018973D01*
X154258500Y-86159994D01*
X151186690Y-86159994D01*
X151279865Y-86106199D01*
X151279866Y-86106198D01*
X151279867Y-86106198D01*
X151373794Y-86012271D01*
X151373794Y-86012270D01*
X151399308Y-85968079D01*
X151440214Y-85897229D01*
X151474595Y-85768918D01*
X151474595Y-85661481D01*
X151486018Y-85633904D01*
X151513595Y-85622481D01*
X151523689Y-85623809D01*
X151535908Y-85627084D01*
X151535909Y-85627084D01*
X151668745Y-85627084D01*
X151668746Y-85627084D01*
X151797057Y-85592703D01*
X151912097Y-85526284D01*
X151912098Y-85526283D01*
X151912099Y-85526283D01*
X151944806Y-85493576D01*
X160865500Y-85493576D01*
X160865500Y-85626423D01*
X160899881Y-85754730D01*
X160966300Y-85869771D01*
X161060228Y-85963699D01*
X161091055Y-85981497D01*
X161175270Y-86030119D01*
X161262903Y-86053600D01*
X161303576Y-86064499D01*
X161303579Y-86064499D01*
X161303581Y-86064500D01*
X161303582Y-86064500D01*
X161436418Y-86064500D01*
X161436419Y-86064500D01*
X161564730Y-86030119D01*
X161679770Y-85963700D01*
X161679771Y-85963699D01*
X161679772Y-85963699D01*
X161773699Y-85869772D01*
X161773699Y-85869771D01*
X161773700Y-85869770D01*
X161840119Y-85754730D01*
X161874500Y-85626419D01*
X161874500Y-85493581D01*
X161840119Y-85365270D01*
X161773700Y-85250230D01*
X161773699Y-85250228D01*
X161679771Y-85156300D01*
X161564730Y-85089881D01*
X161436423Y-85055500D01*
X161436419Y-85055500D01*
X161303581Y-85055500D01*
X161303576Y-85055500D01*
X161175269Y-85089881D01*
X161060228Y-85156300D01*
X161060228Y-85156301D01*
X160966301Y-85250228D01*
X160966300Y-85250228D01*
X160899881Y-85365269D01*
X160865500Y-85493576D01*
X151944806Y-85493576D01*
X152006026Y-85432356D01*
X152006026Y-85432355D01*
X152006027Y-85432354D01*
X152072446Y-85317314D01*
X152106827Y-85189003D01*
X152106827Y-85056165D01*
X152072446Y-84927854D01*
X152006027Y-84812814D01*
X152006026Y-84812812D01*
X151912098Y-84718884D01*
X151797057Y-84652465D01*
X151668750Y-84618084D01*
X151668746Y-84618084D01*
X151535908Y-84618084D01*
X151535903Y-84618084D01*
X151407596Y-84652465D01*
X151292555Y-84718884D01*
X151292555Y-84718885D01*
X151198628Y-84812812D01*
X151198627Y-84812812D01*
X151132208Y-84927853D01*
X151097827Y-85056160D01*
X151097827Y-85163601D01*
X151086404Y-85191178D01*
X151058827Y-85202601D01*
X151048735Y-85201273D01*
X151036515Y-85197999D01*
X151036514Y-85197999D01*
X150903676Y-85197999D01*
X150903671Y-85197999D01*
X150775364Y-85232380D01*
X150660323Y-85298799D01*
X150660323Y-85298800D01*
X150566396Y-85392727D01*
X150566395Y-85392727D01*
X150499976Y-85507768D01*
X150465595Y-85636075D01*
X149414300Y-85636075D01*
X149388787Y-85591886D01*
X149388786Y-85591884D01*
X149294858Y-85497956D01*
X149179817Y-85431537D01*
X149051510Y-85397156D01*
X149051506Y-85397156D01*
X148918668Y-85397156D01*
X148918663Y-85397156D01*
X148790356Y-85431537D01*
X148675315Y-85497956D01*
X148675315Y-85497957D01*
X148581388Y-85591884D01*
X148581387Y-85591884D01*
X148514968Y-85706925D01*
X148480587Y-85835232D01*
X140178866Y-85835232D01*
X140166555Y-85789289D01*
X140160119Y-85765270D01*
X140093700Y-85650230D01*
X140093699Y-85650228D01*
X139999771Y-85556300D01*
X139884730Y-85489881D01*
X139756423Y-85455500D01*
X139756419Y-85455500D01*
X139623581Y-85455500D01*
X139623576Y-85455500D01*
X139495269Y-85489881D01*
X139380228Y-85556300D01*
X139380228Y-85556301D01*
X139286301Y-85650228D01*
X139286300Y-85650228D01*
X139219881Y-85765269D01*
X139185500Y-85893576D01*
X126131000Y-85893576D01*
X126131000Y-85779000D01*
X126130999Y-85778994D01*
X126093213Y-85637973D01*
X126076305Y-85608688D01*
X126020211Y-85511529D01*
X126020210Y-85511527D01*
X125916972Y-85408289D01*
X125790526Y-85335286D01*
X125649505Y-85297500D01*
X125649501Y-85297500D01*
X125503499Y-85297500D01*
X125503494Y-85297500D01*
X125362473Y-85335286D01*
X125236027Y-85408289D01*
X125236027Y-85408290D01*
X125132790Y-85511527D01*
X125132789Y-85511527D01*
X125059786Y-85637973D01*
X125022000Y-85778994D01*
X120025900Y-85778994D01*
X120025900Y-84546431D01*
X136478355Y-84546431D01*
X136478355Y-84679278D01*
X136512736Y-84807585D01*
X136579155Y-84922626D01*
X136673083Y-85016554D01*
X136673085Y-85016555D01*
X136788125Y-85082974D01*
X136875758Y-85106455D01*
X136916431Y-85117354D01*
X136916434Y-85117354D01*
X136916436Y-85117355D01*
X136916437Y-85117355D01*
X137049273Y-85117355D01*
X137049274Y-85117355D01*
X137177585Y-85082974D01*
X137292625Y-85016555D01*
X137292626Y-85016554D01*
X137292627Y-85016554D01*
X137386554Y-84922627D01*
X137386554Y-84922626D01*
X137409825Y-84882320D01*
X137452974Y-84807585D01*
X137487355Y-84679274D01*
X137487355Y-84546436D01*
X137481991Y-84526419D01*
X137472999Y-84492859D01*
X137452974Y-84418125D01*
X137386555Y-84303085D01*
X137386554Y-84303083D01*
X137319755Y-84236284D01*
X139388714Y-84236284D01*
X139388714Y-84369131D01*
X139423095Y-84497438D01*
X139489514Y-84612479D01*
X139583442Y-84706407D01*
X139583444Y-84706408D01*
X139698484Y-84772827D01*
X139786117Y-84796308D01*
X139826790Y-84807207D01*
X139826793Y-84807207D01*
X139826795Y-84807208D01*
X139826796Y-84807208D01*
X139959632Y-84807208D01*
X139959633Y-84807208D01*
X140087944Y-84772827D01*
X140202984Y-84706408D01*
X140202985Y-84706407D01*
X140202986Y-84706407D01*
X140288227Y-84621166D01*
X140624822Y-84621166D01*
X140624822Y-84754013D01*
X140659203Y-84882320D01*
X140725622Y-84997361D01*
X140819550Y-85091289D01*
X140819552Y-85091290D01*
X140934592Y-85157709D01*
X141022225Y-85181190D01*
X141062898Y-85192089D01*
X141062901Y-85192089D01*
X141062903Y-85192090D01*
X141062904Y-85192090D01*
X141195740Y-85192090D01*
X141195741Y-85192090D01*
X141324052Y-85157709D01*
X141439092Y-85091290D01*
X141439093Y-85091289D01*
X141439094Y-85091289D01*
X141533021Y-84997362D01*
X141533021Y-84997361D01*
X141533022Y-84997360D01*
X141599441Y-84882320D01*
X141633822Y-84754009D01*
X141633822Y-84621171D01*
X141631493Y-84612480D01*
X141613797Y-84546437D01*
X141599441Y-84492860D01*
X141579437Y-84458213D01*
X141551905Y-84410525D01*
X141542119Y-84393576D01*
X160615500Y-84393576D01*
X160615500Y-84526423D01*
X160649881Y-84654730D01*
X160716300Y-84769771D01*
X160810228Y-84863699D01*
X160810230Y-84863700D01*
X160925270Y-84930119D01*
X161012903Y-84953600D01*
X161053576Y-84964499D01*
X161053579Y-84964499D01*
X161053581Y-84964500D01*
X161053582Y-84964500D01*
X161186418Y-84964500D01*
X161186419Y-84964500D01*
X161314730Y-84930119D01*
X161429770Y-84863700D01*
X161429771Y-84863699D01*
X161429772Y-84863699D01*
X161523699Y-84769772D01*
X161523699Y-84769771D01*
X161532797Y-84754013D01*
X161590119Y-84654730D01*
X161624500Y-84526419D01*
X161624500Y-84393581D01*
X161620276Y-84377818D01*
X161613600Y-84352903D01*
X161590119Y-84265270D01*
X161523700Y-84150230D01*
X161523699Y-84150228D01*
X161429771Y-84056300D01*
X161314730Y-83989881D01*
X161186423Y-83955500D01*
X161186419Y-83955500D01*
X161053581Y-83955500D01*
X161053576Y-83955500D01*
X160925269Y-83989881D01*
X160810228Y-84056300D01*
X160810228Y-84056301D01*
X160716301Y-84150228D01*
X160716300Y-84150228D01*
X160649881Y-84265269D01*
X160615500Y-84393576D01*
X141542119Y-84393576D01*
X141533021Y-84377818D01*
X141439093Y-84283890D01*
X141324052Y-84217471D01*
X141195745Y-84183090D01*
X141195741Y-84183090D01*
X141062903Y-84183090D01*
X141062898Y-84183090D01*
X140934591Y-84217471D01*
X140819550Y-84283890D01*
X140819550Y-84283891D01*
X140725623Y-84377818D01*
X140725622Y-84377818D01*
X140659203Y-84492859D01*
X140624822Y-84621166D01*
X140288227Y-84621166D01*
X140296913Y-84612480D01*
X140296915Y-84612476D01*
X140304629Y-84599116D01*
X140304629Y-84599115D01*
X140335043Y-84546437D01*
X140363333Y-84497438D01*
X140397714Y-84369127D01*
X140397714Y-84236289D01*
X140397020Y-84233700D01*
X140374654Y-84150228D01*
X140363333Y-84107978D01*
X140296914Y-83992938D01*
X140296913Y-83992936D01*
X140202985Y-83899008D01*
X140087944Y-83832589D01*
X139959637Y-83798208D01*
X139959633Y-83798208D01*
X139826795Y-83798208D01*
X139826790Y-83798208D01*
X139698483Y-83832589D01*
X139583442Y-83899008D01*
X139583442Y-83899009D01*
X139489515Y-83992936D01*
X139489514Y-83992936D01*
X139423095Y-84107977D01*
X139388714Y-84236284D01*
X137319755Y-84236284D01*
X137292626Y-84209155D01*
X137177585Y-84142736D01*
X137049278Y-84108355D01*
X137049274Y-84108355D01*
X136916436Y-84108355D01*
X136916431Y-84108355D01*
X136788124Y-84142736D01*
X136673083Y-84209155D01*
X136673083Y-84209156D01*
X136579156Y-84303083D01*
X136579155Y-84303083D01*
X136512736Y-84418124D01*
X136478355Y-84546431D01*
X120025900Y-84546431D01*
X120025900Y-82656638D01*
X134800212Y-82656638D01*
X134800212Y-82789485D01*
X134834593Y-82917792D01*
X134901012Y-83032833D01*
X134994940Y-83126761D01*
X134994942Y-83126762D01*
X135109982Y-83193181D01*
X135188127Y-83214120D01*
X135238288Y-83227561D01*
X135238291Y-83227561D01*
X135238293Y-83227562D01*
X135238294Y-83227562D01*
X135371130Y-83227562D01*
X135371131Y-83227562D01*
X135499442Y-83193181D01*
X135614482Y-83126762D01*
X135614483Y-83126761D01*
X135614484Y-83126761D01*
X135708411Y-83032834D01*
X135708411Y-83032833D01*
X135722886Y-83007762D01*
X135774831Y-82917792D01*
X135809212Y-82789481D01*
X135809212Y-82735691D01*
X135820635Y-82708114D01*
X135848212Y-82696691D01*
X135867712Y-82701916D01*
X135979844Y-82766656D01*
X136065020Y-82789479D01*
X136108150Y-82801036D01*
X136108153Y-82801036D01*
X136108155Y-82801037D01*
X136108156Y-82801037D01*
X136240992Y-82801037D01*
X136240993Y-82801037D01*
X136369304Y-82766656D01*
X136484344Y-82700237D01*
X136540106Y-82644474D01*
X136567681Y-82633051D01*
X136595258Y-82644473D01*
X136595259Y-82644474D01*
X136667828Y-82717044D01*
X136673154Y-82720119D01*
X136782870Y-82783464D01*
X136870503Y-82806945D01*
X136911176Y-82817844D01*
X136911179Y-82817844D01*
X136911181Y-82817845D01*
X136911182Y-82817845D01*
X137044018Y-82817845D01*
X137044019Y-82817845D01*
X137172330Y-82783464D01*
X137287370Y-82717045D01*
X137287371Y-82717044D01*
X137287372Y-82717044D01*
X137381299Y-82623117D01*
X137381301Y-82623113D01*
X137388988Y-82609799D01*
X137410570Y-82572418D01*
X137434249Y-82554247D01*
X137463843Y-82558143D01*
X137482015Y-82581823D01*
X137482015Y-82581824D01*
X137513143Y-82697992D01*
X137579562Y-82813033D01*
X137673490Y-82906961D01*
X137673492Y-82906962D01*
X137788532Y-82973381D01*
X137876165Y-82996862D01*
X137916838Y-83007761D01*
X137916841Y-83007761D01*
X137916843Y-83007762D01*
X137916844Y-83007762D01*
X138049680Y-83007762D01*
X138049681Y-83007762D01*
X138177992Y-82973381D01*
X138293032Y-82906962D01*
X138293033Y-82906961D01*
X138293034Y-82906961D01*
X138386961Y-82813034D01*
X138386961Y-82813033D01*
X138388468Y-82810423D01*
X138453381Y-82697992D01*
X138458806Y-82677746D01*
X145499860Y-82677746D01*
X145499860Y-82810593D01*
X145534241Y-82938900D01*
X145600660Y-83053941D01*
X145694588Y-83147869D01*
X145694590Y-83147870D01*
X145809630Y-83214289D01*
X145897263Y-83237770D01*
X145937936Y-83248669D01*
X145937939Y-83248669D01*
X145937941Y-83248670D01*
X145937942Y-83248670D01*
X146070778Y-83248670D01*
X146070779Y-83248670D01*
X146199090Y-83214289D01*
X146314130Y-83147870D01*
X146359866Y-83102132D01*
X146387441Y-83090711D01*
X146415019Y-83102133D01*
X146425113Y-83119616D01*
X146439881Y-83174730D01*
X146462623Y-83214120D01*
X146506300Y-83289771D01*
X146560998Y-83344469D01*
X146572421Y-83372046D01*
X146560998Y-83399623D01*
X146552922Y-83405821D01*
X146510226Y-83430472D01*
X146416301Y-83524398D01*
X146416300Y-83524398D01*
X146349881Y-83639439D01*
X146315500Y-83767746D01*
X146315500Y-83900593D01*
X146349881Y-84028900D01*
X146416300Y-84143941D01*
X146510228Y-84237869D01*
X146510230Y-84237870D01*
X146625270Y-84304289D01*
X146712903Y-84327770D01*
X146753576Y-84338669D01*
X146753579Y-84338669D01*
X146753581Y-84338670D01*
X146753582Y-84338670D01*
X146886418Y-84338670D01*
X146886419Y-84338670D01*
X147014730Y-84304289D01*
X147129770Y-84237870D01*
X147129771Y-84237869D01*
X147129772Y-84237869D01*
X147223699Y-84143942D01*
X147223699Y-84143941D01*
X147226107Y-84139771D01*
X147290119Y-84028900D01*
X147324500Y-83900589D01*
X147324500Y-83767751D01*
X147323381Y-83763576D01*
X147314682Y-83731109D01*
X147312661Y-83723566D01*
X150783090Y-83723566D01*
X150783090Y-83856413D01*
X150817471Y-83984720D01*
X150883890Y-84099761D01*
X150977818Y-84193689D01*
X150977820Y-84193690D01*
X151092860Y-84260109D01*
X151180493Y-84283590D01*
X151221166Y-84294489D01*
X151221169Y-84294489D01*
X151221171Y-84294490D01*
X151221172Y-84294490D01*
X151354008Y-84294490D01*
X151354009Y-84294490D01*
X151482320Y-84260109D01*
X151597360Y-84193690D01*
X151597361Y-84193689D01*
X151597362Y-84193689D01*
X151691289Y-84099762D01*
X151691289Y-84099761D01*
X151716381Y-84056301D01*
X151757709Y-83984720D01*
X151792090Y-83856409D01*
X151792090Y-83723571D01*
X151757709Y-83595260D01*
X151691290Y-83480220D01*
X151691289Y-83480218D01*
X151597361Y-83386290D01*
X151482320Y-83319871D01*
X151354013Y-83285490D01*
X151354009Y-83285490D01*
X151221171Y-83285490D01*
X151221166Y-83285490D01*
X151092859Y-83319871D01*
X150977818Y-83386290D01*
X150977818Y-83386291D01*
X150883891Y-83480218D01*
X150883890Y-83480218D01*
X150817471Y-83595259D01*
X150783090Y-83723566D01*
X147312661Y-83723566D01*
X147308368Y-83707545D01*
X147290119Y-83639440D01*
X147223700Y-83524400D01*
X147223699Y-83524398D01*
X147169000Y-83469700D01*
X147157577Y-83442123D01*
X147169000Y-83414546D01*
X147177078Y-83408348D01*
X147219768Y-83383701D01*
X147219772Y-83383699D01*
X147313699Y-83289772D01*
X147313699Y-83289771D01*
X147322193Y-83275059D01*
X147380119Y-83174730D01*
X147414500Y-83046419D01*
X147414500Y-82913581D01*
X147402123Y-82867390D01*
X152151455Y-82867390D01*
X152151455Y-83000237D01*
X152185836Y-83128544D01*
X152252255Y-83243585D01*
X152346183Y-83337513D01*
X152346185Y-83337514D01*
X152461225Y-83403933D01*
X152475926Y-83407872D01*
X152499606Y-83426041D01*
X152503503Y-83455635D01*
X152493409Y-83473119D01*
X152446300Y-83520228D01*
X152379881Y-83635269D01*
X152345500Y-83763576D01*
X152345500Y-83896423D01*
X152379881Y-84024730D01*
X152446300Y-84139771D01*
X152540228Y-84233699D01*
X152571055Y-84251497D01*
X152655270Y-84300119D01*
X152742903Y-84323600D01*
X152783576Y-84334499D01*
X152783579Y-84334499D01*
X152783581Y-84334500D01*
X152783582Y-84334500D01*
X152916418Y-84334500D01*
X152916419Y-84334500D01*
X153044730Y-84300119D01*
X153159770Y-84233700D01*
X153159771Y-84233699D01*
X153159772Y-84233699D01*
X153253699Y-84139772D01*
X153253699Y-84139771D01*
X153253700Y-84139770D01*
X153320119Y-84024730D01*
X153354500Y-83896419D01*
X153354500Y-83763581D01*
X153320119Y-83635270D01*
X153256108Y-83524400D01*
X153253699Y-83520228D01*
X153159771Y-83426300D01*
X153044730Y-83359881D01*
X153030026Y-83355941D01*
X153006347Y-83337771D01*
X153002451Y-83308177D01*
X153012545Y-83290694D01*
X153059654Y-83243585D01*
X153063209Y-83237428D01*
X153126074Y-83128544D01*
X153160455Y-83000233D01*
X153160455Y-82867395D01*
X153126074Y-82739084D01*
X153104615Y-82701916D01*
X153100348Y-82694525D01*
X153090562Y-82677576D01*
X160565500Y-82677576D01*
X160565500Y-82810423D01*
X160599881Y-82938730D01*
X160666300Y-83053771D01*
X160760228Y-83147699D01*
X160760524Y-83147870D01*
X160875270Y-83214119D01*
X160875272Y-83214119D01*
X160875273Y-83214120D01*
X160875904Y-83214289D01*
X160962113Y-83237388D01*
X160985795Y-83255559D01*
X160991020Y-83275059D01*
X160991020Y-83370269D01*
X161025401Y-83498576D01*
X161091820Y-83613617D01*
X161185748Y-83707545D01*
X161185750Y-83707546D01*
X161300790Y-83773965D01*
X161388423Y-83797446D01*
X161429096Y-83808345D01*
X161429099Y-83808345D01*
X161429101Y-83808346D01*
X161429102Y-83808346D01*
X161561938Y-83808346D01*
X161561939Y-83808346D01*
X161690250Y-83773965D01*
X161805290Y-83707546D01*
X161805291Y-83707545D01*
X161805292Y-83707545D01*
X161899219Y-83613618D01*
X161899219Y-83613617D01*
X161899220Y-83613616D01*
X161965639Y-83498576D01*
X162000020Y-83370265D01*
X162000020Y-83237427D01*
X161997376Y-83227561D01*
X161978112Y-83155665D01*
X161982008Y-83126071D01*
X162005688Y-83107900D01*
X162034730Y-83100119D01*
X162149770Y-83033700D01*
X162149771Y-83033699D01*
X162149772Y-83033699D01*
X162243699Y-82939772D01*
X162243699Y-82939771D01*
X162256389Y-82917792D01*
X162310119Y-82824730D01*
X162344500Y-82696419D01*
X162344500Y-82563581D01*
X162343479Y-82559772D01*
X162324043Y-82487236D01*
X162310119Y-82435270D01*
X162255264Y-82340260D01*
X162243699Y-82320228D01*
X162149771Y-82226300D01*
X162034731Y-82159881D01*
X161995284Y-82149311D01*
X161971603Y-82131139D01*
X161967708Y-82101545D01*
X161985880Y-82077864D01*
X161992399Y-82075166D01*
X161992370Y-82075096D01*
X161994723Y-82074120D01*
X161994730Y-82074119D01*
X162109770Y-82007700D01*
X162109771Y-82007699D01*
X162109772Y-82007699D01*
X162203699Y-81913772D01*
X162203699Y-81913771D01*
X162203700Y-81913770D01*
X162270119Y-81798730D01*
X162304500Y-81670419D01*
X162304500Y-81537581D01*
X162270119Y-81409270D01*
X162203700Y-81294230D01*
X162203699Y-81294228D01*
X162109771Y-81200300D01*
X161994730Y-81133881D01*
X161866423Y-81099500D01*
X161866419Y-81099500D01*
X161733581Y-81099500D01*
X161733576Y-81099500D01*
X161605269Y-81133881D01*
X161490228Y-81200300D01*
X161490228Y-81200301D01*
X161396301Y-81294228D01*
X161396300Y-81294228D01*
X161329881Y-81409269D01*
X161295500Y-81537576D01*
X161295500Y-81670423D01*
X161329881Y-81798730D01*
X161396300Y-81913771D01*
X161490228Y-82007699D01*
X161501940Y-82014461D01*
X161605270Y-82074119D01*
X161644714Y-82084688D01*
X161668395Y-82102859D01*
X161672291Y-82132453D01*
X161654120Y-82156134D01*
X161647601Y-82158834D01*
X161647630Y-82158904D01*
X161645269Y-82159881D01*
X161530228Y-82226300D01*
X161530228Y-82226301D01*
X161436298Y-82320231D01*
X161432974Y-82325988D01*
X161409291Y-82344157D01*
X161379701Y-82340260D01*
X161264730Y-82273881D01*
X161136423Y-82239500D01*
X161136419Y-82239500D01*
X161003581Y-82239500D01*
X161003576Y-82239500D01*
X160875269Y-82273881D01*
X160760228Y-82340300D01*
X160760228Y-82340301D01*
X160666301Y-82434228D01*
X160666300Y-82434228D01*
X160599881Y-82549269D01*
X160565500Y-82677576D01*
X153090562Y-82677576D01*
X153059654Y-82624042D01*
X152965726Y-82530114D01*
X152894529Y-82489008D01*
X152876358Y-82465327D01*
X152880254Y-82435733D01*
X152899942Y-82420625D01*
X152899328Y-82419144D01*
X152901688Y-82418165D01*
X152901689Y-82418164D01*
X152901694Y-82418163D01*
X153016734Y-82351744D01*
X153016735Y-82351743D01*
X153016736Y-82351743D01*
X153110663Y-82257816D01*
X153110663Y-82257815D01*
X153116950Y-82246926D01*
X153177083Y-82142774D01*
X153211464Y-82014463D01*
X153211464Y-81881625D01*
X153204887Y-81857081D01*
X153195675Y-81822699D01*
X153177083Y-81753314D01*
X153110664Y-81638274D01*
X153110663Y-81638272D01*
X153016735Y-81544344D01*
X152901694Y-81477925D01*
X152773387Y-81443544D01*
X152773383Y-81443544D01*
X152640545Y-81443544D01*
X152640540Y-81443544D01*
X152512233Y-81477925D01*
X152397192Y-81544344D01*
X152397192Y-81544345D01*
X152303265Y-81638272D01*
X152303264Y-81638272D01*
X152236845Y-81753313D01*
X152202464Y-81881620D01*
X152202464Y-82014467D01*
X152236845Y-82142774D01*
X152303264Y-82257815D01*
X152397192Y-82351743D01*
X152397194Y-82351744D01*
X152468390Y-82392849D01*
X152486561Y-82416530D01*
X152482665Y-82446124D01*
X152462989Y-82461279D01*
X152463585Y-82462718D01*
X152461224Y-82463695D01*
X152346183Y-82530114D01*
X152346183Y-82530115D01*
X152252256Y-82624042D01*
X152252255Y-82624042D01*
X152185836Y-82739083D01*
X152151455Y-82867390D01*
X147402123Y-82867390D01*
X147380119Y-82785270D01*
X147318042Y-82677751D01*
X147313699Y-82670228D01*
X147219771Y-82576300D01*
X147136686Y-82528331D01*
X147106523Y-82510916D01*
X147088353Y-82487236D01*
X147092249Y-82457642D01*
X147140119Y-82374730D01*
X147174500Y-82246419D01*
X147174500Y-82139676D01*
X147462827Y-82139676D01*
X147462827Y-82272523D01*
X147497208Y-82400830D01*
X147563627Y-82515871D01*
X147657555Y-82609799D01*
X147682225Y-82624042D01*
X147772597Y-82676219D01*
X147853855Y-82697992D01*
X147900903Y-82710599D01*
X147900906Y-82710599D01*
X147900908Y-82710600D01*
X147900909Y-82710600D01*
X148033745Y-82710600D01*
X148033746Y-82710600D01*
X148162057Y-82676219D01*
X148277097Y-82609800D01*
X148277098Y-82609799D01*
X148277099Y-82609799D01*
X148371026Y-82515872D01*
X148371026Y-82515871D01*
X148371027Y-82515870D01*
X148437446Y-82400830D01*
X148469522Y-82281118D01*
X148471826Y-82272523D01*
X148471827Y-82272517D01*
X148471827Y-82183576D01*
X148725500Y-82183576D01*
X148725500Y-82316423D01*
X148759881Y-82444730D01*
X148826300Y-82559771D01*
X148920228Y-82653699D01*
X148925327Y-82656643D01*
X149035270Y-82720119D01*
X149122903Y-82743600D01*
X149163576Y-82754499D01*
X149163579Y-82754499D01*
X149163581Y-82754500D01*
X149163582Y-82754500D01*
X149296418Y-82754500D01*
X149296419Y-82754500D01*
X149424730Y-82720119D01*
X149539770Y-82653700D01*
X149539771Y-82653699D01*
X149539772Y-82653699D01*
X149633699Y-82559772D01*
X149633699Y-82559771D01*
X149634639Y-82558143D01*
X149700119Y-82444730D01*
X149734500Y-82316419D01*
X149734500Y-82183581D01*
X149700119Y-82055270D01*
X149633700Y-81940230D01*
X149633699Y-81940228D01*
X149539771Y-81846300D01*
X149424730Y-81779881D01*
X149296423Y-81745500D01*
X149296419Y-81745500D01*
X149163581Y-81745500D01*
X149163576Y-81745500D01*
X149035269Y-81779881D01*
X148920228Y-81846300D01*
X148920228Y-81846301D01*
X148826301Y-81940228D01*
X148826300Y-81940228D01*
X148759881Y-82055269D01*
X148725500Y-82183576D01*
X148471827Y-82183576D01*
X148471827Y-82139682D01*
X148471826Y-82139676D01*
X148460927Y-82099003D01*
X148437446Y-82011370D01*
X148381096Y-81913770D01*
X148371026Y-81896328D01*
X148277098Y-81802400D01*
X148162057Y-81735981D01*
X148033750Y-81701600D01*
X148033746Y-81701600D01*
X147900908Y-81701600D01*
X147900903Y-81701600D01*
X147772596Y-81735981D01*
X147657555Y-81802400D01*
X147657555Y-81802401D01*
X147563628Y-81896328D01*
X147563627Y-81896328D01*
X147497208Y-82011369D01*
X147462827Y-82139676D01*
X147174500Y-82139676D01*
X147174500Y-82113581D01*
X147140119Y-81985270D01*
X147073700Y-81870230D01*
X147073699Y-81870228D01*
X146979771Y-81776300D01*
X146864730Y-81709881D01*
X146736423Y-81675500D01*
X146736419Y-81675500D01*
X146603581Y-81675500D01*
X146603576Y-81675500D01*
X146475269Y-81709881D01*
X146360228Y-81776300D01*
X146360228Y-81776301D01*
X146266301Y-81870228D01*
X146266300Y-81870228D01*
X146199881Y-81985269D01*
X146165500Y-82113576D01*
X146165500Y-82214224D01*
X146154077Y-82241801D01*
X146126500Y-82253224D01*
X146116406Y-82251895D01*
X146070783Y-82239670D01*
X146070779Y-82239670D01*
X145937941Y-82239670D01*
X145937936Y-82239670D01*
X145809629Y-82274051D01*
X145694588Y-82340470D01*
X145694588Y-82340471D01*
X145600661Y-82434398D01*
X145600660Y-82434398D01*
X145534241Y-82549439D01*
X145499860Y-82677746D01*
X138458806Y-82677746D01*
X138487762Y-82569681D01*
X138487762Y-82436843D01*
X138487340Y-82435269D01*
X138471119Y-82374730D01*
X138453381Y-82308532D01*
X138386962Y-82193492D01*
X138386961Y-82193490D01*
X138293033Y-82099562D01*
X138177992Y-82033143D01*
X138049685Y-81998762D01*
X138049681Y-81998762D01*
X137916843Y-81998762D01*
X137916838Y-81998762D01*
X137788531Y-82033143D01*
X137673490Y-82099562D01*
X137673490Y-82099563D01*
X137579563Y-82193490D01*
X137579562Y-82193490D01*
X137550292Y-82244188D01*
X137526611Y-82262359D01*
X137497017Y-82258463D01*
X137478846Y-82234782D01*
X137477595Y-82230113D01*
X137447719Y-82118615D01*
X137387585Y-82014461D01*
X137381299Y-82003573D01*
X137287371Y-81909645D01*
X137172330Y-81843226D01*
X137044023Y-81808845D01*
X137044019Y-81808845D01*
X136911181Y-81808845D01*
X136911176Y-81808845D01*
X136782869Y-81843226D01*
X136667828Y-81909645D01*
X136612067Y-81965406D01*
X136584490Y-81976829D01*
X136556913Y-81965406D01*
X136484345Y-81892837D01*
X136369304Y-81826418D01*
X136240997Y-81792037D01*
X136240993Y-81792037D01*
X136108155Y-81792037D01*
X136108150Y-81792037D01*
X135979843Y-81826418D01*
X135864802Y-81892837D01*
X135864802Y-81892838D01*
X135770875Y-81986765D01*
X135770874Y-81986765D01*
X135704455Y-82101806D01*
X135670074Y-82230113D01*
X135670074Y-82283907D01*
X135658651Y-82311484D01*
X135631074Y-82322907D01*
X135611574Y-82317682D01*
X135499442Y-82252943D01*
X135371135Y-82218562D01*
X135371131Y-82218562D01*
X135238293Y-82218562D01*
X135238288Y-82218562D01*
X135109981Y-82252943D01*
X134994940Y-82319362D01*
X134994940Y-82319363D01*
X134901013Y-82413290D01*
X134901012Y-82413290D01*
X134834593Y-82528331D01*
X134800212Y-82656638D01*
X120025900Y-82656638D01*
X120025900Y-81537576D01*
X120025900Y-79993576D01*
X128655500Y-79993576D01*
X128655500Y-80126423D01*
X128689881Y-80254730D01*
X128756300Y-80369771D01*
X128850228Y-80463699D01*
X128850230Y-80463700D01*
X128965270Y-80530119D01*
X129052903Y-80553600D01*
X129093576Y-80564499D01*
X129093579Y-80564499D01*
X129093581Y-80564500D01*
X129093582Y-80564500D01*
X129226418Y-80564500D01*
X129226419Y-80564500D01*
X129354730Y-80530119D01*
X129469770Y-80463700D01*
X129469771Y-80463699D01*
X129469772Y-80463699D01*
X129563699Y-80369772D01*
X129563699Y-80369771D01*
X129569272Y-80360119D01*
X129614755Y-80281340D01*
X129638434Y-80263171D01*
X129668028Y-80267067D01*
X129673314Y-80270119D01*
X129769650Y-80325739D01*
X129857283Y-80349220D01*
X129897956Y-80360119D01*
X129897959Y-80360119D01*
X129897961Y-80360120D01*
X129897962Y-80360120D01*
X130030798Y-80360120D01*
X130030799Y-80360120D01*
X130159110Y-80325739D01*
X130274150Y-80259320D01*
X130274151Y-80259319D01*
X130274152Y-80259319D01*
X130368079Y-80165392D01*
X130368079Y-80165391D01*
X130379612Y-80145416D01*
X130434499Y-80050350D01*
X130444205Y-80014126D01*
X130462375Y-79990447D01*
X130491969Y-79986551D01*
X130515650Y-80004722D01*
X130576300Y-80109771D01*
X130670228Y-80203699D01*
X130670230Y-80203700D01*
X130785270Y-80270119D01*
X130872903Y-80293600D01*
X130913576Y-80304499D01*
X130913579Y-80304499D01*
X130913581Y-80304500D01*
X130913582Y-80304500D01*
X131046418Y-80304500D01*
X131046419Y-80304500D01*
X131174730Y-80270119D01*
X131289770Y-80203700D01*
X131367423Y-80126047D01*
X131395000Y-80114624D01*
X131422577Y-80126047D01*
X131470228Y-80173699D01*
X131470230Y-80173700D01*
X131585270Y-80240119D01*
X131661172Y-80260457D01*
X131713576Y-80274499D01*
X131713579Y-80274499D01*
X131713581Y-80274500D01*
X131713582Y-80274500D01*
X131846418Y-80274500D01*
X131846419Y-80274500D01*
X131974730Y-80240119D01*
X132089770Y-80173700D01*
X132089771Y-80173699D01*
X132089772Y-80173699D01*
X132094065Y-80169406D01*
X143891900Y-80169406D01*
X143891900Y-80302253D01*
X143926281Y-80430560D01*
X143992700Y-80545601D01*
X144086628Y-80639529D01*
X144086630Y-80639530D01*
X144201670Y-80705949D01*
X144289303Y-80729430D01*
X144329976Y-80740329D01*
X144329979Y-80740329D01*
X144329981Y-80740330D01*
X144329982Y-80740330D01*
X144462818Y-80740330D01*
X144462819Y-80740330D01*
X144564919Y-80712972D01*
X144594512Y-80716868D01*
X144612683Y-80740549D01*
X144629879Y-80804727D01*
X144696300Y-80919771D01*
X144790228Y-81013699D01*
X144790230Y-81013700D01*
X144905270Y-81080119D01*
X144905272Y-81080119D01*
X144905273Y-81080120D01*
X144943280Y-81090304D01*
X144966962Y-81108475D01*
X144970858Y-81138068D01*
X144966963Y-81147473D01*
X144960970Y-81157852D01*
X144926591Y-81286157D01*
X144926591Y-81419004D01*
X144960972Y-81547311D01*
X145027391Y-81662352D01*
X145121319Y-81756280D01*
X145121321Y-81756281D01*
X145236361Y-81822700D01*
X145312965Y-81843226D01*
X145364667Y-81857080D01*
X145364670Y-81857080D01*
X145364672Y-81857081D01*
X145364673Y-81857081D01*
X145497509Y-81857081D01*
X145497510Y-81857081D01*
X145625821Y-81822700D01*
X145740861Y-81756281D01*
X145740862Y-81756280D01*
X145740863Y-81756280D01*
X145834790Y-81662353D01*
X145834790Y-81662352D01*
X145834791Y-81662351D01*
X145901210Y-81547311D01*
X145935591Y-81419000D01*
X145935591Y-81286162D01*
X145901210Y-81157851D01*
X145834791Y-81042811D01*
X145834790Y-81042809D01*
X145740862Y-80948881D01*
X145625818Y-80882460D01*
X145587809Y-80872276D01*
X145564128Y-80854105D01*
X145560232Y-80824511D01*
X145564128Y-80815105D01*
X145570119Y-80804730D01*
X145604500Y-80676419D01*
X145604500Y-80543581D01*
X145604499Y-80543580D01*
X145604499Y-80543574D01*
X145583096Y-80463700D01*
X145570119Y-80415270D01*
X145503700Y-80300230D01*
X145503699Y-80300228D01*
X145409771Y-80206300D01*
X145294730Y-80139881D01*
X145166423Y-80105500D01*
X145166419Y-80105500D01*
X145033581Y-80105500D01*
X145033576Y-80105500D01*
X144931480Y-80132857D01*
X144901886Y-80128961D01*
X144883715Y-80105281D01*
X144869707Y-80052999D01*
X144866520Y-80041103D01*
X144866519Y-80041102D01*
X144866519Y-80041100D01*
X144800100Y-79926060D01*
X144800099Y-79926058D01*
X144706171Y-79832130D01*
X144591130Y-79765711D01*
X144522677Y-79747369D01*
X144498996Y-79729198D01*
X144495100Y-79699604D01*
X144513271Y-79675923D01*
X144522674Y-79672028D01*
X144597558Y-79651963D01*
X144712598Y-79585544D01*
X144712599Y-79585543D01*
X144712600Y-79585543D01*
X144806527Y-79491616D01*
X144806527Y-79491615D01*
X144812906Y-79480567D01*
X144872947Y-79376574D01*
X144907328Y-79248263D01*
X144907328Y-79127542D01*
X144918751Y-79099965D01*
X144936235Y-79089871D01*
X144997378Y-79073488D01*
X144997377Y-79073488D01*
X144997382Y-79073487D01*
X145112422Y-79007068D01*
X145112423Y-79007067D01*
X145112424Y-79007067D01*
X145206351Y-78913140D01*
X145206351Y-78913139D01*
X145206352Y-78913138D01*
X145272771Y-78798098D01*
X145307152Y-78669787D01*
X145307152Y-78536949D01*
X145300996Y-78513976D01*
X145287937Y-78465238D01*
X145272771Y-78408638D01*
X145206352Y-78293598D01*
X145206351Y-78293596D01*
X145112423Y-78199668D01*
X144997382Y-78133249D01*
X144943406Y-78118786D01*
X144919725Y-78100615D01*
X144914500Y-78081115D01*
X144914500Y-77953582D01*
X144914499Y-77953576D01*
X144892136Y-77870118D01*
X144880119Y-77825270D01*
X144825386Y-77730470D01*
X144813699Y-77710228D01*
X144719771Y-77616300D01*
X144630570Y-77564800D01*
X144616658Y-77556768D01*
X144604730Y-77549881D01*
X144543881Y-77533576D01*
X147455500Y-77533576D01*
X147455500Y-77666423D01*
X147489881Y-77794730D01*
X147556300Y-77909771D01*
X147650228Y-78003699D01*
X147666187Y-78012913D01*
X147765270Y-78070119D01*
X147852903Y-78093600D01*
X147893576Y-78104499D01*
X147893579Y-78104499D01*
X147893581Y-78104500D01*
X147893582Y-78104500D01*
X148026418Y-78104500D01*
X148026419Y-78104500D01*
X148112228Y-78081507D01*
X148141819Y-78085403D01*
X148159991Y-78109083D01*
X148156095Y-78138677D01*
X148149897Y-78146755D01*
X148074767Y-78221885D01*
X148008348Y-78336926D01*
X147973967Y-78465233D01*
X147973967Y-78598080D01*
X148008348Y-78726387D01*
X148074767Y-78841428D01*
X148168695Y-78935356D01*
X148168697Y-78935357D01*
X148283737Y-79001776D01*
X148294630Y-79004694D01*
X148318311Y-79022864D01*
X148322207Y-79052458D01*
X148304037Y-79076140D01*
X148304036Y-79076140D01*
X148210228Y-79130300D01*
X148210228Y-79130301D01*
X148116301Y-79224228D01*
X148116300Y-79224228D01*
X148049881Y-79339269D01*
X148015500Y-79467576D01*
X148015500Y-79600423D01*
X148049881Y-79728730D01*
X148116300Y-79843771D01*
X148210228Y-79937699D01*
X148210230Y-79937700D01*
X148325270Y-80004119D01*
X148412903Y-80027600D01*
X148453576Y-80038499D01*
X148453579Y-80038499D01*
X148453581Y-80038500D01*
X148453582Y-80038500D01*
X148545107Y-80038500D01*
X148572684Y-80049923D01*
X148584107Y-80077500D01*
X148580069Y-80092586D01*
X148580857Y-80092913D01*
X148579880Y-80095269D01*
X148545500Y-80223576D01*
X148545500Y-80275151D01*
X148534077Y-80302728D01*
X148506500Y-80314151D01*
X148487000Y-80308926D01*
X148384730Y-80249881D01*
X148256423Y-80215500D01*
X148256419Y-80215500D01*
X148123581Y-80215500D01*
X148123576Y-80215500D01*
X147995269Y-80249881D01*
X147880228Y-80316300D01*
X147880228Y-80316301D01*
X147786301Y-80410228D01*
X147786300Y-80410228D01*
X147719881Y-80525269D01*
X147685500Y-80653576D01*
X147685500Y-80786423D01*
X147719881Y-80914730D01*
X147786300Y-81029771D01*
X147880228Y-81123699D01*
X147880230Y-81123700D01*
X147995270Y-81190119D01*
X148082903Y-81213600D01*
X148123576Y-81224499D01*
X148123579Y-81224499D01*
X148123581Y-81224500D01*
X148123582Y-81224500D01*
X148256418Y-81224500D01*
X148256419Y-81224500D01*
X148259409Y-81223699D01*
X148265018Y-81222195D01*
X148384730Y-81190119D01*
X148499770Y-81123700D01*
X148499771Y-81123699D01*
X148499772Y-81123699D01*
X148593699Y-81029772D01*
X148593699Y-81029771D01*
X148602978Y-81013700D01*
X148660119Y-80914730D01*
X148694500Y-80786419D01*
X148694500Y-80734848D01*
X148705923Y-80707271D01*
X148733500Y-80695848D01*
X148753000Y-80701073D01*
X148763735Y-80707271D01*
X148855270Y-80760119D01*
X148942903Y-80783600D01*
X148983576Y-80794499D01*
X148983579Y-80794499D01*
X148983581Y-80794500D01*
X148983582Y-80794500D01*
X149116418Y-80794500D01*
X149116419Y-80794500D01*
X149244730Y-80760119D01*
X149256063Y-80753576D01*
X151715500Y-80753576D01*
X151715500Y-80886423D01*
X151749881Y-81014730D01*
X151816300Y-81129771D01*
X151910228Y-81223699D01*
X151941055Y-81241497D01*
X152025270Y-81290119D01*
X152112903Y-81313600D01*
X152153576Y-81324499D01*
X152153579Y-81324499D01*
X152153581Y-81324500D01*
X152153582Y-81324500D01*
X152286418Y-81324500D01*
X152286419Y-81324500D01*
X152414730Y-81290119D01*
X152529770Y-81223700D01*
X152529771Y-81223699D01*
X152529772Y-81223699D01*
X152623699Y-81129772D01*
X152623699Y-81129771D01*
X152623700Y-81129770D01*
X152690119Y-81014730D01*
X152724500Y-80886419D01*
X152724500Y-80753581D01*
X152720949Y-80740330D01*
X152708455Y-80693700D01*
X152690119Y-80625270D01*
X152635183Y-80530119D01*
X152634870Y-80529576D01*
X157102500Y-80529576D01*
X157102500Y-80662423D01*
X157136881Y-80790730D01*
X157203300Y-80905771D01*
X157297228Y-80999699D01*
X157297230Y-80999700D01*
X157412270Y-81066119D01*
X157499903Y-81089600D01*
X157540576Y-81100499D01*
X157540579Y-81100499D01*
X157540581Y-81100500D01*
X157540582Y-81100500D01*
X157673418Y-81100500D01*
X157673419Y-81100500D01*
X157801730Y-81066119D01*
X157916770Y-80999700D01*
X157916771Y-80999699D01*
X157916772Y-80999699D01*
X158010699Y-80905772D01*
X158010699Y-80905771D01*
X158021872Y-80886419D01*
X158077119Y-80790730D01*
X158111500Y-80662419D01*
X158111500Y-80529581D01*
X158111368Y-80529090D01*
X158091566Y-80455186D01*
X158077119Y-80401270D01*
X158010700Y-80286230D01*
X158010699Y-80286228D01*
X157916771Y-80192300D01*
X157801730Y-80125881D01*
X157673423Y-80091500D01*
X157673419Y-80091500D01*
X157540581Y-80091500D01*
X157540576Y-80091500D01*
X157412269Y-80125881D01*
X157297228Y-80192300D01*
X157297228Y-80192301D01*
X157203303Y-80286226D01*
X157203300Y-80286228D01*
X157136881Y-80401269D01*
X157102500Y-80529576D01*
X152634870Y-80529576D01*
X152623699Y-80510228D01*
X152529771Y-80416300D01*
X152414730Y-80349881D01*
X152286423Y-80315500D01*
X152286419Y-80315500D01*
X152153581Y-80315500D01*
X152153576Y-80315500D01*
X152025269Y-80349881D01*
X151910228Y-80416300D01*
X151910228Y-80416301D01*
X151816301Y-80510228D01*
X151816300Y-80510228D01*
X151749881Y-80625269D01*
X151715500Y-80753576D01*
X149256063Y-80753576D01*
X149319643Y-80716868D01*
X149333685Y-80708759D01*
X149359770Y-80693700D01*
X149359771Y-80693699D01*
X149359772Y-80693699D01*
X149453699Y-80599772D01*
X149453699Y-80599771D01*
X149474063Y-80564500D01*
X149520119Y-80484730D01*
X149554500Y-80356419D01*
X149554500Y-80297627D01*
X149565923Y-80270050D01*
X149593500Y-80258627D01*
X149621077Y-80270050D01*
X149705412Y-80354385D01*
X149732060Y-80369770D01*
X149820454Y-80420805D01*
X149908087Y-80444286D01*
X149948760Y-80455185D01*
X149948763Y-80455185D01*
X149948765Y-80455186D01*
X149948766Y-80455186D01*
X150081602Y-80455186D01*
X150081603Y-80455186D01*
X150209914Y-80420805D01*
X150324954Y-80354386D01*
X150324955Y-80354385D01*
X150324956Y-80354385D01*
X150418883Y-80260458D01*
X150418883Y-80260457D01*
X150418884Y-80260456D01*
X150485303Y-80145416D01*
X150519684Y-80017105D01*
X150519684Y-79958166D01*
X152505163Y-79958166D01*
X152505163Y-80091013D01*
X152539544Y-80219320D01*
X152605963Y-80334361D01*
X152699891Y-80428289D01*
X152730718Y-80446087D01*
X152814933Y-80494709D01*
X152902566Y-80518190D01*
X152943239Y-80529089D01*
X152943242Y-80529089D01*
X152943244Y-80529090D01*
X152943245Y-80529090D01*
X153076081Y-80529090D01*
X153076082Y-80529090D01*
X153204393Y-80494709D01*
X153319433Y-80428290D01*
X153319434Y-80428289D01*
X153319435Y-80428289D01*
X153413362Y-80334362D01*
X153413362Y-80334361D01*
X153417403Y-80327362D01*
X153479782Y-80219320D01*
X153513653Y-80092913D01*
X153514162Y-80091013D01*
X153514163Y-80091007D01*
X153514163Y-79958172D01*
X153514161Y-79958163D01*
X153512286Y-79951166D01*
X160875500Y-79951166D01*
X160875500Y-80084013D01*
X160909881Y-80212320D01*
X160976300Y-80327361D01*
X161070228Y-80421289D01*
X161082354Y-80428290D01*
X161185270Y-80487709D01*
X161269312Y-80510228D01*
X161313576Y-80522089D01*
X161313579Y-80522089D01*
X161313581Y-80522090D01*
X161313582Y-80522090D01*
X161446418Y-80522090D01*
X161446419Y-80522090D01*
X161574730Y-80487709D01*
X161689770Y-80421290D01*
X161689771Y-80421289D01*
X161689772Y-80421289D01*
X161783699Y-80327362D01*
X161783699Y-80327361D01*
X161783700Y-80327360D01*
X161850119Y-80212320D01*
X161884500Y-80084009D01*
X161884500Y-79951171D01*
X161882326Y-79943059D01*
X161874684Y-79914537D01*
X161872663Y-79906994D01*
X162935500Y-79906994D01*
X162935500Y-80053005D01*
X162973286Y-80194026D01*
X163046289Y-80320472D01*
X163149527Y-80423710D01*
X163149529Y-80423711D01*
X163255217Y-80484730D01*
X163275973Y-80496713D01*
X163416994Y-80534499D01*
X163416997Y-80534499D01*
X163416999Y-80534500D01*
X163417000Y-80534500D01*
X163563000Y-80534500D01*
X163563001Y-80534500D01*
X163563005Y-80534499D01*
X163704026Y-80496713D01*
X163704026Y-80496712D01*
X163704029Y-80496712D01*
X163830471Y-80423711D01*
X163830472Y-80423710D01*
X163830473Y-80423710D01*
X163933710Y-80320473D01*
X163933710Y-80320472D01*
X163933711Y-80320471D01*
X164006712Y-80194029D01*
X164012160Y-80173699D01*
X164044499Y-80053005D01*
X164044500Y-80052999D01*
X164044500Y-79907000D01*
X164044499Y-79906994D01*
X164006713Y-79765973D01*
X163986767Y-79731426D01*
X163940274Y-79650897D01*
X163933710Y-79639527D01*
X163830472Y-79536289D01*
X163704026Y-79463286D01*
X163563005Y-79425500D01*
X163563001Y-79425500D01*
X163416999Y-79425500D01*
X163416994Y-79425500D01*
X163275973Y-79463286D01*
X163149527Y-79536289D01*
X163149527Y-79536290D01*
X163046290Y-79639527D01*
X163046289Y-79639527D01*
X162973286Y-79765973D01*
X162935500Y-79906994D01*
X161872663Y-79906994D01*
X161866440Y-79883770D01*
X161850119Y-79822860D01*
X161789617Y-79718069D01*
X161783699Y-79707818D01*
X161689771Y-79613890D01*
X161574730Y-79547471D01*
X161446423Y-79513090D01*
X161446419Y-79513090D01*
X161313581Y-79513090D01*
X161313576Y-79513090D01*
X161185269Y-79547471D01*
X161070228Y-79613890D01*
X161070228Y-79613891D01*
X160976301Y-79707818D01*
X160976300Y-79707818D01*
X160909881Y-79822859D01*
X160875500Y-79951166D01*
X153512286Y-79951166D01*
X153502471Y-79914537D01*
X153479782Y-79829860D01*
X153413363Y-79714820D01*
X153413362Y-79714818D01*
X153319434Y-79620890D01*
X153204393Y-79554471D01*
X153076086Y-79520090D01*
X153076082Y-79520090D01*
X152943244Y-79520090D01*
X152943239Y-79520090D01*
X152814932Y-79554471D01*
X152699891Y-79620890D01*
X152699891Y-79620891D01*
X152605964Y-79714818D01*
X152605963Y-79714818D01*
X152539544Y-79829859D01*
X152505163Y-79958166D01*
X150519684Y-79958166D01*
X150519684Y-79884267D01*
X150519551Y-79883772D01*
X150502432Y-79819881D01*
X150485303Y-79755956D01*
X150425262Y-79651963D01*
X150418883Y-79640914D01*
X150324955Y-79546986D01*
X150209914Y-79480567D01*
X150081607Y-79446186D01*
X150081603Y-79446186D01*
X149948765Y-79446186D01*
X149948760Y-79446186D01*
X149820453Y-79480567D01*
X149705412Y-79546986D01*
X149705412Y-79546987D01*
X149611485Y-79640914D01*
X149611484Y-79640914D01*
X149545065Y-79755955D01*
X149510684Y-79884262D01*
X149510684Y-79943059D01*
X149499261Y-79970636D01*
X149471684Y-79982059D01*
X149444107Y-79970636D01*
X149359771Y-79886300D01*
X149244730Y-79819881D01*
X149116423Y-79785500D01*
X149116419Y-79785500D01*
X149024893Y-79785500D01*
X148997316Y-79774077D01*
X148985893Y-79746500D01*
X148989933Y-79731426D01*
X148989139Y-79731097D01*
X148990117Y-79728733D01*
X148990116Y-79728733D01*
X148990119Y-79728730D01*
X149024500Y-79600419D01*
X149024500Y-79467581D01*
X149022530Y-79460230D01*
X149005400Y-79396300D01*
X148990119Y-79339270D01*
X148923700Y-79224230D01*
X148923699Y-79224228D01*
X148829771Y-79130300D01*
X148714731Y-79063881D01*
X148709773Y-79062552D01*
X148703834Y-79060961D01*
X148680154Y-79042790D01*
X148676259Y-79013196D01*
X148694428Y-78989517D01*
X148788237Y-78935357D01*
X148788238Y-78935356D01*
X148788239Y-78935356D01*
X148882166Y-78841429D01*
X148882166Y-78841428D01*
X148882167Y-78841427D01*
X148948586Y-78726387D01*
X148981302Y-78604289D01*
X148982966Y-78598080D01*
X148982967Y-78598074D01*
X148982967Y-78465239D01*
X148982966Y-78465233D01*
X148967801Y-78408637D01*
X148948586Y-78336927D01*
X148882167Y-78221887D01*
X148882166Y-78221885D01*
X148788238Y-78127957D01*
X148673197Y-78061538D01*
X148544890Y-78027157D01*
X148544886Y-78027157D01*
X148412048Y-78027157D01*
X148412043Y-78027157D01*
X148326240Y-78050149D01*
X148296646Y-78046253D01*
X148278475Y-78022572D01*
X148282371Y-77992978D01*
X148288569Y-77984901D01*
X148363699Y-77909771D01*
X148363700Y-77909770D01*
X148430119Y-77794730D01*
X148464500Y-77666419D01*
X148464500Y-77533581D01*
X148430119Y-77405270D01*
X148396937Y-77347798D01*
X148388726Y-77333576D01*
X148857910Y-77333576D01*
X148857910Y-77466423D01*
X148892291Y-77594730D01*
X148958710Y-77709771D01*
X149052638Y-77803699D01*
X149083465Y-77821497D01*
X149167680Y-77870119D01*
X149255313Y-77893600D01*
X149295986Y-77904499D01*
X149295989Y-77904499D01*
X149295991Y-77904500D01*
X149295992Y-77904500D01*
X149428828Y-77904500D01*
X149428829Y-77904500D01*
X149557140Y-77870119D01*
X149585235Y-77853897D01*
X149614828Y-77850001D01*
X149638509Y-77868171D01*
X149642406Y-77897765D01*
X149638510Y-77907171D01*
X149619883Y-77939435D01*
X149619881Y-77939439D01*
X149585500Y-78067746D01*
X149585500Y-78200593D01*
X149619881Y-78328900D01*
X149686300Y-78443941D01*
X149780228Y-78537869D01*
X149780230Y-78537870D01*
X149895270Y-78604289D01*
X149982903Y-78627770D01*
X150023576Y-78638669D01*
X150023579Y-78638669D01*
X150023581Y-78638670D01*
X150023582Y-78638670D01*
X150156418Y-78638670D01*
X150156419Y-78638670D01*
X150284730Y-78604289D01*
X150399770Y-78537870D01*
X150399771Y-78537869D01*
X150399772Y-78537869D01*
X150493699Y-78443942D01*
X150493699Y-78443941D01*
X150493700Y-78443940D01*
X150560119Y-78328900D01*
X150594500Y-78200589D01*
X150594500Y-78067751D01*
X150592835Y-78061538D01*
X150577820Y-78005500D01*
X150560119Y-77939440D01*
X150493700Y-77824400D01*
X150493699Y-77824398D01*
X150399771Y-77730470D01*
X150375224Y-77716298D01*
X150321143Y-77685074D01*
X150817220Y-77685074D01*
X150817220Y-77817921D01*
X150851601Y-77946228D01*
X150918020Y-78061269D01*
X151011948Y-78155197D01*
X151011950Y-78155198D01*
X151126990Y-78221617D01*
X151214623Y-78245098D01*
X151255296Y-78255997D01*
X151255299Y-78255997D01*
X151255301Y-78255998D01*
X151255302Y-78255998D01*
X151388138Y-78255998D01*
X151388139Y-78255998D01*
X151516450Y-78221617D01*
X151631490Y-78155198D01*
X151631491Y-78155197D01*
X151631492Y-78155197D01*
X151725419Y-78061270D01*
X151725419Y-78061269D01*
X151725420Y-78061268D01*
X151791839Y-77946228D01*
X151826148Y-77818185D01*
X151826219Y-77817921D01*
X151826220Y-77817915D01*
X151826220Y-77685080D01*
X151826219Y-77685074D01*
X151807791Y-77616301D01*
X151791839Y-77556768D01*
X151732924Y-77454725D01*
X151725571Y-77441989D01*
X165768592Y-77441989D01*
X165768592Y-77574836D01*
X165802973Y-77703143D01*
X165869392Y-77818184D01*
X165963320Y-77912112D01*
X165963322Y-77912113D01*
X166078362Y-77978532D01*
X166098862Y-77984025D01*
X166122543Y-78002194D01*
X166126439Y-78031788D01*
X166108269Y-78055470D01*
X166108268Y-78055470D01*
X166020228Y-78106300D01*
X166020228Y-78106301D01*
X165926301Y-78200228D01*
X165926300Y-78200228D01*
X165859881Y-78315269D01*
X165825500Y-78443576D01*
X165825500Y-78576423D01*
X165859881Y-78704730D01*
X165926300Y-78819771D01*
X166020228Y-78913699D01*
X166020230Y-78913700D01*
X166135270Y-78980119D01*
X166216091Y-79001775D01*
X166263576Y-79014499D01*
X166263579Y-79014499D01*
X166263581Y-79014500D01*
X166263582Y-79014500D01*
X166396418Y-79014500D01*
X166396419Y-79014500D01*
X166524730Y-78980119D01*
X166639770Y-78913700D01*
X166639771Y-78913699D01*
X166639772Y-78913699D01*
X166733699Y-78819772D01*
X166733699Y-78819771D01*
X166757732Y-78778145D01*
X166800119Y-78704730D01*
X166834500Y-78576419D01*
X166834500Y-78443581D01*
X166800119Y-78315270D01*
X166733700Y-78200230D01*
X166733699Y-78200228D01*
X166639771Y-78106300D01*
X166524730Y-78039881D01*
X166504228Y-78034387D01*
X166480548Y-78016217D01*
X166476652Y-77986623D01*
X166494821Y-77962943D01*
X166582862Y-77912113D01*
X166582863Y-77912112D01*
X166582864Y-77912112D01*
X166676791Y-77818185D01*
X166676791Y-77818184D01*
X166676943Y-77817921D01*
X166743211Y-77703143D01*
X166777592Y-77574832D01*
X166777592Y-77441994D01*
X166777520Y-77441726D01*
X166766692Y-77401316D01*
X166743211Y-77313683D01*
X166676792Y-77198643D01*
X166676791Y-77198641D01*
X166582863Y-77104713D01*
X166467822Y-77038294D01*
X166339515Y-77003913D01*
X166339511Y-77003913D01*
X166206673Y-77003913D01*
X166206668Y-77003913D01*
X166078361Y-77038294D01*
X165963320Y-77104713D01*
X165963320Y-77104714D01*
X165869393Y-77198641D01*
X165869392Y-77198641D01*
X165802973Y-77313682D01*
X165768592Y-77441989D01*
X151725571Y-77441989D01*
X151725421Y-77441729D01*
X151725419Y-77441726D01*
X151631491Y-77347798D01*
X151516450Y-77281379D01*
X151388143Y-77246998D01*
X151388139Y-77246998D01*
X151255301Y-77246998D01*
X151255296Y-77246998D01*
X151126989Y-77281379D01*
X151011948Y-77347798D01*
X151011948Y-77347799D01*
X150918021Y-77441726D01*
X150918020Y-77441726D01*
X150851601Y-77556767D01*
X150817220Y-77685074D01*
X150321143Y-77685074D01*
X150284730Y-77664051D01*
X150156423Y-77629670D01*
X150156419Y-77629670D01*
X150023581Y-77629670D01*
X150023576Y-77629670D01*
X149895269Y-77664051D01*
X149867174Y-77680272D01*
X149837580Y-77684168D01*
X149813899Y-77665997D01*
X149810003Y-77636403D01*
X149813899Y-77626997D01*
X149832529Y-77594730D01*
X149866910Y-77466419D01*
X149866910Y-77333581D01*
X149832529Y-77205270D01*
X149783907Y-77121055D01*
X149766109Y-77090228D01*
X149672181Y-76996300D01*
X149557140Y-76929881D01*
X149428833Y-76895500D01*
X149428829Y-76895500D01*
X149295991Y-76895500D01*
X149295986Y-76895500D01*
X149167679Y-76929881D01*
X149052638Y-76996300D01*
X149052638Y-76996301D01*
X148958711Y-77090228D01*
X148958710Y-77090228D01*
X148892291Y-77205269D01*
X148857910Y-77333576D01*
X148388726Y-77333576D01*
X148363699Y-77290228D01*
X148269771Y-77196300D01*
X148154730Y-77129881D01*
X148026423Y-77095500D01*
X148026419Y-77095500D01*
X147893581Y-77095500D01*
X147893576Y-77095500D01*
X147765269Y-77129881D01*
X147650228Y-77196300D01*
X147650228Y-77196301D01*
X147556301Y-77290228D01*
X147556300Y-77290228D01*
X147489881Y-77405269D01*
X147455500Y-77533576D01*
X144543881Y-77533576D01*
X144476423Y-77515500D01*
X144476419Y-77515500D01*
X144343581Y-77515500D01*
X144343576Y-77515500D01*
X144215269Y-77549881D01*
X144100228Y-77616300D01*
X144100228Y-77616301D01*
X144006301Y-77710228D01*
X144006300Y-77710228D01*
X143939881Y-77825269D01*
X143905500Y-77953576D01*
X143905500Y-78086423D01*
X143939881Y-78214730D01*
X144006300Y-78329771D01*
X144100228Y-78423699D01*
X144100230Y-78423700D01*
X144215270Y-78490119D01*
X144215272Y-78490119D01*
X144215273Y-78490120D01*
X144235789Y-78495617D01*
X144269245Y-78504581D01*
X144292927Y-78522751D01*
X144298152Y-78542252D01*
X144298152Y-78657669D01*
X144286729Y-78685246D01*
X144269246Y-78695340D01*
X144208097Y-78711725D01*
X144093056Y-78778144D01*
X144093056Y-78778145D01*
X143999129Y-78872072D01*
X143999128Y-78872072D01*
X143932709Y-78987113D01*
X143898328Y-79115420D01*
X143898328Y-79248267D01*
X143932709Y-79376574D01*
X143999128Y-79491615D01*
X144093056Y-79585543D01*
X144093058Y-79585544D01*
X144208098Y-79651963D01*
X144276551Y-79670305D01*
X144300231Y-79688475D01*
X144304127Y-79718069D01*
X144285956Y-79741750D01*
X144276551Y-79745646D01*
X144238080Y-79755955D01*
X144201670Y-79765711D01*
X144201668Y-79765711D01*
X144201668Y-79765712D01*
X144086628Y-79832130D01*
X144086628Y-79832131D01*
X143992701Y-79926058D01*
X143992700Y-79926058D01*
X143926281Y-80041099D01*
X143891900Y-80169406D01*
X132094065Y-80169406D01*
X132183699Y-80079772D01*
X132183699Y-80079771D01*
X132184433Y-80078500D01*
X132250119Y-79964730D01*
X132270541Y-79888508D01*
X132288711Y-79864828D01*
X132318304Y-79860932D01*
X132392760Y-79880882D01*
X132443576Y-79894499D01*
X132443579Y-79894499D01*
X132443581Y-79894500D01*
X132443582Y-79894500D01*
X132576418Y-79894500D01*
X132576419Y-79894500D01*
X132704730Y-79860119D01*
X132819770Y-79793700D01*
X132819771Y-79793699D01*
X132819772Y-79793699D01*
X132913699Y-79699772D01*
X132913699Y-79699771D01*
X132913700Y-79699770D01*
X132980119Y-79584730D01*
X133000791Y-79507581D01*
X133000792Y-79507576D01*
X134075500Y-79507576D01*
X134075500Y-79640423D01*
X134109881Y-79768730D01*
X134176300Y-79883771D01*
X134270228Y-79977699D01*
X134270230Y-79977700D01*
X134385270Y-80044119D01*
X134472903Y-80067600D01*
X134513576Y-80078499D01*
X134513579Y-80078499D01*
X134513581Y-80078500D01*
X134513582Y-80078500D01*
X134646418Y-80078500D01*
X134646419Y-80078500D01*
X134774730Y-80044119D01*
X134889770Y-79977700D01*
X134889771Y-79977699D01*
X134889772Y-79977699D01*
X134983699Y-79883772D01*
X134983699Y-79883771D01*
X134983700Y-79883770D01*
X135050119Y-79768730D01*
X135082321Y-79648552D01*
X135084499Y-79640423D01*
X135084500Y-79640417D01*
X135084500Y-79507582D01*
X135084499Y-79507576D01*
X135070791Y-79456419D01*
X135050119Y-79379270D01*
X134983700Y-79264230D01*
X134983699Y-79264228D01*
X134889771Y-79170300D01*
X134774730Y-79103881D01*
X134646423Y-79069500D01*
X134646419Y-79069500D01*
X134513581Y-79069500D01*
X134513576Y-79069500D01*
X134385269Y-79103881D01*
X134270228Y-79170300D01*
X134270228Y-79170301D01*
X134176301Y-79264228D01*
X134176300Y-79264228D01*
X134109881Y-79379269D01*
X134075500Y-79507576D01*
X133000792Y-79507576D01*
X133004181Y-79494931D01*
X133014499Y-79456423D01*
X133014500Y-79456417D01*
X133014500Y-79323582D01*
X133014499Y-79323576D01*
X132998596Y-79264228D01*
X132980119Y-79195270D01*
X132913700Y-79080230D01*
X132913699Y-79080228D01*
X132819771Y-78986300D01*
X132704730Y-78919881D01*
X132576423Y-78885500D01*
X132576419Y-78885500D01*
X132443581Y-78885500D01*
X132443576Y-78885500D01*
X132315269Y-78919881D01*
X132200228Y-78986300D01*
X132200228Y-78986301D01*
X132106301Y-79080228D01*
X132106300Y-79080228D01*
X132039881Y-79195268D01*
X132019457Y-79271490D01*
X132001285Y-79295170D01*
X131971692Y-79299066D01*
X131846423Y-79265500D01*
X131846419Y-79265500D01*
X131713581Y-79265500D01*
X131713576Y-79265500D01*
X131585269Y-79299881D01*
X131470228Y-79366300D01*
X131470228Y-79366301D01*
X131392577Y-79443952D01*
X131365000Y-79455375D01*
X131337423Y-79443952D01*
X131289771Y-79396300D01*
X131174730Y-79329881D01*
X131046423Y-79295500D01*
X131046419Y-79295500D01*
X130913581Y-79295500D01*
X130913576Y-79295500D01*
X130785269Y-79329881D01*
X130670228Y-79396300D01*
X130670228Y-79396301D01*
X130576301Y-79490228D01*
X130576300Y-79490228D01*
X130509881Y-79605268D01*
X130500175Y-79641492D01*
X130482003Y-79665172D01*
X130452409Y-79669068D01*
X130428729Y-79650897D01*
X130427375Y-79648552D01*
X130382759Y-79571274D01*
X130368079Y-79545848D01*
X130274151Y-79451920D01*
X130159110Y-79385501D01*
X130030803Y-79351120D01*
X130030799Y-79351120D01*
X129897961Y-79351120D01*
X129897956Y-79351120D01*
X129769649Y-79385501D01*
X129654608Y-79451920D01*
X129654608Y-79451921D01*
X129560681Y-79545848D01*
X129560680Y-79545848D01*
X129509625Y-79634277D01*
X129485944Y-79652448D01*
X129456350Y-79648552D01*
X129442263Y-79640419D01*
X129354730Y-79589881D01*
X129226423Y-79555500D01*
X129226419Y-79555500D01*
X129093581Y-79555500D01*
X129093576Y-79555500D01*
X128965269Y-79589881D01*
X128850228Y-79656300D01*
X128850228Y-79656301D01*
X128756301Y-79750228D01*
X128756300Y-79750228D01*
X128689881Y-79865269D01*
X128655500Y-79993576D01*
X120025900Y-79993576D01*
X120025900Y-76242576D01*
X126876500Y-76242576D01*
X126876500Y-76375423D01*
X126910881Y-76503730D01*
X126977300Y-76618771D01*
X127071228Y-76712699D01*
X127071230Y-76712700D01*
X127186270Y-76779119D01*
X127273903Y-76802600D01*
X127314576Y-76813499D01*
X127314579Y-76813499D01*
X127314581Y-76813500D01*
X127314582Y-76813500D01*
X127447418Y-76813500D01*
X127447419Y-76813500D01*
X127575730Y-76779119D01*
X127690770Y-76712700D01*
X127690771Y-76712699D01*
X127690772Y-76712699D01*
X127784699Y-76618772D01*
X127784699Y-76618771D01*
X127784700Y-76618770D01*
X127851119Y-76503730D01*
X127885500Y-76375419D01*
X127885500Y-76242581D01*
X127884801Y-76239973D01*
X127862381Y-76156300D01*
X127851119Y-76114270D01*
X127784700Y-75999230D01*
X127784699Y-75999228D01*
X127690771Y-75905300D01*
X127575730Y-75838881D01*
X127447423Y-75804500D01*
X127447419Y-75804500D01*
X127314581Y-75804500D01*
X127314576Y-75804500D01*
X127186269Y-75838881D01*
X127071228Y-75905300D01*
X127071228Y-75905301D01*
X126977301Y-75999228D01*
X126977300Y-75999228D01*
X126910881Y-76114269D01*
X126876500Y-76242576D01*
X120025900Y-76242576D01*
X120025900Y-75618994D01*
X136605500Y-75618994D01*
X136605500Y-75765005D01*
X136643286Y-75906026D01*
X136716289Y-76032472D01*
X136729240Y-76045423D01*
X136740663Y-76073000D01*
X136729240Y-76100577D01*
X136716290Y-76113527D01*
X136716289Y-76113527D01*
X136643286Y-76239973D01*
X136605500Y-76380994D01*
X136605500Y-76527005D01*
X136643287Y-76668028D01*
X136691767Y-76752001D01*
X136695663Y-76781595D01*
X136691767Y-76790999D01*
X136643287Y-76874971D01*
X136605500Y-77015994D01*
X136605500Y-77162005D01*
X136643286Y-77303026D01*
X136716289Y-77429472D01*
X136819527Y-77532710D01*
X136945973Y-77605713D01*
X137086994Y-77643499D01*
X137086997Y-77643499D01*
X137086999Y-77643500D01*
X137087000Y-77643500D01*
X137233000Y-77643500D01*
X137233001Y-77643500D01*
X137294592Y-77626997D01*
X137374026Y-77605713D01*
X137374026Y-77605712D01*
X137374029Y-77605712D01*
X137500471Y-77532711D01*
X137500472Y-77532710D01*
X137500473Y-77532710D01*
X137603710Y-77429473D01*
X137603710Y-77429472D01*
X137617683Y-77405270D01*
X137676712Y-77303029D01*
X137680142Y-77290230D01*
X137714499Y-77162005D01*
X137714500Y-77161999D01*
X137714500Y-77016000D01*
X137714499Y-77015994D01*
X137676713Y-76874973D01*
X137673709Y-76869770D01*
X137628230Y-76790999D01*
X137624335Y-76761406D01*
X137628231Y-76752000D01*
X137650921Y-76712700D01*
X137676712Y-76668029D01*
X137682235Y-76647419D01*
X137714499Y-76527005D01*
X137714500Y-76526999D01*
X137714500Y-76514576D01*
X155070500Y-76514576D01*
X155070500Y-76647423D01*
X155104881Y-76775730D01*
X155171300Y-76890771D01*
X155265228Y-76984699D01*
X155265230Y-76984700D01*
X155380270Y-77051119D01*
X155467903Y-77074600D01*
X155508576Y-77085499D01*
X155508579Y-77085499D01*
X155508581Y-77085500D01*
X155508582Y-77085500D01*
X155641418Y-77085500D01*
X155641419Y-77085500D01*
X155769730Y-77051119D01*
X155884770Y-76984700D01*
X155884771Y-76984699D01*
X155884772Y-76984699D01*
X155978699Y-76890772D01*
X155978699Y-76890771D01*
X155987820Y-76874973D01*
X156045119Y-76775730D01*
X156079500Y-76647419D01*
X156079500Y-76514581D01*
X156073872Y-76493576D01*
X165215500Y-76493576D01*
X165215500Y-76626423D01*
X165249881Y-76754730D01*
X165316300Y-76869771D01*
X165410228Y-76963699D01*
X165410230Y-76963700D01*
X165525270Y-77030119D01*
X165603639Y-77051118D01*
X165653576Y-77064499D01*
X165653579Y-77064499D01*
X165653581Y-77064500D01*
X165653582Y-77064500D01*
X165786418Y-77064500D01*
X165786419Y-77064500D01*
X165914730Y-77030119D01*
X166029770Y-76963700D01*
X166029771Y-76963699D01*
X166029772Y-76963699D01*
X166123699Y-76869772D01*
X166123699Y-76869771D01*
X166123700Y-76869770D01*
X166190119Y-76754730D01*
X166224500Y-76626419D01*
X166224500Y-76493581D01*
X166190119Y-76365270D01*
X166141497Y-76281055D01*
X166123699Y-76250228D01*
X166029771Y-76156300D01*
X165914730Y-76089881D01*
X165786423Y-76055500D01*
X165786419Y-76055500D01*
X165653581Y-76055500D01*
X165653576Y-76055500D01*
X165525269Y-76089881D01*
X165410228Y-76156300D01*
X165410228Y-76156301D01*
X165316301Y-76250228D01*
X165316300Y-76250228D01*
X165249881Y-76365269D01*
X165215500Y-76493576D01*
X156073872Y-76493576D01*
X156045119Y-76386270D01*
X155978700Y-76271230D01*
X155978699Y-76271228D01*
X155884771Y-76177300D01*
X155769730Y-76110881D01*
X155641423Y-76076500D01*
X155641419Y-76076500D01*
X155508581Y-76076500D01*
X155508576Y-76076500D01*
X155380269Y-76110881D01*
X155265228Y-76177300D01*
X155265228Y-76177301D01*
X155171301Y-76271228D01*
X155171300Y-76271228D01*
X155104881Y-76386269D01*
X155070500Y-76514576D01*
X137714500Y-76514576D01*
X137714500Y-76381000D01*
X137714499Y-76380994D01*
X137676713Y-76239973D01*
X137603710Y-76113527D01*
X137590760Y-76100578D01*
X137579336Y-76073001D01*
X137590758Y-76045424D01*
X137603710Y-76032472D01*
X137603711Y-76032471D01*
X137676712Y-75906029D01*
X137676907Y-75905301D01*
X137683801Y-75879576D01*
X158118500Y-75879576D01*
X158118500Y-76012423D01*
X158152881Y-76140730D01*
X158219300Y-76255771D01*
X158313228Y-76349699D01*
X158313230Y-76349700D01*
X158428270Y-76416119D01*
X158515903Y-76439600D01*
X158556576Y-76450499D01*
X158556579Y-76450499D01*
X158556581Y-76450500D01*
X158556582Y-76450500D01*
X158689418Y-76450500D01*
X158689419Y-76450500D01*
X158817730Y-76416119D01*
X158932770Y-76349700D01*
X158932771Y-76349699D01*
X158932772Y-76349699D01*
X159026699Y-76255772D01*
X159026699Y-76255771D01*
X159026700Y-76255770D01*
X159093119Y-76140730D01*
X159127500Y-76012419D01*
X159127500Y-75879581D01*
X159127499Y-75879576D01*
X161166500Y-75879576D01*
X161166500Y-76012423D01*
X161200881Y-76140730D01*
X161267300Y-76255771D01*
X161361228Y-76349699D01*
X161361230Y-76349700D01*
X161476270Y-76416119D01*
X161563903Y-76439600D01*
X161604576Y-76450499D01*
X161604579Y-76450499D01*
X161604581Y-76450500D01*
X161604582Y-76450500D01*
X161737418Y-76450500D01*
X161737419Y-76450500D01*
X161865730Y-76416119D01*
X161980770Y-76349700D01*
X161980771Y-76349699D01*
X161980772Y-76349699D01*
X162074699Y-76255772D01*
X162074699Y-76255771D01*
X162074700Y-76255770D01*
X162141119Y-76140730D01*
X162175500Y-76012419D01*
X162175500Y-75879581D01*
X162172110Y-75866931D01*
X162144798Y-75765001D01*
X162141119Y-75751270D01*
X162074700Y-75636230D01*
X162074699Y-75636228D01*
X161980771Y-75542300D01*
X161865730Y-75475881D01*
X161737423Y-75441500D01*
X161737419Y-75441500D01*
X161604581Y-75441500D01*
X161604576Y-75441500D01*
X161476269Y-75475881D01*
X161361228Y-75542300D01*
X161361228Y-75542301D01*
X161267301Y-75636228D01*
X161267300Y-75636228D01*
X161200881Y-75751269D01*
X161166500Y-75879576D01*
X159127499Y-75879576D01*
X159124110Y-75866931D01*
X159096798Y-75765001D01*
X159093119Y-75751270D01*
X159026700Y-75636230D01*
X159026699Y-75636228D01*
X158932771Y-75542300D01*
X158817730Y-75475881D01*
X158689423Y-75441500D01*
X158689419Y-75441500D01*
X158556581Y-75441500D01*
X158556576Y-75441500D01*
X158428269Y-75475881D01*
X158313228Y-75542300D01*
X158313228Y-75542301D01*
X158219301Y-75636228D01*
X158219300Y-75636228D01*
X158152881Y-75751269D01*
X158118500Y-75879576D01*
X137683801Y-75879576D01*
X137687189Y-75866931D01*
X137714499Y-75765005D01*
X137714500Y-75764999D01*
X137714500Y-75619000D01*
X137714499Y-75618994D01*
X137676713Y-75477973D01*
X137655655Y-75441500D01*
X137603711Y-75351529D01*
X137603710Y-75351527D01*
X137500472Y-75248289D01*
X137374026Y-75175286D01*
X137233005Y-75137500D01*
X137233001Y-75137500D01*
X137086999Y-75137500D01*
X137086994Y-75137500D01*
X136945973Y-75175286D01*
X136819527Y-75248289D01*
X136819527Y-75248290D01*
X136716290Y-75351527D01*
X136716289Y-75351527D01*
X136643286Y-75477973D01*
X136605500Y-75618994D01*
X120025900Y-75618994D01*
X120025900Y-74101576D01*
X124463500Y-74101576D01*
X124463500Y-74234423D01*
X124497881Y-74362730D01*
X124564300Y-74477771D01*
X124658228Y-74571699D01*
X124658230Y-74571700D01*
X124773270Y-74638119D01*
X124860903Y-74661600D01*
X124901576Y-74672499D01*
X124901579Y-74672499D01*
X124901581Y-74672500D01*
X124901582Y-74672500D01*
X125034418Y-74672500D01*
X125034419Y-74672500D01*
X125162730Y-74638119D01*
X125277770Y-74571700D01*
X125277771Y-74571699D01*
X125277772Y-74571699D01*
X125371699Y-74477772D01*
X125371699Y-74477771D01*
X125372974Y-74475563D01*
X125438119Y-74362730D01*
X125472500Y-74234419D01*
X125472500Y-74101581D01*
X125472148Y-74100269D01*
X125461600Y-74060903D01*
X125438119Y-73973270D01*
X125399454Y-73906301D01*
X125375335Y-73864525D01*
X125375334Y-73864524D01*
X125371701Y-73858231D01*
X125371699Y-73858228D01*
X125361047Y-73847576D01*
X135385500Y-73847576D01*
X135385500Y-73980423D01*
X135419881Y-74108730D01*
X135486300Y-74223771D01*
X135580228Y-74317699D01*
X135580230Y-74317700D01*
X135695270Y-74384119D01*
X135772191Y-74404730D01*
X135823576Y-74418499D01*
X135823579Y-74418499D01*
X135823581Y-74418500D01*
X135823582Y-74418500D01*
X135956418Y-74418500D01*
X135956419Y-74418500D01*
X136084730Y-74384119D01*
X136199770Y-74317700D01*
X136199771Y-74317699D01*
X136199772Y-74317699D01*
X136293699Y-74223772D01*
X136293699Y-74223771D01*
X136340001Y-74143576D01*
X140675500Y-74143576D01*
X140675500Y-74276423D01*
X140709881Y-74404730D01*
X140776300Y-74519771D01*
X140870228Y-74613699D01*
X140870230Y-74613700D01*
X140985270Y-74680119D01*
X141054615Y-74698700D01*
X141113576Y-74714499D01*
X141113579Y-74714499D01*
X141113581Y-74714500D01*
X141113582Y-74714500D01*
X141246418Y-74714500D01*
X141246419Y-74714500D01*
X141249409Y-74713699D01*
X141255018Y-74712195D01*
X141374730Y-74680119D01*
X141489770Y-74613700D01*
X141489771Y-74613699D01*
X141489772Y-74613699D01*
X141583699Y-74519772D01*
X141583699Y-74519771D01*
X141592383Y-74504730D01*
X141650119Y-74404730D01*
X141684500Y-74276419D01*
X141684500Y-74243576D01*
X144575500Y-74243576D01*
X144575500Y-74376423D01*
X144609881Y-74504730D01*
X144676300Y-74619771D01*
X144770228Y-74713699D01*
X144801055Y-74731497D01*
X144885270Y-74780119D01*
X144957597Y-74799499D01*
X145013576Y-74814499D01*
X145013579Y-74814499D01*
X145013581Y-74814500D01*
X145013582Y-74814500D01*
X145146418Y-74814500D01*
X145146419Y-74814500D01*
X145274730Y-74780119D01*
X145389770Y-74713700D01*
X145389771Y-74713699D01*
X145389772Y-74713699D01*
X145483699Y-74619772D01*
X145483699Y-74619771D01*
X145483700Y-74619770D01*
X145535556Y-74529952D01*
X145559236Y-74511783D01*
X145588830Y-74515679D01*
X145603105Y-74529954D01*
X145646300Y-74604771D01*
X145740228Y-74698699D01*
X145767594Y-74714499D01*
X145855270Y-74765119D01*
X145942903Y-74788600D01*
X145983576Y-74799499D01*
X145983579Y-74799499D01*
X145983581Y-74799500D01*
X145983582Y-74799500D01*
X146116418Y-74799500D01*
X146116419Y-74799500D01*
X146244730Y-74765119D01*
X146359770Y-74698700D01*
X146359771Y-74698699D01*
X146359772Y-74698699D01*
X146453699Y-74604772D01*
X146453699Y-74604771D01*
X146472793Y-74571700D01*
X146520119Y-74489730D01*
X146554500Y-74361419D01*
X146554500Y-74228581D01*
X146553211Y-74223772D01*
X146543600Y-74187903D01*
X146520119Y-74100270D01*
X146462369Y-74000245D01*
X146453699Y-73985228D01*
X146359771Y-73891300D01*
X146244730Y-73824881D01*
X146116423Y-73790500D01*
X146116419Y-73790500D01*
X145983581Y-73790500D01*
X145983576Y-73790500D01*
X145855269Y-73824881D01*
X145740228Y-73891300D01*
X145740228Y-73891301D01*
X145646301Y-73985228D01*
X145646300Y-73985228D01*
X145594444Y-74075045D01*
X145570763Y-74093216D01*
X145541169Y-74089320D01*
X145526896Y-74075047D01*
X145483700Y-74000230D01*
X145483699Y-74000228D01*
X145389771Y-73906300D01*
X145274730Y-73839881D01*
X145146423Y-73805500D01*
X145146419Y-73805500D01*
X145013581Y-73805500D01*
X145013576Y-73805500D01*
X144885269Y-73839881D01*
X144770228Y-73906300D01*
X144770228Y-73906301D01*
X144676301Y-74000228D01*
X144676300Y-74000228D01*
X144609881Y-74115269D01*
X144575500Y-74243576D01*
X141684500Y-74243576D01*
X141684500Y-74143581D01*
X141650119Y-74015270D01*
X141583700Y-73900230D01*
X141583699Y-73900228D01*
X141489771Y-73806300D01*
X141374730Y-73739881D01*
X141246423Y-73705500D01*
X141246419Y-73705500D01*
X141113581Y-73705500D01*
X141113576Y-73705500D01*
X140985269Y-73739881D01*
X140870228Y-73806300D01*
X140870228Y-73806301D01*
X140776301Y-73900228D01*
X140776300Y-73900228D01*
X140709881Y-74015269D01*
X140675500Y-74143576D01*
X136340001Y-74143576D01*
X136352732Y-74121525D01*
X136352733Y-74121524D01*
X136356419Y-74115136D01*
X136360119Y-74108730D01*
X136394500Y-73980419D01*
X136394500Y-73847581D01*
X136392407Y-73839771D01*
X136372185Y-73764301D01*
X136360119Y-73719270D01*
X136293700Y-73604230D01*
X136293699Y-73604228D01*
X136199771Y-73510300D01*
X136172924Y-73494800D01*
X136118843Y-73463576D01*
X137975500Y-73463576D01*
X137975500Y-73596423D01*
X138009881Y-73724730D01*
X138076300Y-73839771D01*
X138170228Y-73933699D01*
X138170230Y-73933700D01*
X138285270Y-74000119D01*
X138372903Y-74023600D01*
X138413576Y-74034499D01*
X138413579Y-74034499D01*
X138413581Y-74034500D01*
X138413582Y-74034500D01*
X138546418Y-74034500D01*
X138546419Y-74034500D01*
X138674730Y-74000119D01*
X138789770Y-73933700D01*
X138789771Y-73933699D01*
X138789772Y-73933699D01*
X138883699Y-73839772D01*
X138883699Y-73839771D01*
X138892296Y-73824881D01*
X138950119Y-73724730D01*
X138984500Y-73596419D01*
X138984500Y-73463581D01*
X138982128Y-73454730D01*
X138970009Y-73409500D01*
X138950119Y-73335270D01*
X138883700Y-73220230D01*
X138883699Y-73220228D01*
X138857047Y-73193576D01*
X154245500Y-73193576D01*
X154245500Y-73326423D01*
X154279881Y-73454730D01*
X154346300Y-73569771D01*
X154440228Y-73663699D01*
X154440230Y-73663700D01*
X154555270Y-73730119D01*
X154642903Y-73753600D01*
X154683576Y-73764499D01*
X154683579Y-73764499D01*
X154683581Y-73764500D01*
X154683582Y-73764500D01*
X154816418Y-73764500D01*
X154816419Y-73764500D01*
X154817166Y-73764300D01*
X154825018Y-73762195D01*
X154944730Y-73730119D01*
X155059770Y-73663700D01*
X155059771Y-73663699D01*
X155059772Y-73663699D01*
X155153699Y-73569772D01*
X155153699Y-73569771D01*
X155161234Y-73556720D01*
X155220119Y-73454730D01*
X155254500Y-73326419D01*
X155254500Y-73193581D01*
X155220119Y-73065270D01*
X155153700Y-72950230D01*
X155153699Y-72950228D01*
X155059771Y-72856300D01*
X154944730Y-72789881D01*
X154816423Y-72755500D01*
X154816419Y-72755500D01*
X154683581Y-72755500D01*
X154683576Y-72755500D01*
X154555269Y-72789881D01*
X154440228Y-72856300D01*
X154440228Y-72856301D01*
X154346301Y-72950228D01*
X154346300Y-72950228D01*
X154279881Y-73065269D01*
X154245500Y-73193576D01*
X138857047Y-73193576D01*
X138789771Y-73126300D01*
X138674730Y-73059881D01*
X138546423Y-73025500D01*
X138546419Y-73025500D01*
X138413581Y-73025500D01*
X138413576Y-73025500D01*
X138285269Y-73059881D01*
X138170228Y-73126300D01*
X138170228Y-73126301D01*
X138076301Y-73220228D01*
X138076300Y-73220228D01*
X138009881Y-73335269D01*
X137975500Y-73463576D01*
X136118843Y-73463576D01*
X136084730Y-73443881D01*
X135956423Y-73409500D01*
X135956419Y-73409500D01*
X135823581Y-73409500D01*
X135823576Y-73409500D01*
X135695269Y-73443881D01*
X135580228Y-73510300D01*
X135580228Y-73510301D01*
X135486301Y-73604228D01*
X135486300Y-73604228D01*
X135419881Y-73719269D01*
X135385500Y-73847576D01*
X125361047Y-73847576D01*
X125277771Y-73764300D01*
X125162730Y-73697881D01*
X125034423Y-73663500D01*
X125034419Y-73663500D01*
X124901581Y-73663500D01*
X124901576Y-73663500D01*
X124773269Y-73697881D01*
X124658228Y-73764300D01*
X124658228Y-73764301D01*
X124564301Y-73858228D01*
X124564300Y-73858228D01*
X124497881Y-73973269D01*
X124463500Y-74101576D01*
X120025900Y-74101576D01*
X120025900Y-71000990D01*
X120025951Y-70999027D01*
X120034007Y-70845311D01*
X120245500Y-70845311D01*
X120245500Y-71154689D01*
X120276192Y-71427083D01*
X120280141Y-71462132D01*
X120280141Y-71462134D01*
X120348981Y-71763740D01*
X120348983Y-71763749D01*
X120451162Y-72055758D01*
X120451163Y-72055761D01*
X120485140Y-72126314D01*
X120585399Y-72334503D01*
X120585401Y-72334507D01*
X120585402Y-72334508D01*
X120749998Y-72596463D01*
X120750001Y-72596468D01*
X120942886Y-72838337D01*
X121161662Y-73057113D01*
X121403531Y-73249998D01*
X121403536Y-73250001D01*
X121525162Y-73326423D01*
X121665497Y-73414601D01*
X121944238Y-73548836D01*
X121944241Y-73548837D01*
X122236250Y-73651016D01*
X122236259Y-73651018D01*
X122537866Y-73719858D01*
X122537870Y-73719858D01*
X122537877Y-73719860D01*
X122845311Y-73754500D01*
X122845316Y-73754500D01*
X123154684Y-73754500D01*
X123154689Y-73754500D01*
X123462123Y-73719860D01*
X123462132Y-73719858D01*
X123462134Y-73719858D01*
X123709053Y-73663500D01*
X123763745Y-73651017D01*
X123763745Y-73651016D01*
X123763749Y-73651016D01*
X123995930Y-73569772D01*
X124055762Y-73548836D01*
X124334503Y-73414601D01*
X124596462Y-73250002D01*
X124596464Y-73250000D01*
X124596468Y-73249998D01*
X124838337Y-73057113D01*
X124838339Y-73057110D01*
X124838344Y-73057107D01*
X125057107Y-72838344D01*
X125057113Y-72838337D01*
X125249998Y-72596468D01*
X125250001Y-72596463D01*
X125250002Y-72596462D01*
X125414601Y-72334503D01*
X125548836Y-72055762D01*
X125603420Y-71899770D01*
X125651016Y-71763749D01*
X125651018Y-71763740D01*
X125705834Y-71523576D01*
X150095500Y-71523576D01*
X150095500Y-71656423D01*
X150129881Y-71784730D01*
X150196300Y-71899771D01*
X150290228Y-71993699D01*
X150290230Y-71993700D01*
X150405270Y-72060119D01*
X150492903Y-72083600D01*
X150533576Y-72094499D01*
X150533579Y-72094499D01*
X150533581Y-72094500D01*
X150533582Y-72094500D01*
X150666418Y-72094500D01*
X150666419Y-72094500D01*
X150794730Y-72060119D01*
X150909770Y-71993700D01*
X150909771Y-71993699D01*
X150909772Y-71993699D01*
X151003699Y-71899772D01*
X151003699Y-71899771D01*
X151003700Y-71899770D01*
X151070119Y-71784730D01*
X151104500Y-71656419D01*
X151104500Y-71523581D01*
X151097333Y-71496835D01*
X151088455Y-71463700D01*
X151070119Y-71395270D01*
X151003700Y-71280230D01*
X151003699Y-71280228D01*
X150909771Y-71186300D01*
X150794730Y-71119881D01*
X150666423Y-71085500D01*
X150666419Y-71085500D01*
X150533581Y-71085500D01*
X150533576Y-71085500D01*
X150405269Y-71119881D01*
X150290228Y-71186300D01*
X150290228Y-71186301D01*
X150196301Y-71280228D01*
X150196300Y-71280228D01*
X150129881Y-71395269D01*
X150095500Y-71523576D01*
X125705834Y-71523576D01*
X125708397Y-71512347D01*
X125708397Y-71512346D01*
X125719858Y-71462131D01*
X125719860Y-71462123D01*
X125754500Y-71154689D01*
X125754500Y-70993576D01*
X151045500Y-70993576D01*
X151045500Y-71126423D01*
X151079881Y-71254730D01*
X151146300Y-71369771D01*
X151240228Y-71463699D01*
X151240230Y-71463700D01*
X151355270Y-71530119D01*
X151442903Y-71553600D01*
X151483576Y-71564499D01*
X151483579Y-71564499D01*
X151483581Y-71564500D01*
X151483582Y-71564500D01*
X151616418Y-71564500D01*
X151616419Y-71564500D01*
X151619868Y-71563576D01*
X151625018Y-71562195D01*
X151650415Y-71555390D01*
X151999774Y-71555390D01*
X151999774Y-71688237D01*
X152034155Y-71816544D01*
X152100574Y-71931585D01*
X152194502Y-72025513D01*
X152194504Y-72025514D01*
X152309544Y-72091933D01*
X152397177Y-72115414D01*
X152437850Y-72126313D01*
X152437853Y-72126313D01*
X152437855Y-72126314D01*
X152437856Y-72126314D01*
X152570692Y-72126314D01*
X152570693Y-72126314D01*
X152699004Y-72091933D01*
X152814044Y-72025514D01*
X152814045Y-72025513D01*
X152814046Y-72025513D01*
X152907973Y-71931586D01*
X152907973Y-71931585D01*
X152907974Y-71931584D01*
X152974393Y-71816544D01*
X152988369Y-71764381D01*
X153006540Y-71740702D01*
X153036134Y-71736806D01*
X153059815Y-71754977D01*
X153063711Y-71764383D01*
X153079881Y-71824730D01*
X153146300Y-71939771D01*
X153240228Y-72033699D01*
X153240230Y-72033700D01*
X153355270Y-72100119D01*
X153442903Y-72123600D01*
X153483576Y-72134499D01*
X153483579Y-72134499D01*
X153483581Y-72134500D01*
X153483582Y-72134500D01*
X153616418Y-72134500D01*
X153616419Y-72134500D01*
X153744730Y-72100119D01*
X153859770Y-72033700D01*
X153859771Y-72033699D01*
X153859772Y-72033699D01*
X153953699Y-71939772D01*
X153953699Y-71939771D01*
X153958425Y-71931586D01*
X154020119Y-71824730D01*
X154054500Y-71696419D01*
X154054500Y-71563581D01*
X154020119Y-71435270D01*
X153953700Y-71320230D01*
X153953699Y-71320228D01*
X153859771Y-71226300D01*
X153744730Y-71159881D01*
X153616423Y-71125500D01*
X153616419Y-71125500D01*
X153483581Y-71125500D01*
X153483576Y-71125500D01*
X153355269Y-71159881D01*
X153240228Y-71226300D01*
X153240228Y-71226301D01*
X153146301Y-71320228D01*
X153146300Y-71320228D01*
X153079881Y-71435268D01*
X153065904Y-71487431D01*
X153047732Y-71511111D01*
X153018138Y-71515007D01*
X152994458Y-71496835D01*
X152990564Y-71487435D01*
X152974393Y-71427084D01*
X152907974Y-71312044D01*
X152907973Y-71312042D01*
X152814045Y-71218114D01*
X152699004Y-71151695D01*
X152570697Y-71117314D01*
X152570693Y-71117314D01*
X152437855Y-71117314D01*
X152437850Y-71117314D01*
X152309543Y-71151695D01*
X152194502Y-71218114D01*
X152194502Y-71218115D01*
X152100575Y-71312042D01*
X152100574Y-71312042D01*
X152034155Y-71427083D01*
X151999774Y-71555390D01*
X151650415Y-71555390D01*
X151744730Y-71530119D01*
X151859770Y-71463700D01*
X151859771Y-71463699D01*
X151859772Y-71463699D01*
X151953699Y-71369772D01*
X151953699Y-71369771D01*
X151953700Y-71369770D01*
X152020119Y-71254730D01*
X152054500Y-71126419D01*
X152054500Y-70993581D01*
X152053345Y-70989272D01*
X152020119Y-70865271D01*
X152020119Y-70865270D01*
X152008596Y-70845311D01*
X156245500Y-70845311D01*
X156245500Y-71154689D01*
X156276192Y-71427083D01*
X156280141Y-71462132D01*
X156280141Y-71462134D01*
X156348981Y-71763740D01*
X156348983Y-71763749D01*
X156451162Y-72055758D01*
X156451163Y-72055761D01*
X156485140Y-72126314D01*
X156585399Y-72334503D01*
X156585401Y-72334507D01*
X156585402Y-72334508D01*
X156749998Y-72596463D01*
X156750001Y-72596468D01*
X156942886Y-72838337D01*
X157161662Y-73057113D01*
X157403531Y-73249998D01*
X157403536Y-73250001D01*
X157525162Y-73326423D01*
X157665497Y-73414601D01*
X157944238Y-73548836D01*
X157944241Y-73548837D01*
X158236250Y-73651016D01*
X158236259Y-73651018D01*
X158537866Y-73719858D01*
X158537870Y-73719858D01*
X158537877Y-73719860D01*
X158845311Y-73754500D01*
X158845316Y-73754500D01*
X159154684Y-73754500D01*
X159154689Y-73754500D01*
X159462123Y-73719860D01*
X159462132Y-73719858D01*
X159462134Y-73719858D01*
X159709053Y-73663500D01*
X159763745Y-73651017D01*
X159763745Y-73651016D01*
X159763749Y-73651016D01*
X159995930Y-73569772D01*
X160055762Y-73548836D01*
X160334503Y-73414601D01*
X160596462Y-73250002D01*
X160596464Y-73250000D01*
X160596468Y-73249998D01*
X160838337Y-73057113D01*
X160838339Y-73057110D01*
X160838344Y-73057107D01*
X161057107Y-72838344D01*
X161057113Y-72838337D01*
X161249998Y-72596468D01*
X161250001Y-72596463D01*
X161250002Y-72596462D01*
X161414601Y-72334503D01*
X161548836Y-72055762D01*
X161603420Y-71899770D01*
X161651016Y-71763749D01*
X161651018Y-71763740D01*
X161719858Y-71462134D01*
X161719858Y-71462132D01*
X161719858Y-71462131D01*
X161719860Y-71462123D01*
X161754500Y-71154689D01*
X161754500Y-70845311D01*
X161719860Y-70537877D01*
X161719858Y-70537867D01*
X161719858Y-70537865D01*
X161651018Y-70236259D01*
X161651016Y-70236250D01*
X161548837Y-69944241D01*
X161548836Y-69944238D01*
X161534335Y-69914126D01*
X161414601Y-69665497D01*
X161250002Y-69403538D01*
X161250001Y-69403536D01*
X161249998Y-69403531D01*
X161057113Y-69161662D01*
X160838337Y-68942886D01*
X160596468Y-68750001D01*
X160596463Y-68749998D01*
X160334508Y-68585402D01*
X160334507Y-68585401D01*
X160334503Y-68585399D01*
X160185885Y-68513828D01*
X160055761Y-68451163D01*
X160055758Y-68451162D01*
X159763749Y-68348983D01*
X159763740Y-68348981D01*
X159462133Y-68280141D01*
X159405667Y-68273778D01*
X159154689Y-68245500D01*
X158845311Y-68245500D01*
X158594332Y-68273778D01*
X158537867Y-68280141D01*
X158537865Y-68280141D01*
X158236259Y-68348981D01*
X158236250Y-68348983D01*
X157944241Y-68451162D01*
X157944238Y-68451163D01*
X157665491Y-68585402D01*
X157403536Y-68749998D01*
X157403531Y-68750001D01*
X157161662Y-68942886D01*
X156942886Y-69161662D01*
X156750001Y-69403531D01*
X156749998Y-69403536D01*
X156585402Y-69665491D01*
X156451163Y-69944238D01*
X156451162Y-69944241D01*
X156348983Y-70236250D01*
X156348981Y-70236259D01*
X156280141Y-70537865D01*
X156280141Y-70537867D01*
X156280140Y-70537877D01*
X156245500Y-70845311D01*
X152008596Y-70845311D01*
X151953700Y-70750230D01*
X151953699Y-70750228D01*
X151859771Y-70656300D01*
X151744730Y-70589881D01*
X151616423Y-70555500D01*
X151616419Y-70555500D01*
X151483581Y-70555500D01*
X151483576Y-70555500D01*
X151355269Y-70589881D01*
X151240228Y-70656300D01*
X151240228Y-70656301D01*
X151146301Y-70750228D01*
X151146300Y-70750228D01*
X151079881Y-70865269D01*
X151045500Y-70993576D01*
X125754500Y-70993576D01*
X125754500Y-70845311D01*
X125719860Y-70537877D01*
X125719858Y-70537867D01*
X125719858Y-70537865D01*
X125651018Y-70236259D01*
X125651016Y-70236250D01*
X125548837Y-69944241D01*
X125548836Y-69944238D01*
X125534335Y-69914126D01*
X125414601Y-69665497D01*
X125250002Y-69403538D01*
X125250001Y-69403536D01*
X125249998Y-69403531D01*
X125057113Y-69161662D01*
X124838337Y-68942886D01*
X124596468Y-68750001D01*
X124596463Y-68749998D01*
X124334508Y-68585402D01*
X124334507Y-68585401D01*
X124334503Y-68585399D01*
X124185885Y-68513828D01*
X124055761Y-68451163D01*
X124055758Y-68451162D01*
X123763749Y-68348983D01*
X123763740Y-68348981D01*
X123462133Y-68280141D01*
X123405667Y-68273778D01*
X123154689Y-68245500D01*
X122845311Y-68245500D01*
X122594332Y-68273778D01*
X122537867Y-68280141D01*
X122537865Y-68280141D01*
X122236259Y-68348981D01*
X122236250Y-68348983D01*
X121944241Y-68451162D01*
X121944238Y-68451163D01*
X121665491Y-68585402D01*
X121403536Y-68749998D01*
X121403531Y-68750001D01*
X121161662Y-68942886D01*
X120942886Y-69161662D01*
X120750001Y-69403531D01*
X120749998Y-69403536D01*
X120585402Y-69665491D01*
X120451163Y-69944238D01*
X120451162Y-69944241D01*
X120348983Y-70236250D01*
X120348981Y-70236259D01*
X120280141Y-70537865D01*
X120280141Y-70537867D01*
X120280140Y-70537877D01*
X120245500Y-70845311D01*
X120034007Y-70845311D01*
X120042086Y-70691156D01*
X120042513Y-70687100D01*
X120047391Y-70656301D01*
X120090574Y-70383653D01*
X120091418Y-70379686D01*
X120170937Y-70082919D01*
X120172191Y-70079057D01*
X120282295Y-69792225D01*
X120283954Y-69788501D01*
X120367576Y-69624385D01*
X120423432Y-69514761D01*
X120425462Y-69511246D01*
X120592792Y-69253578D01*
X120595178Y-69250292D01*
X120788541Y-69011510D01*
X120791254Y-69008498D01*
X121008498Y-68791254D01*
X121011510Y-68788541D01*
X121250292Y-68595178D01*
X121253583Y-68592789D01*
X121511246Y-68425462D01*
X121514761Y-68423432D01*
X121788506Y-68283951D01*
X121792225Y-68282295D01*
X122079057Y-68172191D01*
X122082919Y-68170937D01*
X122379686Y-68091418D01*
X122383653Y-68090574D01*
X122687104Y-68042512D01*
X122691156Y-68042086D01*
X122998989Y-68025954D01*
X123001027Y-68025901D01*
X123008415Y-68025901D01*
X123008415Y-68025900D01*
X123016172Y-68025900D01*
X158991585Y-68025900D01*
X158998970Y-68025900D01*
X159001011Y-68025953D01*
G37*
%TD.AperFunction*%
%TD*%
%TA.AperFunction,Conductor*%
%TO.N,GND1*%
G36*
X149650540Y-92264566D02*
G01*
X149650922Y-92263646D01*
X149657914Y-92266542D01*
X149658186Y-92266615D01*
X149658432Y-92266757D01*
X149786743Y-92301138D01*
X149786746Y-92301138D01*
X149919578Y-92301138D01*
X149919581Y-92301138D01*
X150047892Y-92266757D01*
X150048138Y-92266615D01*
X150048409Y-92266542D01*
X150055402Y-92263646D01*
X150055783Y-92264566D01*
X150110141Y-92250000D01*
X152025168Y-92250000D01*
X152092207Y-92269685D01*
X152112849Y-92286319D01*
X152120230Y-92293700D01*
X152235270Y-92360119D01*
X152363581Y-92394500D01*
X152363584Y-92394500D01*
X152496416Y-92394500D01*
X152496419Y-92394500D01*
X152624730Y-92360119D01*
X152739770Y-92293700D01*
X152747151Y-92286319D01*
X152808474Y-92252834D01*
X152834832Y-92250000D01*
X169850100Y-92250000D01*
X169917139Y-92269685D01*
X169962894Y-92322489D01*
X169974100Y-92374000D01*
X169974100Y-98626000D01*
X169954415Y-98693039D01*
X169901611Y-98738794D01*
X169850100Y-98750000D01*
X132936947Y-98750000D01*
X132869908Y-98730315D01*
X132824153Y-98677511D01*
X132814209Y-98608353D01*
X132843234Y-98544797D01*
X132874946Y-98518613D01*
X132928471Y-98487711D01*
X133031711Y-98384471D01*
X133104712Y-98258029D01*
X133142500Y-98117001D01*
X133142500Y-97970999D01*
X133104712Y-97829971D01*
X133031711Y-97703529D01*
X133015363Y-97687181D01*
X132981878Y-97625858D01*
X132986862Y-97556166D01*
X133015363Y-97511819D01*
X133031711Y-97495471D01*
X133104712Y-97369029D01*
X133142500Y-97228001D01*
X133142500Y-97081999D01*
X134827500Y-97081999D01*
X134827500Y-97228001D01*
X134861530Y-97355001D01*
X134865288Y-97369028D01*
X134865288Y-97369029D01*
X134925893Y-97474001D01*
X134942365Y-97541901D01*
X134925893Y-97597999D01*
X134865288Y-97702970D01*
X134865288Y-97702971D01*
X134827500Y-97843999D01*
X134827500Y-97990001D01*
X134861530Y-98117001D01*
X134865288Y-98131028D01*
X134865289Y-98131031D01*
X134938286Y-98257467D01*
X134938288Y-98257470D01*
X134938289Y-98257471D01*
X135041529Y-98360711D01*
X135041530Y-98360712D01*
X135041532Y-98360713D01*
X135082676Y-98384467D01*
X135167971Y-98433712D01*
X135308999Y-98471500D01*
X135309001Y-98471500D01*
X135454999Y-98471500D01*
X135455001Y-98471500D01*
X135596029Y-98433712D01*
X135701000Y-98373106D01*
X135768900Y-98356634D01*
X135824999Y-98373106D01*
X135929971Y-98433712D01*
X136070999Y-98471500D01*
X136071001Y-98471500D01*
X136216999Y-98471500D01*
X136217001Y-98471500D01*
X136358029Y-98433712D01*
X136463000Y-98373106D01*
X136530900Y-98356634D01*
X136586999Y-98373106D01*
X136691971Y-98433712D01*
X136832999Y-98471500D01*
X136833001Y-98471500D01*
X136978999Y-98471500D01*
X136979001Y-98471500D01*
X137120029Y-98433712D01*
X137246471Y-98360711D01*
X137262819Y-98344363D01*
X137324142Y-98310878D01*
X137393834Y-98315862D01*
X137438181Y-98344363D01*
X137454529Y-98360711D01*
X137454530Y-98360712D01*
X137454532Y-98360713D01*
X137495676Y-98384467D01*
X137580971Y-98433712D01*
X137721999Y-98471500D01*
X137722001Y-98471500D01*
X137867999Y-98471500D01*
X137868001Y-98471500D01*
X138009029Y-98433712D01*
X138135471Y-98360711D01*
X138238711Y-98257471D01*
X138311712Y-98131029D01*
X138349500Y-97990001D01*
X138349500Y-97843999D01*
X138311712Y-97702971D01*
X138251106Y-97597999D01*
X138234634Y-97530100D01*
X138251107Y-97474000D01*
X138311712Y-97369029D01*
X138349500Y-97228001D01*
X138349500Y-97208999D01*
X152734500Y-97208999D01*
X152734500Y-97355001D01*
X152772139Y-97495471D01*
X152772288Y-97496028D01*
X152772290Y-97496033D01*
X152796231Y-97537502D01*
X152812702Y-97605403D01*
X152796231Y-97661498D01*
X152772290Y-97702966D01*
X152772288Y-97702971D01*
X152734500Y-97843999D01*
X152734500Y-97990001D01*
X152768530Y-98117001D01*
X152772288Y-98131028D01*
X152772289Y-98131031D01*
X152845286Y-98257467D01*
X152845288Y-98257470D01*
X152845289Y-98257471D01*
X152948529Y-98360711D01*
X152948530Y-98360712D01*
X152948532Y-98360713D01*
X152989676Y-98384467D01*
X153074971Y-98433712D01*
X153215999Y-98471500D01*
X153216001Y-98471500D01*
X153361999Y-98471500D01*
X153362001Y-98471500D01*
X153503029Y-98433712D01*
X153608000Y-98373106D01*
X153675900Y-98356634D01*
X153731999Y-98373106D01*
X153836971Y-98433712D01*
X153977999Y-98471500D01*
X153978001Y-98471500D01*
X154123999Y-98471500D01*
X154124001Y-98471500D01*
X154265029Y-98433712D01*
X154370000Y-98373106D01*
X154437900Y-98356634D01*
X154493999Y-98373106D01*
X154598971Y-98433712D01*
X154739999Y-98471500D01*
X154740001Y-98471500D01*
X154885999Y-98471500D01*
X154886001Y-98471500D01*
X155027029Y-98433712D01*
X155132000Y-98373106D01*
X155199900Y-98356634D01*
X155255999Y-98373106D01*
X155360971Y-98433712D01*
X155501999Y-98471500D01*
X155502001Y-98471500D01*
X155647999Y-98471500D01*
X155648001Y-98471500D01*
X155789029Y-98433712D01*
X155915471Y-98360711D01*
X156018711Y-98257471D01*
X156091712Y-98131029D01*
X156129500Y-97990001D01*
X156129500Y-97843999D01*
X156091712Y-97702971D01*
X156067768Y-97661498D01*
X156051295Y-97593601D01*
X156067769Y-97537499D01*
X156091712Y-97496029D01*
X156129500Y-97355001D01*
X156129500Y-97208999D01*
X156091712Y-97067971D01*
X156018711Y-96941529D01*
X155915471Y-96838289D01*
X155915470Y-96838288D01*
X155915467Y-96838286D01*
X155789031Y-96765289D01*
X155789030Y-96765288D01*
X155789029Y-96765288D01*
X155648001Y-96727500D01*
X155501999Y-96727500D01*
X155360971Y-96765288D01*
X155360970Y-96765288D01*
X155255999Y-96825893D01*
X155188099Y-96842365D01*
X155132001Y-96825893D01*
X155027029Y-96765288D01*
X154992880Y-96756138D01*
X154886001Y-96727500D01*
X154739999Y-96727500D01*
X154598971Y-96765288D01*
X154598970Y-96765288D01*
X154493999Y-96825893D01*
X154426099Y-96842365D01*
X154370001Y-96825893D01*
X154265029Y-96765288D01*
X154230880Y-96756138D01*
X154124001Y-96727500D01*
X153977999Y-96727500D01*
X153836971Y-96765288D01*
X153836970Y-96765288D01*
X153731999Y-96825893D01*
X153664099Y-96842365D01*
X153608001Y-96825893D01*
X153503029Y-96765288D01*
X153468880Y-96756138D01*
X153362001Y-96727500D01*
X153215999Y-96727500D01*
X153074971Y-96765288D01*
X153074968Y-96765289D01*
X152948532Y-96838286D01*
X152948527Y-96838290D01*
X152845290Y-96941527D01*
X152845286Y-96941532D01*
X152772289Y-97067968D01*
X152772288Y-97067971D01*
X152734500Y-97208999D01*
X138349500Y-97208999D01*
X138349500Y-97081999D01*
X138311712Y-96940971D01*
X138254782Y-96842365D01*
X138238713Y-96814532D01*
X138238709Y-96814527D01*
X138135472Y-96711290D01*
X138135467Y-96711286D01*
X138009031Y-96638289D01*
X138009030Y-96638288D01*
X138009029Y-96638288D01*
X137868001Y-96600500D01*
X137721999Y-96600500D01*
X137580971Y-96638288D01*
X137580968Y-96638289D01*
X137454532Y-96711286D01*
X137454527Y-96711290D01*
X137438181Y-96727637D01*
X137376858Y-96761122D01*
X137307166Y-96756138D01*
X137262819Y-96727637D01*
X137246472Y-96711290D01*
X137246467Y-96711286D01*
X137120031Y-96638289D01*
X137120030Y-96638288D01*
X137120029Y-96638288D01*
X136979001Y-96600500D01*
X136832999Y-96600500D01*
X136691971Y-96638288D01*
X136691970Y-96638288D01*
X136586999Y-96698893D01*
X136519099Y-96715365D01*
X136463001Y-96698893D01*
X136358029Y-96638288D01*
X136217001Y-96600500D01*
X136070999Y-96600500D01*
X135929971Y-96638288D01*
X135929970Y-96638288D01*
X135824999Y-96698893D01*
X135757099Y-96715365D01*
X135701001Y-96698893D01*
X135596029Y-96638288D01*
X135455001Y-96600500D01*
X135308999Y-96600500D01*
X135167971Y-96638288D01*
X135167968Y-96638289D01*
X135041532Y-96711286D01*
X135041527Y-96711290D01*
X134938290Y-96814527D01*
X134938286Y-96814532D01*
X134865289Y-96940968D01*
X134865288Y-96940971D01*
X134827500Y-97081999D01*
X133142500Y-97081999D01*
X133104712Y-96940971D01*
X133047782Y-96842365D01*
X133031713Y-96814532D01*
X133031709Y-96814527D01*
X132928472Y-96711290D01*
X132928467Y-96711286D01*
X132802031Y-96638289D01*
X132802030Y-96638288D01*
X132802029Y-96638288D01*
X132661001Y-96600500D01*
X132514999Y-96600500D01*
X132373971Y-96638288D01*
X132373970Y-96638288D01*
X132268999Y-96698893D01*
X132201099Y-96715365D01*
X132145001Y-96698893D01*
X132040029Y-96638288D01*
X131899001Y-96600500D01*
X131752999Y-96600500D01*
X131611971Y-96638288D01*
X131611968Y-96638289D01*
X131485532Y-96711286D01*
X131485527Y-96711290D01*
X131382290Y-96814527D01*
X131382286Y-96814532D01*
X131309289Y-96940968D01*
X131309288Y-96940971D01*
X131271500Y-97081999D01*
X131271500Y-97228000D01*
X131301804Y-97341098D01*
X131300141Y-97410948D01*
X131260978Y-97468810D01*
X131196750Y-97496314D01*
X131182029Y-97497191D01*
X131165704Y-97497191D01*
X131137001Y-97489500D01*
X130990999Y-97489500D01*
X130962296Y-97497191D01*
X130945970Y-97497191D01*
X130927478Y-97491761D01*
X130908211Y-97491302D01*
X130894645Y-97482120D01*
X130878931Y-97477506D01*
X130866311Y-97462942D01*
X130850349Y-97452138D01*
X130843901Y-97437079D01*
X130833176Y-97424702D01*
X130830433Y-97405625D01*
X130822847Y-97387909D01*
X130824520Y-97364506D01*
X130823232Y-97355544D01*
X130825520Y-97350533D01*
X130826194Y-97341103D01*
X130856500Y-97228001D01*
X130856500Y-97081999D01*
X130818712Y-96940971D01*
X130761782Y-96842365D01*
X130745713Y-96814532D01*
X130745709Y-96814527D01*
X130642472Y-96711290D01*
X130642467Y-96711286D01*
X130516031Y-96638289D01*
X130516030Y-96638288D01*
X130516029Y-96638288D01*
X130375001Y-96600500D01*
X130228999Y-96600500D01*
X130087971Y-96638288D01*
X130087970Y-96638288D01*
X129982999Y-96698893D01*
X129915099Y-96715365D01*
X129859001Y-96698893D01*
X129754029Y-96638288D01*
X129613001Y-96600500D01*
X129466999Y-96600500D01*
X129325971Y-96638288D01*
X129325968Y-96638289D01*
X129199532Y-96711286D01*
X129199527Y-96711290D01*
X129096290Y-96814527D01*
X129096286Y-96814532D01*
X129023289Y-96940968D01*
X129023288Y-96940971D01*
X128985500Y-97081999D01*
X128985500Y-97228001D01*
X129019530Y-97355001D01*
X129023288Y-97369028D01*
X129023289Y-97369031D01*
X129096286Y-97495467D01*
X129096290Y-97495472D01*
X129112637Y-97511819D01*
X129146122Y-97573142D01*
X129141138Y-97642834D01*
X129112637Y-97687181D01*
X129096290Y-97703527D01*
X129096286Y-97703532D01*
X129023289Y-97829968D01*
X129023288Y-97829971D01*
X128985500Y-97970999D01*
X128985500Y-98117001D01*
X129023139Y-98257471D01*
X129023288Y-98258028D01*
X129023289Y-98258031D01*
X129096286Y-98384467D01*
X129096288Y-98384470D01*
X129096289Y-98384471D01*
X129199529Y-98487711D01*
X129253052Y-98518612D01*
X129301268Y-98569179D01*
X129314492Y-98637786D01*
X129288524Y-98702651D01*
X129231610Y-98743180D01*
X129191053Y-98750000D01*
X128124000Y-98750000D01*
X128056961Y-98730315D01*
X128011206Y-98677511D01*
X128000000Y-98626000D01*
X128000000Y-97250000D01*
X120149900Y-97250000D01*
X120082861Y-97230315D01*
X120037106Y-97177511D01*
X120025900Y-97126000D01*
X120025900Y-92374000D01*
X120045585Y-92306961D01*
X120098389Y-92261206D01*
X120149900Y-92250000D01*
X149596183Y-92250000D01*
X149650540Y-92264566D01*
G37*
%TD.AperFunction*%
%TD*%
%TA.AperFunction,Conductor*%
%TO.N,/DRV8323RSRGZR/PHASA*%
G36*
X133238577Y-99511423D02*
G01*
X133250000Y-99539000D01*
X133250000Y-109935100D01*
X133238577Y-109962677D01*
X133211000Y-109974100D01*
X123001030Y-109974100D01*
X122998989Y-109974047D01*
X122691160Y-109957914D01*
X122687100Y-109957487D01*
X122383666Y-109909428D01*
X122379673Y-109908579D01*
X122082929Y-109829066D01*
X122079047Y-109827805D01*
X121792231Y-109717707D01*
X121788501Y-109716046D01*
X121514770Y-109576573D01*
X121511235Y-109574532D01*
X121253582Y-109407210D01*
X121250280Y-109404811D01*
X121011526Y-109211472D01*
X121008492Y-109208740D01*
X120791259Y-108991507D01*
X120788527Y-108988473D01*
X120595186Y-108749717D01*
X120592789Y-108746417D01*
X120425467Y-108488764D01*
X120423426Y-108485229D01*
X120283953Y-108211498D01*
X120282292Y-108207768D01*
X120272690Y-108182754D01*
X120172192Y-107920947D01*
X120170933Y-107917070D01*
X120135340Y-107784235D01*
X120091418Y-107620317D01*
X120090573Y-107616342D01*
X120042511Y-107312897D01*
X120042085Y-107308839D01*
X120025953Y-107001011D01*
X120025900Y-106998970D01*
X120025900Y-106845311D01*
X120245500Y-106845311D01*
X120245500Y-107154689D01*
X120279434Y-107455863D01*
X120280141Y-107462132D01*
X120280141Y-107462134D01*
X120348981Y-107763740D01*
X120348983Y-107763749D01*
X120451162Y-108055758D01*
X120451163Y-108055761D01*
X120465665Y-108085874D01*
X120585399Y-108334503D01*
X120585401Y-108334507D01*
X120585402Y-108334508D01*
X120749998Y-108596463D01*
X120750001Y-108596468D01*
X120942886Y-108838337D01*
X121161662Y-109057113D01*
X121403531Y-109249998D01*
X121403536Y-109250001D01*
X121403538Y-109250002D01*
X121665497Y-109414601D01*
X121928415Y-109541216D01*
X121944238Y-109548836D01*
X121944241Y-109548837D01*
X122236250Y-109651016D01*
X122236259Y-109651018D01*
X122537866Y-109719858D01*
X122537870Y-109719858D01*
X122537877Y-109719860D01*
X122845311Y-109754500D01*
X122845316Y-109754500D01*
X123154684Y-109754500D01*
X123154689Y-109754500D01*
X123462123Y-109719860D01*
X123462132Y-109719858D01*
X123462134Y-109719858D01*
X123698404Y-109665930D01*
X123763745Y-109651017D01*
X123763745Y-109651016D01*
X123763749Y-109651016D01*
X123979143Y-109575646D01*
X124055762Y-109548836D01*
X124334503Y-109414601D01*
X124596462Y-109250002D01*
X124596464Y-109250000D01*
X124596468Y-109249998D01*
X124838337Y-109057113D01*
X124838339Y-109057110D01*
X124838344Y-109057107D01*
X125057107Y-108838344D01*
X125057113Y-108838337D01*
X125249998Y-108596468D01*
X125250001Y-108596463D01*
X125250002Y-108596462D01*
X125414601Y-108334503D01*
X125548836Y-108055762D01*
X125599926Y-107909753D01*
X125651016Y-107763749D01*
X125651018Y-107763740D01*
X125719858Y-107462134D01*
X125719858Y-107462132D01*
X125719858Y-107462131D01*
X125719860Y-107462123D01*
X125754500Y-107154689D01*
X125754500Y-106845311D01*
X125719860Y-106537877D01*
X125719858Y-106537867D01*
X125719858Y-106537865D01*
X125651018Y-106236259D01*
X125651016Y-106236250D01*
X125548837Y-105944241D01*
X125548836Y-105944238D01*
X125414601Y-105665497D01*
X125250002Y-105403538D01*
X125250001Y-105403536D01*
X125249998Y-105403531D01*
X125057113Y-105161662D01*
X124838337Y-104942886D01*
X124596468Y-104750001D01*
X124596463Y-104749998D01*
X124334508Y-104585402D01*
X124334507Y-104585401D01*
X124334503Y-104585399D01*
X124185885Y-104513828D01*
X124055761Y-104451163D01*
X124055758Y-104451162D01*
X123763749Y-104348983D01*
X123763740Y-104348981D01*
X123462133Y-104280141D01*
X123405667Y-104273778D01*
X123154689Y-104245500D01*
X122845311Y-104245500D01*
X122594332Y-104273778D01*
X122537867Y-104280141D01*
X122537865Y-104280141D01*
X122236259Y-104348981D01*
X122236250Y-104348983D01*
X121944241Y-104451162D01*
X121944238Y-104451163D01*
X121665491Y-104585402D01*
X121403536Y-104749998D01*
X121403531Y-104750001D01*
X121161662Y-104942886D01*
X120942886Y-105161662D01*
X120750001Y-105403531D01*
X120749998Y-105403536D01*
X120585402Y-105665491D01*
X120451163Y-105944238D01*
X120451162Y-105944241D01*
X120348983Y-106236250D01*
X120348981Y-106236259D01*
X120280141Y-106537865D01*
X120280141Y-106537867D01*
X120280140Y-106537877D01*
X120245500Y-106845311D01*
X120025900Y-106845311D01*
X120025900Y-102289000D01*
X120037323Y-102261423D01*
X120064900Y-102250000D01*
X128000000Y-102250000D01*
X128000000Y-99539000D01*
X128011423Y-99511423D01*
X128039000Y-99500000D01*
X133211000Y-99500000D01*
X133238577Y-99511423D01*
G37*
%TD.AperFunction*%
%TD*%
%TA.AperFunction,Conductor*%
%TO.N,+36V*%
G36*
X169917139Y-99519685D02*
G01*
X169962894Y-99572489D01*
X169974100Y-99624000D01*
X169974100Y-102687822D01*
X169954415Y-102754861D01*
X169901611Y-102800616D01*
X169850100Y-102811822D01*
X165008416Y-102811822D01*
X165008415Y-102811822D01*
X165000000Y-102811822D01*
X164999980Y-102811822D01*
X164970944Y-102811824D01*
X164970916Y-102811828D01*
X164832242Y-102811859D01*
X164832240Y-102811859D01*
X164832225Y-102811860D01*
X164498590Y-102847068D01*
X164498578Y-102847070D01*
X164170446Y-102917106D01*
X163851503Y-103021183D01*
X163851492Y-103021188D01*
X163545223Y-103158167D01*
X163545210Y-103158174D01*
X163255007Y-103326539D01*
X162984070Y-103524435D01*
X162984060Y-103524444D01*
X162735404Y-103749669D01*
X162735389Y-103749683D01*
X162511736Y-103999766D01*
X162391830Y-104166128D01*
X162315556Y-104271953D01*
X162149025Y-104563222D01*
X162149023Y-104563226D01*
X162149021Y-104563230D01*
X162013987Y-104870346D01*
X162013977Y-104870373D01*
X161911917Y-105189977D01*
X161843962Y-105518528D01*
X161843961Y-105518539D01*
X161810861Y-105852404D01*
X161810861Y-105852405D01*
X161811570Y-105964502D01*
X161792309Y-106031665D01*
X161739795Y-106077753D01*
X161670701Y-106088133D01*
X161606963Y-106059510D01*
X161570532Y-106006244D01*
X161548836Y-105944238D01*
X161414601Y-105665497D01*
X161250002Y-105403538D01*
X161057107Y-105161656D01*
X160838344Y-104942893D01*
X160596462Y-104749998D01*
X160334503Y-104585399D01*
X160334500Y-104585397D01*
X160055765Y-104451165D01*
X159763756Y-104348986D01*
X159763744Y-104348982D01*
X159462126Y-104280140D01*
X159462110Y-104280138D01*
X159154693Y-104245500D01*
X159154689Y-104245500D01*
X158845311Y-104245500D01*
X158845307Y-104245500D01*
X158537889Y-104280138D01*
X158537873Y-104280140D01*
X158236255Y-104348982D01*
X158236243Y-104348986D01*
X157944234Y-104451165D01*
X157665499Y-104585397D01*
X157403539Y-104749997D01*
X157161656Y-104942892D01*
X156942892Y-105161656D01*
X156749995Y-105403541D01*
X156728993Y-105436966D01*
X156676659Y-105483256D01*
X156607605Y-105493904D01*
X156543757Y-105465529D01*
X156505385Y-105407139D01*
X156500000Y-105370993D01*
X156500000Y-99624000D01*
X156519685Y-99556961D01*
X156572489Y-99511206D01*
X156624000Y-99500000D01*
X169850100Y-99500000D01*
X169917139Y-99519685D01*
G37*
%TD.AperFunction*%
%TD*%
%TA.AperFunction,Conductor*%
%TO.N,+36V*%
G36*
X149443039Y-99519685D02*
G01*
X149488794Y-99572489D01*
X149500000Y-99624000D01*
X149500000Y-103376000D01*
X149480315Y-103443039D01*
X149427511Y-103488794D01*
X149376000Y-103500000D01*
X139624000Y-103500000D01*
X139556961Y-103480315D01*
X139511206Y-103427511D01*
X139500000Y-103376000D01*
X139500000Y-99624000D01*
X139519685Y-99556961D01*
X139572489Y-99511206D01*
X139624000Y-99500000D01*
X149376000Y-99500000D01*
X149443039Y-99519685D01*
G37*
%TD.AperFunction*%
%TD*%
M02*
