%TF.GenerationSoftware,KiCad,Pcbnew,9.0.1*%
%TF.CreationDate,2025-05-07T17:15:19+08:00*%
%TF.ProjectId,CawDrive,43617744-7269-4766-952e-6b696361645f,rev?*%
%TF.SameCoordinates,Original*%
%TF.FileFunction,Legend,Top*%
%TF.FilePolarity,Positive*%
%FSLAX46Y46*%
G04 Gerber Fmt 4.6, Leading zero omitted, Abs format (unit mm)*
G04 Created by KiCad (PCBNEW 9.0.1) date 2025-05-07 17:15:19*
%MOMM*%
%LPD*%
G01*
G04 APERTURE LIST*
%ADD10C,0.120000*%
%ADD11C,0.100000*%
%ADD12C,0.254000*%
%ADD13C,0.127000*%
%ADD14C,0.010000*%
%ADD15C,0.152000*%
%ADD16C,0.150000*%
%ADD17C,0.300000*%
G04 APERTURE END LIST*
D10*
%TO.C,R17*%
X137669000Y-83733621D02*
X137669000Y-83398379D01*
X138429000Y-83733621D02*
X138429000Y-83398379D01*
%TO.C,C16*%
X126871000Y-78212733D02*
X126871000Y-78505267D01*
X127891000Y-78212733D02*
X127891000Y-78505267D01*
%TO.C,C13*%
X152007835Y-90699000D02*
X151776165Y-90699000D01*
X152007835Y-91419000D02*
X151776165Y-91419000D01*
D11*
%TO.C,D4*%
X140512000Y-75189000D02*
G75*
G02*
X140412000Y-75189000I-50000J0D01*
G01*
X140412000Y-75189000D02*
G75*
G02*
X140512000Y-75189000I50000J0D01*
G01*
D10*
%TO.C,TP4*%
X134304000Y-78613000D02*
G75*
G02*
X132904000Y-78613000I-700000J0D01*
G01*
X132904000Y-78613000D02*
G75*
G02*
X134304000Y-78613000I700000J0D01*
G01*
%TO.C,R1*%
X126786621Y-73407000D02*
X126451379Y-73407000D01*
X126786621Y-74167000D02*
X126451379Y-74167000D01*
%TO.C,C38*%
X158288748Y-101960000D02*
X159711252Y-101960000D01*
X158288748Y-103780000D02*
X159711252Y-103780000D01*
D12*
%TO.C,U6*%
X126800000Y-72898000D02*
X126800000Y-70979000D01*
X127019000Y-72898000D02*
X126981000Y-72898000D01*
X128019000Y-72898000D02*
X126800000Y-72898000D01*
X128019000Y-72898000D02*
X127981000Y-72898000D01*
X128231000Y-68647000D02*
X129769000Y-68647000D01*
X129019000Y-72898000D02*
X128981000Y-72898000D01*
X129980000Y-72947000D02*
X131200000Y-72947000D01*
X131200000Y-72947000D02*
X131200000Y-70978000D01*
D10*
X130310000Y-73787000D02*
X130056000Y-73406000D01*
X130564000Y-73406000D01*
X130310000Y-73787000D01*
G36*
X130310000Y-73787000D02*
G01*
X130056000Y-73406000D01*
X130564000Y-73406000D01*
X130310000Y-73787000D01*
G37*
%TO.C,R2*%
X162561000Y-80939621D02*
X162561000Y-80604379D01*
X163321000Y-80939621D02*
X163321000Y-80604379D01*
D13*
%TO.C,Q7*%
X121910000Y-102874000D02*
X121910000Y-97874000D01*
X127010000Y-102874000D02*
X127010000Y-97874000D01*
D10*
%TO.C,R26*%
X162688000Y-87670621D02*
X162688000Y-87335379D01*
X163448000Y-87670621D02*
X163448000Y-87335379D01*
%TO.C,C9*%
X157087835Y-73808000D02*
X156856165Y-73808000D01*
X157087835Y-74528000D02*
X156856165Y-74528000D01*
%TO.C,R9*%
X159979379Y-79249000D02*
X160314621Y-79249000D01*
X159979379Y-80009000D02*
X160314621Y-80009000D01*
%TO.C,R18*%
X129709000Y-96735737D02*
X129709000Y-95288263D01*
X132419000Y-96735737D02*
X132419000Y-95288263D01*
D13*
%TO.C,U2*%
X134595000Y-75197000D02*
X132595000Y-75197000D01*
X134595000Y-77457000D02*
X132595000Y-77457000D01*
D10*
%TO.C,R8*%
X164124621Y-93600000D02*
X163789379Y-93600000D01*
X164124621Y-94360000D02*
X163789379Y-94360000D01*
D12*
%TO.C,U5*%
X164800000Y-88480000D02*
X164800000Y-89700000D01*
X164800000Y-89700000D02*
X166769000Y-89700000D01*
X164849000Y-85300000D02*
X166768000Y-85300000D01*
X164849000Y-85519000D02*
X164849000Y-85481000D01*
X164849000Y-86519000D02*
X164849000Y-85300000D01*
X164849000Y-86519000D02*
X164849000Y-86481000D01*
X164849000Y-87519000D02*
X164849000Y-87481000D01*
X169100000Y-86731000D02*
X169100000Y-88269000D01*
D10*
X164341000Y-89064000D02*
X163960000Y-88810000D01*
X164341000Y-88556000D01*
X164341000Y-89064000D01*
G36*
X164341000Y-89064000D02*
G01*
X163960000Y-88810000D01*
X164341000Y-88556000D01*
X164341000Y-89064000D01*
G37*
%TO.C,C2*%
X156983165Y-85873000D02*
X157214835Y-85873000D01*
X156983165Y-86593000D02*
X157214835Y-86593000D01*
%TO.C,L1*%
X157072200Y-76475000D02*
X156871800Y-76475000D01*
X157072200Y-77195000D02*
X156871800Y-77195000D01*
%TO.C,TP2*%
X138876000Y-78613000D02*
G75*
G02*
X137476000Y-78613000I-700000J0D01*
G01*
X137476000Y-78613000D02*
G75*
G02*
X138876000Y-78613000I700000J0D01*
G01*
%TO.C,C22*%
X120349600Y-94818252D02*
X120349600Y-93395748D01*
X122169600Y-94818252D02*
X122169600Y-93395748D01*
%TO.C,C7*%
X130704000Y-76315835D02*
X130704000Y-76084165D01*
X131424000Y-76315835D02*
X131424000Y-76084165D01*
D13*
%TO.C,Q12*%
X150612000Y-99862000D02*
X150612000Y-104862000D01*
X155712000Y-99862000D02*
X155712000Y-104862000D01*
%TO.C,Q9*%
X139200000Y-104862000D02*
X139200000Y-99862000D01*
X144300000Y-104862000D02*
X144300000Y-99862000D01*
D10*
%TO.C,C23*%
X139552000Y-96741252D02*
X139552000Y-95318748D01*
X141372000Y-96741252D02*
X141372000Y-95318748D01*
%TO.C,C10*%
X163615835Y-101494000D02*
X163384165Y-101494000D01*
X163615835Y-102214000D02*
X163384165Y-102214000D01*
%TO.C,C19*%
X156856165Y-80031000D02*
X157087835Y-80031000D01*
X156856165Y-80751000D02*
X157087835Y-80751000D01*
D12*
%TO.C,U11*%
X132328750Y-72898000D02*
X132328750Y-70979000D01*
X132547750Y-72898000D02*
X132509750Y-72898000D01*
X133547750Y-72898000D02*
X132328750Y-72898000D01*
X133547750Y-72898000D02*
X133509750Y-72898000D01*
X133759750Y-68647000D02*
X135297750Y-68647000D01*
X134547750Y-72898000D02*
X134509750Y-72898000D01*
X135508750Y-72947000D02*
X136728750Y-72947000D01*
X136728750Y-72947000D02*
X136728750Y-70978000D01*
D10*
X135838750Y-73787000D02*
X135584750Y-73406000D01*
X136092750Y-73406000D01*
X135838750Y-73787000D01*
G36*
X135838750Y-73787000D02*
G01*
X135584750Y-73406000D01*
X136092750Y-73406000D01*
X135838750Y-73787000D01*
G37*
%TO.C,TP5*%
X132145000Y-78613000D02*
G75*
G02*
X130745000Y-78613000I-700000J0D01*
G01*
X130745000Y-78613000D02*
G75*
G02*
X132145000Y-78613000I700000J0D01*
G01*
%TO.C,C20*%
X125124800Y-94818252D02*
X125124800Y-93395748D01*
X126944800Y-94818252D02*
X126944800Y-93395748D01*
%TO.C,D3*%
X128217000Y-82820000D02*
X124207000Y-82820000D01*
X128217000Y-84820000D02*
X124207000Y-84820000D01*
X128217000Y-84820000D02*
X128217000Y-82820000D01*
D12*
%TO.C,CN3*%
X148915000Y-72724000D02*
X148915000Y-71155000D01*
X150109000Y-72724000D02*
X148915000Y-72724000D01*
X151071000Y-72724000D02*
X151109000Y-72724000D01*
X152071000Y-72724000D02*
X152109000Y-72724000D01*
X153071000Y-72724000D02*
X153109000Y-72724000D01*
X153859000Y-68424000D02*
X150321000Y-68424000D01*
X154071000Y-72724000D02*
X155265000Y-72724000D01*
X155265000Y-72724000D02*
X155265000Y-71155000D01*
X154747000Y-73424000D02*
G75*
G02*
X154203000Y-73424000I-272000J0D01*
G01*
X154203000Y-73424000D02*
G75*
G02*
X154747000Y-73424000I272000J0D01*
G01*
D10*
%TO.C,R23*%
X149057379Y-90679000D02*
X149392621Y-90679000D01*
X149057379Y-91439000D02*
X149392621Y-91439000D01*
D14*
%TO.C,REF\u002A\u002A*%
X154979460Y-96698030D02*
X155022711Y-96711245D01*
X155050558Y-96727941D01*
X155059629Y-96741145D01*
X155057132Y-96756797D01*
X155040931Y-96781385D01*
X155027232Y-96798800D01*
X154998992Y-96830283D01*
X154977775Y-96843529D01*
X154959688Y-96842664D01*
X154906035Y-96829010D01*
X154866630Y-96829630D01*
X154834632Y-96845104D01*
X154823890Y-96854161D01*
X154789505Y-96886027D01*
X154789505Y-97302179D01*
X154651188Y-97302179D01*
X154651188Y-96698614D01*
X154720347Y-96698614D01*
X154761869Y-96700256D01*
X154783291Y-96706087D01*
X154789502Y-96717461D01*
X154789505Y-96717798D01*
X154792439Y-96729713D01*
X154805704Y-96728159D01*
X154824084Y-96719563D01*
X154862046Y-96703568D01*
X154892872Y-96693945D01*
X154932536Y-96691478D01*
X154979460Y-96698030D01*
G36*
X154979460Y-96698030D02*
G01*
X155022711Y-96711245D01*
X155050558Y-96727941D01*
X155059629Y-96741145D01*
X155057132Y-96756797D01*
X155040931Y-96781385D01*
X155027232Y-96798800D01*
X154998992Y-96830283D01*
X154977775Y-96843529D01*
X154959688Y-96842664D01*
X154906035Y-96829010D01*
X154866630Y-96829630D01*
X154834632Y-96845104D01*
X154823890Y-96854161D01*
X154789505Y-96886027D01*
X154789505Y-97302179D01*
X154651188Y-97302179D01*
X154651188Y-96698614D01*
X154720347Y-96698614D01*
X154761869Y-96700256D01*
X154783291Y-96706087D01*
X154789502Y-96717461D01*
X154789505Y-96717798D01*
X154792439Y-96729713D01*
X154805704Y-96728159D01*
X154824084Y-96719563D01*
X154862046Y-96703568D01*
X154892872Y-96693945D01*
X154932536Y-96691478D01*
X154979460Y-96698030D01*
G37*
X154815255Y-97641486D02*
X154863595Y-97651015D01*
X154891114Y-97665125D01*
X154920064Y-97688568D01*
X154878876Y-97740571D01*
X154853482Y-97772064D01*
X154836238Y-97787428D01*
X154819102Y-97789776D01*
X154794027Y-97782217D01*
X154782257Y-97777941D01*
X154734270Y-97771631D01*
X154690324Y-97785156D01*
X154658060Y-97815710D01*
X154652819Y-97825452D01*
X154647112Y-97851258D01*
X154642706Y-97898817D01*
X154639811Y-97964758D01*
X154638631Y-98045710D01*
X154638614Y-98057226D01*
X154638614Y-98257822D01*
X154500297Y-98257822D01*
X154500297Y-97641683D01*
X154569456Y-97641683D01*
X154609333Y-97642725D01*
X154630107Y-97647358D01*
X154637789Y-97657849D01*
X154638614Y-97667745D01*
X154638614Y-97693806D01*
X154671745Y-97667745D01*
X154709735Y-97649965D01*
X154760770Y-97641174D01*
X154815255Y-97641486D01*
G36*
X154815255Y-97641486D02*
G01*
X154863595Y-97651015D01*
X154891114Y-97665125D01*
X154920064Y-97688568D01*
X154878876Y-97740571D01*
X154853482Y-97772064D01*
X154836238Y-97787428D01*
X154819102Y-97789776D01*
X154794027Y-97782217D01*
X154782257Y-97777941D01*
X154734270Y-97771631D01*
X154690324Y-97785156D01*
X154658060Y-97815710D01*
X154652819Y-97825452D01*
X154647112Y-97851258D01*
X154642706Y-97898817D01*
X154639811Y-97964758D01*
X154638631Y-98045710D01*
X154638614Y-98057226D01*
X154638614Y-98257822D01*
X154500297Y-98257822D01*
X154500297Y-97641683D01*
X154569456Y-97641683D01*
X154609333Y-97642725D01*
X154630107Y-97647358D01*
X154637789Y-97657849D01*
X154638614Y-97667745D01*
X154638614Y-97693806D01*
X154671745Y-97667745D01*
X154709735Y-97649965D01*
X154760770Y-97641174D01*
X154815255Y-97641486D01*
G37*
X152186644Y-97643020D02*
X152205461Y-97648660D01*
X152211527Y-97661053D01*
X152211782Y-97666647D01*
X152212871Y-97682230D01*
X152220368Y-97684676D01*
X152240619Y-97673993D01*
X152252649Y-97666694D01*
X152290600Y-97651063D01*
X152335928Y-97643334D01*
X152383456Y-97642740D01*
X152428005Y-97648513D01*
X152464398Y-97659884D01*
X152487457Y-97676088D01*
X152492004Y-97696355D01*
X152489709Y-97701843D01*
X152472980Y-97724626D01*
X152447037Y-97752647D01*
X152442345Y-97757177D01*
X152417617Y-97778005D01*
X152396282Y-97784735D01*
X152366445Y-97780038D01*
X152354492Y-97776917D01*
X152317295Y-97769421D01*
X152291141Y-97772792D01*
X152269054Y-97784681D01*
X152248822Y-97800635D01*
X152233921Y-97820700D01*
X152223566Y-97848702D01*
X152216971Y-97888467D01*
X152213351Y-97943823D01*
X152211922Y-98018594D01*
X152211782Y-98063740D01*
X152211782Y-98257822D01*
X152086040Y-98257822D01*
X152086040Y-97641683D01*
X152148911Y-97641683D01*
X152186644Y-97643020D01*
G36*
X152186644Y-97643020D02*
G01*
X152205461Y-97648660D01*
X152211527Y-97661053D01*
X152211782Y-97666647D01*
X152212871Y-97682230D01*
X152220368Y-97684676D01*
X152240619Y-97673993D01*
X152252649Y-97666694D01*
X152290600Y-97651063D01*
X152335928Y-97643334D01*
X152383456Y-97642740D01*
X152428005Y-97648513D01*
X152464398Y-97659884D01*
X152487457Y-97676088D01*
X152492004Y-97696355D01*
X152489709Y-97701843D01*
X152472980Y-97724626D01*
X152447037Y-97752647D01*
X152442345Y-97757177D01*
X152417617Y-97778005D01*
X152396282Y-97784735D01*
X152366445Y-97780038D01*
X152354492Y-97776917D01*
X152317295Y-97769421D01*
X152291141Y-97772792D01*
X152269054Y-97784681D01*
X152248822Y-97800635D01*
X152233921Y-97820700D01*
X152223566Y-97848702D01*
X152216971Y-97888467D01*
X152213351Y-97943823D01*
X152211922Y-98018594D01*
X152211782Y-98063740D01*
X152211782Y-98257822D01*
X152086040Y-98257822D01*
X152086040Y-97641683D01*
X152148911Y-97641683D01*
X152186644Y-97643020D01*
G37*
X154173367Y-96894342D02*
X154174555Y-96986563D01*
X154178897Y-97056610D01*
X154187558Y-97107381D01*
X154201704Y-97141772D01*
X154222500Y-97162679D01*
X154251110Y-97173000D01*
X154286535Y-97175636D01*
X154323636Y-97172682D01*
X154351818Y-97161889D01*
X154372243Y-97140360D01*
X154386079Y-97105199D01*
X154394491Y-97053510D01*
X154398643Y-96982394D01*
X154399703Y-96894342D01*
X154399703Y-96698614D01*
X154538020Y-96698614D01*
X154538020Y-97302179D01*
X154468862Y-97302179D01*
X154427170Y-97300489D01*
X154405701Y-97294556D01*
X154399703Y-97283293D01*
X154396091Y-97273261D01*
X154381714Y-97275383D01*
X154352736Y-97289580D01*
X154286319Y-97311480D01*
X154215875Y-97309928D01*
X154148377Y-97286147D01*
X154116233Y-97267362D01*
X154091715Y-97247022D01*
X154073804Y-97221573D01*
X154061479Y-97187458D01*
X154053723Y-97141121D01*
X154049516Y-97079007D01*
X154047840Y-96997561D01*
X154047624Y-96934578D01*
X154047624Y-96698614D01*
X154173367Y-96698614D01*
X154173367Y-96894342D01*
G36*
X154173367Y-96894342D02*
G01*
X154174555Y-96986563D01*
X154178897Y-97056610D01*
X154187558Y-97107381D01*
X154201704Y-97141772D01*
X154222500Y-97162679D01*
X154251110Y-97173000D01*
X154286535Y-97175636D01*
X154323636Y-97172682D01*
X154351818Y-97161889D01*
X154372243Y-97140360D01*
X154386079Y-97105199D01*
X154394491Y-97053510D01*
X154398643Y-96982394D01*
X154399703Y-96894342D01*
X154399703Y-96698614D01*
X154538020Y-96698614D01*
X154538020Y-97302179D01*
X154468862Y-97302179D01*
X154427170Y-97300489D01*
X154405701Y-97294556D01*
X154399703Y-97283293D01*
X154396091Y-97273261D01*
X154381714Y-97275383D01*
X154352736Y-97289580D01*
X154286319Y-97311480D01*
X154215875Y-97309928D01*
X154148377Y-97286147D01*
X154116233Y-97267362D01*
X154091715Y-97247022D01*
X154073804Y-97221573D01*
X154061479Y-97187458D01*
X154053723Y-97141121D01*
X154049516Y-97079007D01*
X154047840Y-96997561D01*
X154047624Y-96934578D01*
X154047624Y-96698614D01*
X154173367Y-96698614D01*
X154173367Y-96894342D01*
G37*
X152425988Y-96709002D02*
X152457283Y-96723950D01*
X152487591Y-96745541D01*
X152510682Y-96770391D01*
X152527500Y-96802087D01*
X152538994Y-96844214D01*
X152546109Y-96900358D01*
X152549793Y-96974106D01*
X152550992Y-97069044D01*
X152551011Y-97078985D01*
X152551287Y-97302179D01*
X152412970Y-97302179D01*
X152412970Y-97096418D01*
X152412872Y-97020189D01*
X152412191Y-96964939D01*
X152410349Y-96926501D01*
X152406767Y-96900706D01*
X152400868Y-96883384D01*
X152392073Y-96870368D01*
X152379820Y-96857507D01*
X152336953Y-96829873D01*
X152290157Y-96824745D01*
X152245576Y-96842217D01*
X152230072Y-96855221D01*
X152218690Y-96867447D01*
X152210519Y-96880540D01*
X152205026Y-96898615D01*
X152201680Y-96925787D01*
X152199949Y-96966170D01*
X152199303Y-97023879D01*
X152199208Y-97094132D01*
X152199208Y-97302179D01*
X152060891Y-97302179D01*
X152060891Y-96698614D01*
X152130050Y-96698614D01*
X152171572Y-96700256D01*
X152192994Y-96706087D01*
X152199205Y-96717461D01*
X152199208Y-96717798D01*
X152202090Y-96728938D01*
X152214801Y-96727674D01*
X152240074Y-96715434D01*
X152297395Y-96697424D01*
X152362963Y-96695421D01*
X152425988Y-96709002D01*
G36*
X152425988Y-96709002D02*
G01*
X152457283Y-96723950D01*
X152487591Y-96745541D01*
X152510682Y-96770391D01*
X152527500Y-96802087D01*
X152538994Y-96844214D01*
X152546109Y-96900358D01*
X152549793Y-96974106D01*
X152550992Y-97069044D01*
X152551011Y-97078985D01*
X152551287Y-97302179D01*
X152412970Y-97302179D01*
X152412970Y-97096418D01*
X152412872Y-97020189D01*
X152412191Y-96964939D01*
X152410349Y-96926501D01*
X152406767Y-96900706D01*
X152400868Y-96883384D01*
X152392073Y-96870368D01*
X152379820Y-96857507D01*
X152336953Y-96829873D01*
X152290157Y-96824745D01*
X152245576Y-96842217D01*
X152230072Y-96855221D01*
X152218690Y-96867447D01*
X152210519Y-96880540D01*
X152205026Y-96898615D01*
X152201680Y-96925787D01*
X152199949Y-96966170D01*
X152199303Y-97023879D01*
X152199208Y-97094132D01*
X152199208Y-97302179D01*
X152060891Y-97302179D01*
X152060891Y-96698614D01*
X152130050Y-96698614D01*
X152171572Y-96700256D01*
X152192994Y-96706087D01*
X152199205Y-96717461D01*
X152199208Y-96717798D01*
X152202090Y-96728938D01*
X152214801Y-96727674D01*
X152240074Y-96715434D01*
X152297395Y-96697424D01*
X152362963Y-96695421D01*
X152425988Y-96709002D01*
G37*
X155397226Y-96703880D02*
X155470080Y-96734830D01*
X155493027Y-96749895D01*
X155522354Y-96773048D01*
X155540764Y-96791253D01*
X155543961Y-96797183D01*
X155534935Y-96810340D01*
X155511837Y-96832667D01*
X155493344Y-96848250D01*
X155442728Y-96888926D01*
X155402760Y-96855295D01*
X155371874Y-96833584D01*
X155341759Y-96826090D01*
X155307292Y-96827920D01*
X155252561Y-96841528D01*
X155214886Y-96869772D01*
X155191991Y-96915433D01*
X155181597Y-96981289D01*
X155181595Y-96981331D01*
X155182494Y-97054939D01*
X155196463Y-97108946D01*
X155224328Y-97145716D01*
X155243325Y-97158168D01*
X155293776Y-97173673D01*
X155347663Y-97173683D01*
X155394546Y-97158638D01*
X155405644Y-97151287D01*
X155433476Y-97132511D01*
X155455236Y-97129434D01*
X155478704Y-97143409D01*
X155504649Y-97168510D01*
X155545716Y-97210880D01*
X155500121Y-97248464D01*
X155429674Y-97290882D01*
X155350233Y-97311785D01*
X155267215Y-97310272D01*
X155212694Y-97296411D01*
X155148970Y-97262135D01*
X155098005Y-97208212D01*
X155074851Y-97170149D01*
X155056099Y-97115536D01*
X155046715Y-97046369D01*
X155046643Y-96971407D01*
X155055824Y-96899409D01*
X155074199Y-96839137D01*
X155077093Y-96832958D01*
X155119952Y-96772351D01*
X155177979Y-96728224D01*
X155246591Y-96701493D01*
X155321201Y-96693073D01*
X155397226Y-96703880D01*
G36*
X155397226Y-96703880D02*
G01*
X155470080Y-96734830D01*
X155493027Y-96749895D01*
X155522354Y-96773048D01*
X155540764Y-96791253D01*
X155543961Y-96797183D01*
X155534935Y-96810340D01*
X155511837Y-96832667D01*
X155493344Y-96848250D01*
X155442728Y-96888926D01*
X155402760Y-96855295D01*
X155371874Y-96833584D01*
X155341759Y-96826090D01*
X155307292Y-96827920D01*
X155252561Y-96841528D01*
X155214886Y-96869772D01*
X155191991Y-96915433D01*
X155181597Y-96981289D01*
X155181595Y-96981331D01*
X155182494Y-97054939D01*
X155196463Y-97108946D01*
X155224328Y-97145716D01*
X155243325Y-97158168D01*
X155293776Y-97173673D01*
X155347663Y-97173683D01*
X155394546Y-97158638D01*
X155405644Y-97151287D01*
X155433476Y-97132511D01*
X155455236Y-97129434D01*
X155478704Y-97143409D01*
X155504649Y-97168510D01*
X155545716Y-97210880D01*
X155500121Y-97248464D01*
X155429674Y-97290882D01*
X155350233Y-97311785D01*
X155267215Y-97310272D01*
X155212694Y-97296411D01*
X155148970Y-97262135D01*
X155098005Y-97208212D01*
X155074851Y-97170149D01*
X155056099Y-97115536D01*
X155046715Y-97046369D01*
X155046643Y-96971407D01*
X155055824Y-96899409D01*
X155074199Y-96839137D01*
X155077093Y-96832958D01*
X155119952Y-96772351D01*
X155177979Y-96728224D01*
X155246591Y-96701493D01*
X155321201Y-96693073D01*
X155397226Y-96703880D01*
G37*
X153790762Y-96706055D02*
X153854363Y-96740692D01*
X153904123Y-96795372D01*
X153927568Y-96839842D01*
X153937634Y-96879121D01*
X153944156Y-96935116D01*
X153946951Y-96999621D01*
X153945836Y-97064429D01*
X153940626Y-97121334D01*
X153934541Y-97151727D01*
X153914014Y-97193306D01*
X153878463Y-97237468D01*
X153835619Y-97276087D01*
X153793211Y-97301034D01*
X153792177Y-97301430D01*
X153739553Y-97312331D01*
X153677188Y-97312601D01*
X153617924Y-97302676D01*
X153595040Y-97294722D01*
X153536102Y-97261300D01*
X153493890Y-97217511D01*
X153466156Y-97159538D01*
X153450651Y-97083565D01*
X153447143Y-97043771D01*
X153447590Y-96993766D01*
X153582376Y-96993766D01*
X153586917Y-97066732D01*
X153599986Y-97122334D01*
X153620756Y-97157861D01*
X153635552Y-97168020D01*
X153673464Y-97175104D01*
X153718527Y-97173007D01*
X153757487Y-97162812D01*
X153767704Y-97157204D01*
X153794659Y-97124538D01*
X153812451Y-97074545D01*
X153820024Y-97013705D01*
X153816325Y-96948497D01*
X153808057Y-96909253D01*
X153784320Y-96863805D01*
X153746849Y-96835396D01*
X153701720Y-96825573D01*
X153655011Y-96835887D01*
X153619132Y-96861112D01*
X153600277Y-96881925D01*
X153589272Y-96902439D01*
X153584026Y-96930203D01*
X153582449Y-96972762D01*
X153582376Y-96993766D01*
X153447590Y-96993766D01*
X153448094Y-96937580D01*
X153465388Y-96850501D01*
X153499029Y-96782530D01*
X153549018Y-96733664D01*
X153615356Y-96703899D01*
X153629601Y-96700448D01*
X153715210Y-96692345D01*
X153790762Y-96706055D01*
G36*
X153790762Y-96706055D02*
G01*
X153854363Y-96740692D01*
X153904123Y-96795372D01*
X153927568Y-96839842D01*
X153937634Y-96879121D01*
X153944156Y-96935116D01*
X153946951Y-96999621D01*
X153945836Y-97064429D01*
X153940626Y-97121334D01*
X153934541Y-97151727D01*
X153914014Y-97193306D01*
X153878463Y-97237468D01*
X153835619Y-97276087D01*
X153793211Y-97301034D01*
X153792177Y-97301430D01*
X153739553Y-97312331D01*
X153677188Y-97312601D01*
X153617924Y-97302676D01*
X153595040Y-97294722D01*
X153536102Y-97261300D01*
X153493890Y-97217511D01*
X153466156Y-97159538D01*
X153450651Y-97083565D01*
X153447143Y-97043771D01*
X153447590Y-96993766D01*
X153582376Y-96993766D01*
X153586917Y-97066732D01*
X153599986Y-97122334D01*
X153620756Y-97157861D01*
X153635552Y-97168020D01*
X153673464Y-97175104D01*
X153718527Y-97173007D01*
X153757487Y-97162812D01*
X153767704Y-97157204D01*
X153794659Y-97124538D01*
X153812451Y-97074545D01*
X153820024Y-97013705D01*
X153816325Y-96948497D01*
X153808057Y-96909253D01*
X153784320Y-96863805D01*
X153746849Y-96835396D01*
X153701720Y-96825573D01*
X153655011Y-96835887D01*
X153619132Y-96861112D01*
X153600277Y-96881925D01*
X153589272Y-96902439D01*
X153584026Y-96930203D01*
X153582449Y-96972762D01*
X153582376Y-96993766D01*
X153447590Y-96993766D01*
X153448094Y-96937580D01*
X153465388Y-96850501D01*
X153499029Y-96782530D01*
X153549018Y-96733664D01*
X153615356Y-96703899D01*
X153629601Y-96700448D01*
X153715210Y-96692345D01*
X153790762Y-96706055D01*
G37*
X153461524Y-97644237D02*
X153511255Y-97647971D01*
X153641291Y-98037773D01*
X153661678Y-97968614D01*
X153673946Y-97925874D01*
X153690085Y-97868115D01*
X153707512Y-97804625D01*
X153716726Y-97770570D01*
X153751388Y-97641683D01*
X153894391Y-97641683D01*
X153851646Y-97776857D01*
X153830596Y-97843342D01*
X153805167Y-97923539D01*
X153778610Y-98007193D01*
X153754902Y-98081782D01*
X153700902Y-98251535D01*
X153642598Y-98255328D01*
X153584295Y-98259122D01*
X153552679Y-98154734D01*
X153533182Y-98089889D01*
X153511904Y-98018400D01*
X153493308Y-97955263D01*
X153492574Y-97952750D01*
X153478684Y-97909969D01*
X153466429Y-97880779D01*
X153457846Y-97869741D01*
X153456082Y-97871018D01*
X153449891Y-97888130D01*
X153438128Y-97924787D01*
X153422225Y-97976378D01*
X153403614Y-98038294D01*
X153393543Y-98072352D01*
X153339007Y-98257822D01*
X153223264Y-98257822D01*
X153130737Y-97965471D01*
X153104744Y-97883462D01*
X153081066Y-97808987D01*
X153060820Y-97745544D01*
X153045126Y-97696632D01*
X153035102Y-97665749D01*
X153032055Y-97656726D01*
X153034467Y-97647487D01*
X153053408Y-97643441D01*
X153092823Y-97643846D01*
X153098993Y-97644152D01*
X153172086Y-97647971D01*
X153219957Y-97824010D01*
X153237553Y-97888211D01*
X153253277Y-97944649D01*
X153265746Y-97988422D01*
X153273574Y-98014630D01*
X153275020Y-98018903D01*
X153281014Y-98013990D01*
X153293101Y-97988532D01*
X153309893Y-97945997D01*
X153330003Y-97889850D01*
X153347003Y-97839130D01*
X153411794Y-97640504D01*
X153461524Y-97644237D01*
G36*
X153461524Y-97644237D02*
G01*
X153511255Y-97647971D01*
X153641291Y-98037773D01*
X153661678Y-97968614D01*
X153673946Y-97925874D01*
X153690085Y-97868115D01*
X153707512Y-97804625D01*
X153716726Y-97770570D01*
X153751388Y-97641683D01*
X153894391Y-97641683D01*
X153851646Y-97776857D01*
X153830596Y-97843342D01*
X153805167Y-97923539D01*
X153778610Y-98007193D01*
X153754902Y-98081782D01*
X153700902Y-98251535D01*
X153642598Y-98255328D01*
X153584295Y-98259122D01*
X153552679Y-98154734D01*
X153533182Y-98089889D01*
X153511904Y-98018400D01*
X153493308Y-97955263D01*
X153492574Y-97952750D01*
X153478684Y-97909969D01*
X153466429Y-97880779D01*
X153457846Y-97869741D01*
X153456082Y-97871018D01*
X153449891Y-97888130D01*
X153438128Y-97924787D01*
X153422225Y-97976378D01*
X153403614Y-98038294D01*
X153393543Y-98072352D01*
X153339007Y-98257822D01*
X153223264Y-98257822D01*
X153130737Y-97965471D01*
X153104744Y-97883462D01*
X153081066Y-97808987D01*
X153060820Y-97745544D01*
X153045126Y-97696632D01*
X153035102Y-97665749D01*
X153032055Y-97656726D01*
X153034467Y-97647487D01*
X153053408Y-97643441D01*
X153092823Y-97643846D01*
X153098993Y-97644152D01*
X153172086Y-97647971D01*
X153219957Y-97824010D01*
X153237553Y-97888211D01*
X153253277Y-97944649D01*
X153265746Y-97988422D01*
X153273574Y-98014630D01*
X153275020Y-98018903D01*
X153281014Y-98013990D01*
X153293101Y-97988532D01*
X153309893Y-97945997D01*
X153330003Y-97889850D01*
X153347003Y-97839130D01*
X153411794Y-97640504D01*
X153461524Y-97644237D01*
G37*
X150641739Y-96705148D02*
X150707521Y-96734231D01*
X150757460Y-96782793D01*
X150791626Y-96850908D01*
X150810093Y-96938651D01*
X150811417Y-96952351D01*
X150812454Y-97048939D01*
X150799007Y-97133602D01*
X150771892Y-97202221D01*
X150757373Y-97224294D01*
X150706799Y-97271011D01*
X150642391Y-97301268D01*
X150570334Y-97313824D01*
X150496815Y-97307439D01*
X150440928Y-97287772D01*
X150392868Y-97254629D01*
X150353588Y-97211175D01*
X150352908Y-97210158D01*
X150336956Y-97183338D01*
X150326590Y-97156368D01*
X150320312Y-97122332D01*
X150316627Y-97074310D01*
X150315003Y-97034931D01*
X150314328Y-96999219D01*
X150440045Y-96999219D01*
X150441274Y-97034770D01*
X150445734Y-97082094D01*
X150453603Y-97112465D01*
X150467793Y-97134072D01*
X150481083Y-97146694D01*
X150528198Y-97173122D01*
X150577495Y-97176653D01*
X150623407Y-97157639D01*
X150646362Y-97136331D01*
X150662904Y-97114859D01*
X150672579Y-97094313D01*
X150676826Y-97067574D01*
X150677080Y-97027523D01*
X150675772Y-96990638D01*
X150672957Y-96937947D01*
X150668495Y-96903772D01*
X150660452Y-96881480D01*
X150646897Y-96864442D01*
X150636155Y-96854703D01*
X150591223Y-96829123D01*
X150542751Y-96827847D01*
X150502106Y-96842999D01*
X150467433Y-96874642D01*
X150446776Y-96926620D01*
X150440045Y-96999219D01*
X150314328Y-96999219D01*
X150313521Y-96956621D01*
X150316052Y-96898056D01*
X150323638Y-96854007D01*
X150337319Y-96819248D01*
X150358135Y-96788551D01*
X150365853Y-96779436D01*
X150414111Y-96734021D01*
X150465872Y-96707493D01*
X150529172Y-96696379D01*
X150560039Y-96695471D01*
X150641739Y-96705148D01*
G36*
X150641739Y-96705148D02*
G01*
X150707521Y-96734231D01*
X150757460Y-96782793D01*
X150791626Y-96850908D01*
X150810093Y-96938651D01*
X150811417Y-96952351D01*
X150812454Y-97048939D01*
X150799007Y-97133602D01*
X150771892Y-97202221D01*
X150757373Y-97224294D01*
X150706799Y-97271011D01*
X150642391Y-97301268D01*
X150570334Y-97313824D01*
X150496815Y-97307439D01*
X150440928Y-97287772D01*
X150392868Y-97254629D01*
X150353588Y-97211175D01*
X150352908Y-97210158D01*
X150336956Y-97183338D01*
X150326590Y-97156368D01*
X150320312Y-97122332D01*
X150316627Y-97074310D01*
X150315003Y-97034931D01*
X150314328Y-96999219D01*
X150440045Y-96999219D01*
X150441274Y-97034770D01*
X150445734Y-97082094D01*
X150453603Y-97112465D01*
X150467793Y-97134072D01*
X150481083Y-97146694D01*
X150528198Y-97173122D01*
X150577495Y-97176653D01*
X150623407Y-97157639D01*
X150646362Y-97136331D01*
X150662904Y-97114859D01*
X150672579Y-97094313D01*
X150676826Y-97067574D01*
X150677080Y-97027523D01*
X150675772Y-96990638D01*
X150672957Y-96937947D01*
X150668495Y-96903772D01*
X150660452Y-96881480D01*
X150646897Y-96864442D01*
X150636155Y-96854703D01*
X150591223Y-96829123D01*
X150542751Y-96827847D01*
X150502106Y-96842999D01*
X150467433Y-96874642D01*
X150446776Y-96926620D01*
X150440045Y-96999219D01*
X150314328Y-96999219D01*
X150313521Y-96956621D01*
X150316052Y-96898056D01*
X150323638Y-96854007D01*
X150337319Y-96819248D01*
X150358135Y-96788551D01*
X150365853Y-96779436D01*
X150414111Y-96734021D01*
X150465872Y-96707493D01*
X150529172Y-96696379D01*
X150560039Y-96695471D01*
X150641739Y-96705148D01*
G37*
X152978812Y-98257822D02*
X152909654Y-98257822D01*
X152869512Y-98256645D01*
X152848606Y-98251772D01*
X152841078Y-98241186D01*
X152840495Y-98234029D01*
X152839226Y-98219676D01*
X152831221Y-98216923D01*
X152810185Y-98225771D01*
X152793827Y-98234029D01*
X152731023Y-98253597D01*
X152662752Y-98254729D01*
X152607248Y-98240135D01*
X152555562Y-98204877D01*
X152516162Y-98152835D01*
X152494587Y-98091450D01*
X152494038Y-98088018D01*
X152490833Y-98050571D01*
X152489239Y-97996813D01*
X152489367Y-97956155D01*
X152626721Y-97956155D01*
X152629903Y-98010194D01*
X152637141Y-98054735D01*
X152646940Y-98079888D01*
X152684011Y-98114260D01*
X152728026Y-98126582D01*
X152773416Y-98116618D01*
X152812203Y-98086895D01*
X152826892Y-98066905D01*
X152835481Y-98043050D01*
X152839504Y-98008230D01*
X152840495Y-97955930D01*
X152838722Y-97904139D01*
X152834037Y-97858634D01*
X152827397Y-97828181D01*
X152826290Y-97825452D01*
X152799509Y-97793000D01*
X152760421Y-97775183D01*
X152716685Y-97772306D01*
X152675962Y-97784674D01*
X152645913Y-97812593D01*
X152642796Y-97818148D01*
X152633039Y-97852022D01*
X152627723Y-97900728D01*
X152626721Y-97956155D01*
X152489367Y-97956155D01*
X152489432Y-97935540D01*
X152490336Y-97902563D01*
X152496486Y-97820981D01*
X152509267Y-97759730D01*
X152530529Y-97714449D01*
X152562122Y-97680779D01*
X152592793Y-97661014D01*
X152635646Y-97647120D01*
X152688944Y-97642354D01*
X152743520Y-97646236D01*
X152790208Y-97658282D01*
X152814876Y-97672693D01*
X152840495Y-97695878D01*
X152840495Y-97402773D01*
X152978812Y-97402773D01*
X152978812Y-98257822D01*
G36*
X152978812Y-98257822D02*
G01*
X152909654Y-98257822D01*
X152869512Y-98256645D01*
X152848606Y-98251772D01*
X152841078Y-98241186D01*
X152840495Y-98234029D01*
X152839226Y-98219676D01*
X152831221Y-98216923D01*
X152810185Y-98225771D01*
X152793827Y-98234029D01*
X152731023Y-98253597D01*
X152662752Y-98254729D01*
X152607248Y-98240135D01*
X152555562Y-98204877D01*
X152516162Y-98152835D01*
X152494587Y-98091450D01*
X152494038Y-98088018D01*
X152490833Y-98050571D01*
X152489239Y-97996813D01*
X152489367Y-97956155D01*
X152626721Y-97956155D01*
X152629903Y-98010194D01*
X152637141Y-98054735D01*
X152646940Y-98079888D01*
X152684011Y-98114260D01*
X152728026Y-98126582D01*
X152773416Y-98116618D01*
X152812203Y-98086895D01*
X152826892Y-98066905D01*
X152835481Y-98043050D01*
X152839504Y-98008230D01*
X152840495Y-97955930D01*
X152838722Y-97904139D01*
X152834037Y-97858634D01*
X152827397Y-97828181D01*
X152826290Y-97825452D01*
X152799509Y-97793000D01*
X152760421Y-97775183D01*
X152716685Y-97772306D01*
X152675962Y-97784674D01*
X152645913Y-97812593D01*
X152642796Y-97818148D01*
X152633039Y-97852022D01*
X152627723Y-97900728D01*
X152626721Y-97956155D01*
X152489367Y-97956155D01*
X152489432Y-97935540D01*
X152490336Y-97902563D01*
X152496486Y-97820981D01*
X152509267Y-97759730D01*
X152530529Y-97714449D01*
X152562122Y-97680779D01*
X152592793Y-97661014D01*
X152635646Y-97647120D01*
X152688944Y-97642354D01*
X152743520Y-97646236D01*
X152790208Y-97658282D01*
X152814876Y-97672693D01*
X152840495Y-97695878D01*
X152840495Y-97402773D01*
X152978812Y-97402773D01*
X152978812Y-98257822D01*
G37*
X155857898Y-96696457D02*
X155890096Y-96704279D01*
X155951825Y-96732921D01*
X156004610Y-96776667D01*
X156041141Y-96829117D01*
X156046160Y-96840893D01*
X156053045Y-96871740D01*
X156057864Y-96917371D01*
X156059505Y-96963492D01*
X156059505Y-97050693D01*
X155877178Y-97050693D01*
X155801979Y-97050978D01*
X155749003Y-97052704D01*
X155715325Y-97057181D01*
X155698020Y-97065720D01*
X155694163Y-97079630D01*
X155700829Y-97100222D01*
X155712770Y-97124315D01*
X155746080Y-97164525D01*
X155792368Y-97184558D01*
X155848944Y-97183905D01*
X155913031Y-97162101D01*
X155968417Y-97135193D01*
X156014375Y-97171532D01*
X156060333Y-97207872D01*
X156017096Y-97247819D01*
X155959374Y-97285563D01*
X155888386Y-97308320D01*
X155812029Y-97314688D01*
X155738199Y-97303268D01*
X155726287Y-97299393D01*
X155661399Y-97265506D01*
X155613130Y-97214986D01*
X155580465Y-97146325D01*
X155562385Y-97058014D01*
X155562175Y-97056121D01*
X155560556Y-96959878D01*
X155567100Y-96925542D01*
X155694852Y-96925542D01*
X155706584Y-96930822D01*
X155738438Y-96934867D01*
X155785397Y-96937176D01*
X155815154Y-96937525D01*
X155870648Y-96937306D01*
X155905346Y-96935916D01*
X155923601Y-96932251D01*
X155929766Y-96925210D01*
X155928195Y-96913690D01*
X155926878Y-96909233D01*
X155904382Y-96867355D01*
X155869003Y-96833604D01*
X155837780Y-96818773D01*
X155796301Y-96819668D01*
X155754269Y-96838164D01*
X155719012Y-96868786D01*
X155697854Y-96906062D01*
X155694852Y-96925542D01*
X155567100Y-96925542D01*
X155576690Y-96875229D01*
X155608698Y-96804191D01*
X155654701Y-96748779D01*
X155712821Y-96711009D01*
X155781180Y-96692896D01*
X155857898Y-96696457D01*
G36*
X155857898Y-96696457D02*
G01*
X155890096Y-96704279D01*
X155951825Y-96732921D01*
X156004610Y-96776667D01*
X156041141Y-96829117D01*
X156046160Y-96840893D01*
X156053045Y-96871740D01*
X156057864Y-96917371D01*
X156059505Y-96963492D01*
X156059505Y-97050693D01*
X155877178Y-97050693D01*
X155801979Y-97050978D01*
X155749003Y-97052704D01*
X155715325Y-97057181D01*
X155698020Y-97065720D01*
X155694163Y-97079630D01*
X155700829Y-97100222D01*
X155712770Y-97124315D01*
X155746080Y-97164525D01*
X155792368Y-97184558D01*
X155848944Y-97183905D01*
X155913031Y-97162101D01*
X155968417Y-97135193D01*
X156014375Y-97171532D01*
X156060333Y-97207872D01*
X156017096Y-97247819D01*
X155959374Y-97285563D01*
X155888386Y-97308320D01*
X155812029Y-97314688D01*
X155738199Y-97303268D01*
X155726287Y-97299393D01*
X155661399Y-97265506D01*
X155613130Y-97214986D01*
X155580465Y-97146325D01*
X155562385Y-97058014D01*
X155562175Y-97056121D01*
X155560556Y-96959878D01*
X155567100Y-96925542D01*
X155694852Y-96925542D01*
X155706584Y-96930822D01*
X155738438Y-96934867D01*
X155785397Y-96937176D01*
X155815154Y-96937525D01*
X155870648Y-96937306D01*
X155905346Y-96935916D01*
X155923601Y-96932251D01*
X155929766Y-96925210D01*
X155928195Y-96913690D01*
X155926878Y-96909233D01*
X155904382Y-96867355D01*
X155869003Y-96833604D01*
X155837780Y-96818773D01*
X155796301Y-96819668D01*
X155754269Y-96838164D01*
X155719012Y-96868786D01*
X155697854Y-96906062D01*
X155694852Y-96925542D01*
X155567100Y-96925542D01*
X155576690Y-96875229D01*
X155608698Y-96804191D01*
X155654701Y-96748779D01*
X155712821Y-96711009D01*
X155781180Y-96692896D01*
X155857898Y-96696457D01*
G37*
X153194017Y-96696452D02*
X153241634Y-96705482D01*
X153291034Y-96724370D01*
X153296312Y-96726777D01*
X153333774Y-96746476D01*
X153359717Y-96764781D01*
X153368103Y-96776508D01*
X153360117Y-96795632D01*
X153340720Y-96823850D01*
X153332110Y-96834384D01*
X153296628Y-96875847D01*
X153250885Y-96848858D01*
X153207350Y-96830878D01*
X153157050Y-96821267D01*
X153108812Y-96820660D01*
X153071467Y-96829691D01*
X153062505Y-96835327D01*
X153045437Y-96861171D01*
X153043363Y-96890941D01*
X153056134Y-96914197D01*
X153063688Y-96918708D01*
X153086325Y-96924309D01*
X153126115Y-96930892D01*
X153175166Y-96937183D01*
X153184215Y-96938170D01*
X153262996Y-96951798D01*
X153320136Y-96974946D01*
X153358030Y-97009752D01*
X153379079Y-97058354D01*
X153385635Y-97117718D01*
X153376577Y-97185198D01*
X153347164Y-97238188D01*
X153297278Y-97276783D01*
X153226800Y-97301081D01*
X153148565Y-97310667D01*
X153084766Y-97310552D01*
X153033016Y-97301845D01*
X152997673Y-97289825D01*
X152953017Y-97268880D01*
X152911747Y-97244574D01*
X152897079Y-97233876D01*
X152859357Y-97203084D01*
X152904852Y-97157049D01*
X152950347Y-97111013D01*
X153002072Y-97145243D01*
X153053952Y-97170952D01*
X153109351Y-97184399D01*
X153162605Y-97185818D01*
X153208049Y-97175443D01*
X153240016Y-97153507D01*
X153250338Y-97134998D01*
X153248789Y-97105314D01*
X153223140Y-97082615D01*
X153173460Y-97066940D01*
X153119031Y-97059695D01*
X153035264Y-97045873D01*
X152973033Y-97019796D01*
X152931507Y-96980699D01*
X152909853Y-96927820D01*
X152906853Y-96865126D01*
X152921671Y-96799642D01*
X152955454Y-96750144D01*
X153008505Y-96716408D01*
X153081126Y-96698207D01*
X153134928Y-96694639D01*
X153194017Y-96696452D01*
G36*
X153194017Y-96696452D02*
G01*
X153241634Y-96705482D01*
X153291034Y-96724370D01*
X153296312Y-96726777D01*
X153333774Y-96746476D01*
X153359717Y-96764781D01*
X153368103Y-96776508D01*
X153360117Y-96795632D01*
X153340720Y-96823850D01*
X153332110Y-96834384D01*
X153296628Y-96875847D01*
X153250885Y-96848858D01*
X153207350Y-96830878D01*
X153157050Y-96821267D01*
X153108812Y-96820660D01*
X153071467Y-96829691D01*
X153062505Y-96835327D01*
X153045437Y-96861171D01*
X153043363Y-96890941D01*
X153056134Y-96914197D01*
X153063688Y-96918708D01*
X153086325Y-96924309D01*
X153126115Y-96930892D01*
X153175166Y-96937183D01*
X153184215Y-96938170D01*
X153262996Y-96951798D01*
X153320136Y-96974946D01*
X153358030Y-97009752D01*
X153379079Y-97058354D01*
X153385635Y-97117718D01*
X153376577Y-97185198D01*
X153347164Y-97238188D01*
X153297278Y-97276783D01*
X153226800Y-97301081D01*
X153148565Y-97310667D01*
X153084766Y-97310552D01*
X153033016Y-97301845D01*
X152997673Y-97289825D01*
X152953017Y-97268880D01*
X152911747Y-97244574D01*
X152897079Y-97233876D01*
X152859357Y-97203084D01*
X152904852Y-97157049D01*
X152950347Y-97111013D01*
X153002072Y-97145243D01*
X153053952Y-97170952D01*
X153109351Y-97184399D01*
X153162605Y-97185818D01*
X153208049Y-97175443D01*
X153240016Y-97153507D01*
X153250338Y-97134998D01*
X153248789Y-97105314D01*
X153223140Y-97082615D01*
X153173460Y-97066940D01*
X153119031Y-97059695D01*
X153035264Y-97045873D01*
X152973033Y-97019796D01*
X152931507Y-96980699D01*
X152909853Y-96927820D01*
X152906853Y-96865126D01*
X152921671Y-96799642D01*
X152955454Y-96750144D01*
X153008505Y-96716408D01*
X153081126Y-96698207D01*
X153134928Y-96694639D01*
X153194017Y-96696452D01*
G37*
X155212581Y-97644970D02*
X155272685Y-97660597D01*
X155323021Y-97692848D01*
X155347393Y-97716940D01*
X155387345Y-97773895D01*
X155410242Y-97839965D01*
X155418108Y-97921182D01*
X155418148Y-97927748D01*
X155418218Y-97993763D01*
X155038264Y-97993763D01*
X155046363Y-98028342D01*
X155060987Y-98059659D01*
X155086581Y-98092291D01*
X155091935Y-98097500D01*
X155137943Y-98125694D01*
X155190410Y-98130475D01*
X155250803Y-98111926D01*
X155261040Y-98106931D01*
X155292439Y-98091745D01*
X155313470Y-98083094D01*
X155317139Y-98082293D01*
X155329948Y-98090063D01*
X155354378Y-98109072D01*
X155366779Y-98119460D01*
X155392476Y-98143321D01*
X155400915Y-98159077D01*
X155395058Y-98173571D01*
X155391928Y-98177534D01*
X155370725Y-98194879D01*
X155335738Y-98215959D01*
X155311337Y-98228265D01*
X155242072Y-98249946D01*
X155165388Y-98256971D01*
X155092765Y-98248647D01*
X155072426Y-98242686D01*
X155009476Y-98208952D01*
X154962815Y-98157045D01*
X154932173Y-98086459D01*
X154917282Y-97996692D01*
X154915647Y-97949753D01*
X154920421Y-97881413D01*
X155040990Y-97881413D01*
X155052652Y-97886465D01*
X155083998Y-97890429D01*
X155129571Y-97892768D01*
X155160446Y-97893169D01*
X155215981Y-97892783D01*
X155251033Y-97890975D01*
X155270262Y-97886773D01*
X155278330Y-97879203D01*
X155279901Y-97868218D01*
X155269121Y-97834381D01*
X155241980Y-97800940D01*
X155206277Y-97775272D01*
X155170560Y-97764772D01*
X155122048Y-97774086D01*
X155080053Y-97801013D01*
X155050936Y-97839827D01*
X155040990Y-97881413D01*
X154920421Y-97881413D01*
X154922599Y-97850236D01*
X154944055Y-97770949D01*
X154980470Y-97711263D01*
X155032297Y-97670549D01*
X155099990Y-97648179D01*
X155136662Y-97643871D01*
X155212581Y-97644970D01*
G36*
X155212581Y-97644970D02*
G01*
X155272685Y-97660597D01*
X155323021Y-97692848D01*
X155347393Y-97716940D01*
X155387345Y-97773895D01*
X155410242Y-97839965D01*
X155418108Y-97921182D01*
X155418148Y-97927748D01*
X155418218Y-97993763D01*
X155038264Y-97993763D01*
X155046363Y-98028342D01*
X155060987Y-98059659D01*
X155086581Y-98092291D01*
X155091935Y-98097500D01*
X155137943Y-98125694D01*
X155190410Y-98130475D01*
X155250803Y-98111926D01*
X155261040Y-98106931D01*
X155292439Y-98091745D01*
X155313470Y-98083094D01*
X155317139Y-98082293D01*
X155329948Y-98090063D01*
X155354378Y-98109072D01*
X155366779Y-98119460D01*
X155392476Y-98143321D01*
X155400915Y-98159077D01*
X155395058Y-98173571D01*
X155391928Y-98177534D01*
X155370725Y-98194879D01*
X155335738Y-98215959D01*
X155311337Y-98228265D01*
X155242072Y-98249946D01*
X155165388Y-98256971D01*
X155092765Y-98248647D01*
X155072426Y-98242686D01*
X155009476Y-98208952D01*
X154962815Y-98157045D01*
X154932173Y-98086459D01*
X154917282Y-97996692D01*
X154915647Y-97949753D01*
X154920421Y-97881413D01*
X155040990Y-97881413D01*
X155052652Y-97886465D01*
X155083998Y-97890429D01*
X155129571Y-97892768D01*
X155160446Y-97893169D01*
X155215981Y-97892783D01*
X155251033Y-97890975D01*
X155270262Y-97886773D01*
X155278330Y-97879203D01*
X155279901Y-97868218D01*
X155269121Y-97834381D01*
X155241980Y-97800940D01*
X155206277Y-97775272D01*
X155170560Y-97764772D01*
X155122048Y-97774086D01*
X155080053Y-97801013D01*
X155050936Y-97839827D01*
X155040990Y-97881413D01*
X154920421Y-97881413D01*
X154922599Y-97850236D01*
X154944055Y-97770949D01*
X154980470Y-97711263D01*
X155032297Y-97670549D01*
X155099990Y-97648179D01*
X155136662Y-97643871D01*
X155212581Y-97644970D01*
G37*
X151823301Y-96712614D02*
X151835832Y-96718514D01*
X151879201Y-96750283D01*
X151920210Y-96796646D01*
X151950832Y-96847696D01*
X151959541Y-96871166D01*
X151967488Y-96913091D01*
X151972226Y-96963757D01*
X151972801Y-96984679D01*
X151972871Y-97050693D01*
X151592917Y-97050693D01*
X151601017Y-97085273D01*
X151620896Y-97126170D01*
X151655653Y-97161514D01*
X151697002Y-97184282D01*
X151723351Y-97189010D01*
X151759084Y-97183273D01*
X151801718Y-97168882D01*
X151816201Y-97162262D01*
X151869760Y-97135513D01*
X151915467Y-97170376D01*
X151941842Y-97193955D01*
X151955876Y-97213417D01*
X151956586Y-97219129D01*
X151944049Y-97232973D01*
X151916572Y-97254012D01*
X151891634Y-97270425D01*
X151824336Y-97299930D01*
X151748890Y-97313284D01*
X151674112Y-97309812D01*
X151614505Y-97291663D01*
X151553059Y-97252784D01*
X151509392Y-97201595D01*
X151482074Y-97135367D01*
X151469678Y-97051371D01*
X151468579Y-97012936D01*
X151472978Y-96924861D01*
X151473518Y-96922299D01*
X151599418Y-96922299D01*
X151602885Y-96930558D01*
X151617137Y-96935113D01*
X151646530Y-96937065D01*
X151695425Y-96937517D01*
X151714252Y-96937525D01*
X151771533Y-96936843D01*
X151807859Y-96934364D01*
X151827396Y-96929443D01*
X151834310Y-96921434D01*
X151834555Y-96918862D01*
X151826664Y-96898423D01*
X151806915Y-96869789D01*
X151798425Y-96859763D01*
X151766906Y-96831408D01*
X151734051Y-96820259D01*
X151716349Y-96819327D01*
X151668461Y-96830981D01*
X151628301Y-96862285D01*
X151602827Y-96907752D01*
X151602375Y-96909233D01*
X151599418Y-96922299D01*
X151473518Y-96922299D01*
X151487608Y-96855510D01*
X151513962Y-96800025D01*
X151546193Y-96760639D01*
X151605783Y-96717931D01*
X151675832Y-96695109D01*
X151750339Y-96693046D01*
X151823301Y-96712614D01*
G36*
X151823301Y-96712614D02*
G01*
X151835832Y-96718514D01*
X151879201Y-96750283D01*
X151920210Y-96796646D01*
X151950832Y-96847696D01*
X151959541Y-96871166D01*
X151967488Y-96913091D01*
X151972226Y-96963757D01*
X151972801Y-96984679D01*
X151972871Y-97050693D01*
X151592917Y-97050693D01*
X151601017Y-97085273D01*
X151620896Y-97126170D01*
X151655653Y-97161514D01*
X151697002Y-97184282D01*
X151723351Y-97189010D01*
X151759084Y-97183273D01*
X151801718Y-97168882D01*
X151816201Y-97162262D01*
X151869760Y-97135513D01*
X151915467Y-97170376D01*
X151941842Y-97193955D01*
X151955876Y-97213417D01*
X151956586Y-97219129D01*
X151944049Y-97232973D01*
X151916572Y-97254012D01*
X151891634Y-97270425D01*
X151824336Y-97299930D01*
X151748890Y-97313284D01*
X151674112Y-97309812D01*
X151614505Y-97291663D01*
X151553059Y-97252784D01*
X151509392Y-97201595D01*
X151482074Y-97135367D01*
X151469678Y-97051371D01*
X151468579Y-97012936D01*
X151472978Y-96924861D01*
X151473518Y-96922299D01*
X151599418Y-96922299D01*
X151602885Y-96930558D01*
X151617137Y-96935113D01*
X151646530Y-96937065D01*
X151695425Y-96937517D01*
X151714252Y-96937525D01*
X151771533Y-96936843D01*
X151807859Y-96934364D01*
X151827396Y-96929443D01*
X151834310Y-96921434D01*
X151834555Y-96918862D01*
X151826664Y-96898423D01*
X151806915Y-96869789D01*
X151798425Y-96859763D01*
X151766906Y-96831408D01*
X151734051Y-96820259D01*
X151716349Y-96819327D01*
X151668461Y-96830981D01*
X151628301Y-96862285D01*
X151602827Y-96907752D01*
X151602375Y-96909233D01*
X151599418Y-96922299D01*
X151473518Y-96922299D01*
X151487608Y-96855510D01*
X151513962Y-96800025D01*
X151546193Y-96760639D01*
X151605783Y-96717931D01*
X151675832Y-96695109D01*
X151750339Y-96693046D01*
X151823301Y-96712614D01*
G37*
X154218411Y-97645417D02*
X154271411Y-97658290D01*
X154286731Y-97665110D01*
X154316428Y-97682974D01*
X154339220Y-97703093D01*
X154356083Y-97728962D01*
X154367998Y-97764073D01*
X154375942Y-97811920D01*
X154380894Y-97875996D01*
X154383831Y-97959794D01*
X154384947Y-98015768D01*
X154389052Y-98257822D01*
X154318932Y-98257822D01*
X154276393Y-98256038D01*
X154254476Y-98249942D01*
X154248812Y-98239706D01*
X154245821Y-98228637D01*
X154232451Y-98230754D01*
X154214233Y-98239629D01*
X154168624Y-98253233D01*
X154110007Y-98256899D01*
X154048354Y-98250903D01*
X153993638Y-98235521D01*
X153988730Y-98233386D01*
X153938723Y-98198255D01*
X153905756Y-98149419D01*
X153890587Y-98092333D01*
X153891746Y-98071824D01*
X154015508Y-98071824D01*
X154026413Y-98099425D01*
X154058745Y-98119204D01*
X154110910Y-98129819D01*
X154138787Y-98131228D01*
X154185247Y-98127620D01*
X154216129Y-98113597D01*
X154223664Y-98106931D01*
X154244076Y-98070666D01*
X154248812Y-98037773D01*
X154248812Y-97993763D01*
X154187513Y-97993763D01*
X154116256Y-97997395D01*
X154066276Y-98008818D01*
X154034696Y-98028824D01*
X154027626Y-98037743D01*
X154015508Y-98071824D01*
X153891746Y-98071824D01*
X153893971Y-98032456D01*
X153916663Y-97975244D01*
X153947624Y-97936580D01*
X153966376Y-97919864D01*
X153984733Y-97908878D01*
X154008619Y-97902180D01*
X154043957Y-97898326D01*
X154096669Y-97895873D01*
X154117577Y-97895168D01*
X154248812Y-97890879D01*
X154248620Y-97851158D01*
X154243537Y-97809405D01*
X154225162Y-97784158D01*
X154188039Y-97768030D01*
X154187043Y-97767742D01*
X154134410Y-97761400D01*
X154082906Y-97769684D01*
X154044630Y-97789827D01*
X154029272Y-97799773D01*
X154012730Y-97798397D01*
X153987275Y-97783987D01*
X153972328Y-97773817D01*
X153943091Y-97752088D01*
X153924980Y-97735800D01*
X153922074Y-97731137D01*
X153934040Y-97707005D01*
X153969396Y-97678185D01*
X153984753Y-97668461D01*
X154028901Y-97651714D01*
X154088398Y-97642227D01*
X154154487Y-97640095D01*
X154218411Y-97645417D01*
G36*
X154218411Y-97645417D02*
G01*
X154271411Y-97658290D01*
X154286731Y-97665110D01*
X154316428Y-97682974D01*
X154339220Y-97703093D01*
X154356083Y-97728962D01*
X154367998Y-97764073D01*
X154375942Y-97811920D01*
X154380894Y-97875996D01*
X154383831Y-97959794D01*
X154384947Y-98015768D01*
X154389052Y-98257822D01*
X154318932Y-98257822D01*
X154276393Y-98256038D01*
X154254476Y-98249942D01*
X154248812Y-98239706D01*
X154245821Y-98228637D01*
X154232451Y-98230754D01*
X154214233Y-98239629D01*
X154168624Y-98253233D01*
X154110007Y-98256899D01*
X154048354Y-98250903D01*
X153993638Y-98235521D01*
X153988730Y-98233386D01*
X153938723Y-98198255D01*
X153905756Y-98149419D01*
X153890587Y-98092333D01*
X153891746Y-98071824D01*
X154015508Y-98071824D01*
X154026413Y-98099425D01*
X154058745Y-98119204D01*
X154110910Y-98129819D01*
X154138787Y-98131228D01*
X154185247Y-98127620D01*
X154216129Y-98113597D01*
X154223664Y-98106931D01*
X154244076Y-98070666D01*
X154248812Y-98037773D01*
X154248812Y-97993763D01*
X154187513Y-97993763D01*
X154116256Y-97997395D01*
X154066276Y-98008818D01*
X154034696Y-98028824D01*
X154027626Y-98037743D01*
X154015508Y-98071824D01*
X153891746Y-98071824D01*
X153893971Y-98032456D01*
X153916663Y-97975244D01*
X153947624Y-97936580D01*
X153966376Y-97919864D01*
X153984733Y-97908878D01*
X154008619Y-97902180D01*
X154043957Y-97898326D01*
X154096669Y-97895873D01*
X154117577Y-97895168D01*
X154248812Y-97890879D01*
X154248620Y-97851158D01*
X154243537Y-97809405D01*
X154225162Y-97784158D01*
X154188039Y-97768030D01*
X154187043Y-97767742D01*
X154134410Y-97761400D01*
X154082906Y-97769684D01*
X154044630Y-97789827D01*
X154029272Y-97799773D01*
X154012730Y-97798397D01*
X153987275Y-97783987D01*
X153972328Y-97773817D01*
X153943091Y-97752088D01*
X153924980Y-97735800D01*
X153922074Y-97731137D01*
X153934040Y-97707005D01*
X153969396Y-97678185D01*
X153984753Y-97668461D01*
X154028901Y-97651714D01*
X154088398Y-97642227D01*
X154154487Y-97640095D01*
X154218411Y-97645417D01*
G37*
X151795790Y-97646555D02*
X151854945Y-97662339D01*
X151899977Y-97690948D01*
X151931754Y-97728419D01*
X151941634Y-97744411D01*
X151948927Y-97761163D01*
X151954026Y-97782592D01*
X151957321Y-97812616D01*
X151959203Y-97855154D01*
X151960063Y-97914122D01*
X151960293Y-97993440D01*
X151960297Y-98014484D01*
X151960297Y-98257822D01*
X151899941Y-98257822D01*
X151861443Y-98255126D01*
X151832977Y-98248295D01*
X151825845Y-98244083D01*
X151806348Y-98236813D01*
X151786434Y-98244083D01*
X151753647Y-98253160D01*
X151706022Y-98256813D01*
X151653236Y-98255228D01*
X151604964Y-98248589D01*
X151576782Y-98240072D01*
X151522247Y-98205063D01*
X151488165Y-98156479D01*
X151472843Y-98091882D01*
X151472701Y-98090223D01*
X151474045Y-98061566D01*
X151595644Y-98061566D01*
X151606274Y-98094161D01*
X151623590Y-98112505D01*
X151658348Y-98126379D01*
X151704227Y-98131917D01*
X151751012Y-98129191D01*
X151788486Y-98118274D01*
X151798985Y-98111269D01*
X151817332Y-98078904D01*
X151821980Y-98042111D01*
X151821980Y-97993763D01*
X151752418Y-97993763D01*
X151686333Y-97998850D01*
X151636236Y-98013263D01*
X151605071Y-98035729D01*
X151595644Y-98061566D01*
X151474045Y-98061566D01*
X151476013Y-98019647D01*
X151499290Y-97963845D01*
X151543052Y-97921647D01*
X151549101Y-97917808D01*
X151575093Y-97905309D01*
X151607265Y-97897740D01*
X151652240Y-97894061D01*
X151705669Y-97893216D01*
X151821980Y-97893169D01*
X151821980Y-97844411D01*
X151817047Y-97806581D01*
X151804457Y-97781236D01*
X151802983Y-97779887D01*
X151774966Y-97768800D01*
X151732674Y-97764503D01*
X151685936Y-97766615D01*
X151644582Y-97774756D01*
X151620043Y-97786965D01*
X151606747Y-97796746D01*
X151592706Y-97798613D01*
X151573329Y-97790600D01*
X151544024Y-97770739D01*
X151500197Y-97737063D01*
X151496175Y-97733909D01*
X151498236Y-97722236D01*
X151515432Y-97702822D01*
X151541567Y-97681248D01*
X151570448Y-97663096D01*
X151579522Y-97658809D01*
X151612620Y-97650256D01*
X151661120Y-97644155D01*
X151715305Y-97641708D01*
X151717839Y-97641703D01*
X151795790Y-97646555D01*
G36*
X151795790Y-97646555D02*
G01*
X151854945Y-97662339D01*
X151899977Y-97690948D01*
X151931754Y-97728419D01*
X151941634Y-97744411D01*
X151948927Y-97761163D01*
X151954026Y-97782592D01*
X151957321Y-97812616D01*
X151959203Y-97855154D01*
X151960063Y-97914122D01*
X151960293Y-97993440D01*
X151960297Y-98014484D01*
X151960297Y-98257822D01*
X151899941Y-98257822D01*
X151861443Y-98255126D01*
X151832977Y-98248295D01*
X151825845Y-98244083D01*
X151806348Y-98236813D01*
X151786434Y-98244083D01*
X151753647Y-98253160D01*
X151706022Y-98256813D01*
X151653236Y-98255228D01*
X151604964Y-98248589D01*
X151576782Y-98240072D01*
X151522247Y-98205063D01*
X151488165Y-98156479D01*
X151472843Y-98091882D01*
X151472701Y-98090223D01*
X151474045Y-98061566D01*
X151595644Y-98061566D01*
X151606274Y-98094161D01*
X151623590Y-98112505D01*
X151658348Y-98126379D01*
X151704227Y-98131917D01*
X151751012Y-98129191D01*
X151788486Y-98118274D01*
X151798985Y-98111269D01*
X151817332Y-98078904D01*
X151821980Y-98042111D01*
X151821980Y-97993763D01*
X151752418Y-97993763D01*
X151686333Y-97998850D01*
X151636236Y-98013263D01*
X151605071Y-98035729D01*
X151595644Y-98061566D01*
X151474045Y-98061566D01*
X151476013Y-98019647D01*
X151499290Y-97963845D01*
X151543052Y-97921647D01*
X151549101Y-97917808D01*
X151575093Y-97905309D01*
X151607265Y-97897740D01*
X151652240Y-97894061D01*
X151705669Y-97893216D01*
X151821980Y-97893169D01*
X151821980Y-97844411D01*
X151817047Y-97806581D01*
X151804457Y-97781236D01*
X151802983Y-97779887D01*
X151774966Y-97768800D01*
X151732674Y-97764503D01*
X151685936Y-97766615D01*
X151644582Y-97774756D01*
X151620043Y-97786965D01*
X151606747Y-97796746D01*
X151592706Y-97798613D01*
X151573329Y-97790600D01*
X151544024Y-97770739D01*
X151500197Y-97737063D01*
X151496175Y-97733909D01*
X151498236Y-97722236D01*
X151515432Y-97702822D01*
X151541567Y-97681248D01*
X151570448Y-97663096D01*
X151579522Y-97658809D01*
X151612620Y-97650256D01*
X151661120Y-97644155D01*
X151715305Y-97641708D01*
X151717839Y-97641703D01*
X151795790Y-97646555D01*
G37*
X151271241Y-96709184D02*
X151297753Y-96722282D01*
X151330447Y-96745106D01*
X151354275Y-96769996D01*
X151370594Y-96801249D01*
X151380760Y-96843166D01*
X151386128Y-96900044D01*
X151388056Y-96976184D01*
X151388169Y-97008917D01*
X151387839Y-97080656D01*
X151386473Y-97131927D01*
X151383500Y-97167404D01*
X151378351Y-97191763D01*
X151370457Y-97209680D01*
X151362243Y-97221902D01*
X151309813Y-97273905D01*
X151248070Y-97305184D01*
X151181464Y-97314592D01*
X151114442Y-97300980D01*
X151093208Y-97291354D01*
X151042376Y-97264859D01*
X151042376Y-97680052D01*
X151079475Y-97660868D01*
X151128357Y-97646025D01*
X151188439Y-97642222D01*
X151248436Y-97649243D01*
X151293744Y-97665013D01*
X151331325Y-97695047D01*
X151363436Y-97738024D01*
X151365850Y-97742436D01*
X151376033Y-97763221D01*
X151383470Y-97784170D01*
X151388589Y-97809548D01*
X151391819Y-97843618D01*
X151393587Y-97890641D01*
X151394323Y-97954882D01*
X151394456Y-98027176D01*
X151394456Y-98257822D01*
X151256139Y-98257822D01*
X151256139Y-97832533D01*
X151217451Y-97799979D01*
X151177262Y-97773940D01*
X151139203Y-97769205D01*
X151100934Y-97781389D01*
X151080538Y-97793320D01*
X151065358Y-97810313D01*
X151054562Y-97835995D01*
X151047317Y-97873991D01*
X151042792Y-97927926D01*
X151040156Y-98001425D01*
X151039228Y-98050347D01*
X151036089Y-98251535D01*
X150970074Y-98255336D01*
X150904060Y-98259136D01*
X150904060Y-97010650D01*
X151042376Y-97010650D01*
X151045903Y-97080254D01*
X151057785Y-97128569D01*
X151079980Y-97158631D01*
X151114441Y-97173471D01*
X151149258Y-97176436D01*
X151188671Y-97173028D01*
X151214829Y-97159617D01*
X151231186Y-97141896D01*
X151244063Y-97122835D01*
X151251728Y-97101601D01*
X151255139Y-97071849D01*
X151255251Y-97027236D01*
X151254103Y-96989880D01*
X151251468Y-96933604D01*
X151247544Y-96896658D01*
X151240937Y-96873223D01*
X151230251Y-96857480D01*
X151220167Y-96848380D01*
X151178030Y-96828537D01*
X151128160Y-96825332D01*
X151099524Y-96832168D01*
X151071172Y-96856464D01*
X151052391Y-96903728D01*
X151043288Y-96973624D01*
X151042376Y-97010650D01*
X150904060Y-97010650D01*
X150904060Y-96698614D01*
X150973218Y-96698614D01*
X151014740Y-96700256D01*
X151036162Y-96706087D01*
X151042374Y-96717461D01*
X151042376Y-96717798D01*
X151045258Y-96728938D01*
X151057970Y-96727673D01*
X151083243Y-96715433D01*
X151142131Y-96696707D01*
X151208385Y-96694739D01*
X151271241Y-96709184D01*
G36*
X151271241Y-96709184D02*
G01*
X151297753Y-96722282D01*
X151330447Y-96745106D01*
X151354275Y-96769996D01*
X151370594Y-96801249D01*
X151380760Y-96843166D01*
X151386128Y-96900044D01*
X151388056Y-96976184D01*
X151388169Y-97008917D01*
X151387839Y-97080656D01*
X151386473Y-97131927D01*
X151383500Y-97167404D01*
X151378351Y-97191763D01*
X151370457Y-97209680D01*
X151362243Y-97221902D01*
X151309813Y-97273905D01*
X151248070Y-97305184D01*
X151181464Y-97314592D01*
X151114442Y-97300980D01*
X151093208Y-97291354D01*
X151042376Y-97264859D01*
X151042376Y-97680052D01*
X151079475Y-97660868D01*
X151128357Y-97646025D01*
X151188439Y-97642222D01*
X151248436Y-97649243D01*
X151293744Y-97665013D01*
X151331325Y-97695047D01*
X151363436Y-97738024D01*
X151365850Y-97742436D01*
X151376033Y-97763221D01*
X151383470Y-97784170D01*
X151388589Y-97809548D01*
X151391819Y-97843618D01*
X151393587Y-97890641D01*
X151394323Y-97954882D01*
X151394456Y-98027176D01*
X151394456Y-98257822D01*
X151256139Y-98257822D01*
X151256139Y-97832533D01*
X151217451Y-97799979D01*
X151177262Y-97773940D01*
X151139203Y-97769205D01*
X151100934Y-97781389D01*
X151080538Y-97793320D01*
X151065358Y-97810313D01*
X151054562Y-97835995D01*
X151047317Y-97873991D01*
X151042792Y-97927926D01*
X151040156Y-98001425D01*
X151039228Y-98050347D01*
X151036089Y-98251535D01*
X150970074Y-98255336D01*
X150904060Y-98259136D01*
X150904060Y-97010650D01*
X151042376Y-97010650D01*
X151045903Y-97080254D01*
X151057785Y-97128569D01*
X151079980Y-97158631D01*
X151114441Y-97173471D01*
X151149258Y-97176436D01*
X151188671Y-97173028D01*
X151214829Y-97159617D01*
X151231186Y-97141896D01*
X151244063Y-97122835D01*
X151251728Y-97101601D01*
X151255139Y-97071849D01*
X151255251Y-97027236D01*
X151254103Y-96989880D01*
X151251468Y-96933604D01*
X151247544Y-96896658D01*
X151240937Y-96873223D01*
X151230251Y-96857480D01*
X151220167Y-96848380D01*
X151178030Y-96828537D01*
X151128160Y-96825332D01*
X151099524Y-96832168D01*
X151071172Y-96856464D01*
X151052391Y-96903728D01*
X151043288Y-96973624D01*
X151042376Y-97010650D01*
X150904060Y-97010650D01*
X150904060Y-96698614D01*
X150973218Y-96698614D01*
X151014740Y-96700256D01*
X151036162Y-96706087D01*
X151042374Y-96717461D01*
X151042376Y-96717798D01*
X151045258Y-96728938D01*
X151057970Y-96727673D01*
X151083243Y-96715433D01*
X151142131Y-96696707D01*
X151208385Y-96694739D01*
X151271241Y-96709184D01*
G37*
X153556964Y-92530018D02*
X153613812Y-92831570D01*
X154033338Y-93004512D01*
X154284984Y-92833395D01*
X154355458Y-92785750D01*
X154419163Y-92743210D01*
X154473126Y-92707715D01*
X154514373Y-92681210D01*
X154539934Y-92665636D01*
X154546895Y-92662278D01*
X154559435Y-92670914D01*
X154586231Y-92694792D01*
X154624280Y-92730859D01*
X154670579Y-92776067D01*
X154722123Y-92827364D01*
X154775909Y-92881701D01*
X154828935Y-92936028D01*
X154878195Y-92987295D01*
X154920687Y-93032451D01*
X154953407Y-93068446D01*
X154973351Y-93092230D01*
X154978119Y-93100190D01*
X154971257Y-93114865D01*
X154952020Y-93147014D01*
X154922430Y-93193492D01*
X154884510Y-93251156D01*
X154840282Y-93316860D01*
X154814654Y-93354336D01*
X154767941Y-93422768D01*
X154726432Y-93484520D01*
X154692140Y-93536519D01*
X154667080Y-93575692D01*
X154653264Y-93598965D01*
X154651188Y-93603855D01*
X154655895Y-93617755D01*
X154668723Y-93650150D01*
X154687738Y-93696485D01*
X154711003Y-93752206D01*
X154736584Y-93812758D01*
X154762545Y-93873586D01*
X154786950Y-93930136D01*
X154807863Y-93977852D01*
X154823349Y-94012181D01*
X154831472Y-94028568D01*
X154831952Y-94029212D01*
X154844707Y-94032341D01*
X154878677Y-94039321D01*
X154930340Y-94049467D01*
X154996176Y-94062092D01*
X155072664Y-94076509D01*
X155117290Y-94084823D01*
X155199021Y-94100384D01*
X155272843Y-94115192D01*
X155335021Y-94128436D01*
X155381822Y-94139305D01*
X155409509Y-94146989D01*
X155415074Y-94149427D01*
X155420526Y-94165930D01*
X155424924Y-94203200D01*
X155428272Y-94256880D01*
X155430574Y-94322612D01*
X155431832Y-94396037D01*
X155432048Y-94472796D01*
X155431227Y-94548532D01*
X155429371Y-94618886D01*
X155426482Y-94679500D01*
X155422565Y-94726016D01*
X155417622Y-94754075D01*
X155414657Y-94759916D01*
X155396934Y-94766917D01*
X155359381Y-94776927D01*
X155306964Y-94788769D01*
X155244652Y-94801267D01*
X155222900Y-94805310D01*
X155118024Y-94824520D01*
X155035180Y-94839991D01*
X154971630Y-94852337D01*
X154924637Y-94862173D01*
X154891463Y-94870114D01*
X154869371Y-94876776D01*
X154855624Y-94882773D01*
X154847484Y-94888719D01*
X154846345Y-94889894D01*
X154834977Y-94908826D01*
X154817635Y-94945669D01*
X154796050Y-94995913D01*
X154771954Y-95055046D01*
X154747079Y-95118556D01*
X154723157Y-95181932D01*
X154701919Y-95240662D01*
X154685097Y-95290235D01*
X154674422Y-95326139D01*
X154671627Y-95343862D01*
X154671860Y-95344483D01*
X154681331Y-95358970D01*
X154702818Y-95390844D01*
X154734063Y-95436789D01*
X154772807Y-95493485D01*
X154816793Y-95557617D01*
X154829319Y-95575842D01*
X154873984Y-95641914D01*
X154913288Y-95702200D01*
X154945088Y-95753235D01*
X154967245Y-95791560D01*
X154977617Y-95813711D01*
X154978119Y-95816432D01*
X154969405Y-95830736D01*
X154945325Y-95859072D01*
X154908976Y-95898396D01*
X154863453Y-95945661D01*
X154811852Y-95997823D01*
X154757267Y-96051835D01*
X154702794Y-96104653D01*
X154651529Y-96153231D01*
X154606567Y-96194523D01*
X154571004Y-96225485D01*
X154547935Y-96243070D01*
X154541554Y-96245941D01*
X154526699Y-96239178D01*
X154496286Y-96220939D01*
X154455268Y-96194297D01*
X154423709Y-96172852D01*
X154366525Y-96133503D01*
X154298806Y-96087171D01*
X154230880Y-96040913D01*
X154194361Y-96016155D01*
X154070752Y-95932547D01*
X153966991Y-95988650D01*
X153919720Y-96013228D01*
X153879523Y-96032331D01*
X153852326Y-96043227D01*
X153845402Y-96044743D01*
X153837077Y-96033549D01*
X153820654Y-96001917D01*
X153797357Y-95952765D01*
X153768414Y-95889010D01*
X153735050Y-95813571D01*
X153698491Y-95729364D01*
X153659964Y-95639308D01*
X153620694Y-95546321D01*
X153581908Y-95453320D01*
X153544830Y-95363223D01*
X153510689Y-95278948D01*
X153480708Y-95203413D01*
X153456116Y-95139534D01*
X153438136Y-95090231D01*
X153427997Y-95058421D01*
X153426366Y-95047496D01*
X153439291Y-95033561D01*
X153467589Y-95010940D01*
X153505346Y-94984333D01*
X153508515Y-94982228D01*
X153606100Y-94904114D01*
X153684786Y-94812982D01*
X153743891Y-94711745D01*
X153782732Y-94603318D01*
X153800628Y-94490614D01*
X153796897Y-94376548D01*
X153770857Y-94264034D01*
X153721825Y-94155985D01*
X153707400Y-94132345D01*
X153632369Y-94036887D01*
X153543730Y-93960232D01*
X153444549Y-93902780D01*
X153337895Y-93864929D01*
X153226836Y-93847078D01*
X153114439Y-93849625D01*
X153003773Y-93872970D01*
X152897906Y-93917510D01*
X152799905Y-93983645D01*
X152769590Y-94010487D01*
X152692438Y-94094512D01*
X152636218Y-94182966D01*
X152597653Y-94282115D01*
X152576174Y-94380303D01*
X152570872Y-94490697D01*
X152588552Y-94601640D01*
X152627419Y-94709381D01*
X152685677Y-94810169D01*
X152761531Y-94900256D01*
X152853183Y-94975892D01*
X152865228Y-94983864D01*
X152903389Y-95009974D01*
X152932399Y-95032595D01*
X152946268Y-95047039D01*
X152946469Y-95047496D01*
X152943492Y-95063121D01*
X152931689Y-95098582D01*
X152912286Y-95150962D01*
X152886512Y-95217345D01*
X152855591Y-95294814D01*
X152820751Y-95380450D01*
X152783217Y-95471337D01*
X152744217Y-95564559D01*
X152704977Y-95657197D01*
X152666724Y-95746335D01*
X152630683Y-95829055D01*
X152598083Y-95902441D01*
X152570148Y-95963575D01*
X152548105Y-96009541D01*
X152533182Y-96037421D01*
X152527172Y-96044743D01*
X152508809Y-96039041D01*
X152474448Y-96023749D01*
X152430016Y-96001599D01*
X152405583Y-95988650D01*
X152301822Y-95932547D01*
X152178213Y-96016155D01*
X152115114Y-96058987D01*
X152046030Y-96106122D01*
X151981293Y-96150503D01*
X151948866Y-96172852D01*
X151903259Y-96203477D01*
X151864640Y-96227747D01*
X151838048Y-96242587D01*
X151829410Y-96245724D01*
X151816839Y-96237261D01*
X151789016Y-96213636D01*
X151748639Y-96177302D01*
X151698405Y-96130711D01*
X151641012Y-96076317D01*
X151604714Y-96041392D01*
X151541210Y-95978996D01*
X151486327Y-95923188D01*
X151442286Y-95876354D01*
X151411305Y-95840882D01*
X151395602Y-95819161D01*
X151394095Y-95814752D01*
X151401086Y-95797985D01*
X151420406Y-95764082D01*
X151449909Y-95716476D01*
X151487455Y-95658599D01*
X151530900Y-95593884D01*
X151543255Y-95575842D01*
X151588273Y-95510267D01*
X151628660Y-95451228D01*
X151662160Y-95402042D01*
X151686514Y-95366028D01*
X151699464Y-95346502D01*
X151700715Y-95344483D01*
X151698844Y-95328922D01*
X151688913Y-95294709D01*
X151672653Y-95246355D01*
X151651795Y-95188371D01*
X151628073Y-95125270D01*
X151603216Y-95061563D01*
X151578958Y-95001761D01*
X151557029Y-94950376D01*
X151539162Y-94911919D01*
X151527087Y-94890902D01*
X151526229Y-94889894D01*
X151518846Y-94883888D01*
X151506375Y-94877948D01*
X151486080Y-94871460D01*
X151455222Y-94863809D01*
X151411066Y-94854380D01*
X151350874Y-94842559D01*
X151271907Y-94827729D01*
X151171430Y-94809277D01*
X151149675Y-94805310D01*
X151085198Y-94792853D01*
X151028989Y-94780666D01*
X150986013Y-94769926D01*
X150961240Y-94761809D01*
X150957918Y-94759916D01*
X150952444Y-94743138D01*
X150947994Y-94705645D01*
X150944572Y-94651794D01*
X150942181Y-94585944D01*
X150940823Y-94512453D01*
X150940501Y-94435680D01*
X150941219Y-94359983D01*
X150942979Y-94289720D01*
X150945784Y-94229250D01*
X150949638Y-94182930D01*
X150954543Y-94155119D01*
X150957500Y-94149427D01*
X150973963Y-94143686D01*
X151011449Y-94134345D01*
X151066225Y-94122215D01*
X151134555Y-94108107D01*
X151212706Y-94092830D01*
X151255284Y-94084823D01*
X151336071Y-94069721D01*
X151408113Y-94056040D01*
X151467889Y-94044467D01*
X151511879Y-94035687D01*
X151536561Y-94030387D01*
X151540623Y-94029212D01*
X151547489Y-94015965D01*
X151562002Y-93984057D01*
X151582229Y-93938047D01*
X151606234Y-93882492D01*
X151632082Y-93821953D01*
X151657840Y-93760986D01*
X151681573Y-93704151D01*
X151701346Y-93656006D01*
X151715224Y-93621110D01*
X151721274Y-93604021D01*
X151721386Y-93603274D01*
X151714528Y-93589793D01*
X151695302Y-93558770D01*
X151665728Y-93513289D01*
X151627827Y-93456432D01*
X151583620Y-93391283D01*
X151557921Y-93353862D01*
X151511093Y-93285247D01*
X151469501Y-93222952D01*
X151435175Y-93170129D01*
X151410143Y-93129927D01*
X151396435Y-93105500D01*
X151394456Y-93100024D01*
X151402966Y-93087278D01*
X151426493Y-93060063D01*
X151462032Y-93021428D01*
X151506577Y-92974423D01*
X151557123Y-92922095D01*
X151610664Y-92867495D01*
X151664195Y-92813670D01*
X151714711Y-92763670D01*
X151759206Y-92720543D01*
X151794675Y-92687339D01*
X151818113Y-92667106D01*
X151825954Y-92662278D01*
X151838720Y-92669067D01*
X151869256Y-92688142D01*
X151914590Y-92717561D01*
X151971756Y-92755381D01*
X152037784Y-92799661D01*
X152087590Y-92833395D01*
X152339236Y-93004512D01*
X152548999Y-92918041D01*
X152758763Y-92831570D01*
X152815611Y-92530018D01*
X152872460Y-92228466D01*
X153500115Y-92228466D01*
X153556964Y-92530018D01*
G36*
X153556964Y-92530018D02*
G01*
X153613812Y-92831570D01*
X154033338Y-93004512D01*
X154284984Y-92833395D01*
X154355458Y-92785750D01*
X154419163Y-92743210D01*
X154473126Y-92707715D01*
X154514373Y-92681210D01*
X154539934Y-92665636D01*
X154546895Y-92662278D01*
X154559435Y-92670914D01*
X154586231Y-92694792D01*
X154624280Y-92730859D01*
X154670579Y-92776067D01*
X154722123Y-92827364D01*
X154775909Y-92881701D01*
X154828935Y-92936028D01*
X154878195Y-92987295D01*
X154920687Y-93032451D01*
X154953407Y-93068446D01*
X154973351Y-93092230D01*
X154978119Y-93100190D01*
X154971257Y-93114865D01*
X154952020Y-93147014D01*
X154922430Y-93193492D01*
X154884510Y-93251156D01*
X154840282Y-93316860D01*
X154814654Y-93354336D01*
X154767941Y-93422768D01*
X154726432Y-93484520D01*
X154692140Y-93536519D01*
X154667080Y-93575692D01*
X154653264Y-93598965D01*
X154651188Y-93603855D01*
X154655895Y-93617755D01*
X154668723Y-93650150D01*
X154687738Y-93696485D01*
X154711003Y-93752206D01*
X154736584Y-93812758D01*
X154762545Y-93873586D01*
X154786950Y-93930136D01*
X154807863Y-93977852D01*
X154823349Y-94012181D01*
X154831472Y-94028568D01*
X154831952Y-94029212D01*
X154844707Y-94032341D01*
X154878677Y-94039321D01*
X154930340Y-94049467D01*
X154996176Y-94062092D01*
X155072664Y-94076509D01*
X155117290Y-94084823D01*
X155199021Y-94100384D01*
X155272843Y-94115192D01*
X155335021Y-94128436D01*
X155381822Y-94139305D01*
X155409509Y-94146989D01*
X155415074Y-94149427D01*
X155420526Y-94165930D01*
X155424924Y-94203200D01*
X155428272Y-94256880D01*
X155430574Y-94322612D01*
X155431832Y-94396037D01*
X155432048Y-94472796D01*
X155431227Y-94548532D01*
X155429371Y-94618886D01*
X155426482Y-94679500D01*
X155422565Y-94726016D01*
X155417622Y-94754075D01*
X155414657Y-94759916D01*
X155396934Y-94766917D01*
X155359381Y-94776927D01*
X155306964Y-94788769D01*
X155244652Y-94801267D01*
X155222900Y-94805310D01*
X155118024Y-94824520D01*
X155035180Y-94839991D01*
X154971630Y-94852337D01*
X154924637Y-94862173D01*
X154891463Y-94870114D01*
X154869371Y-94876776D01*
X154855624Y-94882773D01*
X154847484Y-94888719D01*
X154846345Y-94889894D01*
X154834977Y-94908826D01*
X154817635Y-94945669D01*
X154796050Y-94995913D01*
X154771954Y-95055046D01*
X154747079Y-95118556D01*
X154723157Y-95181932D01*
X154701919Y-95240662D01*
X154685097Y-95290235D01*
X154674422Y-95326139D01*
X154671627Y-95343862D01*
X154671860Y-95344483D01*
X154681331Y-95358970D01*
X154702818Y-95390844D01*
X154734063Y-95436789D01*
X154772807Y-95493485D01*
X154816793Y-95557617D01*
X154829319Y-95575842D01*
X154873984Y-95641914D01*
X154913288Y-95702200D01*
X154945088Y-95753235D01*
X154967245Y-95791560D01*
X154977617Y-95813711D01*
X154978119Y-95816432D01*
X154969405Y-95830736D01*
X154945325Y-95859072D01*
X154908976Y-95898396D01*
X154863453Y-95945661D01*
X154811852Y-95997823D01*
X154757267Y-96051835D01*
X154702794Y-96104653D01*
X154651529Y-96153231D01*
X154606567Y-96194523D01*
X154571004Y-96225485D01*
X154547935Y-96243070D01*
X154541554Y-96245941D01*
X154526699Y-96239178D01*
X154496286Y-96220939D01*
X154455268Y-96194297D01*
X154423709Y-96172852D01*
X154366525Y-96133503D01*
X154298806Y-96087171D01*
X154230880Y-96040913D01*
X154194361Y-96016155D01*
X154070752Y-95932547D01*
X153966991Y-95988650D01*
X153919720Y-96013228D01*
X153879523Y-96032331D01*
X153852326Y-96043227D01*
X153845402Y-96044743D01*
X153837077Y-96033549D01*
X153820654Y-96001917D01*
X153797357Y-95952765D01*
X153768414Y-95889010D01*
X153735050Y-95813571D01*
X153698491Y-95729364D01*
X153659964Y-95639308D01*
X153620694Y-95546321D01*
X153581908Y-95453320D01*
X153544830Y-95363223D01*
X153510689Y-95278948D01*
X153480708Y-95203413D01*
X153456116Y-95139534D01*
X153438136Y-95090231D01*
X153427997Y-95058421D01*
X153426366Y-95047496D01*
X153439291Y-95033561D01*
X153467589Y-95010940D01*
X153505346Y-94984333D01*
X153508515Y-94982228D01*
X153606100Y-94904114D01*
X153684786Y-94812982D01*
X153743891Y-94711745D01*
X153782732Y-94603318D01*
X153800628Y-94490614D01*
X153796897Y-94376548D01*
X153770857Y-94264034D01*
X153721825Y-94155985D01*
X153707400Y-94132345D01*
X153632369Y-94036887D01*
X153543730Y-93960232D01*
X153444549Y-93902780D01*
X153337895Y-93864929D01*
X153226836Y-93847078D01*
X153114439Y-93849625D01*
X153003773Y-93872970D01*
X152897906Y-93917510D01*
X152799905Y-93983645D01*
X152769590Y-94010487D01*
X152692438Y-94094512D01*
X152636218Y-94182966D01*
X152597653Y-94282115D01*
X152576174Y-94380303D01*
X152570872Y-94490697D01*
X152588552Y-94601640D01*
X152627419Y-94709381D01*
X152685677Y-94810169D01*
X152761531Y-94900256D01*
X152853183Y-94975892D01*
X152865228Y-94983864D01*
X152903389Y-95009974D01*
X152932399Y-95032595D01*
X152946268Y-95047039D01*
X152946469Y-95047496D01*
X152943492Y-95063121D01*
X152931689Y-95098582D01*
X152912286Y-95150962D01*
X152886512Y-95217345D01*
X152855591Y-95294814D01*
X152820751Y-95380450D01*
X152783217Y-95471337D01*
X152744217Y-95564559D01*
X152704977Y-95657197D01*
X152666724Y-95746335D01*
X152630683Y-95829055D01*
X152598083Y-95902441D01*
X152570148Y-95963575D01*
X152548105Y-96009541D01*
X152533182Y-96037421D01*
X152527172Y-96044743D01*
X152508809Y-96039041D01*
X152474448Y-96023749D01*
X152430016Y-96001599D01*
X152405583Y-95988650D01*
X152301822Y-95932547D01*
X152178213Y-96016155D01*
X152115114Y-96058987D01*
X152046030Y-96106122D01*
X151981293Y-96150503D01*
X151948866Y-96172852D01*
X151903259Y-96203477D01*
X151864640Y-96227747D01*
X151838048Y-96242587D01*
X151829410Y-96245724D01*
X151816839Y-96237261D01*
X151789016Y-96213636D01*
X151748639Y-96177302D01*
X151698405Y-96130711D01*
X151641012Y-96076317D01*
X151604714Y-96041392D01*
X151541210Y-95978996D01*
X151486327Y-95923188D01*
X151442286Y-95876354D01*
X151411305Y-95840882D01*
X151395602Y-95819161D01*
X151394095Y-95814752D01*
X151401086Y-95797985D01*
X151420406Y-95764082D01*
X151449909Y-95716476D01*
X151487455Y-95658599D01*
X151530900Y-95593884D01*
X151543255Y-95575842D01*
X151588273Y-95510267D01*
X151628660Y-95451228D01*
X151662160Y-95402042D01*
X151686514Y-95366028D01*
X151699464Y-95346502D01*
X151700715Y-95344483D01*
X151698844Y-95328922D01*
X151688913Y-95294709D01*
X151672653Y-95246355D01*
X151651795Y-95188371D01*
X151628073Y-95125270D01*
X151603216Y-95061563D01*
X151578958Y-95001761D01*
X151557029Y-94950376D01*
X151539162Y-94911919D01*
X151527087Y-94890902D01*
X151526229Y-94889894D01*
X151518846Y-94883888D01*
X151506375Y-94877948D01*
X151486080Y-94871460D01*
X151455222Y-94863809D01*
X151411066Y-94854380D01*
X151350874Y-94842559D01*
X151271907Y-94827729D01*
X151171430Y-94809277D01*
X151149675Y-94805310D01*
X151085198Y-94792853D01*
X151028989Y-94780666D01*
X150986013Y-94769926D01*
X150961240Y-94761809D01*
X150957918Y-94759916D01*
X150952444Y-94743138D01*
X150947994Y-94705645D01*
X150944572Y-94651794D01*
X150942181Y-94585944D01*
X150940823Y-94512453D01*
X150940501Y-94435680D01*
X150941219Y-94359983D01*
X150942979Y-94289720D01*
X150945784Y-94229250D01*
X150949638Y-94182930D01*
X150954543Y-94155119D01*
X150957500Y-94149427D01*
X150973963Y-94143686D01*
X151011449Y-94134345D01*
X151066225Y-94122215D01*
X151134555Y-94108107D01*
X151212706Y-94092830D01*
X151255284Y-94084823D01*
X151336071Y-94069721D01*
X151408113Y-94056040D01*
X151467889Y-94044467D01*
X151511879Y-94035687D01*
X151536561Y-94030387D01*
X151540623Y-94029212D01*
X151547489Y-94015965D01*
X151562002Y-93984057D01*
X151582229Y-93938047D01*
X151606234Y-93882492D01*
X151632082Y-93821953D01*
X151657840Y-93760986D01*
X151681573Y-93704151D01*
X151701346Y-93656006D01*
X151715224Y-93621110D01*
X151721274Y-93604021D01*
X151721386Y-93603274D01*
X151714528Y-93589793D01*
X151695302Y-93558770D01*
X151665728Y-93513289D01*
X151627827Y-93456432D01*
X151583620Y-93391283D01*
X151557921Y-93353862D01*
X151511093Y-93285247D01*
X151469501Y-93222952D01*
X151435175Y-93170129D01*
X151410143Y-93129927D01*
X151396435Y-93105500D01*
X151394456Y-93100024D01*
X151402966Y-93087278D01*
X151426493Y-93060063D01*
X151462032Y-93021428D01*
X151506577Y-92974423D01*
X151557123Y-92922095D01*
X151610664Y-92867495D01*
X151664195Y-92813670D01*
X151714711Y-92763670D01*
X151759206Y-92720543D01*
X151794675Y-92687339D01*
X151818113Y-92667106D01*
X151825954Y-92662278D01*
X151838720Y-92669067D01*
X151869256Y-92688142D01*
X151914590Y-92717561D01*
X151971756Y-92755381D01*
X152037784Y-92799661D01*
X152087590Y-92833395D01*
X152339236Y-93004512D01*
X152548999Y-92918041D01*
X152758763Y-92831570D01*
X152815611Y-92530018D01*
X152872460Y-92228466D01*
X153500115Y-92228466D01*
X153556964Y-92530018D01*
G37*
D10*
%TO.C,C25*%
X144886000Y-96741252D02*
X144886000Y-95318748D01*
X146706000Y-96741252D02*
X146706000Y-95318748D01*
%TO.C,R20*%
X141137621Y-89536000D02*
X140802379Y-89536000D01*
X141137621Y-90296000D02*
X140802379Y-90296000D01*
%TO.C,R5*%
X144185621Y-90679000D02*
X143850379Y-90679000D01*
X144185621Y-91439000D02*
X143850379Y-91439000D01*
%TO.C,C11*%
X156856165Y-77618000D02*
X157087835Y-77618000D01*
X156856165Y-78338000D02*
X157087835Y-78338000D01*
%TO.C,C17*%
X162725835Y-91330000D02*
X162494165Y-91330000D01*
X162725835Y-92050000D02*
X162494165Y-92050000D01*
%TO.C,TP1*%
X141162000Y-78613000D02*
G75*
G02*
X139762000Y-78613000I-700000J0D01*
G01*
X139762000Y-78613000D02*
G75*
G02*
X141162000Y-78613000I700000J0D01*
G01*
%TO.C,C30*%
X124595252Y-86974000D02*
X123172748Y-86974000D01*
X124595252Y-88794000D02*
X123172748Y-88794000D01*
D12*
%TO.C,TV1*%
X162100000Y-95700000D02*
X162368900Y-95700000D01*
X162100000Y-100300000D02*
X162100000Y-95700000D01*
X162100000Y-100300000D02*
X162368900Y-100300000D01*
D13*
X163250000Y-97430000D02*
X163549000Y-98002000D01*
X163250000Y-97430000D02*
X163850000Y-97430000D01*
X163260000Y-98590000D02*
X163549000Y-98002000D01*
X163260000Y-98590000D02*
X163860000Y-98590000D01*
X163549000Y-98002000D02*
X163168000Y-98002000D01*
X163549000Y-98002000D02*
X163930000Y-98002000D01*
X163560000Y-98760000D02*
X163560000Y-97270000D01*
X163850000Y-97460000D02*
X163549000Y-98002000D01*
X163860000Y-98530000D02*
X163549000Y-98002000D01*
D12*
X164631100Y-95700000D02*
X164900000Y-95700000D01*
X164631100Y-100300000D02*
X164900000Y-100300000D01*
X164900000Y-100300000D02*
X164900000Y-95700000D01*
D10*
%TO.C,R24*%
X156804379Y-78741000D02*
X157139621Y-78741000D01*
X156804379Y-79501000D02*
X157139621Y-79501000D01*
%TO.C,R7*%
X139994621Y-74296000D02*
X139659379Y-74296000D01*
X139994621Y-75056000D02*
X139659379Y-75056000D01*
D12*
%TO.C,X1*%
X156550000Y-82669000D02*
X156550000Y-82432000D01*
X156550000Y-83868000D02*
X156550000Y-83631000D01*
X156565000Y-84903000D02*
X157865000Y-84903000D01*
X157835000Y-81397000D02*
X156535000Y-81397000D01*
X157850000Y-82669000D02*
X157850000Y-82432000D01*
X157850000Y-83868000D02*
X157850000Y-83631000D01*
D10*
%TO.C,C36*%
X158288748Y-96513333D02*
X159711252Y-96513333D01*
X158288748Y-98333333D02*
X159711252Y-98333333D01*
%TO.C,R10*%
X160314621Y-75566000D02*
X159979379Y-75566000D01*
X160314621Y-76326000D02*
X159979379Y-76326000D01*
%TO.C,C33*%
X124860267Y-85342000D02*
X124567733Y-85342000D01*
X124860267Y-86362000D02*
X124567733Y-86362000D01*
%TO.C,C31*%
X133648534Y-80944651D02*
X133812349Y-81108466D01*
X134157651Y-80435534D02*
X134321466Y-80599349D01*
%TO.C,R4*%
X122595621Y-90425000D02*
X122260379Y-90425000D01*
X122595621Y-91185000D02*
X122260379Y-91185000D01*
%TO.C,R12*%
X165267621Y-92457000D02*
X164932379Y-92457000D01*
X165267621Y-93217000D02*
X164932379Y-93217000D01*
%TO.C,TP7*%
X164010000Y-76180000D02*
G75*
G02*
X162610000Y-76180000I-700000J0D01*
G01*
X162610000Y-76180000D02*
G75*
G02*
X164010000Y-76180000I700000J0D01*
G01*
%TO.C,C35*%
X137285000Y-76092267D02*
X137285000Y-75799733D01*
X138305000Y-76092267D02*
X138305000Y-75799733D01*
%TO.C,C14*%
X160031165Y-76729000D02*
X160262835Y-76729000D01*
X160031165Y-77449000D02*
X160262835Y-77449000D01*
D11*
%TO.C,D6*%
X158932000Y-83566000D02*
G75*
G02*
X158832000Y-83566000I-50000J0D01*
G01*
X158832000Y-83566000D02*
G75*
G02*
X158932000Y-83566000I50000J0D01*
G01*
D10*
%TO.C,C15*%
X128289267Y-81024000D02*
X127996733Y-81024000D01*
X128289267Y-82044000D02*
X127996733Y-82044000D01*
%TO.C,C26*%
X147426000Y-96741252D02*
X147426000Y-95318748D01*
X149246000Y-96741252D02*
X149246000Y-95318748D01*
%TO.C,R16*%
X143850379Y-89536000D02*
X144185621Y-89536000D01*
X143850379Y-90296000D02*
X144185621Y-90296000D01*
D13*
%TO.C,Q8*%
X127879000Y-99818000D02*
X127879000Y-104818000D01*
X132979000Y-99818000D02*
X132979000Y-104818000D01*
D12*
%TO.C,U12*%
X137857500Y-72898000D02*
X137857500Y-70979000D01*
X138076500Y-72898000D02*
X138038500Y-72898000D01*
X139076500Y-72898000D02*
X137857500Y-72898000D01*
X139076500Y-72898000D02*
X139038500Y-72898000D01*
X139288500Y-68647000D02*
X140826500Y-68647000D01*
X140076500Y-72898000D02*
X140038500Y-72898000D01*
X141037500Y-72947000D02*
X142257500Y-72947000D01*
X142257500Y-72947000D02*
X142257500Y-70978000D01*
D10*
X141367500Y-73787000D02*
X141113500Y-73406000D01*
X141621500Y-73406000D01*
X141367500Y-73787000D01*
G36*
X141367500Y-73787000D02*
G01*
X141113500Y-73406000D01*
X141621500Y-73406000D01*
X141367500Y-73787000D01*
G37*
%TO.C,TP6*%
X129986000Y-78613000D02*
G75*
G02*
X128586000Y-78613000I-700000J0D01*
G01*
X128586000Y-78613000D02*
G75*
G02*
X129986000Y-78613000I700000J0D01*
G01*
%TO.C,R3*%
X162561000Y-83352621D02*
X162561000Y-83017379D01*
X163321000Y-83352621D02*
X163321000Y-83017379D01*
%TO.C,C6*%
X152007835Y-89556000D02*
X151776165Y-89556000D01*
X152007835Y-90276000D02*
X151776165Y-90276000D01*
%TO.C,C37*%
X158288748Y-99236667D02*
X159711252Y-99236667D01*
X158288748Y-101056667D02*
X159711252Y-101056667D01*
%TO.C,R19*%
X135551000Y-96723737D02*
X135551000Y-95276263D01*
X138261000Y-96723737D02*
X138261000Y-95276263D01*
%TO.C,C34*%
X135634000Y-76092267D02*
X135634000Y-75799733D01*
X136654000Y-76092267D02*
X136654000Y-75799733D01*
D13*
%TO.C,Q10*%
X133594000Y-99818000D02*
X133594000Y-104818000D01*
X138694000Y-99818000D02*
X138694000Y-104818000D01*
D10*
%TO.C,C29*%
X158288748Y-93790000D02*
X159711252Y-93790000D01*
X158288748Y-95610000D02*
X159711252Y-95610000D01*
D11*
%TO.C,D1*%
X158932000Y-78486000D02*
G75*
G02*
X158832000Y-78486000I-50000J0D01*
G01*
X158832000Y-78486000D02*
G75*
G02*
X158932000Y-78486000I50000J0D01*
G01*
%TO.C,D2*%
X158932000Y-81026000D02*
G75*
G02*
X158832000Y-81026000I-50000J0D01*
G01*
X158832000Y-81026000D02*
G75*
G02*
X158932000Y-81026000I50000J0D01*
G01*
D10*
%TO.C,TP3*%
X136590000Y-78613000D02*
G75*
G02*
X135190000Y-78613000I-700000J0D01*
G01*
X135190000Y-78613000D02*
G75*
G02*
X136590000Y-78613000I700000J0D01*
G01*
%TO.C,R14*%
X125135621Y-90425000D02*
X124800379Y-90425000D01*
X125135621Y-91185000D02*
X124800379Y-91185000D01*
%TO.C,R6*%
X146263379Y-90679000D02*
X146598621Y-90679000D01*
X146263379Y-91439000D02*
X146598621Y-91439000D01*
%TO.C,C24*%
X141965000Y-96741252D02*
X141965000Y-95318748D01*
X143785000Y-96741252D02*
X143785000Y-95318748D01*
D12*
%TO.C,U10*%
X143386250Y-72898000D02*
X143386250Y-70979000D01*
X143605250Y-72898000D02*
X143567250Y-72898000D01*
X144605250Y-72898000D02*
X143386250Y-72898000D01*
X144605250Y-72898000D02*
X144567250Y-72898000D01*
X144817250Y-68647000D02*
X146355250Y-68647000D01*
X145605250Y-72898000D02*
X145567250Y-72898000D01*
X146566250Y-72947000D02*
X147786250Y-72947000D01*
X147786250Y-72947000D02*
X147786250Y-70978000D01*
D10*
X146896250Y-73787000D02*
X146642250Y-73406000D01*
X147150250Y-73406000D01*
X146896250Y-73787000D01*
G36*
X146896250Y-73787000D02*
G01*
X146642250Y-73406000D01*
X147150250Y-73406000D01*
X146896250Y-73787000D01*
G37*
%TO.C,R15*%
X159979379Y-84329000D02*
X160314621Y-84329000D01*
X159979379Y-85089000D02*
X160314621Y-85089000D01*
D15*
%TO.C,U7*%
X127657772Y-86360000D02*
X128008497Y-86710725D01*
X128008497Y-86009275D02*
X127657772Y-86360000D01*
X132364275Y-81653497D02*
X132715000Y-81302772D01*
X132715000Y-81302772D02*
X133065725Y-81653497D01*
X132715000Y-91417228D02*
X132364275Y-91066503D01*
X133065725Y-91066503D02*
X132715000Y-91417228D01*
X137421503Y-86710725D02*
X137772228Y-86360000D01*
X137772228Y-86360000D02*
X137421503Y-86009275D01*
D16*
X127988745Y-87272168D02*
G75*
G02*
X127838745Y-87272168I-75000J0D01*
G01*
X127838745Y-87272168D02*
G75*
G02*
X127988745Y-87272168I75000J0D01*
G01*
D10*
%TO.C,C1*%
X148395835Y-73427000D02*
X148164165Y-73427000D01*
X148395835Y-74147000D02*
X148164165Y-74147000D01*
%TO.C,R13*%
X124800379Y-89282000D02*
X125135621Y-89282000D01*
X124800379Y-90042000D02*
X125135621Y-90042000D01*
D12*
%TO.C,CN2*%
X164849000Y-75777000D02*
X166720000Y-75777000D01*
X164849000Y-77019000D02*
X164849000Y-75777000D01*
X164849000Y-78019000D02*
X164849000Y-77981000D01*
X164849000Y-79019000D02*
X164849000Y-78981000D01*
X164849000Y-80019000D02*
X164849000Y-79981000D01*
X164849000Y-81019000D02*
X164849000Y-80981000D01*
X164849000Y-82019000D02*
X164849000Y-81981000D01*
X164849000Y-84223000D02*
X164849000Y-82981000D01*
X164849000Y-84223000D02*
X166720000Y-84223000D01*
X169294000Y-77231000D02*
X169294000Y-82769000D01*
X164468000Y-83334000D02*
G75*
G02*
X164214000Y-83334000I-127000J0D01*
G01*
X164214000Y-83334000D02*
G75*
G02*
X164468000Y-83334000I127000J0D01*
G01*
X164468000Y-83334000D02*
G75*
G02*
X164214000Y-83334000I-127000J0D01*
G01*
X164214000Y-83334000D02*
G75*
G02*
X164468000Y-83334000I127000J0D01*
G01*
D10*
%TO.C,C32*%
X138832000Y-83681835D02*
X138832000Y-83450165D01*
X139552000Y-83681835D02*
X139552000Y-83450165D01*
D15*
%TO.C,U1*%
X155832000Y-87263000D02*
X158874000Y-87263000D01*
X155832000Y-92315000D02*
X155832000Y-87263000D01*
X158874000Y-87263000D02*
X158874000Y-92315000D01*
X158874000Y-92315000D02*
X155832000Y-92315000D01*
D17*
X154732000Y-87137000D02*
G75*
G02*
X154430000Y-87137000I-151000J0D01*
G01*
X154430000Y-87137000D02*
G75*
G02*
X154732000Y-87137000I151000J0D01*
G01*
X156734000Y-87884000D02*
G75*
G02*
X156434000Y-87884000I-150000J0D01*
G01*
X156434000Y-87884000D02*
G75*
G02*
X156734000Y-87884000I150000J0D01*
G01*
D10*
%TO.C,C12*%
X157087835Y-75332000D02*
X156856165Y-75332000D01*
X157087835Y-76052000D02*
X156856165Y-76052000D01*
%TO.C,C3*%
X154293835Y-75586000D02*
X154062165Y-75586000D01*
X154293835Y-76306000D02*
X154062165Y-76306000D01*
%TO.C,C21*%
X122737200Y-94818252D02*
X122737200Y-93395748D01*
X124557200Y-94818252D02*
X124557200Y-93395748D01*
%TO.C,C28*%
X127740000Y-90570267D02*
X127740000Y-90277733D01*
X128760000Y-90570267D02*
X128760000Y-90277733D01*
%TO.C,R11*%
X159979379Y-81789000D02*
X160314621Y-81789000D01*
X159979379Y-82549000D02*
X160314621Y-82549000D01*
D15*
%TO.C,L2*%
X121299000Y-76722000D02*
X121299000Y-81774000D01*
X121299000Y-81774000D02*
X121563000Y-81774000D01*
X121563000Y-76722000D02*
X121299000Y-76722000D01*
X126087000Y-76722000D02*
X126351000Y-76722000D01*
X126351000Y-76722000D02*
X126351000Y-81774000D01*
X126351000Y-81774000D02*
X126087000Y-81774000D01*
D10*
%TO.C,R25*%
X159979379Y-74423000D02*
X160314621Y-74423000D01*
X159979379Y-75183000D02*
X160314621Y-75183000D01*
%TO.C,R21*%
X140802379Y-90679000D02*
X141137621Y-90679000D01*
X140802379Y-91439000D02*
X141137621Y-91439000D01*
%TO.C,C4*%
X143371835Y-75332000D02*
X143140165Y-75332000D01*
X143371835Y-76052000D02*
X143140165Y-76052000D01*
D13*
%TO.C,Q11*%
X144770000Y-104862000D02*
X144770000Y-99862000D01*
X149870000Y-104862000D02*
X149870000Y-99862000D01*
D10*
%TO.C,C5*%
X141974835Y-86508000D02*
X141743165Y-86508000D01*
X141974835Y-87228000D02*
X141743165Y-87228000D01*
%TO.C,C27*%
X126390000Y-90181165D02*
X126390000Y-90412835D01*
X127110000Y-90181165D02*
X127110000Y-90412835D01*
%TO.C,U8*%
X143607000Y-76805000D02*
X143607000Y-77755000D01*
X143607000Y-87025000D02*
X143607000Y-86075000D01*
X144557000Y-76805000D02*
X143607000Y-76805000D01*
X144557000Y-87025000D02*
X143607000Y-87025000D01*
X152877000Y-76805000D02*
X153827000Y-76805000D01*
X152877000Y-87025000D02*
X153827000Y-87025000D01*
X153827000Y-76805000D02*
X153827000Y-77755000D01*
X153827000Y-87025000D02*
X153827000Y-86075000D01*
X154782000Y-86545000D02*
X154102000Y-86545000D01*
X154442000Y-86075000D01*
X154782000Y-86545000D01*
G36*
X154782000Y-86545000D02*
G01*
X154102000Y-86545000D01*
X154442000Y-86075000D01*
X154782000Y-86545000D01*
G37*
%TD*%
M02*
