%TF.GenerationSoftware,KiCad,Pcbnew,8.0.4-8.0.4-0~ubuntu24.04.1*%
%TF.CreationDate,2024-08-03T15:04:24+08:00*%
%TF.ProjectId,CawDrive,43617744-7269-4766-952e-6b696361645f,rev?*%
%TF.SameCoordinates,Original*%
%TF.FileFunction,Soldermask,Bot*%
%TF.FilePolarity,Negative*%
%FSLAX46Y46*%
G04 Gerber Fmt 4.6, Leading zero omitted, Abs format (unit mm)*
G04 Created by KiCad (PCBNEW 8.0.4-8.0.4-0~ubuntu24.04.1) date 2024-08-03 15:04:24*
%MOMM*%
%LPD*%
G01*
G04 APERTURE LIST*
G04 Aperture macros list*
%AMRoundRect*
0 Rectangle with rounded corners*
0 $1 Rounding radius*
0 $2 $3 $4 $5 $6 $7 $8 $9 X,Y pos of 4 corners*
0 Add a 4 corners polygon primitive as box body*
4,1,4,$2,$3,$4,$5,$6,$7,$8,$9,$2,$3,0*
0 Add four circle primitives for the rounded corners*
1,1,$1+$1,$2,$3*
1,1,$1+$1,$4,$5*
1,1,$1+$1,$6,$7*
1,1,$1+$1,$8,$9*
0 Add four rect primitives between the rounded corners*
20,1,$1+$1,$2,$3,$4,$5,0*
20,1,$1+$1,$4,$5,$6,$7,0*
20,1,$1+$1,$6,$7,$8,$9,0*
20,1,$1+$1,$8,$9,$2,$3,0*%
G04 Aperture macros list end*
%ADD10RoundRect,0.750000X-0.750000X-0.750000X0.750000X-0.750000X0.750000X0.750000X-0.750000X0.750000X0*%
%ADD11C,0.800000*%
%ADD12C,5.000000*%
%ADD13RoundRect,0.155000X-0.155000X0.212500X-0.155000X-0.212500X0.155000X-0.212500X0.155000X0.212500X0*%
%ADD14R,1.700000X0.400000*%
G04 APERTURE END LIST*
D10*
%TO.C,H8*%
X160000000Y-96000000D03*
%TD*%
D11*
%TO.C,H2*%
X157125000Y-71000000D03*
X157674175Y-69674175D03*
X157674175Y-72325825D03*
X159000000Y-69125000D03*
D12*
X159000000Y-71000000D03*
D11*
X159000000Y-72875000D03*
X160325825Y-69674175D03*
X160325825Y-72325825D03*
X160875000Y-71000000D03*
%TD*%
D10*
%TO.C,H6*%
X141000000Y-108000000D03*
%TD*%
D11*
%TO.C,H4*%
X121125000Y-107000000D03*
X121674175Y-105674175D03*
X121674175Y-108325825D03*
X123000000Y-105125000D03*
D12*
X123000000Y-107000000D03*
D11*
X123000000Y-108875000D03*
X124325825Y-105674175D03*
X124325825Y-108325825D03*
X124875000Y-107000000D03*
%TD*%
D10*
%TO.C,H7*%
X151000000Y-108000000D03*
%TD*%
%TO.C,H9*%
X160000000Y-102000000D03*
%TD*%
D11*
%TO.C,H1*%
X121125000Y-71000000D03*
X121674175Y-69674175D03*
X121674175Y-72325825D03*
X123000000Y-69125000D03*
D12*
X123000000Y-71000000D03*
D11*
X123000000Y-72875000D03*
X124325825Y-69674175D03*
X124325825Y-72325825D03*
X124875000Y-71000000D03*
%TD*%
%TO.C,H3*%
X157125000Y-107000000D03*
X157674175Y-105674175D03*
X157674175Y-108325825D03*
X159000000Y-105125000D03*
D12*
X159000000Y-107000000D03*
D11*
X159000000Y-108875000D03*
X160325825Y-105674175D03*
X160325825Y-108325825D03*
X160875000Y-107000000D03*
%TD*%
D10*
%TO.C,H5*%
X131000000Y-108000000D03*
%TD*%
D13*
%TO.C,C17*%
X136525000Y-87951500D03*
X136525000Y-89086500D03*
%TD*%
D14*
%TO.C,U1*%
X143800000Y-87050000D03*
X143800000Y-87700000D03*
X143800000Y-88350000D03*
X143800000Y-89000000D03*
X143800000Y-89650000D03*
X143800000Y-90300000D03*
X143800000Y-90950000D03*
X138200000Y-90950000D03*
X138200000Y-90300000D03*
X138200000Y-89650000D03*
X138200000Y-89000000D03*
X138200000Y-88350000D03*
X138200000Y-87700000D03*
X138200000Y-87050000D03*
%TD*%
M02*
