M48
; DRILL file {KiCad 9.0.1} date 2025-04-08T03:51:18+0800
; FORMAT={-:-/ absolute / metric / decimal}
; #@! TF.CreationDate,2025-04-08T03:51:18+08:00
; #@! TF.GenerationSoftware,Kicad,Pcbnew,9.0.1
; #@! TF.FileFunction,Plated,1,4,PTH
FMAT,2
METRIC
; #@! TA.AperFunction,Plated,PTH,ViaDrill
T1C0.300
; #@! TA.AperFunction,Plated,PTH,ViaDrill
T2C0.400
; #@! TA.AperFunction,Plated,PTH,ComponentDrill
T3C0.500
; #@! TA.AperFunction,Plated,PTH,ComponentDrill
T4C1.000
; #@! TA.AperFunction,Plated,PTH,ComponentDrill
T5C2.500
%
G90
G05
T1
X120.65Y-93.726
X121.539Y-93.726
X122.263Y-90.081
X122.5Y-102.75
X122.555Y-98.425
X122.555Y-99.441
X122.555Y-100.457
X122.555Y-101.473
X122.555Y-103.759
X123.13Y-84.74
X123.14Y-83.83
X123.317Y-93.726
X123.571Y-89.662
X123.571Y-90.805
X123.825Y-98.425
X123.825Y-99.441
X123.825Y-100.457
X123.825Y-101.473
X123.825Y-102.743
X123.825Y-103.759
X124.206Y-93.726
X125.0Y-73.85
X125.095Y-93.726
X125.095Y-98.425
X125.095Y-99.441
X125.095Y-100.457
X125.095Y-101.473
X125.095Y-102.743
X125.095Y-103.759
X125.576Y-85.852
X125.984Y-93.726
X126.27Y-79.23
X126.365Y-98.425
X126.365Y-99.441
X126.365Y-100.457
X126.365Y-101.473
X127.381Y-76.309
X127.39Y-72.32
X128.524Y-103.378
X128.524Y-104.394
X128.905Y-80.01
X129.282Y-89.498
X129.54Y-86.36
X129.54Y-97.155
X129.54Y-98.044
X129.667Y-80.01
X129.794Y-103.378
X129.794Y-104.394
X130.048Y-93.98
X130.048Y-94.742
X130.175Y-85.725
X130.175Y-86.995
X130.302Y-97.155
X130.302Y-98.044
X130.429Y-80.01
X130.81Y-85.09
X130.81Y-86.36
X130.81Y-87.63
X130.81Y-93.98
X130.81Y-94.742
X131.064Y-98.044
X131.064Y-103.378
X131.064Y-104.394
X131.18Y-80.047
X131.445Y-84.455
X131.445Y-85.725
X131.445Y-86.995
X131.445Y-88.265
X131.699Y-93.98
X131.699Y-94.742
X131.826Y-97.155
X131.826Y-98.044
X131.93Y-79.987
X132.08Y-83.82
X132.08Y-85.09
X132.08Y-86.36
X132.08Y-87.63
X132.08Y-88.9
X132.334Y-103.378
X132.334Y-104.394
X132.461Y-93.98
X132.461Y-94.742
X132.588Y-97.155
X132.588Y-98.044
X132.715Y-83.185
X132.715Y-84.455
X132.715Y-85.725
X132.715Y-86.995
X132.715Y-88.265
X132.715Y-89.535
X132.877Y-79.804
X133.1Y-74.498
X133.35Y-83.82
X133.35Y-85.09
X133.35Y-86.36
X133.35Y-87.63
X133.35Y-88.9
X133.664Y-91.724
X133.978Y-91.04
X133.985Y-71.628
X133.985Y-84.455
X133.985Y-85.725
X133.985Y-86.995
X133.985Y-88.265
X134.239Y-103.378
X134.239Y-104.394
X134.62Y-85.09
X134.62Y-86.36
X134.62Y-87.63
X135.001Y-70.993
X135.001Y-77.698
X135.042Y-91.1
X135.255Y-85.725
X135.255Y-86.995
X135.382Y-97.155
X135.382Y-97.917
X135.415Y-82.645
X135.509Y-103.378
X135.509Y-104.394
X135.574Y-91.632
X135.89Y-86.36
X135.89Y-93.98
X135.89Y-94.742
X136.144Y-97.155
X136.144Y-97.917
X136.182Y-82.632
X136.652Y-93.98
X136.652Y-94.742
X136.779Y-103.378
X136.779Y-104.394
X136.906Y-97.155
X136.906Y-97.917
X136.973Y-82.593
X136.983Y-84.613
X137.16Y-75.692
X137.16Y-76.454
X137.16Y-77.089
X137.541Y-93.98
X137.541Y-94.742
X137.637Y-77.671
X137.743Y-82.576
X137.795Y-97.155
X137.795Y-97.917
X138.049Y-103.378
X138.049Y-104.394
X138.303Y-94.742
X139.573Y-71.628
X139.58Y-89.33
X139.59Y-88.63
X139.7Y-93.98
X139.7Y-94.742
X139.827Y-100.203
X139.827Y-101.219
X139.827Y-102.235
X139.827Y-103.251
X139.827Y-104.521
X139.827Y-105.664
X140.059Y-85.361
X140.462Y-93.98
X140.462Y-94.742
X140.56Y-84.148
X140.589Y-71.628
X140.589Y-86.868
X140.589Y-90.424
X140.65Y-85.894
X141.097Y-100.203
X141.097Y-101.219
X141.097Y-102.235
X141.097Y-103.251
X141.097Y-104.521
X141.097Y-105.664
X141.129Y-84.688
X141.224Y-90.424
X141.224Y-93.98
X141.224Y-94.742
X141.265Y-83.884
X141.351Y-86.868
X141.986Y-74.295
X141.986Y-93.98
X141.986Y-94.742
X142.367Y-100.203
X142.367Y-101.219
X142.367Y-102.235
X142.367Y-103.251
X142.367Y-104.521
X142.367Y-105.664
X142.748Y-93.98
X142.748Y-94.742
X142.875Y-76.2
X143.51Y-93.98
X143.51Y-94.742
X143.637Y-100.203
X143.637Y-101.219
X143.637Y-102.235
X143.637Y-103.251
X144.018Y-76.2
X144.27Y-86.103
X144.396Y-80.236
X144.526Y-78.105
X144.59Y-78.855
X145.08Y-71.66
X145.149Y-80.236
X145.161Y-93.98
X145.161Y-94.742
X145.302Y-79.171
X145.415Y-100.203
X145.415Y-101.219
X145.415Y-102.235
X145.415Y-103.251
X145.415Y-104.521
X145.415Y-105.664
X145.896Y-80.321
X145.923Y-93.98
X145.923Y-94.742
X146.004Y-82.744
X146.13Y-71.63
X146.53Y-82.206
X146.622Y-83.834
X146.685Y-93.98
X146.685Y-94.742
X146.685Y-100.203
X146.685Y-101.219
X146.685Y-102.235
X146.685Y-103.251
X146.685Y-104.521
X146.685Y-105.664
X146.91Y-82.98
X147.066Y-89.916
X147.066Y-91.059
X147.447Y-93.98
X147.447Y-94.742
X147.955Y-100.203
X147.955Y-101.219
X147.955Y-102.235
X147.955Y-103.251
X147.955Y-104.521
X147.955Y-105.664
X147.967Y-82.206
X148.209Y-93.98
X148.209Y-94.742
X148.758Y-80.685
X148.971Y-93.98
X148.971Y-94.742
X148.985Y-85.902
X149.1Y-82.206
X149.225Y-100.203
X149.225Y-101.219
X149.225Y-102.235
X149.225Y-103.251
X149.29Y-80.153
X150.015Y-79.951
X150.495Y-91.04
X150.97Y-85.702
X151.257Y-101.473
X151.602Y-85.123
X152.527Y-101.473
X152.656Y-82.934
X153.26Y-83.382
X153.27Y-88.63
X153.289Y-97.282
X153.289Y-97.917
X153.364Y-89.847
X153.416Y-94.107
X153.416Y-94.742
X153.797Y-101.473
X154.051Y-94.107
X154.051Y-94.742
X154.051Y-97.282
X154.051Y-97.917
X154.686Y-94.107
X154.686Y-94.742
X154.813Y-86.233
X154.813Y-97.282
X154.813Y-97.917
X154.94Y-101.473
X155.321Y-94.107
X155.321Y-94.742
X155.575Y-75.311
X155.575Y-76.581
X155.575Y-97.282
X155.575Y-97.917
X155.9Y-83.037
X156.337Y-89.154
X156.464Y-87.884
X156.464Y-91.694
X157.07Y-80.118
X157.099Y-99.822
X157.099Y-100.584
X157.099Y-102.235
X157.099Y-102.87
X157.099Y-103.505
X157.861Y-86.233
X157.861Y-99.822
X157.861Y-100.584
X157.861Y-102.235
X157.861Y-102.87
X157.861Y-103.505
X158.36Y-87.87
X158.46Y-75.94
X158.496Y-77.089
X160.274Y-94.107
X160.274Y-94.742
X160.274Y-95.377
X160.274Y-96.901
X160.274Y-97.536
X160.274Y-98.171
X160.909Y-94.107
X160.909Y-94.742
X160.909Y-95.377
X160.909Y-96.901
X160.909Y-97.536
X160.909Y-98.171
X161.031Y-83.012
X161.12Y-84.46
X161.671Y-74.803
X161.671Y-75.946
X161.671Y-77.089
X161.671Y-81.534
X161.671Y-82.55
X162.03Y-90.85
X162.687Y-84.709
X163.18Y-90.86
X163.49Y-80.14
X165.67Y-90.73
X166.16Y-80.51
T2
X130.81Y-74.225
X131.699Y-75.692
X141.956Y-89.259
X142.068Y-87.929
X145.15Y-89.286
X145.758Y-90.019
X145.87Y-91.092
X147.576Y-78.525
X147.576Y-79.477
X147.809Y-80.401
X148.098Y-77.41
X149.362Y-77.4
X150.09Y-78.134
X150.6Y-71.59
X151.288Y-83.79
X151.322Y-77.751
X151.552Y-71.59
X152.4Y-91.948
X152.504Y-71.622
X152.61Y-81.001
X152.707Y-81.948
X153.01Y-80.025
X153.52Y-75.156
X153.55Y-71.63
X155.956Y-80.368
X161.37Y-85.56
X161.38Y-80.018
X161.815Y-83.59
X164.592Y-90.678
X165.72Y-76.56
X166.28Y-77.5
X166.33Y-78.51
T3
X121.125Y-71.0
X121.125Y-107.0
X121.674Y-69.674
X121.674Y-72.326
X121.674Y-105.674
X121.674Y-108.326
X123.0Y-69.125
X123.0Y-72.875
X123.0Y-105.125
X123.0Y-108.875
X124.326Y-69.674
X124.326Y-72.326
X124.326Y-105.674
X124.326Y-108.326
X124.875Y-71.0
X124.875Y-107.0
X157.125Y-71.0
X157.125Y-107.0
X157.674Y-69.674
X157.674Y-72.326
X157.674Y-105.674
X157.674Y-108.326
X159.0Y-69.125
X159.0Y-72.875
X159.0Y-105.125
X159.0Y-108.875
X160.326Y-69.674
X160.326Y-72.326
X160.326Y-105.674
X160.326Y-108.326
X160.875Y-71.0
X160.875Y-107.0
T4
X131.0Y-108.0
X141.0Y-108.0
X151.0Y-108.0
X168.0Y-95.0
X168.0Y-101.0
T5
X123.0Y-71.0
X123.0Y-107.0
X159.0Y-71.0
X159.0Y-107.0
M30
