%TF.GenerationSoftware,KiCad,Pcbnew,9.0.1*%
%TF.CreationDate,2025-05-07T14:48:38+08:00*%
%TF.ProjectId,CawDrive,43617744-7269-4766-952e-6b696361645f,rev?*%
%TF.SameCoordinates,Original*%
%TF.FileFunction,Copper,L4,Bot*%
%TF.FilePolarity,Positive*%
%FSLAX46Y46*%
G04 Gerber Fmt 4.6, Leading zero omitted, Abs format (unit mm)*
G04 Created by KiCad (PCBNEW 9.0.1) date 2025-05-07 14:48:38*
%MOMM*%
%LPD*%
G01*
G04 APERTURE LIST*
G04 Aperture macros list*
%AMRoundRect*
0 Rectangle with rounded corners*
0 $1 Rounding radius*
0 $2 $3 $4 $5 $6 $7 $8 $9 X,Y pos of 4 corners*
0 Add a 4 corners polygon primitive as box body*
4,1,4,$2,$3,$4,$5,$6,$7,$8,$9,$2,$3,0*
0 Add four circle primitives for the rounded corners*
1,1,$1+$1,$2,$3*
1,1,$1+$1,$4,$5*
1,1,$1+$1,$6,$7*
1,1,$1+$1,$8,$9*
0 Add four rect primitives between the rounded corners*
20,1,$1+$1,$2,$3,$4,$5,0*
20,1,$1+$1,$4,$5,$6,$7,0*
20,1,$1+$1,$6,$7,$8,$9,0*
20,1,$1+$1,$8,$9,$2,$3,0*%
G04 Aperture macros list end*
%TA.AperFunction,ComponentPad*%
%ADD10RoundRect,0.750000X-0.750000X-0.750000X0.750000X-0.750000X0.750000X0.750000X-0.750000X0.750000X0*%
%TD*%
%TA.AperFunction,ComponentPad*%
%ADD11C,0.800000*%
%TD*%
%TA.AperFunction,ComponentPad*%
%ADD12C,5.000000*%
%TD*%
%TA.AperFunction,SMDPad,CuDef*%
%ADD13O,1.731000X0.343000*%
%TD*%
%TA.AperFunction,SMDPad,CuDef*%
%ADD14RoundRect,0.155000X-0.155000X0.212500X-0.155000X-0.212500X0.155000X-0.212500X0.155000X0.212500X0*%
%TD*%
%TA.AperFunction,ViaPad*%
%ADD15C,0.406400*%
%TD*%
%TA.AperFunction,ViaPad*%
%ADD16C,0.609600*%
%TD*%
%TA.AperFunction,ViaPad*%
%ADD17C,0.600000*%
%TD*%
%TA.AperFunction,Conductor*%
%ADD18C,0.152400*%
%TD*%
%TA.AperFunction,Conductor*%
%ADD19C,0.279400*%
%TD*%
%TA.AperFunction,Conductor*%
%ADD20C,0.304800*%
%TD*%
G04 APERTURE END LIST*
D10*
%TO.P,H8,1,1*%
%TO.N,GND1*%
X168000000Y-95000000D03*
%TD*%
D11*
%TO.P,H2,1,1*%
%TO.N,unconnected-(H2-Pad1)_1*%
X157125000Y-71000000D03*
%TO.N,unconnected-(H2-Pad1)_5*%
X157674175Y-69674175D03*
%TO.N,unconnected-(H2-Pad1)_8*%
X157674175Y-72325825D03*
%TO.N,unconnected-(H2-Pad1)_2*%
X159000000Y-69125000D03*
D12*
%TO.N,unconnected-(H2-Pad1)*%
X159000000Y-71000000D03*
D11*
%TO.N,unconnected-(H2-Pad1)_4*%
X159000000Y-72875000D03*
%TO.N,unconnected-(H2-Pad1)_7*%
X160325825Y-69674175D03*
%TO.N,unconnected-(H2-Pad1)_6*%
X160325825Y-72325825D03*
%TO.N,unconnected-(H2-Pad1)_3*%
X160875000Y-71000000D03*
%TD*%
D10*
%TO.P,H6,1,1*%
%TO.N,/DRV8323RSRGZR/PHASB*%
X141000000Y-108000000D03*
%TD*%
D11*
%TO.P,H4,1,1*%
%TO.N,unconnected-(H4-Pad1)_7*%
X121125000Y-107000000D03*
%TO.N,unconnected-(H4-Pad1)_5*%
X121674175Y-105674175D03*
%TO.N,unconnected-(H4-Pad1)_3*%
X121674175Y-108325825D03*
%TO.N,unconnected-(H4-Pad1)*%
X123000000Y-105125000D03*
D12*
%TO.N,unconnected-(H4-Pad1)_4*%
X123000000Y-107000000D03*
D11*
%TO.N,unconnected-(H4-Pad1)_2*%
X123000000Y-108875000D03*
%TO.N,unconnected-(H4-Pad1)_8*%
X124325825Y-105674175D03*
%TO.N,unconnected-(H4-Pad1)_6*%
X124325825Y-108325825D03*
%TO.N,unconnected-(H4-Pad1)_1*%
X124875000Y-107000000D03*
%TD*%
D10*
%TO.P,H7,1,1*%
%TO.N,/DRV8323RSRGZR/PHASC*%
X151000000Y-108000000D03*
%TD*%
%TO.P,H9,1,1*%
%TO.N,+36V*%
X168000000Y-101000000D03*
%TD*%
D11*
%TO.P,H1,1,1*%
%TO.N,unconnected-(H1-Pad1)_5*%
X121125000Y-71000000D03*
%TO.N,unconnected-(H1-Pad1)_4*%
X121674175Y-69674175D03*
%TO.N,unconnected-(H1-Pad1)_8*%
X121674175Y-72325825D03*
%TO.N,unconnected-(H1-Pad1)_6*%
X123000000Y-69125000D03*
D12*
%TO.N,unconnected-(H1-Pad1)*%
X123000000Y-71000000D03*
D11*
%TO.N,unconnected-(H1-Pad1)_1*%
X123000000Y-72875000D03*
%TO.N,unconnected-(H1-Pad1)_7*%
X124325825Y-69674175D03*
%TO.N,unconnected-(H1-Pad1)_2*%
X124325825Y-72325825D03*
%TO.N,unconnected-(H1-Pad1)_3*%
X124875000Y-71000000D03*
%TD*%
%TO.P,H3,1,1*%
%TO.N,unconnected-(H3-Pad1)_4*%
X157125000Y-107000000D03*
%TO.N,unconnected-(H3-Pad1)_7*%
X157674175Y-105674175D03*
%TO.N,unconnected-(H3-Pad1)_8*%
X157674175Y-108325825D03*
%TO.N,unconnected-(H3-Pad1)_1*%
X159000000Y-105125000D03*
D12*
%TO.N,unconnected-(H3-Pad1)_2*%
X159000000Y-107000000D03*
D11*
%TO.N,unconnected-(H3-Pad1)_5*%
X159000000Y-108875000D03*
%TO.N,unconnected-(H3-Pad1)_6*%
X160325825Y-105674175D03*
%TO.N,unconnected-(H3-Pad1)*%
X160325825Y-108325825D03*
%TO.N,unconnected-(H3-Pad1)_3*%
X160875000Y-107000000D03*
%TD*%
D10*
%TO.P,H5,1,1*%
%TO.N,/DRV8323RSRGZR/PHASA*%
X131000000Y-108000000D03*
%TD*%
D13*
%TO.P,U9,1,U*%
%TO.N,unconnected-(U9-U-Pad1)*%
X143861400Y-86726600D03*
%TO.P,U9,2,V*%
%TO.N,unconnected-(U9-V-Pad2)*%
X143861400Y-87376600D03*
%TO.P,U9,3,W*%
%TO.N,unconnected-(U9-W-Pad3)*%
X143861400Y-88026600D03*
%TO.P,U9,4,CAL_EN*%
%TO.N,/ENCODER_CAL_EN*%
X143861400Y-88676600D03*
%TO.P,U9,5,MISO*%
%TO.N,/SPI3_MISO*%
X143861400Y-89326600D03*
%TO.P,U9,6,MOSI*%
%TO.N,/SPI3_MOSI*%
X143861400Y-89976600D03*
%TO.P,U9,7,SCK*%
%TO.N,/SPI3_SCK*%
X143861400Y-90626600D03*
%TO.P,U9,8,CSN*%
%TO.N,/ENCODER_SPI_NSS*%
X143861400Y-91276600D03*
%TO.P,U9,9,VDD*%
%TO.N,+3.3V*%
X138129400Y-91276600D03*
%TO.P,U9,10,OUT*%
%TO.N,unconnected-(U9-OUT-Pad10)*%
X138129400Y-90626600D03*
%TO.P,U9,11,TEST*%
%TO.N,GND*%
X138129400Y-89976600D03*
%TO.P,U9,12,VSS*%
X138129400Y-89326600D03*
%TO.P,U9,13,TEST_EN*%
X138129400Y-88676600D03*
%TO.P,U9,14,Z*%
%TO.N,unconnected-(U9-Z-Pad14)*%
X138129400Y-88026600D03*
%TO.P,U9,15,B*%
%TO.N,unconnected-(U9-B-Pad15)*%
X138129400Y-87376600D03*
%TO.P,U9,16,A*%
%TO.N,unconnected-(U9-A-Pad16)*%
X138129400Y-86726600D03*
%TD*%
D14*
%TO.P,C18,1*%
%TO.N,GND*%
X136370000Y-90122500D03*
%TO.P,C18,2*%
%TO.N,+3.3V*%
X136370000Y-91257500D03*
%TD*%
D15*
%TO.N,GND*%
X158240000Y-78000000D03*
X139446000Y-89408000D03*
D16*
%TO.N,GND1*%
X160909000Y-98044000D03*
X160909000Y-96774000D03*
X160147000Y-98044000D03*
X160147000Y-96774000D03*
X160909000Y-95377000D03*
X160909000Y-94107000D03*
X160147000Y-95377000D03*
X160147000Y-94107000D03*
%TO.N,+36V*%
X157861000Y-103505000D03*
X157861000Y-102235000D03*
X157099000Y-103505000D03*
X157099000Y-102235000D03*
X157861000Y-100711000D03*
X157861000Y-99949000D03*
X157099000Y-100711000D03*
X157099000Y-99949000D03*
%TO.N,/DRV8323RSRGZR/PHASC*%
X155067000Y-104267000D03*
X153797000Y-104267000D03*
X152527000Y-104267000D03*
X151257000Y-104267000D03*
%TO.N,GND1*%
X155194000Y-98044000D03*
X153797000Y-98044000D03*
X152527000Y-98044000D03*
X155194000Y-97155000D03*
X153797000Y-97155000D03*
X152527000Y-97155000D03*
%TO.N,/DRV8323RSRGZR/PHASC*%
X147955000Y-105537000D03*
X147955000Y-104648000D03*
X146685000Y-105537000D03*
X146685000Y-104648000D03*
X145415000Y-105537000D03*
X145415000Y-104648000D03*
%TO.N,+36V*%
X149225000Y-103124000D03*
X149225000Y-102235000D03*
X149225000Y-101219000D03*
X147955000Y-103124000D03*
X147955000Y-102235000D03*
X147955000Y-101219000D03*
X146685000Y-103124000D03*
X146685000Y-102235000D03*
X146685000Y-101219000D03*
X145415000Y-103124000D03*
X145415000Y-102235000D03*
X145415000Y-101219000D03*
X149225000Y-100330000D03*
X147955000Y-100330000D03*
X146685000Y-100330000D03*
X145415000Y-100330000D03*
%TO.N,GND1*%
X149098000Y-94869000D03*
X147701000Y-94869000D03*
X149098000Y-93980000D03*
X147701000Y-93980000D03*
X146431000Y-94869000D03*
X145161000Y-94869000D03*
X146431000Y-93980000D03*
X145161000Y-93980000D03*
%TO.N,/DRV8323RSRGZR/PHASB*%
X142367000Y-105537000D03*
X142367000Y-104648000D03*
X141097000Y-105537000D03*
X141097000Y-104648000D03*
X139827000Y-105537000D03*
X139845000Y-104648000D03*
%TO.N,+36V*%
X143637000Y-103124000D03*
X143637000Y-102235000D03*
X143637000Y-101219000D03*
X142367000Y-103124000D03*
X142367000Y-102235000D03*
X142367000Y-101219000D03*
X141097000Y-103124000D03*
X141097000Y-102235000D03*
X141097000Y-101219000D03*
X139827000Y-103124000D03*
X139827000Y-102235000D03*
X139827000Y-101219000D03*
X143637000Y-100330000D03*
X142367000Y-100330000D03*
X141097000Y-100330000D03*
X139827000Y-100330000D03*
%TO.N,GND1*%
X143637000Y-94869000D03*
X142240000Y-94869000D03*
X143637000Y-93980000D03*
X142240000Y-93980000D03*
X141097000Y-94869000D03*
X139700000Y-94869000D03*
X141224000Y-93980000D03*
X139700000Y-93980000D03*
%TO.N,/DRV8323RSRGZR/PHASB*%
X138049000Y-103632000D03*
X136779000Y-103632000D03*
X135509000Y-103632000D03*
X134239000Y-103632000D03*
X138049000Y-104267000D03*
X136779000Y-104267000D03*
X135509000Y-104267000D03*
X134239000Y-104267000D03*
%TO.N,/DRV8323RSRGZR/SPB*%
X138303000Y-98044000D03*
X137414000Y-98044000D03*
X136271000Y-98044000D03*
X135382000Y-98044000D03*
%TO.N,GND1*%
X137922000Y-94742000D03*
X135890000Y-94742000D03*
X137922000Y-94107000D03*
X135890000Y-94107000D03*
%TO.N,/DRV8323RSRGZR/PHASA*%
X132334000Y-103632000D03*
X131064000Y-103632000D03*
X129794000Y-103632000D03*
X128524000Y-103632000D03*
X132334000Y-104267000D03*
X131064000Y-104267000D03*
X129794000Y-104267000D03*
X128524000Y-104267000D03*
%TO.N,/DRV8323RSRGZR/SPA*%
X132588000Y-97917000D03*
X131699000Y-97917000D03*
X130429000Y-97917000D03*
X129540000Y-97917000D03*
%TO.N,GND1*%
X132080000Y-94742000D03*
X130048000Y-94742000D03*
X132080000Y-94107000D03*
X130048000Y-94107000D03*
%TO.N,/DRV8323RSRGZR/PHASA*%
X125095000Y-103505000D03*
X125095000Y-102743000D03*
X123825000Y-103505000D03*
X123825000Y-102743000D03*
X122555000Y-103505000D03*
X122555000Y-102743000D03*
%TO.N,+36V*%
X126365000Y-101346000D03*
X126365000Y-100457000D03*
X126365000Y-99441000D03*
X126365000Y-98425000D03*
X125095000Y-101346000D03*
X125095000Y-100457000D03*
X125095000Y-98425000D03*
X125095000Y-99441000D03*
X123825000Y-101346000D03*
X123825000Y-100457000D03*
X123825000Y-98425000D03*
X123825000Y-99441000D03*
X122555000Y-101346000D03*
X122555000Y-100457000D03*
X122555000Y-99441000D03*
X122555000Y-98425000D03*
%TO.N,GND1*%
X126365000Y-93853000D03*
X125603000Y-93853000D03*
X124079000Y-93853000D03*
X123317000Y-93853000D03*
X121666000Y-93853000D03*
X120777000Y-93853000D03*
%TO.N,GND*%
X134620000Y-87376000D03*
D15*
X133595000Y-76327000D03*
X157670000Y-86910000D03*
X130305000Y-75637000D03*
D16*
X133604000Y-86233000D03*
D15*
X141270000Y-87570000D03*
X161544000Y-74803000D03*
X123300000Y-90020000D03*
X166130000Y-80480000D03*
X158369000Y-74168000D03*
X128100000Y-79700000D03*
X165670000Y-91810000D03*
X148840000Y-73200000D03*
X162940000Y-84580000D03*
D16*
X134620000Y-85344000D03*
D15*
X133604000Y-76835000D03*
D16*
X133604000Y-88392000D03*
D15*
X139540000Y-71570000D03*
X158210000Y-80390000D03*
X122310000Y-86480000D03*
D16*
X130810000Y-87376000D03*
D15*
X158140000Y-79670000D03*
X142690000Y-76380000D03*
X156060000Y-89170000D03*
X121793000Y-90207000D03*
X139446000Y-88773000D03*
X164000000Y-91690000D03*
X148630000Y-90519200D03*
X150623050Y-90813950D03*
D16*
X131699000Y-86360000D03*
D15*
X158380000Y-75710000D03*
X134010000Y-71620000D03*
X139629209Y-82567401D03*
D16*
X131826000Y-88392000D03*
D15*
X153610000Y-75134200D03*
D16*
X131953000Y-84328000D03*
X132842000Y-85344000D03*
D15*
X128500000Y-71628000D03*
D16*
X132715000Y-87376000D03*
D15*
X122650000Y-85880000D03*
X134985000Y-74797000D03*
D16*
X130810000Y-85344000D03*
D15*
X155923750Y-83383750D03*
X161465099Y-77352599D03*
X123070000Y-83810000D03*
D16*
X133731000Y-84455000D03*
D15*
%TO.N,+3.3V*%
X161550000Y-80837400D03*
X137250000Y-84732600D03*
X156556250Y-86893750D03*
X158421234Y-76318206D03*
X140440000Y-88710000D03*
X143830000Y-76350000D03*
X162940000Y-79380000D03*
X125984000Y-73025000D03*
X140020000Y-88000000D03*
X139065000Y-75819000D03*
X161353750Y-78606250D03*
X139065000Y-76454000D03*
X161485711Y-75961025D03*
X153180000Y-89910000D03*
X139065000Y-77089000D03*
X139900000Y-85145200D03*
X161510000Y-83570000D03*
X147081250Y-90371250D03*
X162020000Y-90950000D03*
X154750000Y-75134200D03*
X141700000Y-88620000D03*
X142420000Y-87580000D03*
X166180000Y-79510000D03*
X140580000Y-71670000D03*
%TO.N,+5V*%
X123373043Y-89414789D03*
X127380000Y-76450000D03*
X152450000Y-91660000D03*
X130302000Y-76708000D03*
X135080000Y-71680000D03*
%TO.N,/RESET*%
X152260000Y-82700000D03*
X158356151Y-79100006D03*
D17*
%TO.N,+36V*%
X129282341Y-89497659D03*
X125576500Y-85852000D03*
D15*
%TO.N,/SWDIO*%
X162179000Y-81380000D03*
X153001013Y-82228963D03*
%TO.N,/SWCLK*%
X162179000Y-82540000D03*
X152565903Y-83274534D03*
%TO.N,/DRV8323RSRGZR/SPB*%
X133867400Y-91120000D03*
X135015928Y-91008874D03*
%TO.N,/MCU_STA*%
X161480000Y-79690000D03*
X152114825Y-80677215D03*
%TO.N,/DRV_STA*%
X161350000Y-82770000D03*
X151730000Y-81150000D03*
%TO.N,/SPI3_MISO*%
X136380132Y-83780135D03*
X146430000Y-84602600D03*
X146440000Y-88910000D03*
%TO.N,/SPI3_SCK*%
X142660810Y-89048508D03*
X136078094Y-82599057D03*
X145970000Y-83550000D03*
%TO.N,/SPI3_MOSI*%
X147049164Y-88886882D03*
X146450562Y-83993344D03*
X136237349Y-83187490D03*
%TO.N,GND1*%
X135498527Y-91491473D03*
X133867400Y-91729603D03*
%TO.N,/TIM1_CH1N*%
X144231442Y-78617034D03*
X131190000Y-79580000D03*
%TO.N,/DRV_SPI_NSS*%
X147529169Y-84047012D03*
X135134867Y-82854867D03*
%TO.N,/TIM1_CH3N*%
X144214885Y-79806674D03*
X129836851Y-83167754D03*
%TO.N,/TIM1_CH3*%
X145353994Y-82094168D03*
X130414132Y-82956632D03*
%TO.N,/TIM1_CH2*%
X131112599Y-82258119D03*
X145100000Y-81540000D03*
%TO.N,/TIM1_CH2N*%
X130265493Y-80481907D03*
X144090000Y-79210000D03*
%TO.N,/TIM1_CH1*%
X131700000Y-81370000D03*
X144650000Y-80890000D03*
%TO.N,/ADC2_IN9*%
X147701000Y-72771000D03*
X129540000Y-71501000D03*
%TO.N,Net-(U8-VCAP_1)*%
X155448000Y-74168000D03*
X146840000Y-74350000D03*
%TO.N,/ADC3_IN2*%
X155575000Y-75692000D03*
X140850000Y-85145200D03*
%TO.N,/USART3_TX*%
X152711700Y-80154032D03*
X163520000Y-78480000D03*
%TO.N,/USART3_RX*%
X152662341Y-79546431D03*
X163490000Y-77540000D03*
%TO.N,/I2C1_SCL*%
X145080000Y-71860000D03*
X147936652Y-83370594D03*
%TO.N,/I2C1_SDA*%
X148546114Y-83357506D03*
X146090000Y-71860000D03*
%TO.N,/ENCODER_STA*%
X151130000Y-81650000D03*
X161428700Y-84678700D03*
%TO.N,Net-(U8-PB2)*%
X146900000Y-74970000D03*
X158496000Y-74803000D03*
%TO.N,/CAN_TX*%
X151504445Y-86405555D03*
X156050000Y-87890000D03*
%TO.N,/CAN_RX*%
X155886000Y-91694000D03*
X150858990Y-86442600D03*
%TO.N,/CAN_STB*%
X158680000Y-87910000D03*
X148970000Y-88910000D03*
%TO.N,/ADC1_IN0*%
X152509605Y-78940395D03*
X139419189Y-86302670D03*
%TO.N,/ADC2_IN1*%
X152880000Y-78350000D03*
X138090000Y-86110000D03*
%TO.N,Net-(U8-PC13)*%
X155990000Y-84920000D03*
X164810000Y-76103800D03*
%TO.N,/ENCODER_CAL_EN*%
X142580000Y-88265000D03*
%TO.N,/ENCODER_SPI_NSS*%
X147967000Y-88748000D03*
%TD*%
D18*
%TO.N,/ADC1_IN0*%
X148660000Y-86200000D02*
X139521859Y-86200000D01*
X139521859Y-86200000D02*
X139419189Y-86302670D01*
X150630000Y-84230000D02*
X148660000Y-86200000D01*
X150630000Y-80820000D02*
X150630000Y-84230000D01*
X152509605Y-78940395D02*
X150630000Y-80820000D01*
%TO.N,/ADC2_IN1*%
X149950000Y-83840000D02*
X148150000Y-85640000D01*
X138560000Y-85640000D02*
X138090000Y-86110000D01*
X149950000Y-80420000D02*
X149950000Y-83840000D01*
X152870000Y-78340000D02*
X152030000Y-78340000D01*
X152030000Y-78340000D02*
X149950000Y-80420000D01*
X152880000Y-78350000D02*
X152870000Y-78340000D01*
X148150000Y-85640000D02*
X138560000Y-85640000D01*
%TO.N,/I2C1_SCL*%
X145080000Y-79950000D02*
X145080000Y-71860000D01*
X147936652Y-83370594D02*
X147936652Y-82806652D01*
X147936652Y-82806652D02*
X145080000Y-79950000D01*
%TO.N,/SWCLK*%
X161859000Y-82220000D02*
X162179000Y-82540000D01*
X159740000Y-82900000D02*
X160420000Y-82220000D01*
X153730000Y-82900000D02*
X159740000Y-82900000D01*
X153355466Y-83274534D02*
X153730000Y-82900000D01*
X152565903Y-83274534D02*
X153355466Y-83274534D01*
X160420000Y-82220000D02*
X161859000Y-82220000D01*
%TO.N,/RESET*%
X157029994Y-79100006D02*
X158356151Y-79100006D01*
X154960000Y-81170000D02*
X157029994Y-79100006D01*
X153350000Y-81170000D02*
X154960000Y-81170000D01*
X152260000Y-82260000D02*
X153350000Y-81170000D01*
X152260000Y-82700000D02*
X152260000Y-82260000D01*
%TO.N,/DRV_STA*%
X151720000Y-81160000D02*
X151730000Y-81150000D01*
X151720000Y-83370000D02*
X151720000Y-81160000D01*
X152260000Y-83910000D02*
X151720000Y-83370000D01*
X159662266Y-83910000D02*
X152260000Y-83910000D01*
X160802266Y-82770000D02*
X159662266Y-83910000D01*
X161350000Y-82770000D02*
X160802266Y-82770000D01*
%TO.N,/MCU_STA*%
X161480000Y-79440000D02*
X161480000Y-79690000D01*
X160630000Y-78590000D02*
X161480000Y-79440000D01*
X156400000Y-78590000D02*
X160630000Y-78590000D01*
X152122040Y-80670000D02*
X154320000Y-80670000D01*
X154320000Y-80670000D02*
X156400000Y-78590000D01*
X152114825Y-80677215D02*
X152122040Y-80670000D01*
%TO.N,/SWDIO*%
X153219976Y-82010000D02*
X153001013Y-82228963D01*
X155950000Y-81320000D02*
X155355000Y-81915000D01*
X153315000Y-81915000D02*
X153220000Y-82010000D01*
X162140000Y-81320000D02*
X155950000Y-81320000D01*
X155355000Y-81915000D02*
X153315000Y-81915000D01*
X162179000Y-81359000D02*
X162140000Y-81320000D01*
X153220000Y-82010000D02*
X153219976Y-82010000D01*
X162179000Y-81380000D02*
X162179000Y-81359000D01*
%TO.N,/USART3_TX*%
X161910000Y-78480000D02*
X163520000Y-78480000D01*
X160930000Y-77500000D02*
X161910000Y-78480000D01*
X156230000Y-77500000D02*
X160930000Y-77500000D01*
X153575968Y-80154032D02*
X156230000Y-77500000D01*
X152711700Y-80154032D02*
X153575968Y-80154032D01*
%TO.N,/USART3_RX*%
X162820000Y-76870000D02*
X163490000Y-77540000D01*
X155490000Y-76870000D02*
X162820000Y-76870000D01*
X152813569Y-79546431D02*
X155490000Y-76870000D01*
X152662341Y-79546431D02*
X152813569Y-79546431D01*
%TO.N,/SPI3_MOSI*%
X146410306Y-84033600D02*
X146450562Y-83993344D01*
X144843600Y-84033600D02*
X146410306Y-84033600D01*
X137950000Y-83790000D02*
X144600000Y-83790000D01*
X137347490Y-83187490D02*
X137950000Y-83790000D01*
X144600000Y-83790000D02*
X144843600Y-84033600D01*
X136237349Y-83187490D02*
X137347490Y-83187490D01*
%TO.N,/TIM1_CH1*%
X132890000Y-80140000D02*
X131700000Y-81330000D01*
X131700000Y-81330000D02*
X131700000Y-81370000D01*
X144640000Y-80900000D02*
X142290000Y-80900000D01*
X142290000Y-80900000D02*
X141530000Y-80140000D01*
X141530000Y-80140000D02*
X132890000Y-80140000D01*
X144650000Y-80890000D02*
X144640000Y-80900000D01*
%TO.N,/SPI3_SCK*%
X142736600Y-90626600D02*
X143861400Y-90626600D01*
X142390000Y-90280000D02*
X142736600Y-90626600D01*
X142390000Y-89319318D02*
X142390000Y-90280000D01*
X142660810Y-89048508D02*
X142390000Y-89319318D01*
%TO.N,/ENCODER_CAL_EN*%
X143100000Y-88670000D02*
X143854800Y-88670000D01*
X142695000Y-88265000D02*
X143100000Y-88670000D01*
X143854800Y-88670000D02*
X143861400Y-88676600D01*
X142580000Y-88265000D02*
X142695000Y-88265000D01*
D19*
%TO.N,+5V*%
X123373043Y-86586957D02*
X123373043Y-89414789D01*
X128680000Y-77750000D02*
X128680000Y-81280000D01*
X127380000Y-76450000D02*
X128680000Y-77750000D01*
X128680000Y-81280000D02*
X123373043Y-86586957D01*
D18*
%TO.N,/SPI3_MISO*%
X136849997Y-84250000D02*
X136380132Y-83780135D01*
X138040000Y-84470000D02*
X137820000Y-84250000D01*
X137820000Y-84250000D02*
X136849997Y-84250000D01*
X146297400Y-84470000D02*
X138040000Y-84470000D01*
X146430000Y-84602600D02*
X146297400Y-84470000D01*
%TO.N,/TIM1_CH3N*%
X129931533Y-82288467D02*
X129931533Y-83073072D01*
X129931533Y-83073072D02*
X129836851Y-83167754D01*
X132910000Y-79310000D02*
X129931533Y-82288467D01*
X142150000Y-79310000D02*
X132910000Y-79310000D01*
X142760000Y-79920000D02*
X142150000Y-79310000D01*
X144101559Y-79920000D02*
X142760000Y-79920000D01*
X144214885Y-79806674D02*
X144101559Y-79920000D01*
%TO.N,/TIM1_CH2*%
X132830000Y-80940000D02*
X131810000Y-81960000D01*
X140910000Y-80940000D02*
X132830000Y-80940000D01*
X131810000Y-81960000D02*
X131410718Y-81960000D01*
X131410718Y-81960000D02*
X131112599Y-82258119D01*
X141550000Y-81580000D02*
X140910000Y-80940000D01*
X145060000Y-81580000D02*
X141550000Y-81580000D01*
X145100000Y-81540000D02*
X145060000Y-81580000D01*
%TO.N,/TIM1_CH3*%
X132750000Y-81630000D02*
X131638281Y-82741719D01*
X131638281Y-82741719D02*
X130629045Y-82741719D01*
X140983400Y-82243400D02*
X140370000Y-81630000D01*
X145204762Y-82243400D02*
X140983400Y-82243400D01*
X130629045Y-82741719D02*
X130414132Y-82956632D01*
X145353994Y-82094168D02*
X145204762Y-82243400D01*
X140370000Y-81630000D02*
X132750000Y-81630000D01*
%TO.N,/DRV_SPI_NSS*%
X135979734Y-82010000D02*
X135134867Y-82854867D01*
X140344308Y-82600000D02*
X139754308Y-82010000D01*
X146000000Y-82600000D02*
X140344308Y-82600000D01*
X147529169Y-84047012D02*
X147447012Y-84047012D01*
X147447012Y-84047012D02*
X146000000Y-82600000D01*
X139754308Y-82010000D02*
X135979734Y-82010000D01*
%TO.N,/TIM1_CH2N*%
X142650000Y-78540000D02*
X132930000Y-78540000D01*
X132930000Y-78540000D02*
X130988093Y-80481907D01*
X143320000Y-79210000D02*
X142650000Y-78540000D01*
X144090000Y-79210000D02*
X143320000Y-79210000D01*
X130988093Y-80481907D02*
X130265493Y-80481907D01*
%TO.N,/TIM1_CH1N*%
X144231442Y-78481442D02*
X144231442Y-78617034D01*
X143510000Y-77760000D02*
X144231442Y-78481442D01*
X131190000Y-79370000D02*
X132800000Y-77760000D01*
X131190000Y-79580000D02*
X131190000Y-79370000D01*
X132800000Y-77760000D02*
X143510000Y-77760000D01*
%TO.N,/SPI3_SCK*%
X138189057Y-82599057D02*
X136078094Y-82599057D01*
X138640000Y-83050000D02*
X138189057Y-82599057D01*
X145470000Y-83050000D02*
X138640000Y-83050000D01*
X145970000Y-83550000D02*
X145470000Y-83050000D01*
%TO.N,/ENCODER_STA*%
X152100000Y-84410000D02*
X161160000Y-84410000D01*
X161160000Y-84410000D02*
X161428700Y-84678700D01*
X151120000Y-81660000D02*
X151120000Y-83430000D01*
X151120000Y-83430000D02*
X152100000Y-84410000D01*
X151130000Y-81650000D02*
X151120000Y-81660000D01*
D19*
%TO.N,+3.3V*%
X140430000Y-88720000D02*
X140430000Y-90990000D01*
X137060500Y-91948000D02*
X136370000Y-91257500D01*
X136389100Y-91276600D02*
X136370000Y-91257500D01*
X138129400Y-91276600D02*
X136389100Y-91276600D01*
X140440000Y-88710000D02*
X140430000Y-88720000D01*
X139472000Y-91948000D02*
X137060500Y-91948000D01*
X140430000Y-90990000D02*
X139472000Y-91948000D01*
D20*
%TO.N,+36V*%
X129248659Y-89497659D02*
X125603000Y-85852000D01*
X129282341Y-89497659D02*
X129248659Y-89497659D01*
X125603000Y-85852000D02*
X125576500Y-85852000D01*
D18*
%TO.N,/DRV8323RSRGZR/SPB*%
X134427270Y-91008874D02*
X135015928Y-91008874D01*
X133927400Y-91180000D02*
X134256144Y-91180000D01*
X134256144Y-91180000D02*
X134427270Y-91008874D01*
X133867400Y-91120000D02*
X133927400Y-91180000D01*
%TO.N,/SPI3_MISO*%
X143888400Y-89353600D02*
X143861400Y-89326600D01*
X146440000Y-88910000D02*
X145996400Y-89353600D01*
X145996400Y-89353600D02*
X143888400Y-89353600D01*
%TO.N,/SPI3_MOSI*%
X146413400Y-89976600D02*
X143861400Y-89976600D01*
X147049164Y-88886882D02*
X147049164Y-89340836D01*
X147049164Y-89340836D02*
X146413400Y-89976600D01*
%TO.N,GND1*%
X134735957Y-91665386D02*
X134909870Y-91491473D01*
X134909870Y-91491473D02*
X135498527Y-91491473D01*
X133867400Y-91729603D02*
X133931617Y-91665386D01*
X133931617Y-91665386D02*
X134735957Y-91665386D01*
%TO.N,/ADC2_IN9*%
X129540000Y-71501000D02*
X130302000Y-70739000D01*
X146049000Y-70739000D02*
X147701000Y-72391000D01*
X147701000Y-72391000D02*
X147701000Y-72771000D01*
X130302000Y-70739000D02*
X146049000Y-70739000D01*
%TO.N,Net-(U8-VCAP_1)*%
X147022000Y-74168000D02*
X155448000Y-74168000D01*
X146840000Y-74350000D02*
X147022000Y-74168000D01*
%TO.N,/ADC3_IN2*%
X140850000Y-85145200D02*
X140909000Y-85086200D01*
X155533000Y-75650000D02*
X155575000Y-75692000D01*
X147643800Y-85086200D02*
X149220000Y-83510000D01*
X149220000Y-83510000D02*
X149220000Y-80090000D01*
X140909000Y-85086200D02*
X147643800Y-85086200D01*
X149220000Y-80090000D02*
X153660000Y-75650000D01*
X153660000Y-75650000D02*
X155533000Y-75650000D01*
%TO.N,/I2C1_SDA*%
X148546114Y-83357506D02*
X148546114Y-82116114D01*
X148546114Y-82116114D02*
X146090000Y-79660000D01*
X146090000Y-79660000D02*
X146090000Y-71860000D01*
%TO.N,Net-(U8-PB2)*%
X146900000Y-74970000D02*
X151090000Y-74970000D01*
X151090000Y-74970000D02*
X151408400Y-74651600D01*
X151408400Y-74651600D02*
X158344600Y-74651600D01*
X158344600Y-74651600D02*
X158496000Y-74803000D01*
%TO.N,/CAN_TX*%
X151504445Y-86405555D02*
X152135555Y-86405555D01*
X155730000Y-87570000D02*
X156050000Y-87890000D01*
X152135555Y-86405555D02*
X153300000Y-87570000D01*
X153300000Y-87570000D02*
X155730000Y-87570000D01*
%TO.N,/CAN_RX*%
X155886000Y-91694000D02*
X155886000Y-91469610D01*
X155886000Y-91469610D02*
X150858990Y-86442600D01*
%TO.N,/CAN_STB*%
X156890000Y-87910000D02*
X158680000Y-87910000D01*
X148980000Y-88910000D02*
X150210000Y-87680000D01*
X150210000Y-86407676D02*
X150877676Y-85740000D01*
X153170000Y-86550000D02*
X155530000Y-86550000D01*
X148970000Y-88910000D02*
X148980000Y-88910000D01*
X150210000Y-87680000D02*
X150210000Y-86407676D01*
X150877676Y-85740000D02*
X152360000Y-85740000D01*
X152360000Y-85740000D02*
X153170000Y-86550000D01*
X155530000Y-86550000D02*
X156890000Y-87910000D01*
%TO.N,Net-(U8-PC13)*%
X166800000Y-83530000D02*
X166800000Y-77110000D01*
X166800000Y-77110000D02*
X165793800Y-76103800D01*
X165050000Y-85280000D02*
X166800000Y-83530000D01*
X155990000Y-84920000D02*
X156350000Y-85280000D01*
X156350000Y-85280000D02*
X165050000Y-85280000D01*
X165793800Y-76103800D02*
X164810000Y-76103800D01*
%TO.N,/ENCODER_SPI_NSS*%
X147967000Y-90343000D02*
X147033400Y-91276600D01*
X147033400Y-91276600D02*
X143861400Y-91276600D01*
X147967000Y-88748000D02*
X147967000Y-90343000D01*
%TD*%
%TA.AperFunction,Conductor*%
%TO.N,GND*%
G36*
X139828039Y-88519685D02*
G01*
X139873794Y-88572489D01*
X139885000Y-88624000D01*
X139885000Y-90626150D01*
X139865315Y-90693189D01*
X139812511Y-90738944D01*
X139759140Y-90750136D01*
X139371540Y-90744322D01*
X139304804Y-90723634D01*
X139259846Y-90670150D01*
X139249400Y-90620336D01*
X139249400Y-90570518D01*
X139249400Y-90570516D01*
X139220369Y-90462170D01*
X139164285Y-90365030D01*
X139084970Y-90285715D01*
X139036400Y-90257673D01*
X138987831Y-90229631D01*
X138933657Y-90215115D01*
X138879484Y-90200600D01*
X137379316Y-90200600D01*
X137270968Y-90229631D01*
X137173830Y-90285715D01*
X137173827Y-90285717D01*
X137094517Y-90365027D01*
X137094515Y-90365030D01*
X137038431Y-90462168D01*
X137009400Y-90570516D01*
X137009400Y-90583016D01*
X137006586Y-90592598D01*
X137007859Y-90602502D01*
X136996906Y-90625563D01*
X136989715Y-90650055D01*
X136982169Y-90656592D01*
X136977885Y-90665615D01*
X136956199Y-90679096D01*
X136936911Y-90695810D01*
X136925448Y-90698213D01*
X136918547Y-90702504D01*
X136883540Y-90707002D01*
X136788792Y-90705581D01*
X136734358Y-90692080D01*
X136653120Y-90650687D01*
X136653117Y-90650686D01*
X136557231Y-90635500D01*
X136557226Y-90635500D01*
X136182774Y-90635500D01*
X136182769Y-90635500D01*
X136086881Y-90650687D01*
X136086877Y-90650688D01*
X136029700Y-90679821D01*
X136015870Y-90683031D01*
X136006553Y-90688824D01*
X135971546Y-90693322D01*
X135872140Y-90691831D01*
X135805404Y-90671143D01*
X135760446Y-90617659D01*
X135750000Y-90567845D01*
X135750000Y-88624000D01*
X135769685Y-88556961D01*
X135822489Y-88511206D01*
X135874000Y-88500000D01*
X139761000Y-88500000D01*
X139828039Y-88519685D01*
G37*
%TD.AperFunction*%
%TD*%
%TA.AperFunction,Conductor*%
%TO.N,/DRV8323RSRGZR/SPA*%
G36*
X133488577Y-96511423D02*
G01*
X133500000Y-96539000D01*
X133500000Y-98711000D01*
X133488577Y-98738577D01*
X133461000Y-98750000D01*
X129039000Y-98750000D01*
X129011423Y-98738577D01*
X129000000Y-98711000D01*
X129000000Y-96539000D01*
X129011423Y-96511423D01*
X129039000Y-96500000D01*
X133461000Y-96500000D01*
X133488577Y-96511423D01*
G37*
%TD.AperFunction*%
%TD*%
%TA.AperFunction,Conductor*%
%TO.N,GND1*%
G36*
X169688539Y-93019685D02*
G01*
X169734294Y-93072489D01*
X169745500Y-93124000D01*
X169745500Y-98376000D01*
X169725815Y-98443039D01*
X169673011Y-98488794D01*
X169621500Y-98500000D01*
X156374000Y-98500000D01*
X156306961Y-98480315D01*
X156261206Y-98427511D01*
X156250000Y-98376000D01*
X156250000Y-96250000D01*
X151750000Y-96250000D01*
X151750000Y-98376000D01*
X151730315Y-98443039D01*
X151677511Y-98488794D01*
X151626000Y-98500000D01*
X139624000Y-98500000D01*
X139556961Y-98480315D01*
X139511206Y-98427511D01*
X139500000Y-98376000D01*
X139500000Y-96000000D01*
X120378500Y-96000000D01*
X120311461Y-95980315D01*
X120265706Y-95927511D01*
X120254500Y-95876000D01*
X120254500Y-93124000D01*
X120274185Y-93056961D01*
X120326989Y-93011206D01*
X120378500Y-93000000D01*
X169621500Y-93000000D01*
X169688539Y-93019685D01*
G37*
%TD.AperFunction*%
%TD*%
%TA.AperFunction,Conductor*%
%TO.N,/DRV8323RSRGZR/SPB*%
G36*
X138738577Y-96511423D02*
G01*
X138750000Y-96539000D01*
X138750000Y-98711000D01*
X138738577Y-98738577D01*
X138711000Y-98750000D01*
X134539000Y-98750000D01*
X134511423Y-98738577D01*
X134500000Y-98711000D01*
X134500000Y-96539000D01*
X134511423Y-96511423D01*
X134539000Y-96500000D01*
X138711000Y-96500000D01*
X138738577Y-96511423D01*
G37*
%TD.AperFunction*%
%TD*%
%TA.AperFunction,Conductor*%
%TO.N,GND1*%
G36*
X155943039Y-96519685D02*
G01*
X155988794Y-96572489D01*
X156000000Y-96624000D01*
X156000000Y-98376000D01*
X155980315Y-98443039D01*
X155927511Y-98488794D01*
X155876000Y-98500000D01*
X152124000Y-98500000D01*
X152056961Y-98480315D01*
X152011206Y-98427511D01*
X152000000Y-98376000D01*
X152000000Y-96624000D01*
X152019685Y-96556961D01*
X152072489Y-96511206D01*
X152124000Y-96500000D01*
X155876000Y-96500000D01*
X155943039Y-96519685D01*
G37*
%TD.AperFunction*%
%TD*%
%TA.AperFunction,Conductor*%
%TO.N,+36V*%
G36*
X128488577Y-96511423D02*
G01*
X128500000Y-96539000D01*
X128500000Y-99250000D01*
X169706500Y-99250000D01*
X169734077Y-99261423D01*
X169745500Y-99289000D01*
X169745500Y-102544222D01*
X169734077Y-102571799D01*
X169706500Y-102583222D01*
X164945854Y-102583222D01*
X164945736Y-102583233D01*
X164820223Y-102583260D01*
X164820216Y-102583260D01*
X164820214Y-102583261D01*
X164677179Y-102598355D01*
X164462624Y-102620997D01*
X164110977Y-102696052D01*
X163769146Y-102807598D01*
X163769130Y-102807605D01*
X163440919Y-102954397D01*
X163440907Y-102954403D01*
X163129887Y-103134845D01*
X162839520Y-103346934D01*
X162839511Y-103346941D01*
X162573022Y-103588318D01*
X162573014Y-103588326D01*
X162333331Y-103856333D01*
X162333309Y-103856361D01*
X162123076Y-104148044D01*
X162123070Y-104148052D01*
X161944599Y-104460207D01*
X161799878Y-104789358D01*
X161690495Y-105131890D01*
X161617663Y-105484022D01*
X161582191Y-105841838D01*
X161582195Y-105842394D01*
X161582161Y-105842475D01*
X161582144Y-105842860D01*
X161582007Y-105842853D01*
X161570946Y-105870043D01*
X161543442Y-105881639D01*
X161515793Y-105870390D01*
X161508058Y-105859562D01*
X161499790Y-105842394D01*
X161414601Y-105665497D01*
X161250002Y-105403538D01*
X161250001Y-105403536D01*
X161249998Y-105403531D01*
X161057113Y-105161662D01*
X160838337Y-104942886D01*
X160596468Y-104750001D01*
X160596463Y-104749998D01*
X160334508Y-104585402D01*
X160334507Y-104585401D01*
X160334503Y-104585399D01*
X160121625Y-104482882D01*
X160055761Y-104451163D01*
X160055758Y-104451162D01*
X159763749Y-104348983D01*
X159763740Y-104348981D01*
X159462133Y-104280141D01*
X159405667Y-104273778D01*
X159154689Y-104245500D01*
X158845311Y-104245500D01*
X158594332Y-104273778D01*
X158537867Y-104280141D01*
X158537865Y-104280141D01*
X158236259Y-104348981D01*
X158236250Y-104348983D01*
X157944241Y-104451162D01*
X157944238Y-104451163D01*
X157693237Y-104572039D01*
X157688416Y-104574362D01*
X157665491Y-104585402D01*
X157403536Y-104749998D01*
X157403531Y-104750001D01*
X157161662Y-104942886D01*
X156942886Y-105161662D01*
X156750001Y-105403531D01*
X156749998Y-105403536D01*
X156585402Y-105665491D01*
X156451163Y-105944238D01*
X156451162Y-105944241D01*
X156348983Y-106236250D01*
X156348981Y-106236259D01*
X156280141Y-106537865D01*
X156280141Y-106537867D01*
X156280140Y-106537877D01*
X156245500Y-106845311D01*
X156245500Y-107154689D01*
X156279434Y-107455863D01*
X156280141Y-107462132D01*
X156280141Y-107462134D01*
X156348981Y-107763740D01*
X156348983Y-107763749D01*
X156451162Y-108055758D01*
X156451163Y-108055761D01*
X156505171Y-108167909D01*
X156585399Y-108334503D01*
X156585401Y-108334507D01*
X156585402Y-108334508D01*
X156749998Y-108596463D01*
X156750001Y-108596468D01*
X156942886Y-108838337D01*
X157161662Y-109057113D01*
X157403531Y-109249998D01*
X157403536Y-109250001D01*
X157403538Y-109250002D01*
X157665497Y-109414601D01*
X157910715Y-109532692D01*
X157944238Y-109548836D01*
X157944241Y-109548837D01*
X158236250Y-109651016D01*
X158236259Y-109651018D01*
X158312754Y-109668478D01*
X158337098Y-109685751D01*
X158342098Y-109715178D01*
X158324825Y-109739522D01*
X158304076Y-109745500D01*
X152172673Y-109745500D01*
X152145096Y-109734077D01*
X152133673Y-109706500D01*
X152145096Y-109678923D01*
X152154616Y-109671932D01*
X152194657Y-109651016D01*
X152305620Y-109593054D01*
X152463952Y-109463952D01*
X152593054Y-109305620D01*
X152687642Y-109124540D01*
X152743843Y-108928128D01*
X152754500Y-108808262D01*
X152754500Y-107191738D01*
X152743843Y-107071872D01*
X152687642Y-106875460D01*
X152593054Y-106694380D01*
X152463952Y-106536048D01*
X152305620Y-106406946D01*
X152215080Y-106359652D01*
X152124541Y-106312358D01*
X151928126Y-106256156D01*
X151859899Y-106250090D01*
X151808262Y-106245500D01*
X150191738Y-106245500D01*
X150143094Y-106249824D01*
X150071873Y-106256156D01*
X149875458Y-106312358D01*
X149694380Y-106406946D01*
X149694377Y-106406948D01*
X149536048Y-106536048D01*
X149406948Y-106694377D01*
X149406946Y-106694380D01*
X149312358Y-106875458D01*
X149256156Y-107071873D01*
X149249824Y-107143094D01*
X149245500Y-107191738D01*
X149245500Y-108808262D01*
X149248174Y-108838337D01*
X149256156Y-108928126D01*
X149312358Y-109124541D01*
X149359652Y-109215080D01*
X149406946Y-109305620D01*
X149536048Y-109463952D01*
X149694380Y-109593054D01*
X149805343Y-109651016D01*
X149845384Y-109671932D01*
X149864538Y-109694825D01*
X149861895Y-109724557D01*
X149839002Y-109743711D01*
X149827327Y-109745500D01*
X142172673Y-109745500D01*
X142145096Y-109734077D01*
X142133673Y-109706500D01*
X142145096Y-109678923D01*
X142154616Y-109671932D01*
X142194657Y-109651016D01*
X142305620Y-109593054D01*
X142463952Y-109463952D01*
X142593054Y-109305620D01*
X142687642Y-109124540D01*
X142743843Y-108928128D01*
X142754500Y-108808262D01*
X142754500Y-107191738D01*
X142743843Y-107071872D01*
X142687642Y-106875460D01*
X142593054Y-106694380D01*
X142463952Y-106536048D01*
X142305620Y-106406946D01*
X142215080Y-106359652D01*
X142124541Y-106312358D01*
X141928126Y-106256156D01*
X141859899Y-106250090D01*
X141808262Y-106245500D01*
X140191738Y-106245500D01*
X140143094Y-106249824D01*
X140071873Y-106256156D01*
X139875458Y-106312358D01*
X139694380Y-106406946D01*
X139694377Y-106406948D01*
X139536048Y-106536048D01*
X139406948Y-106694377D01*
X139406946Y-106694380D01*
X139312358Y-106875458D01*
X139256156Y-107071873D01*
X139249824Y-107143094D01*
X139245500Y-107191738D01*
X139245500Y-108808262D01*
X139248174Y-108838337D01*
X139256156Y-108928126D01*
X139312358Y-109124541D01*
X139359652Y-109215080D01*
X139406946Y-109305620D01*
X139536048Y-109463952D01*
X139694380Y-109593054D01*
X139805343Y-109651016D01*
X139845384Y-109671932D01*
X139864538Y-109694825D01*
X139861895Y-109724557D01*
X139839002Y-109743711D01*
X139827327Y-109745500D01*
X132172673Y-109745500D01*
X132145096Y-109734077D01*
X132133673Y-109706500D01*
X132145096Y-109678923D01*
X132154616Y-109671932D01*
X132194657Y-109651016D01*
X132305620Y-109593054D01*
X132463952Y-109463952D01*
X132593054Y-109305620D01*
X132687642Y-109124540D01*
X132743843Y-108928128D01*
X132754500Y-108808262D01*
X132754500Y-107191738D01*
X132743843Y-107071872D01*
X132687642Y-106875460D01*
X132593054Y-106694380D01*
X132463952Y-106536048D01*
X132305620Y-106406946D01*
X132215080Y-106359652D01*
X132124541Y-106312358D01*
X131928126Y-106256156D01*
X131859899Y-106250090D01*
X131808262Y-106245500D01*
X130191738Y-106245500D01*
X130143094Y-106249824D01*
X130071873Y-106256156D01*
X129875458Y-106312358D01*
X129694380Y-106406946D01*
X129694377Y-106406948D01*
X129536048Y-106536048D01*
X129406948Y-106694377D01*
X129406946Y-106694380D01*
X129312358Y-106875458D01*
X129256156Y-107071873D01*
X129249824Y-107143094D01*
X129245500Y-107191738D01*
X129245500Y-108808262D01*
X129248174Y-108838337D01*
X129256156Y-108928126D01*
X129312358Y-109124541D01*
X129359652Y-109215080D01*
X129406946Y-109305620D01*
X129536048Y-109463952D01*
X129694380Y-109593054D01*
X129805343Y-109651016D01*
X129845384Y-109671932D01*
X129864538Y-109694825D01*
X129861895Y-109724557D01*
X129839002Y-109743711D01*
X129827327Y-109745500D01*
X123695924Y-109745500D01*
X123668347Y-109734077D01*
X123656924Y-109706500D01*
X123668347Y-109678923D01*
X123687246Y-109668478D01*
X123750369Y-109654069D01*
X123763745Y-109651017D01*
X123763745Y-109651016D01*
X123763749Y-109651016D01*
X123929397Y-109593053D01*
X124055762Y-109548836D01*
X124334503Y-109414601D01*
X124596462Y-109250002D01*
X124596464Y-109250000D01*
X124596468Y-109249998D01*
X124838337Y-109057113D01*
X124838339Y-109057110D01*
X124838344Y-109057107D01*
X125057107Y-108838344D01*
X125081097Y-108808262D01*
X125249998Y-108596468D01*
X125250001Y-108596463D01*
X125250002Y-108596462D01*
X125414601Y-108334503D01*
X125548836Y-108055762D01*
X125651017Y-107763745D01*
X125708975Y-107509815D01*
X125719858Y-107462134D01*
X125719858Y-107462132D01*
X125719858Y-107462131D01*
X125719860Y-107462123D01*
X125754500Y-107154689D01*
X125754500Y-106845311D01*
X125719860Y-106537877D01*
X125719858Y-106537867D01*
X125719858Y-106537865D01*
X125651018Y-106236259D01*
X125651016Y-106236250D01*
X125548837Y-105944241D01*
X125548836Y-105944238D01*
X125518102Y-105880418D01*
X125414601Y-105665497D01*
X125380127Y-105610631D01*
X125299027Y-105481560D01*
X125287592Y-105463362D01*
X139267700Y-105463362D01*
X139267700Y-105610637D01*
X139305816Y-105752882D01*
X139379449Y-105880419D01*
X139483580Y-105984550D01*
X139483582Y-105984551D01*
X139611118Y-106058184D01*
X139708270Y-106084216D01*
X139753362Y-106096299D01*
X139753365Y-106096299D01*
X139753367Y-106096300D01*
X139753368Y-106096300D01*
X139900632Y-106096300D01*
X139900633Y-106096300D01*
X140042882Y-106058184D01*
X140170418Y-105984551D01*
X140170419Y-105984550D01*
X140170420Y-105984550D01*
X140274550Y-105880420D01*
X140274550Y-105880419D01*
X140274551Y-105880418D01*
X140348184Y-105752882D01*
X140386300Y-105610633D01*
X140386300Y-105463367D01*
X140348184Y-105321118D01*
X140274551Y-105193582D01*
X140274550Y-105193580D01*
X140210046Y-105129077D01*
X140198623Y-105101500D01*
X140210046Y-105073923D01*
X140292550Y-104991419D01*
X140292551Y-104991418D01*
X140366184Y-104863882D01*
X140404300Y-104721633D01*
X140404300Y-104574367D01*
X140404299Y-104574362D01*
X140537700Y-104574362D01*
X140537700Y-104721637D01*
X140575816Y-104863882D01*
X140649449Y-104991419D01*
X140722953Y-105064923D01*
X140734376Y-105092500D01*
X140722953Y-105120077D01*
X140649450Y-105193580D01*
X140649449Y-105193580D01*
X140575816Y-105321117D01*
X140537700Y-105463362D01*
X140537700Y-105610637D01*
X140575816Y-105752882D01*
X140649449Y-105880419D01*
X140753580Y-105984550D01*
X140753582Y-105984551D01*
X140881118Y-106058184D01*
X140978270Y-106084216D01*
X141023362Y-106096299D01*
X141023365Y-106096299D01*
X141023367Y-106096300D01*
X141023368Y-106096300D01*
X141170632Y-106096300D01*
X141170633Y-106096300D01*
X141312882Y-106058184D01*
X141440418Y-105984551D01*
X141440419Y-105984550D01*
X141440420Y-105984550D01*
X141544550Y-105880420D01*
X141544550Y-105880419D01*
X141544551Y-105880418D01*
X141618184Y-105752882D01*
X141656300Y-105610633D01*
X141656300Y-105463367D01*
X141618184Y-105321118D01*
X141544551Y-105193582D01*
X141544550Y-105193580D01*
X141471046Y-105120077D01*
X141459623Y-105092500D01*
X141471046Y-105064923D01*
X141544550Y-104991419D01*
X141544551Y-104991418D01*
X141618184Y-104863882D01*
X141656300Y-104721633D01*
X141656300Y-104574367D01*
X141656299Y-104574362D01*
X141807700Y-104574362D01*
X141807700Y-104721637D01*
X141845816Y-104863882D01*
X141919449Y-104991419D01*
X141992953Y-105064923D01*
X142004376Y-105092500D01*
X141992953Y-105120077D01*
X141919450Y-105193580D01*
X141919449Y-105193580D01*
X141845816Y-105321117D01*
X141807700Y-105463362D01*
X141807700Y-105610637D01*
X141845816Y-105752882D01*
X141919449Y-105880419D01*
X142023580Y-105984550D01*
X142023582Y-105984551D01*
X142151118Y-106058184D01*
X142248270Y-106084216D01*
X142293362Y-106096299D01*
X142293365Y-106096299D01*
X142293367Y-106096300D01*
X142293368Y-106096300D01*
X142440632Y-106096300D01*
X142440633Y-106096300D01*
X142582882Y-106058184D01*
X142710418Y-105984551D01*
X142710419Y-105984550D01*
X142710420Y-105984550D01*
X142814550Y-105880420D01*
X142814550Y-105880419D01*
X142814551Y-105880418D01*
X142888184Y-105752882D01*
X142926300Y-105610633D01*
X142926300Y-105463367D01*
X142888184Y-105321118D01*
X142814551Y-105193582D01*
X142814550Y-105193580D01*
X142741046Y-105120077D01*
X142729623Y-105092500D01*
X142741046Y-105064923D01*
X142814550Y-104991419D01*
X142814551Y-104991418D01*
X142888184Y-104863882D01*
X142926300Y-104721633D01*
X142926300Y-104574367D01*
X142926299Y-104574362D01*
X144855700Y-104574362D01*
X144855700Y-104721637D01*
X144893816Y-104863882D01*
X144967449Y-104991419D01*
X145040953Y-105064923D01*
X145052376Y-105092500D01*
X145040953Y-105120077D01*
X144967450Y-105193580D01*
X144967449Y-105193580D01*
X144893816Y-105321117D01*
X144855700Y-105463362D01*
X144855700Y-105610637D01*
X144893816Y-105752882D01*
X144967449Y-105880419D01*
X145071580Y-105984550D01*
X145071582Y-105984551D01*
X145199118Y-106058184D01*
X145296270Y-106084216D01*
X145341362Y-106096299D01*
X145341365Y-106096299D01*
X145341367Y-106096300D01*
X145341368Y-106096300D01*
X145488632Y-106096300D01*
X145488633Y-106096300D01*
X145630882Y-106058184D01*
X145758418Y-105984551D01*
X145758419Y-105984550D01*
X145758420Y-105984550D01*
X145862550Y-105880420D01*
X145862550Y-105880419D01*
X145862551Y-105880418D01*
X145936184Y-105752882D01*
X145974300Y-105610633D01*
X145974300Y-105463367D01*
X145936184Y-105321118D01*
X145862551Y-105193582D01*
X145862550Y-105193580D01*
X145789046Y-105120077D01*
X145777623Y-105092500D01*
X145789046Y-105064923D01*
X145862550Y-104991419D01*
X145862551Y-104991418D01*
X145936184Y-104863882D01*
X145974300Y-104721633D01*
X145974300Y-104574367D01*
X145974299Y-104574362D01*
X146125700Y-104574362D01*
X146125700Y-104721637D01*
X146163816Y-104863882D01*
X146237449Y-104991419D01*
X146310953Y-105064923D01*
X146322376Y-105092500D01*
X146310953Y-105120077D01*
X146237450Y-105193580D01*
X146237449Y-105193580D01*
X146163816Y-105321117D01*
X146125700Y-105463362D01*
X146125700Y-105610637D01*
X146163816Y-105752882D01*
X146237449Y-105880419D01*
X146341580Y-105984550D01*
X146341582Y-105984551D01*
X146469118Y-106058184D01*
X146566270Y-106084216D01*
X146611362Y-106096299D01*
X146611365Y-106096299D01*
X146611367Y-106096300D01*
X146611368Y-106096300D01*
X146758632Y-106096300D01*
X146758633Y-106096300D01*
X146900882Y-106058184D01*
X147028418Y-105984551D01*
X147028419Y-105984550D01*
X147028420Y-105984550D01*
X147132550Y-105880420D01*
X147132550Y-105880419D01*
X147132551Y-105880418D01*
X147206184Y-105752882D01*
X147244300Y-105610633D01*
X147244300Y-105463367D01*
X147206184Y-105321118D01*
X147132551Y-105193582D01*
X147132550Y-105193580D01*
X147059046Y-105120077D01*
X147047623Y-105092500D01*
X147059046Y-105064923D01*
X147132550Y-104991419D01*
X147132551Y-104991418D01*
X147206184Y-104863882D01*
X147244300Y-104721633D01*
X147244300Y-104574367D01*
X147244299Y-104574362D01*
X147395700Y-104574362D01*
X147395700Y-104721637D01*
X147433816Y-104863882D01*
X147507449Y-104991419D01*
X147580953Y-105064923D01*
X147592376Y-105092500D01*
X147580953Y-105120077D01*
X147507450Y-105193580D01*
X147507449Y-105193580D01*
X147433816Y-105321117D01*
X147395700Y-105463362D01*
X147395700Y-105610637D01*
X147433816Y-105752882D01*
X147507449Y-105880419D01*
X147611580Y-105984550D01*
X147611582Y-105984551D01*
X147739118Y-106058184D01*
X147836270Y-106084216D01*
X147881362Y-106096299D01*
X147881365Y-106096299D01*
X147881367Y-106096300D01*
X147881368Y-106096300D01*
X148028632Y-106096300D01*
X148028633Y-106096300D01*
X148170882Y-106058184D01*
X148298418Y-105984551D01*
X148298419Y-105984550D01*
X148298420Y-105984550D01*
X148402550Y-105880420D01*
X148402550Y-105880419D01*
X148402551Y-105880418D01*
X148476184Y-105752882D01*
X148514300Y-105610633D01*
X148514300Y-105463367D01*
X148476184Y-105321118D01*
X148402551Y-105193582D01*
X148402550Y-105193580D01*
X148329046Y-105120077D01*
X148317623Y-105092500D01*
X148329046Y-105064923D01*
X148402550Y-104991419D01*
X148402551Y-104991418D01*
X148476184Y-104863882D01*
X148514300Y-104721633D01*
X148514300Y-104574367D01*
X148476184Y-104432118D01*
X148402551Y-104304582D01*
X148402550Y-104304580D01*
X148298419Y-104200449D01*
X148286144Y-104193362D01*
X150697700Y-104193362D01*
X150697700Y-104340637D01*
X150735816Y-104482882D01*
X150809449Y-104610419D01*
X150913580Y-104714550D01*
X150913582Y-104714551D01*
X151041118Y-104788184D01*
X151138270Y-104814216D01*
X151183362Y-104826299D01*
X151183365Y-104826299D01*
X151183367Y-104826300D01*
X151183368Y-104826300D01*
X151330632Y-104826300D01*
X151330633Y-104826300D01*
X151472882Y-104788184D01*
X151600418Y-104714551D01*
X151600419Y-104714550D01*
X151600420Y-104714550D01*
X151704550Y-104610420D01*
X151704550Y-104610419D01*
X151704551Y-104610418D01*
X151778184Y-104482882D01*
X151816300Y-104340633D01*
X151816300Y-104193367D01*
X151816299Y-104193362D01*
X151967700Y-104193362D01*
X151967700Y-104340637D01*
X152005816Y-104482882D01*
X152079449Y-104610419D01*
X152183580Y-104714550D01*
X152183582Y-104714551D01*
X152311118Y-104788184D01*
X152408270Y-104814216D01*
X152453362Y-104826299D01*
X152453365Y-104826299D01*
X152453367Y-104826300D01*
X152453368Y-104826300D01*
X152600632Y-104826300D01*
X152600633Y-104826300D01*
X152742882Y-104788184D01*
X152870418Y-104714551D01*
X152870419Y-104714550D01*
X152870420Y-104714550D01*
X152974550Y-104610420D01*
X152974550Y-104610419D01*
X152974551Y-104610418D01*
X153048184Y-104482882D01*
X153086300Y-104340633D01*
X153086300Y-104193367D01*
X153086299Y-104193362D01*
X153237700Y-104193362D01*
X153237700Y-104340637D01*
X153275816Y-104482882D01*
X153349449Y-104610419D01*
X153453580Y-104714550D01*
X153453582Y-104714551D01*
X153581118Y-104788184D01*
X153678270Y-104814216D01*
X153723362Y-104826299D01*
X153723365Y-104826299D01*
X153723367Y-104826300D01*
X153723368Y-104826300D01*
X153870632Y-104826300D01*
X153870633Y-104826300D01*
X154012882Y-104788184D01*
X154140418Y-104714551D01*
X154140419Y-104714550D01*
X154140420Y-104714550D01*
X154244550Y-104610420D01*
X154244550Y-104610419D01*
X154244551Y-104610418D01*
X154318184Y-104482882D01*
X154356300Y-104340633D01*
X154356300Y-104193367D01*
X154356299Y-104193362D01*
X154507700Y-104193362D01*
X154507700Y-104340637D01*
X154545816Y-104482882D01*
X154619449Y-104610419D01*
X154723580Y-104714550D01*
X154723582Y-104714551D01*
X154851118Y-104788184D01*
X154948270Y-104814216D01*
X154993362Y-104826299D01*
X154993365Y-104826299D01*
X154993367Y-104826300D01*
X154993368Y-104826300D01*
X155140632Y-104826300D01*
X155140633Y-104826300D01*
X155282882Y-104788184D01*
X155410418Y-104714551D01*
X155410419Y-104714550D01*
X155410420Y-104714550D01*
X155514550Y-104610420D01*
X155514550Y-104610419D01*
X155514551Y-104610418D01*
X155588184Y-104482882D01*
X155626300Y-104340633D01*
X155626300Y-104193367D01*
X155588184Y-104051118D01*
X155523687Y-103939406D01*
X155514550Y-103923580D01*
X155410419Y-103819449D01*
X155282882Y-103745816D01*
X155140637Y-103707700D01*
X155140633Y-103707700D01*
X154993367Y-103707700D01*
X154993362Y-103707700D01*
X154851117Y-103745816D01*
X154723580Y-103819449D01*
X154723580Y-103819450D01*
X154619450Y-103923580D01*
X154619449Y-103923580D01*
X154545816Y-104051117D01*
X154507700Y-104193362D01*
X154356299Y-104193362D01*
X154318184Y-104051118D01*
X154253687Y-103939406D01*
X154244550Y-103923580D01*
X154140419Y-103819449D01*
X154012882Y-103745816D01*
X153870637Y-103707700D01*
X153870633Y-103707700D01*
X153723367Y-103707700D01*
X153723362Y-103707700D01*
X153581117Y-103745816D01*
X153453580Y-103819449D01*
X153453580Y-103819450D01*
X153349450Y-103923580D01*
X153349449Y-103923580D01*
X153275816Y-104051117D01*
X153237700Y-104193362D01*
X153086299Y-104193362D01*
X153048184Y-104051118D01*
X152983687Y-103939406D01*
X152974550Y-103923580D01*
X152870419Y-103819449D01*
X152742882Y-103745816D01*
X152600637Y-103707700D01*
X152600633Y-103707700D01*
X152453367Y-103707700D01*
X152453362Y-103707700D01*
X152311117Y-103745816D01*
X152183580Y-103819449D01*
X152183580Y-103819450D01*
X152079450Y-103923580D01*
X152079449Y-103923580D01*
X152005816Y-104051117D01*
X151967700Y-104193362D01*
X151816299Y-104193362D01*
X151778184Y-104051118D01*
X151713687Y-103939406D01*
X151704550Y-103923580D01*
X151600419Y-103819449D01*
X151472882Y-103745816D01*
X151330637Y-103707700D01*
X151330633Y-103707700D01*
X151183367Y-103707700D01*
X151183362Y-103707700D01*
X151041117Y-103745816D01*
X150913580Y-103819449D01*
X150913580Y-103819450D01*
X150809450Y-103923580D01*
X150809449Y-103923580D01*
X150735816Y-104051117D01*
X150697700Y-104193362D01*
X148286144Y-104193362D01*
X148170882Y-104126816D01*
X148028637Y-104088700D01*
X148028633Y-104088700D01*
X147881367Y-104088700D01*
X147881362Y-104088700D01*
X147739117Y-104126816D01*
X147611580Y-104200449D01*
X147611580Y-104200450D01*
X147507450Y-104304580D01*
X147507449Y-104304580D01*
X147433816Y-104432117D01*
X147395700Y-104574362D01*
X147244299Y-104574362D01*
X147206184Y-104432118D01*
X147132551Y-104304582D01*
X147132550Y-104304580D01*
X147028419Y-104200449D01*
X146900882Y-104126816D01*
X146758637Y-104088700D01*
X146758633Y-104088700D01*
X146611367Y-104088700D01*
X146611362Y-104088700D01*
X146469117Y-104126816D01*
X146341580Y-104200449D01*
X146341580Y-104200450D01*
X146237450Y-104304580D01*
X146237449Y-104304580D01*
X146163816Y-104432117D01*
X146125700Y-104574362D01*
X145974299Y-104574362D01*
X145936184Y-104432118D01*
X145862551Y-104304582D01*
X145862550Y-104304580D01*
X145758419Y-104200449D01*
X145630882Y-104126816D01*
X145488637Y-104088700D01*
X145488633Y-104088700D01*
X145341367Y-104088700D01*
X145341362Y-104088700D01*
X145199117Y-104126816D01*
X145071580Y-104200449D01*
X145071580Y-104200450D01*
X144967450Y-104304580D01*
X144967449Y-104304580D01*
X144893816Y-104432117D01*
X144855700Y-104574362D01*
X142926299Y-104574362D01*
X142888184Y-104432118D01*
X142814551Y-104304582D01*
X142814550Y-104304580D01*
X142710419Y-104200449D01*
X142582882Y-104126816D01*
X142440637Y-104088700D01*
X142440633Y-104088700D01*
X142293367Y-104088700D01*
X142293362Y-104088700D01*
X142151117Y-104126816D01*
X142023580Y-104200449D01*
X142023580Y-104200450D01*
X141919450Y-104304580D01*
X141919449Y-104304580D01*
X141845816Y-104432117D01*
X141807700Y-104574362D01*
X141656299Y-104574362D01*
X141618184Y-104432118D01*
X141544551Y-104304582D01*
X141544550Y-104304580D01*
X141440419Y-104200449D01*
X141312882Y-104126816D01*
X141170637Y-104088700D01*
X141170633Y-104088700D01*
X141023367Y-104088700D01*
X141023362Y-104088700D01*
X140881117Y-104126816D01*
X140753580Y-104200449D01*
X140753580Y-104200450D01*
X140649450Y-104304580D01*
X140649449Y-104304580D01*
X140575816Y-104432117D01*
X140537700Y-104574362D01*
X140404299Y-104574362D01*
X140366184Y-104432118D01*
X140292551Y-104304582D01*
X140292550Y-104304580D01*
X140188419Y-104200449D01*
X140060882Y-104126816D01*
X139918637Y-104088700D01*
X139918633Y-104088700D01*
X139771367Y-104088700D01*
X139771362Y-104088700D01*
X139629117Y-104126816D01*
X139501580Y-104200449D01*
X139501580Y-104200450D01*
X139397450Y-104304580D01*
X139397449Y-104304580D01*
X139323816Y-104432117D01*
X139285700Y-104574362D01*
X139285700Y-104721637D01*
X139323816Y-104863882D01*
X139397449Y-104991419D01*
X139461953Y-105055922D01*
X139473376Y-105083499D01*
X139461953Y-105111076D01*
X139379449Y-105193580D01*
X139305816Y-105321117D01*
X139267700Y-105463362D01*
X125287592Y-105463362D01*
X125250001Y-105403536D01*
X125249998Y-105403531D01*
X125057113Y-105161662D01*
X124838337Y-104942886D01*
X124596468Y-104750001D01*
X124596463Y-104749998D01*
X124334508Y-104585402D01*
X124334507Y-104585401D01*
X124334503Y-104585399D01*
X124121625Y-104482882D01*
X124055761Y-104451163D01*
X124055758Y-104451162D01*
X123763749Y-104348983D01*
X123763740Y-104348981D01*
X123462133Y-104280141D01*
X123405667Y-104273778D01*
X123154689Y-104245500D01*
X122845311Y-104245500D01*
X122594332Y-104273778D01*
X122537867Y-104280141D01*
X122537865Y-104280141D01*
X122236259Y-104348981D01*
X122236250Y-104348983D01*
X121944241Y-104451162D01*
X121944238Y-104451163D01*
X121693237Y-104572039D01*
X121688416Y-104574362D01*
X121665491Y-104585402D01*
X121403536Y-104749998D01*
X121403531Y-104750001D01*
X121161662Y-104942886D01*
X120942886Y-105161662D01*
X120750001Y-105403531D01*
X120749998Y-105403536D01*
X120585402Y-105665491D01*
X120451163Y-105944238D01*
X120451162Y-105944241D01*
X120348983Y-106236250D01*
X120348981Y-106236259D01*
X120331522Y-106312754D01*
X120314249Y-106337098D01*
X120284822Y-106342098D01*
X120260478Y-106324825D01*
X120254500Y-106304076D01*
X120254500Y-102669362D01*
X121995700Y-102669362D01*
X121995700Y-102816637D01*
X122033816Y-102958882D01*
X122107449Y-103086419D01*
X122117453Y-103096423D01*
X122128876Y-103124000D01*
X122117453Y-103151577D01*
X122107450Y-103161580D01*
X122107449Y-103161580D01*
X122033816Y-103289117D01*
X121995700Y-103431362D01*
X121995700Y-103578637D01*
X122033816Y-103720882D01*
X122107449Y-103848419D01*
X122211580Y-103952550D01*
X122211582Y-103952551D01*
X122339118Y-104026184D01*
X122432168Y-104051117D01*
X122481362Y-104064299D01*
X122481365Y-104064299D01*
X122481367Y-104064300D01*
X122481368Y-104064300D01*
X122628632Y-104064300D01*
X122628633Y-104064300D01*
X122770882Y-104026184D01*
X122898418Y-103952551D01*
X122898419Y-103952550D01*
X122898420Y-103952550D01*
X123002550Y-103848420D01*
X123002550Y-103848419D01*
X123002860Y-103847882D01*
X123076184Y-103720882D01*
X123114300Y-103578633D01*
X123114300Y-103431367D01*
X123076184Y-103289118D01*
X123002551Y-103161582D01*
X123002550Y-103161580D01*
X122992547Y-103151578D01*
X122981123Y-103124002D01*
X122992545Y-103096424D01*
X123002550Y-103086419D01*
X123010471Y-103072700D01*
X123076184Y-102958882D01*
X123114300Y-102816633D01*
X123114300Y-102669367D01*
X123114299Y-102669362D01*
X123265700Y-102669362D01*
X123265700Y-102816637D01*
X123303816Y-102958882D01*
X123377449Y-103086419D01*
X123387453Y-103096423D01*
X123398876Y-103124000D01*
X123387453Y-103151577D01*
X123377450Y-103161580D01*
X123377449Y-103161580D01*
X123303816Y-103289117D01*
X123265700Y-103431362D01*
X123265700Y-103578637D01*
X123303816Y-103720882D01*
X123377449Y-103848419D01*
X123481580Y-103952550D01*
X123481582Y-103952551D01*
X123609118Y-104026184D01*
X123702168Y-104051117D01*
X123751362Y-104064299D01*
X123751365Y-104064299D01*
X123751367Y-104064300D01*
X123751368Y-104064300D01*
X123898632Y-104064300D01*
X123898633Y-104064300D01*
X124040882Y-104026184D01*
X124168418Y-103952551D01*
X124168419Y-103952550D01*
X124168420Y-103952550D01*
X124272550Y-103848420D01*
X124272550Y-103848419D01*
X124272860Y-103847882D01*
X124346184Y-103720882D01*
X124384300Y-103578633D01*
X124384300Y-103431367D01*
X124346184Y-103289118D01*
X124272551Y-103161582D01*
X124272550Y-103161580D01*
X124262547Y-103151578D01*
X124251123Y-103124002D01*
X124262545Y-103096424D01*
X124272550Y-103086419D01*
X124280471Y-103072700D01*
X124346184Y-102958882D01*
X124384300Y-102816633D01*
X124384300Y-102669367D01*
X124384299Y-102669362D01*
X124535700Y-102669362D01*
X124535700Y-102816637D01*
X124573816Y-102958882D01*
X124647449Y-103086419D01*
X124657453Y-103096423D01*
X124668876Y-103124000D01*
X124657453Y-103151577D01*
X124647450Y-103161580D01*
X124647449Y-103161580D01*
X124573816Y-103289117D01*
X124535700Y-103431362D01*
X124535700Y-103578637D01*
X124573816Y-103720882D01*
X124647449Y-103848419D01*
X124751580Y-103952550D01*
X124751582Y-103952551D01*
X124879118Y-104026184D01*
X124972168Y-104051117D01*
X125021362Y-104064299D01*
X125021365Y-104064299D01*
X125021367Y-104064300D01*
X125021368Y-104064300D01*
X125168632Y-104064300D01*
X125168633Y-104064300D01*
X125310882Y-104026184D01*
X125438418Y-103952551D01*
X125438419Y-103952550D01*
X125438420Y-103952550D01*
X125542550Y-103848420D01*
X125542550Y-103848419D01*
X125542860Y-103847882D01*
X125616184Y-103720882D01*
X125654300Y-103578633D01*
X125654300Y-103558362D01*
X127964700Y-103558362D01*
X127964700Y-103705637D01*
X128002816Y-103847882D01*
X128050226Y-103930000D01*
X128054122Y-103959594D01*
X128050226Y-103969000D01*
X128002816Y-104051117D01*
X127964700Y-104193362D01*
X127964700Y-104340637D01*
X128002816Y-104482882D01*
X128076449Y-104610419D01*
X128180580Y-104714550D01*
X128180582Y-104714551D01*
X128308118Y-104788184D01*
X128405270Y-104814216D01*
X128450362Y-104826299D01*
X128450365Y-104826299D01*
X128450367Y-104826300D01*
X128450368Y-104826300D01*
X128597632Y-104826300D01*
X128597633Y-104826300D01*
X128739882Y-104788184D01*
X128867418Y-104714551D01*
X128867419Y-104714550D01*
X128867420Y-104714550D01*
X128971550Y-104610420D01*
X128971550Y-104610419D01*
X128971551Y-104610418D01*
X129045184Y-104482882D01*
X129083300Y-104340633D01*
X129083300Y-104193367D01*
X129045184Y-104051118D01*
X128997771Y-103968998D01*
X128993876Y-103939406D01*
X128997772Y-103930000D01*
X129045184Y-103847882D01*
X129083300Y-103705633D01*
X129083300Y-103558367D01*
X129083299Y-103558362D01*
X129234700Y-103558362D01*
X129234700Y-103705637D01*
X129272816Y-103847882D01*
X129320226Y-103930000D01*
X129324122Y-103959594D01*
X129320226Y-103969000D01*
X129272816Y-104051117D01*
X129234700Y-104193362D01*
X129234700Y-104340637D01*
X129272816Y-104482882D01*
X129346449Y-104610419D01*
X129450580Y-104714550D01*
X129450582Y-104714551D01*
X129578118Y-104788184D01*
X129675270Y-104814216D01*
X129720362Y-104826299D01*
X129720365Y-104826299D01*
X129720367Y-104826300D01*
X129720368Y-104826300D01*
X129867632Y-104826300D01*
X129867633Y-104826300D01*
X130009882Y-104788184D01*
X130137418Y-104714551D01*
X130137419Y-104714550D01*
X130137420Y-104714550D01*
X130241550Y-104610420D01*
X130241550Y-104610419D01*
X130241551Y-104610418D01*
X130315184Y-104482882D01*
X130353300Y-104340633D01*
X130353300Y-104193367D01*
X130315184Y-104051118D01*
X130267771Y-103968998D01*
X130263876Y-103939406D01*
X130267772Y-103930000D01*
X130315184Y-103847882D01*
X130353300Y-103705633D01*
X130353300Y-103558367D01*
X130353299Y-103558362D01*
X130504700Y-103558362D01*
X130504700Y-103705637D01*
X130542816Y-103847882D01*
X130590226Y-103930000D01*
X130594122Y-103959594D01*
X130590226Y-103969000D01*
X130542816Y-104051117D01*
X130504700Y-104193362D01*
X130504700Y-104340637D01*
X130542816Y-104482882D01*
X130616449Y-104610419D01*
X130720580Y-104714550D01*
X130720582Y-104714551D01*
X130848118Y-104788184D01*
X130945270Y-104814216D01*
X130990362Y-104826299D01*
X130990365Y-104826299D01*
X130990367Y-104826300D01*
X130990368Y-104826300D01*
X131137632Y-104826300D01*
X131137633Y-104826300D01*
X131279882Y-104788184D01*
X131407418Y-104714551D01*
X131407419Y-104714550D01*
X131407420Y-104714550D01*
X131511550Y-104610420D01*
X131511550Y-104610419D01*
X131511551Y-104610418D01*
X131585184Y-104482882D01*
X131623300Y-104340633D01*
X131623300Y-104193367D01*
X131585184Y-104051118D01*
X131537771Y-103968998D01*
X131533876Y-103939406D01*
X131537772Y-103930000D01*
X131585184Y-103847882D01*
X131623300Y-103705633D01*
X131623300Y-103558367D01*
X131623299Y-103558362D01*
X131774700Y-103558362D01*
X131774700Y-103705637D01*
X131812816Y-103847882D01*
X131860226Y-103930000D01*
X131864122Y-103959594D01*
X131860226Y-103969000D01*
X131812816Y-104051117D01*
X131774700Y-104193362D01*
X131774700Y-104340637D01*
X131812816Y-104482882D01*
X131886449Y-104610419D01*
X131990580Y-104714550D01*
X131990582Y-104714551D01*
X132118118Y-104788184D01*
X132215270Y-104814216D01*
X132260362Y-104826299D01*
X132260365Y-104826299D01*
X132260367Y-104826300D01*
X132260368Y-104826300D01*
X132407632Y-104826300D01*
X132407633Y-104826300D01*
X132549882Y-104788184D01*
X132677418Y-104714551D01*
X132677419Y-104714550D01*
X132677420Y-104714550D01*
X132781550Y-104610420D01*
X132781550Y-104610419D01*
X132781551Y-104610418D01*
X132855184Y-104482882D01*
X132893300Y-104340633D01*
X132893300Y-104193367D01*
X132855184Y-104051118D01*
X132807771Y-103968998D01*
X132803876Y-103939406D01*
X132807772Y-103930000D01*
X132855184Y-103847882D01*
X132893300Y-103705633D01*
X132893300Y-103558367D01*
X132893299Y-103558362D01*
X133679700Y-103558362D01*
X133679700Y-103705637D01*
X133717816Y-103847882D01*
X133765226Y-103930000D01*
X133769122Y-103959594D01*
X133765226Y-103969000D01*
X133717816Y-104051117D01*
X133679700Y-104193362D01*
X133679700Y-104340637D01*
X133717816Y-104482882D01*
X133791449Y-104610419D01*
X133895580Y-104714550D01*
X133895582Y-104714551D01*
X134023118Y-104788184D01*
X134120270Y-104814216D01*
X134165362Y-104826299D01*
X134165365Y-104826299D01*
X134165367Y-104826300D01*
X134165368Y-104826300D01*
X134312632Y-104826300D01*
X134312633Y-104826300D01*
X134454882Y-104788184D01*
X134582418Y-104714551D01*
X134582419Y-104714550D01*
X134582420Y-104714550D01*
X134686550Y-104610420D01*
X134686550Y-104610419D01*
X134686551Y-104610418D01*
X134760184Y-104482882D01*
X134798300Y-104340633D01*
X134798300Y-104193367D01*
X134760184Y-104051118D01*
X134712771Y-103968998D01*
X134708876Y-103939406D01*
X134712772Y-103930000D01*
X134760184Y-103847882D01*
X134798300Y-103705633D01*
X134798300Y-103558367D01*
X134798299Y-103558362D01*
X134949700Y-103558362D01*
X134949700Y-103705637D01*
X134987816Y-103847882D01*
X135035226Y-103930000D01*
X135039122Y-103959594D01*
X135035226Y-103969000D01*
X134987816Y-104051117D01*
X134949700Y-104193362D01*
X134949700Y-104340637D01*
X134987816Y-104482882D01*
X135061449Y-104610419D01*
X135165580Y-104714550D01*
X135165582Y-104714551D01*
X135293118Y-104788184D01*
X135390270Y-104814216D01*
X135435362Y-104826299D01*
X135435365Y-104826299D01*
X135435367Y-104826300D01*
X135435368Y-104826300D01*
X135582632Y-104826300D01*
X135582633Y-104826300D01*
X135724882Y-104788184D01*
X135852418Y-104714551D01*
X135852419Y-104714550D01*
X135852420Y-104714550D01*
X135956550Y-104610420D01*
X135956550Y-104610419D01*
X135956551Y-104610418D01*
X136030184Y-104482882D01*
X136068300Y-104340633D01*
X136068300Y-104193367D01*
X136030184Y-104051118D01*
X135982771Y-103968998D01*
X135978876Y-103939406D01*
X135982772Y-103930000D01*
X136030184Y-103847882D01*
X136068300Y-103705633D01*
X136068300Y-103558367D01*
X136068299Y-103558362D01*
X136219700Y-103558362D01*
X136219700Y-103705637D01*
X136257816Y-103847882D01*
X136305226Y-103930000D01*
X136309122Y-103959594D01*
X136305226Y-103969000D01*
X136257816Y-104051117D01*
X136219700Y-104193362D01*
X136219700Y-104340637D01*
X136257816Y-104482882D01*
X136331449Y-104610419D01*
X136435580Y-104714550D01*
X136435582Y-104714551D01*
X136563118Y-104788184D01*
X136660270Y-104814216D01*
X136705362Y-104826299D01*
X136705365Y-104826299D01*
X136705367Y-104826300D01*
X136705368Y-104826300D01*
X136852632Y-104826300D01*
X136852633Y-104826300D01*
X136994882Y-104788184D01*
X137122418Y-104714551D01*
X137122419Y-104714550D01*
X137122420Y-104714550D01*
X137226550Y-104610420D01*
X137226550Y-104610419D01*
X137226551Y-104610418D01*
X137300184Y-104482882D01*
X137338300Y-104340633D01*
X137338300Y-104193367D01*
X137300184Y-104051118D01*
X137252771Y-103968998D01*
X137248876Y-103939406D01*
X137252772Y-103930000D01*
X137300184Y-103847882D01*
X137338300Y-103705633D01*
X137338300Y-103558367D01*
X137338299Y-103558362D01*
X137489700Y-103558362D01*
X137489700Y-103705637D01*
X137527816Y-103847882D01*
X137575226Y-103930000D01*
X137579122Y-103959594D01*
X137575226Y-103969000D01*
X137527816Y-104051117D01*
X137489700Y-104193362D01*
X137489700Y-104340637D01*
X137527816Y-104482882D01*
X137601449Y-104610419D01*
X137705580Y-104714550D01*
X137705582Y-104714551D01*
X137833118Y-104788184D01*
X137930270Y-104814216D01*
X137975362Y-104826299D01*
X137975365Y-104826299D01*
X137975367Y-104826300D01*
X137975368Y-104826300D01*
X138122632Y-104826300D01*
X138122633Y-104826300D01*
X138264882Y-104788184D01*
X138392418Y-104714551D01*
X138392419Y-104714550D01*
X138392420Y-104714550D01*
X138496550Y-104610420D01*
X138496550Y-104610419D01*
X138496551Y-104610418D01*
X138570184Y-104482882D01*
X138608300Y-104340633D01*
X138608300Y-104193367D01*
X138570184Y-104051118D01*
X138522771Y-103968998D01*
X138518876Y-103939406D01*
X138522772Y-103930000D01*
X138570184Y-103847882D01*
X138608300Y-103705633D01*
X138608300Y-103558367D01*
X138570184Y-103416118D01*
X138516280Y-103322753D01*
X138496550Y-103288580D01*
X138392419Y-103184449D01*
X138264882Y-103110816D01*
X138122637Y-103072700D01*
X138122633Y-103072700D01*
X137975367Y-103072700D01*
X137975362Y-103072700D01*
X137833117Y-103110816D01*
X137705580Y-103184449D01*
X137705580Y-103184450D01*
X137601450Y-103288580D01*
X137601449Y-103288580D01*
X137527816Y-103416117D01*
X137489700Y-103558362D01*
X137338299Y-103558362D01*
X137300184Y-103416118D01*
X137246280Y-103322753D01*
X137226550Y-103288580D01*
X137122419Y-103184449D01*
X136994882Y-103110816D01*
X136852637Y-103072700D01*
X136852633Y-103072700D01*
X136705367Y-103072700D01*
X136705362Y-103072700D01*
X136563117Y-103110816D01*
X136435580Y-103184449D01*
X136435580Y-103184450D01*
X136331450Y-103288580D01*
X136331449Y-103288580D01*
X136257816Y-103416117D01*
X136219700Y-103558362D01*
X136068299Y-103558362D01*
X136030184Y-103416118D01*
X135976280Y-103322753D01*
X135956550Y-103288580D01*
X135852419Y-103184449D01*
X135724882Y-103110816D01*
X135582637Y-103072700D01*
X135582633Y-103072700D01*
X135435367Y-103072700D01*
X135435362Y-103072700D01*
X135293117Y-103110816D01*
X135165580Y-103184449D01*
X135165580Y-103184450D01*
X135061450Y-103288580D01*
X135061449Y-103288580D01*
X134987816Y-103416117D01*
X134949700Y-103558362D01*
X134798299Y-103558362D01*
X134760184Y-103416118D01*
X134706280Y-103322753D01*
X134686550Y-103288580D01*
X134582419Y-103184449D01*
X134454882Y-103110816D01*
X134312637Y-103072700D01*
X134312633Y-103072700D01*
X134165367Y-103072700D01*
X134165362Y-103072700D01*
X134023117Y-103110816D01*
X133895580Y-103184449D01*
X133895580Y-103184450D01*
X133791450Y-103288580D01*
X133791449Y-103288580D01*
X133717816Y-103416117D01*
X133679700Y-103558362D01*
X132893299Y-103558362D01*
X132855184Y-103416118D01*
X132801280Y-103322753D01*
X132781550Y-103288580D01*
X132677419Y-103184449D01*
X132549882Y-103110816D01*
X132407637Y-103072700D01*
X132407633Y-103072700D01*
X132260367Y-103072700D01*
X132260362Y-103072700D01*
X132118117Y-103110816D01*
X131990580Y-103184449D01*
X131990580Y-103184450D01*
X131886450Y-103288580D01*
X131886449Y-103288580D01*
X131812816Y-103416117D01*
X131774700Y-103558362D01*
X131623299Y-103558362D01*
X131585184Y-103416118D01*
X131531280Y-103322753D01*
X131511550Y-103288580D01*
X131407419Y-103184449D01*
X131279882Y-103110816D01*
X131137637Y-103072700D01*
X131137633Y-103072700D01*
X130990367Y-103072700D01*
X130990362Y-103072700D01*
X130848117Y-103110816D01*
X130720580Y-103184449D01*
X130720580Y-103184450D01*
X130616450Y-103288580D01*
X130616449Y-103288580D01*
X130542816Y-103416117D01*
X130504700Y-103558362D01*
X130353299Y-103558362D01*
X130315184Y-103416118D01*
X130261280Y-103322753D01*
X130241550Y-103288580D01*
X130137419Y-103184449D01*
X130009882Y-103110816D01*
X129867637Y-103072700D01*
X129867633Y-103072700D01*
X129720367Y-103072700D01*
X129720362Y-103072700D01*
X129578117Y-103110816D01*
X129450580Y-103184449D01*
X129450580Y-103184450D01*
X129346450Y-103288580D01*
X129346449Y-103288580D01*
X129272816Y-103416117D01*
X129234700Y-103558362D01*
X129083299Y-103558362D01*
X129045184Y-103416118D01*
X128991280Y-103322753D01*
X128971550Y-103288580D01*
X128867419Y-103184449D01*
X128739882Y-103110816D01*
X128597637Y-103072700D01*
X128597633Y-103072700D01*
X128450367Y-103072700D01*
X128450362Y-103072700D01*
X128308117Y-103110816D01*
X128180580Y-103184449D01*
X128180580Y-103184450D01*
X128076450Y-103288580D01*
X128076449Y-103288580D01*
X128002816Y-103416117D01*
X127964700Y-103558362D01*
X125654300Y-103558362D01*
X125654300Y-103431367D01*
X125616184Y-103289118D01*
X125542551Y-103161582D01*
X125542550Y-103161580D01*
X125532547Y-103151578D01*
X125521123Y-103124002D01*
X125532545Y-103096424D01*
X125542550Y-103086419D01*
X125550471Y-103072700D01*
X125616184Y-102958882D01*
X125654300Y-102816633D01*
X125654300Y-102669367D01*
X125616184Y-102527118D01*
X125542551Y-102399582D01*
X125542550Y-102399580D01*
X125438419Y-102295449D01*
X125310882Y-102221816D01*
X125168637Y-102183700D01*
X125168633Y-102183700D01*
X125021367Y-102183700D01*
X125021362Y-102183700D01*
X124879117Y-102221816D01*
X124751580Y-102295449D01*
X124751580Y-102295450D01*
X124647450Y-102399580D01*
X124647449Y-102399580D01*
X124573816Y-102527117D01*
X124535700Y-102669362D01*
X124384299Y-102669362D01*
X124346184Y-102527118D01*
X124272551Y-102399582D01*
X124272550Y-102399580D01*
X124168419Y-102295449D01*
X124040882Y-102221816D01*
X123898637Y-102183700D01*
X123898633Y-102183700D01*
X123751367Y-102183700D01*
X123751362Y-102183700D01*
X123609117Y-102221816D01*
X123481580Y-102295449D01*
X123481580Y-102295450D01*
X123377450Y-102399580D01*
X123377449Y-102399580D01*
X123303816Y-102527117D01*
X123265700Y-102669362D01*
X123114299Y-102669362D01*
X123076184Y-102527118D01*
X123002551Y-102399582D01*
X123002550Y-102399580D01*
X122898419Y-102295449D01*
X122770882Y-102221816D01*
X122628637Y-102183700D01*
X122628633Y-102183700D01*
X122481367Y-102183700D01*
X122481362Y-102183700D01*
X122339117Y-102221816D01*
X122211580Y-102295449D01*
X122211580Y-102295450D01*
X122107450Y-102399580D01*
X122107449Y-102399580D01*
X122033816Y-102527117D01*
X121995700Y-102669362D01*
X120254500Y-102669362D01*
X120254500Y-96539000D01*
X120265923Y-96511423D01*
X120293500Y-96500000D01*
X128461000Y-96500000D01*
X128488577Y-96511423D01*
G37*
%TD.AperFunction*%
%TD*%
%TA.AperFunction,Conductor*%
%TO.N,GND*%
G36*
X132744577Y-82190577D02*
G01*
X136886423Y-86332423D01*
X136897846Y-86360000D01*
X136886423Y-86387577D01*
X132744577Y-90529423D01*
X132717000Y-90540846D01*
X132689423Y-90529423D01*
X128547577Y-86387577D01*
X128536154Y-86360000D01*
X128547577Y-86332423D01*
X132689423Y-82190577D01*
X132717000Y-82179154D01*
X132744577Y-82190577D01*
G37*
%TD.AperFunction*%
%TD*%
%TA.AperFunction,Conductor*%
%TO.N,/ADC1_IN0*%
G36*
X139784586Y-86123133D02*
G01*
X139792637Y-86127055D01*
X139795578Y-86134812D01*
X139795578Y-86270311D01*
X139792151Y-86278584D01*
X139790855Y-86279702D01*
X139541912Y-86464334D01*
X139533225Y-86466509D01*
X139525544Y-86461906D01*
X139525240Y-86461476D01*
X139420931Y-86306738D01*
X139419149Y-86297962D01*
X139456800Y-86113328D01*
X139461811Y-86105909D01*
X139468971Y-86103989D01*
X139784586Y-86123133D01*
G37*
%TD.AperFunction*%
%TD*%
%TA.AperFunction,Conductor*%
%TO.N,/ADC1_IN0*%
G36*
X152350446Y-78834091D02*
G01*
X152351720Y-78834823D01*
X152377552Y-78851903D01*
X152508321Y-78938372D01*
X152511627Y-78941678D01*
X152615175Y-79098277D01*
X152616880Y-79107068D01*
X152611869Y-79114489D01*
X152610593Y-79115222D01*
X152286399Y-79275173D01*
X152277463Y-79275761D01*
X152272949Y-79272954D01*
X152177045Y-79177050D01*
X152173618Y-79168777D01*
X152174825Y-79163602D01*
X152334777Y-78839405D01*
X152341510Y-78833503D01*
X152350446Y-78834091D01*
G37*
%TD.AperFunction*%
%TD*%
%TA.AperFunction,Conductor*%
%TO.N,/ADC2_IN1*%
G36*
X138326655Y-85777440D02*
G01*
X138422559Y-85873344D01*
X138425986Y-85881617D01*
X138424778Y-85886794D01*
X138264827Y-86210988D01*
X138258094Y-86216891D01*
X138249158Y-86216303D01*
X138247882Y-86215570D01*
X138091283Y-86112022D01*
X138087977Y-86108716D01*
X137984429Y-85952117D01*
X137982724Y-85943326D01*
X137987735Y-85935905D01*
X137989007Y-85935174D01*
X138313206Y-85775220D01*
X138322141Y-85774633D01*
X138326655Y-85777440D01*
G37*
%TD.AperFunction*%
%TD*%
%TA.AperFunction,Conductor*%
%TO.N,/ADC2_IN1*%
G36*
X152836917Y-78155366D02*
G01*
X152842650Y-78162244D01*
X152842944Y-78163388D01*
X152880523Y-78347662D01*
X152880523Y-78352338D01*
X152843076Y-78535964D01*
X152838065Y-78543385D01*
X152829274Y-78545090D01*
X152827583Y-78544610D01*
X152485175Y-78419013D01*
X152478588Y-78412947D01*
X152477504Y-78408029D01*
X152477504Y-78272408D01*
X152480931Y-78264135D01*
X152485720Y-78261239D01*
X152827999Y-78154556D01*
X152836917Y-78155366D01*
G37*
%TD.AperFunction*%
%TD*%
%TA.AperFunction,Conductor*%
%TO.N,/I2C1_SCL*%
G36*
X145266290Y-71896989D02*
G01*
X145273710Y-71902000D01*
X145275415Y-71910791D01*
X145275031Y-71912212D01*
X145158894Y-72254555D01*
X145152991Y-72261288D01*
X145147814Y-72262496D01*
X145012186Y-72262496D01*
X145003913Y-72259069D01*
X145001106Y-72254555D01*
X144884968Y-71912212D01*
X144885556Y-71903276D01*
X144892289Y-71897373D01*
X144893699Y-71896991D01*
X145077666Y-71859476D01*
X145082334Y-71859476D01*
X145266290Y-71896989D01*
G37*
%TD.AperFunction*%
%TD*%
%TA.AperFunction,Conductor*%
%TO.N,/I2C1_SCL*%
G36*
X148012739Y-82971525D02*
G01*
X148015546Y-82976039D01*
X148131683Y-83318381D01*
X148131095Y-83327317D01*
X148124362Y-83333220D01*
X148122941Y-83333604D01*
X147938990Y-83371117D01*
X147934314Y-83371117D01*
X147750362Y-83333604D01*
X147742941Y-83328593D01*
X147741236Y-83319802D01*
X147741617Y-83318390D01*
X147857758Y-82976038D01*
X147863661Y-82969306D01*
X147868838Y-82968098D01*
X148004466Y-82968098D01*
X148012739Y-82971525D01*
G37*
%TD.AperFunction*%
%TD*%
%TA.AperFunction,Conductor*%
%TO.N,/SWCLK*%
G36*
X161955793Y-82205220D02*
G01*
X162128149Y-82290257D01*
X162279988Y-82365172D01*
X162285891Y-82371905D01*
X162285303Y-82380841D01*
X162284570Y-82382117D01*
X162181022Y-82538716D01*
X162177716Y-82542022D01*
X162021117Y-82645570D01*
X162012326Y-82647275D01*
X162004905Y-82642264D01*
X162004172Y-82640988D01*
X161871412Y-82371905D01*
X161844220Y-82316793D01*
X161843633Y-82307858D01*
X161846438Y-82303346D01*
X161942345Y-82207439D01*
X161950617Y-82204013D01*
X161955793Y-82205220D01*
G37*
%TD.AperFunction*%
%TD*%
%TA.AperFunction,Conductor*%
%TO.N,/SWCLK*%
G36*
X152618110Y-83079500D02*
G01*
X152960458Y-83195640D01*
X152967191Y-83201543D01*
X152968399Y-83206720D01*
X152968399Y-83342347D01*
X152964972Y-83350620D01*
X152960458Y-83353427D01*
X152618115Y-83469565D01*
X152609179Y-83468977D01*
X152603276Y-83462244D01*
X152602894Y-83460830D01*
X152565379Y-83276868D01*
X152565379Y-83272199D01*
X152602893Y-83088242D01*
X152607903Y-83080823D01*
X152616694Y-83079118D01*
X152618110Y-83079500D01*
G37*
%TD.AperFunction*%
%TD*%
%TA.AperFunction,Conductor*%
%TO.N,/RESET*%
G36*
X158312874Y-78905562D02*
G01*
X158318777Y-78912295D01*
X158319161Y-78913716D01*
X158356674Y-79097668D01*
X158356674Y-79102344D01*
X158319251Y-79285852D01*
X158314240Y-79293273D01*
X158305449Y-79294978D01*
X158301938Y-79293647D01*
X158297057Y-79290829D01*
X158297055Y-79290828D01*
X158271157Y-79283889D01*
X158270426Y-79283668D01*
X157961596Y-79178899D01*
X157954863Y-79172996D01*
X157953655Y-79167819D01*
X157953655Y-79032192D01*
X157957082Y-79023919D01*
X157961596Y-79021112D01*
X158303939Y-78904974D01*
X158312874Y-78905562D01*
G37*
%TD.AperFunction*%
%TD*%
%TA.AperFunction,Conductor*%
%TO.N,/RESET*%
G36*
X152336087Y-82300931D02*
G01*
X152338894Y-82305445D01*
X152455031Y-82647787D01*
X152454443Y-82656723D01*
X152447710Y-82662626D01*
X152446289Y-82663010D01*
X152262338Y-82700523D01*
X152257662Y-82700523D01*
X152073710Y-82663010D01*
X152066289Y-82657999D01*
X152064584Y-82649208D01*
X152064965Y-82647796D01*
X152181106Y-82305444D01*
X152187009Y-82298712D01*
X152192186Y-82297504D01*
X152327814Y-82297504D01*
X152336087Y-82300931D01*
G37*
%TD.AperFunction*%
%TD*%
%TA.AperFunction,Conductor*%
%TO.N,/DRV_STA*%
G36*
X151915964Y-81186923D02*
G01*
X151923385Y-81191934D01*
X151925090Y-81200725D01*
X151924610Y-81202416D01*
X151799215Y-81544278D01*
X151799014Y-81544825D01*
X151792948Y-81551412D01*
X151788030Y-81552496D01*
X151652409Y-81552496D01*
X151644136Y-81549069D01*
X151641239Y-81544278D01*
X151534556Y-81202001D01*
X151535366Y-81193082D01*
X151542244Y-81187349D01*
X151543380Y-81187056D01*
X151727666Y-81149476D01*
X151732334Y-81149476D01*
X151915964Y-81186923D01*
G37*
%TD.AperFunction*%
%TD*%
%TA.AperFunction,Conductor*%
%TO.N,/DRV_STA*%
G36*
X161306723Y-82575556D02*
G01*
X161312626Y-82582289D01*
X161313010Y-82583710D01*
X161350523Y-82767662D01*
X161350523Y-82772338D01*
X161313010Y-82956289D01*
X161307999Y-82963710D01*
X161299208Y-82965415D01*
X161297787Y-82965031D01*
X160955445Y-82848893D01*
X160948712Y-82842990D01*
X160947504Y-82837813D01*
X160947504Y-82702186D01*
X160950931Y-82693913D01*
X160955445Y-82691106D01*
X161297788Y-82574968D01*
X161306723Y-82575556D01*
G37*
%TD.AperFunction*%
%TD*%
%TA.AperFunction,Conductor*%
%TO.N,/MCU_STA*%
G36*
X161433032Y-79287852D02*
G01*
X161434137Y-79289129D01*
X161641622Y-79567277D01*
X161643822Y-79575958D01*
X161639240Y-79583651D01*
X161638791Y-79583970D01*
X161484766Y-79687966D01*
X161475992Y-79689755D01*
X161475905Y-79689738D01*
X161291527Y-79652541D01*
X161284095Y-79647546D01*
X161282258Y-79639426D01*
X161317738Y-79389914D01*
X161321047Y-79383291D01*
X161416487Y-79287851D01*
X161424759Y-79284425D01*
X161433032Y-79287852D01*
G37*
%TD.AperFunction*%
%TD*%
%TA.AperFunction,Conductor*%
%TO.N,/MCU_STA*%
G36*
X152166871Y-80481880D02*
G01*
X152509180Y-80591200D01*
X152516019Y-80596981D01*
X152517321Y-80602345D01*
X152517321Y-80737970D01*
X152513894Y-80746243D01*
X152509576Y-80748981D01*
X152167185Y-80871943D01*
X152158240Y-80871515D01*
X152152219Y-80864887D01*
X152151768Y-80863280D01*
X152114301Y-80679549D01*
X152114301Y-80674880D01*
X152151862Y-80490690D01*
X152156873Y-80483270D01*
X152165664Y-80481565D01*
X152166871Y-80481880D01*
G37*
%TD.AperFunction*%
%TD*%
%TA.AperFunction,Conductor*%
%TO.N,/SWDIO*%
G36*
X153237692Y-81896403D02*
G01*
X153333596Y-81992307D01*
X153337023Y-82000580D01*
X153335815Y-82005757D01*
X153175841Y-82329952D01*
X153169107Y-82335855D01*
X153160172Y-82335267D01*
X153158896Y-82334534D01*
X153002296Y-82230985D01*
X152998990Y-82227679D01*
X152895442Y-82071080D01*
X152893737Y-82062289D01*
X152898748Y-82054868D01*
X152900009Y-82054142D01*
X153224245Y-81894182D01*
X153233178Y-81893596D01*
X153237692Y-81896403D01*
G37*
%TD.AperFunction*%
%TD*%
%TA.AperFunction,Conductor*%
%TO.N,/SWDIO*%
G36*
X162136869Y-81184628D02*
G01*
X162141638Y-81191885D01*
X162179019Y-81375190D01*
X162177314Y-81383981D01*
X162177257Y-81384068D01*
X162072051Y-81540137D01*
X162064585Y-81545081D01*
X162056764Y-81543878D01*
X161791052Y-81399522D01*
X161785418Y-81392561D01*
X161784937Y-81389241D01*
X161784937Y-81253601D01*
X161788364Y-81245328D01*
X161794585Y-81242082D01*
X162128123Y-81182704D01*
X162136869Y-81184628D01*
G37*
%TD.AperFunction*%
%TD*%
%TA.AperFunction,Conductor*%
%TO.N,/USART3_TX*%
G36*
X163476723Y-78285556D02*
G01*
X163482626Y-78292289D01*
X163483010Y-78293710D01*
X163520523Y-78477662D01*
X163520523Y-78482338D01*
X163483010Y-78666289D01*
X163477999Y-78673710D01*
X163469208Y-78675415D01*
X163467787Y-78675031D01*
X163125445Y-78558893D01*
X163118712Y-78552990D01*
X163117504Y-78547813D01*
X163117504Y-78412186D01*
X163120931Y-78403913D01*
X163125445Y-78401106D01*
X163467788Y-78284968D01*
X163476723Y-78285556D01*
G37*
%TD.AperFunction*%
%TD*%
%TA.AperFunction,Conductor*%
%TO.N,/USART3_TX*%
G36*
X152763907Y-79958998D02*
G01*
X153106255Y-80075138D01*
X153112988Y-80081041D01*
X153114196Y-80086218D01*
X153114196Y-80221845D01*
X153110769Y-80230118D01*
X153106255Y-80232925D01*
X152763912Y-80349063D01*
X152754976Y-80348475D01*
X152749073Y-80341742D01*
X152748691Y-80340328D01*
X152711176Y-80156366D01*
X152711176Y-80151697D01*
X152748690Y-79967740D01*
X152753700Y-79960321D01*
X152762491Y-79958616D01*
X152763907Y-79958998D01*
G37*
%TD.AperFunction*%
%TD*%
%TA.AperFunction,Conductor*%
%TO.N,/USART3_RX*%
G36*
X163266793Y-77205220D02*
G01*
X163439149Y-77290257D01*
X163590988Y-77365172D01*
X163596891Y-77371905D01*
X163596303Y-77380841D01*
X163595570Y-77382117D01*
X163492022Y-77538716D01*
X163488716Y-77542022D01*
X163332117Y-77645570D01*
X163323326Y-77647275D01*
X163315905Y-77642264D01*
X163315172Y-77640988D01*
X163182412Y-77371905D01*
X163155220Y-77316793D01*
X163154633Y-77307858D01*
X163157438Y-77303346D01*
X163253345Y-77207439D01*
X163261617Y-77204013D01*
X163266793Y-77205220D01*
G37*
%TD.AperFunction*%
%TD*%
%TA.AperFunction,Conductor*%
%TO.N,/USART3_RX*%
G36*
X152951889Y-79306331D02*
G01*
X152953065Y-79307360D01*
X153048850Y-79403145D01*
X153052277Y-79411418D01*
X153049239Y-79419283D01*
X152838040Y-79651894D01*
X152829942Y-79655715D01*
X152822925Y-79653788D01*
X152665727Y-79549844D01*
X152660716Y-79542423D01*
X152660696Y-79542321D01*
X152635137Y-79411029D01*
X152625069Y-79359311D01*
X152626851Y-79350537D01*
X152634317Y-79345593D01*
X152634965Y-79345485D01*
X152943234Y-79304037D01*
X152951889Y-79306331D01*
G37*
%TD.AperFunction*%
%TD*%
%TA.AperFunction,Conductor*%
%TO.N,/SPI3_MOSI*%
G36*
X146343226Y-83832632D02*
G01*
X146448819Y-83989275D01*
X146450601Y-83998051D01*
X146450581Y-83998153D01*
X146413313Y-84180904D01*
X146408302Y-84188325D01*
X146399511Y-84190030D01*
X146399243Y-84189972D01*
X146057414Y-84111877D01*
X146050112Y-84106694D01*
X146048320Y-84100471D01*
X146048320Y-83964897D01*
X146051747Y-83956624D01*
X146055123Y-83954272D01*
X146084641Y-83940703D01*
X146086459Y-83940048D01*
X146127057Y-83929170D01*
X146194293Y-83890351D01*
X146195212Y-83889875D01*
X146328637Y-83828540D01*
X146337586Y-83828200D01*
X146343226Y-83832632D01*
G37*
%TD.AperFunction*%
%TD*%
%TA.AperFunction,Conductor*%
%TO.N,/SPI3_MOSI*%
G36*
X136289556Y-82992456D02*
G01*
X136631904Y-83108596D01*
X136638637Y-83114499D01*
X136639845Y-83119676D01*
X136639845Y-83255303D01*
X136636418Y-83263576D01*
X136631904Y-83266383D01*
X136289561Y-83382520D01*
X136280625Y-83381932D01*
X136274722Y-83375199D01*
X136274338Y-83373778D01*
X136251865Y-83263576D01*
X136236825Y-83189824D01*
X136236825Y-83185155D01*
X136274339Y-83001198D01*
X136279349Y-82993779D01*
X136288140Y-82992074D01*
X136289556Y-82992456D01*
G37*
%TD.AperFunction*%
%TD*%
%TA.AperFunction,Conductor*%
%TO.N,/TIM1_CH1*%
G36*
X131917115Y-81017900D02*
G01*
X132012979Y-81113764D01*
X132016406Y-81122037D01*
X132015530Y-81126480D01*
X131902938Y-81400767D01*
X131896626Y-81407119D01*
X131889878Y-81407808D01*
X131704109Y-81371644D01*
X131696643Y-81366700D01*
X131696586Y-81366613D01*
X131593922Y-81211350D01*
X131592217Y-81202559D01*
X131597228Y-81195138D01*
X131597748Y-81194812D01*
X131902930Y-81016076D01*
X131911800Y-81014853D01*
X131917115Y-81017900D01*
G37*
%TD.AperFunction*%
%TD*%
%TA.AperFunction,Conductor*%
%TO.N,/TIM1_CH1*%
G36*
X144606530Y-80695757D02*
G01*
X144612596Y-80702344D01*
X144613076Y-80704035D01*
X144650523Y-80887662D01*
X144650523Y-80892338D01*
X144612944Y-81076611D01*
X144607933Y-81084032D01*
X144599142Y-81085737D01*
X144597998Y-81085443D01*
X144255722Y-80978761D01*
X144248844Y-80973028D01*
X144247504Y-80967591D01*
X144247504Y-80831970D01*
X144250931Y-80823697D01*
X144255174Y-80820986D01*
X144597585Y-80695389D01*
X144606530Y-80695757D01*
G37*
%TD.AperFunction*%
%TD*%
%TA.AperFunction,Conductor*%
%TO.N,/SPI3_SCK*%
G36*
X142501682Y-88942324D02*
G01*
X142503412Y-88943270D01*
X142578444Y-88992961D01*
X142656740Y-89044813D01*
X142661746Y-89052238D01*
X142661757Y-89052296D01*
X142698547Y-89238179D01*
X142696792Y-89246960D01*
X142691308Y-89251357D01*
X142468243Y-89338037D01*
X142464005Y-89338831D01*
X142331757Y-89338831D01*
X142323484Y-89335404D01*
X142320057Y-89327131D01*
X142321054Y-89322405D01*
X142486253Y-88948301D01*
X142492730Y-88942117D01*
X142501682Y-88942324D01*
G37*
%TD.AperFunction*%
%TD*%
%TA.AperFunction,Conductor*%
%TO.N,/ENCODER_CAL_EN*%
G36*
X142755613Y-88160598D02*
G01*
X142834818Y-88261586D01*
X142957382Y-88417859D01*
X142959791Y-88426482D01*
X142956449Y-88433351D01*
X142860549Y-88529251D01*
X142852276Y-88532678D01*
X142849761Y-88532404D01*
X142551508Y-88466750D01*
X142544165Y-88461625D01*
X142542539Y-88453090D01*
X142578355Y-88269108D01*
X142583297Y-88261645D01*
X142739955Y-88158058D01*
X142748745Y-88156354D01*
X142755613Y-88160598D01*
G37*
%TD.AperFunction*%
%TD*%
%TA.AperFunction,Conductor*%
%TO.N,+5V*%
G36*
X123511081Y-89015720D02*
G01*
X123514353Y-89022097D01*
X123570514Y-89364036D01*
X123568474Y-89372755D01*
X123561307Y-89377396D01*
X123375381Y-89415312D01*
X123370705Y-89415312D01*
X123184778Y-89377396D01*
X123177357Y-89372385D01*
X123175571Y-89364038D01*
X123231733Y-89022097D01*
X123236455Y-89014488D01*
X123243278Y-89012293D01*
X123502808Y-89012293D01*
X123511081Y-89015720D01*
G37*
%TD.AperFunction*%
%TD*%
%TA.AperFunction,Conductor*%
%TO.N,+5V*%
G36*
X127555520Y-76346254D02*
G01*
X127757596Y-76627754D01*
X127759636Y-76636473D01*
X127756364Y-76642850D01*
X127572850Y-76826364D01*
X127564577Y-76829791D01*
X127557754Y-76827596D01*
X127276254Y-76625520D01*
X127271532Y-76617911D01*
X127273317Y-76609564D01*
X127377977Y-76451282D01*
X127381283Y-76447977D01*
X127539563Y-76343317D01*
X127548353Y-76341613D01*
X127555520Y-76346254D01*
G37*
%TD.AperFunction*%
%TD*%
%TA.AperFunction,Conductor*%
%TO.N,/SPI3_MISO*%
G36*
X136554226Y-83677870D02*
G01*
X136554959Y-83679146D01*
X136714910Y-84003340D01*
X136715498Y-84012276D01*
X136712691Y-84016790D01*
X136616787Y-84112694D01*
X136608514Y-84116121D01*
X136603337Y-84114913D01*
X136279143Y-83954962D01*
X136273240Y-83948229D01*
X136273828Y-83939293D01*
X136274555Y-83938025D01*
X136378109Y-83781417D01*
X136381415Y-83778112D01*
X136538015Y-83674563D01*
X136546805Y-83672859D01*
X136554226Y-83677870D01*
G37*
%TD.AperFunction*%
%TD*%
%TA.AperFunction,Conductor*%
%TO.N,/SPI3_MISO*%
G36*
X146089501Y-84394089D02*
G01*
X146455806Y-84402968D01*
X146463992Y-84406595D01*
X146467218Y-84414949D01*
X146467007Y-84416892D01*
X146431453Y-84600260D01*
X146429669Y-84604573D01*
X146324801Y-84760141D01*
X146317335Y-84765085D01*
X146308559Y-84763303D01*
X146307082Y-84762123D01*
X146081236Y-84549664D01*
X146077558Y-84541499D01*
X146077553Y-84541142D01*
X146077553Y-84405787D01*
X146080980Y-84397514D01*
X146089253Y-84394087D01*
X146089501Y-84394089D01*
G37*
%TD.AperFunction*%
%TD*%
%TA.AperFunction,Conductor*%
%TO.N,/TIM1_CH3N*%
G36*
X130005243Y-82791483D02*
G01*
X130008629Y-82798782D01*
X130014769Y-82872266D01*
X130014411Y-82876268D01*
X130007232Y-82903060D01*
X130007232Y-83010203D01*
X130034661Y-83112568D01*
X130035020Y-83114623D01*
X130035281Y-83117752D01*
X130032553Y-83126282D01*
X130025959Y-83130189D01*
X129841660Y-83167773D01*
X129832869Y-83166068D01*
X129832782Y-83166011D01*
X129677786Y-83061529D01*
X129672842Y-83054063D01*
X129674624Y-83045287D01*
X129674688Y-83045192D01*
X129851839Y-82793030D01*
X129859399Y-82788231D01*
X129861413Y-82788056D01*
X129996970Y-82788056D01*
X130005243Y-82791483D01*
G37*
%TD.AperFunction*%
%TD*%
%TA.AperFunction,Conductor*%
%TO.N,/TIM1_CH3N*%
G36*
X144108524Y-79647474D02*
G01*
X144109073Y-79648222D01*
X144213142Y-79802605D01*
X144214924Y-79811381D01*
X144214904Y-79811483D01*
X144177210Y-79996323D01*
X144172199Y-80003744D01*
X144165402Y-80005680D01*
X143854520Y-79996534D01*
X143846351Y-79992865D01*
X143843164Y-79984839D01*
X143843164Y-79849440D01*
X143846591Y-79841167D01*
X143847576Y-79840287D01*
X143883881Y-79811381D01*
X144092083Y-79645608D01*
X144100690Y-79643137D01*
X144108524Y-79647474D01*
G37*
%TD.AperFunction*%
%TD*%
%TA.AperFunction,Conductor*%
%TO.N,/TIM1_CH2*%
G36*
X131349254Y-81925559D02*
G01*
X131445158Y-82021463D01*
X131448585Y-82029736D01*
X131447377Y-82034913D01*
X131287426Y-82359107D01*
X131280693Y-82365010D01*
X131271757Y-82364422D01*
X131270481Y-82363689D01*
X131113882Y-82260141D01*
X131110576Y-82256835D01*
X131007028Y-82100236D01*
X131005323Y-82091445D01*
X131010334Y-82084024D01*
X131011606Y-82083293D01*
X131335805Y-81923339D01*
X131344740Y-81922752D01*
X131349254Y-81925559D01*
G37*
%TD.AperFunction*%
%TD*%
%TA.AperFunction,Conductor*%
%TO.N,/TIM1_CH2*%
G36*
X144992659Y-81379280D02*
G01*
X145098257Y-81535931D01*
X145100039Y-81544707D01*
X145100019Y-81544809D01*
X145062752Y-81727552D01*
X145057741Y-81734973D01*
X145048950Y-81736678D01*
X145048675Y-81736619D01*
X144706739Y-81658281D01*
X144699440Y-81653093D01*
X144697652Y-81646876D01*
X144697652Y-81511306D01*
X144701079Y-81503033D01*
X144704474Y-81500671D01*
X144978081Y-81375184D01*
X144987028Y-81374851D01*
X144992659Y-81379280D01*
G37*
%TD.AperFunction*%
%TD*%
%TA.AperFunction,Conductor*%
%TO.N,/TIM1_CH3*%
G36*
X130721834Y-82670560D02*
G01*
X130727232Y-82677705D01*
X130727609Y-82680649D01*
X130727609Y-82814798D01*
X130726054Y-82820626D01*
X130589305Y-83058697D01*
X130582213Y-83064164D01*
X130573332Y-83063014D01*
X130572686Y-83062615D01*
X130417211Y-82959341D01*
X130412216Y-82951909D01*
X130412199Y-82951822D01*
X130386236Y-82817919D01*
X130376581Y-82768120D01*
X130378370Y-82759347D01*
X130385122Y-82754571D01*
X130712966Y-82669326D01*
X130721834Y-82670560D01*
G37*
%TD.AperFunction*%
%TD*%
%TA.AperFunction,Conductor*%
%TO.N,/TIM1_CH3*%
G36*
X145193343Y-81986792D02*
G01*
X145350914Y-82091458D01*
X145355909Y-82098890D01*
X145355926Y-82098977D01*
X145391117Y-82280472D01*
X145389328Y-82289246D01*
X145381858Y-82294185D01*
X145380433Y-82294371D01*
X145025813Y-82318740D01*
X145017324Y-82315889D01*
X145013339Y-82307870D01*
X145013311Y-82307068D01*
X145013311Y-82171777D01*
X145016416Y-82163839D01*
X145178274Y-81988600D01*
X145186405Y-81984847D01*
X145193343Y-81986792D01*
G37*
%TD.AperFunction*%
%TD*%
%TA.AperFunction,Conductor*%
%TO.N,/DRV_SPI_NSS*%
G36*
X135371522Y-82522307D02*
G01*
X135467426Y-82618211D01*
X135470853Y-82626484D01*
X135469645Y-82631661D01*
X135309694Y-82955855D01*
X135302961Y-82961758D01*
X135294025Y-82961170D01*
X135292749Y-82960437D01*
X135136150Y-82856889D01*
X135132844Y-82853583D01*
X135029296Y-82696984D01*
X135027591Y-82688193D01*
X135032602Y-82680772D01*
X135033874Y-82680041D01*
X135358073Y-82520087D01*
X135367008Y-82519500D01*
X135371522Y-82522307D01*
G37*
%TD.AperFunction*%
%TD*%
%TA.AperFunction,Conductor*%
%TO.N,/DRV_SPI_NSS*%
G36*
X147269477Y-83757038D02*
G01*
X147558700Y-83844653D01*
X147565624Y-83850331D01*
X147566792Y-83858086D01*
X147530813Y-84042902D01*
X147525869Y-84050368D01*
X147525782Y-84050425D01*
X147369778Y-84153579D01*
X147360987Y-84155284D01*
X147353698Y-84150469D01*
X147284566Y-84050368D01*
X147160547Y-83870793D01*
X147158666Y-83862039D01*
X147161900Y-83855874D01*
X147257813Y-83759961D01*
X147266085Y-83756535D01*
X147269477Y-83757038D01*
G37*
%TD.AperFunction*%
%TD*%
%TA.AperFunction,Conductor*%
%TO.N,/TIM1_CH2N*%
G36*
X144046723Y-79015556D02*
G01*
X144052626Y-79022289D01*
X144053010Y-79023710D01*
X144090523Y-79207662D01*
X144090523Y-79212338D01*
X144053010Y-79396289D01*
X144047999Y-79403710D01*
X144039208Y-79405415D01*
X144037787Y-79405031D01*
X143695445Y-79288893D01*
X143688712Y-79282990D01*
X143687504Y-79277813D01*
X143687504Y-79142186D01*
X143690931Y-79133913D01*
X143695445Y-79131106D01*
X144037788Y-79014968D01*
X144046723Y-79015556D01*
G37*
%TD.AperFunction*%
%TD*%
%TA.AperFunction,Conductor*%
%TO.N,/TIM1_CH2N*%
G36*
X130317700Y-80286873D02*
G01*
X130660048Y-80403013D01*
X130666781Y-80408916D01*
X130667989Y-80414093D01*
X130667989Y-80549720D01*
X130664562Y-80557993D01*
X130660048Y-80560800D01*
X130317705Y-80676938D01*
X130308769Y-80676350D01*
X130302866Y-80669617D01*
X130302484Y-80668203D01*
X130264969Y-80484241D01*
X130264969Y-80479572D01*
X130302483Y-80295615D01*
X130307493Y-80288196D01*
X130316284Y-80286491D01*
X130317700Y-80286873D01*
G37*
%TD.AperFunction*%
%TD*%
%TA.AperFunction,Conductor*%
%TO.N,/TIM1_CH1N*%
G36*
X144093204Y-78234221D02*
G01*
X144218531Y-78340947D01*
X144336445Y-78441361D01*
X144340522Y-78449334D01*
X144338618Y-78456722D01*
X144234855Y-78613647D01*
X144227434Y-78618658D01*
X144227332Y-78618678D01*
X144043899Y-78654387D01*
X144035123Y-78652605D01*
X144030179Y-78645139D01*
X144030138Y-78644919D01*
X143978239Y-78340946D01*
X143980224Y-78332215D01*
X143981493Y-78330711D01*
X144077348Y-78234856D01*
X144085620Y-78231430D01*
X144093204Y-78234221D01*
G37*
%TD.AperFunction*%
%TD*%
%TA.AperFunction,Conductor*%
%TO.N,/TIM1_CH1N*%
G36*
X131280507Y-79188314D02*
G01*
X131281076Y-79188847D01*
X131376746Y-79284517D01*
X131380165Y-79292360D01*
X131388930Y-79530424D01*
X131385810Y-79538817D01*
X131379552Y-79542323D01*
X131194094Y-79579738D01*
X131185306Y-79578015D01*
X131185233Y-79577966D01*
X131032035Y-79474528D01*
X131027096Y-79467058D01*
X131028885Y-79458284D01*
X131029765Y-79457140D01*
X131263999Y-79189414D01*
X131272024Y-79185446D01*
X131280507Y-79188314D01*
G37*
%TD.AperFunction*%
%TD*%
%TA.AperFunction,Conductor*%
%TO.N,/SPI3_SCK*%
G36*
X136130301Y-82404023D02*
G01*
X136472649Y-82520163D01*
X136479382Y-82526066D01*
X136480590Y-82531243D01*
X136480590Y-82666870D01*
X136477163Y-82675143D01*
X136472649Y-82677950D01*
X136130306Y-82794087D01*
X136121370Y-82793499D01*
X136115467Y-82786766D01*
X136115083Y-82785345D01*
X136092633Y-82675257D01*
X136077570Y-82601391D01*
X136077570Y-82596722D01*
X136115084Y-82412765D01*
X136120094Y-82405346D01*
X136128885Y-82403641D01*
X136130301Y-82404023D01*
G37*
%TD.AperFunction*%
%TD*%
%TA.AperFunction,Conductor*%
%TO.N,/SPI3_SCK*%
G36*
X145746793Y-83215220D02*
G01*
X145919149Y-83300257D01*
X146070988Y-83375172D01*
X146076891Y-83381905D01*
X146076303Y-83390841D01*
X146075570Y-83392117D01*
X145972022Y-83548716D01*
X145968716Y-83552022D01*
X145812117Y-83655570D01*
X145803326Y-83657275D01*
X145795905Y-83652264D01*
X145795172Y-83650988D01*
X145662412Y-83381905D01*
X145635220Y-83326793D01*
X145634633Y-83317858D01*
X145637438Y-83313346D01*
X145733345Y-83217439D01*
X145741617Y-83214013D01*
X145746793Y-83215220D01*
G37*
%TD.AperFunction*%
%TD*%
%TA.AperFunction,Conductor*%
%TO.N,/ENCODER_STA*%
G36*
X161153874Y-84340928D02*
G01*
X161528811Y-84504180D01*
X161535028Y-84510624D01*
X161534867Y-84519578D01*
X161533895Y-84521367D01*
X161432394Y-84674630D01*
X161424969Y-84679636D01*
X161424911Y-84679647D01*
X161238967Y-84716449D01*
X161230186Y-84714694D01*
X161225816Y-84709279D01*
X161138324Y-84488273D01*
X161137503Y-84483966D01*
X161137503Y-84351655D01*
X161140930Y-84343382D01*
X161149203Y-84339955D01*
X161153874Y-84340928D01*
G37*
%TD.AperFunction*%
%TD*%
%TA.AperFunction,Conductor*%
%TO.N,/ENCODER_STA*%
G36*
X151315964Y-81686923D02*
G01*
X151323385Y-81691934D01*
X151325090Y-81700725D01*
X151324610Y-81702416D01*
X151199215Y-82044278D01*
X151199014Y-82044825D01*
X151192948Y-82051412D01*
X151188030Y-82052496D01*
X151052409Y-82052496D01*
X151044136Y-82049069D01*
X151041239Y-82044278D01*
X150934556Y-81702001D01*
X150935366Y-81693082D01*
X150942244Y-81687349D01*
X150943380Y-81687056D01*
X151127666Y-81649476D01*
X151132334Y-81649476D01*
X151315964Y-81686923D01*
G37*
%TD.AperFunction*%
%TD*%
%TA.AperFunction,Conductor*%
%TO.N,+3.3V*%
G36*
X140627964Y-88747331D02*
G01*
X140635385Y-88752342D01*
X140637117Y-88760999D01*
X140571521Y-89103000D01*
X140566597Y-89110479D01*
X140560030Y-89112496D01*
X140300509Y-89112496D01*
X140292236Y-89109069D01*
X140288917Y-89102380D01*
X140242188Y-88760500D01*
X140244463Y-88751839D01*
X140251441Y-88747452D01*
X140437666Y-88709476D01*
X140442334Y-88709476D01*
X140627964Y-88747331D01*
G37*
%TD.AperFunction*%
%TD*%
%TA.AperFunction,Conductor*%
%TO.N,+36V*%
G36*
X125832149Y-85695250D02*
G01*
X125832316Y-85695508D01*
X126090362Y-86107523D01*
X126112756Y-86143278D01*
X126114243Y-86152108D01*
X126111113Y-86157761D01*
X125908330Y-86360544D01*
X125900057Y-86363971D01*
X125894508Y-86362571D01*
X125421118Y-86107523D01*
X125415460Y-86100582D01*
X125416367Y-86091674D01*
X125416910Y-86090767D01*
X125574485Y-85853263D01*
X125577763Y-85849985D01*
X125815933Y-85691968D01*
X125824720Y-85690250D01*
X125832149Y-85695250D01*
G37*
%TD.AperFunction*%
%TD*%
%TA.AperFunction,Conductor*%
%TO.N,+36V*%
G36*
X128960705Y-88990574D02*
G01*
X129437571Y-89242181D01*
X129443289Y-89249073D01*
X129442459Y-89257989D01*
X129441860Y-89258997D01*
X129284356Y-89496393D01*
X129281075Y-89499674D01*
X129042818Y-89657749D01*
X129034030Y-89659468D01*
X129026601Y-89654468D01*
X129026491Y-89654299D01*
X128767031Y-89248218D01*
X128742610Y-89209998D01*
X128741044Y-89201183D01*
X128744195Y-89195429D01*
X128946975Y-88992649D01*
X128955247Y-88989223D01*
X128960705Y-88990574D01*
G37*
%TD.AperFunction*%
%TD*%
%TA.AperFunction,Conductor*%
%TO.N,/DRV8323RSRGZR/SPB*%
G36*
X134972651Y-90814430D02*
G01*
X134978554Y-90821163D01*
X134978938Y-90822584D01*
X135016451Y-91006536D01*
X135016451Y-91011212D01*
X134978938Y-91195163D01*
X134973927Y-91202584D01*
X134965136Y-91204289D01*
X134963715Y-91203905D01*
X134621373Y-91087767D01*
X134614640Y-91081864D01*
X134613432Y-91076687D01*
X134613432Y-90941060D01*
X134616859Y-90932787D01*
X134621373Y-90929980D01*
X134963716Y-90813842D01*
X134972651Y-90814430D01*
G37*
%TD.AperFunction*%
%TD*%
%TA.AperFunction,Conductor*%
%TO.N,/DRV8323RSRGZR/SPB*%
G36*
X133989616Y-90958147D02*
G01*
X133990180Y-90958549D01*
X134205389Y-91121876D01*
X134206589Y-91122923D01*
X134298663Y-91214997D01*
X134302090Y-91223270D01*
X134298663Y-91231543D01*
X134292896Y-91234699D01*
X133918648Y-91316751D01*
X133909833Y-91315175D01*
X133904713Y-91307828D01*
X133904676Y-91307652D01*
X133867664Y-91125487D01*
X133869374Y-91116702D01*
X133973385Y-90961359D01*
X133980835Y-90956392D01*
X133989616Y-90958147D01*
G37*
%TD.AperFunction*%
%TD*%
%TA.AperFunction,Conductor*%
%TO.N,/SPI3_MISO*%
G36*
X146280841Y-88803696D02*
G01*
X146282115Y-88804428D01*
X146307947Y-88821508D01*
X146438716Y-88907977D01*
X146442022Y-88911283D01*
X146545570Y-89067882D01*
X146547275Y-89076673D01*
X146542264Y-89084094D01*
X146540988Y-89084827D01*
X146216794Y-89244778D01*
X146207858Y-89245366D01*
X146203344Y-89242559D01*
X146107440Y-89146655D01*
X146104013Y-89138382D01*
X146105220Y-89133207D01*
X146265172Y-88809010D01*
X146271905Y-88803108D01*
X146280841Y-88803696D01*
G37*
%TD.AperFunction*%
%TD*%
%TA.AperFunction,Conductor*%
%TO.N,/SPI3_MOSI*%
G36*
X147235454Y-88923871D02*
G01*
X147242874Y-88928882D01*
X147244579Y-88937673D01*
X147244195Y-88939094D01*
X147128058Y-89281437D01*
X147122155Y-89288170D01*
X147116978Y-89289378D01*
X146981350Y-89289378D01*
X146973077Y-89285951D01*
X146970270Y-89281437D01*
X146854132Y-88939094D01*
X146854720Y-88930158D01*
X146861453Y-88924255D01*
X146862863Y-88923873D01*
X147046830Y-88886358D01*
X147051498Y-88886358D01*
X147235454Y-88923871D01*
G37*
%TD.AperFunction*%
%TD*%
%TA.AperFunction,Conductor*%
%TO.N,GND1*%
G36*
X135455250Y-91297029D02*
G01*
X135461153Y-91303762D01*
X135461537Y-91305183D01*
X135499050Y-91489135D01*
X135499050Y-91493811D01*
X135461537Y-91677762D01*
X135456526Y-91685183D01*
X135447735Y-91686888D01*
X135446314Y-91686504D01*
X135103972Y-91570366D01*
X135097239Y-91564463D01*
X135096031Y-91559286D01*
X135096031Y-91423659D01*
X135099458Y-91415386D01*
X135103972Y-91412579D01*
X135446315Y-91296441D01*
X135455250Y-91297029D01*
G37*
%TD.AperFunction*%
%TD*%
%TA.AperFunction,Conductor*%
%TO.N,GND1*%
G36*
X134249944Y-91587554D02*
G01*
X134257540Y-91592296D01*
X134259717Y-91599094D01*
X134259717Y-91734738D01*
X134256290Y-91743011D01*
X134253747Y-91744939D01*
X133989695Y-91893275D01*
X133980804Y-91894339D01*
X133974263Y-91889614D01*
X133875438Y-91743011D01*
X133869141Y-91733670D01*
X133867360Y-91724895D01*
X133904786Y-91541367D01*
X133909797Y-91533947D01*
X133918177Y-91532166D01*
X134249944Y-91587554D01*
G37*
%TD.AperFunction*%
%TD*%
%TA.AperFunction,Conductor*%
%TO.N,/ADC2_IN9*%
G36*
X129776655Y-71168440D02*
G01*
X129872559Y-71264344D01*
X129875986Y-71272617D01*
X129874778Y-71277794D01*
X129714827Y-71601988D01*
X129708094Y-71607891D01*
X129699158Y-71607303D01*
X129697882Y-71606570D01*
X129541283Y-71503022D01*
X129537977Y-71499716D01*
X129434429Y-71343117D01*
X129432724Y-71334326D01*
X129437735Y-71326905D01*
X129439007Y-71326174D01*
X129763206Y-71166220D01*
X129772141Y-71165633D01*
X129776655Y-71168440D01*
G37*
%TD.AperFunction*%
%TD*%
%TA.AperFunction,Conductor*%
%TO.N,/ADC2_IN9*%
G36*
X147742894Y-72333837D02*
G01*
X147745509Y-72337827D01*
X147895193Y-72718384D01*
X147895032Y-72727338D01*
X147888588Y-72733555D01*
X147886635Y-72734133D01*
X147706489Y-72770735D01*
X147697700Y-72769024D01*
X147622026Y-72718356D01*
X147540145Y-72663531D01*
X147535177Y-72656081D01*
X147535915Y-72649164D01*
X147630327Y-72431017D01*
X147632788Y-72427397D01*
X147726349Y-72333836D01*
X147734621Y-72330410D01*
X147742894Y-72333837D01*
G37*
%TD.AperFunction*%
%TD*%
%TA.AperFunction,Conductor*%
%TO.N,Net-(U8-VCAP_1)*%
G36*
X155404723Y-73973556D02*
G01*
X155410626Y-73980289D01*
X155411010Y-73981710D01*
X155448523Y-74165662D01*
X155448523Y-74170338D01*
X155411010Y-74354289D01*
X155405999Y-74361710D01*
X155397208Y-74363415D01*
X155395787Y-74363031D01*
X155053445Y-74246893D01*
X155046712Y-74240990D01*
X155045504Y-74235813D01*
X155045504Y-74100186D01*
X155048931Y-74091913D01*
X155053445Y-74089106D01*
X155395788Y-73972968D01*
X155404723Y-73973556D01*
G37*
%TD.AperFunction*%
%TD*%
%TA.AperFunction,Conductor*%
%TO.N,Net-(U8-VCAP_1)*%
G36*
X147162267Y-74096049D02*
G01*
X147166962Y-74103674D01*
X147167110Y-74105529D01*
X147167110Y-74240412D01*
X147164891Y-74247268D01*
X147015544Y-74453780D01*
X147007919Y-74458476D01*
X146999589Y-74456670D01*
X146843079Y-74352709D01*
X146838084Y-74345277D01*
X146838067Y-74345190D01*
X146802658Y-74162566D01*
X146804447Y-74153792D01*
X146811917Y-74148853D01*
X146812243Y-74148795D01*
X147153555Y-74093977D01*
X147162267Y-74096049D01*
G37*
%TD.AperFunction*%
%TD*%
%TA.AperFunction,Conductor*%
%TO.N,/ADC3_IN2*%
G36*
X141234858Y-85008262D02*
G01*
X141242390Y-85013105D01*
X141244478Y-85019776D01*
X141244478Y-85155414D01*
X141241051Y-85163687D01*
X141238329Y-85165714D01*
X140972221Y-85309127D01*
X140963312Y-85310035D01*
X140956968Y-85305367D01*
X140851742Y-85149268D01*
X140849960Y-85140492D01*
X140887356Y-84957112D01*
X140892367Y-84949692D01*
X140900898Y-84947937D01*
X141234858Y-85008262D01*
G37*
%TD.AperFunction*%
%TD*%
%TA.AperFunction,Conductor*%
%TO.N,/ADC3_IN2*%
G36*
X155532541Y-75496847D02*
G01*
X155537694Y-75504171D01*
X155537741Y-75504391D01*
X155575019Y-75687190D01*
X155573314Y-75695981D01*
X155573257Y-75696068D01*
X155467697Y-75852662D01*
X155460231Y-75857606D01*
X155453045Y-75856723D01*
X155180231Y-75729351D01*
X155174185Y-75722746D01*
X155173481Y-75718750D01*
X155173481Y-75583168D01*
X155176908Y-75574895D01*
X155182622Y-75571751D01*
X155523719Y-75495312D01*
X155532541Y-75496847D01*
G37*
%TD.AperFunction*%
%TD*%
%TA.AperFunction,Conductor*%
%TO.N,/I2C1_SDA*%
G36*
X148622201Y-82958437D02*
G01*
X148625008Y-82962951D01*
X148741145Y-83305293D01*
X148740557Y-83314229D01*
X148733824Y-83320132D01*
X148732403Y-83320516D01*
X148548452Y-83358029D01*
X148543776Y-83358029D01*
X148359824Y-83320516D01*
X148352403Y-83315505D01*
X148350698Y-83306714D01*
X148351079Y-83305302D01*
X148467220Y-82962950D01*
X148473123Y-82956218D01*
X148478300Y-82955010D01*
X148613928Y-82955010D01*
X148622201Y-82958437D01*
G37*
%TD.AperFunction*%
%TD*%
%TA.AperFunction,Conductor*%
%TO.N,/I2C1_SDA*%
G36*
X146276290Y-71896989D02*
G01*
X146283710Y-71902000D01*
X146285415Y-71910791D01*
X146285031Y-71912212D01*
X146168894Y-72254555D01*
X146162991Y-72261288D01*
X146157814Y-72262496D01*
X146022186Y-72262496D01*
X146013913Y-72259069D01*
X146011106Y-72254555D01*
X145894968Y-71912212D01*
X145895556Y-71903276D01*
X145902289Y-71897373D01*
X145903699Y-71896991D01*
X146087666Y-71859476D01*
X146092334Y-71859476D01*
X146276290Y-71896989D01*
G37*
%TD.AperFunction*%
%TD*%
%TA.AperFunction,Conductor*%
%TO.N,Net-(U8-PB2)*%
G36*
X146952207Y-74774966D02*
G01*
X147294555Y-74891106D01*
X147301288Y-74897009D01*
X147302496Y-74902186D01*
X147302496Y-75037813D01*
X147299069Y-75046086D01*
X147294555Y-75048893D01*
X146952212Y-75165031D01*
X146943276Y-75164443D01*
X146937373Y-75157710D01*
X146936991Y-75156296D01*
X146899476Y-74972334D01*
X146899476Y-74967665D01*
X146936990Y-74783708D01*
X146942000Y-74776289D01*
X146950791Y-74774584D01*
X146952207Y-74774966D01*
G37*
%TD.AperFunction*%
%TD*%
%TA.AperFunction,Conductor*%
%TO.N,Net-(U8-PB2)*%
G36*
X158168767Y-74576336D02*
G01*
X158522521Y-74602725D01*
X158530517Y-74606758D01*
X158533319Y-74615263D01*
X158533137Y-74616620D01*
X158497932Y-74798190D01*
X158492993Y-74805660D01*
X158492920Y-74805709D01*
X158335420Y-74910328D01*
X158326632Y-74912051D01*
X158320285Y-74908448D01*
X158159254Y-74731146D01*
X158156215Y-74723280D01*
X158156215Y-74588005D01*
X158159642Y-74579732D01*
X158167915Y-74576305D01*
X158168767Y-74576336D01*
G37*
%TD.AperFunction*%
%TD*%
%TA.AperFunction,Conductor*%
%TO.N,/CAN_TX*%
G36*
X151556652Y-86210521D02*
G01*
X151899000Y-86326661D01*
X151905733Y-86332564D01*
X151906941Y-86337741D01*
X151906941Y-86473368D01*
X151903514Y-86481641D01*
X151899000Y-86484448D01*
X151556657Y-86600586D01*
X151547721Y-86599998D01*
X151541818Y-86593265D01*
X151541436Y-86591851D01*
X151503921Y-86407889D01*
X151503921Y-86403220D01*
X151541435Y-86219263D01*
X151546445Y-86211844D01*
X151555236Y-86210139D01*
X151556652Y-86210521D01*
G37*
%TD.AperFunction*%
%TD*%
%TA.AperFunction,Conductor*%
%TO.N,/CAN_TX*%
G36*
X155826793Y-87555220D02*
G01*
X155999149Y-87640257D01*
X156150988Y-87715172D01*
X156156891Y-87721905D01*
X156156303Y-87730841D01*
X156155570Y-87732117D01*
X156052022Y-87888716D01*
X156048716Y-87892022D01*
X155892117Y-87995570D01*
X155883326Y-87997275D01*
X155875905Y-87992264D01*
X155875172Y-87990988D01*
X155742412Y-87721905D01*
X155715220Y-87666793D01*
X155714633Y-87657858D01*
X155717438Y-87653346D01*
X155813345Y-87557439D01*
X155821617Y-87554013D01*
X155826793Y-87555220D01*
G37*
%TD.AperFunction*%
%TD*%
%TA.AperFunction,Conductor*%
%TO.N,/CAN_RX*%
G36*
X155821396Y-91298880D02*
G01*
X155822131Y-91299687D01*
X155900559Y-91394485D01*
X156046733Y-91571170D01*
X156049366Y-91579729D01*
X156045176Y-91587643D01*
X156044265Y-91588325D01*
X155890766Y-91691966D01*
X155881992Y-91693755D01*
X155881905Y-91693738D01*
X155696838Y-91656402D01*
X155689406Y-91651407D01*
X155687486Y-91644048D01*
X155705852Y-91401873D01*
X155709244Y-91394486D01*
X155804851Y-91298879D01*
X155813123Y-91295453D01*
X155821396Y-91298880D01*
G37*
%TD.AperFunction*%
%TD*%
%TA.AperFunction,Conductor*%
%TO.N,/CAN_RX*%
G36*
X151033084Y-86340335D02*
G01*
X151033817Y-86341611D01*
X151103867Y-86483591D01*
X151104676Y-86485740D01*
X151125273Y-86562609D01*
X151135047Y-86579538D01*
X151163910Y-86629531D01*
X151178845Y-86655398D01*
X151188853Y-86665406D01*
X151192280Y-86673679D01*
X151188853Y-86681952D01*
X151095645Y-86775159D01*
X151087372Y-86778586D01*
X151082195Y-86777378D01*
X150758001Y-86617427D01*
X150752098Y-86610694D01*
X150752686Y-86601758D01*
X150753413Y-86600490D01*
X150856967Y-86443882D01*
X150860273Y-86440577D01*
X151016873Y-86337028D01*
X151025663Y-86335324D01*
X151033084Y-86340335D01*
G37*
%TD.AperFunction*%
%TD*%
%TA.AperFunction,Conductor*%
%TO.N,/CAN_STB*%
G36*
X158636723Y-87715556D02*
G01*
X158642626Y-87722289D01*
X158643010Y-87723710D01*
X158680523Y-87907662D01*
X158680523Y-87912338D01*
X158643010Y-88096289D01*
X158637999Y-88103710D01*
X158629208Y-88105415D01*
X158627787Y-88105031D01*
X158285445Y-87988893D01*
X158278712Y-87982990D01*
X158277504Y-87977813D01*
X158277504Y-87842186D01*
X158280931Y-87833913D01*
X158285445Y-87831106D01*
X158627788Y-87714968D01*
X158636723Y-87715556D01*
G37*
%TD.AperFunction*%
%TD*%
%TA.AperFunction,Conductor*%
%TO.N,/CAN_STB*%
G36*
X149211547Y-88582332D02*
G01*
X149307448Y-88678233D01*
X149310875Y-88686506D01*
X149309575Y-88691866D01*
X149144929Y-89011300D01*
X149138092Y-89017084D01*
X149129169Y-89016340D01*
X149128082Y-89015702D01*
X149070903Y-88977894D01*
X148971283Y-88912022D01*
X148967977Y-88908716D01*
X148864559Y-88752313D01*
X148862854Y-88743522D01*
X148867865Y-88736101D01*
X148869318Y-88735282D01*
X149198282Y-88580023D01*
X149207225Y-88579592D01*
X149211547Y-88582332D01*
G37*
%TD.AperFunction*%
%TD*%
%TA.AperFunction,Conductor*%
%TO.N,Net-(U8-PC13)*%
G36*
X156164094Y-84817735D02*
G01*
X156164827Y-84819011D01*
X156324778Y-85143205D01*
X156325366Y-85152141D01*
X156322559Y-85156655D01*
X156226655Y-85252559D01*
X156218382Y-85255986D01*
X156213205Y-85254778D01*
X155889011Y-85094827D01*
X155883108Y-85088094D01*
X155883696Y-85079158D01*
X155884423Y-85077890D01*
X155987977Y-84921282D01*
X155991283Y-84917977D01*
X156147883Y-84814428D01*
X156156673Y-84812724D01*
X156164094Y-84817735D01*
G37*
%TD.AperFunction*%
%TD*%
%TA.AperFunction,Conductor*%
%TO.N,Net-(U8-PC13)*%
G36*
X164862207Y-75908766D02*
G01*
X165204555Y-76024906D01*
X165211288Y-76030809D01*
X165212496Y-76035986D01*
X165212496Y-76171613D01*
X165209069Y-76179886D01*
X165204555Y-76182693D01*
X164862212Y-76298831D01*
X164853276Y-76298243D01*
X164847373Y-76291510D01*
X164846991Y-76290096D01*
X164809476Y-76106134D01*
X164809476Y-76101465D01*
X164846990Y-75917508D01*
X164852000Y-75910089D01*
X164860791Y-75908384D01*
X164862207Y-75908766D01*
G37*
%TD.AperFunction*%
%TD*%
%TA.AperFunction,Conductor*%
%TO.N,/ENCODER_SPI_NSS*%
G36*
X148153290Y-88784989D02*
G01*
X148160710Y-88790000D01*
X148162415Y-88798791D01*
X148162031Y-88800212D01*
X148045894Y-89142555D01*
X148039991Y-89149288D01*
X148034814Y-89150496D01*
X147899186Y-89150496D01*
X147890913Y-89147069D01*
X147888106Y-89142555D01*
X147771968Y-88800212D01*
X147772556Y-88791276D01*
X147779289Y-88785373D01*
X147780699Y-88784991D01*
X147964666Y-88747476D01*
X147969334Y-88747476D01*
X148153290Y-88784989D01*
G37*
%TD.AperFunction*%
%TD*%
M02*
