%TF.GenerationSoftware,KiCad,Pcbnew,9.0.1*%
%TF.CreationDate,2025-04-22T15:18:38+08:00*%
%TF.ProjectId,CawDrive,43617744-7269-4766-952e-6b696361645f,rev?*%
%TF.SameCoordinates,Original*%
%TF.FileFunction,Soldermask,Top*%
%TF.FilePolarity,Negative*%
%FSLAX46Y46*%
G04 Gerber Fmt 4.6, Leading zero omitted, Abs format (unit mm)*
G04 Created by KiCad (PCBNEW 9.0.1) date 2025-04-22 15:18:38*
%MOMM*%
%LPD*%
G01*
G04 APERTURE LIST*
G04 Aperture macros list*
%AMRoundRect*
0 Rectangle with rounded corners*
0 $1 Rounding radius*
0 $2 $3 $4 $5 $6 $7 $8 $9 X,Y pos of 4 corners*
0 Add a 4 corners polygon primitive as box body*
4,1,4,$2,$3,$4,$5,$6,$7,$8,$9,$2,$3,0*
0 Add four circle primitives for the rounded corners*
1,1,$1+$1,$2,$3*
1,1,$1+$1,$4,$5*
1,1,$1+$1,$6,$7*
1,1,$1+$1,$8,$9*
0 Add four rect primitives between the rounded corners*
20,1,$1+$1,$2,$3,$4,$5,0*
20,1,$1+$1,$4,$5,$6,$7,0*
20,1,$1+$1,$6,$7,$8,$9,0*
20,1,$1+$1,$8,$9,$2,$3,0*%
%AMRotRect*
0 Rectangle, with rotation*
0 The origin of the aperture is its center*
0 $1 length*
0 $2 width*
0 $3 Rotation angle, in degrees counterclockwise*
0 Add horizontal line*
21,1,$1,$2,0,0,$3*%
G04 Aperture macros list end*
%ADD10RoundRect,0.160000X0.160000X-0.197500X0.160000X0.197500X-0.160000X0.197500X-0.160000X-0.197500X0*%
%ADD11RoundRect,0.237500X-0.237500X0.300000X-0.237500X-0.300000X0.237500X-0.300000X0.237500X0.300000X0*%
%ADD12RoundRect,0.155000X0.212500X0.155000X-0.212500X0.155000X-0.212500X-0.155000X0.212500X-0.155000X0*%
%ADD13RoundRect,0.160000X-0.160000X0.222500X-0.160000X-0.222500X0.160000X-0.222500X0.160000X0.222500X0*%
%ADD14C,1.000000*%
%ADD15RoundRect,0.160000X0.197500X0.160000X-0.197500X0.160000X-0.197500X-0.160000X0.197500X-0.160000X0*%
%ADD16RoundRect,0.250000X-0.412500X-0.650000X0.412500X-0.650000X0.412500X0.650000X-0.412500X0.650000X0*%
%ADD17R,0.500000X1.700000*%
%ADD18R,1.200000X2.500000*%
%ADD19RoundRect,0.102000X0.425000X-0.725000X0.425000X0.725000X-0.425000X0.725000X-0.425000X-0.725000X0*%
%ADD20RoundRect,0.102000X0.425000X-0.525000X0.425000X0.525000X-0.425000X0.525000X-0.425000X-0.525000X0*%
%ADD21RoundRect,0.102000X2.350000X-1.875000X2.350000X1.875000X-2.350000X1.875000X-2.350000X-1.875000X0*%
%ADD22RoundRect,0.155000X-0.212500X-0.155000X0.212500X-0.155000X0.212500X0.155000X-0.212500X0.155000X0*%
%ADD23RoundRect,0.160000X-0.197500X-0.160000X0.197500X-0.160000X0.197500X0.160000X-0.197500X0.160000X0*%
%ADD24RoundRect,0.250000X1.075000X-0.400000X1.075000X0.400000X-1.075000X0.400000X-1.075000X-0.400000X0*%
%ADD25RoundRect,0.750000X-0.750000X-0.750000X0.750000X-0.750000X0.750000X0.750000X-0.750000X0.750000X0*%
%ADD26R,0.660000X0.320000*%
%ADD27RoundRect,0.102000X-0.500000X0.800000X-0.500000X-0.800000X0.500000X-0.800000X0.500000X0.800000X0*%
%ADD28R,1.700000X0.500000*%
%ADD29R,2.500000X1.200000*%
%ADD30RoundRect,0.160000X0.222500X0.160000X-0.222500X0.160000X-0.222500X-0.160000X0.222500X-0.160000X0*%
%ADD31RoundRect,0.250000X0.650000X-0.412500X0.650000X0.412500X-0.650000X0.412500X-0.650000X-0.412500X0*%
%ADD32RoundRect,0.155000X0.155000X-0.212500X0.155000X0.212500X-0.155000X0.212500X-0.155000X-0.212500X0*%
%ADD33RoundRect,0.102000X-0.425000X0.725000X-0.425000X-0.725000X0.425000X-0.725000X0.425000X0.725000X0*%
%ADD34RoundRect,0.102000X-0.425000X0.525000X-0.425000X-0.525000X0.425000X-0.525000X0.425000X0.525000X0*%
%ADD35RoundRect,0.102000X-2.350000X1.875000X-2.350000X-1.875000X2.350000X-1.875000X2.350000X1.875000X0*%
%ADD36C,0.800000*%
%ADD37C,5.000000*%
%ADD38RoundRect,0.225000X0.225000X0.375000X-0.225000X0.375000X-0.225000X-0.375000X0.225000X-0.375000X0*%
%ADD39RoundRect,0.250000X0.412500X0.650000X-0.412500X0.650000X-0.412500X-0.650000X0.412500X-0.650000X0*%
%ADD40RoundRect,0.050800X0.900000X-1.000000X0.900000X1.000000X-0.900000X1.000000X-0.900000X-1.000000X0*%
%ADD41R,1.700000X0.650000*%
%ADD42RoundRect,0.237500X0.300000X0.237500X-0.300000X0.237500X-0.300000X-0.237500X0.300000X-0.237500X0*%
%ADD43RoundRect,0.155000X-0.259862X0.040659X0.040659X-0.259862X0.259862X-0.040659X-0.040659X0.259862X0*%
%ADD44RoundRect,0.237500X0.237500X-0.300000X0.237500X0.300000X-0.237500X0.300000X-0.237500X-0.300000X0*%
%ADD45RoundRect,0.160000X-0.222500X-0.160000X0.222500X-0.160000X0.222500X0.160000X-0.222500X0.160000X0*%
%ADD46RotRect,0.665000X0.280000X45.000000*%
%ADD47RotRect,0.280000X0.665000X45.000000*%
%ADD48RotRect,5.150000X5.150000X45.000000*%
%ADD49O,2.045000X0.588000*%
%ADD50R,4.220000X2.124000*%
%ADD51RoundRect,0.155000X-0.155000X0.212500X-0.155000X-0.212500X0.155000X-0.212500X0.155000X0.212500X0*%
%ADD52RoundRect,0.075000X0.700000X0.075000X-0.700000X0.075000X-0.700000X-0.075000X0.700000X-0.075000X0*%
%ADD53RoundRect,0.075000X0.075000X0.700000X-0.075000X0.700000X-0.075000X-0.700000X0.075000X-0.700000X0*%
G04 APERTURE END LIST*
D10*
%TO.C,R17*%
X137795000Y-84671500D03*
X137795000Y-83476500D03*
%TD*%
D11*
%TO.C,C16*%
X127381000Y-77496500D03*
X127381000Y-79221500D03*
%TD*%
D12*
%TO.C,C13*%
X152459500Y-91059000D03*
X151324500Y-91059000D03*
%TD*%
D13*
%TO.C,D4*%
X138430000Y-76008500D03*
X138430000Y-77153500D03*
%TD*%
D14*
%TO.C,TP4*%
X133604000Y-78613000D03*
%TD*%
D15*
%TO.C,R1*%
X127343500Y-74168000D03*
X126148500Y-74168000D03*
%TD*%
D16*
%TO.C,C38*%
X157437500Y-102870000D03*
X160562500Y-102870000D03*
%TD*%
D17*
%TO.C,U6*%
X129500000Y-72947000D03*
X128500000Y-72947000D03*
D18*
X127400000Y-69547000D03*
X130600000Y-69547000D03*
%TD*%
D10*
%TO.C,R2*%
X162687000Y-81369500D03*
X162687000Y-80174500D03*
%TD*%
D19*
%TO.C,Q7*%
X122555000Y-103124000D03*
X123825000Y-103124000D03*
X125095000Y-103124000D03*
X126365000Y-103124000D03*
D20*
X126365000Y-97424000D03*
X125095000Y-97424000D03*
X123825000Y-97424000D03*
X122555000Y-97424000D03*
D21*
X124460000Y-99824000D03*
%TD*%
D10*
%TO.C,R26*%
X163068000Y-88100500D03*
X163068000Y-86905500D03*
%TD*%
D22*
%TO.C,C9*%
X141799500Y-76581000D03*
X142934500Y-76581000D03*
%TD*%
D23*
%TO.C,R9*%
X159041500Y-81026000D03*
X160236500Y-81026000D03*
%TD*%
D24*
%TO.C,R18*%
X131064000Y-97562000D03*
X131064000Y-94462000D03*
%TD*%
D25*
%TO.C,H8*%
X168000000Y-95000000D03*
%TD*%
D26*
%TO.C,U2*%
X132715000Y-76850000D03*
X132715000Y-76200000D03*
X132715000Y-75550000D03*
X130665000Y-75550000D03*
X130665000Y-76200000D03*
X130665000Y-76850000D03*
D27*
X131690000Y-76200000D03*
%TD*%
D15*
%TO.C,R8*%
X164554500Y-93980000D03*
X163359500Y-93980000D03*
%TD*%
D28*
%TO.C,U5*%
X164800000Y-88000000D03*
X164800000Y-87000000D03*
D29*
X168200000Y-85900000D03*
X168200000Y-89100000D03*
%TD*%
D22*
%TO.C,C2*%
X155769500Y-86233000D03*
X156904500Y-86233000D03*
%TD*%
D30*
%TO.C,L1*%
X157544500Y-75946000D03*
X156399500Y-75946000D03*
%TD*%
D14*
%TO.C,TP2*%
X140208000Y-77851000D03*
%TD*%
D31*
%TO.C,C22*%
X121259600Y-95669500D03*
X121259600Y-92544500D03*
%TD*%
D32*
%TO.C,C7*%
X129159000Y-76513500D03*
X129159000Y-75378500D03*
%TD*%
D33*
%TO.C,Q12*%
X155067000Y-99612000D03*
X153797000Y-99612000D03*
X152527000Y-99612000D03*
X151257000Y-99612000D03*
D34*
X151257000Y-105312000D03*
X152527000Y-105312000D03*
X153797000Y-105312000D03*
X155067000Y-105312000D03*
D35*
X153162000Y-102912000D03*
%TD*%
D19*
%TO.C,Q9*%
X139845000Y-105112000D03*
X141115000Y-105112000D03*
X142385000Y-105112000D03*
X143655000Y-105112000D03*
D20*
X143655000Y-99412000D03*
X142385000Y-99412000D03*
X141115000Y-99412000D03*
X139845000Y-99412000D03*
D21*
X141750000Y-101812000D03*
%TD*%
D31*
%TO.C,C23*%
X140462000Y-97592500D03*
X140462000Y-94467500D03*
%TD*%
D12*
%TO.C,C10*%
X164067500Y-101854000D03*
X162932500Y-101854000D03*
%TD*%
D32*
%TO.C,C19*%
X156718000Y-80704500D03*
X156718000Y-79569500D03*
%TD*%
D17*
%TO.C,U11*%
X135028750Y-72947000D03*
X134028750Y-72947000D03*
D18*
X132928750Y-69547000D03*
X136128750Y-69547000D03*
%TD*%
D14*
%TO.C,TP5*%
X131445000Y-78613000D03*
%TD*%
D36*
%TO.C,H2*%
X157125000Y-71000000D03*
X157674175Y-69674175D03*
X157674175Y-72325825D03*
X159000000Y-69125000D03*
D37*
X159000000Y-71000000D03*
D36*
X159000000Y-72875000D03*
X160325825Y-69674175D03*
X160325825Y-72325825D03*
X160875000Y-71000000D03*
%TD*%
D25*
%TO.C,H6*%
X141000000Y-108000000D03*
%TD*%
D31*
%TO.C,C20*%
X126034800Y-95669500D03*
X126034800Y-92544500D03*
%TD*%
D38*
%TO.C,D3*%
X127507000Y-83820000D03*
X124207000Y-83820000D03*
%TD*%
D17*
%TO.C,CN3*%
X153590000Y-73074000D03*
X152590000Y-73074000D03*
X151590000Y-73074000D03*
X150590000Y-73074000D03*
D18*
X154690000Y-69674000D03*
X149490000Y-69674000D03*
%TD*%
D15*
%TO.C,R23*%
X152489500Y-89916000D03*
X151294500Y-89916000D03*
%TD*%
D31*
%TO.C,C25*%
X145796000Y-97592500D03*
X145796000Y-94467500D03*
%TD*%
D15*
%TO.C,R20*%
X136868500Y-79248000D03*
X135673500Y-79248000D03*
%TD*%
%TO.C,R5*%
X149441500Y-88773000D03*
X148246500Y-88773000D03*
%TD*%
D22*
%TO.C,C11*%
X156404500Y-77089000D03*
X157539500Y-77089000D03*
%TD*%
D12*
%TO.C,C17*%
X163177500Y-91690000D03*
X162042500Y-91690000D03*
%TD*%
D14*
%TO.C,TP1*%
X140208000Y-75692000D03*
%TD*%
D36*
%TO.C,H4*%
X121125000Y-107000000D03*
X121674175Y-105674175D03*
X121674175Y-108325825D03*
X123000000Y-105125000D03*
D37*
X123000000Y-107000000D03*
D36*
X123000000Y-108875000D03*
X124325825Y-105674175D03*
X124325825Y-108325825D03*
X124875000Y-107000000D03*
%TD*%
D39*
%TO.C,C30*%
X125446500Y-87884000D03*
X122321500Y-87884000D03*
%TD*%
D40*
%TO.C,TV1*%
X163500000Y-100000000D03*
X163500000Y-96000000D03*
%TD*%
D23*
%TO.C,R24*%
X156374500Y-78232000D03*
X157569500Y-78232000D03*
%TD*%
D15*
%TO.C,R7*%
X138392500Y-74676000D03*
X137197500Y-74676000D03*
%TD*%
D41*
%TO.C,X1*%
X157200000Y-84350000D03*
D28*
X157200000Y-83150000D03*
D41*
X157200000Y-81950000D03*
%TD*%
D16*
%TO.C,C36*%
X157437500Y-97423333D03*
X160562500Y-97423333D03*
%TD*%
D15*
%TO.C,R10*%
X160744500Y-75946000D03*
X159549500Y-75946000D03*
%TD*%
D42*
%TO.C,C33*%
X125576500Y-85852000D03*
X123851500Y-85852000D03*
%TD*%
D43*
%TO.C,C31*%
X133456717Y-80751717D03*
X134259283Y-81554283D03*
%TD*%
D23*
%TO.C,R4*%
X121068500Y-90805000D03*
X122263500Y-90805000D03*
%TD*%
D15*
%TO.C,R12*%
X165697500Y-91694000D03*
X164502500Y-91694000D03*
%TD*%
D14*
%TO.C,TP7*%
X163310000Y-76180000D03*
%TD*%
D44*
%TO.C,C35*%
X135890000Y-76681500D03*
X135890000Y-74956500D03*
%TD*%
D22*
%TO.C,C14*%
X159579500Y-77089000D03*
X160714500Y-77089000D03*
%TD*%
D45*
%TO.C,D6*%
X159066500Y-84455000D03*
X160211500Y-84455000D03*
%TD*%
D42*
%TO.C,C15*%
X129005500Y-81534000D03*
X127280500Y-81534000D03*
%TD*%
D31*
%TO.C,C26*%
X148336000Y-97592500D03*
X148336000Y-94467500D03*
%TD*%
D23*
%TO.C,R16*%
X143420500Y-89662000D03*
X144615500Y-89662000D03*
%TD*%
D33*
%TO.C,Q8*%
X132334000Y-99568000D03*
X131064000Y-99568000D03*
X129794000Y-99568000D03*
X128524000Y-99568000D03*
D34*
X128524000Y-105268000D03*
X129794000Y-105268000D03*
X131064000Y-105268000D03*
X132334000Y-105268000D03*
D35*
X130429000Y-102868000D03*
%TD*%
D17*
%TO.C,U12*%
X140557500Y-72947000D03*
X139557500Y-72947000D03*
D18*
X138457500Y-69547000D03*
X141657500Y-69547000D03*
%TD*%
D14*
%TO.C,TP6*%
X129286000Y-78613000D03*
%TD*%
D10*
%TO.C,R3*%
X162687000Y-83782500D03*
X162687000Y-82587500D03*
%TD*%
D12*
%TO.C,C6*%
X152459500Y-88773000D03*
X151324500Y-88773000D03*
%TD*%
D24*
%TO.C,R22*%
X154332000Y-97550000D03*
X154332000Y-94450000D03*
%TD*%
D16*
%TO.C,C37*%
X157437500Y-100146667D03*
X160562500Y-100146667D03*
%TD*%
D25*
%TO.C,H7*%
X151000000Y-108000000D03*
%TD*%
D24*
%TO.C,R19*%
X136779000Y-97550000D03*
X136779000Y-94450000D03*
%TD*%
D44*
%TO.C,C34*%
X134239000Y-76681500D03*
X134239000Y-74956500D03*
%TD*%
D25*
%TO.C,H9*%
X168000000Y-101000000D03*
%TD*%
D33*
%TO.C,Q10*%
X138049000Y-99568000D03*
X136779000Y-99568000D03*
X135509000Y-99568000D03*
X134239000Y-99568000D03*
D34*
X134239000Y-105268000D03*
X135509000Y-105268000D03*
X136779000Y-105268000D03*
X138049000Y-105268000D03*
D35*
X136144000Y-102868000D03*
%TD*%
D16*
%TO.C,C29*%
X157437500Y-94700000D03*
X160562500Y-94700000D03*
%TD*%
D45*
%TO.C,D1*%
X159066500Y-79883000D03*
X160211500Y-79883000D03*
%TD*%
%TO.C,D2*%
X159066500Y-82169000D03*
X160211500Y-82169000D03*
%TD*%
D14*
%TO.C,TP3*%
X140208000Y-80010000D03*
%TD*%
D15*
%TO.C,R14*%
X125565500Y-90805000D03*
X124370500Y-90805000D03*
%TD*%
%TO.C,R6*%
X149441500Y-89916000D03*
X148246500Y-89916000D03*
%TD*%
D31*
%TO.C,C24*%
X142875000Y-97592500D03*
X142875000Y-94467500D03*
%TD*%
D17*
%TO.C,U10*%
X146086250Y-72947000D03*
X145086250Y-72947000D03*
D18*
X143986250Y-69547000D03*
X147186250Y-69547000D03*
%TD*%
D23*
%TO.C,R15*%
X159041500Y-85598000D03*
X160236500Y-85598000D03*
%TD*%
D46*
%TO.C,U7*%
X128361344Y-86824569D03*
X128714897Y-87178123D03*
X129068450Y-87531676D03*
X129422004Y-87885229D03*
X129775557Y-88238783D03*
X130129111Y-88592336D03*
X130482664Y-88945889D03*
X130836217Y-89299443D03*
X131189771Y-89652996D03*
X131543324Y-90006550D03*
X131896877Y-90360103D03*
X132250431Y-90713656D03*
D47*
X133179569Y-90713656D03*
X133533123Y-90360103D03*
X133886676Y-90006550D03*
X134240229Y-89652996D03*
X134593783Y-89299443D03*
X134947336Y-88945889D03*
X135300889Y-88592336D03*
X135654443Y-88238783D03*
X136007996Y-87885229D03*
X136361550Y-87531676D03*
X136715103Y-87178123D03*
X137068656Y-86824569D03*
D46*
X137068656Y-85895431D03*
X136715103Y-85541877D03*
X136361550Y-85188324D03*
X136007996Y-84834771D03*
X135654443Y-84481217D03*
X135300889Y-84127664D03*
X134947336Y-83774111D03*
X134593783Y-83420557D03*
X134240229Y-83067004D03*
X133886676Y-82713450D03*
X133533123Y-82359897D03*
X133179569Y-82006344D03*
D47*
X132250431Y-82006344D03*
X131896877Y-82359897D03*
X131543324Y-82713450D03*
X131189771Y-83067004D03*
X130836217Y-83420557D03*
X130482664Y-83774111D03*
X130129111Y-84127664D03*
X129775557Y-84481217D03*
X129422004Y-84834771D03*
X129068450Y-85188324D03*
X128714897Y-85541877D03*
X128361344Y-85895431D03*
D48*
X132715000Y-86360000D03*
%TD*%
D36*
%TO.C,H1*%
X121125000Y-71000000D03*
X121674175Y-69674175D03*
X121674175Y-72325825D03*
X123000000Y-69125000D03*
D37*
X123000000Y-71000000D03*
D36*
X123000000Y-72875000D03*
X124325825Y-69674175D03*
X124325825Y-72325825D03*
X124875000Y-71000000D03*
%TD*%
D12*
%TO.C,C1*%
X148649500Y-73914000D03*
X147514500Y-73914000D03*
%TD*%
D36*
%TO.C,H3*%
X157125000Y-107000000D03*
X157674175Y-105674175D03*
X157674175Y-108325825D03*
X159000000Y-105125000D03*
D37*
X159000000Y-107000000D03*
D36*
X159000000Y-108875000D03*
X160325825Y-105674175D03*
X160325825Y-108325825D03*
X160875000Y-107000000D03*
%TD*%
D23*
%TO.C,R13*%
X124370500Y-89662000D03*
X125565500Y-89662000D03*
%TD*%
D28*
%TO.C,CN2*%
X164800000Y-82500000D03*
X164800000Y-81500000D03*
X164800000Y-80500000D03*
X164800000Y-79500000D03*
X164800000Y-78500000D03*
X164800000Y-77500000D03*
D29*
X168200000Y-76400000D03*
X168200000Y-83600000D03*
%TD*%
D32*
%TO.C,C32*%
X139065000Y-84641500D03*
X139065000Y-83506500D03*
%TD*%
D49*
%TO.C,U1*%
X154581000Y-87884000D03*
X154581000Y-89154000D03*
X154581000Y-90424000D03*
X154581000Y-91694000D03*
X160125000Y-91694000D03*
X160125000Y-90424000D03*
X160125000Y-89154000D03*
X160125000Y-87884000D03*
%TD*%
D12*
%TO.C,C12*%
X155888500Y-74168000D03*
X154753500Y-74168000D03*
%TD*%
D32*
%TO.C,C3*%
X154686000Y-76513500D03*
X154686000Y-75378500D03*
%TD*%
D31*
%TO.C,C21*%
X123647200Y-95669500D03*
X123647200Y-92544500D03*
%TD*%
D25*
%TO.C,H5*%
X131000000Y-108000000D03*
%TD*%
D44*
%TO.C,C28*%
X128250000Y-91286500D03*
X128250000Y-89561500D03*
%TD*%
D23*
%TO.C,R11*%
X159041500Y-83312000D03*
X160236500Y-83312000D03*
%TD*%
D50*
%TO.C,L2*%
X123825000Y-81248000D03*
X123825000Y-77248000D03*
%TD*%
D15*
%TO.C,R25*%
X143980500Y-73787000D03*
X142785500Y-73787000D03*
%TD*%
D23*
%TO.C,R21*%
X135673500Y-80391000D03*
X136868500Y-80391000D03*
%TD*%
D12*
%TO.C,C4*%
X143950500Y-75184000D03*
X142815500Y-75184000D03*
%TD*%
D19*
%TO.C,Q11*%
X145415000Y-105112000D03*
X146685000Y-105112000D03*
X147955000Y-105112000D03*
X149225000Y-105112000D03*
D20*
X149225000Y-99412000D03*
X147955000Y-99412000D03*
X146685000Y-99412000D03*
X145415000Y-99412000D03*
D21*
X147320000Y-101812000D03*
%TD*%
D12*
%TO.C,C5*%
X142807500Y-86233000D03*
X141672500Y-86233000D03*
%TD*%
D51*
%TO.C,C27*%
X126750000Y-89729500D03*
X126750000Y-90864500D03*
%TD*%
D52*
%TO.C,U8*%
X154519000Y-85157000D03*
X154519000Y-84657000D03*
X154519000Y-84157000D03*
X154519000Y-83657000D03*
X154519000Y-83157000D03*
X154519000Y-82657000D03*
X154519000Y-82157000D03*
X154519000Y-81657000D03*
X154519000Y-81157000D03*
X154519000Y-80657000D03*
X154519000Y-80157000D03*
X154519000Y-79657000D03*
X154519000Y-79157000D03*
X154519000Y-78657000D03*
X154519000Y-78157000D03*
X154519000Y-77657000D03*
D53*
X152594000Y-75732000D03*
X152094000Y-75732000D03*
X151594000Y-75732000D03*
X151094000Y-75732000D03*
X150594000Y-75732000D03*
X150094000Y-75732000D03*
X149594000Y-75732000D03*
X149094000Y-75732000D03*
X148594000Y-75732000D03*
X148094000Y-75732000D03*
X147594000Y-75732000D03*
X147094000Y-75732000D03*
X146594000Y-75732000D03*
X146094000Y-75732000D03*
X145594000Y-75732000D03*
X145094000Y-75732000D03*
D52*
X143169000Y-77657000D03*
X143169000Y-78157000D03*
X143169000Y-78657000D03*
X143169000Y-79157000D03*
X143169000Y-79657000D03*
X143169000Y-80157000D03*
X143169000Y-80657000D03*
X143169000Y-81157000D03*
X143169000Y-81657000D03*
X143169000Y-82157000D03*
X143169000Y-82657000D03*
X143169000Y-83157000D03*
X143169000Y-83657000D03*
X143169000Y-84157000D03*
X143169000Y-84657000D03*
X143169000Y-85157000D03*
D53*
X145094000Y-87082000D03*
X145594000Y-87082000D03*
X146094000Y-87082000D03*
X146594000Y-87082000D03*
X147094000Y-87082000D03*
X147594000Y-87082000D03*
X148094000Y-87082000D03*
X148594000Y-87082000D03*
X149094000Y-87082000D03*
X149594000Y-87082000D03*
X150094000Y-87082000D03*
X150594000Y-87082000D03*
X151094000Y-87082000D03*
X151594000Y-87082000D03*
X152094000Y-87082000D03*
X152594000Y-87082000D03*
%TD*%
M02*
