%TF.GenerationSoftware,KiCad,Pcbnew,8.0.4-8.0.4-0~ubuntu24.04.1*%
%TF.CreationDate,2024-08-03T15:04:34+08:00*%
%TF.ProjectId,CawDrive,43617744-7269-4766-952e-6b696361645f,rev?*%
%TF.SameCoordinates,Original*%
%TF.FileFunction,Drillmap*%
%TF.FilePolarity,Positive*%
%FSLAX45Y45*%
G04 Gerber Fmt 4.5, Leading zero omitted, Abs format (unit mm)*
G04 Created by KiCad (PCBNEW 8.0.4-8.0.4-0~ubuntu24.04.1) date 2024-08-03 15:04:34*
%MOMM*%
%LPD*%
G01*
G04 APERTURE LIST*
%ADD10C,0.100000*%
%ADD11C,0.200000*%
%ADD12C,0.250000*%
G04 APERTURE END LIST*
D10*
X12300000Y-6800000D02*
X15900000Y-6800000D01*
X15900000Y-6800000D02*
G75*
G02*
X16200000Y-7100000I0J-300000D01*
G01*
X16200000Y-7100000D02*
X16200000Y-10700000D01*
X12300000Y-11000000D02*
G75*
G02*
X12000000Y-10700000I0J300000D01*
G01*
X16200000Y-10700000D02*
G75*
G02*
X15900000Y-11000000I-300000J0D01*
G01*
X15900000Y-11000000D02*
X12300000Y-11000000D01*
X12000000Y-10700000D02*
X12000000Y-7100000D01*
X12000000Y-7100000D02*
G75*
G02*
X12300000Y-6800000I300000J0D01*
G01*
D11*
D10*
X12050000Y-9357600D02*
X12080000Y-9387600D01*
X12080000Y-9357600D02*
X12050000Y-9387600D01*
X12138900Y-9357600D02*
X12168900Y-9387600D01*
X12168900Y-9357600D02*
X12138900Y-9387600D01*
X12211350Y-8993050D02*
X12241350Y-9023050D01*
X12241350Y-8993050D02*
X12211350Y-9023050D01*
X12235000Y-10260000D02*
X12265000Y-10290000D01*
X12265000Y-10260000D02*
X12235000Y-10290000D01*
X12240500Y-9827500D02*
X12270500Y-9857500D01*
X12270500Y-9827500D02*
X12240500Y-9857500D01*
X12240500Y-9929100D02*
X12270500Y-9959100D01*
X12270500Y-9929100D02*
X12240500Y-9959100D01*
X12240500Y-10030700D02*
X12270500Y-10060700D01*
X12270500Y-10030700D02*
X12240500Y-10060700D01*
X12240500Y-10132300D02*
X12270500Y-10162300D01*
X12270500Y-10132300D02*
X12240500Y-10162300D01*
X12240500Y-10360900D02*
X12270500Y-10390900D01*
X12270500Y-10360900D02*
X12240500Y-10390900D01*
X12298000Y-8459000D02*
X12328000Y-8489000D01*
X12328000Y-8459000D02*
X12298000Y-8489000D01*
X12299000Y-8368000D02*
X12329000Y-8398000D01*
X12329000Y-8368000D02*
X12299000Y-8398000D01*
X12316700Y-9357600D02*
X12346700Y-9387600D01*
X12346700Y-9357600D02*
X12316700Y-9387600D01*
X12342100Y-8951200D02*
X12372100Y-8981200D01*
X12372100Y-8951200D02*
X12342100Y-8981200D01*
X12342100Y-9065500D02*
X12372100Y-9095500D01*
X12372100Y-9065500D02*
X12342100Y-9095500D01*
X12367500Y-9827500D02*
X12397500Y-9857500D01*
X12397500Y-9827500D02*
X12367500Y-9857500D01*
X12367500Y-9929100D02*
X12397500Y-9959100D01*
X12397500Y-9929100D02*
X12367500Y-9959100D01*
X12367500Y-10030700D02*
X12397500Y-10060700D01*
X12397500Y-10030700D02*
X12367500Y-10060700D01*
X12367500Y-10132300D02*
X12397500Y-10162300D01*
X12397500Y-10132300D02*
X12367500Y-10162300D01*
X12367500Y-10259300D02*
X12397500Y-10289300D01*
X12397500Y-10259300D02*
X12367500Y-10289300D01*
X12367500Y-10360900D02*
X12397500Y-10390900D01*
X12397500Y-10360900D02*
X12367500Y-10390900D01*
X12405600Y-9357600D02*
X12435600Y-9387600D01*
X12435600Y-9357600D02*
X12405600Y-9387600D01*
X12434750Y-7380150D02*
X12464750Y-7410150D01*
X12464750Y-7380150D02*
X12434750Y-7410150D01*
X12494500Y-9357600D02*
X12524500Y-9387600D01*
X12524500Y-9357600D02*
X12494500Y-9387600D01*
X12494500Y-9827500D02*
X12524500Y-9857500D01*
X12524500Y-9827500D02*
X12494500Y-9857500D01*
X12494500Y-9929100D02*
X12524500Y-9959100D01*
X12524500Y-9929100D02*
X12494500Y-9959100D01*
X12494500Y-10030700D02*
X12524500Y-10060700D01*
X12524500Y-10030700D02*
X12494500Y-10060700D01*
X12494500Y-10132300D02*
X12524500Y-10162300D01*
X12524500Y-10132300D02*
X12494500Y-10162300D01*
X12494500Y-10259300D02*
X12524500Y-10289300D01*
X12524500Y-10259300D02*
X12494500Y-10289300D01*
X12494500Y-10360900D02*
X12524500Y-10390900D01*
X12524500Y-10360900D02*
X12494500Y-10390900D01*
X12542650Y-8570200D02*
X12572650Y-8600200D01*
X12572650Y-8570200D02*
X12542650Y-8600200D01*
X12583400Y-9357600D02*
X12613400Y-9387600D01*
X12613400Y-9357600D02*
X12583400Y-9387600D01*
X12621500Y-9827500D02*
X12651500Y-9857500D01*
X12651500Y-9827500D02*
X12621500Y-9857500D01*
X12621500Y-9929100D02*
X12651500Y-9959100D01*
X12651500Y-9929100D02*
X12621500Y-9959100D01*
X12621500Y-10030700D02*
X12651500Y-10060700D01*
X12651500Y-10030700D02*
X12621500Y-10060700D01*
X12621500Y-10132300D02*
X12651500Y-10162300D01*
X12651500Y-10132300D02*
X12621500Y-10162300D01*
X12723100Y-7615900D02*
X12753100Y-7645900D01*
X12753100Y-7615900D02*
X12723100Y-7645900D01*
X12724051Y-7370759D02*
X12754051Y-7400759D01*
X12754051Y-7370759D02*
X12724051Y-7400759D01*
X12835000Y-7118000D02*
X12865000Y-7148000D01*
X12865000Y-7118000D02*
X12835000Y-7148000D01*
X12836000Y-7861000D02*
X12866000Y-7891000D01*
X12866000Y-7861000D02*
X12836000Y-7891000D01*
X12837400Y-10322800D02*
X12867400Y-10352800D01*
X12867400Y-10322800D02*
X12837400Y-10352800D01*
X12837400Y-10424400D02*
X12867400Y-10454400D01*
X12867400Y-10424400D02*
X12837400Y-10454400D01*
X12913234Y-8934766D02*
X12943234Y-8964766D01*
X12943234Y-8934766D02*
X12913234Y-8964766D01*
X12939000Y-8621000D02*
X12969000Y-8651000D01*
X12969000Y-8621000D02*
X12939000Y-8651000D01*
X12939000Y-9700500D02*
X12969000Y-9730500D01*
X12969000Y-9700500D02*
X12939000Y-9730500D01*
X12939000Y-9789400D02*
X12969000Y-9819400D01*
X12969000Y-9789400D02*
X12939000Y-9819400D01*
X12950000Y-8306000D02*
X12980000Y-8336000D01*
X12980000Y-8306000D02*
X12950000Y-8336000D01*
X12964400Y-10322800D02*
X12994400Y-10352800D01*
X12994400Y-10322800D02*
X12964400Y-10352800D01*
X12964400Y-10424400D02*
X12994400Y-10454400D01*
X12994400Y-10424400D02*
X12964400Y-10454400D01*
X12966288Y-8228375D02*
X12996288Y-8258375D01*
X12996288Y-8228375D02*
X12966288Y-8258375D01*
X12989273Y-8156731D02*
X13019273Y-8186731D01*
X13019273Y-8156731D02*
X12989273Y-8186731D01*
X12989800Y-9383000D02*
X13019800Y-9413000D01*
X13019800Y-9383000D02*
X12989800Y-9413000D01*
X12989800Y-9459200D02*
X13019800Y-9489200D01*
X13019800Y-9459200D02*
X12989800Y-9489200D01*
X13002500Y-8557500D02*
X13032500Y-8587500D01*
X13032500Y-8557500D02*
X13002500Y-8587500D01*
X13002500Y-8684500D02*
X13032500Y-8714500D01*
X13032500Y-8684500D02*
X13002500Y-8714500D01*
X13015200Y-9700500D02*
X13045200Y-9730500D01*
X13045200Y-9700500D02*
X13015200Y-9730500D01*
X13015200Y-9789400D02*
X13045200Y-9819400D01*
X13045200Y-9789400D02*
X13015200Y-9819400D01*
X13064038Y-8148288D02*
X13094038Y-8178288D01*
X13094038Y-8148288D02*
X13064038Y-8178288D01*
X13066000Y-8494000D02*
X13096000Y-8524000D01*
X13096000Y-8494000D02*
X13066000Y-8524000D01*
X13066000Y-8621000D02*
X13096000Y-8651000D01*
X13096000Y-8621000D02*
X13066000Y-8651000D01*
X13066000Y-8748000D02*
X13096000Y-8778000D01*
X13096000Y-8748000D02*
X13066000Y-8778000D01*
X13066000Y-9383000D02*
X13096000Y-9413000D01*
X13096000Y-9383000D02*
X13066000Y-9413000D01*
X13066000Y-9459200D02*
X13096000Y-9489200D01*
X13096000Y-9459200D02*
X13066000Y-9489200D01*
X13091400Y-9789400D02*
X13121400Y-9819400D01*
X13121400Y-9789400D02*
X13091400Y-9819400D01*
X13091400Y-10322800D02*
X13121400Y-10352800D01*
X13121400Y-10322800D02*
X13091400Y-10352800D01*
X13091400Y-10424400D02*
X13121400Y-10454400D01*
X13121400Y-10424400D02*
X13091400Y-10454400D01*
X13098462Y-8081385D02*
X13128462Y-8111385D01*
X13128462Y-8081385D02*
X13098462Y-8111385D01*
X13129500Y-8430500D02*
X13159500Y-8460500D01*
X13159500Y-8430500D02*
X13129500Y-8460500D01*
X13129500Y-8557500D02*
X13159500Y-8587500D01*
X13159500Y-8557500D02*
X13129500Y-8587500D01*
X13129500Y-8684500D02*
X13159500Y-8714500D01*
X13159500Y-8684500D02*
X13129500Y-8714500D01*
X13129500Y-8811500D02*
X13159500Y-8841500D01*
X13159500Y-8811500D02*
X13129500Y-8841500D01*
X13154900Y-9383000D02*
X13184900Y-9413000D01*
X13184900Y-9383000D02*
X13154900Y-9413000D01*
X13154900Y-9459200D02*
X13184900Y-9489200D01*
X13184900Y-9459200D02*
X13154900Y-9489200D01*
X13167600Y-9700500D02*
X13197600Y-9730500D01*
X13197600Y-9700500D02*
X13167600Y-9730500D01*
X13167600Y-9789400D02*
X13197600Y-9819400D01*
X13197600Y-9789400D02*
X13167600Y-9819400D01*
X13168461Y-8051833D02*
X13198461Y-8081833D01*
X13198461Y-8051833D02*
X13168461Y-8081833D01*
X13193000Y-8367000D02*
X13223000Y-8397000D01*
X13223000Y-8367000D02*
X13193000Y-8397000D01*
X13193000Y-8494000D02*
X13223000Y-8524000D01*
X13223000Y-8494000D02*
X13193000Y-8524000D01*
X13193000Y-8621000D02*
X13223000Y-8651000D01*
X13223000Y-8621000D02*
X13193000Y-8651000D01*
X13193000Y-8748000D02*
X13223000Y-8778000D01*
X13223000Y-8748000D02*
X13193000Y-8778000D01*
X13193000Y-8875000D02*
X13223000Y-8905000D01*
X13223000Y-8875000D02*
X13193000Y-8905000D01*
X13218400Y-10322800D02*
X13248400Y-10352800D01*
X13248400Y-10322800D02*
X13218400Y-10352800D01*
X13218400Y-10424400D02*
X13248400Y-10454400D01*
X13248400Y-10424400D02*
X13218400Y-10454400D01*
X13231100Y-9383000D02*
X13261100Y-9413000D01*
X13261100Y-9383000D02*
X13231100Y-9413000D01*
X13231100Y-9459200D02*
X13261100Y-9489200D01*
X13261100Y-9459200D02*
X13231100Y-9489200D01*
X13243800Y-7566900D02*
X13273800Y-7596900D01*
X13273800Y-7566900D02*
X13243800Y-7596900D01*
X13243800Y-9700500D02*
X13273800Y-9730500D01*
X13273800Y-9700500D02*
X13243800Y-9730500D01*
X13243800Y-9789400D02*
X13273800Y-9819400D01*
X13273800Y-9789400D02*
X13243800Y-9819400D01*
X13256500Y-8303500D02*
X13286500Y-8333500D01*
X13286500Y-8303500D02*
X13256500Y-8333500D01*
X13256500Y-8430500D02*
X13286500Y-8460500D01*
X13286500Y-8430500D02*
X13256500Y-8460500D01*
X13256500Y-8557500D02*
X13286500Y-8587500D01*
X13286500Y-8557500D02*
X13256500Y-8587500D01*
X13256500Y-8684500D02*
X13286500Y-8714500D01*
X13286500Y-8684500D02*
X13256500Y-8714500D01*
X13256500Y-8811500D02*
X13286500Y-8841500D01*
X13286500Y-8811500D02*
X13256500Y-8841500D01*
X13256500Y-8938500D02*
X13286500Y-8968500D01*
X13286500Y-8938500D02*
X13256500Y-8968500D01*
X13307000Y-9141000D02*
X13337000Y-9171000D01*
X13337000Y-9141000D02*
X13307000Y-9171000D01*
X13320000Y-8367000D02*
X13350000Y-8397000D01*
X13350000Y-8367000D02*
X13320000Y-8397000D01*
X13320000Y-8494000D02*
X13350000Y-8524000D01*
X13350000Y-8494000D02*
X13320000Y-8524000D01*
X13320000Y-8621000D02*
X13350000Y-8651000D01*
X13350000Y-8621000D02*
X13320000Y-8651000D01*
X13320000Y-8748000D02*
X13350000Y-8778000D01*
X13350000Y-8748000D02*
X13320000Y-8778000D01*
X13320000Y-8875000D02*
X13350000Y-8905000D01*
X13350000Y-8875000D02*
X13320000Y-8905000D01*
X13337000Y-7120000D02*
X13367000Y-7150000D01*
X13367000Y-7120000D02*
X13337000Y-7150000D01*
X13382759Y-9089000D02*
X13412759Y-9119000D01*
X13412759Y-9089000D02*
X13382759Y-9119000D01*
X13383500Y-8430500D02*
X13413500Y-8460500D01*
X13413500Y-8430500D02*
X13383500Y-8460500D01*
X13383500Y-8557500D02*
X13413500Y-8587500D01*
X13413500Y-8557500D02*
X13383500Y-8587500D01*
X13383500Y-8684500D02*
X13413500Y-8714500D01*
X13413500Y-8684500D02*
X13383500Y-8714500D01*
X13383500Y-8811500D02*
X13413500Y-8841500D01*
X13413500Y-8811500D02*
X13383500Y-8841500D01*
X13408900Y-10322800D02*
X13438900Y-10352800D01*
X13438900Y-10322800D02*
X13408900Y-10352800D01*
X13408900Y-10424400D02*
X13438900Y-10454400D01*
X13438900Y-10424400D02*
X13408900Y-10454400D01*
X13435000Y-7121000D02*
X13465000Y-7151000D01*
X13465000Y-7121000D02*
X13435000Y-7151000D01*
X13447000Y-8494000D02*
X13477000Y-8524000D01*
X13477000Y-8494000D02*
X13447000Y-8524000D01*
X13447000Y-8621000D02*
X13477000Y-8651000D01*
X13477000Y-8621000D02*
X13447000Y-8651000D01*
X13447000Y-8748000D02*
X13477000Y-8778000D01*
X13477000Y-8748000D02*
X13447000Y-8778000D01*
X13489241Y-9095041D02*
X13519241Y-9125041D01*
X13519241Y-9095041D02*
X13489241Y-9125041D01*
X13510500Y-8557500D02*
X13540500Y-8587500D01*
X13540500Y-8557500D02*
X13510500Y-8587500D01*
X13510500Y-8684500D02*
X13540500Y-8714500D01*
X13540500Y-8684500D02*
X13510500Y-8714500D01*
X13523200Y-9700500D02*
X13553200Y-9730500D01*
X13553200Y-9700500D02*
X13523200Y-9730500D01*
X13523200Y-9776700D02*
X13553200Y-9806700D01*
X13553200Y-9776700D02*
X13523200Y-9806700D01*
X13535900Y-10322800D02*
X13565900Y-10352800D01*
X13565900Y-10322800D02*
X13535900Y-10352800D01*
X13535900Y-10424400D02*
X13565900Y-10454400D01*
X13565900Y-10424400D02*
X13535900Y-10454400D01*
X13542444Y-9148244D02*
X13572444Y-9178244D01*
X13572444Y-9148244D02*
X13542444Y-9178244D01*
X13574000Y-8621000D02*
X13604000Y-8651000D01*
X13604000Y-8621000D02*
X13574000Y-8651000D01*
X13574000Y-9383000D02*
X13604000Y-9413000D01*
X13604000Y-9383000D02*
X13574000Y-9413000D01*
X13574000Y-9459200D02*
X13604000Y-9489200D01*
X13604000Y-9459200D02*
X13574000Y-9489200D01*
X13599400Y-9700500D02*
X13629400Y-9730500D01*
X13629400Y-9700500D02*
X13599400Y-9730500D01*
X13599400Y-9776700D02*
X13629400Y-9806700D01*
X13629400Y-9776700D02*
X13599400Y-9806700D01*
X13632264Y-8307831D02*
X13662264Y-8337831D01*
X13662264Y-8307831D02*
X13632264Y-8337831D01*
X13637520Y-8201166D02*
X13667520Y-8231166D01*
X13667520Y-8201166D02*
X13637520Y-8231166D01*
X13650200Y-7681200D02*
X13680200Y-7711200D01*
X13680200Y-7681200D02*
X13650200Y-7711200D01*
X13650200Y-7757400D02*
X13680200Y-7787400D01*
X13680200Y-7757400D02*
X13650200Y-7787400D01*
X13650200Y-7820900D02*
X13680200Y-7850900D01*
X13680200Y-7820900D02*
X13650200Y-7850900D01*
X13650200Y-9383000D02*
X13680200Y-9413000D01*
X13680200Y-9383000D02*
X13650200Y-9413000D01*
X13650200Y-9459200D02*
X13680200Y-9489200D01*
X13680200Y-9459200D02*
X13650200Y-9489200D01*
X13662900Y-10322800D02*
X13692900Y-10352800D01*
X13692900Y-10322800D02*
X13662900Y-10352800D01*
X13662900Y-10424400D02*
X13692900Y-10454400D01*
X13692900Y-10424400D02*
X13662900Y-10454400D01*
X13675600Y-9700500D02*
X13705600Y-9730500D01*
X13705600Y-9700500D02*
X13675600Y-9730500D01*
X13675600Y-9776700D02*
X13705600Y-9806700D01*
X13705600Y-9776700D02*
X13675600Y-9806700D01*
X13684000Y-8362461D02*
X13714000Y-8392461D01*
X13714000Y-8362461D02*
X13684000Y-8392461D01*
X13692959Y-8254407D02*
X13722959Y-8284407D01*
X13722959Y-8254407D02*
X13692959Y-8284407D01*
X13739100Y-9383000D02*
X13769100Y-9413000D01*
X13769100Y-9383000D02*
X13739100Y-9413000D01*
X13739100Y-9459200D02*
X13769100Y-9489200D01*
X13769100Y-9459200D02*
X13739100Y-9489200D01*
X13750466Y-8624760D02*
X13780466Y-8654760D01*
X13780466Y-8624760D02*
X13750466Y-8654760D01*
X13764500Y-9700500D02*
X13794500Y-9730500D01*
X13794500Y-9700500D02*
X13764500Y-9730500D01*
X13764500Y-9776700D02*
X13794500Y-9806700D01*
X13794500Y-9776700D02*
X13764500Y-9806700D01*
X13789900Y-10322800D02*
X13819900Y-10352800D01*
X13819900Y-10322800D02*
X13789900Y-10352800D01*
X13789900Y-10424400D02*
X13819900Y-10454400D01*
X13819900Y-10424400D02*
X13789900Y-10454400D01*
X13815300Y-9459200D02*
X13845300Y-9489200D01*
X13845300Y-9459200D02*
X13815300Y-9489200D01*
X13865000Y-8534000D02*
X13895000Y-8564000D01*
X13895000Y-8534000D02*
X13865000Y-8564000D01*
X13866000Y-8250000D02*
X13896000Y-8280000D01*
X13896000Y-8250000D02*
X13866000Y-8280000D01*
X13930000Y-7177000D02*
X13960000Y-7207000D01*
X13960000Y-7177000D02*
X13930000Y-7207000D01*
X13931000Y-8642891D02*
X13961000Y-8672891D01*
X13961000Y-8642891D02*
X13931000Y-8672891D01*
X13942300Y-9040100D02*
X13972300Y-9070100D01*
X13972300Y-9040100D02*
X13942300Y-9070100D01*
X13955000Y-9383000D02*
X13985000Y-9413000D01*
X13985000Y-9383000D02*
X13955000Y-9413000D01*
X13955000Y-9459200D02*
X13985000Y-9489200D01*
X13985000Y-9459200D02*
X13955000Y-9489200D01*
X13967700Y-10005300D02*
X13997700Y-10035300D01*
X13997700Y-10005300D02*
X13967700Y-10035300D01*
X13967700Y-10106900D02*
X13997700Y-10136900D01*
X13997700Y-10106900D02*
X13967700Y-10136900D01*
X13967700Y-10208500D02*
X13997700Y-10238500D01*
X13997700Y-10208500D02*
X13967700Y-10238500D01*
X13967700Y-10310100D02*
X13997700Y-10340100D01*
X13997700Y-10310100D02*
X13967700Y-10340100D01*
X13967700Y-10437100D02*
X13997700Y-10467100D01*
X13997700Y-10437100D02*
X13967700Y-10467100D01*
X13967700Y-10551400D02*
X13997700Y-10581400D01*
X13997700Y-10551400D02*
X13967700Y-10581400D01*
X14018500Y-8798800D02*
X14048500Y-8828800D01*
X14048500Y-8798800D02*
X14018500Y-8828800D01*
X14031200Y-9383000D02*
X14061200Y-9413000D01*
X14061200Y-9383000D02*
X14031200Y-9413000D01*
X14031200Y-9459200D02*
X14061200Y-9489200D01*
X14061200Y-9459200D02*
X14031200Y-9489200D01*
X14082000Y-7236700D02*
X14112000Y-7266700D01*
X14112000Y-7236700D02*
X14082000Y-7266700D01*
X14082000Y-7351000D02*
X14112000Y-7381000D01*
X14112000Y-7351000D02*
X14082000Y-7381000D01*
X14094700Y-10005300D02*
X14124700Y-10035300D01*
X14124700Y-10005300D02*
X14094700Y-10035300D01*
X14094700Y-10106900D02*
X14124700Y-10136900D01*
X14124700Y-10106900D02*
X14094700Y-10136900D01*
X14094700Y-10208500D02*
X14124700Y-10238500D01*
X14124700Y-10208500D02*
X14094700Y-10238500D01*
X14094700Y-10310100D02*
X14124700Y-10340100D01*
X14124700Y-10310100D02*
X14094700Y-10340100D01*
X14094700Y-10437100D02*
X14124700Y-10467100D01*
X14124700Y-10437100D02*
X14094700Y-10467100D01*
X14094700Y-10551400D02*
X14124700Y-10581400D01*
X14124700Y-10551400D02*
X14094700Y-10581400D01*
X14107400Y-9383000D02*
X14137400Y-9413000D01*
X14137400Y-9383000D02*
X14107400Y-9413000D01*
X14107400Y-9459200D02*
X14137400Y-9489200D01*
X14137400Y-9459200D02*
X14107400Y-9489200D01*
X14119956Y-8746898D02*
X14149956Y-8776898D01*
X14149956Y-8746898D02*
X14119956Y-8776898D01*
X14120100Y-8671658D02*
X14150100Y-8701658D01*
X14150100Y-8671658D02*
X14120100Y-8701658D01*
X14121699Y-8822118D02*
X14151699Y-8852118D01*
X14151699Y-8822118D02*
X14121699Y-8852118D01*
X14136004Y-8897196D02*
X14166004Y-8927196D01*
X14166004Y-8897196D02*
X14136004Y-8927196D01*
X14137676Y-8972418D02*
X14167676Y-9002418D01*
X14167676Y-8972418D02*
X14137676Y-9002418D01*
X14182000Y-7936000D02*
X14212000Y-7966000D01*
X14212000Y-7936000D02*
X14182000Y-7966000D01*
X14183600Y-9383000D02*
X14213600Y-9413000D01*
X14213600Y-9383000D02*
X14183600Y-9413000D01*
X14183600Y-9459200D02*
X14213600Y-9489200D01*
X14213600Y-9459200D02*
X14183600Y-9489200D01*
X14221700Y-10005300D02*
X14251700Y-10035300D01*
X14251700Y-10005300D02*
X14221700Y-10035300D01*
X14221700Y-10106900D02*
X14251700Y-10136900D01*
X14251700Y-10106900D02*
X14221700Y-10136900D01*
X14221700Y-10208500D02*
X14251700Y-10238500D01*
X14251700Y-10208500D02*
X14221700Y-10238500D01*
X14221700Y-10310100D02*
X14251700Y-10340100D01*
X14251700Y-10310100D02*
X14221700Y-10340100D01*
X14221700Y-10437100D02*
X14251700Y-10467100D01*
X14251700Y-10437100D02*
X14221700Y-10467100D01*
X14221700Y-10551400D02*
X14251700Y-10581400D01*
X14251700Y-10551400D02*
X14221700Y-10581400D01*
X14225000Y-8073724D02*
X14255000Y-8103724D01*
X14255000Y-8073724D02*
X14225000Y-8103724D01*
X14227690Y-8559121D02*
X14257690Y-8589121D01*
X14257690Y-8559121D02*
X14227690Y-8589121D01*
X14250447Y-7967242D02*
X14280447Y-7997242D01*
X14280447Y-7967242D02*
X14250447Y-7997242D01*
X14259800Y-9383000D02*
X14289800Y-9413000D01*
X14289800Y-9383000D02*
X14259800Y-9413000D01*
X14259800Y-9459200D02*
X14289800Y-9489200D01*
X14289800Y-9459200D02*
X14259800Y-9489200D01*
X14291603Y-8108725D02*
X14321603Y-8138725D01*
X14321603Y-8108725D02*
X14291603Y-8138725D01*
X14298928Y-8222678D02*
X14328928Y-8252678D01*
X14328928Y-8222678D02*
X14298928Y-8252678D01*
X14302885Y-8561733D02*
X14332885Y-8591733D01*
X14332885Y-8561733D02*
X14302885Y-8591733D01*
X14319295Y-7997591D02*
X14349295Y-8027591D01*
X14349295Y-7997591D02*
X14319295Y-8027591D01*
X14333658Y-7666240D02*
X14363658Y-7696240D01*
X14363658Y-7666240D02*
X14333658Y-7696240D01*
X14336000Y-9383000D02*
X14366000Y-9413000D01*
X14366000Y-9383000D02*
X14336000Y-9413000D01*
X14336000Y-9459200D02*
X14366000Y-9489200D01*
X14366000Y-9459200D02*
X14336000Y-9489200D01*
X14340000Y-7072000D02*
X14370000Y-7102000D01*
X14370000Y-7072000D02*
X14340000Y-7102000D01*
X14344168Y-8162558D02*
X14374168Y-8192558D01*
X14374168Y-8162558D02*
X14344168Y-8192558D01*
X14348700Y-10005300D02*
X14378700Y-10035300D01*
X14378700Y-10005300D02*
X14348700Y-10035300D01*
X14348700Y-10106900D02*
X14378700Y-10136900D01*
X14378700Y-10106900D02*
X14348700Y-10136900D01*
X14348700Y-10208500D02*
X14378700Y-10238500D01*
X14378700Y-10208500D02*
X14348700Y-10238500D01*
X14348700Y-10310100D02*
X14378700Y-10340100D01*
X14378700Y-10310100D02*
X14348700Y-10340100D01*
X14386000Y-8230000D02*
X14416000Y-8260000D01*
X14416000Y-8230000D02*
X14386000Y-8260000D01*
X14442106Y-8374460D02*
X14472106Y-8404461D01*
X14472106Y-8374460D02*
X14442106Y-8404461D01*
X14492000Y-7666240D02*
X14522000Y-7696240D01*
X14522000Y-7666240D02*
X14492000Y-7696240D01*
X14501100Y-9383000D02*
X14531100Y-9413000D01*
X14531100Y-9383000D02*
X14501100Y-9413000D01*
X14501100Y-9459200D02*
X14531100Y-9489200D01*
X14531100Y-9459200D02*
X14501100Y-9489200D01*
X14515085Y-8392767D02*
X14545085Y-8422767D01*
X14545085Y-8392767D02*
X14515085Y-8422767D01*
X14526500Y-9052800D02*
X14556500Y-9082800D01*
X14556500Y-9052800D02*
X14526500Y-9082800D01*
X14526500Y-10005300D02*
X14556500Y-10035300D01*
X14556500Y-10005300D02*
X14526500Y-10035300D01*
X14526500Y-10106900D02*
X14556500Y-10136900D01*
X14556500Y-10106900D02*
X14526500Y-10136900D01*
X14526500Y-10208500D02*
X14556500Y-10238500D01*
X14556500Y-10208500D02*
X14526500Y-10238500D01*
X14526500Y-10310100D02*
X14556500Y-10340100D01*
X14556500Y-10310100D02*
X14526500Y-10340100D01*
X14526500Y-10437100D02*
X14556500Y-10467100D01*
X14556500Y-10437100D02*
X14526500Y-10467100D01*
X14526500Y-10551400D02*
X14556500Y-10581400D01*
X14556500Y-10551400D02*
X14526500Y-10581400D01*
X14526999Y-8886041D02*
X14556999Y-8916041D01*
X14556999Y-8886041D02*
X14526999Y-8916041D01*
X14577300Y-9383000D02*
X14607300Y-9413000D01*
X14607300Y-9383000D02*
X14577300Y-9413000D01*
X14577300Y-9459200D02*
X14607300Y-9489200D01*
X14607300Y-9459200D02*
X14577300Y-9489200D01*
X14585000Y-7666240D02*
X14615000Y-7696240D01*
X14615000Y-7666240D02*
X14585000Y-7696240D01*
X14615400Y-7236700D02*
X14645400Y-7266700D01*
X14645400Y-7236700D02*
X14615400Y-7266700D01*
X14653500Y-9383000D02*
X14683500Y-9413000D01*
X14683500Y-9383000D02*
X14653500Y-9413000D01*
X14653500Y-9459200D02*
X14683500Y-9489200D01*
X14683500Y-9459200D02*
X14653500Y-9489200D01*
X14653500Y-10005300D02*
X14683500Y-10035300D01*
X14683500Y-10005300D02*
X14653500Y-10035300D01*
X14653500Y-10106900D02*
X14683500Y-10136900D01*
X14683500Y-10106900D02*
X14653500Y-10136900D01*
X14653500Y-10208500D02*
X14683500Y-10238500D01*
X14683500Y-10208500D02*
X14653500Y-10238500D01*
X14653500Y-10310100D02*
X14683500Y-10340100D01*
X14683500Y-10310100D02*
X14653500Y-10340100D01*
X14653500Y-10437100D02*
X14683500Y-10467100D01*
X14683500Y-10437100D02*
X14653500Y-10467100D01*
X14653500Y-10551400D02*
X14683500Y-10581400D01*
X14683500Y-10551400D02*
X14653500Y-10581400D01*
X14678900Y-9020650D02*
X14708900Y-9050650D01*
X14708900Y-9020650D02*
X14678900Y-9050650D01*
X14687000Y-7411000D02*
X14717000Y-7441000D01*
X14717000Y-7411000D02*
X14687000Y-7441000D01*
X14729700Y-9383000D02*
X14759700Y-9413000D01*
X14759700Y-9383000D02*
X14729700Y-9413000D01*
X14729700Y-9459200D02*
X14759700Y-9489200D01*
X14759700Y-9459200D02*
X14729700Y-9489200D01*
X14761244Y-7423203D02*
X14791244Y-7453203D01*
X14791244Y-7423203D02*
X14761244Y-7453203D01*
X14777000Y-7165000D02*
X14807000Y-7195000D01*
X14807000Y-7165000D02*
X14777000Y-7195000D01*
X14780500Y-10005300D02*
X14810500Y-10035300D01*
X14810500Y-10005300D02*
X14780500Y-10035300D01*
X14780500Y-10106900D02*
X14810500Y-10136900D01*
X14810500Y-10106900D02*
X14780500Y-10136900D01*
X14780500Y-10208500D02*
X14810500Y-10238500D01*
X14810500Y-10208500D02*
X14780500Y-10238500D01*
X14780500Y-10310100D02*
X14810500Y-10340100D01*
X14810500Y-10310100D02*
X14780500Y-10340100D01*
X14780500Y-10437100D02*
X14810500Y-10467100D01*
X14810500Y-10437100D02*
X14780500Y-10467100D01*
X14780500Y-10551400D02*
X14810500Y-10581400D01*
X14810500Y-10551400D02*
X14780500Y-10581400D01*
X14805900Y-9383000D02*
X14835900Y-9413000D01*
X14835900Y-9383000D02*
X14805900Y-9413000D01*
X14805900Y-9459200D02*
X14835900Y-9489200D01*
X14835900Y-9459200D02*
X14805900Y-9489200D01*
X14882100Y-9383000D02*
X14912100Y-9413000D01*
X14912100Y-9383000D02*
X14882100Y-9413000D01*
X14882100Y-9459200D02*
X14912100Y-9489200D01*
X14912100Y-9459200D02*
X14882100Y-9489200D01*
X14901884Y-7936884D02*
X14931884Y-7966884D01*
X14931884Y-7936884D02*
X14901884Y-7966884D01*
X14907500Y-7236700D02*
X14937500Y-7266700D01*
X14937500Y-7236700D02*
X14907500Y-7266700D01*
X14907500Y-10005300D02*
X14937500Y-10035300D01*
X14937500Y-10005300D02*
X14907500Y-10035300D01*
X14907500Y-10106900D02*
X14937500Y-10136900D01*
X14937500Y-10106900D02*
X14907500Y-10136900D01*
X14907500Y-10208500D02*
X14937500Y-10238500D01*
X14937500Y-10208500D02*
X14907500Y-10238500D01*
X14907500Y-10310100D02*
X14937500Y-10340100D01*
X14937500Y-10310100D02*
X14907500Y-10340100D01*
X14935000Y-8553000D02*
X14965000Y-8583000D01*
X14965000Y-8553000D02*
X14935000Y-8583000D01*
X14938241Y-7668746D02*
X14968241Y-7698746D01*
X14968241Y-7668746D02*
X14938241Y-7698746D01*
X14946650Y-7997650D02*
X14976650Y-8027650D01*
X14976650Y-7997650D02*
X14946650Y-8027650D01*
X14953000Y-7166000D02*
X14983000Y-7196000D01*
X14983000Y-7166000D02*
X14953000Y-7196000D01*
X14996400Y-8913100D02*
X15026400Y-8943100D01*
X15026400Y-8913100D02*
X14996400Y-8943100D01*
X15032000Y-8189000D02*
X15062000Y-8219000D01*
X15062000Y-8189000D02*
X15032000Y-8219000D01*
X15092000Y-8602000D02*
X15122000Y-8632000D01*
X15122000Y-8602000D02*
X15092000Y-8632000D01*
X15110700Y-9967200D02*
X15140700Y-9997200D01*
X15140700Y-9967200D02*
X15110700Y-9997200D01*
X15110700Y-10060000D02*
X15140700Y-10090000D01*
X15140700Y-10060000D02*
X15110700Y-10090000D01*
X15165000Y-7556000D02*
X15195000Y-7586000D01*
X15195000Y-7556000D02*
X15165000Y-7586000D01*
X15237700Y-9827500D02*
X15267700Y-9857500D01*
X15267700Y-9827500D02*
X15237700Y-9857500D01*
X15237700Y-9967200D02*
X15267700Y-9997200D01*
X15267700Y-9967200D02*
X15237700Y-9997200D01*
X15237700Y-10060000D02*
X15267700Y-10090000D01*
X15267700Y-10060000D02*
X15237700Y-10090000D01*
X15258000Y-8811000D02*
X15288000Y-8841000D01*
X15288000Y-8811000D02*
X15258000Y-8841000D01*
X15291000Y-8697000D02*
X15321000Y-8727000D01*
X15321000Y-8697000D02*
X15291000Y-8727000D01*
X15299550Y-8261573D02*
X15329550Y-8291573D01*
X15329550Y-8261573D02*
X15299550Y-8291573D01*
X15337300Y-7338300D02*
X15367300Y-7368300D01*
X15367300Y-7338300D02*
X15337300Y-7368300D01*
X15340000Y-7561000D02*
X15370000Y-7591000D01*
X15370000Y-7561000D02*
X15340000Y-7591000D01*
X15340000Y-7836000D02*
X15370000Y-7866000D01*
X15370000Y-7836000D02*
X15340000Y-7866000D01*
X15341000Y-7452000D02*
X15371000Y-7482000D01*
X15371000Y-7452000D02*
X15341000Y-7482000D01*
X15352000Y-8544800D02*
X15382000Y-8574800D01*
X15382000Y-8544800D02*
X15352000Y-8574800D01*
X15352000Y-9713200D02*
X15382000Y-9743200D01*
X15382000Y-9713200D02*
X15352000Y-9743200D01*
X15364700Y-9827500D02*
X15394700Y-9857500D01*
X15394700Y-9827500D02*
X15364700Y-9857500D01*
X15364700Y-9967200D02*
X15394700Y-9997200D01*
X15394700Y-9967200D02*
X15364700Y-9997200D01*
X15364700Y-10060000D02*
X15394700Y-10090000D01*
X15394700Y-10060000D02*
X15364700Y-10090000D01*
X15416000Y-7071000D02*
X15446000Y-7101000D01*
X15446000Y-7071000D02*
X15416000Y-7101000D01*
X15479000Y-9052800D02*
X15509000Y-9082800D01*
X15509000Y-9052800D02*
X15479000Y-9082800D01*
X15491700Y-9713200D02*
X15521700Y-9743200D01*
X15521700Y-9713200D02*
X15491700Y-9743200D01*
X15491700Y-9827500D02*
X15521700Y-9857500D01*
X15521700Y-9827500D02*
X15491700Y-9857500D01*
X15491700Y-9967200D02*
X15521700Y-9997200D01*
X15521700Y-9967200D02*
X15491700Y-9997200D01*
X15491700Y-10060000D02*
X15521700Y-10090000D01*
X15521700Y-10060000D02*
X15491700Y-10090000D01*
X15504000Y-7863000D02*
X15534000Y-7893000D01*
X15534000Y-7863000D02*
X15504000Y-7893000D01*
X15504400Y-7959000D02*
X15534400Y-7989000D01*
X15534400Y-7959000D02*
X15504400Y-7989000D01*
X15555200Y-8468600D02*
X15585200Y-8498600D01*
X15585200Y-8468600D02*
X15555200Y-8498600D01*
X15555200Y-9052800D02*
X15585200Y-9082800D01*
X15585200Y-9052800D02*
X15555200Y-9082800D01*
X15608000Y-8677000D02*
X15638000Y-8707000D01*
X15638000Y-8677000D02*
X15608000Y-8707000D01*
X15847300Y-8263000D02*
X15877300Y-8293000D01*
X15877300Y-8263000D02*
X15847300Y-8293000D01*
X15847300Y-8354300D02*
X15877300Y-8384300D01*
X15877300Y-8354300D02*
X15847300Y-8384300D01*
X15850000Y-8163000D02*
X15880000Y-8193000D01*
X15880000Y-8163000D02*
X15850000Y-8193000D01*
X15851000Y-8063000D02*
X15881000Y-8093000D01*
X15881000Y-8063000D02*
X15851000Y-8093000D01*
X13139100Y-7696200D02*
G75*
G02*
X13099100Y-7696200I-20000J0D01*
G01*
X13099100Y-7696200D02*
G75*
G02*
X13139100Y-7696200I20000J0D01*
G01*
X12112500Y-7075000D02*
X12112500Y-7125000D01*
X12087500Y-7100000D02*
X12137500Y-7100000D01*
X12112500Y-10675000D02*
X12112500Y-10725000D01*
X12087500Y-10700000D02*
X12137500Y-10700000D01*
X12167417Y-6942417D02*
X12167417Y-6992417D01*
X12142417Y-6967417D02*
X12192417Y-6967417D01*
X12167417Y-7207582D02*
X12167417Y-7257582D01*
X12142417Y-7232582D02*
X12192417Y-7232582D01*
X12167417Y-10542418D02*
X12167417Y-10592418D01*
X12142417Y-10567418D02*
X12192417Y-10567418D01*
X12167417Y-10807583D02*
X12167417Y-10857583D01*
X12142417Y-10832583D02*
X12192417Y-10832583D01*
X12300000Y-6887500D02*
X12300000Y-6937500D01*
X12275000Y-6912500D02*
X12325000Y-6912500D01*
X12300000Y-7262500D02*
X12300000Y-7312500D01*
X12275000Y-7287500D02*
X12325000Y-7287500D01*
X12300000Y-10487500D02*
X12300000Y-10537500D01*
X12275000Y-10512500D02*
X12325000Y-10512500D01*
X12300000Y-10862500D02*
X12300000Y-10912500D01*
X12275000Y-10887500D02*
X12325000Y-10887500D01*
X12432582Y-6942417D02*
X12432582Y-6992417D01*
X12407582Y-6967417D02*
X12457582Y-6967417D01*
X12432582Y-7207582D02*
X12432582Y-7257582D01*
X12407582Y-7232582D02*
X12457582Y-7232582D01*
X12432582Y-10542418D02*
X12432582Y-10592418D01*
X12407582Y-10567418D02*
X12457582Y-10567418D01*
X12432582Y-10807583D02*
X12432582Y-10857583D01*
X12407582Y-10832583D02*
X12457582Y-10832583D01*
X12487500Y-7075000D02*
X12487500Y-7125000D01*
X12462500Y-7100000D02*
X12512500Y-7100000D01*
X12487500Y-10675000D02*
X12487500Y-10725000D01*
X12462500Y-10700000D02*
X12512500Y-10700000D01*
X15712500Y-7075000D02*
X15712500Y-7125000D01*
X15687500Y-7100000D02*
X15737500Y-7100000D01*
X15712500Y-10675000D02*
X15712500Y-10725000D01*
X15687500Y-10700000D02*
X15737500Y-10700000D01*
X15767417Y-6942417D02*
X15767417Y-6992417D01*
X15742417Y-6967417D02*
X15792417Y-6967417D01*
X15767417Y-7207582D02*
X15767417Y-7257582D01*
X15742417Y-7232582D02*
X15792417Y-7232582D01*
X15767417Y-10542418D02*
X15767417Y-10592418D01*
X15742417Y-10567418D02*
X15792417Y-10567418D01*
X15767417Y-10807583D02*
X15767417Y-10857583D01*
X15742417Y-10832583D02*
X15792417Y-10832583D01*
X15900000Y-6887500D02*
X15900000Y-6937500D01*
X15875000Y-6912500D02*
X15925000Y-6912500D01*
X15900000Y-7262500D02*
X15900000Y-7312500D01*
X15875000Y-7287500D02*
X15925000Y-7287500D01*
X15900000Y-10487500D02*
X15900000Y-10537500D01*
X15875000Y-10512500D02*
X15925000Y-10512500D01*
X15900000Y-10862500D02*
X15900000Y-10912500D01*
X15875000Y-10887500D02*
X15925000Y-10887500D01*
X16032582Y-6942417D02*
X16032582Y-6992417D01*
X16007582Y-6967417D02*
X16057582Y-6967417D01*
X16032582Y-7207582D02*
X16032582Y-7257582D01*
X16007582Y-7232582D02*
X16057582Y-7232582D01*
X16032582Y-10542418D02*
X16032582Y-10592418D01*
X16007582Y-10567418D02*
X16057582Y-10567418D01*
X16032582Y-10807583D02*
X16032582Y-10857583D01*
X16007582Y-10832583D02*
X16057582Y-10832583D01*
X16087500Y-7075000D02*
X16087500Y-7125000D01*
X16062500Y-7100000D02*
X16112500Y-7100000D01*
X16087500Y-10675000D02*
X16087500Y-10725000D01*
X16062500Y-10700000D02*
X16112500Y-10700000D01*
X13135356Y-10835356D02*
X13135356Y-10764644D01*
X13064644Y-10764644D01*
X13064644Y-10835356D01*
X13135356Y-10835356D01*
X14135356Y-10835356D02*
X14135356Y-10764644D01*
X14064644Y-10764644D01*
X14064644Y-10835356D01*
X14135356Y-10835356D01*
X15135356Y-10835356D02*
X15135356Y-10764644D01*
X15064644Y-10764644D01*
X15064644Y-10835356D01*
X15135356Y-10835356D01*
X16035356Y-9635356D02*
X16035356Y-9564644D01*
X15964644Y-9564644D01*
X15964644Y-9635356D01*
X16035356Y-9635356D01*
X16035356Y-10235356D02*
X16035356Y-10164644D01*
X15964644Y-10164644D01*
X15964644Y-10235356D01*
X16035356Y-10235356D01*
D12*
X12300000Y-7225000D02*
X12425000Y-7100000D01*
X12300000Y-6975000D01*
X12175000Y-7100000D01*
X12300000Y-7225000D01*
X12300000Y-10825000D02*
X12425000Y-10700000D01*
X12300000Y-10575000D01*
X12175000Y-10700000D01*
X12300000Y-10825000D01*
X15900000Y-7225000D02*
X16025000Y-7100000D01*
X15900000Y-6975000D01*
X15775000Y-7100000D01*
X15900000Y-7225000D01*
X15900000Y-10825000D02*
X16025000Y-10700000D01*
X15900000Y-10575000D01*
X15775000Y-10700000D01*
X15900000Y-10825000D01*
D11*
X12255777Y-11316484D02*
X12255777Y-11116484D01*
X12255777Y-11116484D02*
X12303396Y-11116484D01*
X12303396Y-11116484D02*
X12331967Y-11126008D01*
X12331967Y-11126008D02*
X12351015Y-11145055D01*
X12351015Y-11145055D02*
X12360539Y-11164103D01*
X12360539Y-11164103D02*
X12370062Y-11202198D01*
X12370062Y-11202198D02*
X12370062Y-11230769D01*
X12370062Y-11230769D02*
X12360539Y-11268865D01*
X12360539Y-11268865D02*
X12351015Y-11287912D01*
X12351015Y-11287912D02*
X12331967Y-11306960D01*
X12331967Y-11306960D02*
X12303396Y-11316484D01*
X12303396Y-11316484D02*
X12255777Y-11316484D01*
X12455777Y-11316484D02*
X12455777Y-11183150D01*
X12455777Y-11221246D02*
X12465301Y-11202198D01*
X12465301Y-11202198D02*
X12474824Y-11192674D01*
X12474824Y-11192674D02*
X12493872Y-11183150D01*
X12493872Y-11183150D02*
X12512920Y-11183150D01*
X12579586Y-11316484D02*
X12579586Y-11183150D01*
X12579586Y-11116484D02*
X12570062Y-11126008D01*
X12570062Y-11126008D02*
X12579586Y-11135531D01*
X12579586Y-11135531D02*
X12589110Y-11126008D01*
X12589110Y-11126008D02*
X12579586Y-11116484D01*
X12579586Y-11116484D02*
X12579586Y-11135531D01*
X12703396Y-11316484D02*
X12684348Y-11306960D01*
X12684348Y-11306960D02*
X12674824Y-11287912D01*
X12674824Y-11287912D02*
X12674824Y-11116484D01*
X12808158Y-11316484D02*
X12789110Y-11306960D01*
X12789110Y-11306960D02*
X12779586Y-11287912D01*
X12779586Y-11287912D02*
X12779586Y-11116484D01*
X13036729Y-11316484D02*
X13036729Y-11116484D01*
X13036729Y-11116484D02*
X13103396Y-11259341D01*
X13103396Y-11259341D02*
X13170062Y-11116484D01*
X13170062Y-11116484D02*
X13170062Y-11316484D01*
X13351015Y-11316484D02*
X13351015Y-11211722D01*
X13351015Y-11211722D02*
X13341491Y-11192674D01*
X13341491Y-11192674D02*
X13322443Y-11183150D01*
X13322443Y-11183150D02*
X13284348Y-11183150D01*
X13284348Y-11183150D02*
X13265301Y-11192674D01*
X13351015Y-11306960D02*
X13331967Y-11316484D01*
X13331967Y-11316484D02*
X13284348Y-11316484D01*
X13284348Y-11316484D02*
X13265301Y-11306960D01*
X13265301Y-11306960D02*
X13255777Y-11287912D01*
X13255777Y-11287912D02*
X13255777Y-11268865D01*
X13255777Y-11268865D02*
X13265301Y-11249817D01*
X13265301Y-11249817D02*
X13284348Y-11240293D01*
X13284348Y-11240293D02*
X13331967Y-11240293D01*
X13331967Y-11240293D02*
X13351015Y-11230769D01*
X13446253Y-11183150D02*
X13446253Y-11383150D01*
X13446253Y-11192674D02*
X13465301Y-11183150D01*
X13465301Y-11183150D02*
X13503396Y-11183150D01*
X13503396Y-11183150D02*
X13522443Y-11192674D01*
X13522443Y-11192674D02*
X13531967Y-11202198D01*
X13531967Y-11202198D02*
X13541491Y-11221246D01*
X13541491Y-11221246D02*
X13541491Y-11278388D01*
X13541491Y-11278388D02*
X13531967Y-11297436D01*
X13531967Y-11297436D02*
X13522443Y-11306960D01*
X13522443Y-11306960D02*
X13503396Y-11316484D01*
X13503396Y-11316484D02*
X13465301Y-11316484D01*
X13465301Y-11316484D02*
X13446253Y-11306960D01*
X13627205Y-11297436D02*
X13636729Y-11306960D01*
X13636729Y-11306960D02*
X13627205Y-11316484D01*
X13627205Y-11316484D02*
X13617682Y-11306960D01*
X13617682Y-11306960D02*
X13627205Y-11297436D01*
X13627205Y-11297436D02*
X13627205Y-11316484D01*
X13627205Y-11192674D02*
X13636729Y-11202198D01*
X13636729Y-11202198D02*
X13627205Y-11211722D01*
X13627205Y-11211722D02*
X13617682Y-11202198D01*
X13617682Y-11202198D02*
X13627205Y-11192674D01*
X13627205Y-11192674D02*
X13627205Y-11211722D01*
D10*
X11965000Y-11630000D02*
X11995000Y-11660000D01*
X11995000Y-11630000D02*
X11965000Y-11660000D01*
D11*
X12293872Y-11536484D02*
X12312920Y-11536484D01*
X12312920Y-11536484D02*
X12331967Y-11546008D01*
X12331967Y-11546008D02*
X12341491Y-11555531D01*
X12341491Y-11555531D02*
X12351015Y-11574579D01*
X12351015Y-11574579D02*
X12360539Y-11612674D01*
X12360539Y-11612674D02*
X12360539Y-11660293D01*
X12360539Y-11660293D02*
X12351015Y-11698388D01*
X12351015Y-11698388D02*
X12341491Y-11717436D01*
X12341491Y-11717436D02*
X12331967Y-11726960D01*
X12331967Y-11726960D02*
X12312920Y-11736484D01*
X12312920Y-11736484D02*
X12293872Y-11736484D01*
X12293872Y-11736484D02*
X12274824Y-11726960D01*
X12274824Y-11726960D02*
X12265301Y-11717436D01*
X12265301Y-11717436D02*
X12255777Y-11698388D01*
X12255777Y-11698388D02*
X12246253Y-11660293D01*
X12246253Y-11660293D02*
X12246253Y-11612674D01*
X12246253Y-11612674D02*
X12255777Y-11574579D01*
X12255777Y-11574579D02*
X12265301Y-11555531D01*
X12265301Y-11555531D02*
X12274824Y-11546008D01*
X12274824Y-11546008D02*
X12293872Y-11536484D01*
X12446253Y-11717436D02*
X12455777Y-11726960D01*
X12455777Y-11726960D02*
X12446253Y-11736484D01*
X12446253Y-11736484D02*
X12436729Y-11726960D01*
X12436729Y-11726960D02*
X12446253Y-11717436D01*
X12446253Y-11717436D02*
X12446253Y-11736484D01*
X12522443Y-11536484D02*
X12646253Y-11536484D01*
X12646253Y-11536484D02*
X12579586Y-11612674D01*
X12579586Y-11612674D02*
X12608158Y-11612674D01*
X12608158Y-11612674D02*
X12627205Y-11622198D01*
X12627205Y-11622198D02*
X12636729Y-11631722D01*
X12636729Y-11631722D02*
X12646253Y-11650769D01*
X12646253Y-11650769D02*
X12646253Y-11698388D01*
X12646253Y-11698388D02*
X12636729Y-11717436D01*
X12636729Y-11717436D02*
X12627205Y-11726960D01*
X12627205Y-11726960D02*
X12608158Y-11736484D01*
X12608158Y-11736484D02*
X12551015Y-11736484D01*
X12551015Y-11736484D02*
X12531967Y-11726960D01*
X12531967Y-11726960D02*
X12522443Y-11717436D01*
X12770062Y-11536484D02*
X12789110Y-11536484D01*
X12789110Y-11536484D02*
X12808158Y-11546008D01*
X12808158Y-11546008D02*
X12817682Y-11555531D01*
X12817682Y-11555531D02*
X12827205Y-11574579D01*
X12827205Y-11574579D02*
X12836729Y-11612674D01*
X12836729Y-11612674D02*
X12836729Y-11660293D01*
X12836729Y-11660293D02*
X12827205Y-11698388D01*
X12827205Y-11698388D02*
X12817682Y-11717436D01*
X12817682Y-11717436D02*
X12808158Y-11726960D01*
X12808158Y-11726960D02*
X12789110Y-11736484D01*
X12789110Y-11736484D02*
X12770062Y-11736484D01*
X12770062Y-11736484D02*
X12751015Y-11726960D01*
X12751015Y-11726960D02*
X12741491Y-11717436D01*
X12741491Y-11717436D02*
X12731967Y-11698388D01*
X12731967Y-11698388D02*
X12722443Y-11660293D01*
X12722443Y-11660293D02*
X12722443Y-11612674D01*
X12722443Y-11612674D02*
X12731967Y-11574579D01*
X12731967Y-11574579D02*
X12741491Y-11555531D01*
X12741491Y-11555531D02*
X12751015Y-11546008D01*
X12751015Y-11546008D02*
X12770062Y-11536484D01*
X12960539Y-11536484D02*
X12979586Y-11536484D01*
X12979586Y-11536484D02*
X12998634Y-11546008D01*
X12998634Y-11546008D02*
X13008158Y-11555531D01*
X13008158Y-11555531D02*
X13017682Y-11574579D01*
X13017682Y-11574579D02*
X13027205Y-11612674D01*
X13027205Y-11612674D02*
X13027205Y-11660293D01*
X13027205Y-11660293D02*
X13017682Y-11698388D01*
X13017682Y-11698388D02*
X13008158Y-11717436D01*
X13008158Y-11717436D02*
X12998634Y-11726960D01*
X12998634Y-11726960D02*
X12979586Y-11736484D01*
X12979586Y-11736484D02*
X12960539Y-11736484D01*
X12960539Y-11736484D02*
X12941491Y-11726960D01*
X12941491Y-11726960D02*
X12931967Y-11717436D01*
X12931967Y-11717436D02*
X12922443Y-11698388D01*
X12922443Y-11698388D02*
X12912920Y-11660293D01*
X12912920Y-11660293D02*
X12912920Y-11612674D01*
X12912920Y-11612674D02*
X12922443Y-11574579D01*
X12922443Y-11574579D02*
X12931967Y-11555531D01*
X12931967Y-11555531D02*
X12941491Y-11546008D01*
X12941491Y-11546008D02*
X12960539Y-11536484D01*
X13112920Y-11736484D02*
X13112920Y-11603150D01*
X13112920Y-11622198D02*
X13122443Y-11612674D01*
X13122443Y-11612674D02*
X13141491Y-11603150D01*
X13141491Y-11603150D02*
X13170063Y-11603150D01*
X13170063Y-11603150D02*
X13189110Y-11612674D01*
X13189110Y-11612674D02*
X13198634Y-11631722D01*
X13198634Y-11631722D02*
X13198634Y-11736484D01*
X13198634Y-11631722D02*
X13208158Y-11612674D01*
X13208158Y-11612674D02*
X13227205Y-11603150D01*
X13227205Y-11603150D02*
X13255777Y-11603150D01*
X13255777Y-11603150D02*
X13274824Y-11612674D01*
X13274824Y-11612674D02*
X13284348Y-11631722D01*
X13284348Y-11631722D02*
X13284348Y-11736484D01*
X13379586Y-11736484D02*
X13379586Y-11603150D01*
X13379586Y-11622198D02*
X13389110Y-11612674D01*
X13389110Y-11612674D02*
X13408158Y-11603150D01*
X13408158Y-11603150D02*
X13436729Y-11603150D01*
X13436729Y-11603150D02*
X13455777Y-11612674D01*
X13455777Y-11612674D02*
X13465301Y-11631722D01*
X13465301Y-11631722D02*
X13465301Y-11736484D01*
X13465301Y-11631722D02*
X13474824Y-11612674D01*
X13474824Y-11612674D02*
X13493872Y-11603150D01*
X13493872Y-11603150D02*
X13522443Y-11603150D01*
X13522443Y-11603150D02*
X13541491Y-11612674D01*
X13541491Y-11612674D02*
X13551015Y-11631722D01*
X13551015Y-11631722D02*
X13551015Y-11736484D01*
X13941491Y-11526960D02*
X13770063Y-11784103D01*
X14198634Y-11536484D02*
X14217682Y-11536484D01*
X14217682Y-11536484D02*
X14236729Y-11546008D01*
X14236729Y-11546008D02*
X14246253Y-11555531D01*
X14246253Y-11555531D02*
X14255777Y-11574579D01*
X14255777Y-11574579D02*
X14265301Y-11612674D01*
X14265301Y-11612674D02*
X14265301Y-11660293D01*
X14265301Y-11660293D02*
X14255777Y-11698388D01*
X14255777Y-11698388D02*
X14246253Y-11717436D01*
X14246253Y-11717436D02*
X14236729Y-11726960D01*
X14236729Y-11726960D02*
X14217682Y-11736484D01*
X14217682Y-11736484D02*
X14198634Y-11736484D01*
X14198634Y-11736484D02*
X14179586Y-11726960D01*
X14179586Y-11726960D02*
X14170063Y-11717436D01*
X14170063Y-11717436D02*
X14160539Y-11698388D01*
X14160539Y-11698388D02*
X14151015Y-11660293D01*
X14151015Y-11660293D02*
X14151015Y-11612674D01*
X14151015Y-11612674D02*
X14160539Y-11574579D01*
X14160539Y-11574579D02*
X14170063Y-11555531D01*
X14170063Y-11555531D02*
X14179586Y-11546008D01*
X14179586Y-11546008D02*
X14198634Y-11536484D01*
X14351015Y-11717436D02*
X14360539Y-11726960D01*
X14360539Y-11726960D02*
X14351015Y-11736484D01*
X14351015Y-11736484D02*
X14341491Y-11726960D01*
X14341491Y-11726960D02*
X14351015Y-11717436D01*
X14351015Y-11717436D02*
X14351015Y-11736484D01*
X14484348Y-11536484D02*
X14503396Y-11536484D01*
X14503396Y-11536484D02*
X14522444Y-11546008D01*
X14522444Y-11546008D02*
X14531967Y-11555531D01*
X14531967Y-11555531D02*
X14541491Y-11574579D01*
X14541491Y-11574579D02*
X14551015Y-11612674D01*
X14551015Y-11612674D02*
X14551015Y-11660293D01*
X14551015Y-11660293D02*
X14541491Y-11698388D01*
X14541491Y-11698388D02*
X14531967Y-11717436D01*
X14531967Y-11717436D02*
X14522444Y-11726960D01*
X14522444Y-11726960D02*
X14503396Y-11736484D01*
X14503396Y-11736484D02*
X14484348Y-11736484D01*
X14484348Y-11736484D02*
X14465301Y-11726960D01*
X14465301Y-11726960D02*
X14455777Y-11717436D01*
X14455777Y-11717436D02*
X14446253Y-11698388D01*
X14446253Y-11698388D02*
X14436729Y-11660293D01*
X14436729Y-11660293D02*
X14436729Y-11612674D01*
X14436729Y-11612674D02*
X14446253Y-11574579D01*
X14446253Y-11574579D02*
X14455777Y-11555531D01*
X14455777Y-11555531D02*
X14465301Y-11546008D01*
X14465301Y-11546008D02*
X14484348Y-11536484D01*
X14741491Y-11736484D02*
X14627206Y-11736484D01*
X14684348Y-11736484D02*
X14684348Y-11536484D01*
X14684348Y-11536484D02*
X14665301Y-11565055D01*
X14665301Y-11565055D02*
X14646253Y-11584103D01*
X14646253Y-11584103D02*
X14627206Y-11593627D01*
X14931967Y-11736484D02*
X14817682Y-11736484D01*
X14874825Y-11736484D02*
X14874825Y-11536484D01*
X14874825Y-11536484D02*
X14855777Y-11565055D01*
X14855777Y-11565055D02*
X14836729Y-11584103D01*
X14836729Y-11584103D02*
X14817682Y-11593627D01*
X15046253Y-11622198D02*
X15027206Y-11612674D01*
X15027206Y-11612674D02*
X15017682Y-11603150D01*
X15017682Y-11603150D02*
X15008158Y-11584103D01*
X15008158Y-11584103D02*
X15008158Y-11574579D01*
X15008158Y-11574579D02*
X15017682Y-11555531D01*
X15017682Y-11555531D02*
X15027206Y-11546008D01*
X15027206Y-11546008D02*
X15046253Y-11536484D01*
X15046253Y-11536484D02*
X15084348Y-11536484D01*
X15084348Y-11536484D02*
X15103396Y-11546008D01*
X15103396Y-11546008D02*
X15112920Y-11555531D01*
X15112920Y-11555531D02*
X15122444Y-11574579D01*
X15122444Y-11574579D02*
X15122444Y-11584103D01*
X15122444Y-11584103D02*
X15112920Y-11603150D01*
X15112920Y-11603150D02*
X15103396Y-11612674D01*
X15103396Y-11612674D02*
X15084348Y-11622198D01*
X15084348Y-11622198D02*
X15046253Y-11622198D01*
X15046253Y-11622198D02*
X15027206Y-11631722D01*
X15027206Y-11631722D02*
X15017682Y-11641246D01*
X15017682Y-11641246D02*
X15008158Y-11660293D01*
X15008158Y-11660293D02*
X15008158Y-11698388D01*
X15008158Y-11698388D02*
X15017682Y-11717436D01*
X15017682Y-11717436D02*
X15027206Y-11726960D01*
X15027206Y-11726960D02*
X15046253Y-11736484D01*
X15046253Y-11736484D02*
X15084348Y-11736484D01*
X15084348Y-11736484D02*
X15103396Y-11726960D01*
X15103396Y-11726960D02*
X15112920Y-11717436D01*
X15112920Y-11717436D02*
X15122444Y-11698388D01*
X15122444Y-11698388D02*
X15122444Y-11660293D01*
X15122444Y-11660293D02*
X15112920Y-11641246D01*
X15112920Y-11641246D02*
X15103396Y-11631722D01*
X15103396Y-11631722D02*
X15084348Y-11622198D01*
X15198634Y-11536484D02*
X15198634Y-11574579D01*
X15274825Y-11536484D02*
X15274825Y-11574579D01*
X15570063Y-11812674D02*
X15560539Y-11803150D01*
X15560539Y-11803150D02*
X15541491Y-11774579D01*
X15541491Y-11774579D02*
X15531968Y-11755531D01*
X15531968Y-11755531D02*
X15522444Y-11726960D01*
X15522444Y-11726960D02*
X15512920Y-11679341D01*
X15512920Y-11679341D02*
X15512920Y-11641246D01*
X15512920Y-11641246D02*
X15522444Y-11593627D01*
X15522444Y-11593627D02*
X15531968Y-11565055D01*
X15531968Y-11565055D02*
X15541491Y-11546008D01*
X15541491Y-11546008D02*
X15560539Y-11517436D01*
X15560539Y-11517436D02*
X15570063Y-11507912D01*
X15636729Y-11555531D02*
X15646253Y-11546008D01*
X15646253Y-11546008D02*
X15665301Y-11536484D01*
X15665301Y-11536484D02*
X15712920Y-11536484D01*
X15712920Y-11536484D02*
X15731968Y-11546008D01*
X15731968Y-11546008D02*
X15741491Y-11555531D01*
X15741491Y-11555531D02*
X15751015Y-11574579D01*
X15751015Y-11574579D02*
X15751015Y-11593627D01*
X15751015Y-11593627D02*
X15741491Y-11622198D01*
X15741491Y-11622198D02*
X15627206Y-11736484D01*
X15627206Y-11736484D02*
X15751015Y-11736484D01*
X15846253Y-11736484D02*
X15884348Y-11736484D01*
X15884348Y-11736484D02*
X15903396Y-11726960D01*
X15903396Y-11726960D02*
X15912920Y-11717436D01*
X15912920Y-11717436D02*
X15931968Y-11688865D01*
X15931968Y-11688865D02*
X15941491Y-11650769D01*
X15941491Y-11650769D02*
X15941491Y-11574579D01*
X15941491Y-11574579D02*
X15931968Y-11555531D01*
X15931968Y-11555531D02*
X15922444Y-11546008D01*
X15922444Y-11546008D02*
X15903396Y-11536484D01*
X15903396Y-11536484D02*
X15865301Y-11536484D01*
X15865301Y-11536484D02*
X15846253Y-11546008D01*
X15846253Y-11546008D02*
X15836729Y-11555531D01*
X15836729Y-11555531D02*
X15827206Y-11574579D01*
X15827206Y-11574579D02*
X15827206Y-11622198D01*
X15827206Y-11622198D02*
X15836729Y-11641246D01*
X15836729Y-11641246D02*
X15846253Y-11650769D01*
X15846253Y-11650769D02*
X15865301Y-11660293D01*
X15865301Y-11660293D02*
X15903396Y-11660293D01*
X15903396Y-11660293D02*
X15922444Y-11650769D01*
X15922444Y-11650769D02*
X15931968Y-11641246D01*
X15931968Y-11641246D02*
X15941491Y-11622198D01*
X16131968Y-11736484D02*
X16017682Y-11736484D01*
X16074825Y-11736484D02*
X16074825Y-11536484D01*
X16074825Y-11536484D02*
X16055777Y-11565055D01*
X16055777Y-11565055D02*
X16036729Y-11584103D01*
X16036729Y-11584103D02*
X16017682Y-11593627D01*
X16370063Y-11736484D02*
X16370063Y-11536484D01*
X16455777Y-11736484D02*
X16455777Y-11631722D01*
X16455777Y-11631722D02*
X16446253Y-11612674D01*
X16446253Y-11612674D02*
X16427206Y-11603150D01*
X16427206Y-11603150D02*
X16398634Y-11603150D01*
X16398634Y-11603150D02*
X16379587Y-11612674D01*
X16379587Y-11612674D02*
X16370063Y-11622198D01*
X16579587Y-11736484D02*
X16560539Y-11726960D01*
X16560539Y-11726960D02*
X16551015Y-11717436D01*
X16551015Y-11717436D02*
X16541491Y-11698388D01*
X16541491Y-11698388D02*
X16541491Y-11641246D01*
X16541491Y-11641246D02*
X16551015Y-11622198D01*
X16551015Y-11622198D02*
X16560539Y-11612674D01*
X16560539Y-11612674D02*
X16579587Y-11603150D01*
X16579587Y-11603150D02*
X16608158Y-11603150D01*
X16608158Y-11603150D02*
X16627206Y-11612674D01*
X16627206Y-11612674D02*
X16636730Y-11622198D01*
X16636730Y-11622198D02*
X16646253Y-11641246D01*
X16646253Y-11641246D02*
X16646253Y-11698388D01*
X16646253Y-11698388D02*
X16636730Y-11717436D01*
X16636730Y-11717436D02*
X16627206Y-11726960D01*
X16627206Y-11726960D02*
X16608158Y-11736484D01*
X16608158Y-11736484D02*
X16579587Y-11736484D01*
X16760539Y-11736484D02*
X16741491Y-11726960D01*
X16741491Y-11726960D02*
X16731968Y-11707912D01*
X16731968Y-11707912D02*
X16731968Y-11536484D01*
X16912920Y-11726960D02*
X16893873Y-11736484D01*
X16893873Y-11736484D02*
X16855777Y-11736484D01*
X16855777Y-11736484D02*
X16836730Y-11726960D01*
X16836730Y-11726960D02*
X16827206Y-11707912D01*
X16827206Y-11707912D02*
X16827206Y-11631722D01*
X16827206Y-11631722D02*
X16836730Y-11612674D01*
X16836730Y-11612674D02*
X16855777Y-11603150D01*
X16855777Y-11603150D02*
X16893873Y-11603150D01*
X16893873Y-11603150D02*
X16912920Y-11612674D01*
X16912920Y-11612674D02*
X16922444Y-11631722D01*
X16922444Y-11631722D02*
X16922444Y-11650769D01*
X16922444Y-11650769D02*
X16827206Y-11669817D01*
X16998634Y-11726960D02*
X17017682Y-11736484D01*
X17017682Y-11736484D02*
X17055777Y-11736484D01*
X17055777Y-11736484D02*
X17074825Y-11726960D01*
X17074825Y-11726960D02*
X17084349Y-11707912D01*
X17084349Y-11707912D02*
X17084349Y-11698388D01*
X17084349Y-11698388D02*
X17074825Y-11679341D01*
X17074825Y-11679341D02*
X17055777Y-11669817D01*
X17055777Y-11669817D02*
X17027206Y-11669817D01*
X17027206Y-11669817D02*
X17008158Y-11660293D01*
X17008158Y-11660293D02*
X16998634Y-11641246D01*
X16998634Y-11641246D02*
X16998634Y-11631722D01*
X16998634Y-11631722D02*
X17008158Y-11612674D01*
X17008158Y-11612674D02*
X17027206Y-11603150D01*
X17027206Y-11603150D02*
X17055777Y-11603150D01*
X17055777Y-11603150D02*
X17074825Y-11612674D01*
X17151015Y-11812674D02*
X17160539Y-11803150D01*
X17160539Y-11803150D02*
X17179587Y-11774579D01*
X17179587Y-11774579D02*
X17189111Y-11755531D01*
X17189111Y-11755531D02*
X17198634Y-11726960D01*
X17198634Y-11726960D02*
X17208158Y-11679341D01*
X17208158Y-11679341D02*
X17208158Y-11641246D01*
X17208158Y-11641246D02*
X17198634Y-11593627D01*
X17198634Y-11593627D02*
X17189111Y-11565055D01*
X17189111Y-11565055D02*
X17179587Y-11546008D01*
X17179587Y-11546008D02*
X17160539Y-11517436D01*
X17160539Y-11517436D02*
X17151015Y-11507912D01*
D10*
X11995000Y-11909000D02*
G75*
G02*
X11955000Y-11909000I-20000J0D01*
G01*
X11955000Y-11909000D02*
G75*
G02*
X11995000Y-11909000I20000J0D01*
G01*
D11*
X12293872Y-11800484D02*
X12312920Y-11800484D01*
X12312920Y-11800484D02*
X12331967Y-11810008D01*
X12331967Y-11810008D02*
X12341491Y-11819531D01*
X12341491Y-11819531D02*
X12351015Y-11838579D01*
X12351015Y-11838579D02*
X12360539Y-11876674D01*
X12360539Y-11876674D02*
X12360539Y-11924293D01*
X12360539Y-11924293D02*
X12351015Y-11962388D01*
X12351015Y-11962388D02*
X12341491Y-11981436D01*
X12341491Y-11981436D02*
X12331967Y-11990960D01*
X12331967Y-11990960D02*
X12312920Y-12000484D01*
X12312920Y-12000484D02*
X12293872Y-12000484D01*
X12293872Y-12000484D02*
X12274824Y-11990960D01*
X12274824Y-11990960D02*
X12265301Y-11981436D01*
X12265301Y-11981436D02*
X12255777Y-11962388D01*
X12255777Y-11962388D02*
X12246253Y-11924293D01*
X12246253Y-11924293D02*
X12246253Y-11876674D01*
X12246253Y-11876674D02*
X12255777Y-11838579D01*
X12255777Y-11838579D02*
X12265301Y-11819531D01*
X12265301Y-11819531D02*
X12274824Y-11810008D01*
X12274824Y-11810008D02*
X12293872Y-11800484D01*
X12446253Y-11981436D02*
X12455777Y-11990960D01*
X12455777Y-11990960D02*
X12446253Y-12000484D01*
X12446253Y-12000484D02*
X12436729Y-11990960D01*
X12436729Y-11990960D02*
X12446253Y-11981436D01*
X12446253Y-11981436D02*
X12446253Y-12000484D01*
X12627205Y-11867150D02*
X12627205Y-12000484D01*
X12579586Y-11790960D02*
X12531967Y-11933817D01*
X12531967Y-11933817D02*
X12655777Y-11933817D01*
X12770062Y-11800484D02*
X12789110Y-11800484D01*
X12789110Y-11800484D02*
X12808158Y-11810008D01*
X12808158Y-11810008D02*
X12817682Y-11819531D01*
X12817682Y-11819531D02*
X12827205Y-11838579D01*
X12827205Y-11838579D02*
X12836729Y-11876674D01*
X12836729Y-11876674D02*
X12836729Y-11924293D01*
X12836729Y-11924293D02*
X12827205Y-11962388D01*
X12827205Y-11962388D02*
X12817682Y-11981436D01*
X12817682Y-11981436D02*
X12808158Y-11990960D01*
X12808158Y-11990960D02*
X12789110Y-12000484D01*
X12789110Y-12000484D02*
X12770062Y-12000484D01*
X12770062Y-12000484D02*
X12751015Y-11990960D01*
X12751015Y-11990960D02*
X12741491Y-11981436D01*
X12741491Y-11981436D02*
X12731967Y-11962388D01*
X12731967Y-11962388D02*
X12722443Y-11924293D01*
X12722443Y-11924293D02*
X12722443Y-11876674D01*
X12722443Y-11876674D02*
X12731967Y-11838579D01*
X12731967Y-11838579D02*
X12741491Y-11819531D01*
X12741491Y-11819531D02*
X12751015Y-11810008D01*
X12751015Y-11810008D02*
X12770062Y-11800484D01*
X12960539Y-11800484D02*
X12979586Y-11800484D01*
X12979586Y-11800484D02*
X12998634Y-11810008D01*
X12998634Y-11810008D02*
X13008158Y-11819531D01*
X13008158Y-11819531D02*
X13017682Y-11838579D01*
X13017682Y-11838579D02*
X13027205Y-11876674D01*
X13027205Y-11876674D02*
X13027205Y-11924293D01*
X13027205Y-11924293D02*
X13017682Y-11962388D01*
X13017682Y-11962388D02*
X13008158Y-11981436D01*
X13008158Y-11981436D02*
X12998634Y-11990960D01*
X12998634Y-11990960D02*
X12979586Y-12000484D01*
X12979586Y-12000484D02*
X12960539Y-12000484D01*
X12960539Y-12000484D02*
X12941491Y-11990960D01*
X12941491Y-11990960D02*
X12931967Y-11981436D01*
X12931967Y-11981436D02*
X12922443Y-11962388D01*
X12922443Y-11962388D02*
X12912920Y-11924293D01*
X12912920Y-11924293D02*
X12912920Y-11876674D01*
X12912920Y-11876674D02*
X12922443Y-11838579D01*
X12922443Y-11838579D02*
X12931967Y-11819531D01*
X12931967Y-11819531D02*
X12941491Y-11810008D01*
X12941491Y-11810008D02*
X12960539Y-11800484D01*
X13112920Y-12000484D02*
X13112920Y-11867150D01*
X13112920Y-11886198D02*
X13122443Y-11876674D01*
X13122443Y-11876674D02*
X13141491Y-11867150D01*
X13141491Y-11867150D02*
X13170063Y-11867150D01*
X13170063Y-11867150D02*
X13189110Y-11876674D01*
X13189110Y-11876674D02*
X13198634Y-11895722D01*
X13198634Y-11895722D02*
X13198634Y-12000484D01*
X13198634Y-11895722D02*
X13208158Y-11876674D01*
X13208158Y-11876674D02*
X13227205Y-11867150D01*
X13227205Y-11867150D02*
X13255777Y-11867150D01*
X13255777Y-11867150D02*
X13274824Y-11876674D01*
X13274824Y-11876674D02*
X13284348Y-11895722D01*
X13284348Y-11895722D02*
X13284348Y-12000484D01*
X13379586Y-12000484D02*
X13379586Y-11867150D01*
X13379586Y-11886198D02*
X13389110Y-11876674D01*
X13389110Y-11876674D02*
X13408158Y-11867150D01*
X13408158Y-11867150D02*
X13436729Y-11867150D01*
X13436729Y-11867150D02*
X13455777Y-11876674D01*
X13455777Y-11876674D02*
X13465301Y-11895722D01*
X13465301Y-11895722D02*
X13465301Y-12000484D01*
X13465301Y-11895722D02*
X13474824Y-11876674D01*
X13474824Y-11876674D02*
X13493872Y-11867150D01*
X13493872Y-11867150D02*
X13522443Y-11867150D01*
X13522443Y-11867150D02*
X13541491Y-11876674D01*
X13541491Y-11876674D02*
X13551015Y-11895722D01*
X13551015Y-11895722D02*
X13551015Y-12000484D01*
X13941491Y-11790960D02*
X13770063Y-12048103D01*
X14198634Y-11800484D02*
X14217682Y-11800484D01*
X14217682Y-11800484D02*
X14236729Y-11810008D01*
X14236729Y-11810008D02*
X14246253Y-11819531D01*
X14246253Y-11819531D02*
X14255777Y-11838579D01*
X14255777Y-11838579D02*
X14265301Y-11876674D01*
X14265301Y-11876674D02*
X14265301Y-11924293D01*
X14265301Y-11924293D02*
X14255777Y-11962388D01*
X14255777Y-11962388D02*
X14246253Y-11981436D01*
X14246253Y-11981436D02*
X14236729Y-11990960D01*
X14236729Y-11990960D02*
X14217682Y-12000484D01*
X14217682Y-12000484D02*
X14198634Y-12000484D01*
X14198634Y-12000484D02*
X14179586Y-11990960D01*
X14179586Y-11990960D02*
X14170063Y-11981436D01*
X14170063Y-11981436D02*
X14160539Y-11962388D01*
X14160539Y-11962388D02*
X14151015Y-11924293D01*
X14151015Y-11924293D02*
X14151015Y-11876674D01*
X14151015Y-11876674D02*
X14160539Y-11838579D01*
X14160539Y-11838579D02*
X14170063Y-11819531D01*
X14170063Y-11819531D02*
X14179586Y-11810008D01*
X14179586Y-11810008D02*
X14198634Y-11800484D01*
X14351015Y-11981436D02*
X14360539Y-11990960D01*
X14360539Y-11990960D02*
X14351015Y-12000484D01*
X14351015Y-12000484D02*
X14341491Y-11990960D01*
X14341491Y-11990960D02*
X14351015Y-11981436D01*
X14351015Y-11981436D02*
X14351015Y-12000484D01*
X14484348Y-11800484D02*
X14503396Y-11800484D01*
X14503396Y-11800484D02*
X14522444Y-11810008D01*
X14522444Y-11810008D02*
X14531967Y-11819531D01*
X14531967Y-11819531D02*
X14541491Y-11838579D01*
X14541491Y-11838579D02*
X14551015Y-11876674D01*
X14551015Y-11876674D02*
X14551015Y-11924293D01*
X14551015Y-11924293D02*
X14541491Y-11962388D01*
X14541491Y-11962388D02*
X14531967Y-11981436D01*
X14531967Y-11981436D02*
X14522444Y-11990960D01*
X14522444Y-11990960D02*
X14503396Y-12000484D01*
X14503396Y-12000484D02*
X14484348Y-12000484D01*
X14484348Y-12000484D02*
X14465301Y-11990960D01*
X14465301Y-11990960D02*
X14455777Y-11981436D01*
X14455777Y-11981436D02*
X14446253Y-11962388D01*
X14446253Y-11962388D02*
X14436729Y-11924293D01*
X14436729Y-11924293D02*
X14436729Y-11876674D01*
X14436729Y-11876674D02*
X14446253Y-11838579D01*
X14446253Y-11838579D02*
X14455777Y-11819531D01*
X14455777Y-11819531D02*
X14465301Y-11810008D01*
X14465301Y-11810008D02*
X14484348Y-11800484D01*
X14741491Y-12000484D02*
X14627206Y-12000484D01*
X14684348Y-12000484D02*
X14684348Y-11800484D01*
X14684348Y-11800484D02*
X14665301Y-11829055D01*
X14665301Y-11829055D02*
X14646253Y-11848103D01*
X14646253Y-11848103D02*
X14627206Y-11857627D01*
X14922444Y-11800484D02*
X14827206Y-11800484D01*
X14827206Y-11800484D02*
X14817682Y-11895722D01*
X14817682Y-11895722D02*
X14827206Y-11886198D01*
X14827206Y-11886198D02*
X14846253Y-11876674D01*
X14846253Y-11876674D02*
X14893872Y-11876674D01*
X14893872Y-11876674D02*
X14912920Y-11886198D01*
X14912920Y-11886198D02*
X14922444Y-11895722D01*
X14922444Y-11895722D02*
X14931967Y-11914769D01*
X14931967Y-11914769D02*
X14931967Y-11962388D01*
X14931967Y-11962388D02*
X14922444Y-11981436D01*
X14922444Y-11981436D02*
X14912920Y-11990960D01*
X14912920Y-11990960D02*
X14893872Y-12000484D01*
X14893872Y-12000484D02*
X14846253Y-12000484D01*
X14846253Y-12000484D02*
X14827206Y-11990960D01*
X14827206Y-11990960D02*
X14817682Y-11981436D01*
X14998634Y-11800484D02*
X15131967Y-11800484D01*
X15131967Y-11800484D02*
X15046253Y-12000484D01*
X15198634Y-11800484D02*
X15198634Y-11838579D01*
X15274825Y-11800484D02*
X15274825Y-11838579D01*
X15570063Y-12076674D02*
X15560539Y-12067150D01*
X15560539Y-12067150D02*
X15541491Y-12038579D01*
X15541491Y-12038579D02*
X15531968Y-12019531D01*
X15531968Y-12019531D02*
X15522444Y-11990960D01*
X15522444Y-11990960D02*
X15512920Y-11943341D01*
X15512920Y-11943341D02*
X15512920Y-11905246D01*
X15512920Y-11905246D02*
X15522444Y-11857627D01*
X15522444Y-11857627D02*
X15531968Y-11829055D01*
X15531968Y-11829055D02*
X15541491Y-11810008D01*
X15541491Y-11810008D02*
X15560539Y-11781436D01*
X15560539Y-11781436D02*
X15570063Y-11771912D01*
X15751015Y-12000484D02*
X15636729Y-12000484D01*
X15693872Y-12000484D02*
X15693872Y-11800484D01*
X15693872Y-11800484D02*
X15674825Y-11829055D01*
X15674825Y-11829055D02*
X15655777Y-11848103D01*
X15655777Y-11848103D02*
X15636729Y-11857627D01*
X15989110Y-12000484D02*
X15989110Y-11800484D01*
X16074825Y-12000484D02*
X16074825Y-11895722D01*
X16074825Y-11895722D02*
X16065301Y-11876674D01*
X16065301Y-11876674D02*
X16046253Y-11867150D01*
X16046253Y-11867150D02*
X16017682Y-11867150D01*
X16017682Y-11867150D02*
X15998634Y-11876674D01*
X15998634Y-11876674D02*
X15989110Y-11886198D01*
X16198634Y-12000484D02*
X16179587Y-11990960D01*
X16179587Y-11990960D02*
X16170063Y-11981436D01*
X16170063Y-11981436D02*
X16160539Y-11962388D01*
X16160539Y-11962388D02*
X16160539Y-11905246D01*
X16160539Y-11905246D02*
X16170063Y-11886198D01*
X16170063Y-11886198D02*
X16179587Y-11876674D01*
X16179587Y-11876674D02*
X16198634Y-11867150D01*
X16198634Y-11867150D02*
X16227206Y-11867150D01*
X16227206Y-11867150D02*
X16246253Y-11876674D01*
X16246253Y-11876674D02*
X16255777Y-11886198D01*
X16255777Y-11886198D02*
X16265301Y-11905246D01*
X16265301Y-11905246D02*
X16265301Y-11962388D01*
X16265301Y-11962388D02*
X16255777Y-11981436D01*
X16255777Y-11981436D02*
X16246253Y-11990960D01*
X16246253Y-11990960D02*
X16227206Y-12000484D01*
X16227206Y-12000484D02*
X16198634Y-12000484D01*
X16379587Y-12000484D02*
X16360539Y-11990960D01*
X16360539Y-11990960D02*
X16351015Y-11971912D01*
X16351015Y-11971912D02*
X16351015Y-11800484D01*
X16531968Y-11990960D02*
X16512920Y-12000484D01*
X16512920Y-12000484D02*
X16474825Y-12000484D01*
X16474825Y-12000484D02*
X16455777Y-11990960D01*
X16455777Y-11990960D02*
X16446253Y-11971912D01*
X16446253Y-11971912D02*
X16446253Y-11895722D01*
X16446253Y-11895722D02*
X16455777Y-11876674D01*
X16455777Y-11876674D02*
X16474825Y-11867150D01*
X16474825Y-11867150D02*
X16512920Y-11867150D01*
X16512920Y-11867150D02*
X16531968Y-11876674D01*
X16531968Y-11876674D02*
X16541491Y-11895722D01*
X16541491Y-11895722D02*
X16541491Y-11914769D01*
X16541491Y-11914769D02*
X16446253Y-11933817D01*
X16608158Y-12076674D02*
X16617682Y-12067150D01*
X16617682Y-12067150D02*
X16636730Y-12038579D01*
X16636730Y-12038579D02*
X16646253Y-12019531D01*
X16646253Y-12019531D02*
X16655777Y-11990960D01*
X16655777Y-11990960D02*
X16665301Y-11943341D01*
X16665301Y-11943341D02*
X16665301Y-11905246D01*
X16665301Y-11905246D02*
X16655777Y-11857627D01*
X16655777Y-11857627D02*
X16646253Y-11829055D01*
X16646253Y-11829055D02*
X16636730Y-11810008D01*
X16636730Y-11810008D02*
X16617682Y-11781436D01*
X16617682Y-11781436D02*
X16608158Y-11771912D01*
D10*
X11970000Y-12148000D02*
X11970000Y-12198000D01*
X11945000Y-12173000D02*
X11995000Y-12173000D01*
D11*
X12293872Y-12064484D02*
X12312920Y-12064484D01*
X12312920Y-12064484D02*
X12331967Y-12074008D01*
X12331967Y-12074008D02*
X12341491Y-12083531D01*
X12341491Y-12083531D02*
X12351015Y-12102579D01*
X12351015Y-12102579D02*
X12360539Y-12140674D01*
X12360539Y-12140674D02*
X12360539Y-12188293D01*
X12360539Y-12188293D02*
X12351015Y-12226388D01*
X12351015Y-12226388D02*
X12341491Y-12245436D01*
X12341491Y-12245436D02*
X12331967Y-12254960D01*
X12331967Y-12254960D02*
X12312920Y-12264484D01*
X12312920Y-12264484D02*
X12293872Y-12264484D01*
X12293872Y-12264484D02*
X12274824Y-12254960D01*
X12274824Y-12254960D02*
X12265301Y-12245436D01*
X12265301Y-12245436D02*
X12255777Y-12226388D01*
X12255777Y-12226388D02*
X12246253Y-12188293D01*
X12246253Y-12188293D02*
X12246253Y-12140674D01*
X12246253Y-12140674D02*
X12255777Y-12102579D01*
X12255777Y-12102579D02*
X12265301Y-12083531D01*
X12265301Y-12083531D02*
X12274824Y-12074008D01*
X12274824Y-12074008D02*
X12293872Y-12064484D01*
X12446253Y-12245436D02*
X12455777Y-12254960D01*
X12455777Y-12254960D02*
X12446253Y-12264484D01*
X12446253Y-12264484D02*
X12436729Y-12254960D01*
X12436729Y-12254960D02*
X12446253Y-12245436D01*
X12446253Y-12245436D02*
X12446253Y-12264484D01*
X12636729Y-12064484D02*
X12541491Y-12064484D01*
X12541491Y-12064484D02*
X12531967Y-12159722D01*
X12531967Y-12159722D02*
X12541491Y-12150198D01*
X12541491Y-12150198D02*
X12560539Y-12140674D01*
X12560539Y-12140674D02*
X12608158Y-12140674D01*
X12608158Y-12140674D02*
X12627205Y-12150198D01*
X12627205Y-12150198D02*
X12636729Y-12159722D01*
X12636729Y-12159722D02*
X12646253Y-12178769D01*
X12646253Y-12178769D02*
X12646253Y-12226388D01*
X12646253Y-12226388D02*
X12636729Y-12245436D01*
X12636729Y-12245436D02*
X12627205Y-12254960D01*
X12627205Y-12254960D02*
X12608158Y-12264484D01*
X12608158Y-12264484D02*
X12560539Y-12264484D01*
X12560539Y-12264484D02*
X12541491Y-12254960D01*
X12541491Y-12254960D02*
X12531967Y-12245436D01*
X12770062Y-12064484D02*
X12789110Y-12064484D01*
X12789110Y-12064484D02*
X12808158Y-12074008D01*
X12808158Y-12074008D02*
X12817682Y-12083531D01*
X12817682Y-12083531D02*
X12827205Y-12102579D01*
X12827205Y-12102579D02*
X12836729Y-12140674D01*
X12836729Y-12140674D02*
X12836729Y-12188293D01*
X12836729Y-12188293D02*
X12827205Y-12226388D01*
X12827205Y-12226388D02*
X12817682Y-12245436D01*
X12817682Y-12245436D02*
X12808158Y-12254960D01*
X12808158Y-12254960D02*
X12789110Y-12264484D01*
X12789110Y-12264484D02*
X12770062Y-12264484D01*
X12770062Y-12264484D02*
X12751015Y-12254960D01*
X12751015Y-12254960D02*
X12741491Y-12245436D01*
X12741491Y-12245436D02*
X12731967Y-12226388D01*
X12731967Y-12226388D02*
X12722443Y-12188293D01*
X12722443Y-12188293D02*
X12722443Y-12140674D01*
X12722443Y-12140674D02*
X12731967Y-12102579D01*
X12731967Y-12102579D02*
X12741491Y-12083531D01*
X12741491Y-12083531D02*
X12751015Y-12074008D01*
X12751015Y-12074008D02*
X12770062Y-12064484D01*
X12960539Y-12064484D02*
X12979586Y-12064484D01*
X12979586Y-12064484D02*
X12998634Y-12074008D01*
X12998634Y-12074008D02*
X13008158Y-12083531D01*
X13008158Y-12083531D02*
X13017682Y-12102579D01*
X13017682Y-12102579D02*
X13027205Y-12140674D01*
X13027205Y-12140674D02*
X13027205Y-12188293D01*
X13027205Y-12188293D02*
X13017682Y-12226388D01*
X13017682Y-12226388D02*
X13008158Y-12245436D01*
X13008158Y-12245436D02*
X12998634Y-12254960D01*
X12998634Y-12254960D02*
X12979586Y-12264484D01*
X12979586Y-12264484D02*
X12960539Y-12264484D01*
X12960539Y-12264484D02*
X12941491Y-12254960D01*
X12941491Y-12254960D02*
X12931967Y-12245436D01*
X12931967Y-12245436D02*
X12922443Y-12226388D01*
X12922443Y-12226388D02*
X12912920Y-12188293D01*
X12912920Y-12188293D02*
X12912920Y-12140674D01*
X12912920Y-12140674D02*
X12922443Y-12102579D01*
X12922443Y-12102579D02*
X12931967Y-12083531D01*
X12931967Y-12083531D02*
X12941491Y-12074008D01*
X12941491Y-12074008D02*
X12960539Y-12064484D01*
X13112920Y-12264484D02*
X13112920Y-12131150D01*
X13112920Y-12150198D02*
X13122443Y-12140674D01*
X13122443Y-12140674D02*
X13141491Y-12131150D01*
X13141491Y-12131150D02*
X13170063Y-12131150D01*
X13170063Y-12131150D02*
X13189110Y-12140674D01*
X13189110Y-12140674D02*
X13198634Y-12159722D01*
X13198634Y-12159722D02*
X13198634Y-12264484D01*
X13198634Y-12159722D02*
X13208158Y-12140674D01*
X13208158Y-12140674D02*
X13227205Y-12131150D01*
X13227205Y-12131150D02*
X13255777Y-12131150D01*
X13255777Y-12131150D02*
X13274824Y-12140674D01*
X13274824Y-12140674D02*
X13284348Y-12159722D01*
X13284348Y-12159722D02*
X13284348Y-12264484D01*
X13379586Y-12264484D02*
X13379586Y-12131150D01*
X13379586Y-12150198D02*
X13389110Y-12140674D01*
X13389110Y-12140674D02*
X13408158Y-12131150D01*
X13408158Y-12131150D02*
X13436729Y-12131150D01*
X13436729Y-12131150D02*
X13455777Y-12140674D01*
X13455777Y-12140674D02*
X13465301Y-12159722D01*
X13465301Y-12159722D02*
X13465301Y-12264484D01*
X13465301Y-12159722D02*
X13474824Y-12140674D01*
X13474824Y-12140674D02*
X13493872Y-12131150D01*
X13493872Y-12131150D02*
X13522443Y-12131150D01*
X13522443Y-12131150D02*
X13541491Y-12140674D01*
X13541491Y-12140674D02*
X13551015Y-12159722D01*
X13551015Y-12159722D02*
X13551015Y-12264484D01*
X13941491Y-12054960D02*
X13770063Y-12312103D01*
X14198634Y-12064484D02*
X14217682Y-12064484D01*
X14217682Y-12064484D02*
X14236729Y-12074008D01*
X14236729Y-12074008D02*
X14246253Y-12083531D01*
X14246253Y-12083531D02*
X14255777Y-12102579D01*
X14255777Y-12102579D02*
X14265301Y-12140674D01*
X14265301Y-12140674D02*
X14265301Y-12188293D01*
X14265301Y-12188293D02*
X14255777Y-12226388D01*
X14255777Y-12226388D02*
X14246253Y-12245436D01*
X14246253Y-12245436D02*
X14236729Y-12254960D01*
X14236729Y-12254960D02*
X14217682Y-12264484D01*
X14217682Y-12264484D02*
X14198634Y-12264484D01*
X14198634Y-12264484D02*
X14179586Y-12254960D01*
X14179586Y-12254960D02*
X14170063Y-12245436D01*
X14170063Y-12245436D02*
X14160539Y-12226388D01*
X14160539Y-12226388D02*
X14151015Y-12188293D01*
X14151015Y-12188293D02*
X14151015Y-12140674D01*
X14151015Y-12140674D02*
X14160539Y-12102579D01*
X14160539Y-12102579D02*
X14170063Y-12083531D01*
X14170063Y-12083531D02*
X14179586Y-12074008D01*
X14179586Y-12074008D02*
X14198634Y-12064484D01*
X14351015Y-12245436D02*
X14360539Y-12254960D01*
X14360539Y-12254960D02*
X14351015Y-12264484D01*
X14351015Y-12264484D02*
X14341491Y-12254960D01*
X14341491Y-12254960D02*
X14351015Y-12245436D01*
X14351015Y-12245436D02*
X14351015Y-12264484D01*
X14484348Y-12064484D02*
X14503396Y-12064484D01*
X14503396Y-12064484D02*
X14522444Y-12074008D01*
X14522444Y-12074008D02*
X14531967Y-12083531D01*
X14531967Y-12083531D02*
X14541491Y-12102579D01*
X14541491Y-12102579D02*
X14551015Y-12140674D01*
X14551015Y-12140674D02*
X14551015Y-12188293D01*
X14551015Y-12188293D02*
X14541491Y-12226388D01*
X14541491Y-12226388D02*
X14531967Y-12245436D01*
X14531967Y-12245436D02*
X14522444Y-12254960D01*
X14522444Y-12254960D02*
X14503396Y-12264484D01*
X14503396Y-12264484D02*
X14484348Y-12264484D01*
X14484348Y-12264484D02*
X14465301Y-12254960D01*
X14465301Y-12254960D02*
X14455777Y-12245436D01*
X14455777Y-12245436D02*
X14446253Y-12226388D01*
X14446253Y-12226388D02*
X14436729Y-12188293D01*
X14436729Y-12188293D02*
X14436729Y-12140674D01*
X14436729Y-12140674D02*
X14446253Y-12102579D01*
X14446253Y-12102579D02*
X14455777Y-12083531D01*
X14455777Y-12083531D02*
X14465301Y-12074008D01*
X14465301Y-12074008D02*
X14484348Y-12064484D01*
X14741491Y-12264484D02*
X14627206Y-12264484D01*
X14684348Y-12264484D02*
X14684348Y-12064484D01*
X14684348Y-12064484D02*
X14665301Y-12093055D01*
X14665301Y-12093055D02*
X14646253Y-12112103D01*
X14646253Y-12112103D02*
X14627206Y-12121627D01*
X14836729Y-12264484D02*
X14874825Y-12264484D01*
X14874825Y-12264484D02*
X14893872Y-12254960D01*
X14893872Y-12254960D02*
X14903396Y-12245436D01*
X14903396Y-12245436D02*
X14922444Y-12216865D01*
X14922444Y-12216865D02*
X14931967Y-12178769D01*
X14931967Y-12178769D02*
X14931967Y-12102579D01*
X14931967Y-12102579D02*
X14922444Y-12083531D01*
X14922444Y-12083531D02*
X14912920Y-12074008D01*
X14912920Y-12074008D02*
X14893872Y-12064484D01*
X14893872Y-12064484D02*
X14855777Y-12064484D01*
X14855777Y-12064484D02*
X14836729Y-12074008D01*
X14836729Y-12074008D02*
X14827206Y-12083531D01*
X14827206Y-12083531D02*
X14817682Y-12102579D01*
X14817682Y-12102579D02*
X14817682Y-12150198D01*
X14817682Y-12150198D02*
X14827206Y-12169246D01*
X14827206Y-12169246D02*
X14836729Y-12178769D01*
X14836729Y-12178769D02*
X14855777Y-12188293D01*
X14855777Y-12188293D02*
X14893872Y-12188293D01*
X14893872Y-12188293D02*
X14912920Y-12178769D01*
X14912920Y-12178769D02*
X14922444Y-12169246D01*
X14922444Y-12169246D02*
X14931967Y-12150198D01*
X14998634Y-12064484D02*
X15131967Y-12064484D01*
X15131967Y-12064484D02*
X15046253Y-12264484D01*
X15198634Y-12064484D02*
X15198634Y-12102579D01*
X15274825Y-12064484D02*
X15274825Y-12102579D01*
X15570063Y-12340674D02*
X15560539Y-12331150D01*
X15560539Y-12331150D02*
X15541491Y-12302579D01*
X15541491Y-12302579D02*
X15531968Y-12283531D01*
X15531968Y-12283531D02*
X15522444Y-12254960D01*
X15522444Y-12254960D02*
X15512920Y-12207341D01*
X15512920Y-12207341D02*
X15512920Y-12169246D01*
X15512920Y-12169246D02*
X15522444Y-12121627D01*
X15522444Y-12121627D02*
X15531968Y-12093055D01*
X15531968Y-12093055D02*
X15541491Y-12074008D01*
X15541491Y-12074008D02*
X15560539Y-12045436D01*
X15560539Y-12045436D02*
X15570063Y-12035912D01*
X15627206Y-12064484D02*
X15751015Y-12064484D01*
X15751015Y-12064484D02*
X15684348Y-12140674D01*
X15684348Y-12140674D02*
X15712920Y-12140674D01*
X15712920Y-12140674D02*
X15731968Y-12150198D01*
X15731968Y-12150198D02*
X15741491Y-12159722D01*
X15741491Y-12159722D02*
X15751015Y-12178769D01*
X15751015Y-12178769D02*
X15751015Y-12226388D01*
X15751015Y-12226388D02*
X15741491Y-12245436D01*
X15741491Y-12245436D02*
X15731968Y-12254960D01*
X15731968Y-12254960D02*
X15712920Y-12264484D01*
X15712920Y-12264484D02*
X15655777Y-12264484D01*
X15655777Y-12264484D02*
X15636729Y-12254960D01*
X15636729Y-12254960D02*
X15627206Y-12245436D01*
X15827206Y-12083531D02*
X15836729Y-12074008D01*
X15836729Y-12074008D02*
X15855777Y-12064484D01*
X15855777Y-12064484D02*
X15903396Y-12064484D01*
X15903396Y-12064484D02*
X15922444Y-12074008D01*
X15922444Y-12074008D02*
X15931968Y-12083531D01*
X15931968Y-12083531D02*
X15941491Y-12102579D01*
X15941491Y-12102579D02*
X15941491Y-12121627D01*
X15941491Y-12121627D02*
X15931968Y-12150198D01*
X15931968Y-12150198D02*
X15817682Y-12264484D01*
X15817682Y-12264484D02*
X15941491Y-12264484D01*
X16179587Y-12264484D02*
X16179587Y-12064484D01*
X16265301Y-12264484D02*
X16265301Y-12159722D01*
X16265301Y-12159722D02*
X16255777Y-12140674D01*
X16255777Y-12140674D02*
X16236730Y-12131150D01*
X16236730Y-12131150D02*
X16208158Y-12131150D01*
X16208158Y-12131150D02*
X16189110Y-12140674D01*
X16189110Y-12140674D02*
X16179587Y-12150198D01*
X16389110Y-12264484D02*
X16370063Y-12254960D01*
X16370063Y-12254960D02*
X16360539Y-12245436D01*
X16360539Y-12245436D02*
X16351015Y-12226388D01*
X16351015Y-12226388D02*
X16351015Y-12169246D01*
X16351015Y-12169246D02*
X16360539Y-12150198D01*
X16360539Y-12150198D02*
X16370063Y-12140674D01*
X16370063Y-12140674D02*
X16389110Y-12131150D01*
X16389110Y-12131150D02*
X16417682Y-12131150D01*
X16417682Y-12131150D02*
X16436730Y-12140674D01*
X16436730Y-12140674D02*
X16446253Y-12150198D01*
X16446253Y-12150198D02*
X16455777Y-12169246D01*
X16455777Y-12169246D02*
X16455777Y-12226388D01*
X16455777Y-12226388D02*
X16446253Y-12245436D01*
X16446253Y-12245436D02*
X16436730Y-12254960D01*
X16436730Y-12254960D02*
X16417682Y-12264484D01*
X16417682Y-12264484D02*
X16389110Y-12264484D01*
X16570063Y-12264484D02*
X16551015Y-12254960D01*
X16551015Y-12254960D02*
X16541491Y-12235912D01*
X16541491Y-12235912D02*
X16541491Y-12064484D01*
X16722444Y-12254960D02*
X16703396Y-12264484D01*
X16703396Y-12264484D02*
X16665301Y-12264484D01*
X16665301Y-12264484D02*
X16646253Y-12254960D01*
X16646253Y-12254960D02*
X16636730Y-12235912D01*
X16636730Y-12235912D02*
X16636730Y-12159722D01*
X16636730Y-12159722D02*
X16646253Y-12140674D01*
X16646253Y-12140674D02*
X16665301Y-12131150D01*
X16665301Y-12131150D02*
X16703396Y-12131150D01*
X16703396Y-12131150D02*
X16722444Y-12140674D01*
X16722444Y-12140674D02*
X16731968Y-12159722D01*
X16731968Y-12159722D02*
X16731968Y-12178769D01*
X16731968Y-12178769D02*
X16636730Y-12197817D01*
X16808158Y-12254960D02*
X16827206Y-12264484D01*
X16827206Y-12264484D02*
X16865301Y-12264484D01*
X16865301Y-12264484D02*
X16884349Y-12254960D01*
X16884349Y-12254960D02*
X16893873Y-12235912D01*
X16893873Y-12235912D02*
X16893873Y-12226388D01*
X16893873Y-12226388D02*
X16884349Y-12207341D01*
X16884349Y-12207341D02*
X16865301Y-12197817D01*
X16865301Y-12197817D02*
X16836730Y-12197817D01*
X16836730Y-12197817D02*
X16817682Y-12188293D01*
X16817682Y-12188293D02*
X16808158Y-12169246D01*
X16808158Y-12169246D02*
X16808158Y-12159722D01*
X16808158Y-12159722D02*
X16817682Y-12140674D01*
X16817682Y-12140674D02*
X16836730Y-12131150D01*
X16836730Y-12131150D02*
X16865301Y-12131150D01*
X16865301Y-12131150D02*
X16884349Y-12140674D01*
X16960539Y-12340674D02*
X16970063Y-12331150D01*
X16970063Y-12331150D02*
X16989111Y-12302579D01*
X16989111Y-12302579D02*
X16998634Y-12283531D01*
X16998634Y-12283531D02*
X17008158Y-12254960D01*
X17008158Y-12254960D02*
X17017682Y-12207341D01*
X17017682Y-12207341D02*
X17017682Y-12169246D01*
X17017682Y-12169246D02*
X17008158Y-12121627D01*
X17008158Y-12121627D02*
X16998634Y-12093055D01*
X16998634Y-12093055D02*
X16989111Y-12074008D01*
X16989111Y-12074008D02*
X16970063Y-12045436D01*
X16970063Y-12045436D02*
X16960539Y-12035912D01*
D10*
X11980356Y-12472356D02*
X11980356Y-12401644D01*
X11909644Y-12401644D01*
X11909644Y-12472356D01*
X11980356Y-12472356D01*
D11*
X12360539Y-12528484D02*
X12246253Y-12528484D01*
X12303396Y-12528484D02*
X12303396Y-12328484D01*
X12303396Y-12328484D02*
X12284348Y-12357055D01*
X12284348Y-12357055D02*
X12265301Y-12376103D01*
X12265301Y-12376103D02*
X12246253Y-12385627D01*
X12446253Y-12509436D02*
X12455777Y-12518960D01*
X12455777Y-12518960D02*
X12446253Y-12528484D01*
X12446253Y-12528484D02*
X12436729Y-12518960D01*
X12436729Y-12518960D02*
X12446253Y-12509436D01*
X12446253Y-12509436D02*
X12446253Y-12528484D01*
X12579586Y-12328484D02*
X12598634Y-12328484D01*
X12598634Y-12328484D02*
X12617682Y-12338008D01*
X12617682Y-12338008D02*
X12627205Y-12347531D01*
X12627205Y-12347531D02*
X12636729Y-12366579D01*
X12636729Y-12366579D02*
X12646253Y-12404674D01*
X12646253Y-12404674D02*
X12646253Y-12452293D01*
X12646253Y-12452293D02*
X12636729Y-12490388D01*
X12636729Y-12490388D02*
X12627205Y-12509436D01*
X12627205Y-12509436D02*
X12617682Y-12518960D01*
X12617682Y-12518960D02*
X12598634Y-12528484D01*
X12598634Y-12528484D02*
X12579586Y-12528484D01*
X12579586Y-12528484D02*
X12560539Y-12518960D01*
X12560539Y-12518960D02*
X12551015Y-12509436D01*
X12551015Y-12509436D02*
X12541491Y-12490388D01*
X12541491Y-12490388D02*
X12531967Y-12452293D01*
X12531967Y-12452293D02*
X12531967Y-12404674D01*
X12531967Y-12404674D02*
X12541491Y-12366579D01*
X12541491Y-12366579D02*
X12551015Y-12347531D01*
X12551015Y-12347531D02*
X12560539Y-12338008D01*
X12560539Y-12338008D02*
X12579586Y-12328484D01*
X12770062Y-12328484D02*
X12789110Y-12328484D01*
X12789110Y-12328484D02*
X12808158Y-12338008D01*
X12808158Y-12338008D02*
X12817682Y-12347531D01*
X12817682Y-12347531D02*
X12827205Y-12366579D01*
X12827205Y-12366579D02*
X12836729Y-12404674D01*
X12836729Y-12404674D02*
X12836729Y-12452293D01*
X12836729Y-12452293D02*
X12827205Y-12490388D01*
X12827205Y-12490388D02*
X12817682Y-12509436D01*
X12817682Y-12509436D02*
X12808158Y-12518960D01*
X12808158Y-12518960D02*
X12789110Y-12528484D01*
X12789110Y-12528484D02*
X12770062Y-12528484D01*
X12770062Y-12528484D02*
X12751015Y-12518960D01*
X12751015Y-12518960D02*
X12741491Y-12509436D01*
X12741491Y-12509436D02*
X12731967Y-12490388D01*
X12731967Y-12490388D02*
X12722443Y-12452293D01*
X12722443Y-12452293D02*
X12722443Y-12404674D01*
X12722443Y-12404674D02*
X12731967Y-12366579D01*
X12731967Y-12366579D02*
X12741491Y-12347531D01*
X12741491Y-12347531D02*
X12751015Y-12338008D01*
X12751015Y-12338008D02*
X12770062Y-12328484D01*
X12960539Y-12328484D02*
X12979586Y-12328484D01*
X12979586Y-12328484D02*
X12998634Y-12338008D01*
X12998634Y-12338008D02*
X13008158Y-12347531D01*
X13008158Y-12347531D02*
X13017682Y-12366579D01*
X13017682Y-12366579D02*
X13027205Y-12404674D01*
X13027205Y-12404674D02*
X13027205Y-12452293D01*
X13027205Y-12452293D02*
X13017682Y-12490388D01*
X13017682Y-12490388D02*
X13008158Y-12509436D01*
X13008158Y-12509436D02*
X12998634Y-12518960D01*
X12998634Y-12518960D02*
X12979586Y-12528484D01*
X12979586Y-12528484D02*
X12960539Y-12528484D01*
X12960539Y-12528484D02*
X12941491Y-12518960D01*
X12941491Y-12518960D02*
X12931967Y-12509436D01*
X12931967Y-12509436D02*
X12922443Y-12490388D01*
X12922443Y-12490388D02*
X12912920Y-12452293D01*
X12912920Y-12452293D02*
X12912920Y-12404674D01*
X12912920Y-12404674D02*
X12922443Y-12366579D01*
X12922443Y-12366579D02*
X12931967Y-12347531D01*
X12931967Y-12347531D02*
X12941491Y-12338008D01*
X12941491Y-12338008D02*
X12960539Y-12328484D01*
X13112920Y-12528484D02*
X13112920Y-12395150D01*
X13112920Y-12414198D02*
X13122443Y-12404674D01*
X13122443Y-12404674D02*
X13141491Y-12395150D01*
X13141491Y-12395150D02*
X13170063Y-12395150D01*
X13170063Y-12395150D02*
X13189110Y-12404674D01*
X13189110Y-12404674D02*
X13198634Y-12423722D01*
X13198634Y-12423722D02*
X13198634Y-12528484D01*
X13198634Y-12423722D02*
X13208158Y-12404674D01*
X13208158Y-12404674D02*
X13227205Y-12395150D01*
X13227205Y-12395150D02*
X13255777Y-12395150D01*
X13255777Y-12395150D02*
X13274824Y-12404674D01*
X13274824Y-12404674D02*
X13284348Y-12423722D01*
X13284348Y-12423722D02*
X13284348Y-12528484D01*
X13379586Y-12528484D02*
X13379586Y-12395150D01*
X13379586Y-12414198D02*
X13389110Y-12404674D01*
X13389110Y-12404674D02*
X13408158Y-12395150D01*
X13408158Y-12395150D02*
X13436729Y-12395150D01*
X13436729Y-12395150D02*
X13455777Y-12404674D01*
X13455777Y-12404674D02*
X13465301Y-12423722D01*
X13465301Y-12423722D02*
X13465301Y-12528484D01*
X13465301Y-12423722D02*
X13474824Y-12404674D01*
X13474824Y-12404674D02*
X13493872Y-12395150D01*
X13493872Y-12395150D02*
X13522443Y-12395150D01*
X13522443Y-12395150D02*
X13541491Y-12404674D01*
X13541491Y-12404674D02*
X13551015Y-12423722D01*
X13551015Y-12423722D02*
X13551015Y-12528484D01*
X13941491Y-12318960D02*
X13770063Y-12576103D01*
X14198634Y-12328484D02*
X14217682Y-12328484D01*
X14217682Y-12328484D02*
X14236729Y-12338008D01*
X14236729Y-12338008D02*
X14246253Y-12347531D01*
X14246253Y-12347531D02*
X14255777Y-12366579D01*
X14255777Y-12366579D02*
X14265301Y-12404674D01*
X14265301Y-12404674D02*
X14265301Y-12452293D01*
X14265301Y-12452293D02*
X14255777Y-12490388D01*
X14255777Y-12490388D02*
X14246253Y-12509436D01*
X14246253Y-12509436D02*
X14236729Y-12518960D01*
X14236729Y-12518960D02*
X14217682Y-12528484D01*
X14217682Y-12528484D02*
X14198634Y-12528484D01*
X14198634Y-12528484D02*
X14179586Y-12518960D01*
X14179586Y-12518960D02*
X14170063Y-12509436D01*
X14170063Y-12509436D02*
X14160539Y-12490388D01*
X14160539Y-12490388D02*
X14151015Y-12452293D01*
X14151015Y-12452293D02*
X14151015Y-12404674D01*
X14151015Y-12404674D02*
X14160539Y-12366579D01*
X14160539Y-12366579D02*
X14170063Y-12347531D01*
X14170063Y-12347531D02*
X14179586Y-12338008D01*
X14179586Y-12338008D02*
X14198634Y-12328484D01*
X14351015Y-12509436D02*
X14360539Y-12518960D01*
X14360539Y-12518960D02*
X14351015Y-12528484D01*
X14351015Y-12528484D02*
X14341491Y-12518960D01*
X14341491Y-12518960D02*
X14351015Y-12509436D01*
X14351015Y-12509436D02*
X14351015Y-12528484D01*
X14484348Y-12328484D02*
X14503396Y-12328484D01*
X14503396Y-12328484D02*
X14522444Y-12338008D01*
X14522444Y-12338008D02*
X14531967Y-12347531D01*
X14531967Y-12347531D02*
X14541491Y-12366579D01*
X14541491Y-12366579D02*
X14551015Y-12404674D01*
X14551015Y-12404674D02*
X14551015Y-12452293D01*
X14551015Y-12452293D02*
X14541491Y-12490388D01*
X14541491Y-12490388D02*
X14531967Y-12509436D01*
X14531967Y-12509436D02*
X14522444Y-12518960D01*
X14522444Y-12518960D02*
X14503396Y-12528484D01*
X14503396Y-12528484D02*
X14484348Y-12528484D01*
X14484348Y-12528484D02*
X14465301Y-12518960D01*
X14465301Y-12518960D02*
X14455777Y-12509436D01*
X14455777Y-12509436D02*
X14446253Y-12490388D01*
X14446253Y-12490388D02*
X14436729Y-12452293D01*
X14436729Y-12452293D02*
X14436729Y-12404674D01*
X14436729Y-12404674D02*
X14446253Y-12366579D01*
X14446253Y-12366579D02*
X14455777Y-12347531D01*
X14455777Y-12347531D02*
X14465301Y-12338008D01*
X14465301Y-12338008D02*
X14484348Y-12328484D01*
X14617682Y-12328484D02*
X14741491Y-12328484D01*
X14741491Y-12328484D02*
X14674825Y-12404674D01*
X14674825Y-12404674D02*
X14703396Y-12404674D01*
X14703396Y-12404674D02*
X14722444Y-12414198D01*
X14722444Y-12414198D02*
X14731967Y-12423722D01*
X14731967Y-12423722D02*
X14741491Y-12442769D01*
X14741491Y-12442769D02*
X14741491Y-12490388D01*
X14741491Y-12490388D02*
X14731967Y-12509436D01*
X14731967Y-12509436D02*
X14722444Y-12518960D01*
X14722444Y-12518960D02*
X14703396Y-12528484D01*
X14703396Y-12528484D02*
X14646253Y-12528484D01*
X14646253Y-12528484D02*
X14627206Y-12518960D01*
X14627206Y-12518960D02*
X14617682Y-12509436D01*
X14836729Y-12528484D02*
X14874825Y-12528484D01*
X14874825Y-12528484D02*
X14893872Y-12518960D01*
X14893872Y-12518960D02*
X14903396Y-12509436D01*
X14903396Y-12509436D02*
X14922444Y-12480865D01*
X14922444Y-12480865D02*
X14931967Y-12442769D01*
X14931967Y-12442769D02*
X14931967Y-12366579D01*
X14931967Y-12366579D02*
X14922444Y-12347531D01*
X14922444Y-12347531D02*
X14912920Y-12338008D01*
X14912920Y-12338008D02*
X14893872Y-12328484D01*
X14893872Y-12328484D02*
X14855777Y-12328484D01*
X14855777Y-12328484D02*
X14836729Y-12338008D01*
X14836729Y-12338008D02*
X14827206Y-12347531D01*
X14827206Y-12347531D02*
X14817682Y-12366579D01*
X14817682Y-12366579D02*
X14817682Y-12414198D01*
X14817682Y-12414198D02*
X14827206Y-12433246D01*
X14827206Y-12433246D02*
X14836729Y-12442769D01*
X14836729Y-12442769D02*
X14855777Y-12452293D01*
X14855777Y-12452293D02*
X14893872Y-12452293D01*
X14893872Y-12452293D02*
X14912920Y-12442769D01*
X14912920Y-12442769D02*
X14922444Y-12433246D01*
X14922444Y-12433246D02*
X14931967Y-12414198D01*
X15103396Y-12395150D02*
X15103396Y-12528484D01*
X15055777Y-12318960D02*
X15008158Y-12461817D01*
X15008158Y-12461817D02*
X15131967Y-12461817D01*
X15198634Y-12328484D02*
X15198634Y-12366579D01*
X15274825Y-12328484D02*
X15274825Y-12366579D01*
X15570063Y-12604674D02*
X15560539Y-12595150D01*
X15560539Y-12595150D02*
X15541491Y-12566579D01*
X15541491Y-12566579D02*
X15531968Y-12547531D01*
X15531968Y-12547531D02*
X15522444Y-12518960D01*
X15522444Y-12518960D02*
X15512920Y-12471341D01*
X15512920Y-12471341D02*
X15512920Y-12433246D01*
X15512920Y-12433246D02*
X15522444Y-12385627D01*
X15522444Y-12385627D02*
X15531968Y-12357055D01*
X15531968Y-12357055D02*
X15541491Y-12338008D01*
X15541491Y-12338008D02*
X15560539Y-12309436D01*
X15560539Y-12309436D02*
X15570063Y-12299912D01*
X15741491Y-12328484D02*
X15646253Y-12328484D01*
X15646253Y-12328484D02*
X15636729Y-12423722D01*
X15636729Y-12423722D02*
X15646253Y-12414198D01*
X15646253Y-12414198D02*
X15665301Y-12404674D01*
X15665301Y-12404674D02*
X15712920Y-12404674D01*
X15712920Y-12404674D02*
X15731968Y-12414198D01*
X15731968Y-12414198D02*
X15741491Y-12423722D01*
X15741491Y-12423722D02*
X15751015Y-12442769D01*
X15751015Y-12442769D02*
X15751015Y-12490388D01*
X15751015Y-12490388D02*
X15741491Y-12509436D01*
X15741491Y-12509436D02*
X15731968Y-12518960D01*
X15731968Y-12518960D02*
X15712920Y-12528484D01*
X15712920Y-12528484D02*
X15665301Y-12528484D01*
X15665301Y-12528484D02*
X15646253Y-12518960D01*
X15646253Y-12518960D02*
X15636729Y-12509436D01*
X15989110Y-12528484D02*
X15989110Y-12328484D01*
X16074825Y-12528484D02*
X16074825Y-12423722D01*
X16074825Y-12423722D02*
X16065301Y-12404674D01*
X16065301Y-12404674D02*
X16046253Y-12395150D01*
X16046253Y-12395150D02*
X16017682Y-12395150D01*
X16017682Y-12395150D02*
X15998634Y-12404674D01*
X15998634Y-12404674D02*
X15989110Y-12414198D01*
X16198634Y-12528484D02*
X16179587Y-12518960D01*
X16179587Y-12518960D02*
X16170063Y-12509436D01*
X16170063Y-12509436D02*
X16160539Y-12490388D01*
X16160539Y-12490388D02*
X16160539Y-12433246D01*
X16160539Y-12433246D02*
X16170063Y-12414198D01*
X16170063Y-12414198D02*
X16179587Y-12404674D01*
X16179587Y-12404674D02*
X16198634Y-12395150D01*
X16198634Y-12395150D02*
X16227206Y-12395150D01*
X16227206Y-12395150D02*
X16246253Y-12404674D01*
X16246253Y-12404674D02*
X16255777Y-12414198D01*
X16255777Y-12414198D02*
X16265301Y-12433246D01*
X16265301Y-12433246D02*
X16265301Y-12490388D01*
X16265301Y-12490388D02*
X16255777Y-12509436D01*
X16255777Y-12509436D02*
X16246253Y-12518960D01*
X16246253Y-12518960D02*
X16227206Y-12528484D01*
X16227206Y-12528484D02*
X16198634Y-12528484D01*
X16379587Y-12528484D02*
X16360539Y-12518960D01*
X16360539Y-12518960D02*
X16351015Y-12499912D01*
X16351015Y-12499912D02*
X16351015Y-12328484D01*
X16531968Y-12518960D02*
X16512920Y-12528484D01*
X16512920Y-12528484D02*
X16474825Y-12528484D01*
X16474825Y-12528484D02*
X16455777Y-12518960D01*
X16455777Y-12518960D02*
X16446253Y-12499912D01*
X16446253Y-12499912D02*
X16446253Y-12423722D01*
X16446253Y-12423722D02*
X16455777Y-12404674D01*
X16455777Y-12404674D02*
X16474825Y-12395150D01*
X16474825Y-12395150D02*
X16512920Y-12395150D01*
X16512920Y-12395150D02*
X16531968Y-12404674D01*
X16531968Y-12404674D02*
X16541491Y-12423722D01*
X16541491Y-12423722D02*
X16541491Y-12442769D01*
X16541491Y-12442769D02*
X16446253Y-12461817D01*
X16617682Y-12518960D02*
X16636730Y-12528484D01*
X16636730Y-12528484D02*
X16674825Y-12528484D01*
X16674825Y-12528484D02*
X16693872Y-12518960D01*
X16693872Y-12518960D02*
X16703396Y-12499912D01*
X16703396Y-12499912D02*
X16703396Y-12490388D01*
X16703396Y-12490388D02*
X16693872Y-12471341D01*
X16693872Y-12471341D02*
X16674825Y-12461817D01*
X16674825Y-12461817D02*
X16646253Y-12461817D01*
X16646253Y-12461817D02*
X16627206Y-12452293D01*
X16627206Y-12452293D02*
X16617682Y-12433246D01*
X16617682Y-12433246D02*
X16617682Y-12423722D01*
X16617682Y-12423722D02*
X16627206Y-12404674D01*
X16627206Y-12404674D02*
X16646253Y-12395150D01*
X16646253Y-12395150D02*
X16674825Y-12395150D01*
X16674825Y-12395150D02*
X16693872Y-12404674D01*
X16770063Y-12604674D02*
X16779587Y-12595150D01*
X16779587Y-12595150D02*
X16798634Y-12566579D01*
X16798634Y-12566579D02*
X16808158Y-12547531D01*
X16808158Y-12547531D02*
X16817682Y-12518960D01*
X16817682Y-12518960D02*
X16827206Y-12471341D01*
X16827206Y-12471341D02*
X16827206Y-12433246D01*
X16827206Y-12433246D02*
X16817682Y-12385627D01*
X16817682Y-12385627D02*
X16808158Y-12357055D01*
X16808158Y-12357055D02*
X16798634Y-12338008D01*
X16798634Y-12338008D02*
X16779587Y-12309436D01*
X16779587Y-12309436D02*
X16770063Y-12299912D01*
X11895000Y-12801000D02*
X11995000Y-12701000D01*
X11895000Y-12601000D01*
X11795000Y-12701000D01*
X11895000Y-12801000D01*
X12246253Y-12611531D02*
X12255777Y-12602008D01*
X12255777Y-12602008D02*
X12274824Y-12592484D01*
X12274824Y-12592484D02*
X12322443Y-12592484D01*
X12322443Y-12592484D02*
X12341491Y-12602008D01*
X12341491Y-12602008D02*
X12351015Y-12611531D01*
X12351015Y-12611531D02*
X12360539Y-12630579D01*
X12360539Y-12630579D02*
X12360539Y-12649627D01*
X12360539Y-12649627D02*
X12351015Y-12678198D01*
X12351015Y-12678198D02*
X12236729Y-12792484D01*
X12236729Y-12792484D02*
X12360539Y-12792484D01*
X12446253Y-12773436D02*
X12455777Y-12782960D01*
X12455777Y-12782960D02*
X12446253Y-12792484D01*
X12446253Y-12792484D02*
X12436729Y-12782960D01*
X12436729Y-12782960D02*
X12446253Y-12773436D01*
X12446253Y-12773436D02*
X12446253Y-12792484D01*
X12636729Y-12592484D02*
X12541491Y-12592484D01*
X12541491Y-12592484D02*
X12531967Y-12687722D01*
X12531967Y-12687722D02*
X12541491Y-12678198D01*
X12541491Y-12678198D02*
X12560539Y-12668674D01*
X12560539Y-12668674D02*
X12608158Y-12668674D01*
X12608158Y-12668674D02*
X12627205Y-12678198D01*
X12627205Y-12678198D02*
X12636729Y-12687722D01*
X12636729Y-12687722D02*
X12646253Y-12706769D01*
X12646253Y-12706769D02*
X12646253Y-12754388D01*
X12646253Y-12754388D02*
X12636729Y-12773436D01*
X12636729Y-12773436D02*
X12627205Y-12782960D01*
X12627205Y-12782960D02*
X12608158Y-12792484D01*
X12608158Y-12792484D02*
X12560539Y-12792484D01*
X12560539Y-12792484D02*
X12541491Y-12782960D01*
X12541491Y-12782960D02*
X12531967Y-12773436D01*
X12770062Y-12592484D02*
X12789110Y-12592484D01*
X12789110Y-12592484D02*
X12808158Y-12602008D01*
X12808158Y-12602008D02*
X12817682Y-12611531D01*
X12817682Y-12611531D02*
X12827205Y-12630579D01*
X12827205Y-12630579D02*
X12836729Y-12668674D01*
X12836729Y-12668674D02*
X12836729Y-12716293D01*
X12836729Y-12716293D02*
X12827205Y-12754388D01*
X12827205Y-12754388D02*
X12817682Y-12773436D01*
X12817682Y-12773436D02*
X12808158Y-12782960D01*
X12808158Y-12782960D02*
X12789110Y-12792484D01*
X12789110Y-12792484D02*
X12770062Y-12792484D01*
X12770062Y-12792484D02*
X12751015Y-12782960D01*
X12751015Y-12782960D02*
X12741491Y-12773436D01*
X12741491Y-12773436D02*
X12731967Y-12754388D01*
X12731967Y-12754388D02*
X12722443Y-12716293D01*
X12722443Y-12716293D02*
X12722443Y-12668674D01*
X12722443Y-12668674D02*
X12731967Y-12630579D01*
X12731967Y-12630579D02*
X12741491Y-12611531D01*
X12741491Y-12611531D02*
X12751015Y-12602008D01*
X12751015Y-12602008D02*
X12770062Y-12592484D01*
X12960539Y-12592484D02*
X12979586Y-12592484D01*
X12979586Y-12592484D02*
X12998634Y-12602008D01*
X12998634Y-12602008D02*
X13008158Y-12611531D01*
X13008158Y-12611531D02*
X13017682Y-12630579D01*
X13017682Y-12630579D02*
X13027205Y-12668674D01*
X13027205Y-12668674D02*
X13027205Y-12716293D01*
X13027205Y-12716293D02*
X13017682Y-12754388D01*
X13017682Y-12754388D02*
X13008158Y-12773436D01*
X13008158Y-12773436D02*
X12998634Y-12782960D01*
X12998634Y-12782960D02*
X12979586Y-12792484D01*
X12979586Y-12792484D02*
X12960539Y-12792484D01*
X12960539Y-12792484D02*
X12941491Y-12782960D01*
X12941491Y-12782960D02*
X12931967Y-12773436D01*
X12931967Y-12773436D02*
X12922443Y-12754388D01*
X12922443Y-12754388D02*
X12912920Y-12716293D01*
X12912920Y-12716293D02*
X12912920Y-12668674D01*
X12912920Y-12668674D02*
X12922443Y-12630579D01*
X12922443Y-12630579D02*
X12931967Y-12611531D01*
X12931967Y-12611531D02*
X12941491Y-12602008D01*
X12941491Y-12602008D02*
X12960539Y-12592484D01*
X13112920Y-12792484D02*
X13112920Y-12659150D01*
X13112920Y-12678198D02*
X13122443Y-12668674D01*
X13122443Y-12668674D02*
X13141491Y-12659150D01*
X13141491Y-12659150D02*
X13170063Y-12659150D01*
X13170063Y-12659150D02*
X13189110Y-12668674D01*
X13189110Y-12668674D02*
X13198634Y-12687722D01*
X13198634Y-12687722D02*
X13198634Y-12792484D01*
X13198634Y-12687722D02*
X13208158Y-12668674D01*
X13208158Y-12668674D02*
X13227205Y-12659150D01*
X13227205Y-12659150D02*
X13255777Y-12659150D01*
X13255777Y-12659150D02*
X13274824Y-12668674D01*
X13274824Y-12668674D02*
X13284348Y-12687722D01*
X13284348Y-12687722D02*
X13284348Y-12792484D01*
X13379586Y-12792484D02*
X13379586Y-12659150D01*
X13379586Y-12678198D02*
X13389110Y-12668674D01*
X13389110Y-12668674D02*
X13408158Y-12659150D01*
X13408158Y-12659150D02*
X13436729Y-12659150D01*
X13436729Y-12659150D02*
X13455777Y-12668674D01*
X13455777Y-12668674D02*
X13465301Y-12687722D01*
X13465301Y-12687722D02*
X13465301Y-12792484D01*
X13465301Y-12687722D02*
X13474824Y-12668674D01*
X13474824Y-12668674D02*
X13493872Y-12659150D01*
X13493872Y-12659150D02*
X13522443Y-12659150D01*
X13522443Y-12659150D02*
X13541491Y-12668674D01*
X13541491Y-12668674D02*
X13551015Y-12687722D01*
X13551015Y-12687722D02*
X13551015Y-12792484D01*
X13941491Y-12582960D02*
X13770063Y-12840103D01*
X14198634Y-12592484D02*
X14217682Y-12592484D01*
X14217682Y-12592484D02*
X14236729Y-12602008D01*
X14236729Y-12602008D02*
X14246253Y-12611531D01*
X14246253Y-12611531D02*
X14255777Y-12630579D01*
X14255777Y-12630579D02*
X14265301Y-12668674D01*
X14265301Y-12668674D02*
X14265301Y-12716293D01*
X14265301Y-12716293D02*
X14255777Y-12754388D01*
X14255777Y-12754388D02*
X14246253Y-12773436D01*
X14246253Y-12773436D02*
X14236729Y-12782960D01*
X14236729Y-12782960D02*
X14217682Y-12792484D01*
X14217682Y-12792484D02*
X14198634Y-12792484D01*
X14198634Y-12792484D02*
X14179586Y-12782960D01*
X14179586Y-12782960D02*
X14170063Y-12773436D01*
X14170063Y-12773436D02*
X14160539Y-12754388D01*
X14160539Y-12754388D02*
X14151015Y-12716293D01*
X14151015Y-12716293D02*
X14151015Y-12668674D01*
X14151015Y-12668674D02*
X14160539Y-12630579D01*
X14160539Y-12630579D02*
X14170063Y-12611531D01*
X14170063Y-12611531D02*
X14179586Y-12602008D01*
X14179586Y-12602008D02*
X14198634Y-12592484D01*
X14351015Y-12773436D02*
X14360539Y-12782960D01*
X14360539Y-12782960D02*
X14351015Y-12792484D01*
X14351015Y-12792484D02*
X14341491Y-12782960D01*
X14341491Y-12782960D02*
X14351015Y-12773436D01*
X14351015Y-12773436D02*
X14351015Y-12792484D01*
X14484348Y-12592484D02*
X14503396Y-12592484D01*
X14503396Y-12592484D02*
X14522444Y-12602008D01*
X14522444Y-12602008D02*
X14531967Y-12611531D01*
X14531967Y-12611531D02*
X14541491Y-12630579D01*
X14541491Y-12630579D02*
X14551015Y-12668674D01*
X14551015Y-12668674D02*
X14551015Y-12716293D01*
X14551015Y-12716293D02*
X14541491Y-12754388D01*
X14541491Y-12754388D02*
X14531967Y-12773436D01*
X14531967Y-12773436D02*
X14522444Y-12782960D01*
X14522444Y-12782960D02*
X14503396Y-12792484D01*
X14503396Y-12792484D02*
X14484348Y-12792484D01*
X14484348Y-12792484D02*
X14465301Y-12782960D01*
X14465301Y-12782960D02*
X14455777Y-12773436D01*
X14455777Y-12773436D02*
X14446253Y-12754388D01*
X14446253Y-12754388D02*
X14436729Y-12716293D01*
X14436729Y-12716293D02*
X14436729Y-12668674D01*
X14436729Y-12668674D02*
X14446253Y-12630579D01*
X14446253Y-12630579D02*
X14455777Y-12611531D01*
X14455777Y-12611531D02*
X14465301Y-12602008D01*
X14465301Y-12602008D02*
X14484348Y-12592484D01*
X14646253Y-12792484D02*
X14684348Y-12792484D01*
X14684348Y-12792484D02*
X14703396Y-12782960D01*
X14703396Y-12782960D02*
X14712920Y-12773436D01*
X14712920Y-12773436D02*
X14731967Y-12744865D01*
X14731967Y-12744865D02*
X14741491Y-12706769D01*
X14741491Y-12706769D02*
X14741491Y-12630579D01*
X14741491Y-12630579D02*
X14731967Y-12611531D01*
X14731967Y-12611531D02*
X14722444Y-12602008D01*
X14722444Y-12602008D02*
X14703396Y-12592484D01*
X14703396Y-12592484D02*
X14665301Y-12592484D01*
X14665301Y-12592484D02*
X14646253Y-12602008D01*
X14646253Y-12602008D02*
X14636729Y-12611531D01*
X14636729Y-12611531D02*
X14627206Y-12630579D01*
X14627206Y-12630579D02*
X14627206Y-12678198D01*
X14627206Y-12678198D02*
X14636729Y-12697246D01*
X14636729Y-12697246D02*
X14646253Y-12706769D01*
X14646253Y-12706769D02*
X14665301Y-12716293D01*
X14665301Y-12716293D02*
X14703396Y-12716293D01*
X14703396Y-12716293D02*
X14722444Y-12706769D01*
X14722444Y-12706769D02*
X14731967Y-12697246D01*
X14731967Y-12697246D02*
X14741491Y-12678198D01*
X14855777Y-12678198D02*
X14836729Y-12668674D01*
X14836729Y-12668674D02*
X14827206Y-12659150D01*
X14827206Y-12659150D02*
X14817682Y-12640103D01*
X14817682Y-12640103D02*
X14817682Y-12630579D01*
X14817682Y-12630579D02*
X14827206Y-12611531D01*
X14827206Y-12611531D02*
X14836729Y-12602008D01*
X14836729Y-12602008D02*
X14855777Y-12592484D01*
X14855777Y-12592484D02*
X14893872Y-12592484D01*
X14893872Y-12592484D02*
X14912920Y-12602008D01*
X14912920Y-12602008D02*
X14922444Y-12611531D01*
X14922444Y-12611531D02*
X14931967Y-12630579D01*
X14931967Y-12630579D02*
X14931967Y-12640103D01*
X14931967Y-12640103D02*
X14922444Y-12659150D01*
X14922444Y-12659150D02*
X14912920Y-12668674D01*
X14912920Y-12668674D02*
X14893872Y-12678198D01*
X14893872Y-12678198D02*
X14855777Y-12678198D01*
X14855777Y-12678198D02*
X14836729Y-12687722D01*
X14836729Y-12687722D02*
X14827206Y-12697246D01*
X14827206Y-12697246D02*
X14817682Y-12716293D01*
X14817682Y-12716293D02*
X14817682Y-12754388D01*
X14817682Y-12754388D02*
X14827206Y-12773436D01*
X14827206Y-12773436D02*
X14836729Y-12782960D01*
X14836729Y-12782960D02*
X14855777Y-12792484D01*
X14855777Y-12792484D02*
X14893872Y-12792484D01*
X14893872Y-12792484D02*
X14912920Y-12782960D01*
X14912920Y-12782960D02*
X14922444Y-12773436D01*
X14922444Y-12773436D02*
X14931967Y-12754388D01*
X14931967Y-12754388D02*
X14931967Y-12716293D01*
X14931967Y-12716293D02*
X14922444Y-12697246D01*
X14922444Y-12697246D02*
X14912920Y-12687722D01*
X14912920Y-12687722D02*
X14893872Y-12678198D01*
X15103396Y-12659150D02*
X15103396Y-12792484D01*
X15055777Y-12582960D02*
X15008158Y-12725817D01*
X15008158Y-12725817D02*
X15131967Y-12725817D01*
X15198634Y-12592484D02*
X15198634Y-12630579D01*
X15274825Y-12592484D02*
X15274825Y-12630579D01*
X15570063Y-12868674D02*
X15560539Y-12859150D01*
X15560539Y-12859150D02*
X15541491Y-12830579D01*
X15541491Y-12830579D02*
X15531968Y-12811531D01*
X15531968Y-12811531D02*
X15522444Y-12782960D01*
X15522444Y-12782960D02*
X15512920Y-12735341D01*
X15512920Y-12735341D02*
X15512920Y-12697246D01*
X15512920Y-12697246D02*
X15522444Y-12649627D01*
X15522444Y-12649627D02*
X15531968Y-12621055D01*
X15531968Y-12621055D02*
X15541491Y-12602008D01*
X15541491Y-12602008D02*
X15560539Y-12573436D01*
X15560539Y-12573436D02*
X15570063Y-12563912D01*
X15731968Y-12659150D02*
X15731968Y-12792484D01*
X15684348Y-12582960D02*
X15636729Y-12725817D01*
X15636729Y-12725817D02*
X15760539Y-12725817D01*
X15989110Y-12792484D02*
X15989110Y-12592484D01*
X16074825Y-12792484D02*
X16074825Y-12687722D01*
X16074825Y-12687722D02*
X16065301Y-12668674D01*
X16065301Y-12668674D02*
X16046253Y-12659150D01*
X16046253Y-12659150D02*
X16017682Y-12659150D01*
X16017682Y-12659150D02*
X15998634Y-12668674D01*
X15998634Y-12668674D02*
X15989110Y-12678198D01*
X16198634Y-12792484D02*
X16179587Y-12782960D01*
X16179587Y-12782960D02*
X16170063Y-12773436D01*
X16170063Y-12773436D02*
X16160539Y-12754388D01*
X16160539Y-12754388D02*
X16160539Y-12697246D01*
X16160539Y-12697246D02*
X16170063Y-12678198D01*
X16170063Y-12678198D02*
X16179587Y-12668674D01*
X16179587Y-12668674D02*
X16198634Y-12659150D01*
X16198634Y-12659150D02*
X16227206Y-12659150D01*
X16227206Y-12659150D02*
X16246253Y-12668674D01*
X16246253Y-12668674D02*
X16255777Y-12678198D01*
X16255777Y-12678198D02*
X16265301Y-12697246D01*
X16265301Y-12697246D02*
X16265301Y-12754388D01*
X16265301Y-12754388D02*
X16255777Y-12773436D01*
X16255777Y-12773436D02*
X16246253Y-12782960D01*
X16246253Y-12782960D02*
X16227206Y-12792484D01*
X16227206Y-12792484D02*
X16198634Y-12792484D01*
X16379587Y-12792484D02*
X16360539Y-12782960D01*
X16360539Y-12782960D02*
X16351015Y-12763912D01*
X16351015Y-12763912D02*
X16351015Y-12592484D01*
X16531968Y-12782960D02*
X16512920Y-12792484D01*
X16512920Y-12792484D02*
X16474825Y-12792484D01*
X16474825Y-12792484D02*
X16455777Y-12782960D01*
X16455777Y-12782960D02*
X16446253Y-12763912D01*
X16446253Y-12763912D02*
X16446253Y-12687722D01*
X16446253Y-12687722D02*
X16455777Y-12668674D01*
X16455777Y-12668674D02*
X16474825Y-12659150D01*
X16474825Y-12659150D02*
X16512920Y-12659150D01*
X16512920Y-12659150D02*
X16531968Y-12668674D01*
X16531968Y-12668674D02*
X16541491Y-12687722D01*
X16541491Y-12687722D02*
X16541491Y-12706769D01*
X16541491Y-12706769D02*
X16446253Y-12725817D01*
X16617682Y-12782960D02*
X16636730Y-12792484D01*
X16636730Y-12792484D02*
X16674825Y-12792484D01*
X16674825Y-12792484D02*
X16693872Y-12782960D01*
X16693872Y-12782960D02*
X16703396Y-12763912D01*
X16703396Y-12763912D02*
X16703396Y-12754388D01*
X16703396Y-12754388D02*
X16693872Y-12735341D01*
X16693872Y-12735341D02*
X16674825Y-12725817D01*
X16674825Y-12725817D02*
X16646253Y-12725817D01*
X16646253Y-12725817D02*
X16627206Y-12716293D01*
X16627206Y-12716293D02*
X16617682Y-12697246D01*
X16617682Y-12697246D02*
X16617682Y-12687722D01*
X16617682Y-12687722D02*
X16627206Y-12668674D01*
X16627206Y-12668674D02*
X16646253Y-12659150D01*
X16646253Y-12659150D02*
X16674825Y-12659150D01*
X16674825Y-12659150D02*
X16693872Y-12668674D01*
X16770063Y-12868674D02*
X16779587Y-12859150D01*
X16779587Y-12859150D02*
X16798634Y-12830579D01*
X16798634Y-12830579D02*
X16808158Y-12811531D01*
X16808158Y-12811531D02*
X16817682Y-12782960D01*
X16817682Y-12782960D02*
X16827206Y-12735341D01*
X16827206Y-12735341D02*
X16827206Y-12697246D01*
X16827206Y-12697246D02*
X16817682Y-12649627D01*
X16817682Y-12649627D02*
X16808158Y-12621055D01*
X16808158Y-12621055D02*
X16798634Y-12602008D01*
X16798634Y-12602008D02*
X16779587Y-12573436D01*
X16779587Y-12573436D02*
X16770063Y-12563912D01*
M02*
