%TF.GenerationSoftware,KiCad,Pcbnew,8.0.4-8.0.4-0~ubuntu24.04.1*%
%TF.CreationDate,2024-08-03T15:04:24+08:00*%
%TF.ProjectId,CawDrive,43617744-7269-4766-952e-6b696361645f,rev?*%
%TF.SameCoordinates,Original*%
%TF.FileFunction,Copper,L3,Inr*%
%TF.FilePolarity,Positive*%
%FSLAX46Y46*%
G04 Gerber Fmt 4.6, Leading zero omitted, Abs format (unit mm)*
G04 Created by KiCad (PCBNEW 8.0.4-8.0.4-0~ubuntu24.04.1) date 2024-08-03 15:04:24*
%MOMM*%
%LPD*%
G01*
G04 APERTURE LIST*
G04 Aperture macros list*
%AMRoundRect*
0 Rectangle with rounded corners*
0 $1 Rounding radius*
0 $2 $3 $4 $5 $6 $7 $8 $9 X,Y pos of 4 corners*
0 Add a 4 corners polygon primitive as box body*
4,1,4,$2,$3,$4,$5,$6,$7,$8,$9,$2,$3,0*
0 Add four circle primitives for the rounded corners*
1,1,$1+$1,$2,$3*
1,1,$1+$1,$4,$5*
1,1,$1+$1,$6,$7*
1,1,$1+$1,$8,$9*
0 Add four rect primitives between the rounded corners*
20,1,$1+$1,$2,$3,$4,$5,0*
20,1,$1+$1,$4,$5,$6,$7,0*
20,1,$1+$1,$6,$7,$8,$9,0*
20,1,$1+$1,$8,$9,$2,$3,0*%
G04 Aperture macros list end*
%TA.AperFunction,ComponentPad*%
%ADD10RoundRect,0.750000X-0.750000X-0.750000X0.750000X-0.750000X0.750000X0.750000X-0.750000X0.750000X0*%
%TD*%
%TA.AperFunction,ComponentPad*%
%ADD11C,0.800000*%
%TD*%
%TA.AperFunction,ComponentPad*%
%ADD12C,5.000000*%
%TD*%
%TA.AperFunction,ViaPad*%
%ADD13C,0.600000*%
%TD*%
%TA.AperFunction,ViaPad*%
%ADD14C,0.800000*%
%TD*%
G04 APERTURE END LIST*
D10*
%TO.N,GND1*%
%TO.C,H8*%
X160000000Y-96000000D03*
%TD*%
D11*
%TO.N,unconnected-(H2-Pad1)_1*%
%TO.C,H2*%
X157125000Y-71000000D03*
%TO.N,unconnected-(H2-Pad1)_5*%
X157674175Y-69674175D03*
%TO.N,unconnected-(H2-Pad1)_8*%
X157674175Y-72325825D03*
%TO.N,unconnected-(H2-Pad1)_2*%
X159000000Y-69125000D03*
D12*
%TO.N,unconnected-(H2-Pad1)*%
X159000000Y-71000000D03*
D11*
%TO.N,unconnected-(H2-Pad1)_4*%
X159000000Y-72875000D03*
%TO.N,unconnected-(H2-Pad1)_7*%
X160325825Y-69674175D03*
%TO.N,unconnected-(H2-Pad1)_6*%
X160325825Y-72325825D03*
%TO.N,unconnected-(H2-Pad1)_3*%
X160875000Y-71000000D03*
%TD*%
D10*
%TO.N,/DRV8323RSRGZR/PHASB*%
%TO.C,H6*%
X141000000Y-108000000D03*
%TD*%
D11*
%TO.N,unconnected-(H4-Pad1)_7*%
%TO.C,H4*%
X121125000Y-107000000D03*
%TO.N,unconnected-(H4-Pad1)_5*%
X121674175Y-105674175D03*
%TO.N,unconnected-(H4-Pad1)_3*%
X121674175Y-108325825D03*
%TO.N,unconnected-(H4-Pad1)*%
X123000000Y-105125000D03*
D12*
%TO.N,unconnected-(H4-Pad1)_4*%
X123000000Y-107000000D03*
D11*
%TO.N,unconnected-(H4-Pad1)_2*%
X123000000Y-108875000D03*
%TO.N,unconnected-(H4-Pad1)_8*%
X124325825Y-105674175D03*
%TO.N,unconnected-(H4-Pad1)_6*%
X124325825Y-108325825D03*
%TO.N,unconnected-(H4-Pad1)_1*%
X124875000Y-107000000D03*
%TD*%
D10*
%TO.N,/DRV8323RSRGZR/PHASC*%
%TO.C,H7*%
X151000000Y-108000000D03*
%TD*%
%TO.N,+36V*%
%TO.C,H9*%
X160000000Y-102000000D03*
%TD*%
D11*
%TO.N,unconnected-(H1-Pad1)_5*%
%TO.C,H1*%
X121125000Y-71000000D03*
%TO.N,unconnected-(H1-Pad1)_4*%
X121674175Y-69674175D03*
%TO.N,unconnected-(H1-Pad1)_8*%
X121674175Y-72325825D03*
%TO.N,unconnected-(H1-Pad1)_6*%
X123000000Y-69125000D03*
D12*
%TO.N,unconnected-(H1-Pad1)*%
X123000000Y-71000000D03*
D11*
%TO.N,unconnected-(H1-Pad1)_1*%
X123000000Y-72875000D03*
%TO.N,unconnected-(H1-Pad1)_7*%
X124325825Y-69674175D03*
%TO.N,unconnected-(H1-Pad1)_2*%
X124325825Y-72325825D03*
%TO.N,unconnected-(H1-Pad1)_3*%
X124875000Y-71000000D03*
%TD*%
%TO.N,unconnected-(H3-Pad1)_4*%
%TO.C,H3*%
X157125000Y-107000000D03*
%TO.N,unconnected-(H3-Pad1)_7*%
X157674175Y-105674175D03*
%TO.N,unconnected-(H3-Pad1)_8*%
X157674175Y-108325825D03*
%TO.N,unconnected-(H3-Pad1)_1*%
X159000000Y-105125000D03*
D12*
%TO.N,unconnected-(H3-Pad1)_2*%
X159000000Y-107000000D03*
D11*
%TO.N,unconnected-(H3-Pad1)_5*%
X159000000Y-108875000D03*
%TO.N,unconnected-(H3-Pad1)_6*%
X160325825Y-105674175D03*
%TO.N,unconnected-(H3-Pad1)*%
X160325825Y-108325825D03*
%TO.N,unconnected-(H3-Pad1)_3*%
X160875000Y-107000000D03*
%TD*%
D10*
%TO.N,/DRV8323RSRGZR/PHASA*%
%TO.C,H5*%
X131000000Y-108000000D03*
%TD*%
D13*
%TO.N,/SPI3_MOSI*%
X141526764Y-89874180D03*
%TO.N,/SPI3_MISO*%
X141510037Y-89121963D03*
%TO.N,+3.3V*%
X139573000Y-90551000D03*
%TO.N,/SPI3_SCK*%
X141366988Y-88371180D03*
%TO.N,/AS5047P_NSS*%
X141349563Y-87618980D03*
%TO.N,GND*%
X133985000Y-88265000D03*
X155702000Y-84836000D03*
X131445000Y-84455000D03*
X132715000Y-88265000D03*
X132715000Y-89535000D03*
X133985000Y-84455000D03*
X133985000Y-85725000D03*
X134620000Y-86360000D03*
X133350000Y-86360000D03*
X134500000Y-71360000D03*
X128510000Y-78760000D03*
X132588000Y-75819000D03*
X123571000Y-90805000D03*
X133985000Y-86995000D03*
X138810000Y-82650000D03*
X132715000Y-84455000D03*
D14*
X131191000Y-76962000D03*
D13*
X156230000Y-86920000D03*
X132080000Y-85090000D03*
X150114000Y-89281000D03*
X128500000Y-71330000D03*
X135255000Y-86995000D03*
X153560000Y-74670000D03*
X143486582Y-76812400D03*
X132080000Y-86360000D03*
X131445000Y-88265000D03*
X130810000Y-85090000D03*
X133350000Y-83820000D03*
X129540000Y-86360000D03*
X131445000Y-86995000D03*
X153060000Y-87120000D03*
X145415000Y-90678000D03*
X130810000Y-87630000D03*
X131445000Y-85725000D03*
X149225000Y-72517000D03*
X140335000Y-88138000D03*
X130810000Y-86360000D03*
X134620000Y-85090000D03*
X155702000Y-90678000D03*
X153550000Y-78510000D03*
X132080000Y-88900000D03*
X122263500Y-90080500D03*
X133350000Y-88900000D03*
X135255000Y-85725000D03*
X127390511Y-73857590D03*
X146304000Y-72517000D03*
X123130000Y-84740000D03*
X153145499Y-82765735D03*
X132715000Y-86995000D03*
X149500000Y-85680000D03*
X158650000Y-81780000D03*
X130175000Y-85725000D03*
X132080000Y-87630000D03*
X123140000Y-83830000D03*
X133350000Y-85090000D03*
X133350000Y-87630000D03*
X132715000Y-85725000D03*
X135890000Y-86360000D03*
X132080000Y-83820000D03*
X130175000Y-86995000D03*
X134620000Y-87630000D03*
X132715000Y-83185000D03*
%TO.N,+3.3V*%
X140970000Y-72517000D03*
X133520000Y-71350000D03*
X140970000Y-73660000D03*
X153550000Y-75760000D03*
X124497500Y-73951500D03*
X151070000Y-86170000D03*
X143550000Y-70870000D03*
X153670000Y-85598000D03*
X154940000Y-90678000D03*
X138800000Y-85490000D03*
X136652000Y-77724000D03*
X158660000Y-80780000D03*
X141351000Y-86866579D03*
X136652000Y-78359000D03*
X136652000Y-76962000D03*
X154310000Y-70860000D03*
X153523000Y-73533000D03*
%TO.N,+5V*%
X127381000Y-76309000D03*
X146939000Y-90356500D03*
X123571000Y-89662000D03*
%TO.N,/RESET*%
X151800000Y-75710000D03*
X150470000Y-82040000D03*
%TO.N,+36V*%
X147955000Y-100203000D03*
X149225000Y-101219000D03*
X143637000Y-103251000D03*
X139827000Y-100203000D03*
X139827000Y-102235000D03*
X142367000Y-101219000D03*
X149225000Y-100203000D03*
X123825000Y-98425000D03*
X149225000Y-102235000D03*
X122555000Y-101473000D03*
X147955000Y-101219000D03*
X142367000Y-103251000D03*
X139827000Y-101219000D03*
X147955000Y-103251000D03*
X122555000Y-99441000D03*
X139827000Y-103251000D03*
X125095000Y-98425000D03*
X123825000Y-101473000D03*
X145415000Y-101219000D03*
X122555000Y-100457000D03*
X147955000Y-102235000D03*
X143637000Y-100203000D03*
X141097000Y-102235000D03*
X141097000Y-101219000D03*
X142367000Y-100203000D03*
X145415000Y-102235000D03*
X145415000Y-103251000D03*
X142367000Y-102235000D03*
X149225000Y-103251000D03*
X145415000Y-100203000D03*
X126365000Y-101473000D03*
X146685000Y-102235000D03*
X129282341Y-89497659D03*
X126365000Y-99441000D03*
X123825000Y-99441000D03*
X143637000Y-101219000D03*
X141097000Y-103251000D03*
X126365000Y-98425000D03*
X125095000Y-101473000D03*
X146685000Y-101219000D03*
X125576500Y-85852000D03*
X125095000Y-100457000D03*
X126365000Y-100457000D03*
X146685000Y-100203000D03*
X122555000Y-98425000D03*
X125095000Y-99441000D03*
X123825000Y-100457000D03*
X141097000Y-100203000D03*
X143637000Y-102235000D03*
X146685000Y-103251000D03*
%TO.N,/DRV8323RSRGZR/PHASA*%
X129794000Y-103378000D03*
X131064000Y-104394000D03*
X125095000Y-102743000D03*
X131064000Y-103378000D03*
X125095000Y-103759000D03*
X128524000Y-104394000D03*
X128524000Y-103378000D03*
X122500000Y-102750000D03*
X123825000Y-103759000D03*
X132334000Y-104394000D03*
X129794000Y-104394000D03*
X123825000Y-102743000D03*
X132334000Y-103378000D03*
X122555000Y-103759000D03*
%TO.N,/DRV8323RSRGZR/PHASB*%
X138049000Y-103378000D03*
X142367000Y-104521000D03*
X141097000Y-105664000D03*
X138049000Y-104394000D03*
X135509000Y-104394000D03*
X134239000Y-103378000D03*
X139827000Y-105664000D03*
X135509000Y-103378000D03*
X134239000Y-104394000D03*
X139827000Y-104521000D03*
X136779000Y-103378000D03*
X136779000Y-104394000D03*
X142367000Y-105664000D03*
X141097000Y-104521000D03*
%TO.N,/DRV8323RSRGZR/PHASC*%
X146685000Y-105664000D03*
X151257000Y-100750000D03*
X151257000Y-99822000D03*
X145415000Y-104521000D03*
X146685000Y-104521000D03*
X153797000Y-99822000D03*
X147955000Y-105664000D03*
X147955000Y-104521000D03*
X155067000Y-99822000D03*
X145415000Y-105664000D03*
X152527000Y-100750000D03*
X155067000Y-100750000D03*
X153797000Y-100750000D03*
X152527000Y-99822000D03*
%TO.N,/SPI1_NSS*%
X149532410Y-76837464D03*
X139450000Y-71920000D03*
%TO.N,/SWDIO*%
X142426905Y-85741209D03*
X158623000Y-82780000D03*
%TO.N,/SWCLK*%
X143178854Y-85767327D03*
X158623000Y-83693000D03*
%TO.N,/DRV8323RSRGZR/SPA*%
X131826000Y-97155000D03*
X132588000Y-97155000D03*
X132588000Y-98044000D03*
X131064000Y-98044000D03*
X130302000Y-98044000D03*
X130302000Y-97155000D03*
X131826000Y-98044000D03*
X129540000Y-97155000D03*
X129540000Y-98044000D03*
%TO.N,/DRV8323RSRGZR/SPB*%
X135382000Y-97917000D03*
X136906000Y-97917000D03*
X135042409Y-91100409D03*
X137795000Y-97155000D03*
X133977590Y-91040000D03*
X137795000Y-97917000D03*
X136906000Y-97155000D03*
X135382000Y-97155000D03*
X136144000Y-97155000D03*
X136144000Y-97917000D03*
%TO.N,/MCU_STA*%
X145070000Y-76812400D03*
X147920000Y-71800000D03*
%TO.N,/DRV_STA*%
X146000000Y-76812400D03*
X149680000Y-71810000D03*
%TO.N,/SPI3_MISO*%
X144571063Y-83894605D03*
X136990000Y-83774614D03*
%TO.N,/SPI3_SCK*%
X144010000Y-82450000D03*
X137079595Y-82694066D03*
%TO.N,/SPI3_MOSI*%
X145300854Y-84077667D03*
X136472636Y-83228314D03*
%TO.N,GND1*%
X121539000Y-93726000D03*
X141224000Y-93980000D03*
X125984000Y-93726000D03*
X143510000Y-94742000D03*
X131699000Y-93980000D03*
X147447000Y-93980000D03*
X139700000Y-93980000D03*
X148209000Y-94742000D03*
X143510000Y-93980000D03*
X141986000Y-93980000D03*
X139700000Y-94742000D03*
X142748000Y-94742000D03*
X141986000Y-94742000D03*
X145923000Y-94742000D03*
X145161000Y-93980000D03*
X136652000Y-93980000D03*
X153797000Y-98425000D03*
X155067000Y-97282000D03*
X130048000Y-93980000D03*
X120650000Y-93726000D03*
X141224000Y-94742000D03*
X148971000Y-93980000D03*
X137541000Y-94742000D03*
X140462000Y-93980000D03*
X148209000Y-93980000D03*
X140462000Y-94742000D03*
X125095000Y-93726000D03*
X138303000Y-94742000D03*
X148971000Y-94742000D03*
X132461000Y-93980000D03*
X130810000Y-94742000D03*
X136652000Y-94742000D03*
X124206000Y-93726000D03*
X131699000Y-94742000D03*
X133220000Y-91560000D03*
X145161000Y-94742000D03*
X155067000Y-98425000D03*
X137541000Y-93980000D03*
X142748000Y-93980000D03*
X135574437Y-91632439D03*
X132461000Y-94742000D03*
X130048000Y-94742000D03*
X153670000Y-97282000D03*
X147447000Y-94742000D03*
X130810000Y-93980000D03*
X135890000Y-94742000D03*
X146685000Y-93980000D03*
X152527000Y-98425000D03*
X123317000Y-93726000D03*
X145923000Y-93980000D03*
X135890000Y-93980000D03*
X146685000Y-94742000D03*
%TO.N,/USART1_TX*%
X147762440Y-74382035D03*
X155194000Y-79740000D03*
%TO.N,/USART1_RX*%
X155190000Y-78780000D03*
X147020000Y-74260000D03*
%TO.N,/FDCAN_STB*%
X152730000Y-88260000D03*
X145419991Y-89010410D03*
%TO.N,/ADC1_IN2*%
X137654658Y-86397600D03*
X149168845Y-79518845D03*
%TO.N,/TIM1_CH1N*%
X131134624Y-80963846D03*
X143342950Y-80125913D03*
%TO.N,/DRV_SPI_NSS*%
X136525199Y-82161656D03*
X143139280Y-82376782D03*
%TO.N,/TIM1_CH3N*%
X129650000Y-83210000D03*
X141970001Y-79510000D03*
%TO.N,/TIM1_CH3*%
X143591684Y-81775584D03*
X129812883Y-82433748D03*
%TO.N,/TIM1_CH2*%
X130790381Y-81632878D03*
X143066033Y-81237253D03*
%TO.N,/TIM1_CH2N*%
X142654472Y-79822420D03*
X130042734Y-81717314D03*
%TO.N,/TIM1_CH1*%
X131834610Y-80668332D03*
X142400000Y-80887240D03*
%TO.N,/ADC1_IN1*%
X139460000Y-86578910D03*
X149616500Y-80126500D03*
%TD*%
%TA.AperFunction,Conductor*%
%TO.N,GND1*%
G36*
X161962677Y-92261423D02*
G01*
X161974100Y-92289000D01*
X161974100Y-98961000D01*
X161962677Y-98988577D01*
X161935100Y-99000000D01*
X129028110Y-99000000D01*
X129000533Y-98988577D01*
X128991111Y-98973333D01*
X128732214Y-98196643D01*
X128384998Y-97154996D01*
X128980715Y-97154996D01*
X128980715Y-97155003D01*
X128999771Y-97299753D01*
X129055644Y-97434641D01*
X129055645Y-97434643D01*
X129144527Y-97550476D01*
X129168094Y-97568560D01*
X129183018Y-97594410D01*
X129175292Y-97623242D01*
X129168094Y-97630440D01*
X129144527Y-97648523D01*
X129055645Y-97764357D01*
X129055644Y-97764359D01*
X128999770Y-97899249D01*
X128980715Y-98043996D01*
X128980715Y-98044003D01*
X128999771Y-98188753D01*
X129055644Y-98323641D01*
X129055645Y-98323643D01*
X129144525Y-98439474D01*
X129233406Y-98507674D01*
X129260357Y-98528355D01*
X129360303Y-98569754D01*
X129395246Y-98584228D01*
X129539997Y-98603285D01*
X129540000Y-98603285D01*
X129540003Y-98603285D01*
X129648565Y-98588992D01*
X129684754Y-98584228D01*
X129819643Y-98528355D01*
X129897258Y-98468797D01*
X129926090Y-98461073D01*
X129944741Y-98468797D01*
X130022357Y-98528355D01*
X130122303Y-98569754D01*
X130157246Y-98584228D01*
X130301997Y-98603285D01*
X130302000Y-98603285D01*
X130302003Y-98603285D01*
X130410565Y-98588992D01*
X130446754Y-98584228D01*
X130581643Y-98528355D01*
X130659258Y-98468797D01*
X130688090Y-98461073D01*
X130706741Y-98468797D01*
X130784357Y-98528355D01*
X130884303Y-98569754D01*
X130919246Y-98584228D01*
X131063997Y-98603285D01*
X131064000Y-98603285D01*
X131064003Y-98603285D01*
X131172565Y-98588992D01*
X131208754Y-98584228D01*
X131343643Y-98528355D01*
X131421258Y-98468797D01*
X131450090Y-98461073D01*
X131468741Y-98468797D01*
X131546357Y-98528355D01*
X131646303Y-98569754D01*
X131681246Y-98584228D01*
X131825997Y-98603285D01*
X131826000Y-98603285D01*
X131826003Y-98603285D01*
X131934565Y-98588992D01*
X131970754Y-98584228D01*
X132105643Y-98528355D01*
X132183258Y-98468797D01*
X132212090Y-98461073D01*
X132230741Y-98468797D01*
X132308357Y-98528355D01*
X132408303Y-98569754D01*
X132443246Y-98584228D01*
X132587997Y-98603285D01*
X132588000Y-98603285D01*
X132588003Y-98603285D01*
X132696565Y-98588992D01*
X132732754Y-98584228D01*
X132867643Y-98528355D01*
X132983474Y-98439474D01*
X133072355Y-98323643D01*
X133128228Y-98188754D01*
X133147285Y-98044000D01*
X133147285Y-98043996D01*
X133128229Y-97899249D01*
X133128228Y-97899246D01*
X133072355Y-97764358D01*
X132983474Y-97648526D01*
X132983472Y-97648525D01*
X132983472Y-97648524D01*
X132959906Y-97630441D01*
X132944981Y-97604591D01*
X132952706Y-97575759D01*
X132959906Y-97568559D01*
X132972909Y-97558580D01*
X132983474Y-97550474D01*
X133072355Y-97434643D01*
X133128228Y-97299754D01*
X133147285Y-97155000D01*
X133147285Y-97154996D01*
X134822715Y-97154996D01*
X134822715Y-97155003D01*
X134841771Y-97299753D01*
X134897644Y-97434641D01*
X134897645Y-97434643D01*
X134957201Y-97512258D01*
X134964926Y-97541091D01*
X134957201Y-97559741D01*
X134897648Y-97637353D01*
X134897644Y-97637359D01*
X134841770Y-97772249D01*
X134822715Y-97916996D01*
X134822715Y-97917003D01*
X134841771Y-98061753D01*
X134897644Y-98196641D01*
X134897645Y-98196643D01*
X134986525Y-98312474D01*
X135024741Y-98341798D01*
X135102357Y-98401355D01*
X135194384Y-98439474D01*
X135237246Y-98457228D01*
X135381997Y-98476285D01*
X135382000Y-98476285D01*
X135382003Y-98476285D01*
X135497548Y-98461073D01*
X135526754Y-98457228D01*
X135661643Y-98401355D01*
X135739258Y-98341797D01*
X135768090Y-98334073D01*
X135786741Y-98341797D01*
X135864357Y-98401355D01*
X135956384Y-98439474D01*
X135999246Y-98457228D01*
X136143997Y-98476285D01*
X136144000Y-98476285D01*
X136144003Y-98476285D01*
X136259548Y-98461073D01*
X136288754Y-98457228D01*
X136423643Y-98401355D01*
X136501258Y-98341797D01*
X136530090Y-98334073D01*
X136548741Y-98341797D01*
X136626357Y-98401355D01*
X136718384Y-98439474D01*
X136761246Y-98457228D01*
X136905997Y-98476285D01*
X136906000Y-98476285D01*
X136906003Y-98476285D01*
X137021548Y-98461073D01*
X137050754Y-98457228D01*
X137185643Y-98401355D01*
X137301474Y-98312474D01*
X137309580Y-98301909D01*
X137319559Y-98288906D01*
X137345409Y-98273981D01*
X137374241Y-98281706D01*
X137381441Y-98288906D01*
X137399524Y-98312472D01*
X137399526Y-98312474D01*
X137515357Y-98401355D01*
X137607384Y-98439474D01*
X137650246Y-98457228D01*
X137794997Y-98476285D01*
X137795000Y-98476285D01*
X137795003Y-98476285D01*
X137910548Y-98461073D01*
X137939754Y-98457228D01*
X138074643Y-98401355D01*
X138190474Y-98312474D01*
X138279355Y-98196643D01*
X138335228Y-98061754D01*
X138354285Y-97917000D01*
X138354285Y-97916996D01*
X138335229Y-97772249D01*
X138331961Y-97764359D01*
X138279355Y-97637358D01*
X138219796Y-97559740D01*
X138212072Y-97530910D01*
X138219798Y-97512258D01*
X138226310Y-97503772D01*
X138279355Y-97434643D01*
X138335228Y-97299754D01*
X138354285Y-97155000D01*
X138354285Y-97154996D01*
X138335229Y-97010249D01*
X138279355Y-96875359D01*
X138279354Y-96875357D01*
X138190474Y-96759525D01*
X138074643Y-96670645D01*
X138074641Y-96670644D01*
X137939753Y-96614771D01*
X137795003Y-96595715D01*
X137794997Y-96595715D01*
X137650249Y-96614770D01*
X137515359Y-96670644D01*
X137515357Y-96670645D01*
X137399523Y-96759527D01*
X137381440Y-96783094D01*
X137355590Y-96798018D01*
X137326758Y-96790292D01*
X137319560Y-96783094D01*
X137301476Y-96759527D01*
X137185643Y-96670645D01*
X137185641Y-96670644D01*
X137050753Y-96614771D01*
X136906003Y-96595715D01*
X136905997Y-96595715D01*
X136761249Y-96614770D01*
X136626359Y-96670644D01*
X136626353Y-96670648D01*
X136548741Y-96730201D01*
X136519909Y-96737926D01*
X136501258Y-96730201D01*
X136423643Y-96670645D01*
X136423641Y-96670644D01*
X136288753Y-96614771D01*
X136144003Y-96595715D01*
X136143997Y-96595715D01*
X135999249Y-96614770D01*
X135864359Y-96670644D01*
X135864353Y-96670648D01*
X135786741Y-96730201D01*
X135757909Y-96737926D01*
X135739258Y-96730201D01*
X135661643Y-96670645D01*
X135661641Y-96670644D01*
X135526753Y-96614771D01*
X135382003Y-96595715D01*
X135381997Y-96595715D01*
X135237249Y-96614770D01*
X135102359Y-96670644D01*
X135102357Y-96670645D01*
X134986525Y-96759525D01*
X134897645Y-96875357D01*
X134897644Y-96875359D01*
X134841770Y-97010249D01*
X134822715Y-97154996D01*
X133147285Y-97154996D01*
X133128229Y-97010249D01*
X133072355Y-96875359D01*
X133072354Y-96875357D01*
X132983474Y-96759525D01*
X132867643Y-96670645D01*
X132867641Y-96670644D01*
X132732753Y-96614771D01*
X132588003Y-96595715D01*
X132587997Y-96595715D01*
X132443249Y-96614770D01*
X132308359Y-96670644D01*
X132308353Y-96670648D01*
X132230741Y-96730201D01*
X132201909Y-96737926D01*
X132183258Y-96730201D01*
X132105643Y-96670645D01*
X132105641Y-96670644D01*
X131970753Y-96614771D01*
X131826003Y-96595715D01*
X131825997Y-96595715D01*
X131681249Y-96614770D01*
X131546359Y-96670644D01*
X131546357Y-96670645D01*
X131430525Y-96759525D01*
X131341645Y-96875357D01*
X131341644Y-96875359D01*
X131285770Y-97010249D01*
X131266715Y-97154996D01*
X131266715Y-97155003D01*
X131285771Y-97299753D01*
X131341644Y-97434641D01*
X131341645Y-97434643D01*
X131392907Y-97501448D01*
X131400632Y-97530280D01*
X131385708Y-97556131D01*
X131356876Y-97563856D01*
X131346168Y-97560224D01*
X131346004Y-97560623D01*
X131208753Y-97503771D01*
X131064003Y-97484715D01*
X131063997Y-97484715D01*
X130919249Y-97503770D01*
X130781997Y-97560623D01*
X130781533Y-97559503D01*
X130755899Y-97562852D01*
X130732237Y-97544656D01*
X130728371Y-97515058D01*
X130735091Y-97501450D01*
X130786355Y-97434643D01*
X130842228Y-97299754D01*
X130861285Y-97155000D01*
X130861285Y-97154996D01*
X130842229Y-97010249D01*
X130786355Y-96875359D01*
X130786354Y-96875357D01*
X130697474Y-96759525D01*
X130581643Y-96670645D01*
X130581641Y-96670644D01*
X130446753Y-96614771D01*
X130302003Y-96595715D01*
X130301997Y-96595715D01*
X130157249Y-96614770D01*
X130022359Y-96670644D01*
X130022353Y-96670648D01*
X129944741Y-96730201D01*
X129915909Y-96737926D01*
X129897258Y-96730201D01*
X129819643Y-96670645D01*
X129819641Y-96670644D01*
X129684753Y-96614771D01*
X129540003Y-96595715D01*
X129539997Y-96595715D01*
X129395249Y-96614770D01*
X129260359Y-96670644D01*
X129260357Y-96670645D01*
X129144525Y-96759525D01*
X129055645Y-96875357D01*
X129055644Y-96875359D01*
X128999770Y-97010249D01*
X128980715Y-97154996D01*
X128384998Y-97154996D01*
X127500000Y-94500000D01*
X127499999Y-94500000D01*
X120064900Y-94500000D01*
X120037323Y-94488577D01*
X120025900Y-94461000D01*
X120025900Y-92289000D01*
X120037323Y-92261423D01*
X120064900Y-92250000D01*
X161935100Y-92250000D01*
X161962677Y-92261423D01*
G37*
%TD.AperFunction*%
%TD*%
%TA.AperFunction,Conductor*%
%TO.N,+36V*%
G36*
X126999467Y-95011423D02*
G01*
X127008889Y-95026667D01*
X128500000Y-99500000D01*
X150731823Y-99500000D01*
X150759400Y-99511423D01*
X150770823Y-99539000D01*
X150767854Y-99553925D01*
X150716770Y-99677249D01*
X150697715Y-99821996D01*
X150697715Y-99822003D01*
X150716771Y-99966753D01*
X150772644Y-100101641D01*
X150772645Y-100101643D01*
X150861525Y-100217474D01*
X150910507Y-100255059D01*
X150925431Y-100280910D01*
X150917706Y-100309742D01*
X150910507Y-100316941D01*
X150861525Y-100354525D01*
X150772645Y-100470357D01*
X150772644Y-100470359D01*
X150716770Y-100605249D01*
X150697715Y-100749996D01*
X150697715Y-100750003D01*
X150716771Y-100894753D01*
X150772644Y-101029641D01*
X150772645Y-101029643D01*
X150861525Y-101145474D01*
X150950406Y-101213674D01*
X150977357Y-101234355D01*
X151112246Y-101290228D01*
X151256997Y-101309285D01*
X151257000Y-101309285D01*
X151257003Y-101309285D01*
X151365565Y-101294992D01*
X151401754Y-101290228D01*
X151536643Y-101234355D01*
X151652474Y-101145474D01*
X151741355Y-101029643D01*
X151797228Y-100894754D01*
X151816285Y-100750000D01*
X151816285Y-100749996D01*
X151797229Y-100605249D01*
X151741355Y-100470359D01*
X151741354Y-100470357D01*
X151652474Y-100354525D01*
X151603492Y-100316941D01*
X151588568Y-100291091D01*
X151596293Y-100262258D01*
X151603492Y-100255059D01*
X151652474Y-100217474D01*
X151741355Y-100101643D01*
X151797228Y-99966754D01*
X151816285Y-99822000D01*
X151816285Y-99821996D01*
X151797229Y-99677249D01*
X151746146Y-99553925D01*
X151746146Y-99524075D01*
X151767252Y-99502969D01*
X151782177Y-99500000D01*
X152001823Y-99500000D01*
X152029400Y-99511423D01*
X152040823Y-99539000D01*
X152037854Y-99553925D01*
X151986770Y-99677249D01*
X151967715Y-99821996D01*
X151967715Y-99822003D01*
X151986771Y-99966753D01*
X152042644Y-100101641D01*
X152042645Y-100101643D01*
X152131525Y-100217474D01*
X152180507Y-100255059D01*
X152195431Y-100280910D01*
X152187706Y-100309742D01*
X152180507Y-100316941D01*
X152131525Y-100354525D01*
X152042645Y-100470357D01*
X152042644Y-100470359D01*
X151986770Y-100605249D01*
X151967715Y-100749996D01*
X151967715Y-100750003D01*
X151986771Y-100894753D01*
X152042644Y-101029641D01*
X152042645Y-101029643D01*
X152131525Y-101145474D01*
X152220406Y-101213674D01*
X152247357Y-101234355D01*
X152382246Y-101290228D01*
X152526997Y-101309285D01*
X152527000Y-101309285D01*
X152527003Y-101309285D01*
X152635565Y-101294992D01*
X152671754Y-101290228D01*
X152806643Y-101234355D01*
X152922474Y-101145474D01*
X153011355Y-101029643D01*
X153067228Y-100894754D01*
X153086285Y-100750000D01*
X153086285Y-100749996D01*
X153067229Y-100605249D01*
X153011355Y-100470359D01*
X153011354Y-100470357D01*
X152922474Y-100354525D01*
X152873492Y-100316941D01*
X152858568Y-100291091D01*
X152866293Y-100262258D01*
X152873492Y-100255059D01*
X152922474Y-100217474D01*
X153011355Y-100101643D01*
X153067228Y-99966754D01*
X153086285Y-99822000D01*
X153086285Y-99821996D01*
X153067229Y-99677249D01*
X153016146Y-99553925D01*
X153016146Y-99524075D01*
X153037252Y-99502969D01*
X153052177Y-99500000D01*
X153271823Y-99500000D01*
X153299400Y-99511423D01*
X153310823Y-99539000D01*
X153307854Y-99553925D01*
X153256770Y-99677249D01*
X153237715Y-99821996D01*
X153237715Y-99822003D01*
X153256771Y-99966753D01*
X153312644Y-100101641D01*
X153312645Y-100101643D01*
X153401525Y-100217474D01*
X153450507Y-100255059D01*
X153465431Y-100280910D01*
X153457706Y-100309742D01*
X153450507Y-100316941D01*
X153401525Y-100354525D01*
X153312645Y-100470357D01*
X153312644Y-100470359D01*
X153256770Y-100605249D01*
X153237715Y-100749996D01*
X153237715Y-100750003D01*
X153256771Y-100894753D01*
X153312644Y-101029641D01*
X153312645Y-101029643D01*
X153401525Y-101145474D01*
X153490406Y-101213674D01*
X153517357Y-101234355D01*
X153652246Y-101290228D01*
X153796997Y-101309285D01*
X153797000Y-101309285D01*
X153797003Y-101309285D01*
X153905565Y-101294992D01*
X153941754Y-101290228D01*
X154076643Y-101234355D01*
X154192474Y-101145474D01*
X154281355Y-101029643D01*
X154337228Y-100894754D01*
X154356285Y-100750000D01*
X154356285Y-100749996D01*
X154337229Y-100605249D01*
X154281355Y-100470359D01*
X154281354Y-100470357D01*
X154192474Y-100354525D01*
X154143492Y-100316941D01*
X154128568Y-100291091D01*
X154136293Y-100262258D01*
X154143492Y-100255059D01*
X154192474Y-100217474D01*
X154281355Y-100101643D01*
X154337228Y-99966754D01*
X154356285Y-99822000D01*
X154356285Y-99821996D01*
X154337229Y-99677249D01*
X154286146Y-99553925D01*
X154286146Y-99524075D01*
X154307252Y-99502969D01*
X154322177Y-99500000D01*
X154541823Y-99500000D01*
X154569400Y-99511423D01*
X154580823Y-99539000D01*
X154577854Y-99553925D01*
X154526770Y-99677249D01*
X154507715Y-99821996D01*
X154507715Y-99822003D01*
X154526771Y-99966753D01*
X154582644Y-100101641D01*
X154582645Y-100101643D01*
X154671525Y-100217474D01*
X154720507Y-100255059D01*
X154735431Y-100280910D01*
X154727706Y-100309742D01*
X154720507Y-100316941D01*
X154671525Y-100354525D01*
X154582645Y-100470357D01*
X154582644Y-100470359D01*
X154526770Y-100605249D01*
X154507715Y-100749996D01*
X154507715Y-100750003D01*
X154526771Y-100894753D01*
X154582644Y-101029641D01*
X154582645Y-101029643D01*
X154671525Y-101145474D01*
X154760406Y-101213674D01*
X154787357Y-101234355D01*
X154922246Y-101290228D01*
X155066997Y-101309285D01*
X155067000Y-101309285D01*
X155067003Y-101309285D01*
X155175565Y-101294992D01*
X155211754Y-101290228D01*
X155346643Y-101234355D01*
X155462474Y-101145474D01*
X155551355Y-101029643D01*
X155607228Y-100894754D01*
X155626285Y-100750000D01*
X155626285Y-100749996D01*
X155607229Y-100605249D01*
X155551355Y-100470359D01*
X155551354Y-100470357D01*
X155462474Y-100354525D01*
X155413492Y-100316941D01*
X155398568Y-100291091D01*
X155406293Y-100262258D01*
X155413492Y-100255059D01*
X155462474Y-100217474D01*
X155551355Y-100101643D01*
X155607228Y-99966754D01*
X155626285Y-99822000D01*
X155626285Y-99821996D01*
X155607229Y-99677249D01*
X155556146Y-99553925D01*
X155556146Y-99524075D01*
X155577252Y-99502969D01*
X155592177Y-99500000D01*
X161935100Y-99500000D01*
X161962677Y-99511423D01*
X161974100Y-99539000D01*
X161974100Y-106998970D01*
X161974047Y-107001011D01*
X161957914Y-107308839D01*
X161957487Y-107312899D01*
X161909428Y-107616333D01*
X161908579Y-107620326D01*
X161829066Y-107917070D01*
X161827805Y-107920952D01*
X161717707Y-108207768D01*
X161716046Y-108211498D01*
X161576573Y-108485229D01*
X161574532Y-108488764D01*
X161407210Y-108746417D01*
X161404811Y-108749719D01*
X161211472Y-108988473D01*
X161208740Y-108991507D01*
X160991507Y-109208740D01*
X160988473Y-109211472D01*
X160749719Y-109404811D01*
X160746417Y-109407210D01*
X160488764Y-109574532D01*
X160485229Y-109576573D01*
X160211498Y-109716046D01*
X160207768Y-109717707D01*
X159920952Y-109827805D01*
X159917070Y-109829066D01*
X159620326Y-109908579D01*
X159616333Y-109909428D01*
X159312899Y-109957487D01*
X159308839Y-109957914D01*
X159001011Y-109974047D01*
X158998970Y-109974100D01*
X123001030Y-109974100D01*
X122998989Y-109974047D01*
X122691160Y-109957914D01*
X122687100Y-109957487D01*
X122383666Y-109909428D01*
X122379673Y-109908579D01*
X122082929Y-109829066D01*
X122079047Y-109827805D01*
X121792231Y-109717707D01*
X121788501Y-109716046D01*
X121514770Y-109576573D01*
X121511235Y-109574532D01*
X121253582Y-109407210D01*
X121250280Y-109404811D01*
X121011526Y-109211472D01*
X121008492Y-109208740D01*
X120791259Y-108991507D01*
X120788527Y-108988473D01*
X120739659Y-108928126D01*
X120595186Y-108749717D01*
X120592789Y-108746417D01*
X120425467Y-108488764D01*
X120423426Y-108485229D01*
X120283953Y-108211498D01*
X120282292Y-108207768D01*
X120272690Y-108182754D01*
X120172192Y-107920947D01*
X120170933Y-107917070D01*
X120091420Y-107620326D01*
X120090573Y-107616342D01*
X120042511Y-107312897D01*
X120042085Y-107308839D01*
X120025953Y-107001011D01*
X120025927Y-107000000D01*
X120240465Y-107000000D01*
X120260584Y-107332626D01*
X120260585Y-107332630D01*
X120320651Y-107660400D01*
X120419787Y-107978538D01*
X120419789Y-107978545D01*
X120556552Y-108282418D01*
X120556553Y-108282420D01*
X120728947Y-108567595D01*
X120934458Y-108829910D01*
X121170090Y-109065542D01*
X121432405Y-109271053D01*
X121717580Y-109443447D01*
X121869517Y-109511828D01*
X122021454Y-109580210D01*
X122021461Y-109580212D01*
X122339599Y-109679348D01*
X122667369Y-109739414D01*
X122667373Y-109739415D01*
X122703270Y-109741586D01*
X123000000Y-109759535D01*
X123313653Y-109740562D01*
X123332626Y-109739415D01*
X123332630Y-109739414D01*
X123451082Y-109717707D01*
X123660400Y-109679348D01*
X123978545Y-109580210D01*
X124282420Y-109443447D01*
X124567595Y-109271053D01*
X124829910Y-109065542D01*
X125065542Y-108829910D01*
X125271053Y-108567595D01*
X125443447Y-108282420D01*
X125580210Y-107978545D01*
X125679348Y-107660400D01*
X125739415Y-107332625D01*
X125747937Y-107191738D01*
X129245500Y-107191738D01*
X129245500Y-108808262D01*
X129247425Y-108829910D01*
X129256156Y-108928126D01*
X129312358Y-109124541D01*
X129356340Y-109208740D01*
X129406946Y-109305620D01*
X129536048Y-109463952D01*
X129694380Y-109593054D01*
X129875460Y-109687642D01*
X130071872Y-109743843D01*
X130191738Y-109754500D01*
X130191745Y-109754500D01*
X131808255Y-109754500D01*
X131808262Y-109754500D01*
X131928128Y-109743843D01*
X132124540Y-109687642D01*
X132305620Y-109593054D01*
X132463952Y-109463952D01*
X132593054Y-109305620D01*
X132687642Y-109124540D01*
X132743843Y-108928128D01*
X132754500Y-108808262D01*
X132754500Y-107191738D01*
X139245500Y-107191738D01*
X139245500Y-108808262D01*
X139247425Y-108829910D01*
X139256156Y-108928126D01*
X139312358Y-109124541D01*
X139356340Y-109208740D01*
X139406946Y-109305620D01*
X139536048Y-109463952D01*
X139694380Y-109593054D01*
X139875460Y-109687642D01*
X140071872Y-109743843D01*
X140191738Y-109754500D01*
X140191745Y-109754500D01*
X141808255Y-109754500D01*
X141808262Y-109754500D01*
X141928128Y-109743843D01*
X142124540Y-109687642D01*
X142305620Y-109593054D01*
X142463952Y-109463952D01*
X142593054Y-109305620D01*
X142687642Y-109124540D01*
X142743843Y-108928128D01*
X142754500Y-108808262D01*
X142754500Y-107191738D01*
X149245500Y-107191738D01*
X149245500Y-108808262D01*
X149247425Y-108829910D01*
X149256156Y-108928126D01*
X149312358Y-109124541D01*
X149356340Y-109208740D01*
X149406946Y-109305620D01*
X149536048Y-109463952D01*
X149694380Y-109593054D01*
X149875460Y-109687642D01*
X150071872Y-109743843D01*
X150191738Y-109754500D01*
X150191745Y-109754500D01*
X151808255Y-109754500D01*
X151808262Y-109754500D01*
X151928128Y-109743843D01*
X152124540Y-109687642D01*
X152305620Y-109593054D01*
X152463952Y-109463952D01*
X152593054Y-109305620D01*
X152687642Y-109124540D01*
X152743843Y-108928128D01*
X152754500Y-108808262D01*
X152754500Y-107191738D01*
X152743843Y-107071872D01*
X152723278Y-107000000D01*
X156240465Y-107000000D01*
X156260584Y-107332626D01*
X156260585Y-107332630D01*
X156320651Y-107660400D01*
X156419787Y-107978538D01*
X156419789Y-107978545D01*
X156556552Y-108282418D01*
X156556553Y-108282420D01*
X156728947Y-108567595D01*
X156934458Y-108829910D01*
X157170090Y-109065542D01*
X157432405Y-109271053D01*
X157717580Y-109443447D01*
X157869517Y-109511828D01*
X158021454Y-109580210D01*
X158021461Y-109580212D01*
X158339599Y-109679348D01*
X158667369Y-109739414D01*
X158667373Y-109739415D01*
X158703270Y-109741586D01*
X159000000Y-109759535D01*
X159313653Y-109740562D01*
X159332626Y-109739415D01*
X159332630Y-109739414D01*
X159451082Y-109717707D01*
X159660400Y-109679348D01*
X159978545Y-109580210D01*
X160282420Y-109443447D01*
X160567595Y-109271053D01*
X160829910Y-109065542D01*
X161065542Y-108829910D01*
X161271053Y-108567595D01*
X161443447Y-108282420D01*
X161580210Y-107978545D01*
X161679348Y-107660400D01*
X161739415Y-107332625D01*
X161759535Y-107000000D01*
X161741586Y-106703270D01*
X161739415Y-106667373D01*
X161739414Y-106667369D01*
X161679348Y-106339599D01*
X161580212Y-106021461D01*
X161580210Y-106021454D01*
X161484481Y-105808754D01*
X161443447Y-105717580D01*
X161271053Y-105432405D01*
X161065542Y-105170090D01*
X160829910Y-104934458D01*
X160567595Y-104728947D01*
X160282420Y-104556553D01*
X160282418Y-104556552D01*
X159978545Y-104419789D01*
X159978538Y-104419787D01*
X159660400Y-104320651D01*
X159332630Y-104260585D01*
X159332626Y-104260584D01*
X159000000Y-104240465D01*
X158667373Y-104260584D01*
X158667369Y-104260585D01*
X158339599Y-104320651D01*
X158021461Y-104419787D01*
X158021454Y-104419789D01*
X157717581Y-104556552D01*
X157432405Y-104728947D01*
X157170093Y-104934455D01*
X157170087Y-104934460D01*
X156934460Y-105170087D01*
X156934455Y-105170093D01*
X156728947Y-105432405D01*
X156556552Y-105717581D01*
X156419789Y-106021454D01*
X156419787Y-106021461D01*
X156320651Y-106339599D01*
X156260585Y-106667369D01*
X156260584Y-106667373D01*
X156240465Y-107000000D01*
X152723278Y-107000000D01*
X152687642Y-106875460D01*
X152593054Y-106694380D01*
X152463952Y-106536048D01*
X152305620Y-106406946D01*
X152215080Y-106359652D01*
X152124541Y-106312358D01*
X151928126Y-106256156D01*
X151859899Y-106250090D01*
X151808262Y-106245500D01*
X150191738Y-106245500D01*
X150143094Y-106249824D01*
X150071873Y-106256156D01*
X149875458Y-106312358D01*
X149694380Y-106406946D01*
X149694377Y-106406948D01*
X149536048Y-106536048D01*
X149406948Y-106694377D01*
X149406946Y-106694380D01*
X149312358Y-106875458D01*
X149256156Y-107071873D01*
X149249824Y-107143094D01*
X149245500Y-107191738D01*
X142754500Y-107191738D01*
X142743843Y-107071872D01*
X142687642Y-106875460D01*
X142593054Y-106694380D01*
X142463952Y-106536048D01*
X142305620Y-106406946D01*
X142215080Y-106359652D01*
X142124541Y-106312358D01*
X141928126Y-106256156D01*
X141859899Y-106250090D01*
X141808262Y-106245500D01*
X141338181Y-106245500D01*
X141310604Y-106234077D01*
X141299181Y-106206500D01*
X141310604Y-106178923D01*
X141323256Y-106170469D01*
X141338213Y-106164273D01*
X141376643Y-106148355D01*
X141492474Y-106059474D01*
X141581355Y-105943643D01*
X141637228Y-105808754D01*
X141656285Y-105664000D01*
X141656285Y-105663996D01*
X141637229Y-105519249D01*
X141581355Y-105384359D01*
X141581354Y-105384357D01*
X141492474Y-105268525D01*
X141376643Y-105179645D01*
X141376641Y-105179644D01*
X141253244Y-105128531D01*
X141232138Y-105107425D01*
X141232138Y-105077575D01*
X141253244Y-105056469D01*
X141288115Y-105042024D01*
X141376643Y-105005355D01*
X141492474Y-104916474D01*
X141581355Y-104800643D01*
X141637228Y-104665754D01*
X141641992Y-104629565D01*
X141656285Y-104521003D01*
X141656285Y-104520996D01*
X141807715Y-104520996D01*
X141807715Y-104521003D01*
X141826771Y-104665753D01*
X141882644Y-104800641D01*
X141882645Y-104800643D01*
X141971525Y-104916474D01*
X142060406Y-104984674D01*
X142087357Y-105005355D01*
X142156378Y-105033944D01*
X142210756Y-105056469D01*
X142231862Y-105077575D01*
X142231862Y-105107425D01*
X142210756Y-105128531D01*
X142087359Y-105179644D01*
X142087357Y-105179645D01*
X141971525Y-105268525D01*
X141882645Y-105384357D01*
X141882644Y-105384359D01*
X141826770Y-105519249D01*
X141807715Y-105663996D01*
X141807715Y-105664003D01*
X141826771Y-105808753D01*
X141882644Y-105943641D01*
X141882645Y-105943643D01*
X141971525Y-106059474D01*
X142060406Y-106127674D01*
X142087357Y-106148355D01*
X142219979Y-106203289D01*
X142222246Y-106204228D01*
X142366997Y-106223285D01*
X142367000Y-106223285D01*
X142367003Y-106223285D01*
X142494496Y-106206500D01*
X142511754Y-106204228D01*
X142646643Y-106148355D01*
X142762474Y-106059474D01*
X142851355Y-105943643D01*
X142907228Y-105808754D01*
X142926285Y-105664000D01*
X142926285Y-105663996D01*
X142907229Y-105519249D01*
X142851355Y-105384359D01*
X142851354Y-105384357D01*
X142762474Y-105268525D01*
X142646643Y-105179645D01*
X142646641Y-105179644D01*
X142523244Y-105128531D01*
X142502138Y-105107425D01*
X142502138Y-105077575D01*
X142523244Y-105056469D01*
X142558115Y-105042024D01*
X142646643Y-105005355D01*
X142762474Y-104916474D01*
X142851355Y-104800643D01*
X142907228Y-104665754D01*
X142911992Y-104629565D01*
X142926285Y-104521003D01*
X142926285Y-104520996D01*
X144855715Y-104520996D01*
X144855715Y-104521003D01*
X144874771Y-104665753D01*
X144930644Y-104800641D01*
X144930645Y-104800643D01*
X145019525Y-104916474D01*
X145108406Y-104984674D01*
X145135357Y-105005355D01*
X145204378Y-105033944D01*
X145258756Y-105056469D01*
X145279862Y-105077575D01*
X145279862Y-105107425D01*
X145258756Y-105128531D01*
X145135359Y-105179644D01*
X145135357Y-105179645D01*
X145019525Y-105268525D01*
X144930645Y-105384357D01*
X144930644Y-105384359D01*
X144874770Y-105519249D01*
X144855715Y-105663996D01*
X144855715Y-105664003D01*
X144874771Y-105808753D01*
X144930644Y-105943641D01*
X144930645Y-105943643D01*
X145019525Y-106059474D01*
X145108406Y-106127674D01*
X145135357Y-106148355D01*
X145267979Y-106203289D01*
X145270246Y-106204228D01*
X145414997Y-106223285D01*
X145415000Y-106223285D01*
X145415003Y-106223285D01*
X145542496Y-106206500D01*
X145559754Y-106204228D01*
X145694643Y-106148355D01*
X145810474Y-106059474D01*
X145899355Y-105943643D01*
X145955228Y-105808754D01*
X145974285Y-105664000D01*
X145974285Y-105663996D01*
X145955229Y-105519249D01*
X145899355Y-105384359D01*
X145899354Y-105384357D01*
X145810474Y-105268525D01*
X145694643Y-105179645D01*
X145694641Y-105179644D01*
X145571244Y-105128531D01*
X145550138Y-105107425D01*
X145550138Y-105077575D01*
X145571244Y-105056469D01*
X145606115Y-105042024D01*
X145694643Y-105005355D01*
X145810474Y-104916474D01*
X145899355Y-104800643D01*
X145955228Y-104665754D01*
X145959992Y-104629565D01*
X145974285Y-104521003D01*
X145974285Y-104520996D01*
X146125715Y-104520996D01*
X146125715Y-104521003D01*
X146144771Y-104665753D01*
X146200644Y-104800641D01*
X146200645Y-104800643D01*
X146289525Y-104916474D01*
X146378406Y-104984674D01*
X146405357Y-105005355D01*
X146474378Y-105033944D01*
X146528756Y-105056469D01*
X146549862Y-105077575D01*
X146549862Y-105107425D01*
X146528756Y-105128531D01*
X146405359Y-105179644D01*
X146405357Y-105179645D01*
X146289525Y-105268525D01*
X146200645Y-105384357D01*
X146200644Y-105384359D01*
X146144770Y-105519249D01*
X146125715Y-105663996D01*
X146125715Y-105664003D01*
X146144771Y-105808753D01*
X146200644Y-105943641D01*
X146200645Y-105943643D01*
X146289525Y-106059474D01*
X146378406Y-106127674D01*
X146405357Y-106148355D01*
X146537979Y-106203289D01*
X146540246Y-106204228D01*
X146684997Y-106223285D01*
X146685000Y-106223285D01*
X146685003Y-106223285D01*
X146812496Y-106206500D01*
X146829754Y-106204228D01*
X146964643Y-106148355D01*
X147080474Y-106059474D01*
X147169355Y-105943643D01*
X147225228Y-105808754D01*
X147244285Y-105664000D01*
X147244285Y-105663996D01*
X147225229Y-105519249D01*
X147169355Y-105384359D01*
X147169354Y-105384357D01*
X147080474Y-105268525D01*
X146964643Y-105179645D01*
X146964641Y-105179644D01*
X146841244Y-105128531D01*
X146820138Y-105107425D01*
X146820138Y-105077575D01*
X146841244Y-105056469D01*
X146876115Y-105042024D01*
X146964643Y-105005355D01*
X147080474Y-104916474D01*
X147169355Y-104800643D01*
X147225228Y-104665754D01*
X147229992Y-104629565D01*
X147244285Y-104521003D01*
X147244285Y-104520996D01*
X147395715Y-104520996D01*
X147395715Y-104521003D01*
X147414771Y-104665753D01*
X147470644Y-104800641D01*
X147470645Y-104800643D01*
X147559525Y-104916474D01*
X147648406Y-104984674D01*
X147675357Y-105005355D01*
X147744378Y-105033944D01*
X147798756Y-105056469D01*
X147819862Y-105077575D01*
X147819862Y-105107425D01*
X147798756Y-105128531D01*
X147675359Y-105179644D01*
X147675357Y-105179645D01*
X147559525Y-105268525D01*
X147470645Y-105384357D01*
X147470644Y-105384359D01*
X147414770Y-105519249D01*
X147395715Y-105663996D01*
X147395715Y-105664003D01*
X147414771Y-105808753D01*
X147470644Y-105943641D01*
X147470645Y-105943643D01*
X147559525Y-106059474D01*
X147648406Y-106127674D01*
X147675357Y-106148355D01*
X147807979Y-106203289D01*
X147810246Y-106204228D01*
X147954997Y-106223285D01*
X147955000Y-106223285D01*
X147955003Y-106223285D01*
X148082496Y-106206500D01*
X148099754Y-106204228D01*
X148234643Y-106148355D01*
X148350474Y-106059474D01*
X148439355Y-105943643D01*
X148495228Y-105808754D01*
X148514285Y-105664000D01*
X148514285Y-105663996D01*
X148495229Y-105519249D01*
X148439355Y-105384359D01*
X148439354Y-105384357D01*
X148350474Y-105268525D01*
X148234643Y-105179645D01*
X148234641Y-105179644D01*
X148111244Y-105128531D01*
X148090138Y-105107425D01*
X148090138Y-105077575D01*
X148111244Y-105056469D01*
X148146115Y-105042024D01*
X148234643Y-105005355D01*
X148350474Y-104916474D01*
X148439355Y-104800643D01*
X148495228Y-104665754D01*
X148499992Y-104629565D01*
X148514285Y-104521003D01*
X148514285Y-104520996D01*
X148495229Y-104376249D01*
X148472200Y-104320652D01*
X148439355Y-104241358D01*
X148372687Y-104154474D01*
X148350474Y-104125525D01*
X148234643Y-104036645D01*
X148234641Y-104036644D01*
X148099753Y-103980771D01*
X147955003Y-103961715D01*
X147954997Y-103961715D01*
X147810249Y-103980770D01*
X147675359Y-104036644D01*
X147675357Y-104036645D01*
X147559525Y-104125525D01*
X147470645Y-104241357D01*
X147470644Y-104241359D01*
X147414770Y-104376249D01*
X147395715Y-104520996D01*
X147244285Y-104520996D01*
X147225229Y-104376249D01*
X147202200Y-104320652D01*
X147169355Y-104241358D01*
X147102687Y-104154474D01*
X147080474Y-104125525D01*
X146964643Y-104036645D01*
X146964641Y-104036644D01*
X146829753Y-103980771D01*
X146685003Y-103961715D01*
X146684997Y-103961715D01*
X146540249Y-103980770D01*
X146405359Y-104036644D01*
X146405357Y-104036645D01*
X146289525Y-104125525D01*
X146200645Y-104241357D01*
X146200644Y-104241359D01*
X146144770Y-104376249D01*
X146125715Y-104520996D01*
X145974285Y-104520996D01*
X145955229Y-104376249D01*
X145932200Y-104320652D01*
X145899355Y-104241358D01*
X145832687Y-104154474D01*
X145810474Y-104125525D01*
X145694643Y-104036645D01*
X145694641Y-104036644D01*
X145559753Y-103980771D01*
X145415003Y-103961715D01*
X145414997Y-103961715D01*
X145270249Y-103980770D01*
X145135359Y-104036644D01*
X145135357Y-104036645D01*
X145019525Y-104125525D01*
X144930645Y-104241357D01*
X144930644Y-104241359D01*
X144874770Y-104376249D01*
X144855715Y-104520996D01*
X142926285Y-104520996D01*
X142907229Y-104376249D01*
X142884200Y-104320652D01*
X142851355Y-104241358D01*
X142784687Y-104154474D01*
X142762474Y-104125525D01*
X142646643Y-104036645D01*
X142646641Y-104036644D01*
X142511753Y-103980771D01*
X142367003Y-103961715D01*
X142366997Y-103961715D01*
X142222249Y-103980770D01*
X142087359Y-104036644D01*
X142087357Y-104036645D01*
X141971525Y-104125525D01*
X141882645Y-104241357D01*
X141882644Y-104241359D01*
X141826770Y-104376249D01*
X141807715Y-104520996D01*
X141656285Y-104520996D01*
X141637229Y-104376249D01*
X141614200Y-104320652D01*
X141581355Y-104241358D01*
X141514687Y-104154474D01*
X141492474Y-104125525D01*
X141376643Y-104036645D01*
X141376641Y-104036644D01*
X141241753Y-103980771D01*
X141097003Y-103961715D01*
X141096997Y-103961715D01*
X140952249Y-103980770D01*
X140817359Y-104036644D01*
X140817357Y-104036645D01*
X140701525Y-104125525D01*
X140612645Y-104241357D01*
X140612644Y-104241359D01*
X140556770Y-104376249D01*
X140537715Y-104520996D01*
X140537715Y-104521003D01*
X140556771Y-104665753D01*
X140612644Y-104800641D01*
X140612645Y-104800643D01*
X140701525Y-104916474D01*
X140790406Y-104984674D01*
X140817357Y-105005355D01*
X140886378Y-105033944D01*
X140940756Y-105056469D01*
X140961862Y-105077575D01*
X140961862Y-105107425D01*
X140940756Y-105128531D01*
X140817359Y-105179644D01*
X140817357Y-105179645D01*
X140701525Y-105268525D01*
X140612645Y-105384357D01*
X140612644Y-105384359D01*
X140556770Y-105519249D01*
X140537715Y-105663996D01*
X140537715Y-105664003D01*
X140556771Y-105808753D01*
X140612644Y-105943641D01*
X140612645Y-105943643D01*
X140701525Y-106059474D01*
X140790406Y-106127674D01*
X140817357Y-106148355D01*
X140847376Y-106160789D01*
X140870744Y-106170469D01*
X140891850Y-106191576D01*
X140891850Y-106221425D01*
X140870743Y-106242531D01*
X140855819Y-106245500D01*
X140191738Y-106245500D01*
X140143094Y-106249824D01*
X140071873Y-106256156D01*
X139999675Y-106276815D01*
X139993313Y-106276086D01*
X139986851Y-106280484D01*
X139875458Y-106312358D01*
X139694380Y-106406946D01*
X139694377Y-106406948D01*
X139536048Y-106536048D01*
X139406948Y-106694377D01*
X139406946Y-106694380D01*
X139312358Y-106875458D01*
X139256156Y-107071873D01*
X139249824Y-107143094D01*
X139245500Y-107191738D01*
X132754500Y-107191738D01*
X132743843Y-107071872D01*
X132687642Y-106875460D01*
X132593054Y-106694380D01*
X132463952Y-106536048D01*
X132305620Y-106406946D01*
X132215080Y-106359652D01*
X132124541Y-106312358D01*
X131928126Y-106256156D01*
X131859899Y-106250090D01*
X131808262Y-106245500D01*
X130191738Y-106245500D01*
X130143094Y-106249824D01*
X130071873Y-106256156D01*
X129875458Y-106312358D01*
X129694380Y-106406946D01*
X129694377Y-106406948D01*
X129536048Y-106536048D01*
X129406948Y-106694377D01*
X129406946Y-106694380D01*
X129312358Y-106875458D01*
X129256156Y-107071873D01*
X129249824Y-107143094D01*
X129245500Y-107191738D01*
X125747937Y-107191738D01*
X125759535Y-107000000D01*
X125741586Y-106703270D01*
X125739415Y-106667373D01*
X125739414Y-106667369D01*
X125679348Y-106339599D01*
X125580212Y-106021461D01*
X125580210Y-106021454D01*
X125484481Y-105808754D01*
X125443447Y-105717580D01*
X125271053Y-105432405D01*
X125065542Y-105170090D01*
X124829910Y-104934458D01*
X124567595Y-104728947D01*
X124282420Y-104556553D01*
X124282418Y-104556552D01*
X123978545Y-104419789D01*
X123978538Y-104419787D01*
X123873244Y-104386976D01*
X123850314Y-104367866D01*
X123847613Y-104338139D01*
X123866723Y-104315209D01*
X123879755Y-104311076D01*
X123969754Y-104299228D01*
X124104643Y-104243355D01*
X124220474Y-104154474D01*
X124309355Y-104038643D01*
X124365228Y-103903754D01*
X124371639Y-103855059D01*
X124384285Y-103759003D01*
X124384285Y-103758996D01*
X124365229Y-103614249D01*
X124309355Y-103479359D01*
X124309354Y-103479357D01*
X124220474Y-103363525D01*
X124114151Y-103281941D01*
X124099227Y-103256090D01*
X124106952Y-103227258D01*
X124114151Y-103220059D01*
X124220474Y-103138474D01*
X124309355Y-103022643D01*
X124365228Y-102887754D01*
X124383363Y-102750003D01*
X124384285Y-102743003D01*
X124384285Y-102742996D01*
X124535715Y-102742996D01*
X124535715Y-102743003D01*
X124554771Y-102887753D01*
X124610644Y-103022641D01*
X124610645Y-103022643D01*
X124699525Y-103138474D01*
X124805849Y-103220059D01*
X124820773Y-103245910D01*
X124813048Y-103274742D01*
X124805849Y-103281941D01*
X124699525Y-103363525D01*
X124610645Y-103479357D01*
X124610644Y-103479359D01*
X124554770Y-103614249D01*
X124535715Y-103758996D01*
X124535715Y-103759003D01*
X124554771Y-103903753D01*
X124610644Y-104038641D01*
X124610645Y-104038643D01*
X124699525Y-104154474D01*
X124783294Y-104218752D01*
X124815357Y-104243355D01*
X124900871Y-104278776D01*
X124950246Y-104299228D01*
X125094997Y-104318285D01*
X125095000Y-104318285D01*
X125095003Y-104318285D01*
X125212834Y-104302772D01*
X125239754Y-104299228D01*
X125374643Y-104243355D01*
X125490474Y-104154474D01*
X125579355Y-104038643D01*
X125635228Y-103903754D01*
X125641639Y-103855059D01*
X125654285Y-103759003D01*
X125654285Y-103758996D01*
X125635229Y-103614249D01*
X125579355Y-103479359D01*
X125579354Y-103479357D01*
X125501578Y-103377996D01*
X127964715Y-103377996D01*
X127964715Y-103378003D01*
X127983771Y-103522753D01*
X128039644Y-103657641D01*
X128039645Y-103657643D01*
X128128525Y-103773474D01*
X128234849Y-103855059D01*
X128249773Y-103880910D01*
X128242048Y-103909742D01*
X128234849Y-103916941D01*
X128128525Y-103998525D01*
X128039645Y-104114357D01*
X128039644Y-104114359D01*
X127983770Y-104249249D01*
X127964715Y-104393996D01*
X127964715Y-104394003D01*
X127983771Y-104538753D01*
X128039644Y-104673641D01*
X128039645Y-104673643D01*
X128128525Y-104789474D01*
X128217406Y-104857674D01*
X128244357Y-104878355D01*
X128336384Y-104916474D01*
X128379246Y-104934228D01*
X128523997Y-104953285D01*
X128524000Y-104953285D01*
X128524003Y-104953285D01*
X128632565Y-104938992D01*
X128668754Y-104934228D01*
X128803643Y-104878355D01*
X128919474Y-104789474D01*
X129008355Y-104673643D01*
X129064228Y-104538754D01*
X129083285Y-104394000D01*
X129083285Y-104393996D01*
X129064229Y-104249249D01*
X129060961Y-104241359D01*
X129008355Y-104114358D01*
X128950257Y-104038643D01*
X128919474Y-103998525D01*
X128813151Y-103916941D01*
X128798227Y-103891090D01*
X128805952Y-103862258D01*
X128813151Y-103855059D01*
X128919474Y-103773474D01*
X128930583Y-103758996D01*
X129008355Y-103657643D01*
X129064228Y-103522754D01*
X129083285Y-103378000D01*
X129083285Y-103377996D01*
X129234715Y-103377996D01*
X129234715Y-103378003D01*
X129253771Y-103522753D01*
X129309644Y-103657641D01*
X129309645Y-103657643D01*
X129398525Y-103773474D01*
X129504849Y-103855059D01*
X129519773Y-103880910D01*
X129512048Y-103909742D01*
X129504849Y-103916941D01*
X129398525Y-103998525D01*
X129309645Y-104114357D01*
X129309644Y-104114359D01*
X129253770Y-104249249D01*
X129234715Y-104393996D01*
X129234715Y-104394003D01*
X129253771Y-104538753D01*
X129309644Y-104673641D01*
X129309645Y-104673643D01*
X129398525Y-104789474D01*
X129487406Y-104857674D01*
X129514357Y-104878355D01*
X129606384Y-104916474D01*
X129649246Y-104934228D01*
X129793997Y-104953285D01*
X129794000Y-104953285D01*
X129794003Y-104953285D01*
X129902565Y-104938992D01*
X129938754Y-104934228D01*
X130073643Y-104878355D01*
X130189474Y-104789474D01*
X130278355Y-104673643D01*
X130334228Y-104538754D01*
X130353285Y-104394000D01*
X130353285Y-104393996D01*
X130334229Y-104249249D01*
X130330961Y-104241359D01*
X130278355Y-104114358D01*
X130220257Y-104038643D01*
X130189474Y-103998525D01*
X130083151Y-103916941D01*
X130068227Y-103891090D01*
X130075952Y-103862258D01*
X130083151Y-103855059D01*
X130189474Y-103773474D01*
X130200583Y-103758996D01*
X130278355Y-103657643D01*
X130334228Y-103522754D01*
X130353285Y-103378000D01*
X130353285Y-103377996D01*
X130504715Y-103377996D01*
X130504715Y-103378003D01*
X130523771Y-103522753D01*
X130579644Y-103657641D01*
X130579645Y-103657643D01*
X130668525Y-103773474D01*
X130774849Y-103855059D01*
X130789773Y-103880910D01*
X130782048Y-103909742D01*
X130774849Y-103916941D01*
X130668525Y-103998525D01*
X130579645Y-104114357D01*
X130579644Y-104114359D01*
X130523770Y-104249249D01*
X130504715Y-104393996D01*
X130504715Y-104394003D01*
X130523771Y-104538753D01*
X130579644Y-104673641D01*
X130579645Y-104673643D01*
X130668525Y-104789474D01*
X130757406Y-104857674D01*
X130784357Y-104878355D01*
X130876384Y-104916474D01*
X130919246Y-104934228D01*
X131063997Y-104953285D01*
X131064000Y-104953285D01*
X131064003Y-104953285D01*
X131172565Y-104938992D01*
X131208754Y-104934228D01*
X131343643Y-104878355D01*
X131459474Y-104789474D01*
X131548355Y-104673643D01*
X131604228Y-104538754D01*
X131623285Y-104394000D01*
X131623285Y-104393996D01*
X131604229Y-104249249D01*
X131600961Y-104241359D01*
X131548355Y-104114358D01*
X131490257Y-104038643D01*
X131459474Y-103998525D01*
X131353151Y-103916941D01*
X131338227Y-103891090D01*
X131345952Y-103862258D01*
X131353151Y-103855059D01*
X131459474Y-103773474D01*
X131470583Y-103758996D01*
X131548355Y-103657643D01*
X131604228Y-103522754D01*
X131623285Y-103378000D01*
X131623285Y-103377996D01*
X131774715Y-103377996D01*
X131774715Y-103378003D01*
X131793771Y-103522753D01*
X131849644Y-103657641D01*
X131849645Y-103657643D01*
X131938525Y-103773474D01*
X132044849Y-103855059D01*
X132059773Y-103880910D01*
X132052048Y-103909742D01*
X132044849Y-103916941D01*
X131938525Y-103998525D01*
X131849645Y-104114357D01*
X131849644Y-104114359D01*
X131793770Y-104249249D01*
X131774715Y-104393996D01*
X131774715Y-104394003D01*
X131793771Y-104538753D01*
X131849644Y-104673641D01*
X131849645Y-104673643D01*
X131938525Y-104789474D01*
X132027406Y-104857674D01*
X132054357Y-104878355D01*
X132146384Y-104916474D01*
X132189246Y-104934228D01*
X132333997Y-104953285D01*
X132334000Y-104953285D01*
X132334003Y-104953285D01*
X132442565Y-104938992D01*
X132478754Y-104934228D01*
X132613643Y-104878355D01*
X132729474Y-104789474D01*
X132818355Y-104673643D01*
X132874228Y-104538754D01*
X132893285Y-104394000D01*
X132893285Y-104393996D01*
X132874229Y-104249249D01*
X132870961Y-104241359D01*
X132818355Y-104114358D01*
X132760257Y-104038643D01*
X132729474Y-103998525D01*
X132623151Y-103916941D01*
X132608227Y-103891090D01*
X132615952Y-103862258D01*
X132623151Y-103855059D01*
X132729474Y-103773474D01*
X132740583Y-103758996D01*
X132818355Y-103657643D01*
X132874228Y-103522754D01*
X132893285Y-103378000D01*
X132893285Y-103377996D01*
X133679715Y-103377996D01*
X133679715Y-103378003D01*
X133698771Y-103522753D01*
X133754644Y-103657641D01*
X133754645Y-103657643D01*
X133843525Y-103773474D01*
X133949849Y-103855059D01*
X133964773Y-103880910D01*
X133957048Y-103909742D01*
X133949849Y-103916941D01*
X133843525Y-103998525D01*
X133754645Y-104114357D01*
X133754644Y-104114359D01*
X133698770Y-104249249D01*
X133679715Y-104393996D01*
X133679715Y-104394003D01*
X133698771Y-104538753D01*
X133754644Y-104673641D01*
X133754645Y-104673643D01*
X133843525Y-104789474D01*
X133932406Y-104857674D01*
X133959357Y-104878355D01*
X134051384Y-104916474D01*
X134094246Y-104934228D01*
X134238997Y-104953285D01*
X134239000Y-104953285D01*
X134239003Y-104953285D01*
X134347565Y-104938992D01*
X134383754Y-104934228D01*
X134518643Y-104878355D01*
X134634474Y-104789474D01*
X134723355Y-104673643D01*
X134779228Y-104538754D01*
X134798285Y-104394000D01*
X134798285Y-104393996D01*
X134779229Y-104249249D01*
X134775961Y-104241359D01*
X134723355Y-104114358D01*
X134665257Y-104038643D01*
X134634474Y-103998525D01*
X134528151Y-103916941D01*
X134513227Y-103891090D01*
X134520952Y-103862258D01*
X134528151Y-103855059D01*
X134634474Y-103773474D01*
X134645583Y-103758996D01*
X134723355Y-103657643D01*
X134779228Y-103522754D01*
X134798285Y-103378000D01*
X134798285Y-103377996D01*
X134949715Y-103377996D01*
X134949715Y-103378003D01*
X134968771Y-103522753D01*
X135024644Y-103657641D01*
X135024645Y-103657643D01*
X135113525Y-103773474D01*
X135219849Y-103855059D01*
X135234773Y-103880910D01*
X135227048Y-103909742D01*
X135219849Y-103916941D01*
X135113525Y-103998525D01*
X135024645Y-104114357D01*
X135024644Y-104114359D01*
X134968770Y-104249249D01*
X134949715Y-104393996D01*
X134949715Y-104394003D01*
X134968771Y-104538753D01*
X135024644Y-104673641D01*
X135024645Y-104673643D01*
X135113525Y-104789474D01*
X135202406Y-104857674D01*
X135229357Y-104878355D01*
X135321384Y-104916474D01*
X135364246Y-104934228D01*
X135508997Y-104953285D01*
X135509000Y-104953285D01*
X135509003Y-104953285D01*
X135617565Y-104938992D01*
X135653754Y-104934228D01*
X135788643Y-104878355D01*
X135904474Y-104789474D01*
X135993355Y-104673643D01*
X136049228Y-104538754D01*
X136068285Y-104394000D01*
X136068285Y-104393996D01*
X136049229Y-104249249D01*
X136045961Y-104241359D01*
X135993355Y-104114358D01*
X135935257Y-104038643D01*
X135904474Y-103998525D01*
X135798151Y-103916941D01*
X135783227Y-103891090D01*
X135790952Y-103862258D01*
X135798151Y-103855059D01*
X135904474Y-103773474D01*
X135915583Y-103758996D01*
X135993355Y-103657643D01*
X136049228Y-103522754D01*
X136068285Y-103378000D01*
X136068285Y-103377996D01*
X136219715Y-103377996D01*
X136219715Y-103378003D01*
X136238771Y-103522753D01*
X136294644Y-103657641D01*
X136294645Y-103657643D01*
X136383525Y-103773474D01*
X136489849Y-103855059D01*
X136504773Y-103880910D01*
X136497048Y-103909742D01*
X136489849Y-103916941D01*
X136383525Y-103998525D01*
X136294645Y-104114357D01*
X136294644Y-104114359D01*
X136238770Y-104249249D01*
X136219715Y-104393996D01*
X136219715Y-104394003D01*
X136238771Y-104538753D01*
X136294644Y-104673641D01*
X136294645Y-104673643D01*
X136383525Y-104789474D01*
X136472406Y-104857674D01*
X136499357Y-104878355D01*
X136591384Y-104916474D01*
X136634246Y-104934228D01*
X136778997Y-104953285D01*
X136779000Y-104953285D01*
X136779003Y-104953285D01*
X136887565Y-104938992D01*
X136923754Y-104934228D01*
X137058643Y-104878355D01*
X137174474Y-104789474D01*
X137263355Y-104673643D01*
X137319228Y-104538754D01*
X137338285Y-104394000D01*
X137338285Y-104393996D01*
X137319229Y-104249249D01*
X137315961Y-104241359D01*
X137263355Y-104114358D01*
X137205257Y-104038643D01*
X137174474Y-103998525D01*
X137068151Y-103916941D01*
X137053227Y-103891090D01*
X137060952Y-103862258D01*
X137068151Y-103855059D01*
X137174474Y-103773474D01*
X137185583Y-103758996D01*
X137263355Y-103657643D01*
X137319228Y-103522754D01*
X137338285Y-103378000D01*
X137338285Y-103377996D01*
X137489715Y-103377996D01*
X137489715Y-103378003D01*
X137508771Y-103522753D01*
X137564644Y-103657641D01*
X137564645Y-103657643D01*
X137653525Y-103773474D01*
X137759849Y-103855059D01*
X137774773Y-103880910D01*
X137767048Y-103909742D01*
X137759849Y-103916941D01*
X137653525Y-103998525D01*
X137564645Y-104114357D01*
X137564644Y-104114359D01*
X137508770Y-104249249D01*
X137489715Y-104393996D01*
X137489715Y-104394003D01*
X137508771Y-104538753D01*
X137564644Y-104673641D01*
X137564645Y-104673643D01*
X137653525Y-104789474D01*
X137742406Y-104857674D01*
X137769357Y-104878355D01*
X137861384Y-104916474D01*
X137904246Y-104934228D01*
X138048997Y-104953285D01*
X138049000Y-104953285D01*
X138049003Y-104953285D01*
X138157565Y-104938992D01*
X138193754Y-104934228D01*
X138328643Y-104878355D01*
X138444474Y-104789474D01*
X138533355Y-104673643D01*
X138589228Y-104538754D01*
X138591566Y-104520996D01*
X139267715Y-104520996D01*
X139267715Y-104521003D01*
X139286771Y-104665753D01*
X139342644Y-104800641D01*
X139342645Y-104800643D01*
X139431525Y-104916474D01*
X139520406Y-104984674D01*
X139547357Y-105005355D01*
X139616378Y-105033944D01*
X139670756Y-105056469D01*
X139691862Y-105077575D01*
X139691862Y-105107425D01*
X139670756Y-105128531D01*
X139547359Y-105179644D01*
X139547357Y-105179645D01*
X139431525Y-105268525D01*
X139342645Y-105384357D01*
X139342644Y-105384359D01*
X139286770Y-105519249D01*
X139267715Y-105663996D01*
X139267715Y-105664003D01*
X139286771Y-105808753D01*
X139342644Y-105943641D01*
X139342645Y-105943643D01*
X139431525Y-106059474D01*
X139520406Y-106127674D01*
X139547357Y-106148355D01*
X139679979Y-106203289D01*
X139682246Y-106204228D01*
X139826997Y-106223285D01*
X139827000Y-106223285D01*
X139827002Y-106223285D01*
X139911854Y-106212113D01*
X139971031Y-106204323D01*
X139972438Y-106204700D01*
X139974021Y-106203289D01*
X139977847Y-106201703D01*
X140106643Y-106148355D01*
X140222474Y-106059474D01*
X140311355Y-105943643D01*
X140367228Y-105808754D01*
X140386285Y-105664000D01*
X140386285Y-105663996D01*
X140367229Y-105519249D01*
X140311355Y-105384359D01*
X140311354Y-105384357D01*
X140222474Y-105268525D01*
X140106643Y-105179645D01*
X140106641Y-105179644D01*
X139983244Y-105128531D01*
X139962138Y-105107425D01*
X139962138Y-105077575D01*
X139983244Y-105056469D01*
X140018115Y-105042024D01*
X140106643Y-105005355D01*
X140222474Y-104916474D01*
X140311355Y-104800643D01*
X140367228Y-104665754D01*
X140371992Y-104629565D01*
X140386285Y-104521003D01*
X140386285Y-104520996D01*
X140367229Y-104376249D01*
X140344200Y-104320652D01*
X140311355Y-104241358D01*
X140244687Y-104154474D01*
X140222474Y-104125525D01*
X140106643Y-104036645D01*
X140106641Y-104036644D01*
X139971753Y-103980771D01*
X139827003Y-103961715D01*
X139826997Y-103961715D01*
X139682249Y-103980770D01*
X139547359Y-104036644D01*
X139547357Y-104036645D01*
X139431525Y-104125525D01*
X139342645Y-104241357D01*
X139342644Y-104241359D01*
X139286770Y-104376249D01*
X139267715Y-104520996D01*
X138591566Y-104520996D01*
X138608285Y-104394000D01*
X138608285Y-104393996D01*
X138589229Y-104249249D01*
X138585961Y-104241359D01*
X138533355Y-104114358D01*
X138475257Y-104038643D01*
X138444474Y-103998525D01*
X138338151Y-103916941D01*
X138323227Y-103891090D01*
X138330952Y-103862258D01*
X138338151Y-103855059D01*
X138444474Y-103773474D01*
X138455583Y-103758996D01*
X138533355Y-103657643D01*
X138589228Y-103522754D01*
X138608285Y-103378000D01*
X138608285Y-103377996D01*
X138589229Y-103233249D01*
X138586788Y-103227355D01*
X138533355Y-103098358D01*
X138475257Y-103022643D01*
X138444474Y-102982525D01*
X138328643Y-102893645D01*
X138328641Y-102893644D01*
X138193753Y-102837771D01*
X138049003Y-102818715D01*
X138048997Y-102818715D01*
X137904249Y-102837770D01*
X137769359Y-102893644D01*
X137769357Y-102893645D01*
X137653525Y-102982525D01*
X137564645Y-103098357D01*
X137564644Y-103098359D01*
X137508770Y-103233249D01*
X137489715Y-103377996D01*
X137338285Y-103377996D01*
X137319229Y-103233249D01*
X137316788Y-103227355D01*
X137263355Y-103098358D01*
X137205257Y-103022643D01*
X137174474Y-102982525D01*
X137058643Y-102893645D01*
X137058641Y-102893644D01*
X136923753Y-102837771D01*
X136779003Y-102818715D01*
X136778997Y-102818715D01*
X136634249Y-102837770D01*
X136499359Y-102893644D01*
X136499357Y-102893645D01*
X136383525Y-102982525D01*
X136294645Y-103098357D01*
X136294644Y-103098359D01*
X136238770Y-103233249D01*
X136219715Y-103377996D01*
X136068285Y-103377996D01*
X136049229Y-103233249D01*
X136046788Y-103227355D01*
X135993355Y-103098358D01*
X135935257Y-103022643D01*
X135904474Y-102982525D01*
X135788643Y-102893645D01*
X135788641Y-102893644D01*
X135653753Y-102837771D01*
X135509003Y-102818715D01*
X135508997Y-102818715D01*
X135364249Y-102837770D01*
X135229359Y-102893644D01*
X135229357Y-102893645D01*
X135113525Y-102982525D01*
X135024645Y-103098357D01*
X135024644Y-103098359D01*
X134968770Y-103233249D01*
X134949715Y-103377996D01*
X134798285Y-103377996D01*
X134779229Y-103233249D01*
X134776788Y-103227355D01*
X134723355Y-103098358D01*
X134665257Y-103022643D01*
X134634474Y-102982525D01*
X134518643Y-102893645D01*
X134518641Y-102893644D01*
X134383753Y-102837771D01*
X134239003Y-102818715D01*
X134238997Y-102818715D01*
X134094249Y-102837770D01*
X133959359Y-102893644D01*
X133959357Y-102893645D01*
X133843525Y-102982525D01*
X133754645Y-103098357D01*
X133754644Y-103098359D01*
X133698770Y-103233249D01*
X133679715Y-103377996D01*
X132893285Y-103377996D01*
X132874229Y-103233249D01*
X132871788Y-103227355D01*
X132818355Y-103098358D01*
X132760257Y-103022643D01*
X132729474Y-102982525D01*
X132613643Y-102893645D01*
X132613641Y-102893644D01*
X132478753Y-102837771D01*
X132334003Y-102818715D01*
X132333997Y-102818715D01*
X132189249Y-102837770D01*
X132054359Y-102893644D01*
X132054357Y-102893645D01*
X131938525Y-102982525D01*
X131849645Y-103098357D01*
X131849644Y-103098359D01*
X131793770Y-103233249D01*
X131774715Y-103377996D01*
X131623285Y-103377996D01*
X131604229Y-103233249D01*
X131601788Y-103227355D01*
X131548355Y-103098358D01*
X131490257Y-103022643D01*
X131459474Y-102982525D01*
X131343643Y-102893645D01*
X131343641Y-102893644D01*
X131208753Y-102837771D01*
X131064003Y-102818715D01*
X131063997Y-102818715D01*
X130919249Y-102837770D01*
X130784359Y-102893644D01*
X130784357Y-102893645D01*
X130668525Y-102982525D01*
X130579645Y-103098357D01*
X130579644Y-103098359D01*
X130523770Y-103233249D01*
X130504715Y-103377996D01*
X130353285Y-103377996D01*
X130334229Y-103233249D01*
X130331788Y-103227355D01*
X130278355Y-103098358D01*
X130220257Y-103022643D01*
X130189474Y-102982525D01*
X130073643Y-102893645D01*
X130073641Y-102893644D01*
X129938753Y-102837771D01*
X129794003Y-102818715D01*
X129793997Y-102818715D01*
X129649249Y-102837770D01*
X129514359Y-102893644D01*
X129514357Y-102893645D01*
X129398525Y-102982525D01*
X129309645Y-103098357D01*
X129309644Y-103098359D01*
X129253770Y-103233249D01*
X129234715Y-103377996D01*
X129083285Y-103377996D01*
X129064229Y-103233249D01*
X129061788Y-103227355D01*
X129008355Y-103098358D01*
X128950257Y-103022643D01*
X128919474Y-102982525D01*
X128803643Y-102893645D01*
X128803641Y-102893644D01*
X128668753Y-102837771D01*
X128524003Y-102818715D01*
X128523997Y-102818715D01*
X128379249Y-102837770D01*
X128244359Y-102893644D01*
X128244357Y-102893645D01*
X128128525Y-102982525D01*
X128039645Y-103098357D01*
X128039644Y-103098359D01*
X127983770Y-103233249D01*
X127964715Y-103377996D01*
X125501578Y-103377996D01*
X125490474Y-103363525D01*
X125384151Y-103281941D01*
X125369227Y-103256090D01*
X125376952Y-103227258D01*
X125384151Y-103220059D01*
X125490474Y-103138474D01*
X125579355Y-103022643D01*
X125635228Y-102887754D01*
X125653363Y-102750003D01*
X125654285Y-102743003D01*
X125654285Y-102742996D01*
X125635229Y-102598249D01*
X125582255Y-102470359D01*
X125579355Y-102463358D01*
X125558674Y-102436406D01*
X125490474Y-102347525D01*
X125374643Y-102258645D01*
X125374641Y-102258644D01*
X125239753Y-102202771D01*
X125095003Y-102183715D01*
X125094997Y-102183715D01*
X124950249Y-102202770D01*
X124815359Y-102258644D01*
X124815357Y-102258645D01*
X124699525Y-102347525D01*
X124610645Y-102463357D01*
X124610644Y-102463359D01*
X124554770Y-102598249D01*
X124535715Y-102742996D01*
X124384285Y-102742996D01*
X124365229Y-102598249D01*
X124312255Y-102470359D01*
X124309355Y-102463358D01*
X124288674Y-102436406D01*
X124220474Y-102347525D01*
X124104643Y-102258645D01*
X124104641Y-102258644D01*
X123969753Y-102202771D01*
X123825003Y-102183715D01*
X123824997Y-102183715D01*
X123680249Y-102202770D01*
X123545359Y-102258644D01*
X123545357Y-102258645D01*
X123429525Y-102347525D01*
X123340645Y-102463357D01*
X123340644Y-102463359D01*
X123284770Y-102598249D01*
X123265715Y-102742996D01*
X123265715Y-102743003D01*
X123284771Y-102887753D01*
X123340644Y-103022641D01*
X123340645Y-103022643D01*
X123429525Y-103138474D01*
X123535849Y-103220059D01*
X123550773Y-103245910D01*
X123543048Y-103274742D01*
X123535849Y-103281941D01*
X123429525Y-103363525D01*
X123340645Y-103479357D01*
X123340644Y-103479359D01*
X123284770Y-103614249D01*
X123265715Y-103758996D01*
X123265715Y-103759003D01*
X123284771Y-103903753D01*
X123340644Y-104038641D01*
X123340645Y-104038643D01*
X123429525Y-104154474D01*
X123513294Y-104218752D01*
X123528218Y-104244603D01*
X123520493Y-104273435D01*
X123494642Y-104288359D01*
X123482522Y-104288054D01*
X123332630Y-104260585D01*
X123332626Y-104260584D01*
X123017947Y-104241550D01*
X123000000Y-104240465D01*
X122999999Y-104240465D01*
X122985253Y-104241357D01*
X122951758Y-104243382D01*
X122923542Y-104233646D01*
X122910475Y-104206809D01*
X122920212Y-104178592D01*
X122925662Y-104173513D01*
X122950474Y-104154474D01*
X122972687Y-104125526D01*
X123039355Y-104038643D01*
X123095228Y-103903754D01*
X123101639Y-103855059D01*
X123114285Y-103759003D01*
X123114285Y-103758996D01*
X123095229Y-103614249D01*
X123039355Y-103479359D01*
X123039354Y-103479357D01*
X122950474Y-103363525D01*
X122834643Y-103274645D01*
X122827231Y-103271575D01*
X122806125Y-103250468D01*
X122806126Y-103220618D01*
X122818413Y-103204605D01*
X122895474Y-103145474D01*
X122984355Y-103029643D01*
X123040228Y-102894754D01*
X123059285Y-102750000D01*
X123059285Y-102749996D01*
X123040229Y-102605249D01*
X123040228Y-102605246D01*
X122984355Y-102470358D01*
X122963674Y-102443406D01*
X122895474Y-102354525D01*
X122779643Y-102265645D01*
X122779641Y-102265644D01*
X122644753Y-102209771D01*
X122500003Y-102190715D01*
X122499997Y-102190715D01*
X122355249Y-102209770D01*
X122220359Y-102265644D01*
X122220357Y-102265645D01*
X122104525Y-102354525D01*
X122015645Y-102470357D01*
X122015644Y-102470359D01*
X121959770Y-102605249D01*
X121940715Y-102749996D01*
X121940715Y-102750003D01*
X121959771Y-102894753D01*
X122015644Y-103029641D01*
X122015645Y-103029643D01*
X122104525Y-103145474D01*
X122176629Y-103200801D01*
X122220357Y-103234355D01*
X122227767Y-103237424D01*
X122248873Y-103258529D01*
X122248874Y-103288379D01*
X122236584Y-103304396D01*
X122159525Y-103363525D01*
X122070645Y-103479357D01*
X122070644Y-103479359D01*
X122014770Y-103614249D01*
X121995715Y-103758996D01*
X121995715Y-103759003D01*
X122014771Y-103903753D01*
X122070644Y-104038641D01*
X122070645Y-104038643D01*
X122159525Y-104154474D01*
X122227730Y-104206809D01*
X122275357Y-104243355D01*
X122309919Y-104257671D01*
X122331024Y-104278776D01*
X122331025Y-104308625D01*
X122309918Y-104329732D01*
X122306596Y-104330935D01*
X122021461Y-104419787D01*
X122021454Y-104419789D01*
X121717581Y-104556552D01*
X121432405Y-104728947D01*
X121170093Y-104934455D01*
X121170087Y-104934460D01*
X120934460Y-105170087D01*
X120934455Y-105170093D01*
X120728947Y-105432405D01*
X120556552Y-105717581D01*
X120419789Y-106021454D01*
X120419787Y-106021461D01*
X120320651Y-106339599D01*
X120260585Y-106667369D01*
X120260584Y-106667373D01*
X120240465Y-107000000D01*
X120025927Y-107000000D01*
X120025900Y-106998970D01*
X120025900Y-95039000D01*
X120037323Y-95011423D01*
X120064900Y-95000000D01*
X126971890Y-95000000D01*
X126999467Y-95011423D01*
G37*
%TD.AperFunction*%
%TD*%
%TA.AperFunction,Conductor*%
%TO.N,+3.3V*%
G36*
X159001011Y-68025953D02*
G01*
X159308841Y-68042085D01*
X159312897Y-68042511D01*
X159616342Y-68090573D01*
X159620317Y-68091418D01*
X159917074Y-68170934D01*
X159920947Y-68172192D01*
X160151219Y-68260585D01*
X160207768Y-68282292D01*
X160211498Y-68283953D01*
X160485229Y-68423426D01*
X160488762Y-68425466D01*
X160690618Y-68556553D01*
X160746417Y-68592789D01*
X160749719Y-68595188D01*
X160988473Y-68788527D01*
X160991507Y-68791259D01*
X161208740Y-69008492D01*
X161211472Y-69011526D01*
X161404811Y-69250280D01*
X161407210Y-69253582D01*
X161574532Y-69511235D01*
X161576573Y-69514770D01*
X161716046Y-69788501D01*
X161717707Y-69792231D01*
X161827805Y-70079047D01*
X161829066Y-70082929D01*
X161908579Y-70379673D01*
X161909428Y-70383666D01*
X161957487Y-70687100D01*
X161957914Y-70691160D01*
X161974047Y-70998988D01*
X161974100Y-71001029D01*
X161974100Y-91461000D01*
X161962677Y-91488577D01*
X161935100Y-91500000D01*
X136145825Y-91500000D01*
X136118248Y-91488577D01*
X136109794Y-91475925D01*
X136084659Y-91415246D01*
X136058792Y-91352797D01*
X136032114Y-91318029D01*
X135969911Y-91236964D01*
X135854080Y-91148084D01*
X135854078Y-91148083D01*
X135719187Y-91092209D01*
X135628192Y-91080230D01*
X135602342Y-91065306D01*
X135594617Y-91046654D01*
X135582638Y-90955658D01*
X135582637Y-90955655D01*
X135526764Y-90820767D01*
X135506083Y-90793815D01*
X135437883Y-90704934D01*
X135402777Y-90677996D01*
X144855715Y-90677996D01*
X144855715Y-90678003D01*
X144874771Y-90822753D01*
X144930644Y-90957641D01*
X144930645Y-90957643D01*
X145019525Y-91073474D01*
X145043944Y-91092211D01*
X145135357Y-91162355D01*
X145227384Y-91200474D01*
X145270246Y-91218228D01*
X145414997Y-91237285D01*
X145415000Y-91237285D01*
X145415003Y-91237285D01*
X145523565Y-91222992D01*
X145559754Y-91218228D01*
X145694643Y-91162355D01*
X145810474Y-91073474D01*
X145899355Y-90957643D01*
X145955228Y-90822754D01*
X145963442Y-90760359D01*
X145974285Y-90678003D01*
X145974285Y-90677996D01*
X145955229Y-90533249D01*
X145951961Y-90525359D01*
X145899355Y-90398358D01*
X145867233Y-90356496D01*
X146379715Y-90356496D01*
X146379715Y-90356503D01*
X146398771Y-90501253D01*
X146454644Y-90636141D01*
X146454645Y-90636143D01*
X146543525Y-90751974D01*
X146554453Y-90760359D01*
X146659357Y-90840855D01*
X146790668Y-90895246D01*
X146794246Y-90896728D01*
X146938997Y-90915785D01*
X146939000Y-90915785D01*
X146939003Y-90915785D01*
X147047565Y-90901492D01*
X147083754Y-90896728D01*
X147218643Y-90840855D01*
X147334474Y-90751974D01*
X147391240Y-90677996D01*
X155142715Y-90677996D01*
X155142715Y-90678003D01*
X155161771Y-90822753D01*
X155217644Y-90957641D01*
X155217645Y-90957643D01*
X155306525Y-91073474D01*
X155330944Y-91092211D01*
X155422357Y-91162355D01*
X155514384Y-91200474D01*
X155557246Y-91218228D01*
X155701997Y-91237285D01*
X155702000Y-91237285D01*
X155702003Y-91237285D01*
X155810565Y-91222992D01*
X155846754Y-91218228D01*
X155981643Y-91162355D01*
X156097474Y-91073474D01*
X156186355Y-90957643D01*
X156242228Y-90822754D01*
X156250442Y-90760359D01*
X156261285Y-90678003D01*
X156261285Y-90677996D01*
X156242229Y-90533249D01*
X156238961Y-90525359D01*
X156186355Y-90398358D01*
X156126723Y-90320644D01*
X156097474Y-90282525D01*
X155981643Y-90193645D01*
X155981641Y-90193644D01*
X155846753Y-90137771D01*
X155702003Y-90118715D01*
X155701997Y-90118715D01*
X155557249Y-90137770D01*
X155422359Y-90193644D01*
X155422357Y-90193645D01*
X155306525Y-90282525D01*
X155217645Y-90398357D01*
X155217644Y-90398359D01*
X155161770Y-90533249D01*
X155142715Y-90677996D01*
X147391240Y-90677996D01*
X147423355Y-90636143D01*
X147479228Y-90501254D01*
X147483992Y-90465065D01*
X147498285Y-90356503D01*
X147498285Y-90356496D01*
X147479229Y-90211749D01*
X147452141Y-90146354D01*
X147423355Y-90076858D01*
X147393452Y-90037887D01*
X147334474Y-89961025D01*
X147218643Y-89872145D01*
X147218641Y-89872144D01*
X147083753Y-89816271D01*
X146939003Y-89797215D01*
X146938997Y-89797215D01*
X146794249Y-89816270D01*
X146659359Y-89872144D01*
X146659357Y-89872145D01*
X146543525Y-89961025D01*
X146454645Y-90076857D01*
X146454644Y-90076859D01*
X146398770Y-90211749D01*
X146379715Y-90356496D01*
X145867233Y-90356496D01*
X145839723Y-90320644D01*
X145810474Y-90282525D01*
X145694643Y-90193645D01*
X145694641Y-90193644D01*
X145559753Y-90137771D01*
X145415003Y-90118715D01*
X145414997Y-90118715D01*
X145270249Y-90137770D01*
X145135359Y-90193644D01*
X145135357Y-90193645D01*
X145019525Y-90282525D01*
X144930645Y-90398357D01*
X144930644Y-90398359D01*
X144874770Y-90533249D01*
X144855715Y-90677996D01*
X135402777Y-90677996D01*
X135322052Y-90616054D01*
X135322050Y-90616053D01*
X135187162Y-90560180D01*
X135042412Y-90541124D01*
X135042406Y-90541124D01*
X134897658Y-90560179D01*
X134762768Y-90616053D01*
X134762766Y-90616054D01*
X134646934Y-90704934D01*
X134558052Y-90820769D01*
X134556776Y-90822980D01*
X134555751Y-90822388D01*
X134537409Y-90840705D01*
X134507560Y-90840684D01*
X134486479Y-90819588D01*
X134480438Y-90805003D01*
X134461945Y-90760358D01*
X134441264Y-90733406D01*
X134373064Y-90644525D01*
X134257233Y-90555645D01*
X134257231Y-90555644D01*
X134122343Y-90499771D01*
X133977593Y-90480715D01*
X133977587Y-90480715D01*
X133832839Y-90499770D01*
X133697949Y-90555644D01*
X133697947Y-90555645D01*
X133582115Y-90644525D01*
X133493235Y-90760357D01*
X133493234Y-90760359D01*
X133437360Y-90895249D01*
X133424694Y-90991461D01*
X133409770Y-91017311D01*
X133380937Y-91025036D01*
X133371104Y-91022402D01*
X133364751Y-91019770D01*
X133220003Y-91000715D01*
X133219997Y-91000715D01*
X133075249Y-91019770D01*
X132940359Y-91075644D01*
X132940357Y-91075645D01*
X132824525Y-91164525D01*
X132735645Y-91280357D01*
X132735644Y-91280359D01*
X132679770Y-91415249D01*
X132673078Y-91466090D01*
X132658154Y-91491941D01*
X132634412Y-91500000D01*
X120064900Y-91500000D01*
X120037323Y-91488577D01*
X120025900Y-91461000D01*
X120025900Y-90080496D01*
X121704215Y-90080496D01*
X121704215Y-90080503D01*
X121723271Y-90225253D01*
X121779144Y-90360141D01*
X121779145Y-90360143D01*
X121868025Y-90475974D01*
X121952930Y-90541124D01*
X121983857Y-90564855D01*
X122107460Y-90616053D01*
X122118746Y-90620728D01*
X122263497Y-90639785D01*
X122263500Y-90639785D01*
X122263503Y-90639785D01*
X122372065Y-90625492D01*
X122408254Y-90620728D01*
X122543143Y-90564855D01*
X122658974Y-90475974D01*
X122747855Y-90360143D01*
X122803728Y-90225254D01*
X122815245Y-90137771D01*
X122822785Y-90080503D01*
X122822785Y-90080496D01*
X122803729Y-89935749D01*
X122786077Y-89893133D01*
X122747855Y-89800858D01*
X122693046Y-89729429D01*
X122658974Y-89685025D01*
X122628962Y-89661996D01*
X123011715Y-89661996D01*
X123011715Y-89662003D01*
X123030771Y-89806753D01*
X123086644Y-89941641D01*
X123086645Y-89941643D01*
X123175525Y-90057474D01*
X123255336Y-90118715D01*
X123291357Y-90146355D01*
X123360378Y-90174944D01*
X123414756Y-90197469D01*
X123435862Y-90218575D01*
X123435862Y-90248425D01*
X123414756Y-90269531D01*
X123291359Y-90320644D01*
X123291357Y-90320645D01*
X123175525Y-90409525D01*
X123086645Y-90525357D01*
X123086644Y-90525359D01*
X123030770Y-90660249D01*
X123011715Y-90804996D01*
X123011715Y-90805003D01*
X123030771Y-90949753D01*
X123086644Y-91084641D01*
X123086645Y-91084643D01*
X123175525Y-91200474D01*
X123233765Y-91245163D01*
X123291357Y-91289355D01*
X123359141Y-91317432D01*
X123426246Y-91345228D01*
X123570997Y-91364285D01*
X123571000Y-91364285D01*
X123571003Y-91364285D01*
X123679565Y-91349992D01*
X123715754Y-91345228D01*
X123850643Y-91289355D01*
X123966474Y-91200474D01*
X124055355Y-91084643D01*
X124111228Y-90949754D01*
X124125565Y-90840854D01*
X124130285Y-90805003D01*
X124130285Y-90804996D01*
X124111229Y-90660249D01*
X124104716Y-90644525D01*
X124055355Y-90525358D01*
X124021099Y-90480715D01*
X123966474Y-90409525D01*
X123850643Y-90320645D01*
X123850641Y-90320644D01*
X123727244Y-90269531D01*
X123706138Y-90248425D01*
X123706138Y-90218575D01*
X123727244Y-90197469D01*
X123762115Y-90183024D01*
X123850643Y-90146355D01*
X123966474Y-90057474D01*
X124055355Y-89941643D01*
X124111228Y-89806754D01*
X124127948Y-89679753D01*
X124130285Y-89662003D01*
X124130285Y-89661996D01*
X124111229Y-89517249D01*
X124103116Y-89497662D01*
X124103113Y-89497655D01*
X128723056Y-89497655D01*
X128723056Y-89497662D01*
X128742112Y-89642412D01*
X128797985Y-89777300D01*
X128797986Y-89777302D01*
X128886866Y-89893133D01*
X128950083Y-89941641D01*
X129002698Y-89982014D01*
X129092847Y-90019355D01*
X129137587Y-90037887D01*
X129282338Y-90056944D01*
X129282341Y-90056944D01*
X129282344Y-90056944D01*
X129390906Y-90042651D01*
X129427095Y-90037887D01*
X129561984Y-89982014D01*
X129677815Y-89893133D01*
X129766696Y-89777302D01*
X129822569Y-89642413D01*
X129828872Y-89594533D01*
X129841626Y-89497662D01*
X129841626Y-89497655D01*
X129822570Y-89352908D01*
X129798780Y-89295474D01*
X129766696Y-89218017D01*
X129737249Y-89179641D01*
X129677815Y-89102184D01*
X129561984Y-89013304D01*
X129561982Y-89013303D01*
X129427094Y-88957430D01*
X129282344Y-88938374D01*
X129282338Y-88938374D01*
X129137590Y-88957429D01*
X129002700Y-89013303D01*
X129002698Y-89013304D01*
X128886866Y-89102184D01*
X128797986Y-89218016D01*
X128797985Y-89218018D01*
X128742111Y-89352908D01*
X128723056Y-89497655D01*
X124103113Y-89497655D01*
X124055355Y-89382358D01*
X123984527Y-89290053D01*
X123966474Y-89266525D01*
X123850643Y-89177645D01*
X123850641Y-89177644D01*
X123715753Y-89121771D01*
X123571003Y-89102715D01*
X123570997Y-89102715D01*
X123426249Y-89121770D01*
X123291359Y-89177644D01*
X123291357Y-89177645D01*
X123175525Y-89266525D01*
X123086645Y-89382357D01*
X123086644Y-89382359D01*
X123030770Y-89517249D01*
X123011715Y-89661996D01*
X122628962Y-89661996D01*
X122543143Y-89596145D01*
X122543141Y-89596144D01*
X122408253Y-89540271D01*
X122263503Y-89521215D01*
X122263497Y-89521215D01*
X122118749Y-89540270D01*
X121983859Y-89596144D01*
X121983857Y-89596145D01*
X121868025Y-89685025D01*
X121779145Y-89800857D01*
X121779144Y-89800859D01*
X121723270Y-89935749D01*
X121704215Y-90080496D01*
X120025900Y-90080496D01*
X120025900Y-89010406D01*
X120025900Y-85851996D01*
X125017215Y-85851996D01*
X125017215Y-85852003D01*
X125036271Y-85996753D01*
X125092144Y-86131641D01*
X125092145Y-86131643D01*
X125181025Y-86247474D01*
X125248526Y-86299269D01*
X125296857Y-86336355D01*
X125401670Y-86379770D01*
X125431746Y-86392228D01*
X125576497Y-86411285D01*
X125576500Y-86411285D01*
X125576503Y-86411285D01*
X125686518Y-86396801D01*
X125721254Y-86392228D01*
X125799069Y-86359996D01*
X128980715Y-86359996D01*
X128980715Y-86360003D01*
X128999771Y-86504753D01*
X129055644Y-86639641D01*
X129055645Y-86639643D01*
X129144525Y-86755474D01*
X129233406Y-86823674D01*
X129260357Y-86844355D01*
X129395246Y-86900228D01*
X129539997Y-86919285D01*
X129540000Y-86919285D01*
X129576802Y-86914439D01*
X129605634Y-86922164D01*
X129620559Y-86948013D01*
X129620559Y-86958194D01*
X129615715Y-86994995D01*
X129615715Y-86995003D01*
X129634771Y-87139753D01*
X129690644Y-87274641D01*
X129690645Y-87274643D01*
X129779525Y-87390474D01*
X129868406Y-87458674D01*
X129895357Y-87479355D01*
X129982556Y-87515474D01*
X130030246Y-87535228D01*
X130174997Y-87554285D01*
X130175000Y-87554285D01*
X130211802Y-87549439D01*
X130240634Y-87557164D01*
X130255559Y-87583013D01*
X130255559Y-87593194D01*
X130250715Y-87629995D01*
X130250715Y-87630003D01*
X130269771Y-87774753D01*
X130325644Y-87909641D01*
X130325645Y-87909643D01*
X130414525Y-88025474D01*
X130492596Y-88085380D01*
X130530357Y-88114355D01*
X130665246Y-88170228D01*
X130809997Y-88189285D01*
X130810000Y-88189285D01*
X130846802Y-88184439D01*
X130875634Y-88192164D01*
X130890559Y-88218013D01*
X130890559Y-88228194D01*
X130885715Y-88264995D01*
X130885715Y-88265003D01*
X130904771Y-88409753D01*
X130960644Y-88544641D01*
X130960645Y-88544643D01*
X131049525Y-88660474D01*
X131129336Y-88721715D01*
X131165357Y-88749355D01*
X131279525Y-88796645D01*
X131300246Y-88805228D01*
X131444997Y-88824285D01*
X131445000Y-88824285D01*
X131481802Y-88819439D01*
X131510634Y-88827164D01*
X131525559Y-88853013D01*
X131525559Y-88863194D01*
X131520715Y-88899995D01*
X131520715Y-88900003D01*
X131539771Y-89044753D01*
X131595644Y-89179641D01*
X131595645Y-89179643D01*
X131684525Y-89295474D01*
X131759371Y-89352905D01*
X131800357Y-89384355D01*
X131900303Y-89425754D01*
X131935246Y-89440228D01*
X132079997Y-89459285D01*
X132080000Y-89459285D01*
X132116802Y-89454439D01*
X132145634Y-89462164D01*
X132160559Y-89488013D01*
X132160559Y-89498194D01*
X132155715Y-89534995D01*
X132155715Y-89535003D01*
X132174771Y-89679753D01*
X132230644Y-89814641D01*
X132230645Y-89814643D01*
X132319525Y-89930474D01*
X132408406Y-89998674D01*
X132435357Y-90019355D01*
X132526105Y-90056944D01*
X132570246Y-90075228D01*
X132714997Y-90094285D01*
X132715000Y-90094285D01*
X132715003Y-90094285D01*
X132847365Y-90076859D01*
X132859754Y-90075228D01*
X132994643Y-90019355D01*
X133110474Y-89930474D01*
X133199355Y-89814643D01*
X133255228Y-89679754D01*
X133266235Y-89596145D01*
X133274285Y-89535003D01*
X133274285Y-89534998D01*
X133271948Y-89517249D01*
X133269439Y-89498194D01*
X133277164Y-89469364D01*
X133303014Y-89454439D01*
X133313193Y-89454439D01*
X133335917Y-89457430D01*
X133349998Y-89459285D01*
X133350000Y-89459285D01*
X133350003Y-89459285D01*
X133458565Y-89444992D01*
X133494754Y-89440228D01*
X133629643Y-89384355D01*
X133745474Y-89295474D01*
X133834355Y-89179643D01*
X133890228Y-89044754D01*
X133899317Y-88975715D01*
X133909285Y-88900003D01*
X133909285Y-88899998D01*
X133907379Y-88885525D01*
X133904439Y-88863194D01*
X133912164Y-88834364D01*
X133938014Y-88819439D01*
X133948193Y-88819439D01*
X133970917Y-88822430D01*
X133984998Y-88824285D01*
X133985000Y-88824285D01*
X133985003Y-88824285D01*
X134093565Y-88809992D01*
X134129754Y-88805228D01*
X134264643Y-88749355D01*
X134380474Y-88660474D01*
X134469355Y-88544643D01*
X134525228Y-88409754D01*
X134534317Y-88340715D01*
X134544285Y-88265003D01*
X134544285Y-88264998D01*
X134539439Y-88228196D01*
X134547164Y-88199364D01*
X134573014Y-88184439D01*
X134583193Y-88184439D01*
X134605917Y-88187430D01*
X134619998Y-88189285D01*
X134620000Y-88189285D01*
X134620003Y-88189285D01*
X134728565Y-88174992D01*
X134764754Y-88170228D01*
X134842569Y-88137996D01*
X139775715Y-88137996D01*
X139775715Y-88138003D01*
X139794771Y-88282753D01*
X139850644Y-88417641D01*
X139850645Y-88417643D01*
X139939525Y-88533474D01*
X140028406Y-88601674D01*
X140055357Y-88622355D01*
X140147384Y-88660474D01*
X140190246Y-88678228D01*
X140334997Y-88697285D01*
X140335000Y-88697285D01*
X140335003Y-88697285D01*
X140443565Y-88682992D01*
X140479754Y-88678228D01*
X140614643Y-88622355D01*
X140730474Y-88533474D01*
X140757312Y-88498497D01*
X140783162Y-88483573D01*
X140811994Y-88491298D01*
X140824966Y-88513761D01*
X140826096Y-88513459D01*
X140826758Y-88515928D01*
X140826759Y-88515932D01*
X140826760Y-88515934D01*
X140836580Y-88539641D01*
X140882632Y-88650821D01*
X140882633Y-88650823D01*
X140971513Y-88766654D01*
X141012659Y-88798226D01*
X141027583Y-88824077D01*
X141024948Y-88844092D01*
X140969807Y-88977212D01*
X140950752Y-89121959D01*
X140950752Y-89121966D01*
X140969808Y-89266716D01*
X141025681Y-89401604D01*
X141025682Y-89401606D01*
X141089848Y-89485229D01*
X141097573Y-89514062D01*
X141089848Y-89532712D01*
X141042412Y-89594533D01*
X141042408Y-89594539D01*
X140986534Y-89729429D01*
X140967479Y-89874176D01*
X140967479Y-89874183D01*
X140986535Y-90018933D01*
X141042408Y-90153821D01*
X141042409Y-90153823D01*
X141131289Y-90269654D01*
X141197741Y-90320644D01*
X141247121Y-90358535D01*
X141370224Y-90409526D01*
X141382010Y-90414408D01*
X141526761Y-90433465D01*
X141526764Y-90433465D01*
X141526767Y-90433465D01*
X141635329Y-90419172D01*
X141671518Y-90414408D01*
X141806407Y-90358535D01*
X141922238Y-90269654D01*
X142011119Y-90153823D01*
X142066992Y-90018934D01*
X142074616Y-89961025D01*
X142086049Y-89874183D01*
X142086049Y-89874176D01*
X142066993Y-89729429D01*
X142066992Y-89729426D01*
X142011119Y-89594538D01*
X141946950Y-89510912D01*
X141939226Y-89482082D01*
X141946952Y-89463430D01*
X141994392Y-89401606D01*
X142050265Y-89266717D01*
X142056677Y-89218016D01*
X142069322Y-89121966D01*
X142069322Y-89121959D01*
X142054636Y-89010406D01*
X144860706Y-89010406D01*
X144860706Y-89010413D01*
X144879762Y-89155163D01*
X144935635Y-89290051D01*
X144935636Y-89290053D01*
X145024516Y-89405884D01*
X145094110Y-89459285D01*
X145140348Y-89494765D01*
X145275237Y-89550638D01*
X145419988Y-89569695D01*
X145419991Y-89569695D01*
X145419994Y-89569695D01*
X145528556Y-89555402D01*
X145564745Y-89550638D01*
X145699634Y-89494765D01*
X145815465Y-89405884D01*
X145904346Y-89290053D01*
X145908098Y-89280996D01*
X149554715Y-89280996D01*
X149554715Y-89281003D01*
X149573771Y-89425753D01*
X149629644Y-89560641D01*
X149629645Y-89560643D01*
X149718525Y-89676474D01*
X149807406Y-89744674D01*
X149834357Y-89765355D01*
X149957276Y-89816270D01*
X149969246Y-89821228D01*
X150113997Y-89840285D01*
X150114000Y-89840285D01*
X150114003Y-89840285D01*
X150222565Y-89825992D01*
X150258754Y-89821228D01*
X150393643Y-89765355D01*
X150509474Y-89676474D01*
X150598355Y-89560643D01*
X150654228Y-89425754D01*
X150663819Y-89352905D01*
X150673285Y-89281003D01*
X150673285Y-89280996D01*
X150654229Y-89136249D01*
X150648313Y-89121966D01*
X150598355Y-89001358D01*
X150550026Y-88938374D01*
X150509474Y-88885525D01*
X150393643Y-88796645D01*
X150393641Y-88796644D01*
X150258753Y-88740771D01*
X150114003Y-88721715D01*
X150113997Y-88721715D01*
X149969249Y-88740770D01*
X149834359Y-88796644D01*
X149834357Y-88796645D01*
X149718525Y-88885525D01*
X149629645Y-89001357D01*
X149629644Y-89001359D01*
X149573770Y-89136249D01*
X149554715Y-89280996D01*
X145908098Y-89280996D01*
X145960219Y-89155164D01*
X145978895Y-89013304D01*
X145979276Y-89010413D01*
X145979276Y-89010406D01*
X145960220Y-88865659D01*
X145951287Y-88844092D01*
X145904346Y-88730768D01*
X145859471Y-88672286D01*
X145815465Y-88614935D01*
X145699634Y-88526055D01*
X145699632Y-88526054D01*
X145564744Y-88470181D01*
X145419994Y-88451125D01*
X145419988Y-88451125D01*
X145275240Y-88470180D01*
X145140350Y-88526054D01*
X145140348Y-88526055D01*
X145024516Y-88614935D01*
X144935636Y-88730767D01*
X144935635Y-88730769D01*
X144879761Y-88865659D01*
X144860706Y-89010406D01*
X142054636Y-89010406D01*
X142050266Y-88977212D01*
X142045471Y-88965635D01*
X141994392Y-88842321D01*
X141923056Y-88749354D01*
X141905511Y-88726488D01*
X141864366Y-88694917D01*
X141849442Y-88669066D01*
X141852077Y-88649051D01*
X141897396Y-88539641D01*
X141907216Y-88515934D01*
X141920156Y-88417643D01*
X141926273Y-88371183D01*
X141926273Y-88371176D01*
X141911636Y-88259996D01*
X152170715Y-88259996D01*
X152170715Y-88260003D01*
X152189771Y-88404753D01*
X152245644Y-88539641D01*
X152245645Y-88539643D01*
X152334525Y-88655474D01*
X152420852Y-88721715D01*
X152450357Y-88744355D01*
X152576596Y-88796645D01*
X152585246Y-88800228D01*
X152729997Y-88819285D01*
X152730000Y-88819285D01*
X152730003Y-88819285D01*
X152838565Y-88804992D01*
X152874754Y-88800228D01*
X153009643Y-88744355D01*
X153125474Y-88655474D01*
X153214355Y-88539643D01*
X153270228Y-88404754D01*
X153283782Y-88301801D01*
X153289285Y-88260003D01*
X153289285Y-88259996D01*
X153270229Y-88115249D01*
X153269859Y-88114355D01*
X153214355Y-87980358D01*
X153193674Y-87953406D01*
X153125474Y-87864525D01*
X153009643Y-87775645D01*
X153009641Y-87775644D01*
X152918844Y-87738034D01*
X152897738Y-87716927D01*
X152897738Y-87687078D01*
X152918845Y-87665972D01*
X152938859Y-87663337D01*
X153059997Y-87679285D01*
X153060000Y-87679285D01*
X153060003Y-87679285D01*
X153168565Y-87664992D01*
X153204754Y-87660228D01*
X153339643Y-87604355D01*
X153455474Y-87515474D01*
X153544355Y-87399643D01*
X153600228Y-87264754D01*
X153608800Y-87199641D01*
X153619285Y-87120003D01*
X153619285Y-87119996D01*
X153600229Y-86975249D01*
X153599871Y-86974384D01*
X153577343Y-86919996D01*
X155670715Y-86919996D01*
X155670715Y-86920003D01*
X155689771Y-87064753D01*
X155745644Y-87199641D01*
X155745645Y-87199643D01*
X155834525Y-87315474D01*
X155865627Y-87339339D01*
X155950357Y-87404355D01*
X156085246Y-87460228D01*
X156229997Y-87479285D01*
X156230000Y-87479285D01*
X156230003Y-87479285D01*
X156338565Y-87464992D01*
X156374754Y-87460228D01*
X156509643Y-87404355D01*
X156625474Y-87315474D01*
X156714355Y-87199643D01*
X156770228Y-87064754D01*
X156779411Y-86995000D01*
X156789285Y-86920003D01*
X156789285Y-86919996D01*
X156770229Y-86775249D01*
X156729633Y-86677243D01*
X156714355Y-86640358D01*
X156667207Y-86578913D01*
X156625474Y-86524525D01*
X156509643Y-86435645D01*
X156509641Y-86435644D01*
X156374753Y-86379771D01*
X156230003Y-86360715D01*
X156229997Y-86360715D01*
X156085249Y-86379770D01*
X155950359Y-86435644D01*
X155950357Y-86435645D01*
X155834525Y-86524525D01*
X155745645Y-86640357D01*
X155745644Y-86640359D01*
X155689770Y-86775249D01*
X155670715Y-86919996D01*
X153577343Y-86919996D01*
X153544355Y-86840358D01*
X153494393Y-86775246D01*
X153455474Y-86724525D01*
X153339643Y-86635645D01*
X153339641Y-86635644D01*
X153204753Y-86579771D01*
X153060003Y-86560715D01*
X153059997Y-86560715D01*
X152915249Y-86579770D01*
X152780359Y-86635644D01*
X152780357Y-86635645D01*
X152664525Y-86724525D01*
X152575645Y-86840357D01*
X152575644Y-86840359D01*
X152519770Y-86975249D01*
X152500715Y-87119996D01*
X152500715Y-87120003D01*
X152519771Y-87264753D01*
X152575644Y-87399641D01*
X152575645Y-87399643D01*
X152664525Y-87515474D01*
X152715105Y-87554285D01*
X152780357Y-87604355D01*
X152842257Y-87629995D01*
X152871155Y-87641965D01*
X152892261Y-87663071D01*
X152892261Y-87692921D01*
X152871155Y-87714027D01*
X152851140Y-87716662D01*
X152730003Y-87700715D01*
X152729997Y-87700715D01*
X152585249Y-87719770D01*
X152450359Y-87775644D01*
X152450357Y-87775645D01*
X152334525Y-87864525D01*
X152245645Y-87980357D01*
X152245644Y-87980359D01*
X152189770Y-88115249D01*
X152170715Y-88259996D01*
X141911636Y-88259996D01*
X141907217Y-88226429D01*
X141893024Y-88192164D01*
X141851343Y-88091538D01*
X141786831Y-88007465D01*
X141779107Y-87978634D01*
X141786830Y-87959986D01*
X141833918Y-87898623D01*
X141889791Y-87763734D01*
X141902552Y-87666803D01*
X141908848Y-87618983D01*
X141908848Y-87618976D01*
X141889792Y-87474229D01*
X141860849Y-87404355D01*
X141833918Y-87339338D01*
X141784276Y-87274643D01*
X141745037Y-87223505D01*
X141629206Y-87134625D01*
X141629204Y-87134624D01*
X141494316Y-87078751D01*
X141349566Y-87059695D01*
X141349560Y-87059695D01*
X141204812Y-87078750D01*
X141069922Y-87134624D01*
X141069920Y-87134625D01*
X140954088Y-87223505D01*
X140865208Y-87339337D01*
X140865207Y-87339339D01*
X140809333Y-87474229D01*
X140790278Y-87618976D01*
X140790278Y-87618983D01*
X140803298Y-87717887D01*
X140795573Y-87746719D01*
X140769722Y-87761643D01*
X140740890Y-87753918D01*
X140733690Y-87746717D01*
X140730474Y-87742526D01*
X140614643Y-87653645D01*
X140614641Y-87653644D01*
X140479753Y-87597771D01*
X140335003Y-87578715D01*
X140334997Y-87578715D01*
X140190249Y-87597770D01*
X140055359Y-87653644D01*
X140055357Y-87653645D01*
X139939525Y-87742525D01*
X139850645Y-87858357D01*
X139850644Y-87858359D01*
X139794770Y-87993249D01*
X139775715Y-88137996D01*
X134842569Y-88137996D01*
X134899643Y-88114355D01*
X135015474Y-88025474D01*
X135104355Y-87909643D01*
X135160228Y-87774754D01*
X135165062Y-87738034D01*
X135179285Y-87630003D01*
X135179285Y-87629998D01*
X135177430Y-87615917D01*
X135174439Y-87593194D01*
X135182164Y-87564364D01*
X135208014Y-87549439D01*
X135218193Y-87549439D01*
X135240917Y-87552430D01*
X135254998Y-87554285D01*
X135255000Y-87554285D01*
X135255003Y-87554285D01*
X135363565Y-87539992D01*
X135399754Y-87535228D01*
X135534643Y-87479355D01*
X135650474Y-87390474D01*
X135739355Y-87274643D01*
X135795228Y-87139754D01*
X135804317Y-87070715D01*
X135814285Y-86995003D01*
X135814285Y-86994998D01*
X135812430Y-86980917D01*
X135809439Y-86958194D01*
X135817164Y-86929364D01*
X135843014Y-86914439D01*
X135853193Y-86914439D01*
X135875917Y-86917430D01*
X135889998Y-86919285D01*
X135890000Y-86919285D01*
X135890003Y-86919285D01*
X135998565Y-86904992D01*
X136034754Y-86900228D01*
X136169643Y-86844355D01*
X136285474Y-86755474D01*
X136374355Y-86639643D01*
X136430228Y-86504754D01*
X136439326Y-86435645D01*
X136444336Y-86397596D01*
X137095373Y-86397596D01*
X137095373Y-86397603D01*
X137114429Y-86542353D01*
X137170302Y-86677241D01*
X137170303Y-86677243D01*
X137259183Y-86793074D01*
X137320804Y-86840357D01*
X137375015Y-86881955D01*
X137466854Y-86919996D01*
X137509904Y-86937828D01*
X137654655Y-86956885D01*
X137654658Y-86956885D01*
X137654661Y-86956885D01*
X137763223Y-86942592D01*
X137799412Y-86937828D01*
X137934301Y-86881955D01*
X138050132Y-86793074D01*
X138139013Y-86677243D01*
X138179746Y-86578906D01*
X138900715Y-86578906D01*
X138900715Y-86578913D01*
X138919771Y-86723663D01*
X138975644Y-86858551D01*
X138975645Y-86858553D01*
X139064525Y-86974384D01*
X139139353Y-87031801D01*
X139180357Y-87063265D01*
X139226056Y-87082194D01*
X139315246Y-87119138D01*
X139459997Y-87138195D01*
X139460000Y-87138195D01*
X139460003Y-87138195D01*
X139568565Y-87123902D01*
X139604754Y-87119138D01*
X139739643Y-87063265D01*
X139855474Y-86974384D01*
X139944355Y-86858553D01*
X140000228Y-86723664D01*
X140011195Y-86640358D01*
X140019285Y-86578913D01*
X140019285Y-86578906D01*
X140000229Y-86434159D01*
X139985084Y-86397596D01*
X139944355Y-86299268D01*
X139923674Y-86272316D01*
X139855474Y-86183435D01*
X139739643Y-86094555D01*
X139739641Y-86094554D01*
X139604753Y-86038681D01*
X139460003Y-86019625D01*
X139459997Y-86019625D01*
X139315249Y-86038680D01*
X139180359Y-86094554D01*
X139180357Y-86094555D01*
X139064525Y-86183435D01*
X138975645Y-86299267D01*
X138975644Y-86299269D01*
X138919770Y-86434159D01*
X138900715Y-86578906D01*
X138179746Y-86578906D01*
X138194886Y-86542354D01*
X138207414Y-86447194D01*
X138213943Y-86397603D01*
X138213943Y-86397596D01*
X138194887Y-86252849D01*
X138181375Y-86220228D01*
X138139013Y-86117958D01*
X138084542Y-86046970D01*
X138050132Y-86002125D01*
X137934301Y-85913245D01*
X137934299Y-85913244D01*
X137799411Y-85857371D01*
X137654661Y-85838315D01*
X137654655Y-85838315D01*
X137509907Y-85857370D01*
X137375017Y-85913244D01*
X137375015Y-85913245D01*
X137259183Y-86002125D01*
X137170303Y-86117957D01*
X137170302Y-86117959D01*
X137114428Y-86252849D01*
X137095373Y-86397596D01*
X136444336Y-86397596D01*
X136449285Y-86360003D01*
X136449285Y-86359996D01*
X136430229Y-86215249D01*
X136430228Y-86215246D01*
X136374355Y-86080358D01*
X136353674Y-86053406D01*
X136285474Y-85964525D01*
X136169643Y-85875645D01*
X136169641Y-85875644D01*
X136034753Y-85819771D01*
X135890003Y-85800715D01*
X135889995Y-85800715D01*
X135853194Y-85805559D01*
X135824362Y-85797833D01*
X135809439Y-85771982D01*
X135809439Y-85761806D01*
X135812151Y-85741205D01*
X141867620Y-85741205D01*
X141867620Y-85741212D01*
X141886676Y-85885962D01*
X141942549Y-86020850D01*
X141942550Y-86020852D01*
X142031430Y-86136683D01*
X142067948Y-86164704D01*
X142147262Y-86225564D01*
X142213134Y-86252849D01*
X142282151Y-86281437D01*
X142426902Y-86300494D01*
X142426905Y-86300494D01*
X142426908Y-86300494D01*
X142550026Y-86284285D01*
X142571659Y-86281437D01*
X142706548Y-86225564D01*
X142762119Y-86182920D01*
X142790948Y-86175195D01*
X142809600Y-86182920D01*
X142899211Y-86251682D01*
X143014096Y-86299269D01*
X143034100Y-86307555D01*
X143178851Y-86326612D01*
X143178854Y-86326612D01*
X143178857Y-86326612D01*
X143287419Y-86312319D01*
X143323608Y-86307555D01*
X143458497Y-86251682D01*
X143574328Y-86162801D01*
X143663209Y-86046970D01*
X143719082Y-85912081D01*
X143723879Y-85875644D01*
X143738139Y-85767330D01*
X143738139Y-85767323D01*
X143726642Y-85679996D01*
X148940715Y-85679996D01*
X148940715Y-85680003D01*
X148959771Y-85824753D01*
X149015644Y-85959641D01*
X149015645Y-85959643D01*
X149104525Y-86075474D01*
X149177726Y-86131643D01*
X149220357Y-86164355D01*
X149343226Y-86215249D01*
X149355246Y-86220228D01*
X149499997Y-86239285D01*
X149500000Y-86239285D01*
X149500003Y-86239285D01*
X149608565Y-86224992D01*
X149644754Y-86220228D01*
X149779643Y-86164355D01*
X149895474Y-86075474D01*
X149984355Y-85959643D01*
X150040228Y-85824754D01*
X150044992Y-85788565D01*
X150059285Y-85680003D01*
X150059285Y-85679996D01*
X150040229Y-85535249D01*
X150009708Y-85461566D01*
X149984355Y-85400358D01*
X149959253Y-85367644D01*
X149895474Y-85284525D01*
X149779643Y-85195645D01*
X149779641Y-85195644D01*
X149644753Y-85139771D01*
X149500003Y-85120715D01*
X149499997Y-85120715D01*
X149355249Y-85139770D01*
X149220359Y-85195644D01*
X149220357Y-85195645D01*
X149104525Y-85284525D01*
X149015645Y-85400357D01*
X149015644Y-85400359D01*
X148959770Y-85535249D01*
X148940715Y-85679996D01*
X143726642Y-85679996D01*
X143719083Y-85622576D01*
X143719082Y-85622573D01*
X143663209Y-85487685D01*
X143630730Y-85445357D01*
X143574328Y-85371852D01*
X143458497Y-85282972D01*
X143458495Y-85282971D01*
X143323607Y-85227098D01*
X143178857Y-85208042D01*
X143178851Y-85208042D01*
X143034103Y-85227097D01*
X142899213Y-85282971D01*
X142899207Y-85282975D01*
X142843639Y-85325613D01*
X142814807Y-85333338D01*
X142796156Y-85325613D01*
X142706548Y-85256854D01*
X142706546Y-85256853D01*
X142571658Y-85200980D01*
X142426908Y-85181924D01*
X142426902Y-85181924D01*
X142282154Y-85200979D01*
X142147264Y-85256853D01*
X142147262Y-85256854D01*
X142031430Y-85345734D01*
X141942550Y-85461566D01*
X141942549Y-85461568D01*
X141886675Y-85596458D01*
X141867620Y-85741205D01*
X135812151Y-85741205D01*
X135814285Y-85725000D01*
X135814285Y-85724998D01*
X135814285Y-85724996D01*
X135795229Y-85580249D01*
X135791961Y-85572359D01*
X135739355Y-85445358D01*
X135661451Y-85343831D01*
X135650474Y-85329525D01*
X135534643Y-85240645D01*
X135534641Y-85240644D01*
X135399753Y-85184771D01*
X135255003Y-85165715D01*
X135254995Y-85165715D01*
X135218194Y-85170559D01*
X135189362Y-85162833D01*
X135174439Y-85136982D01*
X135174439Y-85126806D01*
X135179285Y-85090000D01*
X135179285Y-85089998D01*
X135179285Y-85089996D01*
X135160229Y-84945249D01*
X135135171Y-84884754D01*
X135114975Y-84835996D01*
X155142715Y-84835996D01*
X155142715Y-84836003D01*
X155161771Y-84980753D01*
X155217644Y-85115641D01*
X155217645Y-85115643D01*
X155306525Y-85231474D01*
X155373639Y-85282972D01*
X155422357Y-85320355D01*
X155546684Y-85371853D01*
X155557246Y-85376228D01*
X155701997Y-85395285D01*
X155702000Y-85395285D01*
X155702003Y-85395285D01*
X155810565Y-85380992D01*
X155846754Y-85376228D01*
X155981643Y-85320355D01*
X156097474Y-85231474D01*
X156186355Y-85115643D01*
X156242228Y-84980754D01*
X156246992Y-84944565D01*
X156261285Y-84836003D01*
X156261285Y-84835996D01*
X156242229Y-84691249D01*
X156219738Y-84636952D01*
X156186355Y-84556358D01*
X156144631Y-84501982D01*
X156097474Y-84440525D01*
X155981643Y-84351645D01*
X155981641Y-84351644D01*
X155846753Y-84295771D01*
X155702003Y-84276715D01*
X155701997Y-84276715D01*
X155557249Y-84295770D01*
X155422359Y-84351644D01*
X155422357Y-84351645D01*
X155306525Y-84440525D01*
X155217645Y-84556357D01*
X155217644Y-84556359D01*
X155161770Y-84691249D01*
X155142715Y-84835996D01*
X135114975Y-84835996D01*
X135104355Y-84810358D01*
X135050370Y-84740003D01*
X135015474Y-84694525D01*
X134899643Y-84605645D01*
X134899641Y-84605644D01*
X134764753Y-84549771D01*
X134620003Y-84530715D01*
X134619995Y-84530715D01*
X134583194Y-84535559D01*
X134554362Y-84527833D01*
X134539439Y-84501982D01*
X134539439Y-84491806D01*
X134544285Y-84455000D01*
X134544285Y-84454998D01*
X134544285Y-84454996D01*
X134525229Y-84310249D01*
X134525228Y-84310246D01*
X134469355Y-84175358D01*
X134402687Y-84088474D01*
X134380474Y-84059525D01*
X134264643Y-83970645D01*
X134264641Y-83970644D01*
X134129753Y-83914771D01*
X133985003Y-83895715D01*
X133984995Y-83895715D01*
X133948194Y-83900559D01*
X133919362Y-83892833D01*
X133904439Y-83866982D01*
X133904439Y-83856806D01*
X133909285Y-83820000D01*
X133909285Y-83819998D01*
X133909285Y-83819996D01*
X133890229Y-83675249D01*
X133890228Y-83675246D01*
X133834355Y-83540358D01*
X133809491Y-83507955D01*
X133745474Y-83424525D01*
X133629643Y-83335645D01*
X133629641Y-83335644D01*
X133494753Y-83279771D01*
X133350003Y-83260715D01*
X133349995Y-83260715D01*
X133313194Y-83265559D01*
X133284362Y-83257833D01*
X133269439Y-83231982D01*
X133269439Y-83228310D01*
X135913351Y-83228310D01*
X135913351Y-83228317D01*
X135932407Y-83373067D01*
X135988280Y-83507955D01*
X135988281Y-83507957D01*
X136077161Y-83623788D01*
X136153275Y-83682192D01*
X136192993Y-83712669D01*
X136327882Y-83768542D01*
X136402044Y-83778305D01*
X136427894Y-83793229D01*
X136435620Y-83811880D01*
X136449771Y-83919367D01*
X136505644Y-84054255D01*
X136505645Y-84054257D01*
X136594525Y-84170088D01*
X136603996Y-84177355D01*
X136710357Y-84258969D01*
X136799205Y-84295771D01*
X136845246Y-84314842D01*
X136989997Y-84333899D01*
X136990000Y-84333899D01*
X136990003Y-84333899D01*
X137098565Y-84319606D01*
X137134754Y-84314842D01*
X137269643Y-84258969D01*
X137385474Y-84170088D01*
X137474355Y-84054257D01*
X137530228Y-83919368D01*
X137533489Y-83894601D01*
X144011778Y-83894601D01*
X144011778Y-83894608D01*
X144030834Y-84039358D01*
X144086707Y-84174246D01*
X144086708Y-84174248D01*
X144175588Y-84290079D01*
X144246544Y-84344525D01*
X144291420Y-84378960D01*
X144386139Y-84418194D01*
X144426309Y-84434833D01*
X144571060Y-84453890D01*
X144571063Y-84453890D01*
X144571066Y-84453890D01*
X144679628Y-84439597D01*
X144715817Y-84434833D01*
X144809707Y-84395941D01*
X144839555Y-84395941D01*
X144855572Y-84408231D01*
X144905379Y-84473141D01*
X144967275Y-84520635D01*
X145021211Y-84562022D01*
X145101421Y-84595246D01*
X145156100Y-84617895D01*
X145300851Y-84636952D01*
X145300854Y-84636952D01*
X145300857Y-84636952D01*
X145409419Y-84622659D01*
X145445608Y-84617895D01*
X145580497Y-84562022D01*
X145696328Y-84473141D01*
X145785209Y-84357310D01*
X145841082Y-84222421D01*
X145847972Y-84170088D01*
X145860139Y-84077670D01*
X145860139Y-84077663D01*
X145841083Y-83932916D01*
X145835471Y-83919367D01*
X145785209Y-83798025D01*
X145743973Y-83744285D01*
X145696328Y-83682192D01*
X145580497Y-83593312D01*
X145580495Y-83593311D01*
X145445607Y-83537438D01*
X145300857Y-83518382D01*
X145300851Y-83518382D01*
X145156100Y-83537438D01*
X145062209Y-83576329D01*
X145032359Y-83576329D01*
X145016343Y-83564040D01*
X144966537Y-83499130D01*
X144850706Y-83410250D01*
X144850704Y-83410249D01*
X144715816Y-83354376D01*
X144571066Y-83335320D01*
X144571060Y-83335320D01*
X144426312Y-83354375D01*
X144291422Y-83410249D01*
X144291420Y-83410250D01*
X144175588Y-83499130D01*
X144086708Y-83614962D01*
X144086707Y-83614964D01*
X144030833Y-83749854D01*
X144011778Y-83894601D01*
X137533489Y-83894601D01*
X137541993Y-83830003D01*
X137549285Y-83774617D01*
X137549285Y-83774610D01*
X137530229Y-83629863D01*
X137515089Y-83593312D01*
X137474355Y-83494972D01*
X137427973Y-83434526D01*
X137385474Y-83379139D01*
X137269643Y-83290259D01*
X137269639Y-83290257D01*
X137266422Y-83288924D01*
X137245319Y-83267815D01*
X137245323Y-83237965D01*
X137266427Y-83216864D01*
X137359238Y-83178421D01*
X137475069Y-83089540D01*
X137563950Y-82973709D01*
X137619823Y-82838820D01*
X137626313Y-82789525D01*
X137638880Y-82694069D01*
X137638880Y-82694062D01*
X137633079Y-82649996D01*
X138250715Y-82649996D01*
X138250715Y-82650003D01*
X138269771Y-82794753D01*
X138325644Y-82929641D01*
X138325645Y-82929643D01*
X138414525Y-83045474D01*
X138464160Y-83083560D01*
X138530357Y-83134355D01*
X138636744Y-83178422D01*
X138665246Y-83190228D01*
X138809997Y-83209285D01*
X138810000Y-83209285D01*
X138810003Y-83209285D01*
X138918565Y-83194992D01*
X138954754Y-83190228D01*
X139089643Y-83134355D01*
X139205474Y-83045474D01*
X139294355Y-82929643D01*
X139350228Y-82794754D01*
X139356915Y-82743958D01*
X139369285Y-82650003D01*
X139369285Y-82649996D01*
X139350229Y-82505249D01*
X139350228Y-82505246D01*
X139294355Y-82370358D01*
X139255440Y-82319643D01*
X139205474Y-82254525D01*
X139089643Y-82165645D01*
X139089641Y-82165644D01*
X138954753Y-82109771D01*
X138810003Y-82090715D01*
X138809997Y-82090715D01*
X138665249Y-82109770D01*
X138530359Y-82165644D01*
X138530357Y-82165645D01*
X138414525Y-82254525D01*
X138325645Y-82370357D01*
X138325644Y-82370359D01*
X138269770Y-82505249D01*
X138250715Y-82649996D01*
X137633079Y-82649996D01*
X137619824Y-82549315D01*
X137609485Y-82524354D01*
X137563950Y-82414424D01*
X137492493Y-82321299D01*
X137475069Y-82298591D01*
X137359238Y-82209711D01*
X137359236Y-82209710D01*
X137224345Y-82153836D01*
X137110638Y-82138867D01*
X137084788Y-82123943D01*
X137077063Y-82105291D01*
X137065427Y-82016902D01*
X137043698Y-81964445D01*
X137009554Y-81882014D01*
X136974671Y-81836554D01*
X136920673Y-81766181D01*
X136804842Y-81677301D01*
X136804840Y-81677300D01*
X136669952Y-81621427D01*
X136525202Y-81602371D01*
X136525196Y-81602371D01*
X136380448Y-81621426D01*
X136245558Y-81677300D01*
X136245556Y-81677301D01*
X136129724Y-81766181D01*
X136040844Y-81882013D01*
X136040843Y-81882015D01*
X135984969Y-82016905D01*
X135965914Y-82161652D01*
X135965914Y-82161659D01*
X135984970Y-82306409D01*
X136040843Y-82441297D01*
X136040844Y-82441299D01*
X136129724Y-82557130D01*
X136212940Y-82620984D01*
X136245556Y-82646011D01*
X136250518Y-82648066D01*
X136271626Y-82669171D01*
X136271628Y-82699020D01*
X136250523Y-82720128D01*
X136250521Y-82720129D01*
X136192995Y-82743958D01*
X136192993Y-82743959D01*
X136077161Y-82832839D01*
X135988281Y-82948671D01*
X135988280Y-82948673D01*
X135932406Y-83083563D01*
X135913351Y-83228310D01*
X133269439Y-83228310D01*
X133269439Y-83221806D01*
X133274285Y-83185000D01*
X133274285Y-83184996D01*
X133255229Y-83040249D01*
X133242403Y-83009285D01*
X133199355Y-82905358D01*
X133165420Y-82861133D01*
X133110474Y-82789525D01*
X132994643Y-82700645D01*
X132994641Y-82700644D01*
X132859753Y-82644771D01*
X132715003Y-82625715D01*
X132714997Y-82625715D01*
X132570249Y-82644770D01*
X132435359Y-82700644D01*
X132435357Y-82700645D01*
X132319525Y-82789525D01*
X132230645Y-82905357D01*
X132230644Y-82905359D01*
X132174770Y-83040249D01*
X132155715Y-83184996D01*
X132155715Y-83185003D01*
X132160559Y-83221803D01*
X132152833Y-83250635D01*
X132126983Y-83265559D01*
X132116803Y-83265559D01*
X132080003Y-83260715D01*
X132079997Y-83260715D01*
X131935249Y-83279770D01*
X131800359Y-83335644D01*
X131800357Y-83335645D01*
X131684525Y-83424525D01*
X131595645Y-83540357D01*
X131595644Y-83540359D01*
X131539770Y-83675249D01*
X131520715Y-83819996D01*
X131520715Y-83820003D01*
X131525559Y-83856803D01*
X131517833Y-83885635D01*
X131491983Y-83900559D01*
X131481803Y-83900559D01*
X131445003Y-83895715D01*
X131444997Y-83895715D01*
X131300249Y-83914770D01*
X131165359Y-83970644D01*
X131165357Y-83970645D01*
X131049525Y-84059525D01*
X130960645Y-84175357D01*
X130960644Y-84175359D01*
X130904770Y-84310249D01*
X130885715Y-84454996D01*
X130885715Y-84455003D01*
X130890559Y-84491803D01*
X130882833Y-84520635D01*
X130856983Y-84535559D01*
X130846803Y-84535559D01*
X130810003Y-84530715D01*
X130809997Y-84530715D01*
X130665249Y-84549770D01*
X130530359Y-84605644D01*
X130530357Y-84605645D01*
X130414525Y-84694525D01*
X130325645Y-84810357D01*
X130325644Y-84810359D01*
X130269770Y-84945249D01*
X130250715Y-85089996D01*
X130250715Y-85090003D01*
X130255559Y-85126803D01*
X130247833Y-85155635D01*
X130221983Y-85170559D01*
X130211803Y-85170559D01*
X130175003Y-85165715D01*
X130174997Y-85165715D01*
X130030249Y-85184770D01*
X129895359Y-85240644D01*
X129895357Y-85240645D01*
X129779525Y-85329525D01*
X129690645Y-85445357D01*
X129690644Y-85445359D01*
X129634770Y-85580249D01*
X129615715Y-85724996D01*
X129615715Y-85725003D01*
X129620559Y-85761803D01*
X129612833Y-85790635D01*
X129586983Y-85805559D01*
X129576803Y-85805559D01*
X129540003Y-85800715D01*
X129539997Y-85800715D01*
X129395249Y-85819770D01*
X129260359Y-85875644D01*
X129260357Y-85875645D01*
X129144525Y-85964525D01*
X129055645Y-86080357D01*
X129055644Y-86080359D01*
X128999770Y-86215249D01*
X128980715Y-86359996D01*
X125799069Y-86359996D01*
X125856143Y-86336355D01*
X125971974Y-86247474D01*
X126060855Y-86131643D01*
X126116728Y-85996754D01*
X126127875Y-85912081D01*
X126135785Y-85852003D01*
X126135785Y-85851996D01*
X126116729Y-85707249D01*
X126105442Y-85680000D01*
X126060855Y-85572358D01*
X125995884Y-85487686D01*
X125971974Y-85456525D01*
X125856143Y-85367645D01*
X125856141Y-85367644D01*
X125721253Y-85311771D01*
X125576503Y-85292715D01*
X125576497Y-85292715D01*
X125431749Y-85311770D01*
X125296859Y-85367644D01*
X125296857Y-85367645D01*
X125181025Y-85456525D01*
X125092145Y-85572357D01*
X125092144Y-85572359D01*
X125036270Y-85707249D01*
X125017215Y-85851996D01*
X120025900Y-85851996D01*
X120025900Y-84739996D01*
X122570715Y-84739996D01*
X122570715Y-84740003D01*
X122589771Y-84884753D01*
X122645644Y-85019641D01*
X122645645Y-85019643D01*
X122734525Y-85135474D01*
X122798772Y-85184772D01*
X122850357Y-85224355D01*
X122985246Y-85280228D01*
X123129997Y-85299285D01*
X123130000Y-85299285D01*
X123130003Y-85299285D01*
X123253911Y-85282972D01*
X123274754Y-85280228D01*
X123409643Y-85224355D01*
X123525474Y-85135474D01*
X123614355Y-85019643D01*
X123670228Y-84884754D01*
X123680022Y-84810358D01*
X123689285Y-84740003D01*
X123689285Y-84739996D01*
X123670229Y-84595249D01*
X123656466Y-84562022D01*
X123614355Y-84460358D01*
X123582003Y-84418196D01*
X123525474Y-84344525D01*
X123493221Y-84319777D01*
X123478297Y-84293926D01*
X123486022Y-84265094D01*
X123493219Y-84257896D01*
X123535474Y-84225474D01*
X123624355Y-84109643D01*
X123680228Y-83974754D01*
X123691961Y-83885635D01*
X123699285Y-83830003D01*
X123699285Y-83829996D01*
X123680229Y-83685249D01*
X123651116Y-83614964D01*
X123624355Y-83550358D01*
X123585047Y-83499131D01*
X123535474Y-83434525D01*
X123419643Y-83345645D01*
X123419641Y-83345644D01*
X123284753Y-83289771D01*
X123140003Y-83270715D01*
X123139997Y-83270715D01*
X122995249Y-83289770D01*
X122860359Y-83345644D01*
X122860357Y-83345645D01*
X122744525Y-83434525D01*
X122655645Y-83550357D01*
X122655644Y-83550359D01*
X122599770Y-83685249D01*
X122580715Y-83829996D01*
X122580715Y-83830003D01*
X122599771Y-83974753D01*
X122655644Y-84109641D01*
X122655645Y-84109643D01*
X122744525Y-84225474D01*
X122776778Y-84250222D01*
X122791702Y-84276073D01*
X122783977Y-84304905D01*
X122776778Y-84312104D01*
X122734525Y-84344525D01*
X122645645Y-84460357D01*
X122645644Y-84460359D01*
X122589770Y-84595249D01*
X122570715Y-84739996D01*
X120025900Y-84739996D01*
X120025900Y-83209996D01*
X129090715Y-83209996D01*
X129090715Y-83210003D01*
X129109771Y-83354753D01*
X129165644Y-83489641D01*
X129165645Y-83489643D01*
X129254525Y-83605474D01*
X129343406Y-83673674D01*
X129370357Y-83694355D01*
X129479199Y-83739439D01*
X129505246Y-83750228D01*
X129649997Y-83769285D01*
X129650000Y-83769285D01*
X129650003Y-83769285D01*
X129758565Y-83754992D01*
X129794754Y-83750228D01*
X129929643Y-83694355D01*
X130045474Y-83605474D01*
X130134355Y-83489643D01*
X130190228Y-83354754D01*
X130198895Y-83288924D01*
X130209285Y-83210003D01*
X130209285Y-83209996D01*
X130190229Y-83065249D01*
X130179874Y-83040249D01*
X130134355Y-82930358D01*
X130134352Y-82930354D01*
X130133712Y-82929245D01*
X130133627Y-82928600D01*
X130133377Y-82927997D01*
X130133538Y-82927930D01*
X130129813Y-82899652D01*
X130143744Y-82878801D01*
X130166764Y-82861137D01*
X130208357Y-82829222D01*
X130297238Y-82713391D01*
X130353111Y-82578502D01*
X130370028Y-82450003D01*
X130372168Y-82433751D01*
X130372168Y-82433744D01*
X130353112Y-82288998D01*
X130353111Y-82288996D01*
X130353111Y-82288994D01*
X130329701Y-82232481D01*
X130329701Y-82202634D01*
X130341990Y-82186618D01*
X130438208Y-82112788D01*
X130439192Y-82111504D01*
X130439899Y-82111096D01*
X130440012Y-82110984D01*
X130440042Y-82111014D01*
X130465035Y-82096573D01*
X130493869Y-82104289D01*
X130510738Y-82117233D01*
X130617992Y-82161659D01*
X130645627Y-82173106D01*
X130790378Y-82192163D01*
X130790381Y-82192163D01*
X130790384Y-82192163D01*
X130917148Y-82175474D01*
X130935135Y-82173106D01*
X131070024Y-82117233D01*
X131185855Y-82028352D01*
X131274736Y-81912521D01*
X131330609Y-81777632D01*
X131338550Y-81717314D01*
X131349666Y-81632881D01*
X131349666Y-81632876D01*
X131333857Y-81512795D01*
X131341582Y-81483962D01*
X131357595Y-81471675D01*
X131414267Y-81448201D01*
X131530098Y-81359320D01*
X131618979Y-81243489D01*
X131626783Y-81224646D01*
X131647888Y-81203540D01*
X131677734Y-81203539D01*
X131689856Y-81208560D01*
X131689859Y-81208560D01*
X131689861Y-81208561D01*
X131834607Y-81227617D01*
X131834610Y-81227617D01*
X131834613Y-81227617D01*
X131943175Y-81213324D01*
X131979364Y-81208560D01*
X132114253Y-81152687D01*
X132230084Y-81063806D01*
X132318965Y-80947975D01*
X132374838Y-80813086D01*
X132390634Y-80693104D01*
X132393895Y-80668335D01*
X132393895Y-80668328D01*
X132374839Y-80523581D01*
X132374838Y-80523578D01*
X132318965Y-80388690D01*
X132276206Y-80332965D01*
X132230084Y-80272857D01*
X132114253Y-80183977D01*
X132114251Y-80183976D01*
X131979363Y-80128103D01*
X131834613Y-80109047D01*
X131834607Y-80109047D01*
X131689859Y-80128102D01*
X131554969Y-80183976D01*
X131554967Y-80183977D01*
X131439135Y-80272857D01*
X131350254Y-80388690D01*
X131342450Y-80407531D01*
X131321342Y-80428637D01*
X131291494Y-80428636D01*
X131279377Y-80423617D01*
X131134627Y-80404561D01*
X131134621Y-80404561D01*
X130989873Y-80423616D01*
X130854983Y-80479490D01*
X130854981Y-80479491D01*
X130739149Y-80568371D01*
X130650269Y-80684203D01*
X130650268Y-80684205D01*
X130594394Y-80819095D01*
X130575339Y-80963842D01*
X130575339Y-80963849D01*
X130591147Y-81083928D01*
X130583422Y-81112760D01*
X130567406Y-81125049D01*
X130510740Y-81148521D01*
X130394907Y-81237404D01*
X130393916Y-81238696D01*
X130393203Y-81239107D01*
X130393100Y-81239211D01*
X130393072Y-81239183D01*
X130368065Y-81253620D01*
X130339234Y-81245894D01*
X130331254Y-81239771D01*
X130322377Y-81232959D01*
X130322375Y-81232958D01*
X130187487Y-81177085D01*
X130042737Y-81158029D01*
X130042731Y-81158029D01*
X129897983Y-81177084D01*
X129763093Y-81232958D01*
X129763091Y-81232959D01*
X129647259Y-81321839D01*
X129558379Y-81437671D01*
X129558378Y-81437673D01*
X129502504Y-81572563D01*
X129483449Y-81717310D01*
X129483449Y-81717317D01*
X129502504Y-81862064D01*
X129525914Y-81918579D01*
X129525914Y-81948429D01*
X129513625Y-81964445D01*
X129417408Y-82038273D01*
X129328528Y-82154105D01*
X129328527Y-82154107D01*
X129272653Y-82288997D01*
X129253598Y-82433744D01*
X129253598Y-82433751D01*
X129272654Y-82578501D01*
X129328527Y-82713389D01*
X129329173Y-82714508D01*
X129329257Y-82715152D01*
X129329506Y-82715752D01*
X129329345Y-82715818D01*
X129333066Y-82744103D01*
X129319138Y-82764945D01*
X129254527Y-82814523D01*
X129165645Y-82930357D01*
X129165644Y-82930359D01*
X129109770Y-83065249D01*
X129090715Y-83209996D01*
X120025900Y-83209996D01*
X120025900Y-79509996D01*
X141410716Y-79509996D01*
X141410716Y-79510003D01*
X141429772Y-79654753D01*
X141485645Y-79789641D01*
X141485646Y-79789643D01*
X141574526Y-79905474D01*
X141663407Y-79973674D01*
X141690358Y-79994355D01*
X141796318Y-80038245D01*
X141825247Y-80050228D01*
X141969998Y-80069285D01*
X141970001Y-80069285D01*
X141970003Y-80069285D01*
X142081141Y-80054653D01*
X142114755Y-80050228D01*
X142114755Y-80050227D01*
X142117223Y-80049903D01*
X142146056Y-80057628D01*
X142158345Y-80073644D01*
X142170117Y-80102063D01*
X142190099Y-80128104D01*
X142258997Y-80217894D01*
X142300613Y-80249826D01*
X142327377Y-80270363D01*
X142342301Y-80296213D01*
X142334576Y-80325046D01*
X142308726Y-80339970D01*
X142255249Y-80347010D01*
X142120359Y-80402884D01*
X142120357Y-80402885D01*
X142004525Y-80491765D01*
X141915645Y-80607597D01*
X141915644Y-80607599D01*
X141859770Y-80742489D01*
X141840715Y-80887236D01*
X141840715Y-80887243D01*
X141859771Y-81031993D01*
X141915644Y-81166881D01*
X141915645Y-81166883D01*
X142004525Y-81282714D01*
X142093406Y-81350914D01*
X142120357Y-81371595D01*
X142255246Y-81427468D01*
X142399997Y-81446525D01*
X142400000Y-81446525D01*
X142400002Y-81446525D01*
X142467243Y-81437672D01*
X142514971Y-81431388D01*
X142543803Y-81439113D01*
X142556093Y-81455129D01*
X142581677Y-81516894D01*
X142581678Y-81516896D01*
X142670558Y-81632727D01*
X142728647Y-81677300D01*
X142786390Y-81721608D01*
X142894001Y-81766182D01*
X142921279Y-81777481D01*
X142940774Y-81780048D01*
X142966624Y-81794972D01*
X142974350Y-81823804D01*
X142959426Y-81849654D01*
X142950609Y-81854745D01*
X142859639Y-81892426D01*
X142859637Y-81892427D01*
X142743805Y-81981307D01*
X142654925Y-82097139D01*
X142654924Y-82097141D01*
X142599050Y-82232031D01*
X142579995Y-82376778D01*
X142579995Y-82376785D01*
X142599051Y-82521535D01*
X142654924Y-82656423D01*
X142654925Y-82656425D01*
X142743805Y-82772256D01*
X142818045Y-82829222D01*
X142859637Y-82861137D01*
X142959356Y-82902442D01*
X142994526Y-82917010D01*
X143139277Y-82936067D01*
X143139280Y-82936067D01*
X143139283Y-82936067D01*
X143247845Y-82921774D01*
X143284034Y-82917010D01*
X143418923Y-82861137D01*
X143518661Y-82784604D01*
X143547491Y-82776879D01*
X143573341Y-82791803D01*
X143573342Y-82791803D01*
X143614525Y-82845474D01*
X143692566Y-82905357D01*
X143730357Y-82934355D01*
X143764924Y-82948673D01*
X143865246Y-82990228D01*
X144009997Y-83009285D01*
X144010000Y-83009285D01*
X144010003Y-83009285D01*
X144118565Y-82994992D01*
X144154754Y-82990228D01*
X144289643Y-82934355D01*
X144405474Y-82845474D01*
X144466663Y-82765731D01*
X152586214Y-82765731D01*
X152586214Y-82765738D01*
X152605270Y-82910488D01*
X152661143Y-83045376D01*
X152661144Y-83045378D01*
X152750024Y-83161209D01*
X152822555Y-83216864D01*
X152865856Y-83250090D01*
X152980372Y-83297524D01*
X153000745Y-83305963D01*
X153145496Y-83325020D01*
X153145499Y-83325020D01*
X153145502Y-83325020D01*
X153254064Y-83310727D01*
X153290253Y-83305963D01*
X153425142Y-83250090D01*
X153540973Y-83161209D01*
X153629854Y-83045378D01*
X153685727Y-82910489D01*
X153695162Y-82838820D01*
X153702907Y-82779996D01*
X158063715Y-82779996D01*
X158063715Y-82780003D01*
X158082771Y-82924753D01*
X158138644Y-83059641D01*
X158138645Y-83059643D01*
X158227525Y-83175474D01*
X158266733Y-83205559D01*
X158281657Y-83231410D01*
X158273932Y-83260242D01*
X158266733Y-83267441D01*
X158227525Y-83297525D01*
X158138645Y-83413357D01*
X158138644Y-83413359D01*
X158082770Y-83548249D01*
X158063715Y-83692996D01*
X158063715Y-83693003D01*
X158082771Y-83837753D01*
X158138644Y-83972641D01*
X158138645Y-83972643D01*
X158227525Y-84088474D01*
X158316406Y-84156674D01*
X158343357Y-84177355D01*
X158459526Y-84225474D01*
X158478246Y-84233228D01*
X158622997Y-84252285D01*
X158623000Y-84252285D01*
X158623003Y-84252285D01*
X158731565Y-84237992D01*
X158767754Y-84233228D01*
X158902643Y-84177355D01*
X159018474Y-84088474D01*
X159107355Y-83972643D01*
X159163228Y-83837754D01*
X159168458Y-83798025D01*
X159182285Y-83693003D01*
X159182285Y-83692996D01*
X159163229Y-83548249D01*
X159159961Y-83540359D01*
X159107355Y-83413358D01*
X159018474Y-83297526D01*
X159018472Y-83297525D01*
X159018472Y-83297524D01*
X158979267Y-83267441D01*
X158964342Y-83241591D01*
X158972067Y-83212759D01*
X158979267Y-83205559D01*
X158999246Y-83190228D01*
X159018474Y-83175474D01*
X159107355Y-83059643D01*
X159163228Y-82924754D01*
X159174541Y-82838820D01*
X159182285Y-82780003D01*
X159182285Y-82779996D01*
X159163229Y-82635249D01*
X159146455Y-82594753D01*
X159107355Y-82500358D01*
X159068711Y-82449996D01*
X159018474Y-82384525D01*
X158936076Y-82321299D01*
X158921152Y-82295448D01*
X158928877Y-82266616D01*
X158936072Y-82259421D01*
X159045474Y-82175474D01*
X159134355Y-82059643D01*
X159190228Y-81924754D01*
X159207314Y-81794972D01*
X159209285Y-81780003D01*
X159209285Y-81779996D01*
X159190229Y-81635249D01*
X159189246Y-81632876D01*
X159134355Y-81500358D01*
X159094332Y-81448199D01*
X159045474Y-81384525D01*
X158929643Y-81295645D01*
X158929641Y-81295644D01*
X158794753Y-81239771D01*
X158650003Y-81220715D01*
X158649997Y-81220715D01*
X158505249Y-81239770D01*
X158370359Y-81295644D01*
X158370357Y-81295645D01*
X158254525Y-81384525D01*
X158165645Y-81500357D01*
X158165644Y-81500359D01*
X158109770Y-81635249D01*
X158090715Y-81779996D01*
X158090715Y-81780003D01*
X158109771Y-81924753D01*
X158165644Y-82059641D01*
X158165645Y-82059643D01*
X158254525Y-82175474D01*
X158336923Y-82238700D01*
X158351847Y-82264551D01*
X158344122Y-82293383D01*
X158336923Y-82300582D01*
X158227525Y-82384525D01*
X158138645Y-82500357D01*
X158138644Y-82500359D01*
X158082770Y-82635249D01*
X158063715Y-82779996D01*
X153702907Y-82779996D01*
X153704784Y-82765738D01*
X153704784Y-82765731D01*
X153685728Y-82620984D01*
X153668131Y-82578501D01*
X153629854Y-82486093D01*
X153602156Y-82449996D01*
X153540973Y-82370260D01*
X153425142Y-82281380D01*
X153425140Y-82281379D01*
X153290252Y-82225506D01*
X153145502Y-82206450D01*
X153145496Y-82206450D01*
X153000748Y-82225505D01*
X152865858Y-82281379D01*
X152865856Y-82281380D01*
X152750024Y-82370260D01*
X152661144Y-82486092D01*
X152661143Y-82486094D01*
X152605269Y-82620984D01*
X152586214Y-82765731D01*
X144466663Y-82765731D01*
X144494355Y-82729643D01*
X144550228Y-82594754D01*
X144556210Y-82549315D01*
X144569285Y-82450003D01*
X144569285Y-82449996D01*
X144550229Y-82305249D01*
X144543496Y-82288994D01*
X144494355Y-82170358D01*
X144447864Y-82109770D01*
X144405474Y-82054525D01*
X144386539Y-82039996D01*
X149910715Y-82039996D01*
X149910715Y-82040003D01*
X149929771Y-82184753D01*
X149985644Y-82319641D01*
X149985645Y-82319643D01*
X150074525Y-82435474D01*
X150159082Y-82500357D01*
X150190357Y-82524355D01*
X150250616Y-82549315D01*
X150325246Y-82580228D01*
X150469997Y-82599285D01*
X150470000Y-82599285D01*
X150470003Y-82599285D01*
X150578565Y-82584992D01*
X150614754Y-82580228D01*
X150749643Y-82524355D01*
X150865474Y-82435474D01*
X150954355Y-82319643D01*
X151010228Y-82184754D01*
X151019702Y-82112792D01*
X151029285Y-82040003D01*
X151029285Y-82039996D01*
X151010229Y-81895249D01*
X151004747Y-81882014D01*
X150954355Y-81760358D01*
X150924620Y-81721607D01*
X150865474Y-81644525D01*
X150749643Y-81555645D01*
X150749641Y-81555644D01*
X150614753Y-81499771D01*
X150470003Y-81480715D01*
X150469997Y-81480715D01*
X150325249Y-81499770D01*
X150190359Y-81555644D01*
X150190357Y-81555645D01*
X150074525Y-81644525D01*
X149985645Y-81760357D01*
X149985644Y-81760359D01*
X149929770Y-81895249D01*
X149910715Y-82039996D01*
X144386539Y-82039996D01*
X144289643Y-81965645D01*
X144289641Y-81965644D01*
X144162059Y-81912797D01*
X144140953Y-81891690D01*
X144138318Y-81871675D01*
X144139584Y-81862064D01*
X144145513Y-81817019D01*
X144150969Y-81775585D01*
X144150969Y-81775580D01*
X144131913Y-81630833D01*
X144131912Y-81630830D01*
X144076039Y-81495942D01*
X143990546Y-81384525D01*
X143987158Y-81380109D01*
X143871327Y-81291229D01*
X143871325Y-81291228D01*
X143736437Y-81235355D01*
X143652772Y-81224340D01*
X143626922Y-81209416D01*
X143619197Y-81190764D01*
X143606261Y-81092499D01*
X143581198Y-81031993D01*
X143550388Y-80957611D01*
X143496393Y-80887243D01*
X143461507Y-80841778D01*
X143344666Y-80752123D01*
X143329742Y-80726272D01*
X143337467Y-80697440D01*
X143363316Y-80682516D01*
X143487704Y-80666141D01*
X143622593Y-80610268D01*
X143738424Y-80521387D01*
X143827305Y-80405556D01*
X143883178Y-80270667D01*
X143894591Y-80183976D01*
X143902235Y-80125916D01*
X143902235Y-80125909D01*
X143883179Y-79981162D01*
X143883178Y-79981159D01*
X143827305Y-79846271D01*
X143783853Y-79789643D01*
X143738424Y-79730438D01*
X143622593Y-79641558D01*
X143622591Y-79641557D01*
X143487703Y-79585684D01*
X143342953Y-79566628D01*
X143342947Y-79566628D01*
X143198195Y-79585684D01*
X143195726Y-79586346D01*
X143195491Y-79585469D01*
X143168864Y-79585463D01*
X143147766Y-79564360D01*
X143138827Y-79542778D01*
X143120460Y-79518841D01*
X148609560Y-79518841D01*
X148609560Y-79518848D01*
X148628616Y-79663598D01*
X148684489Y-79798486D01*
X148684490Y-79798488D01*
X148773370Y-79914319D01*
X148860478Y-79981159D01*
X148889202Y-80003200D01*
X148928899Y-80019643D01*
X149024088Y-80059072D01*
X149024091Y-80059073D01*
X149026707Y-80059417D01*
X149052558Y-80074340D01*
X149060286Y-80103172D01*
X149060285Y-80103174D01*
X149057215Y-80126496D01*
X149057215Y-80126503D01*
X149076271Y-80271253D01*
X149132144Y-80406141D01*
X149132145Y-80406143D01*
X149221025Y-80521974D01*
X149309906Y-80590174D01*
X149336857Y-80610855D01*
X149469325Y-80665725D01*
X149471746Y-80666728D01*
X149616497Y-80685785D01*
X149616500Y-80685785D01*
X149616503Y-80685785D01*
X149749070Y-80668332D01*
X149761254Y-80666728D01*
X149896143Y-80610855D01*
X150011974Y-80521974D01*
X150100855Y-80406143D01*
X150156728Y-80271254D01*
X150175785Y-80126500D01*
X150175785Y-80126496D01*
X150156729Y-79981749D01*
X150156485Y-79981159D01*
X150100855Y-79846858D01*
X150080174Y-79819906D01*
X150011974Y-79731025D01*
X149896143Y-79642145D01*
X149896141Y-79642144D01*
X149782919Y-79595246D01*
X149761254Y-79586272D01*
X149761253Y-79586271D01*
X149761251Y-79586271D01*
X149758631Y-79585926D01*
X149732782Y-79570999D01*
X149725059Y-79542168D01*
X149728130Y-79518846D01*
X149728130Y-79518841D01*
X149709074Y-79374094D01*
X149705409Y-79365246D01*
X149653200Y-79239203D01*
X149604299Y-79175474D01*
X149564319Y-79123370D01*
X149448488Y-79034490D01*
X149448486Y-79034489D01*
X149313598Y-78978616D01*
X149168848Y-78959560D01*
X149168842Y-78959560D01*
X149024094Y-78978615D01*
X148889204Y-79034489D01*
X148889202Y-79034490D01*
X148773370Y-79123370D01*
X148684490Y-79239202D01*
X148684489Y-79239204D01*
X148628615Y-79374094D01*
X148609560Y-79518841D01*
X143120460Y-79518841D01*
X143075584Y-79460358D01*
X143049946Y-79426945D01*
X142934115Y-79338065D01*
X142934113Y-79338064D01*
X142799225Y-79282191D01*
X142654475Y-79263135D01*
X142654469Y-79263135D01*
X142507247Y-79282516D01*
X142478415Y-79274791D01*
X142466127Y-79258777D01*
X142454356Y-79230358D01*
X142412242Y-79175474D01*
X142365475Y-79114525D01*
X142249644Y-79025645D01*
X142249642Y-79025644D01*
X142114754Y-78969771D01*
X141970004Y-78950715D01*
X141969998Y-78950715D01*
X141825250Y-78969770D01*
X141690360Y-79025644D01*
X141690358Y-79025645D01*
X141574526Y-79114525D01*
X141485646Y-79230357D01*
X141485645Y-79230359D01*
X141429771Y-79365249D01*
X141410716Y-79509996D01*
X120025900Y-79509996D01*
X120025900Y-78759996D01*
X127950715Y-78759996D01*
X127950715Y-78760003D01*
X127969771Y-78904753D01*
X128025644Y-79039641D01*
X128025645Y-79039643D01*
X128114525Y-79155474D01*
X128140590Y-79175474D01*
X128230357Y-79244355D01*
X128346526Y-79292474D01*
X128365246Y-79300228D01*
X128509997Y-79319285D01*
X128510000Y-79319285D01*
X128510003Y-79319285D01*
X128618565Y-79304992D01*
X128654754Y-79300228D01*
X128789643Y-79244355D01*
X128905474Y-79155474D01*
X128994355Y-79039643D01*
X129050228Y-78904754D01*
X129054992Y-78868565D01*
X129069285Y-78760003D01*
X129069285Y-78759996D01*
X129050229Y-78615249D01*
X129006633Y-78510000D01*
X129006631Y-78509996D01*
X152990715Y-78509996D01*
X152990715Y-78510003D01*
X153009771Y-78654753D01*
X153065644Y-78789641D01*
X153065645Y-78789643D01*
X153154525Y-78905474D01*
X153238317Y-78969770D01*
X153270357Y-78994355D01*
X153345898Y-79025645D01*
X153405246Y-79050228D01*
X153549997Y-79069285D01*
X153550000Y-79069285D01*
X153550003Y-79069285D01*
X153658565Y-79054992D01*
X153694754Y-79050228D01*
X153829643Y-78994355D01*
X153945474Y-78905474D01*
X154034355Y-78789643D01*
X154038351Y-78779996D01*
X154630715Y-78779996D01*
X154630715Y-78780003D01*
X154649771Y-78924753D01*
X154705644Y-79059641D01*
X154705645Y-79059643D01*
X154794525Y-79175474D01*
X154836191Y-79207445D01*
X154866358Y-79230593D01*
X154881282Y-79256444D01*
X154873557Y-79285276D01*
X154866358Y-79292474D01*
X154798527Y-79344523D01*
X154709645Y-79460357D01*
X154709644Y-79460359D01*
X154653770Y-79595249D01*
X154634715Y-79739996D01*
X154634715Y-79740003D01*
X154653771Y-79884753D01*
X154709644Y-80019641D01*
X154709645Y-80019643D01*
X154798525Y-80135474D01*
X154861736Y-80183977D01*
X154914357Y-80224355D01*
X155027581Y-80271254D01*
X155049246Y-80280228D01*
X155193997Y-80299285D01*
X155194000Y-80299285D01*
X155194003Y-80299285D01*
X155302565Y-80284992D01*
X155338754Y-80280228D01*
X155473643Y-80224355D01*
X155589474Y-80135474D01*
X155678355Y-80019643D01*
X155734228Y-79884754D01*
X155745585Y-79798486D01*
X155753285Y-79740003D01*
X155753285Y-79739996D01*
X155734229Y-79595249D01*
X155730367Y-79585926D01*
X155678355Y-79460358D01*
X155652716Y-79426945D01*
X155589474Y-79344525D01*
X155517641Y-79289406D01*
X155502717Y-79263555D01*
X155510442Y-79234723D01*
X155517641Y-79227524D01*
X155585474Y-79175474D01*
X155674355Y-79059643D01*
X155730228Y-78924754D01*
X155734992Y-78888565D01*
X155749285Y-78780003D01*
X155749285Y-78779996D01*
X155730229Y-78635249D01*
X155721945Y-78615249D01*
X155674355Y-78500358D01*
X155653674Y-78473406D01*
X155585474Y-78384525D01*
X155469643Y-78295645D01*
X155469641Y-78295644D01*
X155334753Y-78239771D01*
X155190003Y-78220715D01*
X155189997Y-78220715D01*
X155045249Y-78239770D01*
X154910359Y-78295644D01*
X154910357Y-78295645D01*
X154794525Y-78384525D01*
X154705645Y-78500357D01*
X154705644Y-78500359D01*
X154649770Y-78635249D01*
X154630715Y-78779996D01*
X154038351Y-78779996D01*
X154090228Y-78654754D01*
X154109285Y-78510000D01*
X154109285Y-78509996D01*
X154090229Y-78365249D01*
X154061398Y-78295645D01*
X154034355Y-78230358D01*
X154011609Y-78200715D01*
X153945474Y-78114525D01*
X153829643Y-78025645D01*
X153829641Y-78025644D01*
X153694753Y-77969771D01*
X153550003Y-77950715D01*
X153549997Y-77950715D01*
X153405249Y-77969770D01*
X153270359Y-78025644D01*
X153270357Y-78025645D01*
X153154525Y-78114525D01*
X153065645Y-78230357D01*
X153065644Y-78230359D01*
X153009770Y-78365249D01*
X152990715Y-78509996D01*
X129006631Y-78509996D01*
X128994355Y-78480358D01*
X128920820Y-78384525D01*
X128905474Y-78364525D01*
X128789643Y-78275645D01*
X128789641Y-78275644D01*
X128654753Y-78219771D01*
X128510003Y-78200715D01*
X128509997Y-78200715D01*
X128365249Y-78219770D01*
X128230359Y-78275644D01*
X128230357Y-78275645D01*
X128114525Y-78364525D01*
X128025645Y-78480357D01*
X128025644Y-78480359D01*
X127969770Y-78615249D01*
X127950715Y-78759996D01*
X120025900Y-78759996D01*
X120025900Y-76962000D01*
X130531693Y-76962000D01*
X130550851Y-77119782D01*
X130607213Y-77268395D01*
X130697502Y-77399201D01*
X130816471Y-77504599D01*
X130957207Y-77578463D01*
X131111529Y-77616500D01*
X131111531Y-77616500D01*
X131270469Y-77616500D01*
X131270471Y-77616500D01*
X131424793Y-77578463D01*
X131565529Y-77504599D01*
X131684498Y-77399201D01*
X131774787Y-77268395D01*
X131831149Y-77119782D01*
X131850307Y-76962000D01*
X131832142Y-76812396D01*
X142927297Y-76812396D01*
X142927297Y-76812403D01*
X142946353Y-76957153D01*
X143002226Y-77092041D01*
X143002227Y-77092043D01*
X143091107Y-77207874D01*
X143169980Y-77268395D01*
X143206939Y-77296755D01*
X143267449Y-77321819D01*
X143341828Y-77352628D01*
X143486579Y-77371685D01*
X143486582Y-77371685D01*
X143486585Y-77371685D01*
X143595147Y-77357392D01*
X143631336Y-77352628D01*
X143766225Y-77296755D01*
X143882056Y-77207874D01*
X143970937Y-77092043D01*
X144026810Y-76957154D01*
X144042567Y-76837467D01*
X144045867Y-76812403D01*
X144045867Y-76812396D01*
X144510715Y-76812396D01*
X144510715Y-76812403D01*
X144529771Y-76957153D01*
X144585644Y-77092041D01*
X144585645Y-77092043D01*
X144674525Y-77207874D01*
X144753398Y-77268395D01*
X144790357Y-77296755D01*
X144850867Y-77321819D01*
X144925246Y-77352628D01*
X145069997Y-77371685D01*
X145070000Y-77371685D01*
X145070003Y-77371685D01*
X145178565Y-77357392D01*
X145214754Y-77352628D01*
X145349643Y-77296755D01*
X145465474Y-77207874D01*
X145504059Y-77157588D01*
X145529909Y-77142665D01*
X145558742Y-77150390D01*
X145565941Y-77157589D01*
X145604525Y-77207874D01*
X145683398Y-77268395D01*
X145720357Y-77296755D01*
X145780867Y-77321819D01*
X145855246Y-77352628D01*
X145999997Y-77371685D01*
X146000000Y-77371685D01*
X146000003Y-77371685D01*
X146108565Y-77357392D01*
X146144754Y-77352628D01*
X146279643Y-77296755D01*
X146395474Y-77207874D01*
X146484355Y-77092043D01*
X146540228Y-76957154D01*
X146555985Y-76837467D01*
X146555986Y-76837460D01*
X148973125Y-76837460D01*
X148973125Y-76837467D01*
X148992181Y-76982217D01*
X149048054Y-77117105D01*
X149048055Y-77117107D01*
X149136935Y-77232938D01*
X149183144Y-77268395D01*
X149252767Y-77321819D01*
X149373154Y-77371685D01*
X149387656Y-77377692D01*
X149532407Y-77396749D01*
X149532410Y-77396749D01*
X149532413Y-77396749D01*
X149640975Y-77382456D01*
X149677164Y-77377692D01*
X149812053Y-77321819D01*
X149927884Y-77232938D01*
X150016765Y-77117107D01*
X150072638Y-76982218D01*
X150077402Y-76946029D01*
X150091695Y-76837467D01*
X150091695Y-76837460D01*
X150072639Y-76692713D01*
X150057268Y-76655604D01*
X150016765Y-76557822D01*
X149952760Y-76474409D01*
X149927884Y-76441989D01*
X149812053Y-76353109D01*
X149812051Y-76353108D01*
X149677163Y-76297235D01*
X149532413Y-76278179D01*
X149532407Y-76278179D01*
X149387659Y-76297234D01*
X149252769Y-76353108D01*
X149252767Y-76353109D01*
X149136935Y-76441989D01*
X149048055Y-76557821D01*
X149048054Y-76557823D01*
X148992180Y-76692713D01*
X148973125Y-76837460D01*
X146555986Y-76837460D01*
X146559285Y-76812403D01*
X146559285Y-76812396D01*
X146540229Y-76667649D01*
X146535240Y-76655604D01*
X146484355Y-76532758D01*
X146445510Y-76482134D01*
X146395474Y-76416925D01*
X146279643Y-76328045D01*
X146279641Y-76328044D01*
X146144753Y-76272171D01*
X146000003Y-76253115D01*
X145999997Y-76253115D01*
X145855249Y-76272170D01*
X145720359Y-76328044D01*
X145720357Y-76328045D01*
X145604525Y-76416925D01*
X145565941Y-76467210D01*
X145540090Y-76482134D01*
X145511258Y-76474409D01*
X145504059Y-76467210D01*
X145465474Y-76416925D01*
X145349643Y-76328045D01*
X145349641Y-76328044D01*
X145214753Y-76272171D01*
X145070003Y-76253115D01*
X145069997Y-76253115D01*
X144925249Y-76272170D01*
X144790359Y-76328044D01*
X144790357Y-76328045D01*
X144674525Y-76416925D01*
X144585645Y-76532757D01*
X144585644Y-76532759D01*
X144529770Y-76667649D01*
X144510715Y-76812396D01*
X144045867Y-76812396D01*
X144026811Y-76667649D01*
X144021822Y-76655604D01*
X143970937Y-76532758D01*
X143932092Y-76482134D01*
X143882056Y-76416925D01*
X143766225Y-76328045D01*
X143766223Y-76328044D01*
X143631335Y-76272171D01*
X143486585Y-76253115D01*
X143486579Y-76253115D01*
X143341831Y-76272170D01*
X143206941Y-76328044D01*
X143206939Y-76328045D01*
X143091107Y-76416925D01*
X143002227Y-76532757D01*
X143002226Y-76532759D01*
X142946352Y-76667649D01*
X142927297Y-76812396D01*
X131832142Y-76812396D01*
X131831149Y-76804218D01*
X131774787Y-76655605D01*
X131684498Y-76524799D01*
X131636339Y-76482134D01*
X131565529Y-76419401D01*
X131487189Y-76378285D01*
X131424793Y-76345537D01*
X131270471Y-76307500D01*
X131111529Y-76307500D01*
X130957207Y-76345537D01*
X130816470Y-76419401D01*
X130697503Y-76524797D01*
X130674708Y-76557822D01*
X130607213Y-76655605D01*
X130550851Y-76804218D01*
X130531693Y-76962000D01*
X120025900Y-76962000D01*
X120025900Y-76308996D01*
X126821715Y-76308996D01*
X126821715Y-76309003D01*
X126840771Y-76453753D01*
X126896644Y-76588641D01*
X126896645Y-76588643D01*
X126985525Y-76704474D01*
X127074406Y-76772674D01*
X127101357Y-76793355D01*
X127147336Y-76812400D01*
X127236246Y-76849228D01*
X127380997Y-76868285D01*
X127381000Y-76868285D01*
X127381003Y-76868285D01*
X127489565Y-76853992D01*
X127525754Y-76849228D01*
X127660643Y-76793355D01*
X127776474Y-76704474D01*
X127865355Y-76588643D01*
X127921228Y-76453754D01*
X127931164Y-76378285D01*
X127940285Y-76309003D01*
X127940285Y-76308996D01*
X127921229Y-76164249D01*
X127921228Y-76164246D01*
X127865355Y-76029358D01*
X127834879Y-75989641D01*
X127776474Y-75913525D01*
X127660643Y-75824645D01*
X127660641Y-75824644D01*
X127647006Y-75818996D01*
X132028715Y-75818996D01*
X132028715Y-75819003D01*
X132047771Y-75963753D01*
X132103644Y-76098641D01*
X132103645Y-76098643D01*
X132192525Y-76214474D01*
X132267719Y-76272172D01*
X132308357Y-76303355D01*
X132443246Y-76359228D01*
X132587997Y-76378285D01*
X132588000Y-76378285D01*
X132588003Y-76378285D01*
X132696565Y-76363992D01*
X132732754Y-76359228D01*
X132867643Y-76303355D01*
X132983474Y-76214474D01*
X133072355Y-76098643D01*
X133128228Y-75963754D01*
X133147285Y-75819000D01*
X133147285Y-75818996D01*
X133132935Y-75709996D01*
X151240715Y-75709996D01*
X151240715Y-75710003D01*
X151259771Y-75854753D01*
X151315644Y-75989641D01*
X151315645Y-75989643D01*
X151404525Y-76105474D01*
X151481122Y-76164249D01*
X151520357Y-76194355D01*
X151655246Y-76250228D01*
X151799997Y-76269285D01*
X151800000Y-76269285D01*
X151800003Y-76269285D01*
X151908565Y-76254992D01*
X151944754Y-76250228D01*
X152079643Y-76194355D01*
X152195474Y-76105474D01*
X152284355Y-75989643D01*
X152340228Y-75854754D01*
X152351548Y-75768770D01*
X152359285Y-75710003D01*
X152359285Y-75709996D01*
X152340229Y-75565249D01*
X152329505Y-75539359D01*
X152284355Y-75430358D01*
X152210912Y-75334645D01*
X152195474Y-75314525D01*
X152079643Y-75225645D01*
X152079641Y-75225644D01*
X151944753Y-75169771D01*
X151800003Y-75150715D01*
X151799997Y-75150715D01*
X151655249Y-75169770D01*
X151520359Y-75225644D01*
X151520357Y-75225645D01*
X151404525Y-75314525D01*
X151315645Y-75430357D01*
X151315644Y-75430359D01*
X151259770Y-75565249D01*
X151240715Y-75709996D01*
X133132935Y-75709996D01*
X133128229Y-75674249D01*
X133128228Y-75674246D01*
X133072355Y-75539358D01*
X133051674Y-75512406D01*
X132983474Y-75423525D01*
X132867643Y-75334645D01*
X132867641Y-75334644D01*
X132732753Y-75278771D01*
X132588003Y-75259715D01*
X132587997Y-75259715D01*
X132443249Y-75278770D01*
X132308359Y-75334644D01*
X132308357Y-75334645D01*
X132192525Y-75423525D01*
X132103645Y-75539357D01*
X132103644Y-75539359D01*
X132047770Y-75674249D01*
X132028715Y-75818996D01*
X127647006Y-75818996D01*
X127525753Y-75768771D01*
X127381003Y-75749715D01*
X127380997Y-75749715D01*
X127236249Y-75768770D01*
X127101359Y-75824644D01*
X127101357Y-75824645D01*
X126985525Y-75913525D01*
X126896645Y-76029357D01*
X126896644Y-76029359D01*
X126840770Y-76164249D01*
X126821715Y-76308996D01*
X120025900Y-76308996D01*
X120025900Y-73857586D01*
X126831226Y-73857586D01*
X126831226Y-73857593D01*
X126850282Y-74002343D01*
X126906155Y-74137231D01*
X126906156Y-74137233D01*
X126995036Y-74253064D01*
X127083917Y-74321264D01*
X127110868Y-74341945D01*
X127245757Y-74397818D01*
X127390508Y-74416875D01*
X127390511Y-74416875D01*
X127390514Y-74416875D01*
X127499076Y-74402582D01*
X127535265Y-74397818D01*
X127670154Y-74341945D01*
X127776951Y-74259996D01*
X146460715Y-74259996D01*
X146460715Y-74260003D01*
X146479771Y-74404753D01*
X146535644Y-74539641D01*
X146535645Y-74539643D01*
X146624525Y-74655474D01*
X146643456Y-74670000D01*
X146740357Y-74744355D01*
X146820393Y-74777507D01*
X146875246Y-74800228D01*
X147019997Y-74819285D01*
X147020000Y-74819285D01*
X147020003Y-74819285D01*
X147128565Y-74804992D01*
X147164754Y-74800228D01*
X147299643Y-74744355D01*
X147299643Y-74744354D01*
X147302004Y-74743377D01*
X147302371Y-74744265D01*
X147328626Y-74740798D01*
X147349488Y-74754732D01*
X147366966Y-74777509D01*
X147482797Y-74866390D01*
X147617686Y-74922263D01*
X147762437Y-74941320D01*
X147762440Y-74941320D01*
X147762443Y-74941320D01*
X147871005Y-74927027D01*
X147907194Y-74922263D01*
X148042083Y-74866390D01*
X148157914Y-74777509D01*
X148240412Y-74669996D01*
X153000715Y-74669996D01*
X153000715Y-74670003D01*
X153019771Y-74814753D01*
X153075644Y-74949641D01*
X153075645Y-74949643D01*
X153164525Y-75065474D01*
X153253406Y-75133674D01*
X153280357Y-75154355D01*
X153415246Y-75210228D01*
X153559997Y-75229285D01*
X153560000Y-75229285D01*
X153560003Y-75229285D01*
X153668565Y-75214992D01*
X153704754Y-75210228D01*
X153839643Y-75154355D01*
X153955474Y-75065474D01*
X154044355Y-74949643D01*
X154100228Y-74814754D01*
X154109625Y-74743377D01*
X154119285Y-74670003D01*
X154119285Y-74669996D01*
X154100229Y-74525249D01*
X154100228Y-74525246D01*
X154044355Y-74390358D01*
X154023674Y-74363406D01*
X153955474Y-74274525D01*
X153839643Y-74185645D01*
X153839641Y-74185644D01*
X153704753Y-74129771D01*
X153560003Y-74110715D01*
X153559997Y-74110715D01*
X153415249Y-74129770D01*
X153280359Y-74185644D01*
X153280357Y-74185645D01*
X153164525Y-74274525D01*
X153075645Y-74390357D01*
X153075644Y-74390359D01*
X153019770Y-74525249D01*
X153000715Y-74669996D01*
X148240412Y-74669996D01*
X148246795Y-74661678D01*
X148302668Y-74526789D01*
X148307432Y-74490600D01*
X148321725Y-74382038D01*
X148321725Y-74382031D01*
X148302669Y-74237284D01*
X148261226Y-74137233D01*
X148246795Y-74102393D01*
X148170025Y-74002344D01*
X148157914Y-73986560D01*
X148042083Y-73897680D01*
X148042081Y-73897679D01*
X147907193Y-73841806D01*
X147762443Y-73822750D01*
X147762437Y-73822750D01*
X147617689Y-73841805D01*
X147480437Y-73898658D01*
X147480073Y-73897780D01*
X147453775Y-73901226D01*
X147432951Y-73887302D01*
X147415475Y-73864527D01*
X147415472Y-73864525D01*
X147299643Y-73775645D01*
X147299641Y-73775644D01*
X147164753Y-73719771D01*
X147020003Y-73700715D01*
X147019997Y-73700715D01*
X146875249Y-73719770D01*
X146740359Y-73775644D01*
X146740357Y-73775645D01*
X146624525Y-73864525D01*
X146535645Y-73980357D01*
X146535644Y-73980359D01*
X146479770Y-74115249D01*
X146460715Y-74259996D01*
X127776951Y-74259996D01*
X127785985Y-74253064D01*
X127874866Y-74137233D01*
X127930739Y-74002344D01*
X127941855Y-73917908D01*
X127949796Y-73857593D01*
X127949796Y-73857586D01*
X127930740Y-73712839D01*
X127925718Y-73700715D01*
X127874866Y-73577948D01*
X127854185Y-73550996D01*
X127785985Y-73462115D01*
X127670154Y-73373235D01*
X127670152Y-73373234D01*
X127535264Y-73317361D01*
X127390514Y-73298305D01*
X127390508Y-73298305D01*
X127245760Y-73317360D01*
X127110870Y-73373234D01*
X127110868Y-73373235D01*
X126995036Y-73462115D01*
X126906156Y-73577947D01*
X126906155Y-73577949D01*
X126850281Y-73712839D01*
X126831226Y-73857586D01*
X120025900Y-73857586D01*
X120025900Y-71000990D01*
X120025926Y-71000000D01*
X120240465Y-71000000D01*
X120260584Y-71332626D01*
X120260585Y-71332630D01*
X120320651Y-71660400D01*
X120419787Y-71978538D01*
X120419789Y-71978545D01*
X120556552Y-72282418D01*
X120556553Y-72282420D01*
X120728947Y-72567595D01*
X120934458Y-72829910D01*
X121170090Y-73065542D01*
X121432405Y-73271053D01*
X121717580Y-73443447D01*
X121869517Y-73511828D01*
X122021454Y-73580210D01*
X122021461Y-73580212D01*
X122339599Y-73679348D01*
X122667369Y-73739414D01*
X122667373Y-73739415D01*
X122703270Y-73741586D01*
X123000000Y-73759535D01*
X123313653Y-73740562D01*
X123332626Y-73739415D01*
X123332630Y-73739414D01*
X123477646Y-73712839D01*
X123660400Y-73679348D01*
X123978545Y-73580210D01*
X124282420Y-73443447D01*
X124567595Y-73271053D01*
X124829910Y-73065542D01*
X125065542Y-72829910D01*
X125271053Y-72567595D01*
X125301641Y-72516996D01*
X145744715Y-72516996D01*
X145744715Y-72517003D01*
X145763771Y-72661753D01*
X145819644Y-72796641D01*
X145819645Y-72796643D01*
X145908525Y-72912474D01*
X145997406Y-72980674D01*
X146024357Y-73001355D01*
X146159246Y-73057228D01*
X146303997Y-73076285D01*
X146304000Y-73076285D01*
X146304003Y-73076285D01*
X146412565Y-73061992D01*
X146448754Y-73057228D01*
X146583643Y-73001355D01*
X146699474Y-72912474D01*
X146788355Y-72796643D01*
X146844228Y-72661754D01*
X146863285Y-72517000D01*
X146863285Y-72516998D01*
X146863285Y-72516996D01*
X148665715Y-72516996D01*
X148665715Y-72517003D01*
X148684771Y-72661753D01*
X148740644Y-72796641D01*
X148740645Y-72796643D01*
X148829525Y-72912474D01*
X148918406Y-72980674D01*
X148945357Y-73001355D01*
X149080246Y-73057228D01*
X149224997Y-73076285D01*
X149225000Y-73076285D01*
X149225003Y-73076285D01*
X149333565Y-73061992D01*
X149369754Y-73057228D01*
X149504643Y-73001355D01*
X149620474Y-72912474D01*
X149709355Y-72796643D01*
X149765228Y-72661754D01*
X149784285Y-72517000D01*
X149784284Y-72516996D01*
X149768483Y-72396973D01*
X149776208Y-72368140D01*
X149802058Y-72353216D01*
X149802059Y-72353216D01*
X149816014Y-72351378D01*
X149824754Y-72350228D01*
X149959643Y-72294355D01*
X150075474Y-72205474D01*
X150164355Y-72089643D01*
X150220228Y-71954754D01*
X150234762Y-71844355D01*
X150239285Y-71810003D01*
X150239285Y-71809996D01*
X150220229Y-71665249D01*
X150220228Y-71665246D01*
X150164355Y-71530358D01*
X150121688Y-71474753D01*
X150075474Y-71414525D01*
X149959643Y-71325645D01*
X149959641Y-71325644D01*
X149824753Y-71269771D01*
X149680003Y-71250715D01*
X149679997Y-71250715D01*
X149535249Y-71269770D01*
X149400359Y-71325644D01*
X149400357Y-71325645D01*
X149284525Y-71414525D01*
X149195645Y-71530357D01*
X149195644Y-71530359D01*
X149139770Y-71665249D01*
X149120715Y-71809996D01*
X149120715Y-71810003D01*
X149136516Y-71930027D01*
X149128791Y-71958859D01*
X149102941Y-71973783D01*
X149080249Y-71976770D01*
X148945359Y-72032644D01*
X148945357Y-72032645D01*
X148829525Y-72121525D01*
X148740645Y-72237357D01*
X148740644Y-72237359D01*
X148684770Y-72372249D01*
X148665715Y-72516996D01*
X146863285Y-72516996D01*
X146844229Y-72372249D01*
X146838859Y-72359285D01*
X146788355Y-72237358D01*
X146756216Y-72195474D01*
X146699474Y-72121525D01*
X146583643Y-72032645D01*
X146583641Y-72032644D01*
X146448753Y-71976771D01*
X146304003Y-71957715D01*
X146303997Y-71957715D01*
X146159249Y-71976770D01*
X146024359Y-72032644D01*
X146024357Y-72032645D01*
X145908525Y-72121525D01*
X145819645Y-72237357D01*
X145819644Y-72237359D01*
X145763770Y-72372249D01*
X145744715Y-72516996D01*
X125301641Y-72516996D01*
X125443447Y-72282420D01*
X125580210Y-71978545D01*
X125598455Y-71919996D01*
X138890715Y-71919996D01*
X138890715Y-71920003D01*
X138909771Y-72064753D01*
X138965644Y-72199641D01*
X138965645Y-72199643D01*
X139054525Y-72315474D01*
X139110986Y-72358798D01*
X139170357Y-72404355D01*
X139305246Y-72460228D01*
X139449997Y-72479285D01*
X139450000Y-72479285D01*
X139450003Y-72479285D01*
X139558565Y-72464992D01*
X139594754Y-72460228D01*
X139729643Y-72404355D01*
X139845474Y-72315474D01*
X139934355Y-72199643D01*
X139990228Y-72064754D01*
X139994992Y-72028565D01*
X140009285Y-71920003D01*
X140009285Y-71919996D01*
X139993487Y-71799996D01*
X147360715Y-71799996D01*
X147360715Y-71800003D01*
X147379771Y-71944753D01*
X147435644Y-72079641D01*
X147435645Y-72079643D01*
X147524525Y-72195474D01*
X147579111Y-72237359D01*
X147640357Y-72284355D01*
X147715485Y-72315474D01*
X147775246Y-72340228D01*
X147919997Y-72359285D01*
X147920000Y-72359285D01*
X147920003Y-72359285D01*
X148028565Y-72344992D01*
X148064754Y-72340228D01*
X148199643Y-72284355D01*
X148315474Y-72195474D01*
X148404355Y-72079643D01*
X148460228Y-71944754D01*
X148467531Y-71889285D01*
X148479285Y-71800003D01*
X148479285Y-71799996D01*
X148460229Y-71655249D01*
X148460228Y-71655246D01*
X148404355Y-71520358D01*
X148369361Y-71474753D01*
X148315474Y-71404525D01*
X148199643Y-71315645D01*
X148199641Y-71315644D01*
X148064753Y-71259771D01*
X147920003Y-71240715D01*
X147919997Y-71240715D01*
X147775249Y-71259770D01*
X147640359Y-71315644D01*
X147640357Y-71315645D01*
X147524525Y-71404525D01*
X147435645Y-71520357D01*
X147435644Y-71520359D01*
X147379770Y-71655249D01*
X147360715Y-71799996D01*
X139993487Y-71799996D01*
X139990229Y-71775249D01*
X139982038Y-71755474D01*
X139934355Y-71640358D01*
X139910785Y-71609641D01*
X139845474Y-71524525D01*
X139729643Y-71435645D01*
X139729641Y-71435644D01*
X139594753Y-71379771D01*
X139450003Y-71360715D01*
X139449997Y-71360715D01*
X139305249Y-71379770D01*
X139170359Y-71435644D01*
X139170357Y-71435645D01*
X139054525Y-71524525D01*
X138965645Y-71640357D01*
X138965644Y-71640359D01*
X138909770Y-71775249D01*
X138890715Y-71919996D01*
X125598455Y-71919996D01*
X125679348Y-71660400D01*
X125739415Y-71332625D01*
X125739574Y-71329996D01*
X127940715Y-71329996D01*
X127940715Y-71330003D01*
X127959771Y-71474753D01*
X128015644Y-71609641D01*
X128015645Y-71609643D01*
X128104525Y-71725474D01*
X128169393Y-71775249D01*
X128220357Y-71814355D01*
X128355246Y-71870228D01*
X128499997Y-71889285D01*
X128500000Y-71889285D01*
X128500003Y-71889285D01*
X128608565Y-71874992D01*
X128644754Y-71870228D01*
X128779643Y-71814355D01*
X128895474Y-71725474D01*
X128984355Y-71609643D01*
X129040228Y-71474754D01*
X129049474Y-71404525D01*
X129055336Y-71359996D01*
X133940715Y-71359996D01*
X133940715Y-71360003D01*
X133959771Y-71504753D01*
X134015644Y-71639641D01*
X134015645Y-71639643D01*
X134104525Y-71755474D01*
X134193406Y-71823674D01*
X134220357Y-71844355D01*
X134355246Y-71900228D01*
X134499997Y-71919285D01*
X134500000Y-71919285D01*
X134500003Y-71919285D01*
X134608565Y-71904992D01*
X134644754Y-71900228D01*
X134779643Y-71844355D01*
X134895474Y-71755474D01*
X134984355Y-71639643D01*
X135040228Y-71504754D01*
X135049326Y-71435645D01*
X135059285Y-71360003D01*
X135059285Y-71359996D01*
X135040229Y-71215249D01*
X135040228Y-71215246D01*
X134984355Y-71080358D01*
X134923484Y-71001029D01*
X134922694Y-71000000D01*
X156240465Y-71000000D01*
X156260584Y-71332626D01*
X156260585Y-71332630D01*
X156320651Y-71660400D01*
X156419787Y-71978538D01*
X156419789Y-71978545D01*
X156556552Y-72282418D01*
X156556553Y-72282420D01*
X156728947Y-72567595D01*
X156934458Y-72829910D01*
X157170090Y-73065542D01*
X157432405Y-73271053D01*
X157717580Y-73443447D01*
X157869517Y-73511828D01*
X158021454Y-73580210D01*
X158021461Y-73580212D01*
X158339599Y-73679348D01*
X158667369Y-73739414D01*
X158667373Y-73739415D01*
X158703270Y-73741586D01*
X159000000Y-73759535D01*
X159313653Y-73740562D01*
X159332626Y-73739415D01*
X159332630Y-73739414D01*
X159477646Y-73712839D01*
X159660400Y-73679348D01*
X159978545Y-73580210D01*
X160282420Y-73443447D01*
X160567595Y-73271053D01*
X160829910Y-73065542D01*
X161065542Y-72829910D01*
X161271053Y-72567595D01*
X161443447Y-72282420D01*
X161580210Y-71978545D01*
X161679348Y-71660400D01*
X161739415Y-71332625D01*
X161759535Y-71000000D01*
X161739415Y-70667375D01*
X161713506Y-70525995D01*
X161679348Y-70339599D01*
X161580212Y-70021461D01*
X161580210Y-70021454D01*
X161511828Y-69869517D01*
X161443447Y-69717580D01*
X161271053Y-69432405D01*
X161065542Y-69170090D01*
X160829910Y-68934458D01*
X160567595Y-68728947D01*
X160282420Y-68556553D01*
X160282418Y-68556552D01*
X159978545Y-68419789D01*
X159978538Y-68419787D01*
X159660400Y-68320651D01*
X159332630Y-68260585D01*
X159332626Y-68260584D01*
X159000000Y-68240465D01*
X158667373Y-68260584D01*
X158667369Y-68260585D01*
X158339599Y-68320651D01*
X158021461Y-68419787D01*
X158021454Y-68419789D01*
X157717581Y-68556552D01*
X157432405Y-68728947D01*
X157170093Y-68934455D01*
X157170087Y-68934460D01*
X156934460Y-69170087D01*
X156934455Y-69170093D01*
X156728947Y-69432405D01*
X156556552Y-69717581D01*
X156419789Y-70021454D01*
X156419787Y-70021461D01*
X156320651Y-70339599D01*
X156260585Y-70667369D01*
X156260584Y-70667373D01*
X156240465Y-71000000D01*
X134922694Y-71000000D01*
X134895474Y-70964525D01*
X134779643Y-70875645D01*
X134779641Y-70875644D01*
X134644753Y-70819771D01*
X134500003Y-70800715D01*
X134499997Y-70800715D01*
X134355249Y-70819770D01*
X134220359Y-70875644D01*
X134220357Y-70875645D01*
X134104525Y-70964525D01*
X134015645Y-71080357D01*
X134015644Y-71080359D01*
X133959770Y-71215249D01*
X133940715Y-71359996D01*
X129055336Y-71359996D01*
X129059285Y-71330003D01*
X129059285Y-71329996D01*
X129040229Y-71185249D01*
X128996782Y-71080359D01*
X128984355Y-71050358D01*
X128945714Y-71000000D01*
X128895474Y-70934525D01*
X128779643Y-70845645D01*
X128779641Y-70845644D01*
X128644753Y-70789771D01*
X128500003Y-70770715D01*
X128499997Y-70770715D01*
X128355249Y-70789770D01*
X128220359Y-70845644D01*
X128220357Y-70845645D01*
X128104525Y-70934525D01*
X128015645Y-71050357D01*
X128015644Y-71050359D01*
X127959770Y-71185249D01*
X127940715Y-71329996D01*
X125739574Y-71329996D01*
X125759535Y-71000000D01*
X125739415Y-70667375D01*
X125713506Y-70525995D01*
X125679348Y-70339599D01*
X125580212Y-70021461D01*
X125580210Y-70021454D01*
X125511828Y-69869517D01*
X125443447Y-69717580D01*
X125271053Y-69432405D01*
X125065542Y-69170090D01*
X124829910Y-68934458D01*
X124567595Y-68728947D01*
X124282420Y-68556553D01*
X124282418Y-68556552D01*
X123978545Y-68419789D01*
X123978538Y-68419787D01*
X123660400Y-68320651D01*
X123332630Y-68260585D01*
X123332626Y-68260584D01*
X123000000Y-68240465D01*
X122667373Y-68260584D01*
X122667369Y-68260585D01*
X122339599Y-68320651D01*
X122021461Y-68419787D01*
X122021454Y-68419789D01*
X121717581Y-68556552D01*
X121432405Y-68728947D01*
X121170093Y-68934455D01*
X121170087Y-68934460D01*
X120934460Y-69170087D01*
X120934455Y-69170093D01*
X120728947Y-69432405D01*
X120556552Y-69717581D01*
X120419789Y-70021454D01*
X120419787Y-70021461D01*
X120320651Y-70339599D01*
X120260585Y-70667369D01*
X120260584Y-70667373D01*
X120240465Y-71000000D01*
X120025926Y-71000000D01*
X120025951Y-70999027D01*
X120042086Y-70691156D01*
X120042513Y-70687100D01*
X120045637Y-70667375D01*
X120090574Y-70383653D01*
X120091418Y-70379686D01*
X120170937Y-70082919D01*
X120172191Y-70079057D01*
X120282295Y-69792225D01*
X120283954Y-69788501D01*
X120320090Y-69717581D01*
X120423432Y-69514761D01*
X120425462Y-69511246D01*
X120592792Y-69253578D01*
X120595178Y-69250292D01*
X120788541Y-69011510D01*
X120791254Y-69008498D01*
X121008498Y-68791254D01*
X121011510Y-68788541D01*
X121250292Y-68595178D01*
X121253583Y-68592789D01*
X121511246Y-68425462D01*
X121514761Y-68423432D01*
X121788506Y-68283951D01*
X121792225Y-68282295D01*
X122079057Y-68172191D01*
X122082919Y-68170937D01*
X122379686Y-68091418D01*
X122383653Y-68090574D01*
X122687104Y-68042512D01*
X122691156Y-68042086D01*
X122998989Y-68025954D01*
X123001030Y-68025901D01*
X123016171Y-68025901D01*
X123016175Y-68025900D01*
X158991585Y-68025900D01*
X158998970Y-68025900D01*
X159001011Y-68025953D01*
G37*
%TD.AperFunction*%
%TD*%
M02*
