M48
; DRILL file {KiCad 9.0.1} date 2025-04-22T15:18:33+0800
; FORMAT={-:-/ absolute / metric / decimal}
; #@! TF.CreationDate,2025-04-22T15:18:33+08:00
; #@! TF.GenerationSoftware,Kicad,Pcbnew,9.0.1
; #@! TF.FileFunction,Plated,1,4,PTH
FMAT,2
METRIC
; #@! TA.AperFunction,Plated,PTH,ViaDrill
T1C0.300
; #@! TA.AperFunction,Plated,PTH,ViaDrill
T2C0.400
; #@! TA.AperFunction,Plated,PTH,ComponentDrill
T3C0.500
; #@! TA.AperFunction,Plated,PTH,ComponentDrill
T4C1.000
; #@! TA.AperFunction,Plated,PTH,ComponentDrill
T5C2.500
%
G90
G05
T1
X120.65Y-93.726
X121.539Y-93.726
X122.263Y-90.081
X122.5Y-102.75
X122.555Y-98.425
X122.555Y-99.441
X122.555Y-100.457
X122.555Y-101.473
X122.555Y-103.759
X123.13Y-84.74
X123.14Y-83.83
X123.317Y-93.726
X123.571Y-89.662
X123.571Y-90.805
X123.825Y-98.425
X123.825Y-99.441
X123.825Y-100.457
X123.825Y-101.473
X123.825Y-102.743
X123.825Y-103.759
X124.206Y-93.726
X124.968Y-74.168
X125.095Y-93.726
X125.095Y-98.425
X125.095Y-99.441
X125.095Y-100.457
X125.095Y-101.473
X125.095Y-102.743
X125.095Y-103.759
X125.576Y-85.852
X125.984Y-93.726
X126.27Y-79.23
X126.365Y-98.425
X126.365Y-99.441
X126.365Y-100.457
X126.365Y-101.473
X127.381Y-76.309
X128.47Y-79.73
X128.47Y-80.48
X128.524Y-71.501
X128.524Y-103.378
X128.524Y-104.394
X129.16Y-80.06
X129.282Y-89.498
X129.54Y-86.36
X129.54Y-97.155
X129.54Y-98.044
X129.611Y-82.61
X129.611Y-83.28
X129.794Y-103.378
X129.794Y-104.394
X129.964Y-79.856
X130.048Y-93.98
X130.048Y-94.742
X130.175Y-85.725
X130.175Y-86.995
X130.302Y-97.155
X130.302Y-98.044
X130.81Y-85.09
X130.81Y-86.36
X130.81Y-87.63
X130.81Y-93.98
X130.81Y-94.742
X130.98Y-79.8
X131.064Y-98.044
X131.064Y-103.378
X131.064Y-104.394
X131.445Y-84.455
X131.445Y-85.725
X131.445Y-86.995
X131.445Y-88.265
X131.699Y-93.98
X131.699Y-94.742
X131.78Y-79.77
X131.826Y-97.155
X131.826Y-98.044
X132.08Y-83.82
X132.08Y-85.09
X132.08Y-86.36
X132.08Y-87.63
X132.08Y-88.9
X132.334Y-103.378
X132.334Y-104.394
X132.461Y-93.98
X132.461Y-94.742
X132.51Y-79.39
X132.588Y-97.155
X132.588Y-98.044
X132.715Y-83.185
X132.715Y-84.455
X132.715Y-85.725
X132.715Y-86.995
X132.715Y-88.265
X132.715Y-89.535
X133.1Y-74.498
X133.12Y-91.89
X133.35Y-83.82
X133.35Y-85.09
X133.35Y-86.36
X133.35Y-87.63
X133.35Y-88.9
X133.82Y-91.29
X133.985Y-84.455
X133.985Y-85.725
X133.985Y-86.995
X133.985Y-88.265
X134.239Y-103.378
X134.239Y-104.394
X134.58Y-79.574
X134.62Y-85.09
X134.62Y-86.36
X134.62Y-87.63
X135.141Y-91.245
X135.255Y-85.725
X135.255Y-86.995
X135.305Y-82.723
X135.382Y-97.155
X135.382Y-97.917
X135.509Y-103.378
X135.509Y-104.394
X135.62Y-91.89
X135.89Y-73.914
X135.89Y-86.36
X135.89Y-93.98
X135.89Y-94.742
X136.144Y-97.155
X136.144Y-97.917
X136.175Y-82.297
X136.652Y-93.98
X136.652Y-94.742
X136.779Y-103.378
X136.779Y-104.394
X136.888Y-88.611
X136.906Y-97.155
X136.906Y-97.917
X136.978Y-82.313
X136.983Y-84.613
X137.16Y-75.692
X137.16Y-76.454
X137.16Y-77.089
X137.541Y-93.98
X137.541Y-94.742
X137.795Y-97.155
X137.795Y-97.917
X137.983Y-82.503
X138.049Y-103.378
X138.049Y-104.394
X138.48Y-73.53
X139.635Y-91.357
X139.69Y-85.96
X139.7Y-93.98
X139.7Y-94.742
X139.827Y-100.203
X139.827Y-101.219
X139.827Y-102.235
X139.827Y-103.251
X139.827Y-104.521
X139.827Y-105.664
X139.893Y-84.303
X140.19Y-74.29
X140.23Y-86.554
X140.41Y-83.664
X140.462Y-93.98
X140.462Y-94.742
X141.097Y-100.203
X141.097Y-101.219
X141.097Y-102.235
X141.097Y-103.251
X141.097Y-104.521
X141.097Y-105.664
X141.129Y-84.688
X141.18Y-74.21
X141.224Y-93.98
X141.224Y-94.742
X141.68Y-87.11
X141.686Y-89.696
X141.93Y-87.89
X141.986Y-75.184
X141.986Y-93.98
X141.986Y-94.742
X142.24Y-88.89
X142.367Y-100.203
X142.367Y-101.219
X142.367Y-102.235
X142.367Y-103.251
X142.367Y-104.521
X142.367Y-105.664
X142.47Y-87.06
X142.748Y-93.98
X142.748Y-94.742
X142.81Y-72.83
X143.51Y-93.98
X143.51Y-94.742
X143.637Y-100.203
X143.637Y-101.219
X143.637Y-102.235
X143.637Y-103.251
X144.396Y-80.236
X144.403Y-79.182
X144.41Y-78.02
X144.803Y-78.603
X145.08Y-74.31
X145.1Y-80.61
X145.161Y-93.98
X145.161Y-94.742
X145.415Y-100.203
X145.415Y-101.219
X145.415Y-102.235
X145.415Y-103.251
X145.415Y-104.521
X145.415Y-105.664
X145.431Y-81.353
X145.662Y-89.971
X145.923Y-93.98
X145.923Y-94.742
X146.004Y-82.744
X146.05Y-74.295
X146.18Y-88.62
X146.244Y-90.366
X146.67Y-82.18
X146.685Y-93.98
X146.685Y-94.742
X146.685Y-100.203
X146.685Y-101.219
X146.685Y-102.235
X146.685Y-103.251
X146.685Y-104.521
X146.685Y-105.664
X146.82Y-83.834
X146.91Y-82.98
X147.388Y-89.438
X147.447Y-93.98
X147.447Y-94.742
X147.955Y-100.203
X147.955Y-101.219
X147.955Y-102.235
X147.955Y-103.251
X147.955Y-104.521
X147.955Y-105.664
X147.96Y-77.6
X147.967Y-82.206
X148.19Y-80.72
X148.209Y-93.98
X148.209Y-94.742
X148.478Y-78.532
X148.52Y-79.534
X148.54Y-73.06
X148.971Y-93.98
X148.971Y-94.742
X148.985Y-85.902
X149.05Y-80.29
X149.225Y-100.203
X149.225Y-101.219
X149.225Y-102.235
X149.225Y-103.251
X149.23Y-82.25
X149.362Y-77.4
X149.853Y-91.797
X150.015Y-79.951
X150.09Y-78.134
X150.42Y-90.374
X150.6Y-71.59
X150.97Y-85.702
X151.257Y-101.473
X151.288Y-83.79
X151.322Y-77.751
X151.55Y-71.06
X151.602Y-85.123
X152.22Y-80.82
X152.43Y-91.89
X152.504Y-71.622
X152.527Y-101.473
X152.656Y-82.934
X152.707Y-81.948
X152.85Y-83.83
X153.01Y-80.025
X153.289Y-97.282
X153.289Y-97.917
X153.36Y-89.797
X153.38Y-88.48
X153.416Y-94.107
X153.416Y-94.742
X153.55Y-71.63
X153.797Y-101.473
X154.051Y-94.107
X154.051Y-94.742
X154.051Y-97.282
X154.051Y-97.917
X154.686Y-94.107
X154.686Y-94.742
X154.75Y-73.26
X154.813Y-86.233
X154.813Y-97.282
X154.813Y-97.917
X154.94Y-101.473
X155.321Y-94.107
X155.321Y-94.742
X155.575Y-75.311
X155.575Y-76.581
X155.575Y-97.282
X155.575Y-97.917
X155.896Y-83.164
X156.337Y-89.154
X156.464Y-87.884
X156.464Y-91.694
X156.845Y-74.168
X157.099Y-99.822
X157.099Y-100.584
X157.099Y-102.235
X157.099Y-102.87
X157.099Y-103.505
X157.607Y-80.596
X157.861Y-86.233
X157.861Y-99.822
X157.861Y-100.584
X157.861Y-102.235
X157.861Y-102.87
X157.861Y-103.505
X158.36Y-87.87
X158.496Y-77.089
X158.623Y-75.946
X160.274Y-94.107
X160.274Y-94.742
X160.274Y-95.377
X160.274Y-96.901
X160.274Y-97.536
X160.274Y-98.171
X160.909Y-94.107
X160.909Y-94.742
X160.909Y-95.377
X160.909Y-96.901
X160.909Y-97.536
X160.909Y-98.171
X161.07Y-82.744
X161.12Y-84.46
X161.37Y-85.56
X161.38Y-80.018
X161.496Y-83.304
X161.671Y-75.946
X161.671Y-77.089
X161.8Y-81.604
X161.84Y-82.63
X162.03Y-90.85
X162.687Y-84.709
X163.18Y-90.86
X163.49Y-79.98
X164.502Y-90.84
X165.72Y-76.56
X166.16Y-80.51
X166.273Y-77.508
X166.33Y-78.51
X166.624Y-91.694
T2
X131.699Y-75.692
T3
X121.125Y-71.0
X121.125Y-107.0
X121.674Y-69.674
X121.674Y-72.326
X121.674Y-105.674
X121.674Y-108.326
X123.0Y-69.125
X123.0Y-72.875
X123.0Y-105.125
X123.0Y-108.875
X124.326Y-69.674
X124.326Y-72.326
X124.326Y-105.674
X124.326Y-108.326
X124.875Y-71.0
X124.875Y-107.0
X157.125Y-71.0
X157.125Y-107.0
X157.674Y-69.674
X157.674Y-72.326
X157.674Y-105.674
X157.674Y-108.326
X159.0Y-69.125
X159.0Y-72.875
X159.0Y-105.125
X159.0Y-108.875
X160.326Y-69.674
X160.326Y-72.326
X160.326Y-105.674
X160.326Y-108.326
X160.875Y-71.0
X160.875Y-107.0
T4
X131.0Y-108.0
X141.0Y-108.0
X151.0Y-108.0
X168.0Y-95.0
X168.0Y-101.0
T5
X123.0Y-71.0
X123.0Y-107.0
X159.0Y-71.0
X159.0Y-107.0
M30
