%TF.GenerationSoftware,KiCad,Pcbnew,9.0.1*%
%TF.CreationDate,2025-05-07T14:48:38+08:00*%
%TF.ProjectId,CawDrive,43617744-7269-4766-952e-6b696361645f,rev?*%
%TF.SameCoordinates,Original*%
%TF.FileFunction,Copper,L1,Top*%
%TF.FilePolarity,Positive*%
%FSLAX46Y46*%
G04 Gerber Fmt 4.6, Leading zero omitted, Abs format (unit mm)*
G04 Created by KiCad (PCBNEW 9.0.1) date 2025-05-07 14:48:38*
%MOMM*%
%LPD*%
G01*
G04 APERTURE LIST*
G04 Aperture macros list*
%AMRoundRect*
0 Rectangle with rounded corners*
0 $1 Rounding radius*
0 $2 $3 $4 $5 $6 $7 $8 $9 X,Y pos of 4 corners*
0 Add a 4 corners polygon primitive as box body*
4,1,4,$2,$3,$4,$5,$6,$7,$8,$9,$2,$3,0*
0 Add four circle primitives for the rounded corners*
1,1,$1+$1,$2,$3*
1,1,$1+$1,$4,$5*
1,1,$1+$1,$6,$7*
1,1,$1+$1,$8,$9*
0 Add four rect primitives between the rounded corners*
20,1,$1+$1,$2,$3,$4,$5,0*
20,1,$1+$1,$4,$5,$6,$7,0*
20,1,$1+$1,$6,$7,$8,$9,0*
20,1,$1+$1,$8,$9,$2,$3,0*%
%AMRotRect*
0 Rectangle, with rotation*
0 The origin of the aperture is its center*
0 $1 length*
0 $2 width*
0 $3 Rotation angle, in degrees counterclockwise*
0 Add horizontal line*
21,1,$1,$2,0,0,$3*%
G04 Aperture macros list end*
%TA.AperFunction,SMDPad,CuDef*%
%ADD10RoundRect,0.160000X0.160000X-0.197500X0.160000X0.197500X-0.160000X0.197500X-0.160000X-0.197500X0*%
%TD*%
%TA.AperFunction,SMDPad,CuDef*%
%ADD11RoundRect,0.237500X-0.237500X0.300000X-0.237500X-0.300000X0.237500X-0.300000X0.237500X0.300000X0*%
%TD*%
%TA.AperFunction,SMDPad,CuDef*%
%ADD12RoundRect,0.155000X0.212500X0.155000X-0.212500X0.155000X-0.212500X-0.155000X0.212500X-0.155000X0*%
%TD*%
%TA.AperFunction,SMDPad,CuDef*%
%ADD13RoundRect,0.160000X-0.160000X0.222500X-0.160000X-0.222500X0.160000X-0.222500X0.160000X0.222500X0*%
%TD*%
%TA.AperFunction,SMDPad,CuDef*%
%ADD14C,1.000000*%
%TD*%
%TA.AperFunction,SMDPad,CuDef*%
%ADD15RoundRect,0.160000X0.197500X0.160000X-0.197500X0.160000X-0.197500X-0.160000X0.197500X-0.160000X0*%
%TD*%
%TA.AperFunction,SMDPad,CuDef*%
%ADD16RoundRect,0.250000X-0.412500X-0.650000X0.412500X-0.650000X0.412500X0.650000X-0.412500X0.650000X0*%
%TD*%
%TA.AperFunction,SMDPad,CuDef*%
%ADD17R,0.500000X1.700000*%
%TD*%
%TA.AperFunction,SMDPad,CuDef*%
%ADD18R,1.200000X2.500000*%
%TD*%
%TA.AperFunction,SMDPad,CuDef*%
%ADD19R,0.850000X1.450000*%
%TD*%
%TA.AperFunction,SMDPad,CuDef*%
%ADD20R,0.850000X1.050000*%
%TD*%
%TA.AperFunction,SMDPad,CuDef*%
%ADD21R,4.700000X3.750000*%
%TD*%
%TA.AperFunction,SMDPad,CuDef*%
%ADD22RoundRect,0.160000X-0.197500X-0.160000X0.197500X-0.160000X0.197500X0.160000X-0.197500X0.160000X0*%
%TD*%
%TA.AperFunction,SMDPad,CuDef*%
%ADD23RoundRect,0.250000X1.075000X-0.400000X1.075000X0.400000X-1.075000X0.400000X-1.075000X-0.400000X0*%
%TD*%
%TA.AperFunction,ComponentPad*%
%ADD24RoundRect,0.750000X-0.750000X-0.750000X0.750000X-0.750000X0.750000X0.750000X-0.750000X0.750000X0*%
%TD*%
%TA.AperFunction,SMDPad,CuDef*%
%ADD25R,0.660000X0.320000*%
%TD*%
%TA.AperFunction,SMDPad,CuDef*%
%ADD26R,1.000000X1.600000*%
%TD*%
%TA.AperFunction,SMDPad,CuDef*%
%ADD27R,1.700000X0.500000*%
%TD*%
%TA.AperFunction,SMDPad,CuDef*%
%ADD28R,2.500000X1.200000*%
%TD*%
%TA.AperFunction,SMDPad,CuDef*%
%ADD29RoundRect,0.155000X-0.212500X-0.155000X0.212500X-0.155000X0.212500X0.155000X-0.212500X0.155000X0*%
%TD*%
%TA.AperFunction,SMDPad,CuDef*%
%ADD30RoundRect,0.160000X0.222500X0.160000X-0.222500X0.160000X-0.222500X-0.160000X0.222500X-0.160000X0*%
%TD*%
%TA.AperFunction,SMDPad,CuDef*%
%ADD31RoundRect,0.250000X0.650000X-0.412500X0.650000X0.412500X-0.650000X0.412500X-0.650000X-0.412500X0*%
%TD*%
%TA.AperFunction,SMDPad,CuDef*%
%ADD32RoundRect,0.155000X0.155000X-0.212500X0.155000X0.212500X-0.155000X0.212500X-0.155000X-0.212500X0*%
%TD*%
%TA.AperFunction,ComponentPad*%
%ADD33C,0.800000*%
%TD*%
%TA.AperFunction,ComponentPad*%
%ADD34C,5.000000*%
%TD*%
%TA.AperFunction,SMDPad,CuDef*%
%ADD35RoundRect,0.225000X0.225000X0.375000X-0.225000X0.375000X-0.225000X-0.375000X0.225000X-0.375000X0*%
%TD*%
%TA.AperFunction,SMDPad,CuDef*%
%ADD36RoundRect,0.250000X0.412500X0.650000X-0.412500X0.650000X-0.412500X-0.650000X0.412500X-0.650000X0*%
%TD*%
%TA.AperFunction,SMDPad,CuDef*%
%ADD37R,1.800000X2.000000*%
%TD*%
%TA.AperFunction,SMDPad,CuDef*%
%ADD38R,1.700000X0.650000*%
%TD*%
%TA.AperFunction,SMDPad,CuDef*%
%ADD39RoundRect,0.237500X0.300000X0.237500X-0.300000X0.237500X-0.300000X-0.237500X0.300000X-0.237500X0*%
%TD*%
%TA.AperFunction,SMDPad,CuDef*%
%ADD40RoundRect,0.155000X-0.259862X0.040659X0.040659X-0.259862X0.259862X-0.040659X-0.040659X0.259862X0*%
%TD*%
%TA.AperFunction,SMDPad,CuDef*%
%ADD41RoundRect,0.237500X0.237500X-0.300000X0.237500X0.300000X-0.237500X0.300000X-0.237500X-0.300000X0*%
%TD*%
%TA.AperFunction,SMDPad,CuDef*%
%ADD42RoundRect,0.160000X-0.222500X-0.160000X0.222500X-0.160000X0.222500X0.160000X-0.222500X0.160000X0*%
%TD*%
%TA.AperFunction,SMDPad,CuDef*%
%ADD43RotRect,0.665000X0.280000X45.000000*%
%TD*%
%TA.AperFunction,SMDPad,CuDef*%
%ADD44RotRect,0.280000X0.665000X45.000000*%
%TD*%
%TA.AperFunction,SMDPad,CuDef*%
%ADD45RotRect,5.150000X5.150000X45.000000*%
%TD*%
%TA.AperFunction,SMDPad,CuDef*%
%ADD46O,2.045000X0.588000*%
%TD*%
%TA.AperFunction,SMDPad,CuDef*%
%ADD47R,4.220000X2.124000*%
%TD*%
%TA.AperFunction,SMDPad,CuDef*%
%ADD48RoundRect,0.155000X-0.155000X0.212500X-0.155000X-0.212500X0.155000X-0.212500X0.155000X0.212500X0*%
%TD*%
%TA.AperFunction,SMDPad,CuDef*%
%ADD49RoundRect,0.075000X0.700000X0.075000X-0.700000X0.075000X-0.700000X-0.075000X0.700000X-0.075000X0*%
%TD*%
%TA.AperFunction,SMDPad,CuDef*%
%ADD50RoundRect,0.075000X0.075000X0.700000X-0.075000X0.700000X-0.075000X-0.700000X0.075000X-0.700000X0*%
%TD*%
%TA.AperFunction,ViaPad*%
%ADD51C,0.406400*%
%TD*%
%TA.AperFunction,ViaPad*%
%ADD52C,0.609600*%
%TD*%
%TA.AperFunction,ViaPad*%
%ADD53C,0.600000*%
%TD*%
%TA.AperFunction,Conductor*%
%ADD54C,0.152400*%
%TD*%
%TA.AperFunction,Conductor*%
%ADD55C,0.279400*%
%TD*%
%TA.AperFunction,Conductor*%
%ADD56C,0.304800*%
%TD*%
%TA.AperFunction,Conductor*%
%ADD57C,1.524000*%
%TD*%
%TA.AperFunction,Conductor*%
%ADD58C,0.129286*%
%TD*%
%TA.AperFunction,Conductor*%
%ADD59C,0.160020*%
%TD*%
G04 APERTURE END LIST*
D10*
%TO.P,R17,1*%
%TO.N,+3.3V*%
X137795000Y-84163500D03*
%TO.P,R17,2*%
%TO.N,/DRV_FAULT*%
X137795000Y-82968500D03*
%TD*%
D11*
%TO.P,C16,1*%
%TO.N,+5V*%
X127381000Y-77496500D03*
%TO.P,C16,2*%
%TO.N,GND*%
X127381000Y-79221500D03*
%TD*%
D12*
%TO.P,C13,1*%
%TO.N,+5V*%
X152459500Y-91059000D03*
%TO.P,C13,2*%
%TO.N,GND*%
X151324500Y-91059000D03*
%TD*%
D13*
%TO.P,D4,1,K*%
%TO.N,Net-(D4-K)*%
X140462000Y-75881500D03*
%TO.P,D4,2,A*%
%TO.N,+3.3V*%
X140462000Y-77026500D03*
%TD*%
D14*
%TO.P,TP4,1,1*%
%TO.N,/TIM1_CH1*%
X133604000Y-78613000D03*
%TD*%
D15*
%TO.P,R1,1*%
%TO.N,/ADC2_IN9*%
X127216500Y-73787000D03*
%TO.P,R1,2*%
%TO.N,+3.3V*%
X126021500Y-73787000D03*
%TD*%
D16*
%TO.P,C38,1*%
%TO.N,+36V*%
X157437500Y-102870000D03*
%TO.P,C38,2*%
%TO.N,GND1*%
X160562500Y-102870000D03*
%TD*%
D17*
%TO.P,U6,1,1*%
%TO.N,/ADC2_IN9*%
X129500000Y-72947000D03*
%TO.P,U6,2,2*%
%TO.N,GND*%
X128500000Y-72947000D03*
D18*
%TO.P,U6,3,3*%
%TO.N,unconnected-(U6-Pad3)*%
X127400000Y-69547000D03*
%TO.P,U6,4,4*%
%TO.N,unconnected-(U6-Pad4)*%
X130600000Y-69547000D03*
%TD*%
D10*
%TO.P,R2,1*%
%TO.N,/SWDIO*%
X162941000Y-81369500D03*
%TO.P,R2,2*%
%TO.N,+3.3V*%
X162941000Y-80174500D03*
%TD*%
D19*
%TO.P,Q7,1,S*%
%TO.N,/DRV8323RSRGZR/PHASA*%
X122555000Y-103124000D03*
%TO.P,Q7,2,S*%
X123825000Y-103124000D03*
%TO.P,Q7,3,S*%
X125095000Y-103124000D03*
%TO.P,Q7,4,G*%
%TO.N,/DRV8323RSRGZR/GHA*%
X126365000Y-103124000D03*
D20*
%TO.P,Q7,5,D*%
%TO.N,+36V*%
X126365000Y-97424000D03*
%TO.P,Q7,6,D*%
X125095000Y-97424000D03*
%TO.P,Q7,7,D*%
X123825000Y-97424000D03*
%TO.P,Q7,8,D*%
X122555000Y-97424000D03*
D21*
%TO.P,Q7,9,D*%
X124460000Y-99824000D03*
%TD*%
D10*
%TO.P,R26,1*%
%TO.N,/CAN_N*%
X163068000Y-88100500D03*
%TO.P,R26,2*%
%TO.N,/CAN_P*%
X163068000Y-86905500D03*
%TD*%
D12*
%TO.P,C9,1*%
%TO.N,GND*%
X157539500Y-74168000D03*
%TO.P,C9,2*%
%TO.N,Net-(U8-VCAP_1)*%
X156404500Y-74168000D03*
%TD*%
D22*
%TO.P,R9,1*%
%TO.N,Net-(D1-K)*%
X159549500Y-79629000D03*
%TO.P,R9,2*%
%TO.N,/MCU_STA*%
X160744500Y-79629000D03*
%TD*%
D23*
%TO.P,R18,1*%
%TO.N,/DRV8323RSRGZR/SPA*%
X131064000Y-97562000D03*
%TO.P,R18,2*%
%TO.N,GND1*%
X131064000Y-94462000D03*
%TD*%
D24*
%TO.P,H8,1,1*%
%TO.N,GND1*%
X168000000Y-95000000D03*
%TD*%
D25*
%TO.P,U2,1,OUT*%
%TO.N,+3.3V*%
X134620000Y-76977000D03*
%TO.P,U2,2,SNS*%
X134620000Y-76327000D03*
%TO.P,U2,3,GND*%
%TO.N,GND*%
X134620000Y-75677000D03*
%TO.P,U2,4,EN*%
%TO.N,+5V*%
X132570000Y-75677000D03*
%TO.P,U2,5,GND*%
%TO.N,GND*%
X132570000Y-76327000D03*
%TO.P,U2,6,IN*%
%TO.N,+5V*%
X132570000Y-76977000D03*
D26*
%TO.P,U2,7,NC*%
%TO.N,GND*%
X133595000Y-76327000D03*
%TD*%
D15*
%TO.P,R8,1*%
%TO.N,/ADC1_IN10*%
X164554500Y-93980000D03*
%TO.P,R8,2*%
%TO.N,+36V*%
X163359500Y-93980000D03*
%TD*%
D27*
%TO.P,U5,1,1*%
%TO.N,/CAN_N*%
X164800000Y-88000000D03*
%TO.P,U5,2,2*%
%TO.N,/CAN_P*%
X164800000Y-87000000D03*
D28*
%TO.P,U5,3,3*%
%TO.N,unconnected-(U5-Pad3)*%
X168200000Y-85900000D03*
%TO.P,U5,4,4*%
%TO.N,unconnected-(U5-Pad4)*%
X168200000Y-89100000D03*
%TD*%
D29*
%TO.P,C2,1*%
%TO.N,+3.3V*%
X156531500Y-86233000D03*
%TO.P,C2,2*%
%TO.N,GND*%
X157666500Y-86233000D03*
%TD*%
D30*
%TO.P,L1,1*%
%TO.N,+3.3V*%
X157544500Y-76835000D03*
%TO.P,L1,2*%
%TO.N,+3.3VA*%
X156399500Y-76835000D03*
%TD*%
D14*
%TO.P,TP2,1,1*%
%TO.N,/TIM1_CH2N*%
X138176000Y-78613000D03*
%TD*%
D31*
%TO.P,C22,1*%
%TO.N,+36V*%
X121259600Y-95669500D03*
%TO.P,C22,2*%
%TO.N,GND1*%
X121259600Y-92544500D03*
%TD*%
D32*
%TO.P,C7,1*%
%TO.N,+5V*%
X131064000Y-76767500D03*
%TO.P,C7,2*%
%TO.N,GND*%
X131064000Y-75632500D03*
%TD*%
D19*
%TO.P,Q12,1,S*%
%TO.N,GND1*%
X155067000Y-99612000D03*
%TO.P,Q12,2,S*%
X153797000Y-99612000D03*
%TO.P,Q12,3,S*%
X152527000Y-99612000D03*
%TO.P,Q12,4,G*%
%TO.N,/DRV8323RSRGZR/GLC*%
X151257000Y-99612000D03*
D20*
%TO.P,Q12,5,D*%
%TO.N,/DRV8323RSRGZR/PHASC*%
X151257000Y-105312000D03*
%TO.P,Q12,6,D*%
X152527000Y-105312000D03*
%TO.P,Q12,7,D*%
X153797000Y-105312000D03*
%TO.P,Q12,8,D*%
X155067000Y-105312000D03*
D21*
%TO.P,Q12,9,D*%
X153162000Y-102912000D03*
%TD*%
D19*
%TO.P,Q9,1,S*%
%TO.N,/DRV8323RSRGZR/PHASB*%
X139845000Y-105112000D03*
%TO.P,Q9,2,S*%
X141115000Y-105112000D03*
%TO.P,Q9,3,S*%
X142385000Y-105112000D03*
%TO.P,Q9,4,G*%
%TO.N,/DRV8323RSRGZR/GHB*%
X143655000Y-105112000D03*
D20*
%TO.P,Q9,5,D*%
%TO.N,+36V*%
X143655000Y-99412000D03*
%TO.P,Q9,6,D*%
X142385000Y-99412000D03*
%TO.P,Q9,7,D*%
X141115000Y-99412000D03*
%TO.P,Q9,8,D*%
X139845000Y-99412000D03*
D21*
%TO.P,Q9,9,D*%
X141750000Y-101812000D03*
%TD*%
D31*
%TO.P,C23,1*%
%TO.N,+36V*%
X140462000Y-97592500D03*
%TO.P,C23,2*%
%TO.N,GND1*%
X140462000Y-94467500D03*
%TD*%
D12*
%TO.P,C10,1*%
%TO.N,+36V*%
X164067500Y-101854000D03*
%TO.P,C10,2*%
%TO.N,GND1*%
X162932500Y-101854000D03*
%TD*%
D29*
%TO.P,C19,1*%
%TO.N,/ADC1_IN10*%
X156404500Y-80391000D03*
%TO.P,C19,2*%
%TO.N,GND*%
X157539500Y-80391000D03*
%TD*%
D17*
%TO.P,U11,1,1*%
%TO.N,+5V*%
X135028750Y-72947000D03*
%TO.P,U11,2,2*%
%TO.N,GND*%
X134028750Y-72947000D03*
D18*
%TO.P,U11,3,3*%
%TO.N,unconnected-(U11-Pad3)*%
X132928750Y-69547000D03*
%TO.P,U11,4,4*%
%TO.N,unconnected-(U11-Pad4)*%
X136128750Y-69547000D03*
%TD*%
D14*
%TO.P,TP5,1,1*%
%TO.N,/TIM1_CH2*%
X131445000Y-78613000D03*
%TD*%
D33*
%TO.P,H2,1,1*%
%TO.N,unconnected-(H2-Pad1)_1*%
X157125000Y-71000000D03*
%TO.N,unconnected-(H2-Pad1)_5*%
X157674175Y-69674175D03*
%TO.N,unconnected-(H2-Pad1)_8*%
X157674175Y-72325825D03*
%TO.N,unconnected-(H2-Pad1)_2*%
X159000000Y-69125000D03*
D34*
%TO.N,unconnected-(H2-Pad1)*%
X159000000Y-71000000D03*
D33*
%TO.N,unconnected-(H2-Pad1)_4*%
X159000000Y-72875000D03*
%TO.N,unconnected-(H2-Pad1)_7*%
X160325825Y-69674175D03*
%TO.N,unconnected-(H2-Pad1)_6*%
X160325825Y-72325825D03*
%TO.N,unconnected-(H2-Pad1)_3*%
X160875000Y-71000000D03*
%TD*%
D24*
%TO.P,H6,1,1*%
%TO.N,/DRV8323RSRGZR/PHASB*%
X141000000Y-108000000D03*
%TD*%
D31*
%TO.P,C20,1*%
%TO.N,+36V*%
X126034800Y-95669500D03*
%TO.P,C20,2*%
%TO.N,GND1*%
X126034800Y-92544500D03*
%TD*%
D35*
%TO.P,D3,1,K*%
%TO.N,/DRV8323RSRGZR/SW*%
X127507000Y-83820000D03*
%TO.P,D3,2,A*%
%TO.N,GND*%
X124207000Y-83820000D03*
%TD*%
D17*
%TO.P,CN3,1,1*%
%TO.N,/SPI1_SCK*%
X153590000Y-73074000D03*
%TO.P,CN3,2,2*%
%TO.N,/SPI1_MISO*%
X152590000Y-73074000D03*
%TO.P,CN3,3,3*%
%TO.N,/SPI1_MOSI*%
X151590000Y-73074000D03*
%TO.P,CN3,4,4*%
%TO.N,/SPI1_NSS*%
X150590000Y-73074000D03*
D18*
%TO.P,CN3,5,5*%
%TO.N,unconnected-(CN3-Pad5)*%
X154690000Y-69674000D03*
%TO.P,CN3,6,6*%
%TO.N,unconnected-(CN3-Pad6)*%
X149490000Y-69674000D03*
%TD*%
D22*
%TO.P,R23,1*%
%TO.N,GND*%
X148627500Y-91059000D03*
%TO.P,R23,2*%
%TO.N,Net-(U8-BOOT0)*%
X149822500Y-91059000D03*
%TD*%
D31*
%TO.P,C25,1*%
%TO.N,+36V*%
X145796000Y-97592500D03*
%TO.P,C25,2*%
%TO.N,GND1*%
X145796000Y-94467500D03*
%TD*%
D15*
%TO.P,R20,1*%
%TO.N,/ADC3_IN2*%
X141567500Y-89916000D03*
%TO.P,R20,2*%
%TO.N,+3.3V*%
X140372500Y-89916000D03*
%TD*%
%TO.P,R5,1*%
%TO.N,/I2C1_SCL*%
X144615500Y-91059000D03*
%TO.P,R5,2*%
%TO.N,+3.3V*%
X143420500Y-91059000D03*
%TD*%
D29*
%TO.P,C11,1*%
%TO.N,+3.3VA*%
X156404500Y-77978000D03*
%TO.P,C11,2*%
%TO.N,GND*%
X157539500Y-77978000D03*
%TD*%
D12*
%TO.P,C17,1*%
%TO.N,GND*%
X163177500Y-91690000D03*
%TO.P,C17,2*%
%TO.N,+3.3V*%
X162042500Y-91690000D03*
%TD*%
D14*
%TO.P,TP1,1,1*%
%TO.N,/TIM1_CH1N*%
X140462000Y-78613000D03*
%TD*%
D33*
%TO.P,H4,1,1*%
%TO.N,unconnected-(H4-Pad1)_7*%
X121125000Y-107000000D03*
%TO.N,unconnected-(H4-Pad1)_5*%
X121674175Y-105674175D03*
%TO.N,unconnected-(H4-Pad1)_3*%
X121674175Y-108325825D03*
%TO.N,unconnected-(H4-Pad1)*%
X123000000Y-105125000D03*
D34*
%TO.N,unconnected-(H4-Pad1)_4*%
X123000000Y-107000000D03*
D33*
%TO.N,unconnected-(H4-Pad1)_2*%
X123000000Y-108875000D03*
%TO.N,unconnected-(H4-Pad1)_8*%
X124325825Y-105674175D03*
%TO.N,unconnected-(H4-Pad1)_6*%
X124325825Y-108325825D03*
%TO.N,unconnected-(H4-Pad1)_1*%
X124875000Y-107000000D03*
%TD*%
D36*
%TO.P,C30,1*%
%TO.N,+36V*%
X125446500Y-87884000D03*
%TO.P,C30,2*%
%TO.N,GND*%
X122321500Y-87884000D03*
%TD*%
D37*
%TO.P,TV1,1,K*%
%TO.N,+36V*%
X163500000Y-100000000D03*
%TO.P,TV1,2,A*%
%TO.N,GND1*%
X163500000Y-96000000D03*
%TD*%
D22*
%TO.P,R24,1*%
%TO.N,Net-(U8-VSSA)*%
X156374500Y-79121000D03*
%TO.P,R24,2*%
%TO.N,GND*%
X157569500Y-79121000D03*
%TD*%
D15*
%TO.P,R7,1*%
%TO.N,Net-(D4-K)*%
X140424500Y-74676000D03*
%TO.P,R7,2*%
%TO.N,GND*%
X139229500Y-74676000D03*
%TD*%
D38*
%TO.P,X1,1,OSC1*%
%TO.N,/HSE_IN*%
X157200000Y-84350000D03*
D27*
%TO.P,X1,2,GND*%
%TO.N,GND*%
X157200000Y-83150000D03*
D38*
%TO.P,X1,3,OSC2*%
%TO.N,/HSE_OUT*%
X157200000Y-81950000D03*
%TD*%
D16*
%TO.P,C36,1*%
%TO.N,+36V*%
X157437500Y-97423333D03*
%TO.P,C36,2*%
%TO.N,GND1*%
X160562500Y-97423333D03*
%TD*%
D15*
%TO.P,R10,1*%
%TO.N,+3.3V*%
X160744500Y-75946000D03*
%TO.P,R10,2*%
%TO.N,/RESET*%
X159549500Y-75946000D03*
%TD*%
D39*
%TO.P,C33,1*%
%TO.N,+36V*%
X125576500Y-85852000D03*
%TO.P,C33,2*%
%TO.N,GND*%
X123851500Y-85852000D03*
%TD*%
D40*
%TO.P,C31,1*%
%TO.N,Net-(U7-DVDD)*%
X133583717Y-80370717D03*
%TO.P,C31,2*%
%TO.N,GND*%
X134386283Y-81173283D03*
%TD*%
D15*
%TO.P,R4,1*%
%TO.N,GND1*%
X123025500Y-90805000D03*
%TO.P,R4,2*%
%TO.N,GND*%
X121830500Y-90805000D03*
%TD*%
%TO.P,R12,1*%
%TO.N,GND*%
X165697500Y-92837000D03*
%TO.P,R12,2*%
%TO.N,/ADC1_IN10*%
X164502500Y-92837000D03*
%TD*%
D14*
%TO.P,TP7,1,1*%
%TO.N,Net-(U8-PC13)*%
X163310000Y-76180000D03*
%TD*%
D41*
%TO.P,C35,1*%
%TO.N,+3.3V*%
X137795000Y-76808500D03*
%TO.P,C35,2*%
%TO.N,GND*%
X137795000Y-75083500D03*
%TD*%
D29*
%TO.P,C14,1*%
%TO.N,/RESET*%
X159579500Y-77089000D03*
%TO.P,C14,2*%
%TO.N,GND*%
X160714500Y-77089000D03*
%TD*%
D42*
%TO.P,D6,1,K*%
%TO.N,Net-(D6-K)*%
X159574500Y-83566000D03*
%TO.P,D6,2,A*%
%TO.N,+3.3V*%
X160719500Y-83566000D03*
%TD*%
D39*
%TO.P,C15,1*%
%TO.N,/DRV8323RSRGZR/CB*%
X129005500Y-81534000D03*
%TO.P,C15,2*%
%TO.N,/DRV8323RSRGZR/SW*%
X127280500Y-81534000D03*
%TD*%
D31*
%TO.P,C26,1*%
%TO.N,+36V*%
X148336000Y-97592500D03*
%TO.P,C26,2*%
%TO.N,GND1*%
X148336000Y-94467500D03*
%TD*%
D22*
%TO.P,R16,1*%
%TO.N,+3.3V*%
X143420500Y-89916000D03*
%TO.P,R16,2*%
%TO.N,/SPI3_MISO*%
X144615500Y-89916000D03*
%TD*%
D19*
%TO.P,Q8,1,S*%
%TO.N,/DRV8323RSRGZR/SPA*%
X132334000Y-99568000D03*
%TO.P,Q8,2,S*%
X131064000Y-99568000D03*
%TO.P,Q8,3,S*%
X129794000Y-99568000D03*
%TO.P,Q8,4,G*%
%TO.N,/DRV8323RSRGZR/GLA*%
X128524000Y-99568000D03*
D20*
%TO.P,Q8,5,D*%
%TO.N,/DRV8323RSRGZR/PHASA*%
X128524000Y-105268000D03*
%TO.P,Q8,6,D*%
X129794000Y-105268000D03*
%TO.P,Q8,7,D*%
X131064000Y-105268000D03*
%TO.P,Q8,8,D*%
X132334000Y-105268000D03*
D21*
%TO.P,Q8,9,D*%
X130429000Y-102868000D03*
%TD*%
D17*
%TO.P,U12,1,1*%
%TO.N,+3.3V*%
X140557500Y-72947000D03*
%TO.P,U12,2,2*%
%TO.N,GND*%
X139557500Y-72947000D03*
D18*
%TO.P,U12,3,3*%
%TO.N,unconnected-(U12-Pad3)*%
X138457500Y-69547000D03*
%TO.P,U12,4,4*%
%TO.N,unconnected-(U12-Pad4)*%
X141657500Y-69547000D03*
%TD*%
D14*
%TO.P,TP6,1,1*%
%TO.N,/TIM1_CH3*%
X129286000Y-78613000D03*
%TD*%
D10*
%TO.P,R3,1*%
%TO.N,GND*%
X162941000Y-83782500D03*
%TO.P,R3,2*%
%TO.N,/SWCLK*%
X162941000Y-82587500D03*
%TD*%
D12*
%TO.P,C6,1*%
%TO.N,+3.3V*%
X152459500Y-89916000D03*
%TO.P,C6,2*%
%TO.N,GND*%
X151324500Y-89916000D03*
%TD*%
D16*
%TO.P,C37,1*%
%TO.N,+36V*%
X157437500Y-100146667D03*
%TO.P,C37,2*%
%TO.N,GND1*%
X160562500Y-100146667D03*
%TD*%
D24*
%TO.P,H7,1,1*%
%TO.N,/DRV8323RSRGZR/PHASC*%
X151000000Y-108000000D03*
%TD*%
D23*
%TO.P,R19,1*%
%TO.N,/DRV8323RSRGZR/SPB*%
X136906000Y-97550000D03*
%TO.P,R19,2*%
%TO.N,GND1*%
X136906000Y-94450000D03*
%TD*%
D41*
%TO.P,C34,1*%
%TO.N,+3.3V*%
X136144000Y-76808500D03*
%TO.P,C34,2*%
%TO.N,GND*%
X136144000Y-75083500D03*
%TD*%
D24*
%TO.P,H9,1,1*%
%TO.N,+36V*%
X168000000Y-101000000D03*
%TD*%
D19*
%TO.P,Q10,1,S*%
%TO.N,/DRV8323RSRGZR/SPB*%
X138049000Y-99568000D03*
%TO.P,Q10,2,S*%
X136779000Y-99568000D03*
%TO.P,Q10,3,S*%
X135509000Y-99568000D03*
%TO.P,Q10,4,G*%
%TO.N,/DRV8323RSRGZR/GLB*%
X134239000Y-99568000D03*
D20*
%TO.P,Q10,5,D*%
%TO.N,/DRV8323RSRGZR/PHASB*%
X134239000Y-105268000D03*
%TO.P,Q10,6,D*%
X135509000Y-105268000D03*
%TO.P,Q10,7,D*%
X136779000Y-105268000D03*
%TO.P,Q10,8,D*%
X138049000Y-105268000D03*
D21*
%TO.P,Q10,9,D*%
X136144000Y-102868000D03*
%TD*%
D16*
%TO.P,C29,1*%
%TO.N,+36V*%
X157437500Y-94700000D03*
%TO.P,C29,2*%
%TO.N,GND1*%
X160562500Y-94700000D03*
%TD*%
D42*
%TO.P,D1,1,K*%
%TO.N,Net-(D1-K)*%
X159574500Y-78486000D03*
%TO.P,D1,2,A*%
%TO.N,+3.3V*%
X160719500Y-78486000D03*
%TD*%
%TO.P,D2,1,K*%
%TO.N,Net-(D2-K)*%
X159574500Y-81026000D03*
%TO.P,D2,2,A*%
%TO.N,+3.3V*%
X160719500Y-81026000D03*
%TD*%
D14*
%TO.P,TP3,1,1*%
%TO.N,/TIM1_CH3N*%
X135890000Y-78613000D03*
%TD*%
D15*
%TO.P,R14,1*%
%TO.N,/DRV8323RSRGZR/FB*%
X125565500Y-90805000D03*
%TO.P,R14,2*%
%TO.N,GND*%
X124370500Y-90805000D03*
%TD*%
D22*
%TO.P,R6,1*%
%TO.N,/I2C1_SDA*%
X145833500Y-91059000D03*
%TO.P,R6,2*%
%TO.N,+3.3V*%
X147028500Y-91059000D03*
%TD*%
D31*
%TO.P,C24,1*%
%TO.N,+36V*%
X142875000Y-97592500D03*
%TO.P,C24,2*%
%TO.N,GND1*%
X142875000Y-94467500D03*
%TD*%
D17*
%TO.P,U10,1,1*%
%TO.N,/I2C1_SDA*%
X146086250Y-72947000D03*
%TO.P,U10,2,2*%
%TO.N,/I2C1_SCL*%
X145086250Y-72947000D03*
D18*
%TO.P,U10,3,3*%
%TO.N,unconnected-(U10-Pad3)*%
X143986250Y-69547000D03*
%TO.P,U10,4,4*%
%TO.N,unconnected-(U10-Pad4)*%
X147186250Y-69547000D03*
%TD*%
D22*
%TO.P,R15,1*%
%TO.N,Net-(D6-K)*%
X159549500Y-84709000D03*
%TO.P,R15,2*%
%TO.N,/ENCODER_STA*%
X160744500Y-84709000D03*
%TD*%
D43*
%TO.P,U7,1,FB*%
%TO.N,/DRV8323RSRGZR/FB*%
X128361344Y-86824569D03*
%TO.P,U7,2,PGND*%
%TO.N,GND*%
X128714897Y-87178123D03*
%TO.P,U7,3,CPL*%
%TO.N,Net-(U7-CPL)*%
X129068450Y-87531676D03*
%TO.P,U7,4,CPH*%
%TO.N,Net-(U7-CPH)*%
X129422004Y-87885229D03*
%TO.P,U7,5,VCP*%
%TO.N,Net-(U7-VCP)*%
X129775557Y-88238783D03*
%TO.P,U7,6,VM*%
%TO.N,+36V*%
X130129111Y-88592336D03*
%TO.P,U7,7,VDRAIN*%
X130482664Y-88945889D03*
%TO.P,U7,8,GHA*%
%TO.N,/DRV8323RSRGZR/GHA*%
X130836217Y-89299443D03*
%TO.P,U7,9,SHA*%
%TO.N,/DRV8323RSRGZR/PHASA*%
X131189771Y-89652996D03*
%TO.P,U7,10,GLA*%
%TO.N,/DRV8323RSRGZR/GLA*%
X131543324Y-90006550D03*
%TO.P,U7,11,SPA*%
%TO.N,/DRV8323RSRGZR/SPA*%
X131896877Y-90360103D03*
%TO.P,U7,12,SNA*%
%TO.N,GND1*%
X132250431Y-90713656D03*
D44*
%TO.P,U7,13,SNB*%
X133179569Y-90713656D03*
%TO.P,U7,14,SPB*%
%TO.N,/DRV8323RSRGZR/SPB*%
X133533123Y-90360103D03*
%TO.P,U7,15,GLB*%
%TO.N,/DRV8323RSRGZR/GLB*%
X133886676Y-90006550D03*
%TO.P,U7,16,SHB*%
%TO.N,/DRV8323RSRGZR/PHASB*%
X134240229Y-89652996D03*
%TO.P,U7,17,GHB*%
%TO.N,/DRV8323RSRGZR/GHB*%
X134593783Y-89299443D03*
%TO.P,U7,18,GHC*%
%TO.N,/DRV8323RSRGZR/GHC*%
X134947336Y-88945889D03*
%TO.P,U7,19,SHC*%
%TO.N,/DRV8323RSRGZR/PHASC*%
X135300889Y-88592336D03*
%TO.P,U7,20,GLC*%
%TO.N,/DRV8323RSRGZR/GLC*%
X135654443Y-88238783D03*
%TO.P,U7,21,SPC*%
%TO.N,GND1*%
X136007996Y-87885229D03*
%TO.P,U7,22,SNC*%
X136361550Y-87531676D03*
%TO.P,U7,23,SOC*%
%TO.N,unconnected-(U7-SOC-Pad23)*%
X136715103Y-87178123D03*
%TO.P,U7,24,SOB*%
%TO.N,/ADC2_IN1*%
X137068656Y-86824569D03*
D43*
%TO.P,U7,25,SOA*%
%TO.N,/ADC1_IN0*%
X137068656Y-85895431D03*
%TO.P,U7,26,VREF*%
%TO.N,+3.3V*%
X136715103Y-85541877D03*
%TO.P,U7,27,DGND*%
%TO.N,GND*%
X136361550Y-85188324D03*
%TO.P,U7,28,nFAULT*%
%TO.N,/DRV_FAULT*%
X136007996Y-84834771D03*
%TO.P,U7,29,SDO*%
%TO.N,/SPI3_MISO*%
X135654443Y-84481217D03*
%TO.P,U7,30,SDI*%
%TO.N,/SPI3_MOSI*%
X135300889Y-84127664D03*
%TO.P,U7,31,SCLK*%
%TO.N,/SPI3_SCK*%
X134947336Y-83774111D03*
%TO.P,U7,32,nSCS*%
%TO.N,/DRV_SPI_NSS*%
X134593783Y-83420557D03*
%TO.P,U7,33,ENABLE*%
%TO.N,/DRV_ENABLE*%
X134240229Y-83067004D03*
%TO.P,U7,34,CAL*%
%TO.N,/DRV_CAL*%
X133886676Y-82713450D03*
%TO.P,U7,35,AGND*%
%TO.N,GND*%
X133533123Y-82359897D03*
%TO.P,U7,36,DVDD*%
%TO.N,Net-(U7-DVDD)*%
X133179569Y-82006344D03*
D44*
%TO.P,U7,37,INHA*%
%TO.N,/TIM1_CH1*%
X132250431Y-82006344D03*
%TO.P,U7,38,INLA*%
%TO.N,/TIM1_CH1N*%
X131896877Y-82359897D03*
%TO.P,U7,39,INHB*%
%TO.N,/TIM1_CH2*%
X131543324Y-82713450D03*
%TO.P,U7,40,INLB*%
%TO.N,/TIM1_CH2N*%
X131189771Y-83067004D03*
%TO.P,U7,41,INHC*%
%TO.N,/TIM1_CH3*%
X130836217Y-83420557D03*
%TO.P,U7,42,INLC*%
%TO.N,/TIM1_CH3N*%
X130482664Y-83774111D03*
%TO.P,U7,43,BGND*%
%TO.N,GND*%
X130129111Y-84127664D03*
%TO.P,U7,44,CB*%
%TO.N,/DRV8323RSRGZR/CB*%
X129775557Y-84481217D03*
%TO.P,U7,45,SW*%
%TO.N,/DRV8323RSRGZR/SW*%
X129422004Y-84834771D03*
%TO.P,U7,46,NC*%
%TO.N,unconnected-(U7-NC-Pad46)*%
X129068450Y-85188324D03*
%TO.P,U7,47,VIN*%
%TO.N,+36V*%
X128714897Y-85541877D03*
%TO.P,U7,48,nSHDN*%
%TO.N,unconnected-(U7-nSHDN-Pad48)*%
X128361344Y-85895431D03*
D45*
%TO.P,U7,49,EP*%
%TO.N,GND*%
X132715000Y-86360000D03*
%TD*%
D33*
%TO.P,H1,1,1*%
%TO.N,unconnected-(H1-Pad1)_5*%
X121125000Y-71000000D03*
%TO.N,unconnected-(H1-Pad1)_4*%
X121674175Y-69674175D03*
%TO.N,unconnected-(H1-Pad1)_8*%
X121674175Y-72325825D03*
%TO.N,unconnected-(H1-Pad1)_6*%
X123000000Y-69125000D03*
D34*
%TO.N,unconnected-(H1-Pad1)*%
X123000000Y-71000000D03*
D33*
%TO.N,unconnected-(H1-Pad1)_1*%
X123000000Y-72875000D03*
%TO.N,unconnected-(H1-Pad1)_7*%
X124325825Y-69674175D03*
%TO.N,unconnected-(H1-Pad1)_2*%
X124325825Y-72325825D03*
%TO.N,unconnected-(H1-Pad1)_3*%
X124875000Y-71000000D03*
%TD*%
D12*
%TO.P,C1,1*%
%TO.N,GND*%
X148847500Y-73787000D03*
%TO.P,C1,2*%
%TO.N,/ADC2_IN9*%
X147712500Y-73787000D03*
%TD*%
D33*
%TO.P,H3,1,1*%
%TO.N,unconnected-(H3-Pad1)_4*%
X157125000Y-107000000D03*
%TO.N,unconnected-(H3-Pad1)_7*%
X157674175Y-105674175D03*
%TO.N,unconnected-(H3-Pad1)_8*%
X157674175Y-108325825D03*
%TO.N,unconnected-(H3-Pad1)_1*%
X159000000Y-105125000D03*
D34*
%TO.N,unconnected-(H3-Pad1)_2*%
X159000000Y-107000000D03*
D33*
%TO.N,unconnected-(H3-Pad1)_5*%
X159000000Y-108875000D03*
%TO.N,unconnected-(H3-Pad1)_6*%
X160325825Y-105674175D03*
%TO.N,unconnected-(H3-Pad1)*%
X160325825Y-108325825D03*
%TO.N,unconnected-(H3-Pad1)_3*%
X160875000Y-107000000D03*
%TD*%
D22*
%TO.P,R13,1*%
%TO.N,+5V*%
X124370500Y-89662000D03*
%TO.P,R13,2*%
%TO.N,/DRV8323RSRGZR/FB*%
X125565500Y-89662000D03*
%TD*%
D27*
%TO.P,CN2,1,1*%
%TO.N,/SWCLK*%
X164800000Y-82500000D03*
%TO.P,CN2,2,2*%
%TO.N,/SWDIO*%
X164800000Y-81500000D03*
%TO.P,CN2,3,3*%
%TO.N,GND*%
X164800000Y-80500000D03*
%TO.P,CN2,4,4*%
%TO.N,+3.3V*%
X164800000Y-79500000D03*
%TO.P,CN2,5,5*%
%TO.N,/USART3_TX*%
X164800000Y-78500000D03*
%TO.P,CN2,6,6*%
%TO.N,/USART3_RX*%
X164800000Y-77500000D03*
D28*
%TO.P,CN2,7,7*%
%TO.N,unconnected-(CN2-Pad7)*%
X168200000Y-76400000D03*
%TO.P,CN2,8,8*%
%TO.N,unconnected-(CN2-Pad8)*%
X168200000Y-83600000D03*
%TD*%
D32*
%TO.P,C32,1*%
%TO.N,+3.3V*%
X139065000Y-84133500D03*
%TO.P,C32,2*%
%TO.N,GND*%
X139065000Y-82998500D03*
%TD*%
D46*
%TO.P,U1,1,TXD*%
%TO.N,/CAN_TX*%
X154581000Y-87884000D03*
%TO.P,U1,2,GND*%
%TO.N,GND*%
X154581000Y-89154000D03*
%TO.P,U1,3,VCC*%
%TO.N,+5V*%
X154581000Y-90424000D03*
%TO.P,U1,4,RXD*%
%TO.N,/CAN_RX*%
X154581000Y-91694000D03*
%TO.P,U1,5,VIO*%
%TO.N,+3.3V*%
X160125000Y-91694000D03*
%TO.P,U1,6,CANL*%
%TO.N,/CAN_N*%
X160125000Y-90424000D03*
%TO.P,U1,7,CANH*%
%TO.N,/CAN_P*%
X160125000Y-89154000D03*
%TO.P,U1,8,S*%
%TO.N,/CAN_STB*%
X160125000Y-87884000D03*
%TD*%
D12*
%TO.P,C12,1*%
%TO.N,GND*%
X157539500Y-75692000D03*
%TO.P,C12,2*%
%TO.N,/ADC3_IN2*%
X156404500Y-75692000D03*
%TD*%
%TO.P,C3,1*%
%TO.N,+3.3V*%
X154745500Y-75946000D03*
%TO.P,C3,2*%
%TO.N,GND*%
X153610500Y-75946000D03*
%TD*%
D31*
%TO.P,C21,1*%
%TO.N,+36V*%
X123647200Y-95669500D03*
%TO.P,C21,2*%
%TO.N,GND1*%
X123647200Y-92544500D03*
%TD*%
D24*
%TO.P,H5,1,1*%
%TO.N,/DRV8323RSRGZR/PHASA*%
X131000000Y-108000000D03*
%TD*%
D41*
%TO.P,C28,1*%
%TO.N,+36V*%
X128250000Y-91286500D03*
%TO.P,C28,2*%
%TO.N,Net-(U7-VCP)*%
X128250000Y-89561500D03*
%TD*%
D22*
%TO.P,R11,1*%
%TO.N,Net-(D2-K)*%
X159549500Y-82169000D03*
%TO.P,R11,2*%
%TO.N,/DRV_STA*%
X160744500Y-82169000D03*
%TD*%
D47*
%TO.P,L2,1,1*%
%TO.N,/DRV8323RSRGZR/SW*%
X123825000Y-81248000D03*
%TO.P,L2,2,2*%
%TO.N,+5V*%
X123825000Y-77248000D03*
%TD*%
D22*
%TO.P,R25,1*%
%TO.N,Net-(U8-PB2)*%
X159549500Y-74803000D03*
%TO.P,R25,2*%
%TO.N,GND*%
X160744500Y-74803000D03*
%TD*%
%TO.P,R21,1*%
%TO.N,GND*%
X140372500Y-91059000D03*
%TO.P,R21,2*%
%TO.N,/ADC3_IN2*%
X141567500Y-91059000D03*
%TD*%
D12*
%TO.P,C4,1*%
%TO.N,+3.3V*%
X143823500Y-75692000D03*
%TO.P,C4,2*%
%TO.N,GND*%
X142688500Y-75692000D03*
%TD*%
D19*
%TO.P,Q11,1,S*%
%TO.N,/DRV8323RSRGZR/PHASC*%
X145415000Y-105112000D03*
%TO.P,Q11,2,S*%
X146685000Y-105112000D03*
%TO.P,Q11,3,S*%
X147955000Y-105112000D03*
%TO.P,Q11,4,G*%
%TO.N,/DRV8323RSRGZR/GHC*%
X149225000Y-105112000D03*
D20*
%TO.P,Q11,5,D*%
%TO.N,+36V*%
X149225000Y-99412000D03*
%TO.P,Q11,6,D*%
X147955000Y-99412000D03*
%TO.P,Q11,7,D*%
X146685000Y-99412000D03*
%TO.P,Q11,8,D*%
X145415000Y-99412000D03*
D21*
%TO.P,Q11,9,D*%
X147320000Y-101812000D03*
%TD*%
D12*
%TO.P,C5,1*%
%TO.N,+3.3V*%
X142426500Y-86868000D03*
%TO.P,C5,2*%
%TO.N,GND*%
X141291500Y-86868000D03*
%TD*%
D48*
%TO.P,C27,1*%
%TO.N,Net-(U7-CPL)*%
X126750000Y-89729500D03*
%TO.P,C27,2*%
%TO.N,Net-(U7-CPH)*%
X126750000Y-90864500D03*
%TD*%
D49*
%TO.P,U8,1,VBAT*%
%TO.N,+3.3V*%
X154392000Y-85665000D03*
%TO.P,U8,2,PC13*%
%TO.N,Net-(U8-PC13)*%
X154392000Y-85165000D03*
%TO.P,U8,3,PC14*%
%TO.N,unconnected-(U8-PC14-Pad3)*%
X154392000Y-84665000D03*
%TO.P,U8,4,PC15*%
%TO.N,unconnected-(U8-PC15-Pad4)*%
X154392000Y-84165000D03*
%TO.P,U8,5,PH0*%
%TO.N,/HSE_IN*%
X154392000Y-83665000D03*
%TO.P,U8,6,PH1*%
%TO.N,/HSE_OUT*%
X154392000Y-83165000D03*
%TO.P,U8,7,NRST*%
%TO.N,/RESET*%
X154392000Y-82665000D03*
%TO.P,U8,8,PC0*%
%TO.N,/ADC1_IN10*%
X154392000Y-82165000D03*
%TO.P,U8,9,PC1*%
%TO.N,/ENCODER_STA*%
X154392000Y-81665000D03*
%TO.P,U8,10,PC2*%
%TO.N,/DRV_STA*%
X154392000Y-81165000D03*
%TO.P,U8,11,PC3*%
%TO.N,/MCU_STA*%
X154392000Y-80665000D03*
%TO.P,U8,12,VSSA*%
%TO.N,Net-(U8-VSSA)*%
X154392000Y-80165000D03*
%TO.P,U8,13,VDDA*%
%TO.N,+3.3VA*%
X154392000Y-79665000D03*
%TO.P,U8,14,PA0*%
%TO.N,/ADC1_IN0*%
X154392000Y-79165000D03*
%TO.P,U8,15,PA1*%
%TO.N,/ADC2_IN1*%
X154392000Y-78665000D03*
%TO.P,U8,16,PA2*%
%TO.N,/ADC3_IN2*%
X154392000Y-78165000D03*
D50*
%TO.P,U8,17,PA3*%
%TO.N,unconnected-(U8-PA3-Pad17)*%
X152467000Y-76240000D03*
%TO.P,U8,18,VSS*%
%TO.N,GND*%
X151967000Y-76240000D03*
%TO.P,U8,19,VDD*%
%TO.N,+3.3V*%
X151467000Y-76240000D03*
%TO.P,U8,20,PA4*%
%TO.N,unconnected-(U8-PA4-Pad20)*%
X150967000Y-76240000D03*
%TO.P,U8,21,PA5*%
%TO.N,/SPI1_SCK*%
X150467000Y-76240000D03*
%TO.P,U8,22,PA6*%
%TO.N,/SPI1_MISO*%
X149967000Y-76240000D03*
%TO.P,U8,23,PA7*%
%TO.N,/SPI1_MOSI*%
X149467000Y-76240000D03*
%TO.P,U8,24,PC4*%
%TO.N,unconnected-(U8-PC4-Pad24)*%
X148967000Y-76240000D03*
%TO.P,U8,25,PC5*%
%TO.N,/USART3_RX*%
X148467000Y-76240000D03*
%TO.P,U8,26,PB0*%
%TO.N,/SPI1_NSS*%
X147967000Y-76240000D03*
%TO.P,U8,27,PB1*%
%TO.N,/ADC2_IN9*%
X147467000Y-76240000D03*
%TO.P,U8,28,PB2*%
%TO.N,Net-(U8-PB2)*%
X146967000Y-76240000D03*
%TO.P,U8,29,PB10*%
%TO.N,/USART3_TX*%
X146467000Y-76240000D03*
%TO.P,U8,30,VCAP_1*%
%TO.N,Net-(U8-VCAP_1)*%
X145967000Y-76240000D03*
%TO.P,U8,31,VSS*%
%TO.N,GND*%
X145467000Y-76240000D03*
%TO.P,U8,32,VDD*%
%TO.N,+3.3V*%
X144967000Y-76240000D03*
D49*
%TO.P,U8,33,PB12*%
%TO.N,/TIM1_BKIN*%
X143042000Y-78165000D03*
%TO.P,U8,34,PB13*%
%TO.N,/TIM1_CH1N*%
X143042000Y-78665000D03*
%TO.P,U8,35,PB14*%
%TO.N,/TIM1_CH2N*%
X143042000Y-79165000D03*
%TO.P,U8,36,PB15*%
%TO.N,/TIM1_CH3N*%
X143042000Y-79665000D03*
%TO.P,U8,37,PC6*%
%TO.N,/TIM1_BKIN*%
X143042000Y-80165000D03*
%TO.P,U8,38,PC7*%
%TO.N,/DRV_CAL*%
X143042000Y-80665000D03*
%TO.P,U8,39,PC8*%
%TO.N,/DRV_ENABLE*%
X143042000Y-81165000D03*
%TO.P,U8,40,PC9*%
%TO.N,/DRV_FAULT*%
X143042000Y-81665000D03*
%TO.P,U8,41,PA8*%
%TO.N,/TIM1_CH1*%
X143042000Y-82165000D03*
%TO.P,U8,42,PA9*%
%TO.N,/TIM1_CH2*%
X143042000Y-82665000D03*
%TO.P,U8,43,PA10*%
%TO.N,/TIM1_CH3*%
X143042000Y-83165000D03*
%TO.P,U8,44,PA11*%
%TO.N,unconnected-(U8-PA11-Pad44)*%
X143042000Y-83665000D03*
%TO.P,U8,45,PA12*%
%TO.N,unconnected-(U8-PA12-Pad45)*%
X143042000Y-84165000D03*
%TO.P,U8,46,PA13*%
%TO.N,/SWDIO*%
X143042000Y-84665000D03*
%TO.P,U8,47,VSS*%
%TO.N,GND*%
X143042000Y-85165000D03*
%TO.P,U8,48,VDD*%
%TO.N,+3.3V*%
X143042000Y-85665000D03*
D50*
%TO.P,U8,49,PA14*%
%TO.N,/SWCLK*%
X144967000Y-87590000D03*
%TO.P,U8,50,PA15*%
%TO.N,/ENCODER_CAL_EN*%
X145467000Y-87590000D03*
%TO.P,U8,51,PC10*%
%TO.N,/SPI3_SCK*%
X145967000Y-87590000D03*
%TO.P,U8,52,PC11*%
%TO.N,/SPI3_MISO*%
X146467000Y-87590000D03*
%TO.P,U8,53,PC12*%
%TO.N,/SPI3_MOSI*%
X146967000Y-87590000D03*
%TO.P,U8,54,PD2*%
%TO.N,/DRV_SPI_NSS*%
X147467000Y-87590000D03*
%TO.P,U8,55,PB3*%
%TO.N,/ENCODER_SPI_NSS*%
X147967000Y-87590000D03*
%TO.P,U8,56,PB4*%
%TO.N,unconnected-(U8-PB4-Pad56)*%
X148467000Y-87590000D03*
%TO.P,U8,57,PB5*%
%TO.N,/CAN_STB*%
X148967000Y-87590000D03*
%TO.P,U8,58,PB6*%
%TO.N,/I2C1_SCL*%
X149467000Y-87590000D03*
%TO.P,U8,59,PB7*%
%TO.N,/I2C1_SDA*%
X149967000Y-87590000D03*
%TO.P,U8,60,BOOT0*%
%TO.N,Net-(U8-BOOT0)*%
X150467000Y-87590000D03*
%TO.P,U8,61,PB8*%
%TO.N,/CAN_RX*%
X150967000Y-87590000D03*
%TO.P,U8,62,PB9*%
%TO.N,/CAN_TX*%
X151467000Y-87590000D03*
%TO.P,U8,63,VSS*%
%TO.N,GND*%
X151967000Y-87590000D03*
%TO.P,U8,64,VDD*%
%TO.N,+3.3V*%
X152467000Y-87590000D03*
%TD*%
D51*
%TO.N,GND*%
X158240000Y-78000000D03*
X139446000Y-89408000D03*
D52*
%TO.N,GND1*%
X160909000Y-98044000D03*
X160909000Y-96774000D03*
X160147000Y-98044000D03*
X160147000Y-96774000D03*
X160909000Y-95377000D03*
X160909000Y-94107000D03*
X160147000Y-95377000D03*
X160147000Y-94107000D03*
%TO.N,+36V*%
X157861000Y-103505000D03*
X157861000Y-102235000D03*
X157099000Y-103505000D03*
X157099000Y-102235000D03*
X157861000Y-100711000D03*
X157861000Y-99949000D03*
X157099000Y-100711000D03*
X157099000Y-99949000D03*
%TO.N,/DRV8323RSRGZR/PHASC*%
X155067000Y-104267000D03*
X153797000Y-104267000D03*
X152527000Y-104267000D03*
X151257000Y-104267000D03*
%TO.N,GND1*%
X155194000Y-98044000D03*
X153797000Y-98044000D03*
X152527000Y-98044000D03*
X155194000Y-97155000D03*
X153797000Y-97155000D03*
X152527000Y-97155000D03*
%TO.N,/DRV8323RSRGZR/PHASC*%
X147955000Y-105537000D03*
X147955000Y-104648000D03*
X146685000Y-105537000D03*
X146685000Y-104648000D03*
X145415000Y-105537000D03*
X145415000Y-104648000D03*
%TO.N,+36V*%
X149225000Y-103124000D03*
X149225000Y-102235000D03*
X149225000Y-101219000D03*
X147955000Y-103124000D03*
X147955000Y-102235000D03*
X147955000Y-101219000D03*
X146685000Y-103124000D03*
X146685000Y-102235000D03*
X146685000Y-101219000D03*
X145415000Y-103124000D03*
X145415000Y-102235000D03*
X145415000Y-101219000D03*
X149225000Y-100330000D03*
X147955000Y-100330000D03*
X146685000Y-100330000D03*
X145415000Y-100330000D03*
%TO.N,GND1*%
X149098000Y-94869000D03*
X147701000Y-94869000D03*
X149098000Y-93980000D03*
X147701000Y-93980000D03*
X146431000Y-94869000D03*
X145161000Y-94869000D03*
X146431000Y-93980000D03*
X145161000Y-93980000D03*
%TO.N,/DRV8323RSRGZR/PHASB*%
X142367000Y-105537000D03*
X142367000Y-104648000D03*
X141097000Y-105537000D03*
X141097000Y-104648000D03*
X139827000Y-105537000D03*
X139845000Y-104648000D03*
%TO.N,+36V*%
X143637000Y-103124000D03*
X143637000Y-102235000D03*
X143637000Y-101219000D03*
X142367000Y-103124000D03*
X142367000Y-102235000D03*
X142367000Y-101219000D03*
X141097000Y-103124000D03*
X141097000Y-102235000D03*
X141097000Y-101219000D03*
X139827000Y-103124000D03*
X139827000Y-102235000D03*
X139827000Y-101219000D03*
X143637000Y-100330000D03*
X142367000Y-100330000D03*
X141097000Y-100330000D03*
X139827000Y-100330000D03*
%TO.N,GND1*%
X143637000Y-94869000D03*
X142240000Y-94869000D03*
X143637000Y-93980000D03*
X142240000Y-93980000D03*
X141097000Y-94869000D03*
X139700000Y-94869000D03*
X141224000Y-93980000D03*
X139700000Y-93980000D03*
%TO.N,/DRV8323RSRGZR/PHASB*%
X138049000Y-103632000D03*
X136779000Y-103632000D03*
X135509000Y-103632000D03*
X134239000Y-103632000D03*
X138049000Y-104267000D03*
X136779000Y-104267000D03*
X135509000Y-104267000D03*
X134239000Y-104267000D03*
%TO.N,/DRV8323RSRGZR/SPB*%
X138303000Y-98044000D03*
X137414000Y-98044000D03*
X136271000Y-98044000D03*
X135382000Y-98044000D03*
%TO.N,GND1*%
X137922000Y-94742000D03*
X135890000Y-94742000D03*
X137922000Y-94107000D03*
X135890000Y-94107000D03*
%TO.N,/DRV8323RSRGZR/PHASA*%
X132334000Y-103632000D03*
X131064000Y-103632000D03*
X129794000Y-103632000D03*
X128524000Y-103632000D03*
X132334000Y-104267000D03*
X131064000Y-104267000D03*
X129794000Y-104267000D03*
X128524000Y-104267000D03*
%TO.N,/DRV8323RSRGZR/SPA*%
X132588000Y-97917000D03*
X131699000Y-97917000D03*
X130429000Y-97917000D03*
X129540000Y-97917000D03*
%TO.N,GND1*%
X132080000Y-94742000D03*
X130048000Y-94742000D03*
X132080000Y-94107000D03*
X130048000Y-94107000D03*
%TO.N,/DRV8323RSRGZR/PHASA*%
X125095000Y-103505000D03*
X125095000Y-102743000D03*
X123825000Y-103505000D03*
X123825000Y-102743000D03*
X122555000Y-103505000D03*
X122555000Y-102743000D03*
%TO.N,+36V*%
X126365000Y-101346000D03*
X126365000Y-100457000D03*
X126365000Y-99441000D03*
X126365000Y-98425000D03*
X125095000Y-101346000D03*
X125095000Y-100457000D03*
X125095000Y-98425000D03*
X125095000Y-99441000D03*
X123825000Y-101346000D03*
X123825000Y-100457000D03*
X123825000Y-98425000D03*
X123825000Y-99441000D03*
X122555000Y-101346000D03*
X122555000Y-100457000D03*
X122555000Y-99441000D03*
X122555000Y-98425000D03*
%TO.N,GND1*%
X126365000Y-93853000D03*
X125603000Y-93853000D03*
X124079000Y-93853000D03*
X123317000Y-93853000D03*
X121666000Y-93853000D03*
X120777000Y-93853000D03*
%TO.N,GND*%
X134620000Y-87376000D03*
D51*
X133595000Y-76327000D03*
X157670000Y-86910000D03*
X130305000Y-75637000D03*
D52*
X133604000Y-86233000D03*
D51*
X141270000Y-87570000D03*
X161544000Y-74803000D03*
X123300000Y-90020000D03*
X166130000Y-80480000D03*
X158369000Y-74168000D03*
X128100000Y-79700000D03*
X165670000Y-91810000D03*
X148840000Y-73200000D03*
X162940000Y-84580000D03*
D52*
X134620000Y-85344000D03*
D51*
X133604000Y-76835000D03*
D52*
X133604000Y-88392000D03*
D51*
X139540000Y-71570000D03*
X158210000Y-80390000D03*
X122310000Y-86480000D03*
D52*
X130810000Y-87376000D03*
D51*
X158140000Y-79670000D03*
X142690000Y-76380000D03*
X156060000Y-89170000D03*
X121793000Y-90207000D03*
X139446000Y-88773000D03*
X164000000Y-91690000D03*
X148630000Y-90519200D03*
X150623050Y-90813950D03*
D52*
X131699000Y-86360000D03*
D51*
X158380000Y-75710000D03*
X134010000Y-71620000D03*
X139629209Y-82567401D03*
D52*
X131826000Y-88392000D03*
D51*
X153610000Y-75134200D03*
D52*
X131953000Y-84328000D03*
X132842000Y-85344000D03*
D51*
X128500000Y-71628000D03*
D52*
X132715000Y-87376000D03*
D51*
X122650000Y-85880000D03*
X134985000Y-74797000D03*
D52*
X130810000Y-85344000D03*
D51*
X155923750Y-83383750D03*
X161465099Y-77352599D03*
X123070000Y-83810000D03*
D52*
X133731000Y-84455000D03*
D51*
%TO.N,+3.3V*%
X161550000Y-80837400D03*
X137250000Y-84732600D03*
X156556250Y-86893750D03*
X158421234Y-76318206D03*
X140440000Y-88710000D03*
X143830000Y-76350000D03*
X162940000Y-79380000D03*
X125984000Y-73025000D03*
X140020000Y-88000000D03*
X139065000Y-75819000D03*
X161353750Y-78606250D03*
X139065000Y-76454000D03*
X161485711Y-75961025D03*
X153180000Y-89910000D03*
X139065000Y-77089000D03*
X139900000Y-85145200D03*
X161510000Y-83570000D03*
X147081250Y-90371250D03*
X162020000Y-90950000D03*
X154750000Y-75134200D03*
X141700000Y-88620000D03*
X142420000Y-87580000D03*
X166180000Y-79510000D03*
X140580000Y-71670000D03*
%TO.N,+5V*%
X123373043Y-89414789D03*
X127380000Y-76450000D03*
X152450000Y-91660000D03*
X130302000Y-76708000D03*
X135080000Y-71680000D03*
%TO.N,/RESET*%
X152260000Y-82700000D03*
X158356151Y-79100006D03*
D53*
%TO.N,+36V*%
X129282341Y-89497659D03*
X125576500Y-85852000D03*
D51*
%TO.N,/SWDIO*%
X162179000Y-81380000D03*
X153001013Y-82228963D03*
%TO.N,/SWCLK*%
X162179000Y-82540000D03*
X152565903Y-83274534D03*
%TO.N,/DRV8323RSRGZR/SPB*%
X133867400Y-91120000D03*
X135015928Y-91008874D03*
%TO.N,/MCU_STA*%
X161480000Y-79690000D03*
X152114825Y-80677215D03*
%TO.N,/DRV_STA*%
X161350000Y-82770000D03*
X151730000Y-81150000D03*
%TO.N,/SPI3_MISO*%
X136380132Y-83780135D03*
X146430000Y-84602600D03*
X146440000Y-88910000D03*
%TO.N,/SPI3_SCK*%
X142660810Y-89048508D03*
X136078094Y-82599057D03*
X145970000Y-83550000D03*
%TO.N,/SPI3_MOSI*%
X147049164Y-88886882D03*
X146450562Y-83993344D03*
X136237349Y-83187490D03*
%TO.N,GND1*%
X135498527Y-91491473D03*
X133867400Y-91729603D03*
%TO.N,/TIM1_CH1N*%
X144231442Y-78617034D03*
X131190000Y-79580000D03*
%TO.N,/DRV_SPI_NSS*%
X147529169Y-84047012D03*
X135134867Y-82854867D03*
%TO.N,/TIM1_CH3N*%
X144214885Y-79806674D03*
X129836851Y-83167754D03*
%TO.N,/TIM1_CH3*%
X145353994Y-82094168D03*
X130414132Y-82956632D03*
%TO.N,/TIM1_CH2*%
X131112599Y-82258119D03*
X145100000Y-81540000D03*
%TO.N,/TIM1_CH2N*%
X130265493Y-80481907D03*
X144090000Y-79210000D03*
%TO.N,/TIM1_CH1*%
X131700000Y-81370000D03*
X144650000Y-80890000D03*
%TO.N,/ADC2_IN9*%
X147701000Y-72771000D03*
X129540000Y-71501000D03*
%TO.N,Net-(U8-VCAP_1)*%
X155448000Y-74168000D03*
X146840000Y-74350000D03*
%TO.N,/ADC3_IN2*%
X155575000Y-75692000D03*
X140850000Y-85145200D03*
%TO.N,/USART3_TX*%
X152711700Y-80154032D03*
X163520000Y-78480000D03*
%TO.N,/USART3_RX*%
X152662341Y-79546431D03*
X163490000Y-77540000D03*
%TO.N,/I2C1_SCL*%
X145080000Y-71860000D03*
X147936652Y-83370594D03*
%TO.N,/I2C1_SDA*%
X148546114Y-83357506D03*
X146090000Y-71860000D03*
%TO.N,/ENCODER_STA*%
X151130000Y-81650000D03*
X161428700Y-84678700D03*
%TO.N,Net-(U8-PB2)*%
X146900000Y-74970000D03*
X158496000Y-74803000D03*
%TO.N,/CAN_TX*%
X151504445Y-86405555D03*
X156050000Y-87890000D03*
%TO.N,/CAN_RX*%
X155886000Y-91694000D03*
X150858990Y-86442600D03*
%TO.N,/CAN_STB*%
X158680000Y-87910000D03*
X148970000Y-88910000D03*
%TO.N,/ADC1_IN0*%
X152509605Y-78940395D03*
X139419189Y-86302670D03*
%TO.N,/ADC2_IN1*%
X152880000Y-78350000D03*
X138090000Y-86110000D03*
%TO.N,Net-(U8-PC13)*%
X155990000Y-84920000D03*
X164810000Y-76103800D03*
%TO.N,/ENCODER_CAL_EN*%
X142580000Y-88265000D03*
%TO.N,/ENCODER_SPI_NSS*%
X147967000Y-88748000D03*
%TD*%
D54*
%TO.N,/RESET*%
X152295000Y-82665000D02*
X154392000Y-82665000D01*
X152260000Y-82700000D02*
X152295000Y-82665000D01*
%TO.N,/SWDIO*%
X143731888Y-84665000D02*
X143042000Y-84665000D01*
X144510000Y-83886888D02*
X143731888Y-84665000D01*
X145891037Y-82228963D02*
X144510000Y-83610000D01*
X153001013Y-82228963D02*
X145891037Y-82228963D01*
X144510000Y-83610000D02*
X144510000Y-83886888D01*
D55*
%TO.N,+3.3V*%
X161228750Y-78506250D02*
X161208500Y-78486000D01*
X161208500Y-78486000D02*
X160719500Y-78486000D01*
X161353750Y-78606250D02*
X161253750Y-78506250D01*
X161253750Y-78506250D02*
X161228750Y-78506250D01*
%TO.N,GND*%
X161201500Y-77089000D02*
X161465099Y-77352599D01*
X160714500Y-77089000D02*
X161201500Y-77089000D01*
D54*
%TO.N,/MCU_STA*%
X152127040Y-80665000D02*
X154392000Y-80665000D01*
X152114825Y-80677215D02*
X152127040Y-80665000D01*
%TO.N,/ADC2_IN1*%
X153160000Y-78350000D02*
X153480000Y-78670000D01*
X152880000Y-78350000D02*
X153160000Y-78350000D01*
X153480000Y-78670000D02*
X154387000Y-78670000D01*
X154387000Y-78670000D02*
X154392000Y-78665000D01*
%TO.N,/ADC1_IN0*%
X153287501Y-79165000D02*
X154392000Y-79165000D01*
X153062896Y-78940395D02*
X153287501Y-79165000D01*
X152509605Y-78940395D02*
X153062896Y-78940395D01*
%TO.N,/TIM1_CH3N*%
X144072838Y-79690000D02*
X143067000Y-79690000D01*
X144189512Y-79806674D02*
X144072838Y-79690000D01*
X143067000Y-79690000D02*
X143042000Y-79665000D01*
X144214885Y-79806674D02*
X144189512Y-79806674D01*
%TO.N,/ENCODER_CAL_EN*%
X145467000Y-88364999D02*
X145467000Y-87590000D01*
X145241999Y-88590000D02*
X145467000Y-88364999D01*
X142905000Y-88590000D02*
X145241999Y-88590000D01*
X142580000Y-88265000D02*
X142905000Y-88590000D01*
%TO.N,/SPI3_SCK*%
X145410000Y-89040000D02*
X145967000Y-88483000D01*
X145967000Y-88483000D02*
X145967000Y-87590000D01*
X142671622Y-89040000D02*
X145410000Y-89040000D01*
X142660811Y-89050811D02*
X142671622Y-89040000D01*
X142660811Y-89048509D02*
X142660811Y-89050811D01*
X142660810Y-89048508D02*
X142660811Y-89048509D01*
D56*
%TO.N,GND*%
X128100000Y-79700000D02*
X127621500Y-79221500D01*
X127621500Y-79221500D02*
X127381000Y-79221500D01*
D55*
%TO.N,+3.3V*%
X161485711Y-75961025D02*
X160979025Y-75961025D01*
X160964000Y-75946000D02*
X160744500Y-75946000D01*
X160979025Y-75961025D02*
X160964000Y-75946000D01*
D54*
%TO.N,/RESET*%
X158723600Y-77944900D02*
X159579500Y-77089000D01*
X158723600Y-78732557D02*
X158723600Y-77944900D01*
X158356151Y-79100006D02*
X158723600Y-78732557D01*
D55*
%TO.N,GND*%
X158218000Y-77978000D02*
X158240000Y-78000000D01*
X157539500Y-77978000D02*
X158218000Y-77978000D01*
X158140000Y-79670000D02*
X157591000Y-79121000D01*
X157591000Y-79121000D02*
X157569500Y-79121000D01*
X157980000Y-80390000D02*
X157979000Y-80391000D01*
X157979000Y-80391000D02*
X157539500Y-80391000D01*
X158210000Y-80390000D02*
X157980000Y-80390000D01*
X139446000Y-88773000D02*
X139446000Y-89408000D01*
X139954000Y-91059000D02*
X140372500Y-91059000D01*
X139446000Y-90551000D02*
X139954000Y-91059000D01*
X139446000Y-89408000D02*
X139446000Y-90551000D01*
D54*
%TO.N,+36V*%
X162569500Y-93190000D02*
X163359500Y-93980000D01*
X158947500Y-93190000D02*
X162569500Y-93190000D01*
X157437500Y-94700000D02*
X158947500Y-93190000D01*
%TO.N,/ADC1_IN10*%
X164355500Y-92690000D02*
X164502500Y-92837000D01*
X158830000Y-92690000D02*
X164355500Y-92690000D01*
X157760000Y-87700000D02*
X157760000Y-91620000D01*
X158740000Y-86720000D02*
X157760000Y-87700000D01*
X158740000Y-81560000D02*
X158740000Y-86720000D01*
X158210000Y-81030000D02*
X158740000Y-81560000D01*
X157760000Y-91620000D02*
X158830000Y-92690000D01*
X157043500Y-81030000D02*
X158210000Y-81030000D01*
X156404500Y-80391000D02*
X157043500Y-81030000D01*
%TO.N,/SWCLK*%
X144967000Y-83903000D02*
X144967000Y-87590000D01*
X145950000Y-82920000D02*
X144967000Y-83903000D01*
X152565903Y-83274534D02*
X149704534Y-83274534D01*
X149704534Y-83274534D02*
X149350000Y-82920000D01*
X149350000Y-82920000D02*
X145950000Y-82920000D01*
%TO.N,/I2C1_SDA*%
X149020000Y-85030000D02*
X149967000Y-85977000D01*
X149967000Y-85977000D02*
X149967000Y-87590000D01*
X149020000Y-83831392D02*
X149020000Y-85030000D01*
X148546114Y-83357506D02*
X149020000Y-83831392D01*
%TO.N,/ADC3_IN2*%
X140350000Y-85645200D02*
X140850000Y-85145200D01*
X140350000Y-87530000D02*
X140350000Y-85645200D01*
X140990000Y-89338500D02*
X140990000Y-88170000D01*
X141567500Y-89916000D02*
X140990000Y-89338500D01*
X140990000Y-88170000D02*
X140350000Y-87530000D01*
D55*
%TO.N,+3.3V*%
X137795000Y-84187600D02*
X137795000Y-84163500D01*
X137250000Y-84732600D02*
X137795000Y-84187600D01*
D54*
%TO.N,/DRV_SPI_NSS*%
X134593783Y-83400867D02*
X134593783Y-83420557D01*
X135134867Y-82859783D02*
X134593783Y-83400867D01*
X135134867Y-82854867D02*
X135134867Y-82859783D01*
D55*
%TO.N,GND*%
X139071700Y-82991800D02*
X139065000Y-82998500D01*
X139629209Y-82567401D02*
X139204810Y-82991800D01*
X139204810Y-82991800D02*
X139071700Y-82991800D01*
D54*
%TO.N,/MCU_STA*%
X161419000Y-79629000D02*
X160744500Y-79629000D01*
X161480000Y-79690000D02*
X161419000Y-79629000D01*
%TO.N,/DRV_STA*%
X160749000Y-82169000D02*
X160744500Y-82169000D01*
X161350000Y-82770000D02*
X160749000Y-82169000D01*
%TO.N,/SPI3_MISO*%
X145254000Y-89916000D02*
X144615500Y-89916000D01*
X146260000Y-88910000D02*
X145254000Y-89916000D01*
X146440000Y-88910000D02*
X146260000Y-88910000D01*
%TO.N,/SPI1_NSS*%
X148630000Y-74710000D02*
X147967000Y-75373000D01*
X149470000Y-74710000D02*
X148630000Y-74710000D01*
X150590000Y-73590000D02*
X149470000Y-74710000D01*
X147967000Y-75373000D02*
X147967000Y-76240000D01*
X150590000Y-73074000D02*
X150590000Y-73590000D01*
%TO.N,/SPI1_MOSI*%
X151590000Y-74060000D02*
X151590000Y-73074000D01*
X151420000Y-74230000D02*
X151590000Y-74060000D01*
X149467000Y-75223000D02*
X150460000Y-74230000D01*
X150460000Y-74230000D02*
X151420000Y-74230000D01*
X149467000Y-76240000D02*
X149467000Y-75223000D01*
%TO.N,/SPI1_MISO*%
X152590000Y-73674000D02*
X152590000Y-73074000D01*
X150550000Y-74710000D02*
X151554000Y-74710000D01*
X149967000Y-75293000D02*
X150550000Y-74710000D01*
X149967000Y-76240000D02*
X149967000Y-75293000D01*
X151554000Y-74710000D02*
X152590000Y-73674000D01*
%TO.N,/SPI1_SCK*%
X152560000Y-75160000D02*
X153590000Y-74130000D01*
X150660000Y-75160000D02*
X152560000Y-75160000D01*
X153590000Y-74130000D02*
X153590000Y-73074000D01*
X150467000Y-75353000D02*
X150660000Y-75160000D01*
X150467000Y-76240000D02*
X150467000Y-75353000D01*
%TO.N,/TIM1_CH2*%
X130780000Y-80313914D02*
X130565150Y-80099064D01*
X130565150Y-80099064D02*
X130565150Y-79492850D01*
X130565150Y-79492850D02*
X131445000Y-78613000D01*
X130780000Y-81925520D02*
X130780000Y-80313914D01*
X131112599Y-82258119D02*
X130780000Y-81925520D01*
%TO.N,/TIM1_CH2N*%
X131189771Y-83049771D02*
X131189771Y-83067004D01*
X130390000Y-82250000D02*
X131189771Y-83049771D01*
X130390000Y-80606414D02*
X130390000Y-82250000D01*
X130265493Y-80481907D02*
X130390000Y-80606414D01*
%TO.N,/TIM1_CH1N*%
X131190000Y-81653020D02*
X131896877Y-82359897D01*
X131190000Y-79580000D02*
X131190000Y-81653020D01*
%TO.N,/SPI3_MOSI*%
X146967000Y-84509782D02*
X146967000Y-87590000D01*
X146450562Y-83993344D02*
X146967000Y-84509782D01*
%TO.N,/DRV_FAULT*%
X137795000Y-82655000D02*
X137795000Y-82968500D01*
X143042000Y-81665000D02*
X138785000Y-81665000D01*
X138785000Y-81665000D02*
X137795000Y-82655000D01*
%TO.N,/TIM1_CH3N*%
X141400000Y-80210000D02*
X137487000Y-80210000D01*
X137487000Y-80210000D02*
X135890000Y-78613000D01*
X143042000Y-79665000D02*
X141945000Y-79665000D01*
X141945000Y-79665000D02*
X141400000Y-80210000D01*
%TO.N,/DRV_CAL*%
X135935126Y-80665000D02*
X143042000Y-80665000D01*
X133886676Y-82713450D02*
X135935126Y-80665000D01*
%TO.N,/DRV_STA*%
X154377000Y-81150000D02*
X154392000Y-81165000D01*
X151730000Y-81150000D02*
X154377000Y-81150000D01*
%TO.N,/USART3_RX*%
X148467000Y-77577000D02*
X148467000Y-76240000D01*
X150390000Y-79500000D02*
X148467000Y-77577000D01*
X152615910Y-79500000D02*
X150390000Y-79500000D01*
X152662341Y-79546431D02*
X152615910Y-79500000D01*
D55*
%TO.N,+3.3V*%
X158322400Y-76835000D02*
X157544500Y-76835000D01*
X158421234Y-76736166D02*
X158322400Y-76835000D01*
X158421234Y-76318206D02*
X158421234Y-76736166D01*
D54*
%TO.N,/DRV8323RSRGZR/PHASC*%
X150551600Y-93501600D02*
X150551600Y-100776600D01*
X150551600Y-100776600D02*
X152687000Y-102912000D01*
X149550000Y-92500000D02*
X150551600Y-93501600D01*
X152687000Y-102912000D02*
X153162000Y-102912000D01*
X139208553Y-92500000D02*
X149550000Y-92500000D01*
X135300889Y-88592336D02*
X139208553Y-92500000D01*
%TO.N,/DRV8323RSRGZR/GHC*%
X149950400Y-104386600D02*
X149225000Y-105112000D01*
X149950400Y-93720400D02*
X149950400Y-104386600D01*
X138941447Y-92940000D02*
X149170000Y-92940000D01*
X149170000Y-92940000D02*
X149950400Y-93720400D01*
X134947336Y-88945889D02*
X138941447Y-92940000D01*
%TO.N,/DRV8323RSRGZR/GHB*%
X144380400Y-104386600D02*
X143655000Y-105112000D01*
X144070000Y-93340000D02*
X144380400Y-93650400D01*
X138634340Y-93340000D02*
X144070000Y-93340000D01*
X144380400Y-93650400D02*
X144380400Y-104386600D01*
X134593783Y-89299443D02*
X138634340Y-93340000D01*
%TO.N,/DRV8323RSRGZR/GLC*%
X139515660Y-92100000D02*
X135654443Y-88238783D01*
X149960000Y-92100000D02*
X139515660Y-92100000D01*
X151257000Y-99612000D02*
X151257000Y-93397000D01*
X151257000Y-93397000D02*
X149960000Y-92100000D01*
%TO.N,GND1*%
X152527000Y-93867000D02*
X152527000Y-97155000D01*
X150370000Y-91710000D02*
X152527000Y-93867000D01*
X139832767Y-91710000D02*
X150370000Y-91710000D01*
X136007996Y-87885229D02*
X139832767Y-91710000D01*
%TO.N,/DRV8323RSRGZR/PHASB*%
X136459800Y-102868000D02*
X136144000Y-102868000D01*
X138888200Y-100439600D02*
X136459800Y-102868000D01*
X134240229Y-89652996D02*
X134343964Y-89652996D01*
X134343964Y-89652996D02*
X138888200Y-94197232D01*
X138888200Y-94197232D02*
X138888200Y-100439600D01*
D55*
%TO.N,GND*%
X150869100Y-91060000D02*
X151323500Y-91060000D01*
X129533020Y-86360000D02*
X132715000Y-86360000D01*
X133533123Y-82359897D02*
X134386283Y-81506737D01*
X138075500Y-74803000D02*
X137795000Y-75083500D01*
X137795000Y-75083500D02*
X136144000Y-75083500D01*
X153610500Y-76465994D02*
X152717594Y-77358900D01*
X141291500Y-87548500D02*
X141270000Y-87570000D01*
X157539500Y-74168000D02*
X158369000Y-74168000D01*
X134620000Y-75677000D02*
X133746000Y-75677000D01*
X156157500Y-83150000D02*
X155923750Y-83383750D01*
X135189874Y-86360000D02*
X132715000Y-86360000D01*
X133746000Y-75677000D02*
X133604000Y-75819000D01*
X156044000Y-89154000D02*
X156060000Y-89170000D01*
X123480000Y-90020000D02*
X123300000Y-90020000D01*
X153610000Y-75300000D02*
X153610500Y-75300500D01*
X135877500Y-74817000D02*
X136144000Y-75083500D01*
X124207000Y-83820000D02*
X123080000Y-83820000D01*
X134985000Y-74797000D02*
X135005000Y-74817000D01*
X130309500Y-75632500D02*
X131064000Y-75632500D01*
X139229500Y-74676000D02*
X139102500Y-74676000D01*
X153610500Y-75946000D02*
X153610500Y-76465994D01*
X152216406Y-77358900D02*
X151967000Y-77109494D01*
X141291500Y-86094389D02*
X142220889Y-85165000D01*
X157539500Y-79091000D02*
X157569500Y-79121000D01*
X153610000Y-75134200D02*
X153610000Y-75300000D01*
X124370500Y-90805000D02*
X124265000Y-90805000D01*
X143231600Y-74446400D02*
X142688500Y-74989500D01*
X162941000Y-84579000D02*
X162940000Y-84580000D01*
X148630000Y-91056500D02*
X148627500Y-91059000D01*
X157200000Y-83150000D02*
X156157500Y-83150000D01*
X151967000Y-77109494D02*
X151967000Y-76240000D01*
X139557500Y-72947000D02*
X139557500Y-71587500D01*
X138975500Y-74803000D02*
X138075500Y-74803000D01*
X128714897Y-87178123D02*
X129533020Y-86360000D01*
X139102500Y-74676000D02*
X138975500Y-74803000D01*
X130305000Y-75637000D02*
X130309500Y-75632500D01*
X128500000Y-71628000D02*
X128500000Y-72947000D01*
X157670000Y-86910000D02*
X157670000Y-86236500D01*
X121793000Y-90767500D02*
X121830500Y-90805000D01*
X151323500Y-91060000D02*
X151324500Y-91059000D01*
X135005000Y-74817000D02*
X135877500Y-74817000D01*
X157670000Y-86236500D02*
X157666500Y-86233000D01*
X124265000Y-90805000D02*
X123480000Y-90020000D01*
X134386283Y-81506737D02*
X134386283Y-81173283D01*
X122310000Y-86480000D02*
X122321500Y-86491500D01*
X151324500Y-89408000D02*
X151324500Y-89916000D01*
X154581000Y-89154000D02*
X156044000Y-89154000D01*
X152717594Y-77358900D02*
X152216406Y-77358900D01*
X141291500Y-86868000D02*
X141291500Y-87548500D01*
X121793000Y-90207000D02*
X121793000Y-90767500D01*
X133533123Y-82359897D02*
X131953000Y-83940020D01*
X160744500Y-74803000D02*
X161544000Y-74803000D01*
X122321500Y-86491500D02*
X122321500Y-87884000D01*
X148630000Y-90519200D02*
X148630000Y-91056500D01*
X148847500Y-73787000D02*
X148847500Y-73207500D01*
X165670000Y-91810000D02*
X165670000Y-92809500D01*
X136361550Y-85188324D02*
X135189874Y-86360000D01*
X142688500Y-76378500D02*
X142688500Y-75692000D01*
X151324500Y-89916000D02*
X151324500Y-91059000D01*
X134028750Y-72947000D02*
X134028750Y-71638750D01*
X130129111Y-84127664D02*
X130810000Y-84808553D01*
X131953000Y-83940020D02*
X131953000Y-84328000D01*
X151967000Y-88765500D02*
X151324500Y-89408000D01*
X142688500Y-74989500D02*
X142688500Y-75692000D01*
X141291500Y-86868000D02*
X141291500Y-86094389D01*
X145467000Y-76240000D02*
X145467000Y-75022888D01*
X142220889Y-85165000D02*
X143042000Y-85165000D01*
X142690000Y-76380000D02*
X142688500Y-76378500D01*
X164000000Y-91690000D02*
X163177500Y-91690000D01*
X139557500Y-71587500D02*
X139540000Y-71570000D01*
X123080000Y-83820000D02*
X123070000Y-83810000D01*
X122678000Y-85852000D02*
X122650000Y-85880000D01*
X166110000Y-80500000D02*
X166130000Y-80480000D01*
X157539500Y-75692000D02*
X158362000Y-75692000D01*
X164800000Y-80500000D02*
X166110000Y-80500000D01*
X132570000Y-76327000D02*
X133595000Y-76327000D01*
X153610500Y-75300500D02*
X153610500Y-75946000D01*
X165670000Y-92809500D02*
X165697500Y-92837000D01*
X148847500Y-73207500D02*
X148840000Y-73200000D01*
X144890512Y-74446400D02*
X143231600Y-74446400D01*
X150623050Y-90813950D02*
X150869100Y-91060000D01*
X162941000Y-83782500D02*
X162941000Y-84579000D01*
X134028750Y-71638750D02*
X134010000Y-71620000D01*
X123851500Y-85852000D02*
X122678000Y-85852000D01*
X130810000Y-84808553D02*
X130810000Y-85344000D01*
X158362000Y-75692000D02*
X158380000Y-75710000D01*
X145467000Y-75022888D02*
X144890512Y-74446400D01*
X151967000Y-87590000D02*
X151967000Y-88765500D01*
%TO.N,+3.3V*%
X138663700Y-85206300D02*
X139065000Y-84805000D01*
X143823500Y-75692000D02*
X143823500Y-75124500D01*
X142756000Y-89916000D02*
X143420500Y-89916000D01*
X125984000Y-73025000D02*
X125984000Y-73749500D01*
X156293000Y-86233000D02*
X156531500Y-86233000D01*
X147081250Y-90371250D02*
X147080000Y-90372500D01*
X154750000Y-75134200D02*
X154750000Y-75271000D01*
X151467000Y-77293408D02*
X152016092Y-77842500D01*
X139065000Y-84805000D02*
X139065000Y-84133500D01*
X143823500Y-75692000D02*
X143823500Y-76343500D01*
X136715103Y-85541877D02*
X137046980Y-85210000D01*
X152016092Y-77842500D02*
X152917908Y-77842500D01*
X162941000Y-80174500D02*
X162941000Y-79381000D01*
X160719500Y-83566000D02*
X161506000Y-83566000D01*
X162042500Y-90972500D02*
X162020000Y-90950000D01*
X154745500Y-75275500D02*
X154745500Y-75946000D01*
X147080000Y-91007500D02*
X147028500Y-91059000D01*
X143420500Y-89916000D02*
X143420500Y-91059000D01*
X139065000Y-84133500D02*
X139633500Y-84133500D01*
X143823500Y-76343500D02*
X143830000Y-76350000D01*
X144018000Y-74930000D02*
X144780000Y-74930000D01*
X152917908Y-77842500D02*
X154745500Y-76014908D01*
X142050000Y-86491500D02*
X142050000Y-85930000D01*
X152459500Y-89916000D02*
X153174000Y-89916000D01*
X155720000Y-85660000D02*
X156293000Y-86233000D01*
X154392000Y-85665000D02*
X154397000Y-85660000D01*
X144780000Y-74930000D02*
X144967000Y-75117000D01*
X156531500Y-86869000D02*
X156531500Y-86233000D01*
X141700000Y-88860000D02*
X142756000Y-89916000D01*
X142315000Y-85665000D02*
X143042000Y-85665000D01*
X162038500Y-91694000D02*
X162042500Y-91690000D01*
X139900000Y-84400000D02*
X139900000Y-85145200D01*
X142050000Y-85930000D02*
X142315000Y-85665000D01*
X137046980Y-85210000D02*
X137159975Y-85210000D01*
X164800000Y-79500000D02*
X166170000Y-79500000D01*
X140020000Y-89563500D02*
X140372500Y-89916000D01*
X166170000Y-79500000D02*
X166180000Y-79510000D01*
X140557500Y-72947000D02*
X140557500Y-71692500D01*
X140557500Y-71692500D02*
X140580000Y-71670000D01*
X139633500Y-84133500D02*
X139900000Y-84400000D01*
X152459500Y-87597500D02*
X152467000Y-87590000D01*
X161361400Y-81026000D02*
X161550000Y-80837400D01*
X162042500Y-91690000D02*
X162042500Y-90972500D01*
X154745500Y-76014908D02*
X154745500Y-75946000D01*
X142426500Y-87573500D02*
X142420000Y-87580000D01*
X160719500Y-81026000D02*
X161361400Y-81026000D01*
X140020000Y-88000000D02*
X140020000Y-89563500D01*
X162941000Y-79381000D02*
X162940000Y-79380000D01*
X151467000Y-76240000D02*
X151467000Y-77293408D01*
X139065000Y-77089000D02*
X140399500Y-77089000D01*
X144967000Y-75117000D02*
X144967000Y-76240000D01*
X142426500Y-86868000D02*
X142426500Y-87573500D01*
X142426500Y-86868000D02*
X142050000Y-86491500D01*
X153174000Y-89916000D02*
X153180000Y-89910000D01*
X147080000Y-90372500D02*
X147080000Y-91007500D01*
X140440000Y-89848500D02*
X140372500Y-89916000D01*
X161506000Y-83566000D02*
X161510000Y-83570000D01*
X154750000Y-75271000D02*
X154745500Y-75275500D01*
X152459500Y-89916000D02*
X152459500Y-87597500D01*
X137159975Y-85210000D02*
X137163676Y-85206300D01*
X156556250Y-86893750D02*
X156531500Y-86869000D01*
X137163676Y-85206300D02*
X138663700Y-85206300D01*
X160125000Y-91694000D02*
X162038500Y-91694000D01*
X140399500Y-77089000D02*
X140462000Y-77026500D01*
X141700000Y-88620000D02*
X141700000Y-88860000D01*
X143823500Y-75124500D02*
X144018000Y-74930000D01*
X125984000Y-73749500D02*
X126021500Y-73787000D01*
X154397000Y-85660000D02*
X155720000Y-85660000D01*
%TO.N,+3.3VA*%
X156404500Y-77978000D02*
X155673100Y-78709400D01*
X156399500Y-77973000D02*
X156404500Y-77978000D01*
X155673100Y-79163590D02*
X155171690Y-79665000D01*
X155673100Y-78709400D02*
X155673100Y-79163590D01*
X156399500Y-76835000D02*
X156399500Y-77973000D01*
X155171690Y-79665000D02*
X154392000Y-79665000D01*
%TO.N,+5V*%
X123373043Y-89414789D02*
X124123289Y-89414789D01*
X153001000Y-91059000D02*
X153636000Y-90424000D01*
X131004500Y-76708000D02*
X131064000Y-76767500D01*
X152459500Y-91059000D02*
X153001000Y-91059000D01*
X124123289Y-89414789D02*
X124370500Y-89662000D01*
X153636000Y-90424000D02*
X154581000Y-90424000D01*
X152459500Y-91059000D02*
X152459500Y-91650500D01*
X132570000Y-76977000D02*
X131273500Y-76977000D01*
X127381000Y-76451000D02*
X127380000Y-76450000D01*
X152459500Y-91650500D02*
X152450000Y-91660000D01*
X131273500Y-76977000D02*
X131064000Y-76767500D01*
X132154500Y-75677000D02*
X132570000Y-75677000D01*
X130302000Y-76708000D02*
X131004500Y-76708000D01*
X131064000Y-76767500D02*
X132154500Y-75677000D01*
X135080000Y-71680000D02*
X135080000Y-72895750D01*
X127381000Y-77496500D02*
X127381000Y-76451000D01*
X135080000Y-72895750D02*
X135028750Y-72947000D01*
D54*
%TO.N,/RESET*%
X159549500Y-77059000D02*
X159579500Y-77089000D01*
X159549500Y-75946000D02*
X159549500Y-77059000D01*
D55*
%TO.N,/DRV8323RSRGZR/CB*%
X129775557Y-84481217D02*
X129005500Y-83711160D01*
X129005500Y-83711160D02*
X129005500Y-81534000D01*
%TO.N,/DRV8323RSRGZR/SW*%
X128407233Y-83820000D02*
X127507000Y-83820000D01*
X129422004Y-84834771D02*
X128407233Y-83820000D01*
D56*
%TO.N,+36V*%
X129282341Y-89439106D02*
X130129111Y-88592336D01*
X129380000Y-90584000D02*
X128677500Y-91286500D01*
D55*
X128390443Y-85217423D02*
X126211077Y-85217423D01*
X126034800Y-95669500D02*
X127380000Y-94324300D01*
X129130000Y-89650000D02*
X129130000Y-90453000D01*
D54*
X129820000Y-89560000D02*
X130434111Y-88945889D01*
D56*
X128677500Y-91286500D02*
X128296500Y-91286500D01*
D54*
X129820000Y-90810000D02*
X129820000Y-89560000D01*
D55*
X164067500Y-101854000D02*
X167146000Y-101854000D01*
D54*
X130434111Y-88945889D02*
X130482664Y-88945889D01*
D55*
X129130000Y-90453000D02*
X128296500Y-91286500D01*
X128250000Y-91789356D02*
X128250000Y-91286500D01*
D57*
X168000000Y-101000000D02*
X166990000Y-99990000D01*
D56*
X129282341Y-89497659D02*
X129380000Y-89595318D01*
D55*
X126211077Y-85217423D02*
X125576500Y-85852000D01*
D54*
X127720000Y-92910000D02*
X129820000Y-90810000D01*
D56*
X129380000Y-89595318D02*
X129380000Y-90584000D01*
D54*
X127720000Y-94570000D02*
X127720000Y-92910000D01*
X126034800Y-95669500D02*
X126620500Y-95669500D01*
D55*
X127380000Y-94324300D02*
X127380000Y-92659356D01*
D57*
X166990000Y-99990000D02*
X163510000Y-99990000D01*
D56*
X129282341Y-89497659D02*
X129282341Y-89439106D01*
D54*
X126620500Y-95669500D02*
X127720000Y-94570000D01*
D56*
X125514500Y-85914000D02*
X125514500Y-87884000D01*
D55*
X128714897Y-85541877D02*
X128390443Y-85217423D01*
X127380000Y-92659356D02*
X128250000Y-91789356D01*
X129282341Y-89497659D02*
X129130000Y-89650000D01*
D54*
%TO.N,/DRV8323RSRGZR/PHASA*%
X128433200Y-94865417D02*
X127571800Y-95726816D01*
X130533200Y-91105417D02*
X128433200Y-93205416D01*
X129954000Y-102868000D02*
X130429000Y-102868000D01*
X130533200Y-90309567D02*
X130533200Y-91105417D01*
X131189771Y-89652996D02*
X130533200Y-90309567D01*
X127571800Y-100485800D02*
X129954000Y-102868000D01*
X128433200Y-93205416D02*
X128433200Y-94865417D01*
X127571800Y-95726816D02*
X127571800Y-100485800D01*
%TO.N,Net-(D1-K)*%
X159574500Y-78486000D02*
X159574500Y-79604000D01*
X159574500Y-79604000D02*
X159549500Y-79629000D01*
%TO.N,Net-(D2-K)*%
X159574500Y-81026000D02*
X159574500Y-82144000D01*
X159574500Y-82144000D02*
X159549500Y-82169000D01*
D58*
%TO.N,/CAN_N*%
X163105500Y-88100500D02*
X163536757Y-87669243D01*
X163866243Y-87666243D02*
X164200000Y-88000000D01*
X161673005Y-89955243D02*
X162200880Y-89427368D01*
X162599243Y-87669243D02*
X163030500Y-88100500D01*
X162366155Y-87669243D02*
X162599243Y-87669243D01*
X163734308Y-87666243D02*
X163866243Y-87666243D01*
X163536757Y-87669243D02*
X163731308Y-87669243D01*
X160853500Y-90424000D02*
X161322257Y-89955243D01*
X163731308Y-87669243D02*
X163734308Y-87666243D01*
X162200880Y-87834518D02*
X162366155Y-87669243D01*
X162200880Y-89427368D02*
X162200880Y-87834518D01*
X161322257Y-89955243D02*
X161673005Y-89955243D01*
%TO.N,/CAN_P*%
X163607072Y-87333757D02*
X163866243Y-87333757D01*
X161322257Y-89622757D02*
X161535283Y-89622757D01*
X163105500Y-86905500D02*
X163536757Y-87336757D01*
X161868394Y-89289646D02*
X161868394Y-87696796D01*
X163604072Y-87336757D02*
X163607072Y-87333757D01*
X162228433Y-87336757D02*
X162599243Y-87336757D01*
X163536757Y-87336757D02*
X163604072Y-87336757D01*
X162599243Y-87336757D02*
X163030500Y-86905500D01*
X161868394Y-87696796D02*
X162228433Y-87336757D01*
X161535283Y-89622757D02*
X161868394Y-89289646D01*
X163866243Y-87333757D02*
X164200000Y-87000000D01*
X160853500Y-89154000D02*
X161322257Y-89622757D01*
D54*
%TO.N,/SWDIO*%
X162676500Y-81380000D02*
X162687000Y-81369500D01*
X162687000Y-81369500D02*
X162941000Y-81369500D01*
X162941000Y-81369500D02*
X164669500Y-81369500D01*
X164669500Y-81369500D02*
X164800000Y-81500000D01*
X162179000Y-81380000D02*
X162676500Y-81380000D01*
%TO.N,/SWCLK*%
X162179000Y-82540000D02*
X162639500Y-82540000D01*
X162941000Y-82587500D02*
X163018500Y-82510000D01*
X164790000Y-82510000D02*
X164800000Y-82500000D01*
X162639500Y-82540000D02*
X162687000Y-82587500D01*
X162687000Y-82587500D02*
X162941000Y-82587500D01*
X163018500Y-82510000D02*
X164790000Y-82510000D01*
%TO.N,/DRV8323RSRGZR/GHA*%
X130176600Y-89959060D02*
X130176600Y-90957708D01*
X128076600Y-94717708D02*
X127215200Y-95579108D01*
X128076600Y-93057708D02*
X128076600Y-94717708D01*
X127215200Y-102273800D02*
X126365000Y-103124000D01*
X130836217Y-89299443D02*
X130176600Y-89959060D01*
X130176600Y-90957708D02*
X128076600Y-93057708D01*
X127215200Y-95579108D02*
X127215200Y-102273800D01*
%TO.N,/DRV8323RSRGZR/GLA*%
X128789800Y-95013125D02*
X127928400Y-95874524D01*
X127928400Y-98972400D02*
X128524000Y-99568000D01*
X130889800Y-91253126D02*
X128789800Y-93353124D01*
X131543324Y-90006550D02*
X130889800Y-90660074D01*
X128789800Y-93353124D02*
X128789800Y-95013125D01*
X130889800Y-90660074D02*
X130889800Y-91253126D01*
X127928400Y-95874524D02*
X127928400Y-98972400D01*
%TO.N,/DRV8323RSRGZR/SPA*%
X131064000Y-96464000D02*
X130790000Y-96190000D01*
X131523352Y-91123880D02*
X131523352Y-90733628D01*
X130790000Y-96190000D02*
X130020000Y-96190000D01*
X131064000Y-97562000D02*
X131064000Y-96464000D01*
X130020000Y-96190000D02*
X129146400Y-95316400D01*
X131523352Y-90733628D02*
X131896877Y-90360103D01*
X129146400Y-93500831D02*
X131523352Y-91123880D01*
X129146400Y-95316400D02*
X129146400Y-93500831D01*
%TO.N,/DRV8323RSRGZR/GLB*%
X134239000Y-99568000D02*
X134350000Y-99457000D01*
X134350000Y-90469874D02*
X133886676Y-90006550D01*
X134350000Y-99457000D02*
X134350000Y-90469874D01*
%TO.N,/DRV8323RSRGZR/SPB*%
X136640000Y-96180000D02*
X136906000Y-96446000D01*
X136906000Y-96446000D02*
X136906000Y-97550000D01*
X134721599Y-91303203D02*
X134721599Y-95421599D01*
X135015928Y-91008874D02*
X134721599Y-91303203D01*
X133867400Y-91120000D02*
X133800000Y-91052600D01*
X133800000Y-91052600D02*
X133800000Y-90626980D01*
X134721599Y-95421599D02*
X135480000Y-96180000D01*
X133800000Y-90626980D02*
X133533123Y-90360103D01*
X135480000Y-96180000D02*
X136640000Y-96180000D01*
%TO.N,/DRV8323RSRGZR/FB*%
X125565500Y-89620413D02*
X125565500Y-89662000D01*
X128361344Y-86824569D02*
X125565500Y-89620413D01*
X125565500Y-89662000D02*
X125565500Y-90805000D01*
%TO.N,/SPI3_MISO*%
X146430000Y-84602600D02*
X146430000Y-84663542D01*
X136380132Y-83780135D02*
X136355525Y-83780135D01*
X136355525Y-83780135D02*
X135654443Y-84481217D01*
X146467000Y-87590000D02*
X146467000Y-88883000D01*
X146467000Y-84700542D02*
X146467000Y-87590000D01*
X146467000Y-88883000D02*
X146440000Y-88910000D01*
X146430000Y-84663542D02*
X146467000Y-84700542D01*
%TO.N,/DRV_FAULT*%
X137795000Y-83047767D02*
X137795000Y-82968500D01*
X136007996Y-84834771D02*
X137795000Y-83047767D01*
%TO.N,/HSE_IN*%
X156206086Y-84350000D02*
X157200000Y-84350000D01*
X155521086Y-83665000D02*
X156206086Y-84350000D01*
X154392000Y-83665000D02*
X155521086Y-83665000D01*
%TO.N,/HSE_OUT*%
X156675000Y-81950000D02*
X155460000Y-83165000D01*
X157200000Y-81950000D02*
X156675000Y-81950000D01*
X155460000Y-83165000D02*
X154392000Y-83165000D01*
%TO.N,/DRV_ENABLE*%
X134240229Y-83067004D02*
X136142233Y-81165000D01*
X136142233Y-81165000D02*
X143042000Y-81165000D01*
%TO.N,/SPI3_SCK*%
X145970000Y-83550000D02*
X145967000Y-83553000D01*
X145967000Y-83553000D02*
X145967000Y-87590000D01*
X136078094Y-82643353D02*
X134947336Y-83774111D01*
X136078094Y-82599057D02*
X136078094Y-82643353D01*
%TO.N,/SPI3_MOSI*%
X136237349Y-83191204D02*
X135300889Y-84127664D01*
X136237349Y-83187490D02*
X136237349Y-83191204D01*
X147049164Y-88886882D02*
X146967000Y-88804718D01*
X146967000Y-88804718D02*
X146967000Y-87590000D01*
%TO.N,/TIM1_BKIN*%
X144750000Y-78440000D02*
X144750000Y-79990000D01*
X143042000Y-78165000D02*
X143087000Y-78120000D01*
X144750000Y-79990000D02*
X144449726Y-80290274D01*
X143047000Y-80170000D02*
X143042000Y-80165000D01*
X144430000Y-78120000D02*
X144750000Y-78440000D01*
X144014571Y-80290274D02*
X143894297Y-80170000D01*
X144449726Y-80290274D02*
X144014571Y-80290274D01*
X143087000Y-78120000D02*
X144430000Y-78120000D01*
X143894297Y-80170000D02*
X143047000Y-80170000D01*
D57*
%TO.N,GND1*%
X166990000Y-96010000D02*
X163510000Y-96010000D01*
D54*
X131879952Y-91060048D02*
X132226344Y-90713656D01*
X133620000Y-91730000D02*
X133383800Y-91493800D01*
X136906000Y-95547400D02*
X136906000Y-94450000D01*
X129503000Y-93648540D02*
X131879952Y-91271588D01*
D55*
X162452500Y-102280000D02*
X161152500Y-102280000D01*
D54*
X129503000Y-95168692D02*
X129503000Y-93648540D01*
X133384699Y-90918786D02*
X133179569Y-90713656D01*
X135078199Y-95273891D02*
X135627708Y-95823400D01*
X133383800Y-90919686D02*
X133384699Y-90918786D01*
X131064000Y-94462000D02*
X131064000Y-95566000D01*
D55*
X123647200Y-91426700D02*
X123025500Y-90805000D01*
D57*
X168000000Y-95000000D02*
X166990000Y-96010000D01*
D54*
X130167708Y-95833400D02*
X129503000Y-95168692D01*
D55*
X123647200Y-92544500D02*
X123647200Y-91426700D01*
D54*
X135498527Y-91491473D02*
X135078199Y-91911801D01*
D55*
X162878500Y-101854000D02*
X162452500Y-102280000D01*
D56*
X136361550Y-87531676D02*
X136007996Y-87885229D01*
D54*
X133867400Y-91730000D02*
X133620000Y-91730000D01*
X135627708Y-95823400D02*
X136630000Y-95823400D01*
X131879952Y-91271588D02*
X131879952Y-91060048D01*
X133383800Y-91493800D02*
X133383800Y-90919686D01*
D55*
X161152500Y-102280000D02*
X160562500Y-102870000D01*
D54*
X130796600Y-95833400D02*
X130167708Y-95833400D01*
X131064000Y-95566000D02*
X130796600Y-95833400D01*
X136630000Y-95823400D02*
X136906000Y-95547400D01*
X133867400Y-91729603D02*
X133867400Y-91730000D01*
X132226344Y-90713656D02*
X132250431Y-90713656D01*
X135078199Y-91911801D02*
X135078199Y-95273891D01*
D55*
%TO.N,Net-(D4-K)*%
X140424500Y-74676000D02*
X140424500Y-75844000D01*
X140424500Y-75844000D02*
X140462000Y-75881500D01*
D54*
%TO.N,Net-(U7-CPL)*%
X128620126Y-87980000D02*
X129068450Y-87531676D01*
X126750000Y-89729500D02*
X126750000Y-89082132D01*
X127852132Y-87980000D02*
X128620126Y-87980000D01*
X126750000Y-89082132D02*
X127852132Y-87980000D01*
D59*
%TO.N,Net-(U7-CPH)*%
X128647233Y-88660000D02*
X127681828Y-88660000D01*
X127381000Y-90233500D02*
X126750000Y-90864500D01*
X127681828Y-88660000D02*
X127381000Y-88960828D01*
X129422004Y-87885229D02*
X128647233Y-88660000D01*
X127381000Y-88960828D02*
X127381000Y-90233500D01*
D54*
%TO.N,Net-(U7-VCP)*%
X129514603Y-88499737D02*
X129317192Y-88499737D01*
X129775557Y-88238783D02*
X129514603Y-88499737D01*
X129317192Y-88499737D02*
X128255429Y-89561500D01*
X128255429Y-89561500D02*
X128250000Y-89561500D01*
%TO.N,Net-(U7-DVDD)*%
X133583717Y-81602196D02*
X133179569Y-82006344D01*
X133583717Y-80370717D02*
X133583717Y-81602196D01*
%TO.N,/TIM1_CH1N*%
X143042000Y-78665000D02*
X141905000Y-78665000D01*
X140629000Y-78780000D02*
X140462000Y-78613000D01*
X141905000Y-78665000D02*
X141790000Y-78780000D01*
X144231442Y-78617034D02*
X144183476Y-78665000D01*
X141790000Y-78780000D02*
X140629000Y-78780000D01*
X144183476Y-78665000D02*
X143042000Y-78665000D01*
%TO.N,/DRV_SPI_NSS*%
X147467000Y-87590000D02*
X147467000Y-84109181D01*
X147467000Y-84109181D02*
X147529169Y-84047012D01*
%TO.N,/TIM1_CH3N*%
X129860544Y-83191447D02*
X129900000Y-83191447D01*
X129836851Y-83167754D02*
X129860544Y-83191447D01*
X129900000Y-83191447D02*
X130482664Y-83774111D01*
%TO.N,/TIM1_CH3*%
X129286000Y-80201164D02*
X129286000Y-78613000D01*
X130000000Y-82559734D02*
X130000000Y-80915164D01*
X130414132Y-82956632D02*
X130415133Y-82957633D01*
X130415133Y-82957633D02*
X130415133Y-82999473D01*
X144226882Y-83165000D02*
X143042000Y-83165000D01*
X145353994Y-82094168D02*
X145297714Y-82094168D01*
X145297714Y-82094168D02*
X144226882Y-83165000D01*
X130000000Y-80915164D02*
X129286000Y-80201164D01*
X130415133Y-82999473D02*
X130836217Y-83420557D01*
X130414132Y-82956632D02*
X130396898Y-82956632D01*
X130396898Y-82956632D02*
X130000000Y-82559734D01*
%TO.N,/TIM1_CH2*%
X131112599Y-82258119D02*
X131112599Y-82282725D01*
X145100000Y-81607065D02*
X144042065Y-82665000D01*
X145100000Y-81540000D02*
X145100000Y-81607065D01*
X131112599Y-82282725D02*
X131543324Y-82713450D01*
X144042065Y-82665000D02*
X143042000Y-82665000D01*
%TO.N,/TIM1_CH2N*%
X139203000Y-79640000D02*
X138176000Y-78613000D01*
X143037000Y-79160000D02*
X141710000Y-79160000D01*
X141710000Y-79160000D02*
X141230000Y-79640000D01*
X143042000Y-79165000D02*
X143037000Y-79160000D01*
X144090000Y-79210000D02*
X144045000Y-79165000D01*
X141230000Y-79640000D02*
X139203000Y-79640000D01*
X144045000Y-79165000D02*
X143042000Y-79165000D01*
%TO.N,/TIM1_CH1*%
X144650000Y-80890000D02*
X144650000Y-81270000D01*
X131700000Y-80970000D02*
X133604000Y-79066000D01*
X131700000Y-81370000D02*
X131700000Y-81455913D01*
X131700000Y-81455913D02*
X132250431Y-82006344D01*
X143755000Y-82165000D02*
X143042000Y-82165000D01*
X133604000Y-79066000D02*
X133604000Y-78613000D01*
X131700000Y-81370000D02*
X131700000Y-80970000D01*
X144650000Y-81270000D02*
X143755000Y-82165000D01*
%TO.N,/ADC2_IN9*%
X127216500Y-73787000D02*
X127724500Y-74295000D01*
X147701000Y-72771000D02*
X147701000Y-73775500D01*
X128752000Y-74295000D02*
X129500000Y-73547000D01*
X147712500Y-73787000D02*
X147467000Y-74032500D01*
X129500000Y-72947000D02*
X129500000Y-71541000D01*
X129500000Y-71541000D02*
X129540000Y-71501000D01*
X147467000Y-74032500D02*
X147467000Y-76240000D01*
X127724500Y-74295000D02*
X128752000Y-74295000D01*
X129500000Y-73547000D02*
X129500000Y-72947000D01*
X147701000Y-73775500D02*
X147712500Y-73787000D01*
%TO.N,Net-(U8-VCAP_1)*%
X146840000Y-74350000D02*
X146520000Y-74350000D01*
X145967000Y-74903000D02*
X145967000Y-76240000D01*
X155448000Y-74168000D02*
X156404500Y-74168000D01*
X146520000Y-74350000D02*
X145967000Y-74903000D01*
%TO.N,/ADC3_IN2*%
X155245000Y-78165000D02*
X154392000Y-78165000D01*
X156404500Y-75692000D02*
X155530000Y-76566500D01*
X155530000Y-77880000D02*
X155245000Y-78165000D01*
X141567500Y-91059000D02*
X141567500Y-89916000D01*
X155575000Y-75692000D02*
X156404500Y-75692000D01*
X155530000Y-76566500D02*
X155530000Y-77880000D01*
%TO.N,/ADC1_IN10*%
X155800000Y-82060000D02*
X155695000Y-82165000D01*
X164554500Y-93980000D02*
X164554500Y-92889000D01*
X155695000Y-82165000D02*
X154392000Y-82165000D01*
X155800000Y-80995500D02*
X155800000Y-82060000D01*
X164554500Y-92889000D02*
X164502500Y-92837000D01*
X156404500Y-80391000D02*
X155800000Y-80995500D01*
%TO.N,/USART3_TX*%
X164780000Y-78480000D02*
X164800000Y-78500000D01*
X152711700Y-80154032D02*
X152697668Y-80140000D01*
X163520000Y-78480000D02*
X164780000Y-78480000D01*
X146467000Y-77627000D02*
X146467000Y-76240000D01*
X152697668Y-80140000D02*
X148980000Y-80140000D01*
X148980000Y-80140000D02*
X146467000Y-77627000D01*
%TO.N,/USART3_RX*%
X163490000Y-77540000D02*
X164760000Y-77540000D01*
X164760000Y-77540000D02*
X164800000Y-77500000D01*
%TO.N,Net-(D6-K)*%
X159574500Y-84684000D02*
X159549500Y-84709000D01*
X159574500Y-83566000D02*
X159574500Y-84684000D01*
%TO.N,/I2C1_SCL*%
X145449146Y-90458600D02*
X145451400Y-90458600D01*
X149150000Y-89440000D02*
X149467000Y-89123000D01*
X144615500Y-91059000D02*
X144851000Y-91059000D01*
X148110000Y-85290000D02*
X149467000Y-86647000D01*
X146470000Y-89440000D02*
X149150000Y-89440000D01*
X147936652Y-83370594D02*
X148110000Y-83543942D01*
X145080000Y-72940750D02*
X145086250Y-72947000D01*
X144851000Y-91059000D02*
X145195600Y-90714400D01*
X149467000Y-89123000D02*
X149467000Y-87590000D01*
X145195600Y-90712146D02*
X145449146Y-90458600D01*
X149467000Y-86647000D02*
X149467000Y-87590000D01*
X148110000Y-83543942D02*
X148110000Y-85290000D01*
X145080000Y-71860000D02*
X145080000Y-72940750D01*
X145451400Y-90458600D02*
X146470000Y-89440000D01*
X145195600Y-90714400D02*
X145195600Y-90712146D01*
%TO.N,/I2C1_SDA*%
X149967000Y-89357308D02*
X149967000Y-87590000D01*
X149444308Y-89880000D02*
X149967000Y-89357308D01*
X146090000Y-71860000D02*
X146090000Y-72943250D01*
X145833500Y-90886500D02*
X146840000Y-89880000D01*
X146090000Y-72943250D02*
X146086250Y-72947000D01*
X145833500Y-91059000D02*
X145833500Y-90886500D01*
X146840000Y-89880000D02*
X149444308Y-89880000D01*
%TO.N,/ENCODER_STA*%
X161387400Y-84720000D02*
X160755500Y-84720000D01*
X151130000Y-81650000D02*
X151191188Y-81711188D01*
X161428700Y-84678700D02*
X161387400Y-84720000D01*
X160755500Y-84720000D02*
X160744500Y-84709000D01*
X154345812Y-81711188D02*
X154392000Y-81665000D01*
X151191188Y-81711188D02*
X154345812Y-81711188D01*
%TO.N,Net-(U8-BOOT0)*%
X150467000Y-87590000D02*
X150467000Y-90287500D01*
X150076500Y-90678000D02*
X150076500Y-90805000D01*
X150076500Y-90805000D02*
X149822500Y-91059000D01*
X150467000Y-90287500D02*
X150076500Y-90678000D01*
%TO.N,Net-(U8-VSSA)*%
X156374500Y-79121000D02*
X155330500Y-80165000D01*
X155330500Y-80165000D02*
X154392000Y-80165000D01*
%TO.N,Net-(U8-PB2)*%
X146967000Y-75037000D02*
X146900000Y-74970000D01*
X158496000Y-74803000D02*
X159549500Y-74803000D01*
X146967000Y-76240000D02*
X146967000Y-75037000D01*
%TO.N,/CAN_TX*%
X156050000Y-87890000D02*
X154587000Y-87890000D01*
X151467000Y-87590000D02*
X151467000Y-86443000D01*
X154587000Y-87890000D02*
X154581000Y-87884000D01*
X151467000Y-86443000D02*
X151504445Y-86405555D01*
%TO.N,/CAN_RX*%
X155886000Y-91694000D02*
X154581000Y-91694000D01*
X150967000Y-87590000D02*
X150967000Y-86550610D01*
X150967000Y-86550610D02*
X150858990Y-86442600D01*
%TO.N,/CAN_STB*%
X148970000Y-88910000D02*
X148980000Y-88900000D01*
X158680000Y-87910000D02*
X160099000Y-87910000D01*
X148980000Y-87603000D02*
X148967000Y-87590000D01*
X148980000Y-88900000D02*
X148980000Y-87603000D01*
X160099000Y-87910000D02*
X160125000Y-87884000D01*
%TO.N,/ADC1_IN0*%
X138742919Y-85626400D02*
X139419189Y-86302670D01*
X137068656Y-85895431D02*
X137337687Y-85626400D01*
X137337687Y-85626400D02*
X138742919Y-85626400D01*
%TO.N,/ADC2_IN1*%
X137068656Y-86824569D02*
X137304087Y-87060000D01*
X138090000Y-86600000D02*
X138090000Y-86110000D01*
X137630000Y-87060000D02*
X138090000Y-86600000D01*
X137304087Y-87060000D02*
X137630000Y-87060000D01*
%TO.N,Net-(U8-PC13)*%
X155990000Y-84920000D02*
X155920000Y-84920000D01*
X164733800Y-76180000D02*
X163310000Y-76180000D01*
X155675000Y-85165000D02*
X154392000Y-85165000D01*
X164810000Y-76103800D02*
X164733800Y-76180000D01*
X155920000Y-84920000D02*
X155675000Y-85165000D01*
%TO.N,/ENCODER_SPI_NSS*%
X147967000Y-88748000D02*
X147967000Y-87590000D01*
%TD*%
%TA.AperFunction,Conductor*%
%TO.N,/DRV8323RSRGZR/PHASA*%
G36*
X129245004Y-100750748D02*
G01*
X129289000Y-100759500D01*
X129289005Y-100759500D01*
X132960999Y-100759500D01*
X132961002Y-100759500D01*
X133002161Y-100751312D01*
X133004995Y-100750749D01*
X133012603Y-100750000D01*
X133211000Y-100750000D01*
X133238577Y-100761423D01*
X133250000Y-100789000D01*
X133250000Y-109706500D01*
X133238577Y-109734077D01*
X133211000Y-109745500D01*
X123695924Y-109745500D01*
X123668347Y-109734077D01*
X123656924Y-109706500D01*
X123668347Y-109678923D01*
X123687246Y-109668478D01*
X123750369Y-109654069D01*
X123763745Y-109651017D01*
X123763745Y-109651016D01*
X123763749Y-109651016D01*
X123909753Y-109599926D01*
X124055762Y-109548836D01*
X124334503Y-109414601D01*
X124596462Y-109250002D01*
X124596464Y-109250000D01*
X124596468Y-109249998D01*
X124838337Y-109057113D01*
X124838339Y-109057110D01*
X124838344Y-109057107D01*
X125057107Y-108838344D01*
X125057113Y-108838337D01*
X125249998Y-108596468D01*
X125250001Y-108596463D01*
X125250002Y-108596462D01*
X125414601Y-108334503D01*
X125548836Y-108055762D01*
X125651017Y-107763745D01*
X125708975Y-107509815D01*
X125719858Y-107462134D01*
X125719858Y-107462132D01*
X125719858Y-107462131D01*
X125719860Y-107462123D01*
X125754500Y-107154689D01*
X125754500Y-106845311D01*
X125719860Y-106537877D01*
X125719858Y-106537867D01*
X125719858Y-106537865D01*
X125651018Y-106236259D01*
X125651016Y-106236250D01*
X125548837Y-105944241D01*
X125548836Y-105944238D01*
X125414601Y-105665497D01*
X125250002Y-105403538D01*
X125250001Y-105403536D01*
X125249998Y-105403531D01*
X125057113Y-105161662D01*
X124838337Y-104942886D01*
X124596468Y-104750001D01*
X124596463Y-104749998D01*
X124334508Y-104585402D01*
X124334507Y-104585401D01*
X124334503Y-104585399D01*
X124185885Y-104513828D01*
X124055761Y-104451163D01*
X124055758Y-104451162D01*
X123763749Y-104348983D01*
X123763740Y-104348981D01*
X123462133Y-104280141D01*
X123405667Y-104273778D01*
X123154689Y-104245500D01*
X122845311Y-104245500D01*
X122594332Y-104273778D01*
X122537867Y-104280141D01*
X122537865Y-104280141D01*
X122236259Y-104348981D01*
X122236250Y-104348983D01*
X122051881Y-104413497D01*
X122022078Y-104411824D01*
X122002189Y-104389567D01*
X122000000Y-104376686D01*
X122000000Y-102289000D01*
X122011423Y-102261423D01*
X122039000Y-102250000D01*
X125662630Y-102250000D01*
X125690207Y-102261423D01*
X125701630Y-102289000D01*
X125700881Y-102296608D01*
X125700266Y-102299698D01*
X125700266Y-102299699D01*
X125696758Y-102317338D01*
X125685500Y-102373935D01*
X125685500Y-103874061D01*
X125685500Y-103874062D01*
X125685501Y-103874066D01*
X125700266Y-103948301D01*
X125756516Y-104032484D01*
X125840699Y-104088734D01*
X125914933Y-104103500D01*
X126815066Y-104103499D01*
X126889301Y-104088734D01*
X126973484Y-104032484D01*
X126983608Y-104017331D01*
X127008427Y-104000749D01*
X127016035Y-104000000D01*
X128000000Y-104000000D01*
X128000000Y-100789000D01*
X128011423Y-100761423D01*
X128039000Y-100750000D01*
X129237398Y-100750000D01*
X129245004Y-100750748D01*
G37*
%TD.AperFunction*%
%TD*%
%TA.AperFunction,Conductor*%
%TO.N,GND1*%
G36*
X126988577Y-91515423D02*
G01*
X127000000Y-91543000D01*
X127000000Y-92549327D01*
X126998671Y-92559421D01*
X126985799Y-92607454D01*
X126985799Y-92714390D01*
X126985800Y-92714403D01*
X126985800Y-94144863D01*
X126974377Y-94172440D01*
X126904240Y-94242577D01*
X126876663Y-94254000D01*
X120293500Y-94254000D01*
X120265923Y-94242577D01*
X120254500Y-94215000D01*
X120254500Y-91543000D01*
X120265923Y-91515423D01*
X120293500Y-91504000D01*
X126961000Y-91504000D01*
X126988577Y-91515423D01*
G37*
%TD.AperFunction*%
%TD*%
%TA.AperFunction,Conductor*%
%TO.N,+36V*%
G36*
X143988577Y-96761423D02*
G01*
X144000000Y-96789000D01*
X144000000Y-103711000D01*
X143988577Y-103738577D01*
X143961000Y-103750000D01*
X139289000Y-103750000D01*
X139261423Y-103738577D01*
X139250000Y-103711000D01*
X139250000Y-96789000D01*
X139261423Y-96761423D01*
X139289000Y-96750000D01*
X143961000Y-96750000D01*
X143988577Y-96761423D01*
G37*
%TD.AperFunction*%
%TD*%
%TA.AperFunction,Conductor*%
%TO.N,+5V*%
G36*
X125943039Y-76019685D02*
G01*
X125988794Y-76072489D01*
X126000000Y-76124000D01*
X126000000Y-77000000D01*
X127876000Y-77000000D01*
X127943039Y-77019685D01*
X127988794Y-77072489D01*
X128000000Y-77124000D01*
X128000000Y-77876000D01*
X127980315Y-77943039D01*
X127927511Y-77988794D01*
X127876000Y-78000000D01*
X126000000Y-78000000D01*
X126000000Y-78376000D01*
X125980315Y-78443039D01*
X125927511Y-78488794D01*
X125876000Y-78500000D01*
X121624000Y-78500000D01*
X121556961Y-78480315D01*
X121511206Y-78427511D01*
X121500000Y-78376000D01*
X121500000Y-76124000D01*
X121519685Y-76056961D01*
X121572489Y-76011206D01*
X121624000Y-76000000D01*
X125876000Y-76000000D01*
X125943039Y-76019685D01*
G37*
%TD.AperFunction*%
%TD*%
%TA.AperFunction,Conductor*%
%TO.N,GND1*%
G36*
X155943039Y-96769685D02*
G01*
X155988794Y-96822489D01*
X156000000Y-96874000D01*
X156000000Y-100376000D01*
X155980315Y-100443039D01*
X155927511Y-100488794D01*
X155876000Y-100500000D01*
X152124000Y-100500000D01*
X152056961Y-100480315D01*
X152011206Y-100427511D01*
X152000000Y-100376000D01*
X152000000Y-96874000D01*
X152019685Y-96806961D01*
X152072489Y-96761206D01*
X152124000Y-96750000D01*
X155876000Y-96750000D01*
X155943039Y-96769685D01*
G37*
%TD.AperFunction*%
%TD*%
%TA.AperFunction,Conductor*%
%TO.N,+36V*%
G36*
X149608277Y-96761423D02*
G01*
X149619700Y-96789000D01*
X149619700Y-103711000D01*
X149608277Y-103738577D01*
X149580700Y-103750000D01*
X144789000Y-103750000D01*
X144761423Y-103738577D01*
X144750000Y-103711000D01*
X144750000Y-96789000D01*
X144761423Y-96761423D01*
X144789000Y-96750000D01*
X149580700Y-96750000D01*
X149608277Y-96761423D01*
G37*
%TD.AperFunction*%
%TD*%
%TA.AperFunction,Conductor*%
%TO.N,/DRV8323RSRGZR/SW*%
G36*
X127025131Y-80002458D02*
G01*
X127037843Y-80007200D01*
X127096443Y-80013500D01*
X127665556Y-80013499D01*
X127724157Y-80007200D01*
X127726714Y-80006246D01*
X127756544Y-80007309D01*
X127767923Y-80015209D01*
X127818964Y-80066250D01*
X127818966Y-80066251D01*
X127923335Y-80126508D01*
X127923337Y-80126508D01*
X127923338Y-80126509D01*
X127931499Y-80128695D01*
X127971094Y-80139305D01*
X127994774Y-80157474D01*
X128000000Y-80176975D01*
X128000000Y-84461000D01*
X127988577Y-84488577D01*
X127961000Y-84500000D01*
X125539000Y-84500000D01*
X125511423Y-84488577D01*
X125500000Y-84461000D01*
X125500000Y-82500000D01*
X121539000Y-82500000D01*
X121511423Y-82488577D01*
X121500000Y-82461000D01*
X121500000Y-80039000D01*
X121511423Y-80011423D01*
X121539000Y-80000000D01*
X127011503Y-80000000D01*
X127025131Y-80002458D01*
G37*
%TD.AperFunction*%
%TD*%
%TA.AperFunction,Conductor*%
%TO.N,GND1*%
G36*
X143944443Y-93682123D02*
G01*
X144038277Y-93775957D01*
X144049700Y-93803534D01*
X144049700Y-95461000D01*
X144038277Y-95488577D01*
X144010700Y-95500000D01*
X139358000Y-95500000D01*
X139330423Y-95488577D01*
X139319000Y-95461000D01*
X139319000Y-93709700D01*
X139330423Y-93682123D01*
X139358000Y-93670700D01*
X143916866Y-93670700D01*
X143944443Y-93682123D01*
G37*
%TD.AperFunction*%
%TD*%
%TA.AperFunction,Conductor*%
%TO.N,GND1*%
G36*
X132488577Y-93761423D02*
G01*
X132500000Y-93789000D01*
X132500000Y-94961000D01*
X132488577Y-94988577D01*
X132461000Y-95000000D01*
X129789000Y-95000000D01*
X129761423Y-94988577D01*
X129750000Y-94961000D01*
X129750000Y-93789000D01*
X129761423Y-93761423D01*
X129789000Y-93750000D01*
X132461000Y-93750000D01*
X132488577Y-93761423D01*
G37*
%TD.AperFunction*%
%TD*%
%TA.AperFunction,Conductor*%
%TO.N,/DRV8323RSRGZR/SPB*%
G36*
X138488577Y-96761423D02*
G01*
X138500000Y-96789000D01*
X138500000Y-100343966D01*
X138488577Y-100371543D01*
X138371543Y-100488577D01*
X138343966Y-100500000D01*
X135039000Y-100500000D01*
X135011423Y-100488577D01*
X135000000Y-100461000D01*
X135000000Y-96789000D01*
X135011423Y-96761423D01*
X135039000Y-96750000D01*
X138461000Y-96750000D01*
X138488577Y-96761423D01*
G37*
%TD.AperFunction*%
%TD*%
%TA.AperFunction,Conductor*%
%TO.N,/DRV8323RSRGZR/PHASB*%
G36*
X134995004Y-100750748D02*
G01*
X135039000Y-100759500D01*
X135039005Y-100759500D01*
X138343965Y-100759500D01*
X138343968Y-100759500D01*
X138385127Y-100751312D01*
X138387961Y-100750749D01*
X138395569Y-100750000D01*
X138951500Y-100750000D01*
X138979077Y-100761423D01*
X138990500Y-100789000D01*
X138990500Y-103711002D01*
X138990712Y-103712067D01*
X138999251Y-103754994D01*
X139000000Y-103762602D01*
X139000000Y-104250000D01*
X142950243Y-104250000D01*
X142977820Y-104261423D01*
X142989243Y-104289000D01*
X142988494Y-104296608D01*
X142975500Y-104361935D01*
X142975500Y-105862061D01*
X142975500Y-105862062D01*
X142975501Y-105862066D01*
X142990266Y-105936301D01*
X142993427Y-105941031D01*
X143000000Y-105962699D01*
X143000000Y-109706500D01*
X142988577Y-109734077D01*
X142961000Y-109745500D01*
X133789000Y-109745500D01*
X133761423Y-109734077D01*
X133750000Y-109706500D01*
X133750000Y-100789000D01*
X133761423Y-100761423D01*
X133789000Y-100750000D01*
X134987398Y-100750000D01*
X134995004Y-100750748D01*
G37*
%TD.AperFunction*%
%TD*%
%TA.AperFunction,Conductor*%
%TO.N,GND1*%
G36*
X149273743Y-93511423D02*
G01*
X149492577Y-93730257D01*
X149504000Y-93757834D01*
X149504000Y-95461000D01*
X149492577Y-95488577D01*
X149465000Y-95500000D01*
X144793000Y-95500000D01*
X144765423Y-95488577D01*
X144754000Y-95461000D01*
X144754000Y-93539000D01*
X144765423Y-93511423D01*
X144793000Y-93500000D01*
X149246166Y-93500000D01*
X149273743Y-93511423D01*
G37*
%TD.AperFunction*%
%TD*%
%TA.AperFunction,Conductor*%
%TO.N,/DRV8323RSRGZR/PHASC*%
G36*
X152060687Y-100750396D02*
G01*
X152124000Y-100759500D01*
X152124001Y-100759500D01*
X155711000Y-100759500D01*
X155738577Y-100770923D01*
X155750000Y-100798500D01*
X155750000Y-109706500D01*
X155738577Y-109734077D01*
X155711000Y-109745500D01*
X144789000Y-109745500D01*
X144761423Y-109734077D01*
X144750000Y-109706500D01*
X144750000Y-104289000D01*
X144761423Y-104261423D01*
X144789000Y-104250000D01*
X148461000Y-104250000D01*
X148488577Y-104261423D01*
X148500000Y-104289000D01*
X148500000Y-106250000D01*
X150250000Y-106250000D01*
X150250000Y-104539529D01*
X150255227Y-104520026D01*
X150258564Y-104514246D01*
X150258565Y-104514245D01*
X150281101Y-104430137D01*
X150281101Y-104343062D01*
X150281101Y-104340679D01*
X150281100Y-104340661D01*
X150281100Y-100789000D01*
X150292523Y-100761423D01*
X150320100Y-100750000D01*
X152055138Y-100750000D01*
X152060687Y-100750396D01*
G37*
%TD.AperFunction*%
%TD*%
%TA.AperFunction,Conductor*%
%TO.N,GND1*%
G36*
X161943039Y-93540385D02*
G01*
X161988794Y-93593189D01*
X162000000Y-93644700D01*
X162000000Y-103876000D01*
X161980315Y-103943039D01*
X161927511Y-103988794D01*
X161876000Y-104000000D01*
X159624000Y-104000000D01*
X159556961Y-103980315D01*
X159511206Y-103927511D01*
X159500000Y-103876000D01*
X159500000Y-93644700D01*
X159519685Y-93577661D01*
X159572489Y-93531906D01*
X159624000Y-93520700D01*
X161876000Y-93520700D01*
X161943039Y-93540385D01*
G37*
%TD.AperFunction*%
%TD*%
%TA.AperFunction,Conductor*%
%TO.N,+36V*%
G36*
X126865577Y-95000423D02*
G01*
X126877000Y-95028000D01*
X126877000Y-101942000D01*
X126865577Y-101969577D01*
X126838000Y-101981000D01*
X120293500Y-101981000D01*
X120265923Y-101969577D01*
X120254500Y-101942000D01*
X120254500Y-95028000D01*
X120265923Y-95000423D01*
X120293500Y-94989000D01*
X126838000Y-94989000D01*
X126865577Y-95000423D01*
G37*
%TD.AperFunction*%
%TD*%
%TA.AperFunction,Conductor*%
%TO.N,+36V*%
G36*
X158443039Y-93519685D02*
G01*
X158488794Y-93572489D01*
X158500000Y-93624000D01*
X158500000Y-103876000D01*
X158480315Y-103943039D01*
X158427511Y-103988794D01*
X158376000Y-104000000D01*
X156624000Y-104000000D01*
X156556961Y-103980315D01*
X156511206Y-103927511D01*
X156500000Y-103876000D01*
X156500000Y-93624000D01*
X156519685Y-93556961D01*
X156572489Y-93511206D01*
X156624000Y-93500000D01*
X158376000Y-93500000D01*
X158443039Y-93519685D01*
G37*
%TD.AperFunction*%
%TD*%
%TA.AperFunction,Conductor*%
%TO.N,/DRV8323RSRGZR/SPA*%
G36*
X132988577Y-96761423D02*
G01*
X133000000Y-96789000D01*
X133000000Y-100461000D01*
X132988577Y-100488577D01*
X132961000Y-100500000D01*
X129289000Y-100500000D01*
X129261423Y-100488577D01*
X129250000Y-100461000D01*
X129250000Y-96789000D01*
X129261423Y-96761423D01*
X129289000Y-96750000D01*
X132961000Y-96750000D01*
X132988577Y-96761423D01*
G37*
%TD.AperFunction*%
%TD*%
%TA.AperFunction,Conductor*%
%TO.N,GND1*%
G36*
X137734711Y-93511423D02*
G01*
X138488577Y-94265289D01*
X138500000Y-94292866D01*
X138500000Y-95211000D01*
X138488577Y-95238577D01*
X138461000Y-95250000D01*
X135539000Y-95250000D01*
X135511423Y-95238577D01*
X135500000Y-95211000D01*
X135500000Y-93539000D01*
X135511423Y-93511423D01*
X135539000Y-93500000D01*
X137707134Y-93500000D01*
X137734711Y-93511423D01*
G37*
%TD.AperFunction*%
%TD*%
%TA.AperFunction,Conductor*%
%TO.N,+3.3V*%
G36*
X139389039Y-75457685D02*
G01*
X139434794Y-75510489D01*
X139446000Y-75562000D01*
X139446000Y-77473000D01*
X139426315Y-77540039D01*
X139373511Y-77585794D01*
X139322000Y-77597000D01*
X134363000Y-77597000D01*
X134295961Y-77577315D01*
X134250206Y-77524511D01*
X134239000Y-77473000D01*
X134239000Y-76101200D01*
X134258685Y-76034161D01*
X134311489Y-75988406D01*
X134363000Y-75977200D01*
X134963811Y-75977200D01*
X134963812Y-75977199D01*
X135004703Y-75969066D01*
X135051079Y-75938079D01*
X135082066Y-75891703D01*
X135082066Y-75891702D01*
X135088852Y-75881547D01*
X135090739Y-75882808D01*
X135124316Y-75841143D01*
X135190610Y-75819079D01*
X135195035Y-75819000D01*
X135643880Y-75819000D01*
X135687212Y-75826817D01*
X135725620Y-75841143D01*
X135800842Y-75869200D01*
X135845857Y-75874039D01*
X135859424Y-75875498D01*
X135859434Y-75875499D01*
X135859443Y-75875500D01*
X136428556Y-75875499D01*
X136487157Y-75869200D01*
X136600787Y-75826817D01*
X136644120Y-75819000D01*
X137294880Y-75819000D01*
X137338212Y-75826817D01*
X137376620Y-75841143D01*
X137451842Y-75869200D01*
X137496857Y-75874039D01*
X137510424Y-75875498D01*
X137510434Y-75875499D01*
X137510443Y-75875500D01*
X138079556Y-75875499D01*
X138138157Y-75869200D01*
X138251787Y-75826817D01*
X138295120Y-75819000D01*
X138684000Y-75819000D01*
X138684000Y-75562000D01*
X138703685Y-75494961D01*
X138756489Y-75449206D01*
X138808000Y-75438000D01*
X139322000Y-75438000D01*
X139389039Y-75457685D01*
G37*
%TD.AperFunction*%
%TD*%
%TA.AperFunction,Conductor*%
%TO.N,/RESET*%
G36*
X152311431Y-82503566D02*
G01*
X152653557Y-82586629D01*
X152660787Y-82591911D01*
X152662496Y-82597999D01*
X152662496Y-82733573D01*
X152659069Y-82741846D01*
X152655518Y-82744278D01*
X152381845Y-82865005D01*
X152372893Y-82865208D01*
X152367422Y-82860841D01*
X152261741Y-82704067D01*
X152259960Y-82695292D01*
X152297216Y-82512597D01*
X152302226Y-82505179D01*
X152311017Y-82503474D01*
X152311431Y-82503566D01*
G37*
%TD.AperFunction*%
%TD*%
%TA.AperFunction,Conductor*%
%TO.N,/SWDIO*%
G36*
X152957736Y-82034519D02*
G01*
X152963639Y-82041252D01*
X152964023Y-82042673D01*
X153001536Y-82226625D01*
X153001536Y-82231301D01*
X152964023Y-82415252D01*
X152959012Y-82422673D01*
X152950221Y-82424378D01*
X152948800Y-82423994D01*
X152606458Y-82307856D01*
X152599725Y-82301953D01*
X152598517Y-82296776D01*
X152598517Y-82161149D01*
X152601944Y-82152876D01*
X152606458Y-82150069D01*
X152948801Y-82033931D01*
X152957736Y-82034519D01*
G37*
%TD.AperFunction*%
%TD*%
%TA.AperFunction,Conductor*%
%TO.N,+3.3V*%
G36*
X161002376Y-78348313D02*
G01*
X161361929Y-78402235D01*
X161381316Y-78405143D01*
X161388990Y-78409759D01*
X161391152Y-78418449D01*
X161391067Y-78418941D01*
X161355203Y-78603910D01*
X161353419Y-78608223D01*
X161247031Y-78766046D01*
X161239565Y-78770990D01*
X161231358Y-78769567D01*
X161225425Y-78766046D01*
X160994682Y-78629100D01*
X160989316Y-78621931D01*
X160988953Y-78619039D01*
X160988953Y-78359885D01*
X160992380Y-78351612D01*
X161000653Y-78348185D01*
X161002376Y-78348313D01*
G37*
%TD.AperFunction*%
%TD*%
%TA.AperFunction,Conductor*%
%TO.N,GND*%
G36*
X161189336Y-76959423D02*
G01*
X161567211Y-77177425D01*
X161572664Y-77184527D01*
X161571498Y-77193406D01*
X161571119Y-77194019D01*
X161467407Y-77350623D01*
X161464126Y-77353909D01*
X161306946Y-77458315D01*
X161298158Y-77460038D01*
X161290726Y-77455043D01*
X161290114Y-77454009D01*
X161173131Y-77231255D01*
X161171789Y-77225815D01*
X161171789Y-76969557D01*
X161175216Y-76961284D01*
X161183489Y-76957857D01*
X161189336Y-76959423D01*
G37*
%TD.AperFunction*%
%TD*%
%TA.AperFunction,Conductor*%
%TO.N,/MCU_STA*%
G36*
X152166763Y-80481676D02*
G01*
X152509040Y-80586269D01*
X152515951Y-80591964D01*
X152517321Y-80597458D01*
X152517321Y-80733075D01*
X152513894Y-80741348D01*
X152509709Y-80744038D01*
X152180330Y-80866865D01*
X152172483Y-80866982D01*
X152157402Y-80861866D01*
X152150669Y-80855963D01*
X152149698Y-80853129D01*
X152114301Y-80679549D01*
X152114301Y-80674880D01*
X152151895Y-80490528D01*
X152156905Y-80483110D01*
X152165696Y-80481405D01*
X152166763Y-80481676D01*
G37*
%TD.AperFunction*%
%TD*%
%TA.AperFunction,Conductor*%
%TO.N,/ADC2_IN1*%
G36*
X153002544Y-78187374D02*
G01*
X153288470Y-78374849D01*
X153293510Y-78382251D01*
X153291839Y-78391048D01*
X153290328Y-78392906D01*
X153195175Y-78488059D01*
X153189365Y-78491224D01*
X152931229Y-78546801D01*
X152922419Y-78545192D01*
X152917328Y-78537826D01*
X152880261Y-78354092D01*
X152881983Y-78345308D01*
X152986434Y-78190609D01*
X152993902Y-78185672D01*
X153002544Y-78187374D01*
G37*
%TD.AperFunction*%
%TD*%
%TA.AperFunction,Conductor*%
%TO.N,/ADC1_IN0*%
G36*
X152561812Y-78745361D02*
G01*
X152904160Y-78861501D01*
X152910893Y-78867404D01*
X152912101Y-78872581D01*
X152912101Y-79008208D01*
X152908674Y-79016481D01*
X152904160Y-79019288D01*
X152561817Y-79135426D01*
X152552881Y-79134838D01*
X152546978Y-79128105D01*
X152546596Y-79126691D01*
X152509081Y-78942729D01*
X152509081Y-78938060D01*
X152546595Y-78754103D01*
X152551605Y-78746684D01*
X152560396Y-78744979D01*
X152561812Y-78745361D01*
G37*
%TD.AperFunction*%
%TD*%
%TA.AperFunction,Conductor*%
%TO.N,/TIM1_CH3N*%
G36*
X144173836Y-79610833D02*
G01*
X144177190Y-79616928D01*
X144214904Y-79801864D01*
X144213199Y-79810655D01*
X144213142Y-79810742D01*
X144109174Y-79964975D01*
X144101708Y-79969919D01*
X144092932Y-79968137D01*
X144092063Y-79967489D01*
X143998023Y-79890400D01*
X143850795Y-79769710D01*
X143846569Y-79761815D01*
X143846512Y-79760662D01*
X143846512Y-79625273D01*
X143849939Y-79617000D01*
X143857980Y-79613575D01*
X144165497Y-79607568D01*
X144173836Y-79610833D01*
G37*
%TD.AperFunction*%
%TD*%
%TA.AperFunction,Conductor*%
%TO.N,/ENCODER_CAL_EN*%
G36*
X142754094Y-88162735D02*
G01*
X142754827Y-88164011D01*
X142914778Y-88488205D01*
X142915366Y-88497141D01*
X142912559Y-88501655D01*
X142816655Y-88597559D01*
X142808382Y-88600986D01*
X142803205Y-88599778D01*
X142479011Y-88439827D01*
X142473108Y-88433094D01*
X142473696Y-88424158D01*
X142474423Y-88422890D01*
X142577977Y-88266282D01*
X142581283Y-88262977D01*
X142737883Y-88159428D01*
X142746673Y-88157724D01*
X142754094Y-88162735D01*
G37*
%TD.AperFunction*%
%TD*%
%TA.AperFunction,Conductor*%
%TO.N,/SPI3_SCK*%
G36*
X142712829Y-88853120D02*
G01*
X143055130Y-88961218D01*
X143061986Y-88966976D01*
X143063306Y-88972374D01*
X143063306Y-89107997D01*
X143059879Y-89116270D01*
X143055595Y-89118996D01*
X142713196Y-89243181D01*
X142704250Y-89242780D01*
X142698208Y-89236171D01*
X142697743Y-89234520D01*
X142674184Y-89118996D01*
X142660286Y-89050842D01*
X142660286Y-89046173D01*
X142697856Y-88861941D01*
X142702866Y-88854522D01*
X142711657Y-88852817D01*
X142712829Y-88853120D01*
G37*
%TD.AperFunction*%
%TD*%
%TA.AperFunction,Conductor*%
%TO.N,GND*%
G36*
X127931299Y-79313909D02*
G01*
X128052842Y-79407631D01*
X128202011Y-79522655D01*
X128204276Y-79524401D01*
X128208735Y-79532166D01*
X128206891Y-79540119D01*
X128102022Y-79698716D01*
X128098716Y-79702022D01*
X127940119Y-79806891D01*
X127931328Y-79808596D01*
X127924401Y-79804276D01*
X127713909Y-79531299D01*
X127711571Y-79522655D01*
X127714900Y-79515883D01*
X127915883Y-79314900D01*
X127924155Y-79311474D01*
X127931299Y-79313909D01*
G37*
%TD.AperFunction*%
%TD*%
%TA.AperFunction,Conductor*%
%TO.N,+3.3V*%
G36*
X161443677Y-75765593D02*
G01*
X161448318Y-75772760D01*
X161486234Y-75958687D01*
X161486234Y-75963363D01*
X161448318Y-76149289D01*
X161443307Y-76156710D01*
X161434958Y-76158496D01*
X161093019Y-76102335D01*
X161085410Y-76097613D01*
X161083215Y-76090790D01*
X161083215Y-75831259D01*
X161086642Y-75822986D01*
X161093016Y-75819715D01*
X161434960Y-75763553D01*
X161443677Y-75765593D01*
G37*
%TD.AperFunction*%
%TD*%
%TA.AperFunction,Conductor*%
%TO.N,/RESET*%
G36*
X158592806Y-78767446D02*
G01*
X158688710Y-78863350D01*
X158692137Y-78871623D01*
X158690929Y-78876800D01*
X158530978Y-79200994D01*
X158524245Y-79206897D01*
X158515309Y-79206309D01*
X158514033Y-79205576D01*
X158357434Y-79102028D01*
X158354128Y-79098722D01*
X158250580Y-78942123D01*
X158248875Y-78933332D01*
X158253886Y-78925911D01*
X158255158Y-78925180D01*
X158579357Y-78765226D01*
X158588292Y-78764639D01*
X158592806Y-78767446D01*
G37*
%TD.AperFunction*%
%TD*%
%TA.AperFunction,Conductor*%
%TO.N,GND*%
G36*
X157962245Y-79292403D02*
G01*
X158020207Y-79334012D01*
X158023516Y-79337666D01*
X158029381Y-79347824D01*
X158030550Y-79349848D01*
X158106309Y-79425607D01*
X158199094Y-79479176D01*
X158199096Y-79479176D01*
X158199097Y-79479177D01*
X158199095Y-79479177D01*
X158234260Y-79488599D01*
X158238054Y-79490395D01*
X158243744Y-79494479D01*
X158248467Y-79502087D01*
X158246681Y-79510437D01*
X158142022Y-79668716D01*
X158138716Y-79672022D01*
X157980437Y-79776681D01*
X157971646Y-79778386D01*
X157964479Y-79773745D01*
X157762403Y-79492245D01*
X157760363Y-79483526D01*
X157763633Y-79477151D01*
X157947150Y-79293634D01*
X157955422Y-79290208D01*
X157962245Y-79292403D01*
G37*
%TD.AperFunction*%
%TD*%
%TA.AperFunction,Conductor*%
%TO.N,GND*%
G36*
X158167950Y-80194578D02*
G01*
X158172612Y-80201760D01*
X158210523Y-80387662D01*
X158210523Y-80392338D01*
X158172600Y-80578298D01*
X158167589Y-80585719D01*
X158159276Y-80587511D01*
X157816344Y-80532284D01*
X157808721Y-80527586D01*
X157806504Y-80520733D01*
X157806504Y-80261212D01*
X157809931Y-80252939D01*
X157816280Y-80249671D01*
X158159228Y-80192557D01*
X158167950Y-80194578D01*
G37*
%TD.AperFunction*%
%TD*%
%TA.AperFunction,Conductor*%
%TO.N,GND*%
G36*
X139634264Y-88810392D02*
G01*
X139641685Y-88815403D01*
X139643471Y-88823752D01*
X139587310Y-89165692D01*
X139582588Y-89173301D01*
X139575765Y-89175496D01*
X139316235Y-89175496D01*
X139307962Y-89172069D01*
X139304690Y-89165692D01*
X139291176Y-89083413D01*
X139248528Y-88823750D01*
X139250568Y-88815033D01*
X139257733Y-88810392D01*
X139443666Y-88772476D01*
X139448334Y-88772476D01*
X139634264Y-88810392D01*
G37*
%TD.AperFunction*%
%TD*%
%TA.AperFunction,Conductor*%
%TO.N,GND*%
G36*
X139584038Y-89008931D02*
G01*
X139587310Y-89015308D01*
X139643471Y-89357247D01*
X139641431Y-89365966D01*
X139634264Y-89370607D01*
X139448338Y-89408523D01*
X139443662Y-89408523D01*
X139257735Y-89370607D01*
X139250314Y-89365596D01*
X139248528Y-89357249D01*
X139304690Y-89015308D01*
X139309412Y-89007699D01*
X139316235Y-89005504D01*
X139575765Y-89005504D01*
X139584038Y-89008931D01*
G37*
%TD.AperFunction*%
%TD*%
%TA.AperFunction,Conductor*%
%TO.N,GND*%
G36*
X139634264Y-89445392D02*
G01*
X139641685Y-89450403D01*
X139643471Y-89458752D01*
X139587310Y-89800692D01*
X139582588Y-89808301D01*
X139575765Y-89810496D01*
X139316235Y-89810496D01*
X139307962Y-89807069D01*
X139304690Y-89800692D01*
X139291176Y-89718413D01*
X139248528Y-89458750D01*
X139250568Y-89450033D01*
X139257733Y-89445392D01*
X139443666Y-89407476D01*
X139448334Y-89407476D01*
X139634264Y-89445392D01*
G37*
%TD.AperFunction*%
%TD*%
%TA.AperFunction,Conductor*%
%TO.N,/SWCLK*%
G36*
X152522626Y-83080090D02*
G01*
X152528529Y-83086823D01*
X152528913Y-83088244D01*
X152566426Y-83272196D01*
X152566426Y-83276872D01*
X152528913Y-83460823D01*
X152523902Y-83468244D01*
X152515111Y-83469949D01*
X152513690Y-83469565D01*
X152171348Y-83353427D01*
X152164615Y-83347524D01*
X152163407Y-83342347D01*
X152163407Y-83206720D01*
X152166834Y-83198447D01*
X152171348Y-83195640D01*
X152513691Y-83079502D01*
X152522626Y-83080090D01*
G37*
%TD.AperFunction*%
%TD*%
%TA.AperFunction,Conductor*%
%TO.N,/I2C1_SDA*%
G36*
X148720208Y-83255241D02*
G01*
X148720941Y-83256517D01*
X148880892Y-83580711D01*
X148881480Y-83589647D01*
X148878673Y-83594161D01*
X148782769Y-83690065D01*
X148774496Y-83693492D01*
X148769319Y-83692284D01*
X148445125Y-83532333D01*
X148439222Y-83525600D01*
X148439810Y-83516664D01*
X148440537Y-83515396D01*
X148544091Y-83358788D01*
X148547397Y-83355483D01*
X148703997Y-83251934D01*
X148712787Y-83250230D01*
X148720208Y-83255241D01*
G37*
%TD.AperFunction*%
%TD*%
%TA.AperFunction,Conductor*%
%TO.N,/ADC3_IN2*%
G36*
X140690841Y-85038896D02*
G01*
X140692115Y-85039628D01*
X140717947Y-85056708D01*
X140848716Y-85143177D01*
X140852022Y-85146483D01*
X140955570Y-85303082D01*
X140957275Y-85311873D01*
X140952264Y-85319294D01*
X140950988Y-85320027D01*
X140626794Y-85479978D01*
X140617858Y-85480566D01*
X140613344Y-85477759D01*
X140517440Y-85381855D01*
X140514013Y-85373582D01*
X140515220Y-85368407D01*
X140675172Y-85044210D01*
X140681905Y-85038308D01*
X140690841Y-85038896D01*
G37*
%TD.AperFunction*%
%TD*%
%TA.AperFunction,Conductor*%
%TO.N,+3.3V*%
G36*
X137442850Y-84356235D02*
G01*
X137626364Y-84539749D01*
X137629791Y-84548022D01*
X137627596Y-84554845D01*
X137425520Y-84836345D01*
X137417911Y-84841067D01*
X137409562Y-84839281D01*
X137251283Y-84734622D01*
X137247977Y-84731316D01*
X137143318Y-84573037D01*
X137141613Y-84564246D01*
X137146253Y-84557079D01*
X137427755Y-84355002D01*
X137436473Y-84352963D01*
X137442850Y-84356235D01*
G37*
%TD.AperFunction*%
%TD*%
%TA.AperFunction,Conductor*%
%TO.N,/DRV_SPI_NSS*%
G36*
X134975714Y-82748582D02*
G01*
X134977073Y-82749355D01*
X135060774Y-82804700D01*
X135133583Y-82852844D01*
X135136889Y-82856150D01*
X135240501Y-83012845D01*
X135242206Y-83021636D01*
X135237195Y-83029057D01*
X135236009Y-83029745D01*
X134914155Y-83192004D01*
X134905225Y-83192669D01*
X134900615Y-83189830D01*
X134804712Y-83093927D01*
X134801285Y-83085654D01*
X134802449Y-83080567D01*
X134960092Y-82754029D01*
X134966773Y-82748071D01*
X134975714Y-82748582D01*
G37*
%TD.AperFunction*%
%TD*%
%TA.AperFunction,Conductor*%
%TO.N,GND*%
G36*
X139469646Y-82460719D02*
G01*
X139627925Y-82565378D01*
X139631231Y-82568684D01*
X139735890Y-82726963D01*
X139737595Y-82735754D01*
X139732954Y-82742921D01*
X139451454Y-82944997D01*
X139442735Y-82947037D01*
X139436358Y-82943765D01*
X139252844Y-82760251D01*
X139249417Y-82751978D01*
X139251611Y-82745157D01*
X139453688Y-82463654D01*
X139461297Y-82458933D01*
X139469646Y-82460719D01*
G37*
%TD.AperFunction*%
%TD*%
%TA.AperFunction,Conductor*%
%TO.N,/MCU_STA*%
G36*
X161437887Y-79494616D02*
G01*
X161442632Y-79501856D01*
X161480019Y-79685190D01*
X161478314Y-79693981D01*
X161478257Y-79694068D01*
X161373071Y-79850107D01*
X161365605Y-79855051D01*
X161357749Y-79853829D01*
X161092431Y-79708529D01*
X161086821Y-79701549D01*
X161086351Y-79698267D01*
X161086351Y-79562626D01*
X161089778Y-79554353D01*
X161096029Y-79551102D01*
X161429148Y-79492670D01*
X161437887Y-79494616D01*
G37*
%TD.AperFunction*%
%TD*%
%TA.AperFunction,Conductor*%
%TO.N,/DRV_STA*%
G36*
X161126793Y-82435220D02*
G01*
X161299149Y-82520257D01*
X161450988Y-82595172D01*
X161456891Y-82601905D01*
X161456303Y-82610841D01*
X161455570Y-82612117D01*
X161352022Y-82768716D01*
X161348716Y-82772022D01*
X161192117Y-82875570D01*
X161183326Y-82877275D01*
X161175905Y-82872264D01*
X161175172Y-82870988D01*
X161042412Y-82601905D01*
X161015220Y-82546793D01*
X161014633Y-82537858D01*
X161017438Y-82533346D01*
X161113345Y-82437439D01*
X161121617Y-82434013D01*
X161126793Y-82435220D01*
G37*
%TD.AperFunction*%
%TD*%
%TA.AperFunction,Conductor*%
%TO.N,/SPI3_MISO*%
G36*
X146333625Y-88751038D02*
G01*
X146334962Y-88752677D01*
X146439375Y-88907320D01*
X146441162Y-88911631D01*
X146477072Y-89096094D01*
X146475290Y-89104870D01*
X146467824Y-89109814D01*
X146466212Y-89110013D01*
X146156110Y-89126582D01*
X146147666Y-89123602D01*
X146147213Y-89123172D01*
X146051499Y-89027458D01*
X146048072Y-89019185D01*
X146051499Y-89010912D01*
X146317080Y-88750863D01*
X146325388Y-88747525D01*
X146333625Y-88751038D01*
G37*
%TD.AperFunction*%
%TD*%
%TA.AperFunction,Conductor*%
%TO.N,/TIM1_CH2*%
G36*
X130889392Y-81923339D02*
G01*
X131061748Y-82008376D01*
X131213587Y-82083291D01*
X131219490Y-82090024D01*
X131218902Y-82098960D01*
X131218169Y-82100236D01*
X131114621Y-82256835D01*
X131111315Y-82260141D01*
X130954716Y-82363689D01*
X130945925Y-82365394D01*
X130938504Y-82360383D01*
X130937771Y-82359107D01*
X130805011Y-82090024D01*
X130777819Y-82034912D01*
X130777232Y-82025977D01*
X130780037Y-82021465D01*
X130875944Y-81925558D01*
X130884216Y-81922132D01*
X130889392Y-81923339D01*
G37*
%TD.AperFunction*%
%TD*%
%TA.AperFunction,Conductor*%
%TO.N,/TIM1_CH2N*%
G36*
X130459685Y-80446744D02*
G01*
X130464624Y-80454214D01*
X130464838Y-80456400D01*
X130466159Y-80830706D01*
X130462761Y-80838991D01*
X130454500Y-80842447D01*
X130319100Y-80842447D01*
X130310827Y-80839020D01*
X130310305Y-80838463D01*
X130105302Y-80604788D01*
X130102422Y-80596309D01*
X130106381Y-80588277D01*
X130107545Y-80587378D01*
X130263521Y-80482235D01*
X130267829Y-80480453D01*
X130450913Y-80444955D01*
X130459685Y-80446744D01*
G37*
%TD.AperFunction*%
%TD*%
%TA.AperFunction,Conductor*%
%TO.N,/TIM1_CH1N*%
G36*
X131376290Y-79616989D02*
G01*
X131383710Y-79622000D01*
X131385415Y-79630791D01*
X131385031Y-79632212D01*
X131268894Y-79974555D01*
X131262991Y-79981288D01*
X131257814Y-79982496D01*
X131122186Y-79982496D01*
X131113913Y-79979069D01*
X131111106Y-79974555D01*
X130994968Y-79632212D01*
X130995556Y-79623276D01*
X131002289Y-79617373D01*
X131003699Y-79616991D01*
X131187666Y-79579476D01*
X131192334Y-79579476D01*
X131376290Y-79616989D01*
G37*
%TD.AperFunction*%
%TD*%
%TA.AperFunction,Conductor*%
%TO.N,/SPI3_MOSI*%
G36*
X146624656Y-83891079D02*
G01*
X146625389Y-83892355D01*
X146785340Y-84216549D01*
X146785928Y-84225485D01*
X146783121Y-84229999D01*
X146687217Y-84325903D01*
X146678944Y-84329330D01*
X146673767Y-84328122D01*
X146626146Y-84304626D01*
X146625473Y-84304266D01*
X146567452Y-84270767D01*
X146567448Y-84270765D01*
X146546825Y-84265240D01*
X146544676Y-84264431D01*
X146349573Y-84168171D01*
X146343670Y-84161438D01*
X146344258Y-84152502D01*
X146344985Y-84151234D01*
X146448539Y-83994626D01*
X146451845Y-83991321D01*
X146608445Y-83887772D01*
X146617235Y-83886068D01*
X146624656Y-83891079D01*
G37*
%TD.AperFunction*%
%TD*%
%TA.AperFunction,Conductor*%
%TO.N,/DRV_STA*%
G36*
X151782207Y-80954966D02*
G01*
X152124555Y-81071106D01*
X152131288Y-81077009D01*
X152132496Y-81082186D01*
X152132496Y-81217813D01*
X152129069Y-81226086D01*
X152124555Y-81228893D01*
X151782212Y-81345031D01*
X151773276Y-81344443D01*
X151767373Y-81337710D01*
X151766991Y-81336296D01*
X151729476Y-81152334D01*
X151729476Y-81147665D01*
X151766990Y-80963708D01*
X151772000Y-80956289D01*
X151780791Y-80954584D01*
X151782207Y-80954966D01*
G37*
%TD.AperFunction*%
%TD*%
%TA.AperFunction,Conductor*%
%TO.N,/USART3_RX*%
G36*
X152619961Y-79351220D02*
G01*
X152625035Y-79358598D01*
X152625056Y-79358697D01*
X152662360Y-79541621D01*
X152660655Y-79550412D01*
X152660598Y-79550499D01*
X152555124Y-79706966D01*
X152547658Y-79711910D01*
X152540314Y-79710952D01*
X152269249Y-79579399D01*
X152263302Y-79572704D01*
X152262657Y-79568873D01*
X152262657Y-79433270D01*
X152266084Y-79424997D01*
X152271918Y-79421827D01*
X152611157Y-79349592D01*
X152619961Y-79351220D01*
G37*
%TD.AperFunction*%
%TD*%
%TA.AperFunction,Conductor*%
%TO.N,+3.3V*%
G36*
X158609498Y-76355598D02*
G01*
X158616919Y-76360609D01*
X158618705Y-76368958D01*
X158562544Y-76710898D01*
X158557822Y-76718507D01*
X158550999Y-76720702D01*
X158291469Y-76720702D01*
X158283196Y-76717275D01*
X158279924Y-76710898D01*
X158266410Y-76628619D01*
X158223762Y-76368956D01*
X158225802Y-76360239D01*
X158232967Y-76355598D01*
X158418900Y-76317682D01*
X158423568Y-76317682D01*
X158609498Y-76355598D01*
G37*
%TD.AperFunction*%
%TD*%
%TA.AperFunction,Conductor*%
%TO.N,GND*%
G36*
X131691120Y-86235820D02*
G01*
X131693143Y-86242396D01*
X131693143Y-86484366D01*
X131689716Y-86492639D01*
X131681443Y-86496066D01*
X131678354Y-86495651D01*
X131424531Y-86426164D01*
X131417456Y-86420674D01*
X131416335Y-86411790D01*
X131421043Y-86405202D01*
X131674867Y-86232718D01*
X131683636Y-86230903D01*
X131691120Y-86235820D01*
G37*
%TD.AperFunction*%
%TD*%
%TA.AperFunction,Conductor*%
%TO.N,GND*%
G36*
X158326966Y-73972568D02*
G01*
X158331607Y-73979735D01*
X158369523Y-74165662D01*
X158369523Y-74170338D01*
X158331607Y-74356264D01*
X158326596Y-74363685D01*
X158318247Y-74365471D01*
X157976308Y-74309310D01*
X157968699Y-74304588D01*
X157966504Y-74297765D01*
X157966504Y-74038234D01*
X157969931Y-74029961D01*
X157976305Y-74026690D01*
X158318249Y-73970528D01*
X158326966Y-73972568D01*
G37*
%TD.AperFunction*%
%TD*%
%TA.AperFunction,Conductor*%
%TO.N,GND*%
G36*
X156228236Y-83023901D02*
G01*
X156229424Y-83029037D01*
X156229424Y-83286184D01*
X156227486Y-83292633D01*
X156099170Y-83486855D01*
X156091750Y-83491869D01*
X156082959Y-83490168D01*
X156082948Y-83490161D01*
X155924721Y-83385059D01*
X155921441Y-83381774D01*
X155860464Y-83289700D01*
X155818221Y-83225913D01*
X155816510Y-83217123D01*
X155821516Y-83209698D01*
X155822840Y-83208941D01*
X156212588Y-83018524D01*
X156221526Y-83017972D01*
X156228236Y-83023901D01*
G37*
%TD.AperFunction*%
%TD*%
%TA.AperFunction,Conductor*%
%TO.N,GND*%
G36*
X133632463Y-86224970D02*
G01*
X133637565Y-86232329D01*
X133637831Y-86234809D01*
X133637831Y-86478630D01*
X133634404Y-86486903D01*
X133626131Y-86490330D01*
X133619946Y-86488562D01*
X133329547Y-86307715D01*
X133324336Y-86300432D01*
X133325800Y-86291598D01*
X133333083Y-86286387D01*
X133333158Y-86286370D01*
X133623651Y-86223375D01*
X133632463Y-86224970D01*
G37*
%TD.AperFunction*%
%TD*%
%TA.AperFunction,Conductor*%
%TO.N,GND*%
G36*
X123463001Y-83678478D02*
G01*
X123470479Y-83683402D01*
X123472496Y-83689969D01*
X123472496Y-83949490D01*
X123469069Y-83957763D01*
X123462380Y-83961082D01*
X123120500Y-84007811D01*
X123111839Y-84005536D01*
X123107452Y-83998557D01*
X123097446Y-83949490D01*
X123069476Y-83812334D01*
X123069476Y-83807665D01*
X123107331Y-83622034D01*
X123112342Y-83614614D01*
X123120998Y-83612882D01*
X123463001Y-83678478D01*
G37*
%TD.AperFunction*%
%TD*%
%TA.AperFunction,Conductor*%
%TO.N,GND*%
G36*
X130697552Y-75491290D02*
G01*
X130705217Y-75495920D01*
X130707496Y-75502857D01*
X130707496Y-75762385D01*
X130704069Y-75770658D01*
X130697831Y-75773907D01*
X130355863Y-75834313D01*
X130347120Y-75832377D01*
X130342365Y-75825130D01*
X130304476Y-75639334D01*
X130304476Y-75634665D01*
X130342419Y-75448600D01*
X130347430Y-75441181D01*
X130355636Y-75439373D01*
X130697552Y-75491290D01*
G37*
%TD.AperFunction*%
%TD*%
%TA.AperFunction,Conductor*%
%TO.N,GND*%
G36*
X139728774Y-71607496D02*
G01*
X139736195Y-71612507D01*
X139738058Y-71620308D01*
X139698401Y-71962144D01*
X139694044Y-71969967D01*
X139686779Y-71972496D01*
X139427276Y-71972496D01*
X139419003Y-71969069D01*
X139415831Y-71963228D01*
X139343155Y-71621180D01*
X139344788Y-71612375D01*
X139352165Y-71607304D01*
X139537666Y-71569476D01*
X139542334Y-71569476D01*
X139728774Y-71607496D01*
G37*
%TD.AperFunction*%
%TD*%
%TA.AperFunction,Conductor*%
%TO.N,GND*%
G36*
X128688264Y-71665392D02*
G01*
X128695685Y-71670403D01*
X128697471Y-71678752D01*
X128641310Y-72020692D01*
X128636588Y-72028301D01*
X128629765Y-72030496D01*
X128370235Y-72030496D01*
X128361962Y-72027069D01*
X128358690Y-72020692D01*
X128345176Y-71938413D01*
X128302528Y-71678750D01*
X128304568Y-71670033D01*
X128311733Y-71665392D01*
X128497666Y-71627476D01*
X128502334Y-71627476D01*
X128688264Y-71665392D01*
G37*
%TD.AperFunction*%
%TD*%
%TA.AperFunction,Conductor*%
%TO.N,GND*%
G36*
X157808038Y-86510931D02*
G01*
X157811310Y-86517308D01*
X157867471Y-86859247D01*
X157865431Y-86867966D01*
X157858264Y-86872607D01*
X157672338Y-86910523D01*
X157667662Y-86910523D01*
X157481735Y-86872607D01*
X157474314Y-86867596D01*
X157472528Y-86859249D01*
X157528690Y-86517308D01*
X157533412Y-86509699D01*
X157540235Y-86507504D01*
X157799765Y-86507504D01*
X157808038Y-86510931D01*
G37*
%TD.AperFunction*%
%TD*%
%TA.AperFunction,Conductor*%
%TO.N,GND*%
G36*
X135036216Y-74600243D02*
G01*
X135378303Y-74675283D01*
X135385650Y-74680403D01*
X135387496Y-74686711D01*
X135387496Y-74946207D01*
X135384069Y-74954480D01*
X135377065Y-74957838D01*
X135035243Y-74995139D01*
X135026647Y-74992630D01*
X135022511Y-74985848D01*
X134984476Y-74799334D01*
X134984476Y-74794665D01*
X135022269Y-74609336D01*
X135027280Y-74601917D01*
X135036071Y-74600212D01*
X135036216Y-74600243D01*
G37*
%TD.AperFunction*%
%TD*%
%TA.AperFunction,Conductor*%
%TO.N,GND*%
G36*
X123422437Y-89857816D02*
G01*
X123422657Y-89857968D01*
X123650212Y-90019293D01*
X123730454Y-90076180D01*
X123735221Y-90083761D01*
X123733232Y-90092492D01*
X123731960Y-90093998D01*
X123548728Y-90277230D01*
X123540455Y-90280657D01*
X123537940Y-90280384D01*
X123271509Y-90221750D01*
X123264166Y-90216625D01*
X123262540Y-90208087D01*
X123298838Y-90021627D01*
X123300622Y-90017324D01*
X123406193Y-89860965D01*
X123413663Y-89856027D01*
X123422437Y-89857816D01*
G37*
%TD.AperFunction*%
%TD*%
%TA.AperFunction,Conductor*%
%TO.N,GND*%
G36*
X156018275Y-88974405D02*
G01*
X156022512Y-88981268D01*
X156060523Y-89167662D01*
X156060523Y-89172338D01*
X156022705Y-89357783D01*
X156017694Y-89365204D01*
X156008903Y-89366909D01*
X156008855Y-89366899D01*
X155666818Y-89295640D01*
X155659417Y-89290598D01*
X155657504Y-89284186D01*
X155657504Y-89024678D01*
X155660931Y-89016405D01*
X155667808Y-89013062D01*
X156009652Y-88971990D01*
X156018275Y-88974405D01*
G37*
%TD.AperFunction*%
%TD*%
%TA.AperFunction,Conductor*%
%TO.N,GND*%
G36*
X141428937Y-87170931D02*
G01*
X141432300Y-87177982D01*
X141468186Y-87519794D01*
X141465642Y-87528380D01*
X141458888Y-87532480D01*
X141272338Y-87570523D01*
X141267662Y-87570523D01*
X141082384Y-87532739D01*
X141074963Y-87527728D01*
X141073258Y-87518937D01*
X141073304Y-87518723D01*
X141149755Y-87176652D01*
X141154904Y-87169326D01*
X141161173Y-87167504D01*
X141420664Y-87167504D01*
X141428937Y-87170931D01*
G37*
%TD.AperFunction*%
%TD*%
%TA.AperFunction,Conductor*%
%TO.N,GND*%
G36*
X121981264Y-90244392D02*
G01*
X121988685Y-90249403D01*
X121990471Y-90257752D01*
X121934310Y-90599692D01*
X121929588Y-90607301D01*
X121922765Y-90609496D01*
X121663235Y-90609496D01*
X121654962Y-90606069D01*
X121651690Y-90599692D01*
X121638176Y-90517413D01*
X121595528Y-90257750D01*
X121597568Y-90249033D01*
X121604733Y-90244392D01*
X121790666Y-90206476D01*
X121795334Y-90206476D01*
X121981264Y-90244392D01*
G37*
%TD.AperFunction*%
%TD*%
%TA.AperFunction,Conductor*%
%TO.N,GND*%
G36*
X161501966Y-74607568D02*
G01*
X161506607Y-74614735D01*
X161544523Y-74800662D01*
X161544523Y-74805338D01*
X161506607Y-74991264D01*
X161501596Y-74998685D01*
X161493247Y-75000471D01*
X161151308Y-74944310D01*
X161143699Y-74939588D01*
X161141504Y-74932765D01*
X161141504Y-74673234D01*
X161144931Y-74664961D01*
X161151305Y-74661690D01*
X161493249Y-74605528D01*
X161501966Y-74607568D01*
G37*
%TD.AperFunction*%
%TD*%
%TA.AperFunction,Conductor*%
%TO.N,GND*%
G36*
X122498601Y-86517461D02*
G01*
X122506021Y-86522471D01*
X122507861Y-86530461D01*
X122462547Y-86872333D01*
X122458062Y-86880084D01*
X122450948Y-86882496D01*
X122191430Y-86882496D01*
X122183157Y-86879069D01*
X122179948Y-86873046D01*
X122112936Y-86531034D01*
X122114708Y-86522258D01*
X122122079Y-86517322D01*
X122307666Y-86479476D01*
X122312334Y-86479476D01*
X122498601Y-86517461D01*
G37*
%TD.AperFunction*%
%TD*%
%TA.AperFunction,Conductor*%
%TO.N,GND*%
G36*
X148818264Y-90556592D02*
G01*
X148825685Y-90561603D01*
X148827471Y-90569952D01*
X148771310Y-90911892D01*
X148766588Y-90919501D01*
X148759765Y-90921696D01*
X148500235Y-90921696D01*
X148491962Y-90918269D01*
X148488690Y-90911892D01*
X148475176Y-90829613D01*
X148432528Y-90569950D01*
X148434568Y-90561233D01*
X148441733Y-90556592D01*
X148627666Y-90518676D01*
X148632334Y-90518676D01*
X148818264Y-90556592D01*
G37*
%TD.AperFunction*%
%TD*%
%TA.AperFunction,Conductor*%
%TO.N,GND*%
G36*
X149028484Y-73237437D02*
G01*
X149035905Y-73242448D01*
X149037727Y-73250564D01*
X148988641Y-73592459D01*
X148984073Y-73600161D01*
X148977060Y-73602496D01*
X148717535Y-73602496D01*
X148709262Y-73599069D01*
X148706030Y-73592923D01*
X148692273Y-73518530D01*
X148642792Y-73250935D01*
X148644657Y-73242179D01*
X148651957Y-73237347D01*
X148837666Y-73199476D01*
X148842334Y-73199476D01*
X149028484Y-73237437D01*
G37*
%TD.AperFunction*%
%TD*%
%TA.AperFunction,Conductor*%
%TO.N,GND*%
G36*
X165858264Y-91847392D02*
G01*
X165865685Y-91852403D01*
X165867471Y-91860752D01*
X165811310Y-92202692D01*
X165806588Y-92210301D01*
X165799765Y-92212496D01*
X165540235Y-92212496D01*
X165531962Y-92209069D01*
X165528690Y-92202692D01*
X165515176Y-92120413D01*
X165472528Y-91860750D01*
X165474568Y-91852033D01*
X165481733Y-91847392D01*
X165667666Y-91809476D01*
X165672334Y-91809476D01*
X165858264Y-91847392D01*
G37*
%TD.AperFunction*%
%TD*%
%TA.AperFunction,Conductor*%
%TO.N,GND*%
G36*
X142826578Y-75980931D02*
G01*
X142829843Y-75987261D01*
X142887418Y-76329209D01*
X142885412Y-76337937D01*
X142878218Y-76342616D01*
X142692338Y-76380523D01*
X142687662Y-76380523D01*
X142501691Y-76342598D01*
X142494270Y-76337587D01*
X142492476Y-76329286D01*
X142547223Y-75987354D01*
X142551915Y-75979727D01*
X142558776Y-75977504D01*
X142818305Y-75977504D01*
X142826578Y-75980931D01*
G37*
%TD.AperFunction*%
%TD*%
%TA.AperFunction,Conductor*%
%TO.N,GND*%
G36*
X134198809Y-71657503D02*
G01*
X134206230Y-71662514D01*
X134208098Y-71670276D01*
X134169620Y-72012105D01*
X134165289Y-72019943D01*
X134157993Y-72022496D01*
X133898493Y-72022496D01*
X133890220Y-72019069D01*
X133887057Y-72013265D01*
X133876390Y-71963864D01*
X133813201Y-71671208D01*
X133814804Y-71662400D01*
X133822168Y-71657305D01*
X133822252Y-71657286D01*
X134007666Y-71619476D01*
X134012334Y-71619476D01*
X134198809Y-71657503D01*
G37*
%TD.AperFunction*%
%TD*%
%TA.AperFunction,Conductor*%
%TO.N,GND*%
G36*
X132015098Y-83697335D02*
G01*
X132016969Y-83698855D01*
X132201509Y-83883395D01*
X132204846Y-83890223D01*
X132250601Y-84257758D01*
X132248223Y-84266391D01*
X132241294Y-84270674D01*
X131957077Y-84327746D01*
X131948292Y-84326015D01*
X131948243Y-84325982D01*
X131846847Y-84257758D01*
X131709145Y-84165106D01*
X131704195Y-84157646D01*
X131705883Y-84149000D01*
X131998903Y-83700725D01*
X132006298Y-83695676D01*
X132015098Y-83697335D01*
G37*
%TD.AperFunction*%
%TD*%
%TA.AperFunction,Conductor*%
%TO.N,GND*%
G36*
X163957966Y-91494568D02*
G01*
X163962607Y-91501735D01*
X164000523Y-91687662D01*
X164000523Y-91692338D01*
X163962607Y-91878264D01*
X163957596Y-91885685D01*
X163949247Y-91887471D01*
X163607308Y-91831310D01*
X163599699Y-91826588D01*
X163597504Y-91819765D01*
X163597504Y-91560234D01*
X163600931Y-91551961D01*
X163607305Y-91548690D01*
X163949249Y-91492528D01*
X163957966Y-91494568D01*
G37*
%TD.AperFunction*%
%TD*%
%TA.AperFunction,Conductor*%
%TO.N,GND*%
G36*
X158338313Y-75514387D02*
G01*
X158342500Y-75521211D01*
X158380523Y-75707662D01*
X158380523Y-75712338D01*
X158342718Y-75897722D01*
X158337707Y-75905143D01*
X158328916Y-75906848D01*
X158328807Y-75906825D01*
X157986757Y-75833678D01*
X157979384Y-75828597D01*
X157977504Y-75822237D01*
X157977504Y-75562735D01*
X157980931Y-75554462D01*
X157987869Y-75551111D01*
X158329704Y-75511925D01*
X158338313Y-75514387D01*
G37*
%TD.AperFunction*%
%TD*%
%TA.AperFunction,Conductor*%
%TO.N,GND*%
G36*
X166087574Y-80284822D02*
G01*
X166092694Y-80292169D01*
X166092730Y-80292338D01*
X166130523Y-80477662D01*
X166130523Y-80482338D01*
X166092489Y-80668846D01*
X166087478Y-80676267D01*
X166079756Y-80678139D01*
X165737935Y-80640838D01*
X165730082Y-80636534D01*
X165727504Y-80629207D01*
X165727504Y-80369711D01*
X165730931Y-80361438D01*
X165736695Y-80358283D01*
X166078759Y-80283248D01*
X166087574Y-80284822D01*
G37*
%TD.AperFunction*%
%TD*%
%TA.AperFunction,Conductor*%
%TO.N,GND*%
G36*
X133552966Y-76131568D02*
G01*
X133557607Y-76138735D01*
X133595523Y-76324662D01*
X133595523Y-76329338D01*
X133557607Y-76515264D01*
X133552596Y-76522685D01*
X133544247Y-76524471D01*
X133202308Y-76468310D01*
X133194699Y-76463588D01*
X133192504Y-76456765D01*
X133192504Y-76197234D01*
X133195931Y-76188961D01*
X133202305Y-76185690D01*
X133544249Y-76129528D01*
X133552966Y-76131568D01*
G37*
%TD.AperFunction*%
%TD*%
%TA.AperFunction,Conductor*%
%TO.N,GND*%
G36*
X153798278Y-75171595D02*
G01*
X153805699Y-75176606D01*
X153807488Y-75184940D01*
X153751799Y-75526877D01*
X153747087Y-75534491D01*
X153740251Y-75536696D01*
X153480722Y-75536696D01*
X153472449Y-75533269D01*
X153469179Y-75526908D01*
X153412546Y-75184965D01*
X153414575Y-75176243D01*
X153421750Y-75171589D01*
X153607666Y-75133676D01*
X153612334Y-75133676D01*
X153798278Y-75171595D01*
G37*
%TD.AperFunction*%
%TD*%
%TA.AperFunction,Conductor*%
%TO.N,GND*%
G36*
X150798023Y-90711106D02*
G01*
X150798308Y-90711558D01*
X150858994Y-90812639D01*
X150921960Y-90917520D01*
X150923629Y-90923541D01*
X150923629Y-91180354D01*
X150920202Y-91188627D01*
X150911929Y-91192054D01*
X150906496Y-91190716D01*
X150521635Y-90988922D01*
X150515899Y-90982045D01*
X150516706Y-90973127D01*
X150517307Y-90972109D01*
X150620744Y-90815921D01*
X150624018Y-90812642D01*
X150781804Y-90707833D01*
X150790591Y-90706111D01*
X150798023Y-90711106D01*
G37*
%TD.AperFunction*%
%TD*%
%TA.AperFunction,Conductor*%
%TO.N,GND*%
G36*
X163079011Y-84180931D02*
G01*
X163082288Y-84187339D01*
X163137505Y-84529272D01*
X163135441Y-84537985D01*
X163128293Y-84542601D01*
X162942338Y-84580523D01*
X162937662Y-84580523D01*
X162751765Y-84542613D01*
X162744344Y-84537602D01*
X162742563Y-84529223D01*
X162799668Y-84187277D01*
X162804411Y-84179681D01*
X162811208Y-84177504D01*
X163070738Y-84177504D01*
X163079011Y-84180931D01*
G37*
%TD.AperFunction*%
%TD*%
%TA.AperFunction,Conductor*%
%TO.N,GND*%
G36*
X123041812Y-85711369D02*
G01*
X123049756Y-85715501D01*
X123052496Y-85723025D01*
X123052496Y-85982488D01*
X123049069Y-85990761D01*
X123043542Y-85993861D01*
X122701429Y-86076450D01*
X122692582Y-86075061D01*
X122687310Y-86067823D01*
X122687219Y-86067415D01*
X122672219Y-85993861D01*
X122649476Y-85882334D01*
X122649476Y-85877665D01*
X122687557Y-85690926D01*
X122692568Y-85683506D01*
X122700035Y-85681609D01*
X123041812Y-85711369D01*
G37*
%TD.AperFunction*%
%TD*%
%TA.AperFunction,Conductor*%
%TO.N,GND*%
G36*
X130864474Y-84674039D02*
G01*
X130867069Y-84677978D01*
X131103747Y-85271507D01*
X131103628Y-85280461D01*
X131097213Y-85286709D01*
X131095193Y-85287310D01*
X130813015Y-85344241D01*
X130808398Y-85344243D01*
X130524320Y-85287199D01*
X130516883Y-85282210D01*
X130515152Y-85273425D01*
X130515602Y-85271801D01*
X130662041Y-84861519D01*
X130664784Y-84857183D01*
X130847929Y-84674038D01*
X130856201Y-84670612D01*
X130864474Y-84674039D01*
G37*
%TD.AperFunction*%
%TD*%
%TA.AperFunction,Conductor*%
%TO.N,+3.3V*%
G36*
X126172264Y-73062392D02*
G01*
X126179685Y-73067403D01*
X126181471Y-73075752D01*
X126125310Y-73417692D01*
X126120588Y-73425301D01*
X126113765Y-73427496D01*
X125854235Y-73427496D01*
X125845962Y-73424069D01*
X125842690Y-73417692D01*
X125829176Y-73335413D01*
X125786528Y-73075750D01*
X125788568Y-73067033D01*
X125795733Y-73062392D01*
X125981666Y-73024476D01*
X125986334Y-73024476D01*
X126172264Y-73062392D01*
G37*
%TD.AperFunction*%
%TD*%
%TA.AperFunction,Conductor*%
%TO.N,+3.3V*%
G36*
X143961711Y-75950931D02*
G01*
X143964949Y-75957107D01*
X144027242Y-76299086D01*
X144025353Y-76307840D01*
X144018069Y-76312647D01*
X143832338Y-76350523D01*
X143827662Y-76350523D01*
X143641544Y-76312568D01*
X143634123Y-76307557D01*
X143632305Y-76299412D01*
X143682336Y-75957510D01*
X143686925Y-75949820D01*
X143693913Y-75947504D01*
X143953438Y-75947504D01*
X143961711Y-75950931D01*
G37*
%TD.AperFunction*%
%TD*%
%TA.AperFunction,Conductor*%
%TO.N,+3.3V*%
G36*
X163128293Y-79417398D02*
G01*
X163135714Y-79422409D01*
X163137505Y-79430727D01*
X163082288Y-79772661D01*
X163077586Y-79780282D01*
X163070738Y-79782496D01*
X162811208Y-79782496D01*
X162802935Y-79779069D01*
X162799668Y-79772723D01*
X162792595Y-79730374D01*
X162742563Y-79430775D01*
X162744580Y-79422053D01*
X162751764Y-79417386D01*
X162937666Y-79379476D01*
X162942334Y-79379476D01*
X163128293Y-79417398D01*
G37*
%TD.AperFunction*%
%TD*%
%TA.AperFunction,Conductor*%
%TO.N,+3.3V*%
G36*
X161468044Y-83374524D02*
G01*
X161472583Y-83381617D01*
X161510523Y-83567662D01*
X161510523Y-83572338D01*
X161472631Y-83758145D01*
X161467620Y-83765566D01*
X161459147Y-83767331D01*
X161117184Y-83707396D01*
X161109627Y-83702593D01*
X161107504Y-83695872D01*
X161107504Y-83436343D01*
X161110931Y-83428070D01*
X161117429Y-83424779D01*
X161459349Y-83372390D01*
X161468044Y-83374524D01*
G37*
%TD.AperFunction*%
%TD*%
%TA.AperFunction,Conductor*%
%TO.N,+3.3V*%
G36*
X154938130Y-75171565D02*
G01*
X154945550Y-75176575D01*
X154947313Y-75185063D01*
X154886907Y-75527031D01*
X154882093Y-75534582D01*
X154875385Y-75536696D01*
X154615857Y-75536696D01*
X154607584Y-75533269D01*
X154604290Y-75526752D01*
X154552373Y-75184837D01*
X154554519Y-75176146D01*
X154561600Y-75171619D01*
X154747666Y-75133676D01*
X154752334Y-75133676D01*
X154938130Y-75171565D01*
G37*
%TD.AperFunction*%
%TD*%
%TA.AperFunction,Conductor*%
%TO.N,+3.3V*%
G36*
X153137849Y-89714639D02*
G01*
X153142644Y-89721914D01*
X153180523Y-89907662D01*
X153180523Y-89912338D01*
X153142571Y-90098441D01*
X153137560Y-90105862D01*
X153129397Y-90107677D01*
X152787494Y-90057175D01*
X152779811Y-90052576D01*
X152777504Y-90045601D01*
X152777504Y-89786074D01*
X152780931Y-89777801D01*
X152787122Y-89774561D01*
X153129099Y-89712739D01*
X153137849Y-89714639D01*
G37*
%TD.AperFunction*%
%TD*%
%TA.AperFunction,Conductor*%
%TO.N,+3.3V*%
G36*
X156670181Y-86494681D02*
G01*
X156673304Y-86500305D01*
X156752823Y-86842397D01*
X156751358Y-86851231D01*
X156744076Y-86856442D01*
X156743765Y-86856510D01*
X156558588Y-86894273D01*
X156553912Y-86894273D01*
X156367268Y-86856211D01*
X156359847Y-86851200D01*
X156357960Y-86843629D01*
X156358079Y-86842397D01*
X156390784Y-86501836D01*
X156394986Y-86493928D01*
X156402430Y-86491254D01*
X156661908Y-86491254D01*
X156670181Y-86494681D01*
G37*
%TD.AperFunction*%
%TD*%
%TA.AperFunction,Conductor*%
%TO.N,+3.3V*%
G36*
X140038038Y-84746131D02*
G01*
X140041310Y-84752508D01*
X140097471Y-85094447D01*
X140095431Y-85103166D01*
X140088264Y-85107807D01*
X139902338Y-85145723D01*
X139897662Y-85145723D01*
X139711735Y-85107807D01*
X139704314Y-85102796D01*
X139702528Y-85094449D01*
X139758690Y-84752508D01*
X139763412Y-84744899D01*
X139770235Y-84742704D01*
X140029765Y-84742704D01*
X140038038Y-84746131D01*
G37*
%TD.AperFunction*%
%TD*%
%TA.AperFunction,Conductor*%
%TO.N,+3.3V*%
G36*
X166138160Y-79314463D02*
G01*
X166142547Y-79321442D01*
X166180523Y-79507662D01*
X166180523Y-79512338D01*
X166142668Y-79697964D01*
X166137657Y-79705385D01*
X166129000Y-79707117D01*
X165787000Y-79641521D01*
X165779521Y-79636597D01*
X165777504Y-79630030D01*
X165777504Y-79370509D01*
X165780931Y-79362236D01*
X165787619Y-79358917D01*
X166129499Y-79312188D01*
X166138160Y-79314463D01*
G37*
%TD.AperFunction*%
%TD*%
%TA.AperFunction,Conductor*%
%TO.N,+3.3V*%
G36*
X140767585Y-71707253D02*
G01*
X140775005Y-71712264D01*
X140776710Y-71721055D01*
X140776658Y-71721299D01*
X140699263Y-72063378D01*
X140694095Y-72070691D01*
X140687851Y-72072496D01*
X140428365Y-72072496D01*
X140420092Y-72069069D01*
X140416726Y-72061986D01*
X140381781Y-71720179D01*
X140384348Y-71711600D01*
X140391080Y-71707525D01*
X140577666Y-71669476D01*
X140582334Y-71669476D01*
X140767585Y-71707253D01*
G37*
%TD.AperFunction*%
%TD*%
%TA.AperFunction,Conductor*%
%TO.N,+3.3V*%
G36*
X161389185Y-80729915D02*
G01*
X161546920Y-80834690D01*
X161551915Y-80842122D01*
X161551932Y-80842209D01*
X161587724Y-81026806D01*
X161585935Y-81035580D01*
X161580146Y-81040061D01*
X161241232Y-81160168D01*
X161232290Y-81159701D01*
X161226296Y-81153048D01*
X161225624Y-81149140D01*
X161225624Y-80891009D01*
X161228886Y-80882904D01*
X161374275Y-80731554D01*
X161382476Y-80727963D01*
X161389185Y-80729915D01*
G37*
%TD.AperFunction*%
%TD*%
%TA.AperFunction,Conductor*%
%TO.N,+3.3V*%
G36*
X162208917Y-90987525D02*
G01*
X162216338Y-90992536D01*
X162218218Y-91000179D01*
X162183274Y-91341986D01*
X162179024Y-91349868D01*
X162171635Y-91352496D01*
X161912149Y-91352496D01*
X161903876Y-91349069D01*
X161900737Y-91343378D01*
X161823341Y-91001299D01*
X161824858Y-90992473D01*
X161832171Y-90987305D01*
X161832327Y-90987271D01*
X162017666Y-90949476D01*
X162022334Y-90949476D01*
X162208917Y-90987525D01*
G37*
%TD.AperFunction*%
%TD*%
%TA.AperFunction,Conductor*%
%TO.N,+3.3V*%
G36*
X140208264Y-88037392D02*
G01*
X140215685Y-88042403D01*
X140217471Y-88050752D01*
X140161310Y-88392692D01*
X140156588Y-88400301D01*
X140149765Y-88402496D01*
X139890235Y-88402496D01*
X139881962Y-88399069D01*
X139878690Y-88392692D01*
X139865176Y-88310413D01*
X139822528Y-88050750D01*
X139824568Y-88042033D01*
X139831733Y-88037392D01*
X140017666Y-87999476D01*
X140022334Y-87999476D01*
X140208264Y-88037392D01*
G37*
%TD.AperFunction*%
%TD*%
%TA.AperFunction,Conductor*%
%TO.N,+3.3V*%
G36*
X139457693Y-76947690D02*
G01*
X139465300Y-76952411D01*
X139467496Y-76959234D01*
X139467496Y-77218764D01*
X139464069Y-77227037D01*
X139457692Y-77230309D01*
X139446001Y-77232229D01*
X139446000Y-77232230D01*
X139104642Y-77288296D01*
X139064000Y-77089000D01*
X139104642Y-76889704D01*
X139457693Y-76947690D01*
G37*
%TD.AperFunction*%
%TD*%
%TA.AperFunction,Conductor*%
%TO.N,+3.3V*%
G36*
X142564360Y-87180931D02*
G01*
X142567664Y-87187510D01*
X142617694Y-87529410D01*
X142615501Y-87538092D01*
X142608455Y-87542568D01*
X142422338Y-87580523D01*
X142417662Y-87580523D01*
X142231930Y-87542647D01*
X142224509Y-87537636D01*
X142222757Y-87529086D01*
X142285051Y-87187107D01*
X142289905Y-87179582D01*
X142296562Y-87177504D01*
X142556087Y-87177504D01*
X142564360Y-87180931D01*
G37*
%TD.AperFunction*%
%TD*%
%TA.AperFunction,Conductor*%
%TO.N,+3.3V*%
G36*
X147269477Y-90408634D02*
G01*
X147276897Y-90413645D01*
X147278677Y-90422033D01*
X147221337Y-90763981D01*
X147216589Y-90771573D01*
X147209798Y-90773746D01*
X146950269Y-90773746D01*
X146941996Y-90770319D01*
X146938717Y-90763903D01*
X146883735Y-90421970D01*
X146885805Y-90413258D01*
X146892947Y-90408650D01*
X147078916Y-90370726D01*
X147083584Y-90370726D01*
X147269477Y-90408634D01*
G37*
%TD.AperFunction*%
%TD*%
%TA.AperFunction,Conductor*%
%TO.N,+3.3V*%
G36*
X141894806Y-88584722D02*
G01*
X141899750Y-88592188D01*
X141899952Y-88593855D01*
X141913432Y-88870941D01*
X141910411Y-88879371D01*
X141910019Y-88879783D01*
X141727197Y-89062605D01*
X141718924Y-89066032D01*
X141710651Y-89062605D01*
X141708642Y-89059916D01*
X141536115Y-88742227D01*
X141535179Y-88733321D01*
X141539848Y-88726947D01*
X141697324Y-88620622D01*
X141701627Y-88618838D01*
X141886031Y-88582940D01*
X141894806Y-88584722D01*
G37*
%TD.AperFunction*%
%TD*%
%TA.AperFunction,Conductor*%
%TO.N,+5V*%
G36*
X123765736Y-89273479D02*
G01*
X123773344Y-89278200D01*
X123775539Y-89285023D01*
X123775539Y-89544554D01*
X123772112Y-89552827D01*
X123765735Y-89556099D01*
X123423795Y-89612260D01*
X123415076Y-89610220D01*
X123410435Y-89603053D01*
X123400860Y-89556099D01*
X123372519Y-89417123D01*
X123372519Y-89412454D01*
X123410435Y-89226522D01*
X123415446Y-89219103D01*
X123423793Y-89217317D01*
X123765736Y-89273479D01*
G37*
%TD.AperFunction*%
%TD*%
%TA.AperFunction,Conductor*%
%TO.N,+5V*%
G36*
X152597277Y-91260931D02*
G01*
X152600594Y-91267604D01*
X152647795Y-91609486D01*
X152645532Y-91618150D01*
X152638543Y-91622550D01*
X152452338Y-91660523D01*
X152447662Y-91660523D01*
X152262019Y-91622665D01*
X152254598Y-91617654D01*
X152252864Y-91609013D01*
X152317989Y-91267015D01*
X152322903Y-91259529D01*
X152329482Y-91257504D01*
X152589004Y-91257504D01*
X152597277Y-91260931D01*
G37*
%TD.AperFunction*%
%TD*%
%TA.AperFunction,Conductor*%
%TO.N,+5V*%
G36*
X130694693Y-76566690D02*
G01*
X130702301Y-76571411D01*
X130704496Y-76578234D01*
X130704496Y-76837765D01*
X130701069Y-76846038D01*
X130694692Y-76849310D01*
X130352752Y-76905471D01*
X130344033Y-76903431D01*
X130339392Y-76896264D01*
X130329817Y-76849310D01*
X130301476Y-76710334D01*
X130301476Y-76705665D01*
X130339392Y-76519733D01*
X130344403Y-76512314D01*
X130352750Y-76510528D01*
X130694693Y-76566690D01*
G37*
%TD.AperFunction*%
%TD*%
%TA.AperFunction,Conductor*%
%TO.N,+5V*%
G36*
X135268264Y-71717392D02*
G01*
X135275685Y-71722403D01*
X135277471Y-71730752D01*
X135221310Y-72072692D01*
X135216588Y-72080301D01*
X135209765Y-72082496D01*
X134950235Y-72082496D01*
X134941962Y-72079069D01*
X134938690Y-72072692D01*
X134925176Y-71990413D01*
X134882528Y-71730750D01*
X134884568Y-71722033D01*
X134891733Y-71717392D01*
X135077666Y-71679476D01*
X135082334Y-71679476D01*
X135268264Y-71717392D01*
G37*
%TD.AperFunction*%
%TD*%
%TA.AperFunction,Conductor*%
%TO.N,+5V*%
G36*
X127568293Y-76487398D02*
G01*
X127575714Y-76492409D01*
X127577505Y-76500727D01*
X127522288Y-76842661D01*
X127517586Y-76850282D01*
X127510738Y-76852496D01*
X127251208Y-76852496D01*
X127242935Y-76849069D01*
X127239668Y-76842723D01*
X127232595Y-76800374D01*
X127182563Y-76500775D01*
X127184580Y-76492053D01*
X127191764Y-76487386D01*
X127377666Y-76449476D01*
X127382334Y-76449476D01*
X127568293Y-76487398D01*
G37*
%TD.AperFunction*%
%TD*%
%TA.AperFunction,Conductor*%
%TO.N,+36V*%
G36*
X129572355Y-88947297D02*
G01*
X129775102Y-89150044D01*
X129778529Y-89158317D01*
X129777334Y-89163467D01*
X129537649Y-89652362D01*
X129530931Y-89658282D01*
X129521994Y-89657717D01*
X129520676Y-89656961D01*
X129283606Y-89499674D01*
X129280325Y-89496393D01*
X129122046Y-89257828D01*
X129120327Y-89249040D01*
X129125186Y-89241706D01*
X129557476Y-88945913D01*
X129566238Y-88944070D01*
X129572355Y-88947297D01*
G37*
%TD.AperFunction*%
%TD*%
%TA.AperFunction,Conductor*%
%TO.N,+36V*%
G36*
X129286339Y-89499347D02*
G01*
X129286398Y-89499386D01*
X129522057Y-89657793D01*
X129527011Y-89665252D01*
X129525240Y-89674030D01*
X129525231Y-89674044D01*
X129273178Y-90047877D01*
X129265712Y-90052821D01*
X129263477Y-90053036D01*
X129001949Y-90053036D01*
X128993676Y-90049609D01*
X128990249Y-90041388D01*
X128989209Y-89806083D01*
X128988147Y-89565797D01*
X128991537Y-89557510D01*
X128997524Y-89554280D01*
X129277551Y-89497628D01*
X129286339Y-89499347D01*
G37*
%TD.AperFunction*%
%TD*%
%TA.AperFunction,Conductor*%
%TO.N,+36V*%
G36*
X125904128Y-85339253D02*
G01*
X126089246Y-85524371D01*
X126092673Y-85532644D01*
X126091215Y-85538300D01*
X125832075Y-86007561D01*
X125825076Y-86013147D01*
X125816177Y-86012147D01*
X125815365Y-86011654D01*
X125577765Y-85854015D01*
X125574484Y-85850734D01*
X125416845Y-85613134D01*
X125415126Y-85604346D01*
X125420126Y-85596917D01*
X125420932Y-85596427D01*
X125890202Y-85337283D01*
X125899098Y-85336284D01*
X125904128Y-85339253D01*
G37*
%TD.AperFunction*%
%TD*%
%TA.AperFunction,Conductor*%
%TO.N,+36V*%
G36*
X129287130Y-89497628D02*
G01*
X129566355Y-89554118D01*
X129573784Y-89559118D01*
X129575693Y-89566577D01*
X129533311Y-90064977D01*
X129529195Y-90072930D01*
X129521653Y-90075686D01*
X129235006Y-90075686D01*
X129226733Y-90072259D01*
X129224431Y-90068991D01*
X129222531Y-90064977D01*
X129037205Y-89673427D01*
X129036764Y-89664486D01*
X129041253Y-89658715D01*
X129278284Y-89499385D01*
X129287061Y-89497615D01*
X129287130Y-89497628D01*
G37*
%TD.AperFunction*%
%TD*%
%TA.AperFunction,Conductor*%
%TO.N,+36V*%
G36*
X125812535Y-85898752D02*
G01*
X125857202Y-85907789D01*
X125864631Y-85912789D01*
X125866350Y-85921577D01*
X125865813Y-85923428D01*
X125669772Y-86437268D01*
X125663622Y-86443776D01*
X125658841Y-86444797D01*
X125372182Y-86444797D01*
X125363909Y-86441370D01*
X125360610Y-86434826D01*
X125283906Y-85921517D01*
X125286073Y-85912830D01*
X125293155Y-85908323D01*
X125574182Y-85851469D01*
X125578818Y-85851469D01*
X125812535Y-85898752D01*
G37*
%TD.AperFunction*%
%TD*%
%TA.AperFunction,Conductor*%
%TO.N,/SWDIO*%
G36*
X162231207Y-81184966D02*
G01*
X162573555Y-81301106D01*
X162580288Y-81307009D01*
X162581496Y-81312186D01*
X162581496Y-81447813D01*
X162578069Y-81456086D01*
X162573555Y-81458893D01*
X162231212Y-81575031D01*
X162222276Y-81574443D01*
X162216373Y-81567710D01*
X162215991Y-81566296D01*
X162178476Y-81382334D01*
X162178476Y-81377665D01*
X162215990Y-81193708D01*
X162221000Y-81186289D01*
X162229791Y-81184584D01*
X162231207Y-81184966D01*
G37*
%TD.AperFunction*%
%TD*%
%TA.AperFunction,Conductor*%
%TO.N,/SWCLK*%
G36*
X162231207Y-82344966D02*
G01*
X162573555Y-82461106D01*
X162580288Y-82467009D01*
X162581496Y-82472186D01*
X162581496Y-82607813D01*
X162578069Y-82616086D01*
X162573555Y-82618893D01*
X162231212Y-82735031D01*
X162222276Y-82734443D01*
X162216373Y-82727710D01*
X162215991Y-82726296D01*
X162178476Y-82542334D01*
X162178476Y-82537665D01*
X162215990Y-82353708D01*
X162221000Y-82346289D01*
X162229791Y-82344584D01*
X162231207Y-82344966D01*
G37*
%TD.AperFunction*%
%TD*%
%TA.AperFunction,Conductor*%
%TO.N,/DRV8323RSRGZR/SPB*%
G36*
X134856769Y-90902570D02*
G01*
X134858043Y-90903302D01*
X134883875Y-90920382D01*
X135014644Y-91006851D01*
X135017950Y-91010157D01*
X135121498Y-91166756D01*
X135123203Y-91175547D01*
X135118192Y-91182968D01*
X135116916Y-91183701D01*
X134792722Y-91343652D01*
X134783786Y-91344240D01*
X134779272Y-91341433D01*
X134683368Y-91245529D01*
X134679941Y-91237256D01*
X134681148Y-91232081D01*
X134841100Y-90907884D01*
X134847833Y-90901982D01*
X134856769Y-90902570D01*
G37*
%TD.AperFunction*%
%TD*%
%TA.AperFunction,Conductor*%
%TO.N,/DRV8323RSRGZR/SPB*%
G36*
X133877709Y-90732429D02*
G01*
X133879575Y-90734863D01*
X134030914Y-90997660D01*
X134032073Y-91006540D01*
X134027315Y-91013201D01*
X133871468Y-91118257D01*
X133862692Y-91120039D01*
X133862590Y-91120019D01*
X133679074Y-91082595D01*
X133671653Y-91077584D01*
X133669856Y-91069301D01*
X133687456Y-90958274D01*
X133689281Y-90953613D01*
X133705558Y-90929254D01*
X133721368Y-90849774D01*
X133712474Y-90805067D01*
X133712394Y-90800955D01*
X133722236Y-90738870D01*
X133726916Y-90731236D01*
X133733792Y-90729002D01*
X133869436Y-90729002D01*
X133877709Y-90732429D01*
G37*
%TD.AperFunction*%
%TD*%
%TA.AperFunction,Conductor*%
%TO.N,/SPI3_MISO*%
G36*
X136220950Y-83673752D02*
G01*
X136221774Y-83674250D01*
X136378848Y-83778112D01*
X136382154Y-83781418D01*
X136485382Y-83937533D01*
X136487087Y-83946324D01*
X136482076Y-83953745D01*
X136480351Y-83954688D01*
X136144435Y-84103080D01*
X136135482Y-84103289D01*
X136131434Y-84100651D01*
X136035547Y-84004764D01*
X136032120Y-83996491D01*
X136033563Y-83990862D01*
X136062832Y-83937533D01*
X136205065Y-83678379D01*
X136212049Y-83672776D01*
X136220950Y-83673752D01*
G37*
%TD.AperFunction*%
%TD*%
%TA.AperFunction,Conductor*%
%TO.N,/SPI3_MISO*%
G36*
X146542468Y-88510931D02*
G01*
X146545505Y-88516209D01*
X146636122Y-88858375D01*
X146634927Y-88867249D01*
X146627807Y-88872680D01*
X146627150Y-88872834D01*
X146442338Y-88910523D01*
X146437662Y-88910523D01*
X146254597Y-88873191D01*
X146247176Y-88868180D01*
X146245471Y-88859389D01*
X146246119Y-88857265D01*
X146387810Y-88514731D01*
X146394139Y-88508397D01*
X146398622Y-88507504D01*
X146534195Y-88507504D01*
X146542468Y-88510931D01*
G37*
%TD.AperFunction*%
%TD*%
%TA.AperFunction,Conductor*%
%TO.N,/SPI3_MISO*%
G36*
X146434721Y-84602562D02*
G01*
X146617462Y-84639828D01*
X146624882Y-84644839D01*
X146626587Y-84653630D01*
X146626507Y-84653993D01*
X146545335Y-84996097D01*
X146540091Y-85003356D01*
X146533951Y-85005096D01*
X146398378Y-85005096D01*
X146390105Y-85001669D01*
X146387701Y-84998180D01*
X146265070Y-84724475D01*
X146264814Y-84715524D01*
X146269205Y-84709991D01*
X146425932Y-84604341D01*
X146434707Y-84602560D01*
X146434721Y-84602562D01*
G37*
%TD.AperFunction*%
%TD*%
%TA.AperFunction,Conductor*%
%TO.N,/SPI3_SCK*%
G36*
X146156192Y-83586969D02*
G01*
X146163612Y-83591980D01*
X146165317Y-83600771D01*
X146164905Y-83602274D01*
X146045931Y-83944637D01*
X146039978Y-83951326D01*
X146034879Y-83952496D01*
X145899251Y-83952496D01*
X145890978Y-83949069D01*
X145888144Y-83944472D01*
X145774843Y-83602147D01*
X145775496Y-83593218D01*
X145782274Y-83587366D01*
X145783600Y-83587011D01*
X145967666Y-83549476D01*
X145972334Y-83549476D01*
X146156192Y-83586969D01*
G37*
%TD.AperFunction*%
%TD*%
%TA.AperFunction,Conductor*%
%TO.N,/SPI3_SCK*%
G36*
X136073984Y-82597412D02*
G01*
X136081450Y-82602356D01*
X136081507Y-82602443D01*
X136184225Y-82757787D01*
X136184280Y-82758073D01*
X136184515Y-82758248D01*
X136185126Y-82762434D01*
X136185930Y-82766578D01*
X136185766Y-82766819D01*
X136185809Y-82767109D01*
X136183280Y-82770501D01*
X136180919Y-82773999D01*
X136180458Y-82774289D01*
X136159950Y-82786516D01*
X136156986Y-82787768D01*
X136080294Y-82808318D01*
X135987505Y-82861890D01*
X135920544Y-82928850D01*
X135918263Y-82930626D01*
X135877339Y-82955028D01*
X135868478Y-82956322D01*
X135863074Y-82953252D01*
X135767209Y-82857387D01*
X135763782Y-82849114D01*
X135764618Y-82844769D01*
X135875202Y-82568400D01*
X135881457Y-82561993D01*
X135888297Y-82561264D01*
X136073984Y-82597412D01*
G37*
%TD.AperFunction*%
%TD*%
%TA.AperFunction,Conductor*%
%TO.N,/SPI3_MOSI*%
G36*
X136078194Y-83081200D02*
G01*
X136079538Y-83081967D01*
X136236065Y-83185467D01*
X136239371Y-83188773D01*
X136342967Y-83345444D01*
X136344672Y-83354235D01*
X136339661Y-83361656D01*
X136338452Y-83362356D01*
X136306574Y-83378341D01*
X136304358Y-83379183D01*
X136223077Y-83400963D01*
X136130286Y-83454536D01*
X136107124Y-83477698D01*
X136104096Y-83479883D01*
X136016027Y-83524050D01*
X136007095Y-83524696D01*
X136002509Y-83521865D01*
X135906606Y-83425962D01*
X135903179Y-83417689D01*
X135904352Y-83412582D01*
X136062561Y-83086614D01*
X136069255Y-83080671D01*
X136078194Y-83081200D01*
G37*
%TD.AperFunction*%
%TD*%
%TA.AperFunction,Conductor*%
%TO.N,/SPI3_MOSI*%
G36*
X147045086Y-88505426D02*
G01*
X147046654Y-88507370D01*
X147211925Y-88764359D01*
X147213517Y-88773171D01*
X147208624Y-88780390D01*
X147053232Y-88885139D01*
X147044456Y-88886921D01*
X147044354Y-88886901D01*
X146860416Y-88849391D01*
X146852995Y-88844380D01*
X146851135Y-88836550D01*
X146889576Y-88512320D01*
X146893953Y-88504509D01*
X146901195Y-88501999D01*
X147036813Y-88501999D01*
X147045086Y-88505426D01*
G37*
%TD.AperFunction*%
%TD*%
%TA.AperFunction,Conductor*%
%TO.N,GND1*%
G36*
X135339368Y-91385169D02*
G01*
X135340642Y-91385901D01*
X135366474Y-91402981D01*
X135497243Y-91489450D01*
X135500549Y-91492756D01*
X135604097Y-91649355D01*
X135605802Y-91658146D01*
X135600791Y-91665567D01*
X135599515Y-91666300D01*
X135275321Y-91826251D01*
X135266385Y-91826839D01*
X135261871Y-91824032D01*
X135165967Y-91728128D01*
X135162540Y-91719855D01*
X135163747Y-91714680D01*
X135323699Y-91390483D01*
X135330432Y-91384581D01*
X135339368Y-91385169D01*
G37*
%TD.AperFunction*%
%TD*%
%TA.AperFunction,Conductor*%
%TO.N,GND1*%
G36*
X133825533Y-91534070D02*
G01*
X133829930Y-91541077D01*
X133867138Y-91725508D01*
X133865415Y-91734296D01*
X133865366Y-91734369D01*
X133761400Y-91888350D01*
X133753930Y-91893289D01*
X133745156Y-91891500D01*
X133744667Y-91891151D01*
X133467209Y-91682311D01*
X133462660Y-91674598D01*
X133464897Y-91665927D01*
X133465965Y-91664697D01*
X133561429Y-91569233D01*
X133568111Y-91565916D01*
X133816871Y-91531800D01*
X133825533Y-91534070D01*
G37*
%TD.AperFunction*%
%TD*%
%TA.AperFunction,Conductor*%
%TO.N,/TIM1_CH1N*%
G36*
X144124255Y-78456542D02*
G01*
X144229699Y-78612965D01*
X144231481Y-78621741D01*
X144231461Y-78621843D01*
X144194149Y-78804810D01*
X144189138Y-78812231D01*
X144180347Y-78813935D01*
X144180322Y-78813930D01*
X144180291Y-78813924D01*
X143841700Y-78743145D01*
X143834303Y-78738098D01*
X143832394Y-78731693D01*
X143832394Y-78596084D01*
X143835821Y-78587811D01*
X143838929Y-78585586D01*
X144109391Y-78452582D01*
X144118326Y-78452007D01*
X144124255Y-78456542D01*
G37*
%TD.AperFunction*%
%TD*%
%TA.AperFunction,Conductor*%
%TO.N,/DRV_SPI_NSS*%
G36*
X147533150Y-84048697D02*
G01*
X147533225Y-84048746D01*
X147689242Y-84153917D01*
X147694186Y-84161382D01*
X147692942Y-84169278D01*
X147546539Y-84434137D01*
X147539537Y-84439720D01*
X147536299Y-84440177D01*
X147400656Y-84440177D01*
X147392383Y-84436750D01*
X147389126Y-84430464D01*
X147331800Y-84097836D01*
X147333772Y-84089102D01*
X147340990Y-84084386D01*
X147524361Y-84046992D01*
X147533150Y-84048697D01*
G37*
%TD.AperFunction*%
%TD*%
%TA.AperFunction,Conductor*%
%TO.N,/TIM1_CH3N*%
G36*
X130011701Y-83064989D02*
G01*
X130012044Y-83065539D01*
X130029748Y-83095837D01*
X130030947Y-83098711D01*
X130034961Y-83113686D01*
X130034962Y-83113689D01*
X130068548Y-83171862D01*
X130088532Y-83206475D01*
X130101579Y-83219522D01*
X130103408Y-83221892D01*
X130186669Y-83364379D01*
X130190514Y-83370958D01*
X130191729Y-83379830D01*
X130188685Y-83385134D01*
X130092820Y-83480999D01*
X130084547Y-83484426D01*
X130080093Y-83483545D01*
X129976151Y-83440740D01*
X129806069Y-83370698D01*
X129799724Y-83364379D01*
X129799040Y-83357643D01*
X129825467Y-83221892D01*
X129835206Y-83171862D01*
X129840148Y-83164399D01*
X129995490Y-83061682D01*
X130004280Y-83059978D01*
X130011701Y-83064989D01*
G37*
%TD.AperFunction*%
%TD*%
%TA.AperFunction,Conductor*%
%TO.N,/TIM1_CH3*%
G36*
X145194800Y-81987733D02*
G01*
X145194998Y-81987861D01*
X145335950Y-82081062D01*
X145350607Y-82090754D01*
X145355618Y-82098175D01*
X145355638Y-82098277D01*
X145391739Y-82283721D01*
X145389957Y-82292497D01*
X145384334Y-82296923D01*
X145102213Y-82401853D01*
X145093264Y-82401525D01*
X145089861Y-82399160D01*
X144993999Y-82303298D01*
X144990572Y-82295025D01*
X144992357Y-82288813D01*
X145178673Y-81991436D01*
X145185970Y-81986245D01*
X145194800Y-81987733D01*
G37*
%TD.AperFunction*%
%TD*%
%TA.AperFunction,Conductor*%
%TO.N,/TIM1_CH3*%
G36*
X130612750Y-82920612D02*
G01*
X130617050Y-82925912D01*
X130728782Y-83201088D01*
X130728720Y-83210043D01*
X130726215Y-83213763D01*
X130630349Y-83309629D01*
X130622076Y-83313056D01*
X130616129Y-83311432D01*
X130311843Y-83131845D01*
X130306460Y-83124689D01*
X130307714Y-83115822D01*
X130308031Y-83115316D01*
X130410719Y-82960017D01*
X130418138Y-82955007D01*
X130603975Y-82918830D01*
X130612750Y-82920612D01*
G37*
%TD.AperFunction*%
%TD*%
%TA.AperFunction,Conductor*%
%TO.N,/TIM1_CH3*%
G36*
X130182178Y-82630136D02*
G01*
X130187364Y-82632505D01*
X130514581Y-82781992D01*
X130520682Y-82788547D01*
X130520361Y-82797496D01*
X130519478Y-82799087D01*
X130416154Y-82955348D01*
X130412848Y-82958654D01*
X130259362Y-83060142D01*
X130250571Y-83061847D01*
X130243150Y-83056836D01*
X130242776Y-83056233D01*
X130227948Y-83030549D01*
X130227007Y-83028475D01*
X130223557Y-83018356D01*
X130223550Y-83018339D01*
X130222367Y-83015504D01*
X130222358Y-83015482D01*
X130209941Y-82990545D01*
X130192237Y-82960247D01*
X130189130Y-82955102D01*
X130188787Y-82954552D01*
X130179328Y-82944744D01*
X130177425Y-82942121D01*
X130092270Y-82781992D01*
X130071091Y-82742166D01*
X130070232Y-82733253D01*
X130073146Y-82728402D01*
X130169044Y-82632504D01*
X130177316Y-82629078D01*
X130182178Y-82630136D01*
G37*
%TD.AperFunction*%
%TD*%
%TA.AperFunction,Conductor*%
%TO.N,/TIM1_CH2*%
G36*
X145095890Y-81538355D02*
G01*
X145103356Y-81543299D01*
X145103413Y-81543386D01*
X145206398Y-81699135D01*
X145208103Y-81707926D01*
X145203092Y-81715347D01*
X145203031Y-81715387D01*
X144913037Y-81904554D01*
X144904236Y-81906204D01*
X144898372Y-81903028D01*
X144802484Y-81807140D01*
X144799057Y-81798867D01*
X144799688Y-81795078D01*
X144897402Y-81509991D01*
X144903324Y-81503279D01*
X144910701Y-81502304D01*
X145095890Y-81538355D01*
G37*
%TD.AperFunction*%
%TD*%
%TA.AperFunction,Conductor*%
%TO.N,/TIM1_CH2*%
G36*
X131286209Y-82156174D02*
G01*
X131287152Y-82157899D01*
X131435545Y-82493815D01*
X131435754Y-82502768D01*
X131433116Y-82506816D01*
X131337229Y-82602703D01*
X131328956Y-82606130D01*
X131323327Y-82604687D01*
X131010844Y-82433186D01*
X131005240Y-82426201D01*
X131006216Y-82417300D01*
X131006706Y-82416487D01*
X131110576Y-82259401D01*
X131113882Y-82256096D01*
X131269998Y-82152867D01*
X131278788Y-82151163D01*
X131286209Y-82156174D01*
G37*
%TD.AperFunction*%
%TD*%
%TA.AperFunction,Conductor*%
%TO.N,/TIM1_CH2N*%
G36*
X144047595Y-79014808D02*
G01*
X144052695Y-79022169D01*
X144052724Y-79022307D01*
X144090019Y-79205190D01*
X144088314Y-79213981D01*
X144088257Y-79214068D01*
X143982755Y-79370576D01*
X143975289Y-79375520D01*
X143967996Y-79374587D01*
X143696366Y-79244384D01*
X143690387Y-79237717D01*
X143689723Y-79233833D01*
X143689723Y-79098237D01*
X143693150Y-79089964D01*
X143698945Y-79086802D01*
X144038784Y-79013210D01*
X144047595Y-79014808D01*
G37*
%TD.AperFunction*%
%TD*%
%TA.AperFunction,Conductor*%
%TO.N,/TIM1_CH1*%
G36*
X144655444Y-80890255D02*
G01*
X144835635Y-80926866D01*
X144843060Y-80931872D01*
X144844771Y-80940662D01*
X144844193Y-80942615D01*
X144694509Y-81323172D01*
X144688292Y-81329616D01*
X144679338Y-81329777D01*
X144675348Y-81327162D01*
X144581791Y-81233605D01*
X144579326Y-81229979D01*
X144484916Y-81011837D01*
X144484775Y-81002883D01*
X144489144Y-80997469D01*
X144646652Y-80892007D01*
X144655431Y-80890253D01*
X144655444Y-80890255D01*
G37*
%TD.AperFunction*%
%TD*%
%TA.AperFunction,Conductor*%
%TO.N,/TIM1_CH1*%
G36*
X131897608Y-81334177D02*
G01*
X131902295Y-81340587D01*
X131987397Y-81630841D01*
X131986437Y-81639744D01*
X131984443Y-81642406D01*
X131888530Y-81738319D01*
X131880257Y-81741746D01*
X131873544Y-81739628D01*
X131596435Y-81545489D01*
X131591625Y-81537936D01*
X131593388Y-81529456D01*
X131696587Y-81373385D01*
X131704006Y-81368375D01*
X131888832Y-81332395D01*
X131897608Y-81334177D01*
G37*
%TD.AperFunction*%
%TD*%
%TA.AperFunction,Conductor*%
%TO.N,/TIM1_CH1*%
G36*
X131661000Y-80927470D02*
G01*
X131754241Y-81020711D01*
X131756507Y-81023902D01*
X131864542Y-81247956D01*
X131865048Y-81256897D01*
X131860512Y-81262760D01*
X131703349Y-81367991D01*
X131694568Y-81369746D01*
X131694510Y-81369735D01*
X131513893Y-81333037D01*
X131506468Y-81328031D01*
X131504757Y-81319241D01*
X131505193Y-81317669D01*
X131609127Y-81023902D01*
X131641697Y-80931840D01*
X131647687Y-80925184D01*
X131656629Y-80924713D01*
X131661000Y-80927470D01*
G37*
%TD.AperFunction*%
%TD*%
%TA.AperFunction,Conductor*%
%TO.N,/ADC2_IN9*%
G36*
X147887290Y-72807989D02*
G01*
X147894710Y-72813000D01*
X147896415Y-72821791D01*
X147896031Y-72823212D01*
X147779894Y-73165555D01*
X147773991Y-73172288D01*
X147768814Y-73173496D01*
X147633186Y-73173496D01*
X147624913Y-73170069D01*
X147622106Y-73165555D01*
X147505968Y-72823212D01*
X147506556Y-72814276D01*
X147513289Y-72808373D01*
X147514699Y-72807991D01*
X147698666Y-72770476D01*
X147703334Y-72770476D01*
X147887290Y-72807989D01*
G37*
%TD.AperFunction*%
%TD*%
%TA.AperFunction,Conductor*%
%TO.N,/ADC2_IN9*%
G36*
X129543981Y-71502685D02*
G01*
X129544068Y-71502742D01*
X129700719Y-71608340D01*
X129705663Y-71615806D01*
X129704814Y-71622920D01*
X129579329Y-71896526D01*
X129572765Y-71902617D01*
X129568694Y-71903348D01*
X129433123Y-71903348D01*
X129424850Y-71899921D01*
X129421718Y-71894261D01*
X129357924Y-71615806D01*
X129343380Y-71552323D01*
X129344873Y-71543494D01*
X129352172Y-71538306D01*
X129352421Y-71538252D01*
X129535192Y-71500980D01*
X129543981Y-71502685D01*
G37*
%TD.AperFunction*%
%TD*%
%TA.AperFunction,Conductor*%
%TO.N,Net-(U8-VCAP_1)*%
G36*
X146733052Y-74189849D02*
G01*
X146837966Y-74345233D01*
X146839755Y-74354007D01*
X146839738Y-74354094D01*
X146802909Y-74536648D01*
X146797914Y-74544080D01*
X146789126Y-74545803D01*
X146788019Y-74545523D01*
X146518337Y-74463067D01*
X146513485Y-74460151D01*
X146418863Y-74365529D01*
X146415436Y-74357256D01*
X146418863Y-74348983D01*
X146421551Y-74346975D01*
X146717773Y-74186113D01*
X146726677Y-74185178D01*
X146733052Y-74189849D01*
G37*
%TD.AperFunction*%
%TD*%
%TA.AperFunction,Conductor*%
%TO.N,Net-(U8-VCAP_1)*%
G36*
X155500207Y-73972966D02*
G01*
X155842555Y-74089106D01*
X155849288Y-74095009D01*
X155850496Y-74100186D01*
X155850496Y-74235813D01*
X155847069Y-74244086D01*
X155842555Y-74246893D01*
X155500212Y-74363031D01*
X155491276Y-74362443D01*
X155485373Y-74355710D01*
X155484991Y-74354296D01*
X155447476Y-74170334D01*
X155447476Y-74165665D01*
X155484990Y-73981708D01*
X155490000Y-73974289D01*
X155498791Y-73972584D01*
X155500207Y-73972966D01*
G37*
%TD.AperFunction*%
%TD*%
%TA.AperFunction,Conductor*%
%TO.N,/ADC3_IN2*%
G36*
X155627207Y-75496966D02*
G01*
X155969555Y-75613106D01*
X155976288Y-75619009D01*
X155977496Y-75624186D01*
X155977496Y-75759813D01*
X155974069Y-75768086D01*
X155969555Y-75770893D01*
X155627212Y-75887031D01*
X155618276Y-75886443D01*
X155612373Y-75879710D01*
X155611991Y-75878296D01*
X155574476Y-75694334D01*
X155574476Y-75689665D01*
X155611990Y-75505708D01*
X155617000Y-75498289D01*
X155625791Y-75496584D01*
X155627207Y-75496966D01*
G37*
%TD.AperFunction*%
%TD*%
%TA.AperFunction,Conductor*%
%TO.N,/USART3_TX*%
G36*
X163572207Y-78284966D02*
G01*
X163914555Y-78401106D01*
X163921288Y-78407009D01*
X163922496Y-78412186D01*
X163922496Y-78547813D01*
X163919069Y-78556086D01*
X163914555Y-78558893D01*
X163572212Y-78675031D01*
X163563276Y-78674443D01*
X163557373Y-78667710D01*
X163556991Y-78666296D01*
X163519476Y-78482334D01*
X163519476Y-78477665D01*
X163556990Y-78293708D01*
X163562000Y-78286289D01*
X163570791Y-78284584D01*
X163572207Y-78284966D01*
G37*
%TD.AperFunction*%
%TD*%
%TA.AperFunction,Conductor*%
%TO.N,/USART3_TX*%
G36*
X152668696Y-79959325D02*
G01*
X152674359Y-79966261D01*
X152674618Y-79967291D01*
X152712223Y-80151694D01*
X152712223Y-80156370D01*
X152674803Y-80339863D01*
X152669792Y-80347284D01*
X152661001Y-80348989D01*
X152659203Y-80348470D01*
X152316768Y-80219058D01*
X152310240Y-80212927D01*
X152309204Y-80208113D01*
X152309204Y-80072500D01*
X152312631Y-80064227D01*
X152317533Y-80061296D01*
X152659787Y-79958424D01*
X152668696Y-79959325D01*
G37*
%TD.AperFunction*%
%TD*%
%TA.AperFunction,Conductor*%
%TO.N,/USART3_RX*%
G36*
X163542207Y-77344966D02*
G01*
X163884555Y-77461106D01*
X163891288Y-77467009D01*
X163892496Y-77472186D01*
X163892496Y-77607813D01*
X163889069Y-77616086D01*
X163884555Y-77618893D01*
X163542212Y-77735031D01*
X163533276Y-77734443D01*
X163527373Y-77727710D01*
X163526991Y-77726296D01*
X163489476Y-77542334D01*
X163489476Y-77537665D01*
X163526990Y-77353708D01*
X163532000Y-77346289D01*
X163540791Y-77344584D01*
X163542207Y-77344966D01*
G37*
%TD.AperFunction*%
%TD*%
%TA.AperFunction,Conductor*%
%TO.N,/I2C1_SCL*%
G36*
X148132565Y-83335097D02*
G01*
X148137504Y-83342567D01*
X148137612Y-83343221D01*
X148184399Y-83688015D01*
X148182115Y-83696674D01*
X148174378Y-83701182D01*
X148172805Y-83701288D01*
X148037782Y-83701288D01*
X148030644Y-83698858D01*
X147832404Y-83546205D01*
X147827940Y-83538442D01*
X147829795Y-83530462D01*
X147933942Y-83373672D01*
X147941373Y-83368678D01*
X148123793Y-83333308D01*
X148132565Y-83335097D01*
G37*
%TD.AperFunction*%
%TD*%
%TA.AperFunction,Conductor*%
%TO.N,/I2C1_SCL*%
G36*
X145266290Y-71896989D02*
G01*
X145273710Y-71902000D01*
X145275415Y-71910791D01*
X145275031Y-71912212D01*
X145158894Y-72254555D01*
X145152991Y-72261288D01*
X145147814Y-72262496D01*
X145012186Y-72262496D01*
X145003913Y-72259069D01*
X145001106Y-72254555D01*
X144884968Y-71912212D01*
X144885556Y-71903276D01*
X144892289Y-71897373D01*
X144893699Y-71896991D01*
X145077666Y-71859476D01*
X145082334Y-71859476D01*
X145266290Y-71896989D01*
G37*
%TD.AperFunction*%
%TD*%
%TA.AperFunction,Conductor*%
%TO.N,/I2C1_SDA*%
G36*
X146276290Y-71896989D02*
G01*
X146283710Y-71902000D01*
X146285415Y-71910791D01*
X146285031Y-71912212D01*
X146168894Y-72254555D01*
X146162991Y-72261288D01*
X146157814Y-72262496D01*
X146022186Y-72262496D01*
X146013913Y-72259069D01*
X146011106Y-72254555D01*
X145894968Y-71912212D01*
X145895556Y-71903276D01*
X145902289Y-71897373D01*
X145903699Y-71896991D01*
X146087666Y-71859476D01*
X146092334Y-71859476D01*
X146276290Y-71896989D01*
G37*
%TD.AperFunction*%
%TD*%
%TA.AperFunction,Conductor*%
%TO.N,/ENCODER_STA*%
G36*
X161321384Y-84518017D02*
G01*
X161426957Y-84674631D01*
X161428739Y-84683407D01*
X161428719Y-84683509D01*
X161391445Y-84866288D01*
X161386434Y-84873709D01*
X161377643Y-84875414D01*
X161377403Y-84875363D01*
X161036013Y-84798260D01*
X161028699Y-84793094D01*
X161026891Y-84786847D01*
X161026891Y-84651268D01*
X161030318Y-84642995D01*
X161033662Y-84640657D01*
X161306758Y-84513943D01*
X161315705Y-84513570D01*
X161321384Y-84518017D01*
G37*
%TD.AperFunction*%
%TD*%
%TA.AperFunction,Conductor*%
%TO.N,/ENCODER_STA*%
G36*
X151252252Y-81486179D02*
G01*
X151349232Y-81539369D01*
X151517497Y-81631657D01*
X151523103Y-81638639D01*
X151523571Y-81641914D01*
X151523571Y-81777556D01*
X151520144Y-81785829D01*
X151513887Y-81789081D01*
X151180848Y-81847335D01*
X151172108Y-81845385D01*
X151167368Y-81838149D01*
X151129980Y-81654807D01*
X151131685Y-81646018D01*
X151131710Y-81645978D01*
X151236925Y-81489895D01*
X151244390Y-81484953D01*
X151252252Y-81486179D01*
G37*
%TD.AperFunction*%
%TD*%
%TA.AperFunction,Conductor*%
%TO.N,Net-(U8-PB2)*%
G36*
X158548207Y-74607966D02*
G01*
X158890555Y-74724106D01*
X158897288Y-74730009D01*
X158898496Y-74735186D01*
X158898496Y-74870813D01*
X158895069Y-74879086D01*
X158890555Y-74881893D01*
X158548212Y-74998031D01*
X158539276Y-74997443D01*
X158533373Y-74990710D01*
X158532991Y-74989296D01*
X158495476Y-74805334D01*
X158495476Y-74800665D01*
X158532990Y-74616708D01*
X158538000Y-74609289D01*
X158546791Y-74607584D01*
X158548207Y-74607966D01*
G37*
%TD.AperFunction*%
%TD*%
%TA.AperFunction,Conductor*%
%TO.N,Net-(U8-PB2)*%
G36*
X146904721Y-74969962D02*
G01*
X147088313Y-75007402D01*
X147095734Y-75012413D01*
X147097529Y-75020710D01*
X147044773Y-75351308D01*
X147040085Y-75358937D01*
X147033219Y-75361164D01*
X146897574Y-75361164D01*
X146889301Y-75357737D01*
X146887427Y-75355289D01*
X146736465Y-75092333D01*
X146735318Y-75083452D01*
X146740070Y-75076807D01*
X146895932Y-74971741D01*
X146904707Y-74969960D01*
X146904721Y-74969962D01*
G37*
%TD.AperFunction*%
%TD*%
%TA.AperFunction,Conductor*%
%TO.N,/CAN_TX*%
G36*
X156006723Y-87695556D02*
G01*
X156012626Y-87702289D01*
X156013010Y-87703710D01*
X156050523Y-87887662D01*
X156050523Y-87892338D01*
X156013010Y-88076289D01*
X156007999Y-88083710D01*
X155999208Y-88085415D01*
X155997787Y-88085031D01*
X155655445Y-87968893D01*
X155648712Y-87962990D01*
X155647504Y-87957813D01*
X155647504Y-87822186D01*
X155650931Y-87813913D01*
X155655445Y-87811106D01*
X155997788Y-87694968D01*
X156006723Y-87695556D01*
G37*
%TD.AperFunction*%
%TD*%
%TA.AperFunction,Conductor*%
%TO.N,/CAN_TX*%
G36*
X151508426Y-86407240D02*
G01*
X151508501Y-86407289D01*
X151665227Y-86512938D01*
X151670171Y-86520403D01*
X151669358Y-86527437D01*
X151546303Y-86801149D01*
X151539785Y-86807289D01*
X151535632Y-86808051D01*
X151400060Y-86808051D01*
X151391787Y-86804624D01*
X151388673Y-86799039D01*
X151358315Y-86670434D01*
X151307920Y-86456936D01*
X151309354Y-86448099D01*
X151316619Y-86442863D01*
X151316933Y-86442793D01*
X151499637Y-86405535D01*
X151508426Y-86407240D01*
G37*
%TD.AperFunction*%
%TD*%
%TA.AperFunction,Conductor*%
%TO.N,/CAN_RX*%
G36*
X155842723Y-91499556D02*
G01*
X155848626Y-91506289D01*
X155849010Y-91507710D01*
X155886523Y-91691662D01*
X155886523Y-91696338D01*
X155849010Y-91880289D01*
X155843999Y-91887710D01*
X155835208Y-91889415D01*
X155833787Y-91889031D01*
X155491445Y-91772893D01*
X155484712Y-91766990D01*
X155483504Y-91761813D01*
X155483504Y-91626186D01*
X155486931Y-91617913D01*
X155491445Y-91615106D01*
X155833788Y-91498968D01*
X155842723Y-91499556D01*
G37*
%TD.AperFunction*%
%TD*%
%TA.AperFunction,Conductor*%
%TO.N,/CAN_RX*%
G36*
X150863711Y-86442562D02*
G01*
X151048485Y-86480243D01*
X151055906Y-86485254D01*
X151057835Y-86492234D01*
X151043704Y-86805604D01*
X151039908Y-86813714D01*
X151032016Y-86816777D01*
X150896566Y-86816777D01*
X150888293Y-86813350D01*
X150887288Y-86812206D01*
X150697620Y-86565364D01*
X150695297Y-86556716D01*
X150699769Y-86548957D01*
X150700358Y-86548533D01*
X150854922Y-86444341D01*
X150863697Y-86442560D01*
X150863711Y-86442562D01*
G37*
%TD.AperFunction*%
%TD*%
%TA.AperFunction,Conductor*%
%TO.N,/CAN_STB*%
G36*
X158732207Y-87714966D02*
G01*
X159074555Y-87831106D01*
X159081288Y-87837009D01*
X159082496Y-87842186D01*
X159082496Y-87977813D01*
X159079069Y-87986086D01*
X159074555Y-87988893D01*
X158732212Y-88105031D01*
X158723276Y-88104443D01*
X158717373Y-88097710D01*
X158716991Y-88096296D01*
X158679476Y-87912334D01*
X158679476Y-87907665D01*
X158716990Y-87723708D01*
X158722000Y-87716289D01*
X158730791Y-87714584D01*
X158732207Y-87714966D01*
G37*
%TD.AperFunction*%
%TD*%
%TA.AperFunction,Conductor*%
%TO.N,/CAN_STB*%
G36*
X149055864Y-88510931D02*
G01*
X149058761Y-88515722D01*
X149165443Y-88857998D01*
X149164633Y-88866917D01*
X149157755Y-88872650D01*
X149156611Y-88872944D01*
X148972338Y-88910523D01*
X148967662Y-88910523D01*
X148784035Y-88873076D01*
X148776614Y-88868065D01*
X148774909Y-88859274D01*
X148775385Y-88857593D01*
X148900986Y-88515174D01*
X148907052Y-88508588D01*
X148911970Y-88507504D01*
X149047591Y-88507504D01*
X149055864Y-88510931D01*
G37*
%TD.AperFunction*%
%TD*%
%TA.AperFunction,Conductor*%
%TO.N,/ADC1_IN0*%
G36*
X139195982Y-85967890D02*
G01*
X139368338Y-86052927D01*
X139520177Y-86127842D01*
X139526080Y-86134575D01*
X139525492Y-86143511D01*
X139524759Y-86144787D01*
X139421211Y-86301386D01*
X139417905Y-86304692D01*
X139261306Y-86408240D01*
X139252515Y-86409945D01*
X139245094Y-86404934D01*
X139244361Y-86403658D01*
X139111601Y-86134575D01*
X139084409Y-86079463D01*
X139083822Y-86070528D01*
X139086627Y-86066016D01*
X139182534Y-85970109D01*
X139190806Y-85966683D01*
X139195982Y-85967890D01*
G37*
%TD.AperFunction*%
%TD*%
%TA.AperFunction,Conductor*%
%TO.N,/ADC2_IN1*%
G36*
X138276290Y-86146989D02*
G01*
X138283710Y-86152000D01*
X138285415Y-86160791D01*
X138285031Y-86162212D01*
X138168894Y-86504555D01*
X138162991Y-86511288D01*
X138157814Y-86512496D01*
X138022186Y-86512496D01*
X138013913Y-86509069D01*
X138011106Y-86504555D01*
X137894968Y-86162212D01*
X137895556Y-86153276D01*
X137902289Y-86147373D01*
X137903699Y-86146991D01*
X138087666Y-86109476D01*
X138092334Y-86109476D01*
X138276290Y-86146989D01*
G37*
%TD.AperFunction*%
%TD*%
%TA.AperFunction,Conductor*%
%TO.N,Net-(U8-PC13)*%
G36*
X164703382Y-75944153D02*
G01*
X164808257Y-76099731D01*
X164810039Y-76108507D01*
X164810019Y-76108609D01*
X164772543Y-76292376D01*
X164767532Y-76299797D01*
X164759515Y-76301633D01*
X164432783Y-76257567D01*
X164425042Y-76253065D01*
X164422647Y-76245972D01*
X164422647Y-76110336D01*
X164426074Y-76102063D01*
X164428214Y-76100373D01*
X164429257Y-76099731D01*
X164687548Y-75940729D01*
X164696388Y-75939311D01*
X164703382Y-75944153D01*
G37*
%TD.AperFunction*%
%TD*%
%TA.AperFunction,Conductor*%
%TO.N,Net-(U8-PC13)*%
G36*
X155830813Y-84813668D02*
G01*
X155831823Y-84814267D01*
X155838289Y-84818562D01*
X155986920Y-84917290D01*
X155991915Y-84924722D01*
X155991932Y-84924809D01*
X156027701Y-85109289D01*
X156025912Y-85118063D01*
X156019995Y-85122589D01*
X155688046Y-85235915D01*
X155679109Y-85235344D01*
X155673193Y-85228622D01*
X155672566Y-85224842D01*
X155672566Y-85091694D01*
X155673916Y-85086238D01*
X155759005Y-84924809D01*
X155815008Y-84818561D01*
X155821896Y-84812842D01*
X155830813Y-84813668D01*
G37*
%TD.AperFunction*%
%TD*%
%TA.AperFunction,Conductor*%
%TO.N,/ENCODER_SPI_NSS*%
G36*
X148043087Y-88348931D02*
G01*
X148045894Y-88353445D01*
X148162031Y-88695787D01*
X148161443Y-88704723D01*
X148154710Y-88710626D01*
X148153289Y-88711010D01*
X147969338Y-88748523D01*
X147964662Y-88748523D01*
X147780710Y-88711010D01*
X147773289Y-88705999D01*
X147771584Y-88697208D01*
X147771965Y-88695796D01*
X147888106Y-88353444D01*
X147894009Y-88346712D01*
X147899186Y-88345504D01*
X148034814Y-88345504D01*
X148043087Y-88348931D01*
G37*
%TD.AperFunction*%
%TD*%
M02*
